<svg xmlns="http://www.w3.org/2000/svg" width="512" height="512"><path d="M135.682 48.427c.001.352 16.627 37.312 36.945 82.133l36.943 81.493-8.998.543c-4.949.298-26.746.779-48.436 1.067l-39.438.525-22.002-26.863-22.003-26.862-26.256-.018-26.256-.018.445 1.92c3.829 16.521 20.301 92.714 20.246 93.653-.041.704-4.706 22.202-10.367 47.774-5.66 25.572-10.292 46.98-10.292 47.574 0 .845 5.524 1.079 25.55 1.079h25.55l22.024-26.619c12.112-14.641 22.407-27.108 22.876-27.704.69-.877 9.953-.872 48.432.028 26.168.612 47.82 1.355 48.116 1.652.297.296-16.026 37.126-36.271 81.845-20.246 44.718-36.81 81.594-36.81 81.945 0 .352 14.01.639 31.133.639h31.133l8.334-10.031c4.583-5.517 34.617-42.011 66.741-81.098l58.408-71.066 7.022.57c3.862.313 26.538.615 50.392.671 47.133.11 49.063-.036 66.41-5.022 25.55-7.343 40.534-22.889 40.534-42.055 0-11.178-3.637-19.189-12.458-27.44-9.853-9.218-26.293-15.705-48.129-18.993-8.338-1.255-42.137-1.452-79.42-.462l-24.381.648-66.761-81.074-66.761-81.074h-31.099c-17.104 0-31.097.288-31.096.64" fill-rule="evenodd"/></svg>