<svg xmlns="http://www.w3.org/2000/svg" width="512" height="512"><path d="M53.238 48.613c-.991.406-2.632 1.793-3.646 3.082l-1.844 2.345.232 50.614.233 50.615 2.366 2.365L52.944 160l49.439.24c55.378.268 54.43.358 56.821-5.365 1.092-2.614 1.241-10.17 1.036-52.492L160 52.944l-2.366-2.365-2.365-2.366-50.115-.169c-27.563-.094-50.925.162-51.916.569m151.989-.03c-.939.39-2.475 1.562-3.414 2.605-1.66 1.846-1.712 3.253-1.918 51.941-.165 38.936.027 50.518.865 52.178.593 1.173 2.416 2.804 4.052 3.625 2.727 1.368 6.99 1.492 51.188 1.492s48.461-.124 51.188-1.492c1.636-.821 3.459-2.452 4.052-3.625.838-1.66 1.03-13.256.865-52.248l-.212-50.114-2.365-2.366-2.366-2.366-50.114-.169c-27.563-.094-50.883.149-51.821.539m151.893 0c-.939.39-2.475 1.562-3.413 2.605-1.659 1.844-1.714 3.274-1.947 51.265-.205 42.26-.056 49.808 1.036 52.422 2.391 5.723 1.443 5.633 56.821 5.365l49.439-.24 2.365-2.366 2.366-2.366V52.945l-2.366-2.366-2.366-2.366-50.114-.169c-27.563-.094-50.882.149-51.821.539M50.282 202.735l-2.069 2.202v102.224l2.366 2.366 2.366 2.366 50.114.212c38.992.165 50.588-.027 52.248-.865 1.173-.593 2.804-2.416 3.625-4.052 1.368-2.726 1.492-6.983 1.493-51.002.002-51.197-.102-52.571-4.137-54.731-1.179-.631-17.852-.922-52.83-.922H52.351l-2.069 2.202m151.893 0-2.068 2.202v102.224l2.366 2.366 2.366 2.366h102.322l2.366-2.366 2.366-2.366V204.937l-2.068-2.202-2.069-2.202H204.244l-2.069 2.202m153.372-1.235c-3.858 2.242-3.974 3.833-3.972 54.686.001 44.019.125 48.276 1.493 51.002.821 1.636 2.452 3.459 3.625 4.052 1.66.838 13.256 1.03 52.248.865l50.114-.212 2.366-2.366 2.366-2.366V204.937l-2.069-2.202-2.069-2.202-51.264.026c-34.871.018-51.768.319-52.838.941M50.608 354.486l-2.395 2.06v102.509l2.366 2.366 2.366 2.366H155.268l2.366-2.366 2.366-2.365.254-48.408c.14-26.624.019-49.699-.27-51.277-.288-1.577-1.441-3.785-2.562-4.906l-2.038-2.038H53.002l-2.394 2.059m151.893 0-2.394 2.06v102.509l2.366 2.366 2.366 2.366h102.322l2.366-2.366 2.366-2.366V356.546l-2.394-2.06-2.394-2.059h-102.21l-2.394 2.059m152.077-.021c-1.121 1.121-2.274 3.329-2.562 4.906-.289 1.578-.41 24.653-.27 51.277l.254 48.408 2.366 2.365 2.366 2.366H459.055l2.366-2.366 2.366-2.366V356.546l-2.395-2.06-2.394-2.059H356.616l-2.038 2.038" fill-rule="evenodd"/></svg>