<svg xmlns="http://www.w3.org/2000/svg" width="512" height="512"><path d="M40.407 48.715c-3.851 1.121-7.754 5.924-8.404 10.342-.296 2.015-.418 16.335-.271 31.823.251 26.358.377 28.345 1.975 31.05.938 1.59 3.044 3.606 4.68 4.48C41.265 127.949 48.25 128 256 128s214.735-.051 217.613-1.59c1.636-.874 3.742-2.89 4.68-4.48 1.623-2.749 1.707-4.422 1.707-34.187 0-30.28-.057-31.375-1.759-33.654-.968-1.296-2.82-3.149-4.116-4.116l-2.357-1.76-214.337-.139c-127.732-.084-215.423.176-217.024.641m23.797 254.858.223 143.147 2.647 4.693c1.456 2.582 4.257 5.932 6.224 7.445 7.449 5.729-5.314 5.355 182.702 5.355s175.253.374 182.702-5.355c1.967-1.513 4.768-4.863 6.224-7.445l2.647-4.693.223-143.147.224-143.146H63.98l.224 143.146m208.009-34.992v60.368l23.895-23.883 23.894-23.883 11.303 11.303 11.303 11.304-43.304 43.304L256 390.398l-43.304-43.304-43.304-43.304 11.303-11.304 11.303-11.303 23.894 23.883 23.895 23.883V208.213h32.426v60.368" fill-rule="evenodd"/></svg>