<svg xmlns="http://www.w3.org/2000/svg" width="512" height="512"><path d="m252.38 123.848-.22 51.512-9.367.58c-35.659 2.206-71.143 11.423-96.873 25.164-55.842 29.821-87.397 82.105-96.043 159.134-1.265 11.271-2.847 73.453-1.982 77.897.242 1.244 4.756-3.423 18.161-18.773 19.8-22.674 36.664-39.948 47.011-48.152 33.554-26.605 69.32-38.086 129.06-41.427l10.446-.584.22 51.181.22 51.182 104.96-89.327c57.728-49.129 104.96-89.73 104.96-90.223 0-.641-196.409-168.493-208.882-178.511-1.362-1.094-1.464 1.985-1.671 50.347" fill-rule="evenodd"/></svg>