<svg xmlns="http://www.w3.org/2000/svg" width="512" height="512"><path d="M241.92 48.656c-32.351 2.022-64.984 12.273-93.189 29.276-53.917 32.501-89.753 86.952-98.941 150.335-2.03 14.002-2.03 41.464 0 55.466 5.257 36.266 18.79 68.894 40.768 98.296 8.04 10.755 28.658 31.373 39.413 39.413 29.402 21.978 62.03 35.511 98.296 40.768 7.099 1.029 15.606 1.485 27.733 1.485s20.634-.456 27.733-1.485c36.266-5.257 68.894-18.79 98.296-40.768 10.755-8.04 31.373-28.658 39.413-39.413 20.459-27.37 33.566-57.361 39.414-90.189 10.068-56.519-4.22-115.167-39.415-161.788-32.853-43.518-83.69-72.968-138.134-80.021-12.74-1.65-28.565-2.176-41.387-1.375m18.768 116.032 11.063 11.088-5.946 6.192c-3.271 3.406-17.469 17.808-31.551 32.005l-25.604 25.814h148.897v32.426H208.65l25.604 25.814c14.082 14.197 28.28 28.599 31.551 32.005l5.946 6.192-11.066 11.091c-6.087 6.1-11.273 10.994-11.525 10.875-.252-.119-23.256-23.161-51.12-51.204l-50.663-50.987 50.685-51.122c27.877-28.117 50.882-51.157 51.124-51.199.241-.043 5.417 4.912 11.502 11.01" fill-rule="evenodd"/></svg>