<svg xmlns="http://www.w3.org/2000/svg" width="512" height="512"><path d="M241.92 48.656c-32.351 2.022-64.984 12.273-93.189 29.276-53.917 32.501-89.753 86.952-98.941 150.335-2.03 14.002-2.03 41.464 0 55.466 5.257 36.266 18.79 68.894 40.768 98.296 8.04 10.755 28.658 31.373 39.413 39.413 29.402 21.978 62.03 35.511 98.296 40.768 7.099 1.029 15.606 1.485 27.733 1.485s20.634-.456 27.733-1.485c36.266-5.257 68.894-18.79 98.296-40.768 10.755-8.04 31.373-28.658 39.413-39.413 20.459-27.37 33.566-57.361 39.414-90.189 10.068-56.519-4.22-115.167-39.415-161.788-32.853-43.518-83.69-72.968-138.134-80.021-12.74-1.65-28.565-2.176-41.387-1.375M272.213 228.8v74.346l31.605-31.253c17.383-17.189 31.885-31.253 32.226-31.253.341 0 5.555 4.946 11.586 10.99l10.966 10.99-50.965 50.664C279.6 341.148 256.366 363.947 256 363.947c-.366 0-23.6-22.799-51.631-50.663l-50.965-50.664 10.966-10.99c6.031-6.044 11.237-10.99 11.569-10.99.332 0 14.833 14.061 32.225 31.247l31.623 31.248V154.453h32.426V228.8" fill-rule="evenodd"/></svg>