<svg xmlns="http://www.w3.org/2000/svg" width="512" height="512"><path d="M241.92 48.656c-32.351 2.022-64.984 12.273-93.189 29.276-53.917 32.501-89.753 86.952-98.941 150.335-2.03 14.002-2.03 41.464 0 55.466 5.257 36.266 18.79 68.894 40.768 98.296 8.04 10.755 28.658 31.373 39.413 39.413 29.402 21.978 62.03 35.511 98.296 40.768 7.099 1.029 15.606 1.485 27.733 1.485s20.634-.456 27.733-1.485c36.266-5.257 68.894-18.79 98.296-40.768 10.755-8.04 31.373-28.658 39.413-39.413 20.459-27.37 33.566-57.361 39.414-90.189 10.068-56.519-4.22-115.167-39.415-161.788-32.853-43.518-83.69-72.968-138.134-80.021-12.74-1.65-28.565-2.176-41.387-1.375m75.093 152.712 47.145 44.74 1.918 1.82-50.131 47.75-50.132 47.75-.225-27.074-.225-27.074-6.602.007c-8.706.01-24.397 1.417-33.682 3.02-16.289 2.814-31.83 8.821-44.351 17.145-7.491 4.98-20.245 17.06-28.674 27.158l-6.386 7.651.593-11.064c1.162-21.683 3.904-38.542 8.598-52.873 15.012-45.827 48.314-70.223 99.434-72.844l10.667-.547.226-27.254.225-27.255 3.188 3.012c1.753 1.656 23.54 22.326 48.414 45.932" fill-rule="evenodd"/></svg>