<svg xmlns="http://www.w3.org/2000/svg" width="512" height="512"><path d="M241.92 48.656c-32.351 2.022-64.984 12.273-93.189 29.276-53.917 32.501-89.753 86.952-98.941 150.335-2.03 14.002-2.03 41.464 0 55.466 5.257 36.266 18.79 68.894 40.768 98.296 8.04 10.755 28.658 31.373 39.413 39.413 29.402 21.978 62.03 35.511 98.296 40.768 7.099 1.029 15.606 1.485 27.733 1.485s20.634-.456 27.733-1.485c36.266-5.257 68.894-18.79 98.296-40.768 10.755-8.04 31.373-28.658 39.413-39.413 20.459-27.37 33.566-57.361 39.414-90.189 10.068-56.519-4.22-115.167-39.415-161.788-32.853-43.518-83.69-72.968-138.134-80.021-12.74-1.65-28.565-2.176-41.387-1.375m15.787 158.824c44.677 2.29 76.062 21.441 93.062 56.784 8.689 18.064 13.421 39.759 14.942 68.498l.607 11.483-6.379-7.643c-25.508-30.56-49.4-42.85-90.286-46.445-5.397-.474-12.784-.866-16.414-.87l-6.602-.007-.225 27.074-.225 27.074-50.126-47.744c-39.194-37.332-49.895-47.964-49.067-48.749.583-.553 23.139-21.996 50.126-47.653l49.067-46.648.426 27.15.427 27.149 10.667.547" fill-rule="evenodd"/></svg>