<svg xmlns="http://www.w3.org/2000/svg" width="512" height="512"><path d="M256.853 62.794c-1.642.194-6.634.75-11.093 1.235-32.921 3.578-69.37 18.495-98.178 40.181-45.378 34.16-74.555 82.332-83.299 137.53-2.092 13.204-2.085 44.35.012 56.463 4.681 27.035 13.62 49.911 27.718 70.934 27.327 40.75 69.232 67.135 119.255 75.087 11.626 1.848 39.037 2.507 53.692 1.292 21.708-1.801 38.616-6.142 62.72-16.104 6.336-2.619 11.642-4.845 11.791-4.949.266-.184-11.525-28.535-12.112-29.122-.165-.165-5.984 2.02-12.931 4.854-23.842 9.728-35.6 12.488-58.177 13.657-25.545 1.323-45.363-.91-64.967-7.319-46.84-15.315-81.839-53.948-93.078-102.746-2.879-12.5-3.741-22.949-3.259-39.52.762-26.195 5.751-45.824 17.788-69.986 8.748-17.561 18.018-30.549 32.296-45.249 28.142-28.974 64.243-47.668 102.309-52.977 10.947-1.527 34.958-1.766 46.633-.465 78.736 8.776 125.243 61.89 122.151 139.503-.864 21.704-3.965 35.547-11.317 50.529-11.892 24.232-34.214 37.528-51.897 30.913-11.727-4.388-19.228-18.518-19.226-36.215 0-3.285 2.282-30.917 5.07-61.403 2.789-30.487 4.952-55.549 4.807-55.694-.353-.353-25.839-2.791-29.211-2.794l-2.663-.002-.579 7.893c-.318 4.341-.799 9.17-1.07 10.73l-.492 2.838-2.666-2.475c-10.789-10.015-26.219-17.5-40.985-19.882-8.983-1.449-26.362-.623-35.068 1.667-9.666 2.542-24.264 10.038-32.678 16.779-40.839 32.719-51.839 96.602-23.793 138.183 22.575 33.469 65.939 43.614 105.49 24.678 9.431-4.515 16.113-9.115 24.33-16.749l5.936-5.515 3.343 5.172c7.073 10.942 18.339 19.504 31.718 24.101 9.314 3.201 23.025 3.393 33.28.467 34.068-9.722 58.51-40.346 66.869-83.781 11.575-60.153-7.401-122.837-48.095-158.866-24.997-22.131-57.86-36.447-94.72-41.261-9.883-1.291-39.53-2.338-45.654-1.612m4.75 128.411c8.485 1.529 18.515 6.934 25.119 13.538 6.802 6.802 12.938 18.22 14.935 27.79 2.68 12.843.922 31.211-4.292 44.857-4.718 12.346-15.141 25.2-25.454 31.393-17.855 10.719-38.07 12.448-54.311 4.643-6.943-3.336-16.045-12.81-19.919-20.733-5.274-10.785-6.789-18.657-6.305-32.762.489-14.236 1.795-19.83 7.396-31.664 12.668-26.77 37.769-41.576 62.831-37.062" fill-rule="evenodd"/></svg>