<svg xmlns="http://www.w3.org/2000/svg" viewBox="0 0 512 512"><path d="M247.893.574c-73.628 3.609-136.816 52.028-159.51 122.227-5.642 17.454-8.17 33.891-8.17 53.133 0 38.029 12.507 78.096 34.86 111.683 17.647 26.514 42.505 50.708 69.247 67.394 16.337 10.195 43.249 21.448 59.003 24.673 3.826.783 4.748 1.284 4.488 2.438-1.457 6.459-8.024 43.895-8.024 45.74 0 3.414 4.204 7.344 7.827 7.316 1.562-.012 9.165-.951 16.896-2.086 7.731-1.134 14.171-1.948 14.311-1.808.14.14 1.998 3.67 4.127 7.845 6.849 13.426 14.513 23.914 25.515 34.915 15.168 15.168 27.871 23.316 51.059 32.755l12.642 5.146 1.328-3.173c5.339-12.745 10.32-26.297 9.823-26.723-.327-.281-4.819-2.167-9.982-4.193-19.782-7.76-31.975-15.417-43.362-27.229-7.417-7.694-18.222-22.953-17.004-24.013.348-.303 5.357-1.2 11.131-1.994s11.396-1.853 12.493-2.353c2.494-1.136 4.172-4.182 4.08-7.408-.039-1.359-4.75-11.825-10.47-23.257-8.067-16.123-10.138-20.939-9.234-21.467 25.72-15.007 42.701-28.989 58.9-48.497 25.411-30.6 42.39-67.41 49.462-107.233 2.273-12.797 3.148-41.866 1.652-54.88-4.795-41.723-20.869-76.482-48.658-105.22C356.688 27.795 323.353 9.792 288 3.367 280.329 1.973 255.04-.36 253.44.179c-.235.079-2.731.257-5.547.395m-81.19 210.839c7.708 22.104 19.459 40.693 35.055 55.453 13.218 12.509 26.329 20.777 44.429 28.015 5.632 2.252 10.33 4.148 10.44 4.212.331.193-10.957 28.105-11.665 28.844-1.337 1.396-25.328-9.04-36.678-15.955a166.938 166.938 0 0 1-62.329-67.651c-4.108-8.185-11.982-28.237-11.982-30.513 0-.703 5.499-3.131 14.294-6.312 7.861-2.843 14.505-5.191 14.765-5.218.259-.026 1.911 4.08 3.671 9.125" fill-rule="evenodd"/></svg>