<svg xmlns="http://www.w3.org/2000/svg" width="512" height="512"><path d="M354.223 17.564c-9.839 2.646-11.662 4.196-51.503 43.807-21.003 20.881-38.187 38.367-38.187 38.859 0 1.155 146.069 147.237 147.224 147.237 1.578 0 75.26-74.563 78.002-78.934 7.579-12.084 8.004-27.206 1.152-40.96-1.623-3.257-13.556-15.74-50.465-52.792-30.254-30.37-50.232-49.77-53.398-51.852-9.566-6.293-21.888-8.306-32.825-5.365m-170.33 163.343-58.023 58.028 73.598 73.599 73.599 73.598 58.027-58.027 58.027-58.028-73.603-73.599-73.602-73.599-58.023 58.028m77.883 12.414c6.405 2.676 9.789 7.62 9.887 14.444.175 12.229-12.729 19.965-23.349 13.996-9.033-5.077-10.741-18.259-3.269-25.235 4.612-4.306 11.114-5.552 16.731-3.205m-45.586 49.334c7.396 4.069 9.725 14.439 4.938 21.986-5.109 8.057-15.909 9.698-23.237 3.532-3.285-2.764-5.854-8.106-5.854-12.173 0-6.256 5.498-13.82 10.909-15.008 1.254-.276 2.665-.629 3.134-.784 1.719-.569 6.912.688 10.11 2.447m95.277-.702c4.719 2.4 8.551 8.805 8.514 14.233-.058 8.773-9.309 17.091-17.523 15.758-8.496-1.379-14.031-7.604-14.031-15.782 0-12.025 12.353-19.644 23.04-14.209M62.652 302.28c-38.705 38.888-40.246 40.559-42.977 46.619-5.452 12.094-4.458 26.884 2.517 37.472 4.285 6.504 99.769 101.622 104.955 104.552 6.632 3.747 13.05 5.128 21.709 4.672 6.62-.348 8.711-.86 14.557-3.561 6.719-3.105 7.461-3.788 46.729-43.008l39.902-39.853-73.624-73.613-73.624-73.614-40.144 40.334m201.594-11.683c8.663 5.076 10.067 18.007 2.703 24.882-4.594 4.29-11.126 5.54-16.725 3.2-6.469-2.703-9.828-7.672-9.828-14.539 0-12.429 13.079-19.856 23.85-13.543" fill-rule="evenodd"/></svg>