<svg xmlns="http://www.w3.org/2000/svg" width="512" height="512"><path d="m92.878 96.403-34.695.45-3.278 2.61c-1.803 1.435-4.142 4.3-5.198 6.367l-1.92 3.758.018 146.806c.018 140.584.086 146.952 1.586 150.255 1.9 4.183 5.908 7.708 10.167 8.941 2.077.602 14.287.829 35.589.663l32.426-.253.232-16 .233-16H80.213V128H128v-16.213c0-8.918-.096-16.128-.213-16.024-.118.105-15.827.393-34.909.64m291.317 16.024.232 16 23.68-.337 23.68-.336V384h-10.958c-6.027 0-16.779.252-23.893.56l-12.936.56v31.397l33.92-.259 33.92-.258 3.979-2.339c2.189-1.287 4.877-3.783 5.973-5.547l1.995-3.207V107.093l-1.995-3.207c-1.096-1.764-3.626-4.164-5.621-5.334l-3.628-2.125H383.962l.233 16M175.787 256v111.787h32.426V144.213h-32.426V256m128 0v111.787h32.426V144.213h-32.426V256m-63.791.213.217 95.787h31.574l.217-95.787.217-95.786h-32.442l.217 95.786M111.787 256v80.213h32.426V175.787h-32.426V256m256 0v80.213h32.426V175.787h-32.426V256" fill-rule="evenodd"/></svg>