<svg xmlns="http://www.w3.org/2000/svg" width="512" height="512"><path d="M110.507 33.014C79.668 37.011 58.49 51.288 50.592 73.406c-2.087 5.844-2.308 7.716-2.631 22.246l-.353 15.865 13.529.523c20.335.785 26.839 3.489 31.57 13.125l2.44 4.968.426 167.277L96 464.686l2.18 4.236c2.729 5.302 7.951 9.359 13.612 10.573 3.052.654 50.906.932 160.735.932 176.713 0 162.469.563 169.516-6.703 2.233-2.302 4.298-5.452 4.906-7.482.818-2.73 1.051-44.948 1.052-190.714 0-123.083.305-190.423.888-196.595 1.366-14.432 2.833-19.93 8.883-33.284 3.073-6.784 5.588-12.534 5.588-12.778 0-.507-348.933-.365-352.853.143m307.261 34.717c-1.42 9.465-2.137 29.224-2.165 59.629l-.03 33.067h-287.38l-.414-17.707c-.439-18.792-1.206-23.422-5.401-32.607-5.983-13.099-17.633-21.755-33.893-25.185-1.988-.419-2.303-.826-1.853-2.396.949-3.31 5.033-8.587 8.537-11.032 4.046-2.824 12.506-5.592 20.083-6.572 3.022-.392 72.45-.76 154.285-.82L418.327 64l-.559 3.731" fill-rule="evenodd"/></svg>