<svg xmlns="http://www.w3.org/2000/svg" width="512" height="512"><path d="M198.346 17.544c-20.213 3.398-38.927 12.711-55.964 27.853l-5.779 5.137-4.37-1.049c-5.603-1.344-17.745-1.346-24.302-.003-6.825 1.397-15.872 5.686-22.355 10.599-18.36 13.914-26.074 39.304-18.655 61.404l2.252 6.708-3.689 3.957c-7.435 7.976-12.685 17.472-15.659 28.326-2.279 8.318-2.093 23.166.401 31.951 3.95 13.917 12.989 26.846 24.522 35.076l5.465 3.9v126.253c0 122.204.052 126.354 1.616 129.418 1.996 3.911 3.935 5.706 7.988 7.4 2.781 1.162 18.188 1.313 134.183 1.313 115.995 0 131.402-.151 134.183-1.313 4.231-1.768 6.134-3.587 7.999-7.647 1.41-3.07 1.569-6.01 1.586-29.227l.019-25.813h41.757c27.43 0 42.583-.312 44.16-.908 3.416-1.29 7.052-4.933 8.892-8.906 1.509-3.26 1.58-7.837 1.58-101.973s-.071-98.713-1.58-101.973c-1.84-3.973-5.476-7.616-8.892-8.906-1.577-.596-16.73-.908-44.16-.908h-41.757v-2.62c0-1.724 1.279-4.425 3.738-7.893 4.825-6.807 7.561-12.317 10.046-20.228 2.887-9.195 2.888-25.73.003-34.965-6.517-20.86-21.518-36.471-41.421-43.104-3.699-1.233-9.332-2.46-12.518-2.727l-5.791-.485-2.283-6.496c-13.25-37.694-46.684-65.831-85.748-72.161-9.753-1.581-26.033-1.576-35.467.01m36.151 32.846c26.766 6.243 48.432 27.509 56.526 55.481 2.93 10.128 3.236 25.829.777 39.909-1.078 6.173-1.75 11.434-1.493 11.691.834.835 30.104 6.242 30.62 5.657.812-.921 4.312-21.313 4.828-28.124.471-6.24.485-6.269 2.693-5.734 8.111 1.963 15.948 8.449 19.894 16.464 2.606 5.294 2.805 6.303 2.805 14.266 0 7.96-.199 8.974-2.8 14.256-6.582 13.37-21.464 20.262-35.814 16.585-7.29-1.867-12.906-4.873-19.401-10.382l-5.507-4.672H148.796l-1.997 5.76c-2.931 8.453-4.854 11.921-9.17 16.535-4.683 5.006-10.788 8.036-18.888 9.374-14.738 2.434-29.539-5.299-35.831-18.72-1.959-4.179-2.27-5.954-2.27-12.949 0-7.243.267-8.651 2.508-13.216 3.201-6.518 9.393-12.711 15.637-15.637 4.11-1.926 6.059-2.294 12.148-2.294 8.748 0 13.043 1.764 23.427 9.623l6.788 5.137 9.636-12.855 9.637-12.854-7.891-5.864c-9.422-7.002-19.354-12.043-27.517-13.967-6.243-1.471-19.35-1.939-24.102-.861-2.472.561-2.861.386-3.627-1.628-.471-1.24-.857-4.693-.857-7.672 0-13.879 11.769-24.496 25.761-23.239 12.083 1.084 19.087 8.481 25.862 27.311 1.36 3.781 2.827 6.543 3.398 6.4 5.169-1.291 28.595-10.728 28.6-11.52.015-2.836-8.251-21.837-11.855-27.248l-4.115-6.179 2.654-2.449c17.206-15.874 43.107-22.137 67.765-16.385m-58.71 285.397v96h-31.574v-192h31.574v96m64 0v96h-31.574v-192h31.574v96m64 0v96h-31.574v-192h31.574v96m128-15.787v80.213h-64V239.787h64V320" fill-rule="evenodd"/></svg>