<svg xmlns="http://www.w3.org/2000/svg" width="512" height="512"><path d="m235.31 105.666-.217 106.082-46.403-39.775c-25.521-21.877-46.692-39.664-47.046-39.528-.975.377-25.164 28.848-25.164 29.62 0 .37 24.288 21.493 53.973 46.94 29.686 25.447 53.974 46.595 53.974 46.995 0 .4-24.288 21.548-53.974 46.995-29.685 25.447-53.973 46.57-53.973 46.94 0 .772 24.189 29.243 25.164 29.62.354.136 21.525-17.651 47.046-39.528l46.403-39.775.427 105.876.427 105.876 80.624-80.628c69.956-69.959 80.456-80.783 79.36-81.805-.696-.648-25.36-21.804-54.811-47.014-29.451-25.209-53.547-46.162-53.547-46.561 0-.4 24.48-21.706 54.4-47.346 29.92-25.641 54.497-46.885 54.614-47.209.118-.325-36.073-36.875-80.423-81.224L235.527-.417l-.217 106.083m102.61 53.194c0 .451-53.715 46.86-59.961 51.804-1.4 1.109-1.479-1.893-1.479-56.315V96.862l30.72 30.711c16.896 16.891 30.72 30.97 30.72 31.287m-29.241 168.676c16.083 13.766 29.241 25.288 29.241 25.604 0 .317-13.824 14.396-30.72 31.287l-30.72 30.711v-57.487c0-54.422.079-57.424 1.479-56.315.814.644 14.638 12.434 30.72 26.2" fill-rule="evenodd"/></svg>