<svg xmlns="http://www.w3.org/2000/svg" width="512" height="512"><path d="M245.87.961c-10.089 1.676-21.484 7.783-29.46 15.788-10.475 10.513-16.009 23.635-16.152 38.291-.103 10.559 1.082 15.695 5.98 25.931 6.263 13.085 17.253 22.738 31.983 28.091 5.62 2.043 7.435 2.275 17.779 2.275 10.344 0 12.159-.232 17.779-2.275 9.006-3.273 15.021-7.102 22.01-14.011 4.943-4.887 6.885-7.63 9.973-14.08 4.898-10.236 6.083-15.372 5.98-25.931-.333-34.251-31.45-59.798-65.872-54.079M47.787 154.027v26.026h144.187l-.513 4.907c-2.291 21.945-31.543 319.841-31.424 320.024.418.647 50.326 6.899 50.773 6.361.285-.344 5.228-42.865 10.984-94.492 5.756-51.626 10.649-94.538 10.873-95.36.376-1.375 2.239-1.493 23.657-1.493h23.248l10.537 95.36c5.796 52.448 10.783 95.647 11.082 95.998.299.351 11.65-.897 25.224-2.773 13.574-1.877 24.787-3.412 24.919-3.412.132 0 .239-1.164.239-2.588 0-2.636-30.277-312.282-31.182-318.905l-.496-3.627h144.318V128H47.787v26.027" fill-rule="evenodd"/></svg>