<svg xmlns="http://www.w3.org/2000/svg" width="512" height="512"><path d="M262.281 29.227c.137 14.977-1.022 20.047-7.558 33.06-9.62 19.155-18.968 30.47-56.754 68.7-39.189 39.648-50.562 53.638-61.043 75.093-5.956 12.193-8.03 20.271-8.665 33.759-.805 17.11 2.004 30.979 9.217 45.507 8.613 17.347 24.803 33.713 42.003 42.458 5.319 2.704 17.931 7.556 19.642 7.556.593 0 2.083-3.914 3.494-9.173 4.556-16.994 12.552-30.017 28.616-46.609 15.411-15.918 34.619-30.235 58.515-43.617 39.834-22.308 58.494-36.639 73.273-56.275 16.2-21.525 23.801-51.337 20.069-78.718-1.136-8.333-5.893-22.832-9.891-30.141-9.936-18.17-26.964-33.772-47.573-43.589-16.027-7.634-31.797-11.016-51.398-11.021l-12.065-.004.118 13.014M160.283 62.08c-.28 12.802-.415 13.702-2.839 18.968-1.4 3.041-6.539 10.913-11.419 17.494-14.693 19.81-18.651 30.326-17.802 47.295.432 8.632 2.743 20.563 3.983 20.563.322 0 2.482-2.592 4.801-5.76 8.09-11.053 19.306-23.249 35.597-38.71 33.381-31.677 45.153-44.518 52.134-56.872l3.019-5.342-4.865-2.453c-11.965-6.034-26.218-8.611-47.67-8.618l-14.645-.005-.294 13.44m214.35 139c-5.545 7.415-19.815 21.256-29.033 28.161-11.458 8.582-21.243 14.579-45.653 27.98-11.734 6.441-26.179 14.928-32.101 18.859-20.919 13.887-33.322 28.252-39.236 45.444l-1.555 4.518 2.313.921c7.396 2.946 17.278 5.959 23.827 7.265 11.026 2.199 31.144 1.982 42.684-.46 45.538-9.637 79.52-44.829 86.834-89.926 2.291-14.127 1.126-31.678-2.885-43.48l-1.456-4.281-3.739 4.999M32.902 338.11c-1.04 1.484-1.329 4.348-1.329 13.171 0 13.441.604 15.652 4.276 15.652 4.53 0 89.868-14.527 91.036-15.497 1.452-1.205 1.526-12.764.091-14.199-.771-.771-12.353-1.024-46.885-1.024H34.23l-1.328 1.897m352.122-.873c-1.435 1.435-1.361 12.994.091 14.199 1.168.97 86.506 15.497 91.036 15.497 3.672 0 4.276-2.211 4.276-15.652 0-8.823-.289-11.687-1.329-13.171l-1.328-1.897h-45.861c-34.532 0-46.114.253-46.885 1.024m-248.499 46.55c-38.222 25.545-45.684 30.853-45.884 32.64-.2 1.777 3.374 5.741 21.416 23.756 17.912 17.885 22.009 21.573 23.706 21.333 1.654-.233 7.953-9.121 32.557-45.934 16.779-25.105 30.507-46.391 30.507-47.302 0-2.171-12.83-15-15-15-.911 0-22.197 13.728-47.302 30.507m183.32-23.835c-3.745 3.744-6.672 7.398-6.672 8.328 0 .911 13.728 22.197 30.507 47.302 24.604 36.813 30.903 45.701 32.557 45.934 1.697.24 5.794-3.448 23.706-21.333 18.042-18.015 21.616-21.979 21.416-23.756-.2-1.787-7.662-7.095-45.884-32.64-25.105-16.779-46.391-30.507-47.302-30.507-.93 0-4.583 2.927-8.328 6.672m-79.523 2.075c-1.138 1.804-26.16 126.193-26.143 129.962.004.962.468 2.21 1.032 2.774 1.474 1.474 80.104 1.474 81.578 0 .564-.564 1.024-1.945 1.024-3.069 0-4.087-24.914-127.801-26.113-129.667-1.199-1.867-1.631-1.92-15.7-1.92-14.075 0-14.5.052-15.678 1.92" fill-rule="evenodd"/></svg>