<svg xmlns="http://www.w3.org/2000/svg" width="512" height="512"><path d="M16.213 223.862v176.351l20.694.003c40.201.007 82.455 2.336 108.35 5.972 38.14 5.357 63.482 15.657 87.351 35.501l6.752 5.614.215-166.096c.235-180.787.438-172.545-4.49-182.43-6.633-13.305-28.379-25.784-61.858-35.498-34.489-10.007-68.838-14.135-126.507-15.204l-30.507-.565v176.352M446.72 48.368c-48.873 1.285-93.522 8.667-125.44 20.738-25.588 9.676-38.803 18.515-44.365 29.671-4.928 9.885-4.725 1.643-4.49 182.43l.215 166.096 6.752-5.614c23.869-19.844 49.211-30.144 87.351-35.501 25.895-3.636 68.149-5.965 108.35-5.972l20.694-.003V47.787l-20.267.178c-11.147.098-24.107.28-28.8.403" fill-rule="evenodd"/></svg>