<svg xmlns="http://www.w3.org/2000/svg" width="512" height="512"><path d="M44.679 48.596c-4.406 1.058-8.348 4-10.578 7.895L32 60.16v391.814l2.56 4.122c1.593 2.566 3.849 4.797 5.973 5.907l3.414 1.784h424.106l3.414-1.784c2.124-1.11 4.38-3.341 5.973-5.907l2.56-4.122V60.16l-2.263-3.849c-1.394-2.371-3.688-4.665-5.973-5.974l-3.711-2.124-210.346-.13c-115.691-.072-211.553.159-213.028.513M443.215 149.83c.885 2.305.572 275.43-.317 276.837-.715 1.131-22.414 1.28-186.898 1.28-164.484 0-186.183-.149-186.898-1.28-.889-1.407-1.202-274.532-.317-276.837.47-1.225 17.759-1.35 187.215-1.35 169.456 0 186.745.125 187.215 1.35" fill-rule="evenodd"/></svg>