<svg xmlns="http://www.w3.org/2000/svg" width="512" height="512"><path d="M324.267 32.983c-35.801 5.428-58.306 16.932-76.755 39.236-27.952 33.793-35.621 82.503-20.317 129.04l2.624 7.979-35.763 35.587c-19.669 19.572-64.142 63.73-98.827 98.129l-63.064 62.542 37.321 37.252L106.807 480l98.425-98.885c84.541-84.937 98.705-98.825 100.41-98.457 1.091.236 5.441 1.458 9.665 2.715 14.05 4.182 25.827 5.816 42.24 5.862 23.145.064 40.183-3.67 59.341-13.006 37.481-18.265 58.851-51.249 62.748-96.855 1.995-23.34-3.275-53.609-13.223-75.952l-2.263-5.085-41.142 40.951c-22.628 22.523-42.4 42.077-43.939 43.455l-2.798 2.504-26.003-25.993-26.004-25.992 43.588-43.594 43.587-43.594-5.826-2.6c-12.267-5.474-28.167-9.85-42.946-11.82-8.021-1.069-32.909-1.504-38.4-.671" fill-rule="evenodd"/></svg>