<svg xmlns="http://www.w3.org/2000/svg" width="512" height="512"><path d="M80.232 193.493c.019 128.434.033 129.525 1.757 133.334 2.433 5.374 33.81 36.751 39.184 39.184 3.798 1.719 5.016 1.738 110.934 1.738 102.573 0 107.237-.067 110.506-1.585 2.18-1.013 9.911-8.177 21.39-19.822 14.65-14.861 18.163-18.885 18.986-21.748.739-2.567 1.011-20.87 1.011-68.053V192h17.651c15.866 0 18.004-.171 21.152-1.695 2.185-1.058 10.245-8.515 21.445-19.84 14.648-14.812 18.13-18.79 18.955-21.657.704-2.449 1.005-13.818.992-37.547-.018-31.264-.147-34.312-1.595-37.448-1.906-4.131-4.608-6.73-8.824-8.492C450.956 64.142 430.645 64 265.414 64H80.213l.019 129.493m351.555-76.332v20.734l-11.378 11.266-11.377 11.266H384v-64h47.787v20.734M47.787 416v15.787h368.64v-31.574H47.787V416" fill-rule="evenodd"/></svg>