<svg xmlns="http://www.w3.org/2000/svg" width="512" height="512"><path d="M104.497 34.016c-3.339 2.036-7.04 6.444-7.857 9.356-.845 3.011-.832 422.288.012 425.306.834 2.979 5.234 8.002 8.648 9.872 2.462 1.349 13 1.45 150.7 1.45s148.238-.101 150.7-1.45c3.414-1.87 7.814-6.893 8.648-9.872.852-3.047.852-422.309 0-425.356-.904-3.228-5.594-8.358-8.907-9.742-2.282-.954-28.428-1.153-151.054-1.15-142.938.003-148.387.06-150.89 1.586M367.787 128v47.787H144.213V80.213h223.574V128M192 248.32v23.893h-47.787v-47.786H192v23.893m87.893 0v23.893h-47.786v-47.786h47.786v23.893m87.894 0v23.893H320v-47.786h47.787v23.893M192 328.107v24.32h-47.787v-48.64H192v24.32m87.893 0v24.32h-47.786v-48.64h47.786v24.32m87.894 39.68v64H320v-128h47.787v64M192 407.893v23.894h-47.787V384H192v23.893m87.893 0v23.894h-47.786V384h47.786v23.893" fill-rule="evenodd"/></svg>