<svg xmlns="http://www.w3.org/2000/svg" viewBox="0 0 512 512"><path d="M111.787 48.165v15.739l-31.36.261c-30.665.256-31.44.304-34.964 2.187-4.898 2.617-9.4 7.291-11.603 12.044-1.763 3.807-1.831 5.07-1.845 34.671L32 143.787h448l-.015-30.72c-.014-29.601-.082-30.864-1.845-34.671-2.203-4.753-6.705-9.427-11.603-12.044-3.524-1.883-4.299-1.931-34.964-2.187l-31.36-.261V32.427h-48.64V64H160.427V32.427h-48.64v15.738M31.961 176.859c-.227.592-.311 64.817-.187 142.722L32 461.227l2.381 4.848c2.697 5.493 6.832 9.501 12.509 12.128L50.773 480h410.454l4.848-2.381c5.493-2.697 9.501-6.832 12.128-12.509l1.797-3.883V176.213l-223.813-.215c-179.451-.172-223.895-.001-224.226.861m287.015 32.378c.742.743 1.024 6.946 1.024 22.553 0 18.433-.193 21.721-1.341 22.869-1.148 1.148-4.436 1.341-22.869 1.341-15.607 0-21.81-.282-22.553-1.024-1.457-1.458-1.457-44.281 0-45.739 1.458-1.457 44.281-1.457 45.739 0m79.896.317c1.147 1.147 1.341 4.387 1.341 22.333 0 18.336-.178 21.189-1.412 22.552-1.297 1.433-3.166 1.561-22.869 1.561-15.551 0-21.739-.282-22.481-1.024-1.458-1.458-1.458-44.281 0-45.739.742-.742 6.946-1.024 22.552-1.024 18.434 0 21.721.193 22.869 1.341M159.375 311.467c.207 20.502.092 22.713-1.23 23.68-1.073.785-7.029 1.066-22.58 1.066-20.859 0-21.138-.023-22.45-1.896-1.112-1.588-1.328-5.209-1.328-22.243 0-12.502.343-20.988.89-22.011.854-1.595 1.834-1.655 23.68-1.437l22.79.227.228 22.614m79.388-22.016c.742.742 1.024 6.946 1.024 22.552 0 18.434-.193 21.721-1.341 22.869-1.147 1.147-4.387 1.341-22.333 1.341-18.336 0-21.189-.178-22.552-1.412-1.433-1.297-1.561-3.166-1.561-22.869 0-15.551.282-21.739 1.024-22.481 1.458-1.458 44.281-1.458 45.739 0m80.213 0c.742.741 1.024 6.897 1.024 22.332 0 18.631-.178 21.505-1.412 22.87-1.296 1.432-3.156 1.56-22.553 1.56-18.08 0-21.334-.194-22.481-1.341-1.148-1.148-1.341-4.435-1.341-22.869 0-15.606.282-21.81 1.024-22.552 1.458-1.458 44.281-1.458 45.739 0m80.354.626c.538 1.006.883 9.604.883 21.997 0 17.034-.216 20.655-1.328 22.243-1.311 1.872-1.598 1.896-22.243 1.896-12.785 0-21.556-.343-22.565-.883-1.567-.839-1.65-2.011-1.65-23.324 0-12.343.256-22.698.569-23.01.312-.313 10.667-.569 23.01-.569 21.313 0 22.485.083 23.324 1.65M157.923 368.67c1.568.839 1.65 2.013 1.65 23.488v22.604l-2.189.832c-1.203.458-11.187.833-22.186.833-18.86 0-20.095-.097-21.705-1.707-1.613-1.614-1.706-2.844-1.706-22.613s.093-21 1.706-22.614c1.612-1.612 2.845-1.706 22.243-1.706 12.524 0 21.18.344 22.187.883m80.523.458c1.148 1.148 1.341 4.447 1.341 22.991 0 21.406-.022 21.666-1.897 22.979-1.586 1.111-5.185 1.329-21.997 1.329-16.811 0-20.41-.218-21.996-1.329-1.875-1.312-1.897-1.58-1.897-22.759 0-18.745.177-21.627 1.412-22.992 1.296-1.432 3.156-1.56 22.553-1.56 18.08 0 21.334.194 22.481 1.341m79.993.071c1.434 1.297 1.561 3.17 1.561 22.992 0 21.332-.022 21.594-1.897 22.907-1.586 1.111-5.185 1.329-21.996 1.329-16.812 0-20.411-.218-21.997-1.329-1.875-1.313-1.897-1.573-1.897-22.979 0-18.544.193-21.843 1.341-22.991 1.147-1.147 4.387-1.341 22.333-1.341 18.336 0 21.189.178 22.552 1.412" fill-rule="evenodd"/></svg>