<svg xmlns="http://www.w3.org/2000/svg" viewBox="0 0 512 512"><path d="M111.787 48.165v15.739l-31.36.261c-30.665.256-31.44.304-34.964 2.187-4.898 2.617-9.4 7.291-11.603 12.044-1.763 3.807-1.831 5.07-1.845 34.671L32 143.787h448l-.015-30.72c-.014-29.601-.082-30.864-1.845-34.671-2.203-4.753-6.705-9.427-11.603-12.044-3.524-1.883-4.299-1.931-34.964-2.187l-31.36-.261V32.427h-48.64V64H160.427V32.427h-48.64v15.738M31.961 176.859c-.227.592-.311 64.817-.187 142.722L32 461.227l2.381 4.848c2.697 5.493 6.832 9.501 12.509 12.128L50.773 480h410.454l4.848-2.381c5.493-2.697 9.501-6.832 12.128-12.509l1.797-3.883V176.213l-223.813-.215c-179.451-.172-223.895-.001-224.226.861m172.656 32.238c14.576 2.365 26.152 8.038 35.631 17.463 10.415 10.354 15.065 21.978 15.011 37.518-.031 8.742-1.361 15.591-4.332 22.307-2.164 4.892-7.747 12.928-11.431 16.453l-3.022 2.892 3.902 3.224c12.94 10.693 20.095 26.876 20.163 45.606.043 11.546-1.195 17.624-5.388 26.453-7.908 16.653-21.602 27.178-42.252 32.474-6.767 1.736-10.638 2.193-18.766 2.218-12.022.037-19.989-1.731-29.65-6.579-8.273-4.152-12.862-7.631-20.061-15.209-7.206-7.587-17.648-24.305-16.117-25.805 1.318-1.292 26.237-15.897 26.515-15.541.121.155 2.362 3.955 4.981 8.443 5.935 10.173 13.573 17.673 20.835 20.457 10.332 3.96 24.036 2.866 34.594-2.761 10.038-5.35 13.924-12.749 13.292-25.311-.724-14.412-7.056-21.949-23.62-28.114-4.662-1.736-7.697-2.176-17.382-2.523l-11.733-.421v-31.128l10.88-.449c10.863-.449 16.159-1.656 23.165-5.279 14.518-7.507 18.388-25.709 7.741-36.403-8.976-9.015-28.593-11.708-40.678-5.584-5.2 2.635-9.054 6.88-13.482 14.851-1.877 3.38-3.624 6.154-3.881 6.165-.416.017-26.387-15.108-27.139-15.806-.166-.153 2.226-4.473 5.315-9.599 7.409-12.298 14.556-19.148 25.483-24.426 4.346-2.099 10.59-4.383 13.876-5.074 7.078-1.489 20.045-1.73 27.55-.512m163.17 103.223v99.84h-31.574v-77.653c0-42.71-.206-77.654-.457-77.654-.252 0-8.15 5.664-17.551 12.587-9.401 6.923-17.301 12.521-17.555 12.441-.582-.183-19.114-25.264-18.831-25.487.114-.09 13.605-10.008 29.98-22.039l29.772-21.875h26.216v99.84" fill-rule="evenodd"/></svg>