<svg xmlns="http://www.w3.org/2000/svg" width="512" height="512"><path d="M193.28 81.011c-8.214 2-11.122 5.384-30.109 35.042-15.113 23.608-17.252 26.385-21.304 27.668-1.913.605-1.92.571-1.92-8.902 0-9.374-.036-9.546-2.495-12.005l-2.494-2.494h-22.735c-13.961 0-23.369.339-24.377.879-3.146 1.683-4.219 5.357-4.219 14.439v8.575H50.619l-5.222 2.61c-5.774 2.885-8.922 6.111-11.612 11.897L32 162.56v250.88l1.834 3.967c2.21 4.782 7.235 9.988 11.848 12.275 3.338 1.655 6.264 1.678 210.318 1.678s206.98-.023 210.318-1.678c4.613-2.287 9.638-7.493 11.848-12.275L480 413.44V288c0-117.25-.097-125.654-1.481-128.715-2.382-5.267-6.173-9.431-11.043-12.129l-4.543-2.516-46.57-.427-46.571-.426-2.934-2.012c-2.046-1.402-7.561-9.257-18.21-25.935-9.667-15.139-16.94-25.588-19.808-28.456-7.492-7.493-4.303-7.184-73.208-7.083-32.886.048-60.944.367-62.352.71m79.36 96.576c29.517 4.983 55.618 24.513 69.048 51.666 7.706 15.579 10.359 28.506 9.662 47.077-.519 13.827-2.942 24.314-8.22 35.578-16.162 34.487-49.516 55.879-87.13 55.879-43.591 0-81.702-29.384-92.741-71.505-2.672-10.193-3.592-27.897-2.011-38.706 3.287-22.48 15.871-44.912 33.101-59.001 22.553-18.443 49.915-25.778 78.291-20.988m-29.867 31.851c-24.048 5.628-42.3 23.057-48.76 46.562-2.379 8.657-2.177 24.991.413 33.28 3.635 11.636 8.223 19.25 16.74 27.779 6.519 6.53 8.97 8.34 15.821 11.69 11.325 5.537 17.163 6.932 29.013 6.932 11.85 0 17.688-1.395 29.013-6.932 6.851-3.35 9.302-5.16 15.821-11.69 8.517-8.529 13.105-16.143 16.74-27.779 2.59-8.289 2.792-24.623.413-33.28-5.901-21.471-22.427-38.605-43.64-45.245-7.685-2.406-24.012-3.086-31.574-1.317" fill-rule="evenodd"/></svg>