<svg xmlns="http://www.w3.org/2000/svg" width="512" height="512"><path d="M40.85 81.925c-4.495 2.375-7.316 6.18-8.374 11.293-.6 2.896-.849 15.844-.703 36.489l.227 32h448l.227-32c.146-20.645-.103-33.593-.703-36.489-1.076-5.199-3.923-8.971-8.557-11.335-3.222-1.644-6.501-1.669-215.146-1.632-207.155.037-211.943.074-214.971 1.674m-8.706 140.509c-1.032 1.032-.668 191.747.375 196.61 1.158 5.403 5.555 10.629 10.028 11.92 2.143.618 68.895.819 215.294.646l212.187-.25 3.279-2.615c1.804-1.438 4.048-4.126 4.986-5.973 1.678-3.301 1.707-5.047 1.707-101.919v-98.56l-223.643-.215c-123.003-.118-223.899.042-224.213.356m171.415 50.167 2.094 2.095-.027 35.239c-.02 26.355-.289 35.58-1.066 36.592-2.517 3.278-3.501 3.34-53.103 3.34h-48.335l-2.494-2.495-2.495-2.494V275.023l2.093-2.258 2.093-2.258H201.464l2.095 2.094" fill-rule="evenodd"/></svg>