<svg xmlns="http://www.w3.org/2000/svg" width="512" height="512"><path d="M31.768 80 32 96l33.311.223 33.311.223 23.897 135.457 23.898 135.457 142.685.216 142.685.216v-31.579H173.505l-2.699-15.233c-1.485-8.378-2.699-15.674-2.699-16.213 0-.734 32.81-.98 130.56-.98 71.808 0 130.56-.101 130.56-.225 0-.398 37.494-187.869 37.971-189.855l.461-1.92H134.006l-.428-1.92c-.236-1.056-1.791-9.792-3.455-19.414-1.665-9.621-3.427-19.509-3.916-21.973l-.888-4.48H31.536l.232 16m136.975 304.872c-13.633 3.444-23.471 14.981-24.342 28.545-.518 8.067.882 13.706 4.972 20.034 11.316 17.508 35.972 19.404 50.18 3.859 5.775-6.319 8.098-12.431 8.098-21.31 0-12.607-6.494-23.092-17.728-28.623-5.923-2.916-15.207-4.014-21.18-2.505m222.877.24c-9.214 2.614-17.973 10.481-21.373 19.196-2.632 6.747-2.626 16.652.015 23.422 2.626 6.736 9.035 13.555 15.931 16.949 14.284 7.033 31.77 2.177 40.434-11.228 13.36-20.671-.321-47.66-24.883-49.085-3.659-.212-7.832.096-10.124.746" fill-rule="evenodd"/></svg>