<svg xmlns="http://www.w3.org/2000/svg" width="512" height="512"><path d="M267.52 33.71c-22.169 3.145-39.545 8.418-58.88 17.869-38.414 18.776-67.337 47.392-85.435 84.528-11.933 24.487-17.392 48.508-17.392 76.535 0 60.642 30.696 117.309 81.834 151.074 28.681 18.936 67.105 30.505 101.376 30.521 15.982.008 42.3-5.232 66.794-13.298 9.557-3.148 18.107-5.472 20.126-5.472 1.97 0 20.892 5.024 43.101 11.444 40.019 11.57 41.656 11.897 42.931 8.576.287-.748-3.75-17.623-8.971-37.498-5.898-22.454-9.299-36.906-8.983-38.167.281-1.116 3.038-5.853 6.128-10.526C496.915 238.581 487.793 147.207 428 87.414c-27.637-27.637-63.53-45.94-103.745-52.903-11.326-1.961-45.187-2.439-56.735-.801M69.546 203.733c-7.41 8.849-16.938 23.574-21.672 33.494-23.566 49.382-20.793 104.423 7.662 152.062 3.716 6.222 6.757 11.652 6.757 12.065 0 .414-3.262 17.443-7.249 37.842-7.45 38.113-7.606 39.662-4.084 40.545.836.21 17.45-5.31 36.919-12.266 26.268-9.386 36.419-12.648 39.355-12.648 2.462 0 8.75 1.594 16.654 4.223 20.654 6.87 36.113 9.43 56.94 9.43 36.066 0 71.213-11.645 100.203-33.2 10.113-7.519 16.409-13.6 16.409-15.848 0-3.768-1.609-4.141-12.806-2.97-12.268 1.284-35.459.661-48.634-1.305-43.488-6.49-83.925-26.024-113.765-54.956-16.884-16.37-34.137-41.276-43.422-62.684-11.259-25.959-16.54-50.192-17.478-80.2-.565-18.07-.892-19.344-4.958-19.344-1.433 0-3.388 1.648-6.831 5.76" fill-rule="evenodd"/></svg>