<svg xmlns="http://www.w3.org/2000/svg" width="512" height="512"><path d="M284.964 183.127c-41.509 47.704-76.481 87.942-77.716 89.419l-2.246 2.685 16.21 14.065c8.916 7.735 16.512 14.064 16.881 14.064.368 0 33.399-37.632 73.401-83.627 40.003-45.994 74.966-86.152 77.696-89.239l4.965-5.613-16.198-14.014c-8.909-7.707-16.496-14.117-16.86-14.243-.364-.127-34.624 38.8-76.133 86.503m68.316 38.377c-59.84 68.722-109.84 126.197-111.112 127.722L239.856 352l-45.48-45.443-45.481-45.443-15.564 15.582-15.565 15.581 62.085 62.08 62.084 62.081 125.433-143.861c68.987-79.123 126.112-144.757 126.944-145.853l1.512-1.993-16.194-14.152c-8.906-7.784-16.499-14.123-16.872-14.088-.373.035-49.638 56.291-109.478 125.013m-322.137 54.98-15.347 15.364 62.074 62.074 62.074 62.074 15.572-15.572 15.572-15.571-61.862-61.867C75.202 288.96 47.167 261.12 46.927 261.12c-.241 0-7.344 6.914-15.784 15.364" fill-rule="evenodd"/></svg>