<svg xmlns="http://www.w3.org/2000/svg" width="512" height="512"><path d="M165.801 17.885c-4.724 2.881-5.718 5.919-6.075 18.56l-.318 11.272-35.583.248c-39.471.275-38.317.109-41.943 6.055-1.636 2.684-1.662 6.126-1.662 218.193 0 212.2.025 215.508 1.665 218.199 3.547 5.817-10.785 5.375 174.286 5.369 162.656-.005 167.58-.052 169.948-1.614 1.342-.884 3.164-2.706 4.048-4.048 1.565-2.373 1.608-8.267 1.611-217.906.002-212.069-.024-215.509-1.66-218.193-3.626-5.946-2.472-5.78-41.943-6.055l-35.583-.248-.318-11.272c-.357-12.641-1.351-15.679-6.075-18.56-2.663-1.623-4.951-1.665-90.199-1.665s-87.536.042-90.199 1.665M335.36 96v15.787H176.64V80.213h158.72V96" fill-rule="evenodd"/></svg>