<svg xmlns="http://www.w3.org/2000/svg" width="512" height="512"><path d="M241.92 48.669c-64.561 4.115-123.152 38.433-159.962 93.693-26.292 39.469-38.649 92.321-32.455 138.811 6.326 47.479 26.376 88.354 59.673 121.651 33.526 33.526 73.443 53.027 122.504 59.846 4.224.587 15.168 1.068 24.32 1.068 9.152 0 20.096-.481 24.32-1.068 49.001-6.811 88.952-26.339 122.482-59.868 33.529-33.53 53.057-73.481 59.868-122.482 1.376-9.9 1.376-38.74 0-48.64-6.778-48.766-26.328-88.904-59.45-122.057-11.819-11.831-20.651-19.077-33.662-27.617-37.561-24.655-81.952-36.249-127.638-33.337m-17.711 152.927L256 233.378l32-31.991 32-31.992 11.303 11.302L342.605 192l-31.992 32-31.991 32 31.991 32 31.992 32-11.302 11.303L320 342.605l-32-31.992-32-31.991-32 31.991-32 31.992-11.303-11.302L169.395 320l31.992-32 31.991-32-31.987-31.996-31.988-31.996 11.073-11.097c6.09-6.104 11.268-11.098 11.507-11.098.24 0 14.741 14.302 32.226 31.783" fill-rule="evenodd"/></svg>