<svg xmlns="http://www.w3.org/2000/svg" width="512" height="512"><path d="m128.21 129.064-16.424 16.424 55.251 55.256L222.288 256l-55.251 55.256-55.251 55.256 16.851 16.851 16.851 16.851 55.256-55.251L256 289.712l55.256 55.251 55.256 55.251 16.851-16.851 16.851-16.851-55.251-55.256L289.712 256l55.253-55.259 55.254-55.258-16.437-16.422c-9.041-9.031-16.817-16.421-17.281-16.421-.463 0-25.516 24.671-55.672 54.824L256 222.288l-54.829-54.824c-30.156-30.153-55.213-54.824-55.683-54.824-.469 0-8.244 7.391-17.278 16.424" fill-rule="evenodd"/></svg>