<svg xmlns="http://www.w3.org/2000/svg" width="512" height="512"><path d="M237.227 81.091c-17.759 2.455-33.495 7.318-48.599 15.018-14.627 7.457-25.034 15.08-37.155 27.216-14.042 14.059-23.893 28.187-31.625 45.356-2.005 4.452-3.775 8.223-3.933 8.381-.159.158-4.851 1.31-10.429 2.561-49.666 11.137-85.761 41.691-99.344 84.093C1.451 278.359.459 285.404.496 303.787c.028 13.818.351 18.108 1.901 25.299 7.341 34.055 25.003 60.221 53.514 79.278 15.425 10.31 31.939 17.023 51.751 21.037l9.671 1.959H416l9.605-1.947c36.842-7.467 61.98-25.193 75.745-53.412 8.018-16.436 11.291-33.129 10.381-52.935-2.29-49.81-36.752-85.814-92.744-96.892l-4.694-.929-1.587-8.302c-3.18-16.625-11.164-39.332-18.671-53.103-8.069-14.8-16.654-26.287-28.776-38.5-22.169-22.338-50.889-37.403-81.952-42.989-9.379-1.687-37.446-2.454-46.08-1.26" fill-rule="evenodd"/></svg>