<svg xmlns="http://www.w3.org/2000/svg" width="512" height="512"><path d="M235.52 33.357c-29.975 3.858-58.729 16.857-80.385 36.337-15.472 13.919-28.358 31.431-36.74 49.934-2.003 4.42-2.493 4.905-5.471 5.416-38.587 6.622-65.054 19.331-85.617 41.112C8.052 186.551-1.082 212.461.296 242.773c1.28 28.139 11.668 51.816 31.247 71.221 15.815 15.675 39.624 28.196 64.03 33.675 17.752 3.985 20.688 4.143 83.84 4.532l60.374.372-.041 33.42-.04 33.42-23.876-24.32-23.876-24.32-11.051 11.52c-6.079 6.336-11.06 11.712-11.07 11.947-.01.235 19.374 19.562 43.075 42.949L256 479.711l43.089-42.522c23.7-23.387 43.083-42.714 43.075-42.949-.008-.235-4.99-5.611-11.071-11.947l-11.057-11.52-23.873 24.32-23.873 24.32-.038-33.493-.039-33.493 62.934-.002c76.037-.003 85.541-.543 106.7-6.06 29.839-7.781 51.986-24.859 62.602-48.272 8.716-19.223 9.876-46.064 2.858-66.149-10.528-30.134-39.924-52.022-80.039-59.597a3935.507 3935.507 0 0 1-11.368-2.158c-1.468-.285-1.996-1.353-2.817-5.697-2.674-14.148-8.95-32.502-15.721-45.973-23.233-46.221-66.897-77.511-118.322-84.792-9.688-1.372-34.123-1.58-43.52-.37m36.693 246.963v72.107h-32.426V208.213h32.426v72.107" fill-rule="evenodd"/></svg>