<svg xmlns="http://www.w3.org/2000/svg" width="512" height="512"><path d="M234.475 81.521c-52.384 7.142-97.539 41.103-120.8 90.852-5.131 10.975-11.562 30.69-13.98 42.858l-1.988 10.005-4.694.933c-41.908 8.334-72.655 31.09-85.689 63.421C1.912 303.015.51 310.891.466 328.107c-.042 16.462.977 23.611 5.147 36.089 4.763 14.254 11.219 24.682 22.104 35.703 15.025 15.214 33.184 24.347 58.678 29.514L96 431.36H394.667l9.671-1.959c19.812-4.014 36.326-10.727 51.751-21.037 28.508-19.056 46.147-45.182 53.52-79.278 2.723-12.588 2.719-38.879-.007-51.487-3.54-16.372-9.568-30.929-18.046-43.58-17.789-26.545-48.533-46.21-85.042-54.396-5.578-1.251-10.27-2.403-10.429-2.561-.158-.158-1.928-3.929-3.933-8.381-7.732-17.169-17.583-31.297-31.625-45.356-12.121-12.136-22.528-19.759-37.155-27.216-15.659-7.983-31.391-12.756-49.43-14.997-9.623-1.196-29.185-.993-39.467.409" fill-rule="evenodd"/></svg>