<svg xmlns="http://www.w3.org/2000/svg" width="512" height="512"><path d="M238.507 48.729c-52.01 5.66-96.425 37.129-118.807 84.178-3.161 6.644-4.072 7.893-5.756 7.893-1.101 0-7.163 1.3-13.472 2.889-28.077 7.072-51.322 20.188-69.442 39.181C11.487 203.355 1.355 227.695.233 256.853c-1.511 39.27 15.842 75.042 48.205 99.372 8.867 6.666 28.118 16.474 39.455 20.101 21.775 6.966 30.725 7.674 96.944 7.674h54.95v80.213h32.426v-80.114l70.614-.339c68.161-.327 70.951-.403 80.36-2.192 17.356-3.301 33.644-9.507 46.146-17.582C496.328 346.55 512 317.385 512 284.587c0-40.68-24.818-73.583-68.462-90.767-5.925-2.332-19.912-6.216-26.258-7.291l-2.987-.505-1.973-9.172C397.761 109.175 348.031 60.886 281.6 49.918c-10.108-1.668-32.907-2.298-43.093-1.189m61.013 164.177 43.086 43.093-11.302 11.302-11.302 11.303-23.894-23.883-23.895-23.883V384h-32.426V230.838l-23.895 23.883-23.894 23.883-11.302-11.303-11.302-11.302 43.086-43.093c23.698-23.701 43.282-43.093 43.52-43.093.238 0 19.822 19.392 43.52 43.093" fill-rule="evenodd"/></svg>