<svg xmlns="http://www.w3.org/2000/svg" width="512" height="512"><path d="M81.557 184.608c-44.082 38.585-80.294 70.589-80.471 71.12-.177.531 33.202 30.257 74.176 66.058 40.974 35.801 77.233 67.52 80.576 70.487l6.077 5.394 13.873-15.854c7.63-8.72 13.535-16.151 13.122-16.514-.412-.364-28.494-24.942-62.403-54.619-33.91-29.678-61.654-54.28-61.654-54.673 0-.577 119.18-105.57 123.625-108.909 1.059-.795-1.058-3.618-12.639-16.853-7.652-8.744-13.961-15.874-14.022-15.845-.061.029-36.177 31.623-80.26 70.208m254.608-54.367c-11.584 13.239-13.702 16.062-12.643 16.857 4.425 3.324 123.625 108.33 123.625 108.905 0 .39-27.744 24.993-61.654 54.672a544097.116 544097.116 0 0 0-62.398 54.617c-.409.361 5.488 7.8 13.104 16.532l13.848 15.877 6.097-5.414c3.353-2.978 39.6-34.687 80.549-70.464 40.95-35.778 74.454-65.393 74.454-65.811 0-.419-34.848-31.215-77.44-68.437-42.592-37.221-78.833-68.926-80.534-70.455l-3.094-2.78-13.914 15.901" fill-rule="evenodd"/></svg>