<svg xmlns="http://www.w3.org/2000/svg" width="512" height="512"><path d="M81.531 184.682c-44.097 38.632-80.302 70.616-80.455 71.076-.153.459 33.039 29.982 73.76 65.605 40.721 35.624 76.979 67.359 80.572 70.523l6.532 5.753L175.8 381.8l13.859-15.84-2.701-2.286C175.691 354.133 64.11 256.335 64.11 256c0-.335 111.581-98.133 122.848-107.674l2.701-2.286-13.866-15.847c-7.626-8.715-13.915-15.825-13.976-15.799-.061.026-36.19 31.656-80.286 70.288m254.964-54.931c-7.43 8.492-13.587 15.7-13.683 16.018-.095.318 28.008 25.154 62.452 55.191 34.444 30.037 62.625 54.805 62.626 55.04 0 .335-111.572 98.125-122.848 107.674l-2.701 2.286L336.2 381.8l13.86 15.839 6.532-5.753c3.593-3.164 39.838-34.888 80.544-70.498 40.706-35.61 74.011-65.035 74.011-65.388 0-.353-33.305-29.778-74.011-65.388-40.706-35.61-76.963-67.345-80.572-70.523l-6.561-5.778-13.508 15.44M234.667 219.94v80.847l-21.335-21.322-21.335-21.322-14.932 14.931-14.932 14.932 46.934 46.927L256 381.861l46.933-46.928 46.934-46.927-14.932-14.932-14.932-14.931-21.335 21.322-21.335 21.322V139.093h-42.666v80.847" fill-rule="evenodd"/></svg>