<svg xmlns="http://www.w3.org/2000/svg" width="512" height="512"><path d="M217.173 51.577c-11.043 2.215-11.52 3.196-11.52 23.738 0 11.207-.303 16.069-1.066 17.083-1.128 1.499-11.572 5.735-14.14 5.735-1.827 0-5.262-3.561-14.657-15.195-10.444-12.934-12.426-13.535-23.744-7.205-7.785 4.354-10.384 7.33-10.389 11.892-.002 1.496 2.3 8.752 5.116 16.125 2.816 7.374 5.12 14.156 5.12 15.072 0 3.21-11.131 12.109-14.011 11.202-.976-.308-6.575-3.525-12.442-7.15-13.534-8.362-13.865-8.527-17.053-8.527-4.056 0-6.849 1.874-11.68 7.835-8.904 10.985-8.725 12.003 4.862 27.639 6.102 7.022 10.209 12.472 10.197 13.529-.012.973-1.648 4.458-3.636 7.743-4.482 7.407-4.402 7.394-22.438 3.854-7.47-1.466-14.505-2.414-15.803-2.128-3.83.841-6.306 3.922-9.163 11.404-5.061 13.253-4.095 15.098 12.741 24.335 6.761 3.71 12.965 7.322 13.786 8.026.841.721 1.494 2.466 1.494 3.993 0 4.797-1.885 12.28-3.45 13.696-.987.893-6.604 2.194-15.999 3.706-15.751 2.534-18.358 3.594-20.303 8.247-1.584 3.791-1.584 15.757 0 19.548 1.903 4.555 4.468 5.607 19.929 8.18 7.852 1.307 14.921 2.632 15.71 2.946 1.857.738 3.092 4.381 3.787 11.169.383 3.739.236 5.838-.469 6.687-.566.681-6.824 4.432-13.908 8.335-17.409 9.591-18.175 10.949-13.455 23.88 2.745 7.522 5.717 11.426 9.291 12.205 1.225.267 8.179-.671 15.453-2.085 15.343-2.982 18.041-3.131 19.789-1.091 3.069 3.58 6.816 11.441 6.346 13.312-.266 1.062-4.904 7.05-10.306 13.306-12.955 15.003-13.189 16.424-4.487 27.161 8.43 10.402 10.569 10.417 27.725.194 7.089-4.224 13.848-7.68 15.019-7.68 1.973 0 8.759 4.968 11.408 8.351 1.771 2.262 1.282 4.489-4.054 18.459-2.816 7.374-5.12 14.252-5.12 15.285 0 4.207 2.966 7.606 10.306 11.808 7.41 4.243 10.797 4.97 14.75 3.169 1.153-.525 6.387-6.269 11.631-12.765 5.244-6.495 10.259-12.04 11.145-12.321 2.04-.648 13.682 3.465 15.102 5.335.763 1.006 1.066 5.865 1.066 17.111 0 20.929.661 22.006 14.941 24.342 12.684 2.074 14.558.413 20.856-18.485 2.413-7.238 5.072-13.78 5.909-14.538 1.145-1.036 3.286-1.377 8.641-1.377s7.496.341 8.641 1.377c.837.758 3.496 7.3 5.909 14.538 6.298 18.898 8.172 20.559 20.856 18.485 14.28-2.336 14.941-3.413 14.941-24.342 0-11.246.303-16.105 1.066-17.111 1.077-1.418 12.06-5.747 14.581-5.747.749 0 5.365 4.896 10.257 10.88 11.096 13.572 12.374 14.751 16.601 15.318 2.922.392 4.367-.079 9.904-3.23 13.249-7.538 13.615-9.08 6.54-27.573-2.854-7.461-5.189-14.628-5.189-15.926 0-1.846 1.134-3.31 5.194-6.702 3.399-2.84 5.981-4.339 7.467-4.336 1.336.003 7.543 3.164 15.072 7.675 17.253 10.339 18.893 10.277 28.076-1.067 8.2-10.13 7.958-11.384-5.093-26.453-5.386-6.218-10.011-12.142-10.278-13.164-.505-1.932 4.476-11.899 6.989-13.985 1.806-1.499 4.929-1.22 19.521 1.746 17.702 3.598 19.661 2.786 24.361-10.093 4.636-12.703 3.774-14.359-12.025-23.107-17.523-9.702-16.456-8.663-15.829-15.409.646-6.949 1.906-10.779 3.804-11.563.789-.325 7.887-1.67 15.774-2.988 8.152-1.361 15.272-3.005 16.498-3.809 3.215-2.106 4.575-6.294 4.575-14.081 0-7.785-1.36-11.975-4.571-14.079-1.561-1.022-25.203-5.631-32.74-6.382-.105-.01-.772-1.141-1.481-2.513-1.802-3.484-2.72-14.159-1.36-15.798.578-.696 6.488-4.246 13.135-7.89 6.646-3.644 12.939-7.547 13.985-8.673 3.228-3.475 3.287-6.89.265-15.252-4.913-13.595-6.302-14.127-26.323-10.086-11.129 2.247-15.167 2.756-16.613 2.098-2.093-.954-8.297-11.563-8.297-14.188 0-.902 4.278-6.593 9.507-12.647 10.108-11.705 12.193-15.204 11.302-18.971-.676-2.862-6.161-10.202-10.661-14.267-5.372-4.854-7.506-4.415-22.761 4.675-7.616 4.537-13.822 7.68-15.169 7.68-1.515 0-3.962-1.458-7.302-4.351-4.053-3.511-5.022-4.848-5.022-6.921 0-1.414 2.325-8.716 5.166-16.227 5.493-14.521 5.722-16.442 2.449-20.603-2.391-3.039-14.723-9.925-17.775-9.925-4.647 0-6.871 1.887-16.769 14.231-7.507 9.363-10.261 12.222-11.769 12.222-2.055 0-12.182-3.825-13.947-5.268-.708-.58-1.097-5.985-1.28-17.821l-.262-16.988-2.581-2.579c-4.129-4.127-19.115-6.531-24.226-3.888-2.955 1.528-4.003 3.698-9.089 18.811-2.212 6.571-4.692 12.661-5.513 13.534-1.761 1.872-7.619 2.708-13.156 1.878-4.74-.711-4.707-.656-10.739-18.21-5.336-15.525-6.789-17.318-13.908-17.154-2.428.056-6.719.564-9.535 1.129m58.027 70.859c57.257 8.264 103.678 53.227 113.446 109.884l.551 3.2H268.284l-29.637-52.137c-16.3-28.676-29.72-52.526-29.822-53-.351-1.635 14.18-5.84 27.144-7.854 10.149-1.577 28.643-1.621 39.231-.093m-72.796 81.323 29.644 52.164-30.051 52.483c-16.528 28.866-30.342 52.499-30.698 52.519-1.335.072-18.489-17.703-23.025-23.858-35.265-47.86-35.916-111.558-1.635-159.994 5.536-7.822 23.524-26.343 25.08-25.824.573.19 14.381 23.82 30.685 52.51m186.253 75.921c-3.661 21.7-14.106 44.126-29.239 62.778-10.971 13.523-29.597 28.064-45.488 35.51-30.764 14.417-66.9 16.953-98.289 6.898l-8.171-2.618 22.658-39.444a48578.683 48578.683 0 0 0 30.346-52.884l7.687-13.44h121.036l-.54 3.2" fill-rule="evenodd"/></svg>