<svg xmlns="http://www.w3.org/2000/svg" width="512" height="512"><path d="m106.023 70.19-37.757 37.764 34.576 34.556c19.017 19.006 34.473 35.005 34.347 35.552-.126.548-23.653 23.515-52.282 51.039-28.63 27.523-52.156 50.327-52.282 50.674-.259.72 174.461 183.587 175.402 183.581.528-.004 36.724-34.964 130.409-125.958l22.277-21.637 27.217-5.717c14.969-3.144 27.392-5.854 27.607-6.022.414-.324-270.589-271.595-271.326-271.595-.237 0-17.422 16.993-38.188 37.763m58.158 41.36c10.607 10.9 19.286 20.124 19.286 20.498 0 .375-3.466 4.129-7.703 8.343l-7.702 7.662-18.538-19.119c-10.195-10.516-19.066-19.867-19.713-20.78-1.081-1.527-.565-2.275 6.386-9.259 4.16-4.178 7.819-7.499 8.131-7.379.312.119 9.246 9.135 19.853 20.034m244.882 214.155c-31.899 26.873-53.54 60.047-56.57 86.719-4.146 36.484 24.918 67.27 63.507 67.27 33.007 0 59.628-22.41 63.466-53.427 3.493-28.223-16.53-65.421-51.94-96.491-12.622-11.074-10.663-10.642-18.463-4.071" fill-rule="evenodd"/></svg>