<svg xmlns="http://www.w3.org/2000/svg" width="512" height="512"><path d="M175.787 72.107v39.68h32.426v-79.36h-32.426v39.68M78.93 79.364 67.857 90.461 96 118.614l28.144 28.153 11.318-11.295 11.318-11.295-27.945-27.955c-15.37-15.376-28.145-27.955-28.389-27.955-.244 0-5.427 4.993-11.516 11.097m186.235 16.858-27.945 27.955 11.318 11.295 11.318 11.295 28.369-28.379 28.369-28.378-10.895-10.872c-5.993-5.979-11.277-10.871-11.742-10.871-.466 0-13.422 12.579-28.792 27.955m-98.34 71.033-33.273 33.281 39.037 39.038 39.037 39.037 33.491-33.491 33.491-33.491-38.82-38.828c-21.352-21.355-39.016-38.828-39.255-38.828-.239 0-15.408 14.977-33.708 33.282m-134.873 9.628c-.231.603-.315 7.803-.186 16L32 207.787l39.893.221 39.894.222v-32.443H72.08c-31.557 0-39.793.225-40.128 1.096m235.621 91.011-33.219 33.227 47.888 48.48c26.338 26.663 66.345 66.91 88.904 89.437l41.016 40.957 33.919-33.985L480 412.024l-89.107-88.679c-49.009-48.773-89.331-88.678-89.604-88.678-.274 0-15.446 14.952-33.716 33.227m-171.798-2.282L67.406 293.99l11.319 11.295 11.318 11.295 28.369-28.378 28.368-28.379-11.318-11.295-11.318-11.295-28.369 28.379" fill-rule="evenodd"/></svg>