<svg xmlns="http://www.w3.org/2000/svg" width="512" height="512"><path d="M194.56 48.699c-13.987 1.299-25.553 4.541-41.099 11.518-26.503 11.894-50.09 28.231-68.676 47.563-17.634 18.344-22.492 26.43-22.492 37.442 0 2.73-.145 4.965-.322 4.965-.177 0-1.701-.576-3.386-1.28-4.251-1.777-10.44-1.606-14.582.401-2.151 1.041-11.174 9.41-23.736 22.014C1.693 189.956-.001 191.901-.013 194.601c-.012 2.753 2.178 5.105 33.494 35.98 30.909 30.474 33.734 33.037 36.452 33.067 2.722.03 4.537-1.55 23.743-20.661 11.438-11.382 21.766-22.329 22.952-24.328 3.633-6.123 2.911-10.012-3.237-17.425-1.821-2.197-3.311-4.183-3.311-4.414 0-1.093 6.502-2.394 9.539-1.908 8.413 1.345 15.522 7.017 48.764 38.898l6.676 6.403-1.338 2.56c-2.77 5.302-1.636 9.2 4.689 16.121l4.493 4.915 32.696-32.688 32.696-32.688-4.041-4.137c-2.222-2.275-5.078-4.682-6.345-5.35-3.114-1.639-8.382-1.53-10.888.225-2.022 1.416-2.107 1.376-5.828-2.774-13.783-15.37-21.802-26.125-25.621-34.36-1.857-4.005-2.247-6.087-2.267-12.106-.023-6.567.256-7.842 2.89-13.226 4.005-8.184 11.571-15.581 18.968-18.542 15.333-6.139 34.659-6.401 48.07-.652l3.782 1.621 5.432-8.699c2.988-4.785 5.691-9.139 6.008-9.677.8-1.359-5.156-10.015-11.911-17.311-13.062-14.109-30.747-22.559-51.931-24.812-8.513-.905-9.643-.902-20.053.066m176.171-.057c-43.551 3.721-77.298 28.043-92.093 66.372-10.85 28.109-11.331 60.324-1.346 90.231l2.422 7.255-91.129 90.507c-97.763 97.095-93.575 92.561-92.078 99.68.883 4.2 55.979 59.396 60.72 60.829 7.094 2.145 2.341 6.5 100.737-92.294l90.908-91.275 6.079 2.068c31.548 10.73 68.493 8.951 97.096-4.674 39.886-19 61.471-57.122 59.675-105.394-.538-14.449-2.044-24.131-5.758-37.023-2.823-9.797-7.783-22.394-8.838-22.445-.372-.018-18.811 17.837-40.975 39.676l-40.298 39.709-24.032-24.043-24.032-24.043 40.105-40.099C429.952 81.625 448 63.343 448 63.054c0-.93-17.396-7.489-25.679-9.681-15.973-4.227-35.997-6.064-51.59-4.731m-41.163 296.033c-19.342 19.673-35.168 36.014-35.168 36.313 0 .658 73.86 78.784 76.414 80.826 2.635 2.107 5.886 2.688 9.104 1.626 1.986-.656 12.454-10.578 34.971-33.148 35.069-35.152 34.84-34.855 32.146-41.62-.803-2.017-13.701-14.942-41.262-41.35-22.052-21.128-40.306-38.415-40.565-38.415-.26 0-16.297 16.096-35.64 35.768" fill-rule="evenodd"/></svg>