<svg xmlns="http://www.w3.org/2000/svg" width="512" height="512"><path d="M68.476 68.476 57.172 79.78l56.105 56.11L169.382 192H80.213v32.436l71.894-.218L224 224l.218-71.893.218-71.894H192V169.382l-56.11-56.105-56.11-56.105-11.304 11.304m307.625 44.808L320 169.385V80.213h-32.436l.218 71.894L288 224l71.893.218 71.894.218V192H342.618l56.109-56.114 56.109-56.114-11.317-11.294-11.318-11.294-56.1 56.1M80.213 304.213V320H169.382l-56.105 56.11-56.105 56.11 11.304 11.304 11.304 11.304 56.11-56.105L192 342.618V431.787h32.427v-143.36H80.213v15.786m207.36 55.894v71.68H320V342.618l56.11 56.105 56.11 56.105 11.304-11.304 11.304-11.304-56.105-56.11L342.618 320H431.787v-31.573H287.573v71.68" fill-rule="evenodd"/></svg>