<svg xmlns="http://www.w3.org/2000/svg" width="512" height="512"><path d="M443.163 42.591c-5.007 1.268-10.049 5.03-19.474 14.529l-9.378 9.452 15.559 15.559 15.56 15.559 10.267-10.231c5.647-5.628 11.022-11.787 11.944-13.687 6.759-13.919-2.148-29.916-17.508-31.441-2.346-.233-5.483-.116-6.97.26M304.848 176.005l-96.635 96.638v31.144h31.15l96.642-96.645 96.642-96.645-15.582-15.565-15.581-15.565-96.636 96.638M47.787 288v176.213h352.426V188.164l-74.028 74.025-74.029 74.024h-76.369v-76.369l74.024-74.029 74.025-74.028H47.787V288" fill-rule="evenodd"/></svg>