<svg xmlns="http://www.w3.org/2000/svg" width="512" height="512"><path d="M160.008 87.936c-52.092 30.458-94.806 55.676-94.92 56.041-.115.364 42.794 25.735 95.352 56.378L256 256.071l95.561-55.716c52.559-30.643 95.567-55.957 95.573-56.252.018-.76-189.448-111.218-191.075-111.397-.737-.08-43.959 24.773-96.051 55.23M47.996 268.782l.217 98.3 95.487 56.246c52.517 30.935 95.621 56.245 95.786 56.245.166 0 .287-44.064.27-97.92l-.031-97.92-94.642-56.115c-52.053-30.864-95.241-56.345-95.973-56.626-1.201-.461-1.309 9.044-1.114 97.79m319.608-41.577-95.33 56.528-.03 97.92c-.017 53.856.104 97.92.27 97.92.165 0 43.269-25.31 95.786-56.245l95.487-56.246.217-98.208c.119-54.014-.073-98.205-.427-98.202-.354.002-43.542 25.442-95.973 56.533" fill-rule="evenodd"/></svg>