<svg xmlns="http://www.w3.org/2000/svg" width="512" height="512"><path d="m239.995 96.213.218 63.787h31.574l.218-63.787.219-63.786h-32.448l.219 63.786M85.588 162.099c-5.803 3.538-5.375-9.067-5.371 158.072.003 148.552.033 151.345 1.668 154.028.917 1.502 2.931 3.422 4.477 4.266C89.041 479.928 97.013 480 256 480s166.959-.072 169.638-1.535c1.546-.844 3.56-2.764 4.477-4.266 1.635-2.683 1.665-5.476 1.668-154.028.004-167.139.432-154.534-5.371-158.072-2.655-1.619-4.857-1.666-78.465-1.669l-75.734-.003v146.338l31.795-31.786 31.795-31.787 11.294 11.318 11.294 11.317-51.195 51.191L256 368.208l-51.196-51.19-51.195-51.191 11.294-11.317 11.294-11.318 31.795 31.787 31.795 31.786V160.427l-75.734.003c-73.608.003-75.81.05-78.465 1.669" fill-rule="evenodd"/></svg>