<svg xmlns="http://www.w3.org/2000/svg" width="512" height="512"><path d="M55.711 33.665c-12.266 3.833-21.318 14.671-23.36 27.968-.511 3.331-.733 64.683-.587 162.367L32 381.013l2.017 4.461c1.109 2.453 3.675 5.989 5.702 7.858 6.229 5.741 8.288 6.285 25.338 6.688l15.137.359.223-148.35.223-148.349 2.294-4.895c2.931-6.253 9.598-12.92 15.851-15.851l4.895-2.294 148.349-.223 148.35-.223-.359-15.137c-.4-16.908-.936-18.999-6.439-25.103-1.75-1.941-5.101-4.424-7.448-5.52l-4.266-1.991-161.28.049c-130.903.04-161.958.261-164.876 1.173m74.888 79.047c-4.545.899-10.662 4.914-13.931 9.145-5.202 6.731-4.924-3.712-4.679 175.998.213 155.81.303 164.392 1.753 167.483 2.332 4.969 7.827 10.404 12.784 12.645l4.461 2.017h330.24l4.848-2.381c5.493-2.697 9.501-6.832 12.128-12.509l1.797-3.883V296.533c0-159.496-.051-164.825-1.614-168.877-2.078-5.389-6.54-10.288-11.985-13.162l-4.321-2.281-163.84-.126c-91.571-.071-165.516.205-167.641.625M312.32 240.213v39.68h79.36v32.427H312.337l-.222 39.893-.222 39.894H280.32l-.222-39.894-.222-39.893H200.533v-32.427h79.36v-79.36h32.427v39.68" fill-rule="evenodd"/></svg>