<svg xmlns="http://www.w3.org/2000/svg" width="512" height="512"><path d="M240.64 16.754c-1.173.169-5.589.731-9.813 1.248-20.733 2.538-45.405 11.311-65.152 23.165-39.746 23.86-68.525 62.395-79.985 107.104-5.656 22.064-5.537 18.7-5.281 148.705l.231 117.317 2.28 8.252c4.728 17.11 12.578 31.129 24.302 43.401 8.865 9.279 15.937 14.5 27.178 20.066 12.742 6.309 23.261 8.982 37.547 9.538 16.817.656 30.956-2.619 47.786-11.067 18.015-9.043 30.18-18.684 57.947-45.925 67.874-66.589 107.18-115.129 130.555-161.225 10.946-21.584 17.295-39.064 21.078-58.026 2.279-11.427 3.092-33.691 1.684-46.101-3.746-33.005-16.472-63.706-37.417-90.263-6.207-7.869-20.342-22.059-28.353-28.462-25.666-20.514-57.888-33.798-90.633-37.365-7.696-.838-29.079-1.066-33.954-.362m41.813 66.3c41.785 9.854 72.987 39.358 82.853 78.343 1.395 5.514 1.906 10.774 2.246 23.136l.44 16h-31.554l-.462-13.44c-.543-15.781-1.789-21.427-7.107-32.213-6.311-12.801-16.192-23.371-28.806-30.814-32.273-19.044-74.362-14.896-101.62 10.017-9.37 8.563-17.129 21.42-20.534 34.024-1.159 4.289-1.59 10.141-1.899 25.813-.221 11.147-.247 20.267-.059 20.267s3.879-.772 8.201-1.716c19.199-4.19 55.997-5.813 67.189-2.962 16.953 4.317 30.619 17.984 34.937 34.937 2.609 10.242 1.258 22.88-3.495 32.69-1.198 2.473-6.17 9.357-11.05 15.297-11.658 14.191-23.822 31.062-28.193 39.102-2.021 3.716-4.502 10.196-5.846 15.268l-2.336 8.812-12.506-3.313a3349.576 3349.576 0 0 1-15.065-4.016c-2.183-.6-2.532-1.077-2.365-3.243.341-4.448 4.496-17.572 7.63-24.105 4.194-8.744 18.023-29.015 29.04-42.568 12.478-15.351 12.885-15.964 13.552-20.407.811-5.409-1.551-10.866-6.256-14.455-4.618-3.522-9.427-4.146-26.231-3.402-19.142.848-34.771 3.358-44.074 7.08l-3.296 1.319V320H144.152l.257-75.733.257-75.734 2.241-8.149c10.877-39.552 42.749-68.967 83.989-77.518 12.231-2.536 12.218-2.535 28.091-2.217 11.729.236 16.222.696 23.466 2.405" fill-rule="evenodd"/></svg>