<svg xmlns="http://www.w3.org/2000/svg" width="512" height="512"><path d="M235.947 32.932c-1.408.193-7.168.963-12.8 1.711-48.862 6.487-98.408 32.833-132.613 70.515-31.366 34.553-50.52 76.045-56.847 123.142-1.649 12.279-1.888 38.816-.464 51.593 8.494 76.203 54.711 142.457 123.364 176.847 48.826 24.458 107.746 29.77 161.261 14.54 73.331-20.871 132.561-80.101 153.432-153.432 11.412-40.098 11.412-83.598 0-123.696-21.639-76.032-84.084-136.34-160.73-155.231-19.434-4.79-27.785-5.782-51.137-6.076-11.498-.145-22.058-.105-23.466.087m42.262 40.495c12.106 1.497 23.743 4.13 35.437 8.021 11.2 3.726 30.247 12.111 30.247 13.315 0 .356-1.57 3.92-3.49 7.92-2.255 4.7-3.299 7.877-2.95 8.977.569 1.791 12.185 9.513 14.311 9.513.681 0 4.364-2.718 8.183-6.04l6.945-6.041 5.994 4.931c3.297 2.712 5.994 5.013 5.994 5.114 0 .1-2.454 2.136-5.454 4.523l-5.455 4.34h-17.795l-7.408 7.57c-4.075 4.164-7.408 8.076-7.408 8.695 0 .618 3.383 4.508 7.519 8.643l7.518 7.519h63.291l6.475 13.013c3.561 7.157 6.714 14.069 7.008 15.36l.534 2.347h-5.688c-5.639 0-5.799-.066-18.577-7.68l-12.889-7.68H352.51l-23.854 15.856c-16.071 10.683-24.015 16.46-24.35 17.706-.273 1.018-.501 11.504-.508 23.303-.01 19.197.146 21.639 1.482 23.225.821.976 14.549 8.711 30.507 17.19 15.957 8.479 29.685 16.214 30.506 17.189 1.28 1.519 1.494 3.638 1.494 14.811 0 11.185.212 13.284 1.493 14.776.821.956 6.869 4.695 13.44 8.309 6.571 3.613 12.427 7.171 13.013 7.905.781.977 1.067 6.365 1.067 20.077v18.741l-9.6 9.74c-15.683 15.912-30.114 26.438-49.361 36.003-28.898 14.361-62.861 21.287-92.99 18.963-6.679-.515-12.249-1.043-12.38-1.174-.288-.289 6.956-33.834 7.696-35.634.289-.704 11.042-8.717 23.894-17.807 14.868-10.516 23.546-17.189 23.856-18.347.844-3.145.566-60.284-.301-61.904-.448-.835-14.979-12.138-32.292-25.117L223.843 256H192.588l-8.355-8.107-8.354-8.106h-28.542c-25.238 0-28.601-.157-29.059-1.35-1.1-2.868-.353-4.413 4.413-9.13l4.932-4.88h17.128c10.334 0 18.204-.375 19.841-.946 3.518-1.226 4.502-3.272 8.576-17.831 1.862-6.649 3.865-12.669 4.453-13.377.588-.709 7.085-4.301 14.439-7.983 7.353-3.682 13.996-7.321 14.761-8.087 1.076-1.076 1.392-3.095 1.392-8.899v-7.508l7.957-11.417 7.956-11.417 11.03-4.101c6.067-2.256 11.511-4.73 12.097-5.498 1.111-1.453 1.49-11.775.525-14.288-.298-.777-5.738-4.89-12.089-9.141l-11.548-7.729-15.716 7.78c-18.042 8.932-15.734 8.903-26.15.324-8.372-6.896-8.458-8.034-1.004-13.353 3.016-2.152 6.072-4.501 6.79-5.219.719-.718 3.827-2.255 6.909-3.415 4.982-1.875 6.924-2.109 17.541-2.109h11.938l11.807 5.915 11.806 5.914 9.729-5.543c5.351-3.049 10.07-5.878 10.486-6.288.441-.433.39-2.194-.122-4.211-1.035-4.078-1.389-3.987 10.054-2.573M85.677 245.08 96 264.051l19.627 11.739c13.779 8.241 19.817 12.317 20.268 13.681.352 1.068 2.179 13.462 4.06 27.542 1.88 14.08 3.604 26.421 3.83 27.424.272 1.202 5.796 5.511 16.205 12.642 10.456 7.163 15.946 11.448 16.248 12.683 3.291 13.47 11.833 56.905 11.191 56.905-.47 0-5.899-2.46-12.064-5.467-48.992-23.894-85.099-68.744-98.013-121.749-3.402-13.964-4.819-26.633-4.819-43.104 0-13.744 1.403-31.655 2.402-30.657.23.231 5.065 8.957 10.742 19.39" fill-rule="evenodd"/></svg>