<svg xmlns="http://www.w3.org/2000/svg" width="512" height="512"><path d="M245.76 34.057c-20.141 6.601-42.809 22.328-67.069 46.535-28.015 27.953-48.9 57.279-66.885 93.915-17.651 35.958-27.522 68.807-30.838 102.633-1.393 14.209-.491 45.266 1.742 59.927 10.515 69.056 44.431 112.994 102.037 132.186 43.102 14.361 99.404 14.361 142.506 0 57.558-19.176 91.441-63.065 102.051-132.186 2.287-14.896 3.15-46.584 1.665-61.086-4.792-46.781-22.603-93.239-54.441-142.008-15.613-23.914-26.13-37.13-42.818-53.807-18.017-18.003-34.303-30.39-51.925-39.491-15.543-8.028-25.912-9.933-36.025-6.618" fill-rule="evenodd"/></svg>