<svg xmlns="http://www.w3.org/2000/svg" width="512" height="512"><path d="M241.92 48.656c-32.351 2.022-64.984 12.273-93.189 29.276-53.917 32.501-89.753 86.952-98.941 150.335-2.03 14.002-2.03 41.464 0 55.466 5.257 36.266 18.79 68.894 40.768 98.296 8.04 10.755 28.658 31.373 39.413 39.413 29.402 21.978 62.03 35.511 98.296 40.768 7.099 1.029 15.606 1.485 27.733 1.485s20.634-.456 27.733-1.485c36.266-5.257 68.894-18.79 98.296-40.768 10.755-8.04 31.373-28.658 39.413-39.413 20.459-27.37 33.566-57.361 39.414-90.189 10.068-56.519-4.22-115.167-39.415-161.788-32.853-43.518-83.69-72.968-138.134-80.021-12.74-1.65-28.565-2.176-41.387-1.375m24.416 93.616c13.282 5.876 19.073 21.62 12.817 34.844-5.719 12.09-19.564 17.799-31.935 13.171-17.014-6.366-22.365-27.511-10.514-41.546 6.8-8.054 19.688-10.867 29.632-6.469m1.184 90.457c4.317 2.239 9.443 7.338 11.815 11.751 1.508 2.807 1.834 4.853 1.834 11.52 0 9.232-1.236 12.476-6.952 18.25-12.327 12.453-33.069 9.093-41.555-6.73-2.653-4.947-2.651-18.1.003-23.04 3.246-6.04 9.407-11.289 15.649-13.332 3.956-1.295 15.493-.345 19.206 1.581m-1.184 89.597c9.499 4.202 15.262 13.18 15.263 23.778.001 5.036-.435 6.922-2.599 11.253-4.769 9.544-12.348 14.234-23 14.234s-18.231-4.69-23-14.234c-5.869-11.744-1.801-26.452 9.197-33.259 7.041-4.358 16.692-5.066 24.139-1.772" fill-rule="evenodd"/></svg>