<svg xmlns="http://www.w3.org/2000/svg" width="512" height="512"><path d="M241.92 48.656c-32.351 2.022-64.984 12.273-93.189 29.276-53.917 32.501-89.753 86.952-98.941 150.335-2.03 14.002-2.03 41.464 0 55.466 5.257 36.266 18.79 68.894 40.768 98.296 8.04 10.755 28.658 31.373 39.413 39.413 29.402 21.978 62.03 35.511 98.296 40.768 7.099 1.029 15.606 1.485 27.733 1.485s20.634-.456 27.733-1.485c36.266-5.257 68.894-18.79 98.296-40.768 10.755-8.04 31.373-28.658 39.413-39.413 20.459-27.37 33.566-57.361 39.414-90.189 10.068-56.519-4.22-115.167-39.415-161.788-32.853-43.518-83.69-72.968-138.134-80.021-12.74-1.65-28.565-2.176-41.387-1.375m-64.846 184.171c9.454 4.472 14.452 12.471 14.482 23.173.014 5.308-.391 7.232-2.377 11.276-9.518 19.382-36.893 19.382-46.411 0-3.099-6.311-3.347-15.52-.58-21.559 6.133-13.388 21.687-19.134 34.886-12.89m90.446-.098c4.317 2.239 9.443 7.338 11.815 11.751 1.508 2.807 1.834 4.853 1.834 11.52 0 9.232-1.236 12.476-6.952 18.25-12.327 12.453-33.069 9.093-41.555-6.73-2.653-4.947-2.651-18.1.003-23.04 3.246-6.04 9.407-11.289 15.649-13.332 3.956-1.295 15.493-.345 19.206 1.581m89.837.271c9.517 4.756 14.165 12.276 14.216 23.005.026 5.318-.373 7.231-2.352 11.276-9.48 19.376-36.884 19.373-46.4-.005-1.986-4.044-2.391-5.968-2.377-11.276.03-10.702 5.028-18.701 14.482-23.173 7.398-3.5 15.201-3.44 22.431.173" fill-rule="evenodd"/></svg>