<svg xmlns="http://www.w3.org/2000/svg" width="512" height="512"><path d="M37.46 82.15c-1.595 1.066-3.571 3.274-4.392 4.907-1.405 2.797-1.492 12.623-1.493 168.757-.002 179.896-.298 168.847 4.65 173.413l2.312 2.133 144.358.214c141.996.211 144.403.187 147.09-1.455 1.503-.919 3.423-2.935 4.267-4.481 1.439-2.637 1.549-7.492 1.77-78.118l.236-75.307H174.933v-32.426h161.325l-.236-75.307c-.221-70.626-.331-75.481-1.77-78.118-.844-1.546-2.764-3.56-4.267-4.477-2.681-1.634-5.411-1.665-146.179-1.668l-143.447-.004-2.899 1.937m328.831 82.759-11.297 11.32 31.574 31.566 31.575 31.565-41.178.427-41.178.426v31.574l41.374.221 41.374.222-31.778 31.786-31.778 31.787 11.318 11.294 11.317 11.294 51.191-51.196 51.191-51.197-51.204-51.204-51.205-51.205-11.296 11.32" fill-rule="evenodd"/></svg>