<svg xmlns="http://www.w3.org/2000/svg" viewBox="0 0 512 512"><path d="M200.346 34.117c-23.998 6.092-42.903 25.838-48.067 50.204-.673 3.174-1.216 10.502-1.224 16.515l-.015 10.808-36.48.37c-40.927.415-41.097.437-53.547 6.859-9.185 4.738-18.384 13.928-22.819 22.796-6.181 12.361-6.056 11.086-6.413 65.478L31.461 256h24.623c19.421 0 25.699.278 29.71 1.316 14.357 3.715 26.083 16.932 28.512 32.137 3.176 19.88-9.804 40.565-28.512 45.436-4.028 1.049-10.209 1.324-29.715 1.324h-24.63l.35 48.427c.388 53.822.245 52.371 6.416 65.067 4.355 8.959 15.119 19.723 24.078 24.078 12.695 6.17 11.254 6.028 64.992 6.416l48.352.349.288-26.302.288-26.301 2.739-5.782c4.838-10.214 16.043-18.619 28.184-21.141 6.563-1.364 18.181-.603 24.364 1.595 10.224 3.633 19.181 11.836 22.531 20.634 1.24 3.256 1.509 7.906 1.771 30.568l.309 26.729 48.798-.347c53.409-.378 51.78-.232 63.514-5.723 11.506-5.384 20.706-14.739 26.198-26.64 5.143-11.142 5.592-15.403 5.592-53.035v-33.641l13.44-.387c11.798-.339 14.275-.671 20.267-2.718 25.606-8.747 42.584-29.71 45.588-56.288 3.444-30.469-15.961-59.208-46.441-68.782-4.661-1.463-8.916-1.979-19.357-2.343l-13.384-.468-.278-36.796-.278-36.795-2.401-6.819c-4.928-13.994-13.965-24.753-26.087-31.06-12.069-6.279-12.352-6.315-53.102-6.71l-36.38-.352-.412-13.37c-.358-11.592-.719-14.277-2.715-20.196-7.027-20.845-22.129-35.921-43.181-43.108-8.072-2.756-25.944-3.191-35.146-.855" fill-rule="evenodd"/></svg>