<svg xmlns="http://www.w3.org/2000/svg" viewBox="0 0 512 512"><path d="M208.567 82.56c.269 1.291 3.179 14.816 6.468 30.055 3.288 15.24 5.978 28.158 5.978 28.708 0 .549-1.056 1.262-2.346 1.584-4.713 1.176-22.438 9.233-33.16 15.073-17.511 9.538-40.26 25.045-59.512 40.566-3.685 2.97-6.992 5.401-7.351 5.401s-3.656-2.369-7.327-5.263c-26.922-21.228-59.404-34.555-91.219-37.426-9.19-.829-20.098-1.074-20.098-.451 0 .208.778 5.68 1.73 12.16 4.158 28.321 13.445 54.157 26.785 74.518l5.571 8.501-3.763 5.382c-10.695 15.3-20.07 37.23-25.247 59.059C3.772 325.925 0 348.956 0 351.421c0 .888 19.532-.475 29.305-2.044 30.039-4.823 57.235-16.843 81.531-36.034l7.521-5.941 10.155 8.047c14.41 11.42 28.836 21.754 41.253 29.553 12.286 7.716 34.157 18.818 44.064 22.367 3.717 1.332 6.886 2.515 7.043 2.629.157.114-2.635 13.928-6.205 30.696-3.569 16.768-6.321 30.656-6.115 30.862.486.486 27.212-4.49 35.501-6.611 22.417-5.734 46.973-17.5 68.647-32.892 11.108-7.888 11.382-8.026 15.985-8.04 7.514-.024 41.216-5.385 42.762-6.802.371-.34-1.635-4.506-4.457-9.259-30.88-52.007-39.226-110.341-24.023-167.915 4.654-17.623 13.367-38.002 24.233-56.677 3.162-5.435 4.387-8.282 3.718-8.64-3.211-1.715-35.919-6.72-43.914-6.72-2.111 0-4.769-1.399-10.561-5.558-21.781-15.64-43.318-26.628-65.211-33.271-7.246-2.198-39.399-8.958-42.611-8.958-.299 0-.323 1.056-.054 2.347m187.988 73.813c-17.226 30.362-24.779 51.694-27.875 78.727-1.13 9.861-1.13 31.939 0 41.8 3.09 26.978 12.498 53.113 28.724 79.793 5.439 8.944 6.177 9.798 8.33 9.639 3.77-.278 27.247-12.278 38.426-19.64 33.251-21.897 59.294-54.389 66.67-83.18 3.089-12.057-1.673-27.241-14.8-47.192-15.345-23.323-38.215-43.906-65.805-59.226-8.835-4.906-24.277-12.027-26.079-12.027-.647 0-4.063 5.088-7.591 11.306m25.576 68.964c8.178 3.098 11.909 13.522 7.846 21.917-6.908 14.268-28.254 9.873-29.578-6.09-.554-6.681 3.403-13.467 9.201-15.779 2.869-1.144 9.572-1.169 12.531-.048" fill-rule="evenodd"/></svg>