<svg xmlns="http://www.w3.org/2000/svg" width="512" height="512"><path d="M149.333 64.486c-1.173.205-5.013.794-8.533 1.308-37.709 5.51-72.59 35.318-86.083 73.565-5.105 14.47-6.424 23.023-6.407 41.548.017 18.447 1.298 29.379 5.482 46.785 1.39 5.785 2.528 10.863 2.528 11.283 0 .421-5.472.871-12.16 1.002l-12.16.236v31.574l18.56.23c10.208.126 18.56.066 18.56-.134s-1.127-2.876-2.505-5.947c-2.861-6.376-9.442-24.005-9.442-25.292 0-.564 15.923-.857 46.508-.857h46.507l30.503-61.014c16.777-33.557 30.699-61.013 30.937-61.013.239 0 11.16 35.76 24.268 79.467l23.834 79.466 22.136-44.266 22.137-44.266 21.008 42.026 21.008 42.026h48.004c26.402 0 48.004.205 48.004.455 0 1.388-10.46 20.35-14.661 26.579-1.323 1.962-2.406 3.786-2.406 4.053 0 .268 12.48.487 27.733.487h27.734v-31.574h-18.865c-14.773 0-18.763-.231-18.395-1.066 11.891-27.006 17.985-49.985 20.313-76.587 3.363-38.432-7.818-72.169-32.12-96.921-16.272-16.572-37.738-28.007-60.16-32.046-10.132-1.824-31.031-1.405-41.547.834-25.722 5.475-48.575 18.679-67.609 39.061L256 111.96l-6.044-6.472c-19.083-20.434-42.246-33.793-67.609-38.993-8.242-1.689-27.973-2.89-33.014-2.009m37.594 173.501-17.118 34.226h-49.918c-27.455 0-49.918.201-49.918.446 0 1.093 7.414 15.033 11.745 22.085 13.078 21.293 26.043 37.512 45.818 57.316 25.034 25.072 45.5 40.946 95.816 74.318l32.633 21.644 32.647-21.656c32.124-21.307 55.089-37.854 71.901-51.806 11.506-9.548 36.887-35.073 45.406-45.663 7.08-8.801 18.168-23.851 18.168-24.66 0-.247-22.079-.45-49.064-.45H325.98l-10.991-21.969-10.991-21.969-25.754 51.503c-14.165 28.326-25.882 51.364-26.039 51.195-.156-.169-10.929-35.827-23.938-79.24-13.01-43.414-23.782-79.072-23.938-79.24-.157-.169-7.988 15.095-17.402 33.92" fill-rule="evenodd"/></svg>