<svg xmlns="http://www.w3.org/2000/svg" width="512" height="512"><path d="M129.28 33.344c-28.085 2.866-50.611 10.204-60.744 19.787L64 57.421v423.038l18.987-.229 18.986-.23.427-83.622.427-83.622 4.708-1.868c12.857-5.101 40.207-7.754 64.27-6.234 24.297 1.535 43.896 4.996 91.979 16.243 60.808 14.223 78.588 16.683 104.856 14.509 26.986-2.233 51.44-8.25 71.467-17.584l7.893-3.679V54.71l-6.187 2.82a422.48 422.48 0 0 0-12.225 5.861c-17.578 8.853-43.665 15.065-69.055 16.445-17.348.942-32.497-2.199-66.152-13.719-54.232-18.563-64.735-21.979-78.488-25.531-25.487-6.582-31.576-7.412-56.746-7.738-12.203-.158-25.643.065-29.867.496" fill-rule="evenodd"/></svg>