<svg xmlns="http://www.w3.org/2000/svg" width="512" height="512"><path d="M266.24 80.474c-29.333 35.216-53.436 64.444-53.561 64.951-.126.507 32.989 34.132 73.589 74.722 72.973 72.957 73.835 73.781 75.421 72.107.882-.932 17.02-20.222 35.862-42.867l34.259-41.174h-71.692c-67.715 0-71.69-.082-71.675-1.493.009-.821 7.096-43.911 15.748-95.754 8.653-51.844 15.653-94.319 15.557-94.391-.096-.072-24.175 28.683-53.508 63.899M74.879 74.881 64.011 85.773l181.121 181.119 181.121 181.12 10.868-10.893 10.868-10.892-181.121-181.119L85.747 63.988 74.879 74.881m40.884 186.239-35.56 42.667h71.685c63.512 0 71.685.147 71.685 1.294 0 1.266-30.22 183.515-31.268 188.572-.371 1.791 15.65-16.853 53.342-62.073 29.63-35.549 53.873-64.926 53.873-65.282 0-.749-146.952-147.845-147.701-147.845-.273 0-16.499 19.2-36.056 42.667" fill-rule="evenodd"/></svg>