<svg xmlns="http://www.w3.org/2000/svg" width="512" height="512"><path d="M155.307 53.333V74.24h31.573l-.002 39.893-.002 39.894-73.645 116.978c-40.505 64.338-74.473 118.901-75.484 121.251-7.775 18.074-7.387 36.624 1.117 53.456 8.602 17.026 23.132 28.403 41.776 32.711C87.157 479.929 95.102 480 256 480c160.898 0 168.843-.071 175.36-1.577 18.653-4.31 32.971-15.507 41.664-32.58 8.619-16.929 9.043-35.422 1.229-53.587-1.011-2.35-34.979-56.913-75.484-121.251l-73.645-116.978-.002-39.894-.002-39.893h31.573V32.427H155.307v20.906m128 65.6c0 35.954.231 45.349 1.185 48.051.651 1.848 17.161 28.68 36.688 59.627l35.503 56.269-50.341.22c-27.688.121-72.994.121-100.68 0l-50.339-.22 34.206-54.187c18.813-29.802 35.225-56.106 36.471-58.453l2.267-4.267.241-45.866.242-45.867h54.557v44.693" fill-rule="evenodd"/></svg>