<svg xmlns="http://www.w3.org/2000/svg" width="512" height="512"><path d="m308.479 37.547-21.325 21.339 82.982 82.982 82.982 82.983 21.334-21.334 21.334-21.334-82.99-82.987-82.991-82.987-21.326 21.338M267.661 84.15c-.262.885-4.387 20.042-9.167 42.57l-8.69 40.96L132.796 284.8 15.789 401.92l47.145 47.146 47.146 47.145L227.2 379.17l117.12-117.041 40.533-8.658c22.294-4.762 41.398-8.925 42.455-9.251 1.7-.526-7.368-9.883-78.625-81.137-63.766-63.764-80.646-80.208-81.022-78.933m-33.868 185.506c6.683 3.44 10.474 9.765 10.474 17.479 0 14.948-14.564 24.347-27.947 18.036-5.084-2.397-7.402-4.757-9.742-9.918-5.111-11.275 1.501-24.262 13.944-27.389 3.574-.898 9.633-.08 13.271 1.792" fill-rule="evenodd"/></svg>