<svg xmlns="http://www.w3.org/2000/svg" width="512" height="512"><path d="M242.347 17.488c-14.649 2.942-29.161 11.704-38.876 23.472-5.05 6.118-11.05 18.314-13.186 26.803-1.187 4.72-1.698 9.596-1.698 16.21v9.461l-4.485-4.691c-9.295-9.721-19.346-16.048-31.355-19.737-5.39-1.656-8.286-1.965-18.347-1.961-6.997.003-13.538.451-15.787 1.081-25.156 7.049-43.274 25.032-50.006 49.634-2.053 7.504-2.152 24.85-.184 32 3.781 13.73 9.653 23.996 18.987 33.193l5.495 5.415-11.252.437c-8.344.324-12.797.929-17.226 2.341-22.541 7.183-38.724 23.47-45.788 46.081-1.71 5.476-1.999 8.186-1.999 18.773 0 10.595.287 13.288 1.998 18.737 5.916 18.838 18.659 33.885 35.549 41.976 9.972 4.776 18.476 6.7 29.618 6.7h9.292l-5.833 5.76c-13.095 12.931-19.61 27.273-20.471 45.058-1.331 27.518 12.626 51.624 36.961 63.837 10.547 5.293 17.885 6.912 31.073 6.855 10.168-.044 12.371-.325 18.773-2.401 12.506-4.054 21.169-9.499 30.406-19.111l4.379-4.557.377 11.373c.329 9.931.718 12.37 3.063 19.241 7.4 21.681 23.202 36.957 45.402 43.893 5.476 1.71 8.186 1.999 18.773 1.999s13.297-.289 18.773-1.999c18.641-5.824 33.896-18.754 41.94-35.548 4.778-9.975 6.695-18.461 6.729-29.79l.029-9.463 2.546 3.115c3.424 4.19 12.945 11.849 18.806 15.13 25.55 14.301 57.669 10.408 79.037-9.58 10.328-9.662 16.665-20.601 19.993-34.513 1.471-6.153 1.703-9.195 1.346-17.672-.781-18.574-6.938-32.366-20.394-45.689l-5.996-5.938 8.835-.014c19.845-.034 33.97-5.92 48.089-20.039 14.05-14.05 20.021-28.298 20.026-47.787.008-30.042-18.672-55.018-48.186-64.427-4.427-1.411-8.879-2.017-17.2-2.34l-11.228-.437 5.741-5.74c6.985-6.985 11.816-14.064 15.258-22.357 16.412-39.539-7.274-83.964-49.308-92.481-9.368-1.899-23.401-1.31-32.009 1.342-11.625 3.58-26.538 13.263-32.567 21.144l-2.42 3.163-.55-11.52c-.627-13.152-2.267-19.512-7.772-30.148-6.465-12.488-20.735-25.323-34.109-30.677-11.663-4.669-26.812-6.068-39.062-3.607m30.005 155.24c17.023 3.284 30.916 10.859 43.808 23.887 12.933 13.068 20.755 28.074 23.485 45.052 1.693 10.533.702 28.379-2.097 37.756-9.09 30.457-33.909 53.463-64.452 59.745-15.221 3.13-28.616 2.302-43.803-2.709-13.229-4.365-22.251-9.968-32.684-20.299-17.265-17.097-25.089-35.858-25.089-60.16 0-24.021 7.804-42.938 24.673-59.807 12.368-12.368 26.51-20.108 42.74-23.391 7.536-1.524 25.693-1.564 33.419-.074m-27.445 41.824c-10.025 2.785-19.826 9.949-25.18 18.408-8.599 13.585-8.631 32.446-.078 45.957 3.006 4.749 8.685 10.428 13.434 13.434 13.457 8.518 32.377 8.518 45.834 0 4.749-3.006 10.428-8.685 13.434-13.434 8.553-13.511 8.521-32.372-.078-45.957-5.467-8.638-15.28-15.716-25.606-18.469-5.259-1.402-16.606-1.37-21.76.061" fill-rule="evenodd"/></svg>