<svg xmlns="http://www.w3.org/2000/svg" width="512" height="512"><path d="M69.547 64.794c-8.019 1.94-14.678 7.411-18.524 15.221l-2.81 5.703-.255 29.248-.255 29.247H464.392l-.321-13.44c-.295-12.308-.508-13.835-2.529-18.133-2.615-5.563-8.04-11.136-13.469-13.838l-3.913-1.949-99.84-.426L244.48 96l-23.891-16-23.891-16-62.296.087c-34.262.048-63.447.366-64.855.707m-45.259 111.9c-4.277 1.244-7.41 5.22-7.825 9.933-.286 3.236 26.299 225.849 28.462 238.333 1.455 8.4 8.245 17.016 16.365 20.769l3.99 1.844h381.44l4.814-2.364c5.63-2.764 11.27-8.536 13.69-14.007 1.363-3.08 4.668-27.969 16.168-121.75 8.283-67.554 14.32-119.799 14.139-122.378-.372-5.313-3.34-9.076-8.229-10.435-3.876-1.076-459.309-1.022-463.014.055" fill-rule="evenodd"/></svg>