<svg xmlns="http://www.w3.org/2000/svg" width="512" height="512"><path d="M241.92 48.669c-64.561 4.115-123.152 38.433-159.962 93.693-26.292 39.469-38.649 92.321-32.455 138.811 6.326 47.479 26.376 88.354 59.673 121.651 33.526 33.526 73.443 53.027 122.504 59.846 4.224.587 15.168 1.068 24.32 1.068 9.152 0 20.096-.481 24.32-1.068 49.001-6.811 88.952-26.339 122.482-59.868 33.529-33.53 53.057-73.481 59.868-122.482 1.376-9.9 1.376-38.74 0-48.64-6.778-48.766-26.328-88.904-59.45-122.057-11.819-11.831-20.651-19.077-33.662-27.617-37.561-24.655-81.952-36.249-127.638-33.337m-29.001 69.099 21.748 14.515v35.451l-27.868 23.368c-15.327 12.853-28.335 23.369-28.907 23.369-.572 0-7.725-2.827-15.897-6.282l-14.858-6.281-9.259-26.368-9.26-26.368 8.864-8.953c14.209-14.35 26.827-23.601 44.135-32.359 5.007-2.533 9.205-4.605 9.329-4.606.124 0 10.012 6.531 21.973 14.514m117.554-9.862c10.484 5.304 21.98 12.782 30.818 20.044 8.426 6.924 22.133 21.126 21.652 22.434-.218.596-4.378 12.435-9.242 26.31l-8.845 25.227-15.562 6.563-15.563 6.564-28.199-23.635-28.199-23.634v-35.496l21.547-14.46c11.851-7.953 21.739-14.485 21.973-14.514.235-.03 4.564 2.039 9.62 4.597M149.138 248.392c7.851 3.325 14.411 6.181 14.577 6.347.166.165 3.678 13.785 7.803 30.266l7.501 29.966-8.277 14.248-8.277 14.248-23.587.226-23.587.227-3.629-6.2c-7.88-13.462-14.776-31.818-18.16-48.333l-2.032-9.92 1.853-1.916c3.183-3.29 40.188-35.118 40.882-35.162.362-.023 7.082 2.678 14.933 6.003m250.409 12.332 20.824 17.951-1.014 5.942c-3.088 18.118-10.572 38.637-19.99 54.81l-2.617 4.493-23.6-.227-23.6-.226-8.294-14.21-8.294-14.209 7.51-30.004c4.131-16.503 7.666-30.159 7.855-30.348.886-.887 28.539-12.273 29.408-12.109.544.103 10.359 8.264 21.812 18.137m-93.169 92.129c4.158 7.04 7.58 13.35 7.604 14.022.064 1.742-18.634 48.927-19.851 50.097-3.074 2.956-32.571 5.692-48.889 4.536-12.424-.881-25.935-3.125-27.307-4.536-1.137-1.169-19.966-48.259-19.963-49.927.001-.643 1.29-3.331 2.866-5.973 1.576-2.643 5.046-8.553 7.713-13.133l4.847-8.328 42.71.221 42.71.221 7.56 12.8" fill-rule="evenodd"/></svg>