<svg xmlns="http://www.w3.org/2000/svg" width="512" height="512"><path d="M185.6 33.64c-35.37 6.897-61.219 36.552-63.284 72.6-.694 12.123 1.529 23.818 6.936 36.48.6 1.407-1.229 1.494-31.667 1.502-32.047.008-32.339.024-36.572 1.999-5.615 2.621-10.23 7.84-11.898 13.456-1.916 6.453-1.973 74.216-.068 80.632 1.524 5.129 6.188 10.805 10.991 13.374l3.535 1.89 85.12.23 85.12.229V144.213h44.374V256.032l85.12-.229 85.12-.23 3.535-1.89c4.803-2.569 9.467-8.245 10.991-13.374 1.905-6.416 1.848-74.179-.068-80.632-1.668-5.616-6.283-10.835-11.898-13.456-4.233-1.975-4.525-1.991-36.572-1.999-30.448-.008-32.266-.094-31.641-1.502 9.372-21.093 9.368-44.271-.013-65.482-6.483-14.661-20.45-29.101-35.454-36.658-11.405-5.744-21.928-8.153-35.606-8.153-19.297 0-38.277 7.196-51.761 19.625l-3.823 3.524-6.245-5.257c-7.052-5.936-21.661-13.472-30.565-15.766-7.506-1.934-25.914-2.433-33.707-.913m28.175 45.602c7.354 3.441 13.178 9.057 16.728 16.131l2.884 5.747.278 21.547.278 21.546H216c-9.934 0-19.961-.425-22.465-.952-10.575-2.227-19.834-9.553-24.408-19.312-2.041-4.355-2.3-5.921-2.3-13.869 0-8.283.201-9.379 2.667-14.507 8.109-16.866 27.698-24.091 44.281-16.331m106.686-1.971c9.83 2.56 17.564 8.98 22.045 18.302 2.466 5.128 2.667 6.224 2.667 14.507 0 7.948-.259 9.514-2.3 13.869-4.574 9.759-13.833 17.085-24.408 19.312-2.504.527-12.531.952-22.465.952h-17.943l.278-21.546.278-21.547 2.752-5.623c7.198-14.709 23.47-22.295 39.096-18.226M80.222 375.68l.008 87.253 1.99 4.273c2.18 4.683 6.547 8.987 11.465 11.302 2.92 1.375 8.537 1.511 71.648 1.73l68.48.237V288.427h-153.6l.009 87.253m197.965 8.771v96.024l68.48-.237c63.111-.219 68.728-.355 71.648-1.73 4.918-2.315 9.285-6.619 11.465-11.302l1.99-4.273.008-87.253.009-87.253h-153.6v96.024" fill-rule="evenodd"/></svg>