<svg xmlns="http://www.w3.org/2000/svg" width="512" height="512"><path d="m245 53.04-43.854 42.945 31.481 30.951c17.314 17.024 37.144 36.368 44.066 42.986l12.587 12.035V127.89l20.783.268 20.783.269 5.852 2.986c4.258 2.174 6.728 4.148 9.074 7.254 6.198 8.203 5.801.213 5.801 116.983v105.16l-5.464 3.9c-19.569 13.964-29.474 39.099-24.877 63.128 2.478 12.948 7.945 23.235 17.541 33.005 25.047 25.5 65.407 25.5 90.454 0 9.596-9.77 15.063-20.057 17.541-33.005 4.597-24.029-5.308-49.164-24.877-63.128l-5.464-3.9-.015-102.538c-.009-61.126-.354-105.756-.854-110.506-2.974-28.229-17.52-52.769-40.143-67.723-19.693-13.017-32.065-16.03-65.856-16.038L289.304 64l-.225-26.953-.226-26.952L245 53.04M111.827 34.186c-11.794 3.088-22.941 9.822-30.956 18.704-19.287 21.37-22.216 51.813-7.36 76.504 3.657 6.079 11.346 14.401 16.843 18.233l4.286 2.986.04 105.032.04 105.031-4.604 3.171C73.511 375.284 63.183 395.269 63.165 416c-.015 18.021 7.041 34.223 20.3 46.609 7.071 6.606 13.469 10.509 22.411 13.674 39.703 14.049 81.67-13.628 84.961-56.031.937-12.075-2.544-26.208-9.225-37.454-3.988-6.712-12.763-15.897-18.837-19.717l-4.052-2.548-.001-104.139-.002-104.139 5.477-3.601c17.701-11.637 28.665-33.637 27.518-55.214-.558-10.504-2.149-16.755-6.514-25.6-8.348-16.915-23.282-29.069-41.417-33.707-8.955-2.291-23.096-2.267-31.957.053m27.266 31.929c8.459 2.979 15.424 10.046 18.819 19.095 2.791 7.441 2.162 17.483-1.57 25.06-3.265 6.627-8.622 11.808-15.542 15.03-3.999 1.862-5.892 2.185-12.8 2.185s-8.801-.323-12.8-2.185c-6.92-3.222-12.277-8.403-15.542-15.03-3.759-7.63-4.364-17.613-1.526-25.178 5.001-13.331 17.696-21.658 31.575-20.709 3.05.209 7.274.988 9.386 1.732m-.703 320.16c6.165 2.432 11.422 6.573 14.798 11.658 3.851 5.801 5.532 11.289 5.532 18.067 0 18.782-15.732 33.289-34.403 31.724-18.25-1.53-31.273-18.034-28.741-36.424 1.671-12.13 10.865-22.632 22.846-26.093 5.178-1.495 14.77-.983 19.968 1.068m256.703-.16c8.459 2.979 15.424 10.046 18.819 19.095 2.791 7.441 2.162 17.483-1.57 25.06-3.265 6.627-8.622 11.808-15.542 15.03-3.999 1.862-5.892 2.185-12.8 2.185s-8.801-.323-12.8-2.185c-6.92-3.222-12.277-8.403-15.542-15.03-3.759-7.63-4.364-17.613-1.526-25.178 5.001-13.331 17.696-21.658 31.575-20.709 3.05.209 7.274.988 9.386 1.732" fill-rule="evenodd"/></svg>