<svg xmlns="http://www.w3.org/2000/svg" width="512" height="512"><path d="M243.627 128.503c-19.556 2.805-31.957 6.553-46.426 14.032-29.324 15.157-51.308 40.692-62.333 72.4L131.716 224l-50.081.22-50.082.22.223 31.78L32 288l49.989.22 49.99.22 2.666 8.072c12.725 38.522 43.541 69.044 82.102 81.321 15.361 4.891 21.079 5.725 39.253 5.725s23.892-.834 39.253-5.725c38.673-12.312 69.339-42.685 82.099-81.312l2.669-8.081 49.99-.22L480 288l.224-31.78.223-31.78-50.083-.22-50.084-.22-3.139-9.147c-10.944-31.888-33.01-57.336-63.031-72.692-17.994-9.205-33.771-13.153-54.697-13.688-7.274-.186-14.378-.172-15.786.03m28.508 65.562c7.176 1.967 17.887 7.473 23.821 12.244C310.49 217.998 320 237.652 320 256c0 24.841-16.468 49.484-39.383 58.933-32.102 13.238-67.487-.549-82.265-32.053-4.817-10.268-5.907-15.231-5.907-26.88s1.09-16.612 5.907-26.88c8.93-19.037 26.438-32.537 47.045-36.274 5.7-1.034 21.074-.333 26.738 1.219" fill-rule="evenodd"/></svg>