<svg xmlns="http://www.w3.org/2000/svg" width="512" height="512"><path d="M148.48 32.961c-1.173.223-4.592 1.178-7.596 2.122-16.934 5.322-30.374 16.896-38.036 32.757C97.941 77.999 96.19 85.405 96.19 96c0 10.589 1.743 17.963 6.681 28.269 4.144 8.647 13.022 19.014 20.809 24.297l4.276 2.901.022 104.603.022 104.603-4.053 2.63c-4.264 2.767-12.279 10.528-16.086 15.577-3.362 4.458-8.488 15.845-10.179 22.613-1.96 7.847-1.969 21.111-.018 29.014 1.947 7.889 7.984 20.229 12.636 25.831a64.21 64.21 0 0 0 21.54 16.822c10.17 4.901 17.575 6.65 28.16 6.65 10.584 0 17.989-1.748 28.16-6.649 21.896-10.551 35.614-32.568 35.614-57.161 0-16.507-5.75-31.139-16.889-42.979-3.581-3.808-8.413-8.154-10.736-9.66-2.832-1.835-4.141-3.233-3.973-4.244.138-.829 34.811-31.57 77.051-68.312l76.8-66.805 7.493-.18c18.434-.443 35.126-8.565 47.819-23.266 4.914-5.691 10.988-17.881 12.979-26.047 1.909-7.834 1.909-21.18 0-29.014-5.628-23.086-23.968-41.618-46.881-47.371-8.332-2.092-21.132-2.243-29.775-.35-12.575 2.753-25.97 11.065-35.257 21.878-4.692 5.463-10.73 17.705-12.746 25.843-2.13 8.599-1.915 22.021.486 30.294 1.021 3.52 1.916 7.224 1.989 8.233.103 1.422-9.806 10.479-44.241 40.438-24.405 21.234-46.965 40.896-50.133 43.695l-5.76 5.089.022-60.887.022-60.888 4.276-2.901c7.787-5.283 16.665-15.65 20.809-24.297 4.902-10.23 6.645-17.644 6.645-28.269 0-27.892-17.558-51.936-44.574-61.043-4.375-1.475-7.979-1.925-17.067-2.135-6.336-.147-12.48-.084-13.653.139m24.525 34.001c6.517 2.971 13.138 9.596 16.14 16.149 2.047 4.469 2.387 6.3 2.394 12.889.006 6.614-.322 8.391-2.367 12.8-3.112 6.711-9.685 13.316-16.283 16.366-4.494 2.077-6.264 2.407-12.889 2.407-6.622 0-8.385-.329-12.8-2.388-6.743-3.145-13.327-9.709-16.345-16.296-2.047-4.469-2.387-6.3-2.394-12.889-.006-6.615.322-8.39 2.368-12.8 4.073-8.778 12.682-16.05 21.701-18.328 5.477-1.384 14.986-.413 20.475 2.09m192 64c6.517 2.971 13.138 9.596 16.14 16.149 2.047 4.469 2.387 6.3 2.394 12.889.006 6.614-.322 8.391-2.367 12.8-3.112 6.711-9.685 13.316-16.283 16.366-4.494 2.077-6.264 2.407-12.889 2.407-6.622 0-8.385-.329-12.8-2.388-6.743-3.145-13.327-9.709-16.345-16.296-2.047-4.469-2.387-6.3-2.394-12.889-.006-6.615.322-8.39 2.368-12.8 4.073-8.778 12.682-16.05 21.701-18.328 5.477-1.384 14.986-.413 20.475 2.09m-192 256c6.517 2.971 13.138 9.596 16.14 16.149 2.047 4.469 2.387 6.3 2.394 12.889.006 6.614-.322 8.391-2.367 12.8-3.112 6.711-9.685 13.316-16.283 16.366-4.494 2.077-6.264 2.407-12.889 2.407-6.622 0-8.385-.329-12.8-2.388-6.743-3.145-13.327-9.709-16.345-16.296-2.047-4.469-2.387-6.3-2.394-12.889-.006-6.615.322-8.39 2.368-12.8 4.073-8.778 12.682-16.05 21.701-18.328 5.477-1.384 14.986-.413 20.475 2.09" fill-rule="evenodd"/></svg>