<svg xmlns="http://www.w3.org/2000/svg" width="512" height="512"><path d="M262.229 1.533c-6.322 2.264-10.985 5.77-14.848 11.165-6.738 9.41-6.263.951-6.543 116.403l-.25 103.074-7.014-.248-7.014-.247-.427-80.213-.426-80.214-2.287-4.879c-10.375-22.136-38.079-24.46-50.898-4.27-5.571 8.775-5.269 1.208-5.269 131.797v118.497l-5.635-.252-5.636-.253-18.135-44.074c-9.974-24.241-18.934-45.361-19.911-46.933-2.905-4.678-7.955-9.021-13.363-11.49-10.955-5.003-23.856-2.046-32.365 7.418-5.725 6.368-7.74 12.177-7.671 22.119l.055 8.107 31.731 88.747c17.452 48.81 32.543 90.858 33.537 93.44 3.335 8.666 10.011 21.359 15.395 29.271 6.488 9.536 20.898 24.14 29.911 30.314 20.634 14.135 51.998 21.78 94.061 22.926 29.871.814 53.536-2.155 76.182-9.557 35.145-11.488 61.939-33.028 79.874-64.213 8.244-14.334 15.891-36.077 19.251-54.738 3.419-18.986 3.576-25.956 3.303-146.901l-.264-116.525-3.223-6.522c-3.49-7.06-7.586-11.243-14.206-14.505-3.221-1.587-5.322-1.924-12.011-1.924-7.368 0-8.517.228-12.619 2.5-5.738 3.179-10.801 8.666-13.697 14.844l-2.27 4.843-.427 64.427-.427 64.426-5.084.262c-2.797.143-5.965.04-7.04-.23l-1.956-.491-.017-90.65c-.01-56.262-.342-92.907-.876-96.598-1.672-11.567-7.74-20.424-17.251-25.177-4.319-2.158-6.179-2.582-11.325-2.582-7.298 0-11.905 1.466-17.493 5.567-5.117 3.757-8.893 9.364-11.085 16.46-1.632 5.284-1.686 8.217-1.686 91.556v86.097h-14.474l-.229-103.894-.23-103.893-1.981-4.904c-2.621-6.492-9.196-13.606-15.2-16.446-6.381-3.019-14.526-3.589-20.537-1.437" fill-rule="evenodd"/></svg>