<svg xmlns="http://www.w3.org/2000/svg" width="512" height="512"><path d="M230.028 33.813C158.019 43.035 89.529 91.887 55.836 158.058c-32.403 63.637-31.509 132.541 2.746 211.673 18.772 43.366 45.178 85.155 63.209 100.033 13.444 11.092 22.335 12.442 44.713 6.789 16.596-4.192 50.893-17.276 68.234-26.029l5.132-2.591-5.802-10.915c-28.66-53.922-105.79-196.36-106.332-196.368-.38-.005-12.612 6.926-27.182 15.404-14.57 8.477-26.633 15.271-26.807 15.098-.174-.174-.565-5.094-.87-10.934-.665-12.753.648-28.841 3.524-43.169 6.697-33.372 23.985-65.257 49.267-90.866 44.944-45.525 105.117-64.494 165.964-52.317 70.214 14.05 129.981 73.492 143.967 143.183 2.876 14.328 4.189 30.416 3.524 43.169-.305 5.84-.706 10.77-.892 10.955-.185.186-12.243-6.609-26.795-15.098-14.553-8.489-26.776-15.435-27.163-15.435-.525 0-110.444 202.934-111.904 206.598-1.06 2.662 52.307 24.056 73.127 29.315 22.378 5.653 31.269 4.303 44.713-6.789 20.624-17.017 51.818-68.936 69.73-116.057 27.716-72.912 26.495-136.201-3.775-195.649-30.417-59.737-90.261-106.405-154.937-120.823-21.373-4.765-49.98-6.139-71.199-3.422" fill-rule="evenodd"/></svg>