<svg xmlns="http://www.w3.org/2000/svg" width="512" height="512"><path d="M241.92 48.669c-64.561 4.115-123.152 38.433-159.962 93.693-26.292 39.469-38.649 92.321-32.455 138.811 6.326 47.479 26.376 88.354 59.673 121.651 33.526 33.526 73.443 53.027 122.504 59.846 4.224.587 15.168 1.068 24.32 1.068 9.152 0 20.096-.481 24.32-1.068 49.001-6.811 88.952-26.339 122.482-59.868 33.529-33.53 53.057-73.481 59.868-122.482 1.376-9.9 1.376-38.74 0-48.64-6.778-48.766-26.328-88.904-59.45-122.057-11.819-11.831-20.651-19.077-33.662-27.617-37.561-24.655-81.952-36.249-127.638-33.337m51.901 238.7 48.487 48.544-11.325 11.151-11.325 11.151-91.52-91.001-91.52-91.001 11.205-11.259 11.205-11.259 43.153 42.564c23.734 23.411 64.972 64.41 91.64 91.11m-68.114-116.382c8.89 2.86 16.053 7.181 23.922 14.432l6.371 5.87 6.371-5.87c11.907-10.972 23.911-16.238 38.856-17.044 26.751-1.444 49.788 15.726 56.885 42.398 1.952 7.338 1.942 24.188-.02 34.313-3.118 16.086-11.106 33.791-21.787 48.287l-5.845 7.933-66.323-65.92c-55.085-54.752-66.056-66.036-64.75-66.599 3.297-1.42 19.198-.091 26.32 2.2m56.526 173.333c.113.469-5.614 4.856-12.727 9.748l-12.934 8.895-2.461-1.413c-9.058-5.198-48.609-36.987-62.899-50.555-18.713-17.767-33.109-43.16-37.123-65.483-1.826-10.154-2.468-19.326-1.773-25.317l.608-5.242 64.552 64.257c35.503 35.341 64.643 64.641 64.757 65.11" fill-rule="evenodd"/></svg>