<svg xmlns="http://www.w3.org/2000/svg" width="512" height="512"><path d="M149.333 64.486c-1.173.205-5.013.794-8.533 1.308-37.709 5.51-72.59 35.318-86.083 73.565-9.311 26.392-8.929 59.733 1.103 96.277 10.695 38.96 34.479 78.484 67.9 112.835 25.31 26.015 46.735 42.725 100.896 78.694l31.336 20.81 28.824-19.05c30.204-19.962 48.348-32.679 63.278-44.352 54.272-42.432 92.148-93.966 107.244-145.912 6.204-21.35 8.383-36.568 8.389-58.608.004-17.599-1.396-26.498-6.404-40.694-11.733-33.259-38.74-59.692-71.576-70.054-12.241-3.864-19.417-4.872-34.134-4.797-14.797.076-24.876 1.766-38.134 6.395-17.801 6.215-36.91 19.074-51.395 34.585L256 111.96l-6.044-6.472c-19.083-20.434-42.246-33.793-67.609-38.993-8.242-1.689-27.973-2.89-33.014-2.009m224.265 34.422c13.644 3.98 29.219 13.894 37.767 24.039 13.315 15.801 19.439 31.722 20.219 52.562 1.622 43.314-14.174 86.502-47.228 129.131-8.787 11.332-32.723 35.727-45.156 46.022-17.285 14.312-39.52 30.305-68.462 49.24L256 409.545V162.278l15.209-18.206c8.365-10.013 17.433-20.234 20.152-22.713 13.469-12.281 28.675-20.319 44.852-23.709 8.491-1.78 29.384-1.076 37.385 1.258" fill-rule="evenodd"/></svg>