<svg xmlns="http://www.w3.org/2000/svg" width="512" height="512"><path d="M241.493 64.526c-47.251 4.335-88.873 23.54-121.303 55.97-25.57 25.57-44.326 59.862-51.854 94.804-16.806 78.008 16.198 157.784 83.557 201.972 17.262 11.324 42.795 21.951 63.407 26.392 86.363 18.606 174.236-24.111 213.136-103.611 32.658-66.743 23.796-145.995-22.832-204.192-29.898-37.315-73.918-62.584-121.444-69.712-8.787-1.317-35.091-2.319-42.667-1.623m36.816 82.987c12.048 3.147 23.412 9.987 32.37 19.483 6.429 6.816 9.395 11.715 12.552 20.737 1.96 5.599 2.239 7.735 2.232 17.067-.012 14.701-2.472 23.081-10.022 34.133-5.618 8.224-15.426 17.005-29.574 26.478-7.691 5.148-15.165 12.456-17.551 17.16-2.371 4.674-3.767 12.428-3.776 20.972-.006 5.21-.261 6.293-1.657 7.04-2.147 1.149-21.859 1.149-24.006 0-1.489-.797-1.649-1.861-1.636-10.88.018-12.024 1.536-19.789 5.498-28.132 5.731-12.068 12.353-18.941 30.258-31.403 11.9-8.283 18.808-15.042 21.986-21.512 2.15-4.379 2.404-5.797 2.403-13.429-.001-7.618-.247-9.001-2.299-12.892-4.364-8.274-15.832-16.354-25.804-18.181-6.472-1.185-17.511-1.188-24.006-.005-10.377 1.889-21.934 9.981-27.275 19.097-2.537 4.329-4.669 12.387-4.669 17.646 0 6.334-.778 6.708-13.97 6.708-7.642 0-11.619-.331-12.312-1.024-1.658-1.658-1.264-14.832.67-22.395 5.291-20.685 23.496-39.224 44.812-45.634 9.164-2.755 15.186-3.42 27.734-3.064 7.841.222 13.602.87 18.042 2.03m-9.936 201.074v17.066H234.24l-.233-16.187c-.128-8.903-.041-16.687.194-17.298.334-.872 4.061-1.061 17.299-.879l16.873.231v17.067" fill-rule="evenodd"/></svg>