<svg xmlns="http://www.w3.org/2000/svg" width="512" height="512"><path d="M241.996 64.877c-30.246 3.464-50.287 13.028-71.403 34.072-15.684 15.631-23.554 28.445-28.23 45.968-1.36 5.098-1.846 10.191-2.192 22.976l-.445 16.427h40.155l.351-14.293c.291-11.831.661-15.137 2.151-19.189 2.539-6.905 6.986-13.902 13.022-20.489 18.018-19.664 38.416-27.336 69.068-25.979 7.37.327 14.05 1.152 18.372 2.269 17.799 4.601 36.162 18.827 43.517 33.713 8.324 16.847 7.094 38.857-3.151 56.341-4.823 8.232-17.373 20.389-31.272 30.294-30.106 21.453-39.706 29.397-47.749 39.511-11.893 14.957-16.335 30.364-16.345 56.702l-.005 13.013H267.735l.433-15.146c.504-17.614 1.438-21.536 6.896-28.95 4.59-6.236 13.279-13.518 30.856-25.864 17.107-12.015 23.621-17.199 33.185-26.413 21.14-20.366 31.341-42.647 32.645-71.307 1.102-24.206-6.156-46.196-21.131-64.021-5.249-6.248-16.425-15.998-24.219-21.128-20.975-13.808-36.074-18.309-63.573-18.951-7.744-.181-17.118.019-20.831.444m-20.343 303.831c-1.371.799-1.493 3.02-1.493 27.11 0 19.272.272 26.513 1.024 27.265.751.751 7.897 1.024 26.832 1.024 25.701 0 25.813-.008 27.136-1.897 1.127-1.61 1.328-5.608 1.328-26.453 0-23.419-.079-24.636-1.707-26.264-1.63-1.63-2.826-1.705-26.666-1.68-15.361.016-25.535.36-26.454.895" fill-rule="evenodd"/></svg>