<svg xmlns="http://www.w3.org/2000/svg" width="512" height="512"><path d="M235.947 32.932c-1.408.193-7.168.963-12.8 1.711-45.717 6.07-91.56 29.208-125.846 63.517-35.148 35.171-56.809 79.485-63.614 130.14-1.649 12.279-1.888 38.816-.464 51.593 10.78 96.716 81.661 175.032 176.778 195.323 28.475 6.074 63.523 6.074 91.998 0 60.645-12.937 112.825-49.852 145.36-102.834 32.513-52.947 41.096-118.42 23.535-179.529-21.552-75-84.293-135.253-160.281-153.926-19.536-4.8-27.851-5.788-51.2-6.082-11.498-.145-22.058-.105-23.466.087m-39.658 93.317c2.466 39.683 2.564 43.055 1.268 43.78-6.637 3.715-23.854 20.963-27.592 27.644-.739 1.319-3.55 1.257-39.513-.871-21.295-1.26-40.715-2.514-43.155-2.786l-4.436-.495 1.323-3.534c3.296-8.811 12.759-26.843 18.931-36.075 9.957-14.893 24.954-31.265 38.538-42.071 7.514-5.977 21.979-15.28 30.294-19.482 7.157-3.618 21.121-9.637 21.502-9.269.093.09 1.371 19.511 2.84 43.159M336.64 90.922c31.104 15.073 57.534 38.995 75.985 68.775 4.744 7.656 12.34 22.823 15.184 30.319l1.352 3.562-5.3.493c-6.747.627-75.272 4.759-78.688 4.745-1.94-.008-2.995-.679-4.358-2.773-4.989-7.665-19.97-22.431-26.418-26.04-1.166-.652-1.026-5.29 1.295-43.024 1.431-23.261 2.601-42.721 2.601-43.243 0-1.276 4.62.533 18.347 7.186m-64.505 103.143c7.176 1.967 17.887 7.473 23.821 12.244C310.49 217.998 320 237.652 320 256c0 24.965-16.525 49.688-39.446 59.016-32.181 13.096-67.453-.693-82.202-32.136-4.817-10.268-5.907-15.231-5.907-26.88s1.09-16.612 5.907-26.88c8.93-19.037 26.438-32.537 47.045-36.274 5.7-1.034 21.074-.333 26.738 1.219m-101.3 121.455c4.145 7.002 20.012 22.695 26.77 26.477 1.226.686 1.106 4.749-1.288 43.724-1.452 23.631-2.729 43.053-2.839 43.159-.109.106-3.27-1.056-7.025-2.582-41.441-16.846-76.912-50.256-96.092-90.511-2.236-4.694-4.852-10.55-5.814-13.014l-1.749-4.48 2.761-.068c1.519-.038 19.273-1.139 39.454-2.448 48.16-3.122 44.139-3.1 45.822-.257m214.872.213c22.762 1.405 41.863 2.556 42.446 2.557 1.424.004-.199 4.238-7.079 18.465-14.769 30.539-40.093 58.534-68.874 76.138-12.546 7.674-33.907 17.338-33.907 15.339 0-.505-1.17-19.95-2.601-43.211-2.341-38.047-2.468-42.368-1.273-43.037 6.736-3.77 22.609-19.475 26.746-26.464.764-1.291 1.787-2.345 2.272-2.344.486.002 19.507 1.153 42.27 2.557" fill-rule="evenodd"/></svg>