<svg xmlns="http://www.w3.org/2000/svg" width="512" height="512"><path d="M128.414 151.591C58.49 217.131 1.152 271.083.996 271.484c-.157.401 13.955.729 31.36.729H64v208.223l71.893-.218 71.894-.218.217-80 .218-80h95.556l.218 80 .217 80 71.894.218 71.893.218V272.213h64.202l-47.882-48.524-47.882-48.525-.219-63.475L416 48.213l-39.893-.221-39.894-.222v29.022c0 15.962-.207 29.021-.461 29.021s-18.201-16.512-39.883-36.693c-21.681-20.181-39.623-36.693-39.871-36.693-.247 0-57.66 53.624-127.584 119.164" fill-rule="evenodd"/></svg>