<svg xmlns="http://www.w3.org/2000/svg" viewBox="0 0 512 512"><path d="M97.274 17.006c-6.371 1.952-12.431 7.388-15.289 13.714-1.729 3.829-1.734 4.479-1.734 225.28s.005 221.451 1.734 225.28c2.329 5.154 7.119 10.007 12.308 12.467l4.267 2.023h314.88l4.267-2.023c5.189-2.46 9.979-7.313 12.308-12.467 1.729-3.829 1.734-4.479 1.734-225.28s-.005-221.451-1.734-225.28c-2.111-4.673-6.862-9.746-11.455-12.232l-3.413-1.848-157.867-.145c-86.827-.079-158.829.151-160.006.511M320 80.213v16.214H192V64h128v16.213m-6.655 192.947c5.478 1.147 14.64 5.796 19.324 9.806 15.101 12.926 18.335 38.101 7.122 55.449-7.893 12.213-21.247 19.413-36.004 19.413-38.218 0-57.112-47.032-29.533-73.515 10.645-10.222 24.567-14.194 39.091-11.153m7.183 102.755c28.539 4.901 53.279 19.221 60.729 35.152 2.204 4.714 2.32 5.645 2.605 20.933l.298 16H224.427v-15.328c0-17.746.817-21.081 7.135-29.105 9.639-12.243 31.873-23.346 55.338-27.633 8.592-1.569 24.547-1.579 33.628-.019" fill-rule="evenodd"/></svg>