<svg xmlns="http://www.w3.org/2000/svg" width="512" height="512"><path d="M11.472 34.036C7.211 35.972 2.314 41.543.99 45.959c-1.477 4.93-1.418 351.348.061 356.283.608 2.03 2.673 5.18 4.906 7.482 5.562 5.734 9.531 6.703 27.478 6.703h14.352V257.416c0-172.477-.242-163.555 4.597-169.9 1.2-1.573 4.188-3.859 6.64-5.081l4.458-2.222H448V64.739c0-9.276-.397-16.798-.99-18.78-1.324-4.416-6.221-9.987-10.482-11.923-3.332-1.513-11.252-1.572-212.528-1.572-201.276 0-209.196.059-212.528 1.572m82.584 79c-5.307 1.664-9.096 4.92-11.621 9.988l-2.222 4.458v168.393c0 185.99-.438 171.52 5.377 177.586 1.501 1.567 4.266 3.679 6.143 4.694L95.147 480l198.791.222c224.469.251 205 .847 212.105-6.491 2.229-2.302 4.299-5.462 4.906-7.489 1.403-4.68 1.534-335.187.136-340.222-1.118-4.026-5.929-9.477-10.547-11.948l-3.471-1.859-199.68-.161c-164.951-.132-200.315.039-203.331.984M380.587 174.1c18.681 2.899 34.77 19.406 37.625 38.604 4.675 31.433-24.098 58.332-55.034 51.449-14.931-3.322-26.863-13.334-32.798-27.521-9.114-21.786.877-47.75 22.449-58.34 9.448-4.638 17.269-5.819 27.758-4.192m-98.984 116.523 46.504 46.57-56.632 56.257-56.631 56.257H111.787l.017-48 .017-48 61.114-54.827c33.612-30.155 61.349-54.827 61.639-54.827.289 0 21.452 20.957 47.029 46.57m160.265 47.297 37.601 32 .052 39.893.052 39.894H258.99l72.104-72.107c39.657-39.659 72.344-72.011 72.638-71.894.294.118 17.456 14.614 38.136 32.214" fill-rule="evenodd"/></svg>