<svg xmlns="http://www.w3.org/2000/svg" viewBox="0 0 512 512"><path d="M235.947 32.121c-20.829 2.374-33.503 4.921-48.824 9.812-33.937 10.834-64.821 29.682-90.164 55.026-51.828 51.827-74.673 124.053-62.317 197.014 7.533 44.48 29.84 87.174 62.643 119.894 46.658 46.539 106.42 69.628 171.942 66.429 73.512-3.589 141.716-44.95 180.039-109.181 27.01-45.271 37.154-99.764 28.26-151.808-11.154-65.26-50.458-122.17-108.147-156.59-26.918-16.061-57.727-26.365-89.486-29.929-9.394-1.055-36.887-1.472-43.946-.667m48.213 50.244c36.192 5.849 69.814 23.136 96.077 49.398 26.314 26.315 43.064 58.926 49.567 96.504 2.077 11.998 2.077 43.468 0 55.466-3.953 22.845-11.571 43.602-22.971 62.592-23.854 39.736-62.397 68.525-107.078 79.979-12.687 3.252-27.902 5.483-37.399 5.483H256v-95.26l-8.713-1.022c-10.967-1.287-23.181-5.4-32.412-10.914-7.503-4.483-19.962-16.013-24.377-22.562-4.857-7.205-9.693-17.886-11.874-26.225-3.099-11.855-3.099-27.754.001-39.612 7.44-28.457 29.314-50.335 57.467-57.477 4.499-1.141 9.379-2.079 10.844-2.084 1.465-.006 4.104-.248 5.864-.539l3.2-.529V79.951l10.027.552c5.514.303 13.674 1.141 18.133 1.862M256 256.094v80.32l6.613-.618c19.631-1.835 36.074-9.671 50.134-23.892 13.055-13.204 20.608-28.866 22.758-47.191 1.958-16.687-2.054-35.006-10.914-49.838-4.483-7.503-16.013-19.962-22.562-24.377-11.365-7.663-26.324-12.986-39.842-14.178l-6.187-.545v80.319" fill-rule="evenodd"/></svg>