<svg xmlns="http://www.w3.org/2000/svg" width="512" height="512"><path d="M328.433 48.68c-20.904 1.862-40.534 8.784-58.353 20.576-10.073 6.666-25.468 22.302-32.348 32.854-8.517 13.064-14.925 28.62-17.519 42.53-2.843 15.247-2.641 42.24.407 54.373l1.441 5.733-7.137 8.339C180.713 253.059 60.01 393.176 56.62 396.852l-2.016 2.185 1.445 18.188 1.446 18.188 8.159 7.268c16.523 14.718 28.254 22.511 31.326 20.811.869-.481 6.942-6.266 13.496-12.857l11.916-11.983 3.623-21.46c1.992-11.803 3.813-21.651 4.045-21.883.233-.233 10.712-1.185 23.288-2.116s23.008-1.827 23.183-1.991c.174-.165 1.141-10.467 2.149-22.895 1.007-12.428 2.035-22.8 2.285-23.05.249-.249 11.474-.719 24.944-1.044l24.491-.591v-50.295l7.467.522c4.106.288 15.146.743 24.533 1.011 9.387.269 17.905.66 18.929.869 1.636.335 2.402-.758 6.32-9.007 2.452-5.164 4.611-9.389 4.797-9.389.187 0 4.255 1.305 9.04 2.9 12.174 4.057 22.826 5.676 37.394 5.681 28.06.012 49.825-6.434 72.487-21.469 10.181-6.754 25.893-22.393 32.489-32.338 39.355-59.338 19.112-136.109-44.665-169.386-16.054-8.377-30.029-12.419-48.63-14.065-10.562-.935-11.375-.934-22.128.024m45.754 57.122c20.54 3.337 35.133 23.338 32.025 43.894-4.011 26.533-32.463 40.813-56.709 28.462-4.756-2.422-12.043-9.579-14.94-14.672-6.378-11.213-6.921-24.44-1.475-35.909 6.335-13.339 19.009-21.664 34.272-22.512.939-.052 4.011.279 6.827.737" fill-rule="evenodd"/></svg>