<svg xmlns="http://www.w3.org/2000/svg" width="512" height="512"><path d="M143.202 99.283c-60.865 27.762-110.401 50.73-110.08 51.038.322.309 50.313 23.656 111.091 51.881 78.035 36.24 111.134 51.216 112.64 50.967 2.035-.335 220.809-101.677 222.025-102.847.78-.751-221.12-101.717-223.305-101.605-.938.049-51.505 22.803-112.371 50.566M72.96 237.684c-18.304 8.17-34.975 15.659-37.046 16.642l-3.767 1.788 109.58 49.955c60.269 27.475 110.772 50.345 112.229 50.821 2.463.806 10.479-2.698 113.707-49.699 61.081-27.811 111.057-50.83 111.057-51.153 0-.323-16.718-7.996-37.151-17.05l-37.152-16.463-73.608 33.804c-40.485 18.593-74.105 33.804-74.712 33.804-.607 0-34.195-15.168-74.64-33.706-40.446-18.539-73.915-33.683-74.377-33.653-.462.03-15.816 6.739-34.12 14.91m-.427 106.185c-20.885 9.342-38.47 17.297-39.077 17.678-.71.445 38.842 18.876 110.72 51.595L256 464.044l111.754-50.892c61.465-27.99 111.481-51.134 111.147-51.431-.334-.296-17.927-8.29-39.095-17.764l-38.487-17.224-72.438 32.96c-44.416 20.211-73.101 32.813-74.153 32.578-.943-.211-33.67-15.023-72.727-32.914-39.056-17.892-71.12-32.517-71.253-32.501-.133.016-17.329 7.672-38.215 17.013" fill-rule="evenodd"/></svg>