<svg xmlns="http://www.w3.org/2000/svg" width="512" height="512"><path d="M241.92 48.669c-64.561 4.115-123.152 38.433-159.962 93.693-26.292 39.469-38.649 92.321-32.455 138.811 6.326 47.479 26.376 88.354 59.673 121.651 33.526 33.526 73.443 53.027 122.504 59.846 4.224.587 15.168 1.068 24.32 1.068 9.152 0 20.096-.481 24.32-1.068 49.001-6.811 88.952-26.339 122.482-59.868 33.529-33.53 53.057-73.481 59.868-122.482 1.376-9.9 1.376-38.74 0-48.64-6.778-48.766-26.328-88.904-59.45-122.057-11.819-11.831-20.651-19.077-33.662-27.617-37.561-24.655-81.952-36.249-127.638-33.337m-59.698 113.362c4.165 1.892 7.691 5.887 8.974 10.17.56 1.87.831 7.73.663 14.322-.269 10.507-.422 11.363-2.633 14.7-1.311 1.978-3.892 4.331-5.842 5.326-3.175 1.619-4.68 1.757-16.495 1.51-12.744-.267-13.064-.32-16.14-2.668-5.544-4.233-6.536-7.385-6.536-20.768 0-13.607 1.205-17.388 6.699-21.024 4.32-2.859 4.902-2.962 17.195-3.055 8.648-.065 11.319.217 14.115 1.487m185.565 22.716v15.786H212.48V168.96H367.787v15.787m-184.5 49.829c7.137 3.642 8.719 7.652 8.694 22.037-.021 12.322-1.122 16.097-5.859 20.083-3.769 3.171-7.649 4.041-18.015 4.041-10.709 0-14.388-.896-18.497-4.504-4.708-4.133-5.397-6.662-5.397-19.813 0-12.479.849-15.676 5.251-19.782 3.316-3.093 5.732-3.567 18.463-3.624 10.353-.046 12.672.19 15.36 1.562m184.5 21.851v15.786H212.48V240.64H367.787v15.787m-184.533 49.17c2.248 1.088 4.652 3.188 6.029 5.267 2.142 3.233 2.309 4.178 2.576 14.613.322 12.597-.415 16.193-4.204 20.508-4.203 4.787-8.209 5.806-21.464 5.461-10.99-.287-11.605-.4-14.982-2.741-5.836-4.046-6.996-7.583-6.996-21.328 0-14.742 1.384-18.166 8.96-22.169 1.972-1.042 5.294-1.361 14.451-1.387 10.416-.03 12.354.19 15.63 1.776m184.533 22.088v16.217l-77.44-.217-77.44-.218-.232-16-.233-16h155.345v16.218" fill-rule="evenodd"/></svg>