<svg xmlns="http://www.w3.org/2000/svg" width="512" height="512"><path d="M185.6 81.418c-3.368 1.51-6.844 5.285-8.488 9.221-1.163 2.785-1.325 12.105-1.325 76.16v72.988H64v32.426h111.787l.018 73.174c.018 68.932.109 73.371 1.573 76.594 1.961 4.316 6.918 8.717 10.55 9.368 1.536.275 58.308.39 126.161.256l123.369-.245 3.461-2.29c2.085-1.38 4.181-3.778 5.271-6.03l1.81-3.739V92.699l-1.81-3.739c-1.09-2.252-3.186-4.65-5.271-6.03l-3.461-2.29-124.649-.184c-102.849-.153-125.097.016-127.209.962M382.361 249.6c1.956 4.17 2.06 7.996.329 12.187-.907 2.198-15.656 17.529-47.993 49.889l-46.683 46.715-11.317-11.294-11.318-11.294 31.786-31.795 31.786-31.795H175.787v-32.426h153.164l-31.782-31.791-31.782-31.791 11.303-11.303 11.303-11.303 46.384 46.294c31.231 31.17 46.906 47.409 47.984 49.707" fill-rule="evenodd"/></svg>