<svg xmlns="http://www.w3.org/2000/svg" width="512" height="512"><path d="M241.493 69.388c-13.845 6.6-190.818 94.151-199.077 98.486-4.572 2.4-6.286 3.874-8.107 6.971L32 178.773l-.233 125.867c-.158 85.856.054 127.209.667 130.088 1.143 5.361 4.37 9.603 8.854 11.639 3.4 1.545 10.26 1.596 214.712 1.596s211.312-.051 214.712-1.596c4.484-2.036 7.711-6.278 8.854-11.639.613-2.879.825-44.232.667-130.088L480 178.773l-2.367-4.027c-2.794-4.752 5.751-.325-129.794-67.244-68.38-33.76-87.776-42.993-90.88-43.262-3.454-.3-5.38.34-15.466 5.148m100.905 71.199c47.284 23.349 85.955 42.645 85.935 42.88-.055.643-172.874 85.726-174.642 85.98-1.749.251-171.907-83.6-171.922-84.721-.009-.62 172.966-86.593 174.222-86.593.239 0 39.122 19.104 86.407 42.454" fill-rule="evenodd"/></svg>