<svg xmlns="http://www.w3.org/2000/svg" width="512" height="512"><path d="M330.24 69.973V92.16h58.45l-30.076 30.077c-23.127 23.126-30.349 29.88-31.254 29.226-15.216-10.992-34.993-21.389-50.224-26.403-35.498-11.685-74.243-11.68-109.789.017-19.323 6.358-38.447 16.657-54.052 29.108-31.44 25.086-53.701 61.566-61.607 100.962-6.206 30.923-4.469 59.556 5.436 89.6 6.056 18.367 15.473 36.22 27.232 51.626 5.5 7.207 20.693 22.69 28.284 28.824 39.472 31.896 92.138 45.11 141.653 35.541 23.213-4.486 43.787-12.764 63.003-25.348 62.596-40.992 91.906-117.664 72.68-190.126-4.944-18.634-12.785-35.939-23.686-52.273l-6.457-9.675 30.004-30.003 30.003-30.003v58.45H464.213V47.787H330.24v22.186m-88.747 91.705c39.773 6.089 73.692 29.519 93.724 64.739 11.057 19.44 16.356 40.215 16.356 64.12 0 65.494-48.156 119.818-113.92 128.512-10.45 1.381-30.914.531-41.522-1.726-46.132-9.813-82.43-41.985-97.179-86.134-5.092-15.243-6.328-23.499-6.273-41.909.039-12.934.39-17.406 1.945-24.747 8.633-40.755 34.646-74.199 71.349-91.728 11.407-5.448 27.364-10.139 40.107-11.791 6.679-.865 28.039-.465 35.413.664" fill-rule="evenodd"/></svg>