<svg xmlns="http://www.w3.org/2000/svg" width="512" height="512"><path d="M245.87.961c-10.089 1.676-21.484 7.783-29.46 15.788-10.475 10.513-16.009 23.635-16.152 38.291-.103 10.559 1.082 15.695 5.98 25.931 6.263 13.085 17.253 22.738 31.983 28.091 5.62 2.043 7.435 2.275 17.779 2.275 10.344 0 12.159-.232 17.779-2.275 9.006-3.273 15.021-7.102 22.01-14.011 4.943-4.887 6.885-7.63 9.973-14.08 4.898-10.236 6.083-15.372 5.98-25.931-.333-34.251-31.45-59.798-65.872-54.079m-77.127 127.955c-9.049 2.161-17.413 8.925-21.612 17.477l-2.491 5.074-.23 84.266-.229 84.267H192V192h7.68v320h52.053V328.533h8.534V512h52.053V192H320v128h47.819l-.229-84.267-.23-84.266-2.491-5.074c-3.29-6.701-8.671-11.935-15.684-15.258l-5.718-2.708-85.76-.138c-48.168-.077-87.165.198-88.964.627" fill-rule="evenodd"/></svg>