<svg xmlns="http://www.w3.org/2000/svg" width="512" height="512"><path d="M403.664 81.58c-63.781 41.483-75.752 48.97-77.226 48.291-.96-.441-33.379-21.047-72.042-45.79l-70.298-44.987-8.209 5.579c-4.515 3.068-38.737 26.679-76.049 52.468L32 144.03l-.215 167.864c-.173 134.19-.002 167.781.853 167.452.588-.227 34.847-22.358 76.131-49.18 41.284-26.823 75.568-48.575 76.187-48.337.618.237 33.003 20.825 71.965 45.75 38.963 24.925 71.303 45.109 71.867 44.852.564-.256 34.817-23.852 76.119-52.434L480 368.028l.215-167.8c.119-92.291-.073-167.788-.426-167.771-.353.016-34.609 22.122-76.125 49.123M270.72 136.487l41.6 26.731v128.809c0 76.745-.313 128.694-.774 128.524-.426-.156-25.574-16.22-55.885-35.698L200.55 349.44l-.008-129.045-.009-129.045 14.294 9.203c7.861 5.062 33.013 21.232 55.893 35.934" fill-rule="evenodd"/></svg>