<svg xmlns="http://www.w3.org/2000/svg" width="512" height="512"><path d="M47.997 96.002c-17.481 34.966-31.784 63.766-31.784 64 0 .233 64.87.425 144.156.425h144.155l1.656-2.347c1.341-1.9 75.979-120.891 78.148-124.587.5-.851-30.126-1.066-151.96-1.066H79.781L47.997 96.002m315.096 32.164a1135437.65 1135437.65 0 0 1-62.849 99.309l-2.262 3.571-7.124-2.073c-20.965-6.101-48.747-6.103-69.705-.003l-7.113 2.07-2.451-3.947a5910.704 5910.704 0 0 0-12.136-19.306l-9.685-15.36-72.697-.218c-39.984-.12-72.698-.006-72.698.254s19.245 30.419 42.767 67.021c23.521 36.601 42.81 67.015 42.863 67.585.054.571-.429 5.059-1.072 9.973-1.483 11.332-.782 29.008 1.597 40.267 8.317 39.359 32.737 71.114 68.725 89.368 8.905 4.516 25.117 9.78 35.84 11.638 11.359 1.967 30.455 1.967 41.814 0 53.382-9.246 94.339-49.51 105.084-103.306 1.811-9.067 2.126-35.409.517-43.252l-1.001-4.883 56.858-90.69c31.273-49.88 56.876-91.28 56.897-92 .035-1.249-70.267-111.625-71.155-111.714-.235-.024-27.691 43.039-61.014 95.696m-90.376 156.008c49.149 12.526 69.255 70.1 38.576 110.465-14.383 18.924-39.644 29.745-62.76 26.885-54.82-6.783-81.141-68.997-47.619-112.557 9.176-11.924 22.755-20.763 38.019-24.749 9.035-2.359 24.622-2.379 33.784-.044m-25.222 37.192c-11.885 3.194-20.673 12.944-22.997 25.517-2.525 13.659 5.386 28.217 18.702 34.417 3.999 1.862 5.892 2.185 12.8 2.185s8.801-.323 12.8-2.185c13.316-6.2 21.227-20.758 18.702-34.417-2.36-12.765-11.149-22.377-23.37-25.56-6.193-1.614-10.515-1.602-16.637.043" fill-rule="evenodd"/></svg>