<svg xmlns="http://www.w3.org/2000/svg" width="512" height="512"><path d="M130.209 35.052 128 37.678V96.427l-51.84.003c-49.911.003-51.942.065-54.572 1.669-5.827 3.553-5.375-12.458-5.371 190.072.003 180.29.03 183.34 1.668 186.028.917 1.502 2.931 3.422 4.477 4.266C25.049 479.932 35.402 480 256 480s230.951-.068 233.638-1.535c1.546-.844 3.56-2.764 4.477-4.266 1.638-2.688 1.665-5.738 1.668-186.028.004-202.53.456-186.519-5.371-190.072-2.63-1.604-4.661-1.666-54.572-1.669L384 96.427V37.678l-2.209-2.626-2.209-2.625H132.418l-2.209 2.625M343.893 84.48v11.947H168.107V72.533h175.786V84.48m-65.706 144.64v37.12h73.386v43.52h-73.386V384h-44.374v-74.24h-73.386v-43.52h73.386V192h44.374v37.12" fill-rule="evenodd"/></svg>