<svg xmlns="http://www.w3.org/2000/svg" width="512" height="512"><path d="M158.7 37.379C96.51 68.827 52.027 127.536 37.208 197.722c-6.747 31.952-6.765 66.945-.052 98.303C51.61 363.549 96.258 422.057 157.44 453.651c25.669 13.256 50.973 21.121 79.441 24.693 14.702 1.845 41.659 1.857 56.097.024 70.938-9.006 131.152-45.829 169.228-103.491 5.805-8.791 17.367-30.021 17.367-31.889 0-.407-1.675-.023-3.722.855-12.727 5.455-37.296 11.446-56.864 13.866-11.929 1.475-52.514 1.482-62.72.011-53.776-7.752-98.711-29.884-135.299-66.639-12.655-12.712-19.798-21.428-29.446-35.934-19.971-30.024-31.946-62.172-37.191-99.84-1.432-10.283-1.454-49.315-.035-61.014 2.521-20.776 6.335-37.583 12.041-53.053 1.788-4.848 3.005-8.813 2.704-8.813-.301 0-4.954 2.228-10.341 4.952" fill-rule="evenodd"/></svg>