<svg xmlns="http://www.w3.org/2000/svg" width="512" height="512"><path d="m210.126 54.834-45.442 45.447 11.528 11.505 11.528 11.504 26.023-26.013 26.024-26.013v168.523H71.264l25.808-25.819c14.194-14.2 25.808-26.206 25.808-26.679 0-.473-4.995-5.844-11.099-11.935l-11.099-11.074-45.859 45.859-45.859 45.859 45.648 45.654 45.648 45.654 11.519-11.519 11.519-11.519-26.017-26.027-26.017-26.028h168.523v168.523l-25.819-25.808c-14.2-14.194-26.206-25.808-26.679-25.808-.473 0-5.844 4.995-11.935 11.099l-11.074 11.099 45.86 45.86 45.86 45.86 45.86-45.86 45.86-45.86-11.074-11.099c-6.091-6.104-11.462-11.099-11.935-11.099-.473 0-12.479 11.614-26.679 25.808l-25.819 25.808V272.213h168.523l-26.017 26.028-26.017 26.027 11.519 11.519 11.519 11.519 45.648-45.654 45.648-45.654-45.859-45.859-45.859-45.859-11.099 11.074c-6.104 6.091-11.099 11.462-11.099 11.935 0 .473 11.614 12.479 25.808 26.679l25.808 25.819H272.213V71.264l26.024 26.013 26.023 26.013 11.528-11.504 11.528-11.505-45.442-45.447C276.881 29.838 256.238 9.387 256 9.387c-.238 0-20.881 20.451-45.874 45.447" fill-rule="evenodd"/></svg>