<svg xmlns="http://www.w3.org/2000/svg" width="512" height="512"><path d="M302.847 68.112c-68.336 19.563-124.878 36.094-125.651 36.737-1.289 1.073-1.421 11.36-1.62 126.222l-.216 125.053-2.56.827c-18.563 5.992-51.207 17.733-57.278 20.6-24.525 11.586-35.336 26.276-35.294 47.959.031 15.511 4.503 27.599 13.882 37.515 8.922 9.432 19.228 14.514 33.446 16.492 5.644.785 7.745.671 15.024-.812 17.463-3.559 35.033-10.508 47.443-18.766 9.244-6.151 13.585-10.581 15.852-16.178l1.912-4.721.426-118.934.427-118.933 93.867-25.936c51.626-14.265 94.634-25.832 95.573-25.706 1.691.227 1.709.957 1.924 78.841.173 62.266-.005 78.781-.853 79.427-.589.448-12.591 4.781-26.671 9.628-38.373 13.21-45.952 16.766-55.504 26.04-9.304 9.033-13.987 22.354-12.885 36.654 1.962 25.466 16.758 44.616 38.949 50.408 8.126 2.121 26.593 1.327 37.12-1.597 13.664-3.794 25.298-9.524 38.584-19.005 6.042-4.312 8.932-7.743 11.106-13.186 1.425-3.569 1.523-13.901 1.735-184.048l.225-180.266-2.358.059c-1.297.032-58.27 16.064-126.605 35.626" fill-rule="evenodd"/></svg>