<svg xmlns="http://www.w3.org/2000/svg" width="512" height="512"><path d="M242.347 48.655c-42.599 2.791-82.343 18.216-116.48 45.207-3.755 2.969-11.64 10.233-17.524 16.141-32.708 32.851-52.274 73.193-59.013 121.677-.587 4.224-1.068 15.168-1.068 24.32 0 9.152.481 20.096 1.068 24.32 6.809 48.987 26.42 89.118 59.849 122.476 33.666 33.593 73.501 53.063 122.501 59.874 4.224.587 15.168 1.068 24.32 1.068 9.152 0 20.096-.481 24.32-1.068 49.001-6.811 88.952-26.339 122.482-59.868 33.529-33.53 53.057-73.481 59.868-122.482 1.376-9.9 1.376-38.74 0-48.64-6.778-48.766-26.328-88.904-59.45-122.057-11.819-11.831-20.651-19.077-33.662-27.617-37.419-24.562-82.192-36.3-127.211-33.351m117.478 106.012c-1.081 2.464-26.516 60.293-56.522 128.509l-54.556 124.029-.219-71.336-.218-71.336-72.315-.05c-55.346-.038-71.971-.283-70.849-1.045 1.488-1.01 254.861-113.006 256.017-113.165.346-.047-.256 1.93-1.338 4.394" fill-rule="evenodd"/></svg>