<svg xmlns="http://www.w3.org/2000/svg" width="512" height="512"><path d="M241.92 48.669c-64.561 4.115-123.152 38.433-159.962 93.693-26.292 39.469-38.649 92.321-32.455 138.811 6.326 47.479 26.376 88.354 59.673 121.651 33.526 33.526 73.443 53.027 122.504 59.846 4.224.587 15.168 1.068 24.32 1.068 9.152 0 20.096-.481 24.32-1.068 49.001-6.811 88.952-26.339 122.482-59.868 33.529-33.53 53.057-73.481 59.868-122.482 1.376-9.9 1.376-38.74 0-48.64-6.778-48.766-26.328-88.904-59.45-122.057-11.819-11.831-20.651-19.077-33.662-27.617-37.561-24.655-81.952-36.249-127.638-33.337m38.233 81.251c.245 1.056 1.107 6.912 1.916 13.013.809 6.102 1.898 11.504 2.421 12.006.522.501 3.254 1.603 6.07 2.449 19.25 5.781 34.406 20.447 42.328 40.958 5.383 13.936 6.054 18.831 6.502 47.397l.408 26.009 13.976 17.937 13.977 17.938.018 14.293.018 14.293H144.213l.018-14.293.018-14.293 13.977-17.938 13.976-17.937.419-26.009c.437-27.146.853-30.761 5.009-43.503 7.196-22.063 22.042-37.476 42.888-44.525 3.718-1.257 7.03-2.793 7.361-3.414.332-.62 1.239-5.736 2.016-11.368.777-5.632 1.623-11.296 1.88-12.586l.467-2.347h47.466l.445 1.92m15.57 225.707c-1.752 9.773-5.011 15.457-11.659 20.337-12.42 9.117-35.231 10.638-50.843 3.39-9.098-4.224-15.465-12.826-16.93-22.874l-.591-4.053H296.297l-.574 3.2" fill-rule="evenodd"/></svg>