<svg xmlns="http://www.w3.org/2000/svg" width="512" height="512"><path d="M215.631 34.347c-.246 1.056-2.067 11.745-4.045 23.754l-3.598 21.834-8.075 2.269c-4.442 1.249-11.399 3.826-15.461 5.726-7.601 3.558-18.011 9.447-18.037 10.204-.008.236 63.345 63.787 140.785 141.226L448 380.158V351.86l-23.807-31.745-23.807-31.745-.4-41.572c-.44-45.683-1.149-53.748-6.565-74.689-12.283-47.486-41.837-79.45-83.754-90.586l-5.64-1.498-3.605-21.879c-1.983-12.034-3.807-22.743-4.053-23.799l-.447-1.92h-79.844l-.447 1.92M52.474 52.913 41.399 64.012l203.299 203.299 203.298 203.298 11.306-11.306 11.307-11.306-203.091-203.092C155.819 133.205 64.23 41.813 63.988 41.813c-.241 0-5.423 4.995-11.514 11.1m63.142 132.474c-.21.586-1.014 5.482-1.786 10.88-1.087 7.606-1.493 19.065-1.805 50.952l-.402 41.139-23.811 31.751L64 351.86V400.213h268.371L224.427 292.267c-59.37-59.371-108.053-107.947-108.186-107.947-.133 0-.414.48-.625 1.067m69.234 250.88c13.503 26.697 40.986 43.5 71.15 43.5 30.164 0 57.647-16.803 71.15-43.5l2.265-4.48h-146.83l2.265 4.48" fill-rule="evenodd"/></svg>