<svg xmlns="http://www.w3.org/2000/svg" width="512" height="512"><path d="M333.525 17.548c-12.837 2.323-27.74 9.135-39.125 17.883-10.561 8.115-22.628 22.616-28.389 34.116C260.576 80.395 256 97.803 256 107.632v4.155h3.746c9.212 0 27.122-4.989 38.305-10.671 30.887-15.691 50.227-44.24 53.905-79.569l.555-5.334-6.229.077c-3.426.042-9.167.608-12.757 1.258m-182.964 95.49c-27.361 4.211-47.436 13.932-63.335 30.67-21.534 22.67-33.114 54.803-37.851 105.039-1.597 16.938-1.386 55.081.367 66.393 8.603 55.498 37.348 112.526 76.788 152.341 10.834 10.937 18.981 17.4 28.078 22.271 9.663 5.174 14.789 6.343 25.41 5.795 10.525-.543 19.916-3.045 33.315-8.877 20.101-8.749 22.911-9.872 29.867-11.944 14.22-4.235 22.047-2.794 47.589 8.762 42.722 19.327 61.602 16.625 92.681-13.267 37.766-36.323 68.471-95.03 77.674-148.514 3.478-20.213 3.82-49.538.931-79.698-7.475-78.028-35.535-116.506-93.084-127.643-24.554-4.752-42.971-2.945-90.704 8.896-10.505 2.606-20.489 4.739-22.187 4.739-1.698.001-14.031-2.672-27.407-5.94-13.376-3.268-28.928-6.746-34.56-7.731-13.241-2.313-33.105-2.902-43.572-1.292m71.207 144.618c6.473 3.303 12.306 12.489 15.667 24.675 1.513 5.485 1.8 8.898 1.8 21.456 0 12.695-.28 15.956-1.863 21.76-5.048 18.507-14.663 28.624-24.596 25.881-7.311-2.018-15.046-13.245-18.187-26.399-6.604-27.648 1.111-60.656 15.758-67.416 4.39-2.026 7.386-2.015 11.421.043m79.242-.343c4.219 1.763 5.86 3.326 9.743 9.287 11.211 17.208 12.127 51.923 1.884 71.415-11.887 22.622-30.063 16.66-38.009-12.468-1.583-5.804-1.863-9.065-1.863-21.76 0-12.558.287-15.971 1.8-21.456 3.313-12.014 9.136-21.277 15.483-24.632 3.772-1.993 6.855-2.102 10.962-.386" fill-rule="evenodd"/></svg>