<svg xmlns="http://www.w3.org/2000/svg" width="512" height="512"><path d="M320 64.445v32.019l16-.232L352 96l.224-31.787.223-31.786H320v32.018M211.833 83.847l-11.296 11.319 16.851 16.752 16.852 16.752 10.782.424 10.782.424 6.064-6.105 6.065-6.106-22.402-22.39-22.402-22.39-11.296 11.32M426.24 94.72l-22.177 22.189 11.52 11.52 11.52 11.52 22.177-22.189 22.177-22.189-11.52-11.52-11.52-11.52L426.24 94.72m-100.604 17.973c-16.654 1.834-34.309 8.767-47.28 18.568l-2.817 2.129 10.07 3.302c37.596 12.328 71.827 40.683 91.918 76.136l3.824 6.748 9.767 3.206c11.481 3.768 21.21 7.939 29.58 12.682l6.031 3.418.881-2.319c2.329-6.126 3.485-13.653 3.896-25.363.384-10.959.184-14.089-1.393-21.76-7.033-34.202-31.132-61.505-64.033-72.542-11.566-3.88-27.938-5.583-40.444-4.205m-115.289 48.933c-57.089 9.473-100.562 49.534-117.227 108.027-1.404 4.928-3.014 11.456-3.578 14.507-.564 3.051-1.269 5.823-1.566 6.16-.298.337-5.007 1.741-10.466 3.119C30.082 305.418 1.924 337.497.265 381.44c-1.859 49.255 26.663 85.092 76.108 95.627 15.234 3.245 26.977 3.484 154.88 3.142 121.433-.324 123.45-.357 132.706-2.139 49.129-9.462 84.776-41.254 96.395-85.971 4.758-18.313 4.775-39.927.047-58.527-8.298-32.637-29.562-58.016-61.413-73.296-9.654-4.632-24.241-9.465-33.614-11.137-6.188-1.104-6.268-1.152-7.624-4.594-4.346-11.029-15.407-28.602-24.341-38.671-19.81-22.326-44.336-36.716-73.329-43.027-10.254-2.231-39.34-2.946-49.733-1.221M448 208.213v16.214h64V192h-64v16.213" fill-rule="evenodd"/></svg>