<svg xmlns="http://www.w3.org/2000/svg" width="512" height="512"><path d="M241.92 48.669c-64.561 4.115-123.152 38.433-159.962 93.693-26.292 39.469-38.649 92.321-32.455 138.811 6.326 47.479 26.376 88.354 59.673 121.651 33.526 33.526 73.443 53.027 122.504 59.846 4.224.587 15.168 1.068 24.32 1.068 9.152 0 20.096-.481 24.32-1.068 49.001-6.811 88.952-26.339 122.482-59.868 33.529-33.53 53.057-73.481 59.868-122.482 1.376-9.9 1.376-38.74 0-48.64-6.778-48.766-26.328-88.904-59.45-122.057-11.819-11.831-20.651-19.077-33.662-27.617-37.561-24.655-81.952-36.249-127.638-33.337m101.12 97.712c3.051.772 9.024 3.068 13.274 5.103 15.184 7.269 26.776 18.845 34.031 33.985 5.58 11.644 6.839 17.531 6.779 31.704-.044 10.416-.343 12.91-2.331 19.463-9.212 30.36-34.577 50.532-65.833 52.355-19.955 1.164-38.638-5.828-53.49-20.019-10.633-10.158-17.568-22.04-20.873-35.759-1.949-8.088-1.934-23.535.031-32.139 6.389-27.984 27.752-49.082 55.955-55.262 8.72-1.911 23.699-1.648 32.457.569m-155.733 26.866c12.03 3.788 21.627 10.317 28.98 19.714 8.814 11.264 12.639 22.265 12.721 36.586.064 10.981-1.09 16.056-5.967 26.248-10.224 21.369-33.242 34.856-56.65 33.195-29.905-2.123-53.391-25.786-55.215-55.633-1.775-29.034 17.805-54.953 46.34-61.343 8.169-1.83 21.866-1.263 29.791 1.233m-4.571 133.142c13.83 1.401 36.809 6.804 39.357 9.255.36.345-2.319 2.511-5.953 4.813-17.243 10.923-31.949 26.397-39.709 41.783-5.058 10.029-6.819 17.82-7.376 32.643l-.522 13.869-6.688-4.288c-26.399-16.926-47.114-39.508-61.826-67.397-6.277-11.9-6.288-11.193.236-14.374 14.137-6.893 32.551-12.602 48.329-14.983 15.442-2.331 21.77-2.576 34.152-1.321m167.557 11.471c10.742 1.918 25.915 5.816 34.987 8.988 11.126 3.889 26.176 11.159 25.695 12.412-.219.572-2.587 4.577-5.261 8.9-28.083 45.399-74.426 75.366-127.358 82.354-17.32 2.286-41.669 1.394-57.776-2.116-2.343-.51-8.58-2.113-13.86-3.56l-9.6-2.632.01-17.61c.011-19.456.628-23.286 5.2-32.294 13.032-25.675 55.764-48.559 103.163-55.248 11.101-1.566 33.802-1.158 44.8.806" fill-rule="evenodd"/></svg>