<svg xmlns="http://www.w3.org/2000/svg" width="512" height="512"><path d="M268.373 33.804c-16.123 2.893-33.42 10.337-46.66 20.083-13.467 9.913-26.605 25.363-33.947 39.919-3.481 6.903-7.574 18.914-9.617 28.221-2.57 11.712-2.543 32.019.058 44.146 4.917 22.925 14.505 40.439 31.195 56.982 13.984 13.861 26.521 21.609 44.038 27.215 13.505 4.322 19.362 5.203 34.56 5.203 15.198 0 21.055-.881 34.56-5.203 17.517-5.606 30.054-13.354 44.038-27.215 16.69-16.543 26.278-34.057 31.195-56.982 1.496-6.971 1.869-11.487 1.851-22.386-.024-14.652-1.075-21.622-5.149-34.134-12.893-39.598-46.651-68.848-87.62-75.918-9.465-1.634-29.205-1.598-38.502.069M16.213 232.107v17.92h144.214v-35.84H16.213v17.92m252.16 56.851c-59.784 6.192-122.49 30.715-154.82 60.547-16.25 14.994-25.285 28.387-30.494 45.204l-2.365 7.638-.288 39.04-.287 39.04h415.762l-.287-39.04-.288-39.04-2.365-7.638c-9.039-29.183-33.485-53.632-73.812-73.822-27.844-13.94-60.041-24.088-93.854-29.582-11.028-1.792-16.91-2.22-33.435-2.437-11.029-.145-21.589-.105-23.467.09" fill-rule="evenodd"/></svg>