<svg xmlns="http://www.w3.org/2000/svg" width="512" height="512"><path d="M234.24 33.032c-7.388.688-25.016 3.808-33.115 5.861C131.187 56.621 73.859 107.081 47.536 174.08c-19.503 49.64-20.71 103.684-3.451 154.453 3.052 8.979 12.518 31.345 13.814 32.641.38.38 48.66-20.766 107.289-46.99l106.599-47.68.216-117.039.216-117.038-17.283.143c-9.505.079-18.819.287-20.696.462m69.547 143.87v110.343L202.88 332.343c-55.499 24.803-102.545 45.912-104.548 46.906l-3.641 1.809 4.169 6.251c29.396 44.069 75.995 76.028 127.671 87.558 16.517 3.686 27.576 4.871 45.256 4.852 33.185-.037 62.177-6.7 91.306-20.984 63.074-30.93 105.774-90.407 115.224-160.495 1.826-13.543 1.832-39.295.011-52.907-11.777-88.072-78.286-159.485-164.862-177.018-4.767-.965-8.895-1.755-9.173-1.755-.279 0-.506 49.654-.506 110.342" fill-rule="evenodd"/></svg>