<svg xmlns="http://www.w3.org/2000/svg" width="512" height="512"><path d="M244.48 16.767c-21.616 3.46-41.797 15.28-54.383 31.853-5.352 7.048-12.015 20.616-14.465 29.46-1.59 5.735-1.899 9.079-1.935 20.907-.048 15.411.975 20.77 6.396 33.509 8.7 20.445 27.512 37.672 49.034 44.904l7.673 2.579.427 142.757.426 142.757 8.844 14.72c4.863 8.096 9.14 14.72 9.503 14.72.363 0 4.64-6.624 9.503-14.72l8.844-14.72.426-142.766.427-142.766 6.237-2.1c22.451-7.56 39.737-22.937 49.704-44.213 5.806-12.395 7.213-19.381 7.153-35.515-.048-12.852-.258-14.749-2.403-21.76-8.794-28.739-30.837-50.289-58.984-57.664-6.739-1.766-26.234-2.934-32.427-1.942m44.854 36.78c11.208 5.684 14.705 18.378 8.146 29.571-6.517 11.12-22.277 13.168-31.634 4.111-4.405-4.264-6.391-8.889-6.414-14.936-.061-16.071 15.697-25.95 29.902-18.746" fill-rule="evenodd"/></svg>