<svg xmlns="http://www.w3.org/2000/svg" width="512" height="512"><path d="M118.25 18.987c-.242 1.525-1.852 24.853-3.577 51.84-2.865 44.822-3.054 50.174-2.186 61.866 1.38 18.581 4.455 35.171 11.704 63.147 18.081 69.78 25.408 103.189 30.649 139.752 4.483 31.283 4.897 39.126 5.359 101.528l.435 58.667h190.708l.493-60.374c.365-44.82.835-64 1.823-74.453 4.492-47.519 13.085-90.771 30.304-152.527 11.444-41.048 13.802-52.546 15.533-75.74.87-11.651.676-17.356-2.161-63.573-1.715-27.925-3.112-51.253-3.106-51.84.01-.849-28.106-1.067-137.763-1.067H118.691l-.441 2.774M363.802 51.84c.275 2.229.763 9.525 1.083 16.213l.581 12.16h-218.94l.572-12.586c.314-6.923.797-14.219 1.073-16.214l.503-3.626H363.3l.502 4.053" fill-rule="evenodd"/></svg>