<svg xmlns="http://www.w3.org/2000/svg" width="512" height="512"><path d="M233.813 160v112.213h44.374V47.787h-44.374V160M127.147 92.506c-28.106 23.822-43.731 43.371-58.035 72.614-9.675 19.777-15.192 37.373-18.944 60.415-2.607 16.012-2.6 44.743.015 60.93 3.648 22.583 9.642 41.562 19.35 61.268 31.071 63.066 90.197 105.069 161.72 114.884 10.443 1.433 39.051 1.433 49.494 0 71.523-9.815 130.649-51.818 161.72-114.884 9.716-19.721 15.717-38.729 19.343-61.268 2.431-15.111 2.619-43.13.39-58.186-6.688-45.167-26.468-85.323-57.53-116.791-8.558-8.67-31.83-28.715-33.338-28.715-.468 0-5.365 5.472-10.882 12.16-5.517 6.688-11.682 14.11-13.699 16.494l-3.668 4.333 13.576 11.279c18.036 14.983 29.491 27.836 39.336 44.135 48.251 79.881 20.909 182.568-60.819 228.416-14.56 8.168-32.343 14.486-51.443 18.277-11.009 2.186-44.457 2.186-55.466 0-33.669-6.683-61.399-20.599-84.144-42.226-15.2-14.453-26.76-30.009-35.235-47.414-22.313-45.827-22.337-99.001-.066-144.334 12.317-25.071 25.162-40.343 53.433-63.531l5.668-4.65-13.255-15.829c-7.291-8.706-13.681-16.288-14.202-16.847-.716-.771-3.947 1.526-13.319 9.47" fill-rule="evenodd"/></svg>