<svg xmlns="http://www.w3.org/2000/svg" width="512" height="512"><path d="M159.573 176.214 15.788 320l88.106 88.106L192 496.212 336.213 352l144.214-144.211V32.427H303.358L159.573 176.214m238.222-76.978c5.666 2.773 12.872 10.104 15.479 15.75 1.552 3.359 1.873 5.59 1.873 13.014 0 8.021-.243 9.455-2.319 13.682-6.191 12.604-20.239 20.053-33.691 17.864-10.069-1.639-19.417-8.587-23.911-17.772-2.936-6.002-3.66-16.349-1.632-23.327 2.556-8.791 10.716-17.322 19.599-20.49 6.735-2.402 18.307-1.8 24.602 1.279" fill-rule="evenodd"/></svg>