<svg xmlns="http://www.w3.org/2000/svg" width="512" height="512"><path d="m143.999 160.215-144 144.001 87.894 87.891 87.894 87.89L320 335.786l144.213-144.211V16.213H287.998L143.999 160.215m335.574-23.896v72.319l-131.197 131.2-131.198 131.199 12.446 12.447 12.446 12.446 134.959-135.965L511.988 224l.006-80L512 64h-32.427v72.319m-97.63-52.869c6.658 3.361 13.246 10.475 15.773 17.033 2.935 7.617 2.675 17.124-.663 24.258-4.598 9.824-11.52 15.681-21.584 18.259-14.043 3.597-29.086-3.538-36.122-17.133-2.437-4.71-2.652-5.805-2.679-13.654-.023-7.107.296-9.235 1.908-12.732 3.889-8.432 10.64-14.66 19.227-17.735 6.893-2.468 17.335-1.731 24.14 1.704" fill-rule="evenodd"/></svg>