<svg xmlns="http://www.w3.org/2000/svg" width="512" height="512"><path d="M85.588 34.099c-5.803 3.538-5.375-9.067-5.371 158.072.003 148.552.033 151.345 1.668 154.028.917 1.502 2.931 3.422 4.477 4.266 2.637 1.44 7.487 1.549 78.113 1.766l75.301.232.219 63.768.218 63.769h31.574l.218-63.769.219-63.768 75.301-.232c70.626-.217 75.476-.326 78.113-1.766 1.546-.844 3.56-2.764 4.477-4.266 1.635-2.683 1.665-5.476 1.668-154.028.004-167.139.432-154.534-5.371-158.072-2.685-1.637-5.607-1.666-170.412-1.666s-167.727.029-170.412 1.666m221.818 161.094 50.985 50.98-11.294 11.317-11.294 11.318-31.795-31.787-31.795-31.786v147.192h-32.426V205.235l-31.791 31.783-31.791 31.782-11.303-11.303-11.303-11.304 50.984-50.99c28.042-28.044 51.177-50.99 51.412-50.99.234 0 23.37 22.941 51.411 50.98" fill-rule="evenodd"/></svg>