<svg xmlns="http://www.w3.org/2000/svg" width="512" height="512"><path d="M70.041 77.609c-18.69 21.217-30.446 37.98-40.873 58.279C.94 190.843-7.076 253.437 6.414 313.583c4.588 20.456 12.959 43.46 22.754 62.529 10.427 20.299 22.183 37.062 40.873 58.279l11.186 12.699 15.164-13.611c8.34-7.486 15.647-14.194 16.238-14.905.904-1.09.146-2.324-4.791-7.804-21.206-23.54-31.769-38.675-42.21-60.477-15.55-32.472-21.934-62.827-20.997-99.84.741-29.253 5.313-51.688 15.738-77.226 10.429-25.548 23.482-45.344 47.469-71.992 4.937-5.485 5.695-6.719 4.791-7.809-.591-.711-7.898-7.419-16.238-14.905L81.227 64.91 70.041 77.609m346.812-.275c-7.509 6.767-14.767 13.418-16.13 14.778l-2.476 2.474 10.055 11.374c16.582 18.755 25.338 31.111 34.668 48.92 33.038 63.064 33.036 139.24-.006 202.24-9.155 17.457-18.62 30.832-34.513 48.773-5.469 6.175-9.914 11.551-9.877 11.947.038.396 7.303 7.148 16.146 15.003l16.078 14.284 12.368-14.147c6.803-7.78 15.436-18.432 19.186-23.67 66.244-92.537 66.246-214.081.003-306.615-5.859-8.185-24.279-30.191-29.993-35.833l-1.855-1.832-13.654 12.304m-290.181 45.333c-12.106 13.173-19.918 23.26-27.264 35.2-12.727 20.687-21.505 45.358-25.655 72.106-1.99 12.821-1.99 39.233 0 52.054 5.186 33.425 17.112 62.246 36.37 87.893 6.208 8.267 26.841 31.147 28.089 31.147.417 0 7.854-6.613 16.525-14.694l15.767-14.695-7.15-7.513c-16.051-16.866-24.166-27.874-31.931-43.312-20.228-40.214-20.228-89.492 0-129.706 7.762-15.432 15.882-26.447 31.912-43.293l7.131-7.493-15.732-14.714c-8.653-8.092-16.08-14.714-16.506-14.714-.426 0-5.626 5.28-11.556 11.734m231.174 2.477c-8.378 7.815-15.362 14.539-15.52 14.941-.157.401 3.892 5.239 8.999 10.749 5.106 5.511 10.85 11.939 12.763 14.286 9.234 11.329 19.75 30.746 24.492 45.227 11.757 35.899 8.864 76.934-7.759 110.035-7.866 15.664-14.815 25.291-29.629 41.044l-9.666 10.28 15.792 14.718c8.685 8.094 16.226 14.575 16.757 14.401 1.822-.597 22.006-23.107 28.627-31.925 26.506-35.303 40.366-82.826 36.783-126.127-3.367-40.682-18.984-79.508-43.422-107.946-7.906-9.201-21.64-23.894-22.334-23.894-.358 0-7.505 6.395-15.883 14.211m-173.954 41.034c-17.634 19.947-22.232 26.339-28.68 39.878-14.769 31.006-14.769 68.882 0 99.888 6.449 13.54 11.65 20.762 28.794 39.982l4.38 4.909 16.251-14.351c8.939-7.893 16.271-14.543 16.294-14.777.024-.235-3.846-4.843-8.599-10.24-18.035-20.482-23.965-34.206-23.965-55.467 0-21.261 5.93-34.985 23.965-55.467 4.753-5.397 8.624-10.005 8.601-10.24-.043-.458-28.937-26.192-31.337-27.91-1.232-.882-2.05-.337-5.704 3.795m123.421 9.382c-8.911 7.869-16.23 14.502-16.264 14.742-.034.239 4.137 5.217 9.27 11.061 5.132 5.845 11.067 13.545 13.189 17.111 13.597 22.859 13.445 53.385-.379 75.707-2.254 3.641-8.149 11.227-13.099 16.859-4.95 5.632-8.983 10.432-8.962 10.667.042.459 28.937 26.193 31.348 27.918 1.266.905 2.651-.332 10.824-9.665 15.452-17.644 22.989-29.872 28.433-46.127 4.737-14.145 5.687-20.464 5.687-37.833 0-17.368-.95-23.686-5.687-37.833-6.052-18.073-14.336-30.824-34.055-52.42l-4.103-4.494-16.202 14.307m-60.173 45.495c-9.84 2.471-19.168 10.394-23.835 20.248-2.519 5.315-2.718 6.396-2.718 14.697 0 8.301.199 9.382 2.718 14.697 3.777 7.974 9.349 13.65 17.213 17.537 6.204 3.066 6.756 3.179 15.482 3.179 8.726 0 9.278-.113 15.482-3.179 7.864-3.887 13.436-9.563 17.213-17.537 2.519-5.315 2.718-6.396 2.718-14.697 0-8.301-.199-9.382-2.718-14.697-3.736-7.887-9.361-13.656-16.993-17.428-5.444-2.69-7.141-3.106-13.73-3.361-4.135-.16-9.009.084-10.832.541" fill-rule="evenodd"/></svg>