<svg xmlns="http://www.w3.org/2000/svg" width="512" height="512"><path d="M85.588 34.099c-5.845 3.564-5.375-15.852-5.371 222.072.003 212.028.028 215.337 1.668 218.028.917 1.502 2.931 3.422 4.477 4.266C89.041 479.928 97.013 480 256 480s166.959-.072 169.638-1.535c1.546-.844 3.56-2.764 4.477-4.266 1.64-2.691 1.665-6 1.668-218.028.004-237.924.474-218.508-5.371-222.072-2.685-1.637-5.607-1.666-170.412-1.666s-167.727.029-170.412 1.666M351.573 128v16.213H160.427v-32.426h191.146V128m0 80.213v16.214H160.427V192h191.146v16.213M272.213 288v15.787H160.427v-31.574h111.786V288" fill-rule="evenodd"/></svg>