<svg xmlns="http://www.w3.org/2000/svg" width="512" height="512"><path d="M113.92 138.76c-26.491 3.901-48.594 14.35-66.996 31.673-18.331 17.256-31.06 41.095-35.383 66.265-1.656 9.644-1.682 28.841-.052 38.188 2.937 16.841 9.485 33.251 18.996 47.601 6.313 9.526 21.535 24.746 30.955 30.95 12.878 8.482 24.111 13.468 39.619 17.584l8.594 2.282 142.08.259c154.674.283 148.749.444 165.974-4.487 11.101-3.178 26.976-11.222 36.84-18.666 15.482-11.687 26.906-25.513 35.316-42.748 8.264-16.936 11.89-32.689 11.89-51.661 0-19.014-3.624-34.723-11.945-51.773-15.837-32.45-45.33-55.554-81.158-63.576-7.548-1.69-11.206-1.982-24.65-1.972-13.357.011-17.166.319-24.747 1.998-22.725 5.035-42.362 15.872-58.88 32.494-16.071 16.171-25.93 34.007-31.636 57.229-1.732 7.047-1.997 10.282-2.031 24.747-.031 13.165.292 18.154 1.548 23.893 3.576 16.344 9.87 31.071 18.781 43.947l4.725 6.826-17.88.231c-9.834.126-25.926.126-35.76 0l-17.88-.231 4.597-6.687c8.901-12.95 15.416-28.157 18.897-44.109 2.211-10.13 2.238-35.786.049-45.797-10.349-47.32-45.123-82.516-91.463-92.572-7.454-1.618-32.029-2.826-38.4-1.888m31.752 45.6c26.322 6.08 47.648 27.505 54.146 54.395 2.462 10.192 2.462 24.298 0 34.49-10.863 44.96-60.238 69.217-102.179 50.199-16.15-7.322-30.188-21.563-37.462-38.004-8.237-18.617-7.754-42.915 1.223-61.44 15.367-31.715 49.36-47.704 84.272-39.64m256 0c26.322 6.08 47.648 27.505 54.146 54.395 2.448 10.133 2.462 24.316.033 34.312-6.498 26.745-26.91 47.593-53.385 54.528-39.672 10.391-80.593-14.244-90.284-54.35-5.048-20.896-.136-44.651 12.748-61.639 18.089-23.851 47.001-34.116 76.742-27.246" fill-rule="evenodd"/></svg>