<svg xmlns="http://www.w3.org/2000/svg" width="512" height="512"><path d="m244.476 46.937-11.073 11.098 30.712 30.79 30.712 30.79-4.346-.563c-2.39-.309-14.678-.585-27.307-.612-17.519-.039-25.185.292-32.347 1.395-19.199 2.955-34.559 7.749-52.054 16.244-53.805 26.127-90.209 77.497-97.666 137.819-1.287 10.414-1.099 31.657.379 42.858 8.836 66.932 54.84 122.669 118.854 143.997 37.192 12.393 74.128 12.393 111.32 0 64.939-21.637 110.739-77.989 119.233-146.704.491-3.977.894-13.673.894-21.547v-14.315h-31.318l-.589 15.146c-.712 18.315-2.299 29.058-6.191 41.929C375.183 396.457 319.705 437.753 256 437.753c-62.402 0-116.873-39.529-136.859-99.318-8.9-26.622-9.065-59.325-.441-87.126 14.769-47.611 53.777-84.66 101.887-96.771 14.529-3.657 26.37-4.585 52.239-4.092 13.243.252 24.519.731 25.058 1.064.606.375-11.48 13.068-31.755 33.348L233.395 217.6l11.303 11.303 11.303 11.304 51.2-51.194 51.199-51.194-50.984-50.99C279.375 58.785 256.233 35.84 255.99 35.84c-.243 0-5.424 4.994-11.514 11.097" fill-rule="evenodd"/></svg>