<svg xmlns="http://www.w3.org/2000/svg" width="512" height="512"><path d="M225.707 48.684c-57.511 3.584-111.531 31.874-148.194 77.609-40.703 50.775-55.114 117.88-38.943 181.334 12.512 49.094 43.73 93.204 85.801 121.234 27.039 18.015 56.647 29.005 91.096 33.814 9.731 1.358 37.468 1.309 48.64-.087 38.07-4.756 75.513-20.309 104.96-43.599 18.631-14.735 38.647-37.596 49.687-56.749 7.753-13.45 19.613-40.4 21.97-49.923.515-2.082.156-2.268-14.231-7.389l-14.76-5.254-1.044 2.269c-.574 1.249-2.446 6.11-4.16 10.804-9.323 25.527-20.29 44.095-36.316 61.486-34.61 37.558-79.821 57.554-130.134 57.554-87.221 0-160.093-62.552-174.108-149.45-1.963-12.169-1.963-40.505 0-52.674 11.32-70.186 61.477-125.925 129.442-143.848 24.748-6.526 54.346-7.309 80.214-2.123 25.764 5.166 54.091 18.59 75.271 35.671 7.016 5.658 25.422 24.534 25.422 26.071 0 .506-16.128 17.045-35.84 36.753-25.477 25.471-35.84 36.374-35.84 37.707 0 4.687-2.718 4.533 79.977 4.533 75.045 0 76.208-.026 77.89-1.707 1.681-1.681 1.706-2.844 1.706-78.136 0-51.053-.293-76.978-.883-78.08-.541-1.011-1.783-1.651-3.205-1.651-1.912 0-7.428 5.109-31.281 28.969l-28.959 28.97-10.115-10.581c-12.287-12.855-20.37-19.687-34.285-28.98-24.483-16.35-53.052-27.698-81.599-32.411-7.581-1.252-30.987-3.139-35.806-2.886-1.173.061-6.741.399-12.373.75" fill-rule="evenodd"/></svg>