<svg xmlns="http://www.w3.org/2000/svg" width="512" height="512"><path d="M241.92 48.669c-64.561 4.115-123.152 38.433-159.962 93.693-26.292 39.469-38.649 92.321-32.455 138.811 6.326 47.479 26.376 88.354 59.673 121.651 33.526 33.526 73.443 53.027 122.504 59.846 4.224.587 15.168 1.068 24.32 1.068 9.152 0 20.096-.481 24.32-1.068 49.001-6.811 88.952-26.339 122.482-59.868 33.529-33.53 53.057-73.481 59.868-122.482 1.376-9.9 1.376-38.74 0-48.64-6.778-48.766-26.328-88.904-59.45-122.057-11.819-11.831-20.651-19.077-33.662-27.617-37.561-24.655-81.952-36.249-127.638-33.337m36.992 90.398c23.281 4.745 44.112 15.943 60.632 32.594l7.336 7.394 14.72-14.638 14.72-14.639v89.155h-89.158l18.125-18.14c9.97-9.978 18.126-18.548 18.126-19.045 0-1.483-12.107-13.02-17.996-17.149-15.046-10.549-31.556-15.65-50.578-15.628-49.531.059-88.547 40.86-86.486 90.442.577 13.901 2.802 22.492 9.169 35.414 12.328 25.018 34.493 41.82 61.986 46.99 11.227 2.111 28.817 1.349 39.105-1.694 15.099-4.465 26.143-10.888 37.425-21.765 11.082-10.685 16.794-19.946 23.199-37.611 1.787-4.928 3.544-9.303 3.904-9.723.622-.723 27.677 8.265 29.192 9.699.98.927-5.646 19.314-10.309 28.61-16.822 33.534-46.505 56.021-84.691 64.16-9.918 2.114-33.116 2.101-43.809-.024-24.142-4.798-44.879-15.817-62.036-32.963-18.135-18.123-29.319-39.614-33.705-64.766-1.624-9.308-1.624-30.172 0-39.48 9.218-52.865 51.51-92.781 104.79-98.907 9.34-1.074 26.67-.256 36.339 1.714" fill-rule="evenodd"/></svg>