<svg xmlns="http://www.w3.org/2000/svg" width="512" height="512"><path d="m308.478 109.229-11.07 11.095 15.767 15.785 15.768 15.784H47.787v128h32.426V184.32h248.73l-15.772 15.789-15.772 15.789 11.302 11.302 11.302 11.301 35.196-35.196 35.196-35.196-34.98-34.988c-19.239-19.243-35.18-34.988-35.423-34.988-.244 0-5.425 4.993-11.514 11.096M431.787 280.32v48.213h-124.16c-68.288 0-124.16-.284-124.16-.631 0-.348 7.005-7.645 15.567-16.216l15.567-15.584-11.302-11.302-11.302-11.301-35.197 35.197-35.197 35.197 35.197 35.198 35.197 35.197 11.302-11.302 11.302-11.301-15.772-15.789-15.772-15.789h281.156v-128h-32.426v48.213" fill-rule="evenodd"/></svg>