<svg xmlns="http://www.w3.org/2000/svg" width="512" height="512"><path d="M44.867 20.149c-4.615 6.195-12.059 21.887-14.526 30.624-6.565 23.246-6.304 53.461.701 81.085 7.597 29.958 22.05 58.756 40.463 80.622 10.721 12.732 107.174 108.273 113.541 112.468 5.685 3.745 12.241 6.145 16.786 6.145 3.799 0 14.16-2.777 21.977-5.89 10.188-4.058 11.017-3.877 20.376 4.462 13.567 12.087 13.181 11.431 13.729 23.327.747 16.213 4.555 25.03 16.178 37.457 5.486 5.865 108.721 104.736 109.766 105.125.316.118 16.7-15.914 36.409-35.627l35.834-35.842-66.989-67.199c-36.844-36.96-71.974-72.289-78.068-78.509l-11.079-11.31 21.189-21.201 21.188-21.201 13.07-.564c23.341-1.006 38.727-6.525 54.188-19.435 2.112-1.764 22.379-22.022 45.037-45.017l41.197-41.81-10.847-11.196-10.847-11.196-41.874 41.867-41.874 41.868-8.744-8.743-8.743-8.744 41.76-41.817 41.761-41.818-11.533-11.023-11.534-11.023-41.537 41.531-41.537 41.53-8.744-8.743-8.743-8.744 41.868-41.874 41.867-41.874-11.196-10.847-11.196-10.847-41.81 41.197c-22.995 22.658-43.253 42.925-45.017 45.037-13.225 15.838-18.404 30.386-19.454 54.642l-.546 12.617-21.202 21.189-21.202 21.19-14.722-14.495c-8.097-7.973-52.407-52.086-98.467-98.03L47.974 15.978l-3.107 4.171m24.414 343.192L16.108 416l39.949 39.893 39.948 39.892 71.678-71.775c47.56-47.625 70.959-71.618 69.544-71.308-38.555 8.444-50.578 8.295-67.189-.835-8.072-4.436-17.129-12.003-32.722-27.337-7.783-7.654-14.311-13.901-14.506-13.882-.196.019-24.284 23.731-53.529 52.693" fill-rule="evenodd"/></svg>