<svg xmlns="http://www.w3.org/2000/svg" width="512" height="512"><path d="M429.477 33.739c-61.534 7.915-143.154 44.625-198.231 89.157-20.455 16.539-41.521 38.485-55.793 58.121l-4.111 5.657-10.866-.441c-31.785-1.289-56.234 6.152-78.016 23.745-22.815 18.427-41.143 52.106-48.677 89.447-1.873 9.28-1.995 10.905-.995 13.297 1.513 3.621 5.222 6.425 8.5 6.425 1.462 0 21.814-2.125 45.226-4.722 23.412-2.596 42.674-4.612 42.803-4.48.129.133.653 5.148 1.164 11.144.51 5.997 1.525 12.333 2.255 14.08 1.882 4.507 37.891 40.608 43.246 43.357 3.279 1.683 6.046 2.211 14.761 2.818 5.899.411 10.873.895 11.054 1.076.181.18-1.748 19.138-4.286 42.128-2.539 22.989-4.625 43.469-4.637 45.511-.017 3.098.459 4.191 2.881 6.613 3.546 3.546 6.195 3.707 18.233 1.108 53.718-11.597 91.5-39.921 105.478-79.074 4.446-12.453 5.911-22.181 6.164-40.932l.232-17.266 8.467-6.377c41.733-31.437 77.015-75.699 105.189-131.964 20.299-40.536 33.102-78.822 38.496-115.116 2.591-17.435 2.303-39.563-.647-49.626-.936-3.195-11.265-5.023-27.66-4.896-6.336.049-15.44.594-20.23 1.21M339.2 137.477c15.794 3.078 31.67 18.75 35.35 34.896 1.303 5.717 1.096 18.579-.39 24.285-3.339 12.821-12.904 24.289-25.147 30.151-19.332 9.258-39.213 6.025-54.365-8.84-15.189-14.9-18.734-36.244-9.223-55.533 9.816-19.908 30.479-29.498 53.775-24.959M101.475 337.512c-10.296 2.5-21.535 9.111-28.695 16.88-12.485 13.544-21.081 49.038-24.602 101.587l-.564 8.407 8.407-.564c43.864-2.939 74.098-8.998 92.655-18.566 11.566-5.964 20.999-18.163 25.164-32.542 2.167-7.481 2.458-11.648.923-13.183-1.547-1.547-5.354-1.228-6.996.586-2.466 2.726-11.49 6.222-20.794 8.057-7.622 1.503-9.658 1.614-14.475.789-19.615-3.36-32.332-20.797-29.321-40.206 1.109-7.149 5.391-19.388 8.264-23.621 1.129-1.664 2.052-3.891 2.052-4.95 0-4.109-3.185-4.818-12.018-2.674" fill-rule="evenodd"/></svg>