<svg xmlns="http://www.w3.org/2000/svg" width="512" height="512"><path d="M53.193 34.005c-8.273 2.86-15.691 10.174-19.338 19.069L32 57.6v396.8l1.855 4.526a35.138 35.138 0 0 0 19.219 19.219L57.6 480l194.56.245c139.184.175 196.139-.024 200.107-.699 3.05-.519 7.166-1.658 9.145-2.531 4.481-1.977 11.656-8.603 14.417-13.315 4.728-8.067 4.567-1.96 4.583-173.564l.015-158.291-49.704-49.709-49.704-49.709-161.71.028c-152.946.026-161.948.11-166.116 1.55m250.594 109.782v32h-192v-64h192v32m-27.734 130.906c14.237 3.763 27.248 11.519 37.592 22.409 16.542 17.414 24.408 40.607 21.657 63.858-4 33.807-26.681 59.523-60.796 68.932-7.724 2.131-29.524 2.039-37.706-.158-27.67-7.43-48.602-27.218-57.009-53.893-14.505-46.021 15.041-94.034 63.265-102.807 6.985-1.271 25.42-.344 32.997 1.659" fill-rule="evenodd"/></svg>