<svg xmlns="http://www.w3.org/2000/svg" viewBox="0 0 512 512"><path d="M67.648 33.74c-7.047 1.898-14.143 5.903-19.924 11.246-6.581 6.082-10.288 11.753-13.361 20.441L32 72.107v367.786l2.363 6.68c5.626 15.905 17.073 26.785 33.522 31.861C72.741 479.933 80.844 480 256 480s183.259-.067 188.115-1.566c17.073-5.269 29.107-17.289 34.315-34.274 1.504-4.903 1.57-12.861 1.57-188.16s-.066-183.257-1.57-188.16c-5.216-17.012-18.24-29.922-34.443-34.143-7.137-1.858-369.432-1.817-376.339.043m220.779 52.807c29.781 5.015 52.918 13.416 77.226 28.043 22.757 13.693 47.596 35.692 53.988 47.814 2.131 4.042 2.332 5.231 2.332 13.809 0 9.146-.076 9.524-2.986 14.708-3.264 5.814-56.523 68.965-61.12 72.471-3.369 2.57-12.005 5.408-16.455 5.408-5.504 0-11.6-2.403-19.84-7.822-44.945-29.556-86.199-29.556-131.144 0-8.24 5.419-14.336 7.822-19.84 7.822-4.45 0-13.086-2.838-16.455-5.408-4.597-3.506-57.856-66.657-61.12-72.471-2.91-5.184-2.986-5.562-2.986-14.708 0-9.061.101-9.572 2.907-14.749 3.405-6.278 16.53-19.848 28.463-29.426 33.687-27.039 71.642-42.622 114.55-47.029 8.238-.846 44.659.222 52.48 1.538" fill-rule="evenodd"/></svg>