<svg xmlns="http://www.w3.org/2000/svg" width="512" height="512"><path d="M110.371 47.342c-16.586 3.01-32.101 11.446-43.3 23.542-8.655 9.348-14.11 18.967-18.154 32.01l-2.361 7.613-.283 40.746L45.989 192h44.399l.246-38.633.246-38.633 2.766-5.617c3.331-6.764 9.436-12.757 16.248-15.95l4.879-2.287 38.614-.246L192 90.388V46.08l-37.76.077c-26.961.055-39.507.394-43.869 1.185M320 68.181v22.207l38.633.246 38.633.246 5.617 2.766c6.764 3.331 12.757 9.436 15.95 16.248l2.287 4.879.246 38.614.246 38.613h44.413l-.299-40.747-.298-40.746-2.318-7.494c-7.016-22.681-21.192-39.443-41.618-49.208-14.798-7.074-15.623-7.175-61.172-7.523L320 45.974v22.207M46.273 360.747l.283 40.746 2.365 7.628c8.276 26.694 27.297 45.712 53.958 53.95l7.628 2.357 40.746.298 40.747.299V422.4l-33.92-.005c-18.656-.003-36.155-.371-38.887-.818-11.181-1.831-20.658-8.767-25.547-18.694l-2.766-5.617-.246-38.633L90.388 320H45.989l.284 40.747m375.093-2.114-.246 38.633-2.766 5.617c-4.889 9.927-14.366 16.863-25.547 18.694-2.732.447-20.231.815-38.887.818L320 422.4v43.625l40.747-.299 40.746-.298 7.628-2.357c26.664-8.239 45.711-27.286 53.95-53.95l2.357-7.628.298-40.746.299-40.747h-44.413l-.246 38.633" fill-rule="evenodd"/></svg>