<svg xmlns="http://www.w3.org/2000/svg" width="512" height="512"><path d="M196.693 48.619C132.456 53.507 76.75 97.171 56.28 158.678c-19.186 57.651-4.242 120.975 38.746 164.186 25.435 25.566 56.343 40.99 92.707 46.263 14.444 2.094 39.305 1.32 53.362-1.66 19.52-4.14 39.505-12.278 55.764-22.708l7.085-4.544 62.004 61.999 62.003 62 18.132-18.131 18.131-18.132-62-62.003-61.999-62.004 4.544-7.085c10.43-16.259 18.568-36.244 22.708-55.764 1.744-8.228 2.267-13.575 2.63-26.908.496-18.237-.58-29.032-4.425-44.374-15.65-62.463-68.938-110.729-132.286-119.819-11.286-1.619-26.161-2.177-36.693-1.375m34.134 52.495c44.717 9.273 79.328 44.732 87.038 89.172 2.755 15.876 1.269 38.067-3.534 52.779-9.132 27.974-30.278 52.462-56.141 65.013-17.145 8.32-30.554 11.415-49.123 11.34-29.102-.117-54.38-10.221-75.406-30.138-16.556-15.682-27.491-35.083-32.225-57.173-2.563-11.958-2.743-32.516-.385-43.947 9.905-48.023 47.454-82.363 96.922-88.639 6.013-.763 26.214.217 32.854 1.593" fill-rule="evenodd"/></svg>