<svg xmlns="http://www.w3.org/2000/svg" width="512" height="512"><path d="m204.374 82.773-51.194 51.199 11.303 11.303 11.303 11.303 32.001-31.991 32-31.992v83.156l-75.772.231c-71.371.218-75.907.321-78.12 1.771-1.293.847-3.098 2.767-4.013 4.267-1.63 2.674-1.662 5.491-1.662 146.087 0 140.684.031 143.411 1.665 146.092.917 1.502 2.931 3.422 4.477 4.266C89.041 479.928 97.013 480 256 480s166.959-.072 169.638-1.535c1.546-.844 3.56-2.764 4.477-4.266 1.634-2.681 1.665-5.408 1.665-146.092 0-140.596-.032-143.413-1.662-146.087-.915-1.5-2.72-3.42-4.013-4.267-2.213-1.45-6.749-1.553-78.12-1.771l-75.772-.231V92.595l32 31.992 32.001 31.991 11.303-11.303 11.303-11.303-51.194-51.199c-28.157-28.16-51.388-51.2-51.626-51.2-.238 0-23.469 23.04-51.626 51.2m67.839 173.654v80.64h-32.426v-161.28h32.426v80.64" fill-rule="evenodd"/></svg>