<svg xmlns="http://www.w3.org/2000/svg" width="512" height="512"><path d="M363.432 49.923c-15.676 3.124-31.513 13.187-41.351 26.275-4.995 6.644-8.056 12.7-11.089 21.935-2.088 6.362-2.404 8.723-2.563 19.2l-.182 11.947-64.638 36.408-64.638 36.409-4.918-3.357c-21.575-14.727-48-16.621-71.166-5.1-36.704 18.252-49.657 62.558-28.821 98.584 1.665 2.879 6.611 8.768 11.18 13.314 7.185 7.147 9.298 8.693 17.154 12.548 12.641 6.202 17.662 7.377 31.573 7.393 8.72.009 12.869-.374 17.067-1.579 7.483-2.146 17.045-6.566 23-10.631l4.903-3.347 64.764 36.448 64.764 36.447-.272 8.912c-1.116 36.512 25.567 67.31 62.226 71.823 13.857 1.706 29.34-1.563 42.565-8.986 7.681-4.312 20.434-16.639 24.646-23.821 6.233-10.63 9.411-21.18 10.108-33.553 1.924-34.146-22.179-64.831-56.365-71.758-7.986-1.618-23.682-1.203-30.846.815-9.946 2.802-20.534 8.433-29.041 15.444l-2.588 2.133-63.34-35.593-63.341-35.593.649-3.84c.828-4.909.839-20.598.017-25.6l-.632-3.84 57.758-32.427c31.766-17.834 60.305-33.843 63.419-35.575l5.663-3.149 4.363 3.579c6.914 5.672 13.271 9.15 22.49 12.307 32.204 11.026 68.701-3.976 83.81-34.45 5.462-11.018 7.439-19.304 7.486-31.376.075-19.707-7.321-36.935-21.736-50.627-9.496-9.021-20.974-15.072-33.708-17.771-6.974-1.478-20.818-1.453-28.37.052" fill-rule="evenodd"/></svg>