<svg xmlns="http://www.w3.org/2000/svg" width="512" height="512"><path d="M244.48 35.575c-68.435 31.42-112.288 45.17-189.764 59.501-11.443 2.116-20.916 3.96-21.052 4.096-.137.136-.664 9.654-1.173 21.151-2.347 53.088 4.142 100.491 20.127 147.019 10.043 29.236 20.904 51.06 39.157 78.685 33.33 50.442 82.585 94.549 137.257 122.912 6.619 3.433 15.395 7.624 19.501 9.312L256 481.32l7.295-3.02c27.177-11.25 59.2-31.279 87.695-54.851 10.499-8.685 32.2-30.042 42.062-41.394 61.396-70.678 91-160.454 86.447-262.16-.504-11.262-1.028-20.588-1.164-20.724-.135-.136-9.456-1.951-20.712-4.033-76.079-14.074-113.192-25.428-180.288-55.156-11.498-5.094-21.29-9.227-21.76-9.185-.47.042-5.463 2.192-11.095 4.778m102.043 128.386c10.55 9.168 11.788 10.519 10.749 11.733-8.993 10.519-128.381 148.605-129.529 149.816-1.814 1.913 3.368 6.625-47.203-42.915l-27.247-26.691 11.021-11.045c6.062-6.075 11.281-11.046 11.599-11.046.317 0 11.312 10.552 24.431 23.447l23.854 23.447 54.941-63.528c30.218-34.941 55.058-63.54 55.201-63.554.143-.014 5.626 4.637 12.183 10.336" fill-rule="evenodd"/></svg>