<svg xmlns="http://www.w3.org/2000/svg" width="512" height="512"><path d="M192.015 36.48c.008 2.229.576 6.741 1.262 10.027 4.92 23.553 22.676 42.497 46.131 49.216 9.537 2.732 23.647 2.732 33.184 0 23.455-6.719 41.211-25.663 46.131-49.216 1.152-5.516 1.725-14.08.941-14.08-.184 0-4.777 1.122-10.207 2.493-18.939 4.783-35.229 6.879-53.457 6.879s-34.518-2.096-53.457-6.879c-5.43-1.371-10.023-2.493-10.207-2.493-.185 0-.329 1.824-.321 4.053M87.639 69.07c-38.86 13.527-70.865 24.805-71.122 25.062-.498.498 16.875 112.025 17.645 113.273.25.405 15.226 2.514 33.28 4.685 18.053 2.172 33.305 4.347 33.891 4.834 1.536 1.274 1.397 10.168-2.254 144.036-1.773 65.003-3.073 118.475-2.888 118.827.44.837 319.178.837 319.618 0 .185-.352-1.115-53.824-2.888-118.827s-3.245-123.837-3.272-130.743c-.045-11.541.084-12.628 1.591-13.435.902-.482 16.153-2.624 33.892-4.76 17.739-2.135 32.457-4.214 32.707-4.619.769-1.246 18.142-112.773 17.645-113.271-.57-.569-142.085-49.759-143.153-49.759-.417 0-.758.911-.758 2.024 0 4.384-4.377 18.92-8.002 26.572-16.314 34.44-49.918 55.884-87.571 55.884-25.602 0-49.79-9.959-67.913-27.964-8.22-8.166-14.579-17.198-19.658-27.92-3.625-7.652-8.002-22.188-8.002-26.572 0-1.113-.48-2.001-1.067-1.973-.587.028-32.861 11.119-71.721 24.646" fill-rule="evenodd"/></svg>