<svg xmlns="http://www.w3.org/2000/svg" width="512" height="512"><path d="m388.478 100.901-11.3 11.3 15.989 16.006 15.989 16.006-49.058.023-49.058.022-22.187 33.348c-12.202 18.341-22.279 33.787-22.393 34.324-.114.537 5.7 4.886 12.92 9.664l13.126 8.687 18.147-27.247 18.147-27.247h80.356l-15.993 16.01-15.993 16.01 11.525 11.502 11.526 11.502 34.983-34.975c19.24-19.236 34.983-35.362 34.983-35.836 0-.844-69.143-70.4-69.982-70.4-.234 0-5.512 5.085-11.727 11.301M47.787 160v15.787h135.401l26.215 39.325c14.418 21.628 26.097 39.811 25.952 40.404-.144.594-11.943 18.994-26.219 40.889l-25.958 39.808H47.787v31.574l76.586-.016 76.587-.015 27.22-41.825 27.22-41.826 27.82 41.817 27.82 41.818 49.058.023 49.058.024-15.993 16.01-15.993 16.01 11.525 11.502 11.526 11.502 34.983-34.975c19.24-19.236 34.983-35.362 34.983-35.836 0-.474-15.743-16.6-34.983-35.836l-34.983-34.975-11.526 11.502-11.525 11.502 15.993 16.01 15.993 16.01H328.813l-63.927-95.975-63.926-95.976-76.587-.024-76.586-.025V160" fill-rule="evenodd"/></svg>