<svg xmlns="http://www.w3.org/2000/svg" viewBox="0 0 512 512"><path d="M87.363 2.133c-.401.939-5.726 15.339-11.834 32L64.425 64.427 33.706 75.663C16.81 81.842 2.481 87.218 1.863 87.609c-.726.46 10.113 4.812 30.71 12.331l31.833 11.62 11.53 31.671c6.342 17.418 11.751 31.677 12.02 31.686.268.009 5.689-14.243 12.044-31.672l11.556-31.689L143.245 100c17.429-6.355 31.681-11.776 31.672-12.044-.008-.269-14.266-5.673-31.683-12.009l-31.667-11.52-11.399-31.147c-6.269-17.131-11.551-31.531-11.737-32-.187-.469-.667-.085-1.068.853M384.306 72.7l-15.442 40.228-40.172 15.429c-22.095 8.486-39.905 15.654-39.579 15.928.327.274 17.49 6.956 38.14 14.848 20.651 7.893 38.513 14.832 39.693 15.42 1.832.913 4.391 6.914 17.427 40.856 8.404 21.883 15.552 39.488 15.885 39.122.332-.365 7.409-18.386 15.726-40.045l15.121-39.381 39.381-15.121c21.659-8.317 39.669-15.383 40.022-15.703.353-.32-17.243-7.451-39.101-15.845-34.23-13.146-39.894-15.566-40.833-17.45-.6-1.202-7.548-19.082-15.441-39.733-7.892-20.65-14.583-37.824-14.868-38.164-.285-.339-7.467 17.486-15.959 39.611M181.692 198.176l-25.988 69.344-69.318 26.027C48.26 307.861 17.067 319.765 17.067 320c0 .235 31.193 12.139 69.319 26.453l69.318 26.027 25.988 69.344c14.293 38.139 26.254 69.051 26.58 68.694.326-.358 12.172-31.569 26.325-69.356l25.734-68.705 69.088-25.974c37.998-14.285 69.088-26.211 69.088-26.501 0-.291-31.078-12.177-69.062-26.413l-69.062-25.885-25.759-68.775c-14.168-37.827-26.026-69.069-26.352-69.427-.326-.357-12.287 30.555-26.58 68.694" fill-rule="evenodd"/></svg>