<svg xmlns="http://www.w3.org/2000/svg" width="512" height="512"><path d="m227.7 117.973-27.862 84.694-91.805.426-91.805.427 74.507 52.257c40.979 28.741 74.705 52.454 74.945 52.695.241.241-12.563 38.522-28.454 85.07-15.89 46.548-28.787 84.884-28.659 85.191.128.307 33.353-23.162 73.833-52.154l73.6-52.711 73.6 52.711c40.48 28.992 73.706 52.459 73.834 52.15.129-.31-12.793-38.55-28.717-84.979l-28.951-84.417 1.889-1.706c1.039-.939 34.791-24.747 75.004-52.907l73.114-51.2-91.813-.427-91.814-.426-27.85-84.694c-15.318-46.581-28.049-84.693-28.292-84.693-.243 0-12.98 38.112-28.304 84.693" fill-rule="evenodd"/></svg>