<svg xmlns="http://www.w3.org/2000/svg" viewBox="0 0 512 512"><path d="M88.188 33.406c-4.735 1.063-10.438 6.215-13.727 12.4-4.097 7.706-55.36 124.835-56.89 129.984-2.638 8.885-1.291 21.293 3.381 31.143 4.446 9.376 16.085 20.603 27.905 26.92 23.746 12.691 54.316 10.9 77.436-4.537 2.112-1.41 6.202-4.863 9.089-7.672l5.249-5.107 6.271 5.454c8.054 7.005 10.204 8.499 17.481 12.151 24.524 12.308 54.921 10.476 77.45-4.667 3.333-2.24 7.943-5.998 10.244-8.349l4.184-4.276 5.63 4.936c10.233 8.973 18.977 13.911 31.403 17.735 6.85 2.109 8.699 2.309 21.159 2.289 12.393-.02 14.359-.237 21.292-2.349 4.2-1.279 10.718-3.929 14.484-5.888 7.19-3.741 18.664-12.403 20.179-15.234.82-1.532 1.368-1.219 6.989 3.985 15.097 13.978 34.088 20.768 55.243 19.751 12.079-.58 17.629-2.025 28.587-7.443 13.007-6.432 26.146-18.878 30.397-28.795 4.357-10.165 5.347-21.887 2.586-30.614-1.799-5.685-52.678-121.851-56.683-129.417-3.505-6.622-8.886-11.291-14.368-12.467-5.471-1.173-329.736-1.109-334.971.067m46.639 229.014c-8.578 4.434-20.132 8.473-29.021 10.147-18.664 3.513-33.695 2.348-56.526-4.379-1.416-.417-1.493 4.253-1.493 89.686V448H16.213v32.427h479.574V448h-31.574v-90.118c0-85.48-.077-90.088-1.493-89.534-4.982 1.95-18.183 4.786-26.205 5.63-19.645 2.068-42.231-2.436-59.83-11.929l-6.296-3.396-7.337 3.744c-15.714 8.019-31.124 11.733-49.025 11.817-18.454.087-35.971-4.147-50.974-12.321l-6.174-3.363-7.739 3.887c-8.802 4.42-19.441 8.144-29.407 10.293-10.47 2.258-30.745 2.04-41.813-.448-9.883-2.223-21.631-6.56-29.152-10.763-2.892-1.616-5.58-2.914-5.973-2.883-.393.03-3.979 1.742-7.968 3.804m87.096 42.25c1.595.854 1.65 2.201 1.65 40.107V384H128v-38.546c0-34.67.142-38.703 1.412-40.107 1.334-1.474 3.892-1.56 46.136-1.56 29.198 0 45.297.306 46.375.883m160.516.529c1.488 1.346 1.561 4.703 1.561 72.107V448h-80.213v-70.4c0-69.262.027-70.428 1.706-72.107 1.654-1.654 2.845-1.706 38.546-1.706 33.082 0 36.999.144 38.4 1.412" fill-rule="evenodd"/></svg>