<svg xmlns="http://www.w3.org/2000/svg" width="512" height="512"><path d="M109.397 18.823c-5.774 2.885-8.922 6.111-11.612 11.897L96 34.56v346.453l2.017 4.461c2.241 4.957 7.676 10.452 12.645 12.784 3.091 1.45 10.547 1.529 145.338 1.529s142.247-.079 145.338-1.529c4.969-2.332 10.404-7.827 12.645-12.784l2.017-4.461V207.787c0-162.612-.091-173.428-1.481-176.502-2.568-5.677-6.437-9.724-11.913-12.461l-5.225-2.611H114.619l-5.222 2.61m200.825 46.781c12.247 5.563 12.728 22.393.818 28.613C307.688 95.968 306.702 96 256 96h-51.627l-3.979-2.339c-11.47-6.743-10.689-22.573 1.384-28.057C205 64.14 208.562 64.037 256 64.037s51 .103 54.222 1.567M384 176.213v32H128v-64h256v32M189.82 291.344c19.819 9.731 24.116 35.778 8.482 51.412-15.248 15.248-41.204 10.693-50.863-8.927-2.569-5.219-2.799-6.354-2.799-13.811 0-6.995.313-8.791 2.249-12.92 3.843-8.196 10.541-14.253 19.378-17.522 1.975-.73 5.938-1.075 10.8-.938 6.495.182 8.462.6 12.753 2.706m160.688.436c6.464 3.465 11.538 8.779 14.582 15.271 1.959 4.178 2.27 5.954 2.27 12.949 0 7.01-.309 8.767-2.287 12.986-13.421 28.636-54.771 23.36-60.404-7.706-2.129-11.741 3.049-24.485 12.626-31.074 6.897-4.745 10.751-5.825 19.772-5.541 7.309.231 8.631.537 13.441 3.115M129.707 456.107l-39.673 39.68H135.289l7.644-7.68 7.645-7.68h210.844l7.645 7.68 7.644 7.68H422.82l-39.673-39.68-39.673-39.68h-45.216l15.138 15.155c8.325 8.335 15.137 15.439 15.137 15.787 0 .347-32.64.631-72.533.631s-72.533-.284-72.533-.631c0-.348 6.812-7.452 15.137-15.787l15.138-15.155H169.38l-39.673 39.68" fill-rule="evenodd"/></svg>