<svg xmlns="http://www.w3.org/2000/svg" width="512" height="512"><path d="m284.588 140.798-67.409 67.413 11.305 11.305 11.304 11.304 48.213-48.207 48.212-48.207v297.381h31.574V134.406l48.212 48.207 48.213 48.207 11.305-11.305 11.305-11.305-67.412-67.412-67.413-67.413-67.409 67.413m-140.375 88.106v148.69l-48.212-48.207-48.213-48.207-11.305 11.305-11.305 11.305 67.412 67.412 67.413 67.413 67.409-67.413 67.409-67.413-11.305-11.305-11.304-11.304-48.213 48.207-48.212 48.207V80.213h-31.574v148.691" fill-rule="evenodd"/></svg>