<svg xmlns="http://www.w3.org/2000/svg" width="512" height="512"><path d="M241.92 48.656c-32.351 2.022-64.984 12.273-93.189 29.276-53.917 32.501-89.753 86.952-98.941 150.335-2.03 14.002-2.03 41.464 0 55.466 5.257 36.266 18.79 68.894 40.768 98.296 8.04 10.755 28.658 31.373 39.413 39.413 29.402 21.978 62.03 35.511 98.296 40.768 7.099 1.029 15.606 1.485 27.733 1.485s20.634-.456 27.733-1.485c36.266-5.257 68.894-18.79 98.296-40.768 10.755-8.04 31.373-28.658 39.413-39.413 20.459-27.37 33.566-57.361 39.414-90.189 10.068-56.519-4.22-115.167-39.415-161.788-32.853-43.518-83.69-72.968-138.134-80.021-12.74-1.65-28.565-2.176-41.387-1.375m30.293 96.799c38.808 5.893 71.16 30.942 86.642 67.084 2.862 6.682 6.368 18.925 7.654 26.731l.548 3.323 4.644-4.586 4.644-4.587 11.289 11.289 11.289 11.289-22.978 22.99-22.979 22.991-9.869-9.296c-5.429-5.113-16.162-15.362-23.851-22.776l-13.981-13.48 11.125-11.52 11.124-11.52 3.07 2.94c3.678 3.524 3.848 2.633 1.059-5.564-7.128-20.952-22.006-37.59-41.936-46.896-9.408-4.393-15.419-6.053-26.286-7.257-22.791-2.526-46.807 5.853-63.539 22.168-2.262 2.206-4.038 3.306-4.694 2.907-.58-.353-5.933-5.038-11.895-10.412l-10.84-9.772 1.617-2.055c2.463-3.132 11.159-10.689 17.21-14.957 23.308-16.44 52.623-23.334 80.933-19.034m-79.458 96.627 13.982 13.491-11.129 11.52-11.128 11.52-3.553-3.413-3.554-3.413.608 2.56c1.563 6.59 5.948 17.034 9.716 23.14 11.606 18.809 29.724 31.68 51.663 36.704 8.845 2.025 25.73 2.048 33.909.046 14.351-3.513 27.629-10.586 37.437-19.942 3.288-3.136 5.298-4.472 6.043-4.019.615.374 6.041 5.115 12.058 10.535l10.941 9.856-6.706 6.464c-15.769 15.203-37.154 25.744-59.773 29.462-12.377 2.035-31.84 1.238-43.556-1.783-10.703-2.76-21.435-7.007-29.27-11.583-28.384-16.577-48.127-44.12-54.287-75.733l-1.516-7.78-4.493 4.433-4.492 4.433-11.289-11.289-11.289-11.289 22.978-22.99 22.979-22.991 9.869 9.285c5.429 5.106 16.162 15.355 23.852 22.776" fill-rule="evenodd"/></svg>