<svg xmlns="http://www.w3.org/2000/svg" width="512" height="512"><path d="M12.373 64.905c-3.817 1.121-8.972 5.769-10.758 9.701C.097 77.95.037 84.749.037 256c0 171.381.059 178.045 1.581 181.333 1.936 4.183 5.454 7.584 9.661 9.342C14.122 447.862 39.554 448 256 448s241.878-.138 244.721-1.325c4.207-1.758 7.725-5.159 9.661-9.342 1.522-3.288 1.581-9.952 1.581-181.333 0-171.251-.06-178.05-1.578-181.394-1.869-4.115-7.01-8.604-11.185-9.765-3.823-1.064-483.199-1-486.827.064M448 256v156.16H64V99.84h384V256" fill-rule="evenodd"/></svg>