<svg xmlns="http://www.w3.org/2000/svg" width="512" height="512"><path d="M21.588 34.099c-5.845 3.564-5.375-15.852-5.371 222.072.003 212.028.028 215.337 1.668 218.028.917 1.502 2.931 3.422 4.477 4.266C25.049 479.932 35.402 480 256 480s230.951-.068 233.638-1.535c1.546-.844 3.56-2.764 4.477-4.266 1.64-2.691 1.665-6 1.668-218.028.004-237.924.474-218.508-5.371-222.072-2.692-1.642-6.131-1.666-234.412-1.666s-231.72.024-234.412 1.666m126.77 99.275c29.265 23.415 52.881 42.868 52.48 43.231-2.705 2.435-106.845 85.368-107.2 85.368-.244 0-4.869-5.519-10.279-12.265l-9.834-12.264 37.199-29.762c20.46-16.369 37.773-30.188 38.474-30.708 1.039-.772-5.785-6.596-36.886-31.483-23.938-19.155-38-30.954-37.731-31.657 1.017-2.649 18.897-24.048 19.691-23.565.481.292 24.82 19.689 54.086 43.105m123.855 106.839V256h-96.426v-31.573h96.426v15.786" fill-rule="evenodd"/></svg>