<svg xmlns="http://www.w3.org/2000/svg" width="512" height="512"><path d="M260.828 35.2c-1.147 1.525-30.572 47.509-65.388 102.187-34.817 54.677-64.085 100.085-65.04 100.906-1.615 1.39-5.643 1.494-57.961 1.494H16.213v208.151l63.36.244 63.36.245 43.947 14.669c24.171 8.068 46.635 15.172 49.92 15.786 4.698.879 26.378 1.118 101.547 1.118 107.307 0 100.377.402 109.827-6.365 5.709-4.088 10.91-11.479 13.376-19.008.963-2.941 9.074-37.492 18.024-76.781l16.274-71.434-.244-42.105-.244-42.106-3.202-6.477c-5.731-11.593-18.058-20.622-31.189-22.846-3.143-.533-40.42-3.621-82.837-6.862-42.417-3.242-77.3-6.073-77.518-6.29-.217-.218 4.801-20.681 11.151-45.474 12.548-48.989 13.36-52.662 13.345-60.382-.027-13.74-5.584-22.865-17.623-28.936-4.51-2.274-39.498-12.507-42.764-12.507-1.045 0-2.69 1.171-3.895 2.773" fill-rule="evenodd"/></svg>