<svg xmlns="http://www.w3.org/2000/svg" width="512" height="512"><path d="M235.52 17.598c-48.985 6.608-93.58 38.204-115.353 81.728-1.902 3.803-3.575 7.043-3.718 7.202-.143.158-3.266.652-6.941 1.098-11.128 1.351-22.248 4.732-33.235 10.106-37.256 18.222-60.06 54.52-60.06 95.601 0 28.069 10.301 53.497 29.861 73.716 15.4 15.919 32.328 25.4 55.286 30.965 4.801 1.163 12.845 1.447 49.467 1.743 40.3.326 43.733.467 43.727 1.792-.003.791-4.166 22.266-9.252 47.723-5.086 25.456-9.052 46.48-8.813 46.72.24.239 10.931.435 23.76.435h23.324v39.324c0 24.531.306 39.218.813 39.04.447-.156 25.598-32.156 55.892-71.111l55.08-70.827-21.332-.228c-11.733-.125-21.333-.42-21.333-.655 0-.236 1.776-7.525 3.946-16.199L300.586 320h55.675c61.183 0 63.355-.145 77.762-5.177 14.188-4.955 25.493-12.318 36.255-23.612 26.869-28.199 32.822-68.687 15.279-103.912-13.934-27.979-42.062-47.178-72.919-49.77l-6.776-.569-1.153-4.693c-6.391-25.999-19.238-49.363-37.683-68.53-34.43-35.779-82.718-52.721-131.506-46.139M93.869 368.636c-10.327 20.649-18.776 37.838-18.776 38.199 0 .361 6.336 3.817 14.08 7.68l14.08 7.025 19.121-38.235 19.121-38.235-14.007-6.988c-7.705-3.844-14.196-6.989-14.426-6.989-.23 0-8.867 16.895-19.193 37.543m279.893 0c-10.326 20.649-18.775 37.838-18.775 38.199 0 .361 6.336 3.817 14.08 7.68l14.079 7.025 19.121-38.235 19.121-38.235-14.007-6.988c-7.704-3.844-14.196-6.989-14.426-6.989-.23 0-8.867 16.895-19.193 37.543m-259.841 71.683c-8.214 16.422-14.934 30.154-14.934 30.515 0 .361 6.335 3.818 14.079 7.681l14.08 7.024 14.933-29.858c8.214-16.422 14.934-30.154 14.934-30.515 0-.361-6.335-3.818-14.079-7.681l-14.08-7.024-14.933 29.858m279.893 0c-8.214 16.422-14.934 30.154-14.934 30.515 0 .361 6.336 3.818 14.079 7.681l14.08 7.024 14.934-29.858c8.213-16.422 14.934-30.154 14.934-30.515 0-.361-6.336-3.818-14.08-7.681l-14.079-7.024-14.934 29.858" fill-rule="evenodd"/></svg>