<svg xmlns="http://www.w3.org/2000/svg" viewBox="0 0 512 512"><path d="m270.381 60.374-44.065 44.159-1.85 5.708-1.85 5.708-5.708 1.85-5.708 1.849-97.492 97.4-97.492 97.4 34.716 34.724 34.715 34.723 7.415-7.056c7.981-7.595 12.946-10.464 20.136-11.634 19.559-3.183 37.238 14.844 33.563 34.222-1.363 7.184-4.075 11.75-11.645 19.604l-7.034 7.299 34.735 34.727 34.735 34.727 97.4-97.492 97.4-97.492 1.849-5.708 1.85-5.708 5.708-1.85 5.708-1.85 44.159-44.065 44.16-44.065-34.717-34.725-34.716-34.724-7.45 7.089c-4.097 3.899-9.135 7.905-11.195 8.903-11.794 5.709-24.841 3.703-33.858-5.206-9.378-9.266-11.668-22.777-5.885-34.729 1.037-2.142 5.051-7.179 8.919-11.193l7.034-7.299-34.736-34.728-34.736-34.728-44.065 44.16m-13.952 67.628 16.198 16.216-10.874 10.874-10.874 10.874-16.419-16.418-16.418-16.418 10.646-10.672c5.856-5.869 10.848-10.671 11.094-10.671.247 0 7.738 7.297 16.647 16.215m42.666 42.667 16.199 16.215-10.874 10.875-10.875 10.874-16.418-16.418-16.418-16.418 10.646-10.672c5.855-5.869 10.848-10.672 11.094-10.672.246 0 7.737 7.297 16.646 16.216m42.462 42.461 15.994 16.011-10.892 10.868-10.893 10.868-16.192-16.21-16.193-16.209 10.643-10.669c5.854-5.868 10.845-10.669 11.092-10.669.246 0 7.645 7.205 16.441 16.01m42.872 42.872 16.198 16.216-10.874 10.874-10.874 10.874-16.419-16.418-16.418-16.418 10.646-10.672c5.856-5.869 10.848-10.671 11.094-10.671.247 0 7.738 7.297 16.647 16.215" fill-rule="evenodd"/></svg>