<svg xmlns="http://www.w3.org/2000/svg" width="512" height="512"><path d="M131.413 112.68c-56.625 4.836-106.399 44.241-124.087 98.239-14.001 42.741-7.842 87.588 17.207 125.293 8 12.042 24.802 29.235 36.907 37.765 19.273 13.582 43.693 22.619 68.446 25.329 11.417 1.25 240.811 1.25 252.228 0 24.815-2.717 49.403-11.831 68.401-25.354 30.996-22.064 51.488-53.848 59.083-91.64 2.805-13.957 2.805-38.667 0-52.624-5.724-28.48-18.105-52.507-37.47-72.716-21.336-22.267-48.396-36.924-79.023-42.803-9.441-1.812-10.697-1.831-131.558-2.005-67.115-.097-125.675.135-130.134.516m254.274 59.277c32.391 6.895 57.784 31.597 65.89 64.097 2.811 11.272 2.647 29.965-.364 41.289-4.322 16.255-12.172 29.478-24.364 41.04-26.238 24.881-64.301 30.562-97.016 14.479-23.679-11.641-40.597-33.713-46.041-60.068-1.747-8.458-1.747-25.13 0-33.588 5.447-26.37 22.252-48.282 46.021-60.009 17.573-8.67 37.208-11.214 55.874-7.24" fill-rule="evenodd"/></svg>