<svg xmlns="http://www.w3.org/2000/svg" width="512" height="512"><path d="m31.78 88.107.22 55.68 21.973.227 21.974.228v-37.14l10.447 10.447 10.447 10.447-16.418 16.434-16.418 16.434L79.57 176.43l15.566 15.565 16.418-16.402 16.418-16.402 3.768 3.698 3.768 3.698-4.641 6.815c-16.698 24.522-26.289 58.862-24.745 88.599 2.541 48.968 26.698 91.772 67.001 118.722 44.366 29.668 100.914 33.35 149.01 9.704 5.163-2.538 12.459-6.716 16.214-9.284l6.826-4.668 11.735 11.646 11.735 11.646-16.422 16.439-16.423 16.439 15.568 15.568 15.567 15.568 16.423-16.423 16.422-16.422 24.539 24.528 24.539 24.528 15.568-15.568 15.568-15.568-24.528-24.539-24.528-24.539 16.422-16.422 16.423-16.423-15.568-15.567-15.568-15.568-16.439 16.423-16.439 16.422-11.617-11.735-11.618-11.735 5.071-7.68c32.65-49.446 32.223-115.422-1.067-164.766l-4.079-6.047 29.798-29.789 29.798-29.789v37.14l21.974-.228 21.973-.227.22-55.68.219-55.68H367.787v43.52H404.898l-29.766 29.774-29.765 29.775-7.777-5.116c-37.782-24.851-86.921-31.036-129.751-16.329-11.011 3.781-25.463 10.855-34.306 16.792l-6.947 4.665-3.697-3.768-3.698-3.768 16.402-16.418 16.402-16.418L176.43 79.57l-15.566-15.565-16.434 16.418-16.434 16.418-10.447-10.447-10.447-10.447H144.213v-43.52H31.561l.219 55.68m248.113 64.604c48.636 11.991 81.91 53.95 81.91 103.289 0 58.446-47.358 105.806-105.803 105.806-28.279 0-54.235-10.735-74.259-30.713-16.604-16.566-26.981-36.714-30.322-58.876-8.794-58.337 30.582-111.885 89.104-121.173 8.355-1.326 31.145-.361 39.37 1.667" fill-rule="evenodd"/></svg>