<svg xmlns="http://www.w3.org/2000/svg" width="512" height="512"><path d="M183.359 34.872c-6.942 4.402-7.109 5.201-7.394 35.315l-.248 26.24H64v40.106h33.28l-.01 2.347c-.005 1.291 4.415 72.043 9.822 157.227 7.066 111.315 10.215 156.375 11.193 160.197 2.494 9.735 9.69 17.658 19.714 21.704l4.934 1.992h226.134l4.934-1.992c10.02-4.044 17.216-11.965 19.717-21.704.985-3.834 4.108-48.529 11.194-160.197 5.405-85.184 9.823-155.936 9.818-157.227l-.01-2.347H448V96.427H336.283l-.248-26.24c-.285-30.114-.452-30.913-7.394-35.315l-3.855-2.445H187.214l-3.855 2.445m111.407 30.469c1.116 1.116 1.341 3.831 1.341 16.222v14.881l-39.894-.222L216.32 96l-.233-14.639c-.199-12.471-.032-14.841 1.127-16C218.419 64.157 222.884 64 256 64c32.885 0 37.587.163 38.766 1.341M200.014 165.76c.259 2.933 2.203 56.789 4.322 119.68 2.118 62.891 4.08 118.091 4.36 122.667l.507 8.32h-16.308c-12.298 0-16.392-.263-16.647-1.067-.263-.83-9.089-249.43-9.013-253.867.014-.815 3.826-1.066 16.164-1.066h16.145l.47 5.333m71.989 122.453L271.787 416h-31.574l-.216-127.787-.216-127.786h32.438l-.216 127.786m72.77-127.146c.121 2.98-8.767 253.48-9.023 254.293-.254.804-4.346 1.067-16.645 1.067h-16.308l.508-8.32c.279-4.576 2.24-59.776 4.357-122.667 2.118-62.891 4.063-116.747 4.322-119.68l.472-5.333h16.145c8.88 0 16.157.288 16.172.64" fill-rule="evenodd"/></svg>