<svg xmlns="http://www.w3.org/2000/svg" width="512" height="512"><path d="M40.407 48.715c-3.851 1.121-7.754 5.924-8.404 10.342-.296 2.015-.418 16.335-.271 31.823.251 26.358.377 28.345 1.975 31.05.938 1.59 3.044 3.606 4.68 4.48C41.265 127.949 48.25 128 256 128s214.735-.051 217.613-1.59c1.636-.874 3.742-2.89 4.68-4.48 1.623-2.749 1.707-4.422 1.707-34.187 0-30.28-.057-31.375-1.759-33.654-.968-1.296-2.82-3.149-4.116-4.116l-2.357-1.76-214.337-.139c-127.732-.084-215.423.176-217.024.641M64.359 164.48c.285 2.229 7.039 66.069 15.008 141.867 7.97 75.797 14.891 139.243 15.382 140.991 1.116 3.975 5.533 9.842 9.34 12.408 6.986 4.708-.296 4.506 153.657 4.264l142.041-.223 4.512-2.039c5.462-2.468 10.638-8.085 12.508-13.573.875-2.568 6.537-53.264 15.839-141.819 7.962-75.803 14.71-139.647 14.995-141.876l.519-4.053H63.84l.519 4.053m163.69 78.502L256 270.924l28.161-28.151 28.16-28.151 12.582 12.582 12.582 12.581-28.151 28.161-28.151 28.161 27.941 27.951 27.942 27.95-12.582 12.582-12.582 12.582-27.951-27.941L256 321.29l-27.951 27.941-27.951 27.941-12.582-12.582-12.582-12.582 27.942-27.95 27.941-27.951-28.147-28.157-28.147-28.157 12.354-12.377c6.795-6.807 12.549-12.376 12.787-12.376.238 0 13.011 12.574 28.385 27.942" fill-rule="evenodd"/></svg>