<svg xmlns="http://www.w3.org/2000/svg" width="512" height="512"><path d="m18.839 82.423-2.626 2.209v294.379l2.495 2.495L21.202 384h469.596l2.494-2.494 2.495-2.495V84.632l-2.626-2.209-2.625-2.21H21.464l-2.625 2.21m94.289 319.131c-1.1 1.1-1.341 3.642-1.341 14.136 0 7.189.387 13.519.883 14.446.868 1.622 3.371 1.651 143.33 1.651s142.462-.029 143.33-1.651c.496-.927.883-7.257.883-14.446 0-10.494-.241-13.036-1.341-14.136-1.208-1.208-15.345-1.341-142.872-1.341-127.527 0-141.664.133-142.872 1.341" fill-rule="evenodd"/></svg>