<svg xmlns="http://www.w3.org/2000/svg" viewBox="0 0 512 512"><path d="M123.733 137.826c-21.003 3.668-43.335 14.368-58.908 28.227-23.543 20.95-37.028 47.601-40.223 79.494-3.166 31.601 8.133 66.055 29.352 89.498 16.034 17.715 32.843 28.592 55.004 35.592 15.275 4.826 18.244 5.062 68.749 5.462l46.72.37v-47.936l-38.187-.007c-51.658-.01-60.177-.917-74.027-7.884-19.354-9.736-34.224-28.592-38.33-48.606-1.736-8.462-1.736-23.61 0-32.072 4.986-24.302 25.003-45.616 50.003-53.244 6.083-1.856 7.477-1.913 52.967-2.194l46.72-.287v-47.706l-46.72.088c-34.341.064-48.415.383-53.12 1.205m164.694 22.56v23.853l46.72.287c45.503.281 46.882.338 52.973 2.196 24.964 7.616 45.017 28.97 49.997 53.242 1.736 8.462 1.736 23.61 0 32.072-4.106 20.014-18.976 38.87-38.33 48.606-13.85 6.967-22.369 7.874-74.027 7.884l-38.187.007v47.936l46.72-.37c39.461-.313 47.897-.597 54.292-1.829 37.643-7.249 67.711-29.288 85.776-62.874 10.167-18.9 15.196-44.302 13.037-65.849-3.195-31.893-16.68-58.544-40.223-79.494-11.746-10.453-29.812-20.461-44.828-24.834-15.163-4.416-18.644-4.655-68.054-4.671l-45.866-.015v23.853" fill-rule="evenodd"/></svg>