<svg xmlns="http://www.w3.org/2000/svg" width="512" height="512"><path d="M30.293 112.2c-.469.16-1.902.522-3.184.804-3.127.689-8.32 5.362-9.743 8.769-.951 2.277-1.153 25.726-1.153 134.144 0 90.755.281 132.128.908 133.787 1.29 3.416 4.933 7.052 8.906 8.892 3.28 1.518 9.116 1.58 149.333 1.594 103.884.01 146.898-.258 149.314-.928 4.35-1.208 9.38-6.238 10.588-10.588.626-2.255.943-16.929.947-43.714.002-22.176.166-40.32.364-40.32.198 0 35.622 21.165 78.72 47.032 43.098 25.868 78.84 47.221 79.427 47.452.851.334 1.067-28.617 1.067-143.033 0-78.898-.162-143.451-.36-143.451-.198 0-35.622 21.165-78.72 47.032-43.098 25.868-78.827 47.216-79.396 47.44-.802.315-1.091-9.106-1.28-41.699-.236-40.666-.304-42.208-1.992-45.081-.961-1.636-3.394-4.132-5.407-5.547l-3.659-2.572-146.913-.152c-80.802-.084-147.297-.021-147.767.139" fill-rule="evenodd"/></svg>