<svg xmlns="http://www.w3.org/2000/svg" viewBox="0 0 512 512"><path d="M68.479 68.481 57.184 79.799l179.414 179.413 179.415 179.412 11.295-11.318 11.295-11.318-179.415-179.413L79.774 57.162 68.479 68.481m-38.186 43.725c-.469.157-1.902.516-3.184.798-3.127.689-8.32 5.362-9.743 8.769-.951 2.277-1.153 25.726-1.153 134.144 0 90.755.281 132.128.908 133.787 1.29 3.416 4.933 7.052 8.906 8.892 3.28 1.518 9.116 1.58 149.333 1.594 97.671.009 146.968-.277 149.089-.866 1.743-.484 3.426-1.295 3.739-1.802.325-.525-60.72-62.213-141.835-143.329L43.949 111.787l-6.401.067c-3.521.037-6.785.195-7.255.352M302.507 234.7l122.88 122.945 34.696 20.857c19.083 11.472 34.923 20.858 35.2 20.858.277 0 .504-64.512.504-143.36 0-78.848-.162-143.36-.36-143.36-.198 0-35.622 21.165-78.72 47.032-43.098 25.868-78.827 47.216-79.396 47.44-.802.315-1.091-9.106-1.28-41.699-.236-40.666-.304-42.208-1.992-45.081-.961-1.636-3.394-4.132-5.406-5.547l-3.659-2.572-72.674-.229-72.673-.229L302.507 234.7" fill-rule="evenodd"/></svg>