<svg xmlns="http://www.w3.org/2000/svg" width="512" height="512"><path d="M52.474 69.126 41.4 80.225 228.694 267.52l187.294 187.296 11.318-11.295 11.318-11.295-187.098-187.1C148.622 142.222 64.23 58.027 63.988 58.027c-.241 0-5.423 4.994-11.514 11.099m166.53 32.471-36.569 29.204 36.569 36.577 36.569 36.577.224-32.858c.123-18.071.123-47.673 0-65.78l-.224-32.924-36.569 29.204m188.463-19.151c-7.04 4.5-12.943 8.317-13.118 8.483-.175.166 3.841 6.943 8.925 15.06 29.341 46.85 41.058 82.144 44.044 132.662 2.674 45.251-4.213 87.991-19.896 123.469l-4.19 9.478 11.881 11.881 11.881 11.881 3.423-6.808c9.21-18.318 17.775-42.138 22.196-61.725 5.295-23.465 7.162-41.956 7.15-70.827-.024-61.834-12.964-107.894-44.949-160-8.186-13.336-13.655-21.758-14.121-21.746-.234.006-6.186 3.693-13.226 8.192m-46.774 47.27c-6.953 4.091-12.996 7.792-13.43 8.226-.483.483 2.673 6.878 8.142 16.497 13.916 24.475 20.574 41.049 24.687 61.454 4.227 20.973 4.881 47.436 1.73 70.026-1.4 10.034-5.343 26.594-7.646 32.105l-1.332 3.187 12.313 12.312 12.312 12.312 1.853-4.171c12.43-27.976 18.373-64.426 16.264-99.744-1.821-30.504-7.757-54.037-20.448-81.067-3.915-8.337-18.453-34.491-20.682-37.207-1.003-1.22-2.475-.571-13.763 6.07m-47.946 47.919c-7.51 3.783-13.773 6.986-13.919 7.118-.146.132 2.07 4.898 4.924 10.592 2.854 5.693 6.351 13.276 7.771 16.851 5.633 14.178 9.068 34.175 8.272 48.143l-.424 7.425 13.511 13.491c7.43 7.42 13.69 13.31 13.911 13.09 1.042-1.042 3.962-18.589 4.678-28.116 1.552-20.63-1.122-39.929-8.462-61.081-2.675-7.709-15.226-34.519-16.121-34.436-.268.024-6.632 3.14-14.141 6.923m-280.781-.782c-.223.587-.307 36.587-.186 80l.22 78.934 47.36.426 47.36.427 64.427 51.523 64.426 51.523.221-49.808.22-49.807-82.139-82.142-82.138-82.142H62.055c-22.96 0-29.774.241-30.089 1.066" fill-rule="evenodd"/></svg>