<svg xmlns="http://www.w3.org/2000/svg" width="512" height="512"><path d="M191.147 123.876 126.72 175.36l-47.36.427-47.36.426v159.574l47.36.426 47.36.427 64.427 51.523 64.426 51.523.217-91.843c.12-50.514.12-133.155 0-183.647l-.217-91.804-64.426 51.484m216.32-41.412c-7.04 4.51-12.943 8.328-13.118 8.484-.175.156 3.845 6.924 8.933 15.041 10.548 16.828 23.119 41.076 28.443 54.864 6.974 18.062 12.386 41.439 14.718 63.574 1.602 15.196 1.345 52.785-.46 67.383-5.321 43.042-17.899 76.063-44.641 117.194-3.906 6.008-7.091 11.192-7.078 11.52.026.636 24.453 16.659 25.961 17.029.995.244 14.505-20.661 22.752-35.206 27.56-48.607 39.584-102.13 36.565-162.761-2.89-58.022-16.925-100.115-51.501-154.465-3.807-5.983-7.113-10.874-7.348-10.869-.234.006-6.186 3.701-13.226 8.212m-46.774 47.246c-6.953 4.094-13.011 7.813-13.462 8.265-.527.526 1.224 4.323 4.874 10.57 8.334 14.262 19.436 37.441 22.858 47.722 6.953 20.89 10.097 48.792 8.313 73.782-2.392 33.506-9.045 53.831-29.705 90.744-4.02 7.183-7.17 13.177-7 13.32.17.143 6.345 3.728 13.722 7.967 9.427 5.417 13.637 7.418 14.166 6.733 1.625-2.1 13.008-22.851 17.855-32.546 16.784-33.575 23.421-62.281 23.38-101.12-.046-43.625-8.54-74.217-32.258-116.168-4.149-7.337-8.119-14.099-8.823-15.026-1.242-1.636-1.655-1.465-13.92 5.757m-46.24 47.054c-6.57 3.305-12.809 6.557-13.864 7.227l-1.917 1.218 5.213 10.401c15.178 30.278 19.263 55.421 13.554 83.434-2.338 11.472-5.838 21.193-12.87 35.748-3.264 6.757-5.832 12.378-5.706 12.491.396.352 27.928 14.05 28.241 14.05 1.023 0 13.972-28.861 16.764-37.366 10.707-32.604 10.725-63.849.057-95.918-3.202-9.626-15.895-37.442-17.037-37.338-.268.025-5.864 2.749-12.435 6.053" fill-rule="evenodd"/></svg>