<svg xmlns="http://www.w3.org/2000/svg" width="512" height="512"><path d="M246.703 23.537c-6.839 1.839-12.579 5.258-19.07 11.357-18.431 17.322-18.758 46.105-.726 64.043 11.727 11.665 26.966 16.09 42.667 12.389 8.03-1.893 15.113-5.976 21.513-12.402 6.522-6.548 10.388-13.658 12.264-22.551 1.572-7.454 1.583-11.273.054-18.485-1.956-9.232-5.135-14.912-12.348-22.065-7.093-7.035-12.478-10.329-20.154-12.328-6.23-1.623-18.085-1.602-24.2.042m-51.29 104.438c-1.642.883-20.695 19.394-42.338 41.136-36.737 36.902-39.417 39.795-40.32 43.534-.66 2.727-.968 18.441-.968 49.28V307.2h32.426v-84.066l21.334-21.321 21.333-21.32.003 48.633c.004 52.568.313 57.261 4.633 70.212 3.991 11.966 7.388 17.176 30.456 46.698l22.663 29.004 31.382 63.573c17.259 34.966 31.476 63.681 31.592 63.812.357.405 28.604-13.319 28.604-13.897 0-.299-13.833-28.551-30.741-62.782l-30.742-62.239.014-94.5c.017-104.952.286-99.688-5.733-111.994-4.429-9.052-15.948-20.547-25.068-25.016-9.233-4.524-15.747-5.678-31.89-5.651-11.713.02-14.077.251-16.64 1.629m97.28 89.517v22.079l41.13 27.628c22.622 15.195 41.604 27.628 42.182 27.628 1.471 0 21.129-26.905 20.24-27.7-1.312-1.174-102.807-71.714-103.184-71.714-.202 0-.368 9.936-.368 22.079m-99.237 213.785-39.838 40.45 10.676 13.31c5.872 7.32 10.782 13.31 10.912 13.31.442 0 73.54-75.309 73.827-76.06.342-.898-14.421-31.46-15.198-31.46-.298 0-18.468 18.202-40.379 40.45" fill-rule="evenodd"/></svg>