<svg xmlns="http://www.w3.org/2000/svg" width="512" height="512"><path d="M246.187 63.206C155.605 78.157 72.955 91.737 62.52 93.384c-24.201 3.82-27.372 5.357-30.034 14.563-.736 2.544-.924 44.911-.737 166.462L32 437.459l2.056 3.001c1.131 1.65 3.407 3.926 5.058 5.057l3.001 2.056h427.06l3.279-2.609c1.804-1.435 4.143-4.301 5.199-6.368l1.92-3.758v-146.62c0-130.407-.146-146.969-1.32-149.78-1.762-4.217-4.362-6.919-8.493-8.825-3.282-1.515-9.937-1.576-172.587-1.594L128 128v-23.893h303.85l-.245-29.295-.245-29.294-2.396-3.14c-3.31-4.338-7.987-6.56-13.57-6.447-2.483.05-78.626 12.323-169.207 27.275m134.791 195.655c20.58 9.421 25.218 36.922 8.815 52.265-14.602 13.659-37.671 10.955-48.42-5.675-11.997-18.562-2.201-43.129 19.37-48.579 5.374-1.357 14.99-.413 20.235 1.989" fill-rule="evenodd"/></svg>