<svg xmlns="http://www.w3.org/2000/svg" width="512" height="512"><path d="M256.29 54.527C253.83 56.818 43.447 447.79 42.917 451.053c-.347 2.142.088 3.272 2.147 5.577l2.583 2.89 211.056.244c116.081.134 212.348.012 213.926-.27 4.091-.733 6.944-3.881 6.944-7.663 0-2.456-21.215-42.509-105.448-199.079C316.129 144.949 267.723 55.883 266.558 54.827c-2.694-2.44-7.811-2.589-10.268-.3m26.629 144.086c-.466 9.371-5.586 144.656-5.586 147.621 0 .823-3.669 1.073-15.734 1.073h-15.734l-.439-3.627c-.419-3.464-5.705-146.097-5.661-152.747l.022-3.2h43.674l-.542 10.88m-1.319 192.64v20.054h-40.107V371.2H281.6v20.053" fill-rule="evenodd"/></svg>