<svg xmlns="http://www.w3.org/2000/svg" width="512" height="512"><path d="M246.955 54.307c-48.126 56.587-88.99 118.137-110.807 166.901-22.967 51.331-28.95 89.206-20.517 129.873C129.56 418.252 181.941 458.24 256 458.24c71.097 0 122.78-37.166 138.629-99.692 10.974-43.29 5.528-82.997-18.859-137.52-21.717-48.553-62.671-110.219-110.725-166.721-4.647-5.463-8.717-9.934-9.045-9.934-.328 0-4.398 4.471-9.045 9.934M355.55 328.955c-2.46 29.105-19.971 55.214-45.79 68.277-9.492 4.802-25.374 8.955-34.245 8.955h-3.302v-23.658l5.609-.575c13.83-1.417 26.386-7.572 36.772-18.027 5.718-5.756 7.66-8.448 10.829-15.017 3.683-7.634 6.524-17.978 6.524-23.754v-2.596h24.143l-.54 6.395" fill-rule="evenodd"/></svg>