<svg xmlns="http://www.w3.org/2000/svg" width="512" height="512"><path d="M243.2 97.795c-40.196 2.111-77.52 10.872-112.465 26.4-30.811 13.69-56.666 30.786-86.099 56.931-9.588 8.517-9.665 8.615-8.113 10.376 15.343 17.412 22.989 26.04 24.514 27.666l1.871 1.994 9.292-8.317c38.215-34.205 74.181-53.927 118.745-65.116 24.944-6.262 34.223-7.296 65.482-7.296 23.997.001 28.726.228 39.023 1.875 29.473 4.716 55.142 12.901 80.812 25.769 23.638 11.85 42.01 24.829 66.96 47.304 5.65 5.089 6.678 5.709 7.577 4.571.573-.725 6.663-7.598 13.534-15.275 6.872-7.676 12.558-14.271 12.637-14.654.181-.874-16.241-15.514-28.117-25.066-44.861-36.085-101.15-59.308-158.72-65.484-11.939-1.28-37.258-2.186-46.933-1.678m-.427 86.625c-44.638 2.193-89.516 19.459-125.44 48.259-7.933 6.36-26.96 23.731-27.581 25.181-.151.352 5.766 7.086 13.148 14.964 7.383 7.877 13.723 14.665 14.091 15.083.367.418 5.586-3.757 11.598-9.278 12.92-11.863 22.021-19.085 31.521-25.011 53.18-33.173 119.566-36.64 175.677-9.175 18.479 9.045 31.111 18.172 51.2 36.995l7.68 7.196 9.204-9.704c5.062-5.337 11.499-12.257 14.305-15.378l5.102-5.675-9.612-8.971c-14.203-13.255-21.98-19.533-34.587-27.92-40.618-27.023-85.498-39.063-136.306-36.566m8.107 85.861c-29.361 1.254-58.985 12.534-81.067 30.866-8.747 7.263-18.773 16.499-18.773 17.295 0 .942 26.344 30.571 27.181 30.571.318 0 4.988-3.896 10.378-8.659 22.238-19.647 38.313-26.76 62.773-27.775 29.818-1.238 48.698 6.237 74.41 29.46 5.942 5.366 8.368 7.068 9.245 6.485 1.555-1.035 26.786-29.564 26.786-30.288 0-.975-19.78-17.85-27.238-23.237-22.928-16.564-54.729-25.956-83.695-24.718m-7.253 93.643c-9.991 2.188-21.067 8.44-28.466 16.068l-3.719 3.834 21.924 24.194c12.058 13.306 22.242 24.193 22.631 24.193.389 0 9.619-9.792 20.511-21.76 10.893-11.968 20.814-22.852 22.048-24.187l2.244-2.428-6.263-5.889c-13.499-12.693-32.763-18-50.91-14.025" fill-rule="evenodd"/></svg>