<?xml version="1.0" standalone="no"?>
<!DOCTYPE svg PUBLIC "-//W3C//DTD SVG 1.1//EN" "http://www.w3.org/Graphics/SVG/1.1/DTD/svg11.dtd" >
<svg xmlns="http://www.w3.org/2000/svg">
<metadata>
<json>
<![CDATA[
{
	"fontFamily": "ionicon",
	"majorVersion": 5,
	"minorVersion": 5.2,
	"description": "Ionicons\nFont generated by IcoMoon.",
	"copyright": "Ionicons",
	"designer": "Ionicons",
	"designerURL": "https://ionic.io/ionicons",
	"license": "MIT",
	"licenseURL": "https://ionic.io/ionicons",
	"fontURL": "https://ionic.io/ionicons",
	"version": "Version 5.5",
	"fontId": "ionicon",
	"psName": "ionicon",
	"subFamily": "Regular",
	"fullName": "ionicon"
}
]]>
</json>
</metadata>
<defs>
<font id="ionicon" horiz-adv-x="1024">
<font-face units-per-em="1024" ascent="960" descent="-64" />
<missing-glyph horiz-adv-x="1024" />
<glyph unicode="&#x20;" horiz-adv-x="512" d="" />
<glyph unicode="&#xe900;" glyph-name="accessibility" data-tags="accessibility" d="M491.74 958.194c-20.564-3.678-43.066-15.782-58.92-31.692-20.95-21.026-32.018-47.27-32.304-76.582-0.206-21.118 2.164-31.39 11.96-51.862 12.526-26.17 34.506-45.476 63.966-56.182 11.24-4.086 14.87-4.55 35.558-4.55s24.318 0.464 35.558 4.55c18.214 6.618 30.164 14.274 44.166 28.292 9.858 9.868 13.936 15.63 19.93 28.16 9.666 20.2 12.036 30.536 11.83 51.592-0.468 48.134-32.214 90.32-79.058 105.058-12.904 4.060-39.046 5.656-52.686 3.216zM139.946 734.86c-24.764-5.17-42.9-31.322-43.294-62.434-0.226-17.952 4.24-28.28 17.492-40.438 16.808-15.422 36.47-23.176 141.856-55.944 52.096-16.2 98.246-31.234 102.554-33.412 10.908-5.514 17.888-14.034 20.156-24.608 2.568-11.972 2.302-33.070-0.7-55.518-1.38-10.324-4.87-37.204-7.756-59.732-3.13-24.426-18.636-114.438-38.418-222.99-18.242-100.116-33.17-185.526-33.17-189.802 0-31.862 31.196-56.094 68.992-53.594 15.886 1.052 27.87 6.372 37.47 16.636 14.934 15.964 17.95 24.924 30.072 89.292 30.032 159.484 59.176 266.166 74.298 271.97 14.896 5.716 40.936-82.49 76.092-257.74 7.506-37.422 15.26-72.366 17.23-77.654 9.928-26.65 27.85-40.858 53.642-42.528 37.774-2.446 68.872 22.184 68.872 54.552 0 3.58-15.034 86.96-33.408 185.29-25.578 136.888-34.974 190.978-40.096 230.834-3.678 28.63-7.1 53.814-7.604 55.964-0.502 2.152-0.946 13.708-0.988 25.682-0.096 28.494 1.94 34.020 15.84 43.004 11.446 7.398 10.374 6.994 127.35 47.884 48.15 16.832 93.538 33.614 100.86 37.296 38.738 19.478 50.122 49.382 32.848 86.294-6.266 13.39-13.206 21.176-24.22 27.17-13.156 7.162-23.48 6.624-57.090-2.976-103.222-29.48-210.842-50.156-290.986-55.902-57.708-4.136-126.998 2.422-219.306 20.76-38.626 7.674-119.866 27.398-149.334 36.256-22.572 6.784-30.876 8.136-39.254 6.388z" />
<glyph unicode="&#xe901;" glyph-name="accessibility-outline" data-tags="accessibility-outline" d="M487.254 957.31c-39.426-8.706-72.842-40.994-83.802-80.966-4.782-17.448-4.028-44.838 1.724-62.63 14.844-45.902 58.224-77.288 106.824-77.288 48.598 0 91.958 31.37 106.83 77.288 5.712 17.636 6.446 45.002 1.676 62.63-9.976 36.886-39.144 67.334-75.226 78.53-15.864 4.922-41.832 6.012-58.026 2.436zM535.348 889.54c9.002-5.71 15.12-12.142 19.832-20.846 2.9-5.362 3.7-9.76 3.724-20.48 0.026-12.146-0.556-14.69-5.266-23.040-2.912-5.164-8.53-11.876-12.486-14.92-29.934-23.022-73.084-4.080-76.464 33.57-1.59 17.706 6.428 34.398 20.972 43.658 11.036 7.030 13.32 7.586 28.9 7.052 11.352-0.39 14.856-1.232 20.788-4.994zM163.84 735.242c-17.146-1.93-34.862-11.43-48.33-25.914-20.256-21.786-25.264-56.754-12.214-85.262 6.42-14.020 24.438-30.846 42.078-39.29 7.81-3.74 56.44-20.378 108.066-36.974s98.83-32.594 104.898-35.548c7.944-3.87 12.482-7.446 16.214-12.772 4.992-7.13 5.204-8.18 5.79-28.818 1.116-39.284-1.566-53.328-54.25-284.016-20.716-90.71-37.646-168.278-37.624-172.374 0.146-25.816 18.538-55.816 41.94-68.404 16.632-8.948 37.818-12.046 55.108-8.060 21.552 4.968 44.124 23.4 54.22 44.27 2.95 6.102 19.742 55.638 37.314 110.080 17.57 54.442 32.678 100.906 33.57 103.254 1.374 3.614 4.874-5.768 22.922-61.44 41.208-127.114 48.182-147.702 52.836-155.98 13.922-24.764 42.14-41.916 69.050-41.974 44.524-0.096 83.24 39.986 79.714 82.524-0.478 5.758-17.536 83.43-37.91 172.602-49.112 214.974-53.722 238.064-53.788 269.324-0.054 26.204 4.12 34.748 21.596 44.21 4.532 2.454 52.016 20.332 105.52 39.728 53.504 19.398 103.476 38.292 111.048 41.988 18.278 8.922 31.562 20.916 38.278 34.556 23.268 47.264-5.838 104.844-57.606 113.962-13.698 2.414-28.836 0.004-55.586-8.846-45.354-15.004-116.584-32.744-166.694-41.514-94.678-16.574-160.8-16.582-256-0.030-50.174 8.722-117.17 25.352-169.814 42.15-23.23 7.412-38.108 9.944-50.346 8.568zM187.040 668.094c35.724-12.336 111.544-32.108 159.414-41.574 122.338-24.194 209.776-24.182 331.092 0.044 49.16 9.816 116.486 27.466 155.18 40.682 15.088 5.152 20.61 5.402 25.842 1.164 3.058-2.476 3.932-4.964 4.030-11.454 0.118-7.956-0.156-8.446-6.736-12.108-3.772-2.098-50.62-19.68-104.108-39.072-109.524-39.708-124.828-46.56-143.37-64.172-21.072-20.016-28.464-41.366-28.562-82.51-0.096-39.032 3.020-55.112 53.526-276.342 20.554-90.038 37.372-165.544 37.372-167.794 0-14.56-18.472-19.694-27.118-7.536-4.956 6.968-84.278 254.234-93.158 290.392-4.264 17.364-8.85 33.992-10.19 36.95-3.238 7.142-11.92 13.534-21.742 16.002-10.69 2.686-22.942-1.192-30.326-9.602-2.86-3.258-5.2-6.14-5.2-6.404s-4.546-18.094-10.102-39.62c-8.458-32.772-85.81-276.822-90.54-285.658-2.784-5.202-8.292-8.848-13.592-9-6.48-0.184-15.472 7.61-15.472 13.41 0 2.128 17.224 79.36 38.274 171.628 21.052 92.268 40.966 181.584 44.256 198.48 12.994 66.724 12.598 109.786-1.286 139.946-8.602 18.69-27.040 36.134-49.55 46.876-5.818 2.776-53.512 18.952-105.988 35.946s-99.112 32.49-103.634 34.436c-14.286 6.146-19.258 17.858-11.214 26.42 4.576 4.87 9.84 4.978 22.902 0.47z" />
<glyph unicode="&#xe902;" glyph-name="accessibility-sharp" data-tags="accessibility-sharp" d="M491.74 958.194c-20.564-3.678-43.066-15.782-58.92-31.692-20.95-21.026-32.018-47.27-32.304-76.582-0.206-21.118 2.164-31.39 11.96-51.862 12.526-26.17 34.506-45.476 63.966-56.182 11.24-4.086 14.87-4.55 35.558-4.55s24.318 0.464 35.558 4.55c18.214 6.618 30.164 14.274 44.166 28.292 9.858 9.868 13.936 15.63 19.93 28.16 9.666 20.2 12.036 30.536 11.83 51.592-0.468 48.134-32.214 90.32-79.058 105.058-12.904 4.060-39.046 5.656-52.686 3.216zM120.432 711.904c47.135 171.169 41.656 154.179 36.194 137.181l-52.254-188.231-8.438-26.932 6.22-2.624c43.592-18.388 91.872-36.072 199.926-73.232 41.77-14.366 78.708-27.152 82.084-28.412l6.136-2.294-50.938-278.186c-28.018-153.004-50.648-278.966-50.292-279.918 0.634-1.696 110.364-33.75 111.532-32.582 0.564 0.564 90.918 348.52 90.918 350.128 0 0.424 9.132 0.772 20.294 0.772 19.622 0 20.328-0.128 21.266-3.84 10.656-42.162 89.884-346.628 90.312-347.054 1.172-1.172 110.902 30.876 111.538 32.576 0.356 0.952-22.264 126.912-50.268 279.91l-50.916 278.178 76.94 25.77c42.318 14.174 91.012 30.878 108.212 37.118 28.414 10.31 105.466 39.822 108.030 41.376 0.584 0.354-3.746 16.21-9.622 35.238-5.876 19.026-13.078 42.376-16.006 51.89l-5.324 17.294-18.334-4.968c-167.426-45.38-248.896-58.388-365.642-58.388-116.744 0-198.22 13.010-365.628 58.384l-18.32 4.964-7.62-24.118z" />
<glyph unicode="&#xe903;" glyph-name="add" data-tags="add" d="M495.486 762.842c-3.92-2.35-8.912-7.142-11.094-10.65l-3.966-6.378-0.466-132.644-0.468-132.644-265.306-0.952-7.218-4.694c-19.452-12.646-19.018-42.142 0.804-54.464l6.414-3.99 265.306-0.934 0.468-132.652 0.466-132.654 3.99-6.414c12.464-20.048 42.704-20.048 55.168 0l3.99 6.414 0.466 132.654 0.468 132.652 265.306 0.934 6.414 3.99c20.496 12.742 20.11 42.996-0.7 54.91l-7.422 4.248-263.598 0.934-0.468 132.652-0.466 132.654-3.99 6.414c-9.010 14.494-29.428 19.408-44.098 10.614z" />
<glyph unicode="&#xe904;" glyph-name="add-circle" data-tags="add-circle" d="M483.84 862.662c-129.122-8.23-246.304-76.866-319.924-187.386-52.584-78.938-77.298-184.642-64.91-277.622 12.652-94.958 52.752-176.708 119.346-243.302 67.052-67.052 146.886-106.054 245.008-119.692 8.448-1.174 30.336-2.136 48.64-2.136s40.192 0.962 48.64 2.136c98.002 13.622 177.904 52.678 244.964 119.736 67.058 67.060 106.114 146.962 119.736 244.964 2.752 19.8 2.752 77.48 0 97.28-13.556 97.532-52.656 177.808-118.9 244.114-23.638 23.662-41.302 38.154-67.324 55.234-75.122 49.31-163.904 72.498-255.276 66.674zM527.722 635.326c4.024-2.262 8.648-6.966 11.326-11.52l4.526-7.7 1.032-135.5 135.5-1.032 7.422-4.248c15.7-8.99 20.546-29.13 10.728-44.608-9.082-14.322-8.5-14.222-85.9-14.774l-67.75-0.482-1.032-135.568-4.526-7.7c-12.344-20.994-41.752-20.994-54.096 0l-4.526 7.7-1.032 135.568-67.75 0.482c-77.4 0.552-76.818 0.452-85.9 14.774-9.79 15.438-5.14 35.164 10.45 44.33l7.7 4.526 135.5 1.032 1.032 135.5 4.232 7.39c8.546 14.928 28.028 20.28 43.064 11.83z" />
<glyph unicode="&#xe905;" glyph-name="add-circle-outline" data-tags="add-circle-outline" d="M482.986 862.654c-79.598-5.126-156.634-34.148-223.572-84.228-21.178-15.844-62.496-57.192-78.31-78.368-43.692-58.504-70.444-122.73-81.534-195.738-4.122-27.148-4.122-85.492 0-112.64 11.092-73.022 37.88-137.322 81.546-195.738 16.080-21.51 57.316-62.746 78.826-78.826 58.416-43.666 122.716-70.454 195.738-81.546 27.148-4.122 85.492-4.122 112.64 0 73.052 11.096 137.508 37.956 195.738 81.57 21.51 16.112 62.69 57.292 78.802 78.802 43.614 58.23 70.474 122.686 81.57 195.738 4.122 27.148 4.122 85.492 0 112.64-13.504 88.906-50.824 166.314-110.588 229.38-73.082 77.12-169.666 122.176-276.72 129.086-26.392 1.704-25.564 1.706-54.136-0.132zM568.32 795.384c71.676-12.15 135.15-43.9 187.158-93.62 55.22-52.79 91.122-121.364 104.186-199 4.182-24.86 4.146-85.792-0.066-110.23-19.756-114.598-88.984-208.512-191.576-259.892-96.842-48.5-215.202-48.5-312.044 0-102.928 51.548-172.428 146.058-191.63 260.594-4.242 25.296-4.242 84.232 0 109.528 21.082 125.746 103.13 227.202 221.35 273.708 26.094 10.264 57.514 17.646 93.876 22.054 13.334 1.618 73.17-0.502 88.746-3.142zM495.486 634.842c-3.92-2.35-8.912-7.142-11.094-10.65-3.954-6.36-3.966-6.574-4.464-74.984l-0.5-68.604-137.242-1.030-7.218-4.694c-19.452-12.646-19.018-42.142 0.804-54.464 6.408-3.984 6.494-3.99 75.036-4.488l68.62-0.5 0.5-68.62c0.498-68.542 0.504-68.628 4.488-75.036 12.464-20.048 42.704-20.048 55.168 0 3.984 6.408 3.99 6.494 4.488 75.036l0.5 68.62 68.62 0.5c68.542 0.498 68.628 0.504 75.036 4.488 20.496 12.742 20.11 42.996-0.7 54.91l-7.422 4.248-135.534 1-0.5 68.62c-0.498 68.54-0.504 68.626-4.488 75.034-9.010 14.494-29.428 19.408-44.098 10.614z" />
<glyph unicode="&#xe906;" glyph-name="add-circle-sharp" data-tags="add-circle-sharp" d="M483.84 862.662c-129.122-8.23-246.304-76.866-319.924-187.386-52.584-78.938-77.298-184.642-64.91-277.622 12.652-94.958 52.752-176.708 119.346-243.302 67.052-67.052 146.886-106.054 245.008-119.692 8.448-1.174 30.336-2.136 48.64-2.136s40.192 0.962 48.64 2.136c98.002 13.622 177.904 52.678 244.964 119.736 67.058 67.060 106.114 146.962 119.736 244.964 2.752 19.8 2.752 77.48 0 97.28-13.556 97.532-52.656 177.808-118.9 244.114-23.638 23.662-41.302 38.154-67.324 55.234-75.122 49.31-163.904 72.498-255.276 66.674zM544.426 559.786v-79.36h158.72v-64.852h-158.686l-0.444-79.788-0.442-79.786h-63.148l-0.442 79.786-0.444 79.788h-158.686v64.852h158.72v158.72h64.852v-79.36z" />
<glyph unicode="&#xe907;" glyph-name="add-outline" data-tags="add-outline" d="M495.486 762.842c-3.92-2.35-8.912-7.142-11.094-10.65l-3.966-6.378-0.466-132.644-0.468-132.644-265.306-0.952-7.218-4.694c-19.452-12.646-19.018-42.142 0.804-54.464l6.414-3.99 265.306-0.934 0.468-132.652 0.466-132.654 3.99-6.414c12.464-20.048 42.704-20.048 55.168 0l3.99 6.414 0.466 132.654 0.468 132.652 265.306 0.934 6.414 3.99c20.496 12.742 20.11 42.996-0.7 54.91l-7.422 4.248-263.598 0.934-0.468 132.652-0.466 132.654-3.99 6.414c-9.010 14.494-29.428 19.408-44.098 10.614z" />
<glyph unicode="&#xe908;" glyph-name="add-sharp" data-tags="add-sharp" d="M479.574 623.796v-143.35l-287.574-0.872v-63.148l287.554-0.872 0.436-143.778 0.436-143.776h63.148l0.436 143.776 0.436 143.778 287.554 0.872v63.148l-287.574 0.872v286.7h-64.852v-143.35z" />
<glyph unicode="&#xe909;" glyph-name="airplane" data-tags="airplane" d="M309.972 861.92c-8.428-3.006-17.514-11.784-20.004-19.33-1.066-3.228-1.564-9.426-1.106-13.776 0.588-5.606 19.67-49.372 65.578-150.414l64.75-142.506-16.316-1.066c-8.972-0.584-52.554-1.54-96.848-2.122l-80.534-1.056-35.496 43.082c-19.522 23.694-37.808 45.28-40.638 47.966s-10.136 7.294-16.238 10.24l-11.094 5.356-32.866 0.528c-31.374 0.504-33.176 0.354-39.656-3.288-10.058-5.654-15.9-15.082-16.616-26.818-0.5-8.218 2.584-21.032 20.466-85.074l21.056-75.396-20.938-74.79c-13.126-46.888-20.958-77.846-20.992-82.98-0.096-14.764 10.22-28.566 24.53-32.816 9.834-2.92 41.81-3.334 59.546-0.77 21.822 3.156 24.702 5.726 74.586 66.524 18.1 22.058 33.376 40.64 33.95 41.292 1.302 1.486 190.862-2.704 192.41-4.252 0.622-0.624-27.866-65.084-63.306-143.246-35.442-78.164-64.834-144.946-65.314-148.406-1.358-9.762 0.916-17.956 6.868-24.734 9.724-11.074 15.078-12.414 49.738-12.458 36.592-0.044 46.51 2.030 57.982 12.128 4.112 3.62 64.186 75.35 133.498 159.398l126.020 152.816 13.812-1.12c7.596-0.616 52.918-1.218 100.718-1.336 94.462-0.234 98.276 0.052 132.988 10.030 30.836 8.862 58.244 26.642 70.158 45.514 13.888 21.996 14.398 53.472 1.232 75.982-10.428 17.828-37.41 36.36-66.27 45.516-35.754 11.342-64.44 13.824-143.36 12.404-33.792-0.61-72.192-1.574-85.332-2.146l-23.894-1.040-128.288 155.934c-96.192 116.924-130.18 157.11-135.852 160.626-4.16 2.58-11.624 5.46-16.586 6.4-13.76 2.61-64.348 2.052-72.342-0.796z" />
<glyph unicode="&#xe90a;" glyph-name="airplane-outline" data-tags="airplane-outline" d="M313.174 862.928c-7.718-1.994-11.798-4.59-17.602-11.2-5.786-6.588-8.038-14.842-6.692-24.53 0.48-3.46 29.97-70.42 65.532-148.798l64.658-142.506-11.988-1.028c-6.594-0.564-50.344-1.332-97.224-1.706l-85.234-0.68-33.010 40.106c-41.144 49.99-44.378 53.332-58.234 60.158-11.21 5.522-11.406 5.552-40.99 6.12-16.35 0.314-32.352 0.080-35.56-0.522-7.056-1.324-18.944-11.646-22.104-19.194-1.264-3.020-2.296-8.78-2.294-12.8 0.004-4.108 9.19-40.294 20.98-82.644l20.974-75.336-20.92-74.85c-13.040-46.65-20.944-77.932-20.98-83.026-0.096-13.284 9.188-27.26 21.274-32.028 7.43-2.93 43.902-4.060 60.218-1.864 24.674 3.32 26.718 5.114 79.728 70.030l32.428 39.708 25.6-0.962c14.080-0.528 51.328-1.372 82.772-1.876 31.446-0.504 63.386-1.34 70.976-1.858l13.804-0.942-64.838-142.804c-71.792-158.12-70.306-154.074-62.19-169.232 3.1-5.792 6.354-8.838 13.36-12.506l9.262-4.852 34.986 0.604c40.258 0.696 44.286 1.822 58.382 16.336 4.312 4.44 63.222 75.274 130.91 157.408l123.070 149.332 37.954-0.852c20.872-0.47 66.368-0.84 101.098-0.822 68.184 0.034 76.522 0.814 109.226 10.214 36.024 10.354 61.708 28.93 73.788 53.374 6.208 12.564 6.426 13.614 6.426 31.1 0 17.468-0.222 18.546-6.394 31.034-15.282 30.922-50.914 51.214-106.298 60.536-15.536 2.614-28.16 3.15-74.188 3.15-30.506 0-74.708-0.6-98.226-1.336l-42.762-1.334-128.236 155.788c-70.528 85.684-130.774 157.472-133.878 159.53s-7.948 4.686-10.764 5.842c-5.91 2.426-68.632 3.83-76.8 1.718zM490.748 648.534c60.864-74.156 116.336-141.56 123.272-149.79 12.64-15 18.582-19.47 29.030-21.836 3.086-0.698 43.406-0.18 89.6 1.152 62.114 1.79 90.754 1.958 109.958 0.646 39.786-2.718 70.398-11.556 80.712-23.3 2.808-3.2 5.106-6.5 5.106-7.334s-2.096-4.008-4.656-7.052c-9.206-10.94-38.276-20.35-73.85-23.906-14.986-1.498-41.062-1.448-110.274 0.216-49.856 1.198-93.472 1.72-96.924 1.16s-8.914-2.648-12.138-4.642c-3.434-2.122-56.834-65.436-128.98-152.928-67.716-82.12-123.386-149.040-123.714-148.712s26.228 59.766 59.014 132.084c32.784 72.318 60.094 134.522 60.688 138.23 2.306 14.418-6.824 31.512-20.32 38.046-7.494 3.628-10.806 3.814-108.954 6.154-135.192 3.22-159.714 3.206-167.614-0.094-9.91-4.14-17.188-11.806-56.658-59.682-20.462-24.822-37.418-44.916-37.678-44.656s6.798 26.54 15.688 58.398c11.7 41.94 16.164 60.61 16.172 67.654 0.008 7.086-4.352 25.392-16.058 67.412-8.84 31.728-15.842 57.914-15.564 58.194 0.28 0.28 14.232-16.228 31.004-36.682 48.050-58.598 49.482-60.148 60.080-65l9.426-4.314 53.028 0.392c29.166 0.218 88.358 1.002 131.536 1.744 87.42 1.502 85.808 1.278 96.788 13.432 7.462 8.26 10.51 17.042 9.514 27.412-0.55 5.72-16.796 43.256-58.45 135.054-66.4 146.336-65.090 143.372-61.856 139.934 1.324-1.408 52.206-63.232 113.072-137.386z" />
<glyph unicode="&#xe90b;" glyph-name="airplane-sharp" data-tags="airplane-sharp" d="M271.364 863.146c0.002-0.704 33.254-74.624 73.89-164.266l73.886-162.986-17.996-1.086c-9.898-0.596-53.492-1.558-96.872-2.134l-78.876-1.050-88.010 107.45-105.024 0.072 0.89-3.84c7.658-33.042 40.602-185.428 40.492-187.306-0.082-1.408-9.412-44.404-20.734-95.548-11.32-51.144-20.584-93.96-20.584-95.148 0-1.69 11.048-2.158 51.1-2.158h51.1l44.048 53.238c24.224 29.282 44.814 54.216 45.752 55.408 1.38 1.754 19.906 1.744 96.864-0.056 52.336-1.224 95.64-2.71 96.232-3.304 0.594-0.592-32.052-74.252-72.542-163.69-40.492-89.436-73.62-163.188-73.62-163.89 0-0.704 28.020-1.278 62.266-1.278h62.266l16.668 20.062c9.166 11.034 69.234 84.022 133.482 162.196l116.816 142.132 14.044-1.14c7.724-0.626 53.076-1.23 100.784-1.342 94.266-0.22 98.126 0.072 132.82 10.044 51.1 14.686 81.068 45.778 81.068 84.11 0 22.356-7.274 38.378-24.916 54.88-19.706 18.436-52.586 31.41-96.258 37.986-16.676 2.51-84.274 2.904-158.84 0.924l-48.762-1.296-267.044 324.296h-62.198c-34.208 0-62.194-0.576-62.192-1.28z" />
<glyph unicode="&#xe90c;" glyph-name="alarm" data-tags="alarm" d="M200.534 829.618c-37.902-7.298-71.534-33.578-90.196-70.48-9.074-17.94-13.46-37.030-13.652-59.404-0.252-29.54 5.246-45.7 23.914-70.3 6.918-9.114 11.568-13.396 18.078-16.64 10.884-5.422 24.388-5.806 34.994-0.992 5.072 2.302 27.102 22.764 72.886 67.696 71.804 70.468 72.832 71.746 72.832 90.542 0 14.238-6.524 26.16-19.642 35.894-12.514 9.286-30.544 18.118-44.602 21.85-14.198 3.768-40.060 4.636-54.612 1.834zM776.534 829.53c-20.42-4.39-35.232-11.090-52.282-23.652-18.59-13.696-25.014-35.356-16.106-54.306 4.984-10.604 131.394-134.874 142.174-139.766 10.704-4.858 24.108-4.44 35.224 1.1 6.812 3.394 11.186 7.422 18.068 16.64 18.494 24.766 23.854 40.658 23.67 70.188-0.186 30.138-7.852 53.922-25.306 78.506-17.112 24.104-42.558 41.948-70.638 49.54-13.888 3.752-41.4 4.632-54.804 1.75zM468.644 765.204c-60.704-7.79-121.22-32.622-170.004-69.758-42.646-32.464-77.986-75.738-102.42-125.42-18.512-37.642-29.998-77.358-34.24-118.398-2.756-26.652-1.134-72.598 3.422-96.994 10.026-53.672 32.632-106.084 63.34-146.86 6.544-8.688 11.898-16.348 11.898-17.018 0-0.672-17.604-18.908-39.122-40.522-42.478-42.672-42.58-42.824-40.658-59.876 2.276-20.204 25.662-32.232 44.682-22.984 4.222 2.054 21.588 18.046 44.368 40.858l37.432 37.486 7.796-6.452c19.59-16.208 50.722-34.718 78.296-46.55 114.688-49.212 249.712-33.498 347.79 40.474 8.038 6.062 15.096 11.024 15.682 11.024 0.588 0 18.384-17.178 39.548-38.17 41.672-41.338 44.288-43.15 60.078-41.632 20.352 1.954 34.236 27.116 24.798 44.936-1.458 2.75-19.596 21.888-40.31 42.53-20.712 20.644-37.66 38.056-37.66 38.694 0 0.64 4.828 7.562 10.726 15.384 31.434 41.678 52.474 89.194 63.722 143.91 4.634 22.544 4.91 26.256 4.884 65.708-0.030 46.99-2.332 64.172-13.558 101.204-40.242 132.766-154.050 229.782-290.714 247.822-21.036 2.778-70.256 3.108-89.776 0.604zM529.67 666.386c3.322-2.278 7.81-7.226 9.972-10.996l3.932-6.856v-242.598l-4.696-7.094c-2.582-3.902-7.958-8.838-11.946-10.968-7.204-3.848-7.788-3.878-89.172-4.426-90.562-0.612-95.992-0.162-106.174 8.778-15.72 13.802-14.104 38.734 3.254 50.226l7.092 4.694 137.488 0.964 0.504 100.212c0.448 89.444 0.806 100.762 3.328 105.332 3.414 6.19 9.064 11.622 15.948 15.332 7.466 4.026 22.696 2.726 30.47-2.6z" />
<glyph unicode="&#xe90d;" glyph-name="alarm-outline" data-tags="alarm-outline" d="M200.534 829.562c-24.838-4.918-42.24-13.892-60.808-31.36-23.402-22.016-36.272-45.878-41.75-77.41-3.114-17.934-2.302-38.066 2.142-53.044 6.59-22.208 24.708-48.050 38.516-54.93 10.93-5.448 24.412-5.838 35.040-1.014 5.074 2.302 26.902 22.56 72.134 66.948 71.21 69.88 73.338 72.502 73.338 90.326 0 11.076-1.72 16.662-7.892 25.638-7.786 11.316-34.71 27.576-54.508 32.918-14.368 3.876-41.646 4.812-56.212 1.928zM782.506 830.896c-19.89-3.202-37.908-10.688-55.774-23.17-15.532-10.852-21.878-22.064-21.878-38.648 0-17.848 2.106-20.444 73.332-90.326 45.216-44.364 67.074-64.65 72.142-66.95 10.624-4.822 24.108-4.432 35.038 1.016 13.808 6.88 31.926 32.722 38.516 54.93 4.444 14.978 5.256 35.11 2.142 53.044-5.506 31.696-18.338 55.386-42.12 77.758-14.956 14.070-33.38 24.448-51.904 29.236-10.49 2.712-40.324 4.588-49.494 3.11zM238.74 765.596c1.776-1.126-7.326-11.028-36.446-39.654-21.346-20.986-39.5-38.412-40.34-38.724-2.336-0.87-1.778 19.96 0.792 29.582 6.194 23.184 22.612 41.638 42.608 47.89 8.158 2.552 29.858 3.14 33.386 0.906zM464.214 764.572c-60.696-8.326-122.716-34.692-169.814-72.188-74.090-58.988-120.762-142.824-132.222-237.512-4.090-33.778-1.128-83.42 7.076-118.658 10.978-47.156 34.57-97.1 63.066-133.51 4.576-5.848 8.32-11.202 8.32-11.9s-17.232-18.57-38.292-39.716c-21.062-21.146-39.11-40.61-40.108-43.252-7.168-18.986 6.166-41.14 26.114-43.388 14.666-1.654 17.844 0.58 59.192 41.596 21.164 20.992 38.96 38.17 39.548 38.17 0.586 0 7.644-4.962 15.682-11.024 58.146-43.854 134.758-69.19 209.224-69.19 78.020 0 152.768 25.826 218.050 75.338l7.276 5.518 38.804-38.49c41.694-41.36 44.836-43.572 59.516-41.918 20.252 2.282 33.346 24.020 26.14 43.388-0.984 2.642-19.124 22.182-40.31 43.42-28.436 28.506-38.132 39.242-37.038 41.004 0.814 1.312 5.754 8.126 10.974 15.144 35.532 47.754 58.834 106.444 66.368 167.164 2.566 20.696 2.158 67.872-0.768 88.456-8.564 60.244-31.722 116.858-67.076 163.976-12.132 16.168-41.42 46.664-58.352 60.754-48.934 40.722-112.712 68.416-176.966 76.838-23.632 3.098-71.744 3.088-94.404-0.020zM826.378 761.494c16.248-7.95 29.646-25.12 34.876-44.694 2.57-9.622 3.128-30.452 0.792-29.582-0.84 0.312-18.994 17.738-40.34 38.724-29.716 29.212-38.258 38.532-36.446 39.762 1.302 0.884 8.956 1.342 17.012 1.014 11.664-0.474 16.57-1.536 24.106-5.224zM555.52 700.382c82.366-12.236 157.308-61.958 201.62-133.768 28.294-45.852 41.836-94.43 41.866-150.188 0.022-39.678-5.114-68.948-18.050-102.844-42.42-111.156-148.634-184.666-267.27-184.97-65.574-0.168-123.712 19.162-175.934 58.5-36.484 27.48-68.498 67.922-87.84 110.958-30.552 67.976-33.34 147.6-7.63 217.796 21.422 58.484 65.25 112.162 117.81 144.29 41.388 25.296 82.042 38.54 131.428 42.814 11.544 1 50.438-0.574 64-2.588zM499.168 669.288c-7.078-3.212-15.63-13.376-17.786-21.134-1.152-4.148-1.794-40.982-1.8-103.3l-0.008-96.854-66.988-0.038c-61.732-0.034-67.536-0.288-74.010-3.228-18.294-8.306-23.804-33.826-10.558-48.912 10.872-12.382 5.96-11.822 103.768-11.822 85.826 0 88.054 0.084 94.72 3.566 3.756 1.96 9.132 6.826 11.948 10.814l5.12 7.248v244.862l-4.114 6.002c-6.448 9.412-14.38 13.95-25.486 14.584-5.7 0.326-11.764-0.406-14.806-1.788z" />
<glyph unicode="&#xe90e;" glyph-name="alarm-sharp" data-tags="alarm-sharp" d="M200.534 829.622c-37.358-7.204-71.558-33.56-89.392-68.888-9.94-19.692-14.282-38.052-14.424-61-0.138-22.124 2.18-33.24 10.304-49.422 10.134-20.186 30.546-42.298 47.448-51.4l5.574-3.002 175.876 171.972-2.49 4.816c-1.37 2.65-7.256 9.644-13.080 15.544-32.784 33.212-79.146 49.224-119.816 41.38zM781.25 830.354c-18.21-3.328-38.060-11.892-56.77-24.49-11.644-7.84-30.196-25.984-33.91-33.166l-2.49-4.816 175.876-171.972 5.574 3.002c16.902 9.102 37.314 31.214 47.448 51.4 8.124 16.182 10.442 27.298 10.304 49.422-0.186 30.138-7.852 53.922-25.306 78.506-17.118 24.112-42.61 41.984-70.638 49.528-11.77 3.166-39.172 4.582-50.088 2.586zM468.644 765.204c-60.782-7.8-120.584-32.352-170.354-69.938-18.15-13.708-52.274-47.834-65.982-65.984-39.232-51.946-63.732-113.834-70.328-177.654-2.756-26.652-1.134-72.598 3.422-96.994 10.026-53.672 32.632-106.084 63.34-146.86 6.544-8.688 11.898-16.494 11.898-17.344s-21.312-22.326-47.36-47.722l-47.36-46.178 46.046-46.196 95.608 95.374 5.972-5.148c10.99-9.474 43.338-30.156 60.824-38.89 46.56-23.256 92.566-35.050 144.83-37.132 79.41-3.16 159.744 21.68 222.024 68.652 8.038 6.062 15.126 11.024 15.75 11.024 0.626 0 22.262-21.088 48.082-46.86l46.944-46.86 47.786 45.68-7.68 7.576c-4.224 4.168-25.728 25.124-47.786 46.568-22.058 21.446-40.33 39.498-40.602 40.114-0.272 0.618 4.364 7.562 10.3 15.434 22.724 30.128 39.016 61.392 51.544 98.906 12.996 38.926 17.926 69.312 17.978 110.846 0.070 55.136-9.226 98.44-30.684 142.952-47.71 98.962-150.644 182.822-247.47 201.608-9.856 1.912-24.428 4.262-32.382 5.222-17.118 2.068-67.634 1.95-84.36-0.196zM544.010 527.786l-0.436-143.786-222.72-0.878v64.878h158.72v223.574h64.872l-0.436-143.788z" />
<glyph unicode="&#xe90f;" glyph-name="albums" data-tags="albums" d="M275.612 828.818c-28.342-12.876-24.304-53.308 5.972-59.802 12.246-2.626 448.586-2.626 460.832 0 30.276 6.494 34.314 46.926 5.972 59.802-6.508 2.956-18.002 3.108-236.388 3.108s-229.88-0.152-236.388-3.108zM217.358 734.81c-21.676-5.218-31.598-28.714-20.008-47.374 2.97-4.784 7.57-9.274 11.716-11.442l6.828-3.568h592.212l6.828 3.568c21.63 11.306 21.97 43.092 0.594 55.332l-7.422 4.248-292.692 0.264c-160.982 0.144-295.106-0.318-298.056-1.028zM158.622 635.244c-31.358-10.692-51.668-32.356-59.672-63.656-3.272-12.792-3.376-19.542-3.376-218.268 0-138.062 0.596-208.376 1.824-215.194 3.16-17.542 13.384-36.12 26.894-48.866 12.944-12.21 24.926-18.744 41.556-22.666 16.294-3.84 676.010-3.84 692.304 0 16.63 3.922 28.612 10.456 41.556 22.666 13.51 12.746 23.734 31.324 26.894 48.866 1.228 6.818 1.824 77.132 1.824 215.194 0 198.976-0.1 205.46-3.388 218.316-7.944 31.060-28.51 52.988-59.66 63.608l-11.192 3.814h-684.372l-11.192-3.814z" />
<glyph unicode="&#xe910;" glyph-name="albums-outline" data-tags="albums-outline" d="M279.040 830.562c-31.518-10.362-29.714-54.628 2.51-61.538 12.308-2.64 448.592-2.64 460.9 0 16.378 3.512 26.99 18.3 25.108 34.99-0.996 8.838-4.424 14.238-13.906 21.914l-6.448 5.218-232.376 0.27c-127.806 0.148-233.91-0.236-235.788-0.854zM216.894 735.196c-7.504-1.432-17.072-8.866-20.79-16.154-7.602-14.902-2.408-33.874 11.668-42.626l6.414-3.99h595.628l6.414 3.99c20.496 12.742 20.11 42.996-0.7 54.91l-7.422 4.248-293.546 0.204c-161.45 0.112-295.4-0.15-297.666-0.582zM160.568 636.436c-30.196-8.118-57.446-38.194-63.158-69.71-1.246-6.866-1.828-76.106-1.808-215.040 0.034-223.124-0.178-217.898 9.642-238.162 6.578-13.574 27.43-33.934 41.53-40.548 6.1-2.862 15.162-6.052 20.136-7.090 12.802-2.67 677.378-2.67 690.18 0 4.974 1.038 14.036 4.228 20.136 7.090 14.1 6.614 34.952 26.974 41.53 40.548 9.82 20.264 9.608 15.038 9.642 238.162 0.020 138.934-0.562 208.174-1.808 215.040-5.788 31.932-33.112 61.778-63.896 69.796-8.914 2.322-49.526 2.612-351.48 2.512-293.316-0.096-342.702-0.462-350.646-2.598zM849.892 572.84c3.24-1.738 7.452-5.25 9.36-7.804 3.436-4.602 3.472-6.566 3.914-211.598l0.448-206.954-3.86-5.672c-2.124-3.12-6.028-7.278-8.68-9.242l-4.818-3.57h-668.512l-4.818 3.57c-2.652 1.964-6.556 6.122-8.68 9.242l-3.86 5.672 0.448 206.954c0.442 205.032 0.478 206.996 3.914 211.598 1.908 2.554 6.12 6.066 9.36 7.804 5.676 3.044 18.032 3.16 337.892 3.16s332.216-0.116 337.892-3.16z" />
<glyph unicode="&#xe911;" glyph-name="albums-sharp" data-tags="albums-sharp" d="M256 799.574v-32.428h512v64.854h-512v-32.426zM191.906 734.238c-0.464-1.208-0.632-15.61-0.374-32.004l0.468-29.808h640v63.148l-319.626 0.43c-259.432 0.35-319.784 0.018-320.468-1.766zM95.574 351.574v-287.574h832.852v575.146h-832.852v-287.572z" />
<glyph unicode="&#xe912;" glyph-name="alert" data-tags="alert" d="M496.358 829.634c-16.484-3.544-34.686-18.246-43.098-34.81-1.566-3.082-3.434-10.486-4.152-16.454-1.754-14.564 14.224-446.5 16.868-455.978 1.072-3.848 4.784-10.746 8.248-15.33 18.774-24.84 56.728-24.904 75.454-0.128 3.412 4.512 7.084 11.028 8.162 14.476 1.222 3.906 4.866 83.81 9.664 211.924 9.152 244.324 9.142 243.78 5.196 255.658-6.53 19.662-27.278 37.584-47.604 41.124-13.008 2.266-16.214 2.212-28.738-0.482zM496.51 189.664c-19.064-4.104-36.818-20.1-44.284-39.9-10.1-26.784 0.626-59.166 24.93-75.264 10.904-7.222 19.458-9.572 34.844-9.572s23.94 2.35 34.844 9.572c31.050 20.566 37.904 63.984 14.73 93.3-8.544 10.81-21.93 19.228-34.896 21.946-12.514 2.624-17.67 2.61-30.168-0.082z" />
<glyph unicode="&#xe913;" glyph-name="alert-circle" data-tags="alert-circle" d="M483.84 862.662c-129.122-8.23-246.304-76.866-319.924-187.386-52.584-78.938-77.298-184.642-64.91-277.622 12.652-94.958 52.752-176.708 119.346-243.302 67.052-67.052 146.886-106.054 245.008-119.692 8.448-1.174 30.336-2.136 48.64-2.136s40.192 0.962 48.64 2.136c98.002 13.622 177.904 52.678 244.964 119.736 67.058 67.060 106.114 146.962 119.736 244.964 2.752 19.8 2.752 77.48 0 97.28-13.556 97.532-52.656 177.808-118.9 244.114-23.638 23.662-41.302 38.154-67.324 55.234-75.122 49.31-163.904 72.498-255.276 66.674zM532.838 665.964c9.682-5.694 14.060-10.598 18.58-20.82 4.42-9.992 4.412-10.412-3.378-172.398-5.13-106.664-4.802-104.18-14.98-113.81-6.014-5.69-12.49-8.216-21.060-8.216-11.93 0-22.674 6.618-28.334 17.45-3.308 6.334-3.522 9.4-9.276 133.188-5.842 125.71-6.006 135.102-2.5 143.49 4.864 11.64 15.338 21.028 28.152 25.234 8.028 2.634 24.926 0.512 32.796-4.118zM523.21 302.13c17.416-5.196 28.076-19.664 28.006-38.004-0.048-12.36-4.144-21.582-13.228-29.772-6.848-6.201-15.975-9.996-25.988-9.996s-19.14 3.795-26.021 10.026l0.033-0.029c-9.164 8.262-13.18 17.392-13.228 30.068-0.066 17.946 10.382 32.352 27.27 37.596 10.016 3.11 13.054 3.124 23.156 0.112z" />
<glyph unicode="&#xe914;" glyph-name="alert-circle-outline" data-tags="alert-circle-outline" d="M482.986 862.654c-79.598-5.126-156.634-34.148-223.572-84.228-21.178-15.844-62.496-57.192-78.31-78.368-43.692-58.504-70.444-122.73-81.534-195.738-4.122-27.148-4.122-85.492 0-112.64 11.092-73.022 37.88-137.322 81.546-195.738 16.080-21.51 57.316-62.746 78.826-78.826 58.416-43.666 122.716-70.454 195.738-81.546 27.148-4.122 85.492-4.122 112.64 0 73.052 11.096 137.508 37.956 195.738 81.57 21.51 16.112 62.69 57.292 78.802 78.802 43.614 58.23 70.474 122.686 81.57 195.738 4.122 27.148 4.122 85.492 0 112.64-13.504 88.906-50.824 166.314-110.588 229.38-73.082 77.12-169.666 122.176-276.72 129.086-26.392 1.704-25.564 1.706-54.136-0.132zM568.32 795.384c71.676-12.15 135.15-43.9 187.158-93.62 55.22-52.79 91.122-121.364 104.186-199 4.182-24.86 4.146-85.792-0.066-110.23-19.756-114.598-88.984-208.512-191.576-259.892-96.842-48.5-215.202-48.5-312.044 0-102.928 51.548-172.428 146.058-191.63 260.594-4.242 25.296-4.242 84.232 0 109.528 21.082 125.746 103.13 227.202 221.35 273.708 26.094 10.264 57.514 17.646 93.876 22.054 13.334 1.618 73.17-0.502 88.746-3.142zM494.068 667.56c-9.476-4.412-18.69-13.858-22.604-23.17-1.662-3.95-2.52-11.318-2.438-20.918 0.28-32.618 10.704-241.602 12.35-247.606 2.194-7.994 10.868-18.082 18.17-21.134 7.056-2.948 17.852-2.948 24.908 0 7.304 3.052 15.976 13.142 18.168 21.134 1.712 6.248 12.074 216.092 12.21 247.272 0.076 17.62-1.922 24.006-10.606 33.896-12.33 14.042-33.202 18.422-50.158 10.526zM500.054 302.018c-29.51-9.164-37.306-46.716-14.048-67.664 6.85-6.201 15.979-9.996 25.994-9.996s19.144 3.795 26.027 10.026l-0.033-0.030c23.572 21.23 15.382 58.776-14.784 67.776-10.102 3.012-13.14 2.998-23.156-0.112z" />
<glyph unicode="&#xe915;" glyph-name="alert-circle-sharp" data-tags="alert-circle-sharp" d="M483.84 862.662c-129.122-8.23-246.304-76.866-319.924-187.386-52.584-78.938-77.298-184.642-64.91-277.622 12.652-94.958 52.752-176.708 119.346-243.302 67.052-67.052 146.886-106.054 245.008-119.692 8.448-1.174 30.336-2.136 48.64-2.136s40.192 0.962 48.64 2.136c98.002 13.622 177.904 52.678 244.964 119.736 67.058 67.060 106.114 146.962 119.736 244.964 2.752 19.8 2.752 77.48 0 97.28-13.556 97.532-52.656 177.808-118.9 244.114-23.638 23.662-41.302 38.154-67.324 55.234-75.122 49.31-163.904 72.498-255.276 66.674zM555.262 657.494c-1.196-22.92-10.836-286.382-10.836-296.124v-8.944h-64.852v8.944c0 9.742-9.64 273.204-10.836 296.124l-0.734 14.080h87.992l-0.734-14.080zM551.254 264.534v-40.108h-78.508v80.214h78.508v-40.106z" />
<glyph unicode="&#xe916;" glyph-name="alert-outline" data-tags="alert-outline" d="M496.358 829.634c-16.484-3.544-34.686-18.246-43.098-34.81-1.566-3.082-3.434-10.486-4.152-16.454-1.754-14.564 14.224-446.5 16.868-455.978 1.072-3.848 4.784-10.746 8.248-15.33 18.774-24.84 56.728-24.904 75.454-0.128 3.412 4.512 7.084 11.028 8.162 14.476 1.222 3.906 4.866 83.81 9.664 211.924 9.152 244.324 9.142 243.78 5.196 255.658-6.53 19.662-27.278 37.584-47.604 41.124-13.008 2.266-16.214 2.212-28.738-0.482zM496.51 189.664c-19.064-4.104-36.818-20.1-44.284-39.9-10.1-26.784 0.626-59.166 24.93-75.264 10.904-7.222 19.458-9.572 34.844-9.572s23.94 2.35 34.844 9.572c31.050 20.566 37.904 63.984 14.73 93.3-8.544 10.81-21.93 19.228-34.896 21.946-12.514 2.624-17.67 2.61-30.168-0.082z" />
<glyph unicode="&#xe917;" glyph-name="alert-sharp" data-tags="alert-sharp" d="M447.106 827.306c-0.108-12.444 17.442-535.746 18.030-537.6 0.52-1.636 11.412-2.132 46.864-2.132 35.458 0 46.342 0.494 46.85 2.132 0.548 1.76 18.228 529.812 18.056 539.308-0.050 2.79-4.3 2.986-64.906 2.986h-64.854l-0.040-4.694zM447.146 128v-64h129.708v128h-129.708v-64z" />
<glyph unicode="&#xe918;" glyph-name="american-football" data-tags="american-football" d="M673.28 894.104c-28.044-2.696-58.272-6.3-60.852-7.254-2.478-0.918 30.99-35.232 167.432-171.67 152.244-152.238 170.634-170.080 171.496-166.372 2.372 10.222 6.158 48.944 7.834 80.134 4.452 82.876-7.902 162.462-31.124 200.498-20.39 33.396-56.548 51.334-124.226 61.626-17.048 2.592-112.176 4.806-130.56 3.038zM507.734 864.444c-86.638-25.808-156.022-60.394-218.984-109.152-20.694-16.026-58.1-52.42-75.416-73.376-50.298-60.87-87.896-132.934-114.92-220.262-4.212-13.612-8.142-27.436-8.736-30.72l-1.078-5.974 401.006-400.854 17.598 4.862c97.058 26.826 185.582 72.844 249.222 129.554 81.706 72.81 141.030 172.792 174.606 294.274l4.862 17.598-200.424 200.43c-110.234 110.236-201.578 200.384-202.988 200.33-1.408-0.056-12.546-3.076-24.748-6.71zM679.734 631.676c6.642-2.84 14.008-10.422 16.478-16.96 2.67-7.068 2.21-19.334-0.96-25.574-1.526-3.004-13.21-16.030-25.966-28.948l-23.194-23.486 13.096-13.208c17.94-18.090 21.714-28.324 15.734-42.64-5.076-12.148-15.722-19.206-28.966-19.206-10.726 0-16.628 3.38-31.588 18.088l-12.83 12.618-44.146-44.244 12.036-12.432c14.382-14.852 17.842-21.024 17.926-31.99 0.116-14.884-8.164-25.996-22.88-30.71-12.328-3.95-22.532 0.518-40.158 17.588l-12.432 12.036-44.244-44.146 12.618-12.83c14.708-14.96 18.088-20.862 18.088-31.588 0-13.244-7.058-23.89-19.206-28.966-14.316-5.98-24.55-2.206-42.64 15.734l-13.208 13.096-23.486-23.194c-12.918-12.756-25.944-24.44-28.948-25.966-6.72-3.414-21.272-3.608-27.476-0.368-6.188 3.234-13.37 11.018-15.594 16.904-2.67 7.068-2.21 19.334 0.96 25.574 1.526 3.004 13.21 16.030 25.966 28.948l23.194 23.486-13.096 13.208c-17.94 18.090-21.714 28.324-15.734 42.64 5.076 12.148 15.722 19.206 28.966 19.206 10.726 0 16.628-3.38 31.588-18.088l12.83-12.618 44.146 44.244-12.036 12.432c-14.338 14.806-18.060 21.422-18.060 32.108 0 24.276 24.768 38.79 46.514 27.254 2.326-1.232 9.822-7.652 16.658-14.264l12.432-12.022 44.244 44.146-12.618 12.83c-14.708 14.96-18.088 20.862-18.088 31.588 0 13.244 7.058 23.89 19.206 28.966 14.322 5.984 24.548 2.206 42.668-15.762l13.236-13.122 22.604 22.432c12.434 12.338 25.294 24.034 28.578 25.988 7.018 4.178 19.586 4.728 27.788 1.218zM72.728 348.932c-1.824-5.548-6.222-50.6-7.948-81.418-2.976-53.138 1.202-107.788 11.382-148.9 16.034-64.768 41.872-90.448 107.304-106.66 39.42-9.768 91.38-13.748 145.406-11.14 34.066 1.644 79.618 6.212 83.674 8.392 1.312 0.704-61.396 64.608-168.456 171.664-110.132 110.128-170.834 169.662-171.362 168.062z" />
<glyph unicode="&#xe919;" glyph-name="american-football-outline" data-tags="american-football-outline" d="M666.454 929.878c-2.816-0.328-12.416-1.402-21.334-2.388-81.432-8.996-170.262-42.114-255.146-95.126-128.002-79.942-240.46-204.534-303.024-335.724-51.19-107.338-69-214.288-50.856-305.388 11.21-56.288 34.966-102.35 72.978-141.498 40.93-42.154 91.63-67.954 157.168-79.98 29.48-5.41 91.938-5.416 125.642-0.012 60.75 9.738 115.474 27.32 173.878 55.862 91.952 44.936 178.922 112.328 252.162 195.39 156.372 177.342 216.312 395.612 150.198 546.926-13.66 31.26-33.816 59.856-59.658 84.628-46.1 44.194-104.74 69.57-177.026 76.604-17.342 1.688-53.218 2.078-64.982 0.706zM756.184 861.206c47.7-10.378 80.342-27.462 110.95-58.072 30.632-30.632 47.804-63.458 58.040-110.95 4.604-21.37 6.29-72.25 3.296-99.524-1.16-10.572-2.514-19.886-3.008-20.7-0.852-1.406-290.582 287.014-290.582 289.27 0 2.582 32.786 4.56 67.414 4.068 30.212-0.43 40.738-1.23 53.89-4.092zM570.026 842.574c0-1.694 2.22-6.494 4.934-10.666 6.508-10.008 316.876-319.62 323.942-323.152 3.004-1.5 6.652-2.73 8.106-2.73 3.736 0 3.526-1.040-4.926-24.346-67.644-186.542-243.23-361.092-427.894-425.37-19.85-6.91-20.214-6.962-20.214-2.884 0 1.694-2.22 6.494-4.93 10.666-6.49 9.988-316.866 319.596-323.946 323.144-3.004 1.506-6.652 2.738-8.106 2.738-3.498 0-3.44 0.446 2.272 17.172 24.128 70.666 66.722 144.064 123.244 212.374 18.202 21.998 75.974 79.77 97.972 97.972 67.192 55.596 134.65 95.118 207.36 121.486 20.702 7.508 22.186 7.748 22.186 3.596zM654.506 632.464c-3.956-1.852-16.468-12.924-29.762-26.336l-22.934-23.14-13.46 12.86c-7.404 7.074-16.066 13.95-19.25 15.28-17.244 7.204-38.364-3.072-43.372-21.1-3.776-13.6-0.818-20.496 16.292-37.982l14.268-14.58-44.188-44.090-14.15 13.814c-17.21 16.796-24.766 19.846-39.23 15.828-8.49-2.358-16.488-9.356-20.312-17.774-6.816-15.004-3.198-25.494 15.186-44.034l13.13-13.242-43.43-43.43-10.686 10.482c-16.418 16.1-22.102 19.326-34.050 19.326-11.134 0-16.99-2.368-23.89-9.66-5.718-6.044-8.214-12.494-8.214-21.226 0-10.466 3.754-17.216 17.698-31.81l12.86-13.46-23.082-22.934c-12.694-12.616-24.562-25.786-26.372-29.268-5.824-11.204-2.736-29.488 6.344-37.55 9.284-8.244 25.418-10.426 36.086-4.88 3.482 1.81 16.644 13.67 29.248 26.354l22.916 23.060 14.164-13.406c8.24-7.802 16.76-14.266 20.376-15.458 20.658-6.818 42.452 8.546 42.342 29.85-0.058 11.18-3.34 17.088-18.16 32.688l-12.17 12.814 43.264 43.264 13.242-13.13c18.144-17.99 28.35-21.754 42.714-15.752 8.434 3.524 13.838 8.722 17.65 16.984 6.858 14.858 3.212 25.428-15.16 43.956l-13.122 13.234 44.174 44.272 14.604-14.292c11.042-10.804 16.374-14.768 21.852-16.242 24.042-6.474 45.92 17.468 37.97 41.554-1.192 3.616-7.656 12.136-15.458 20.376l-13.406 14.164 23.060 22.916c12.684 12.604 24.544 25.766 26.354 29.248 5.824 11.204 2.736 29.488-6.344 37.55-9.234 8.2-24.154 10.254-35.592 4.902zM389.12 34.812c0-2.188-37.844-5.516-62.294-5.478-71.658 0.11-127.7 21.038-169.96 63.466-18.198 18.27-27.52 31.154-38.43 53.108-16.132 32.466-22.762 61.69-24.070 106.106-0.858 29.096 1.316 67.432 4.076 71.9 0.908 1.468 290.678-286.732 290.678-289.102z" />
<glyph unicode="&#xe91a;" glyph-name="american-football-sharp" data-tags="american-football-sharp" d="M639.146 894.284c-0.938-0.326-7.658-1.098-14.932-1.716-7.276-0.62-13.228-1.68-13.228-2.356 0-1.632 342.996-342.138 343.804-341.308 0.346 0.354 1.598 8.322 2.784 17.71 2.928 23.18 2.476 82.424-0.896 117.76-4.638 48.576-17.556 131.182-26.736 170.946l-2.012 8.716-26.632 5.238c-91.792 18.060-160.368 25.944-223.752 25.728-20.18-0.068-37.46-0.392-38.4-0.718zM503.988 866.998c-95.882-27.802-183.914-75.58-247.234-134.184-75.866-70.214-129.996-161.29-163.798-275.602-4.192-14.178-7.622-26.85-7.622-28.164 0-2.106 117.124-119.612 335.624-336.72l68.532-68.096 20.042 5.516c81.63 22.462 157.282 58.734 218.88 104.946 29.258 21.95 70.998 62.396 92.6 89.732 30.344 38.402 61.046 90.486 81.63 138.486 9.81 22.874 26.884 72.112 32.686 94.262l3.968 15.148-201.494 201.172c-127.202 127-202.672 201.146-204.688 201.098-1.756-0.042-14.864-3.458-29.126-7.594zM680.428 572.908l-33.788-33.82 22.28-20.962c12.254-11.53 22.28-21.888 22.28-23.018 0-2.344-41.308-43.694-43.648-43.694-0.842 0-11.338 9.784-23.324 21.742l-21.792 21.744-45.176-45.176 44.308-44.408-45.178-45.176-44.39 44.29-44.376-44.276 44.376-44.468-45.258-45.164-45.188 45.188-67.46-67.4-44.294 44.392 67.366 67.428-45.204 45.204 45.196 45.194 45.29-45.196 44.276 44.374-21.736 21.784c-11.954 11.982-21.734 22.53-21.734 23.442 0 2.2 41.272 43.522 43.47 43.522 0.94 0 11.514-9.786 23.5-21.744l21.792-21.744 45.21 45.456-45.29 43.258 45.338 45.228 44.030-44.128 68.454 66.406 44.458-44.458-33.788-33.82zM66.824 334.156c-3.348-30.356-3.8-48.764-2.004-81.57 3.348-61.1 13.362-134.75 27.664-203.442l3.626-17.416 22.004-5.23c88.378-21.012 149.762-28.55 209.15-25.688 35.512 1.712 82.34 6.424 84.568 8.51 1.262 1.178-337.906 339.798-341.57 341.020-0.876 0.292-2.422-6.992-3.438-16.184z" />
<glyph unicode="&#xe91b;" glyph-name="analytics" data-tags="analytics" d="M893.136 701.394c-14.524-3.914-24.406-9.424-35.478-19.782-17.074-15.97-25.28-34.834-25.154-57.826 0.038-7.040 1.184-16.36 2.544-20.712l2.474-7.912-168.022-167.996-9.376 2.098c-9.058 2.028-35.99 1.52-45.724-0.862-3.812-0.932-10.6 5.3-63.686 58.466l-59.422 59.51 2.882 14.218c2.41 11.894 2.564 16.196 0.942 26.33-8.668 54.138-65.616 84.178-114.53 60.41-33.318-16.188-51.934-57.198-41.664-91.782l2.708-9.12-199.566-199.566-9.166 2.268c-13.776 3.41-33.168 2.678-46.484-1.754-12.898-4.292-28.528-15.080-36.582-25.248-20.942-26.44-23.258-64.856-5.564-92.21 28.828-44.562 88.454-50.78 124.728-13.006 12.014 12.51 19.528 27.3 22.026 43.348 1.748 11.234 0.422 27.224-2.986 35.992-1.644 4.232 2.544 8.68 98.472 104.598l100.19 100.178 11.024-2.598c14.176-3.342 23.516-3.314 37.168 0.11l11 2.758 119.414-119.414-2.758-11c-3.436-13.702-3.5-25.138-0.214-37.76 9.422-36.17 40.942-60.876 77.668-60.876 39.506 0 72.88 28.884 78.99 68.358 1.788 11.542 1.214 18.476-3.086 37.414-0.864 3.8 8.182 13.41 82.422 87.574l83.392 83.306 14.722-3.030c12.784-2.632 16.344-2.754 27.036-0.92 40.162 6.888 68.098 39.14 68.098 78.624 0 15.976-4.042 30.554-11.838 42.702-18.496 28.824-55.004 43.626-86.6 35.112z" />
<glyph unicode="&#xe91c;" glyph-name="analytics-outline" data-tags="analytics-outline" d="M891.912 701.28c-24.952-6.036-47.126-26.742-55.728-52.034-4.356-12.812-5.062-31.812-1.698-45.714l2.218-9.162-83.418-83.504c-74.796-74.872-83.86-83.398-87.686-82.462-9.74 2.382-36.666 2.888-45.728 0.86l-9.378-2.098-119.506 119.506 2.4 8.264c1.318 4.546 2.362 14.408 2.318 21.918-0.14 23.384-8.134 40.868-26.44 57.814-12.65 11.712-24.574 17.534-41.152 20.090-39.764 6.134-79.434-19.354-89.268-57.356-3.304-12.766-3.37-29.812-0.166-41.936l2.468-9.332-99.32-99.5c-95.026-95.196-99.542-99.454-104.442-98.456-26.716 5.442-42.198 4.318-60.014-4.354-28.204-13.728-44.946-40.394-44.946-71.582 0-52.77 48.966-90.862 99.78-77.626 25.556 6.656 46.972 26.736 55.61 52.138 4.356 12.814 5.062 31.812 1.696 45.718l-2.218 9.166 199.41 199.41 10.1-2.63c12.702-3.308 24.238-3.304 38.328 0.018l11.028 2.598 118.874-118.874-2.598-11.028c-6.642-28.176 0.848-54.924 21.016-75.052 16.66-16.626 33.814-23.866 56.548-23.866s39.888 7.24 56.548 23.866c20.166 20.128 27.658 46.876 21.016 75.050l-2.598 11.024 83.264 83.348c74.132 74.208 83.732 83.244 87.53 82.38 18.182-4.132 27.61-4.802 38.994-2.766 39.534 7.064 66.82 39.178 66.82 78.642 0 52.732-47.956 90.034-99.662 77.522zM920.15 637.302c1.896-1.014 4.542-4.47 5.884-7.68 6.41-15.34-11.656-28.032-24.354-17.11-10.070 8.662-3.838 26.634 9.236 26.634 3.184 0 7.338-0.83 9.234-1.844zM427.368 586.11c2.49-2.958 4.418-7.374 4.418-10.11s-1.928-7.152-4.418-10.11c-3.562-4.234-5.726-5.25-11.17-5.25-9.364 0-15.132 5.854-15.132 15.36s5.768 15.36 15.132 15.36c5.444 0 7.608-1.016 11.17-5.25zM650.11 363.368c9.006-7.578 6.766-21.002-4.274-25.616-16.212-6.774-29.352 14.336-15.946 25.616 2.958 2.49 7.374 4.418 10.11 4.418s7.152-1.928 10.11-4.418zM122.32 283.488c10.050-8.646 3.728-26.628-9.494-27.004-10.864-0.308-19.054 10.67-15.354 20.586 3.934 10.544 16.328 13.746 24.848 6.418z" />
<glyph unicode="&#xe91d;" glyph-name="analytics-sharp" data-tags="analytics-sharp" d="M879.634 701.468c-45.554-9.912-77.268-55.774-70.514-101.968l1.996-13.648-142.318-142.35-10.56 2.214c-13.352 2.798-23.126 2.798-36.48 0l-10.56-2.214-105.606 106.044 1.794 12.238c1.438 9.808 1.262 14.934-0.888 25.84-7.136 36.226-31.318 62.548-66.99 72.918-13.592 3.95-42.232 2.788-55.134-2.238-25.186-9.81-44.462-29.070-54.596-54.552-4.162-10.468-4.59-13.636-4.61-34.144l-0.020-22.606-174.39-174.366-13.724 2.008c-55.156 8.064-105.252-35.072-104.998-90.414 0.124-26.818 8.154-45.766 27.534-64.966 20.55-20.36 41.392-28.416 69.284-26.782 25.352 1.484 44.77 10.492 62.354 28.93 19.348 20.284 27.396 47.466 23.38 78.962l-1.308 10.24 173.674 173.608 8.846-1.898c11.536-2.474 30.060-2.418 41.076 0.126l8.764 2.022 105.090-105.050-1.63-8.804c-5.538-29.908 8.886-67.294 33.2-86.052 29.526-22.78 64.896-26.674 97.756-10.766 36.402 17.622 59.024 61.714 50.414 98.254l-1.608 6.826 72.048 72.186c63.618 63.738 72.55 72.082 76.316 71.286 32.782-6.92 64.61 2.028 86.894 24.428 36.876 37.070 37.024 93.416 0.344 130.058-22.592 22.568-53.312 31.486-84.83 24.63z" />
<glyph unicode="&#xe91e;" glyph-name="aperture" data-tags="aperture" d="M483.84 862.73c-10.326-0.704-25.198-2.248-33.050-3.43l-14.278-2.15 120.086-120.096c80.976-80.982 121.228-120.094 123.59-120.094 7.684 0 7.598-1.198 7.598 105.926v101.83l-11.52 5.15c-54.982 24.582-128.84 37.196-192.426 32.864zM354.986 833.054c-57.184-23.894-112.13-62.558-151.084-106.31-15.354-17.244-29.822-35.812-29.822-38.274 0-0.9 66.184-1.526 160-1.512 125.262 0.020 160.926 0.492 164.266 2.176 10.31 5.198 9.868 5.748-63.396 79.094-37.848 37.89-69.21 68.86-69.694 68.82-0.486-0.040-5.106-1.838-10.27-3.994zM752.64 623.142c0-176.478-0.434-168.406 8.938-165.998 2.124 0.546 34.458 31.616 71.852 69.044l67.992 68.050-6.178 14.922c-19.924 48.134-50.092 92.868-88.78 131.652-19.076 19.124-49.486 45.108-52.79 45.108-0.568 0-1.034-73.25-1.034-162.778zM132.15 617.386c-17.576-41.318-27.346-76.542-33.49-120.746-4.060-29.208-2.532-86.186 3.176-118.382l1.018-5.742 120.092 120.084c80.982 80.976 120.094 121.226 120.094 123.588 0 7.686 1.208 7.598-106.132 7.598h-102.036l-2.722-6.4zM442.714 621.592c-1.968-1.14-26.736-25.616-55.040-54.394l-51.46-52.322 0.060-66.292c0.044-48.83 0.606-67.22 2.134-69.822 1.84-3.138 81.776-80.686 102.35-99.296l8.020-7.252 64.464 0.060c47.354 0.044 65.422 0.61 68.072 2.134 1.984 1.14 26.752 25.622 55.040 54.406l51.432 52.336-0.060 66.278c-0.044 48.836-0.606 67.202-2.134 69.784-1.14 1.928-25.62 26.696-54.4 55.040l-52.328 51.534-66.286-0.060c-48.798-0.044-67.228-0.608-69.864-2.134zM800.78 403.126c-83.436-83.44-119.82-120.93-119.82-123.454 0-1.996 1.046-4.496 2.324-5.556 1.684-1.398 30.388-1.808 104.24-1.49l101.916 0.44 5.162 11.948c13.494 31.234 25.314 74.99 30.658 113.492 3.154 22.722 2.67 81.172-0.868 104.816-1.534 10.246-3.014 18.856-3.29 19.132s-54.422-53.422-120.322-119.328zM191.608 370.782l-69.044-68.984 6.184-14.94c20.048-48.432 49.87-92.658 88.788-131.67 21.156-21.208 49.578-45.108 53.642-45.108 2.916 0 2.608 318.474-0.312 324.266-5.202 10.32-5.738 9.89-79.258-63.564zM338.116 276.716c-1.398-1.684-1.808-30.388-1.49-104.24l0.44-101.916 11.948-5.162c31.294-13.52 75.256-25.384 113.492-30.632 30.202-4.144 86.754-2.688 119.236 3.070l5.742 1.018-120.084 120.092c-83.814 83.822-121.182 120.094-123.72 120.094-2 0-4.504-1.046-5.564-2.324zM522.258 204.822c-1.158-1.396-1.66-4.276-1.114-6.4s31.616-34.458 69.044-71.852l68.050-67.992 15.2 6.258c31.806 13.094 68.216 34.862 97.976 58.576 26.010 20.726 62.962 59.33 75.86 79.254l3.038 4.694h-162.974c-142.15 0-163.242-0.324-165.080-2.538z" />
<glyph unicode="&#xe91f;" glyph-name="aperture-outline" data-tags="aperture-outline" d="M482.986 862.718c-55.95-3.788-115.032-20.568-164.692-46.774-38.626-20.382-66.784-41.352-99.89-74.396-36.214-36.142-58.248-66.842-80.234-111.788-56.328-115.142-56.32-248.172 0.018-363.52 21.89-44.82 43.898-75.496 80.228-111.824 36.304-36.306 66.94-58.29 111.824-80.246 115.142-56.328 248.172-56.32 363.52 0.018 44.798 21.88 75.38 43.832 111.8 80.252 36.396 36.396 58.324 66.938 80.27 111.8 68.87 140.782 52.522 307.194-42.552 433.134-33.188 43.96-80.45 84.984-129.010 111.978-69.416 38.588-151.326 56.78-231.282 51.366zM568.32 795.348c36.656-6.13 70.578-17.244 102.826-33.686l16.64-8.486v-73.228c0-40.276-0.194-73.228-0.432-73.228s-43.822 43.472-96.852 96.604l-96.422 96.604 29.014-0.934c15.956-0.514 36.308-2.156 45.226-3.646zM465.482 737.718c26.524-26.512 48.224-48.784 48.224-49.494s-57.984-1.29-128.852-1.29c-74.272 0-128.854 0.644-128.854 1.52 0 2.664 28.31 28.432 44.736 40.72 19.42 14.528 39.9 26.9 61.334 37.054 18.59 8.806 46.766 19.472 51.786 19.602 2.242 0.060 19.844-16.346 51.626-48.112zM784.15 670.72c17.82-21.926 30.16-41.124 42.782-66.56 10.806-21.774 22.988-52.8 22.988-58.55 0-1.602-21.888-24.79-48.64-51.53l-48.64-48.618v259.274l9.512-9.328c5.234-5.13 15.132-16.24 21.998-24.688zM353.28 623.354c0-0.238-43.472-43.822-96.604-96.852l-96.604-96.422 0.934 29.014c1.784 55.364 13.242 100.804 37.332 148.052l8.486 16.64h73.228c40.276 0 73.228-0.194 73.228-0.432zM633.59 569.61l54.196-54.176v-134.828l-108.352-108.392h-134.828l-108.392 108.352v134.828l108.352 108.392h134.828l54.196-54.176zM863.066 436.48c-0.554-15.722-2.224-35.882-3.712-44.8-5.964-35.76-18.294-73.118-34.502-104.534l-7.704-14.932h-147.27l96.416 96.426c53.028 53.034 96.722 96.426 97.096 96.426 0.376 0 0.23-12.864-0.324-28.586zM271.36 320.484v-129.22l-9.512 9.328c-12.060 11.826-31.91 36.24-43.1 53.010-16.838 25.24-37.092 67.854-43.328 91.164l-2.074 7.758 48.57 48.592c26.712 26.724 48.766 48.59 49.006 48.59s0.438-58.15 0.438-129.222zM509.024 96.77c-49.33-1.254-105.422 12.030-154.464 36.58l-18.346 9.186v147.586l192.874-192.842-20.064-0.51zM753.942 192.882c-27.176-26.148-54.968-45.256-90.902-62.494-20.48-9.824-48.088-20.308-53.48-20.308-1.574 0-24.74 21.888-51.48 48.64l-48.618 48.64 259.392-0.13-14.912-14.348z" />
<glyph unicode="&#xe920;" glyph-name="aperture-sharp" data-tags="aperture-sharp" d="M433.494 863.652c0-0.682 121.392-121.37 222.292-221.004l35.414-34.968v256.746h-128.854c-70.868 0-128.852-0.348-128.852-0.774zM261.15 767.498l-99.81-74.592 87.438-0.442c48.090-0.242 126.796-0.242 174.902 0l87.466 0.442-73.202 74.24c-40.262 40.832-74.054 74.4-75.094 74.592-1.040 0.194-46.804-33.214-101.7-74.24zM756.054 624.96c0-96.39 0.464-175.254 1.034-175.254 0.568 0 31.096 29.31 67.84 65.132 6.014 5.938 30.456 29.768 54.912 53.585l28.33 27.469-67.952 91.18c-37.372 50.15-71.6 96.122-76.058 102.162l-8.106 10.98v-175.254zM95.574 499.63v-127.568l127.146 127.138c69.93 69.926 127.146 127.332 127.146 127.57 0 0.236-57.216 0.43-127.146 0.43h-127.146v-127.57zM388.684 571.298l-55.884-55.904v-134.788l111.768-111.806h134.864l111.768 111.806v134.826l-111.806 111.768h-134.826l-55.884-55.902zM798.72 399.36l-127.138-127.146h256.844v127.146c0 69.93-0.578 127.146-1.284 127.146s-58.496-57.216-128.422-127.146zM232.96 414.19c-17.834-17.644-51.464-50.576-74.73-73.182l-42.304-41.102 62.838-84.246c34.56-46.336 68.766-92.28 76.010-102.098l13.172-17.85v175.29c0 96.41-0.576 175.286-1.28 175.28-0.704-0.008-15.872-14.448-33.706-32.092zM331.51 159.146l0.436-126.72 256-0.87-127.142 127.156c-69.928 69.934-127.724 127.154-128.438 127.154-0.712 0-1.098-57.024-0.856-126.72zM513.706 202.912c0-0.568 29.31-31.096 65.132-67.84 5.938-6.014 29.768-30.456 53.585-54.912l27.469-28.33 91.18 67.952c50.15 37.372 96.122 71.6 102.162 76.058l10.98 8.106h-175.254c-96.39 0-175.254-0.464-175.254-1.034z" />
<glyph unicode="&#xe921;" glyph-name="apps" data-tags="apps" d="M193.12 862.634c-38.302-5.124-71.164-29.746-87.354-65.452-7.138-15.744-10.872-36.31-9.524-52.47 2.41-28.9 13.040-51.41 34.15-72.324 22.186-21.978 46.56-31.942 77.822-31.81 30.636 0.126 57.12 11.11 78.61 32.598 21.488 21.49 32.472 47.974 32.598 78.61 0.082 19.302-3.172 33.364-11.848 51.2-8.688 17.864-30.224 39.418-48.16 48.206-21.162 10.366-44.376 14.372-66.294 11.442zM496.916 862.634c-24.866-3.326-44.824-13.438-63.54-32.196-7.104-7.12-15.378-17.294-18.388-22.612-32.204-56.902-10.222-127.758 48.372-155.916 17.606-8.46 30.436-11.492 48.64-11.492 18.242 0 31.058 3.038 48.64 11.528 39.482 19.066 63.014 56.724 62.926 100.694-0.062 30.918-10.274 54.946-33.020 77.692-10.878 10.878-17.774 16.148-27.346 20.9-20.73 10.292-44.29 14.344-66.284 11.402zM800.702 862.634c-25.384-3.396-44.876-13.406-64.314-33.026-21.978-22.186-31.942-46.56-31.81-77.822 0.080-19.574 3.108-31.95 12.504-51.142 13.37-27.304 40.836-49.092 72.252-57.318 12.158-3.184 39.514-3.652 50.346-0.86 41.638 10.726 71.654 38.858 83.868 78.6 5.778 18.796 5.466 45.152-0.754 64.036-17.344 52.654-67.93 84.778-122.092 77.532zM177.86 555.624c-19.53-5.584-32.506-13.418-48.184-29.092-23.412-23.404-33.214-46.58-33.214-78.532 0-31.946 9.798-55.118 33.214-78.546 22.73-22.744 46.76-32.958 77.684-33.020 43.97-0.088 81.628 23.444 100.694 62.926 8.49 17.582 11.528 30.398 11.528 48.64 0 18.37-3.044 31.058-11.832 49.342-6.29 13.084-10.142 18.472-20.776 29.062-14.828 14.768-33.65 25.666-51.648 29.91-15.098 3.558-43.81 3.214-57.466-0.69zM484.694 556.348c-49.336-12.098-84.33-57.112-84.232-108.348 0.060-31.58 10.24-55.836 32.97-78.568 22.8-22.798 47.142-32.992 78.568-32.9 31.766 0.092 55.842 10.174 78.568 32.9 15.962 15.964 24.494 30.572 29.936 51.262 3.886 14.778 3.908 40.164 0.046 54.612-10.768 40.288-42.64 71.794-82.096 81.148-12.72 3.016-41.256 2.96-53.76-0.106zM787.894 556.234c-38.764-9.384-72.55-44.716-81.468-85.194-2.518-11.422-2.468-35.982 0.096-47.222 5.956-26.12 26.050-54.942 48.5-69.568 19.374-12.622 50.108-20.548 69.976-18.044 28.812 3.632 50.082 13.784 69.44 33.142 22.732 22.732 33.1 47.366 33.1 78.652 0 31.934-9.794 55.098-33.214 78.568-15.858 15.89-30.748 24.624-50.624 29.692-13.020 3.32-42.044 3.306-55.806-0.026zM181.206 252.766c-18.152-4.61-37.694-15.918-51.644-29.884-23.050-23.080-33.108-47.35-32.954-79.522 0.074-15.542 0.864-21.13 4.598-32.462 11.682-35.468 38.154-61.924 73.728-73.686 18.832-6.228 45.192-6.54 64-0.76 39.742 12.214 67.874 42.23 78.6 83.868 2.792 10.832 2.324 38.188-0.86 50.346-9.724 37.134-36.838 66.42-73.646 79.546-12.916 4.606-48.028 6.056-61.822 2.554zM484.992 252.658c-4.998-1.21-15.74-5.496-23.872-9.526-11.638-5.766-17.706-10.262-28.514-21.122-21.866-21.974-32.090-46.724-32.138-77.796-0.048-31.704 9.956-55.52 32.986-78.538 23.428-23.416 46.6-33.214 78.546-33.214 31.286 0 55.92 10.368 78.652 33.1 19.358 19.358 29.51 40.628 33.142 69.44 2.504 19.868-5.422 50.602-18.044 69.976-14.694 22.556-44.354 43.17-69.514 48.318-11.998 2.454-39.898 2.106-51.244-0.638zM795.306 253.968c-20.074-3.36-41.98-15.15-58.28-31.364-10.644-10.588-14.482-15.954-20.776-29.048-9.066-18.862-11.9-31.156-11.776-51.096 0.184-29.838 10.518-54.468 31.914-76.068 23.666-23.888 47.544-33.942 80.252-33.784 15.562 0.074 21.11 0.862 32.426 4.604 35.574 11.762 62.046 38.218 73.728 73.686 3.734 11.332 4.524 16.92 4.598 32.462 0.154 32.154-9.894 56.408-32.954 79.55-10.576 10.616-15.91 14.414-29.158 20.764-8.918 4.274-20.284 8.604-25.258 9.622-8.646 1.77-35.728 2.176-44.716 0.672z" />
<glyph unicode="&#xe922;" glyph-name="apps-outline" data-tags="apps-outline" d="M193.706 862.804c-21.194-2.576-40.4-10.938-56.922-24.784-40.742-34.144-52.214-87.972-28.928-135.726 5.672-11.632 9.976-17.408 21.716-29.142 23.268-23.26 45.72-32.552 78.642-32.552 32.464 0.002 55.238 9.498 78.462 32.724 23.244 23.244 32.732 46.018 32.688 78.462-0.044 33.1-9.268 55.382-32.58 78.71-11.98 11.988-17.37 15.98-29.142 21.586-20.844 9.924-41.704 13.422-63.936 10.722zM497.494 862.758c-25.956-3.198-43.674-12.146-64.212-32.434-12.164-12.016-15.908-17.054-21.586-29.044-8.958-18.926-11.352-29.578-11.308-50.346 0.066-31.226 10.51-55.498 33.792-78.524 22.454-22.208 45.272-31.64 77.042-31.846 32.166-0.208 56.72 9.86 79.43 32.57 22.444 22.446 32.896 47.114 32.96 77.8 0.044 20.768-2.35 31.42-11.308 50.346-12.642 26.702-42.69 51.688-70.438 58.568-13.3 3.3-31.514 4.494-44.372 2.91zM800.426 862.68c-24.634-3.014-43.39-12.604-63.274-32.356-23.236-23.078-32.552-45.56-32.552-78.538 0.002-32.464 9.498-55.238 32.724-78.462 23.224-23.226 45.998-32.722 78.462-32.724 32.922 0 55.374 9.292 78.642 32.552 11.74 11.734 16.044 17.51 21.716 29.142 23.38 47.946 11.954 101.106-29.234 136.020-22.714 19.254-54.672 28.258-86.484 24.366zM229.546 794.872c8.572-4.436 16.46-12.686 21.612-22.606 3.164-6.092 3.98-10.334 3.946-20.518-0.038-11.124-0.744-14.088-5.288-22.186-19.322-34.43-66.74-33.46-85.348 1.744-4.448 8.412-4.446 32.554 0.002 40.96 6.21 11.74 17.992 21.85 30.078 25.814 7.536 2.472 27.576 0.634 34.998-3.208zM533.41 794.866c30.014-15.386 35.058-56.65 9.658-79.008-23.29-20.5-59.654-13.192-73.666 14.806-13.090 26.154 0.636 58.138 28.934 67.416 7.53 2.47 27.572 0.634 35.074-3.214zM837.12 794.868c8.018-4.156 17.954-14.176 22.41-22.602 4.738-8.954 4.44-32.56-0.526-41.89-9.11-17.108-28.056-27.606-46.764-25.91-17.622 1.598-30.804 10.73-39.436 27.314-5.462 10.498-5.444 29.932 0.038 40.486 6.75 12.996 16.556 21.642 29.28 25.814 7.544 2.474 27.576 0.634 34.998-3.212zM200.534 559.362c-14.776-0.918-27.932-4.382-41.66-10.97-20.414-9.796-41.116-30.398-51.146-50.898-15.84-32.38-15.834-66.662 0.018-98.988 10.192-20.784 30.608-41.126 50.974-50.792 18.908-8.974 29.56-11.37 50.346-11.326 30.686 0.064 55.354 10.516 77.8 32.96 22.71 22.71 32.778 47.264 32.57 79.43-0.206 31.77-9.638 54.588-31.846 77.042-14.266 14.424-28.41 23.498-44.946 28.834-9.548 3.080-30.536 5.428-42.11 4.708zM803.682 558.732c-26.186-2.128-46.802-12.216-67.272-32.912-22.508-22.756-31.75-45.412-31.75-77.82s9.242-55.064 31.75-77.82c23.026-23.282 47.298-33.726 78.524-33.792 20.786-0.044 31.438 2.352 50.346 11.326 20.366 9.666 40.782 30.008 50.974 50.792 15.852 32.326 15.858 66.608 0.018 98.988-5.736 11.724-9.916 17.29-21.792 29.026-26.342 26.032-52.536 35.324-90.798 32.212zM482.986 556.254c-18.458-4.826-33.932-14.108-49.524-29.708-23.404-23.418-33.070-46.376-33.070-78.546 0-32.176 9.668-55.134 33.070-78.538 23.404-23.402 46.362-33.070 78.538-33.070s55.134 9.668 78.538 33.070c23.402 23.404 33.070 46.362 33.070 78.538 0 32.17-9.666 55.128-33.070 78.546-15.848 15.856-31.264 24.992-50.31 29.812-12.916 3.27-44.558 3.212-57.242-0.104zM229.040 490.772c9.726-4.9 16.802-12.040 22.092-22.292 5.84-11.32 5.528-29.992-0.704-42.048-9.122-17.65-26.614-27.39-46.338-25.806-12.436 0.998-21.754 5.426-30.248 14.376-10.358 10.912-12.534 16.644-12.526 32.998 0.006 16.7 2.906 23.856 14.022 34.61 13.868 13.414 36.458 16.848 53.702 8.162zM528.322 492.926c11.278-3.842 24.762-17.326 28.604-28.604 5.966-17.51 2.374-34.694-10.168-48.644-18.504-20.58-51.012-20.58-69.516 0-18.006 20.028-17.434 46.912 1.398 65.746 13.652 13.65 31.35 17.748 49.682 11.502zM833.272 492.39c9.79-3.664 20.91-13.788 26.26-23.91 2.358-4.458 3.158-9.656 3.158-20.48 0-16.65-2.18-22.166-13.326-33.722-22.206-23.022-61.386-16.548-76.256 12.598-5.918 11.6-6.036 30.498-0.262 41.604 12.070 23.216 36.472 32.872 60.426 23.91zM177.692 251.658c-18.516-4.848-33.074-13.678-49.026-29.736-16.738-16.846-26.298-34.636-30.714-57.15-15.024-76.608 54.212-145.844 130.82-130.82 23.030 4.518 40.486 14.022 58.076 31.62 23.26 23.268 32.552 45.72 32.552 78.642-0.002 29.668-8.584 52.416-28.006 74.236-14.702 16.516-35.742 29.284-56.196 34.106-15.218 3.588-41.972 3.17-57.506-0.898zM483.86 252.392c-18.286-4.42-34.254-13.682-49.57-28.746-23.374-22.992-33.836-47.24-33.902-78.58-0.044-20.786 2.352-31.438 11.326-50.346 9.666-20.366 30.008-40.782 50.792-50.974 15.078-7.394 34.506-12.172 49.494-12.172s34.416 4.778 49.494 12.172c20.784 10.192 41.126 30.608 50.792 50.974 8.974 18.908 11.37 29.56 11.326 50.346-0.066 31.34-10.528 55.588-33.902 78.58-15.584 15.328-31.394 24.376-50.404 28.844-13.844 3.252-41.788 3.204-55.446-0.098zM788.024 252.478c-19.726-4.78-41.020-17.856-55.418-34.028-19.422-21.82-28.004-44.568-28.006-74.236 0-32.922 9.292-55.374 32.552-78.642 17.59-17.598 35.046-27.102 58.076-31.62 76.608-15.024 145.844 54.212 130.82 130.82-4.416 22.514-13.976 40.304-30.714 57.15-23.656 23.814-46.81 33.358-80.248 33.082-9.47-0.078-21.648-1.214-27.062-2.526zM228.394 187.032c10.274-5.24 16.212-10.978 21.65-20.918 6.72-12.284 7.202-30.658 1.114-42.38-8.858-17.054-21.564-25.618-39.964-26.94-14.392-1.032-24.486 2.482-35.024 12.196-11.796 10.872-14.85 18.114-14.85 35.224 0 11.59 0.738 15.878 3.67 21.332 5.872 10.922 18.1 21.022 29.774 24.592 8.218 2.514 25.796 0.892 33.63-3.106zM533.49 186.62c27.868-13.92 34.832-51.562 13.766-74.416-10.906-11.832-18.136-14.884-35.256-14.884s-24.35 3.052-35.256 14.884c-23.806 25.826-10.986 69.53 22.896 78.048 9.276 2.332 25.364 0.606 33.85-3.632zM836.718 186.89c9.372-4.824 17.694-12.794 22.292-21.344 2.932-5.454 3.67-9.742 3.67-21.332 0-17.11-3.054-24.352-14.85-35.224-10.538-9.714-20.632-13.228-35.024-12.196-18.4 1.322-31.106 9.886-39.964 26.94-5.13 9.878-5.492 30.006-0.706 39.252 7.418 14.326 18.802 24.020 32.27 27.476 8.702 2.234 24.408 0.498 32.312-3.572z" />
<glyph unicode="&#xe923;" glyph-name="apps-sharp" data-tags="apps-sharp" d="M106.476 862.774c-1.982-0.812-5.264-3.586-7.292-6.164l-3.688-4.69 0.464-101.228 0.466-101.23 9.462-9.462 98.878-0.48c110.756-0.536 108.86-0.716 113.642 10.73 2.184 5.228 2.482 20.34 2.072 104.984l-0.48 98.878-9.462 9.462-100.23 0.338c-55.126 0.188-101.85-0.324-103.832-1.138zM410.454 862.834c-1.878-0.78-4.95-3.124-6.828-5.21-3.32-3.692-3.424-6.506-3.836-103.882-0.33-77.872 0.054-101.036 1.73-104.356 1.186-2.346 4.832-5.608 8.104-7.25 5.454-2.736 13.98-2.984 102.376-2.984s96.922 0.248 102.376 2.984c3.272 1.642 6.918 4.904 8.104 7.25 1.676 3.32 2.060 26.512 1.73 104.496l-0.424 100.228-9.462 9.464-100.228 0.338c-55.126 0.188-101.766-0.298-103.642-1.078zM714.24 862.834c-1.878-0.78-4.95-3.124-6.826-5.21-3.318-3.688-3.428-6.548-3.894-102.53-0.41-84.52-0.112-99.616 2.072-104.844 4.782-11.446 2.886-11.266 113.642-10.73l98.878 0.48 9.462 9.464v204.646l-9.464 9.464-100.228 0.338c-55.126 0.188-101.764-0.298-103.642-1.078zM100.564 554.53l-4.138-4.404v-204.448l9.464-9.464 100.228-0.424c77.984-0.33 101.176 0.054 104.496 1.73 2.346 1.186 5.608 4.832 7.25 8.104 2.736 5.452 2.984 13.966 2.986 102.004 0.004 102.394-0.204 105.142-8.274 109.462-2.358 1.262-35.704 1.844-105.66 1.844h-102.214l-4.138-4.404zM404.35 554.53l-4.136-4.404v-204.448l9.464-9.464h204.644l9.464 9.464v204.448l-8.274 8.808h-207.024l-4.138-4.404zM711.094 557c-7.716-4.484-7.948-7.666-7.944-109.372 0.002-88.038 0.25-96.552 2.986-102.004 1.642-3.272 4.904-6.918 7.25-8.104 3.32-1.676 26.512-2.060 104.496-1.73l100.228 0.424 9.464 9.464v204.448l-8.276 8.808-102.528-0.052c-69.742-0.036-103.536-0.638-105.676-1.882zM101.216 251.028l-4.79-4.12v-205.018l9.464-9.464h204.646l9.464 9.462 0.508 96.816c0.28 53.248 0.038 99.398-0.54 102.554-0.576 3.154-2.882 7.57-5.124 9.812l-4.076 4.076h-204.764l-4.788-4.118zM405.002 251.028l-4.788-4.12v-205.018l9.464-9.464h204.644l9.464 9.464v205.018l-9.576 8.238h-204.42l-4.788-4.118zM709.156 251.070c-2.242-2.242-4.548-6.658-5.124-9.812-0.578-3.156-0.82-49.306-0.54-102.554l0.508-96.816 9.464-9.462h204.646l9.464 9.464v205.018l-9.578 8.238h-204.764l-4.076-4.076z" />
<glyph unicode="&#xe924;" glyph-name="archive" data-tags="archive" d="M114.346 862.054c-26.392-5.868-45.064-25.99-49.552-53.4-2.18-13.308-2.078-38.534 0.208-51.008 3.852-21.026 17.766-39.010 37.398-48.334l9.386-4.458h800.428l9.386 4.458c19.632 9.324 33.546 27.308 37.398 48.334 2.286 12.474 2.388 37.7 0.208 51.008-4.622 28.22-24.516 48.82-52.068 53.914-15.25 2.818-780.030 2.322-792.792-0.514zM129.884 636.8c-1.446-1.742-1.83-68.386-1.49-258.134l0.46-255.786 3.976-11.946c9.816-29.486 30.602-53.67 57.126-66.462 28.49-13.744 7.388-12.898 322.044-12.898 310.286 0 293.312-0.592 318.684 11.116 28.924 13.35 48.636 35.34 59.644 66.536l4.818 13.654 0.46 255.786c0.34 189.748-0.044 256.392-1.49 258.134-2.918 3.516-761.314 3.516-764.232 0zM523.408 541.758c5.958-2.25 13.586-9.338 17.332-16.104 2.542-4.594 2.884-16.324 3.32-114.236l0.488-109.118 37.912 37.668c20.852 20.718 40.372 38.908 43.376 40.424 13.818 6.97 33.574 1.080 41.062-12.244 4.202-7.474 5.12-20.572 2.022-28.836-2.682-7.152-135.708-140.108-144.12-144.044-8.668-4.054-16.932-4.054-25.6 0-8.412 3.936-141.438 136.892-144.12 144.044-3.098 8.264-2.18 21.362 2.022 28.836 7.488 13.324 27.244 19.214 41.062 12.244 3.004-1.516 22.524-19.706 43.376-40.424l37.912-37.668 0.488 109.118c0.436 97.75 0.78 109.648 3.312 114.236 8.14 14.754 25.404 21.678 40.156 16.104z" />
<glyph unicode="&#xe925;" glyph-name="archive-outline" data-tags="archive-outline" d="M138.082 862.622c-18.98-2.822-34.788-11.152-49.012-25.828-19.586-20.212-24.242-33.73-25.452-73.914-1.146-38.046 1.020-55.63 8.898-72.218 8.28-17.436 24.852-33.934 42.508-42.318l12.976-6.162v-254.846c0-276.184-0.306-266.596 9.208-288.106 12.862-29.084 40.23-53.304 71.006-62.838l12.8-3.966h583.68l13.636 4.82c30.966 10.942 55.856 33.476 68.462 61.984 9.514 21.51 9.208 11.922 9.208 288.106v254.846l12.976 6.162c17.656 8.384 34.228 24.882 42.508 42.318 7.876 16.582 10.044 34.17 8.902 72.218-0.674 22.544-1.632 31.392-4.288 39.676-8.222 25.646-30.62 48.25-56.684 57.206l-11.094 3.812-370.346 0.232c-203.692 0.13-374.642-0.404-379.892-1.184zM886.638 794.454c8.644-8.078 9.362-11.308 9.36-42.156-0.004-32.312-1.372-37.478-11.77-44.424l-5.8-3.874-366.254 0.006c-362.454 0.006-366.312 0.042-371.816 3.398-11.156 6.802-12.344 11.042-12.352 44.040-0.006 31.4 0.76 35.096 8.792 42.366 2.202 1.992 5.154 4.046 6.562 4.564s168.194 0.808 370.636 0.644l368.076-0.298 4.566-4.266zM830.742 383.574l-0.448-255.574-4.87-7.498c-6.594-10.156-12.308-15.254-22.438-20.024l-8.532-4.018h-564.908l-8.532 4.018c-10.13 4.77-15.844 9.868-22.438 20.024l-4.87 7.498-0.448 255.574-0.448 255.572h638.38l-0.448-255.572zM499.2 541.144c-7.246-3.248-12.682-8.9-16.37-17.018-2.996-6.596-3.184-13.304-3.22-114.476l-0.036-107.47-37.974 37.728c-20.886 20.75-40.432 38.968-43.436 40.484-3.004 1.514-9.464 2.754-14.356 2.754-22.070 0-37.542-21.448-29.904-41.452 2.202-5.762 17.382-21.826 73.184-77.452 65.852-65.644 70.874-70.26 77.658-71.362 3.99-0.65 10.518-0.65 14.508 0 6.784 1.102 11.806 5.718 77.658 71.362 55.802 55.626 70.982 71.69 73.184 77.452 7.638 20.004-7.834 41.452-29.904 41.452-4.892 0-11.352-1.24-14.356-2.754-3.004-1.516-22.55-19.734-43.436-40.484l-37.974-37.728-0.036 107.47c-0.036 100.966-0.23 107.884-3.198 114.296-3.68 7.946-10.952 15.232-17.784 17.812-6.522 2.464-17.988 2.174-24.208-0.614z" />
<glyph unicode="&#xe926;" glyph-name="archive-sharp" data-tags="archive-sharp" d="M80.814 862.57c-7.702-2.242-15.508-11.848-16.808-20.684-0.592-4.030-0.836-32.67-0.542-63.646 0.502-52.716 0.754-56.69 3.95-62.1 1.876-3.18 6.088-7.212 9.36-8.96 5.756-3.078 19.726-3.18 435.226-3.18s429.47 0.102 435.226 3.18c3.272 1.748 7.484 5.78 9.36 8.96 3.246 5.498 3.414 8.844 3.414 68.374 0 60.56-0.114 62.75-3.518 67.308-1.936 2.592-5.64 6.298-8.232 8.232l-4.714 3.52-428.674 0.278c-255.464 0.168-430.846-0.352-434.048-1.282zM128.408 352.854l0.446-286.294 5.294-9.386c2.912-5.164 8.514-11.864 12.448-14.89 14.898-11.458-10.628-10.71 365.404-10.71s350.506-0.748 365.404 10.71c3.934 3.026 9.536 9.726 12.448 14.89l5.294 9.386 0.446 286.294 0.448 286.292h-768.080l0.448-286.292zM544.426 422.838v-120.736l95.578 95.532 45.212-45.214-173.216-173.216-173.216 173.216 45.212 45.214 95.578-95.532v241.472h64.852v-120.736z" />
<glyph unicode="&#xe927;" glyph-name="arrow-back" data-tags="arrow-back" d="M476.076 781.972c-4.27-1.198-10.414-3.836-13.654-5.862-3.238-2.026-72.812-70.728-154.608-152.67-143.414-143.674-148.852-149.352-152.488-159.226-4.726-12.836-3.97-25.604 2.226-37.654 3.274-6.368 40.968-44.982 154.218-157.992 142.86-142.556 150.346-149.734 159.76-153.174 5.434-1.984 12.892-3.608 16.576-3.608 8.79 0 23.228 5.504 30.778 11.732 14.1 11.63 20.272 33.634 14.474 51.606-2.808 8.704-8.664 14.904-109.442 115.88-58.562 58.678-106.476 107.246-106.476 107.932 0 0.684 116.928 1.444 259.84 1.688l259.84 0.442 8.242 4.212c10.852 5.542 18.676 14.456 23.126 26.35 4.564 12.198 4.572 20.524 0.030 32.662-4.506 12.044-10.742 19.202-22.32 25.614l-9.078 5.030-522.16 0.896 107.716 107.924c101.98 102.178 107.874 108.416 110.682 117.122 7.242 22.45-2.986 47.276-23.57 57.21-10.984 5.302-23.512 6.744-33.712 3.886z" />
<glyph unicode="&#xe928;" glyph-name="arrow-back-circle" data-tags="arrow-back-circle" d="M483.84 862.688c-64.702-4.044-129.968-24.546-186.378-58.552-107.834-65.002-179.506-173.904-197.882-300.67-4.060-28.004-4.060-82.928 0-110.932 10.514-72.532 37.58-137.788 81.536-196.592 16.080-21.51 57.316-62.746 78.826-78.826 58.804-43.956 124.060-71.022 196.592-81.536 14.198-2.058 31.212-2.97 55.466-2.97s41.268 0.912 55.466 2.97c72.532 10.514 137.788 37.58 196.592 81.536 21.51 16.080 62.746 57.316 78.826 78.826 40.918 54.74 67.132 114.722 78.828 180.378 20.136 113.038-8.44 230.334-78.83 323.576-65.706 87.036-167.38 145.936-276.268 160.042-25.48 3.3-57.13 4.352-82.774 2.75zM513.348 635.914c3.482-1.776 7.646-4.684 9.254-6.462 4.282-4.734 8.176-14.982 8.134-21.398-0.086-12.802-5.288-19.226-60.116-74.234l-53.12-53.296 274.554-0.95 7.18-3.838c21.322-11.396 20.988-45.33-0.55-56.018-6.358-3.156-12.274-3.31-143.926-3.748l-137.296-0.456 53.14-53.316c55.194-55.376 60.096-61.462 60.096-74.624 0-22.99-26.572-38.62-47.038-27.668-5.658 3.028-166.696 165.478-170.904 172.404-4.668 7.678-5.174 21.784-1.074 29.854 3.208 6.316 160.292 165.256 170.276 172.29 8.276 5.83 21.614 6.45 31.39 1.46z" />
<glyph unicode="&#xe929;" glyph-name="arrow-back-circle-outline" data-tags="arrow-back-circle-outline" d="M482.986 862.654c-79.598-5.126-156.634-34.148-223.572-84.228-21.178-15.844-62.496-57.192-78.31-78.368-43.692-58.504-70.444-122.73-81.534-195.738-4.122-27.148-4.122-85.492 0-112.64 11.092-73.022 37.88-137.322 81.546-195.738 16.080-21.51 57.316-62.746 78.826-78.826 58.416-43.666 122.716-70.454 195.738-81.546 27.148-4.122 85.492-4.122 112.64 0 73.052 11.096 137.508 37.956 195.738 81.57 21.51 16.112 62.69 57.292 78.802 78.802 43.614 58.23 70.474 122.686 81.57 195.738 4.122 27.148 4.122 85.492 0 112.64-13.504 88.906-50.824 166.314-110.588 229.38-73.082 77.12-169.666 122.176-276.72 129.086-26.392 1.704-25.564 1.706-54.136-0.132zM568.32 795.384c71.676-12.15 135.15-43.9 187.158-93.62 55.22-52.79 91.122-121.364 104.186-199 4.182-24.86 4.146-85.792-0.066-110.23-19.756-114.598-88.984-208.512-191.576-259.892-96.842-48.5-215.202-48.5-312.044 0-102.928 51.548-172.428 146.058-191.63 260.594-4.242 25.296-4.242 84.232 0 109.528 21.082 125.746 103.13 227.202 221.35 273.708 26.094 10.264 57.514 17.646 93.876 22.054 13.334 1.618 73.17-0.502 88.746-3.142zM481.964 634.454c-3.662-2.582-43.626-41.942-88.81-87.468-78.482-79.072-82.23-83.136-83.848-90.88-0.533-2.437-0.839-5.236-0.839-8.106s0.305-5.669 0.885-8.366l-0.047 0.26c1.618-7.746 5.358-11.798 83.848-90.854 45.184-45.51 84.562-84.548 87.508-86.75 7.7-5.756 16.378-7.29 26.46-4.674 9.928 2.576 16.082 7.744 20.426 17.158 3.866 8.376 4.076 17.698 0.59 26.044-1.74 4.164-21.002 24.734-56.648 60.494l-54.012 54.182 276.844 0.932 7.246 5.12c9.174 6.482 13.92 15.5 13.92 26.454 0 11.118-4.804 20.070-14.196 26.454l-7.532 5.12-276.262 0.95 54.002 54.174c55.296 55.474 59.274 60.364 59.274 72.876 0 6.864-3.804 17.048-8.172 21.878-9.532 10.54-29.328 12.976-40.638 5.002z" />
<glyph unicode="&#xe92a;" glyph-name="arrow-back-circle-sharp" data-tags="arrow-back-circle-sharp" d="M483.84 862.688c-64.702-4.044-129.968-24.546-186.378-58.552-107.834-65.002-179.506-173.904-197.882-300.67-4.060-28.004-4.060-82.928 0-110.932 10.514-72.532 37.58-137.788 81.536-196.592 16.080-21.51 57.316-62.746 78.826-78.826 58.804-43.956 124.060-71.022 196.592-81.536 14.198-2.058 31.212-2.97 55.466-2.97s41.268 0.912 55.466 2.97c72.532 10.514 137.788 37.58 196.592 81.536 21.51 16.080 62.746 57.316 78.826 78.826 40.918 54.74 67.132 114.722 78.828 180.378 20.136 113.038-8.44 230.334-78.83 323.576-65.706 87.036-167.38 145.936-276.268 160.042-25.48 3.3-57.13 4.352-82.774 2.75zM521.376 630.624l22.126-22.176-11.892-12.384c-6.542-6.812-34.938-35.616-63.102-64.010l-51.208-51.628h297.794v-64.852h-297.794l51.208-51.628c28.164-28.394 56.56-57.198 63.102-64.010l11.892-12.384-22.132-22.182c-12.174-12.2-22.546-21.988-23.050-21.75s-46.512 46.322-102.24 102.408l-101.326 101.974 101.37 102.244c55.754 56.234 101.764 102.314 102.248 102.398 0.482 0.086 10.834-9.824 23.004-22.020z" />
<glyph unicode="&#xe92b;" glyph-name="arrow-back-outline" data-tags="arrow-back-outline" d="M476.076 781.972c-4.27-1.198-10.414-3.836-13.654-5.862-3.238-2.026-72.812-70.728-154.608-152.67-143.414-143.674-148.852-149.352-152.488-159.226-4.726-12.836-3.97-25.604 2.226-37.654 3.274-6.368 40.968-44.982 154.218-157.992 142.86-142.556 150.346-149.734 159.76-153.174 5.434-1.984 12.892-3.608 16.576-3.608 8.79 0 23.228 5.504 30.778 11.732 14.1 11.63 20.272 33.634 14.474 51.606-2.808 8.704-8.664 14.904-109.442 115.88-58.562 58.678-106.476 107.246-106.476 107.932 0 0.684 116.928 1.444 259.84 1.688l259.84 0.442 8.242 4.212c10.852 5.542 18.676 14.456 23.126 26.35 4.564 12.198 4.572 20.524 0.030 32.662-4.506 12.044-10.742 19.202-22.32 25.614l-9.078 5.030-522.16 0.896 107.716 107.924c101.98 102.178 107.874 108.416 110.682 117.122 7.242 22.45-2.986 47.276-23.57 57.21-10.984 5.302-23.512 6.744-33.712 3.886z" />
<glyph unicode="&#xe92c;" glyph-name="arrow-back-sharp" data-tags="arrow-back-sharp" d="M309.758 625.492l-177.488-177.494 355.832-355.832 67.408 67.408-119.034 119.044c-65.47 65.474-119.036 119.618-119.036 120.32s124.8 1.276 277.334 1.276h277.332v95.572h-557.216l240.61 240.628-33.254 33.286c-18.29 18.308-33.646 33.286-34.126 33.286s-80.742-79.872-178.362-177.494z" />
<glyph unicode="&#xe92d;" glyph-name="arrow-down" data-tags="arrow-down" d="M497.208 805.050c-15.454-5.52-25.84-15.874-31.002-30.904-1.484-4.322-1.992-71.768-1.992-264.502v-258.702l-107.948 107.784c-107.768 107.606-107.962 107.788-118.058 110.684-13.128 3.764-25.482 2.516-36.964-3.732-16.086-8.756-26.458-27.104-25.064-44.346 1.556-19.284-1.71-15.668 159.55-176.664 144.602-144.364 150.174-149.702 160.056-153.33 7.232-2.654 12.748-3.544 18.774-3.028 19.822 1.696 13.914-3.63 176.104 158.794 143.342 143.548 150.5 151.008 153.942 160.426 4.498 12.316 4.558 20.736 0.228 32.3-9.206 24.588-33.682 36.852-59.042 29.58-10.092-2.894-10.314-3.102-116.81-109.436-58.684-58.594-107.252-106.534-107.93-106.534s-1.432 116.928-1.676 259.84l-0.442 259.84-4.222 8.264c-10.608 20.768-36.166 31.286-57.504 23.666z" />
<glyph unicode="&#xe92e;" glyph-name="arrow-down-circle" data-tags="arrow-down-circle" d="M483.84 862.688c-64.702-4.044-129.968-24.546-186.378-58.552-107.834-65.002-179.506-173.904-197.882-300.67-4.060-28.004-4.060-82.928 0-110.932 10.514-72.532 37.58-137.788 81.536-196.592 16.080-21.51 57.316-62.746 78.826-78.826 58.804-43.956 124.060-71.022 196.592-81.536 14.198-2.058 31.212-2.97 55.466-2.97s41.268 0.912 55.466 2.97c72.532 10.514 137.788 37.58 196.592 81.536 21.51 16.080 62.746 57.316 78.826 78.826 40.918 54.74 67.132 114.722 78.828 180.378 20.136 113.038-8.44 230.334-78.83 323.576-65.706 87.036-167.38 145.936-276.268 160.042-25.48 3.3-57.13 4.352-82.774 2.75zM528.492 646.754c4.624-2.71 8.85-7.040 11.244-11.52l3.838-7.18 0.476-137.278 0.474-137.276 53.296 53.12c55.008 54.828 61.432 60.030 74.234 60.116 6.416 0.042 16.664-3.852 21.398-8.134 10.54-9.532 12.976-29.328 5.002-40.638-7.368-10.45-166.126-167.188-172.8-170.602-7.646-3.91-19.67-3.908-27.308 0.006-6.68 3.424-165.442 160.16-172.8 170.596-7.974 11.31-5.538 31.106 5.002 40.638 4.734 4.282 14.982 8.176 21.398 8.134 12.802-0.086 19.226-5.288 74.234-60.116l53.296-53.12 0.474 137.276 0.476 137.278 3.82 7.144c8.174 15.292 28.716 20.656 44.246 11.556z" />
<glyph unicode="&#xe92f;" glyph-name="arrow-down-circle-outline" data-tags="arrow-down-circle-outline" d="M482.986 862.654c-79.598-5.126-156.634-34.148-223.572-84.228-21.178-15.844-62.496-57.192-78.31-78.368-43.692-58.504-70.444-122.73-81.534-195.738-4.122-27.148-4.122-85.492 0-112.64 11.092-73.022 37.88-137.322 81.546-195.738 16.080-21.51 57.316-62.746 78.826-78.826 58.416-43.666 122.716-70.454 195.738-81.546 27.148-4.122 85.492-4.122 112.64 0 73.052 11.096 137.508 37.956 195.738 81.57 21.51 16.112 62.69 57.292 78.802 78.802 43.614 58.23 70.474 122.686 81.57 195.738 4.122 27.148 4.122 85.492 0 112.64-13.504 88.906-50.824 166.314-110.588 229.38-73.082 77.12-169.666 122.176-276.72 129.086-26.392 1.704-25.564 1.706-54.136-0.132zM568.32 795.384c71.676-12.15 135.15-43.9 187.158-93.62 55.22-52.79 91.122-121.364 104.186-199 4.182-24.86 4.146-85.792-0.066-110.23-19.756-114.598-88.984-208.512-191.576-259.892-96.842-48.5-215.202-48.5-312.044 0-102.928 51.548-172.428 146.058-191.63 260.594-4.242 25.296-4.242 84.232 0 109.528 21.082 125.746 103.13 227.202 221.35 273.708 26.094 10.264 57.514 17.646 93.876 22.054 13.334 1.618 73.17-0.502 88.746-3.142zM495.486 646.788c-3.92-2.348-8.912-7.142-11.094-10.65l-3.966-6.378-0.852-137.826-0.854-137.824-49.494 49.604c-27.22 27.284-53.056 52.252-57.41 55.486-19.254 14.298-44.406 6.256-50.192-16.050-2.626-10.12-1.094-18.79 4.68-26.488 2.21-2.946 41.248-42.326 86.75-87.514 79.076-78.528 83.092-82.234 90.84-83.846 5.33-1.11 10.882-1.112 16.212-0.006 7.752 1.608 11.73 5.28 90.824 83.846 45.496 45.19 84.532 84.574 86.75 87.52 5.788 7.686 7.324 16.358 4.696 26.488-5.786 22.306-30.938 30.348-50.192 16.050-4.354-3.234-30.19-28.202-57.41-55.486l-49.494-49.604-0.854 137.824-0.852 137.826-3.99 6.416c-9.010 14.492-29.428 19.406-44.098 10.612z" />
<glyph unicode="&#xe930;" glyph-name="arrow-down-circle-sharp" data-tags="arrow-down-circle-sharp" d="M483.84 862.688c-64.702-4.044-129.968-24.546-186.378-58.552-107.834-65.002-179.506-173.904-197.882-300.67-4.060-28.004-4.060-82.928 0-110.932 10.514-72.532 37.58-137.788 81.536-196.592 16.080-21.51 57.316-62.746 78.826-78.826 58.804-43.956 124.060-71.022 196.592-81.536 14.198-2.058 31.212-2.97 55.466-2.97s41.268 0.912 55.466 2.97c72.532 10.514 137.788 37.58 196.592 81.536 21.51 16.080 62.746 57.316 78.826 78.826 40.918 54.74 67.132 114.722 78.828 180.378 20.136 113.038-8.44 230.334-78.83 323.576-65.706 87.036-167.38 145.936-276.268 160.042-25.48 3.3-57.13 4.352-82.774 2.75zM544.426 502.4v-148.692l63.21 62.506c34.766 34.378 63.77 62.506 64.452 62.506s11.11-9.892 23.172-21.98l21.932-21.98-101.93-101.328c-56.062-55.728-102.53-101.326-103.262-101.326s-47.2 45.598-103.262 101.326l-101.93 101.328 21.932 21.98c12.062 12.088 22.474 21.98 23.138 21.98s29.666-28.122 64.45-62.494l63.246-62.496v297.364h64.852v-148.694z" />
<glyph unicode="&#xe931;" glyph-name="arrow-down-outline" data-tags="arrow-down-outline" d="M497.208 805.050c-15.454-5.52-25.84-15.874-31.002-30.904-1.484-4.322-1.992-71.768-1.992-264.502v-258.702l-107.948 107.784c-107.768 107.606-107.962 107.788-118.058 110.684-13.128 3.764-25.482 2.516-36.964-3.732-16.086-8.756-26.458-27.104-25.064-44.346 1.556-19.284-1.71-15.668 159.55-176.664 144.602-144.364 150.174-149.702 160.056-153.33 7.232-2.654 12.748-3.544 18.774-3.028 19.822 1.696 13.914-3.63 176.104 158.794 143.342 143.548 150.5 151.008 153.942 160.426 4.498 12.316 4.558 20.736 0.228 32.3-9.206 24.588-33.682 36.852-59.042 29.58-10.092-2.894-10.314-3.102-116.81-109.436-58.684-58.594-107.252-106.534-107.93-106.534s-1.432 116.928-1.676 259.84l-0.442 259.84-4.222 8.264c-10.608 20.768-36.166 31.286-57.504 23.666z" />
<glyph unicode="&#xe932;" glyph-name="arrow-down-sharp" data-tags="arrow-down-sharp" d="M464.214 529.498v-278.608l-240.64 240.62-67.408-67.408 355.834-355.834 355.834 355.834-67.408 67.408-119.044-119.034c-65.474-65.47-119.618-119.036-120.32-119.036s-1.276 124.8-1.276 277.334v277.332h-95.572v-278.608z" />
<glyph unicode="&#xe933;" glyph-name="arrow-forward" data-tags="arrow-forward" d="M523.61 781.908c-27.544-7.7-42.122-36.254-32.116-62.91 3.070-8.178 13.392-19.026 110.086-115.692l106.698-106.666-521.398-1.706-8.686-4.584c-23.37-12.332-32.522-40.568-20.678-63.79 5.096-9.99 11.216-16.058 21.684-21.5l7.68-3.994 259.84-0.442c142.912-0.244 259.84-1.004 259.84-1.688 0-0.686-47.914-49.254-106.476-107.932-100.778-100.976-106.634-107.176-109.442-115.88-5.798-17.972 0.374-39.976 14.474-51.606 7.55-6.228 21.988-11.732 30.778-11.732 3.684 0 11.142 1.624 16.576 3.608 9.418 3.442 16.878 10.6 160.426 153.942 162.424 162.19 157.098 156.282 158.794 176.104 0.516 6.026-0.374 11.542-3.028 18.774-3.628 9.882-8.966 15.454-153.33 160.056-118.812 119.006-151.326 150.668-158.106 153.96-10.73 5.21-23.238 6.578-33.616 3.678z" />
<glyph unicode="&#xe934;" glyph-name="arrow-forward-circle" data-tags="arrow-forward-circle" d="M483.84 862.688c-64.702-4.044-129.968-24.546-186.378-58.552-107.834-65.002-179.506-173.904-197.882-300.67-4.060-28.004-4.060-82.928 0-110.932 10.514-72.532 37.58-137.788 81.536-196.592 16.080-21.51 57.316-62.746 78.826-78.826 58.804-43.956 124.060-71.022 196.592-81.536 14.198-2.058 31.212-2.97 55.466-2.97s41.268 0.912 55.466 2.97c72.532 10.514 137.788 37.58 196.592 81.536 21.51 16.080 62.746 57.316 78.826 78.826 40.918 54.74 67.132 114.722 78.828 180.378 20.136 113.038-8.44 230.334-78.83 323.576-65.706 87.036-167.38 145.936-276.268 160.042-25.48 3.3-57.13 4.352-82.774 2.75zM542.036 634.454c10.006-7.054 167.094-165.988 170.288-172.29 4.094-8.072 3.584-22.18-1.080-29.864-4.17-6.87-165.34-169.416-170.97-172.43-10.544-5.642-24.898-4.29-34.826 3.282-6.764 5.16-12.146 15.982-12.146 24.422 0 13.162 4.902 19.248 60.096 74.624l53.14 53.316-137.296 0.456c-131.652 0.438-137.568 0.592-143.926 3.748-21.538 10.688-21.872 44.622-0.55 56.018l7.18 3.838 274.554 0.95-53.12 53.296c-38.82 38.948-54.058 55.36-56.6 60.964-10.074 22.21 4.29 44.118 29.044 44.294 7.74 0.056 10.82-0.822 16.212-4.624z" />
<glyph unicode="&#xe935;" glyph-name="arrow-forward-circle-outline" data-tags="arrow-forward-circle-outline" d="M482.986 862.654c-79.598-5.126-156.634-34.148-223.572-84.228-21.178-15.844-62.496-57.192-78.31-78.368-43.692-58.504-70.444-122.73-81.534-195.738-4.122-27.148-4.122-85.492 0-112.64 11.092-73.022 37.88-137.322 81.546-195.738 16.080-21.51 57.316-62.746 78.826-78.826 58.416-43.666 122.716-70.454 195.738-81.546 27.148-4.122 85.492-4.122 112.64 0 73.052 11.096 137.508 37.956 195.738 81.57 21.51 16.112 62.69 57.292 78.802 78.802 43.614 58.23 70.474 122.686 81.57 195.738 4.122 27.148 4.122 85.492 0 112.64-13.504 88.906-50.824 166.314-110.588 229.38-73.082 77.12-169.666 122.176-276.72 129.086-26.392 1.704-25.564 1.706-54.136-0.132zM568.32 795.384c71.676-12.15 135.15-43.9 187.158-93.62 55.22-52.79 91.122-121.364 104.186-199 4.182-24.86 4.146-85.792-0.066-110.23-19.756-114.598-88.984-208.512-191.576-259.892-96.842-48.5-215.202-48.5-312.044 0-102.928 51.548-172.428 146.058-191.63 260.594-4.242 25.296-4.242 84.232 0 109.528 21.082 125.746 103.13 227.202 221.35 273.708 26.094 10.264 57.514 17.646 93.876 22.054 13.334 1.618 73.17-0.502 88.746-3.142zM511.15 636.458c-7.694-4.012-11.254-7.696-14.714-15.232-3.85-8.386-4.056-17.71-0.574-26.044 1.74-4.164 21-24.732 56.638-60.484l54.002-54.174-276.824-0.95-7.246-5.12c-18.764-13.256-18.764-39.652 0-52.908l7.246-5.12 276.844-0.932-54.012-54.182c-35.646-35.76-54.908-56.33-56.648-60.494-3.486-8.346-3.276-17.668 0.59-26.044 4.344-9.414 10.498-14.582 20.426-17.158 10.092-2.618 18.77-1.080 26.46 4.688 2.946 2.21 42.326 41.248 87.514 86.75 78.528 79.076 82.234 83.092 83.846 90.84 0.53 2.437 0.834 5.236 0.834 8.106s-0.304 5.669-0.881 8.367l0.047-0.261c-1.612 7.748-5.33 11.776-83.846 90.876-45.188 45.524-85.154 84.884-88.816 87.468-5.354 3.778-8.526 4.694-16.212 4.686-5.326-0.006-11.822-1.192-14.674-2.678z" />
<glyph unicode="&#xe936;" glyph-name="arrow-forward-circle-sharp" data-tags="arrow-forward-circle-sharp" d="M483.84 862.688c-64.702-4.044-129.968-24.546-186.378-58.552-107.834-65.002-179.506-173.904-197.882-300.67-4.060-28.004-4.060-82.928 0-110.932 10.514-72.532 37.58-137.788 81.536-196.592 16.080-21.51 57.316-62.746 78.826-78.826 58.804-43.956 124.060-71.022 196.592-81.536 14.198-2.058 31.212-2.97 55.466-2.97s41.268 0.912 55.466 2.97c72.532 10.514 137.788 37.58 196.592 81.536 21.51 16.080 62.746 57.316 78.826 78.826 40.918 54.74 67.132 114.722 78.828 180.378 20.136 113.038-8.44 230.334-78.83 323.576-65.706 87.036-167.38 145.936-276.268 160.042-25.48 3.3-57.13 4.352-82.774 2.75zM627.924 549.968l101.328-101.978-101.348-101.968c-55.74-56.082-101.752-102.164-102.244-102.402-0.494-0.238-10.856 9.548-23.028 21.748l-22.132 22.18 11.038 11.532c6.070 6.344 34.464 35.15 63.098 64.014l52.064 52.48h-297.794v64.852h297.794l-52.064 52.48c-28.634 28.864-57.028 57.67-63.098 64.014l-11.038 11.532 22.132 22.18c12.172 12.2 22.544 21.986 23.048 21.748s46.514-46.324 102.244-102.412z" />
<glyph unicode="&#xe937;" glyph-name="arrow-forward-outline" data-tags="arrow-forward-outline" d="M523.61 781.908c-27.544-7.7-42.122-36.254-32.116-62.91 3.070-8.178 13.392-19.026 110.086-115.692l106.698-106.666-521.398-1.706-8.686-4.584c-23.37-12.332-32.522-40.568-20.678-63.79 5.096-9.99 11.216-16.058 21.684-21.5l7.68-3.994 259.84-0.442c142.912-0.244 259.84-1.004 259.84-1.688 0-0.686-47.914-49.254-106.476-107.932-100.778-100.976-106.634-107.176-109.442-115.88-5.798-17.972 0.374-39.976 14.474-51.606 7.55-6.228 21.988-11.732 30.778-11.732 3.684 0 11.142 1.624 16.576 3.608 9.418 3.442 16.878 10.6 160.426 153.942 162.424 162.19 157.098 156.282 158.794 176.104 0.516 6.026-0.374 11.542-3.028 18.774-3.628 9.882-8.966 15.454-153.33 160.056-118.812 119.006-151.326 150.668-158.106 153.96-10.73 5.21-23.238 6.578-33.616 3.678z" />
<glyph unicode="&#xe938;" glyph-name="arrow-forward-sharp" data-tags="arrow-forward-sharp" d="M501.754 769.7l-33.254-33.286 240.61-240.628h-557.216v-95.572h277.332c152.534 0 277.334-0.574 277.334-1.276s-53.566-54.846-119.036-120.32l-119.034-119.044 67.408-67.408 355.832 355.832-177.488 177.494c-97.62 97.622-177.882 177.494-178.362 177.494s-15.836-14.978-34.126-33.286z" />
<glyph unicode="&#xe939;" glyph-name="arrow-redo" data-tags="arrow-redo" d="M528.214 811.758c-6.826-4.216-10.428-8.466-13.588-16.032-2.24-5.36-2.626-18.416-2.626-88.928 0-92.708 1.262-84.706-13.366-84.734-10.536-0.020-47.34-4.396-65.316-7.768-95.090-17.828-171.976-60.002-226.462-124.222-68.79-81.082-104.888-194.594-110.526-347.568-1.362-36.944-0.272-43.152 9.266-52.688 12.95-12.952 31.564-13.092 44.392-0.338 3.394 3.376 14.236 16.082 24.092 28.238 19.848 24.48 50.8 56.316 69.134 71.11 62.266 50.238 141.898 76.672 244.466 81.148l24.32 1.062 0.038-82.612c0.034-76.458 0.27-83.126 3.17-89.51 8.084-17.798 28.492-24.084 44.986-13.86 10.326 6.402 362.634 344.024 365.108 349.888 2.906 6.888 2.906 19.224 0 26.112-2.502 5.932-354.828 343.508-365.322 350.028-8.038 4.994-24.218 5.338-31.766 0.674z" />
<glyph unicode="&#xe93a;" glyph-name="arrow-redo-circle" data-tags="arrow-redo-circle" d="M483.84 862.688c-64.702-4.044-129.968-24.546-186.378-58.552-107.834-65.002-179.506-173.904-197.882-300.67-4.060-28.004-4.060-82.928 0-110.932 10.514-72.532 37.58-137.788 81.536-196.592 16.080-21.51 57.316-62.746 78.826-78.826 58.804-43.956 124.060-71.022 196.592-81.536 14.198-2.058 31.212-2.97 55.466-2.97s41.268 0.912 55.466 2.97c72.532 10.514 137.788 37.58 196.592 81.536 21.51 16.080 62.746 57.316 78.826 78.826 40.918 54.74 67.132 114.722 78.828 180.378 20.136 113.038-8.44 230.334-78.83 323.576-65.706 87.036-167.38 145.936-276.268 160.042-25.48 3.3-57.13 4.352-82.774 2.75zM636.922 564.762c100.794-94.876 98.652-92.702 98.652-100.148 0-3.296-1.486-7.802-3.356-10.18-5.734-7.288-170.766-162.46-175.4-164.92-3.48-1.846-5.73-1.92-10.936-0.36-11.030 3.304-11.696 6.214-11.696 51.16v39.258l-8.106-0.722c-4.458-0.398-18.090-1.104-30.294-1.566-37.788-1.436-77.082-9.832-105.812-22.61-19.39-8.624-43.894-25.324-61.962-42.226-8.54-7.99-17.376-14.992-19.634-15.56-5.756-1.444-15.222 2.944-18.142 8.41-2.096 3.918-2.144 7.476-0.328 24.034 4.064 37.044 13.536 71.466 27.776 100.942 35.526 73.536 100.082 112.352 195.856 117.764l20.646 1.168v79.438l4.42 5.252c3.688 4.384 5.646 5.25 11.854 5.25h7.436l79.026-74.384z" />
<glyph unicode="&#xe93b;" glyph-name="arrow-redo-circle-outline" data-tags="arrow-redo-circle-outline" d="M482.986 862.654c-79.598-5.126-156.634-34.148-223.572-84.228-21.178-15.844-62.496-57.192-78.31-78.368-43.692-58.504-70.444-122.73-81.534-195.738-4.122-27.148-4.122-85.492 0-112.64 11.092-73.022 37.88-137.322 81.546-195.738 16.080-21.51 57.316-62.746 78.826-78.826 58.416-43.666 122.716-70.454 195.738-81.546 27.148-4.122 85.492-4.122 112.64 0 73.052 11.096 137.508 37.956 195.738 81.57 21.51 16.112 62.69 57.292 78.802 78.802 43.614 58.23 70.474 122.686 81.57 195.738 4.122 27.148 4.122 85.492 0 112.64-13.504 88.906-50.824 166.314-110.588 229.38-73.082 77.12-169.666 122.176-276.72 129.086-26.392 1.704-25.564 1.706-54.136-0.132zM568.32 795.384c71.676-12.15 135.15-43.9 187.158-93.62 55.22-52.79 91.122-121.364 104.186-199 4.182-24.86 4.146-85.792-0.066-110.23-19.756-114.598-88.984-208.512-191.576-259.892-96.842-48.5-215.202-48.5-312.044 0-102.928 51.548-172.428 146.058-191.63 260.594-4.242 25.296-4.242 84.232 0 109.528 21.082 125.746 103.13 227.202 221.35 273.708 26.094 10.264 57.514 17.646 93.876 22.054 13.334 1.618 73.17-0.502 88.746-3.142zM538.606 633.896l-4.42-5.252v-79.438l-20.646-1.168c-122.664-6.932-194.856-69.162-219.012-188.79-6.030-29.86-7.418-49.784-3.848-55.234 3.71-5.66 12.804-8.586 19.166-6.168 2.666 1.014 11.032 7.776 18.594 15.030 17.030 16.336 31.976 27.086 51.536 37.066 30.842 15.738 73.070 25.706 115.81 27.338 12.204 0.466 25.836 1.172 30.294 1.57l8.106 0.722v-81.914l4.12-4.12c5.508-5.508 12.126-6.99 18.126-4.060 4.784 2.338 169.32 156.736 175.786 164.956 1.874 2.382 3.356 6.884 3.356 10.196 0 7.44 1.576 5.84-99.462 100.962l-78.13 73.554h-7.478c-6.258 0-8.202-0.858-11.898-5.25z" />
<glyph unicode="&#xe93c;" glyph-name="arrow-redo-circle-sharp" data-tags="arrow-redo-circle-sharp" d="M483.84 862.688c-64.702-4.044-129.968-24.546-186.378-58.552-107.834-65.002-179.506-173.904-197.882-300.67-4.060-28.004-4.060-82.928 0-110.932 10.514-72.532 37.58-137.788 81.536-196.592 16.080-21.51 57.316-62.746 78.826-78.826 58.804-43.956 124.060-71.022 196.592-81.536 14.198-2.058 31.212-2.97 55.466-2.97s41.268 0.912 55.466 2.97c72.532 10.514 137.788 37.58 196.592 81.536 21.51 16.080 62.746 57.316 78.826 78.826 40.918 54.74 67.132 114.722 78.828 180.378 20.136 113.038-8.44 230.334-78.83 323.576-65.706 87.036-167.38 145.936-276.268 160.042-25.48 3.3-57.13 4.352-82.774 2.75zM634.026 557.264l98.126-93.12-200.526-191-0.9 108.296-13.204-0.014c-17.412-0.020-48.794-2.834-67.364-6.040-32.578-5.628-63.66-17.642-88.702-34.29-14.982-9.96-40.49-34.12-57.348-54.316l-12.772-15.302 1.186 22.128c2.324 43.366 7.808 77.084 17.196 105.746 30.024 91.654 96.628 140.446 198.868 145.688l21.334 1.094 0.452 54.508 0.45 54.51 6.376-6.024c3.506-3.312 47.080-44.652 96.828-91.864z" />
<glyph unicode="&#xe93d;" glyph-name="arrow-redo-outline" data-tags="arrow-redo-outline" d="M540.16 815.366c-8.774-1.452-11.19-2.442-16.144-6.608-11.472-9.654-11.074-6.33-12.016-100.492l-0.854-85.332-10.24-0.45c-5.632-0.246-20.224-1.63-32.426-3.076-132.332-15.68-226.802-70.686-291.312-169.62-39.198-60.112-64.968-139.242-75.62-232.188-4.24-37.010-6.892-105.2-4.432-114.010 4.442-15.904 22.564-26.602 38.016-22.442 10.654 2.87 12.558 4.488 29.016 24.666 26.572 32.578 49.42 57.082 68.812 73.798 62.008 53.454 127.080 78.594 228.54 88.298 14.936 1.428 32.408 2.596 38.828 2.596h11.672l0.038-82.346c0.034-76.2 0.27-82.862 3.17-89.244 8.084-17.798 28.492-24.084 44.986-13.86 10.326 6.402 362.634 344.024 365.108 349.888 2.906 6.888 2.906 19.224 0 26.112-2.266 5.37-353.94 342.792-364.2 349.438-5.35 3.466-15.36 5.794-20.942 4.872zM721.494 570.304c69.696-66.52 126.72-121.566 126.72-122.326s-60.864-59.474-135.254-130.476l-135.254-129.092-0.852 61.956c-0.946 68.668-0.73 67.34-12.676 77.83-3.314 2.908-8.894 5.828-12.402 6.486-9.256 1.736-77.666-0.544-104.962-3.498-116.354-12.59-190.386-43.994-267.454-113.454l-14.346-12.93 1.164 11.946c0.64 6.572 3.088 22.902 5.44 36.292 23.022 131.068 81.474 219.664 175.688 266.3 49.2 24.352 101.494 36.462 170.642 39.516 34.324 1.516 39.784 2.664 47.538 10.002 10.606 10.034 10.466 9.052 11.038 76.832l0.526 62.008 8.862-8.224c4.874-4.524 65.886-62.648 135.582-129.168z" />
<glyph unicode="&#xe93e;" glyph-name="arrow-redo-sharp" data-tags="arrow-redo-sharp" d="M504.76 712.304l-0.44-103.024-18.734-1.16c-71.318-4.412-142.286-22.846-193.746-50.328-111.684-59.642-174.794-164.21-192.086-318.268-2.53-22.542-5.694-146.906-3.964-155.794 0.484-2.488 9.512 6.846 36.322 37.546 39.6 45.348 73.328 79.896 94.022 96.304 67.108 53.21 138.64 76.172 258.12 82.854l20.892 1.168 0.44-102.362 0.44-102.364 209.92 178.654c115.456 98.258 209.92 179.46 209.92 180.446 0 1.282-392.818 336.986-417.764 357.022-2.724 2.188-2.928-3.97-3.342-100.694z" />
<glyph unicode="&#xe93f;" glyph-name="arrow-undo" data-tags="arrow-undo" d="M464.042 811.182c-3.38-2.16-86.528-80.702-184.776-174.538-172.988-165.218-178.72-170.894-181.474-179.626-2.652-8.414-2.652-9.622 0-18.036 2.754-8.732 8.48-14.4 181.494-179.626 98.26-93.836 180.846-172.038 183.526-173.782 11.944-7.776 30.054-6.148 39.332 3.536 9.88 10.318 9.856 10.064 9.856 99.688v82.24l24.32-1.062c13.376-0.584 36.608-2.644 51.626-4.578 114.778-14.784 187.142-55.646 262.27-148.094 9.694-11.928 20.418-24.464 23.832-27.858 12.402-12.328 31.708-12.278 44.102 0.116 9.666 9.668 10.954 16.874 9.544 53.414-3.090 80.054-13.958 147.042-33.382 205.774-48.79 147.518-151.032 236.936-303.63 265.546-17.976 3.372-54.78 7.748-65.316 7.768-14.628 0.028-13.362-8.014-13.404 85.106-0.042 93.378 0.122 92.078-12.814 101.946-5.262 4.014-8.4 4.978-17.68 5.436-9.45 0.468-12.278-0.080-17.426-3.37z" />
<glyph unicode="&#xe940;" glyph-name="arrow-undo-circle" data-tags="arrow-undo-circle" d="M483.84 862.688c-64.702-4.044-129.968-24.546-186.378-58.552-107.834-65.002-179.506-173.904-197.882-300.67-4.060-28.004-4.060-82.928 0-110.932 10.514-72.532 37.58-137.788 81.536-196.592 16.080-21.51 57.316-62.746 78.826-78.826 58.804-43.956 124.060-71.022 196.592-81.536 14.198-2.058 31.212-2.97 55.466-2.97s41.268 0.912 55.466 2.97c72.532 10.514 137.788 37.58 196.592 81.536 21.51 16.080 62.746 57.316 78.826 78.826 40.918 54.74 67.132 114.722 78.828 180.378 20.136 113.038-8.44 230.334-78.83 323.576-65.706 87.036-167.38 145.936-276.268 160.042-25.48 3.3-57.13 4.352-82.774 2.75zM485.394 633.896l4.42-5.252v-79.468l20.906-1.21c64.976-3.76 114.034-22.226 151.85-57.16 38.218-35.304 64.096-94.288 71.626-163.26 2.246-20.57 0.886-25.268-8.45-29.172-8.55-3.574-13.504-1.236-29.516 13.938-8.092 7.67-19.754 17.542-25.914 21.938-35.85 25.582-86.458 40.906-142.102 43.030-12.204 0.466-25.836 1.172-30.294 1.57l-8.106 0.722v-40.63c0-40.592-0.004-40.634-4.122-45.078-5.362-5.786-11.98-7.388-18.118-4.386-4.75 2.322-166.316 153.776-174.802 163.858-2.856 3.396-4.346 7.226-4.346 11.178 0 7.416-1.396 5.978 83.628 86.012 35.2 33.134 70.692 66.63 78.874 74.432 14.070 13.422 15.284 14.188 22.462 14.188 6.376 0 8.292-0.836 12.004-5.25z" />
<glyph unicode="&#xe941;" glyph-name="arrow-undo-circle-outline" data-tags="arrow-undo-circle-outline" d="M482.986 862.654c-79.598-5.126-156.634-34.148-223.572-84.228-21.178-15.844-62.496-57.192-78.31-78.368-43.692-58.504-70.444-122.73-81.534-195.738-4.122-27.148-4.122-85.492 0-112.64 11.092-73.022 37.88-137.322 81.546-195.738 16.080-21.51 57.316-62.746 78.826-78.826 58.416-43.666 122.716-70.454 195.738-81.546 27.148-4.122 85.492-4.122 112.64 0 73.052 11.096 137.508 37.956 195.738 81.57 21.51 16.112 62.69 57.292 78.802 78.802 43.614 58.23 70.474 122.686 81.57 195.738 4.122 27.148 4.122 85.492 0 112.64-13.504 88.906-50.824 166.314-110.588 229.38-73.082 77.12-169.666 122.176-276.72 129.086-26.392 1.704-25.564 1.706-54.136-0.132zM568.32 795.384c71.676-12.15 135.15-43.9 187.158-93.62 55.22-52.79 91.122-121.364 104.186-199 4.182-24.86 4.146-85.792-0.066-110.23-19.756-114.598-88.984-208.512-191.576-259.892-96.842-48.5-215.202-48.5-312.044 0-102.928 51.548-172.428 146.058-191.63 260.594-4.242 25.296-4.242 84.232 0 109.528 21.082 125.746 103.13 227.202 221.35 273.708 26.094 10.264 57.514 17.646 93.876 22.054 13.334 1.618 73.17-0.502 88.746-3.142zM433.090 608.116c-18.082-17.068-57.58-54.36-87.772-82.872s-55.344-53.010-55.894-54.442c-1.96-5.11-0.944-12.17 2.358-16.368 6.466-8.22 171.002-162.618 175.786-164.956 6-2.93 12.618-1.448 18.126 4.060l4.12 4.12v81.914l8.106-0.722c4.458-0.398 18.090-1.104 30.294-1.57 42.74-1.632 84.968-11.6 115.81-27.338 19.56-9.98 34.506-20.73 51.536-37.066 7.562-7.254 15.928-14.016 18.594-15.030 6.362-2.418 15.456 0.508 19.166 6.168 3.57 5.45 2.182 25.374-3.848 55.234-24.148 119.59-96.386 181.86-219.012 188.79l-20.646 1.168v39.108c0 39.63-0.598 43.976-6.68 48.646-1.488 1.142-5.96 2.102-9.938 2.132-7.054 0.054-8.028-0.7-40.106-30.976z" />
<glyph unicode="&#xe942;" glyph-name="arrow-undo-circle-sharp" data-tags="arrow-undo-circle-sharp" d="M483.84 862.688c-64.702-4.044-129.968-24.546-186.378-58.552-107.834-65.002-179.506-173.904-197.882-300.67-4.060-28.004-4.060-82.928 0-110.932 10.514-72.532 37.58-137.788 81.536-196.592 16.080-21.51 57.316-62.746 78.826-78.826 58.804-43.956 124.060-71.022 196.592-81.536 14.198-2.058 31.212-2.97 55.466-2.97s41.268 0.912 55.466 2.97c72.532 10.514 137.788 37.58 196.592 81.536 21.51 16.080 62.746 57.316 78.826 78.826 40.918 54.74 67.132 114.722 78.828 180.378 20.136 113.038-8.44 230.334-78.83 323.576-65.706 87.036-167.38 145.936-276.268 160.042-25.48 3.3-57.13 4.352-82.774 2.75zM515.414 545.040c89.354-4.58 152.124-42.882 186.124-113.568 17.378-36.128 26.842-79.518 29.884-136.996l1.214-22.966-12.758 15.286c-51.016 61.12-98.8 85.7-180.572 92.89-10.794 0.948-25.568 1.732-32.828 1.74l-13.204 0.014-0.9-108.296-100.252 95.488c-78.388 74.664-99.79 95.928-98.134 97.498 1.166 1.106 46.278 43.992 100.252 95.306l98.134 93.296 0.852-54.3 0.854-54.298 21.334-1.094z" />
<glyph unicode="&#xe943;" glyph-name="arrow-undo-outline" data-tags="arrow-undo-outline" d="M464.020 811.084c-10.494-6.52-362.82-344.096-365.322-350.028-2.912-6.902-2.904-19.228 0.016-26.152 2.692-6.382 355.238-343.848 366.020-350.364 12.024-7.266 28.614-4.946 38.224 5.348 8.97 9.606 9.042 10.402 9.042 98.644v81.974h11.672c6.42 0 23.892-1.168 38.828-2.596 101.46-9.704 166.532-34.844 228.54-88.298 19.548-16.85 42.646-41.656 68.894-73.986 17.148-21.12 23.138-25.194 37.136-25.254 17.298-0.074 29.518 12.906 30.936 32.856 1.016 14.282-2.254 74.964-5.596 103.85-10.948 94.63-36.16 172.258-75.578 232.71-64.518 98.944-159.36 154.132-291.65 169.706-12.016 1.414-26.456 2.766-32.088 3.006l-10.24 0.434-0.854 85.332c-0.904 90.434-0.728 88.55-9.174 97.87-5.75 6.346-12.096 8.798-22.742 8.788-7.278-0.006-11.53-1.022-16.064-3.84zM450.834 578.56c3.79-6.846 11.37-13.84 17.646-16.28 2.816-1.096 19.724-2.638 37.572-3.426 170.436-7.526 275.386-80.254 326.144-226.008 11.174-32.088 22.388-82.892 25.626-116.1l1.164-11.946-14.346 12.93c-77.068 69.46-151.1 100.864-267.454 113.454-27.296 2.954-95.706 5.234-104.962 3.498-3.508-0.658-9.088-3.578-12.402-6.486-11.946-10.49-11.73-9.162-12.676-77.83l-0.852-61.956-135.254 129.092c-74.39 71.002-135.254 129.726-135.254 130.498s60.864 59.496 135.254 130.498l135.254 129.092 0.852-61.956c0.738-53.474 1.242-62.654 3.688-67.074z" />
<glyph unicode="&#xe944;" glyph-name="arrow-undo-sharp" data-tags="arrow-undo-sharp" d="M308.054 636.418c-115.456-98.256-209.92-179.458-209.92-180.45s94.464-82.196 209.92-180.452l209.92-178.648 0.44 102.366 0.44 102.368 20.892-1.168c125.668-7.028 198.804-32.038 268.36-91.772 23.48-20.164 38.566-35.922 83.66-87.386 26.924-30.728 35.96-40.036 36.444-37.546 1.73 8.888-1.434 133.252-3.964 155.794-20.762 184.974-108.606 300.376-264.542 347.526-36.092 10.912-90.608 20.014-130.638 21.81l-9.386 0.42-0.854 102.89-0.852 102.892-209.92-178.644z" />
<glyph unicode="&#xe945;" glyph-name="arrow-up" data-tags="arrow-up" d="M498.9 805.75c-3.92-1.28-9.68-3.926-12.8-5.88s-72.596-70.596-154.392-152.538c-141.818-142.072-148.886-149.444-152.32-158.862-1.98-5.434-3.602-12.892-3.602-16.576 0-8.79 5.504-23.228 11.732-30.778 11.63-14.1 33.634-20.27 51.606-14.474 8.706 2.808 14.944 8.702 117.126 110.688l107.93 107.722 0.444-261.086 0.442-261.086 4.212-8.242c5.542-10.852 14.456-18.676 26.35-23.126 12.218-4.57 20.526-4.57 32.744 0 11.894 4.45 20.808 12.274 26.35 23.126l4.212 8.242 0.442 259.84c0.244 142.912 1.004 259.84 1.688 259.84 0.686 0 49.254-47.914 107.932-106.476 100.976-100.778 107.176-106.634 115.88-109.442 17.972-5.798 39.976 0.374 51.606 14.474 6.228 7.55 11.732 21.988 11.732 30.778 0 3.684-1.624 11.142-3.608 16.576-3.44 9.416-10.594 16.872-153.174 159.696-119.822 120.026-151.308 150.678-158.326 154.13-10.616 5.222-24.504 6.624-34.206 3.454z" />
</font>
</defs>
</svg>
