<svg xmlns="http://www.w3.org/2000/svg" width="512" height="512"><path d="M241.92 48.669c-64.561 4.115-123.152 38.433-159.962 93.693-26.292 39.469-38.649 92.321-32.455 138.811 6.326 47.479 26.376 88.354 59.673 121.651 33.526 33.526 73.443 53.027 122.504 59.846 4.224.587 15.168 1.068 24.32 1.068 9.152 0 20.096-.481 24.32-1.068 49.001-6.811 88.952-26.339 122.482-59.868 33.529-33.53 53.057-73.481 59.868-122.482 1.376-9.9 1.376-38.74 0-48.64-6.778-48.766-26.328-88.904-59.45-122.057-11.819-11.831-20.651-19.077-33.662-27.617-37.561-24.655-81.952-36.249-127.638-33.337m21.941 113.668c2.012 1.131 4.324 3.483 5.663 5.76l2.263 3.85.258 33.875.258 33.875 33.875.258 33.875.258 3.711 2.124c7.85 4.495 10.273 14.565 5.364 22.304-4.541 7.161-4.25 7.111-42.95 7.387l-33.875.241-.258 33.892-.258 33.892-2.263 3.85c-6.172 10.497-20.876 10.497-27.048 0l-2.263-3.85-.258-33.892-.258-33.892-33.875-.241c-38.7-.276-38.409-.226-42.95-7.387-4.895-7.719-2.57-17.582 5.225-22.165l3.85-2.263 33.875-.258 33.875-.258.258-33.875.258-33.875 2.116-3.695c4.273-7.464 14.014-10.14 21.532-5.915" fill-rule="evenodd"/></svg>