<svg xmlns="http://www.w3.org/2000/svg" width="512" height="512"><path d="M100.267 65.191C81.316 68.84 64.5 81.98 55.169 100.431c-4.537 8.97-6.73 18.515-6.826 29.702-.126 14.77 2.623 22.85 11.957 35.15 3.459 4.557 5.784 6.698 9.039 8.32 5.442 2.711 12.194 2.903 17.497.496 2.536-1.151 13.551-11.382 36.443-33.848 35.902-35.234 36.416-35.873 36.416-45.271 0-7.119-3.262-13.08-9.821-17.947-6.257-4.643-15.272-9.059-22.301-10.925-7.099-1.884-20.03-2.318-27.306-.917m288 .044c-10.21 2.195-17.616 5.545-26.141 11.826-9.295 6.848-12.507 17.678-8.053 27.153 2.492 5.302 65.697 67.437 71.087 69.883 5.352 2.429 12.054 2.22 17.612-.55 3.406-1.697 5.593-3.711 9.034-8.32 9.247-12.383 11.927-20.329 11.835-35.094-.093-15.069-3.926-26.961-12.653-39.253-8.556-12.052-21.279-20.974-35.319-24.77-6.944-1.876-20.7-2.316-27.402-.875M234.322 97.398c-30.352 3.895-60.61 16.311-85.002 34.879-21.323 16.232-38.993 37.869-51.21 62.71-9.256 18.821-14.999 38.679-17.12 59.199-1.378 13.326-.567 36.299 1.711 48.497 5.013 26.836 16.316 53.042 31.67 73.43 3.272 4.344 5.949 8.174 5.949 8.509 0 .336-8.802 9.454-19.561 20.261-21.239 21.336-21.29 21.412-20.329 29.938 1.138 10.102 12.831 16.116 22.341 11.492 2.111-1.027 10.794-9.023 22.184-20.429l18.716-18.743 3.898 3.226c9.795 8.104 25.361 17.359 39.148 23.275 57.344 24.606 124.856 16.749 173.895-20.237 4.019-3.031 7.548-5.512 7.841-5.512.294 0 9.192 8.589 19.774 19.085 20.836 20.669 22.144 21.575 30.039 20.816 10.176-.977 17.118-13.558 12.399-22.468-.729-1.375-9.798-10.944-20.155-21.265-10.356-10.322-18.83-19.028-18.83-19.347 0-.32 2.414-3.781 5.363-7.692 15.717-20.839 26.237-44.597 31.861-71.955 2.317-11.272 2.455-13.128 2.442-32.854-.015-23.495-1.166-32.086-6.779-50.602C404.446 155.228 347.542 106.72 279.21 97.7c-10.518-1.389-35.128-1.554-44.888-.302m30.513 49.409c1.661 1.139 3.905 3.613 4.986 5.498l1.966 3.428v121.299l-2.348 3.547c-1.291 1.951-3.979 4.419-5.973 5.484-3.602 1.924-3.894 1.939-44.586 2.213-45.281.306-47.996.081-53.087-4.389-7.86-6.901-7.052-19.367 1.627-25.113l3.546-2.347 34.372-.241 34.372-.241.252-50.106c.224-44.722.403-50.381 1.664-52.666 1.707-3.095 4.532-5.811 7.974-7.666 3.733-2.013 11.348-1.363 15.235 1.3" fill-rule="evenodd"/></svg>