<svg xmlns="http://www.w3.org/2000/svg" width="512" height="512"><path d="M241.92 48.669c-64.561 4.115-123.152 38.433-159.962 93.693-26.292 39.469-38.649 92.321-32.455 138.811 6.326 47.479 26.376 88.354 59.673 121.651 33.526 33.526 73.443 53.027 122.504 59.846 4.224.587 15.168 1.068 24.32 1.068 9.152 0 20.096-.481 24.32-1.068 49.001-6.811 88.952-26.339 122.482-59.868 33.529-33.53 53.057-73.481 59.868-122.482 1.376-9.9 1.376-38.74 0-48.64-6.778-48.766-26.328-88.904-59.45-122.057-11.819-11.831-20.651-19.077-33.662-27.617-37.561-24.655-81.952-36.249-127.638-33.337m24.499 98.349c4.841 2.847 7.03 5.299 9.29 10.41 2.21 4.996 2.206 5.206-1.689 86.199-2.565 53.332-2.401 52.09-7.49 56.905-3.007 2.845-6.245 4.108-10.53 4.108-5.965 0-11.337-3.309-14.167-8.725-1.654-3.167-1.761-4.7-4.638-66.594-2.921-62.855-3.003-67.551-1.25-71.745 2.432-5.82 7.669-10.514 14.076-12.617 4.014-1.317 12.463-.256 16.398 2.059m-4.814 181.917c8.708 2.598 14.038 9.832 14.003 19.002-.024 6.18-2.072 10.791-6.614 14.886a19.39 19.39 0 0 1-25.988 0c-4.582-4.131-6.59-8.696-6.614-15.034-.033-8.973 5.191-16.176 13.635-18.798 5.008-1.555 6.527-1.562 11.578-.056" fill-rule="evenodd"/></svg>