<svg xmlns="http://www.w3.org/2000/svg" width="512" height="512"><path d="M336.64 32.948c-14.022 1.348-29.136 3.15-30.426 3.627-1.239.459 15.495 17.616 83.716 85.835 76.122 76.119 85.317 85.04 85.748 83.186 1.186-5.111 3.079-24.472 3.917-40.067 2.226-41.438-3.951-81.231-15.562-100.249-10.195-16.698-28.274-25.667-62.113-30.813-8.524-1.296-56.088-2.403-65.28-1.519m-82.773 14.83c-43.319 12.904-78.011 30.197-109.492 54.576-10.347 8.013-29.05 26.21-37.708 36.688-25.149 30.435-43.948 66.467-57.46 110.131-2.106 6.806-4.071 13.718-4.368 15.36l-.539 2.987 100.252 100.214 100.251 100.213 8.799-2.431c48.529-13.413 92.791-36.422 124.611-64.777 40.853-36.405 70.515-86.396 87.303-147.137l2.431-8.799-100.212-100.215C312.618 89.47 266.946 44.396 266.241 44.423c-.704.028-6.273 1.538-12.374 3.355m86 116.384c3.321 1.42 7.004 5.211 8.239 8.48 1.335 3.534 1.105 9.667-.48 12.787-.763 1.502-6.605 8.015-12.983 14.474l-11.597 11.743 6.548 6.604c8.97 9.045 10.857 14.162 7.867 21.32-2.538 6.074-7.861 9.603-14.483 9.603-5.363 0-8.314-1.69-15.794-9.044l-6.415-6.309-11.037 11.061-11.036 11.061 6.018 6.216c7.191 7.426 8.921 10.512 8.963 15.995.058 7.442-4.082 12.998-11.44 15.355-6.164 1.975-11.266-.259-20.079-8.794l-6.216-6.018-11.061 11.036-11.061 11.037 6.309 6.415c7.354 7.48 9.044 10.431 9.044 15.794 0 6.622-3.529 11.945-9.603 14.483-7.158 2.99-12.275 1.103-21.32-7.867l-6.604-6.548-11.743 11.597c-6.459 6.378-12.972 12.22-14.474 12.983-3.36 1.707-10.636 1.804-13.738.184-3.094-1.617-6.685-5.509-7.797-8.452-1.335-3.534-1.105-9.667.48-12.787.763-1.502 6.605-8.015 12.983-14.474l11.597-11.743-6.548-6.604c-8.97-9.045-10.857-14.162-7.867-21.32 2.538-6.074 7.861-9.603 14.483-9.603 5.363 0 8.314 1.69 15.794 9.044l6.415 6.309 11.037-11.061 11.036-11.061-6.018-6.216c-7.169-7.403-9.03-10.711-9.03-16.054 0-12.138 12.384-19.395 23.257-13.627 1.163.616 4.911 3.826 8.329 7.132l6.216 6.011 11.061-11.036 11.061-11.037-6.309-6.415c-7.354-7.48-9.044-10.431-9.044-15.794 0-6.622 3.529-11.945 9.603-14.483 7.161-2.992 12.274-1.103 21.334 7.881l6.618 6.561 11.302-11.216c6.217-6.169 12.647-12.017 14.289-12.994 3.509-2.089 9.793-2.364 13.894-.609M36.364 305.534c-.912 2.774-3.111 25.3-3.974 40.709-1.488 26.569.601 53.894 5.691 74.45 8.017 32.384 20.936 45.224 53.652 53.33 19.71 4.884 45.69 6.874 72.703 5.57 17.033-.822 39.809-3.106 41.837-4.196.656-.352-30.698-32.304-84.228-85.832-55.066-55.064-85.417-84.831-85.681-84.031" fill-rule="evenodd"/></svg>