<svg xmlns="http://www.w3.org/2000/svg" width="512" height="512"><path d="M241.92 48.656c-32.351 2.022-64.984 12.273-93.189 29.276-53.917 32.501-89.753 86.952-98.941 150.335-2.03 14.002-2.03 41.464 0 55.466 5.257 36.266 18.79 68.894 40.768 98.296 8.04 10.755 28.658 31.373 39.413 39.413 29.402 21.978 62.03 35.511 98.296 40.768 7.099 1.029 15.606 1.485 27.733 1.485s20.634-.456 27.733-1.485c36.266-5.257 68.894-18.79 98.296-40.768 10.755-8.04 31.373-28.658 39.413-39.413 20.459-27.37 33.566-57.361 39.414-90.189 10.068-56.519-4.22-115.167-39.415-161.788-32.853-43.518-83.69-72.968-138.134-80.021-12.74-1.65-28.565-2.176-41.387-1.375m.777 114.396 2.21 2.626v39.734l10.453.605c32.488 1.88 57.017 11.113 75.925 28.58 19.109 17.652 32.048 47.144 35.813 81.63 1.123 10.285.443 12.634-4.225 14.586-4.275 1.787-6.752.618-14.758-6.969-4.046-3.835-9.877-8.771-12.957-10.969-17.925-12.791-43.229-20.453-71.051-21.515-6.102-.233-12.918-.586-15.147-.785l-4.053-.361v20.315c0 20.296-.002 20.317-2.061 22.539-2.681 2.893-5.99 3.694-9.059 2.193-2.375-1.161-83.158-76.888-87.401-81.929-1.428-1.698-2.173-3.613-2.173-5.589 0-3.708-.698-2.989 41.814-43.006 17.6-16.567 35.346-33.315 39.437-37.216 7.035-6.711 7.642-7.094 11.231-7.094 3.188 0 4.146.418 6.002 2.625" fill-rule="evenodd"/></svg>