<svg xmlns="http://www.w3.org/2000/svg" width="512" height="512"><path d="M241.92 48.656c-32.351 2.022-64.984 12.273-93.189 29.276-53.917 32.501-89.753 86.952-98.941 150.335-2.03 14.002-2.03 41.464 0 55.466 5.257 36.266 18.79 68.894 40.768 98.296 8.04 10.755 28.658 31.373 39.413 39.413 29.402 21.978 62.03 35.511 98.296 40.768 7.099 1.029 15.606 1.485 27.733 1.485s20.634-.456 27.733-1.485c36.266-5.257 68.894-18.79 98.296-40.768 10.755-8.04 31.373-28.658 39.413-39.413 20.459-27.37 33.566-57.361 39.414-90.189 10.068-56.519-4.22-115.167-39.415-161.788-32.853-43.518-83.69-72.968-138.134-80.021-12.74-1.65-28.565-2.176-41.387-1.375m21.162 107.182c3.151 1.597 82.618 80.141 86.145 85.144 3.987 5.655 2.769 15.553-2.501 20.319-2.239 2.025-7.429 4.087-10.272 4.081-7.159-.014-7.966-.658-36.696-29.249l-27.496-27.362-.237 68.628-.238 68.628-2.384 4.054c-6.085 10.353-21.193 10.227-27.046-.225l-2.144-3.829-.238-68.628-.237-68.628-27.496 27.362c-28.73 28.591-29.537 29.235-36.696 29.249-2.843.006-8.033-2.056-10.272-4.081-5.27-4.766-6.488-14.664-2.501-20.319 3.306-4.689 81.918-82.549 85.547-84.728 3.675-2.207 10.832-2.409 14.762-.416" fill-rule="evenodd"/></svg>