<svg xmlns="http://www.w3.org/2000/svg" width="512" height="512"><path d="M241.92 48.656c-32.351 2.022-64.984 12.273-93.189 29.276-53.917 32.501-89.753 86.952-98.941 150.335-2.03 14.002-2.03 41.464 0 55.466 5.257 36.266 18.79 68.894 40.768 98.296 8.04 10.755 28.658 31.373 39.413 39.413 29.402 21.978 62.03 35.511 98.296 40.768 7.099 1.029 15.606 1.485 27.733 1.485s20.634-.456 27.733-1.485c36.266-5.257 68.894-18.79 98.296-40.768 10.755-8.04 31.373-28.658 39.413-39.413 20.459-27.37 33.566-57.361 39.414-90.189 10.068-56.519-4.22-115.167-39.415-161.788-32.853-43.518-83.69-72.968-138.134-80.021-12.74-1.65-28.565-2.176-41.387-1.375m14.754 113.387c1.741.888 3.823 2.342 4.627 3.231 2.141 2.367 4.088 7.491 4.067 10.699-.043 6.401-2.644 9.613-30.058 37.117l-26.56 26.648 68.638.237 68.639.238 3.59 1.919c10.661 5.698 10.494 22.665-.275 28.009-3.179 1.578-6.137 1.655-71.963 1.874l-68.648.228 26.57 26.658c27.597 27.688 30.048 30.731 30.048 37.312 0 11.495-13.286 19.31-23.519 13.834-2.829-1.514-83.348-82.739-85.452-86.202-2.334-3.839-2.587-10.892-.537-14.927 1.604-3.158 80.146-82.628 85.138-86.145 4.138-2.915 10.807-3.225 15.695-.73" fill-rule="evenodd"/></svg>