<svg xmlns="http://www.w3.org/2000/svg" width="512" height="512"><path d="M144.213 98.036c-6.366 2.058-10.797 4.43-16.086 8.61-3.789 2.995-11.361 13.886-51.14 73.557l-46.694 70.042v11.51l46.704 70.057c50.523 75.787 49.348 74.244 60.706 79.724 9.643 4.652 3.614 4.464 143.044 4.464h129.28l6.253-2.048c15.421-5.052 26.795-17.279 30.435-32.717 1.892-8.023 1.892-242.447 0-250.47-3.733-15.835-16.433-28.927-32.107-33.099-3.879-1.032-24.6-1.214-135.141-1.183-122.746.033-130.841.126-135.254 1.553m69.376 79.976c1.502.755 15.216 13.809 30.475 29.008l27.745 27.635 27.295-27.359c15.013-15.047 28.721-28.101 30.462-29.007 10.105-5.262 22.861 2.38 22.861 13.696 0 6.838-1.543 8.749-30.324 37.567L294.4 257.29l27.365 27.302c15.05 15.016 28.106 28.726 29.013 30.467 3.744 7.191 1.133 16.862-5.595 20.728-4.67 2.682-8.147 3.27-12.525 2.116-3.255-.857-7.122-4.388-32.295-29.486l-28.598-28.512-27.721 27.731c-15.246 15.252-29.025 28.349-30.619 29.106-3.444 1.634-10.109 1.798-12.977.319-2.927-1.509-6.695-5.16-8.098-7.845-1.419-2.717-1.581-9.807-.301-13.214.496-1.321 13.549-15.079 29.007-30.573l28.106-28.171-27.784-27.722c-15.281-15.248-28.334-28.76-29.007-30.027-1.569-2.952-1.58-11.179-.021-14.165 1.548-2.963 5.457-6.664 8.183-7.748 3.31-1.315 10.037-1.101 13.056.416" fill-rule="evenodd"/></svg>