<svg xmlns="http://www.w3.org/2000/svg" viewBox="0 0 512 512"><path d="M236.496 33.796c-39.346 6.596-73.918 36.395-86.683 74.716-3.949 11.852-4.964 18.355-5.506 35.275l-.52 16.213-36.267.427-36.267.426-5.073 2.491c-6.701 3.29-11.935 8.671-15.258 15.685l-2.709 5.718-.228 113.454c-.199 98.618-.058 114.443 1.075 121.01 4.997 28.959 26.029 51.35 55.571 59.164 5.545 1.467 13.699 1.571 144.969 1.854 96.371.208 141.91.014 148.263-.631 19.589-1.989 33.869-9.045 47.234-23.336 7.786-8.326 12.712-16.89 16.287-28.315l2.403-7.68v-235.52l-2.709-5.718c-3.323-7.014-8.557-12.395-15.258-15.685l-5.073-2.491-36.267-.426-36.267-.427-.52-16.213c-.542-16.92-1.557-23.423-5.506-35.275-12.89-38.696-47.502-68.291-87.442-74.768-9.914-1.608-28.499-1.583-38.249.052m38.975 32.725c29.158 7.18 52.554 31.594 58.756 61.312.868 4.158 1.406 11.263 1.465 19.367l.095 12.8H176.213l.078-12.8c.049-8.276.567-15.121 1.464-19.367 6.775-32.061 31.787-56.362 64.37-62.541 8.736-1.657 23.898-1.098 33.346 1.229M166.183 209.526c7.867 3.287 9.56 7.303 9.585 22.732.031 19.534 2.716 32.258 9.479 44.925 5.833 10.925 16.024 22.411 25.805 29.085 6.123 4.178 17.122 9.089 25.321 11.306 10.431 2.821 28.823 2.821 39.254 0 15.081-4.078 27.565-11.451 37.977-22.429 7.257-7.652 11.829-14.419 15.541-23.006 5.046-11.671 6.299-18.266 6.957-36.619.725-20.205 1.625-22.614 9.715-25.994 8.631-3.606 18.27.731 21.173 9.525 1.463 4.432.52 35.399-1.332 43.776-4.705 21.272-14.142 38.953-29.144 54.603-30.586 31.907-75.933 42.722-117.795 28.091-16.281-5.69-30.807-15.129-43.233-28.091-15.002-15.65-24.439-33.331-29.144-54.603-1.852-8.377-2.795-39.344-1.332-43.776 2.903-8.794 12.542-13.131 21.173-9.525" fill-rule="evenodd"/></svg>