<svg xmlns="http://www.w3.org/2000/svg" viewBox="0 0 512 512"><path d="M236.496 33.796c-39.346 6.596-73.918 36.395-86.683 74.716-3.949 11.852-4.964 18.355-5.506 35.275l-.52 16.213-36.267.427-36.267.426-5.073 2.491c-6.701 3.29-11.935 8.671-15.258 15.685l-2.709 5.718-.228 113.454c-.199 98.618-.058 114.443 1.075 121.01 4.997 28.959 26.029 51.35 55.571 59.164 5.545 1.467 13.699 1.571 144.969 1.854 96.371.208 141.91.014 148.263-.631 19.589-1.989 33.869-9.045 47.234-23.336 7.786-8.326 12.712-16.89 16.287-28.315l2.403-7.68V184.659l-3.224-6.524c-3.61-7.303-7.647-11.305-15.097-14.964l-4.719-2.318-36.267-.426-36.267-.427-.52-16.213c-.542-16.92-1.557-23.423-5.506-35.275-12.89-38.696-47.502-68.291-87.442-74.768-9.914-1.608-28.499-1.583-38.249.052m38.975 32.725c29.158 7.18 52.554 31.594 58.756 61.312.868 4.158 1.406 11.263 1.465 19.367l.095 12.8H176.213l.078-12.8c.049-8.276.567-15.121 1.464-19.367 6.775-32.061 31.787-56.362 64.37-62.541 8.736-1.657 23.898-1.098 33.346 1.229m-10.829 176.271c1.702 1.1 4.006 3.466 5.12 5.257 1.999 3.216 2.028 3.594 2.293 29.442l.269 26.185 26.185.269c25.848.265 26.226.294 29.442 2.293 5.168 3.214 7.693 7.754 7.693 13.833 0 4.266-.41 5.689-2.5 8.662-4.923 7.005-4.993 7.02-34.635 7.312l-26.185.259-.269 26.336-.268 26.337-2.572 3.657c-3.552 5.052-7.397 7.124-13.215 7.124s-9.663-2.072-13.215-7.124l-2.572-3.657-.268-26.337-.269-26.336-26.185-.259c-29.642-.292-29.712-.307-34.635-7.312-2.08-2.959-2.5-4.404-2.5-8.588 0-6.096 2.243-10.251 7.365-13.642l3.457-2.29 26.249-.268 26.249-.269.269-26.185c.263-25.677.307-26.246 2.248-29.369 4.971-7.995 14.735-10.313 22.449-5.33" fill-rule="evenodd"/></svg>