<svg xmlns="http://www.w3.org/2000/svg" viewBox="0 0 512 512"><path d="M248.32.6C166.688 3.867 98.021 63.863 82.687 145.317c-2.822 14.99-3.205 39.258-.872 55.216 8.997 61.551 43.689 115.245 97.812 151.388 15.828 10.569 35.886 19.877 54.297 25.194 9.546 2.757 12.689 5.033 12.689 9.186 0 1.213-1.184 8.584-2.632 16.379-2.916 15.698-2.856 19.069.427 24.031 4.852 7.332 10.648 8.172 31.833 4.616 2.717-.456 2.79-.377 6.556 7.121 7.174 14.285 15.268 25.252 28.198 38.21 8.853 8.872 14.448 13.653 21.378 18.264 10.458 6.96 27.96 15.825 32.885 16.657 10.459 1.767 20.807-9.28 17.925-19.136-1.757-6.01-4.68-9.1-11.723-12.393-17.628-8.243-27.497-15.079-39.234-27.175-8.704-8.971-18.199-22.087-18.199-25.138 0-1.462.751-1.821 4.891-2.338 9.717-1.214 15.39-5.31 17.329-12.51 1.397-5.189.627-7.75-6.896-22.934-3.735-7.54-6.791-14.792-6.791-16.117 0-3.443 2.496-6.165 9.426-10.282 15.782-9.376 37.51-28.796 50.643-45.263 19.578-24.549 35.324-56.008 42.806-85.524 4.222-16.654 5.653-27.492 6.123-46.364.647-26.016-1.719-43.633-8.717-64.902-8.628-26.219-21.639-47.708-40.942-67.619C346.829 17.707 298.871-1.423 248.32.6m-85.785 208.532c2.096 1.411 3.903 3.83 5.689 7.615 12.547 26.587 16.909 33.219 31.456 47.828 11.365 11.414 22.947 19.588 37.905 26.752 8.704 4.168 9.978 5.066 11.946 8.424 6.31 10.768-.909 23.993-13.134 24.062-4.063.023-6.195-.692-15.384-5.164-16.232-7.9-27.669-15.811-41.317-28.578-15.937-14.908-31.314-37.765-39.719-59.038-3.896-9.862-1.017-19.134 7.124-22.942 4.715-2.205 11.268-1.763 15.434 1.041" fill-rule="evenodd"/></svg>