<svg xmlns="http://www.w3.org/2000/svg" width="512" height="512"><path d="M25.625 17.565c-3.903 1.692-5.835 3.518-7.802 7.374-1.584 3.102-1.617 8.483-1.403 225.298l.22 222.119 2.773 5.633c3.288 6.679 8.644 11.922 15.424 15.101l4.843 2.27 221.013.251c151.657.172 221.982-.029 224.098-.64 9.029-2.606 13.47-12.915 9.391-21.798-1.865-4.06-3.768-5.879-7.999-7.647-2.799-1.17-26.855-1.313-220.769-1.313H47.787L47.768 246.4C47.75 36.867 47.69 28.457 46.182 25.173c-1.865-4.06-3.768-5.879-7.999-7.647-3.933-1.643-8.714-1.629-12.558.039M392.96 97.599c-5.556 1.792-9.019 3.907-13.798 8.427-5.302 5.014-8.131 9.545-10.023 16.051-1.241 4.268-1.351 18.097-1.149 143.776l.223 139.054 2.678 5.652c4.626 9.762 11.737 16.184 21.601 19.507 5.095 1.716 6.741 1.794 32.783 1.551l27.418-.257 5.738-2.718c10.137-4.802 16.67-12.508 19.8-23.357 1.234-4.279 1.346-18.294 1.142-143.405l-.226-138.662-3.208-6.491c-3.749-7.585-9.925-13.753-17.488-17.466l-4.904-2.408-28.587-.177c-21.425-.134-29.442.098-32 .923m-144.288 64.367c-9.238 3.23-16.552 9.548-20.793 17.964-4.301 8.537-4.275 7.848-4.284 115.323-.006 64.006.306 102.273.862 105.814 1.158 7.382 4.98 15.002 9.992 19.924 5.394 5.297 8.114 7.017 14.435 9.128 4.947 1.652 6.884 1.741 32.853 1.498l27.596-.257 5.974-2.918c10.408-5.084 17.592-14.263 19.955-25.497.669-3.18.951-34.912.951-106.925 0-114.492.238-109.674-5.881-119.126-4.096-6.326-8.41-10.075-15.412-13.393l-5.587-2.648-28.16-.202c-25.124-.18-28.628-.039-32.501 1.315m-141.369 47.147c-8.213 2.004-17.076 8.502-21.847 16.019-5.435 8.561-5.243 5.075-5.243 94.868 0 72.204.157 82.144 1.362 86.245 3.347 11.395 12.968 20.953 24.397 24.237 4.13 1.186 8.892 1.356 32 1.136l27.148-.258 5.547-2.667c10.123-4.868 16.482-12.102 19.647-22.347C191.943 401.072 192 398.15 192 320s-.057-81.072-1.686-86.346c-3.165-10.245-9.524-17.479-19.647-22.347l-5.547-2.667-27.307-.154c-15.018-.085-28.748.197-30.51.627" fill-rule="evenodd"/></svg>