<svg xmlns="http://www.w3.org/2000/svg" width="512" height="512"><path d="M81.92 97.358c-11.246 2.18-23.968 12.339-29.049 23.197-5.251 11.221-5.055 5.949-5.055 135.872 0 130.462-.211 124.974 5.231 136.106 3.409 6.974 12.153 15.904 18.633 19.027 10.84 5.226-1.082 4.925 185.266 4.672L427.093 416l6.067-2.221c15.376-5.63 25.424-16.574 29.365-31.985 1.643-6.421 1.688-9.832 1.688-125.794 0-116.107-.044-119.365-1.694-125.818-3.972-15.53-14.255-26.494-29.83-31.804l-5.596-1.907-170.666.071c-93.867.039-172.395.407-174.507.816m116.307 48.008c3.314 1.385 8.004 6.515 8.907 9.743.853 3.046.853 198.736 0 201.782-.903 3.228-5.593 8.358-8.907 9.743-3.528 1.474-8.926 1.474-12.454 0-3.314-1.385-8.004-6.515-8.907-9.743-.853-3.046-.853-198.736 0-201.782.875-3.129 5.539-8.321 8.718-9.706 3.367-1.467 9.18-1.484 12.643-.037m128 0c3.314 1.385 8.004 6.515 8.907 9.743.853 3.046.853 198.736 0 201.782-.903 3.228-5.593 8.358-8.907 9.743-3.528 1.474-8.926 1.474-12.454 0-3.314-1.385-8.004-6.515-8.907-9.743-.853-3.046-.853-198.736 0-201.782.875-3.129 5.539-8.321 8.718-9.706 3.367-1.467 9.18-1.484 12.643-.037m-62.366 16.971c2.012 1.131 4.324 3.483 5.663 5.76l2.263 3.85v168.106l-2.263 3.85c-6.172 10.497-20.876 10.497-27.048 0l-2.263-3.85V171.947l2.116-3.695c4.273-7.464 14.014-10.14 21.532-5.915m-127.219 16.455c1.702 1.1 4.006 3.466 5.12 5.257l2.025 3.258v137.666l-2.572 3.659c-3.552 5.053-7.396 7.126-13.215 7.126s-9.663-2.073-13.215-7.126l-2.572-3.659V187.307l1.98-3.185c4.971-7.995 14.735-10.313 22.449-5.33m256 0c1.702 1.1 4.006 3.466 5.12 5.257l2.025 3.258v137.666l-2.572 3.659c-3.552 5.053-7.396 7.126-13.215 7.126s-9.663-2.073-13.215-7.126l-2.572-3.659V187.307l1.98-3.185c4.971-7.995 14.735-10.313 22.449-5.33" fill-rule="evenodd"/></svg>