<svg xmlns="http://www.w3.org/2000/svg" width="512" height="512"><path d="M201.387 57.222c-33.568 8.836-66.711 27.82-91.858 52.614-20.154 19.872-36.803 44.864-47.078 70.67-4.22 10.6-7.286 20.555-6.648 21.588.265.429 1.588 1 2.94 1.271 3.447.689 7.777 4.581 9.626 8.653 1.304 2.869 1.57 5.696 1.586 16.827l.018 13.379 4.48.445c14.877 1.477 23.034 2.502 27.795 3.493 3.995.831 5.482.869 5.728.147.183-.537 1.48-4.895 2.881-9.685 2.9-9.912 4.229-12.314 8.159-14.742 3.585-2.216 10.095-2.28 14.117-.14 3.703 1.971 6.781 7.184 6.8 11.517.007 1.808-1.162 7.32-2.598 12.251-1.436 4.931-2.483 9.094-2.325 9.251.157.157 3.54 1.675 7.518 3.374 3.978 1.698 11.909 5.524 17.625 8.503 11.931 6.218 9.911 6.729 17.698-4.471 7.188-10.34 12.843-12.631 21.008-8.514 2.768 1.396 4.347 2.969 5.783 5.76 3.191 6.205 2.356 9.613-4.952 20.213l-6.15 8.921 3.71 3.082c4.789 3.977 19.144 18.332 23.121 23.121l3.082 3.71 8.921-6.15c6.889-4.75 9.768-6.239 12.646-6.539 7.594-.791 15.226 5.919 15.214 13.376-.01 6.039-2.518 9.463-11.779 16.075l-8.626 6.159 5.457 10.429c3.001 5.737 6.705 13.502 8.232 17.257 1.526 3.754 3.059 7.157 3.406 7.561.346.403 4.648-.461 9.558-1.92 10.474-3.114 14.189-3.294 18.415-.89 4.626 2.63 6.379 5.529 6.791 11.225.309 4.269.048 5.43-1.874 8.335-2.713 4.099-4.621 5.12-15.041 8.043-4.458 1.252-8.545 2.424-9.08 2.605-.72.243-.678 1.74.159 5.725.993 4.728 1.779 11.189 3.486 28.649l.438 4.48 9.539.005c5.246.002 10.966.401 12.712.886 5.661 1.572 10.888 7.354 10.919 12.08.03 4.455.917 4.637 9.959 2.045 59.152-16.956 109.002-60.892 133.258-117.449 3.942-9.194 10.37-27.971 10.37-30.295 0-.567-1.066-1.245-2.369-1.506-3.124-.625-6.703-3.509-8.505-6.855-1.164-2.16-1.517-5.609-1.772-17.301l-.318-14.604-8.238-.571c-4.531-.313-11.886-1.137-16.344-1.83a2447.8 2447.8 0 0 0-11.52-1.766l-3.414-.505-2.507 9.159c-3.847 14.052-7.248 17.894-15.839 17.894-5.598 0-8.436-1.546-11.734-6.392-2.638-3.876-2.472-8.523.692-19.385 1.436-4.931 2.492-9.077 2.346-9.215-.145-.137-5.064-2.347-10.931-4.91-5.867-2.563-13.739-6.395-17.493-8.515-3.755-2.12-7.079-3.709-7.387-3.531-.309.178-3.264 4.109-6.567 8.736-6.976 9.77-9.795 11.648-16.523 11.001-7.632-.733-12.972-7.049-12.343-14.597.289-3.459 1.354-5.605 6.458-13.02l6.112-8.879-3.222-2.72c-4.184-3.531-20.439-19.79-23.991-23.996l-2.755-3.262-7.188 5.141c-9.16 6.553-11.588 7.784-15.353 7.784-10.377 0-16.993-10.541-12.475-19.875 1.448-2.99 3.56-4.992 10.131-9.6 4.567-3.202 8.445-5.927 8.62-6.055.174-.128-.649-1.883-1.829-3.898-3.198-5.462-11.168-21.746-13.385-27.346-1.068-2.698-2.128-4.906-2.355-4.906-.228 0-4.503 1.191-9.501 2.647-10.305 3.003-15.391 3.02-19.54.065-7.534-5.364-7.031-18.293.896-23.032 1.501-.897 6.701-2.741 11.554-4.096l8.824-2.464-.477-3.414c-.262-1.877-1.034-7.253-1.717-11.946-.683-4.694-1.497-11.894-1.811-16l-.57-7.467-9.096-.005c-5.003-.002-10.629-.43-12.5-.949-4.307-1.196-8.669-5.768-9.562-10.024l-.688-3.279-8.96 2.359m99.523 1.592c-.644 4.022-4.12 8.401-7.936 9.995-1.813.758-6.265 1.164-12.749 1.164h-9.963l.588 7.797c.561 7.431 2.614 21.045 3.273 21.704.171.171 4.515-.87 9.654-2.312 8.247-2.315 9.763-2.51 12.925-1.658 9.156 2.466 13.055 12.817 7.969 21.155-2.022 3.314-5.849 5.305-15.236 7.924-6.878 1.919-7.082 2.05-6.554 4.192.656 2.667 7.365 17.004 10.307 22.029l2.11 3.604 7.018-4.969c9.3-6.585 10.048-6.932 14.942-6.932 4.646 0 8.548 2.097 11.624 6.249 2.351 3.173 2.483 11.106.242 14.526-1.288 1.966-12.545 10.927-16.736 13.323-1.476.843 6.34 9.835 15.998 18.404l6.252 5.548 5.694-7.833c7.346-10.104 9.098-11.391 15.508-11.391 5.598 0 8.436 1.546 11.733 6.392 1.394 2.047 1.92 4.058 1.92 7.334 0 3.969-.478 5.214-3.97 10.327-2.184 3.198-4.897 7.036-6.031 8.53l-2.06 2.716 1.977 1.295c3.335 2.183 23.487 11.62 24.815 11.62.852 0 1.995-2.65 3.589-8.32 2.877-10.231 4.745-13.41 9.223-15.694 8.579-4.377 18.936 1.052 19.999 10.482.297 2.635-.344 6.348-2.186 12.655-1.433 4.908-2.474 9.056-2.313 9.217.588.588 15.434 2.726 22.785 3.281l7.559.57.019-5.882c.032-10.239 4.411-16.296 12.432-17.201 2.527-.284 3.762-.831 3.762-1.664 0-1.976-3.268-14.466-6.063-23.17-19.104-59.496-64.999-107.839-123.664-130.26-7.795-2.979-24.793-8.094-26.898-8.094-.563 0-1.264 1.506-1.558 3.347M70.827 277.751c0 7.91-.987 10.92-4.981 15.187-2.492 2.663-10.236 5.307-12.987 4.434-1.636-.52-1.721-.323-1.168 2.714 1.366 7.498 6.5 24.662 10.205 34.11 10.94 27.904 27.042 51.889 49.234 73.341 25.659 24.802 55.878 42.052 89.532 51.108l7.383 1.987.593-3.958c.723-4.818 2.074-7.526 5.259-10.54 3.686-3.487 6.331-4.107 17.513-4.107h10.285l-.603-7.467c-.54-6.684-2.757-21.576-3.292-22.111-.115-.115-4.035.919-8.711 2.296-10.407 3.067-14.517 3.199-18.382.595-6.38-4.299-8.515-11.598-5.347-18.274 1.949-4.108 6.118-6.542 15.867-9.267 4.576-1.279 8.318-2.753 8.316-3.275-.007-1.401-6.919-16.486-10.11-22.064l-2.759-4.822-7.823 5.517c-9.074 6.398-12.926 7.771-17.547 6.257-4.878-1.599-6.748-3.158-8.753-7.301-2.202-4.55-1.919-10.312.681-13.835.913-1.237 5.206-4.828 9.541-7.979l7.881-5.729-5.623-5.988c-3.093-3.293-8.339-8.537-11.657-11.654l-6.033-5.666-2.906 4.157c-9.399 13.446-12.099 15.676-18.975 15.676-6.757 0-12.953-6.618-12.953-13.835 0-4.892.348-5.644 6.918-14.923l4.955-6.998-4.831-2.764c-5.585-3.196-20.671-10.109-22.073-10.116-.522-.002-1.996 3.74-3.275 8.316-1.279 4.576-3.217 9.7-4.307 11.387-3.769 5.833-12.763 7.78-18.356 3.973-7.194-4.896-8.156-9.896-4.387-22.803 1.433-4.908 2.509-9.021 2.392-9.138-.398-.399-16.308-2.685-22.53-3.239l-6.186-.55v7.348" fill-rule="evenodd"/></svg>