<svg xmlns="http://www.w3.org/2000/svg" width="512" height="512"><path d="M198.346 17.544c-20.213 3.398-38.927 12.711-55.964 27.853l-5.779 5.137-4.37-1.049c-5.603-1.344-17.745-1.346-24.302-.003-6.825 1.397-15.872 5.686-22.355 10.599-18.36 13.914-26.074 39.304-18.655 61.404l2.252 6.708-3.689 3.957c-11.643 12.49-17.153 26.485-17.18 43.637-.019 11.665 1.934 19.716 7.269 29.972 4.892 9.402 14.997 20.417 22.275 24.283l2.328 1.236.232 110.281.232 110.281 2.647 6.856c3.368 8.725 6.176 13.152 12.58 19.829 6.496 6.774 12.449 10.725 21.3 14.138l6.993 2.697h199.68l6.993-2.697c9.235-3.561 15.188-7.626 22.271-15.212 9.669-10.353 14.683-23.342 14.683-38.039v-7.461l18.986-.333c18.816-.33 19.06-.359 27.094-3.12 9.578-3.292 16.456-7.01 23.437-12.666 11.28-9.142 20.419-23.366 24.562-38.232 1.871-6.71 1.903-7.692 1.903-57.6 0-50.061-.027-50.869-1.92-57.6-7.807-27.762-29.065-47.74-56.377-52.984-3.979-.764-11.991-1.203-21.974-1.203h-15.711v-2.62c0-1.724 1.279-4.425 3.738-7.893 4.825-6.807 7.561-12.317 10.046-20.228 2.887-9.195 2.888-25.73.003-34.965-6.517-20.86-21.518-36.471-41.421-43.104-3.699-1.233-9.332-2.46-12.518-2.727l-5.791-.485-2.283-6.496c-13.25-37.694-46.684-65.831-85.748-72.161-9.753-1.581-26.033-1.576-35.467.01m36.151 32.846c26.745 6.238 47.973 27.04 56.619 55.481 1.75 5.758 1.931 8.113 1.966 25.542.036 18.265.129 19.347 1.916 22.22 2.008 3.228 6.663 6.249 11.064 7.18 5.716 1.209 13.282-2.673 16.198-8.311 1.619-3.13 3.642-13.947 3.684-19.688.029-4.087.063-4.138 2.376-3.576 8.248 2 16.051 8.429 20.022 16.496 2.606 5.294 2.805 6.303 2.805 14.266 0 7.96-.199 8.974-2.8 14.256-5.59 11.355-15.336 17.274-28.347 17.214-10.219-.048-14.875-1.978-28.378-11.767-2.887-2.092-5.35-3.096-8.534-3.478-2.461-.295-32.123-.419-65.915-.274-50.089.214-61.834.479-63.573 1.433-4.004 2.198-6.978 5.652-9.353 10.865-5.882 12.907-16.62 19.513-31.607 19.445-13.073-.059-23.327-6.299-29.293-17.827-2.437-4.71-2.652-5.805-2.679-13.654-.025-7.513.246-9.118 2.266-13.428 2.931-6.253 9.598-12.92 15.851-15.851 4.133-1.937 6.047-2.294 12.292-2.294 7.165 0 7.64.127 15.163 4.053 10.802 5.638 16.709 5.52 22.903-.455 6.548-6.316 6.195-16.878-.77-23.075-4.692-4.173-15.692-9.496-23.36-11.303-6.243-1.471-19.35-1.939-24.102-.861-2.472.561-2.861.386-3.627-1.628-1.14-2.999-.979-12.129.274-15.528 3.207-8.697 11.177-14.659 20.609-15.416 12.473-1.002 21.524 6.028 26.965 20.941 2.577 7.067 8.494 10.807 16.211 10.249 5.884-.426 10.132-3.257 12.835-8.556 3.534-6.927.656-18.643-7.301-29.717l-2.894-4.028 2.702-2.495c17.238-15.918 43.123-22.19 67.812-16.431m-67.244 191.568c2.92 1.492 6.531 5.439 7.626 8.338.619 1.638.902 28.894.889 85.76-.018 79.058-.1 83.533-1.586 86.771-1.865 4.06-3.768 5.879-7.999 7.647-5.536 2.313-12.735 1.149-17.152-2.773-.905-.804-2.351-2.997-3.213-4.874-1.486-3.238-1.568-7.715-1.586-86.854-.015-68.183.192-83.946 1.134-86.2 1.423-3.407 6.616-8.08 9.743-8.769 1.282-.282 2.715-.641 3.184-.796 1.382-.458 6.654.572 8.96 1.75m64 0c2.92 1.492 6.531 5.439 7.626 8.338.619 1.638.902 28.894.889 85.76-.018 79.058-.1 83.533-1.586 86.771-1.865 4.06-3.768 5.879-7.999 7.647-5.536 2.313-12.735 1.149-17.152-2.773-.905-.804-2.351-2.997-3.213-4.874-1.486-3.238-1.568-7.715-1.586-86.854-.015-68.183.192-83.946 1.134-86.2 1.423-3.407 6.616-8.08 9.743-8.769 1.282-.282 2.715-.641 3.184-.796 1.382-.458 6.654.572 8.96 1.75m64 0c2.92 1.492 6.531 5.439 7.626 8.338.619 1.638.902 28.894.889 85.76-.018 79.058-.1 83.533-1.586 86.771-1.865 4.06-3.768 5.879-7.999 7.647-5.536 2.313-12.735 1.149-17.152-2.773-.905-.804-2.351-2.997-3.213-4.874-1.486-3.238-1.568-7.715-1.586-86.854-.015-68.183.192-83.946 1.134-86.2 1.423-3.407 6.616-8.08 9.743-8.769 1.282-.282 2.715-.641 3.184-.796 1.382-.458 6.654.572 8.96 1.75m102.733-1.288c15.492 2.24 28.508 13.968 32.639 29.41.886 3.31 1.141 14.498 1.141 49.92 0 35.422-.255 46.61-1.141 49.92-3.938 14.721-16.131 26.23-31.094 29.35-2.487.519-10.647.943-18.133.943h-13.611V239.787l12.16.017c6.688.009 14.805.399 18.039.866" fill-rule="evenodd"/></svg>