<svg xmlns="http://www.w3.org/2000/svg" width="512" height="512"><path d="M207.36 25.078c-6.68 1.483-13.888 5.305-18.692 9.91-8.263 7.923-11.878 16.263-12.636 29.154l-.486 8.249-22.706.335c-21.79.322-22.954.424-28.842 2.529-10.301 3.683-17.174 8.06-25.089 15.974-8.055 8.056-12.052 14.417-15.866 25.251l-2.403 6.827-.253 47.955-.253 47.956-13.4 5.241c-16.826 6.581-20.591 8.624-25.428 13.795-8.892 9.507-11.531 23.278-6.915 36.093 6.173 17.141 47.288 121.043 48.853 123.46 2.248 3.47 7.769 7.573 12.243 9.098 9.27 3.159 34.262-1.985 51.423-10.585 7.573-3.795 19.03-11.156 25.252-16.225l4.568-3.721 4.435 3.609c16.213 13.193 38.109 23.271 57.705 26.56 30.535 5.126 63.221-4.211 91.077-26.014l5.254-4.112 4.991 4.005c7.148 5.735 15.916 11.369 24.088 15.478 17.529 8.813 41.208 13.956 51.323 11.146 5.084-1.413 10.762-5.588 13.158-9.676 3.242-5.533 49.78-124.655 50.751-129.908 1.734-9.384-1.848-21.546-8.487-28.81-4.9-5.36-9.676-7.994-26.612-14.672l-12.548-4.948-.252-47.863-.253-47.862-2.403-6.827c-3.814-10.834-7.811-17.195-15.866-25.251-7.915-7.914-14.788-12.291-25.089-15.974-5.888-2.105-7.052-2.207-28.842-2.529l-22.706-.335-.486-8.249c-.526-8.952-2.424-15.566-6.171-21.5-5.546-8.787-16.116-15.915-26.422-17.82-7.293-1.349-89.778-1.128-96.015.256m174.245 82.249c7.055 3.474 13.449 10.212 16.179 17.049 1.91 4.784 1.965 5.756 2.254 39.806.163 19.196.072 35.792-.201 36.882-1.216 4.845-.049 5.22-67.192-21.574-35.389-14.121-66.058-25.869-69.392-26.58-10.967-2.337-11.306-2.23-82.647 26.172-68.457 27.254-67.219 26.856-68.435 22.012-.27-1.073-.364-17.67-.211-36.882.273-34.083.327-35.05 2.232-39.797 3.535-8.806 12.35-16.684 21.428-19.149 3.031-.823 30.232-1.023 122.105-.896l118.205.163 5.675 2.794M155.993 425.489c-16.741 15.727-34.919 29.487-51.601 39.059-7.985 4.582-9.762 7.312-7.547 11.596 2.03 3.926 4.972 4.377 13.737 2.106 13.751-3.562 35.305-12.226 48.565-19.522 8.225-4.526 8.519-4.516 20.274.673C204.069 470.28 230.935 476.16 256 476.16c25.183 0 54.472-6.518 78.233-17.409 4.708-2.158 9.096-3.925 9.75-3.926.655 0 8.294 3.42 16.977 7.6 17.712 8.529 28.665 12.808 40.302 15.748 9.041 2.284 11.877 1.869 13.893-2.029 2.351-4.546.573-6.893-10.047-13.27-16.712-10.035-33.058-22.625-50.766-39.099-7.348-6.836-8.151-7.348-11.52-7.346-2.64.001-4.996.831-8.692 3.059-33.398 20.139-70.703 26.907-107.143 19.441-15.01-3.076-33.947-10.53-48.2-18.972-4.45-2.636-6.87-3.53-9.554-3.53-3.392 0-4.136.509-13.24 9.062" fill-rule="evenodd"/></svg>