<svg xmlns="http://www.w3.org/2000/svg" width="512" height="512"><path d="M245.87.961c-10.089 1.676-21.484 7.783-29.46 15.788-10.475 10.513-16.009 23.635-16.152 38.291-.103 10.559 1.082 15.695 5.98 25.931 6.263 13.085 17.253 22.738 31.983 28.091 5.62 2.043 7.435 2.275 17.779 2.275 10.344 0 12.159-.232 17.779-2.275 9.006-3.273 15.021-7.102 22.01-14.011 4.943-4.887 6.885-7.63 9.973-14.08 4.898-10.236 6.083-15.372 5.98-25.931-.333-34.251-31.45-59.798-65.872-54.079M68.64 128.795c-4.117.993-11.398 5.278-13.807 8.126-11.409 13.485-7.811 33.354 7.584 41.881l4.57 2.531 57.6.427c57.482.426 57.607.431 61.144 2.322 12.803 6.847 16.171 24.481 11.753 61.545-.69 5.793-4.298 27.681-8.018 48.64-26.797 151.005-33.425 190.077-32.876 193.827.841 5.743 3.254 10.557 7.647 15.253 5.532 5.914 10.988 8.184 19.656 8.179 7.711-.004 12.155-1.677 18.198-6.85 6.743-5.771 6.645-5.37 20.215-83.05 6.838-39.146 13.216-73.514 14.174-76.374 5.193-15.511 12.798-25.263 19.691-25.248 4.65.011 10.541 5.469 14.731 13.649 4.936 9.638 6.478 16.831 18.846 87.894 13.474 77.421 13.404 77.128 19.999 83.086 6.274 5.669 9.705 6.936 18.786 6.936 6.814 0 8.692-.312 11.772-1.955 8.656-4.616 14.354-12.701 15.238-21.621.449-4.527-.931-12.65-33.819-199.14-6.848-38.835-7.436-42.857-8.557-58.54-1.803-25.226 1.964-39.131 12.34-45.547l4.17-2.579 57.242-.427c52.512-.391 57.519-.552 60.608-1.946 7.786-3.514 12.964-9.581 15.437-18.087 1.768-6.08 1.282-11.593-1.569-17.793-2.875-6.254-5.697-9.251-11.858-12.592l-5.377-2.915-186.453-.131c-102.55-.072-187.629.153-189.067.499" fill-rule="evenodd"/></svg>