<svg xmlns="http://www.w3.org/2000/svg" width="512" height="512"><path d="M42.006 48.736c-9.634 1.604-18.403 8.337-22.97 17.638l-2.396 4.879V375.04l2.059 5.12c2.848 7.083 10.59 14.791 17.568 17.489 4.773 1.847 6.852 2.025 30.72 2.638 26.517.681 40.216 1.584 58.453 3.853 44.751 5.566 79.401 18.664 103.529 39.134 5.588 4.74 7.887 5.609 9.794 3.702 1.611-1.611 1.474-342.7-.14-346.561-3.289-7.873-28.297-23.81-50.89-32.431-29.696-11.331-66.141-17.356-116.906-19.325-24.286-.942-22.675-.947-28.821.077m404.714-.372c-51.571 1.331-94.396 8.424-125.529 20.791-20.985 8.336-44.72 23.854-47.814 31.26-.969 2.319-1.164 31.426-1.164 174.301 0 168.701.027 171.532 1.651 172.401 2.624 1.404 3.118 1.171 9.212-4.354 22.327-20.239 56.693-32.975 104.337-38.668 18.478-2.208 32.399-3.118 58.181-3.805 22.96-.611 25.426-.823 29.956-2.577 6.508-2.52 14.281-9.709 17.43-16.121l2.38-4.845V71.253l-2.491-5.073c-5.988-12.196-18.125-18.823-33.349-18.208-2.347.094-8.107.271-12.8.392" fill-rule="evenodd"/></svg>