<svg xmlns="http://www.w3.org/2000/svg" viewBox="0 0 512 512"><path d="M235.947 32.121c-20.829 2.374-33.503 4.921-48.824 9.812-33.937 10.834-64.821 29.682-90.164 55.026-51.828 51.827-74.673 124.053-62.317 197.014 7.533 44.48 29.84 87.174 62.643 119.894 46.658 46.539 106.42 69.628 171.942 66.429 73.512-3.589 141.716-44.95 180.039-109.181 27.01-45.271 37.154-99.764 28.26-151.808-11.154-65.26-50.458-122.17-108.147-156.59-26.918-16.061-57.727-26.365-89.486-29.929-9.394-1.055-36.887-1.472-43.946-.667m67.509 73.246c5.445 1.618 10.877 6.286 13.783 11.849 1.893 3.621 2.291 5.497 2.291 10.784 0 5.287-.398 7.163-2.291 10.784-4.621 8.844-13.34 13.694-23.194 12.903-6.218-.499-10.877-2.713-15.124-7.188-5.179-5.456-6.267-8.322-6.263-16.499.003-8.671 1.632-12.434 7.69-17.766 6.607-5.816 14.39-7.455 23.108-4.867m68.009 41.693c11.613 6.806 15.683 20.717 9.426 32.214-9.18 16.866-32.014 16.903-41.91.068-2.059-3.502-2.34-4.856-2.334-11.235.009-8.176 1.102-11.052 6.274-16.497 5.439-5.727 9.993-7.462 18.589-7.081 4.73.209 6.961.776 9.955 2.531m-72.798 31.74c8.36 4.256 12.762 11.604 12.762 21.307 0 25.911-34.825 33.014-45.338 9.247-3.816-8.625-1.307-20.195 5.799-26.745 7.547-6.957 17.744-8.408 26.777-3.809" fill-rule="evenodd"/></svg>