<svg xmlns="http://www.w3.org/2000/svg" width="512" height="512"><path d="M88.585 48.666c-7.995.947-14.578 2.999-22.025 6.865-16.505 8.568-27.757 22.774-32.73 41.322L32 103.68v151.893c0 170.504-.473 157.667 6.321 171.645 9.68 19.917 26.876 32.661 48.719 36.107 7.657 1.208 330.263 1.208 337.92 0 21.843-3.446 39.039-16.19 48.719-36.107C480.472 413.242 480 426.024 480 256c0-171.183.545-157.507-6.859-172.213-8.53-16.943-22.522-28.381-41.239-33.708l-6.515-1.855-165.547-.117c-91.051-.064-168.116.187-171.255.559m340.827 34.369c6.715 3.297 12.182 8.877 15.443 15.76 2.71 5.721 2.719 5.787 3.012 21.793.325 17.692-.165 20.293-4.211 22.386-3.621 1.872-371.691 1.872-375.312 0-4.046-2.093-4.536-4.694-4.211-22.386.293-16.006.302-16.072 3.012-21.793 4.191-8.848 12.262-15.656 21.075-17.777 1.463-.352 77.732-.582 169.487-.509l166.826.131 4.879 2.395" fill-rule="evenodd"/></svg>