<svg xmlns="http://www.w3.org/2000/svg" width="512" height="512"><path d="M409.6 33.744c-6.638 1.839-15.024 5.904-20.122 9.753-4.851 3.662-217.534 240.056-219.842 244.351-2.11 3.926-1.922 10.502.418 14.633 2.371 4.188 6.106 6.773 12.41 8.593 7.609 2.196 14.566 6.313 21.052 12.46 7.203 6.826 11.717 14.149 13.693 22.214 1.12 4.568 2.201 6.757 4.556 9.227 5.746 6.024 14.719 6.68 20.964 1.532 2.654-2.187 191.546-197.544 219.558-227.071 6.455-6.805 8.569-9.741 11.651-16.181 4.749-9.927 5.987-15.189 5.964-25.362-.052-23.559-14.743-44.121-37.669-52.721-4.84-1.816-7.514-2.204-16.846-2.444-8.065-.207-12.375.071-15.787 1.016M128.109 320.866c-15.477 2.164-29.631 9.722-41.23 22.017-10.83 11.481-17.076 25.747-18.631 42.549-.47 5.079-1.256 10.699-1.748 12.488-1.892 6.885-9.571 12.425-19.12 13.794-8.287 1.188-12.801 4.855-14.992 12.179-2.124 7.102 1.386 13.467 14.275 25.88 15.469 14.898 35.908 25.23 57.444 29.04 8.473 1.498 25.328 1.311 32.882-.366 27.57-6.121 49.235-23.027 61.434-47.94 15.965-32.605 11.528-66.966-11.608-89.888-8.893-8.811-21.203-15.804-32.505-18.466-6.993-1.647-19.303-2.252-26.201-1.287" fill-rule="evenodd"/></svg>