<svg xmlns="http://www.w3.org/2000/svg" width="512" height="512"><path d="M88.89 65.825c-2.158 1.072-4.643 3.267-5.973 5.277l-2.277 3.44V287.147l1.888 7.077c5.014 18.789 12.563 32.004 25.903 45.345 13.188 13.188 25.989 20.562 44.827 25.824 6.654 1.858 7.643 1.887 75.565 2.171 67.134.282 69.04.245 77.654-1.502 39.705-8.055 69.326-38.684 76.221-78.814 1.052-6.121 1.302-15.989 1.302-51.316v-43.738l14.72-.4c12.213-.331 15.737-.728 20.693-2.328 21.302-6.878 36.81-22.959 42.817-44.399 1.342-4.792 1.554-8.975 1.555-30.72.002-24.357-.063-25.333-1.979-30.077-2.764-6.846-9.172-13.589-16.201-17.049l-5.675-2.794-173.672-.219-173.671-.218-3.697 1.835m342.738 51.295c-.267 20.653-.273 20.703-2.64 25.523-6.3 12.83-16.38 17.784-36.185 17.784H384v-64H431.897l-.269 20.693M57.6 401.423c-5.118 2.284-9.837 9.397-9.795 14.763.048 6.026 6.557 14.167 12.123 15.162 1.536.274 80.006.389 174.378.255l171.587-.243 3.151-2.403c5.834-4.451 7.863-10.13 6.099-17.076-1.171-4.61-3.723-7.706-8.282-10.044-3.082-1.58-7.738-1.623-174.934-1.59-141.609.027-172.216.234-174.327 1.176" fill-rule="evenodd"/></svg>