<svg xmlns="http://www.w3.org/2000/svg" width="512" height="512"><path d="M131.648 33.74c-7.047 1.898-14.143 5.903-19.924 11.246-6.581 6.082-10.288 11.753-13.361 20.441L96 72.107v367.786l2.363 6.68c5.626 15.905 17.073 26.785 33.522 31.861C136.705 479.921 142.931 480 256 480c113.069 0 119.295-.079 124.115-1.566 17.073-5.269 29.107-17.289 34.315-34.274 1.504-4.903 1.57-12.861 1.57-188.16s-.066-183.257-1.57-188.16c-5.216-17.012-18.24-29.922-34.443-34.143-7.107-1.851-241.458-1.811-248.339.043m227.179 48.078c4.06 1.865 5.879 3.768 7.647 7.999 1.957 4.683 1.957 71.683 0 76.366-1.768 4.231-3.587 6.134-7.647 7.999-3.25 1.492-8.182 1.568-102.641 1.586-87.394.016-99.602-.138-102.369-1.294-4.231-1.768-6.134-3.587-7.999-7.647-1.439-3.135-1.569-6.288-1.586-38.641-.016-29.801.184-35.711 1.294-38.369 1.768-4.231 3.587-6.134 7.647-7.999 3.251-1.492 8.166-1.567 102.827-1.567s99.576.075 102.827 1.567M177.92 226.439c20.054 9.38 17.712 38.39-3.6 44.585-5.844 1.699-10.915 1.147-17.071-1.858-18.476-9.02-16.845-36.441 2.594-43.608 4.798-1.769 13.297-1.355 18.077.881m89.236.761c8.818 4.587 13.386 13.018 12.486 23.043-.557 6.21-4.196 12.884-9.066 16.63-14.967 11.511-36.542 2.04-38.232-16.785-1.265-14.092 9.399-25.661 23.656-25.661 4.908 0 6.663.436 11.156 2.773m85.001-1.642c12.168 4.486 18.551 18.15 14.303 30.617-3.854 11.312-17.222 18.209-28.78 14.849-21.312-6.195-23.654-35.205-3.6-44.585 4.78-2.236 13.279-2.65 18.077-.881m-174.872 80.398c10.982 4.589 16.916 17.131 13.562 28.667-2.448 8.419-8.613 14.283-17.379 16.529-10.989 2.815-21.422-2.098-26.644-12.546-6.879-13.768.191-29.488 15.141-33.666 4.495-1.257 10.898-.832 15.32 1.016m89.556.895c7.252 3.5 12.06 10.651 12.815 19.061.528 5.876-.67 10.509-4.028 15.578-3.235 4.884-7.953 8.044-14.522 9.727-4.588 1.176-5.624 1.176-10.212 0-6.272-1.606-11.093-4.7-14.11-9.054-6.086-8.781-6.248-18.367-.467-27.483 6.295-9.926 19.279-13.257 30.524-7.829m87.91.008c2.452 1.183 5.799 3.718 7.438 5.633 5.712 6.673 5.683 6.364 5.413 57.095-.238 44.858-.27 45.613-2.09 49.011-2.519 4.704-8.513 10.045-13.346 11.891-5.166 1.973-14.035 1.461-19.049-1.099-4.927-2.516-10.302-8.915-11.841-14.096-1.058-3.563-1.274-11.52-1.267-46.596.006-23.264.249-43.745.541-45.513.773-4.675 5.308-11.699 9.41-14.574 7.381-5.172 16.388-5.808 24.791-1.752m-176.707 79.547c5.25 2.678 8.235 5.521 10.859 10.342 4.796 8.813 3.634 19.333-2.964 26.829-4.656 5.29-9.18 7.512-16.342 8.026-7.196.516-12.243-1.241-17.512-6.098-5.892-5.43-7.423-9.057-7.435-17.612-.009-6.382.271-7.731 2.331-11.235 3.024-5.144 8.54-9.83 13.42-11.399 5.122-1.647 13.195-1.123 17.643 1.147m88.757.432c13.952 7.071 17.341 25.027 6.951 36.83-5.319 6.044-9.087 7.672-17.752 7.672s-12.433-1.628-17.752-7.672c-8.56-9.725-8.154-23.284.969-32.361 7.625-7.586 18.087-9.281 27.584-4.469" fill-rule="evenodd"/></svg>