<svg xmlns="http://www.w3.org/2000/svg" viewBox="0 0 512 512"><path d="M119.359 34.872c-5.767 3.657-7.084 7.023-7.426 18.991l-.284 9.916-13.371.456c-18.623.636-27.38 3.31-39.905 12.189-14.524 10.295-23.762 26.467-25.931 45.395-1.413 12.335-1.156 18.694.838 20.688 1.698 1.698 2.844 1.706 222.72 1.706s221.022-.008 222.72-1.706c1.994-1.994 2.251-8.353.838-20.688-2.169-18.928-11.407-35.1-25.931-45.395-12.54-8.889-21.276-11.553-39.974-12.191l-13.44-.458v-9.107c0-7.971-.262-9.633-2.105-13.332-4.38-8.788-14.535-11.674-22.749-6.464-5.782 3.666-7.083 7.013-7.429 19.101L367.644 64H144.213v-9.219c0-8.091-.257-9.736-2.105-13.445-4.38-8.788-14.535-11.674-22.749-6.464M33.28 176.622c-1.128.713-1.28 15.466-1.28 124.36 0 139.525-.558 127.878 6.864 143.178 6.246 12.873 16.103 22.73 28.976 28.976C83.316 480.644 65.674 480 256 480s172.684.644 188.16-6.864c12.873-6.246 22.73-16.103 28.976-28.976 7.422-15.3 6.864-3.653 6.864-143.178 0-108.894-.152-123.647-1.28-124.36-1.74-1.1-443.7-1.1-445.44 0m274.185 34.438c11.613 6.806 15.683 20.717 9.426 32.214-9.18 16.866-32.014 16.903-41.91.068-2.059-3.502-2.34-4.856-2.334-11.235.009-8.176 1.102-11.052 6.274-16.497 5.439-5.727 9.993-7.462 18.589-7.081 4.73.209 6.961.776 9.955 2.531m76.71-1.52c9.144 3.115 15.564 12.437 15.502 22.508-.057 9.236-4.375 16.589-12.262 20.882-15.861 8.633-35.099-2.841-34.915-20.823.031-3.051.507-6.77 1.058-8.264 4.486-12.168 18.15-18.551 30.617-14.303m-238.626 80.5c15.667 7.116 19.124 28.158 6.497 39.541-4.979 4.488-8.942 6.003-15.939 6.092-7.139.092-12.052-1.87-16.84-6.725-4.989-5.06-7.009-10.02-6.945-17.055.088-9.69 5.29-17.768 13.971-21.693 5.075-2.294 14.387-2.372 19.256-.16m78.608-.482c12.168 4.486 18.551 18.15 14.303 30.617-3.854 11.312-17.222 18.209-28.78 14.849-21.312-6.195-23.654-35.205-3.6-44.585 4.78-2.236 13.279-2.65 18.077-.881m81.763.881c20.054 9.38 17.712 38.39-3.6 44.585-5.844 1.699-10.915 1.147-17.071-1.858-18.476-9.02-16.845-36.441 2.594-43.608 4.798-1.769 13.297-1.355 18.077.881m79.787-.239c5.021 2.271 9.019 6.174 11.729 11.453 2.938 5.723 3.089 14.548.345 20.216-4.353 8.992-12.179 13.928-21.888 13.804-6.997-.089-10.96-1.604-15.939-6.092-10.136-9.137-10.165-26.382-.059-35.255 4.853-4.261 9.222-5.862 15.998-5.862 4.18 0 7.126.521 9.814 1.736m-238.934 80.6c8.363 4.256 12.751 11.588 12.782 21.352.078 25.278-33.363 32.855-44.99 10.195-2.643-5.153-3.059-14.291-.878-19.319 1.655-3.815 6.679-9.483 10.499-11.844 6.077-3.756 15.645-3.918 22.587-.384m79.978.059c11.786 5.688 16.41 19.77 10.425 31.747-5.222 10.448-15.655 15.361-26.644 12.546-12.012-3.078-19.598-13.844-18.19-25.818 1.978-16.833 18.941-25.941 34.409-18.475m78.534-.903c10.982 4.589 16.916 17.131 13.562 28.667-2.448 8.419-8.613 14.283-17.379 16.529-10.989 2.815-21.422-2.098-26.644-12.546-6.879-13.768.191-29.488 15.141-33.666 4.495-1.257 10.898-.832 15.32 1.016" fill-rule="evenodd"/></svg>