<svg xmlns="http://www.w3.org/2000/svg" width="512" height="512"><path d="M110.933 33.423c-5.943 1.675-28.79 13.418-37.546 19.298C56.292 64.2 46.203 74.635 39.216 88.065c-5.051 9.709-6.789 17.525-6.789 30.534 0 33.007 14.457 69.387 50.955 128.216 19.287 31.089 36.867 53.388 67.231 85.276 43.047 45.208 81.53 76.185 131.712 106.02 38.504 22.893 64.978 34.67 89.718 39.91 9.613 2.036 25.26 2.401 32.864.768 25.938-5.573 47.927-25.661 64.993-59.376 11.096-21.918 12.244-28.108 7.136-38.483-8.73-17.732-50.132-48.82-94.866-71.231-16.527-8.28-20.679-9.543-30.203-9.188-6.931.259-8.411.623-14.096 3.47-3.493 1.75-11.535 7.031-17.871 11.735-14.264 10.592-15.662 11.054-24.514 8.097-23.307-7.784-58.563-35.268-80.422-62.693-14.884-18.674-27.994-41.498-28.83-50.191-.498-5.184.367-6.922 10.054-20.209 18.359-25.18 18.763-34.185 2.956-65.91-14.896-29.896-34.338-58.171-52.408-76.219-13.122-13.105-18.387-16.209-27.292-16.087-3.093.042-6.968.455-8.611.919" fill-rule="evenodd"/></svg>