<svg xmlns="http://www.w3.org/2000/svg" width="512" height="512"><path d="M198.923 81.562c-2.529.68-6.82 2.421-9.535 3.868-8.967 4.779-13.132 9.732-28.021 33.326-13.248 20.991-15.31 23.64-19.409 24.936-1.747.552-1.842.279-2.133-6.126-.377-8.282-2.827-12.629-8.731-15.487-3.616-1.751-4.833-1.846-20.459-1.597l-16.615.265-3.277 2.65c-4.792 3.877-6.322 7.056-6.868 14.273l-.477 6.306-6.949.49c-19.852 1.401-36.39 14.731-42.565 34.307L32 184.747v206.506l1.893 5.974c5.347 16.878 19.633 30.254 35.909 33.624 6.392 1.323 366.004 1.323 372.396 0 16.276-3.37 30.562-16.746 35.909-33.624l1.893-5.974V184.747l-1.893-5.974c-4.801-15.153-15.705-26.614-30.677-32.244-4.76-1.79-6.56-1.891-41.308-2.307l-36.331-.435-2.961-2.031c-2.082-1.427-7.132-8.622-17.002-24.223-14.992-23.694-18.485-27.743-28.176-32.654-9.135-4.629-9.724-4.67-66.045-4.61-42.666.046-52.919.28-56.684 1.293m73.29 96.049c8.231 1.221 22.506 6.26 30.604 10.801 22.287 12.498 40.73 36.597 45.85 59.908.773 3.52 1.541 6.886 1.708 7.48.214.765 1.31.919 3.749.529 8.599-1.375 17.92 6.887 17.92 15.884 0 5.293-2.068 8.306-13.923 20.284-15.527 15.689-19.919 17.848-28.308 13.921-4.115-1.927-27.249-25.024-28.544-28.5-1.42-3.811-1.055-9.726.828-13.418 2.089-4.096 7.166-7.628 11.869-8.259 1.911-.256 3.474-.79 3.474-1.187 0-2.207-4.718-12.679-7.993-17.743-14.33-22.15-40.672-33.08-66.923-27.766-7.592 1.536-19.832 7.199-26.483 12.251-2.5 1.9-6.057 3.861-7.906 4.358-9.149 2.464-18.566-4.395-19.371-14.11-.703-8.479 3.492-13.692 18.045-22.423 19.358-11.614 41.132-15.613 65.404-12.01m-89.344 60.128c3.781 1.89 25.097 23.098 27.112 26.974 5.065 9.743-.989 21.177-12.3 23.226-3.028.549-3.239.77-2.755 2.888.289 1.261 2.308 5.941 4.487 10.4 3.37 6.897 5.119 9.252 11.714 15.786 13.171 13.048 26.733 18.699 44.873 18.699 14.869 0 26.166-3.743 39.09-12.951 8.116-5.783 16.074-6.076 22.069-.812 5.566 4.887 6.962 12.209 3.637 19.077-4.086 8.439-24.943 20.071-44.52 24.828-8.719 2.119-31.833 2.119-40.552 0-19.952-4.848-35.561-13.685-48.945-27.71-12.912-13.529-20.642-28.423-24.994-48.154-.469-2.126-.804-2.274-5.048-2.236-8.472.076-15.213-5.434-16.409-13.414-1.007-6.714.488-9.158 14.022-22.916 6.862-6.976 13.629-13.201 15.037-13.834 3.505-1.575 10.182-1.501 13.482.149" fill-rule="evenodd"/></svg>