<svg xmlns="http://www.w3.org/2000/svg" width="512" height="512"><path d="M198.923 81.562c-2.529.68-6.82 2.421-9.535 3.868-8.967 4.779-13.132 9.732-28.021 33.326-13.248 20.991-15.31 23.64-19.409 24.936-1.747.552-1.842.279-2.133-6.126-.377-8.282-2.827-12.629-8.731-15.487-3.616-1.751-4.833-1.846-20.459-1.597l-16.615.265-3.277 2.65c-4.792 3.877-6.322 7.056-6.868 14.273l-.477 6.306-6.949.49c-19.852 1.401-36.39 14.731-42.565 34.307L32 184.747v206.506l1.893 5.974c5.347 16.878 19.633 30.254 35.909 33.624 6.392 1.323 366.004 1.323 372.396 0 16.276-3.37 30.562-16.746 35.909-33.624l1.893-5.974V184.747l-1.893-5.974c-4.801-15.153-15.705-26.614-30.677-32.244-4.76-1.79-6.56-1.891-41.308-2.307l-36.331-.435-2.961-2.031c-2.082-1.427-7.132-8.622-17.002-24.223-14.992-23.694-18.485-27.743-28.176-32.654-9.135-4.629-9.724-4.67-66.045-4.61-42.666.046-52.919.28-56.684 1.293m77.535 96.788c29.79 6.138 56.388 28.304 67.929 56.612 5.805 14.24 6.633 18.818 6.659 36.825.022 14.895-.159 16.886-2.226 24.495-11.525 42.438-49.257 71.505-92.82 71.505-43.654 0-80.886-28.637-92.785-71.364-2.169-7.791-2.345-9.607-2.348-24.21-.003-13.872.241-16.718 2.015-23.466 10.374-39.471 42.675-67.587 82.816-72.085 8.339-.935 21.545-.21 30.76 1.688m-33.685 31.088c-24.048 5.628-42.3 23.057-48.76 46.562-2.379 8.657-2.177 24.991.413 33.28 3.635 11.636 8.223 19.25 16.74 27.779 6.519 6.53 8.97 8.34 15.821 11.69 11.325 5.537 17.163 6.932 29.013 6.932 11.85 0 17.688-1.395 29.013-6.932 6.851-3.35 9.302-5.16 15.821-11.69 8.517-8.529 13.105-16.143 16.74-27.779 2.59-8.289 2.792-24.623.413-33.28-5.901-21.471-22.427-38.605-43.64-45.245-7.685-2.406-24.012-3.086-31.574-1.317" fill-rule="evenodd"/></svg>