<svg xmlns="http://www.w3.org/2000/svg" width="512" height="512"><path d="M220.587 97.374c-38.452 2.894-70.391 9.688-88.747 18.877-17.146 8.584-31.242 24.569-43.588 49.431l-4.94 9.948-11.576.314c-13.32.361-17.24 1.733-20.924 7.326-4.055 6.155-3.748 12.387.943 19.155 1.213 1.75 1.992 3.738 1.732 4.417-.261.679-3.282 2.852-6.714 4.83-18.091 10.427-22.055 16.753-26.181 41.768-3.125 18.954-3.947 31.108-3.949 58.453-.003 28.225.572 34.478 5.255 57.174 3.537 17.141 5.386 22.59 8.834 26.039 1.68 1.68 4.313 3.42 5.851 3.868 2.397.697 3.02 1.48 4.377 5.497 2.061 6.1 5.993 9.746 11.872 11.007 5.892 1.263 56.496 1.275 62.376.014 5.742-1.232 10.592-5.729 12.048-11.173l1.048-3.92 5.181-.566c2.85-.311 9.982-1.674 15.848-3.028 14.96-3.453 18.914-4.061 35.84-5.509 28.336-2.423 53.56-3.254 83.627-2.752 44.535.742 73.006 3.126 93.013 7.789 6.806 1.587 14.512 3.144 17.124 3.461l4.751.577 1.052 3.934c1.46 5.459 6.303 9.954 12.052 11.187 5.88 1.261 56.484 1.249 62.376-.014 5.879-1.261 9.811-4.907 11.872-11.007 1.357-4.017 1.98-4.8 4.377-5.497 4.829-1.405 8.692-6.161 10.807-13.304 2.917-9.852 5.935-25.419 7.927-40.899 3.031-23.541 1.613-66.991-3.065-93.891-3.8-21.859-8.112-28.712-23.918-38.014-4.339-2.553-8.133-5.28-8.432-6.06-.325-.846.315-2.658 1.585-4.491 4.611-6.654 4.897-12.928.867-19.045-3.682-5.589-7.607-6.965-20.897-7.326l-11.548-.313-5.692-11.229c-12.538-24.737-25.751-39.57-42.891-48.151-18.699-9.36-50.4-15.998-90.453-18.94-13.786-1.012-55.338-.975-69.12.063m61.866 31.498c27.48 1.685 55.516 6.071 70.86 11.085 15.883 5.191 24.291 11.419 32.818 24.31 6.43 9.721 14.936 27.1 14.936 30.517 0 3.387-1.964 6.418-4.876 7.525-1.392.529-15.506.351-40.234-.509-86.754-3.016-113.313-3.016-198.09.002-46.038 1.639-41.474 1.762-44.439-1.203-3.819-3.819-3.39-6.831 2.716-19.065 10.717-21.475 19.224-31.473 31.796-37.364 25.059-11.743 83.717-18.414 134.513-15.298m-204.8 112.651C104.125 247.817 128 258.452 128 263.949c0 5.011-2.867 5.671-32.427 7.464-26.872 1.63-37.156.281-43.089-5.653-5.932-5.932-6.316-21.552-.606-24.652 3.509-1.905 16.926-1.689 25.775.415m383.907-.123c3.413 3.413 2.959 17.91-.722 23.079-2.197 3.086-7.592 5.742-14.174 6.979-9.202 1.729-58.519-1.134-61.451-3.567-.783-.65-1.198-2.126-1.043-3.712.206-2.115 1.179-3.254 4.95-5.798 13.365-9.016 45.035-18.407 62.507-18.534 7.073-.051 8.561.181 9.933 1.553m-185.08 63.258c14.588.886 37.664 3.911 52.48 6.88 20.238 4.054 33.136 9.569 36.731 15.702 3.744 6.389 2.224 12.023-4.759 17.64-5.649 4.544-11.605 5.941-28.985 6.798-21.658 1.068-161.249.315-166.827-.901-9.855-2.147-19.446-9.177-20.55-15.063-1.552-8.271 5.078-14.424 21.421-19.88 10.069-3.362 20.92-5.475 42.222-8.224 28.041-3.619 45.136-4.358 68.267-2.952" fill-rule="evenodd"/></svg>