<svg xmlns="http://www.w3.org/2000/svg" width="512" height="512"><path d="M140.996 98.146c-13.142 3.444-26.304 12.495-33.136 22.787-1.787 2.693-12.386 26.217-23.552 52.275l-20.301 47.379.015 91.306c.015 87.337.085 91.46 1.611 94.819 1.972 4.343 6.158 7.634 11.184 8.792 4.958 1.143 33.408 1.143 38.366 0 5.026-1.158 9.212-4.449 11.184-8.792 1.251-2.753 1.6-5.587 1.614-13.112L128 384h256l.019 9.6c.014 7.525.363 10.359 1.614 13.112 1.972 4.343 6.158 7.634 11.184 8.792 4.958 1.143 33.408 1.143 38.366 0 5.026-1.158 9.212-4.449 11.184-8.792 1.526-3.359 1.596-7.482 1.611-94.819l.015-91.306-20.301-47.379c-11.166-26.058-21.765-49.582-23.552-52.275-6.925-10.433-20.075-19.4-33.472-22.827-6.368-1.628-9.857-1.678-115.018-1.632-103.823.045-108.715.116-114.654 1.672m227.033 33.113c3.163 1.557 6.803 4.132 8.088 5.721 1.285 1.589 8.906 18.171 16.935 36.848l14.598 33.959-75.825.218c-41.704.119-109.945.119-151.648 0l-75.823-.218 14.44-33.701c7.942-18.536 15.387-34.943 16.545-36.461 2.539-3.329 8.616-7.021 13.934-8.467 3.024-.821 27.397-1.023 108.452-.895l104.552.164 5.752 2.832M157.435 259.286c10.742 5.026 17.427 14.644 18.164 26.131.518 8.067-.882 13.706-4.972 20.034-10.749 16.63-33.818 19.334-48.42 5.675-12.652-11.834-13.345-31.929-1.543-44.733 9.468-10.272 24.004-13.082 36.771-7.107m223.543-.425c20.58 9.421 25.218 36.922 8.815 52.265-14.602 13.659-37.671 10.955-48.42-5.675-11.997-18.562-2.201-43.129 19.37-48.579 5.374-1.357 14.99-.413 20.235 1.989" fill-rule="evenodd"/></svg>