<svg xmlns="http://www.w3.org/2000/svg" width="512" height="512"><path d="M75.236 81.516c-12.552 2.738-25.903 11.938-33.235 22.9-8.134 12.162-9.882 19.376-9.95 41.077L32 161.707h448l.261-11.52c.597-26.326-3.712-40.221-16.537-53.328-5.809-5.938-14.259-11.272-22.551-14.236l-5.546-1.983-177.494-.152c-148.249-.126-178.383.043-182.897 1.028M31.937 223.004c-.241.627-.312 37.203-.159 81.281.255 73.568.402 80.562 1.784 85.262 4.951 16.838 15.39 29.599 30.024 36.701 12.17 5.906-1.524 5.513 192.414 5.513 193.976 0 180.266.394 192.414-5.525 14.835-7.228 25.463-20.349 30.064-37.116 1.411-5.141 1.522-11.448 1.522-86.187v-80.64l-223.813-.215c-186.095-.178-223.886-.022-224.25.926m156.714 49.853c6.002 2.958 10.436 7.233 13.649 13.158l2.927 5.398.274 17.086c.252 15.76.132 17.465-1.554 21.971-2.401 6.418-8.871 13.479-15.198 16.586l-4.856 2.384h-64l-4.815-2.365c-5.612-2.757-10.733-7.984-14.118-14.411l-2.4-4.557v-17.92c0-17.868.007-17.934 2.372-22.75 3.819-7.778 10.572-13.66 18.535-16.147 1.173-.367 16.341-.597 33.706-.512 30.882.152 31.659.197 35.478 2.079" fill-rule="evenodd"/></svg>