<svg xmlns="http://www.w3.org/2000/svg" width="512" height="512"><path d="M241.92 48.656c-32.351 2.022-64.984 12.273-93.189 29.276-53.917 32.501-89.753 86.952-98.941 150.335-2.03 14.002-2.03 41.464 0 55.466 5.257 36.266 18.79 68.894 40.768 98.296 8.04 10.755 28.658 31.373 39.413 39.413 29.402 21.978 62.03 35.511 98.296 40.768 7.099 1.029 15.606 1.485 27.733 1.485s20.634-.456 27.733-1.485c36.266-5.257 68.894-18.79 98.296-40.768 10.755-8.04 31.373-28.658 39.413-39.413 20.459-27.37 33.566-57.361 39.414-90.189 10.068-56.519-4.22-115.167-39.415-161.788-32.853-43.518-83.69-72.968-138.134-80.021-12.74-1.65-28.565-2.176-41.387-1.375m-4.172 120.735c1.825 1.387 23.095 18.969 47.265 39.072C332.234 247.735 332.8 248.299 332.8 256c0 7.711-.465 8.172-49.493 48.998-25.11 20.909-46.998 38.685-48.64 39.503-6.83 3.4-16.139.603-20.017-6.015l-2.17-3.703.004-78.858.005-78.858 2.009-3.32c1.105-1.826 3.503-4.246 5.329-5.377 2.808-1.741 4.189-2.015 8.961-1.78 4.683.232 6.203.707 8.96 2.801" fill-rule="evenodd"/></svg>