<svg xmlns="http://www.w3.org/2000/svg" width="512" height="512"><path d="M166.744 93.667c-6.307 2.256-10.959 6.308-13.739 11.969l-2.392 4.871-.223 143.748c-.196 126.54-.068 144.282 1.074 148.21 3.013 10.363 11.942 16.948 22.982 16.948 4.375 0 7.09-.498 9.874-1.811 2.284-1.077 37.967-31.082 88.05-74.039 79.398-68.101 84.348-72.508 86.613-77.122 3.362-6.845 3.359-14.042-.007-20.897-2.277-4.637-7.059-8.889-86.356-76.8-46.17-39.54-85.656-72.788-87.748-73.884-5.198-2.725-12.5-3.205-18.128-1.193" fill-rule="evenodd"/></svg>