<svg xmlns="http://www.w3.org/2000/svg" width="512" height="512"><path d="M41.288 65.633c-1.932.877-4.502 2.892-5.712 4.478-2.114 2.772-4.179 9.275-3.58 11.274.158.529.518 2.011.798 3.293.634 2.893 4.985 7.943 8.506 9.872 2.303 1.262 6.199 1.485 29.991 1.716l27.345.266 22.898 129.867c14.432 81.849 23.455 130.972 24.405 132.854 1.735 3.441 3.561 5.204 7.405 7.151 2.484 1.257 14.676 1.381 134.4 1.364 125.94-.018 131.818-.087 135.083-1.586 4.06-1.865 5.879-3.768 7.647-7.999a15.888 15.888 0 0 0 0-12.366c-1.768-4.231-3.587-6.134-7.647-7.999-3.262-1.497-8.885-1.568-126.368-1.586l-122.954-.019-2.699-15.233c-1.485-8.378-2.699-15.669-2.699-16.202 0-.718 32.249-1.027 124.373-1.193l124.373-.225 3.982-2.341c5.31-3.121 9.86-8.598 11.371-13.688.679-2.287 7.806-37.04 15.838-77.229 15.347-76.794 15.289-76.4 12.313-83.544-1.692-4.062-7.639-10.09-12.183-12.349l-4.014-1.996-155.08-.226-155.081-.227-.422-1.907c-.233-1.048-1.599-8.626-3.036-16.84-3.4-19.432-3.709-20.477-7.005-23.666-5.516-5.339-5.594-5.349-43.935-5.328-32.144.017-35.069.14-38.313 1.614m127.455 319.239c-13.633 3.444-23.471 14.981-24.342 28.545-.518 8.067.882 13.706 4.972 20.034 11.316 17.508 35.972 19.404 50.18 3.859 5.775-6.319 8.098-12.431 8.098-21.31 0-12.607-6.494-23.092-17.728-28.623-5.923-2.916-15.207-4.014-21.18-2.505m222.877.24c-9.214 2.614-17.973 10.481-21.373 19.196-2.632 6.747-2.626 16.652.015 23.422 2.626 6.736 9.035 13.555 15.931 16.949 14.284 7.033 31.77 2.177 40.434-11.228 13.36-20.671-.321-47.66-24.883-49.085-3.659-.212-7.832.096-10.124.746" fill-rule="evenodd"/></svg>