<svg xmlns="http://www.w3.org/2000/svg" width="512" height="512"><path d="M40.743 64.926c-9.017 2.126-17.41 8.909-21.612 17.467l-2.491 5.074-.257 28.489-.256 28.488 13.056-.464c9.751-.347 14.678-.932 19.457-2.309 18.426-5.311 32.344-16.882 40.564-33.724 4.928-10.096 6.275-16.185 6.938-31.36L96.692 64l-26.373.086c-14.505.047-27.814.425-29.576.84m87.025 14.221c-.391 12.385-.873 16.673-2.647 23.52-8.082 31.189-28.877 55.001-58.134 66.567-11.842 4.682-22.662 6.553-37.894 6.553h-12.88v64h8.443c19.642 0 34.166 2.932 48.492 9.789 22.591 10.813 38.951 28.459 48.281 52.077 4.451 11.269 5.735 18.517 6.308 35.627l.508 15.147h255.51l.508-15.147c.58-17.314 1.829-24.201 6.616-36.48 5.997-15.386 18.091-31.326 31.46-41.465 7.348-5.573 22.487-13.026 31.826-15.668 8.564-2.422 21.03-3.88 33.179-3.88h8.443v-64h-12.88c-15.047 0-25.735-1.824-37.647-6.424-27.755-10.719-49.151-34.186-57.365-62.916-2.762-9.661-3.895-18.96-3.895-31.971V64H128.245l-.477 15.147m288.088-2.614c.666 15.244 2.011 21.323 6.951 31.414 8.346 17.047 21.952 28.363 40.553 33.724 4.779 1.377 9.706 1.962 19.457 2.309l13.056.464-.256-28.488-.257-28.489-2.491-5.074c-3.29-6.701-8.671-11.935-15.684-15.258l-5.718-2.708-28.082-.267-28.081-.267.552 12.64M276.458 114.35c29.79 6.138 56.388 28.304 67.929 56.612 5.805 14.24 6.633 18.818 6.659 36.825.022 14.895-.159 16.886-2.226 24.495-11.525 42.438-49.257 71.505-92.82 71.505-43.654 0-80.886-28.637-92.785-71.364-2.169-7.791-2.345-9.607-2.348-24.21-.003-13.872.241-16.718 2.015-23.466 10.374-39.471 42.675-67.587 82.816-72.085 8.339-.935 21.545-.21 30.76 1.688m-33.685 31.088c-24.048 5.628-42.3 23.057-48.76 46.562-2.379 8.657-2.177 24.991.413 33.28 3.635 11.636 8.223 19.25 16.74 27.779 6.519 6.53 8.97 8.34 15.821 11.69 11.325 5.537 17.163 6.932 29.013 6.932 11.85 0 17.688-1.395 29.013-6.932 6.851-3.35 9.302-5.16 15.821-11.69 8.517-8.529 13.105-16.143 16.74-27.779 2.59-8.289 2.792-24.623.413-33.28-5.901-21.471-22.427-38.605-43.64-45.245-7.685-2.406-24.012-3.086-31.574-1.317M16.394 300.16l.246 27.947 2.27 4.842c2.734 5.831 8.031 11.775 13.19 14.798 6.85 4.014 13.207 4.73 39.802 4.48L96 352l.262-6.4c.375-9.178-1.18-21.809-3.641-29.569-3.057-9.64-7.55-16.764-15.869-25.162-6.345-6.405-8.47-7.937-16.214-11.686-11.217-5.432-18.549-6.97-33.228-6.97H16.147l.247 27.947m449.953-26.555c-3.286.689-9.984 3.197-14.885 5.573-7.739 3.751-9.873 5.29-16.214 11.691-8.319 8.398-12.812 15.522-15.869 25.162-2.461 7.76-4.016 20.391-3.641 29.569L416 352l24.098.227c26.595.25 32.952-.466 39.802-4.48 5.159-3.023 10.456-8.967 13.19-14.798l2.27-4.842.246-27.947.247-27.947-11.767.07c-6.779.04-14.298.6-17.739 1.322M59.958 368.613c-5.855 1.4-10.547 6.568-11.741 12.934-1.342 7.155 4.05 15.755 11.109 17.715 4.819 1.337 388.529 1.337 393.348 0 4.521-1.256 9.41-6.258 10.663-10.909 1.903-7.066-.646-13.606-6.921-17.759l-3.598-2.381-195.049-.13c-107.277-.072-196.292.166-197.811.53m29.199 49.003c-3.622 1.578-7.901 6.748-8.58 10.366-1.441 7.681 1.978 15.108 8.383 18.208l3.739 1.81h326.602l3.739-1.81c5.705-2.762 8.32-7.311 8.32-14.475 0-5.13-.28-6.093-2.621-9.022-1.441-1.804-3.937-3.951-5.546-4.772-2.757-1.405-12.452-1.49-167.193-1.46-133.833.027-164.744.24-166.843 1.155" fill-rule="evenodd"/></svg>