<svg xmlns="http://www.w3.org/2000/svg" width="512" height="512"><path d="M241.92 48.656c-32.351 2.022-64.984 12.273-93.189 29.276-53.917 32.501-89.753 86.952-98.941 150.335-2.03 14.002-2.03 41.464 0 55.466 5.257 36.266 18.79 68.894 40.768 98.296 8.04 10.755 28.658 31.373 39.413 39.413 29.402 21.978 62.03 35.511 98.296 40.768 7.099 1.029 15.606 1.485 27.733 1.485s20.634-.456 27.733-1.485c36.266-5.257 68.894-18.79 98.296-40.768 10.755-8.04 31.373-28.658 39.413-39.413 20.459-27.37 33.566-57.361 39.414-90.189 10.068-56.519-4.22-115.167-39.415-161.788-32.853-43.518-83.69-72.968-138.134-80.021-12.74-1.65-28.565-2.176-41.387-1.375m46.625 98.521c6.092 4.031 8.642 13.742 5.34 20.332-.753 1.502-20.62 22.027-44.149 45.611L206.956 256l43.259 43.307c29.758 29.79 43.67 44.297 44.576 46.479 5.725 13.802-8.613 27.433-21.724 20.654-1.174-.607-24.68-23.688-52.237-51.291-34.771-34.83-50.505-51.16-51.414-53.362-1.66-4.022-1.66-7.552 0-11.574 1.78-4.312 99.214-102.058 104.077-104.412 4.453-2.154 10.56-1.596 15.052 1.376" fill-rule="evenodd"/></svg>