<svg xmlns="http://www.w3.org/2000/svg" width="512" height="512"><path d="M241.92 48.656c-32.351 2.022-64.984 12.273-93.189 29.276-53.917 32.501-89.753 86.952-98.941 150.335-2.03 14.002-2.03 41.464 0 55.466 5.257 36.266 18.79 68.894 40.768 98.296 8.04 10.755 28.658 31.373 39.413 39.413 29.402 21.978 62.03 35.511 98.296 40.768 7.099 1.029 15.606 1.485 27.733 1.485s20.634-.456 27.733-1.485c36.266-5.257 68.894-18.79 98.296-40.768 10.755-8.04 31.373-28.658 39.413-39.413 20.459-27.37 33.566-57.361 39.414-90.189 10.068-56.519-4.22-115.167-39.415-161.788-32.853-43.518-83.69-72.968-138.134-80.021-12.74-1.65-28.565-2.176-41.387-1.375m23.184 138.458c1.798 1.248 25.206 24.266 52.018 51.151 39.098 39.204 48.959 49.535 49.806 52.181 3.941 12.308-6.793 24.187-18.969 20.991-3.227-.846-8.642-5.949-47.803-45.042l-44.164-44.087-43.729 43.687c-24.069 24.045-44.81 44.088-46.132 44.579-9.522 3.538-20.224-2.981-21.621-13.17-1.064-7.763-.517-8.401 52.791-61.628 29.928-29.883 50.044-49.329 51.872-50.147 4.523-2.023 11.863-1.338 15.931 1.485" fill-rule="evenodd"/></svg>