<svg xmlns="http://www.w3.org/2000/svg" width="512" height="512"><path d="M179.2 88.652c-9.467 2.037-16.899 9.714-18.691 19.304-.797 4.266.227 11.354 2.213 15.318.714 1.426 30.532 31.873 66.262 67.659L293.947 256l-64.963 65.067c-35.73 35.786-65.548 66.233-66.262 67.659-1.986 3.964-3.01 11.052-2.213 15.318 2.274 12.172 13.943 21.166 25.659 19.778 9.519-1.127 7.242.935 86.652-78.472 82.32-82.317 78.924-78.472 78.924-89.35 0-10.884 3.406-7.031-78.924-89.268-56.477-56.413-75.346-74.765-78.26-76.116-4.417-2.049-11.033-2.895-15.36-1.964" fill-rule="evenodd"/></svg>