<svg xmlns="http://www.w3.org/2000/svg" width="512" height="512"><path d="M241.92 48.656c-32.351 2.022-64.984 12.273-93.189 29.276-53.917 32.501-89.753 86.952-98.941 150.335-2.03 14.002-2.03 41.464 0 55.466 5.257 36.266 18.79 68.894 40.768 98.296 8.04 10.755 28.658 31.373 39.413 39.413 29.402 21.978 62.03 35.511 98.296 40.768 7.099 1.029 15.606 1.485 27.733 1.485s20.634-.456 27.733-1.485c36.266-5.257 68.894-18.79 98.296-40.768 10.755-8.04 31.373-28.658 39.413-39.413 20.459-27.37 33.566-57.361 39.414-90.189 10.068-56.519-4.22-115.167-39.415-161.788-32.853-43.518-83.69-72.968-138.134-80.021-12.74-1.65-28.565-2.176-41.387-1.375m-75.789 152.77c1.322.491 22.064 20.535 46.136 44.583L256 289.7l43.733-43.691c24.072-24.048 44.814-44.092 46.136-44.583 9.331-3.467 20.001 2.825 21.585 12.729 1.268 7.932 1.848 7.249-51.615 60.855-32.726 32.813-50.333 49.866-52.642 50.987-1.908.925-5.147 1.683-7.197 1.683s-5.289-.758-7.197-1.683c-2.309-1.121-19.916-18.174-52.642-50.987-53.463-53.606-52.883-52.923-51.615-60.855 1.585-9.909 12.249-16.198 21.585-12.729" fill-rule="evenodd"/></svg>