<svg xmlns="http://www.w3.org/2000/svg" width="512" height="512"><path d="M136.107 121.367c-9.85 3.511-15.905 12.297-15.885 23.049.018 9.622-.844 8.605 52.819 62.304L222.288 256l-49.247 49.28c-53.352 53.387-52.729 52.656-52.841 62.005-.169 14.2 10.315 24.684 24.515 24.515 9.349-.112 8.618.511 62.005-52.841L256 289.712l49.28 49.247c53.387 53.352 52.656 52.729 62.005 52.841 14.2.169 24.684-10.315 24.515-24.515-.112-9.349.511-8.618-52.841-62.005L289.712 256l49.243-49.28c37.675-37.704 49.647-50.182 50.965-53.12 2.124-4.736 2.297-12.627.398-18.201-1.598-4.689-7.007-10.581-11.865-12.924-1.942-.937-5.914-1.798-9.218-1.999-11.042-.672-8.151-3.048-63.532 52.207l-49.71 49.598-49.277-49.239c-37.7-37.673-50.178-49.644-53.116-50.962-4.273-1.917-13.106-2.277-17.493-.713" fill-rule="evenodd"/></svg>