<svg xmlns="http://www.w3.org/2000/svg" width="512" height="512"><path d="M240.213 80.778c-23.513 2.836-43.78 9.425-62.027 20.163-39.038 22.976-65.607 60.269-77.167 108.316-2.107 8.759-2.63 9.942-5.822 13.17-2.611 2.641-4.808 3.909-8.605 4.965-13.219 3.675-20.097 6.195-29.339 10.752-30.31 14.945-48.728 38.205-55.694 70.336-1.737 8.014-1.483 33.313.425 42.24 4.473 20.934 11.95 35.225 25.733 49.179 15.025 15.214 33.184 24.347 58.678 29.514L96 431.36H394.667l9.671-1.959c19.812-4.014 36.326-10.727 51.751-21.037 28.508-19.056 46.147-45.182 53.52-79.278 2.723-12.588 2.719-38.879-.007-51.487-10.701-49.492-45.24-83.236-99.468-97.179-5.103-1.312-10.479-3.191-11.946-4.176-1.848-1.24-4.422-5.112-8.376-12.606-3.14-5.948-7.662-13.71-10.049-17.247-24.864-36.847-62.161-59.855-105.821-65.279-6.706-.834-27.853-1.043-33.729-.334" fill-rule="evenodd"/></svg>