<svg xmlns="http://www.w3.org/2000/svg" width="512" height="512"><path d="M57.6 49.849c-3.18 1.42-6.853 5.273-8.052 8.447-1.3 3.439-1.12 9.693.369 12.828.702 1.479 88.734 90.118 195.626 196.976 178.58 178.521 194.656 194.366 198.113 195.269 6.763 1.767 13.041-.453 17.091-6.045 3.023-4.173 3.9-8.776 2.611-13.708-.889-3.404-17.563-20.323-194.832-197.7C157.162 134.484 73.319 51.237 71.501 50.29c-3.687-1.921-10.127-2.125-13.901-.441m185.6 14.716c-22.618 2.213-42.38 8.284-60.673 18.642-11.205 6.345-14.42 9.409-14.42 13.744 0 3.263 2.11 5.42 147.842 151.153 140.243 140.243 147.997 147.843 150.827 147.839 4.059-.004 7.284-2.15 16.33-10.871 12.041-11.607 19.58-24.075 24.24-40.083 7.668-26.344 5.642-55.543-5.376-77.469-13.16-26.189-39.346-46.179-71.678-54.718-14.169-3.742-15.713-5.405-19.709-21.229-3.782-14.976-7.127-24.04-14.174-38.4-24.798-50.535-70.39-82.753-124.926-88.278-8.283-.839-21.501-.993-28.283-.33M85.333 169.377c-45.689 16.749-74.491 49.481-83.355 94.73-2.338 11.937-2.1 37.207.463 49.066 5.598 25.904 15.778 44.705 34.223 63.205 18.572 18.627 42.133 31.13 68.969 36.599 15.795 3.218 28.941 3.551 129.605 3.282L331.81 416l2.157-2.027c2.823-2.652 3.555-6.154 1.928-9.217-.703-1.325-54.211-55.316-118.905-119.979C113.163 180.999 99.018 167.16 96.403 166.807c-2.043-.277-5.48.521-11.07 2.57" fill-rule="evenodd"/></svg>