<svg xmlns="http://www.w3.org/2000/svg" width="512" height="512"><path d="M237.227 81.091c-17.752 2.454-33.488 7.316-48.599 15.014-28.789 14.667-49.799 36.004-66.369 67.399-6.781 12.849-7.904 13.818-19.195 16.568-48.555 11.824-83.606 42.072-96.922 83.644C1.451 278.359.459 285.404.496 303.787c.028 13.818.351 18.108 1.901 25.299 7.341 34.055 25.003 60.221 53.514 79.278 15.425 10.31 31.939 17.023 51.751 21.037l9.671 1.959H416l9.605-1.947c36.842-7.467 61.98-25.193 75.745-53.412 8.002-16.403 11.279-33.083 10.4-52.935-2.069-46.721-32.03-80.74-83.549-94.865-9.991-2.739-13.699-5.771-15.518-12.688-8.126-30.896-14.546-46.53-26.653-64.9-23.84-36.171-60.782-60.72-102.723-68.262-9.379-1.687-37.446-2.454-46.08-1.26" fill-rule="evenodd"/></svg>