<svg xmlns="http://www.w3.org/2000/svg" width="512" height="512"><path d="M238.507 48.729c-49.768 5.416-92.295 34.187-116.021 78.493-3.004 5.608-6.15 10.304-7.68 11.461-1.569 1.187-7.14 3.133-14.113 4.932-19.144 4.938-34.026 11.488-49.493 21.786-9.04 6.018-26.344 23.13-31.881 31.525C7.212 215.283 1.093 234.496.233 256.853c-1.511 39.27 15.842 75.042 48.205 99.372 8.867 6.666 28.118 16.474 39.455 20.101 21.775 6.966 30.725 7.674 96.944 7.674h54.95v33.307c0 28.133.205 33.799 1.32 36.469 5.709 13.662 24.077 13.662 29.786 0 1.115-2.67 1.32-8.331 1.32-36.419v-33.258l70.614-.339c68.161-.327 70.951-.403 80.36-2.192 37.454-7.123 65.017-25.867 78.616-53.461 13.395-27.18 13.658-58.327.714-84.397-12.305-24.783-39.504-45.286-71.584-53.961-9.738-2.633-14.025-4.875-16.271-8.51-.925-1.496-3.026-7.628-4.671-13.628C392.543 103.946 345.026 60.39 281.6 49.918c-10.108-1.668-32.907-2.298-43.093-1.189M262.4 177.421c4.206 1.967 70.719 68.446 72.06 72.021 1.549 4.133 1.09 10.681-1.011 14.419-3.815 6.787-13.411 9.722-20.341 6.22-1.607-.812-11.465-9.965-21.908-20.34l-18.987-18.864V384h-32.426V230.877L220.8 249.741c-10.443 10.375-20.301 19.528-21.908 20.34-6.883 3.478-16.213.767-20.082-5.835-2.368-4.04-2.915-10.415-1.27-14.804 1.341-3.575 67.854-70.054 72.06-72.021 1.877-.878 4.757-1.597 6.4-1.597 1.643 0 4.523.719 6.4 1.597" fill-rule="evenodd"/></svg>