<svg xmlns="http://www.w3.org/2000/svg" width="512" height="512"><path d="M153.527 124.204c-4.599 1.417.094-2.542-78.128 65.913-42.492 37.186-60.357 53.341-61.811 55.893-1.616 2.837-2.047 4.842-2.057 9.563-.021 10.933-3.559 7.305 69.556 71.316 36.147 31.646 67.292 58.392 69.212 59.437 4.847 2.637 8.713 3.191 14.004 2.007 8.741-1.956 15.287-9.126 16.323-17.879.762-6.433-.969-11.426-5.761-16.61-2.239-2.422-28.075-25.332-57.413-50.911C88.114 277.355 64.11 256.235 64.11 256c0-.235 24.004-21.355 53.342-46.933 29.338-25.579 55.174-48.489 57.413-50.911 4.792-5.184 6.523-10.177 5.761-16.61-.977-8.251-6.712-15.039-14.75-17.458-4.889-1.472-7.268-1.449-12.349.116m192.262-.118c-7.791 2.536-13.461 9.403-14.415 17.46-.762 6.433.969 11.426 5.761 16.61 2.239 2.422 28.075 25.332 57.413 50.911 29.338 25.578 53.342 46.698 53.342 46.933 0 .235-24.004 21.355-53.342 46.933-29.338 25.579-55.174 48.489-57.413 50.911-4.792 5.184-6.523 10.177-5.761 16.61 1.036 8.753 7.582 15.923 16.323 17.879 5.291 1.184 9.157.63 14.004-2.007 1.92-1.045 33.065-27.791 69.212-59.437 73.115-64.011 69.577-60.383 69.556-71.316-.01-4.723-.441-6.725-2.06-9.568-1.462-2.567-20.803-20.017-67.624-61.013-36.066-31.58-67.214-58.291-69.217-59.356-4.624-2.461-11.043-3.091-15.779-1.55M157.44 226.132c-15.082 4.729-24.72 20.289-21.79 35.18.575 2.922 1.812 6.817 2.75 8.655 2.644 5.182 8.956 11.374 14.24 13.969 4.27 2.097 5.742 2.357 13.333 2.357 10.297 0 14.29-1.52 21.228-8.082 6.699-6.335 9.44-12.785 9.44-22.211 0-9.325-2.758-15.899-9.227-21.994-6.509-6.133-11.373-8.172-20.148-8.448-3.996-.126-8.418.133-9.826.574m87.392 1.109c-12.978 5.451-20.083 16.549-19.404 30.31.577 11.695 7.138 21.558 17.604 26.464 4.199 1.968 5.966 2.278 12.968 2.278s8.769-.31 12.968-2.278c6.201-2.907 12.14-8.846 15.047-15.047 1.968-4.199 2.278-5.966 2.278-12.968 0-7.01-.309-8.767-2.288-12.988-2.838-6.055-9.03-12.199-15.205-15.085-6.809-3.183-17.309-3.483-23.968-.686m91.808-.823c-7.981 2.624-15.212 9.2-18.924 17.209-2.01 4.338-2.371 6.227-2.365 12.373.01 9.428 2.755 15.881 9.448 22.211 6.938 6.562 10.931 8.082 21.228 8.082 7.591 0 9.063-.26 13.333-2.357 12.307-6.044 19.542-20.205 16.996-33.269-1.936-9.935-7.863-17.754-17.046-22.487-3.826-1.971-5.915-2.433-11.947-2.637-4.415-.149-8.661.198-10.723.875" fill-rule="evenodd"/></svg>