<svg xmlns="http://www.w3.org/2000/svg" viewBox="0 0 512 512" style="enable-background:new 0 0 512 512" xml:space="preserve"><path d="M184.171 34.351c-3.726 2.277-6.043 5.123-7.394 9.083-.668 1.957-.984 11.392-.972 29.013.017 23.595.172 26.442 1.599 29.526 6.114 13.204 23.078 13.204 29.192 0 1.427-3.084 1.582-5.931 1.599-29.526.019-26.956-.272-29.709-3.596-34.047-4.598-5.999-14.14-7.891-20.428-4.049M83.154 76.359c-5.034 2.527-7.853 6.364-8.582 11.683-1.019 7.441.011 8.931 20.465 29.6 12.01 12.137 20.125 19.662 22.296 20.675 12.578 5.868 26.008-6.1 21.757-19.389-1.371-4.283-37.016-40.622-42.237-43.058-4.652-2.171-8.688-2.027-13.699.489m203.993-.489c-5.221 2.436-40.866 38.775-42.237 43.058-4.251 13.289 9.179 25.257 21.757 19.389 2.171-1.013 10.286-8.538 22.296-20.675 20.454-20.669 21.484-22.159 20.465-29.6-.729-5.319-3.548-9.156-8.582-11.683-5.011-2.516-9.047-2.66-13.699-.489m-97.472 78.109c-8.046 1.835-16.902 6.882-23.275 13.266-15.345 15.369-17.955 40.494-6.08 58.523 1.866 2.833 13.268 14.951 25.917 27.544 21.582 21.486 22.729 22.485 25.821 22.485 3.115 0 4.359-1.124 33.487-30.252s30.252-30.372 30.252-33.487c0-3.093-.989-4.226-22.485-25.763-12.367-12.391-24.558-23.914-27.092-25.608-9.918-6.631-24.857-9.373-36.545-6.708M44.679 176.573C37.293 178.41 32.23 184.684 32.23 192c0 4.696 2.564 10.007 6.071 12.577 4.589 3.362 7.18 3.637 34.146 3.618 23.595-.017 26.442-.172 29.526-1.599 6.302-2.918 9.814-8.141 9.814-14.596 0-4.285-1.264-7.523-4.108-10.53-4.96-5.242-4.964-5.242-33.866-5.41-14.549-.084-27.659.147-29.134.513m251.769 63.975c-1.83 1.357-15.495 14.701-30.365 29.653-27.052 27.201-28.83 29.37-27.697 33.799.27 1.056 35.928 37.303 79.239 80.549 77.056 76.94 78.886 78.693 85.148 81.624 7.635 3.572 13.344 4.867 21.466 4.867 21.205 0 39.932-14.804 45.584-36.038 3.043-11.433.419-26.697-6.36-36.989-2.131-3.235-31.22-32.907-80.873-82.493-86.026-85.91-79.294-80.05-86.142-74.972m-179.115 5.135c-5.22 2.436-40.866 38.775-42.236 43.058-4.066 12.71 8.329 24.586 20.722 19.854 5.211-1.99 41.738-38.73 43.271-43.523 4.25-13.29-9.179-25.257-21.757-19.389" fill-rule="evenodd"/></svg>