<svg xmlns="http://www.w3.org/2000/svg" width="512" height="512"><path d="M270.08 48.67c-53.988 3.328-106.436 24.073-148.389 58.693-21.8 17.991-41.794 42.704-53.629 66.29-8.102 16.147-14.984 38.04-18.241 58.027-1.88 11.541-2.127 38.896-.454 50.347 6.248 42.756 23.904 78.783 53.886 109.955 33.577 34.909 75.99 57.185 128.427 67.453 70.178 13.742 147.793-3.49 199.68-44.333 18.14-14.279 23.243-22.856 24.09-40.489.521-10.853-1.547-19.882-6.459-28.196-6.542-11.072-17.044-18.112-31.854-21.353-18.438-4.034-18.81-4.152-22.476-7.156-6.149-5.039-7.926-11.172-4.748-16.384.902-1.48 10.021-10.144 20.264-19.254 10.242-9.11 20.875-19.036 23.627-22.057 14.194-15.579 23.506-33.778 27.938-54.597 2.48-11.651 2.696-30.871.473-42.066-7.919-39.869-34.013-70.756-78.77-93.237-32.598-16.374-73.172-24.12-113.365-21.643m-36.267 64.997c8.004 2.437 15.618 9.317 19.477 17.597 1.91 4.1 2.258 6.02 2.266 12.523.008 6.863-.279 8.288-2.696 13.398-3.316 7.011-8.55 12.393-15.253 15.684-4.579 2.248-5.906 2.491-13.607 2.491s-9.028-.243-13.607-2.491c-6.703-3.291-11.937-8.673-15.253-15.684-2.417-5.11-2.704-6.535-2.696-13.398.008-6.517.354-8.419 2.283-12.56 6.978-14.976 23.377-22.343 39.086-17.56m105.164.46c9.235 3.204 17.4 12.359 19.918 22.331 3.635 14.401-3.68 29.783-17.359 36.498-4.378 2.149-5.799 2.404-13.429 2.404-7.479 0-9.138-.283-13.428-2.294-6.26-2.934-12.469-9.152-15.621-15.645-2.196-4.523-2.478-6.019-2.492-13.208-.013-7.016.291-8.763 2.263-12.986 7.26-15.548 24.031-22.692 40.148-17.1m-183.048 64.366c6.048 2.263 13.309 9.037 16.687 15.565 2.479 4.794 2.689 5.855 2.716 13.729.024 7.465-.251 9.12-2.199 13.226-3.281 6.914-8.479 12.293-14.966 15.486-10.682 5.259-24.04 4.122-33.075-2.814-8.483-6.512-12.707-15.159-12.706-26.012 0-5.946.372-7.735 2.592-12.479 3.366-7.194 7.492-11.67 13.913-15.092 8.635-4.602 17.61-5.136 27.038-1.609m9.081 103.373c6.273 2.872 11.631 7.988 15.137 14.452 2.79 5.145 2.893 5.67 2.893 14.722 0 9.069-.099 9.569-2.921 14.773-11.488 21.188-41.206 22.965-54.299 3.246-11.857-17.858-3.849-41.664 16.26-48.336 6.979-2.316 16.401-1.846 22.93 1.143m101.995 38.593c22.643 5.337 37.879 25.973 36.519 49.461-1.209 20.874-15.336 38.144-35.616 43.541-5.973 1.59-17.843 1.59-23.816 0-15.181-4.04-27.515-15.286-33.233-30.301-1.838-4.826-2.12-6.969-2.141-16.227-.022-9.807.173-11.148 2.418-16.64 4.961-12.134 11.735-19.791 22.527-25.461 10.434-5.483 22.127-7.017 33.342-4.373" fill-rule="evenodd"/></svg>