<svg xmlns="http://www.w3.org/2000/svg" width="512" height="512"><path d="M117 33.776c-10.145 2.728-19.108 8.321-27.544 17.188-10.812 11.363-16.144 23.552-16.34 37.356-.134 9.414 1.129 14.909 5.591 24.32 3.318 6.997 4.278 8.098 27.198 31.171l23.76 23.917-44.407 44.349c-24.424 24.393-45.38 45.984-46.569 47.981-8.952 15.03-8.703 33.31.645 47.423 4.044 6.106 138.791 135.138 145.209 139.051 15.316 9.337 34.493 8.484 48.497-2.158 2.626-1.995 32.882-30.882 67.236-64.193 34.354-33.311 63.601-61.286 64.993-62.168 1.846-1.169 5.245-1.816 12.551-2.39 7.88-.618 10.968-1.246 14.461-2.941 10.739-5.213 15.377-17.95 10.573-29.033-1.631-3.762-17.849-20.177-119.715-121.173C218.334 98.223 163.44 44.239 161.154 42.511c-5.15-3.892-11.86-7.112-18.333-8.798-6.209-1.617-19.696-1.584-25.821.063m23.16 33.074c1.995 1.187 13.131 11.691 24.748 23.341l21.12 21.183-16.869 16.853-16.869 16.854-21.91-21.981c-23.584-23.658-25.383-26.062-25.383-33.927 0-5.363 2.209-10.291 6.886-15.365 6.99-7.583 12.104-10.038 19.744-9.477 3.22.237 6.154 1.103 8.533 2.519m269.271 254.502c-4.357 1.341-8.602 5.333-20.796 19.555-19.099 22.276-29.704 40.117-34.24 57.6-6.138 23.655.825 47.896 18.429 64.163 17.424 16.102 40.269 21.14 63.068 13.908 16.775-5.321 31.916-19.349 38.912-36.052 9.184-21.927 5.723-45.72-10.432-71.725-8.109-13.052-30.382-40.187-36.985-45.059-5.141-3.793-10.903-4.56-17.956-2.39" fill-rule="evenodd"/></svg>