<svg xmlns="http://www.w3.org/2000/svg" width="512" height="512"><path d="M241.92 48.669c-64.561 4.115-123.152 38.433-159.962 93.693-26.292 39.469-38.649 92.321-32.455 138.811 6.326 47.479 26.376 88.354 59.673 121.651 33.526 33.526 73.443 53.027 122.504 59.846 4.224.587 15.168 1.068 24.32 1.068 9.152 0 20.096-.481 24.32-1.068 49.001-6.811 88.952-26.339 122.482-59.868 33.529-33.53 53.057-73.481 59.868-122.482 1.376-9.9 1.376-38.74 0-48.64-6.778-48.766-26.328-88.904-59.45-122.057-11.819-11.831-20.651-19.077-33.662-27.617-37.561-24.655-81.952-36.249-127.638-33.337m116.668 103.997c2.295 2.051 2.75 3.045 2.637 5.76-.162 3.861-46.193 119.288-50.888 127.605-5.974 10.582-15.105 19.588-25.246 24.899-6.323 3.312-124.833 50.883-126.76 50.883-4.805 0-8.807-5.625-7.438-10.453 1.71-6.027 47.395-119.174 50.218-124.373 5.821-10.721 14.295-19.35 24.869-25.326 6.431-3.634 125.178-51.379 127.927-51.435 1.048-.022 3.155 1.076 4.681 2.44m-110.887 80.852c-5.583 1.977-11.767 8.049-13.84 13.59-7.391 19.754 11.187 38.455 30.881 31.087 16.175-6.052 20.29-28.001 7.419-39.574-6.873-6.179-16.027-8.089-24.46-5.103" fill-rule="evenodd"/></svg>