<svg xmlns="http://www.w3.org/2000/svg" width="512" height="512"><path d="M234.667 33.006c-91.511 9.38-166.709 71.317-193.33 159.237-10.683 35.284-12.158 75.291-4.113 111.544 9.361 42.177 30.235 80.302 60.502 110.506 46.177 46.081 106.225 69.19 171.501 66.003 89.685-4.379 169.644-64.716 199.146-150.277 17.055-49.46 16.343-102.304-2.051-152.247-7.356-19.973-21.475-44.554-35.941-62.572-7.56-9.416-23.549-25.276-33.681-33.409-33.429-26.833-71.885-43.034-114.247-48.13-8.845-1.065-39.671-1.487-47.786-.655M256 256.128v192.128l-10.046-.568c-69.537-3.93-131.45-44.771-161.872-106.781-9.429-19.219-14.831-36.432-18.079-57.6-2.076-13.529-2.076-41.085 0-54.614 6.512-42.443 25.206-79.295 55.291-108.992 10.548-10.412 17.718-16.253 29.746-24.233 28.692-19.034 64.661-30.342 99.627-31.319L256 64v192.128" fill-rule="evenodd"/></svg>