<svg xmlns="http://www.w3.org/2000/svg" width="512" height="512"><path d="M239.886 34.171c-3.466.907-8.515 2.756-11.221 4.108-2.705 1.352-39.534 22.573-81.84 47.156-81.528 47.375-80.55 46.731-76.225 50.233.955.773 42.721 25.514 92.814 54.978 72.201 42.47 91.542 53.495 93.325 53.201 2.202-.363 182.869-106.282 185.185-108.567 3.334-3.29 3.05-3.474-76.455-49.674-42.145-24.49-79.046-45.727-82.001-47.193-12.218-6.062-30.018-7.795-43.582-4.242M49.199 164.547c-1.295 1.432-1.411 8.937-1.398 90.667.017 98.791-.149 95.623 5.608 107.321 6.237 12.673 4.291 11.33 96.778 66.798 45.76 27.444 83.828 50.138 84.595 50.432.767.293 2.207-.036 3.2-.731l1.805-1.264V272.238l-3.2-2.067c-9.125-5.891-183.733-107.184-184.765-107.184-.666 0-1.846.702-2.623 1.56m317.548 52.545c-50.556 29.708-92.508 54.502-93.227 55.099-1.16.963-1.307 12.549-1.307 103.332V477.77l1.834 1.284c1.634 1.145 2.108 1.143 4.347-.015 1.382-.714 39.437-23.411 84.566-50.437 91.26-54.651 89.371-53.346 95.631-66.067 5.757-11.7 5.591-8.514 5.608-107.469.014-85.395-.053-89.316-1.546-90.667-.858-.777-2.106-1.392-2.774-1.367-.667.025-42.576 24.352-93.132 54.06" fill-rule="evenodd"/></svg>