<svg xmlns="http://www.w3.org/2000/svg" width="512" height="512"><path d="M89.6 81.432c-14.968 3.145-25.495 8.915-36.693 20.116-10.604 10.605-15.421 18.898-19.391 33.382-2.139 7.802-2.089 27.251.089 34.883 2.358 8.259 8.315 20.153 13.375 26.701 4.819 6.236 14.028 14.129 21.424 18.36 6.823 3.904 19.144 7.736 27.73 8.624 16.512 1.708 35.365-3.082 48.079-12.217l4.076-2.928 20.717 8.465c11.394 4.655 20.784 8.367 20.865 8.25.082-.118 2.148-3.863 4.591-8.321 3.159-5.765 6.735-10.565 12.375-16.616l7.933-8.509-19.939-12.063c-10.966-6.634-20.122-12.246-20.346-12.469-.223-.224.018-3.563.537-7.419 2.647-19.665-5.204-42.474-19.715-57.285-9.657-9.856-19.794-15.978-32.573-19.669-8.024-2.319-25.069-2.98-33.134-1.285m27.307 33.019c19.02 6.559 30.262 27.582 25.18 47.091-5.732 22.008-27.637 34.874-49.197 28.896-11.245-3.118-19.871-10.405-25.285-21.358-3.159-6.391-3.178-6.498-3.178-17.142 0-10.291.107-10.939 2.743-16.503 5.428-11.46 17.393-20.749 29.257-22.715 6.115-1.014 14.601-.296 20.48 1.731m297.386 24.363c-25.366 3.155-79.721 17.1-117.76 30.21-40.575 13.985-66.799 27.52-79.133 40.841-9.138 9.87-12.963 18.823-17.706 41.442-2.807 13.383-5.823 21.285-10.267 26.896-4.927 6.22-22.751 18.044-34.744 23.046l-6.17 2.573-4.923-3.327c-13.241-8.949-27.544-12.784-44.016-11.801-32.528 1.942-58.406 24.111-65.93 56.479-1.993 8.573-1.298 26.733 1.339 34.987 7.934 24.835 25.705 42.011 50.957 49.253 5.477 1.571 8.674 1.896 18.167 1.847 9.97-.051 12.553-.371 19.2-2.377 19.999-6.034 35.301-18.725 44.342-36.776 7.728-15.43 9.993-33.84 5.984-48.64-.406-1.501 18.076-12.135 152.752-87.894 142.525-80.174 153.181-86.323 152.748-88.144-1.174-4.948-7.44-16.388-10.397-18.984-7.989-7.015-21.068-10.288-40.261-10.077-6.392.07-12.774.271-14.182.446m-149.334 88.541c8.797 6.709 8.229 19.743-1.14 26.162-4.457 3.055-12.181 2.923-17.038-.291-8.069-5.34-9.467-16.962-2.887-23.997 3.449-3.686 6.706-4.863 12.644-4.568 4.195.209 5.862.742 8.421 2.694M302.08 283.8c-22.293 12.885-40.64 23.741-40.77 24.124-.227.667 39.359 19.711 54.423 26.181 35.799 15.376 69.398 23.817 98.987 24.87 23.907.85 34.295-1.832 51.2-13.218 5.867-3.951 11.328-7.811 12.136-8.577 1.371-1.3-3.021-3.905-65.668-38.94-36.926-20.651-67.731-37.619-68.456-37.707-.725-.088-19.559 10.382-41.852 23.267m-191.054 37.071c7.404 1.404 14.825 5.376 20.332 10.884 23.247 23.247 10.673 62.156-21.892 67.74-16.688 2.862-34.706-6.906-42.296-22.93-2.636-5.564-2.743-6.212-2.743-16.503 0-10.658.015-10.743 3.201-17.188 8.247-16.687 25.447-25.407 43.398-22.003" fill-rule="evenodd"/></svg>