<svg xmlns="http://www.w3.org/2000/svg" viewBox="0 0 512 512"><path d="M239.956 34.106c-3.426.923-8.425 2.747-11.108 4.053s-39.543 22.53-81.911 47.164c-79.967 46.495-80.223 46.662-76.861 49.944 2.498 2.439 184.302 108.786 185.973 108.786 1.678 0 183.399-106.349 185.875-108.779 3.347-3.287 3.162-3.407-79.007-51.175-59.373-34.516-80.998-46.671-86.437-48.586-6.431-2.265-8.56-2.585-18.773-2.82-9.38-.217-12.678.046-17.751 1.413m29.966 89.086c8.625 4.22 11.914 11.308 8.422 18.153-4.462 8.747-19.625 12.941-32.406 8.963-18.047-5.617-18.481-22.133-.748-28.457 6.805-2.427 18.305-1.803 24.732 1.341M49.128 164.328c-1.203 1.202-1.34 10.586-1.327 90.666.017 99.034-.15 95.841 5.608 107.541 6.237 12.673 4.291 11.33 96.778 66.798 45.76 27.444 83.828 50.138 84.595 50.432.767.293 2.207-.036 3.2-.731l1.805-1.264V272.238l-3.2-2.067c-9.514-6.143-183.756-107.184-184.836-107.184-.705 0-1.886.603-2.623 1.341m317.605 52.767c-50.563 29.719-92.515 54.517-93.227 55.107-1.142.948-1.293 13.016-1.293 103.321V477.77l1.834 1.284c1.634 1.145 2.108 1.143 4.347-.015 1.382-.714 39.437-23.411 84.566-50.437 91.26-54.651 89.371-53.346 95.631-66.067 5.757-11.7 5.591-8.514 5.608-107.469.014-85.395-.053-89.316-1.546-90.667-.858-.777-2.106-1.396-2.774-1.375-.667.02-42.582 24.352-93.146 54.071m56.875 17.886c1.61 1.227 4.012 4.443 5.339 7.145 2.183 4.446 2.413 5.767 2.413 13.874s-.23 9.428-2.413 13.874c-3.291 6.701-7.193 9.593-12.947 9.593-3.482 0-5.04-.489-7.467-2.34-9.091-6.934-11.106-27.133-3.781-37.9 5.022-7.382 12.529-9.072 18.856-4.246m-224.741 55.482c1.647 1.119 4.013 3.904 5.256 6.188 8.529 15.671 1.261 39.136-12.123 39.136-13.424 0-20.678-23.418-12.123-39.136 2.961-5.439 7.066-8.224 12.123-8.224 2.673 0 4.797.63 6.867 2.036m128 0c1.647 1.119 4.013 3.904 5.256 6.188 8.529 15.671 1.261 39.136-12.123 39.136-13.424 0-20.678-23.418-12.123-39.136 2.961-5.439 7.066-8.224 12.123-8.224 2.673 0 4.797.63 6.867 2.036m-225.44 31.183c5.693 2.904 9.473 10.282 10.135 19.781C112.584 356.1 105.687 367.78 96 367.78c-6.638 0-12.777-6.365-14.975-15.526-1.216-5.071-.665-16.116.993-19.881 3.399-7.717 8.472-12.251 13.803-12.335 1.309-.021 3.832.702 5.606 1.608m320 0c5.693 2.904 9.473 10.282 10.135 19.781 1.022 14.673-5.875 26.353-15.562 26.353-6.638 0-12.777-6.365-14.975-15.526-1.216-5.071-.665-16.116.993-19.881 3.399-7.717 8.472-12.251 13.803-12.335 1.309-.021 3.832.702 5.606 1.608m-94.941 56.559c3.32 2.275 6.855 7.529 8.2 12.187.543 1.882.971 6.533.951 10.335-.075 14.209-8.285 24.789-17.844 22.995-4.257-.798-8.283-4.764-11.014-10.848-4.024-8.967-3.277-21.589 1.733-29.309 4.667-7.191 12.076-9.401 17.974-5.36" fill-rule="evenodd"/></svg>