<svg xmlns="http://www.w3.org/2000/svg" width="512" height="512"><path d="M206.933 17.614c-16.67 3.522-32.967 16.195-40.382 31.403-5.538 11.359-6.262 15.689-6.75 40.37l-.442 22.4 21.654.006c25.366.008 30.508.645 39.147 4.855 7.39 3.601 1.574-2.029 73.444 71.085 29.761 30.277 50.864 52.413 52.273 54.835 5.601 9.622 5.228 4.098 5.696 84.259l.427 72.96 31.573-.03 31.574-.03 6.542-2.203c9.828-3.311 17.479-7.963 24.23-14.734 9.539-9.567 15.26-20.704 17.395-33.861.575-3.543.889-39.126.893-101.249l.006-95.787h-48.73c-41.691 0-49.487-.195-53.973-1.352-15.149-3.905-27.175-15.614-31.836-30.997-.896-2.954-1.141-14.452-1.141-53.546V16.213l-57.813.07c-47.557.057-58.873.293-63.787 1.331m154.198 15.837c-.767.766-1.024 10.701-1.021 39.466.003 36.599.083 38.574 1.666 41.17 3.641 5.971 2.252 5.779 43.84 6.054 34.247.226 37.619.123 39.079-1.199.879-.796 1.598-2.185 1.598-3.087 0-2.426-79.909-83.428-82.303-83.428-1.009 0-2.296.46-2.859 1.024M98.605 145.623c-22.949 4.918-41.688 22.717-48.429 45.999l-1.963 6.778v243.2l1.927 6.649c6.276 21.65 21.486 37.625 42.731 44.878l6.542 2.233H267.52l6.4-1.998c21.608-6.748 37.518-22.971 44.065-44.935 1.411-4.734 1.546-11.289 1.795-86.827l.269-81.707h-48.755c-52.971 0-53.97-.076-63.439-4.875-5.888-2.983-15.11-12.092-18.297-18.073-5.209-9.772-5.238-10.129-5.238-63.844v-48.888l-39.893.07c-31.903.056-41.081.324-45.822 1.34m118.629 16.145c-1.178 1.178-1.341 5.907-1.341 39.053 0 42.956-.145 41.988 6.858 45.579 3.71 1.902 4.076 1.92 40.093 1.92 39.38 0 39.659-.032 39.096-4.481-.361-2.854-79.356-83.412-81.793-83.412-.865 0-2.175.603-2.913 1.341" fill-rule="evenodd"/></svg>