<svg xmlns="http://www.w3.org/2000/svg" width="512" height="512"><path d="M233.387 32.5c-43.801 4.492-85.231 21.539-119.467 49.157-18.237 14.712-38.923 38.528-50.796 58.48-21.058 35.389-31.578 73.469-31.656 114.583-.067 34.953 6.959 66.293 21.805 97.28 32.252 67.311 95.858 114.717 169.447 126.288 53.68 8.441 111.291-4.051 156.688-33.975 55.563-36.625 90.931-93.573 99.729-160.58 1.571-11.965 1.808-37.966.456-49.92-7.731-68.312-43.339-126.623-100.852-165.155-10.842-7.264-34.343-19.165-47.099-23.851-15.894-5.839-36.769-10.453-55.892-12.355-10.128-1.007-32.318-.982-42.363.048m45.653 33.278c21.633 2.483 42.291 8.782 63.137 19.252 7.75 3.892 15.242 8.034 16.65 9.206l2.56 2.129-2.641.031c-3.584.042-12.425 5.877-15.651 10.33-6.609 9.124-3.235 15.012 9.509 16.591 6.42.796 12.709-.743 16.142-3.949 2.462-2.3 2.634-2.826 2.281-6.955-.21-2.456-1.335-6.446-2.501-8.865l-2.119-4.399 3.036 2.228c2.642 1.937 10.813 8.463 13.263 10.592.515.447-1.669 3.119-5.648 6.909-3.568 3.399-7.861 8.325-9.538 10.948-4.156 6.497-7.315 8.942-13.163 10.188-6.435 1.372-10.095 3.622-11.242 6.91-2.734 7.843 1.217 16.965 8.85 20.432 6.362 2.89 16.527 1.696 22.644-2.66 1.344-.957 4.587-4.799 7.207-8.538s5.705-7.415 6.855-8.168c3.477-2.279 8.252-2.473 12.674-.517 4.487 1.985 7.032 5.482 7.823 10.749 1.087 7.24 1.478 8.303 3.375 9.167 1.505.685 2.694.489 5.409-.896 1.913-.977 3.72-2.165 4.014-2.641 1.178-1.906 2.305-.492 6.439 8.078 4.817 9.986 4.822 9.846-.606 15.855-5.782 6.399-11.274 5.213-22.892-4.945-12.669-11.077-17.622-12.129-39.504-8.386-21.68 3.707-25.047 5.517-34.079 18.318-3.178 4.504-8.543 11.161-11.924 14.795-9.772 10.503-13.118 17.459-13.152 27.343-.051 14.473 9.624 29.576 23.777 37.12 10.4 5.543 22.351 6.87 37.335 4.145 9.784-1.779 17.655-1.803 21.016-.065 3.717 1.922 5.821 7.118 5.852 14.45.033 7.99 1.278 15.323 4.346 25.6 2.001 6.705 2.821 11.915 3.83 24.32.707 8.683 2.039 19.495 2.96 24.027.922 4.533 1.676 8.651 1.676 9.152 0 1.369-9.648 12.451-17.435 20.024-30.736 29.894-70.988 48.729-114.158 53.417-14.253 1.548-39.95.881-49.222-1.278-1.982-.462-2.026-.652-1.519-6.615.848-9.994 5.212-21.619 12.128-32.311 6.036-9.329 10.038-13.697 21.883-23.876 14.05-12.075 20.291-18.972 24.04-26.567 4.472-9.058 6.001-15.753 5.989-26.213-.018-15.264-3.625-23.69-13.657-31.903-5.086-4.163-9.112-6.587-27.728-16.694-7.688-4.174-12.072-7.295-24.358-17.338-8.173-6.681-11.112-7.741-23.323-8.41-7.422-.406-12.2-1.128-15.707-2.373-8.996-3.193-11.079-2.739-26.106 5.687-9.619 5.393-16.088 4.31-25.206-4.219-7.144-6.683-10.634-13.442-10.634-20.592 0-4.814.191-5.298 3.244-8.202 4.118-3.917 7.969-5.143 18.089-5.758 9.8-.595 12.064.175 18.902 6.424 5.569 5.09 9.666 7.089 12.402 6.049 3.134-1.19 3.944-3.851 3.34-10.968-1.664-19.608-1.676-19.058.474-22.209 1.101-1.613 5.195-5.645 9.097-8.96 3.902-3.315 7.904-7.321 8.895-8.903 2.176-3.475 2.43-9.406.721-16.793-1.625-7.021-.852-9.347 4.946-14.891 6.59-6.301 11.46-8.778 24.51-12.468 25.185-7.12 27.75-11.893 14.946-27.806-6.051-7.52-10.764-11.538-15.418-13.141-5.425-1.869-8.799-.349-17.108 7.705-9.465 9.174-14.971 11.934-23.894 11.974-6.976.032-9.64-1.192-12.301-5.649-2.452-4.108-1.765-5.693 5.475-12.618 7.501-7.176 8.138-8.912 5.546-15.116-.704-1.685-1.28-3.373-1.28-3.751 0-.378 2.161-1.496 4.803-2.485 4.615-1.726 4.949-1.74 8.555-.363 2.971 1.134 5.261 1.317 10.997.876 8.73-.671 10.671.011 17.885 6.284 9.111 7.922 16.869 10.241 24.123 7.21 8.439-3.526 11.382-10.711 9.322-22.763l-.689-4.03 7.089.45c3.899.247 10.353.824 14.342 1.282M73.388 211.401c1.173 2.223 5.339 9.423 9.259 16 3.92 6.578 8.865 15.409 10.989 19.625 2.124 4.217 4.794 8.888 5.933 10.382 3.114 4.083 9.919 8.295 19.898 12.315 14.981 6.034 19.785 9.86 24.081 19.177 1.824 3.957 1.95 5.363 2.024 22.567.122 28.222 1.456 31.156 19.808 43.568 12.578 8.507 16.974 15.605 18.466 29.818 1.628 15.509 3.348 27.233 5.679 38.706 1.416 6.973 2.397 12.856 2.18 13.073-1.503 1.504-28.914-12.131-42.044-20.914C103.99 385.168 74.437 338.393 66 283.307c-1.788-11.675-2.05-40.971-.462-51.627 1.45-9.73 4.562-24.32 5.188-24.32.292 0 1.49 1.819 2.662 4.041" fill-rule="evenodd"/></svg>