<svg xmlns="http://www.w3.org/2000/svg" width="512" height="512"><path d="M248.747 48.66c-13.995 1.876-28.22 11.943-34.91 24.707-13.992 26.69-.853 58.996 27.803 68.368 12.854 4.204 28.533 2.155 39.813-5.202 25.77-16.809 30.052-52.362 8.877-73.71-11.222-11.314-25.799-16.279-41.583-14.163m-2.56 160.367c-22.169 4.804-37.974 24.355-37.974 46.973 0 13.119 4.67 24.3 14.078 33.709 18.962 18.962 48.456 18.962 67.418 0 24.831-24.831 15.773-66.104-17.257-78.626-6.358-2.411-19.779-3.462-26.265-2.056m2.56 159.633c-13.995 1.876-28.22 11.943-34.91 24.707-13.992 26.69-.853 58.996 27.803 68.368 12.854 4.204 28.533 2.155 39.813-5.202 25.77-16.809 30.052-52.362 8.877-73.71-11.222-11.314-25.799-16.279-41.583-14.163" fill-rule="evenodd"/></svg>