<svg xmlns="http://www.w3.org/2000/svg" width="512" height="512"><path d="M241.493 48.673c-39.799 2.563-78.317 17.074-111.786 42.114-10.589 7.922-31.248 28.596-39.155 39.184-21.846 29.252-35.222 61.365-40.767 97.869-2.061 13.574-2.061 42.746 0 56.32 5.546 36.511 18.94 68.661 40.773 97.869 8.04 10.755 28.658 31.373 39.413 39.413 29.208 21.833 61.358 35.227 97.869 40.773 13.574 2.061 42.746 2.061 56.32 0 36.526-5.548 68.754-18.978 97.869-40.785 10.755-8.056 31.345-28.646 39.401-39.401 21.807-29.115 35.237-61.343 40.785-97.869 2.061-13.574 2.061-42.746 0-56.32-6.752-44.453-25.412-83.157-55.294-114.69-36.541-38.56-84.833-61.088-138.36-64.543-13.196-.852-12.782-.853-27.068.066m42.667 33.635c35.838 6.075 67.575 21.95 93.579 46.81 27.61 26.395 45.561 60.682 52.093 99.5 2.091 12.43 2.073 42.896-.033 55.115-9.878 57.299-44.492 104.256-95.788 129.946-48.421 24.25-107.601 24.25-156.022 0-51.464-25.774-86.214-73.029-95.815-130.297-2.121-12.648-2.121-42.116 0-54.764 10.541-62.873 51.565-113.601 110.675-136.854 13.047-5.132 28.757-8.823 46.938-11.027 6.667-.809 36.585.251 44.373 1.571M154.643 233c-9.53 4.762-14.223 12.335-14.252 23-.015 5.308.391 7.232 2.377 11.276 7.846 15.977 28.718 19.59 41.18 7.127 7.562-7.561 9.911-17.637 6.339-27.185-5.415-14.473-21.942-21.065-35.644-14.218m93.671-1.852c-14.712 4.815-22.302 21.514-16.017 35.242 7.65 16.709 29.088 20.726 41.953 7.86 12.436-12.435 9.045-33.358-6.73-41.524-3.714-1.923-15.255-2.871-19.206-1.578m86.57 1.699c-16.369 7.744-19.797 28.592-6.832 41.556 12.462 12.463 33.334 8.85 41.18-7.127 3.099-6.311 3.347-15.52.58-21.559-6.143-13.408-21.685-19.135-34.928-12.87" fill-rule="evenodd"/></svg>