<svg xmlns="http://www.w3.org/2000/svg" width="512" height="512"><path d="M206.933 80.758c-19.385 4.141-33.78 15.058-41.477 31.455-5.477 11.668-5.34 9.939-5.676 71.467l-.307 56.107h153.213l-26.534-26.667c-14.593-14.667-27.183-27.949-27.977-29.515-1.787-3.526-1.884-11.088-.184-14.356 3.876-7.451 13.061-10.753 20.863-7.499 2.166.902 15.981 14.108 43.52 41.6 22.191 22.152 41.352 41.724 42.58 43.492 2.665 3.837 3.494 10.075 1.971 14.819-.844 2.627-9.335 11.602-41.699 44.076-22.352 22.427-42.051 41.756-43.777 42.953-7.9 5.478-18.995 2.705-23.42-5.852-1.733-3.35-1.656-10.886.146-14.443.794-1.566 13.384-14.848 27.977-29.515l26.534-26.667H159.473l.307 56.107c.274 50.168.464 56.649 1.79 61.227 4.827 16.669 15.371 29.553 30.027 36.694 12.076 5.884 5.153 5.601 130.735 5.348l113.295-.229 6.259-2.286c8.813-3.22 14.896-7.074 21.399-13.56 9.331-9.306 14.52-20.014 16.306-33.647 1.031-7.863 1.031-243.871 0-251.734-2.913-22.233-15.918-38.672-37.046-46.824l-6.918-2.669-113.494-.124c-62.421-.067-114.261.041-115.2.242M44.679 240.598c-10.833 2.595-15.8 14.353-10.004 23.684 1.485 2.392 3.785 4.637 5.858 5.721 3.365 1.758 4.233 1.784 61.44 1.784H160v-31.574l-56.32-.129c-30.976-.071-57.526.16-59.001.514" fill-rule="evenodd"/></svg>