<svg xmlns="http://www.w3.org/2000/svg" width="512" height="512"><path d="M234.24 97.032c-7.82.728-25.196 3.858-34.453 6.206-36.482 9.252-72.445 28.167-106.695 56.117-18.532 15.124-45.214 43.463-61.666 65.498-13.933 18.66-15.622 22.408-15.003 33.28.498 8.737 2.449 13.044 12.183 26.88 22.416 31.867 49.736 59.982 78.914 81.211 48.296 35.14 106.62 52.968 161.36 49.324 56.469-3.76 107.336-25.199 155.653-65.604 24.043-20.106 57.797-59.722 67.645-79.393 3.008-6.008 3.182-6.801 3.182-14.507 0-9.801-1.419-13.386-10.393-26.261-52.386-75.157-126.066-123.067-203.123-132.081-9.933-1.162-38.072-1.558-47.604-.67m38.928 64.647c39.501 6.918 71.797 40.104 77.591 79.729 1.429 9.773.593 29.245-1.615 37.632-7.883 29.94-29.273 54.708-56.748 65.709-47.053 18.841-99.161-.671-121.928-45.656-7.117-14.062-10.041-26.612-10.041-43.093 0-16.944 3.016-29.472 10.66-44.272 13.39-25.925 38.883-44.886 67.278-50.038 8.4-1.524 26.132-1.529 34.803-.011m-27.771 31.167c-14.403 2.612-28.725 10.893-38.401 22.203-15.275 17.854-19.132 43.093-10.011 65.505 6.131 15.068 19.393 28.33 34.461 34.461 24.317 9.896 51.25 4.524 69.671-13.898 23.964-23.964 25.175-61.925 2.787-87.357-7.437-8.448-20.675-16.654-31.769-19.695-5.664-1.552-21.038-2.253-26.738-1.219" fill-rule="evenodd"/></svg>