<svg xmlns="http://www.w3.org/2000/svg" width="512" height="512"><path d="M399.556 34.146c-7.889 2.067-18.117 7.376-24.33 12.63-3.122 2.64-14.42 16.489-31.842 39.031-28.667 37.092-31.028 39.942-34.648 41.839-4.696 2.46-7.628 1.633-13.932-3.933-15.463-13.65-35.373-16.431-53.822-7.518-8.425 4.071-17.259 12.93-21.229 21.288-10.124 21.319-5.722 41.417 13.15 60.041 3.317 3.273 6.03 6.34 6.03 6.817 0 .477-41.601 42.536-92.447 93.463C43.545 400.911 51.544 391.98 44.825 411.307c-6.862 19.739-13.688 50.296-12.447 55.723 1.484 6.488 6.173 11.134 12.731 12.613 3.54.798 14.365-1.074 32.971-5.704 15.448-3.845 28.152-8.173 36.693-12.503 6.661-3.377 9.079-5.71 99.423-95.915 50.927-50.85 92.935-92.454 93.349-92.454.414 0 3.961 3.079 7.882 6.844 12.156 11.669 21.428 16.412 34.327 17.559 7.327.651 16.426-1.264 24.719-5.203 7.424-3.525 17.096-12.692 20.867-19.777 3.162-5.941 5.727-16.363 5.727-23.274 0-10.651-4.516-22.747-11.379-30.477-6.931-7.807-7.891-10.593-5.334-15.475 1.886-3.6 4.681-5.909 41.459-34.258 23.25-17.92 36.022-28.343 39.028-31.848 14.258-16.626 18.72-39.979 11.678-61.115-6.983-20.96-25.241-37.356-47.034-42.24-8.429-1.889-22.005-1.733-29.929.343M273.694 238.281c5.756 5.742 10.466 10.833 10.466 11.314 0 .481-7.782 8.649-17.294 18.152-14.692 14.68-17.967 17.534-21.769 18.979-2.461.935-5.886 1.701-7.61 1.701-4.353 0-9.789-2.844-11.794-6.169-2.201-3.652-2.23-12.585-.055-16.871 1.588-3.129 35.269-37.547 36.742-37.547.467 0 5.558 4.698 11.314 10.441" fill-rule="evenodd"/></svg>