<svg xmlns="http://www.w3.org/2000/svg" width="512" height="512"><path d="M29.138 122.953c-14.672 7.331-17.474 26.209-5.647 38.036 7.827 7.827-15.356 7.118 232.509 7.118 247.865 0 224.682.709 232.509-7.118 7.791-7.791 9.504-18.021 4.645-27.745-2.801-5.605-5.743-8.364-11.898-11.156-3.802-1.724-4.627-1.731-225.333-1.749l-221.517-.019-5.268 2.633m83.244 110.386c-8.119 2.896-13.353 8.786-15.599 17.555-1.181 4.611-1.178 5.616.038 10.361 1.782 6.956 5.717 12.254 11.552 15.556l4.694 2.656 141.098.223c91.987.146 142.2-.073 144.264-.629 4.641-1.25 10.634-5.525 13.218-9.431 1.244-1.879 2.851-5.715 3.57-8.524 1.176-4.588 1.176-5.624 0-10.212-2.246-8.769-7.48-14.659-15.599-17.555-4.823-1.721-282.413-1.721-287.236 0m97.821 111.355c-13.147 3.218-21.199 17.899-16.906 30.825 1.928 5.803 7.569 11.915 13.454 14.576l4.449 2.012h89.6l4.449-2.012c13.043-5.898 18.364-21.124 11.677-33.411-2.62-4.814-5.524-7.605-10.907-10.485-3.481-1.862-3.909-1.88-48.312-2.023-24.64-.079-46.017.154-47.504.518" fill-rule="evenodd"/></svg>