<svg xmlns="http://www.w3.org/2000/svg" width="512" height="512"><path d="M149.333 64.486c-1.173.205-5.013.794-8.533 1.308-9.162 1.338-21.297 5.396-31.04 10.378-36.344 18.585-59.466 55.078-61.694 97.369-.841 15.966 1.934 40.587 6.506 57.712.939 3.52 1.717 6.825 1.728 7.344.012.565-2.539 1.137-6.357 1.426-7.973.603-12.572 2.997-15.565 8.104-4.443 7.581-1.554 17.846 6.155 21.876 2.922 1.527 5.228 1.823 16 2.058 6.923.152 12.587.091 12.587-.133 0-.225-1.127-2.921-2.505-5.992-2.861-6.376-9.442-24.005-9.442-25.292 0-.564 15.92-.857 46.498-.857h46.497l22.639-45.226c21.097-42.144 22.874-45.381 26.088-47.507 6.629-4.388 14.553-3.572 20.641 2.125 2.827 2.646 2.221.79 23.73 72.564l16.458 54.916 15.418-30.732c8.48-16.903 16.186-31.576 17.125-32.607 5.122-5.627 14.255-6.623 20.831-2.271 3.146 2.082 4.706 4.803 18.185 31.719l14.744 29.442 48 .001c26.4.001 48 .207 48 .457 0 1.388-10.46 20.35-14.661 26.579-1.323 1.962-2.406 3.804-2.406 4.093 0 .29 10.111.412 22.468.273l22.469-.253 3.149-2.403c3.919-2.992 5.365-5.174 6.35-9.585.987-4.419-.545-10.742-3.324-13.72-4.368-4.68-7.281-5.439-20.876-5.439-9.68 0-12.393-.24-12.029-1.066 11.891-27.006 17.985-49.985 20.313-76.587 3.363-38.432-7.818-72.169-32.12-96.921-16.275-16.576-37.782-28.03-60.16-32.04-9.053-1.622-30.233-1.42-39.119.372-25.79 5.203-50.172 19.668-69.313 41.122-3.35 3.755-6.403 6.827-6.785 6.827-.381 0-3.219-2.88-6.306-6.4-18.598-21.211-44.083-36.442-69.306-41.422-6.578-1.299-26.817-2.35-31.038-1.612m39.882 168.96c-8.242 16.459-16.059 31.201-17.371 32.761-5.129 6.095-3.939 5.967-55.577 5.988-25.462.01-46.294.219-46.294.464 0 1.284 7.841 15.746 13.284 24.502 25.963 41.762 66.419 81.797 127.516 126.189 17.59 12.78 28.842 20.341 33.28 22.364 2.973 1.355 5.671 1.762 11.947 1.802 7.415.048 8.548-.171 13.284-2.572 8.733-4.428 42.729-28.874 65.223-46.902 34.79-27.883 63.94-57.496 83.413-84.737 3.403-4.76 6.187-8.839 6.187-9.065 0-.226-21.053-.517-46.783-.646l-46.784-.234-3.515-2.327c-3.148-2.084-4.533-4.351-13.274-21.728l-9.759-19.402-17.568 35.069c-12.644 25.24-18.305 35.689-20.195 37.28-6.944 5.843-17.721 4.497-23.194-2.896-.882-1.191-9.658-29.031-19.503-61.867s-18.222-60.662-18.616-61.836c-.623-1.855-2.666 1.76-15.701 27.793" fill-rule="evenodd"/></svg>