<svg xmlns="http://www.w3.org/2000/svg" width="512" height="512"><path d="m133.973 32.937-11.093 1.252C98.021 37.001 77.43 44.211 69.931 52.73c-6.42 7.294-5.933-10.293-5.912 213.452.018 194.485.07 201.132 1.614 204.53.877 1.932 2.892 4.502 4.478 5.712 2.772 2.114 9.275 4.179 11.274 3.58.529-.158 2.011-.518 3.293-.798 2.893-.634 7.943-4.985 9.872-8.506 1.325-2.419 1.487-9.336 1.877-80.3l.426-77.653 5.821-1.945c14.819-4.952 45.165-7.662 68.951-6.159 24.489 1.547 43.978 4.984 92.159 16.254 60.808 14.223 78.588 16.683 104.856 14.509 20.354-1.684 38.446-5.337 55.893-11.285 10.067-3.432 13.831-5.361 17.691-9.062 6.179-5.927 5.826 1.987 5.575-124.872l-.226-113.939-2.38-3.597c-2.607-3.938-6.089-6.431-11.126-7.966-4.033-1.228-7.586-.49-20.854 4.332-17.158 6.235-33.779 9.632-53.106 10.851-16.218 1.024-32.534-2.39-65.726-13.751-54.232-18.563-64.735-21.979-78.488-25.531-25.537-6.595-31.569-7.415-56.746-7.717-12.203-.146-23.531-.116-25.174.068" fill-rule="evenodd"/></svg>