<svg xmlns="http://www.w3.org/2000/svg" width="512" height="512"><path d="M200.962 33.771c-3.848 2.006-5.627 3.848-7.357 7.616-1.985 4.322-1.981 6.365.028 16.506 6.76 34.114-1.454 65.475-28.827 110.066-3.652 5.948-12.596 20.03-19.877 31.294-24.148 37.359-34.222 56.237-41.086 76.987-6.753 20.415-8.813 35.965-7.341 55.411 5.433 71.773 58.014 131.169 128.623 145.294 44.254 8.853 91.759-2.22 127.805-29.791 30.674-23.461 52.437-58.398 60.035-96.378 4.11-20.544 3.774-53.347-.862-84.109-10.365-68.788-39.571-128.14-85.661-174.08C299.7 65.932 271.3 47.579 241.92 37.967c-15.801-5.17-35.266-7.164-40.958-4.196m49.983 233.968c8.882 6.01 20.027 18.153 29.094 31.699 10.098 15.087 16.98 30.178 21.028 46.11 2.091 8.23 2.282 10.345 2.199 24.372-.08 13.622-.34 16.3-2.293 23.67-6.588 24.852-22.285 38.176-44.973 38.176-12.926 0-22.908-3.939-31.147-12.291-11.068-11.222-16.648-28.365-16.635-51.11.011-19.215 3.914-33.633 17.009-62.847 4.303-9.598 9.174-21.498 10.826-26.445 1.652-4.946 3.81-9.857 4.797-10.913 2.205-2.36 6.938-2.558 10.095-.421" fill-rule="evenodd"/></svg>