<svg xmlns="http://www.w3.org/2000/svg" width="512" height="512"><path d="M308.828 18.182c-3.133 1.64-11.709 11.79-51.329 60.75-26.162 32.329-47.805 59.528-48.094 60.441-.427 1.344 14.01 16.209 75.727 77.969 41.94 41.97 76.899 76.668 77.686 77.107.788.439 2.01.576 2.716.305 1.535-.589 62.61-75.966 64.759-79.924 3.403-6.265.714-15.942-5.587-20.113l-3.46-2.29-57.11-.237-57.109-.237.468-1.896c2.072-8.401 27.865-152.909 27.865-156.117 0-13.1-14.809-21.895-26.532-15.758M77.227 64.807c-9.388 2.252-14.729 10.774-12.381 19.755.902 3.45 15.663 18.438 179.908 182.681C440.43 462.916 425.743 448.972 434.755 447.621c2.885-.433 4.955-1.468 7.469-3.737 5.853-5.282 7.301-11.752 4.138-18.497-1.116-2.382-55.468-57.232-179.821-181.469C113.668 91.188 87.895 65.782 85.333 65.295a376.237 376.237 0 0 1-4.266-.835c-.704-.147-2.432.009-3.84.347m68.992 152.476c-1.652.677-63.794 77.88-65.027 80.788-2.961 6.981.811 16.751 7.768 20.119 3.694 1.788 4.414 1.81 59.857 1.81h56.119l-.499 2.347c-3.027 14.24-27.792 153.144-27.778 155.8.037 7.126 5.487 14.52 12.377 16.794 4.382 1.446 11.438.696 15.175-1.614 1.974-1.22 20.012-22.819 49.698-59.511 25.631-31.677 47.242-58.722 48.026-60.099l1.425-2.504-77.237-77.233c-42.48-42.479-77.616-77.203-78.08-77.166-.463.037-1.284.248-1.824.469" fill-rule="evenodd"/></svg>