<svg xmlns="http://www.w3.org/2000/svg" width="512" height="512"><path d="M169.813 33.381c-3.67 1.456-7.666 6.049-8.912 10.243-2.228 7.503 1.378 15.561 8.387 18.743 2.753 1.251 5.587 1.6 13.112 1.614L192 64l-.015 40.747c-.015 42.939-.348 47.48-4.094 55.948-.905 2.048-30.937 50.132-66.737 106.855-35.8 56.724-65.99 105.347-67.089 108.053-4.521 11.124-5.797 17.58-5.793 29.304.005 15.681 3.5 27.828 11.562 40.178 12.87 19.715 32.637 31.768 56.451 34.423 11.421 1.274 268.009 1.274 279.43 0 32.833-3.661 57.857-25.357 66.443-57.607 1.174-4.412 1.558-8.808 1.52-17.421-.044-9.971-.361-12.552-2.361-19.2-1.271-4.224-3.58-10.176-5.132-13.227-1.552-3.05-31.52-50.985-66.595-106.522-35.075-55.536-64.528-102.681-65.45-104.766-3.779-8.543-4.11-13.019-4.125-55.931L320 64.175l10.594-.301c10.171-.289 10.739-.403 14.217-2.861 8.614-6.086 9.501-17.317 1.932-24.479-1.333-1.261-3.504-2.701-4.825-3.2-3.207-1.211-169.046-1.166-172.105.047m116.728 31.686c.573.691 1.008 16.221 1.236 44.16l.351 43.093 2.285 8.533c1.256 4.694 3.929 11.798 5.94 15.787 2.011 3.989 16.987 28.332 33.279 54.094 16.87 26.678 29.621 47.69 29.621 48.814 0 3.021-1.664 6.007-4.063 7.292-1.792.958-19.024 1.16-99.19 1.16s-97.398-.202-99.19-1.16c-2.399-1.285-4.063-4.271-4.063-7.292 0-1.124 12.751-22.136 29.621-48.814 16.292-25.762 31.268-50.105 33.279-54.094 2.011-3.989 4.684-11.093 5.94-15.787l2.285-8.533.351-43.093c.228-27.939.663-43.469 1.236-44.16C226.135 64.251 233.314 64 256 64s29.865.251 30.541 1.067" fill-rule="evenodd"/></svg>