<svg xmlns="http://www.w3.org/2000/svg" width="512" height="512"><path d="M60.16 65.371C40 69.687 23.073 86.094 17.896 106.333c-1.513 5.916-1.683 9.511-1.683 35.623V171l2.293 2.393 2.293 2.394h470.402l2.377-2.482 2.377-2.481-.335-15.225c-.303-13.816-.543-15.805-2.583-21.485-3.148-8.759-7.007-14.866-13.523-21.399-6.339-6.356-13.977-11.176-22.127-13.964l-5.547-1.898-118.613-.426c-111.157-.4-118.816-.522-121.825-1.937-1.767-.83-11.175-6.798-20.907-13.262-13.875-9.215-19.261-12.297-24.948-14.274l-7.254-2.521-46.08-.171c-38.195-.141-47.102.049-52.053 1.109M18.839 210.423l-2.626 2.209v93.227c0 89.994.059 93.456 1.683 99.808 2.641 10.325 7.001 17.84 14.909 25.697 7.363 7.315 13.232 10.929 23.088 14.217l5.974 1.992h388.266l5.974-1.992c9.856-3.288 15.725-6.902 23.088-14.217 7.908-7.857 12.268-15.372 14.909-25.697 1.624-6.352 1.683-9.814 1.683-99.808v-93.227l-2.626-2.209-2.625-2.21H21.464l-2.625 2.21" fill-rule="evenodd"/></svg>