<svg xmlns="http://www.w3.org/2000/svg" width="512" height="512"><path d="M96 64.572c-18.024 2.555-34.872 15.222-42.645 32.065-4.276 9.266-5.568 17.03-5.568 33.46v14.116H464.434l-.577-5.102c-2.173-19.204-14.087-33.117-34.204-39.941l-6.826-2.315-87.894-.428c-87.171-.423-87.925-.442-91.785-2.228-2.14-.99-10.804-6.419-19.253-12.064-28.327-18.927-22.44-17.606-79.255-17.783-25.344-.079-47.232.02-48.64.22M59.733 176.323c-12.53 1.876-20.997 5.865-29.144 13.73-9.285 8.964-14.325 20.721-14.37 33.52-.026 7.562 15.838 171.135 17.404 179.45 3.074 16.319 14.673 31.544 29.524 38.754C76.949 448.478 62.124 448 256 448s179.051.478 192.853-6.223c14.851-7.211 26.45-22.436 29.523-38.754 1.665-8.839 17.424-171.248 17.417-179.484-.019-20.164-12.769-37.809-32.536-45.026l-6.297-2.3-197.547-.105c-108.65-.058-198.506.039-199.68.215" fill-rule="evenodd"/></svg>