<svg xmlns="http://www.w3.org/2000/svg" width="512" height="512"><path d="M241.92 48.669c-64.561 4.115-123.152 38.433-159.962 93.693-26.292 39.469-38.649 92.321-32.455 138.811 6.326 47.479 26.376 88.354 59.673 121.651 33.526 33.526 73.443 53.027 122.504 59.846 4.224.587 15.168 1.068 24.32 1.068 9.152 0 20.096-.481 24.32-1.068 49.001-6.811 88.952-26.339 122.482-59.868 33.529-33.53 53.057-73.481 59.868-122.482 1.376-9.9 1.376-38.74 0-48.64-6.778-48.766-26.328-88.904-59.45-122.057-11.819-11.831-20.651-19.077-33.662-27.617-37.561-24.655-81.952-36.249-127.638-33.337m-27.731 60.229c12.436 8.268 23.274 15.852 24.085 16.854 1.302 1.608 1.474 4.116 1.467 21.448-.007 15.327-.266 19.966-1.182 21.175-.646.851-14.17 12.464-30.053 25.805-19.299 16.21-29.729 24.418-31.439 24.743-1.978.376-6.248-1.084-18.774-6.416-8.917-3.796-16.908-7.597-17.757-8.446-1.905-1.904-20.216-53.786-20.216-57.279 0-5.844 20.692-25.674 39.776-38.12 9.884-6.445 26.384-14.795 29.239-14.795 1.482 0 9.918 5.102 24.854 15.031m116.488-12.121c19.852 9.172 42.606 26.105 56.016 41.686 3.643 4.233 4.987 6.472 4.987 8.311 0 3.158-18.306 55.242-20.121 57.247-2.079 2.297-31.886 14.728-35.433 14.777-2.798.039-5.585-2.059-31.074-23.397-15.4-12.892-29.088-24.529-30.419-25.859l-2.42-2.42.019-19.774c.017-17.446.193-19.989 1.494-21.596 2.44-3.015 46.512-31.885 48.674-31.885 1.088 0 4.813 1.309 8.277 2.91m-182.74 146.035c8.996 3.742 16.232 7.279 17.281 8.446 2.671 2.973 17.691 64.441 16.507 67.554-1.462 3.846-17.061 29.963-18.877 31.607-1.619 1.465-3.623 1.581-27.355 1.581h-25.608l-2.946-3.408c-4.296-4.97-13.294-23.853-17.689-37.125-4.288-12.946-7.896-30.058-7.049-33.431.385-1.535 7.485-8.173 22.788-21.306 21.378-18.347 23.733-20.164 26.308-20.297.639-.033 8.127 2.838 16.64 6.379m237.441-4.542c7.426 5.721 43.719 37.495 44.17 38.67.874 2.276.624 5.158-1.238 14.309-3.878 19.064-16.048 49.013-23.347 57.456L402.115 352h-25.608c-23.82 0-25.731-.111-27.372-1.596-1.679-1.52-18.079-29.169-19.182-32.34-.289-.831 2.961-15.736 7.223-33.122 5.798-23.659 8.209-32.127 9.579-33.658 2.082-2.325 30.463-14.742 33.93-14.845 1.227-.036 3.339.788 4.693 1.831m-82.176 99.863c1.139 1.056 5.576 7.992 9.861 15.412 5.647 9.78 7.79 14.29 7.79 16.394 0 2.84-18.307 50.747-20.911 54.721-2.328 3.553-17.547 6.282-38.443 6.894-19.731.578-42.53-1.97-47.851-5.347-2.295-1.456-22.501-52.021-22.501-56.307 0-2.055 2.2-6.673 7.79-16.355 4.285-7.42 8.722-14.356 9.861-15.412l2.071-1.92h90.262l2.071 1.92" fill-rule="evenodd"/></svg>