<svg xmlns="http://www.w3.org/2000/svg" viewBox="0 0 512 512"><path d="M375.79 17.36c-11.786 3.02-25.241 12.041-35.013 23.474-22.137 25.9-38.669 66.668-45.209 111.486-1.857 12.726-2.081 38.114-.417 47.36 6.638 36.894 29.567 58.626 67.957 64.413 41.383 6.237 71.744-12.499 87.018-53.7 8.882-23.957 13.574-52.397 13.593-82.393.013-19.669-1.109-29.503-5.137-45.029-8.427-32.488-27.86-55.89-53.106-63.954-8.046-2.57-22.892-3.399-29.686-1.657m-258.477 95.225c-23.112 3.636-43.306 19.467-55.376 43.413-5.487 10.885-10.156 26.974-12.552 43.255-1.622 11.018-1.393 40.77.42 54.614 7.91 60.405 26.453 92.33 60.275 103.776 7.288 2.466 9.366 2.782 20.582 3.132 19.543.61 33.967-2.503 49.812-10.753 9.839-5.123 21.237-16.154 26.625-25.769 13.708-24.46 14.844-61.232 3.279-106.1-14.203-55.099-42.334-95.681-72.174-104.119-5.894-1.667-15.34-2.322-20.891-1.449M299.677 271.78c-12.748 3.599-21.277 13.335-25.423 29.02-1.248 4.724-1.572 9.008-1.546 20.48.029 13.008.27 15.388 2.33 23.04 10.997 40.849 44.899 63.207 80.802 53.288 29.903-8.261 52.684-35.361 56.273-66.942 1.657-14.587-2.435-27.004-11.687-35.46-8.207-7.5-18.018-11.218-41.408-15.691-6.207-1.187-17.045-3.523-24.085-5.19-15.356-3.636-28.126-4.558-35.256-2.545m-109.384 95.706c-1.173.222-7.893 1.716-14.933 3.321-7.04 1.606-18.697 4.083-25.905 5.506-30.475 6.015-42.086 13.444-47.877 30.633-3.568 10.593-1.587 29.227 4.584 43.116 5.805 13.065 17.187 26.249 29.732 34.438 21.179 13.826 47.628 14.989 67.966 2.989 12.06-7.116 23.614-21.382 29.538-36.469 4.868-12.403 5.964-18.777 5.946-34.593-.015-12.089-.293-15.042-1.969-20.881-3.657-12.739-10.021-21.126-19.521-25.726-4.487-2.173-5.9-2.412-15.187-2.566-5.632-.094-11.2.011-12.374.232" fill-rule="evenodd"/></svg>