<svg xmlns="http://www.w3.org/2000/svg" width="512" height="512"><path d="M40.731 48.672c-9.295 1.563-17.053 7.393-21.282 15.991-2.547 5.178-2.809 6.43-2.808 13.404 0 6.528.338 8.404 2.23 12.386 1.616 3.402 25.749 32.062 87.66 104.107l85.43 99.413.024 61.44c.015 38.415.345 62.596.881 64.524 1.202 4.327 4.938 9.601 8.95 12.633 2.586 1.955 13.828 6.014 46.504 16.791 23.701 7.817 44.478 14.4 46.171 14.629 4.292.579 11.919-1.831 16.192-5.117 1.978-1.522 4.787-4.878 6.243-7.46l2.647-4.693.248-76.373.249-76.374 85.419-99.413c62.007-72.166 86.029-100.7 87.645-104.107 1.888-3.98 2.226-5.862 2.226-12.391 0-6.98-.262-8.23-2.809-13.404-4.391-8.919-11.896-14.378-22.053-16.042-6.124-1.003-423.796-.949-429.767.056" fill-rule="evenodd"/></svg>