<svg xmlns="http://www.w3.org/2000/svg" width="512" height="512"><path d="M143.787 81.149c-54.238 7.71-88.611 53.449-112.559 149.774-10.131 40.75-15.015 74.911-15.015 105.034 0 17.178.999 27.809 3.792 40.363 3.94 17.707 9.981 29.866 19.695 39.636 16.4 16.499 41.106 20.54 63.19 10.336 13.799-6.375 28.109-18.467 43.362-36.64 12.638-15.059 18.578-20 31.447-26.167 18.426-8.829 49.357-12.357 96.008-10.951 28.137.847 44.927 3.948 59.946 11.07 10.652 5.051 18.599 11.584 29.47 24.226 22.428 26.081 37.812 37.571 56.7 42.348 9.817 2.482 22.269 1.951 31.777-1.356 22.382-7.786 35.869-26.091 42.219-57.303 2.2-10.811 2.195-49.497-.007-66.026-7.2-54.02-21.341-109.146-37.041-144.396-24.401-54.788-58.188-80.884-104.721-80.884-10.248 0-19.396 1.614-38.989 6.877-20.899 5.614-30.295 7.372-44.956 8.413-13.379.95-30.626.106-42.825-2.097-3.989-.72-15.125-3.39-24.747-5.933-9.621-2.543-20.903-5.217-25.071-5.942-8.065-1.402-23.212-1.585-31.675-.382m22.344 80.188c3.237 1.226 6.072 3.981 8.032 7.802 1.444 2.816 1.624 5.151 1.624 21.12v17.954h17.954c20.292 0 22.414.514 27.01 6.539 2.115 2.774 2.396 3.864 2.396 9.316 0 5.599-.241 6.47-2.582 9.363-4.886 6.038-6.219 6.356-26.632 6.356h-18.146v17.954c0 16.135-.169 18.285-1.67 21.226-2.283 4.476-6.299 7.643-10.556 8.323l-3.561.57-3.561-.57c-4.257-.68-8.273-3.847-10.556-8.323-1.501-2.941-1.67-5.091-1.67-21.226v-17.954h-17.947c-19.555 0-21.599-.382-25.732-4.802-5.435-5.813-5.634-15.92-.424-21.521 4.466-4.802 6.702-5.251 26.149-5.251h17.954v-17.954c0-15.969.18-18.304 1.624-21.12 1.895-3.695 4.759-6.556 7.763-7.754 2.869-1.144 9.572-1.169 12.531-.048m178.189.682c11.902 5.42 15.228 20.788 6.664 30.793-4.088 4.776-8.665 6.832-15.197 6.825-20.404-.021-27.121-27.682-9.039-37.225 4.737-2.501 12.56-2.676 17.572-.393m-43.416 44.337c7.097 3.649 10.563 9.435 10.563 17.636 0 6.785-1.851 10.911-6.791 15.139-6.126 5.244-13.731 6.294-20.943 2.894-5.084-2.398-7.402-4.758-9.741-9.918-6.124-13.507 4.62-29.048 19.232-27.82 2.405.202 5.861 1.133 7.68 2.069m84.375-1.467c8.198 2.064 14.369 10.269 14.374 19.111.01 19.937-26.001 27.326-36.487 10.365-6.675-10.797-1.661-24.904 10.379-29.201 3.973-1.418 6.922-1.487 11.734-.275m-40.911 45.04c11.726 5.327 15.147 21.443 6.567 30.94-7.15 7.914-17.373 9.355-26.021 3.669-9.054-5.953-11.399-19.45-4.931-28.38 5.051-6.972 16.378-9.865 24.385-6.229" fill-rule="evenodd"/></svg>