<svg xmlns="http://www.w3.org/2000/svg" width="512" height="512"><path d="M112.965 34.067C76.604 43.881 56.388 81.85 68.724 117.16c4.332 12.398 14.338 25.368 24.501 31.759l4.052 2.548v209.066l-4.052 2.548c-6.073 3.819-14.849 13.005-18.835 19.714-18.756 31.57-8.325 70.814 23.743 89.33 10.177 5.876 25.919 8.932 38.196 7.415 13.768-1.7 25.702-7.275 36.112-16.87 13.1-12.073 20.392-28.691 20.406-46.502.008-10.195-1.909-18.175-6.813-28.356-4.633-9.619-11.893-18.278-20.016-23.872l-4.738-3.264v-46.791c0-25.735.204-46.792.454-46.792s3.418 2.069 7.04 4.598c38.891 27.148 94.302 44.708 151.353 47.963 9.132.521 10.009.72 10.795 2.444 1.593 3.496 9.475 12.245 14.551 16.151 17.578 13.526 39.584 17.19 60.316 10.045 9.187-3.167 15.287-6.836 22.652-13.624 13.158-12.127 20.4-28.696 20.4-46.67 0-18.084-7.162-34.469-20.4-46.67-7.383-6.805-13.433-10.436-22.885-13.739-6.32-2.208-9.059-2.666-17.716-2.964-13.01-.448-20.44 1.033-30.72 6.124-9.19 4.551-17.47 11.193-22.81 18.297-2.153 2.865-4.068 5.666-4.254 6.225-.461 1.382-21.74-.384-37.79-3.135-63.722-10.925-111.039-40.586-125.792-78.855-1.992-5.168-5.194-18.324-5.194-21.342 0-.34 2.111-2.071 4.692-3.849 9.401-6.475 17.993-17.439 22.43-28.625 6.096-15.37 5.82-34.145-.721-49.067-7.025-16.026-22.118-29.662-38.964-35.202-9.199-3.026-26.682-3.579-35.752-1.131m24.22 31.149c18.952 5.045 29 26.551 20.677 44.256-10.578 22.505-41.991 24.76-55.422 3.979-4.091-6.328-5.49-11.967-4.972-20.034 1.263-19.678 20.479-33.322 39.717-28.201m256 192c18.952 5.045 29 26.551 20.677 44.256-10.578 22.505-41.991 24.76-55.422 3.979-4.091-6.328-5.49-11.967-4.972-20.034 1.263-19.678 20.479-33.322 39.717-28.201m-256 128c18.952 5.045 29 26.551 20.677 44.256-10.578 22.505-41.991 24.76-55.422 3.979-4.091-6.328-5.49-11.967-4.972-20.034 1.263-19.678 20.479-33.322 39.717-28.201" fill-rule="evenodd"/></svg>