<svg xmlns="http://www.w3.org/2000/svg" width="512" height="512"><path d="M117.36 169.064c-20.46 1.568-39.543 5.906-52.411 11.914-6.403 2.989-7.861 3.342-13.812 3.342-7.795 0-10.45.84-14.254 4.509-8.64 8.335-4.681 23.25 7.001 26.374l3.802 1.017.446 5.17c.245 2.844.67 9.778.944 15.41.96 19.716 4.207 38.874 8.986 53.011 12.628 37.358 39.218 54.082 85.986 54.082 19.072 0 32.064-2.184 45.188-7.596 17.098-7.05 31.155-21.815 38.661-40.607 5.342-13.373 7.523-24.376 11.474-57.886.71-6.019 1.848-12.021 2.529-13.339 4.104-7.937 15.329-10.745 22.806-5.706 6.012 4.051 6.923 7.047 9.241 30.414 2.73 27.524 8.568 47.248 18.325 61.912 10.771 16.187 25.953 25.846 48.208 30.669 10.099 2.189 36.52 2.691 48.519.922 37.308-5.499 58.543-25.196 67.9-62.983 3.589-14.492 6.451-36.759 6.458-50.241.002-3.102.238-7.354.525-9.448.5-3.648.679-3.85 4.279-4.813 8.026-2.146 13.039-10.382 11.235-18.456-.985-4.41-2.431-6.595-6.343-9.578-2.818-2.15-4.029-2.447-11.751-2.889-7.567-.432-9.383-.863-15.009-3.558-16.763-8.033-45.034-12.594-78.08-12.598-38.445-.004-70.102 6.101-86.092 16.604l-5.678 3.729-4.888-1.823c-7.072-2.636-24.038-2.636-31.11 0l-4.888 1.823-5.678-3.729c-19.606-12.878-65.466-19.257-112.519-15.652" fill-rule="evenodd"/></svg>