<svg xmlns="http://www.w3.org/2000/svg" width="512" height="512"><path d="M249.6 17.426c-3.419 1.531-7.652 6.218-8.846 9.795-.706 2.117-.967 42.046-.967 147.778v144.878l-4.907.486c-25.428 2.517-43.575 6.165-63.787 12.823-59.066 19.458-101.239 57.606-117.321 106.124-5.071 15.299-6.498 23.083-5.402 29.456 1.888 10.974 7.812 19.192 17.15 23.789l5.697 2.805h369.566l5.697-2.805c9.338-4.597 15.262-12.815 17.15-23.789 1.095-6.366-.331-14.156-5.38-29.389-16.091-48.549-58.29-86.738-117.343-106.191-20.214-6.659-38.352-10.305-63.793-12.824l-4.912-.486.219-58.898.219-58.897 83.627-37.979c59.155-26.866 84.468-38.766 86.501-40.668 5.491-5.132 6.687-11.818 3.312-18.5-1.056-2.09-3.143-4.612-4.639-5.605-1.495-.993-42.971-20.1-92.168-42.46C253.6 13.385 256.268 14.441 249.6 17.426m19.984 303.115 2.705.541-.251 41.486c-.275 45.48-.082 43.764-5.508 48.898-3.007 2.844-6.245 4.107-10.53 4.107-4.285 0-7.523-1.263-10.53-4.107-5.426-5.135-5.232-3.412-5.508-48.948l-.251-41.536 1.958-.375c3.16-.605 24.964-.656 27.915-.066" fill-rule="evenodd"/></svg>