<svg xmlns="http://www.w3.org/2000/svg" width="512" height="512"><path d="M56.672 33.974c-9.222 3.207-16.549 9.535-20.793 17.956-4.17 8.277-4.275 10.321-4.284 83.323-.006 42.255.323 70.38.862 73.814 2.12 13.514 11.347 24.56 24.211 28.986 4.914 1.691 6.876 1.734 79.173 1.734 72.675 0 74.236-.035 79.368-1.764 11.052-3.723 19.093-11.768 22.82-22.83 1.776-5.274 1.791-6.053 1.562-80.606l-.231-75.28-2.003-4.964c-2.812-6.97-10.606-15.112-17.907-18.706l-5.653-2.784-76.392-.194c-71.166-.182-76.689-.092-80.733 1.315m240.532-.319c-9.145 2.882-19.038 11.961-22.572 20.715l-1.992 4.937-.227 75.041c-.202 66.779-.076 75.563 1.142 79.786 3.274 11.346 12.874 20.986 24.2 24.297 4.076 1.192 13.506 1.356 78.203 1.356 71.006 0 73.758-.059 78.992-1.695 6.384-1.995 9.068-3.668 14.601-9.101 5.012-4.922 8.834-12.542 9.992-19.924 1.188-7.568 1.175-138.464-.014-145.92-1.956-12.267-9.059-21.98-20.018-27.376l-5.927-2.918-76.392-.165c-61.484-.133-77.094.056-79.988.967M57.173 273.802c-12.999 4.209-22.577 15.497-24.716 29.131-.539 3.434-.868 31.559-.862 73.814.009 73.995.062 74.957 4.677 84.063 4.881 9.632 15.27 16.869 26.875 18.719 7.456 1.189 138.352 1.202 145.92.014 7.382-1.158 15.002-4.98 19.924-9.992 5.433-5.533 7.106-8.217 9.101-14.601 1.636-5.234 1.695-7.986 1.695-78.992 0-64.697-.164-74.127-1.356-78.203-2.811-9.615-10.027-17.773-19.824-22.415l-5.7-2.7-75.52-.179c-70.385-.167-75.839-.076-80.214 1.341m242.13-.662c-8.128 1.915-17.063 8.456-21.847 15.992-5.401 8.508-5.243 5.866-5.243 87.209 0 72.114.043 74.077 1.734 78.991 4.426 12.864 15.472 22.091 28.986 24.211 7.568 1.188 138.464 1.175 145.92-.014 16.259-2.593 28.083-14.417 30.676-30.676 1.189-7.456 1.202-138.352.014-145.92-2.164-13.792-11.814-25.046-25.006-29.164-4.668-1.458-9.617-1.55-78.506-1.47-40.439.047-74.966.426-76.728.841" fill-rule="evenodd"/></svg>