<svg xmlns="http://www.w3.org/2000/svg" width="512" height="512"><path d="M226.308 1.564c-6.024 2.15-10.102 5.6-13.311 11.257l-2.65 4.672-.427 107.52c-.344 86.624-.645 107.902-1.548 109.486-3.802 6.666-14.201 6.904-18.592.425-1.559-2.301-1.636-5.817-2.047-94.124l-.426-91.733-1.846-3.414c-6.492-12.009-22.572-16.879-35.085-10.626-5.841 2.918-9.813 6.968-12.473 12.716-1.785 3.86-1.799 4.481-2.223 102.482-.399 92.246-.523 98.745-1.928 100.889-3.674 5.605-11.523 6.336-16.339 1.52l-2.64-2.639-.426-67.611-.427-67.611-2.039-4.512c-2.525-5.587-8.17-10.702-13.921-12.612-5.421-1.8-15.949-1.354-20.307.861-4.093 2.08-9.158 7.04-11.379 11.143l-1.847 3.414v122.88c0 113.924.112 123.626 1.534 133.12 5.548 37.019 16.827 64.896 35.802 88.486 22.338 27.769 54.069 45.469 94.077 52.473 12.633 2.212 62.31 2.215 76.373.005 48.115-7.561 76.091-28.052 96.882-70.962 7.296-15.06 76.12-184.634 77.764-191.602 1.962-8.319 1.203-16.538-2.16-23.368-3.214-6.53-7.006-10.081-14.579-13.653-4.834-2.28-6.511-2.631-12.447-2.599-5.849.032-7.698.429-12.544 2.697-10.83 5.068-11.085 5.465-35.747 55.538-12.178 24.727-22.776 45.438-23.552 46.025-1.685 1.274-5.706 1.393-7.876.231-.859-.459-1.986-2.053-2.504-3.541-.671-1.925-.946-37.191-.952-122.258l-.008-119.552-2.021-4.267c-5.846-12.345-22.671-18.144-35.516-12.24-6.549 3.01-9.765 5.995-12.536 11.639l-2.39 4.868-.427 83.479-.427 83.479-3.187 2.921c-2.67 2.446-3.83 2.921-7.141 2.921-3.454 0-4.371-.418-7.265-3.313l-3.313-3.313V127.402c0-116.764.274-110.753-5.392-118.182-5.929-7.773-18.671-11.188-28.567-7.656" fill-rule="evenodd"/></svg>