<svg xmlns="http://www.w3.org/2000/svg" width="512" height="512"><path d="M235.947 32.121c-20.829 2.374-33.503 4.921-48.824 9.812-33.937 10.834-64.821 29.682-90.164 55.026-51.828 51.827-74.673 124.053-62.317 197.014 7.533 44.48 29.84 87.174 62.643 119.894 46.658 46.539 106.42 69.628 171.942 66.429 73.512-3.589 141.716-44.95 180.039-109.181 27.01-45.271 37.154-99.764 28.26-151.808-11.154-65.26-50.458-122.17-108.147-156.59-26.918-16.061-57.727-26.365-89.486-29.929-9.394-1.055-36.887-1.472-43.946-.667M192.175 209.54c9.144 3.115 15.564 12.437 15.502 22.508-.02 3.245-.628 6.984-1.444 8.881-6.709 15.595-26.031 19.902-38.205 8.515-5.846-5.468-7.902-10.807-7.414-19.247.351-6.066.693-7.123 3.726-11.533 6.2-9.012 17.394-12.682 27.835-9.124m146.562 1.35c8.48 4.237 12.661 11.187 12.763 21.217.184 18.031-18.992 29.49-34.879 20.843-11.241-6.119-15.603-19.824-9.971-31.334 4.238-8.663 11.574-13.206 21.534-13.335 4.202-.055 6.222.445 10.553 2.609m10.871 95.826c2.938 3.417 2.412 8.032-2.073 18.196-11.257 25.511-33.202 45.28-59.837 53.906-11.6 3.756-18.26 4.755-31.698 4.755-13.44 0-20.098-.999-31.705-4.758-27.634-8.949-49.82-29.475-60.879-56.327-1.627-3.95-2.965-8.536-2.974-10.191-.017-3.415 1.858-6.573 4.556-7.67 1.009-.411 42.302-.67 92.143-.579l90.314.165 2.153 2.503" fill-rule="evenodd"/></svg>