<svg xmlns="http://www.w3.org/2000/svg" width="512" height="512"><path d="M241.92 48.669c-64.561 4.115-123.152 38.433-159.962 93.693-26.292 39.469-38.649 92.321-32.455 138.811 6.326 47.479 26.376 88.354 59.673 121.651 33.526 33.526 73.443 53.027 122.504 59.846 4.224.587 15.168 1.068 24.32 1.068 9.152 0 20.096-.481 24.32-1.068 49.001-6.811 88.952-26.339 122.482-59.868 33.529-33.53 53.057-73.481 59.868-122.482 1.376-9.9 1.376-38.74 0-48.64-6.778-48.766-26.328-88.904-59.45-122.057-11.819-11.831-20.651-19.077-33.662-27.617-37.561-24.655-81.952-36.249-127.638-33.337m-75.093 113.395c4.262 1.998 182.508 180.199 183.851 183.805 1.358 3.645 1.07 10.05-.599 13.324-3.848 7.546-13.247 10.705-20.854 7.009-2.627-1.277-29.318-27.454-93.421-91.622-94.837-94.933-91.615-91.456-91.567-98.793.019-2.906 2.757-8.72 5.213-11.069 4.613-4.414 11.409-5.451 17.377-2.654m52.851 7.326c8.739 1.851 18.571 7.1 27.16 14.498 4.09 3.523 8.213 6.405 9.162 6.405.949 0 5.072-2.882 9.162-6.405 13.399-11.542 26.4-16.34 42.077-15.529 14.113.729 25.526 5.847 35.726 16.021 6.712 6.694 11.261 14.134 14.31 23.407 1.972 5.994 2.248 8.231 2.262 18.346.026 18.407-3.601 32.844-12.564 50.007-5.5 10.531-13.71 22.265-16.113 23.027-2 .635-1.114 1.487-75.927-73.026-35.535-35.394-52.693-53.053-52.693-54.234 0-.964.461-2.213 1.024-2.776 1.389-1.389 9.217-1.266 16.414.259m-.871 111.132c33.363 33.198 60.982 60.874 61.377 61.501 1.527 2.429-.449 4.986-7.883 10.202-15.457 10.848-17.498 10.728-35.427-2.07-26.111-18.64-47.622-38.438-60.094-55.31-11.514-15.575-19.72-33.28-22.65-48.87-1.907-10.142-2.614-21.809-1.453-23.978 2.559-4.782 2.122-5.169 66.13 58.525" fill-rule="evenodd"/></svg>