<svg xmlns="http://www.w3.org/2000/svg" width="512" height="512"><path d="M241.92 48.669c-64.561 4.115-123.152 38.433-159.962 93.693-26.292 39.469-38.649 92.321-32.455 138.811 6.326 47.479 26.376 88.354 59.673 121.651 33.526 33.526 73.443 53.027 122.504 59.846 4.224.587 15.168 1.068 24.32 1.068 9.152 0 20.096-.481 24.32-1.068 49.001-6.811 88.952-26.339 122.482-59.868 33.529-33.53 53.057-73.481 59.868-122.482 1.376-9.9 1.376-38.74 0-48.64-6.778-48.766-26.328-88.904-59.45-122.057-11.819-11.831-20.651-19.077-33.662-27.617-37.561-24.655-81.952-36.249-127.638-33.337M219.678 169.39c8.573 1.816 18.503 7.102 27.242 14.502 4.159 3.521 8.262 6.401 9.119 6.401.858 0 3.983-2.127 6.947-4.728 15.009-13.171 28.438-18.291 45.138-17.209 13.462.872 24.975 6.172 34.841 16.039 15.243 15.242 19.935 34.637 14.898 61.58-6.548 35.031-33.269 68.849-81.759 103.475-19.775 14.122-20.433 14.122-40.208 0-57.469-41.038-83.214-78.804-83.486-122.463-.075-12.012.909-17.128 5.008-26.027 11.124-24.155 36.507-37.026 62.26-31.57" fill-rule="evenodd"/></svg>