<svg xmlns="http://www.w3.org/2000/svg" width="512" height="512"><path d="M241.996 64.877c-29.302 3.356-50.392 13.155-69.684 32.375-16.518 16.457-27.103 35.819-31.153 56.988-1.687 8.818-1.51 12.765.794 17.713 6.357 13.65 23.472 16.062 33.214 4.681 2.984-3.486 3.859-5.952 5.715-16.119 1.926-10.549 9.593-24.742 18.036-33.388 13.028-13.343 26.238-19.79 45.501-22.207 11.311-1.419 29.423-.608 38.426 1.719 17.799 4.601 36.162 18.827 43.517 33.713 8.324 16.847 7.094 38.857-3.151 56.341-4.821 8.229-17.37 20.386-31.268 30.294-21.277 15.167-26.125 18.961-33.652 26.336-19.75 19.351-28.233 37.511-30.13 64.504-.436 6.206-.251 8.77.881 12.179 2.677 8.058 10.544 13.832 18.897 13.869 8.475.036 17.069-6.45 19.094-14.413.428-1.684 1.175-7.135 1.661-12.114 1.061-10.884 3.698-18.457 9.028-25.926 4.821-6.756 13.588-14.881 23.584-21.856 39.243-27.384 55.329-44.547 64.031-68.321 9.641-26.339 8.566-56.085-2.844-78.716-9.676-19.19-27.737-36.128-51.026-47.853-13.623-6.857-27.337-9.746-48.64-10.243-7.744-.181-17.118.019-20.831.444m.122 303.76c-6.197 1.096-11.651 4.111-16.913 9.349-6.447 6.419-8.808 12.358-8.834 22.227-.017 6.34.309 7.953 2.594 12.803 3.2 6.791 8.988 12.744 15.499 15.94 4.378 2.149 5.799 2.404 13.429 2.404 7.479 0 9.138-.283 13.428-2.294 6.247-2.928 12.456-9.138 15.641-15.645 2.227-4.547 2.498-5.981 2.501-13.208.003-7.149-.289-8.739-2.472-13.467-5.992-12.976-20.703-20.615-34.873-18.109" fill-rule="evenodd"/></svg>