<svg xmlns="http://www.w3.org/2000/svg" width="512" height="512"><path d="M241.493 64.526c-47.251 4.335-88.873 23.54-121.303 55.97-25.57 25.57-44.326 59.862-51.854 94.804-16.806 78.008 16.198 157.784 83.557 201.972 17.262 11.324 42.795 21.951 63.407 26.392 86.363 18.606 174.236-24.111 213.136-103.611 32.658-66.743 23.796-145.995-22.832-204.192-29.898-37.315-73.918-62.584-121.444-69.712-8.787-1.317-35.091-2.319-42.667-1.623m30.72 80.889c8.944 1.474 14.264 3.233 20.946 6.928 22.388 12.378 34.111 32.362 32.513 55.422-1.602 23.107-11.284 36.968-39.379 56.376-15.523 10.724-19.452 16.215-21.356 29.847-1.263 9.043-2.913 12.184-7.556 14.387-6.649 3.155-13.883.996-18.304-5.462-1.885-2.753-2-3.556-1.602-11.152.792-15.108 7.422-29.133 18.774-39.718 2.951-2.752 9.566-7.883 14.699-11.403 12.468-8.549 21.069-16.762 24-22.917 3.081-6.468 3.714-15.851 1.537-22.773-2.271-7.218-8.779-13.903-17.97-18.457-7.049-3.493-7.314-3.551-18.035-3.92-11.695-.402-19.405.798-25.677 3.998-5.709 2.912-11.742 8.302-15.366 13.729-3.37 5.047-4.035 6.696-6.17 15.302-1.821 7.341-9.423 12.102-16.345 10.238-4.476-1.205-8.959-5.381-10.191-9.494-2.736-9.133 4.482-27.213 15.827-39.64 11.099-12.158 24.557-18.988 43.202-21.924 5.159-.813 19.807-.462 26.453.633m-10.986 186.123c2.283 1.604 4.556 4.288 6.043 7.134 7.036 13.469-2.23 29.115-17.243 29.115-11.11 0-19.565-8.56-19.608-19.85-.031-8.169 4.254-14.973 11.501-18.262 1.627-.738 4.946-1.079 9.104-.935 5.701.197 7.017.558 10.203 2.798" fill-rule="evenodd"/></svg>