<svg xmlns="http://www.w3.org/2000/svg" width="512" height="512"><path d="M243.999 34.372c-2.611 1.101-5.541 2.558-6.512 3.237-3.494 2.448-215.786 205.867-218.233 209.113-4.978 6.603-3.613 17.132 2.834 21.855 5.176 3.792 10.543 4.475 15.931 2.028 2.334-1.06 35.383-32.061 101.547-95.252 53.948-51.525 101.398-96.889 105.444-100.81 6.881-6.669 7.592-7.13 10.99-7.13 3.396 0 4.113.464 10.99 7.112 16.624 16.071 198.823 189.824 202.1 192.732 6.48 5.748 14.167 6.256 20.773 1.371 6.384-4.719 7.777-15.395 2.866-21.953-1.369-1.827-19.097-19.17-39.396-38.539l-36.906-35.217-.005-54.673c-.003-37.362-.304-55.753-.95-58.086-1.321-4.768-3.717-7.829-7.864-10.046-3.463-1.852-4.258-1.901-30.861-1.901-15.019 0-28.356.294-29.638.653-2.63.736-7.874 5.062-9.435 7.784-.682 1.19-1.179 8.132-1.461 20.401l-.426 18.598-29.709-28.411c-35.305-33.764-35.951-34.222-48.798-34.609-7.391-.223-9.169.01-13.281 1.743m5.4 68.241C243.294 108.144 73.598 270.04 68.464 275.23l-4.495 4.546.229 88.184.229 88.184 2.799 5.685c3.127 6.351 8.958 12.198 14.996 15.036 7.197 3.383 12.375 3.657 64.193 3.39l49.561-.255 4.121-2.56c2.564-1.592 4.796-3.85 5.906-5.973 1.758-3.364 1.79-4.452 2.21-75.381l.427-71.968 2.394-2.059 2.395-2.059h85.142l2.395 2.059 2.394 2.059.427 71.968c.42 70.929.452 72.017 2.21 75.381 1.11 2.123 3.342 4.381 5.906 5.973l4.121 2.56 49.561.255c33.849.174 51.319-.048 55.104-.701 10.868-1.876 20.012-8.787 24.614-18.605l2.27-4.842.229-88.166.229-88.165-4.495-4.543c-5.742-5.801-176.556-168.774-181.373-173.046-4.925-4.369-7.569-4.28-12.764.426" fill-rule="evenodd"/></svg>