<svg xmlns="http://www.w3.org/2000/svg" width="512" height="512"><path d="M240.213 17.159c-14.64 2.11-34.092 10.283-46.215 19.418-21.142 15.931-34.993 38.144-40.281 64.599-.893 4.467-2.285 8.852-3.092 9.745-.831.918-4.095 2.22-7.519 2.999-15.831 3.6-27.422 10.115-39.426 22.158-15.928 15.982-23.511 34.132-23.437 56.099.085 25.155 10.329 47.281 28.938 62.506 6.884 5.632 17.996 11.612 25.475 13.711 9.307 2.611 9.058 1.85 9.583 29.273.421 21.996.584 23.926 2.372 28.19 4.069 9.699 12.029 18.209 20.878 22.322 21.959 10.206 47.388-1.27 54.874-24.766 1.241-3.896 1.556-8.93 1.856-29.642l.361-24.948 2.549-2.145c3.08-2.592 2.986-2.589 13.804-.352 18.752 3.878 36.938.261 51.286-10.198 5.991-4.368 8.776-4.175 15.834 1.099 6.843 5.113 17.425 10.192 26.212 12.581 5.109 1.389 9.202 1.816 17.735 1.849 13.744.053 22.611-1.97 34.987-7.982 22.77-11.061 38.208-31.064 43.541-56.415 1.655-7.867 1.607-23.03-.097-31.284-6.461-31.277-31.236-55.874-62.903-62.448-2.569-.533-5.325-1.692-6.124-2.576-.8-.884-2.343-5.761-3.429-10.839-4.528-21.168-12.716-36.983-26.752-51.675-15.996-16.742-38.097-28.231-60.234-31.31-7.601-1.057-23.335-1.041-30.776.031m51.2 275.687c-6.455 2.671-18.087 5.747-24.047 6.357-10.021 1.027-10.871 2.243-11.706 16.734-.571 9.926-2.496 17.396-6.872 26.676-8.117 17.211-19.797 28.225-38.17 35.992-7.668 3.242-10.938 6.009-10.938 9.256 0 1.758 37.456 89.984 41.835 98.539 5.466 10.679 18.505 12.738 26.074 4.117 3.627-4.131 77.16-175.642 77.159-179.968-.002-4.739-2.614-6.561-12.221-8.523-8.866-1.812-20.821-5.765-27.219-9.003-4.872-2.465-8.262-2.509-13.895-.177" fill-rule="evenodd"/></svg>