<svg xmlns="http://www.w3.org/2000/svg" width="512" height="512"><path d="M86.042 64.866c-29.146 4.971-50.202 27.296-53.584 56.811-1.188 10.375-1.188 258.271 0 268.646 3.059 26.696 20.008 47.027 46.049 55.233l6.4 2.017h342.186l6.4-2.017c26.041-8.206 42.99-28.537 46.049-55.233 1.188-10.375 1.188-258.271 0-268.646-3.059-26.702-20.234-47.266-46.186-55.301l-6.263-1.939-168.533-.126c-92.693-.068-170.326.181-172.518.555m264.74 65.627c6.33 1.974 14.113 6.746 19.046 11.679 18.697 18.698 18.579 49.171-.265 67.748-9.653 9.517-20.321 13.893-33.76 13.847-21.611-.073-40.641-14.799-46.072-35.652-1.646-6.317-1.663-18.156-.037-24.269 4.438-16.675 19.006-30.815 35.661-34.613 6.893-1.572 18.128-1.015 25.427 1.26m-145.021 91.941c10.359 3.574 13.592 6.314 49.386 41.862l34.56 34.323-58.878 58.904-58.878 58.904h-38.032c-23.791 0-39.915-.348-43.061-.93-12.739-2.355-22.355-11.153-25.535-23.365-1.096-4.205-1.316-11.17-1.284-40.525l.039-35.447 45.636-40.533c25.1-22.294 47.642-42.163 50.094-44.153 5.863-4.761 12.896-8.451 19.08-10.013 6.827-1.723 20.49-1.229 26.873.973m179.451 63.375c8.167 2.865 11.339 5.144 37.698 27.086L448 333.78v26.637c0 21.306-.265 27.654-1.323 31.715-3.18 12.212-12.796 21.01-25.535 23.365-5.866 1.084-202.689 1.347-202.689.271 0-.363 27.936-28.512 62.08-62.553 66.512-66.312 64.934-64.918 77.176-68.238 7.977-2.164 20-1.8 27.503.832" fill-rule="evenodd"/></svg>