<svg xmlns="http://www.w3.org/2000/svg" viewBox="0 0 512 512"><path d="M231.253 33.392c-16.355 1.665-38.573 7.009-54.742 13.167-20.215 7.699-44.67 21.825-62.003 35.814-22.439 18.11-43.36 43.753-56.938 69.791-15.058 28.874-23.154 58.252-25.123 91.16-5.222 87.26 42.038 170.597 119.717 211.106 79.252 41.329 174.746 31.925 244.36-24.066 76.574-61.59 103.962-166.627 67.269-257.991-28.024-69.778-90.412-121.426-164.273-135.994-5.867-1.158-14.861-2.52-19.988-3.028-10.737-1.065-37.645-1.042-48.279.041m52.907 32.827c47.218 6.798 91.389 32.13 121.453 69.653 17.352 21.658 30.302 47.786 36.701 74.048 3.965 16.274 5.189 27.143 5.189 46.08 0 31.858-5.472 55.912-19.119 84.053-28.614 59.002-85.177 98.995-150.879 106.68-5.955.697-13.23 1.267-16.166 1.267H256V336.527l-8.713-1.022c-10.967-1.287-23.181-5.4-32.412-10.914-7.503-4.483-19.962-16.013-24.377-22.562-4.857-7.205-9.693-17.886-11.874-26.225-3.099-11.855-3.099-27.754.001-39.612 7.44-28.457 29.314-50.335 57.467-57.477 4.499-1.141 9.379-2.079 10.844-2.084 1.465-.006 4.104-.248 5.864-.539l3.2-.529V63.757l9.6.586c5.28.323 13.632 1.167 18.56 1.876M256 256.094v80.32l6.613-.618c19.631-1.835 36.074-9.671 50.134-23.892 13.055-13.204 20.608-28.866 22.758-47.191 1.958-16.687-2.054-35.006-10.914-49.838-4.483-7.503-16.013-19.962-22.562-24.377-11.365-7.663-26.324-12.986-39.842-14.178l-6.187-.545v80.319" fill-rule="evenodd"/></svg>