<svg xmlns="http://www.w3.org/2000/svg" width="512" height="512"><path d="M130.133 33.679c-21.534 4.697-39.481 20.966-47.099 42.694L80.64 83.2v345.6l2.394 6.827c3.56 10.155 8.482 17.879 16.312 25.6 11.427 11.267 22.983 16.631 39.619 18.389 5.118.541 35.202.779 79.488.627l71.254-.243.215-223.787.215-223.786-77.442.068c-60.421.052-78.567.313-82.562 1.184M350.078 256.12l.215 223.88 7.254.26c16.242.582 31.882-2.713 42.652-8.985 7.417-4.32 18.52-15.409 22.876-22.848 1.924-3.286 4.575-9.046 5.891-12.8l2.394-6.827V83.2l-2.394-6.827c-3.45-9.84-8.491-17.852-15.882-25.244-7.434-7.434-15.483-12.479-25.244-15.822-6.228-2.133-8.192-2.37-22.402-2.703l-15.575-.365.215 223.881" fill-rule="evenodd"/></svg>