<svg xmlns="http://www.w3.org/2000/svg" width="512" height="512"><path d="M328.433 48.68c-20.89 1.861-40.48 8.765-58.353 20.565-8.62 5.692-25.96 22.954-31.589 31.448-8.483 12.799-15.656 30.021-18.304 43.947-2.815 14.796-2.596 42.314.431 54.363l1.438 5.724-16.929 19.876C128.122 315.016 69.629 382.929 57.328 396.207c-5.736 6.191-7.21 8.368-8.378 12.373-1.175 4.027-1.253 5.647-.458 9.453 1.706 8.172 4.167 11.978 14.141 21.87 14.546 14.426 29.753 25.166 33.81 23.879 2.418-.768 27.391-26.908 28.701-30.043 1.442-3.452 1.421-10.429-.061-20.197-1.662-10.945.596-17.091 7.415-20.186 4.601-2.089 7.514-2.076 18.542.084 13.935 2.728 19.121 1.292 28.763-7.967 5.783-5.553 8.784-10.678 8.784-15.001 0-1.512-1.293-6.097-2.873-10.189-1.581-4.092-3.147-8.684-3.481-10.205-1.199-5.461 2.398-11.387 7.863-12.955 3.481-.998 7.849.049 17.619 4.223 4.377 1.87 9.099 3.401 10.492 3.401 6.927 0 20.512-10.801 24.269-19.295 1.819-4.111 1.626-4.898-4.343-17.684-5.872-12.58-5.544-16.822 1.785-23.096 4.611-3.947 6.729-3.953 21.775-.063 13.679 3.537 14.001 3.491 24.172-3.434 4.273-2.91 6.993-4.249 7.768-3.823 3.478 1.909 17.656 5.963 25.353 7.25 11.044 1.846 36.209 1.373 46.241-.869 26.079-5.83 46.009-16.515 63.607-34.104 17.665-17.655 27.754-36.156 32.967-60.455 2.649-12.344 2.616-32.289-.072-44.96-7.492-35.307-29.844-64.434-62.538-81.493-16.054-8.377-30.029-12.419-48.63-14.065-10.562-.935-11.375-.934-22.128.024m52.686 66.493c7.347 3.369 11.728 7.657 15.385 15.056 2.817 5.699 3.109 6.952 3.11 13.337.001 8.111-1.859 13.911-6.326 19.73-6.742 8.782-15.718 12.888-26.913 12.311-12.38-.639-22.107-7.214-27.508-18.594-1.948-4.106-2.223-5.761-2.199-13.226.027-7.855.24-8.941 2.684-13.654 8.199-15.812 26.004-22.189 41.767-14.96" fill-rule="evenodd"/></svg>