<svg xmlns="http://www.w3.org/2000/svg" width="512" height="512"><path d="M70.4 81.075c-16.912 3.4-31.084 16.479-36.516 33.698L32 120.747v127.146c0 120.934.077 127.395 1.566 132.222 1.951 6.322 5.727 13.88 8.698 17.411l2.261 2.687h-16.02c-14.58 0-16.355.163-19.759 1.81C3.204 404.706.427 409.372.427 416s2.777 11.294 8.319 13.977l3.74 1.81h487.028l3.74-1.81c5.542-2.683 8.319-7.349 8.319-13.977s-2.777-11.294-8.319-13.977c-3.404-1.647-5.179-1.81-19.759-1.81h-16.02l2.261-2.687c2.971-3.531 6.747-11.089 8.698-17.411 1.489-4.827 1.566-11.288 1.566-132.222V120.747l-1.884-5.974c-4.702-14.906-15.349-26.212-30.103-31.965l-5.56-2.168-184.32-.126c-101.376-.069-185.856.184-187.733.561" fill-rule="evenodd"/></svg>