<svg xmlns="http://www.w3.org/2000/svg" width="512" height="512"><path d="M246.117 34.462c-5.733 2.67-10.163 7.373-12.284 13.04-1.54 4.118-1.726 6.632-1.726 23.34v18.725l-1.92.412c-1.056.227-5.184 1.042-9.174 1.813-16.329 3.152-38 11.856-53.521 21.496-26.153 16.243-47.86 39.972-61.465 67.192-7.207 14.421-13.573 33.71-15.981 48.427l-.523 3.2H70.82c-21.37 0-25.055.782-31.072 6.598-12.62 12.199-8.455 33.397 7.754 39.462 4.118 1.54 6.632 1.726 23.318 1.726h18.703l.519 3.2c.286 1.76 1.632 7.687 2.991 13.172 15.032 60.661 62.041 107.67 122.702 122.702 5.485 1.359 11.412 2.705 13.172 2.991l3.2.519v18.703c0 21.321.824 25.226 6.576 31.149 12.178 12.539 33.44 8.322 39.484-7.831 1.54-4.118 1.726-6.632 1.726-23.318v-18.703l3.2-.519c1.76-.286 7.687-1.632 13.172-2.991 60.661-15.032 107.67-62.041 122.702-122.702 1.359-5.485 2.705-11.412 2.991-13.172l.519-3.2h18.703c16.686 0 19.2-.186 23.318-1.726 16.209-6.065 20.374-27.263 7.754-39.462-6.017-5.816-9.702-6.598-31.072-6.598h-18.703l-.519-3.2c-1.17-7.203-5.658-23.667-8.591-31.518-15.315-40.992-45.382-73.779-85.26-92.976-10.848-5.222-26.684-10.606-37.12-12.621-3.99-.771-8.118-1.586-9.174-1.813l-1.92-.412V70.842c0-16.708-.186-19.222-1.726-23.34-3.436-9.181-12.087-15.059-22.167-15.059-4.042 0-6.723.548-9.883 2.019m34.63 104.167c47.206 10.573 82.702 46.348 92.747 93.478 1.192 5.59 1.546 11.068 1.546 23.893 0 18.356-.957 24.872-5.704 38.827-6.241 18.345-16.656 34.458-31.249 48.343-13.56 12.903-30.988 22.869-48.807 27.912-12.786 3.618-20.171 4.65-33.28 4.65-13.109 0-20.494-1.032-33.28-4.65-17.819-5.043-35.247-15.009-48.807-27.912-18.283-17.396-30.148-38.6-35.407-63.277-2.195-10.297-2.195-37.489 0-47.786 7.783-36.518 31.115-66.827 64.238-83.444 8.474-4.251 20.078-8.225 28.936-9.909 3.755-.714 7.595-1.48 8.533-1.704 4.143-.987 34.325.189 40.534 1.579" fill-rule="evenodd"/></svg>