<svg xmlns="http://www.w3.org/2000/svg" width="512" height="512"><path d="M239.611 17.495c-28.996 4.878-55.733 24.564-68.942 50.76-4.047 8.027-6.774 15.599-8.763 24.332-1.618 7.101-1.776 11.129-2.105 53.436l-.356 45.756-13.376.471c-14.783.521-20.148 1.636-29.614 6.156-15.948 7.615-27.822 21.397-33.811 39.247l-2.004 5.974-.243 97.706c-.273 110.051-.586 104.103 6.219 118.187 6.699 13.863 16.014 23.176 29.864 29.858 14.124 6.813 5.314 6.409 139.52 6.409 134.206 0 125.396.404 139.52-6.409 13.85-6.682 23.165-15.995 29.864-29.858 6.805-14.084 6.492-8.136 6.219-118.187l-.243-97.706-2.004-5.974c-7.283-21.705-23.197-37.161-44.929-43.637-4.757-1.417-11.773-1.545-98.815-1.796l-93.695-.27.288-45.415c.326-51.237.131-49.502 7.128-63.515 8.218-16.457 24.027-28.968 41.964-33.211 7.479-1.768 21.927-1.768 29.406 0 20.798 4.919 38.096 20.538 45.58 41.156 1.699 4.681 2.384 8.564 4.274 24.227.376 3.116 1.205 4.574 4.441 7.81 3.246 3.246 4.74 4.093 8.109 4.598 8.7 1.305 16.571-3.936 18.347-12.216 1.59-7.412-.907-24.524-5.269-36.113-10.39-27.603-31.436-48.273-58.932-57.879-14.136-4.939-32.515-6.442-47.642-3.897" fill-rule="evenodd"/></svg>