<svg xmlns="http://www.w3.org/2000/svg" width="512" height="512"><path d="m63.75 72.757-16.036 40.31.249 151.466.25 151.467 48 .22 48 .221v63.986h63.582l31.992-32 31.991-32h80.192l56.122-56.098 56.121-56.098V32.427L272 32.437l-192.213.01-16.037 40.31m351.823 111.792v104.335l-31.813 31.771-31.813 31.772H255.582l-31.791 31.782L192 415.991v-63.547l-39.893-.222-39.894-.222-.216-135.893-.216-135.894h303.792v104.336m-207.36 23.238v64.426H256V143.36h-47.787v64.427m111.787 0v64.426h47.787V143.36H320v64.427" fill-rule="evenodd"/></svg>