<svg xmlns="http://www.w3.org/2000/svg" width="512" height="512"><path d="M29.013 112.349c-4.735.857-7.519 2.163-9.886 4.64-2.433 2.546-2.485 2.79-2.374 11.287.093 7.119.655 10.607 3.12 19.355 12.569 44.62 40.607 100.057 76.8 151.856 12.039 17.229 20.712 27.793 32.607 39.715 18.387 18.43 36.757 31.812 58.027 42.272 23.483 11.549 43.581 16.831 67.086 17.632 21.465.732 33.739-1.654 38.671-7.515 3.398-4.038 3.896-9.156 3.896-40.042 0-32.544.31-34.658 5.395-36.804 4.777-2.017 13.343-1.295 19.645 1.654 14.772 6.913 34.003 23.278 56.215 47.84 20.849 23.053 27.864 29.841 33.926 32.825l5.53 2.723h32.871c34.911 0 36.299-.143 40.846-4.192 4.626-4.12 5.693-11.529 2.846-19.766-5.349-15.473-30.714-47.907-63.682-81.429-19.985-20.321-23.128-25.527-19.936-33.027.558-1.312 7.41-12.178 15.226-24.146 35.362-54.146 51.084-81.615 57.251-100.023 4.158-12.408 3.461-18.47-2.553-22.21-3.055-1.9-3.566-1.931-35.389-2.179-37.849-.296-39.123-.115-45.682 6.489-2.892 2.911-4.993 6.329-7.705 12.536-19.319 44.216-47.588 89.329-68.363 109.099-8.132 7.739-13.264 10.794-18.134 10.794-2.568 0-3.511-.538-5.49-3.132l-2.39-3.133-.427-61.081c-.47-67.332-.245-64.663-5.848-69.378-1.81-1.522-4.112-2.418-7.157-2.784-2.468-.298-23.496-.422-46.728-.276-38.753.242-42.472.391-45.051 1.799-5.201 2.84-7.548 9.608-5.343 15.408.443 1.166 3.164 5.301 6.046 9.188 6.431 8.673 8.775 13.212 11.27 21.819 1.908 6.584 1.931 7.26 1.931 56.584 0 46.045-.117 50.133-1.502 52.668-9.108 16.661-37.412-13.792-66.796-71.868-10.523-20.798-17.547-36.99-25.623-59.068-6.231-17.034-8.88-21.42-14.649-24.261-4.03-1.985-4.375-2.006-35.217-2.13-17.13-.069-32.106.049-33.28.261" fill-rule="evenodd"/></svg>