<svg xmlns="http://www.w3.org/2000/svg" width="512" height="512"><path d="M16.213 48.298c0 .873 239.284 415.062 239.788 415.062.501 0 239.786-414.202 239.786-415.07 0-.285-19.485-.419-43.3-.298l-43.3.221-76.38 132.442C290.798 253.498 256.235 313.097 256 313.098c-.235.001-34.798-59.597-76.807-132.441l-76.38-132.444-43.3-.221c-23.815-.121-43.3.016-43.3.306m107.338 3.96c26.232 46.169 131.87 228.062 132.451 228.062.44 0 30.945-52.224 67.79-116.053l66.99-116.054-39.444-.223c-33.705-.192-39.577-.044-40.356 1.017-.501.682-12.981 22.186-27.733 47.786S256.235 143.338 256 143.337c-.235-.001-12.764-21.404-27.844-47.563l-27.417-47.561-39.869-.221-39.869-.222 2.55 4.488" fill-rule="evenodd"/></svg>