<svg xmlns="http://www.w3.org/2000/svg" width="512" height="512"><path d="M344.394 42.737c-20.897 2.854-51.154 19.273-75.676 41.067-3.852 3.422-8.282 7.302-9.847 8.62l-2.844 2.398-7.053-6.258c-25.448-22.578-50.478-37.557-72.74-43.53-9.971-2.676-26.95-2.683-34.091-.014-16.793 6.276-27.183 21.905-31.653 47.615-1.953 11.238-1.986 33.803-.069 48.165 1.245 9.322 4.662 27.725 6.113 32.922.45 1.611-.435 2.073-9.592 5.004-49.259 15.765-81.796 39.957-89.47 66.523-2.07 7.165-1.43 17.937 1.49 25.069 6.538 15.973 20.281 30.339 41.198 43.065 13.572 8.258 23.753 12.911 43.52 19.892 7.04 2.486 12.71 4.915 12.599 5.398-8.961 39.204-9.753 72.515-2.268 95.444 7.894 24.183 22.648 35.661 45.562 35.447 25.187-.235 55.393-15.146 87.963-43.422l9.448-8.203 2.281 2.091c28.806 26.397 53.296 41.558 76.84 47.569 29.477 7.526 50.66-3.231 60.842-30.897 4.404-11.968 5.885-20.796 6.406-38.195.528-17.625-.75-32.078-4.414-49.92-1.157-5.632-2.112-10.689-2.121-11.237-.01-.549 2.574-1.848 5.742-2.887 44.143-14.477 76.672-36.185 88.077-58.778 5.714-11.319 6.675-23.737 2.657-34.316-9.23-24.299-41.166-46.865-88.452-62.499l-9.451-3.125 2.313-11.286c9.768-47.666 5.19-89.035-11.984-108.304-9.942-11.154-24.141-15.765-41.326-13.418m19.728 22.235c17.672 8.39 23.246 50.175 13.006 97.508-.904 4.18-1.788 7.745-1.965 7.921-.176.176-3.732-.433-7.902-1.353-10.606-2.342-32.002-5.789-44.985-7.247-6.022-.677-11.046-1.359-11.164-1.516-.118-.157-4.201-5.653-9.073-12.213-7.802-10.505-19.182-24.512-28.44-35.005l-3.012-3.414 4.013-3.647c36.954-33.589 71.679-49.506 89.522-41.034m-193.882-.174c16.597 3.985 37.177 15.692 58.245 33.134 4.573 3.786 9.427 8.051 10.786 9.479l2.47 2.595-5.933 6.65c-9.291 10.414-17.288 20.218-26.307 32.251-4.573 6.101-8.942 11.326-9.708 11.61-.766.285-4.465.779-8.22 1.099-8.827.752-32.271 4.371-44.799 6.916-5.397 1.096-9.869 1.929-9.936 1.851-.324-.377-4.589-22.333-5.581-28.73-.683-4.407-1.115-14.618-1.101-26.026.02-16.476.253-19.687 1.903-26.234 3.695-14.665 9.473-22.851 17.926-25.397 4.129-1.243 13.241-.882 20.255.802m101.547 77.767c3.754 4.556 8.029 9.958 9.499 12.006l2.674 3.722h-55.925l2.634-3.413c5.728-7.423 13.98-17.39 19.632-23.714l5.942-6.648 4.358 4.882c2.398 2.686 7.431 8.61 11.186 13.165m22.186 37.37 5.974.545 4.516 6.827c4.224 6.385 17.32 27.94 22.812 37.546 1.342 2.347 5.572 10.298 9.402 17.669l6.962 13.402-7.077 13.679c-8.772 16.957-18.726 34.32-28.739 50.127l-7.666 12.104-5.652.696c-7.109.876-74.504.866-78.83-.012-2.831-.575-3.784-1.515-8.182-8.078-11.025-16.45-27.125-44.38-35.689-61.909l-3.271-6.696 7.585-14.61c9.084-17.499 19.526-35.485 29.198-50.292 6.967-10.666 7.17-10.882 10.335-10.987 1.776-.059 8.797-.402 15.602-.762 12.81-.679 52.236-.206 62.72.751m-109.296 5.025c-4.268 6.481-14.107 23.151-19.741 33.446-3.481 6.362-6.607 11.852-6.947 12.199-.339.347-2.101-3.109-3.914-7.68-4.743-11.955-11.683-31.948-11.244-32.387.628-.628 19.908-4.347 31.676-6.11 6.101-.915 11.233-1.697 11.404-1.739.172-.041-.384.98-1.234 2.271m161.08 1.014c18.101 3.07 23.736 4.276 23.736 5.076 0 2.157-14.133 40.203-14.935 40.203-.161 0-2.891-4.704-6.066-10.453s-9.202-16.213-13.393-23.253c-4.191-7.04-7.79-13.088-7.997-13.44-.659-1.121 3.501-.704 18.655 1.867m-219.158 21.605c4.282 12.553 12.09 32.556 16.662 42.687l2.611 5.787-4.731 10.848c-5.524 12.665-14.861 37.501-17.026 45.285-1.793 6.452-.767 6.42-17.134.536-29.491-10.601-54.269-26.569-64.419-41.516-6.862-10.105-7.58-16.677-2.853-26.125 8.489-16.969 34.915-33.96 72.078-46.347 5.397-1.798 10.005-3.279 10.24-3.29.234-.011 2.292 5.45 4.572 12.135m277.177-7.369c42.148 14.615 71.527 37.259 71.53 55.133.002 14.923-17.484 32.188-47.359 46.759-11.15 5.438-31.567 13.41-35.496 13.86-1.505.172-2.384-1.597-6.684-13.455-5.378-14.828-10.83-28.298-16.061-39.68l-3.334-7.254 2.933-6.4c4.671-10.194 12.579-30.265 16.568-42.05 2.748-8.117 4.034-10.854 5.103-10.855.786-.001 6.546 1.773 12.8 3.942m-157.349 13.538c-11.454 2.911-22.964 11.659-28.167 21.409-6.541 12.258-6.545 28.527-.011 40.832 3.156 5.944 12.377 14.904 18.284 17.766 17.17 8.32 35.208 5.653 48.996-7.245 15.181-14.201 17.951-37.918 6.39-54.714-2.901-4.214-9.54-10.525-13.859-13.173-8.362-5.126-22.231-7.264-31.633-4.875m115.747 84.309c6.883 17.652 8.54 22.785 7.627 23.626-1.182 1.088-37.906 7.704-42.767 7.704-.469 0 2.7-5.92 7.043-13.156 4.344-7.235 10.726-18.356 14.183-24.714 7.37-13.551 5.792-14.293 13.914 6.54m-196.578-3.23c3.878 7.04 10.062 17.717 13.741 23.728 3.679 6.011 6.69 11.038 6.69 11.173 0 .953-41.771-6.046-43.001-7.205-.439-.414.582-4.617 2.416-9.94 5.194-15.081 11.929-31.823 12.537-31.168.312.337 3.739 6.372 7.617 13.412m212.533 54.613c9.145 42.095 5.219 81.33-9.466 94.597-4.491 4.058-11.354 6.056-18.34 5.34-20.545-2.105-46.601-16.784-74.238-41.822l-5.088-4.61 5.582-6.272c7.644-8.59 21.454-26.045 28.774-36.368l6.064-8.553 6.212-.575c10.835-1.003 34.869-4.618 45.038-6.775 14.16-3.003 13.681-3.159 15.462 5.038m-229.989-4.675c10.643 2.189 35.097 5.662 45.271 6.428l7.81.588 5.344 7.363c7.492 10.321 19.783 25.577 28.439 35.3 4.039 4.536 7.343 8.432 7.343 8.659 0 .908-19.707 17.301-27.307 22.716-15.642 11.145-33.137 19.659-45.605 22.193-7.27 1.478-16.484 1.305-20.542-.384-7.68-3.197-14.281-13.12-17.151-25.779-1.84-8.117-2.512-32.924-1.217-44.912 1.01-9.347 3.558-24.282 5.237-30.697.995-3.804 1.037-3.809 12.378-1.475m136.02 9.292c-.001 1.566-26.022 33.356-27.302 33.356-1.341 0-28.166-31.654-28.164-33.234 0-.26 12.48-.472 27.734-.472 15.253 0 27.732.157 27.732.35" fill-rule="evenodd"/></svg>