<svg xmlns="http://www.w3.org/2000/svg" width="512" height="512"><path d="M221.867 33.325c-42.048 4.002-64.585 13.092-72.519 29.248-4.421 9.004-5.103 14.514-5.12 41.32L144.213 128H256v16.213l-77.44.013c-64.551.01-78.311.218-82.674 1.247-49.755 11.733-78.05 90.942-56.553 158.314 3.701 11.6 11.7 27.379 18.285 36.071 10.124 13.365 24.543 23.473 37.955 26.607 3.699.865 10.004 1.301 18.924 1.309l13.378.013.34-32.64c.38-36.483.558-37.836 6.649-50.627 8.395-17.629 23.464-30.034 43.16-35.53 6.604-1.843 7.963-1.884 77.123-2.356l70.4-.481 6.259-2.269c9.059-3.286 14.865-7.1 21.641-14.218 6.445-6.769 10.692-14.445 13.033-23.552 1.932-7.52 1.928-117.612-.005-125.813-2.156-9.143-6.676-16.711-14.883-24.913-12.683-12.676-25.78-17.925-52.072-20.869-14.475-1.62-65.008-2.397-77.653-1.194m-16.404 34.656c10.398 6.429 12.698 20.792 4.804 30.014-6.676 7.8-16.414 9.639-25.094 4.74-6.515-3.678-9.657-8.81-10.091-16.481-.512-9.068 3.29-15.587 11.336-19.435 5.91-2.827 13.324-2.375 19.045 1.162m180.891 106.654c-.404 34.808-.804 37.478-7.776 51.925-9.761 20.224-26.767 33.498-48.2 37.622-5.055.973-18.89 1.205-71.818 1.205-54.618 0-66.669.212-72.221 1.275-6.664 1.275-17.195 5.68-21.496 8.992-5.845 4.501-12.231 11.725-14.951 16.914-5.769 11.004-5.679 9.837-5.679 73.759 0 55.046.075 57.843 1.694 63.085 7.489 24.244 39.625 42.405 86.626 48.954 12.099 1.686 36.44 1.901 47.787.423 37.945-4.943 65.36-16.538 77.839-32.922 8.459-11.107 9.605-16.062 9.618-41.6l.01-20.267H256v-16.213l77.44-.013c85.731-.014 82.717.164 94.68-5.59 14.081-6.772 27.673-21.161 36.409-38.539 10.282-20.454 15.273-42.457 15.247-67.218-.015-15.214-.975-23.876-4.112-37.12-8.634-36.451-28.689-63.166-54.32-72.361-5.517-1.979-7.757-2.26-20.416-2.562l-14.219-.34-.355 30.591m-60.795 231.598c9.982 5.146 14.022 17.314 9.011 27.136-7.738 15.169-28.883 14.862-36.43-.527-2.472-5.041-2.105-13.406.805-18.373 2.372-4.047 6.232-7.541 9.987-9.04 3.883-1.549 12.909-1.113 16.627.804" fill-rule="evenodd"/></svg>