<svg xmlns="http://www.w3.org/2000/svg" width="512" height="512"><path d="M64.016 33.067c.126 5.098 34.912 401.505 35.264 401.858.752.751 154.338 44.59 156.293 44.611 1.837.02 156.355-43.819 157.11-44.575.25-.249 8.085-88.521 17.413-196.16s17.203-198.108 17.5-201.041l.54-5.333H256.068c-105.637 0-192.061.288-192.052.64m311.845 84.906c-.487 4.142-3.808 43.227-3.808 44.819 0 .822-19.886 1.048-92.189 1.048h-92.189l.464 4.053c.256 2.23 1.038 11.734 1.738 21.12.7 9.387 1.492 19.083 1.759 21.547l.487 4.48h87.832c83.092 0 87.83.081 87.802 1.493-.081 4.054-13.377 149.575-13.689 149.824-.199.159-22.342 6.552-49.208 14.206l-48.847 13.917-48.86-13.837c-26.873-7.61-49.096-14.096-49.386-14.413-.483-.53-6.788-70.657-6.746-75.03l.019-1.92h23.893c18.539 0 23.896.239 23.906 1.067.031 2.567 3.357 37.574 3.594 37.81.144.144 12.257 3.565 26.917 7.603l26.655 7.34 26.238-7.335c14.43-4.034 26.487-7.599 26.792-7.923.437-.463 5.845-58.079 5.845-62.267 0-.8-18.798-1.082-83.401-1.251l-83.401-.217-6.15-72.534c-3.382-39.893-6.172-73.589-6.199-74.88l-.049-2.346h240.607l-.426 3.626" fill-rule="evenodd"/></svg>