<svg xmlns="http://www.w3.org/2000/svg" width="512" height="512"><path d="M47.787 91.172v43.386l14.72.535c105.779 3.845 202.301 57.338 259.597 143.87 33.985 51.326 51.937 107.671 54.74 171.81l.587 13.44h86.782l-.007-4.906c-.016-9.92-1.742-33.451-3.46-47.147C436.956 222.454 285.447 72.545 95.573 50.842c-9.171-1.048-38.93-3.007-46.293-3.047-1.403-.008-1.493 2.623-1.493 43.377m0 138.584v43.142l10.026.57c33.577 1.906 59.535 8.144 83.759 20.128 35.669 17.645 60.788 43.087 77.806 78.809 10.672 22.401 17.275 49.018 18.329 73.888.249 5.867.65 12.299.892 14.294l.439 3.626h86.082v-8.016c0-15.458-3.216-39.182-7.821-57.69-29.571-118.862-135.551-206.04-256.926-211.343l-12.586-.55v43.142M96 344.292c-22.644 4.939-40.015 21.939-45.753 44.775-2.552 10.154-2.002 23.12 1.41 33.249 6.096 18.099 21.933 33.19 40.93 39.002 8.018 2.454 25.386 2.256 33.28-.378 10.746-3.586 17.359-7.641 25.244-15.478 6.085-6.047 8.002-8.652 11.327-15.384 5.24-10.613 6.823-18.181 6.25-29.865-.777-15.823-6.124-27.751-17.626-39.324-6.048-6.086-8.651-8.002-15.384-11.326-4.458-2.2-10.793-4.561-14.078-5.247-7.279-1.519-18.696-1.529-25.6-.024" fill-rule="evenodd"/></svg>