<svg data-name="Layer 1" xmlns="http://www.w3.org/2000/svg" viewBox="0 0 512 512"><path d="M302.08 144.605c-.704.169-4.16.769-7.68 1.332-8.346 1.337-21.369 5.494-24.212 7.73l-2.241 1.764v208.167l2.094 2.094 2.095 2.095h92.489c89.441 0 92.711-.056 99.238-1.695 33.527-8.419 54.363-42.53 46.397-75.959-5.554-23.303-24.831-42.589-47.327-47.347-11.133-2.354-26.829-1.255-36.444 2.552-1.079.427-1.56.059-1.851-1.42-.216-1.099-.992-5.291-1.724-9.315-3.766-20.688-13.608-39.874-28.462-55.483-15.92-16.729-34.384-27.332-56.532-32.464-6.661-1.544-31.941-2.99-35.84-2.051m-51.745 16.133c-2.905 2.499-2.542-4.682-4.145 82.035-1.205 65.216-1.191 70.585.255 95.044l1.533 25.924 2.352 2.023c1.294 1.112 3.205 2.023 4.248 2.023 2.191 0 5.332-1.998 6.441-4.097.421-.798 1.456-13.755 2.3-28.795 1.476-26.301 1.476-30.066.011-98.51-.837-39.14-1.845-72.011-2.239-73.048-.908-2.388-4.053-4.617-6.513-4.617-1.043 0-2.952.908-4.243 2.018m-21.503 12.35c-2.233 2.233-2.461 7.297-3.617 80.352-.8 50.52-.747 63.098.355 84.898l1.293 25.59 2.243 1.93c2.866 2.465 5.965 2.455 8.449-.028 2.301-2.302 2.488-4.068 4.033-38.15.846-18.657.779-33.886-.381-87.04-1.314-60.184-1.511-64.567-2.991-66.56-2.102-2.829-7.027-3.349-9.384-.992m-63.191 14.551c-1.919 1.919-2.055 4.47-3.956 74.391-1.22 44.83-1.203 47.588.442 74.079.94 15.133 2.105 28.255 2.589 29.159 1.236 2.311 4.681 2.987 7.109 1.397 2.383-1.561 2.386-1.583 4.508-34.935 1.471-23.11 1.464-25.125-.314-83.188-1.809-59.043-1.837-59.516-3.682-61.01-2.403-1.946-4.68-1.909-6.696.107m20.774 3.042c-1.702 1.702-2.092 2.942-2.081 6.614.008 2.485-.623 28.134-1.402 56.998-1.336 49.537-1.332 54.06.071 80.64 1.092 20.681 1.808 28.667 2.693 30.067 2.779 4.394 9.225 2.771 10.091-2.54.249-1.529 1.145-14.492 1.992-28.807 1.472-24.894 1.475-28.087.079-73.386-.804-26.048-1.49-51.89-1.526-57.426-.062-9.506-.182-10.182-2.16-12.16-1.152-1.152-2.897-2.094-3.879-2.094-.981 0-2.726.942-3.878 2.094m-41.4 1.189-1.947 1.577-1.73 57.411c-1.674 55.522-1.682 58.228-.247 82.263 1.867 31.279 1.945 31.854 4.541 33.555 2.587 1.695 5.983.43 6.68-2.487.257-1.072 1.332-14.045 2.389-28.829l1.923-26.88-1.876-52.907c-1.031-29.098-1.904-54.922-1.938-57.386-.096-6.84-3.621-9.696-7.795-6.317m62.47 2.565c-1.925 1.925-2.211 7.454-3.657 70.705-.767 33.557-.764 48.51.011 64.426 1.581 32.446 1.75 33.967 4.033 36.251 2.483 2.482 4.757 2.497 7.583.05l2.218-1.92 1.606-27.734c1.567-27.043 1.568-29.116.052-83.304-.979-35.022-1.894-56.205-2.472-57.286-1.683-3.144-6.773-3.789-9.374-1.188m-83.264 6.586c-.738.737-1.374 1.409-1.414 1.493-.04.084-.963 23.961-2.05 53.059l-1.977 52.907 1.973 28.542c1.728 24.99 2.162 28.68 3.493 29.653 2.088 1.527 4.091 1.392 5.681-.382 1.051-1.172 1.81-7.555 3.531-29.674l2.193-28.18-2.116-50.753c-1.163-27.914-2.117-51.617-2.118-52.673-.004-2.151-2.77-5.333-4.636-5.333-.671 0-1.823.603-2.56 1.341m-20.085 19.797c-1.782 1.443-1.896 2.75-3.897 44.622l-2.062 43.135 2.072 28.112c1.962 26.612 2.173 28.194 3.941 29.629 1.635 1.327 2.093 1.367 3.666.323 2.242-1.487 2.351-2.257 4.816-33.839l1.965-25.173-2.29-42.555c-1.26-23.404-2.499-42.89-2.753-43.302-1.233-1.994-3.65-2.416-5.458-.952m-40.988 29.634c-.684.824-1.871 11.441-3.339 29.854l-2.278 28.576 2.315 27.719c1.273 15.246 2.559 28.115 2.858 28.599.751 1.216 3.463 1.104 4.522-.187.481-.586 2.054-13.523 3.497-28.747l2.622-27.681-2.622-28.639c-1.442-15.752-3.016-29.119-3.497-29.706-1.173-1.43-2.785-1.346-4.078.212M42.71 252.8c-.426 1.056-1.791 14.016-3.033 28.8l-2.258 26.88 2.394 26.802c2.41 26.985 2.959 29.652 5.872 28.534 1.71-.656 1.712-.664 4.661-29.623l2.597-25.486-2.616-26.994c-1.439-14.846-2.975-27.857-3.413-28.913-.439-1.056-1.39-1.92-2.114-1.92s-1.665.864-2.09 1.92m40.551 1.128c-.738.737-1.35 2.177-1.361 3.2-.011 1.022-.95 12.994-2.086 26.604l-2.066 24.746 2.096 27.308c1.153 15.019 2.467 28.171 2.921 29.227.953 2.219 3.569 2.52 5.167.594.72-.867 1.946-10.953 3.546-29.156l2.445-27.829-2.498-26.896c-2.146-23.105-2.714-27.055-4.031-28.018-1.969-1.44-2.502-1.411-4.133.22m-60.603 8.259c-.775 3.587-4.738 42.326-4.738 46.317 0 4.081 3.936 41.979 4.716 45.416.271 1.19 1.073 1.92 2.111 1.92 2.082 0 1.898.903 5.199-25.414l2.706-21.575-2.798-23.225c-1.54-12.774-3.173-23.706-3.631-24.293-1.31-1.679-3.111-1.248-3.565.854M3.957 279.68c-.234.821-1.245 7.666-2.246 15.211l-1.822 13.718 1.8 13.589c2.091 15.78 2.28 16.575 3.936 16.575 1.788 0 2.397-2.255 4.612-17.089l1.979-13.25-1.962-13.203c-1.08-7.263-2.283-14.068-2.674-15.124-.845-2.281-3.023-2.538-3.623-.427" fill-rule="evenodd"/></svg>