<svg xmlns="http://www.w3.org/2000/svg" width="512" height="512"><path d="M223.691 65.28c3.7 6.559 70.283 118.838 70.82 119.424.422.461.719-12.783.689-30.72l-.054-31.531-31.153-25.173c-39.911-32.251-40.876-33.016-40.302-32m115.936 96.868v97.295l-21.061-.228-21.062-.228-35.221-57.6c-19.371-31.68-35.377-57.984-35.568-58.454-.192-.469-.541-.661-.776-.426-.235.234 0 26.635.523 58.667l.951 58.241-22.826-.001-22.827-.001-.041-64.213-.041-64.213-19.742-16.214c-10.859-8.917-20.077-16.348-20.484-16.512-.407-.165.571 1.755 2.174 4.266 6.624 10.379 11.307 22.435 13.871 35.713 2.114 10.943 2.131 34.573.034 46.08-6.424 35.25-27.183 61.064-56.838 70.68-11.749 3.809-11.993 3.828-57.089 4.341l-43.864.499 114.167 94.08L228.074 448H512V205.739l-85.777-70.443c-47.178-38.743-85.962-70.443-86.187-70.443-.225 0-.409 43.783-.409 97.295m-295.254-.441v53.333l14.72-.013c9.956-.008 16.449-.42 20.062-1.272 15.687-3.698 25.816-14.261 30.683-31.995 1.179-4.297 1.518-8.718 1.506-19.627-.015-12.086-.293-15.042-1.968-20.876-4.021-14.006-10.827-22.829-21.699-28.127-7.761-3.783-13.879-4.742-30.29-4.75l-13.014-.007v53.334" fill-rule="evenodd"/></svg>