<svg xmlns="http://www.w3.org/2000/svg" width="512" height="512"><path d="M235.52 32.958c-35.582 4.256-63.004 12.912-90.027 28.42C64.49 107.864 20.892 197.523 34.553 289.524c8.906 59.982 43.175 114.877 93.849 150.335 52.037 36.413 118.577 48.888 180.168 33.777 53.53-13.132 99.568-44.705 131.289-90.038 40.238-57.503 50.873-131.561 28.523-198.621-2.812-8.439-9.017-23.655-10.126-24.834-.368-.391-2.522 1.27-4.787 3.692-5.992 6.406-14.285 12.329-22.37 15.977-5.159 2.328-6.975 3.551-6.675 4.493.227.712 2.005 5.711 3.951 11.108 7.036 19.51 10.238 38.46 10.238 60.587 0 23.125-3.854 44.639-11.576 64.62-24.469 63.309-79.553 107.215-146.437 116.722-12.755 1.813-36.445 1.813-49.2 0-52.445-7.454-98.309-36.265-127.693-80.214-28.145-42.095-37.408-95.762-25.107-145.461 17.986-72.674 79.787-127.541 154.347-137.031 15.149-1.928 40.364-1.385 54.626 1.177 15.805 2.839 34.807 8.889 46.248 14.726l3.163 1.614 3.649-7.015c3.311-6.363 12.813-19.381 14.21-19.466.314-.02 2.254-1.558 4.312-3.418l3.742-3.384-9.715-4.572c-20.407-9.603-42.227-16.414-63.475-19.812-8.19-1.31-46.889-2.401-54.187-1.528m157.44 38.014c-12.193 2.308-26.294 13.196-31.863 24.601-2.882 5.903-5.227 15.284-5.227 20.907 0 11.601 5.222 23.74 13.979 32.497 12.222 12.222 27.831 16.552 44.395 12.316 8.638-2.21 15.041-5.918 21.496-12.448 8.603-8.705 13.093-19.803 13.093-32.365 0-12.85-4.535-23.829-13.554-32.809-11.077-11.031-26.571-15.68-42.319-12.699M247.04 154.57c-26.534 1.978-53.355 16.087-69.955 36.798-20.724 25.856-27.999 58.329-20.046 89.478 9.383 36.752 37.363 64.732 74.115 74.115 41.803 10.674 86.143-6.642 110.28-43.068 6.766-10.21 11.932-22.939 14.892-36.693 2.006-9.322 2.006-29.078 0-38.4-5.549-25.782-18.917-47.04-39.336-62.553-13.271-10.083-34.618-18.395-49.897-19.429-3.52-.238-7.552-.535-8.96-.659-1.408-.124-6.4.061-11.093.411" fill-rule="evenodd"/></svg>