<svg xmlns="http://www.w3.org/2000/svg" width="512" height="512"><path d="M143.36 72.164c-60.779 21.769-110.603 39.59-110.72 39.602-.585.057 1.308 11.566 22.568 137.207L78.06 384.027l88.531 47.773c48.693 26.275 88.931 47.773 89.419 47.773 1.337 0 175.139-93.9 176.728-95.481 1.023-1.019 7.236-35.902 24.107-135.345 12.501-73.686 22.728-134.605 22.728-135.376 0-.771-.672-1.665-1.493-1.986-12.95-5.068-221.357-78.936-222.549-78.88-.915.043-51.392 17.889-112.171 39.659M319.871 211.84c34.809 76.149 63.285 138.933 63.282 139.52-.005.822-4.471 1.067-19.47 1.067h-19.464l-13.245-27.947-13.245-27.947H194.271l-13.245 27.947-13.245 27.947h-19.464c-14.999 0-19.465-.245-19.47-1.067C128.838 349.839 255.295 73.387 256 73.387c.321 0 29.063 62.304 63.871 138.453m-85.233-.414-20.936 44.147 21.149.228c11.632.126 30.664.126 42.293 0l21.144-.228-20.931-44.143c-11.512-24.279-21.122-44.145-21.357-44.147-.235-.002-9.848 19.862-21.362 44.143" fill-rule="evenodd"/></svg>