<svg xmlns="http://www.w3.org/2000/svg" width="512" height="512"><path d="M235.947 32.932c-1.408.193-7.168.963-12.8 1.711-45.717 6.07-91.56 29.208-125.846 63.517-35.148 35.171-56.809 79.485-63.614 130.14-1.649 12.279-1.888 38.816-.464 51.593 10.78 96.716 81.661 175.032 176.778 195.323 28.475 6.074 63.523 6.074 91.998 0 60.645-12.937 112.825-49.852 145.36-102.834 32.513-52.947 41.096-118.42 23.535-179.529-21.552-75-84.293-135.253-160.281-153.926-19.536-4.8-27.851-5.788-51.2-6.082-11.498-.145-22.058-.105-23.466.087m33.294 15.76c52.79 3.505 101.204 26.085 137.277 64.023 69.985 73.603 76.549 187.127 15.512 268.263-33.328 44.304-80.967 72.377-137.87 81.245-13.545 2.111-43.424 2.096-57-.028-45.369-7.098-83.952-26.056-115.692-56.846-33.702-32.693-54.85-74.395-61.673-121.616-1.966-13.606-1.973-42.296-.013-55.3 6.947-46.095 25.793-84.845 56.885-116.961 31.985-33.039 73.393-54.322 119.04-61.184 5.728-.861 12.524-1.441 27.748-2.37 1.181-.072 8.285.276 15.786.774M241.92 64.507c-41.963 4.244-76.182 17.851-106.667 42.414-8.179 6.59-22.45 20.923-29.061 29.186-5.2 6.5-16.592 23.287-16.592 24.451 0 1.058 45.593.881 64.108-.248 8.751-.534 16.939-.712 18.197-.397 4.779 1.2 5.639 10.15 1.204 12.523-.904.484-6.336 1.3-12.07 1.812-5.734.513-10.513.997-10.621 1.075-.107.078 13.756 41.591 30.806 92.25 17.051 50.659 31.186 92.682 31.413 93.386.226.703 8.915-24.23 19.309-55.408l18.898-56.687-13.4-36.862-13.4-36.863-8.129-.576c-10.048-.712-14.243-1.768-15.367-3.869-1.464-2.735-.986-6.622 1.114-9.063l1.983-2.305 19.299 1.108c18.495 1.061 51.327.807 71.131-.551 7.188-.493 7.92-.395 9.6 1.285 1.176 1.176 1.818 2.894 1.818 4.861 0 6.437-2.249 7.578-16.871 8.561-7.507.505-8.702.787-8.326 1.96 10.228 31.896 61.881 183.599 62.207 182.703.257-.704 3.966-12.992 8.241-27.306 4.276-14.315 9.695-31.595 12.041-38.4 14.776-42.859 12.991-64.628-8.183-99.771-6.98-11.585-10.246-18.533-12.065-25.669-3.773-14.805 2.842-30.128 15.742-36.463 4.375-2.148 5.672-2.364 14.201-2.364 8.486 0 9.84.223 14.108 2.319 9.374 4.604 16.775 14.992 19.93 27.974 3.123 12.853 2.519 42.513-1.233 60.623-2.257 10.888-3.949 16.062-25.94 79.324-24.905 71.645-44.951 130.732-44.504 131.179.737.737 17.888-8.63 27.227-14.869 51.8-34.609 83.339-90.942 85.662-153.003 1.932-51.622-17.347-102.18-53.006-139.005-30.665-31.667-67.995-51.075-110.991-57.704-8.297-1.279-34.942-2.306-41.813-1.611M77.271 189.183c-10.617 27.737-15.077 57.819-12.501 84.31 6.527 67.116 46.867 125.424 107.177 154.916 12.946 6.331 17.224 7.851 16.469 5.852-.248-.657-21.117-57.93-46.377-127.274l-45.926-126.08H80.439l-3.168 8.276m180.24 86.547c-.707 2.055-7.352 21.401-14.766 42.99a22875.673 22875.673 0 0 1-27.756 80.213l-14.275 40.96 3.536 1.09c6.35 1.957 23.823 5.215 32.854 6.126 17.944 1.809 37.738.747 56.869-3.053 5.909-1.174 26-6.838 26.685-7.523.133-.133-1.832-4.826-4.367-10.429-2.534-5.603-16.214-42.041-30.399-80.972-14.185-38.932-26.084-71.315-26.443-71.962-.448-.807-1.057-.003-1.938 2.56" fill-rule="evenodd"/></svg>