<svg xmlns="http://www.w3.org/2000/svg" viewBox="0 0 512 512"><path d="M218.027 17.173c-47.829 2.651-85.171 9.089-111.194 19.173-27.125 10.51-52.635 39.868-64.81 74.587-7.329 20.897-9.32 36.284-10.05 77.654-.84 47.536.92 100.026 4.377 130.56 10.041 88.691 41.535 140.661 97.197 160.391 14.697 5.21 40.061 10.705 65.28 14.144 13.8 1.882 49.719 2.601 64.976 1.301 26.818-2.285 54.484-8.69 73.575-17.032l4.152-1.814-.497-5.322c-.274-2.927-.748-11.754-1.055-19.615-.307-7.861-.736-14.293-.953-14.293-.217 0-3.444.779-7.173 1.73-27.61 7.05-54.539 9.745-83.924 8.4-37.614-1.722-56.603-7.413-70.462-21.121-10.407-10.294-15.18-21.661-17.156-40.865-.545-5.289-.837-9.758-.65-9.931.187-.174 5.716.767 12.287 2.09 40.842 8.225 84.76 12.021 118.547 10.246 32.835-1.724 67.856-5.866 83.693-9.899 28.349-7.22 55.895-21.524 73.469-38.152 13.905-13.156 20.313-23.782 23.283-38.605 4.147-20.699 7.245-54.572 8.661-94.72 1.644-46.616-.609-68.96-9.596-95.147-9.189-26.776-27.962-52.377-48.466-66.092-22.34-14.944-66.034-24.259-130.125-27.743-18.523-1.006-54.533-.97-73.386.075M205.922 99.8c12.843 3.284 25.268 11.172 32.947 20.915 2.234 2.833 6.859 9.856 10.279 15.605 3.42 5.749 6.509 10.453 6.864 10.453.355 0 3.653-5.058 7.33-11.241 10.573-17.783 17.071-24.466 30.189-31.049 10.02-5.029 17.363-6.56 31.589-6.588 13.753-.026 21.181 1.235 30.622 5.202 17.214 7.232 31.292 22.697 37.77 41.489 5.432 15.76 5.255 12.88 5.607 91.574l.322 71.893h-49.488l-.306-66.773c-.325-70.776-.218-68.833-4.305-78.489-2.012-4.753-8.578-11.29-13.64-13.579-3.912-1.769-5.736-2.012-15.115-2.012-9.742 0-11.083.195-15.463 2.249-6.642 3.114-11.375 7.671-14.377 13.843-5.398 11.096-5.45 11.6-5.793 55.801l-.313 40.32h-49.282l-.313-40.32c-.343-44.201-.395-44.705-5.793-55.801-3.002-6.172-7.735-10.729-14.377-13.843-4.38-2.054-5.721-2.249-15.463-2.249-9.704 0-11.09.2-15.36 2.213-7.852 3.703-12.999 10.175-15.883 19.974-1.371 4.659-1.534 11.133-1.815 71.893l-.308 66.773h-49.488l.322-71.893c.35-78.229.175-75.272 5.375-90.995 2.574-7.783 8.405-18.15 13.902-24.715 9.557-11.415 26.154-20.148 42.349-22.284 8.54-1.127 23.707-.338 31.415 1.634" fill-rule="evenodd"/></svg>