<svg xmlns="http://www.w3.org/2000/svg" width="512" height="512"><path d="M232.107 33.324c-19.847 2.406-44.002 9.462-61.014 17.823-10.817 5.316-23.319 13.203-29.013 18.302l-3.413 3.057 7.253-3.332c39.26-18.031 87.116-22.355 131.36-11.867 18.807 4.457 44.296 15.499 59.697 25.859 47.026 31.636 71.199 79.676 67.507 134.156-1.865 27.503-11.205 47.631-30.829 66.433-15.939 15.271-34.931 24.651-56.209 27.762-8.367 1.224-16.959.699-29.149-1.779-23.335-4.744-42.377-14.814-53.56-28.324-5.641-6.816-11.469-18.8-13.337-27.427-1.983-9.155-1.349-27.231 1.276-36.387 2.303-8.034 8.282-20.463 12.481-25.947l3.206-4.188-5.048.579c-24.342 2.789-43.99 23.472-50.37 53.023-1.614 7.477-1.617 23.703-.006 31.146.66 3.051 1.093 5.663.962 5.805-.592.639-5.921-13.693-7.688-20.675-7.869-31.093-3.362-65.468 12.825-97.802 13.726-27.42 33.808-48.182 58.877-60.873 6.88-3.483 7.202-3.762 4.948-4.3-1.325-.317-10.3-.801-19.943-1.076-25.471-.725-42.568 1.573-64.635 8.689-42.633 13.747-76.887 43.141-93.686 80.393-2.07 4.59-3.766 7.698-3.768 6.905-.022-7.638 8.691-46.165 14.009-61.943l2.956-8.77-2.298 1.772c-1.264.975-4.929 4.729-8.144 8.344-23.54 26.462-38.484 60.571-43.645 99.618-1.614 12.212-1.82 37.809-.411 51.167 3.663 34.724 16.247 69.999 35.313 98.986 54.423 82.744 155.062 119.877 250.536 92.441 58.516-16.815 109.538-59.475 137.214-114.726 24.398-48.708 30.024-104.356 15.964-157.904-13.927-53.04-47.819-99.633-94.725-130.225-26.007-16.962-56.183-28.481-87.893-33.553-10.034-1.605-47.682-2.364-57.6-1.162" fill-rule="evenodd"/></svg>