<svg xmlns="http://www.w3.org/2000/svg" width="512" height="512"><path d="M429.227 140.312c-29.991 6.35-51.676 29.944-55.592 60.483l-.981 7.651-21.326 30.604-21.327 30.603h-5.812c-7.626 0-13.582 1.284-20.513 4.423l-5.657 2.562-97.587-39.214-97.587-39.213-1.875-5.237c-3.11-8.689-6.374-13.898-12.65-20.187-10.23-10.253-21.598-14.965-36.267-15.033-9.574-.044-14.522 1.02-22.613 4.863-14.023 6.661-23.812 18.744-27.791 34.304-5.852 22.878 5.563 47.641 26.938 58.44 13.944 7.045 30.35 7.327 44.378.762l5.286-2.474 97.763 39.232 97.764 39.231 1.427 4.397c8.318 25.623 34.609 40.923 60.444 35.176 19.687-4.38 34.986-19.719 39.47-39.571l1.374-6.088 32.918-24.042 32.917-24.042 6.463-.652c20.791-2.097 38.227-12.078 50.102-28.68 21.326-29.814 15.715-71.365-12.71-94.119-6.253-5.006-18.549-11.322-25.81-13.258-7.124-1.899-24.152-2.403-31.146-.921m23.211 22.752c12.475 2.569 25.695 12.69 31.165 23.861 6.825 13.938 7.029 28.021.601 41.484-13.706 28.706-51.815 35.178-74.364 12.629-19.796-19.796-17.501-52.78 4.84-69.567 10.706-8.044 24.549-11.126 37.758-8.407m-394.411 8.515c7.824 1.268 15.258 5.185 20.728 10.921 8.319 8.723 7.998 9.027-4.327 4.106-9.997-3.992-11.429-4.338-18.123-4.377-6.536-.038-7.843.24-12.958 2.757-10.887 5.357-17.203 15.35-17.108 27.067.106 13.026 7.341 23.21 20.268 28.529l9.731 4.005c1.597.657 2.679 1.42 2.405 1.695-.275.274-3.421.487-6.992.473-18.957-.074-34.075-13.178-37.213-32.256-3.635-22.09 13.106-42.002 36.762-43.726.704-.051 3.776.311 6.827.806m376.103 1.667c-11.768 2.972-22.359 13.124-25.735 24.669-5.051 17.276 3.194 35.131 19.873 43.034 5.219 2.473 6.338 2.678 14.612 2.678 8.284 0 9.379-.202 14.507-2.668 10.123-4.868 16.482-12.101 19.647-22.346 5.321-17.23-2.772-35.096-19.499-43.043-4.444-2.111-6.707-2.615-12.8-2.849-4.071-.156-8.843.08-10.605.525m-93.348 113.756c23.334 11.532 29.055 41.389 11.489 59.962-5.273 5.576-9.856 8.453-17.018 10.682-11.49 3.576-25.133.804-34.976-7.106-3.141-2.524-8.916-9.865-8.27-10.512.192-.191 5.287 1.602 11.322 3.985 13.605 5.373 18.337 5.957 26.983 3.33 5.511-1.673 6.884-2.549 11.963-7.628 5.081-5.082 5.954-6.451 7.632-11.974 2.93-9.647 1.658-17.992-4.059-26.631-3.224-4.872-9.289-8.929-19.46-13.018-4.941-1.987-8.687-3.918-8.326-4.292.362-.375 4.221-.5 8.576-.278 6.925.352 8.698.789 14.144 3.48" fill-rule="evenodd"/></svg>