<svg xmlns="http://www.w3.org/2000/svg" width="512" height="512"><path d="M234.24 33.658c-62.979 7.592-118.694 39.356-154.73 88.215-21.5 29.149-36.351 67.318-41.618 106.96-1.876 14.117-1.859 40.215.037 54.9 9.88 76.552 53.083 138.404 119.511 171.102 34.81 17.134 68.949 24.944 108.8 24.892 37.259-.049 69.755-8.223 101.973-25.652 59.054-31.945 96.526-89.813 105.885-163.515 2.644-20.821 1.633-59.384-1.93-73.603l-1.337-5.337-104.216.217-104.215.216v87.894l62.08.219c56.517.199 62.08.342 62.08 1.598 0 2.98-6.254 19.843-9.98 26.909-21.945 41.62-72.961 68.792-121.433 64.676-64.564-5.483-113.855-48.436-127.261-110.896-1.636-7.623-1.926-11.569-1.941-26.453-.016-15.048.253-18.746 1.923-26.453 2.903-13.401 6.331-23.008 12.939-36.267 13.875-27.838 32.432-46.68 58.446-59.342 17.778-8.652 35.042-13.25 53.76-14.315 25.208-1.435 43.131 1.977 64 12.186 9.914 4.849 18.62 10.329 25.473 16.032l4.139 3.445 31.061-31.052c17.083-17.078 31.061-31.29 31.061-31.582 0-.996-16.622-13.744-26.056-19.985-26.528-17.548-56.01-29.012-87.864-34.165-11.623-1.88-47.808-2.384-60.587-.844" fill-rule="evenodd"/></svg>