<svg xmlns="http://www.w3.org/2000/svg" width="512" height="512"><path d="M106.24 33.039c-6.378.887-16.814 4.068-23.305 7.103C54.202 53.577 35.808 79.51 32.42 111.36c-1.136 10.676-1.104 277.49.034 287.573 2.334 20.676 10.259 38.251 23.694 52.544 9.113 9.696 15.623 14.576 26.199 19.642 10.555 5.056 18.579 7.311 30.238 8.497 6.175.628 53.105.817 148.962.598 127.033-.29 140.475-.45 145.674-1.74 20-4.962 32.463-11.827 45.945-25.308 13.465-13.465 20.46-26.174 25.388-46.126 1.223-4.952 1.402-20.557 1.674-145.493.318-145.713.198-151.72-3.28-164.322-2.032-7.361-7.924-20.219-11.94-26.058-3.841-5.582-13.878-16.012-19.787-20.561-6.313-4.86-17.518-10.812-25.402-13.493-14.404-4.899-7.078-4.697-165.407-4.558-80.086.07-146.764.288-148.172.484m173.653 115.014v36.267h52.054v55.467h-52.054v39.163c0 36.531.113 39.528 1.678 44.587 1.965 6.351 6.174 11.219 11.904 13.766 4.395 1.954 15.873 3.085 31.858 3.14l10.88.037v55.588l-33.92-.325c-38.649-.37-40.7-.661-55.253-7.829-16.316-8.036-26.341-21.176-32.261-42.287-1.711-6.103-1.825-8.926-2.264-55.92l-.462-49.494-18.133-.23-18.133-.23V192.234l7.49-2.68c14.13-5.054 25.535-13.335 34.195-24.828 8.903-11.814 15.164-27.26 17.31-42.699.489-3.52 1.055-7.264 1.257-8.32l.367-1.92H279.893v36.266" fill-rule="evenodd"/></svg>