<svg data-name="Layer 1" xmlns="http://www.w3.org/2000/svg" viewBox="0 0 512 512"><path d="M106.367 31.596c-3.684 1.104-8.023 4.324-10.319 7.657-1.269 1.843-12.678 35.996-29.79 89.174-15.253 47.402-32.849 101.93-39.102 121.173-10.482 32.256-11.369 35.488-11.369 41.406 0 5.494.392 7.215 2.723 11.946 1.498 3.041 3.994 6.73 5.547 8.199 3.273 3.096 223.496 164.709 226.77 166.417 3.106 1.622 6.861 1.417 10.085-.548 7.734-4.716 223.868-163.812 226.953-167.06 4.822-5.078 7.336-11.733 7.327-19.4-.007-5.394-1.413-10.318-14.509-50.773-7.975-24.64-25.598-79.36-39.161-121.6l-24.66-76.8-4.271-4.296c-4.535-4.561-8.702-6.371-14.67-6.371-4.428 0-11.902 3.856-14.886 7.68-1.693 2.169-5.716 13.495-14.7 41.387-6.803 21.12-17.88 55.488-24.617 76.373l-12.247 37.973-75.448.218c-41.497.12-75.755-.088-76.13-.463-.374-.375-11.239-33.497-24.143-73.605-12.905-40.108-24.081-74.57-24.836-76.583-3.682-9.809-14.465-15.126-24.547-12.104m27.551 94.885c11.764 36.459 21.389 66.692 21.389 67.184 0 .613-13.633.895-43.185.895-34.168 0-43.11-.223-42.829-1.067.195-.586 9.912-30.911 21.592-67.387 11.681-36.477 21.329-66.23 21.441-66.118.112.112 9.829 30.034 21.592 66.493m287.604 3.413c11.278 35.069 20.505 63.965 20.505 64.214 0 .248-19.392.452-43.094.452-31.608 0-43.093-.258-43.093-.97 0-.533 8.617-27.701 19.149-60.373 10.531-32.672 20.187-62.668 21.456-66.657l2.308-7.253 1.133 3.413c.622 1.877 10.359 32.106 21.636 67.174m-97.67 87.919c-.347 1.027-65.256 202.844-67.144 208.768-.655 2.055-1.114 2.552-1.574 1.706-.357-.656-15.667-47.911-34.022-105.01-18.355-57.098-33.607-104.426-33.894-105.173-.473-1.234 5.726-1.357 68.237-1.357 54.63 0 68.684.219 68.397 1.066m110.005-.111c-.566.916-128.96 167.114-141.326 182.938-3.301 4.224-5.772 6.912-5.49 5.973.547-1.822 60.083-187.001 60.7-188.8.286-.834 9.764-1.066 43.536-1.066 31.636 0 43.013.255 42.58.955M193.848 312.72c16.769 52.082 30.408 94.775 30.309 94.874-.217.217-145.953-188.262-146.364-189.291-.158-.395 19.03-.619 42.639-.498l42.927.222 30.489 94.693m-66.242 7.707c36.961 47.872 67.626 87.6 68.145 88.284 1.206 1.592 5.691 4.848-81.392-59.08-56.644-41.583-74.853-55.374-75.477-57.167-.641-1.841-.326-3.918 1.424-9.387 17.018-53.186 16.944-52.983 18.568-51.288.842.879 31.771 40.766 68.732 88.638m327.073-87.254c.432 1.526 4.736 15 9.564 29.944 7.19 22.251 8.635 27.579 7.985 29.427-.578 1.644-18.272 15.07-65.204 49.475-35.426 25.97-70.734 51.854-78.462 57.521-7.728 5.666-13.488 9.473-12.8 8.46 3.459-5.093 137.016-177.52 137.531-177.557.33-.024.954 1.205 1.386 2.73" fill-rule="evenodd"/></svg>