<svg xmlns="http://www.w3.org/2000/svg" width="512" height="512"><path d="M76.388 151.241C43.56 208.141 16.701 255.283 16.701 256c0 .717 26.859 47.859 59.687 104.759l59.686 103.454h43.75c24.062 0 43.749-.129 43.749-.286 0-.158-26.88-46.877-59.733-103.82-32.853-56.944-59.733-103.792-59.733-104.107 0-.315 26.88-47.163 59.733-104.107 32.853-56.943 59.733-103.662 59.733-103.82 0-.157-19.687-.286-43.749-.286h-43.75L76.388 151.241m161.355-99.828a28147.02 28147.02 0 0 0-21.806 37.76l-19.689 34.134 67.952.426 67.953.427 37.87 65.631c20.829 36.097 37.87 65.891 37.87 66.209 0 .318-17.041 30.112-37.87 66.209l-37.87 65.631-67.952.427-67.952.426 21.666 37.547 21.666 37.547 68.17.218 68.169.218 59.69-103.459c32.829-56.903 59.689-104.047 59.689-104.764 0-.717-26.859-47.859-59.687-104.759L375.926 47.787H239.859l-2.116 3.626" fill-rule="evenodd"/></svg>