<svg xmlns="http://www.w3.org/2000/svg" width="512" height="512"><path d="M124.073 34.032c-12.941 3.722-21.958 12.718-26.188 26.128L96 66.133V459.52l2.032 5.12c4.073 10.264 12.156 15.434 23.8 15.224 9.359-.168 13.25-2.812 26.221-17.815 6.102-7.058 32.074-37.202 57.718-66.987 25.643-29.785 47.726-55.194 49.074-56.464l2.45-2.31 43.086-.25c42.395-.247 43.162-.282 47.82-2.168 10.012-4.054 16.112-10.876 20.013-22.383 2.649-7.816 4.857-18.48 28.631-138.26 17.601-88.68 18.887-95.785 18.909-104.534.038-15.119-3.817-24.328-12.627-30.164-9.22-6.107 1.811-5.658-143.287-5.835-122.214-.149-130.893-.064-135.767 1.338m232.445 48.996c3.66 1.999 6.141 6.163 6.145 10.316.006 5.408-10.152 56.114-11.808 58.95-1.807 3.093-6.047 6.091-10.275 7.266-1.907.529-22.374.859-53.542.862-55.744.005-54.079-.149-59.003 5.46-3.453 3.932-4.785 10.498-4.275 21.077.316 6.568.802 8.931 2.451 11.917 2.27 4.113 6.196 7.16 10.915 8.47 1.882.523 20.114.86 46.694.863l43.608.004 2.886 1.946c3.17 2.136 6.717 7.684 6.739 10.541.02 2.611-10.106 54.06-11.168 56.746-1.203 3.041-4.79 6.344-8.631 7.949-2.7 1.128-8.613 1.326-39.68 1.33-21.483.003-37.76.353-39.551.85-1.675.465-4.429 1.903-6.12 3.195-1.692 1.293-19.068 21.693-38.613 45.335-46.062 55.718-46.661 56.428-47.518 56.428-.401 0-.627-67.654-.504-150.4l.225-150.4 1.935-3.111c2.3-3.699 5.496-5.958 9.585-6.776 1.643-.329 46.571-.542 99.84-.475 91.494.116 97.009.207 99.665 1.657" fill-rule="evenodd"/></svg>