<svg xmlns="http://www.w3.org/2000/svg" width="512" height="512"><path d="M229.342 33.721c-40.377 4.887-80.409 21.757-113.343 47.763-8.805 6.953-29.214 27.551-35.943 36.276-16.889 21.896-28.302 43.204-36.565 68.267C35.506 210.243 32.26 230.468 32.26 256c0 50.704 16.015 97.028 47.794 138.24 7.2 9.337 28.369 30.506 37.706 37.706 33.356 25.721 70.783 41.315 111.36 46.398 13.18 1.652 38.183 1.866 50.347.433 43.164-5.088 80.475-20.327 114.773-46.876 9.439-7.307 30.572-28.425 37.688-37.661 19.842-25.756 32.85-52.001 40.813-82.346 5.022-19.139 7.014-35.008 7.014-55.894 0-50.771-15.981-96.953-47.836-138.24-6.753-8.753-27.147-29.349-35.918-36.276-33.3-26.295-73.234-42.995-114.297-47.799-13.056-1.527-39.599-1.509-52.362.036m-38.843 169.557c16.687 6.26 29.026 18.866 34.899 35.655 1.654 4.727 1.938 7.251 1.924 17.067-.016 10.234-.267 12.219-2.25 17.779-3.188 8.941-7.024 14.985-13.968 22.01-4.887 4.943-7.629 6.885-14.08 9.973-10.039 4.804-15.268 6.045-25.504 6.053-21.354.016-40.215-11.955-49.623-31.495-15.057-31.272.965-67.672 34.263-77.837 5.575-1.703 7.83-1.916 17.493-1.659 9.314.249 12.016.642 16.846 2.454m167.048-.347c26.686 8.774 42.931 37.051 37.107 64.589-2.719 12.854-11.16 26.062-21.267 33.273-10.7 7.636-20.811 10.98-33.334 11.025-9.279.034-14.876-1.239-23.893-5.436-32.606-15.173-42.203-57.076-19.588-85.532 6.784-8.536 18.184-15.9 29.401-18.993 6.972-1.922 24.249-1.334 31.574 1.074" fill-rule="evenodd"/></svg>