<svg xmlns="http://www.w3.org/2000/svg" viewBox="0 0 512 512"><path d="M85.333 34.136C59.76 40.472 40.76 59.926 33.914 86.783L32 94.293v323.414l1.908 7.253c6.912 26.28 27.264 46.457 53.559 53.1l7.68 1.94h321.706l7.68-1.94c31.087-7.854 53.876-35.007 55.171-65.735l.296-7.038-44.373-19.046c-47.725-20.484-86.334-37.492-113.313-49.917l-16.886-7.776-2.735 3.193c-20.939 24.441-44.845 43.832-69.425 56.313-24.529 12.455-47.267 18.138-72.524 18.128-25.496-.011-47.844-6.339-64.744-18.334-7.188-5.101-17.454-16.127-21.752-23.362-17.199-28.949-12.047-66.533 12.577-91.753 11.727-12.011 32.579-21.999 53.122-25.444 8.9-1.493 33.913-1.209 46.933.532 22.988 3.075 54.114 10.379 85.68 20.107 13.429 4.138 17.146 5.001 17.748 4.12 2.237-3.275 11.597-23.597 15.559-33.78 3.852-9.899 9.013-24.937 9.013-26.259 0-.21-39.744-.382-88.32-.382h-88.32v-17.92h91.307v-31.574h-110.08v-17.92h110.08V96.295l2.494-2.494 2.494-2.494H281.6v52.906h109.227v17.92H281.6v31.574h44.373c42.597 0 44.374.063 44.374 1.578 0 2.234-6.036 22.553-10.303 34.688-5.077 14.436-10.854 27.646-19.197 43.9-3.962 7.718-6.913 14.294-6.558 14.615 1.104.998 60.487 22.965 74 27.374 34.705 11.323 70.065 21.059 71.451 19.672.417-.416.631-53.747.488-121.418l-.255-120.676-1.92-6.827c-2.183-7.761-6.537-17.386-10.411-23.018-7.357-10.692-19.228-20.378-31.43-25.643-13.609-5.872-2.284-5.532-182.096-5.464-155.275.06-162.663.132-168.783 1.648m52.48 241.615c-9.639 1.228-21.6 4.741-30.195 8.868-19.153 9.197-30.44 28.48-27.359 46.743 1.97 11.683 10.12 23.915 20.856 31.301 6.067 4.175 15.983 8.46 25.077 10.839 11.161 2.919 30.928 3.657 42.768 1.596 32.23-5.609 65.232-26.872 92.095-59.333l5.27-6.369-6.656-3.349c-23.527-11.839-57.049-24.338-74.496-27.777-17.364-3.423-33.525-4.283-47.36-2.519" fill-rule="evenodd"/></svg>