<svg data-name="Layer 1" xmlns="http://www.w3.org/2000/svg" viewBox="0 0 512 512"><path d="M232.277 73.557c-.742.743-1.024 6.946-1.024 22.553 0 18.433.193 21.721 1.341 22.869 1.156 1.156 4.675 1.341 25.496 1.341 21.413 0 24.287-.16 25.326-1.409.903-1.088 1.229-6.076 1.428-21.843.219-17.452.061-20.734-1.087-22.484l-1.343-2.051h-24.556c-17.962 0-24.832.275-25.581 1.024m-125.895 57.572c-.313.313-.569 10.604-.569 22.869 0 16.207.28 22.58 1.024 23.325.749.749 7.617 1.024 25.57 1.024 23.395 0 24.588-.078 25.43-1.651 1.316-2.46 1.188-43.783-.141-45.112-.75-.75-7.686-1.024-25.884-1.024-13.674 0-25.117.256-25.43.569m63.602.455c-1.458 1.458-1.458 44.281 0 45.739 1.462 1.461 49.397 1.461 50.859 0 1.457-1.458 1.457-44.281 0-45.739-1.462-1.462-49.397-1.462-50.859 0m62.293 0c-.742.742-1.024 6.946-1.024 22.552 0 18.434.193 21.722 1.341 22.87 1.156 1.156 4.675 1.341 25.496 1.341 21.427 0 24.287-.16 25.326-1.411.922-1.113 1.171-5.878 1.171-22.483s-.249-21.37-1.171-22.482c-1.04-1.252-3.921-1.411-25.643-1.411-17.896 0-24.747.275-25.496 1.024m164.599 15.22c-4.051 5.592-10.132 18.027-12.78 26.13-5.486 16.795-5.842 33.694-1.011 48.079 1.497 4.459 3.712 9.802 4.922 11.873 2.084 3.564 2.12 3.825.68 4.877-1.606 1.175-11.592 4.58-18.767 6.4-3.348.85-42.387 1.184-181.333 1.553-162.619.432-177.276.586-179.627 1.883-3.146 1.736-5.761 4.546-7.58 8.145-2.952 5.843-1.164 35.959 3.433 57.798 10.759 51.123 32.18 85.572 64.767 104.161 27.522 15.699 77.661 24.475 124.743 21.835 39.275-2.202 68.174-8.168 97.616-20.151 62.955-25.623 107.121-72.106 136.186-143.334 2.106-5.162 4.081-9.656 4.389-9.986.307-.33 5.357-.993 11.222-1.473 23.547-1.927 39.34-9.119 53.638-24.429 4.474-4.792 7.133-8.644 9.898-14.345 5.599-11.542 5.675-10.654-1.311-15.28-11.351-7.518-25.7-10.56-45.943-9.741-6.845.277-13.291.754-14.326 1.061-1.57.466-1.965.156-2.388-1.877-1.642-7.901-6.177-19.749-9.832-25.69-4.768-7.746-13.472-17.461-20.363-22.727-4.744-3.626-12.1-8.206-13.179-8.206-.307 0-1.682 1.55-3.054 3.444M45.013 188.655c-1.362.794-1.493 2.843-1.493 23.411 0 21.412.083 22.585 1.651 23.424 1.023.547 10.571.883 25.112.883 20.191 0 23.649-.187 24.803-1.341 1.148-1.148 1.341-4.439 1.341-22.907 0-19.81-.127-21.682-1.561-22.979-1.374-1.244-4.36-1.41-24.96-1.387-14.3.016-23.98.364-24.893.896m62.294 0c-1.363.794-1.494 2.843-1.494 23.411 0 21.412.083 22.585 1.651 23.424 1.023.547 10.571.883 25.112.883 20.191 0 23.649-.187 24.803-1.341 1.148-1.148 1.341-4.439 1.341-22.907 0-19.81-.127-21.682-1.561-22.979-1.373-1.244-4.36-1.41-24.96-1.387-14.3.016-23.98.364-24.892.896m62.994.419c-1.15 1.15-1.341 4.475-1.341 23.296 0 15.939.281 22.236 1.024 22.979 1.462 1.462 49.397 1.462 50.859 0 .744-.744 1.024-7.142 1.024-23.436 0-21.286-.083-22.457-1.651-23.296-1.023-.548-10.571-.884-25.112-.884-20.191 0-23.649.187-24.803 1.341m62.365.22c-1.236 1.365-1.413 4.246-1.413 22.979 0 18.334.193 21.612 1.341 22.759 1.156 1.156 4.675 1.341 25.496 1.341 21.427 0 24.287-.159 25.326-1.411.924-1.114 1.171-5.972 1.171-23.109 0-20.493-.092-21.764-1.657-22.908-1.336-.977-6.221-1.212-25.254-1.212-21.778 0-23.707.121-25.01 1.561m63.227-.639c-1.361.793-1.493 2.822-1.493 22.953 0 18.938.191 22.274 1.341 23.424 1.156 1.156 4.669 1.341 25.429 1.341 17.598 0 24.365-.276 25.113-1.024.743-.743 1.024-7.04 1.024-22.979 0-18.821-.192-22.146-1.341-23.296-1.156-1.155-4.603-1.337-24.96-1.315-14.449.016-24.199.364-25.113.896" fill-rule="evenodd"/></svg>