<svg xmlns="http://www.w3.org/2000/svg" viewBox="0 0 512 512" style="enable-background:new 0 0 512 512" xml:space="preserve"><path d="M28.16 256v227.84h455.68V28.16H28.16V256m199.265-49.922c18.722 41.066 34.311 74.378 34.643 74.027.332-.351 13.938-33.95 30.234-74.665l29.63-74.027h85.108v2.498c0 1.712-.739 3.077-2.347 4.335-1.29 1.009-7.434 6.839-13.653 12.953l-11.307 11.118v180.317l13.227 13.206c11.676 11.658 13.227 13.533 13.227 15.995v2.79l-59.947-.219-59.947-.219-.285-2.507c-.257-2.253 1.11-3.853 13.483-15.787l13.769-13.28-.256-71.227-.257-71.228-34.134 86.822-34.133 86.821-4.667-.234-4.667-.234-39.909-87.04-39.908-87.04-.011 61.254c-.009 50.642.196 61.73 1.183 64 .657 1.511 8.913 12.087 18.347 23.504C188.508 364.542 192 369.276 192 371.264v2.496h-91.307v-2.793c0-2.372 2.584-5.93 17.138-23.598 9.426-11.442 17.51-21.783 17.965-22.98.512-1.347.805-30.12.77-75.602l-.057-73.427-1.873-2.56c-1.031-1.408-8.321-10.323-16.202-19.812-10.224-12.311-14.327-17.87-14.327-19.413v-2.162h89.278l34.04 74.665" fill-rule="evenodd"/></svg>