<svg xmlns="http://www.w3.org/2000/svg" viewBox="0 0 512 512"><path d="M169.813 48.632c-51.776 3.514-99.171 24.881-130.834 58.983-10.394 11.195-17.583 21.502-24.037 34.465-6.227 12.505-9.688 22.318-12.491 35.413-2.573 12.026-2.803 37.307-.446 49.067 7.033 35.08 27.016 66.48 56.646 89.006 11.046 8.397 10.998 8.036 4.477 33.605-2.79 10.943-5.08 20.568-5.087 21.389-.02 2.108 3.034 4.907 5.353 4.907 1.075 0 12.307-5.942 24.96-13.205 26.364-15.132 25.924-15.008 39.485-11.127 10.533 3.015 25.414 5.386 40.038 6.381 11.87.808 25.83 1.162 25.83.655 0-.126-.983-4.446-2.185-9.6-3.033-13.012-3.827-35.386-1.712-48.267 6.876-41.891 36.004-79.14 78.951-100.963 25.642-13.029 51.193-19.327 83.832-20.664l14.247-.583-.5-2.647c-1.945-10.293-7.685-26.116-13.189-36.354-31.896-59.329-105.674-95.732-183.338-90.461m-36.076 83.506c8.477 4.345 13.266 12.219 13.313 21.889.062 12.894-9.28 23.084-22.108 24.114-10.165.816-19.64-4.675-23.943-13.874-2.776-5.935-2.773-14.544.006-20.513 2.352-5.05 8.552-10.833 13.618-12.702 5.01-1.847 14.437-1.312 19.114 1.086m119.93-1.087c5.19 1.768 11.243 7.194 14.09 12.63 1.929 3.682 2.29 5.45 2.292 11.199.002 8.202-1.72 12.096-7.661 17.325-9.865 8.685-24.032 8.235-33.324-1.056-4.946-4.946-7.197-10.303-7.197-17.122 0-16.566 16.219-28.285 31.8-22.976m84.296 60.162c-39.698 4.474-76.23 21.663-100.737 47.399-16.161 16.972-26.348 35.468-31.374 56.962-1.906 8.152-2.224 11.481-2.251 23.573-.035 15.872 1.098 22.801 6.054 37.041 4.814 13.83 10.558 23.994 20.614 36.48 27.83 34.554 76.677 56.145 127.098 56.178 16.219.011 38.167-2.935 48.178-6.467 1.879-.663 5.22-1.206 7.424-1.206 3.566 0 5.785 1.045 20.159 9.493 23.068 13.558 23.736 13.887 25.859 12.751 3.756-2.01 3.7-3.343-.772-18.403-4.457-15.011-5.032-19.464-3.015-23.364.675-1.305 4.658-5.112 8.851-8.46 45.999-36.732 60.609-94.596 36.161-143.22-8.94-17.781-25.886-37.236-42.825-49.163-19.923-14.029-43.904-23.695-69.547-28.034-11.893-2.013-38.48-2.844-49.877-1.56m-22.621 67.66c7.637 3.557 11.69 10.142 11.695 19.002.01 18.887-22.579 27.612-35.794 13.826-1.501-1.566-3.325-4.275-4.053-6.02-1.669-4.002-1.708-12.339-.075-16.247 4.498-10.764 17.413-15.596 28.227-10.561m104.132 1c5.831 3.605 9.154 9.209 9.599 16.186.424 6.666-.877 10.761-4.798 15.101-10.051 11.126-26.788 9.27-33.889-3.757-4.713-8.647-2.932-18.982 4.377-25.4 4.832-4.242 7.65-5.202 14.493-4.937 5.003.193 6.781.682 10.218 2.807" fill-rule="evenodd"/></svg>