<svg xmlns="http://www.w3.org/2000/svg" width="512" height="512"><path d="M65.056 33.395c.253.641 34.679 56.436 76.502 123.989L217.6 280.208v199.55l2.347-.599c12.471-3.185 14.533-3.379 36.053-3.379 21.52 0 23.582.194 36.053 3.379l2.347.599V280.571l76.459-123.702c42.053-68.036 76.324-123.838 76.157-124.004-.167-.167-3.374.432-7.126 1.331-16.435 3.937-44.019 3.881-61.082-.125-4.248-.998-7.839-1.679-7.98-1.516-.142.164-25.894 41.866-57.227 92.672C282.267 176.032 256.347 217.6 256 217.6c-.347 0-26.267-41.568-57.601-92.373-31.333-50.806-57.085-92.508-57.227-92.672-.141-.163-3.835.543-8.208 1.571-19.307 4.536-49.541 3.904-66.746-1.396-1.148-.354-1.488-.159-1.162.665" fill-rule="evenodd"/></svg>