<svg xmlns="http://www.w3.org/2000/svg" width="512" height="512"><path d="M235.947 32.932c-1.408.193-7.168.963-12.8 1.711-45.717 6.07-91.56 29.208-125.846 63.517-35.148 35.171-56.809 79.485-63.614 130.14-1.649 12.279-1.888 38.816-.464 51.593 10.78 96.716 81.661 175.032 176.778 195.323 28.475 6.074 63.523 6.074 91.998 0 60.645-12.937 112.825-49.852 145.36-102.834 32.513-52.947 41.096-118.42 23.535-179.529-21.552-75-84.293-135.253-160.281-153.926-19.536-4.8-27.851-5.788-51.2-6.082-11.498-.145-22.058-.105-23.466.087m24.61 86.849c1.538.643 31.62 20.387 66.849 43.876 60.649 40.438 64.151 42.911 65.9 46.523 1.83 3.781 1.845 4.204 1.604 47.644-.234 42.063-.312 43.946-1.95 46.718-1.31 2.217-16.478 12.743-65.328 45.332-34.991 23.344-64.911 43.111-66.488 43.927-6.472 3.347-4.815 4.279-73.635-41.417-34.842-23.134-64.264-42.861-65.382-43.837-1.117-.975-2.741-3.31-3.607-5.187-1.465-3.174-1.577-6.436-1.595-46.539-.018-43.044-.015-43.133 1.902-46.934 1.798-3.565 5.877-6.453 64.213-45.458 34.261-22.908 64.021-42.57 66.133-43.694 4.422-2.352 7.434-2.604 11.384-.954m-62.744 63.675c-25.198 16.687-46.072 30.599-46.387 30.913-.801.802 39.037 27.124 41.057 27.127 2.063.004 48.79-31.3 50.409-33.77.961-1.467 1.143-6.82.96-28.211l-.225-26.401-45.814 30.342m70.134-3.616c0 20.467.264 27.527 1.066 28.542 1.611 2.036 47.729 32.516 49.807 32.918 1.257.243 7.922-3.728 21.948-13.076L360.91 214.8l-18.962-12.797c-19.587-13.219-71.049-47.596-72.935-48.721-.844-.503-1.066 5.032-1.066 26.558m-34.324 63.631c-10.664 7.125-19.39 13.148-19.39 13.382 0 .235 8.82 6.283 19.601 13.44 13.288 8.823 20.351 13.014 21.931 13.014 1.582 0 8.579-4.157 21.763-12.93 10.688-7.111 19.432-13.197 19.432-13.524 0-.326-8.744-6.412-19.432-13.523-14.571-9.696-20.067-12.916-21.973-12.873-1.801.041-8.194 3.835-21.932 13.014M140.8 256.853v19.823l2.347-1.527c13.398-8.72 26.666-17.824 26.666-18.296 0-.471-13.268-9.575-26.666-18.295l-2.347-1.528v19.823m214.301-9.743-14.819 9.891 14.686 9.801c8.078 5.39 14.85 9.638 15.049 9.439.199-.2.259-9.061.133-19.692l-.23-19.329-14.819 9.89m-183.852 38.286c-10.709 7.204-19.473 13.371-19.476 13.705-.004.5 91.297 61.859 92.045 61.859.129 0 .235-12.221.235-27.158 0-27.079-.005-27.163-1.92-28.898-4.001-3.627-48.388-32.689-49.865-32.649-.851.023-10.31 5.936-21.019 13.141m122.041 3.214c-15.875 10.603-24.699 17.01-24.972 18.133-.232.955-.315 13.546-.183 27.978l.238 26.241 45.654-30.396c25.109-16.718 45.941-30.658 46.293-30.977.843-.765-38.96-27.376-40.947-27.376-.844 0-12.581 7.379-26.083 16.397" fill-rule="evenodd"/></svg>