<svg xmlns="http://www.w3.org/2000/svg" width="512" height="512"><path d="M239.628 17.133c-8.624 1.265-15.463 3.369-23.308 7.171-16.223 7.86-26.906 20.839-31.974 38.843-2.458 8.729-3.002 22.821-1.748 45.226.564 10.091 1.221 27.947 1.458 39.68.492 24.323-.081 28.485-5.378 39.035-3.639 7.246-5.545 9.816-16.616 22.405-22.386 25.456-25.529 30.208-31.997 48.372-6.106 17.151-9.885 24.9-18.099 37.111-7.654 11.378-9.083 13.967-11.352 20.561-2.273 6.607-2.858 14.231-1.645 21.426.976 5.784.92 6.448-.886 10.604-1.446 3.324-2.063 6.83-2.469 14.015-.509 9.026-.681 9.729-2.973 12.122-4.106 4.285-7.878 5.111-35.225 7.718-.101.01-1.535 1.205-3.188 2.656-5.521 4.848-5.545 10.625-.122 29.331 3.163 10.91 2.961 13.896-1.537 22.768-4.742 9.352-5.737 15.839-3.274 21.344 3.834 8.572 11.432 11.54 44.443 17.358 20.139 3.55 32.951 6.714 44.929 11.095 27.074 9.904 24.736 9.29 35.413 9.3 8.2.007 10.614-.308 14.684-1.92 5.599-2.218 14.846-8.126 22.863-14.606 6.523-5.274 7.697-5.788 15.696-6.881 9.163-1.253 73.838.339 79.705 1.961 3.801 1.051 5.715 2.418 12.027 8.595 11.366 11.123 18.836 13.92 35.062 13.129 14.91-.726 21.481-3.859 38.843-18.522 12.196-10.3 20.096-15.415 36.267-23.484 28.922-14.431 36.406-20.85 34.634-29.708-1.238-6.189-6.569-10.97-22.405-20.094-6.874-3.961-11.85-9.193-13.078-13.752-.545-2.025-.514-4.925.092-8.579 1.517-9.143 1.373-20.453-.3-23.551-1.369-2.537-5.557-6.638-7.428-7.274-.555-.189-.413-1.801.395-4.484 2.669-8.853.831-27.003-5.235-51.692-9.269-37.726-16.812-51.394-51.744-93.766-15.09-18.303-21.748-28.819-24.838-39.227-2.393-8.059-3.867-21.321-5.234-47.072-.734-13.846-1.738-28.246-2.23-32-5.858-44.703-31.286-66.468-77.136-66.025-5.632.055-12.423.42-15.092.811m43.466 69.174c7.658 3.672 11.535 11.544 11.428 23.206-.09 9.907-3.281 19.34-6.542 19.34-1.655 0-1.597-.762.534-7.067 4.059-12.003-1.691-22.619-13.097-24.182C264.228 96.071 256 105.295 256 119.372c0 4.642.393 6.401 1.949 8.715 2.499 3.717 9.888 7.429 21.699 10.902 15.153 4.455 15.892 5.515 13.014 18.656-3.093 14.123-1.363 22.594 6.929 33.928 5.709 7.805 9.362 15.149 13.204 26.551 3.232 9.589 5.473 14.116 10.361 20.927 6.067 8.454 10.606 20.953 13.595 37.429 1.57 8.657 2.206 39.697.955 46.659-.758 4.223.959 6.749 3.968 5.837.986-.298 6.009-1.612 11.162-2.92 10.834-2.748 11.54-3.426 13.3-12.751 1.551-8.224 1.332-33.094-.366-41.459-2.16-10.644-.296-10.171 3.132.794 5.25 16.795 5.959 30.414 2.589 49.707-.363 2.074-.173 2.773.75 2.773.679 0 2.739 1.367 4.577 3.038l3.342 3.039-2.56-.534c-5.465-1.138-18.019-1.433-21.468-.503-4.712 1.271-11.299 5.782-13.723 9.399-1.075 1.606-2.191 4.39-2.478 6.187-.455 2.849-.817 3.267-2.819 3.267-8.168 0-16.034 5.66-18.018 12.965-1.477 5.437-.443 22.18 2.204 35.675 1.607 8.199 2.272 14.35 2.305 21.334.043 9.075-.159 10.343-2.694 16.853-1.507 3.872-3.036 7.04-3.397 7.04-.362 0-.156-2.592.457-5.76 1.186-6.128 1.392-15.459.419-18.987-.436-1.58-1.243-2.191-3.115-2.359-2.075-.185-3.745.86-9.353 5.853-16.803 14.963-30.754 21.786-51.494 25.187-14.542 2.384-26.483.598-35.198-5.267-3.651-2.457-4.675-2.808-5.556-1.906-.831.851-.87 2.01-.167 5.035 1.027 4.421.346 10.823-1.405 13.218-1.054 1.441-1.216 1.192-1.725-2.658-.855-6.471-2.729-11.818-7.414-21.154-3.299-6.573-4.013-8.661-3.136-9.171 14.867-8.656 15.79-25.409 2.193-39.786-5.228-5.527-14.681-12.793-39.553-30.4-20.697-14.651-22.967-16.625-25.981-22.58-1.744-3.447-2.077-5.475-2.273-13.852-.248-10.581.335-10.674 2.687-.426 1.877 8.176 5.037 13.018 10.722 16.426 5.07 3.041 7.353 3.402 9.87 1.564 1.542-1.126 1.694-2.766 2.197-23.68.44-18.283.865-23.836 2.28-29.8 4.131-17.41 9.078-28.316 18.932-41.737 10.777-14.678 15.195-21.686 17.214-27.307 1.81-5.034 1.981-6.826 1.853-19.413-.078-7.627.143-13.867.491-13.867.347 0 2.437 2.85 4.644 6.334 8.665 13.678 17.073 20.054 24.9 18.88 12.757-1.913 33.684-13.725 49.252-27.8 4.304-3.891 5.76-5.769 5.76-7.43 0-2.696-2.221-5.344-4.484-5.344-.913 0-8.206 2.912-16.207 6.47-17.788 7.911-25.479 10.903-32.644 12.699-6.179 1.55-8.308.98-12.304-3.298-2.536-2.714-1.894-3.577 1.723-2.316 1.502.524 3.748.952 4.99.952 3.328 0 20.196-5.861 33.799-11.745 6.545-2.831 15.235-6.183 19.31-7.45 7.747-2.409 9.594-3.693 10.492-7.295.776-3.107-2.28-6.79-5.632-6.79-3.033 0-6.517 1.681-8.858 4.273-2.382 2.637-9.3 5.962-21.758 10.457-19.602 7.072-28.772 8.07-36.798 4.003-8.352-4.232-18.669-14.133-18.669-17.918 0-1.626 3.199-4.679 8.96-8.552 2.347-1.577 7.523-5.761 11.503-9.299l7.236-6.431h6.844c5.793 0 7.603.373 11.783 2.426 6.491 3.187 7.758 2.7 6.848-2.633-1.267-7.419-.829-19.07.874-23.259 2.996-7.368 8.98-12.752 16.209-14.582 3.882-.983 10.655-.116 14.864 1.902m-65.485 4.36c1.551 1.056 3.524 2.88 4.384 4.053 1.873 2.554 3.333 9.71 2.674 13.103l-.473 2.436-1.867-3.716c-2.544-5.066-6.415-7.556-11.746-7.556-3.479 0-4.623.417-6.62 2.414-2.313 2.313-4.252 7.199-4.289 10.812-.044 4.15-1.509 3.922-2.545-.395-1.275-5.316-.656-9.903 2.057-15.249 3.678-7.245 12.363-10.028 18.425-5.902m-91.03 262.994c2.739 1.126 6.553 3.133 8.475 4.46 5.555 3.833 14.22 15.543 25.465 34.412 5.734 9.622 13.602 22.735 17.485 29.14 12.309 20.305 15.708 28.492 15.698 37.813-.011 9.99-3.807 15.502-12.394 17.998-8.975 2.609-19.438.835-45.824-7.768-15.425-5.028-28.892-8.223-49.921-11.842-17.754-3.054-20.71-3.918-20.71-6.051 0-.681 1.404-5.371 3.12-10.424 4.308-12.686 4.787-21.275 1.737-31.148-4.933-15.97-4.829-16.143 10.183-16.855 9.222-.437 11.604-.843 14.827-2.522 11.097-5.781 13.254-9.424 14.915-25.193.679-6.448 1.68-12.26 2.225-12.915 1.569-1.892 9.048-1.437 14.719.895m285.637 9.889c2.245 1.201 2.198 7.289-.124 16.248-2.01 7.755-1.746 11.533 1.28 18.284 2.682 5.983 8.452 11.392 20.678 19.384 6.964 4.552 10.537 7.403 10.537 8.408 0 2.114-5.126 6.125-12.297 9.62-3.328 1.623-11.618 5.656-18.423 8.963-9.426 4.582-14.986 8.006-23.341 14.378-23.313 17.781-27.403 19.99-37.101 20.046-4.325.025-6.375-.461-10.17-2.411-5.476-2.814-10.455-9.128-10.455-13.257 0-1.386 1.608-8.544 3.573-15.906 3.454-12.943 3.573-13.825 3.599-26.614.024-11.806-.314-14.996-3.146-29.703-4.535-23.549-4.229-26.62 2.648-26.613 2.903.002 3.255.283 4.673 3.733 5.002 12.164 19.696 18.866 36.464 16.629 11.145-1.486 22.51-9.305 27.368-18.828 1.83-3.587 1.887-3.619 4.237-2.361" fill-rule="evenodd"/></svg>