<svg xmlns="http://www.w3.org/2000/svg" width="512" height="512"><path d="M64.404 37.76c.296 2.933 8.169 93.399 17.495 201.036 9.325 107.636 17.162 195.909 17.415 196.163.729.729 154.361 44.557 156.259 44.577 1.837.02 156.355-43.819 157.11-44.575.25-.249 8.085-88.521 17.413-196.16s17.203-198.108 17.5-201.041l.54-5.333H63.864l.54 5.333m311.703 81.92c-.248 2.464-5.164 59.008-10.924 125.653-5.759 66.646-10.55 121.281-10.645 121.413-.095.132-22.267 6.555-49.272 14.273l-49.1 14.034-48.808-14.003c-26.845-7.702-49.006-14.2-49.246-14.44-.344-.344-6.965-71.96-7.051-76.263-.016-.829 5.307-1.067 23.834-1.067h23.854l.449 2.773c.247 1.526 1.076 10.262 1.841 19.414.766 9.152 1.511 16.77 1.657 16.929.146.16 12.36 3.714 27.143 7.899l26.877 7.61 26.302-7.324c14.467-4.029 26.415-7.436 26.551-7.572.136-.137 1.37-13.067 2.741-28.735s2.665-29.927 2.877-31.687l.384-3.2h-112.31l-.508-4.907c-.28-2.699-1.086-12.587-1.791-21.973-.705-9.387-1.479-18.507-1.719-20.267l-.437-3.2H320v-1.901c0-2.208 3.175-40.297 3.807-45.672l.427-3.627H232.09c-73.144 0-92.144-.22-92.146-1.067-.001-.586-.764-10.09-1.695-21.12-.931-11.029-1.698-21.493-1.704-23.253l-.012-3.2h240.026l-.452 4.48" fill-rule="evenodd"/></svg>