<svg xmlns="http://www.w3.org/2000/svg" width="512" height="512"><path d="M192 243.079v179.214l19.84 6.385c10.912 3.512 28.48 9.159 39.04 12.548 10.56 3.389 19.68 6.341 20.267 6.559.851.317 1.066-30.704 1.066-153.328 0-149.591.044-153.81 1.629-156.891 1.986-3.861 5.657-7.441 8.88-8.658 6.531-2.468 14.351.135 18.29 6.086l2.348 3.547.228 69.767.228 69.767 4.892 1.849c18.124 6.848 38.401 8.832 52.252 5.111 16.264-4.369 29.749-20.022 35.406-41.1 5.72-21.307 4.54-55.661-2.704-78.752-8.574-27.331-27.981-46.807-60.419-60.632-28.046-11.953-94.967-31.346-138.47-40.127l-2.773-.56v179.215m-69.12 55.499c-70.646 23.526-80.619 27.154-96.698 35.177C6.276 343.688-.794 351.314.278 361.699c.913 8.849 8.845 17.349 21.914 23.482 12.29 5.768 40.081 13.383 59.301 16.249 26.827 4 57.81 3.837 87.68-.461l6.614-.952v-20.809c0-17.074-.211-20.808-1.172-20.808-1.56 0-17.87 4.913-36.802 11.086-18.977 6.188-23.662 7.088-37.12 7.133-15.352.051-24.903-2.773-26.148-7.731-.765-3.049 1.939-6.173 7.879-9.103 4.527-2.232 57.915-20.315 83.336-28.226l10.027-3.121v-23.419c0-18.185-.239-23.411-1.067-23.384-.587.019-23.915 7.643-51.84 16.943m238.933 3.481c-5.397.386-15.765 1.905-23.04 3.375-12.6 2.547-48.911 11.545-50.464 12.505-.405.25-.736 11.227-.736 24.393v23.938l2.882-.541c1.585-.297 25.033-7.842 52.107-16.765 54.642-18.01 59.871-19.29 75.145-18.387 12.585.743 19.866 3.1 21.645 7.006 1.214 2.665.295 4.581-3.632 7.577-3.919 2.989-7.927 4.422-82.44 29.48L288 396.593l-.227 23.144c-.191 19.478-.036 23.143.979 23.143 1.828 0 124.819-42.055 166.501-56.933 30.61-10.926 40.778-16.073 49.674-25.145 14.808-15.103 5.928-31.171-23.513-42.543-18.845-7.279-38.879-12.334-59.134-14.921-12.329-1.575-46.287-2.293-60.467-1.279" fill-rule="evenodd"/></svg>