<svg xmlns="http://www.w3.org/2000/svg" width="512" height="512"><path d="m76.081 87.151-60.026 39.091 12.239 7.958c6.732 4.378 33.643 21.765 59.804 38.64 26.16 16.874 47.554 30.872 47.542 31.107-.012.234-26.884 17.883-59.716 39.219-32.831 21.336-59.41 39.06-59.062 39.387 1.872 1.765 118.474 77.838 119.306 77.838.545 0 27.735-17.422 60.422-38.715 45.893-29.896 59.185-38.936 58.354-39.686-.593-.534-26.997-17.786-58.677-38.337-31.68-20.552-58.086-37.817-58.679-38.366-.843-.781 11.96-9.469 58.628-39.783 32.839-21.331 59.709-38.976 59.711-39.211.003-.335-67.891-44.695-112.435-73.463l-7.385-4.769-60.026 39.09m240.264-.192c-32.711 21.399-59.472 39.1-59.469 39.334.009.679 118.742 77.085 119.785 77.083.758-.001 102.217-65.609 115.526-74.705l3.654-2.497-53.147-34.621c-29.231-19.042-56.236-36.619-60.011-39.061l-6.864-4.44-59.474 38.907m-.463 156.364c-48.071 31.295-58.946 38.713-58.027 39.579 2.245 2.115 117.006 77.489 117.981 77.489.799 0 116.848-74.969 119.359-77.107.626-.533-118.122-78.491-119.543-78.479-.337.003-27.233 17.336-59.77 38.518M195.975 346.374c-32.31 21.063-59.054 38.625-59.432 39.027-.545.583 116.358 77.497 118.852 78.196.756.212 120.061-77.22 120.011-77.89-.051-.672-118.161-77.203-119.493-77.428-.656-.11-27.628 17.033-59.938 38.095" fill-rule="evenodd"/></svg>