<svg xmlns="http://www.w3.org/2000/svg" width="512" height="512"><path d="M213.76 80.767c-1.408.165-6.208.714-10.667 1.221-67.632 7.694-158.119 57.885-190.511 105.671-18.887 27.862-16.484 52.558 7.65 78.626 9.843 10.632 23.846 20.802 54.008 39.223 8.683 5.303 17.466 10.784 19.518 12.18l3.731 2.538-16.531 8.244c-34.29 17.101-50.556 30.215-59.572 48.026-4.175 8.246-5.509 14.524-4.948 23.291 1.078 16.839 10.399 27.94 26.229 31.236 7.165 1.492 22.776.47 32-2.094 38.573-10.724 62.848-40.123 62.817-76.076-.008-9.37-.899-15.124-3.609-23.308-.981-2.963-1.648-5.511-1.483-5.662.475-.434 21.141-10.71 21.538-10.71.196 0-.177 1.771-.828 3.935-3.666 12.18-4.812 30.727-2.553 41.292 2.8 13.09 9.196 24.453 15.851 28.156 3.255 1.812 4.944 2.137 11.093 2.137 6.138 0 7.816-.322 10.908-2.093 5.148-2.947 11.533-11.956 19.684-27.773l1.76-3.414.047 5.12c.102 10.885 3.61 18.239 10.063 21.093 6.875 3.041 13.299.459 23.483-9.438 13.67-13.286 25.2-33.781 41.979-74.623 2.274-5.534 4.396-9.758 4.717-9.387.321.372 1.638 3.747 2.928 7.502 1.289 3.755 4.038 10.43 6.108 14.834 2.07 4.404 3.763 8.605 3.763 9.335 0 .73-6.285 7.686-13.968 15.459-14.517 14.688-20.121 22.039-21.759 28.546-1.592 6.323.811 9.983 7.58 11.542 19.605 4.518 51.695-9.543 58.887-25.803 2.305-5.21 3.217-12.327 2.385-18.613-.396-2.988-.735-8.324-.755-11.857-.064-11.663 5.619-24.995 17.478-41.001l5.048-6.813 3.235 9.856c1.779 5.421 4.618 12.488 6.308 15.705l3.073 5.849-5.328 5.014c-13.654 12.848-19.364 20.395-22.1 29.21-3.791 12.211-.36 21.616 8.782 24.078 2.995.806 4.686.66 10.835-.939 18.747-4.876 34.27-15.784 39.97-28.087 2.606-5.624 2.856-14.161.638-21.791-.79-2.716-1.122-5.247-.739-5.624.383-.377 4.678-1.494 9.544-2.483 34.818-7.072 69.034 1.477 81.031 20.248 7.582 11.862 5.013 22.605-7.599 31.779-3.248 2.362-5.906 4.858-5.906 5.546 0 .688.999 1.905 2.219 2.704 1.935 1.268 2.726 1.319 6.187.396 5.406-1.443 11.217-5.326 16.311-10.899 8.907-9.746 10.014-23.851 3.009-38.319-2.516-5.196-10.165-13.836-16.188-18.286-8.714-6.437-20.876-11.491-32.901-13.671-7.883-1.43-26.594-1.189-36.314.467-7.177 1.222-22.522 5.087-26.866 6.766-1.025.397-2.065-1.052-4.4-6.128-4.9-10.655-5.343-12.627-5.323-23.713.015-8.515.414-11.673 2.371-18.745 2.325-8.404 2.334-8.53.74-10.665-.887-1.188-3.108-2.611-4.935-3.163-7.647-2.308-23.776-.335-27.313 3.341-1.018 1.059-3.028 5.765-4.465 10.458-4.196 13.703-14.032 32.227-26.428 49.773-4.343 6.147-4.342 6.147-7.183-2.839-2.588-8.184-2.482-21.04.254-30.72 1.06-3.755 1.962-8.363 2.004-10.24.069-3.146-.185-3.54-3.233-5.029-6.661-3.252-24.488-2.138-28.941 1.809-4.611 4.086-9.868 14.862-18.89 38.72-6.063 16.033-18.81 45.475-23.493 54.264-2.031 3.813-5.193 8.6-7.025 10.637l-3.332 3.705.315-6.847c.288-6.255.839-8.066 6.356-20.907 6.85-15.943 8.771-21.817 8.771-26.814 0-7.477-5.385-12.781-12.806-12.612l-4.052.092-.384-6.989c-.452-8.242-2.501-12.943-7.204-16.53-2.619-1.997-4.135-2.437-9.299-2.698-7.196-.363-13.261 1.151-21.768 5.435-7.163 3.607-17.08 11.447-23.026 18.202-7.643 8.683-13.977 12.388-38.678 22.623l-13.537 5.609-4.81-3.69c-2.645-2.029-10.953-7.854-18.463-12.943-40.589-27.509-53.127-41.548-54.713-61.263-1.97-24.511 17.155-49.24 55.83-72.189 20.477-12.151 47.013-24.847 69.56-33.283 41.791-15.636 81.535-17.934 107.39-6.211 21.852 9.908 22.979 31.943 2.917 57.007-19.386 24.218-59.952 43.853-99.485 48.153-18.426 2.004-34.788-1.894-52.098-12.409-2.895-1.758-5.9-2.965-6.997-2.809-5.53.785-.128 14.062 9.316 22.896 8.863 8.292 19.615 12.717 35.267 14.515 30.645 3.522 81.711-11.409 115.788-33.854 15.677-10.326 31.948-29.597 37.799-44.77 10.902-28.269 8.621-46.005-8.054-62.646-5.285-5.274-8.654-7.773-14.628-10.852-13.172-6.788-29.269-11.393-46.852-13.404-7.123-.814-28.252-1.023-34.133-.338m.427 200.517c0 3.526-4.785 22.431-8.564 33.837-6.484 19.567-14.119 34.316-21.298 41.146-2.532 2.408-2.759 2.469-3.82 1.025-3.83-5.213-3.85-26.369-.037-39.383 3.827-13.065 11.647-25.943 19.249-31.7 3.603-2.729 10.942-6.296 12.976-6.307.822-.005 1.494.617 1.494 1.382m163.593 43.417c-.561 5.437-2.833 10.07-6.946 14.166-3.126 3.114-9.473 6.565-10.388 5.65-1.134-1.134 2.47-10.161 5.934-14.867 4.135-5.616 9.791-10.696 11.047-9.92.449.277.607 2.51.353 4.971m-266.541 14.712c.835 5.05.635 15.916-.383 20.865-4.421 21.494-29.159 43.549-48.989 43.677-9.404.06-13.002-3.771-12.155-12.945 1.213-13.153 12.732-27.452 33.036-41.01 7.993-5.337 24.24-13.787 26.51-13.787 1.015 0 1.611.964 1.981 3.2m194.333 8.592c-3.329 6.527-13.732 15.676-13.732 12.078 0-1.206 14.825-16.854 15.197-16.04.144.317-.515 2.1-1.465 3.962" fill-rule="evenodd"/></svg>