<svg data-name="Layer 1" xmlns="http://www.w3.org/2000/svg" viewBox="0 0 512 512"><path d="M24.32 34.023c-5.45 3.385-8.107 7.855-8.107 13.64 0 1.749 14.781 96.251 32.846 210.006C74.26 416.357 82.317 465.348 83.677 468.157c2.009 4.151 6.483 8.411 10.981 10.456 2.772 1.261 17.369 1.411 160.915 1.65 115.25.192 159.079.002 162.357-.703 4.911-1.057 8.937-3.928 10.939-7.8.748-1.446 9.315-53.731 20.431-124.699 10.529-67.214 19.378-123.648 19.664-125.408l.519-3.2h-72.181c-39.7 0-72.2.288-72.221.64-.022.352-4.169 25.6-9.216 56.107l-9.176 55.467H205.227l-12.804-73.814-12.804-73.813 147.844-.216c81.314-.118 147.844-.498 147.844-.842 0-.345 4.608-29.884 10.24-65.643 5.632-35.758 10.24-66.554 10.24-68.435 0-6.076-3.267-11.433-8.705-14.274-1.966-1.027-35.836-1.203-231.253-1.2-221.859.003-229.028.052-231.509 1.593" fill-rule="evenodd"/></svg>