<svg xmlns="http://www.w3.org/2000/svg" width="512" height="512"><path d="M179.269 120.728c-29.137 31.2-52.976 56.928-52.976 57.173 0 .245 44.092.446 97.981.446h97.98l49.86-53.483c27.423-29.415 51.332-55.143 53.132-57.173L428.518 64H232.244l-52.975 56.728M54.02 255.214C25.013 286.226 1.152 311.954.996 312.387c-.173.478 78.957.786 201.973.786h202.257l52.747-56.387c29.011-31.012 52.875-56.74 53.031-57.173.173-.478-78.973-.786-201.979-.786H106.761L54.02 255.214m85.927 131.424c-26.518 28.632-50.069 54.151-52.338 56.71L83.485 448H279.506l39.66-42.398c21.814-23.319 45.739-48.855 53.167-56.747l13.507-14.348-98.84.036-98.84.037-48.213 52.058" fill-rule="evenodd"/></svg>