<svg xmlns="http://www.w3.org/2000/svg" width="512" height="512"><path d="M182.613 64.427v32H95.546l.227 23.68.227 23.68 20.907.447c23.025.493 25.058.901 29.232 5.862 1.25 1.485 2.576 4.13 2.947 5.876.371 1.746.674 47.143.674 100.881 0 105.826.149 102.377-4.663 107.767l-2.447 2.74-19.057.427-19.058.426-4.014 22.187c-2.208 12.203-4.032 23.051-4.054 24.107l-.04 1.92h86.166l.223 31.786.224 31.787H224l.224-31.787.223-31.786H256v64h40.107v-64.634l7.893-.594c44.29-3.334 72.71-14.917 93.091-37.941 10.729-12.121 16.628-30.756 18.124-57.258.606-10.744-.63-26.34-2.74-34.56-4.96-19.328-22.985-35.873-47.876-43.945l-7.028-2.279 6.321-4.004c12.875-8.157 22.509-21.027 26.217-35.027 4.592-17.335 1.975-43.059-6.087-59.812-8.692-18.063-29.67-33.088-55.358-39.646-8.753-2.235-22.177-4.289-28.077-4.295l-4.48-.005v-64H256v64h-31.573v-64h-41.814v32M256 187.307v37.12h-31.573v-74.24H256v37.12m44.024-31.099c2.987 1.846 10.298 10.541 12.517 14.885 3.787 7.419 4.49 19.964 1.554 27.735-2.193 5.804-8.28 14.027-13.089 17.684-1.991 1.514-3.907 2.762-4.259 2.773-.352.012-.64-14.57-.64-32.405s.242-32.427.539-32.427c.297 0 1.817.79 3.378 1.755M256 317.013v44.8h-31.573v-89.6H256v44.8m53.024-39.312c15.792 6.785 23.211 16.019 25.423 31.641.94 6.641-.144 16.197-2.423 21.349-3.519 7.955-15.766 18.317-26.79 22.667-10.185 4.019-9.127 8.492-9.127-38.59v-41.071l2.891.469c1.59.258 6.102 1.849 10.026 3.535" fill-rule="evenodd"/></svg>