<svg xmlns="http://www.w3.org/2000/svg" width="512" height="512"><path d="M0 256.427v96h48.64v-66.405l24.533-.389c17.75-.282 25.695-.727 28.734-1.61l4.2-1.221 15.529-47.747 15.529-47.748-2.152-2.987c-8.416-11.68-21.459-19.499-37.614-22.547-5.931-1.119-14.746-1.346-52.267-1.346H0v96m212.47-53.974c-23.064 70.517-26.6 80.982-27.172 80.414-.303-.301-6.746-12.893-14.318-27.983l-13.766-27.436-12.9 39.339c-7.095 21.637-12.893 39.677-12.884 40.09.009.412 5.881 10.734 13.049 22.936L157.512 352l25.284.226 25.284.226 18.148-55.053c9.981-30.279 18.379-55.052 18.661-55.052.41 0 16.701 51.023 32.626 102.186l2.457 7.894h25.104c23.039 0 25.169-.123 25.894-1.494 1.063-2.009 76.923-189.428 76.923-190.046 0-.267-11.584-.384-25.742-.26l-25.742.226-26.195 61.334c-14.407 33.733-26.398 60.997-26.648 60.587-.322-.533-30.623-99.517-36.995-120.854-.408-1.367-2.135-1.493-20.401-1.493h-19.955l-13.745 42.026m214.196-10.393c-6.727 16.929-12.23 31.244-12.23 31.811 0 .566 4.259 12.923 9.464 27.46 5.206 14.536 9.59 27.005 9.743 27.709.238 1.102-2.679 1.339-21.006 1.707l-21.283.426-6.667 16.62c-3.668 9.141-6.884 17.301-7.148 18.134-.455 1.432 1.376 1.513 34.019 1.513h34.5l5.369 15.147c2.953 8.33 5.899 16.208 6.546 17.505l1.177 2.359 26.212-.225c22.773-.196 26.176-.394 25.938-1.506-.6-2.817-71.431-189.44-71.899-189.44-.277 0-6.008 13.851-12.735 30.78m-344.908 7.148c5.291 1.66 10.624 6.147 13.171 11.08 2.523 4.887 3.044 15.585 1.087 22.315-1.104 3.798-2.44 6.011-5.441 9.012-5.782 5.783-10.537 6.989-27.855 7.069l-13.653.063-.226-25.923-.226-25.923 14.306.442c9.886.306 15.705.882 18.837 1.865" fill-rule="evenodd"/></svg>