<svg data-name="Layer 1" xmlns="http://www.w3.org/2000/svg" viewBox="0 0 512 512"><path d="M58.788 33.66c-13.551 3.75-23.811 14.738-26.282 28.15-1.176 6.385-1.292 376.213-.12 384.318 2.031 14.046 12.694 26.818 26.921 32.245 4.144 1.58 9.71 1.634 193.706 1.863 129.679.162 191.29-.048 195.303-.664 14.137-2.169 24.435-11.061 29.699-25.645l1.985-5.5.236-190.294c.164-132.156-.043-192.118-.678-196.266-1.865-12.185-7.849-20.503-18.556-25.795l-6.513-3.219-195.885-.14c-156.475-.113-196.675.078-199.816.947M369.3 131.627c6.892 14.276 9.58 26.819 9.58 44.704 0 23.145-5.56 46.505-17.977 75.535-15.478 36.186-37.823 73.524-72.309 120.827l-10.732 14.72h-51.414c-28.278 0-51.616-.326-51.863-.726-.601-.973-41.716-247.632-41.336-247.987.303-.282 89.778-8.914 90.042-8.687.079.069 5.102 39.864 11.161 88.435l11.016 88.31 5.306-8.952c17.717-29.892 33.034-66.83 38.182-92.078 3.864-18.949 2.709-40.367-3.087-57.216-1.366-3.972-2.334-7.372-2.15-7.556.524-.524 77.397-16.185 79.925-16.282 2.009-.078 2.63.686 5.656 6.953" fill-rule="evenodd"/></svg>