<svg xmlns="http://www.w3.org/2000/svg" width="512" height="512"><path d="M235.52 32.957c-30.254 3.624-53.919 10.483-77.963 22.596-31.753 15.997-57.95 38.051-79.552 66.971-24.686 33.047-40.379 73.261-44.761 114.703-1.313 12.422-1.317 37.817-.007 49.493 4.928 43.92 21.234 83.921 48.7 119.467 13.569 17.561 37.429 38.963 57.583 51.651 10.282 6.473 31.474 16.795 40.961 19.95 8.059 2.681 11.299 2.683 15.579.01 4.057-2.534 4.473-5.074 4.473-27.27v-20.68l-4.053.593c-17.805 2.602-28.085 2.173-40.294-1.684-8.262-2.61-15.579-7.403-21.806-14.284-4.547-5.024-5.731-7.099-12.654-22.172-5.486-11.943-13.098-21.639-20.814-26.509-4.895-3.091-9.605-7.975-9.605-9.961 0-4.419 10.008-5.858 18.926-2.721 9.552 3.36 19.741 12.061 25.183 21.503 10.462 18.153 26.911 27.156 45.313 24.804 6.991-.894 14.45-2.876 18.311-4.865 1.559-.803 2.347-1.887 2.347-3.231 0-2.597 3.144-12.814 5.168-16.792.859-1.69 2.933-4.868 4.608-7.063 3.446-4.514 3.738-4.237-5.936-5.635-3.755-.542-11.067-2.076-16.248-3.409-41.397-10.647-63.971-33.721-72.653-74.262-2.625-12.254-3.714-39.478-2.007-50.134 2.246-14.02 8.288-28.509 16.32-39.136 2.169-2.87 4.186-5.61 4.482-6.089.297-.48-.273-3.892-1.265-7.583-1.436-5.345-1.808-9.231-1.827-19.085-.025-12.5.776-18.009 4.279-29.44l1.569-5.12 5.863-.255c11.085-.483 28.749 6.215 47.608 18.054 7.848 4.926 9.332 5.57 11.197 4.861 1.183-.45 7.07-1.773 13.083-2.94 29.041-5.637 60.446-5.063 87.945 1.609l8.32 2.018 7.68-4.955c17.65-11.386 33.76-17.87 46.187-18.589l7.787-.451 1.786 5.444c5.436 16.571 6.224 34.613 2.195 50.253l-1.431 5.556 4.7 6.247c5.251 6.981 10.659 17.372 13.393 25.735 6.603 20.197 5.607 54.001-2.286 77.619-4.952 14.817-12.294 26.575-22.947 36.75-14.538 13.884-33.08 22.065-60.558 26.719l-11.175 1.893 2.969 3.816c3.58 4.601 7.267 12.226 9.272 19.176 1.274 4.418 1.542 10.741 1.953 46.08.359 30.982.741 41.426 1.567 42.872 1.172 2.05 4.285 3.901 8.104 4.817 3.346.803 15.482-3.424 30.058-10.47 23.19-11.209 41.967-24.572 60.666-43.174 12.606-12.541 20.599-22.289 30.328-36.984 45.169-68.228 50.211-158.288 13.015-232.456-32.95-65.699-94.34-110.865-166.303-122.351-8.186-1.307-46.074-2.379-53.333-1.51" fill-rule="evenodd"/></svg>