<svg xmlns="http://www.w3.org/2000/svg" viewBox="0 0 512 512"><path d="M267.933 177.707c-.008 95.401-.348 165.53-.831 171.358-1.339 16.16-6.495 29.172-16.107 40.648-25.825 30.836-72.574 33.057-101.433 4.818-14.407-14.097-21.37-32.281-20.512-53.568.474-11.779 3.108-21.113 8.903-31.553 6.586-11.864 20.141-23.866 33.239-29.431 11.846-5.033 28.183-6.596 40.861-3.911 3.285.696 6.261 1.265 6.613 1.265.353 0 .641-18.781.641-41.736V193.86l-7.467-.624c-15.495-1.294-34.764.48-51.413 4.734-46.739 11.94-87.836 49.769-103.58 95.343-6.797 19.672-10.156 45.037-8.355 63.08 4.526 45.343 25.072 82.682 60.308 109.602 23.662 18.078 53.571 28.467 85.038 29.539 26.372.898 46.688-3.278 69.415-14.271 43.892-21.229 73.364-59.134 83.87-107.867l2.222-10.303.474-93.194.474-93.193 8.534 5.6c14.103 9.255 29.551 16.265 48.49 22.005 13.917 4.217 26.112 6.273 51.136 8.618l5.76.54v-82.056h-5.626c-10.953 0-32.37-5.75-45.091-12.107-27.213-13.599-49.827-39.991-58.796-68.62-2.443-7.799-4.833-22.474-4.833-29.676v-4.797h-81.92l-.014 161.494" fill-rule="evenodd"/></svg>