<svg xmlns="http://www.w3.org/2000/svg" width="512" height="512"><path d="M244.769 33.77c-2.188.673-40.204 22.946-84.48 49.494-84.561 50.703-86.718 52.139-91.491 60.909C63.838 153.286 64 149.5 64 256c0 107.443-.21 102.898 5.181 112.32 1.406 2.457 4.591 6.327 7.077 8.6 4.679 4.276 45.781 29.193 54.531 33.058 13.386 5.913 23.654 7.729 36.3 6.421 18.779-1.943 32.646-11.001 39.801-25.999 6.302-13.209 5.914-6.184 6.232-112.791.319-106.485.616-100.671-5.277-103.133-2.135-.892-6.353-1.249-14.751-1.248-13.844.002-17.066 1.028-18.753 5.972-.763 2.238-1.03 26.157-1.066 95.444-.054 103.074.347 96.293-5.942 100.435-4.49 2.957-9.349 3.464-15.991 1.666-4.099-1.11-11.26-4.907-26.843-14.232l-21.253-12.718.217-92.648.217-92.647 75.764-46.41c41.671-25.526 76.111-46.41 76.534-46.41.423 0 34.873 20.883 76.556 46.406l75.786 46.406v185.58l-75.093 44.818c-41.302 24.649-75.862 44.963-76.8 45.141-1.072.204-9.173-4.13-21.759-11.64-11.563-6.899-20.955-11.962-22.186-11.958-1.175.004-5.207 1.771-8.962 3.927s-10.074 5.238-14.044 6.848c-3.97 1.611-7.906 3.551-8.747 4.313-2.398 2.17-1.904 5.551 1.244 8.513 4.247 3.996 57.538 36.296 62.9 38.124 6.373 2.173 16.028 2.144 22.259-.067 7.087-2.515 163.061-96.1 168.596-101.159 2.494-2.279 5.685-6.155 7.091-8.612C448.21 358.898 448 363.443 448 256c0-106.5.162-102.714-4.798-111.827-4.773-8.769-6.931-10.206-91.469-60.896-49.471-29.663-82.163-48.756-84.848-49.553-5.431-1.613-16.803-1.589-22.116.046m42.147 132.719c-16.068 1.869-31.422 7.592-41.008 15.285-6.396 5.134-12.489 14.166-15.2 22.533-1.837 5.669-2.242 8.56-2.278 16.28-.128 27.238 12.717 41.669 44.016 49.448 4.8 1.193 17.943 3.332 29.207 4.753 22.185 2.799 32.545 4.911 39.33 8.017 6.713 3.073 8.03 4.937 8.03 11.357 0 14.593-8.816 21.109-31.72 23.446-17.826 1.819-36.827-1.032-46.102-6.917-4.755-3.017-8.719-9.363-10.15-16.248-2.116-10.183-3.749-11.136-19.079-11.136-12.429 0-15.229.917-17.199 5.631-.99 2.371-1.069 4.265-.394 9.543 1.861 14.562 6.688 24.754 16.297 34.414 14.87 14.949 39.574 22.139 72.068 20.976 40.738-1.459 65.617-17.264 73.553-46.728 2.035-7.552 2-23.275-.067-30.2-3.928-13.162-10.279-20.328-23.812-26.87-9.379-4.533-23.021-8.288-38.995-10.732-51.792-7.926-57.173-9.698-57.173-18.827 0-8.157 4.254-13.165 13.753-16.19 5.908-1.882 31.668-2.704 40.906-1.305 12.92 1.955 20.032 7.385 23.479 17.923 2.267 6.933 4.165 7.744 18.118 7.748 15.721.005 18.091-1.361 18.091-10.428 0-6.014-1.93-13.292-5.574-21.017-8.168-17.318-28.305-28.129-57.293-30.757-11.706-1.061-21.67-1.061-30.804.001" fill-rule="evenodd"/></svg>