<svg xmlns="http://www.w3.org/2000/svg" width="512" height="512"><path d="M287.303 167.64c-42.573 74.367-77.591 135.711-77.817 136.32-.227.608 21.993 40.467 49.377 88.573L308.652 480l51.855.22c49.458.21 51.837.149 51.456-1.307-.219-.839-22.207-39.887-48.861-86.772-26.653-46.884-48.638-85.92-48.854-86.745-.241-.921 29.359-53.603 76.707-136.523 42.404-74.262 77.226-135.342 77.383-135.734.156-.392-23.096-.712-51.673-.712h-51.957L287.303 167.64M65.707 112.558c0 .431 13.056 23.926 29.013 52.21 15.957 28.285 29.013 51.712 29.013 52.062 0 .35-17.853 30.389-39.674 66.753-21.821 36.364-39.91 66.73-40.198 67.48-.476 1.24 3.853 1.362 47.568 1.351 26.45-.008 48.524-.296 49.054-.64 1.08-.703 81.384-133.852 81.384-134.939 0-.382-13.344-24.078-29.654-52.658l-29.653-51.964-48.427-.22c-29.067-.132-48.426.093-48.426.565" fill-rule="evenodd"/></svg>