<svg data-name="Layer 1" xmlns="http://www.w3.org/2000/svg" viewBox="0 0 512 512"><path d="M235.947 32.932c-1.408.193-7.168.963-12.8 1.711-48.862 6.487-98.408 32.833-132.613 70.515-31.366 34.553-50.52 76.045-56.847 123.142-1.649 12.279-1.888 38.816-.464 51.593 8.494 76.203 54.711 142.457 123.364 176.847 48.826 24.458 107.746 29.77 161.261 14.54 73.331-20.871 132.561-80.101 153.432-153.432 11.412-40.098 11.412-83.598 0-123.696-21.639-76.032-84.084-136.34-160.73-155.231-19.434-4.79-27.785-5.782-51.137-6.076-11.498-.145-22.058-.105-23.466.087m-13.654 127.759c13.631 3.938 24.804 12.693 30.157 23.629 7.259 14.83 6.621 36.064-1.412 46.987-3.513 4.776-9.294 9.06-14.736 10.92l-4.622 1.578 4.616.998c13.68 2.956 21.624 11.327 25.751 27.133 2.269 8.692 2.424 25.551.313 34.125-3.584 14.559-12.628 25.687-26.132 32.155-14.897 7.134-12.035 6.856-73.881 7.173l-54.827.282V158.639l54.827.286c48.93.256 55.377.446 59.946 1.766m158.294 20.642v11.52h-77.654v-23.04h77.654v11.52m-230.4 31.574v20.906h27.179c28.867 0 31.179-.268 35.305-4.094 6.292-5.835 7.103-24.593 1.414-32.707-3.371-4.809-4.815-5.012-35.654-5.012h-28.244v20.907m213.76-4.348c10.165 2.79 18.93 7.723 25.566 14.388 12.626 12.681 18.131 27.749 19.01 52.04l.456 12.586h-97.747l.549 4.676c2.385 20.292 19.179 31.02 41.982 26.818 11.082-2.042 17.972-7.462 20.233-15.917l.971-3.63h32.323l-.534 6.321c-1.699 20.098-15.464 34.918-37.739 40.63-26.452 6.783-56.418 1.997-74.031-11.822-16.404-12.871-25.816-38.864-22.871-63.163 4.163-34.349 22.765-56.953 52.152-63.372 9.24-2.018 31.622-1.767 39.68.445m-29.501 26.373c-5.361 1.512-11.11 5.026-14.455 8.835-3.082 3.51-7.316 11.94-8.186 16.297l-.556 2.784 30.615-.224 30.616-.224-.275-3.396c-.428-5.291-3.2-12.196-6.525-16.254-4.604-5.619-10.944-8.366-20.011-8.672-4.185-.141-8.994.225-11.223.854m-184.259 52.641v24.747h28.024c29.605 0 33.064-.37 38.304-4.102 4.243-3.021 7.308-9.847 7.736-17.227.738-12.759-2.959-21.617-10.805-25.887l-4.184-2.277h-59.075v24.746" fill-rule="evenodd"/></svg>