<svg xmlns="http://www.w3.org/2000/svg" width="512" height="512"><path d="M162.133 64.954c-18.538.374-47.53 1.251-64.426 1.948-35.013 1.445-38.908 2.095-51.483 8.59-20.369 10.52-34.018 28.454-40.242 52.875-1.827 7.173-3.463 28.779-5.107 67.473-2.547 59.973.413 169.518 5.074 187.733 3.49 13.643 8.005 22.851 16.353 33.356 9.346 11.762 22.314 20.379 37.185 24.71 6.901 2.01 9.884 2.281 37.366 3.398 97.808 3.976 223.971 3.971 318.72-.012 31.059-1.306 36.733-2.167 47.512-7.211 21.947-10.269 38.751-32.402 43.774-57.654 2.347-11.795 5.14-81.383 5.121-127.573-.018-42.817-2.147-99.863-4.348-116.46-2.436-18.379-11.311-35.969-24.347-48.255-10.124-9.542-19.376-14.777-31.872-18.033-16.949-4.418-177.887-7.136-289.28-4.885m119.8 143.172c56.051 37.985 69.534 47.476 68.631 48.311-.954.882-134.089 91.174-140.857 95.529l-2.347 1.51V157.699l2.409 1.577c1.326.868 33.799 22.85 72.164 48.85" fill-rule="evenodd"/></svg>