<svg xmlns="http://www.w3.org/2000/svg" width="512" height="512"><path d="M230.114 33.73c-39.135 4.734-75.679 19.534-108.087 43.777-10.794 8.074-31.889 28.522-39.767 38.546-19.682 25.046-34.036 54.117-41.62 84.292-5.228 20.801-6.084 28.492-6.051 54.375.025 19.918.288 24.532 1.938 34.05 4.351 25.092 12.723 50.056 23.266 69.376 1.844 3.381 3.354 6.709 3.354 7.395 0 .686-6.942 26.467-15.426 57.29-8.485 30.823-15.237 56.23-15.007 56.461.231.231 26.314-6.332 57.962-14.583 31.648-8.251 58.121-15.002 58.828-15.002.708 0 5.663 2.069 11.011 4.598 68.319 32.303 147.899 28.386 211.849-10.427 51.004-30.956 86.923-79.683 101.169-137.244 14.667-59.263 3.683-123.485-29.684-173.56-9.973-14.967-17.185-23.833-28.805-35.408-36.12-35.98-81.692-58.139-131.567-63.973-13.183-1.542-40.464-1.523-53.363.037m48.948 37.132c59.605 7.329 111.544 42.353 140.271 94.589 31.757 57.748 30.2 128.153-4.078 184.326-33.747 55.304-93.79 88.848-159.008 88.834-31.292-.007-64.806-8.951-91.268-24.356-4.616-2.688-9.028-4.861-9.806-4.83-.778.031-16.435 3.978-34.795 8.769-18.36 4.792-33.617 8.478-33.903 8.192-.287-.287 3.59-15.463 8.615-33.725l9.136-33.205-6.833-11.688c-39.882-68.213-32.945-151.739 17.614-212.088 29.64-35.378 73.029-58.938 119.233-64.741 8.562-1.075 36.315-1.123 44.822-.077m-110.64 83.558c-8.645 4.959-18.937 19.802-22.403 32.311-6.117 22.073-.646 44.331 17.499 71.19 28.087 41.576 62.859 72.609 98.74 88.124 15.483 6.695 34.8 12.943 43.622 14.111 18.283 2.419 34.72-2.041 49.065-13.313 9.015-7.084 12.601-14.045 14.756-28.647 1.343-9.098.487-11.634-4.928-14.594-8.687-4.748-43.623-21.032-47.106-21.956-4.309-1.142-7.589.151-10.049 3.964-2.281 3.534-15.181 19.074-18.197 21.919-2.265 2.138-3.095 2.407-6.282 2.034-5.308-.62-22.525-9.057-33.937-16.63-16.121-10.699-34.029-29.725-44.776-47.572-4.449-7.388-4.179-9.147 2.572-16.749 7.252-8.167 10.429-12.759 11.983-17.32 1.503-4.412 2.145-2.38-9.874-31.239-9.18-22.043-11.16-25.802-14.358-27.259-1.087-.496-6.47-.897-11.962-.893-9.485.008-10.207.134-14.365 2.519" fill-rule="evenodd"/></svg>