<svg xmlns="http://www.w3.org/2000/svg" viewBox="0 0 512 512"><path d="M160.967 17.527c-17.017 3.414-30.972 11.096-42.826 23.575C103.487 56.529 96.19 74.779 96.19 96c0 40.162 28.134 72.459 69.125 79.35 5.763.969 6.129 1.127 2.792 1.208-6.117.149-17.572 3.25-25.184 6.817C113.766 197.039 96.079 224.501 96.15 256c.074 33.126 19.854 62.197 50.623 74.404 5.304 2.104 15.467 4.62 20.907 5.176 1.753.18.542.622-3.84 1.405-18.744 3.346-33.231 10.991-45.699 24.117C103.487 376.529 96.19 394.779 96.19 416c0 35.866 22.811 66.169 57.904 76.922 6.936 2.125 8.864 2.337 21.693 2.385 12.235.046 14.962-.203 20.817-1.898 30.163-8.737 51.465-31.612 57.78-62.049 1.486-7.16 1.6-13.083 1.682-87.467.075-67.932.252-78.899 1.191-73.813 3.152 17.069 11.037 31.611 23.598 43.524 7.652 7.257 14.419 11.829 23.006 15.541 11.486 4.966 18.611 6.434 31.499 6.491 14.337.064 23.104-1.897 35.531-7.948 27.967-13.616 44.942-40.693 44.942-71.688 0-31.626-17.599-58.961-46.756-72.625-7.612-3.567-19.067-6.668-25.184-6.817-3.337-.081-2.971-.239 2.792-1.208 40.966-6.887 69.125-39.212 69.125-79.35 0-21.245-7.564-39.998-22.321-55.333-10.046-10.44-22.87-18.051-37.222-22.091l-6.827-1.922-91.307-.151c-74.618-.124-92.377.063-97.166 1.024M321.28 177.471c-32.997 6.619-57.989 31.778-64.023 64.449-.983 5.324-1.111 2.055-1.18-30.08L256 175.787l36.48.072 36.48.072-7.68 1.54" fill-rule="evenodd"/></svg>