<svg xmlns="http://www.w3.org/2000/svg" width="512" height="512"><path d="M146.347 32.991c-27.76 3.612-54.804 16.86-74.935 36.71-15.373 15.156-26.061 32.142-32.581 51.776-3.633 10.94-5.301 19.137-6.385 31.389-1.145 12.935-1.145 193.333 0 206.268 2.315 26.155 10.822 48.483 26.381 69.239 7.675 10.239 22.801 24.074 34.697 31.734 10.98 7.072 29.533 14.498 43.129 17.263 13.348 2.715 26.175 3.042 119.347 3.042s105.999-.327 119.347-3.042c38.924-7.917 72.825-34.142 91.052-70.435 7.303-14.54 11.59-30.118 13.155-47.801 1.145-12.935 1.145-193.333 0-206.268-2.828-31.955-15.102-58.904-36.915-81.053-18.551-18.836-38.411-30.105-64.612-36.661l-8.96-2.242-110.08-.126c-60.544-.069-111.232.024-112.64.207M358.26 69.989c11.138 1.173 20.563 3.741 29.893 8.145 20.644 9.743 35.072 23.959 44.953 44.292 5.109 10.514 7.659 19.479 8.905 31.314 1.119 10.621 1.119 193.899 0 204.52-1.293 12.278-3.818 20.913-9.398 32.14-14.633 29.443-40.98 47.901-73.786 51.692-5.056.584-42.082.778-108.374.568-109.165-.346-102.974-.085-117.514-4.948-34.434-11.518-59.07-42.612-62.95-79.452-1.119-10.621-1.119-193.899 0-204.52 2.315-21.979 11.57-41.557 26.882-56.869 14.918-14.919 35.138-24.644 55.795-26.836 9.549-1.014 196.015-1.055 205.594-.046m12.46 37.424c-4.365 1.135-11.431 5.388-14.212 8.556-6.124 6.974-8.465 16.28-6.27 24.927 2.696 10.628 10.228 18.159 20.866 20.864 12.661 3.219 25.649-3.2 31.813-15.724 1.557-3.162 1.952-5.411 1.969-11.209.018-6.224-.315-7.937-2.343-12.068-2.753-5.605-8.532-11.268-13.94-13.66-4.177-1.848-13.777-2.753-17.883-1.686m-132.213 37.988c-11.671 1.937-20.067 4.684-31.574 10.329-30.14 14.786-50.75 40.034-59.561 72.963-2.505 9.362-2.628 10.599-2.675 26.88-.047 15.871.113 17.711 2.282 26.261 10.631 41.921 41.299 72.586 83.187 83.181 8.462 2.141 10.519 2.325 25.834 2.317 14.568-.008 17.649-.259 24.747-2.012 42.853-10.586 73.987-41.72 84.573-84.573 1.756-7.107 2.003-10.159 2.003-24.747s-.247-17.64-2.003-24.747c-10.753-43.532-43.238-75.365-86.707-84.966-8.264-1.825-31.372-2.336-40.106-.886m32.885 37.646c28.422 5.979 51.583 29.141 57.563 57.568.707 3.36 1.285 10.284 1.285 15.385 0 20.695-6.88 37.494-21.333 52.085-15.303 15.449-31.573 22.311-52.907 22.311-11.717 0-19.044-1.467-29.7-5.944-21.463-9.018-38.494-30.078-43.363-53.623-1.698-8.212-1.232-26.367.873-34.029 1.905-6.932 7.454-18.382 11.964-24.686 10.296-14.393 26.822-25.126 44.866-29.136 6.761-1.503 23.459-1.465 30.752.069" fill-rule="evenodd"/></svg>