<svg xmlns="http://www.w3.org/2000/svg" width="512" height="512"><path d="M65.649 35.192c3.222 5.595 110.138 203.826 110.138 204.205 0 .214-10.752.39-23.894.39H128v48.64l36.907.013 36.906.013 7.04 15.206 7.04 15.205v17.349H128V384H215.879l.221 48 .22 48 39.893.222 39.894.222V384H384v-47.787h-87.893l.015-8.746.015-8.747 7.18-14.933 7.18-14.934 36.752-.222 36.751-.222v-48.622h-23.985c-18.86 0-23.888-.228-23.532-1.067.249-.587 25.348-47.147 55.775-103.467l55.321-102.4-39.256-.222c-21.591-.122-39.64-.072-40.11.111-.469.183-25.813 49.71-56.32 110.06-30.506 60.35-55.658 109.727-55.893 109.727-.235 0-25.423-49.427-55.974-109.838L144.48 32.853l-40.216-.221-40.216-.222 1.601 2.782" fill-rule="evenodd"/></svg>