<svg xmlns="http://www.w3.org/2000/svg" width="512" height="512"><path d="M405.291 48.66c-15.722 2.421-27.985 11.653-37.057 27.896-.056.101-20.244-3.794-44.861-8.654-25.12-4.96-44.974-8.495-45.249-8.057-.269.43-7.324 24.868-15.678 54.308-8.354 29.44-15.55 53.757-15.992 54.038-.442.281-5.675.754-11.629 1.052-41.103 2.055-85.183 15.278-119.004 35.7l-8.339 5.035-2.754-2.068c-3.836-2.881-12.149-6.934-17.446-8.506-23.483-6.972-50.168 3.711-63.236 25.314-7.106 11.748-9.746 28.484-6.585 41.756 3.075 12.913 10.521 24.493 20.815 32.372l5.422 4.15-.129 11.409c-.301 26.541 7.664 49.193 25.285 71.917 39.828 51.36 121.272 82.242 203.573 77.191 55.486-3.405 102.945-19.43 139.733-47.182 27.79-20.964 45.494-45.635 53.055-73.93 2.429-9.087 2.706-11.424 2.957-24.917l.276-14.889 5.525-4.137c22.38-16.76 28.521-49.203 13.981-73.862-4.49-7.613-13.688-16.286-21.607-20.373-8.629-4.453-13.985-6.024-22.834-6.696-11.954-.909-27.178 3.438-36.233 10.344l-2.762 2.107-8.766-5.303c-31.206-18.876-68.985-30.811-110.544-34.924-8.939-.885-10.411-1.237-10.057-2.407.228-.754 5.048-18.075 10.712-38.491 5.663-20.416 10.446-37.55 10.628-38.077.224-.648 10.47 1.067 31.76 5.317 17.286 3.451 32.293 6.481 33.349 6.734 1.45.346 1.92 1.071 1.92 2.959 0 4.374 4.108 15.63 7.704 21.112 6.945 10.584 18.359 18.871 30.265 21.972 6.51 1.695 17.965 1.685 24.555-.023 17.909-4.641 32.206-18.985 36.873-36.995 1.773-6.845 1.767-18.049-.014-24.951-6.45-24.997-32.28-42.143-57.612-38.241m16.483 27.777c4.873 1.661 11.172 7.088 13.665 11.774 1.505 2.83 1.874 4.948 1.877 10.776.003 8.177-1.085 11.043-6.263 16.499-8.641 9.103-22.951 9.862-32.46 1.723-5.6-4.793-8.15-10.494-8.15-18.222 0-5.287.399-7.163 2.291-10.785 5.566-10.65 17.783-15.6 29.04-11.765M281.723 196.281c54.294 5.332 100.389 24.643 130.249 54.565 22.274 22.32 32.558 48.377 29.324 74.294-2.497 20.005-11.374 37.369-27.856 54.486-27.151 28.196-68.118 47.205-118.187 54.838-11.808 1.8-16.063 2.012-39.68 1.981-22.682-.029-28.097-.293-37.984-1.849-49.453-7.785-87.778-24.856-115.502-51.446-41.291-39.602-42.508-90.225-3.147-130.878 29.003-29.954 74.257-49.729 127.193-55.581 12.145-1.342 43.725-1.575 55.59-.41m-201.51 29.007c5.729 1.633 5.746 1.954.405 7.364-10.732 10.871-17.78 20.495-24.753 33.804l-4.362 8.324-1.809-1.926c-.995-1.059-2.879-4.229-4.186-7.043-2.02-4.347-2.375-6.209-2.362-12.371.012-6.098.378-8.002 2.294-11.957 3.661-7.557 10.938-13.931 18.56-16.258 3.133-.957 12.769-.919 16.213.063m373.619 2.539c5.952 3.18 10.171 7.726 13.138 14.161 1.571 3.405 1.93 5.651 1.904 11.879-.028 6.701-.343 8.3-2.468 12.552-1.34 2.679-3.291 5.676-4.337 6.658l-1.901 1.786-1.468-3.671c-4.1-10.257-15.015-25.946-26.575-38.2-3.116-3.303-5.523-6.011-5.348-6.018.174-.007 1.852-.589 3.73-1.292 2.328-.873 5.72-1.194 10.666-1.01 6.322.234 7.948.64 12.659 3.155m-273.469 29.059c-5.601 1.109-13.467 5.533-17.97 10.108-17.256 17.529-12.352 46.103 9.79 57.046 6.335 3.131 6.745 3.213 15.951 3.213 8.98 0 9.734-.14 15.216-2.839 14.365-7.072 22.594-22.564 20.126-37.891-3.282-20.377-22.646-33.689-43.113-29.637m134.731.376c-14.245 4.015-24.284 15.071-26.57 29.261-2.468 15.327 5.761 30.819 20.126 37.891 5.482 2.699 6.236 2.839 15.216 2.839 9.192 0 9.625-.086 15.898-3.187 22.21-10.977 27.083-39.558 9.747-57.171-8.656-8.793-23.077-12.829-34.417-9.633M176.098 368.797c-5.404 5.3-7.991 8.46-7.991 9.76 0 4.074 16.845 16.836 32 24.244 35.837 17.519 75.949 17.519 111.786 0 15.155-7.408 32-20.17 32-24.244 0-2.329-15.183-17.597-17.499-17.597-.834 0-3.558 1.744-6.053 3.875-10.816 9.241-26.762 17.274-41.609 20.961-9.021 2.24-26.881 3.059-36.394 1.668-17.289-2.528-35.142-10.146-48.05-20.503-4.114-3.3-8.091-6.001-8.839-6.001-.747 0-4.955 3.527-9.351 7.837" fill-rule="evenodd"/></svg>