<svg xmlns="http://www.w3.org/2000/svg" width="512" height="512"><path d="M235.947 32.932c-1.408.193-7.168.963-12.8 1.711-56.679 7.525-111.517 40.336-146.761 87.81-29.4 39.601-44.107 84.078-44.16 133.547-.038 35.519 7.085 66.273 22.827 98.56 10.812 22.175 25.467 42.588 43.256 60.253 41.734 41.443 98.614 64.858 157.691 64.913 71.325.066 136.975-32.891 179.633-90.179 29.268-39.307 44.077-84.258 44.134-133.974.052-43.907-12.686-86.361-36.739-122.453-10.1-15.155-17.235-23.908-29.209-35.833-33.604-33.466-76.155-54.674-125.992-62.795-7.954-1.297-45.56-2.427-51.88-1.56m43.002 54.644c47.828 6.216 92.24 33.92 118.826 74.125 33.205 50.215 37.72 113.109 11.947 166.406-4.633 9.58-13.878 25.462-15.353 26.373-.362.224-53.981-52.917-119.154-118.092L156.719 117.89l6.761-4.353c35.412-22.803 73.638-31.397 115.469-25.961m-7.589 8.934c-6.371 1.227-15.898 6.465-20.956 11.523-12.475 12.475-15.923 33.339-8.234 49.834 3.215 6.897 11.428 14.755 19.152 18.324 3.444 1.591 8.102 3.357 10.352 3.923 3.571.899 4.023 1.258 3.565 2.831-3.746 12.852-1.854 22.827 5.905 31.122 6.826 7.298 9.412 7.97 33.736 8.774 22.704.751 31.831 1.758 37.12 4.096 5.036 2.226 6.423 4.281 7.474 11.074l.936 6.042h7.478c4.113 0 7.66-.295 7.883-.655.223-.361.064-3.695-.352-7.409-1.689-15.06-9.464-22.985-26.029-26.529-4.791-1.026-13.277-1.624-28.963-2.042-24.55-.655-26.442-1.058-29.101-6.201-2.226-4.303-1.275-13.44 2.089-20.073 2.97-5.858 3.141-6.85 1.72-9.969-1.265-2.777-5.01-4.437-11.599-5.141-2.925-.313-7.503-1.32-10.172-2.239-14.269-4.909-19.929-13.2-18.84-27.599.563-7.445 3.079-13.243 7.688-17.715 3.031-2.942 10.826-6.694 13.905-6.694 1.063 0 1.239-1.33 1.035-7.825-.135-4.32-.628-7.906-1.099-8.008-.469-.101-2.581.149-4.693.556m23.893 22.314v8.087l5.463.56c15.105 1.547 21.817 8.161 21.836 21.512.009 6.836-2.163 16.284-5.452 23.71-1.221 2.757-2.22 6.237-2.22 7.732 0 3.063 2.471 6.22 5.357 6.845 1.043.226 10.161.518 20.263.65l18.366.24 5.705 2.809c12.738 6.273 17.686 17.224 19.075 42.219l.603 10.865h15.964l-.003-4.48c-.005-8.097-1.787-23.734-3.442-30.205-4.272-16.703-14.51-28.951-28.891-34.565-3.963-1.546-7.198-1.951-18.864-2.361-11.561-.407-14.033-.713-13.817-1.711.145-.668.835-3.356 1.534-5.973 1.849-6.928 2.44-18.402 1.244-24.145-3.596-17.253-16.007-26.879-37.814-29.326l-4.907-.55v8.087m-58.241 156.162c64.886 64.884 117.975 118.269 117.975 118.632 0 1.167-13.822 9.714-23.483 14.523-41.542 20.675-84.917 23.736-129.393 9.131-43.657-14.336-78.205-44.582-98.922-86.605-9.962-20.209-15.443-40.636-16.941-63.136-2-30.047 3.728-58.833 17.03-85.577 5.575-11.212 13.926-24.941 15.17-24.941.324 0 53.678 53.088 118.564 117.973m-125.225 4.907v23.894h129.268l-23.882-23.894L193.291 256h-81.504v23.893m222.72-7.253c9.143 9.152 16.915 16.64 17.271 16.64.357 0 .649-7.488.649-16.64V256h-34.544l16.624 16.64m25.6 7.253v23.894h16.213V256h-16.213v23.893m23.893 0v23.894h16.213V256H384v23.893" fill-rule="evenodd"/></svg>