<svg xmlns="http://www.w3.org/2000/svg" width="512" height="512"><path d="M233.752 33.682c-27.988 4.557-54.596 17.096-72.281 34.061-14.9 14.294-23.793 29.719-28.95 50.213l-2.108 8.377 1.65 3.18c2.886 5.562 4.289 5.944 30.577 8.325 13.097 1.187 25.816 2.186 28.264 2.221 6.188.088 9.918-2.321 11.787-7.613 5.02-14.217 9.359-20.995 17.615-27.521 5.913-4.674 9.808-6.569 17.63-8.577 7.415-1.904 20.334-2.274 27.027-.774 10.276 2.303 20.28 10.329 25.271 20.275l2.886 5.751.266 21.412.265 21.412-14.772.534c-35.401 1.28-79.072 9.556-97.546 18.486-21.598 10.44-40.555 29.174-51.408 50.803-15.466 30.82-13.477 66.92 5.289 95.993 9.106 14.107 18.167 21.97 33.9 29.416 24.203 11.456 52.128 12.006 81.982 1.615 18.051-6.284 30.382-14.046 45.512-28.649l7.755-7.485 2.843 4.045c5.31 7.553 15.084 19.378 22.551 27.283 7.872 8.334 11.178 10.164 16.453 9.109 1.642-.328 10.108-6.891 23.796-18.444 29.797-25.151 27.647-22.972 27.647-28.023 0-3.95-.56-5.065-8.237-16.393-8.973-13.239-11.232-17.674-14.117-27.722-1.884-6.562-1.905-7.289-2.421-84.699-.38-56.951-.801-79.119-1.554-81.92-8.244-30.656-22.997-48.355-51.597-61.901-9.889-4.684-23.95-9.407-34.585-11.617-10.915-2.267-40.519-2.944-51.39-1.173M293.385 233.6l-.275 25.387-2.819 8.106c-5.189 14.919-13.964 27.606-25.36 36.662-7.531 5.985-12.403 7.716-21.673 7.702-10.874-.018-20.519-3.633-28-10.497-7.11-6.524-11.311-19.391-11.311-34.645 0-13.048 2.116-21.033 7.844-29.597 10.316-15.423 26.308-24.564 46.769-26.731 13.789-1.46 14.273-1.492 25.017-1.637l10.084-.137-.276 25.387m126.882 136.29c-12.89 2.508-33.217 11.127-35.736 15.153-1.974 3.155.299 3.499 12.866 1.945 8.262-1.021 16.107-1.372 25.93-1.159 15.875.343 17.817.969 20.123 6.489 1.175 2.812 1.127 3.737-.586 11.24-2.372 10.389-6.971 24.751-10.763 33.612-5.254 12.275-2.712 13.984 6.816 4.579 14.533-14.346 23.506-33.905 24.927-54.336.453-6.505.3-7.644-1.483-11.044-3.282-6.259-6.189-7.223-22.463-7.45-8.799-.123-15.783.223-19.631.971m-371.251 4.255c-.846 1.29-1.147 2.797-.786 3.934.973 3.066 29.114 30.63 40.689 39.855 40.444 32.231 88.814 54.209 131.91 59.936 58.435 7.765 123.321-6.428 169.472-37.07 12.931-8.586 20.366-14.487 30.594-24.282 8.22-7.872 8.981-9.76 5.384-13.357-3.053-3.052-5.883-2.65-15.901 2.26-33.07 16.206-72.608 29.308-105.325 34.901-39.373 6.731-104.777 1.577-140.084-11.04-36.499-13.043-68.054-28.94-100.304-50.532-10.804-7.234-13.422-8.004-15.649-4.605" fill-rule="evenodd"/></svg>