<svg xmlns="http://www.w3.org/2000/svg" width="512" height="512"><path d="M239.787 51.2c0 10.325-.173 18.773-.383 18.773-.211 0-4.915.589-10.454 1.308-53.023 6.884-90.337 32.682-103.471 71.537-4.494 13.295-5.533 20.074-5.513 35.955.022 16.339 1.535 25.494 6.209 37.547 10.085 26.01 32.499 46.23 64.118 57.841 4.459 1.638 17.419 5.421 28.8 8.407l20.694 5.43v97.709l-1.92-.013c-3.199-.021-12.453-2.441-18.45-4.824-18.523-7.36-31.6-22.22-34.511-39.213l-.933-5.444h-72.186l.007 1.92c.019 5.33 1.982 18.174 3.863 25.276 8.256 31.178 32.171 55.641 67.177 68.715 14.721 5.497 31.177 9.045 52.029 11.218l4.89.51.23 18.074.23 18.074h31.574l.426-18.328.427-18.329 9.813-.975c42.637-4.238 76.597-19.866 96.078-44.214 26.435-33.041 28.84-87.81 5.387-122.703-8.074-12.012-23.816-24.725-40.417-32.639-14.085-6.715-21.622-8.997-58.914-17.831l-11.947-2.83-.221-45.796-.22-45.795h2.857c4.7 0 15.683 3.181 21.286 6.166 12.458 6.636 20.608 18.111 22.78 32.075l1.087 6.986h71.471v-5.026c0-5.401-1.84-16.388-4.017-23.988-10.176-35.524-40.927-61.512-85.156-71.966-7.118-1.682-26.618-4.834-29.911-4.834-.21 0-.383-8.448-.383-18.773V32.427h-32.426V51.2m0 122.027c0 27.531-.299 42.666-.843 42.666-2.362 0-18.252-5.687-23.416-8.38-17.831-9.301-26.111-26.709-21.367-44.923 1.875-7.199 5.238-12.942 10.794-18.439 7.574-7.492 21.025-13.32 31.205-13.52l3.627-.071v42.667m47.786 123.903c23.892 6.229 37.506 18.733 40.213 36.93 1.107 7.445.119 16.286-2.639 23.624-3.594 9.558-13.388 18.701-24.573 22.936-6.303 2.387-19.11 5.061-24.307 5.075l-4.054.012V294.24l4.48.61c2.464.336 7.36 1.362 10.88 2.28" fill-rule="evenodd"/></svg>