<svg xmlns="http://www.w3.org/2000/svg" width="512" height="512"><path d="M163.471 33.734c-12.346 3.388-24.861 13.563-30.149 24.511-4.044 8.373-5.295 14.791-5.309 27.244L128 96.311l-30.507.281-30.506.281-6.827 2.386c-9.836 3.438-17.85 8.476-25.244 15.87-7.391 7.392-12.432 15.404-15.882 25.244L16.64 147.2v281.6l2.396 6.827c3.569 10.168 8.484 17.883 16.31 25.6C46.539 472.263 58.08 477.73 74.05 479.56c10.156 1.163 353.744 1.163 363.9 0 15.97-1.83 27.511-7.297 38.704-18.333 7.83-7.721 12.752-15.445 16.312-25.6l2.394-6.827V147.2l-2.394-6.827c-3.45-9.84-8.491-17.852-15.882-25.244-7.394-7.394-15.408-12.432-25.244-15.87l-6.827-2.386-30.506-.281L384 96.311l-.013-10.822c-.007-6.503-.514-12.949-1.269-16.151-4.041-17.141-17.608-31.132-34.564-35.644-6.7-1.783-178.175-1.746-184.683.04M341.97 65.313c7.704 3.219 9.603 7.34 9.603 20.84v10.274H160.427V86.153c0-10.811 1.016-14.603 4.841-18.062 4.58-4.142 1.91-4.022 90.546-4.058 72.826-.029 83.4.128 86.156 1.28m-80.194 128.008c3.776 1.577 6.676 4.154 8.598 7.639 1.236 2.239 1.445 6.865 1.671 36.907l.258 34.346h33.696c31.96 0 33.867.088 37.026 1.699 1.831.934 4.408 3.113 5.726 4.84 2.115 2.774 2.396 3.864 2.396 9.316 0 5.599-.241 6.47-2.582 9.363-5.252 6.489-4.362 6.356-42.374 6.356h-33.888l-.258 34.346c-.28 37.19-.232 36.805-5.096 41.346C264.333 381.922 259.3 384 256 384s-8.333-2.078-10.949-4.521c-4.864-4.541-4.816-4.156-5.096-41.346l-.258-34.346h-33.606c-21.67 0-34.46-.323-36.009-.908-5.753-2.174-9.655-8.153-9.655-14.796 0-6.787 2.665-11.145 8.712-14.246 2.955-1.515 5.419-1.624 36.862-1.624h33.696l.258-34.346c.226-30.042.435-34.668 1.671-36.907 4.139-7.503 12.704-10.75 20.15-7.639" fill-rule="evenodd"/></svg>