<svg xmlns="http://www.w3.org/2000/svg" width="512" height="512"><path d="M404.743 34.961c-4.317 2.181-6.883 4.495-14.031 12.654-23.05 26.312-48.656 49.674-72.419 66.071-11.008 7.597-27.449 16.905-35.811 20.276-11.467 4.622-10.269-5.656-10.269 88.054 0 77.785.064 81.11 1.616 84.151 2.277 4.462 3.305 5.194 16.997 12.106 31.703 16.005 64.08 42.547 97.923 80.276 5.662 6.313 11.576 12.342 13.142 13.399 8.993 6.072 24.539 4.879 34.323-2.633 5.043-3.871 8.123-8.025 10.079-13.589 1.648-4.69 1.707-7.039 1.707-68.347 0-49.791.23-63.665 1.067-64.301.586-.446 2.899-1.488 5.139-2.316 32.596-12.045 34.612-57.648 3.181-71.943a834.358 834.358 0 0 1-6.827-3.136l-2.133-1.001-.427-64.84-.427-64.84-2.809-5.705c-3.082-6.259-7.441-10.576-14.257-14.121-3.502-1.82-5.72-2.278-12.374-2.551-7.709-.317-8.365-.202-13.39 2.336M72.107 145.016c-3.142.77-10.486 4.587-12.8 6.652-6.869 6.13-10.197 13.185-11.434 24.243-.688 6.143-1.191 7.517-4.603 12.56-8.256 12.204-11.04 21.164-11.04 35.529 0 14.365 2.784 23.325 11.04 35.529 3.433 5.074 3.913 6.395 4.621 12.72 1.703 15.222 9.116 25.496 21.55 29.866 5.36 1.884 19.84 2.359 22.847.75 4.165-2.229 4.139-1.734 4.139-78.865s.026-76.636-4.139-78.865c-1.908-1.021-16.16-1.105-20.181-.119m58.387 1.692L128 149.202v155.34c0 153.826.017 155.385 1.725 159.853 2.942 7.696 8.633 12.663 16.952 14.794 4.544 1.164 9.831 1.324 34.939 1.059 28.28-.299 29.797-.397 34.407-2.231 13.483-5.36 22.319-19.12 20.912-32.564-.619-5.918-7.13-25.084-14.934-43.96-3.299-7.978-7.001-17.962-8.228-22.186-2.49-8.578-5.183-24.407-4.468-26.27.259-.677 2.205-1.45 4.408-1.752 9.354-1.282 18.883-8.746 23.36-18.299l2.287-4.879.225-89.728.225-89.728-2.637-2.219-2.637-2.219H132.989l-2.495 2.495" fill-rule="evenodd"/></svg>