<svg xmlns="http://www.w3.org/2000/svg" width="512" height="512"><path d="M241.92 48.669c-64.561 4.115-123.152 38.433-159.962 93.693-26.292 39.469-38.649 92.321-32.455 138.811 6.326 47.479 26.376 88.354 59.673 121.651 33.526 33.526 73.443 53.027 122.504 59.846 4.224.587 15.168 1.068 24.32 1.068 9.152 0 20.096-.481 24.32-1.068 49.001-6.811 88.952-26.339 122.482-59.868 33.529-33.53 53.057-73.481 59.868-122.482 1.376-9.9 1.376-38.74 0-48.64-6.778-48.766-26.328-88.904-59.45-122.057-11.819-11.831-20.651-19.077-33.662-27.617-37.561-24.655-81.952-36.249-127.638-33.337m-75.626 79.815c2.699 1.08 22.048 21.788 100.497 107.555 53.436 58.42 98.02 107.799 99.076 109.731 4.824 8.825-.016 19.969-9.748 22.44-4.642 1.178-9.533.395-13.015-2.085-4.189-2.982-195.881-213.323-197.375-216.576-5.932-12.914 7.233-26.4 20.565-21.065m104.274 1.983c11.33 3.585 22.052 12.551 27.574 23.058 5.41 10.297 5.618 12.32 5.632 54.832.007 20.964-.22 38.724-.505 39.467-.285.742-1.046 1.349-1.691 1.349-.644 0-20.588-21.342-44.318-47.428-36.364-39.973-43.057-47.719-42.584-49.28 1.633-5.385 11.73-15.259 19.564-19.131 3.554-1.756 10.404-4.091 14.08-4.798 4.489-.863 16.792.204 22.248 1.931m-85.887 80.355c1.76 1.191 3.99 3.895 5.2 6.306 2.02 4.024 2.12 4.937 2.132 19.626.014 17.778.973 23.205 5.72 32.385 3.934 7.605 16.856 20.795 24.987 25.504 8.961 5.189 20.088 8.353 31.36 8.917l9.599.48 11.094 12.184c6.102 6.7 11.094 12.582 11.094 13.069 0 1.296-2.692 2.529-8.287 3.798l-4.94 1.121-.242 9.107-.242 9.108h9.884c12.705 0 16.546 1.689 20.224 8.895 3.721 7.292.244 17.253-7.296 20.903-3.751 1.816-4.394 1.841-40.014 1.597l-36.202-.249-2.999-2.056c-9.539-6.539-10.029-19.376-1.004-26.268 3.005-2.294 3.605-2.408 14.116-2.677l10.978-.282-.241-8.99-.242-8.991-6.241-1.583c-35.809-9.084-64.773-37.188-71.343-69.223-1.806-8.803-1.935-42.024-.179-46.144 1.321-3.1 4.019-5.819 7.79-7.852 3.738-2.015 11.338-1.362 15.294 1.315m157.761-1.226c3.908 1.979 5.669 3.711 7.581 7.459 1.563 3.063 1.661 4.744 1.383 23.893-.268 18.493-.503 21.322-2.301 27.671-2.553 9.016-8.602 21.088-10.566 21.088-.791 0-6.09-5.136-11.774-11.413-7.95-8.778-10.244-11.831-9.934-13.227.222-.997 1.026-4.102 1.786-6.9 1.044-3.839 1.383-8.991 1.383-21.022 0-15.747.028-15.99 2.359-20.452 1.764-3.377 3.303-5.014 6.107-6.497 4.438-2.347 10.05-2.588 13.976-.6m-114.203 55.482c10.106 11.094 18.374 20.55 18.374 21.013 0 1.399-5.134-.024-11.694-3.239-10.805-5.296-19.79-15.275-23.783-26.412-2.353-6.563-3.274-11.533-2.135-11.533.475 0 9.133 9.077 19.238 20.171" fill-rule="evenodd"/></svg>