<svg xmlns="http://www.w3.org/2000/svg" width="512" height="512"><path d="M163.213 36.268c-36.269 17.137-69.417 46.046-91.984 80.221-33.726 51.074-46.563 115.467-35.017 175.649 8.759 45.657 32.573 89.548 66.296 122.19 47.007 45.498 110.865 69.298 175.027 65.231 61.039-3.868 114.936-28.222 155.995-70.487 12.056-12.41 17.382-18.987 26.81-33.104 7.342-10.994 18.693-32.87 19.521-37.621 1.222-7.011-4.178-15.449-11.234-17.555-4.495-1.341-7.712-.708-21.059 4.147-20.284 7.376-41.59 10.669-69.541 10.748-21.733.06-32.194-1.153-50.774-5.89-77.355-19.723-135.181-82.494-148.452-161.148-5.716-33.877-1.764-78.166 9.674-108.429 3.828-10.128 4.223-13.377 2.212-18.19-1.693-4.053-3.489-5.992-7.4-7.987-5.323-2.717-10.929-2.096-20.074 2.225" fill-rule="evenodd"/></svg>