<svg xmlns="http://www.w3.org/2000/svg" width="512" height="512"><path d="M241.493 48.632c-34.755 2.385-69.692 14.113-98.56 33.086-14.348 9.431-22.253 15.895-34.59 28.285-16.787 16.861-30.122 35.745-40.124 56.824-21.723 45.775-26.091 97.617-12.276 145.679C76.1 382.635 130.61 436.733 201.051 456.521c47.175 13.252 98.76 8.711 144.073-12.682 42.022-19.839 78.437-56.161 98.449-98.199 25.946-54.501 27.186-116.188 3.446-171.514-15.511-36.149-41.122-67.188-74.112-89.818-26.741-18.343-57.827-30.232-89.634-34.282-13.044-1.66-29.765-2.218-41.78-1.394m107.179 114.696c5.489 5.489 7.325.49-37.673 102.586-22.316 50.633-41.363 93.702-42.327 95.709-2.776 5.779-9.409 7.895-15.26 4.869-5.177-2.677-5.092-1.799-5.092-52.687 0-35.781-.244-46.71-1.067-47.807-.968-1.291-5.372-1.443-48-1.656-42.991-.216-47.165-.362-49.692-1.743-3.445-1.883-5.348-5.461-5.348-10.055 0-5.939 2.669-7.737 28.16-18.975a121036.61 121036.61 0 0 0 93.867-41.492c79.699-35.26 76.898-34.283 82.432-28.749" fill-rule="evenodd"/></svg>