<svg xmlns="http://www.w3.org/2000/svg" width="512" height="512"><path d="M61.013 33.619c-13.665 4.365-23.839 14.599-27.418 27.583C32.06 66.768 32 73.88 32 249.173c0 204.835-.617 185.912 6.537 200.505 4.933 10.062 13.723 18.852 23.785 23.785C76.9 480.609 58.854 480 255.929 480c127.058 0 175.375-.259 175.603-.942.172-.518-2.537-1.981-6.022-3.252-20.854-7.606-37.187-27.626-40.571-49.729-.66-4.316-.942-58.523-.949-182.614-.011-191.98.282-180.242-4.744-190.175-3.357-6.635-10.69-13.571-18.286-17.296l-6.4-3.139-145.067-.162c-115.737-.13-145.756.058-148.48.928m122.027 80.007c3.485 1.922 6.062 4.822 7.639 8.598 1.12 2.681 1.318 8.452 1.302 37.962-.021 38.707-.074 39.109-5.871 43.987-4.735 3.983-6.677 4.156-43.603 3.876-39.468-.3-39.086-.235-43.635-7.408l-2.445-3.855v-36.624c0-36.211.021-36.661 1.887-39.981 2.021-3.596 6.023-6.531 10.365-7.602 1.475-.364 18.233-.595 37.241-.514 30.377.13 34.87.319 37.12 1.561m124.143-.917c15.244 3.513 17.235 23.323 3.004 29.891-3.139 1.449-6.2 1.577-38.019 1.595l-34.606.018-4.226-2.105c-13.52-6.738-11.337-26.007 3.343-29.507 4.19-.999 66.11-.904 70.504.108m108.959-.353c-1.02 1.019-.669 303.212.359 308.821 1.93 10.536 8.939 19.579 18.699 24.123 3.999 1.862 5.892 2.185 12.8 2.185s8.801-.323 12.8-2.185c9.962-4.638 16.881-13.721 18.747-24.611.678-3.954.879-44.298.702-140.796L480 144.64l-1.924-5.051c-5.616-14.746-17.732-24.873-32.209-26.923-6.731-.953-28.851-1.184-29.725-.31m-108.959 64.353c15.244 3.513 17.235 23.323 3.004 29.891-3.139 1.449-6.2 1.577-38.019 1.595l-34.606.018-4.226-2.105c-13.52-6.738-11.337-26.007 3.343-29.507 4.19-.999 66.11-.904 70.504.108m0 64c15.244 3.513 17.235 23.323 3.004 29.891-3.256 1.503-7.977 1.577-102.019 1.595l-98.606.018-4.226-2.105c-13.52-6.738-11.337-26.007 3.343-29.507 4.291-1.024 194.042-.92 198.504.108m0 64c15.244 3.513 17.235 23.323 3.004 29.891-3.256 1.503-7.977 1.577-102.019 1.595l-98.606.018-4.226-2.105c-13.52-6.738-11.337-26.007 3.343-29.507 4.291-1.024 194.042-.92 198.504.108m0 64c15.244 3.513 17.235 23.323 3.004 29.891-3.256 1.503-7.977 1.577-102.019 1.595l-98.606.018-4.226-2.105c-13.52-6.738-11.337-26.007 3.343-29.507 4.291-1.024 194.042-.92 198.504.108" fill-rule="evenodd"/></svg>