<svg xmlns="http://www.w3.org/2000/svg" width="512" height="512"><path d="M242.347 33.786c-18.783 4.989-35.456 20.423-43.039 39.841l-2.701 6.917-11.904 6.021c-10.423 5.273-12.093 6.411-13.435 9.156-1.378 2.818-1.408 3.421-.299 5.973.758 1.744 52.217 53.787 133.379 134.893C433.824 365.973 436.559 368.64 439.752 368.64c2.497 0 3.869-.61 5.867-2.608 2.368-2.367 2.564-2.977 2.132-6.622-.823-6.945-3.738-13.116-9.56-20.238-21.604-26.424-27.672-37.07-32.404-56.856-3.437-14.367-4.764-27.728-5.583-56.183-.426-14.784-1.192-30.144-1.703-34.133-4.838-37.782-19.632-67.644-43.171-87.141-9.835-8.147-16.478-12.443-28.873-18.672l-11.036-5.547-2.715-6.965c-7.661-19.653-24.409-35.049-43.445-39.941-6.412-1.648-20.62-1.62-26.914.052M57.6 49.849c-3.18 1.42-6.853 5.273-8.052 8.447-1.3 3.439-1.12 9.693.369 12.828.702 1.479 88.734 90.118 195.626 196.976 178.58 178.521 194.656 194.366 198.113 195.269 6.763 1.767 13.041-.453 17.091-6.045 3.023-4.173 3.9-8.776 2.611-13.708-.889-3.404-17.563-20.323-194.832-197.7C157.162 134.484 73.319 51.237 71.501 50.29c-3.687-1.921-10.127-2.125-13.901-.441m59.257 143.407c-3.981 2.165-4.302 4.232-5.094 32.849-.813 29.375-2.205 42.892-5.942 57.721-4.367 17.326-11.503 30.413-26.281 48.2-10.205 12.282-12.011 15.061-13.963 21.489-5.564 18.316 3.886 36.692 22.743 44.226l5.12 2.046 110.071.232c82.18.173 110.678-.02 112.467-.76 3.115-1.291 5.177-5.279 4.525-8.754-.402-2.142-19.971-22.141-98.431-100.59-106.02-106.005-99.331-99.86-105.215-96.659m69.657 239.872c-2.055 2.055-1.646 3.893 2.183 9.833 11.22 17.4 27.857 29.306 48.354 34.604 11.72 3.028 26.178 3.028 37.898 0 20.497-5.298 37.134-17.204 48.354-34.604 3.829-5.94 4.238-7.778 2.183-9.833-1.197-1.197-8.674-1.341-69.486-1.341-60.812 0-68.289.144-69.486 1.341" fill-rule="evenodd"/></svg>