<svg xmlns="http://www.w3.org/2000/svg" width="512" height="512"><path d="M241.92 48.669c-64.561 4.115-123.152 38.433-159.962 93.693-26.292 39.469-38.649 92.321-32.455 138.811 6.326 47.479 26.376 88.354 59.673 121.651 33.526 33.526 73.443 53.027 122.504 59.846 4.224.587 15.168 1.068 24.32 1.068 9.152 0 20.096-.481 24.32-1.068 49.001-6.811 88.952-26.339 122.482-59.868 33.529-33.53 53.057-73.481 59.868-122.482 1.376-9.9 1.376-38.74 0-48.64-6.778-48.766-26.328-88.904-59.45-122.057-11.819-11.831-20.651-19.077-33.662-27.617-37.561-24.655-81.952-36.249-127.638-33.337m24.919 81.863c5.923 2.548 12.452 9.546 15.76 16.892 1.424 3.162 3.197 6.434 3.941 7.272.743.837 5.215 3.41 9.939 5.716 20.581 10.05 32.153 24.081 37.663 45.668 1.833 7.181 2.303 11.644 2.968 28.16 1.677 41.646 4.805 51.471 23.342 73.321 8.375 9.871 9.714 15.817 3.726 16.539-1.882.227-11.441-9.875-75.008-79.273-80.534-87.922-76.624-83.057-69.437-86.402 5.061-2.355 6.335-3.781 9.433-10.555 2.978-6.511 9.213-13.971 13.58-16.248 7.766-4.049 16.315-4.436 24.093-1.09m-98.595 6.257c3.832 2.304 195.646 213.944 197.919 218.377 3.437 6.703.953 15.901-5.436 20.129-2.794 1.85-4.438 2.279-8.769 2.291-4.606.012-5.796-.334-8.751-2.546-2.701-2.021-185.762-203.428-194.918-214.452-5.281-6.359-5.273-14.723.021-20.626 5.484-6.115 13.039-7.318 19.934-3.173m15.166 87.424c10.529 10.237 97.337 106.258 97.337 107.666 0 .909-.604 2.256-1.341 2.993-1.194 1.194-8.023 1.341-62.321 1.341-66.277 0-64.135.15-68.764-4.801-3.834-4.101-5.191-10.159-3.356-14.985.414-1.087 4.158-6.063 8.32-11.056 9.332-11.194 12.661-16.652 15.735-25.801 3.286-9.779 4.991-22.021 5.638-40.499.561-16.003 1.04-18.058 4.209-18.058.689 0 2.733 1.44 4.543 3.2m111.389 133.334c-.087 15.082-16.74 26.423-38.799 26.423-17.758 0-31.35-6.76-36.826-18.317-2.283-4.818-3.228-11.288-1.85-12.666.318-.318 17.886-.478 39.04-.356l38.463.222-.028 4.694" fill-rule="evenodd"/></svg>