<svg xmlns="http://www.w3.org/2000/svg" width="512" height="512"><path d="M241.493 48.632c-34.755 2.385-69.692 14.113-98.56 33.086-14.348 9.431-22.253 15.895-34.59 28.285-16.787 16.861-30.122 35.745-40.124 56.824-21.723 45.775-26.091 97.617-12.276 145.679C76.1 382.635 130.61 436.733 201.051 456.521c47.175 13.252 98.76 8.711 144.073-12.682 42.022-19.839 78.437-56.161 98.449-98.199 25.946-54.501 27.186-116.188 3.446-171.514-15.511-36.149-41.122-67.188-74.112-89.818-26.741-18.343-57.827-30.232-89.634-34.282-13.044-1.66-29.765-2.218-41.78-1.394m-56.471 100.799c11.347 23.05 20.631 42.388 20.631 42.971 0 .584-2.801 3.908-6.224 7.388-9.786 9.945-15.459 19.386-19.873 33.071l-2.234 6.926h-47.728c-42.103 0-47.787-.155-48.23-1.309-.741-1.933 2.652-20.877 5.499-30.691 10.27-35.413 31.125-66.701 59.484-89.243 8.068-6.414 15.048-11.024 16.69-11.024.937 0 7.698 12.889 21.985 41.911m172.434-36.957c30.832 22.04 52.616 51.207 64.979 87.001 3.746 10.845 7.395 27.108 7.8 34.765l.272 5.12-47.912.22-47.913.221-2.236-6.933c-4.46-13.83-12.227-26.261-22.215-35.557l-4.689-4.364 17.341-35.247c25.473-51.777 24.638-50.18 26.223-50.18.781 0 4.538 2.229 8.35 4.954m-85.137 98.558c18.738 7.106 30.127 22.571 31.233 42.408.801 14.384-3.662 26.082-13.862 36.335-9.304 9.352-20.508 14.012-33.69 14.012-35.78 0-58.528-37.198-42.571-69.612 6.072-12.333 18.833-22.13 32.758-25.148 6.415-1.39 19.908-.355 26.132 2.005m-42.287 120.426c17.247 6.098 34.125 6.115 51.994.053 4.692-1.592 8.79-2.625 9.106-2.296 3.716 3.87 56.972 75.16 56.815 76.054-.118.669-4.438 3.438-9.6 6.154-45.529 23.949-98.939 26.992-146.347 8.339-13.371-5.261-27.733-12.902-27.733-14.754 0-.748 12.851-18.284 28.559-38.968 20.496-26.991 28.928-37.482 29.867-37.161.719.245 4.022 1.406 7.339 2.579" fill-rule="evenodd"/></svg>