<svg xmlns="http://www.w3.org/2000/svg" width="512" height="512"><path d="M332.524 17.602c-12.825 2.751-27.466 9.49-37.587 17.3-5.905 4.557-15.88 14.73-20.582 20.991-7.655 10.193-13.889 24.203-16.705 37.54-2.271 10.757-2.16 12.855.844 15.859 2.908 2.907 5.457 3.134 14.304 1.269 40.364-8.509 71.383-40.281 78.313-80.213 1.319-7.602.501-11.434-2.823-13.213-2.318-1.24-8.686-1.052-15.764.467M151.04 113.099c-23.483 3.713-42.281 13.334-58.892 30.142-24.19 24.477-37.326 58.319-42.773 110.199-1.643 15.649-1.43 48.849.389 60.587 6.658 42.971 23.403 86.355 47.154 122.172 20.145 30.379 39.777 48.642 60.949 56.696 6.102 2.322 7.054 2.435 20.48 2.43 19.764-.008 33.379-3.328 49.066-11.965 18.837-10.371 20.561-11.036 28.587-11.029 8.067.008 8.83.3 27.733 10.608 16.997 9.268 33.919 13.306 52.907 12.624 8.372-.3 12.31-.838 16.054-2.193 21.511-7.785 41.526-26.014 61.526-56.037 19.584-29.399 33.309-60.403 42.348-95.664 5.743-22.405 7.147-34.143 7.083-59.216-.259-101.73-35.554-159.384-103.745-169.465-17.86-2.64-31.952-.961-64.451 7.681-24.24 6.446-31.663 7.65-43.295 7.027-9.751-.522-15.193-1.65-43.093-8.928-26.367-6.878-41.211-8.328-58.027-5.669m70.728 144.557c6.473 3.303 12.306 12.489 15.667 24.675 1.513 5.485 1.8 8.898 1.8 21.456 0 12.695-.28 15.956-1.863 21.76-5.048 18.507-14.663 28.624-24.596 25.881-7.311-2.018-15.046-13.245-18.187-26.399-6.604-27.648 1.111-60.656 15.758-67.416 4.39-2.026 7.386-2.015 11.421.043m79.242-.343c4.219 1.763 5.86 3.326 9.743 9.287 11.211 17.208 12.127 51.923 1.884 71.415-11.887 22.622-30.063 16.66-38.009-12.468-1.583-5.804-1.863-9.065-1.863-21.76 0-12.558.287-15.971 1.8-21.456 3.313-12.014 9.136-21.277 15.483-24.632 3.772-1.993 6.855-2.102 10.962-.386" fill-rule="evenodd"/></svg>