<svg xmlns="http://www.w3.org/2000/svg" width="512" height="512"><path d="M324.499 81.439c-12.482 3.025-26.098 13.896-31.315 25.003l-2.497 5.315-115.753.228-115.752.228-3.598 2.381c-6.275 4.153-8.824 10.693-6.921 17.759 1.253 4.651 6.142 9.653 10.663 10.909 2.398.665 36.846.943 117.37.947l113.977.004 2.503 5.33c3.706 7.888 13.428 17.448 21.704 21.34 8.915 4.193 14.028 5.202 23.781 4.693 9.724-.509 15.807-2.535 24.195-8.058 6.865-4.521 11.541-9.766 15.641-17.545l3.036-5.76 33.874-.004c22.081-.004 35.055-.333 37.267-.947 4.521-1.256 9.41-6.258 10.663-10.909 1.902-7.066-.646-13.605-6.92-17.759l-3.596-2.381-35.667-.256-35.666-.257-3.221-6.143c-9.879-18.846-32.903-29.173-53.768-24.118M164.39 209.565c-12.49 3.024-24.657 12.545-30.657 23.992l-3.221 6.143-35.666.257-35.667.256-3.596 2.381c-6.274 4.154-8.822 10.693-6.92 17.759 1.253 4.651 6.142 9.653 10.663 10.909 2.212.614 15.186.943 37.267.947l33.874.004 3.036 5.76c4.1 7.779 8.776 13.024 15.641 17.545 8.028 5.286 14.515 7.518 23.414 8.054 15.148.913 26.869-3.542 37.362-14.2 4.3-4.367 7.221-8.248 8.904-11.829l2.503-5.33 113.977-.004c80.524-.004 114.972-.282 117.37-.947 4.521-1.256 9.41-6.258 10.663-10.909 1.903-7.066-.646-13.606-6.921-17.759l-3.598-2.381-115.752-.228-115.753-.228-2.497-5.315c-3.692-7.861-13.425-17.432-21.696-21.336-3.52-1.661-8.435-3.442-10.922-3.957-6.048-1.251-15.678-1.068-21.808.416m160.109 127.874c-12.482 3.025-26.098 13.896-31.315 25.003l-2.497 5.315-115.753.228-115.752.228-3.598 2.381c-6.275 4.153-8.824 10.693-6.921 17.759 1.253 4.651 6.142 9.653 10.663 10.909 2.398.665 36.846.943 117.37.947l113.977.004 2.503 5.33c3.706 7.888 13.428 17.448 21.704 21.34 8.915 4.193 14.028 5.202 23.781 4.693 9.724-.509 15.807-2.535 24.195-8.058 6.865-4.521 11.541-9.766 15.641-17.545l3.036-5.76 33.874-.004c22.081-.004 35.055-.333 37.267-.947 4.521-1.256 9.41-6.258 10.663-10.909 1.902-7.066-.646-13.605-6.92-17.759l-3.596-2.381-35.667-.256-35.666-.257-3.221-6.143c-9.879-18.846-32.903-29.173-53.768-24.118" fill-rule="evenodd"/></svg>