<svg xmlns="http://www.w3.org/2000/svg" width="512" height="512"><path d="M247.621 109.21c-111.382 42.184-203.35 77.248-204.373 77.919-12.981 8.521-14.815 26.698-3.776 37.411 2.772 2.69 14.255 7.868 75.307 33.957 76.757 32.8 75.896 32.492 82.582 29.592 1.51-.655 52.858-47.926 114.106-105.046 61.248-57.12 112.209-104.185 113.248-104.589 4.572-1.778 9.956 3.09 8.993 8.131-.214 1.115-45.272 50.108-104.51 113.635-57.275 61.42-104.663 112.909-105.307 114.419-2.831 6.638-3.099 5.89 29.49 82.235 18.474 43.279 31.65 73.056 33.15 74.917 1.37 1.699 4.681 4.216 7.359 5.594 10.825 5.57 24.566 1.462 31.212-9.332.867-1.408 36.036-93.568 78.152-204.8 71.22-188.094 76.575-202.602 76.556-207.418-.035-9.127-5.026-17.123-13.242-21.218-3.512-1.75-5.607-2.182-10.416-2.148-5.869.041-11.054 1.949-208.531 76.741" fill-rule="evenodd"/></svg>