<svg xmlns="http://www.w3.org/2000/svg" width="512" height="512"><path d="M328.96 33.848c-3.953 2.088-5.652 3.83-7.355 7.539-1.374 2.991-1.568 5.789-1.568 22.613 0 16.93.189 19.615 1.596 22.712 3.65 8.039 14.098 11.523 21.95 7.321 2.64-1.413 7.018-6.688 7.765-9.355.849-3.035.849-38.321 0-41.356-.904-3.228-5.594-8.358-8.907-9.742-3.678-1.537-10.315-1.405-13.481.268M214.781 81.334c-6.437 3.896-9.152 10.784-7.072 17.938 1.172 4.03 2.661 5.805 15.688 18.691 12.523 12.386 14.829 14.307 17.739 14.772l3.771.603c.234.038 2.048-.191 4.031-.508 4.238-.678 9.32-4.752 11.029-8.843 1.383-3.31 1.499-9.472.241-12.782-1.216-3.198-25.965-28.129-29.987-30.208-4.5-2.326-11.286-2.178-15.44.337m225.406.569c-2.111 1.398-9.205 8.022-15.764 14.72-10.149 10.364-12.094 12.781-13.059 16.232-1.445 5.168-.725 9.54 2.268 13.776 4.343 6.145 12.195 8.289 19.372 5.29 3.47-1.45 25.28-22.337 29.139-27.906 4.107-5.926 3.631-13.975-1.163-19.673-2.902-3.449-6.712-4.982-12.38-4.982-3.648 0-5.351.515-8.413 2.543m-114.026 30.799c-13.83 1.336-27.832 6.062-40.317 13.605-4.553 2.751-5.951 4.049-5.951 5.526 0 2.471 1.071 3.277 6.827 5.14 13.723 4.44 32.157 14.111 44.173 23.173 17.353 13.088 29.852 26.607 42.516 45.984 4.316 6.604 8.753 12.595 9.859 13.314 1.107.719 4.124 1.995 6.705 2.835 7.951 2.589 17.043 6.351 26.137 10.814 7.139 3.505 9.01 4.108 10.413 3.357 4.262-2.281 6.792-30.095 4.059-44.629-3.662-19.478-11.808-35.583-24.957-49.347-9.038-9.459-15.978-14.525-28.025-20.454-11.248-5.536-19.997-8.085-32.14-9.365-8.811-.928-9.222-.927-19.299.047m-115.814 48.924c-57.089 9.473-100.562 49.534-117.227 108.027-1.404 4.928-3.014 11.456-3.578 14.507-.564 3.051-1.269 5.823-1.566 6.16-.298.337-5.007 1.741-10.466 3.119C30.082 305.418 1.924 337.497.265 381.44c-1.859 49.255 26.663 85.092 76.108 95.627 15.234 3.245 26.977 3.484 154.88 3.142 121.433-.324 123.45-.357 132.706-2.139 49.129-9.462 84.776-41.254 96.395-85.971 8.145-31.348 2.341-67.145-15.039-92.759-16.051-23.655-39.932-39.629-72.472-48.477-5.263-1.431-10.635-3.361-11.937-4.288-1.354-.964-4.429-5.58-7.18-10.778-20.675-39.063-52.749-64.049-93.646-72.95-10.254-2.231-39.34-2.946-49.733-1.221m247.459 31.965c-14.171 6.438-12.152 26.654 2.986 29.901 5.645 1.211 32.771 1.211 38.416 0 11.557-2.479 16.672-16.655 9.115-25.262-5.026-5.724-7.169-6.193-28.323-6.193-16.337 0-19.217.202-22.194 1.554" fill-rule="evenodd"/></svg>