<svg xmlns="http://www.w3.org/2000/svg" width="512" height="512"><path d="M176.213 48.382c-29.746 3.945-49.757 36.441-47.978 77.911 2.016 46.984 30.61 85.302 63.765 85.446 13.375.058 22.589-3.914 32.939-14.2 5.825-5.787 7.608-8.276 11.326-15.804 6.453-13.065 8.761-22.843 9.276-39.306.306-9.777.054-15.587-.949-21.919-5.111-32.273-22.632-58.809-45.339-68.668-4.398-1.91-16.365-4.323-19.475-3.927-.552.07-2.157.28-3.565.467m147.32.392c-18.097 2.59-37.222 19.342-47.025 41.19-7.624 16.992-10.662 32.856-10.049 52.465.515 16.463 2.823 26.241 9.276 39.306 3.718 7.528 5.501 10.017 11.326 15.804 10.35 10.286 19.564 14.258 32.939 14.2 24.398-.106 47.809-21.694 57.959-53.446 4.575-14.31 5.583-20.931 5.586-36.693.002-15.179-.623-19.701-4.355-31.508-6.997-22.132-21.649-37.162-39.99-41.019-6.629-1.395-7.849-1.418-15.667-.299M55.467 153.175c-19.758 4.476-33.172 19.996-38.038 44.008-2.183 10.776-1.336 27.963 2.015 40.897 10.521 40.605 39.762 70.781 71.536 73.823 18.278 1.75 37.134-9.429 45.531-26.993 5.421-11.34 7.036-18.766 7.122-32.75.049-8.162-.396-14.309-1.406-19.406-7.43-37.474-32.475-69.342-61.472-78.219-7.842-2.401-18.23-2.96-25.288-1.36m382.939-.4c-23.353 3.932-46.134 23.787-59.148 51.553-8.011 17.092-11.031 30.323-10.918 47.832.09 13.966 1.704 21.361 7.149 32.75 8.397 17.564 27.253 28.743 45.531 26.993 29.272-2.802 57.023-29.09 69.234-65.582 4.305-12.864 5.792-23.406 5.257-37.254-.644-16.675-4.318-28.048-12.616-39.045-10.119-13.411-27.424-20.119-44.489-17.247m-198.619 72.896c-11.071 2.361-18.885 6.169-28.16 13.725-9.605 7.823-19.061 20.043-32.99 42.631-11.421 18.52-12.813 20.421-20.039 27.372-6.796 6.537-12.786 10.775-30.598 21.649-27.007 16.488-37.325 27.355-43.487 45.799-5.935 17.767-4.038 39.559 4.774 54.849 10.585 18.365 29.277 30.481 49.644 32.18 12.907 1.076 27.437-1.867 59.469-12.045 53.913-17.131 61.145-17.184 112.64-.825 37.949 12.055 52.132 14.667 66.416 12.23 13.566-2.314 24.019-7.542 33.521-16.767 19.37-18.804 25.298-47.995 14.924-73.488-3.647-8.961-6.506-13.319-13.635-20.782-6.539-6.845-15.208-13.036-37.653-26.89-11.479-7.086-22.12-15.464-26.749-21.062-1.805-2.183-6.756-9.612-11.001-16.508-16.744-27.202-25.975-39.394-36.774-48.573-6.024-5.12-16.559-10.688-24.036-12.702-7.062-1.902-28.834-2.379-36.266-.793" fill-rule="evenodd"/></svg>