<svg xmlns="http://www.w3.org/2000/svg" width="512" height="512"><path d="M241.493 48.632c-34.755 2.385-69.692 14.113-98.56 33.086-14.348 9.431-22.253 15.895-34.59 28.285-16.787 16.861-30.122 35.745-40.124 56.824-21.723 45.775-26.091 97.617-12.276 145.679C76.1 382.635 130.61 436.733 201.051 456.521c47.175 13.252 98.76 8.711 144.073-12.682 42.022-19.839 78.437-56.161 98.449-98.199 25.946-54.501 27.186-116.188 3.446-171.514-15.511-36.149-41.122-67.188-74.112-89.818-26.741-18.343-57.827-30.232-89.634-34.282-13.044-1.66-29.765-2.218-41.78-1.394m98.134 97.268c19.876 4.08 36.922 17.157 46.031 35.313 5.268 10.5 7.036 18.434 7.062 31.694.045 23.601-8.031 43.498-24.074 59.306-10.444 10.292-20.127 15.627-33.561 18.49-7.69 1.639-21.06 1.053-28.312-1.243-23.883-7.558-43.398-29.446-50.09-56.178-2.474-9.885-2.675-29.122-.4-38.295 2.064-8.321 8.115-20.3 13.578-26.88 15.858-19.099 42.93-27.716 69.766-22.207m-160.854 26.98c19.714 4.654 36.325 21.089 41.411 40.973 2.292 8.962 2.265 22.169-.064 31.907-6.823 28.52-30.672 49.493-56.28 49.493-24.551 0-47.023-18.624-55.601-46.08-1.735-5.556-1.999-8.144-1.999-19.626 0-11.543.252-13.987 1.977-19.2 9.591-28.972 39.427-44.815 70.556-37.467m9.561 139.912c17.4 2.584 23.293 5.545 23.293 11.707 0 3.152-.56 3.884-9.504 12.438-18.784 17.966-28.735 33.605-36.163 56.837-1.493 4.671-3.289 8.855-3.989 9.297-3.257 2.054-26.641-17.474-40.312-33.665-11.07-13.109-24.794-35.391-24.228-39.334.682-4.75 25.265-14.231 44.758-17.263 10.606-1.649 35.092-1.658 46.145-.017m154.526 7.257c19.975 2.176 39.492 7.83 55.22 15.997 7.178 3.727 9.45 5.319 9.656 6.764.164 1.145-1.307 4.328-3.729 8.072-29.134 45.036-75.806 73.987-129.123 80.095-11.349 1.3-37.24.622-47.471-1.244-15.278-2.786-35.19-8.748-38.246-11.452-1.828-1.617-1.588-3.732 1.639-14.48 6.765-22.528 22.337-43.76 42.592-58.073 18.66-13.186 45.021-22.788 70.389-25.64 9.383-1.055 29.558-1.075 39.073-.039" fill-rule="evenodd"/></svg>