<svg xmlns="http://www.w3.org/2000/svg" width="512" height="512"><path d="M323.84 80.762c-31.517 4.951-55.62 24.266-65.193 52.24-6.48 18.939-6.348 40.56.373 61.152 4.851 14.858 12.381 27.013 23.806 38.422 31.362 31.32 75.519 31.159 107.066-.388 22.753-22.753 33.395-60.58 25.71-91.388-5.557-22.275-20.301-40.896-40.743-51.453-11.86-6.126-21.122-8.36-36.086-8.703-6.805-.157-13.525-.103-14.933.118M140.8 112.36c-17.525 1.387-36.008 10.665-46.75 23.469-26.928 32.098-19.185 84.805 16.405 111.674 10.417 7.863 23.732 12.298 36.745 12.237 10.205-.047 16.973-1.675 26.453-6.36 18.42-9.103 33.933-29.003 39.866-51.14 2.81-10.482 2.819-30.681.018-40.355-6.167-21.303-21.149-37.768-41.222-45.303-8.498-3.19-21.89-4.984-31.515-4.222m-15.36 167.61c-37.641 4.841-71.238 22.984-90.561 48.905-9.925 13.315-18.666 34.388-18.666 45.003 0 10.208 6.09 19.851 15.193 24.057 3.992 1.845 4.231 1.852 64.357 1.852 70.436 0 62.44 1.466 66.396-12.18 8.786-30.313 26.048-56.081 50.147-74.86 9.497-7.4 10.978-10.035 8.591-15.276-2.628-5.767-26.632-14.29-48.407-17.189-9.883-1.316-37.806-1.501-47.05-.312m186.453 9.4c-20.395 2.453-41.833 8.616-59.282 17.043-18.648 9.006-30.223 17.304-43.626 31.274-13.582 14.158-22.605 29.101-29.193 48.351-2.991 8.738-3.539 11.397-3.547 17.203-.008 6.043.325 7.547 2.784 12.541 3.36 6.824 8.707 11.831 15.251 14.28 4.638 1.735 5.46 1.744 143.059 1.521l138.394-.223 4.042-2.008c5.465-2.716 10.695-8.106 13.371-13.779 1.907-4.042 2.211-5.818 2.19-12.8-.022-7.107-.42-9.256-3.228-17.432-4.113-11.976-11.975-27.112-18.869-36.328-6.778-9.061-20.949-22.864-29.932-29.156-20.876-14.622-44.07-23.882-72.534-28.958-8.2-1.463-14.404-1.879-31.146-2.088-11.499-.144-23.979.108-27.734.559" fill-rule="evenodd"/></svg>