<svg xmlns="http://www.w3.org/2000/svg" width="512" height="512"><path d="M53.397 112.685c-23.108 3.902-42.856 21.101-50.737 44.186l-2.233 6.542v185.174l2.233 6.542c6.025 17.649 17.774 30.866 34.46 38.766 14.346 6.792-2.071 6.318 218.88 6.318s204.534.474 218.88-6.318c16.518-7.821 28.493-21.229 34.369-38.482l2.324-6.826v-184.32l-2.32-7.254c-5.43-16.97-17.511-30.841-33.598-38.576-14.165-6.811 7.607-6.176-217.095-6.327-110.528-.074-202.851.184-205.163.575M460.8 146.869c6.967 3.309 12.291 8.474 15.542 15.078l2.805 5.697v176.712l-2.805 5.697c-3.251 6.604-8.575 11.769-15.542 15.078l-4.693 2.229H55.893l-4.693-2.229c-6.965-3.308-12.291-8.475-15.542-15.076-2.652-5.384-2.821-6.29-3.104-16.613-.35-12.769-.025-13.599 6.86-17.484 8.246-4.654 14.051-12.439 15.948-21.387 1.308-6.173 1.308-70.969 0-77.142-1.897-8.948-7.702-16.733-15.948-21.387-6.885-3.885-7.21-4.715-6.86-17.484.283-10.323.452-11.229 3.104-16.613 4.142-8.41 11.984-14.709 21.089-16.939 1.408-.345 91.84-.568 200.96-.497l198.4.131 4.693 2.229M55.359 162.872c-5.677 3.6-8.675 10.854-6.805 16.465.551 1.654 3.808 5.653 7.765 9.533 5.322 5.22 7.565 8.211 10.24 13.654 1.884 3.833 3.807 9.038 4.273 11.566 1.113 6.032 1.113 77.788 0 83.82-1.565 8.482-6.82 17.555-14.827 25.598-8.011 8.047-9.239 10.85-7.32 16.703 1.61 4.912 3.222 6.937 7.543 9.477L60.16 352h391.814l4.122-2.56c2.566-1.593 4.797-3.849 5.907-5.973 1.774-3.396 1.784-3.858 1.784-87.467 0-81.291-.054-84.162-1.646-87.368-.99-1.996-3.179-4.289-5.5-5.76l-3.855-2.445H59.214l-3.855 2.445" fill-rule="evenodd"/></svg>