<svg xmlns="http://www.w3.org/2000/svg" width="512" height="512"><path d="M164.267.907c-14.439 2.483-28.361 10.954-38.321 23.315-4.685 5.814-10.796 18.1-12.571 25.271-1.729 6.986-1.729 406.028 0 413.014 1.775 7.171 7.886 19.457 12.571 25.271 8.224 10.206 18.357 17.271 30.925 21.562l6.542 2.233h185.174l6.826-2.324c17.253-5.876 30.661-17.851 38.482-34.369 6.792-14.346 6.318 2.071 6.318-218.88s.474-204.534-6.318-218.88c-7.9-16.686-21.117-28.435-38.766-34.46L348.587.427 258.56.3c-49.515-.07-91.947.204-94.293.607m27.454 32.785c.993.696 2.948 3.289 4.343 5.761 4.632 8.207 12.432 14.015 21.365 15.909 6.173 1.308 70.969 1.308 77.142 0 8.948-1.897 16.733-7.702 21.387-15.948 3.885-6.885 4.715-7.21 17.484-6.86 10.323.283 11.229.452 16.613 3.104 6.601 3.251 11.768 8.577 15.076 15.542l2.229 4.693v400.214l-2.229 4.693c-3.309 6.967-8.474 12.291-15.078 15.542l-5.697 2.805H167.644l-5.697-2.805c-6.604-3.251-11.769-8.575-15.078-15.542l-2.229-4.693V55.893l1.969-4.238c4.027-8.669 10.535-14.647 19.206-17.644 5.85-2.021 23.17-2.234 25.906-.319m-19.042 14.909c-4.4 1.049-8.346 3.992-10.578 7.89L160 60.16v391.814l2.56 4.122c1.593 2.566 3.849 4.797 5.973 5.907 3.396 1.774 3.858 1.784 87.467 1.784s84.071-.01 87.467-1.784c2.124-1.11 4.38-3.341 5.973-5.907l2.56-4.122V60.16l-2.101-3.669c-2.319-4.051-6.156-6.822-10.964-7.919-5.318-1.214-8.553.284-14.944 6.922-9.827 10.206-18.587 14.64-31.948 16.171-9.667 1.108-62.419 1.108-72.086 0-13.358-1.531-22.118-5.963-31.945-16.166-3.835-3.981-6.84-6.325-8.809-6.872-1.644-.457-3.182-.794-3.416-.748-.235.045-1.633.37-3.108.722" fill-rule="evenodd"/></svg>