<svg xmlns="http://www.w3.org/2000/svg" width="512" height="512"><path d="M234.24 33.032c-7.388.688-25.016 3.808-33.115 5.861-49.309 12.499-93.742 42.018-124.154 82.48-17.674 23.514-31.615 52.829-38.457 80.867-4.679 19.176-6.33 33.198-6.33 53.76 0 30.712 4.799 55.669 16.128 83.879 4.037 10.051 6.644 13.698 11.181 15.639 7.019 3.004 3.603 4.343 108.078-42.36 104.974-46.926 101.74-45.282 103.747-52.737.634-2.352.846-36.169.692-109.935-.216-103.256-.274-106.642-1.869-109.854-.99-1.996-3.179-4.289-5.5-5.76-3.792-2.405-4.044-2.443-15.421-2.302-6.362.079-13.103.287-14.98.462m72.368 37.294-2.395 2.059-.426 97.141-.427 97.141-2.318 5.785c-4.18 10.433-10.769 18.606-19.384 24.045-1.952 1.232-42.181 19.526-89.397 40.652-47.216 21.127-87.271 39.138-89.012 40.026-3.566 1.82-5.606 5.629-4.65 8.682 2.784 8.888 30.284 38.813 47.586 51.782 30.118 22.575 62.347 35.749 99.671 40.739 13.838 1.851 37.799 1.836 51.957-.031 70.211-9.26 130.042-52.117 160.902-115.254 12.539-25.654 18.983-50.155 20.812-79.119 2.786-44.146-9.37-89.18-34.118-126.401-29.954-45.049-74.199-75.764-127.28-88.356-6.086-1.444-8.864-1.177-11.521 1.109" fill-rule="evenodd"/></svg>