<svg xmlns="http://www.w3.org/2000/svg" width="512" height="512"><path d="M242.91 17.051c-25.379 4.606-47.336 21.017-58.816 43.962-6.224 12.44-9.323 30.105-7.631 43.501 4.038 31.975 24.84 57.647 54.406 67.143l8.87 2.85.024 142.96c.019 113.936.247 143.822 1.125 147.2.605 2.332 3.562 10.094 6.571 17.25 5.494 13.069 6.629 14.591 10.065 13.501 1.628-.517 11.542-22.968 13.58-30.751.889-3.398 1.109-32.632 1.109-147.312V174.283l4.054-1.017c13.725-3.441 27.031-11.49 37.849-22.896 8.375-8.83 13.515-17.359 17.533-29.096 14.735-43.036-9.587-88.981-54.075-102.151-6.051-1.791-9.712-2.276-19.014-2.52-6.336-.166-13.379.036-15.65.448m47.841 33.808c11.786 5.688 16.41 19.77 10.425 31.747-5.222 10.448-15.655 15.361-26.644 12.546-12.012-3.078-19.598-13.844-18.19-25.818 1.978-16.833 18.941-25.941 34.409-18.475" fill-rule="evenodd"/></svg>