<svg xmlns="http://www.w3.org/2000/svg" width="512" height="512"><path d="M140.373 17.008c-11.204 2.781-21.174 13.235-23.435 24.574-.447 2.239-1.855 21.159-3.13 42.045-3.464 56.781-3.034 60.519 15.035 130.56 12.754 49.441 19.389 79.573 24.268 110.214 5.671 35.61 6.555 48.601 7.193 105.679.506 45.184.673 49.315 2.111 52.206 2.284 4.59 7.079 9.163 12.022 11.465l4.336 2.019h154.454l4.336-2.019c4.943-2.302 9.738-6.875 12.022-11.465 1.439-2.894 1.604-7.044 2.108-53.059.534-48.838 1.176-63.296 3.806-85.76 4.633-39.571 12.204-75.328 28.83-136.166 10.471-38.316 13.495-52.99 15.186-73.689.868-10.627.715-16.392-1.333-49.985-1.273-20.886-2.734-39.894-3.245-42.24-2.07-9.492-8.176-17.262-17.337-22.064l-5.12-2.683-114.773-.134c-63.126-.073-115.926.153-117.334.502m221.885 31.967c1.418 1.036 1.727 2.957 2.427 15.062.753 13.02.705 13.946-.771 15.026-2.34 1.711-213.488 1.711-215.828 0-1.476-1.08-1.524-2.006-.771-15.026.7-12.105 1.009-14.026 2.427-15.062 2.43-1.778 210.086-1.778 212.516 0" fill-rule="evenodd"/></svg>