<svg xmlns="http://www.w3.org/2000/svg" width="512" height="512"><path d="M241.92 48.669c-64.561 4.115-123.152 38.433-159.962 93.693-26.292 39.469-38.649 92.321-32.455 138.811 6.326 47.479 26.376 88.354 59.673 121.651 33.526 33.526 73.443 53.027 122.504 59.846 4.224.587 15.168 1.068 24.32 1.068 9.152 0 20.096-.481 24.32-1.068 49.001-6.811 88.952-26.339 122.482-59.868 33.529-33.53 53.057-73.481 59.868-122.482 1.376-9.9 1.376-38.74 0-48.64-6.778-48.766-26.328-88.904-59.45-122.057-11.819-11.831-20.651-19.077-33.662-27.617-37.561-24.655-81.952-36.249-127.638-33.337m-41.278 130.123c1.702 1.1 4.006 3.466 5.12 5.257 2.001 3.219 2.03 3.596 2.451 31.925l.427 28.667 56.245-33.963c30.934-18.68 57.28-34.191 58.546-34.469 1.33-.292 3.836.109 5.936.95 2.824 1.129 3.99 2.235 5.222 4.948 1.505 3.313 1.588 7.112 1.606 73.837.018 69.126-.012 70.406-1.726 73.947-2.101 4.34-6.375 6.75-10.573 5.962-1.521-.285-28.076-15.798-59.011-34.473l-56.245-33.954-.427 28.775-.426 28.776-2.572 3.657c-3.552 5.052-7.397 7.124-13.215 7.124-5.819 0-9.663-2.073-13.215-7.126l-2.572-3.659V187.307l1.98-3.185c4.971-7.995 14.735-10.313 22.449-5.33" fill-rule="evenodd"/></svg>