<svg xmlns="http://www.w3.org/2000/svg" width="512" height="512"><path d="M42.608 112.616c-8.174 1.45-16.552 7.137-21.126 14.341-5.566 8.767-5.269 1.489-5.269 129.122 0 110.255.076 116.066 1.577 120.89 5.712 18.351 25.771 28.018 42.297 20.383 2.387-1.103 44.212-25.895 92.945-55.093 48.732-29.198 89.148-53.296 89.813-53.551 1.031-.396 1.212 5.097 1.235 37.387.014 20.819.397 40.732.849 44.252 1.609 12.504 9.476 23.157 20.247 27.42 7.191 2.845 16.898 2.741 23.251-.249 8.163-3.843 193.093-114.905 197.281-118.48 2.602-2.221 4.989-5.423 6.826-9.156 2.599-5.279 2.826-6.391 2.826-13.864 0-7.207-.275-8.685-2.434-13.082-1.339-2.727-4.219-6.71-6.4-8.851-2.795-2.744-32.179-20.77-99.539-61.064-52.566-31.445-96.88-57.731-98.477-58.416-16.88-7.231-36.362 2.32-42.569 20.87-1.134 3.389-1.431 10.905-1.834 46.326l-.48 42.282-90.88-54.426c-49.984-29.935-92.608-54.989-94.72-55.677-5.231-1.703-10.753-2.191-15.419-1.364" fill-rule="evenodd"/></svg>