<svg xmlns="http://www.w3.org/2000/svg" width="512" height="512"><path d="M241.92 48.669c-64.561 4.115-123.152 38.433-159.962 93.693-26.292 39.469-38.649 92.321-32.455 138.811 6.326 47.479 26.376 88.354 59.673 121.651 33.526 33.526 73.443 53.027 122.504 59.846 4.224.587 15.168 1.068 24.32 1.068 9.152 0 20.096-.481 24.32-1.068 49.001-6.811 88.952-26.339 122.482-59.868 33.529-33.53 53.057-73.481 59.868-122.482 1.376-9.9 1.376-38.74 0-48.64-6.778-48.766-26.328-88.904-59.45-122.057-11.819-11.831-20.651-19.077-33.662-27.617-37.561-24.655-81.952-36.249-127.638-33.337M223.147 196.23c17.834 10.76 43.178 26.058 56.32 33.995l23.893 14.432.427-28.675c.421-28.338.45-28.714 2.451-31.933 3.198-5.144 7.759-7.693 13.762-7.693s10.564 2.549 13.762 7.693l2.025 3.258v137.666l-2.572 3.659c-3.552 5.053-7.396 7.126-13.215 7.126-5.818 0-9.663-2.072-13.215-7.124l-2.572-3.657-.426-28.776-.427-28.775-56.245 33.954c-30.935 18.675-57.49 34.188-59.011 34.473-4.21.79-8.472-1.621-10.587-5.992-1.739-3.592-1.757-4.436-1.531-74.951.225-70.611.245-71.343 1.995-73.728 2.447-3.336 7.014-5.574 10.179-4.988 1.408.26 17.152 9.277 34.987 20.036" fill-rule="evenodd"/></svg>