<svg xmlns="http://www.w3.org/2000/svg" width="512" height="512"><path d="M393.813 65.618c-4.337 2.008-7.905 5.797-8.976 9.534-.516 1.797-.837 29.363-.837 71.829 0 37.902-.212 68.912-.47 68.912-.259 0-52.438-31.097-115.953-69.105-63.516-38.007-117.456-70.095-119.868-71.307-2.411-1.211-6.776-2.474-9.7-2.807-18.664-2.126-34.306 8.298-40.124 26.739L96 105.387v301.226l1.885 5.974c4.517 14.318 15.57 24.381 29.599 26.946 5.564 1.017 13.257.087 18.946-2.29 1.773-.74 55.758-32.799 119.967-71.241 64.209-38.443 116.937-69.895 117.173-69.895.237 0 .432 31.008.435 68.906.003 43.774.319 70.039.867 72.011 1.295 4.663 7.33 9.841 12.349 10.593 8.667 1.3 16.467-3.998 18.271-12.409 1.273-5.934 1.284-352.87.012-358.391-2.334-10.129-12.578-15.418-21.691-11.199" fill-rule="evenodd"/></svg>