<svg xmlns="http://www.w3.org/2000/svg" width="512" height="512"><path d="M271.604 17.451c-1.978.618-5.242 2.104-7.253 3.301-2.012 1.197-60.55 59.129-130.086 128.739C21.185 262.691 7.558 276.615 5.191 281.378c-5.008 10.076-6.438 21.527-3.905 31.256 3.233 12.412.657 9.504 69.864 78.871 61.368 61.51 64.382 64.391 70.633 67.535 13.207 6.642 26.279 6.632 39.977-.029l7.253-3.528 126.831-126.835c113.466-113.469 127.089-127.374 129.28-131.955l2.449-5.12.238-67.601c.204-57.947.054-68.396-1.054-73.173-3.768-16.245-16.329-29.067-32.637-33.315-6.803-1.772-136.855-1.802-142.516-.033m217.684 48.182c-4.343 1.972-7.634 6.158-8.792 11.184-.563 2.441-.888 26.802-.902 67.39l-.021 63.567-132.161 132.273c-126.563 126.67-132.203 132.445-133.134 136.334-2.141 8.935 3.507 17.517 13.004 19.759 1.395.33 4.3.025 6.826-.716 4.223-1.238 9.783-6.681 138.884-135.93C492.927 239.42 507.699 224.346 509.525 220.16l2.048-4.693.256-67.414c.141-37.077.019-69.061-.271-71.076-.952-6.623-8.651-12.94-15.771-12.94-1.643 0-4.568.718-6.499 1.596M365.676 83.174c6.631 3.244 11.876 8.646 15.184 15.641 2.413 5.102 2.705 6.548 2.709 13.416.004 6.977-.257 8.23-2.79 13.373-5.697 11.573-16.02 18.047-28.779 18.047s-23.082-6.474-28.779-18.047c-2.536-5.15-2.793-6.386-2.781-13.373.012-6.568.354-8.428 2.333-12.678 3.121-6.7 6.618-10.937 11.739-14.223 6.35-4.075 10.469-5.136 18.837-4.853 6.013.204 8.217.686 12.327 2.697" fill-rule="evenodd"/></svg>