<svg xmlns="http://www.w3.org/2000/svg" viewBox="0 0 512 512"><path d="M244.053 17.561c-8.008 2.107-15.367 6.353-21.328 12.306-4.294 4.289-27.655 38.068-103.036 148.989C66.073 257.75 21.374 324.18 20.357 326.478c-2.909 6.577-4.123 12.201-4.134 19.156-.023 14.918 6.719 28.838 18.119 37.408 5.376 4.042 197.495 106.987 205.445 110.086 4.881 1.902 6.826 2.162 16.213 2.162 9.394 0 11.329-.259 16.213-2.166 7.978-3.114 200.085-106.048 205.445-110.08 17.032-12.811 22.879-36.459 13.986-56.563-1.017-2.298-45.716-68.728-99.333-147.623-75.35-110.875-98.745-144.704-103.037-148.991-6.082-6.074-13.403-10.24-21.72-12.358-6.312-1.608-17.286-1.584-23.501.052m-5.917 50.736c1.624.869 1.651 3.903 1.651 190.359v189.475l-2.495 2.495c-3.107 3.107-5.624 3.162-11.4.248-10.074-5.081-167.688-89.413-170.622-91.291-5.345-3.423-8.267-11.318-6.549-17.698.612-2.271 32.751-50.302 92.282-137.911 50.239-73.935 91.939-134.907 92.666-135.494 1.609-1.297 2.332-1.326 4.467-.183" fill-rule="evenodd"/></svg>