<svg xmlns="http://www.w3.org/2000/svg" width="512" height="512"><path d="M121.345 34.145c-19.502 5.131-35.17 21.317-39.85 41.168-1.884 7.989-1.884 225.385 0 233.374 4.657 19.752 19.476 35.17 39.684 41.288 6.317 1.912 7.072 1.939 62.484 2.244l56.089.308.231 57.763c.226 56.711.263 57.826 2.014 61.177 5.686 10.88 22.32 10.88 28.006 0 1.751-3.351 1.788-4.466 2.014-61.177l.231-57.763 56.089-.308c55.412-.305 56.167-.332 62.484-2.244 16.327-4.943 29.274-15.962 35.989-30.632 5.246-11.459 5.029-5.579 4.779-129.675l-.229-113.295-2.286-6.259c-3.22-8.813-7.074-14.896-13.56-21.399-6.339-6.356-13.977-11.176-22.127-13.964l-5.547-1.898-130.133-.173c-125.897-.167-130.336-.12-136.362 1.465m141.296 111.391c2.165.903 15.98 14.109 43.519 41.6 22.191 22.153 41.361 41.737 42.601 43.522 3.115 4.486 3.629 11.009 1.236 15.699-4.395 8.616-13.282 11.585-21.89 7.314-1.408-.699-14.56-13.22-29.227-27.826l-26.667-26.555v153.137h-32.426V199.29l-26.667 26.555c-14.667 14.606-27.819 27.127-29.227 27.826-8.608 4.271-17.495 1.302-21.89-7.314-2.393-4.69-1.879-11.213 1.236-15.699 3.989-5.744 82.718-83.696 85.934-85.087 3.886-1.68 9.488-1.694 13.468-.035" fill-rule="evenodd"/></svg>