<svg xmlns="http://www.w3.org/2000/svg" width="512" height="512"><path d="M53.193 33.996c-8.285 2.88-15.693 10.189-19.338 19.078-1.85 4.513-1.856 4.748-2.099 79.741-.266 81.949-.211 83.051 4.497 91.085 3.023 5.159 8.967 10.456 14.798 13.19l4.842 2.27h160.463l5.633-2.773c6.679-3.288 11.922-8.644 15.101-15.424l2.27-4.843V55.893l-2.27-4.842c-3.034-6.472-8.101-11.79-14.582-15.304l-5.335-2.894-79.786-.194c-74.838-.182-80.06-.099-84.194 1.337m241.074-.38c-8.702 3.108-15.525 9.264-19.378 17.482l-2.249 4.795V216.32l2.27 4.843c3.179 6.78 8.422 12.136 15.101 15.424l5.633 2.773h160.463l4.842-2.27c5.831-2.734 11.775-8.031 14.798-13.19 4.708-8.034 4.763-9.136 4.497-91.085-.243-74.993-.249-75.228-2.099-79.741-3.647-8.895-11.065-16.209-19.338-19.069-4.106-1.419-9.766-1.522-82.914-1.513-62.416.008-79.146.238-81.626 1.124M173.692 98.521l2.095 2.095v69.92l-2.21 2.625-2.209 2.626h-70.752l-2.095-2.095-2.094-2.094v-70.982l2.094-2.095 2.095-2.094h70.982l2.094 2.094m239.787 0 2.094 2.095v70.982l-2.094 2.094-2.095 2.095h-70.752l-2.209-2.626-2.21-2.625v-69.92l2.095-2.095 2.094-2.094h70.982l2.095 2.094M54.857 273.442c-11.906 3.751-20.305 13.445-22.385 25.838-.688 4.102-.898 27.528-.721 80.453.248 74.424.255 74.682 2.104 79.193a35.138 35.138 0 0 0 19.219 19.219c4.513 1.85 4.748 1.856 79.741 2.099 81.949.266 83.051.211 91.085-4.497 5.159-3.023 10.456-8.967 13.19-14.798l2.27-4.842V295.644l-2.805-5.697c-3.252-6.606-8.581-11.776-15.542-15.08l-4.693-2.227-78.933-.165c-63.585-.133-79.633.055-82.53.967m219.982.981-2.626 2.209v54.366l2.06 2.394 2.059 2.395h54.723l2.366-2.366 2.366-2.366v-54.723l-2.395-2.059-2.394-2.06h-53.534l-2.625 2.21m159.769-.152-2.395 2.058-.26 18.374c-.284 20.132.221 22.806 4.623 24.48 1.182.449 10.181.817 19.999.817h17.851l2.787-2.488 2.787-2.489.282-16.427c.32-18.676-.011-21.496-2.86-24.345-2.027-2.027-2.136-2.038-21.229-2.038-19.052 0-19.209.015-21.585 2.058m-261.316 64.437 2.495 2.494v34.682c0 23.211-.305 35.251-.922 36.404-2.066 3.86-4.673 4.139-38.758 4.139-34.086 0-36.693-.279-38.758-4.139-.618-1.154-.922-13.306-.922-36.804v-35.082l2.094-2.094 2.095-2.095h70.182l2.494 2.495m165.547-.285-2.626 2.209v34.967c0 23.416.305 35.536.922 36.689 2.066 3.86 4.673 4.139 38.758 4.139 26.213 0 32.6-.228 35.045-1.25 5.346-2.233 5.489-3.251 5.489-39.284 0-34.085-.279-36.692-4.139-38.758-1.152-.617-13.155-.922-36.273-.922h-34.551l-2.625 2.21m80.708 78.97c-3.539 2.057-3.974 5.404-3.974 30.607 0 19.095.253 24.554 1.25 26.938 2.156 5.16 4.021 5.489 31.177 5.489s29.021-.329 31.177-5.489c.997-2.384 1.25-7.843 1.25-26.938 0-25.44-.436-28.67-4.139-30.651-2.358-1.262-54.564-1.222-56.741.044m-143.259 15.724c-1.279.694-2.719 1.997-3.2 2.896-.522.975-.875 9.248-.875 20.503 0 25.5-1.396 24.242 26.383 23.766l16.427-.282 2.489-2.787 2.488-2.787v-17.851c0-9.818-.382-18.854-.848-20.081-1.531-4.027-4.995-4.711-23.658-4.673-13.23.027-17.384.307-19.206 1.296" fill-rule="evenodd"/></svg>