<svg xmlns="http://www.w3.org/2000/svg" width="512" height="512"><path d="M130.133 33.671c-21.575 4.741-39.482 20.976-47.099 42.702L80.64 83.2v345.6l2.394 6.827c3.56 10.155 8.482 17.879 16.312 25.6 11.193 11.036 22.734 16.503 38.704 18.333 10.052 1.152 225.848 1.152 235.9 0 15.97-1.83 27.511-7.297 38.704-18.333 7.83-7.721 12.752-15.445 16.312-25.6l2.394-6.827V83.2l-2.394-6.827c-3.45-9.84-8.491-17.852-15.882-25.244-7.386-7.385-15.393-12.422-25.244-15.88l-6.827-2.396-122.88-.154c-99.006-.124-123.874.065-128 .972m213.77 80.805c5.093 2.995 7.67 7.594 7.67 13.686 0 5.881-3.334 11.562-8.205 13.979-3.206 1.592-6.077 1.646-87.368 1.646s-84.162-.054-87.368-1.646c-1.996-.99-4.289-3.179-5.76-5.5-5.959-9.395-1.056-21.418 9.807-24.051 1.475-.357 39.737-.588 85.028-.513l82.346.136 3.85 2.263m-1.933 78.837c1.727.721 3.868 1.969 4.756 2.773 4.411 3.989 6.129 12.527 3.694 18.355-1.384 3.313-6.514 8.003-9.742 8.907-3.046.852-166.31.852-169.356 0-2.934-.822-8.036-5.254-9.659-8.392-2.691-5.205-.851-14.835 3.605-18.865 4.58-4.142 1.91-4.022 90.546-4.058 72.826-.029 83.4.128 86.156 1.28m-80.266 79.808c5.812 2.196 9.9 8.34 9.9 14.879s-4.088 12.683-9.9 14.879c-1.582.598-17.239.908-45.894.908-47.25 0-46.742.047-51.276-4.802-2.936-3.141-4.107-6.296-4.107-11.068 0-6.561 2.812-11.045 8.96-14.286 2.235-1.178 8.104-1.354 46.237-1.384 28.868-.022 44.493.274 46.08.874" fill-rule="evenodd"/></svg>