<svg xmlns="http://www.w3.org/2000/svg" width="512" height="512"><path d="M413.675 33.687C337.08 44.568 242.14 93.942 191.233 149.37c-4.975 5.417-11.906 13.385-15.401 17.706l-6.355 7.857h-7.972c-47.292 0-83.152 20.999-107.256 62.808-10.715 18.585-22.068 53.723-22.047 68.237.017 11.845 8.614 21.995 20.517 24.224 3.031.568 11.63-.067 34.748-2.566 16.896-1.826 31.946-3.496 33.445-3.71 2.675-.383 2.743-.307 3.644 4.029 2.07 9.958 4 12.545 25.357 33.983 21.365 21.444 24.007 23.442 33.615 25.412 4.481.919 4.738 1.108 4.469 3.292-.157 1.275-1.816 16.44-3.687 33.7-2.733 25.222-3.23 32.145-2.529 35.273 2.679 11.953 12.543 20.166 24.241 20.183 11.031.016 40.096-8.267 56.912-16.219 48.719-23.039 74.133-61.962 74.133-113.541v-7.576l7.409-5.871c38.889-30.819 72.734-74.884 98.902-128.769 29.238-60.203 42.565-121.385 34.166-156.844-2.118-8.942-7.438-14.29-16.535-16.62-7.004-1.794-36.488-2.212-47.334-.671m-69.782 92.991c20.64 5.577 37.992 23.63 42.338 44.049 2.106 9.896 1.249 23.147-2.081 32.173-11.652 31.581-46.561 47.439-77.063 35.009-16.941-6.904-30.458-22.244-34.898-39.602-2.079-8.133-2.255-21.641-.375-28.954 5.689-22.14 23.122-38.779 45.626-43.548 6.626-1.404 19.611-.975 26.453.873m-22.186 31.083c-7.684 2.526-14.053 8.089-17.221 15.039-2.736 6.004-2.701 15.329.08 21.564 2.517 5.643 9.628 12.311 15.129 14.185 14.439 4.92 30.015-2.854 34.443-17.191 2.125-6.881 2.125-8.901 0-15.783-2.072-6.709-6.525-12.075-12.895-15.542-3.653-1.988-5.792-2.519-10.97-2.721-3.538-.139-7.393.063-8.566.449M99.171 337.936c-12.545 3.287-25.977 12.439-32.424 22.093-9.028 13.521-15.526 40.595-18.153 75.644-1.149 15.327-.531 18.777 4.212 23.521 4.744 4.743 8.194 5.361 23.521 4.212 30.841-2.312 55.983-7.664 70.497-15.008 12.481-6.315 22.913-19.918 27.234-35.514 3.657-13.197 1.121-21.253-7.875-25.011-4.077-1.704-9.415-1.671-12.797.077-1.479.765-7.581 4.65-13.56 8.633-12.55 8.36-15.734 9.268-22.303 6.362-5.416-2.396-8.662-7.384-8.662-13.313 0-3.992.735-5.677 7.969-18.253 8.495-14.769 9.714-18.569 7.808-24.344-3.226-9.774-11.546-12.747-25.467-9.099" fill-rule="evenodd"/></svg>