<svg xmlns="http://www.w3.org/2000/svg" width="512" height="512"><path d="M169.387 17.5c-1.408.763-3.429 2.201-4.491 3.196-2.696 2.525-12.862 18.334-17.645 27.436-3.263 6.212-3.788 7.793-2.875 8.658.615.583 5.533 2.268 10.931 3.746 5.397 1.478 15.838 4.719 23.203 7.202l13.39 4.515 10.077-6.613c5.542-3.637 14.3-9.126 19.463-12.197 12.073-7.181 12.005-7.12 10.177-9.139-4.306-4.758-29.414-19.116-43.884-25.094-7.033-2.907-14.802-3.631-18.346-1.71m157.44 31.191c-27.124 3.25-58.78 14.496-86.983 30.9-8.151 4.741-10.164 7.031-8.319 9.467.555.732 5.107 3.782 10.117 6.779 10.887 6.511 20.337 13.242 28.377 20.211 3.251 2.819 6.385 5.125 6.965 5.125.579 0 8.479-2.928 17.554-6.506 16.946-6.682 48.172-17.267 61.63-20.892 11.642-3.135 11.583-2.558 2.174-21.374-9.243-18.482-10.149-19.861-14.518-22.09-4.212-2.148-8.878-2.593-16.997-1.62M89.173 81.818c-4.06 1.865-5.879 3.768-7.647 7.999-2.853 6.829-1.278 12.408 5.801 20.539 22.18 25.475 30.253 52.426 27.069 90.364-1.16 13.815-.746 16.027 3.004 16.027 1.516 0 4.889-2.496 11.563-8.558 11.077-10.059 22.353-18.733 35.82-27.551 14.197-9.298 43.313-25.979 60.71-34.782 14.549-7.361 15.147-7.765 15.147-10.219 0-2.293-.865-3.123-8.435-8.082-27.246-17.852-71.958-34.549-118.565-44.275-16.682-3.482-19.678-3.661-24.467-1.462m311.467 33.361c-73.968 17.758-136.838 43.381-202.667 82.597-38.563 22.974-61.716 43.908-78.587 71.057-23.688 38.119-30.025 89.997-16.085 131.671 17.919 53.567 65.512 87.946 130.796 94.481 14.412 1.443 42.556.611 55.61-1.642 36.513-6.305 65.413-20.98 87.893-44.632 22.512-23.686 35.319-53.128 37.891-87.109 1.498-19.778-.849-39.022-8.037-65.922-12.396-46.392-14.07-54.884-14.064-71.363.007-18.327 4.213-35.116 13.19-52.648 4.773-9.322 13.199-22.504 19.73-30.869 4.305-5.513 5.477-8.269 5.477-12.883 0-4.658-1.742-8.409-5.397-11.617-2.88-2.529-7.847-4.573-10.817-4.452-.704.029-7.424 1.528-14.933 3.331" fill-rule="evenodd"/></svg>