<svg xmlns="http://www.w3.org/2000/svg" width="512" height="512"><path d="M80.213 34.166C62.188 38.802 46.92 51.236 38.864 67.84 31.356 83.316 32 65.674 32 256s-.644 172.684 6.864 188.16c6.246 12.873 16.103 22.73 28.976 28.976C83.316 480.644 65.674 480 256 480s172.684.644 188.16-6.864c12.873-6.246 22.73-16.103 28.976-28.976 7.458-15.373 6.864-1.645 6.864-158.72V146.347l-1.893-5.974c-3.75-11.835-5.334-13.678-50.051-58.207-34.883-34.737-42.794-42.199-47.112-44.437-10.889-5.643-1.005-5.307-154.777-5.255-134.968.045-139.764.101-145.954 1.692m219.324 78.909c1.371.709 2.888 2.028 3.371 2.931.548 1.025.879 11.581.879 28.086v26.444l-2.21 2.625-2.209 2.626h-91.041c-99.524 0-93.436.313-95.606-4.925-.718-1.734-.936-9.797-.758-28.106.237-24.281.343-25.776 1.957-27.568.939-1.043 2.475-2.21 3.413-2.595.939-.384 41.758-.722 90.709-.752 77.788-.048 89.317.108 91.495 1.234m-21.958 162.05c44.438 13.154 68.661 58.968 54.028 102.183-9.593 28.327-33.825 48.956-63.021 53.65-18.992 3.053-40.96-1.723-56.799-12.35-39.925-26.787-47.522-82.873-16.109-118.933 11.709-13.441 29.334-23.376 47.232-26.624 2.271-.412 9.314-.614 15.65-.448 9.304.244 12.963.729 19.019 2.522m-28.832 29.535c-13.995 1.876-28.22 11.943-34.91 24.707-11.786 22.482-4.721 49.187 16.71 63.166 14.975 9.767 35.931 9.767 50.906 0 25.77-16.809 30.052-52.362 8.877-73.71-11.222-11.314-25.799-16.279-41.583-14.163" fill-rule="evenodd"/></svg>