<svg xmlns="http://www.w3.org/2000/svg" viewBox="0 0 512 512"><path d="M124.207 33.804c-40.132 7.244-73.848 36.641-86.504 75.423C31.664 127.73 32 119.111 32 255.573c0 116.657.081 123.313 1.604 131.414 3.891 20.704 13.235 40.091 26.433 54.842 17.032 19.035 36.886 30.438 63.109 36.246L131.84 480h248.32l8.694-1.925c26.223-5.808 46.077-17.211 63.109-36.246 12.852-14.365 21.403-31.712 26.112-52.975L480 380.16V131.84l-1.925-8.694c-5.854-26.43-17.179-46.047-36.555-63.314-14.746-13.142-34.527-22.622-54.432-26.086-10.944-1.905-252.304-1.852-262.881.058m168.576 53.568c22.073 3.889 40.834 10.162 60.732 20.304 16.692 8.508 37.959 23.638 48.567 34.553 15.654 16.105 18.556 41.548 6.916 60.625-3.105 5.089-28.603 35.801-38.901 46.855-8.915 9.57-18.546 14.027-30.481 14.105-8.898.059-14.72-1.753-26.443-8.226-11.881-6.562-21.978-10.804-33.068-13.894-7.674-2.138-9.542-2.317-24.105-2.317s-16.431.179-24.105 2.317c-11.199 3.121-21.257 7.363-33.225 14.017-12.251 6.81-16.169 8.05-25.503 8.073-12.627.031-22.094-4.231-31.264-14.075-10.298-11.054-35.796-41.766-38.901-46.855-9.395-15.398-9.459-35.896-.16-51.387 3.748-6.245 8.674-11.396 18.758-19.618 27.42-22.356 60.604-37.755 94.72-43.956 15.778-2.867 22.368-3.318 43.947-3.007 16.862.244 22.036.639 32.516 2.486" fill-rule="evenodd"/></svg>