<svg xmlns="http://www.w3.org/2000/svg" width="512" height="512"><path d="M241.92 48.669c-64.561 4.115-123.152 38.433-159.962 93.693-26.292 39.469-38.649 92.321-32.455 138.811 6.326 47.479 26.376 88.354 59.673 121.651 33.526 33.526 73.443 53.027 122.504 59.846 4.224.587 15.168 1.068 24.32 1.068 9.152 0 20.096-.481 24.32-1.068 49.001-6.811 88.952-26.339 122.482-59.868 33.529-33.53 53.057-73.481 59.868-122.482 1.376-9.9 1.376-38.74 0-48.64-6.778-48.766-26.328-88.904-59.45-122.057-11.819-11.831-20.651-19.077-33.662-27.617-37.561-24.655-81.952-36.249-127.638-33.337m-17.26 98.09c9.233 6.332 9.234 20.149 0 26.482-2.995 2.055-3.642 2.132-21.501 2.556-27.524.654-26.76-.097-27.372 26.936-.409 18.036-.513 18.963-2.437 21.76-2.684 3.901-5.185 5.67-9.741 6.888-7.115 1.903-15.292-2.254-18.242-9.274-1.73-4.117-1.614-38.22.153-45.005 3.936-15.112 16.12-27.431 31.216-31.561 3.548-.971 9.19-1.218 24.716-1.08 19.886.177 20.154.203 23.208 2.298m110.238-1.239c15.311 3.988 27.594 16.271 31.582 31.582 1.767 6.785 1.883 40.888.153 45.005-2.95 7.02-11.127 11.177-18.242 9.274-4.556-1.218-7.057-2.987-9.741-6.888-1.924-2.797-2.028-3.724-2.437-21.76-.612-27.024.142-26.281-27.306-26.936-17.002-.405-18.568-.575-21.366-2.315-10.401-6.469-9.125-22.994 2.166-28.054 3.874-1.737 38.44-1.666 45.191.092M168.069 282.535c1.679.944 4.007 3.106 5.172 4.805 2.061 3.004 2.131 3.604 2.546 21.927.615 27.165-.219 26.331 26.946 26.946 18.323.415 18.923.485 21.927 2.546 9.234 6.333 9.233 20.15 0 26.482-3.043 2.087-3.394 2.123-23.051 2.377-22.144.285-25.17-.171-34.771-5.24-10.321-5.45-19.358-17.526-21.755-29.07-.599-2.888-.864-11.838-.702-23.756.253-18.699.305-19.19 2.353-22.176 4.865-7.094 13.743-9.108 21.335-4.841m192 0c1.679.944 4.007 3.106 5.172 4.805 2.079 3.031 2.124 3.451 2.378 22.212.162 11.918-.103 20.868-.702 23.756-2.377 11.446-11.532 23.662-21.823 29.119-8.851 4.693-13.075 5.36-33.964 5.36-17.294 0-19.038-.139-22.446-1.789-10.368-5.019-11.134-20.524-1.344-27.239 3.004-2.061 3.604-2.131 21.927-2.546 27.165-.615 26.331.219 26.946-26.946.414-18.261.491-18.932 2.521-21.892 4.866-7.093 13.743-9.107 21.335-4.84" fill-rule="evenodd"/></svg>