<svg xmlns="http://www.w3.org/2000/svg" width="512" height="512"><path d="M110.371 47.322c-7.743 1.431-13.854 3.433-20.344 6.666-20.498 10.208-34.22 26.567-41.12 49.019-2.295 7.467-2.306 7.635-2.632 38.992-.365 35.281-.272 35.983 5.627 42.514 10.566 11.695 28.752 9.081 35.733-5.136l2.392-4.87.426-29.867.427-29.867 2.307-4.922c2.97-6.34 10.324-13.694 16.664-16.664l4.922-2.307 29.867-.427 29.867-.426 4.87-2.392c16.698-8.2 16.597-30.616-.177-39.539-2.731-1.453-5.542-1.603-32.853-1.746-21.713-.114-31.535.152-35.976.972m225.837-.477c-8.946 2.858-15.025 10.207-15.963 19.296-.92 8.909 3.942 17.351 12.378 21.494l4.87 2.392 29.867.426 29.867.427 4.922 2.307c6.34 2.97 13.694 10.324 16.664 16.664l2.307 4.922.427 29.867.426 29.867 2.392 4.87c6.981 14.217 25.167 16.831 35.733 5.136 5.899-6.531 5.992-7.233 5.627-42.514-.326-31.357-.337-31.525-2.632-38.992-8.447-27.486-28.376-47.015-55.626-54.511-6.368-1.752-8.92-1.893-37.974-2.106-17.13-.126-32.109.079-33.285.455M62.288 320.747c-6.774 2.221-12.424 7.51-14.873 13.923-1.313 3.44-1.432 7.119-1.14 35.331.326 31.357.337 31.525 2.632 38.992 4.348 14.148 11.447 25.95 21.182 35.216 9.36 8.908 19.632 14.801 32.918 18.884 7.467 2.295 7.635 2.306 38.992 2.632 35.281.365 35.983.272 42.514-5.627 9.245-8.353 9.867-22.162 1.391-30.895-6.417-6.613-7.194-6.761-35.717-6.801-13.846-.02-27.641-.393-30.656-.829-11.398-1.647-21.467-9.134-26.435-19.653l-2.216-4.693-.446-29.867c-.481-32.225-.565-32.823-5.451-39.229-4.34-5.69-16.147-9.532-22.695-7.384m375.783.132c-5.599 1.728-10.823 6.146-13.518 11.431l-2.58 5.057-.426 29.93-.427 29.93-2.216 4.693c-4.968 10.519-15.037 18.006-26.435 19.653-3.015.436-16.831.8-30.701.81l-25.22.017-4.415 2.2c-13.746 6.85-16.136 25.117-4.646 35.498 6.531 5.899 7.233 5.992 42.514 5.627 31.357-.326 31.525-.337 38.992-2.632 27.066-8.318 45.782-27.034 54.1-54.1 2.295-7.467 2.306-7.635 2.632-38.992.292-28.212.173-31.891-1.14-35.331-1.831-4.794-6.456-9.99-10.918-12.266-3.893-1.986-11.648-2.744-15.596-1.525" fill-rule="evenodd"/></svg>