<svg xmlns="http://www.w3.org/2000/svg" width="512" height="512"><path d="M209.423 48.651c-72.706 5.082-135.956 57.315-155.177 128.148-10.562 38.926-7.744 78.044 8.309 115.318 31.078 72.162 108.364 115.157 185.92 103.431 24.695-3.733 49.453-13.232 69.818-26.786l8.96-5.963 48.214 48.111c50.837 50.73 50.815 50.712 59.864 52.037 7.856 1.151 17.692-3.315 22.896-10.396 3.352-4.561 5.452-12.224 4.72-17.22-1.325-9.049-1.307-9.027-52.037-59.864l-48.111-48.214 5.93-8.91c24.866-37.361 34.27-85.008 25.455-128.979-11.879-59.257-52.46-107.585-108.849-129.632-22.673-8.865-50.179-12.88-75.912-11.081m39.295 52.039c23.795 5.093 44.167 16.302 61.949 34.083 17.881 17.882 28.92 38.015 34.204 62.384 1.639 7.562 1.934 11.462 1.934 25.563 0 14.101-.295 18.001-1.934 25.563-5.284 24.369-16.323 44.502-34.204 62.384-18.202 18.201-38.595 29.238-64.054 34.666-10.391 2.216-37.532 2.187-47.786-.051-25.914-5.656-46.003-16.512-64.032-34.603-18.267-18.33-29.648-39.555-34.687-64.689-2.337-11.653-2.096-37.021.463-48.833 4.963-22.908 15.873-43.509 31.948-60.324 19.34-20.229 43.503-32.959 71.001-37.404 11.057-1.788 33.937-1.149 45.198 1.261" fill-rule="evenodd"/></svg>