<svg xmlns="http://www.w3.org/2000/svg" width="512" height="512"><path d="M35.106 48.705c-7.784 1.53-15.795 9.036-18.102 16.961-.581 1.997-.793 24.235-.623 65.321l.259 62.293 1.884 3.523c2.714 5.072 9.081 10.354 14.255 11.822 2.388.678 56.556 10.872 120.374 22.653 63.818 11.781 116.522 21.826 117.12 22.322 1.441 1.196 1.386 4.503-.095 5.732-.65.539-54.122 10.76-118.827 22.713-83.295 15.387-118.844 22.283-121.754 23.616-4.328 1.984-8.836 6.362-11.415 11.088-1.441 2.639-1.558 6.939-1.783 65.544-.269 69.959-.513 66.773 5.641 73.584 4.723 5.229 10.486 7.786 17.64 7.828l5.973.035L262.4 374.294c135.532-55.932 218.186-90.475 220.587-92.191 18.531-13.243 16.3-43.456-3.963-53.672-7.281-3.67-428.93-178.343-433.343-179.517-4.694-1.248-5.233-1.259-10.575-.209" fill-rule="evenodd"/></svg>