<svg xmlns="http://www.w3.org/2000/svg" width="512" height="512"><path d="M201.779 28.893c-6.14 2.905-11.624 8.732-13.557 14.406-.74 2.172-2.72 13.751-4.4 25.729-1.68 11.979-3.646 22.948-4.368 24.376-2.126 4.203-3.598 5.447-12.223 10.331-11.745 6.649-11.62 6.663-37.951-4.002-19.223-7.785-21.882-8.645-26.88-8.692-3.257-.03-7.473.596-10.213 1.517-8.489 2.855-10.891 6.167-35.606 49.096-12.294 21.354-22.795 39.978-23.336 41.386-1.522 3.963-1.355 12.278.347 17.269 2.135 6.259 6.154 10.279 25.639 25.649 11.207 8.839 17.526 14.414 18.56 16.375 1.287 2.439 1.569 4.942 1.569 13.909 0 7.786-.348 11.6-1.21 13.24-1.751 3.336-5.858 6.965-23.336 20.62-8.572 6.697-16.362 13.267-17.311 14.6-5.777 8.113-7.001 18.201-3.21 26.467 2.946 6.425 42.944 75.503 46.227 79.836 3.259 4.302 6.59 6.669 12.615 8.964 8.031 3.059 11.822 2.265 36.889-7.734 25.968-10.359 25.334-10.296 36.927-3.66 8.07 4.619 11.612 7.733 13.013 11.441.48 1.271 2.24 12.105 3.912 24.077 1.839 13.17 3.673 23.247 4.644 25.512 1.972 4.599 6.178 9.495 10.502 12.225 7.107 4.487 9.485 4.662 59.269 4.375 42.739-.246 46.218-.377 50.189-1.892 5.841-2.227 13.313-9.767 15.212-15.351.788-2.316 2.806-14.008 4.485-25.981 3.057-21.797 4.216-26.173 7.732-29.196.871-.75 5.054-3.342 9.294-5.76 11.17-6.373 11.344-6.353 37.198 4.092 11.558 4.669 22.954 8.747 25.325 9.061 3.234.429 5.806.118 10.297-1.246 10.407-3.161 11.511-4.61 36.465-47.879 12.045-20.885 22.662-39.667 23.593-41.737 3.528-7.842 1.711-19.563-4.083-26.331-1.626-1.9-10.635-9.475-20.018-16.833-9.384-7.358-17.928-14.593-18.987-16.078-1.74-2.439-1.953-3.858-2.199-14.647-.258-11.33-.169-12.101 1.719-14.934 1.096-1.642 7.938-7.71 15.206-13.483 25.337-20.127 24.333-19.198 27.334-25.294 3.84-7.801 3.901-14.97.194-22.78-5.076-10.692-43.649-76.34-47.267-80.443-5.247-5.951-11.267-8.602-19.527-8.601-6.125.002-7.335.376-28.228 8.742-13.503 5.406-22.995 8.739-24.89 8.739-3.778 0-15.585-5.949-20.688-10.424-1.989-1.744-4.038-4.24-4.554-5.546-.516-1.307-2.313-12.063-3.993-23.902-1.68-11.84-3.486-22.784-4.013-24.32-2.401-6.995-7.338-12.255-14.754-15.718l-4.266-1.993L256 26.462l-49.067-.007-5.154 2.438m62.777 147.79c10.068 1.248 16.344 2.983 24.399 6.745 18.244 8.522 31.259 21.553 39.567 39.617 19.663 42.751-2.09 93.289-46.732 108.574-28.726 9.835-59.597 2.829-81.277-18.446-8.258-8.103-11.365-12.335-16.31-22.216-5.46-10.909-7.745-21.22-7.745-34.957 0-9.564.365-12.914 2.147-19.73 2.194-8.388 7.094-19.246 11.72-25.97 12.444-18.086 34.101-31.05 56.181-33.629 8.339-.974 10.108-.972 18.05.012m-18.369 32.344c-22.169 4.804-37.974 24.355-37.974 46.973 0 13.119 4.67 24.3 14.078 33.709 18.962 18.962 48.456 18.962 67.418 0 24.831-24.831 15.773-66.104-17.257-78.626-6.358-2.411-19.779-3.462-26.265-2.056" fill-rule="evenodd"/></svg>