<svg xmlns="http://www.w3.org/2000/svg" width="512" height="512"><path d="M176.648 34.01c-1.624.871-3.973 2.887-5.221 4.48-1.248 1.593-36.551 64.288-78.45 139.322-81.78 146.452-78.461 140.006-75.97 147.554 1.215 3.68 5.813 8.319 9.611 9.695 3.999 1.449 309.689 1.613 313.948.168 9.844-3.338 14.014-13.66 9.277-22.963-7.002-13.75-152.509-273.065-154.314-275.009-1.237-1.332-3.286-2.964-4.553-3.627-3.302-1.725-10.773-1.527-14.328.38m135.694 127.78c-4.447.712-8.233 1.443-8.413 1.623-.18.18 16.703 30.781 37.516 68.004 22.914 40.977 38.636 70.018 39.852 73.611 6.623 19.574-.548 41.84-17.33 53.816-2.942 2.1-7.99 4.875-11.218 6.167l-5.869 2.349-81.758.234-81.757.234.576 1.899c1.896 6.258 7.028 18.361 10.708 25.258 23.363 43.787 65.668 74.341 114.684 82.828 44.371 7.682 92.232-5.001 127.785-33.862 8.009-6.502 22.294-21.639 28.208-29.892 13.906-19.405 22.518-39.073 27.546-62.912 2.7-12.8 3.701-35.859 2.116-48.744-6.034-49.061-31.578-90.063-73.015-117.197-15.056-9.859-36.401-18.42-55.513-22.266-12.4-2.496-41.824-3.121-54.118-1.15" fill-rule="evenodd"/></svg>