<svg xmlns="http://www.w3.org/2000/svg" width="512" height="512"><path d="M247.42 34.891c-6.056 3.934-84.122 82.721-85.677 86.468-3.944 9.505 2.146 20.69 11.862 21.785 8.77.988 7.821 1.699 38.235-28.629l27.947-27.867v89.029l-56.534.334c-63.414.373-60.503.102-73.6 6.867-9.415 4.864-18.376 13.881-23.186 23.332-6.656 13.08-6.338 6.542-6.067 124.457l.24 104.96 2.286 6.259c3.22 8.813 7.074 14.896 13.56 21.399 9.306 9.331 20.014 14.52 33.647 16.306 7.863 1.031 243.871 1.031 251.734 0 13.633-1.786 24.341-6.975 33.647-16.306 6.486-6.503 10.34-12.586 13.56-21.399l2.286-6.259.24-104.96c.271-117.915.589-111.377-6.067-124.457-4.81-9.451-13.771-18.468-23.186-23.332-13.097-6.765-10.186-6.494-73.6-6.867l-56.534-.334V86.648l27.947 27.867c30.414 30.328 29.465 29.617 38.235 28.629 9.716-1.095 15.806-12.28 11.862-21.785-1.555-3.747-79.621-82.534-85.677-86.468-3.038-1.973-4.748-2.464-8.58-2.464s-5.542.491-8.58 2.464m24.602 215.776c-.213 67.798-.369 75.122-1.648 77.44-2.849 5.164-8.937 8.96-14.374 8.96-5.437 0-11.525-3.796-14.374-8.96-1.279-2.318-1.435-9.642-1.648-77.44l-.236-74.88h32.516l-.236 74.88" fill-rule="evenodd"/></svg>