<svg xmlns="http://www.w3.org/2000/svg" width="512" height="512"><path d="M249.173 32.984c-.704.278-9.152 3.964-18.773 8.191-63.599 27.937-104.47 40.62-170.8 53.006-17.285 3.228-20.016 4.22-23.242 8.45-3.546 4.649-4.093 9.426-4.128 36.036-.033 25.42.674 36.754 3.662 58.704 8.167 60.013 30.687 115.821 65.86 163.213 34.07 45.906 83.478 87.317 133.341 111.761 20.257 9.93 21.424 9.942 41.114.438 36.434-17.585 70.78-42.93 103.1-76.08 58.712-60.22 92-134.846 99.494-223.05 1.302-15.318 1.267-58.253-.051-63.981-1.138-4.943-4.168-9.281-7.794-11.156-1.406-.727-11.602-3.042-22.657-5.145-65.021-12.368-105.405-25.048-167.126-52.475-16.823-7.476-18.311-7.978-24.32-8.191-3.52-.126-6.976 0-7.68.279" fill-rule="evenodd"/></svg>