<svg xmlns="http://www.w3.org/2000/svg" width="512" height="512"><path d="M247.467 17.987c-4.701 2.125-8.93 6.063-11.382 10.6-1.71 3.163-1.865 4.836-2.116 22.826-.163 11.702-.598 19.414-1.094 19.414-2.109 0-12.019-3.905-19.728-7.774-9.937-4.987-14.548-5.829-21.218-3.878-6.027 1.764-10.371 5.458-13.187 11.212-4.338 8.868-2.633 18.429 4.538 25.431 6.417 6.266 30.337 16.439 45.627 19.405l4.906.951v50.764c0 27.919-.288 50.606-.64 50.414-4.21-2.294-86.137-49.617-86.586-50.015-.338-.298.522-4.074 1.91-8.39 5.169-16.072 7.517-39.461 4.787-47.679-3.072-9.251-11.002-14.856-20.972-14.823-6.521.022-11.021 1.803-15.324 6.064-4.731 4.686-6.246 9.22-6.949 20.798-.828 13.64-2.318 21.166-4.06 20.498-.716-.275-8.022-4.378-16.238-9.119-21.079-12.164-23.012-12.975-29.648-12.442-11.921.956-20.157 9.951-20.1 21.948.029 6.106 2.461 11.667 6.809 15.57 1.715 1.539 10.713 7.172 19.995 12.517 9.282 5.346 17.058 10.014 17.281 10.374.669 1.082-8.034 8.417-16.665 14.046-9.32 6.078-10.378 7.121-12.816 12.633-6.409 14.489 4.158 30.421 20.195 30.446 4.361.007 6.257-.511 11.236-3.073 8.597-4.422 22.493-15.151 30.685-23.692 3.882-4.048 7.266-7.36 7.518-7.36.734 0 85.155 48.751 86.262 49.814.751.72-9.827 7.2-42.307 25.92-23.819 13.728-43.486 24.96-43.704 24.96-.219 0-4.619-4.128-9.779-9.174-10.081-9.857-19.753-17.214-28.897-21.98-4.741-2.471-6.617-2.978-10.988-2.971-16.363.026-26.795 16.348-19.905 31.144 2.243 4.816 5.307 7.666 14.213 13.221 6.179 3.853 16.153 12.292 15.354 12.992-.235.205-8.299 4.901-17.92 10.436-9.621 5.534-18.716 11.217-20.21 12.629-6.127 5.79-8.041 16.194-4.496 24.436 3.683 8.561 11.82 13.369 21.573 12.748 5.207-.331 6.401-.882 24.434-11.26 10.428-6.002 19.101-10.77 19.274-10.597.854.853 2.945 16.145 2.945 21.533 0 8.5 1.901 14.296 6.244 19.029 6.95 7.577 16.554 9.447 25.653 4.995 5.643-2.761 9.378-6.988 11.307-12.796 2.73-8.218.382-31.607-4.787-47.679-1.388-4.316-2.248-8.082-1.91-8.368.337-.285 18.853-11.022 41.146-23.859 22.294-12.836 41.782-24.071 43.307-24.967l2.773-1.628v101.505l-8.32 1.911c-15.328 3.521-34.439 11.852-41.631 18.149-12.508 10.952-8.504 31.531 7.176 36.874 7.027 2.394 10.809 1.791 21.416-3.415 8.736-4.287 18.324-8.082 20.421-8.082.496 0 .931 7.712 1.094 19.414.309 22.158.659 23.482 7.865 29.826 8.762 7.712 20.7 7.301 29.232-1.008 6.409-6.242 7.121-9.328 7.121-30.893 0-10.944.313-17.339.85-17.339 2.142 0 12.298 4.034 20.02 7.952 6 3.043 9.799 4.419 12.924 4.678 20.781 1.723 31.814-24.299 16.126-38.034-7.163-6.271-26.3-14.607-41.6-18.122l-8.32-1.911V294.231l2.773 1.626c1.525.895 21.013 12.133 43.307 24.975 22.293 12.842 40.809 23.579 41.146 23.861.338.282-.522 4.044-1.91 8.36-5.169 16.072-7.517 39.461-4.787 47.679 4.047 12.185 18.108 18.551 29.551 13.379 9.437-4.267 12.808-10.617 13.717-25.844.545-9.124 2.034-19.318 2.974-20.36.152-.168 8.699 4.546 18.994 10.477 21.482 12.374 24.911 13.565 32.604 11.321 12.046-3.513 18.801-15.993 15.187-28.056-1.929-6.439-6.314-10.062-25.661-21.201-9.974-5.742-18.327-10.618-18.562-10.835-.828-.765 8.209-8.26 16.365-13.573 4.542-2.958 9.239-6.664 10.437-8.235 12.624-16.552-2.277-39.598-22.471-34.754-7.222 1.733-23.576 13.182-34.684 24.282l-9.447 9.44-43.607-25.173c-32.857-18.967-43.361-25.412-42.607-26.142 1.101-1.066 85.514-49.805 86.259-49.805.255 0 3.64 3.312 7.522 7.36 8.192 8.541 22.088 19.27 30.685 23.692 4.993 2.569 6.863 3.079 11.236 3.063 9.108-.033 16.077-4.369 19.852-12.355 2.741-5.799 2.743-12.966.005-18.773-2.406-5.1-3.871-6.481-13.332-12.561-7.976-5.126-16.462-12.373-15.78-13.476.239-.387 8.016-5.05 17.281-10.362 9.265-5.312 18.464-11.139 20.441-12.949 9.212-8.433 9.091-22.545-.27-31.637-4.473-4.343-9.306-5.949-16.382-5.442-5.579.399-6.519.825-23.683 10.727-9.83 5.671-18.501 10.552-19.268 10.846-1.17.448-1.618-.678-2.775-6.986-.759-4.136-1.38-10.426-1.379-13.978.003-8.721-1.862-14.585-6.098-19.181-4.767-5.171-9.351-7.214-16.189-7.214-9.925 0-17.855 5.627-20.915 14.841-2.73 8.218-.382 31.607 4.787 47.679 1.388 4.316 2.248 8.092 1.91 8.39-.449.398-82.376 47.721-86.586 50.015-.352.192-.64-22.468-.64-50.355v-50.704l9.6-2.276c5.28-1.252 13.425-3.82 18.1-5.707 22.077-8.908 29.58-16.085 29.625-28.34.036-9.687-6.205-18.092-15.441-20.795-6.67-1.951-11.281-1.109-21.218 3.878-7.797 3.913-17.624 7.774-19.786 7.774-.576 0-.88-5.995-.88-17.339 0-20.075-.812-24.237-5.808-29.779-6.375-7.071-16.689-9.44-24.912-5.722" fill-rule="evenodd"/></svg>