<svg xmlns="http://www.w3.org/2000/svg" viewBox="0 0 512 512"><path d="M82.347 1.209c-5.333 2.381-7.021 5.446-16.29 29.586-4.94 12.866-9.632 24.047-10.426 24.847-.794.8-12.004 5.525-24.911 10.499C15.062 72.175 6.437 75.95 4.802 77.486 1.843 80.262 0 84.307 0 88.023c0 3.673 3.024 9.726 5.833 11.677 1.251.868 12.385 5.455 24.743 10.193 12.358 4.738 23.306 9.163 24.328 9.833 1.329.87 4.39 7.825 10.714 24.337 4.869 12.716 9.554 24.272 10.411 25.68 4.632 7.617 17.837 7.951 23.326.59 1.088-1.459 5.955-13.014 10.815-25.677 4.861-12.663 9.428-23.614 10.15-24.336.722-.722 11.673-5.289 24.336-10.15 12.663-4.86 24.218-9.727 25.677-10.815 7.89-5.884 7.024-18.82-1.585-23.673-1.995-1.125-13.558-5.828-25.695-10.45-15.899-6.056-22.412-8.931-23.301-10.287-.678-1.036-5.018-11.713-9.645-23.728-4.626-12.014-9.122-23.061-9.99-24.548-3.161-5.411-11.878-8.09-17.77-5.46m309.84 33.152c-1.833 1.048-4.041 2.866-4.907 4.039-.865 1.173-6.965 16.149-13.554 33.28-6.59 17.131-12.647 31.817-13.46 32.636-.813.819-15.791 7.008-33.284 13.754-18.299 7.056-32.675 13.081-33.852 14.188-4.639 4.357-6.354 13.14-3.598 18.421 2.842 5.444 5.814 7.096 28.445 15.811 46.146 17.771 42 15.933 43.746 19.404.863 1.716 6.633 16.367 12.823 32.559 10.493 27.452 11.501 29.681 14.922 32.996 4.336 4.202 9.486 5.451 15.31 3.713 7.032-2.098 8.458-4.621 20.542-36.346 12.795-33.592 13.395-34.918 16.502-36.519 1.286-.662 15.586-6.285 31.778-12.494 16.192-6.21 30.73-12.255 32.306-13.434 7.04-5.266 7.962-16.128 1.925-22.685-3.143-3.414-3.944-3.772-36.375-16.251-16.015-6.163-29.971-11.779-31.012-12.479-1.385-.932-5.19-9.837-14.168-33.157-12.564-32.636-13.918-35.299-19.407-38.167-3.571-1.865-10.769-1.507-14.682.731M199.964 129.58c-5.412 1.87-9.936 5.228-12.622 9.369-1.117 1.722-11.319 27.304-22.672 56.849-11.353 29.544-21.216 54.594-21.917 55.665-.702 1.071-2.485 2.685-3.961 3.587-1.477.902-26.283 10.709-55.125 21.795-28.842 11.085-54.104 21.131-56.138 22.323-4.387 2.571-9.108 8.751-10.512 13.759-1.341 4.786-.673 13.515 1.359 17.74 2.147 4.464 7.975 10.241 12.072 11.967 1.792.755 26.842 10.447 55.666 21.538 42.788 16.465 52.891 20.653 55.04 22.815 2.139 2.151 6.554 12.871 23.539 57.154 12 31.287 21.922 55.915 23.289 57.811 4.238 5.878 12.455 10.033 19.863 10.043 6.842.01 12.226-2.325 17.382-7.538l4.78-4.83 20.779-54.187c11.428-29.803 21.715-55.438 22.859-56.968 1.144-1.53 3.498-3.495 5.231-4.367 1.733-.872 26.383-10.51 54.777-21.418 28.395-10.909 52.607-20.338 53.805-20.955 3.127-1.61 9.029-8.266 10.705-12.074 2.204-5.008 2.035-14.222-.359-19.471-2.11-4.629-5.919-9.021-9.964-11.487-1.408-.859-25.792-10.486-54.187-21.394-28.394-10.908-53.044-20.545-54.777-21.415-1.733-.87-4.087-2.833-5.231-4.363-1.144-1.53-11.431-27.165-22.859-56.968l-20.779-54.187-4.71-4.727c-7.272-7.298-15.835-9.349-25.333-6.066" fill-rule="evenodd"/></svg>