<svg xmlns="http://www.w3.org/2000/svg" width="512" height="512"><path d="M248.175 34.156c-5.964 3.151-3.148-4.446-36.597 98.734l-19.151 59.076-82.836.23-82.836.231-3.461 2.29c-7.397 4.896-9.361 15.966-4.007 22.581 1.502 1.857 27.941 20.549 66.071 46.712 34.962 23.989 64.477 44.264 65.59 45.055l2.022 1.439-25.419 75.225c-18.352 54.313-25.404 76.241-25.364 78.878.146 9.649 9.989 17.25 19.3 14.906 2.915-.734 19.062-12.027 68.946-48.217 35.827-25.992 65.332-47.258 65.567-47.258.235 0 29.74 21.266 65.567 47.258 47.364 34.362 66.109 47.502 68.693 48.153 9.945 2.504 19.503-5.19 19.457-15.662-.01-2.193-9.044-30.111-25.254-78.038-13.881-41.043-25.136-74.902-25.01-75.242.125-.34 29.219-20.459 64.654-44.711 35.434-24.251 65.667-45.276 67.184-46.723 3.446-3.287 4.809-7.3 4.295-12.645-.505-5.257-3.743-10.24-8.043-12.375-3.144-1.561-6.591-1.636-85.623-1.854l-82.347-.228-19.579-60.359c-28.068-86.529-29.511-90.825-31.367-93.445-3.887-5.483-13.934-7.454-20.452-4.011" fill-rule="evenodd"/></svg>