<svg xmlns="http://www.w3.org/2000/svg" width="512" height="512"><path d="M173.474 18.778c-5.849 2.93-8.993 6.142-11.689 11.942L160 34.56v442.88l1.834 3.967c2.21 4.782 7.235 9.988 11.848 12.275 3.05 1.512 5.532 1.703 25.124 1.934 18.841.221 22.248.061 25.55-1.2 5.128-1.958 10.984-7.506 13.418-12.709l1.996-4.267-.01-221.44c-.011-220.79-.016-221.451-1.745-225.28-2.111-4.673-6.862-9.746-11.455-12.232-3.21-1.738-4.736-1.863-25.6-2.106l-22.187-.259-5.299 2.655m225.033 79.419c-5.517 2.491-10.798 8.007-12.808 13.381-1.677 4.479-1.699 6.917-1.699 184.409 0 200.898-.538 184.093 6.141 191.681 6.544 7.434 7.43 7.654 32.091 7.959 24.343.301 27.098-.149 33.276-5.438 1.915-1.639 4.561-5.178 5.88-7.864l2.399-4.885V295.68c0-172.213-.08-181.929-1.513-184.979-2.306-4.907-7.401-10.055-12.141-12.267-4.121-1.923-5.007-1.99-26.026-1.98-20.03.009-22.066.148-25.6 1.743M289.274 209.011c-6.355 1.933-12.43 7.38-15.289 13.709-1.718 3.804-1.734 5.006-1.745 129.28l-.01 125.44 1.996 4.267c2.434 5.203 8.29 10.751 13.418 12.709 3.302 1.261 6.709 1.421 25.55 1.2 19.592-.231 22.074-.422 25.124-1.934 4.613-2.287 9.638-7.493 11.848-12.275L352 477.44V352c0-117.25-.097-125.654-1.481-128.715-2.568-5.677-6.437-9.724-11.913-12.461l-5.225-2.611-20.984.074c-11.541.04-21.946.366-23.123.724M66.599 304.685c-4.562.935-10.677 4.961-13.931 9.172-5.036 6.516-4.939 4.709-4.686 87.703l.231 75.88 2.399 4.885c1.319 2.686 3.965 6.225 5.88 7.864 6.178 5.289 8.933 5.739 33.276 5.438 24.671-.305 25.545-.522 32.109-7.979 6.495-7.379 6.186-2.737 5.927-89.202l-.231-77.166-2.516-4.543c-2.704-4.881-6.884-8.681-12.128-11.025-2.744-1.226-6.459-1.491-22.902-1.635-10.795-.094-21.337.18-23.428.608" fill-rule="evenodd"/></svg>