<svg xmlns="http://www.w3.org/2000/svg" width="512" height="512"><path d="M249.859 48.94c-7.85 2.194-13.871 7.687-16.456 15.013-.751 2.13-1.297 6.589-1.297 10.608l-.001 6.932-10.879 1.947c-23.445 4.197-47.742 13.664-67.484 26.297l-6.258 4.004-6.968-6.91c-8.469-8.397-12.374-10.36-20.668-10.386-4.778-.014-6.927.434-10.416 2.172-8.225 4.099-13.309 12.235-13.293 21.276.012 7.267 2.585 12.597 9.289 19.242 3.028 3 5.499 5.851 5.491 6.334-.008.483-2.328 3.758-5.155 7.278C79.313 185.682 64 229.328 64 271.787c0 83.231 54.245 157.599 133.459 182.969 20.373 6.525 36.246 8.952 58.541 8.952 27.798 0 50.496-4.614 75.751-15.4 44.716-19.097 81.966-56.498 100.94-101.352 27.447-64.88 17.433-138.294-26.504-194.325-28.215-35.981-71.531-61.667-117.501-69.68l-8.366-1.458-.456-8.106c-.489-8.706-1.623-11.982-5.973-17.259-5.103-6.19-15.971-9.441-24.032-7.188m14.245 89.553c2.082 1.179 4.244 3.419 5.547 5.746l2.136 3.814.252 39.265.252 39.264 5.721 2.932c3.591 1.841 7.972 5.174 11.765 8.949 26.359 26.239 13.599 71.22-22.738 80.159-29.72 7.311-58.748-15.822-58.813-46.869-.036-17.293 10.393-34.373 25.798-42.25l5.756-2.943.008-37.547c.008-38.789.259-42.066 3.578-46.735 4.05-5.698 14.116-7.535 20.738-3.785m-14.539 119.111c-7.052 3.203-10.93 10.774-9.074 17.712 1.413 5.284 3.195 7.703 7.553 10.257 2.656 1.557 4.975 2.197 7.956 2.197 4.784 0 10.782-2.985 13.098-6.519 2.559-3.906 3.548-9.35 2.396-13.192-2.03-6.778-8.788-12.022-15.494-12.022-1.643 0-4.539.705-6.435 1.567" fill-rule="evenodd"/></svg>