<svg xmlns="http://www.w3.org/2000/svg" width="512" height="512"><path d="M109.297 81.569c-12.684 3.41-23.457 13.897-27.408 26.681-1.637 5.298-1.676 8.699-1.676 147.75s.039 142.452 1.676 147.75a40 40 0 0 0 26.361 26.361c5.298 1.637 8.699 1.676 147.75 1.676s142.452-.039 147.75-1.676a40 40 0 0 0 26.361-26.361c1.637-5.298 1.676-8.699 1.676-147.75s-.039-142.452-1.676-147.75c-4.011-12.977-14.782-23.339-27.777-26.724-4.441-1.157-21.857-1.306-146.727-1.257-121.253.049-142.354.236-146.31 1.3" fill-rule="evenodd"/></svg>