<svg xmlns="http://www.w3.org/2000/svg" width="512" height="512"><path d="M146.347 17.605c-3.286.689-9.984 3.197-14.885 5.573-7.739 3.751-9.873 5.29-16.214 11.691-11.718 11.829-17.066 23.19-18.875 40.096-.58 5.419-.782 53.023-.593 139.222.325 147.448-.266 134.863 7.027 149.76 8.416 17.191 21.917 28.346 40.991 33.867l6.815 1.973h210.774l6.815-1.973c18.898-5.47 32.711-16.88 41.002-33.867 7.281-14.917 6.691-2.333 7.016-149.76.189-86.199-.013-133.803-.593-139.222-1.809-16.906-7.157-28.267-18.875-40.096-6.345-6.405-8.47-7.937-16.214-11.686-15.228-7.374-8.059-6.979-125.142-6.9-87.14.059-104 .263-109.049 1.322m163.84 48.008c14.231 6.568 12.24 26.379-3.004 29.891-5.178 1.193-97.188 1.193-102.366 0-15.244-3.512-17.235-23.323-3.004-29.891 3.198-1.476 6.626-1.576 54.187-1.576s50.989.1 54.187 1.576m65.067 80.41c2.249 1.089 4.651 3.188 6.029 5.269l2.29 3.458.272 19.265c.173 12.273-.067 20.412-.663 22.427-1.262 4.272-4.788 8.272-8.96 10.167-3.291 1.495-8.693 1.567-118.222 1.567s-114.931-.072-118.222-1.567c-4.172-1.895-7.698-5.895-8.96-10.167-.596-2.015-.836-10.154-.663-22.427.271-19.241.275-19.27 2.549-22.703 1.331-2.01 3.812-4.198 5.973-5.268l3.696-1.829 115.571-.001 115.57-.001 3.74 1.81M189.82 291.344c19.819 9.731 24.116 35.778 8.482 51.412-7.348 7.348-18.301 10.572-28.614 8.422-10.222-2.132-18.24-8.548-22.778-18.229-1.959-4.178-2.27-5.954-2.27-12.949 0-6.976.314-8.776 2.249-12.902 3.843-8.196 10.541-14.253 19.378-17.522 1.975-.73 5.938-1.075 10.8-.938 6.495.182 8.462.6 12.753 2.706m160.688.436c6.464 3.465 11.538 8.779 14.582 15.271 1.959 4.178 2.27 5.954 2.27 12.949s-.311 8.771-2.27 12.949c-7.805 16.65-26.237 23.402-42.971 15.741-12.369-5.663-19.917-20.363-17.449-33.977 2.126-11.722 9.085-20.167 20.371-24.722 3.072-1.239 5.671-1.526 12.026-1.326 7.309.231 8.631.537 13.441 3.115M168.96 417.777c-4.214 1.812-54.117 51.867-55.855 56.025-4.917 11.769 5.377 24.793 17.451 22.081 4.437-.997 8.44-3.764 14.911-10.307l5.093-5.149h210.596l7.186 6.802c7.854 7.434 11.58 9.15 17.755 8.174 10.286-1.624 16.092-12.528 11.95-22.441-1.408-3.37-46.773-49.617-52.699-53.723-6.657-4.614-15.993-3.237-21.368 3.15-2.198 2.613-3.983 7.429-3.957 10.678.022 2.639 2.874 8.312 5.926 11.789L328.71 448H183.29l2.632-2.998c5.043-5.743 6.729-11.043 5.254-16.518-2.534-9.414-13.231-14.569-22.216-10.707" fill-rule="evenodd"/></svg>