<svg xmlns="http://www.w3.org/2000/svg" width="512" height="512"><path d="M297.387 33.42c-7.134 3.936-10.361 10.694-8.782 18.389.807 3.932 2.484 5.733 44.906 48.244l44.067 44.16H234.835c-140.838 0-142.787.023-146.073 1.699-1.831.934-4.408 3.113-5.726 4.84-2.116 2.774-2.396 3.864-2.396 9.316 0 5.599.24 6.47 2.581 9.363 1.42 1.754 3.91 3.902 5.534 4.773 2.841 1.523 8.298 1.583 145.887 1.583h142.936l-44.067 44.16c-42.779 42.868-44.092 44.282-44.926 48.341-.473 2.3-.734 4.604-.58 5.12.153.516.509 1.988.789 3.27.569 2.597 4.878 7.886 7.623 9.355 3.236 1.731 7.25 2.212 11.392 1.363 3.952-.809 5.978-2.726 62.384-58.996 32.424-32.347 59.03-59.565 59.946-61.326 2.118-4.069 2.118-10.079 0-14.148-2.143-4.119-116.628-118.42-119.795-119.602-3.12-1.165-10.774-1.108-12.957.096M200.96 225.75c-3.561 1.825-117.898 116.242-119.47 119.552-1.638 3.451-1.637 9.948.003 13.404.704 1.484 27.68 29.058 59.947 61.275 56.781 56.696 58.798 58.605 62.751 59.415 4.142.849 8.156.368 11.392-1.363 2.745-1.469 7.054-6.758 7.623-9.355.28-1.282.636-2.754.789-3.27.154-.516-.107-2.82-.58-5.12-.834-4.059-2.147-5.473-44.926-48.341l-44.067-44.16h142.743c138.386 0 142.84-.05 145.909-1.616 5.589-2.853 8.713-7.933 8.713-14.171 0-6.238-3.124-11.318-8.713-14.171-3.069-1.566-7.523-1.616-145.909-1.616H134.422l44.067-44.16c42.779-42.868 44.092-44.282 44.926-48.341.473-2.3.734-4.604.58-5.12-.153-.516-.509-1.988-.789-3.27-.624-2.85-5.008-7.982-8.25-9.659-3.132-1.619-10.761-1.572-13.996.087" fill-rule="evenodd"/></svg>