<svg xmlns="http://www.w3.org/2000/svg" width="512" height="512"><path d="M229.973 62.69c-48.043 6.491-90.173 29.303-122.56 66.361-7.305 8.358-9.027 12.529-7.667 18.579 1.559 6.94 8.46 12.732 15.223 12.778 5.595.038 9.314-2.386 17.464-11.382 11.065-12.216 20.013-20.084 31.834-27.994 64.073-42.874 148.105-35.814 203.725 17.115 13.805 13.137 23.993 26.767 32.629 43.65 11.28 22.051 16.566 42.703 17.869 69.803l.466 9.679-8.405-7.749c-4.622-4.262-8.908-8.355-9.522-9.096-2.123-2.557-6.316-4.07-11.297-4.074-4.082-.004-5.548.427-8.492 2.496-1.957 1.376-4.326 3.815-5.264 5.421-2.013 3.447-2.329 10.284-.659 14.24 1.393 3.3 49.399 49.428 53.747 51.644 3.755 1.915 9.378 2.023 13.593.262 3.331-1.391 46.213-43.365 50.238-49.174 5.521-7.966 2.72-19.005-5.962-23.494-3.509-1.815-10.512-1.735-14.181.162-1.618.837-7.273 5.754-12.567 10.927l-9.625 9.405v-9.131c0-34.253-12.081-74.105-31.334-103.358-30.265-45.987-77.457-76.707-132.506-86.256-11.029-1.914-45.003-2.401-56.747-.814M69.152 197.615c-3.164 1.372-46.288 43.711-50.047 49.136-5.779 8.339-2.522 19.584 6.914 23.871 7.678 3.488 12.662 1.349 25.08-10.76l9.222-8.993.543 11.947c3.317 72.92 43.698 135.498 108.15 167.6 27.49 13.692 55.328 20.26 86.133 20.321 44.095.088 84.083-13.287 119.506-39.97 15.159-11.419 32.62-29.317 36.022-36.925 4.54-10.151-3.251-21.42-14.803-21.412-5.445.004-8.649 1.687-13.345 7.012-27.984 31.732-59.691 50.116-98.367 57.035-71.562 12.802-143.794-24.344-175.367-90.182-9.898-20.642-15.78-45.78-15.78-67.447v-8.158l9.423 8.842c11.901 11.167 13.597 12.226 19.591 12.226 8.784 0 15.656-6.604 15.741-15.128.025-2.458-.463-5.675-1.085-7.147-1.393-3.3-49.399-49.428-53.747-51.644-3.701-1.887-9.725-1.985-13.784-.224" fill-rule="evenodd"/></svg>