<svg xmlns="http://www.w3.org/2000/svg" width="512" height="512"><path d="M241.92 48.656c-32.351 2.022-64.984 12.273-93.189 29.276-53.917 32.501-89.753 86.952-98.941 150.335-2.03 14.002-2.03 41.464 0 55.466 5.257 36.266 18.79 68.894 40.768 98.296 8.04 10.755 28.658 31.373 39.413 39.413 29.402 21.978 62.03 35.511 98.296 40.768 7.099 1.029 15.606 1.485 27.733 1.485s20.634-.456 27.733-1.485c36.266-5.257 68.894-18.79 98.296-40.768 10.755-8.04 31.373-28.658 39.413-39.413 20.459-27.37 33.566-57.361 39.414-90.189 10.068-56.519-4.22-115.167-39.415-161.788-32.853-43.518-83.69-72.968-138.134-80.021-12.74-1.65-28.565-2.176-41.387-1.375m35.84 97.566c30.402 6.664 54.873 23.22 71.445 48.338 8.083 12.251 13.748 26.139 16.43 40.28.727 3.828 1.475 7.114 1.663 7.303.188.188 1.178-.105 2.198-.651 1.021-.547 3.91-1.012 6.421-1.035 9.055-.081 15.763 6.51 15.763 15.488 0 2.424-.624 5.635-1.386 7.137-1.849 3.643-24.488 26.614-29.288 29.718-4.32 2.794-10.064 3.282-14.888 1.267-3.517-1.47-30.234-26.827-32.253-30.612-2.278-4.271-2.002-11.219.625-15.701 3.281-5.599 10.255-8.635 16.571-7.216 3.403.764 3.428.752 2.937-1.484-4.028-18.34-14.717-35.043-29.656-46.341-16.671-12.608-37.474-18.413-57.561-16.061-18.414 2.155-34.399 9.9-48.08 23.295-7.269 7.117-12.278 9.128-18.537 7.443-4.484-1.207-8.495-4.644-10.453-8.955-3.325-7.319-1.384-13.334 7.005-21.71 16.704-16.678 37.551-27.242 61.791-31.312 8.685-1.458 31.008-.998 39.253.809m-111.878 71.711c3.517 1.47 30.234 26.827 32.253 30.612 2.056 3.853 1.972 10.952-.179 15.168-3.125 6.126-11.832 9.891-17.945 7.76l-2.703-.942.582 3.104c2.369 12.626 10.988 27.985 21.739 38.736 23.637 23.637 57.877 30.11 88.724 16.774 8.627-3.73 15.368-8.291 23.114-15.641 7.571-7.184 10.545-8.864 15.688-8.864 4.795 0 7.954 1.174 11.055 4.108 3.525 3.335 4.83 6.349 4.83 11.154 0 6.069-1.021 8.086-7.484 14.787-14.04 14.555-31.78 24.585-53.269 30.117-12.108 3.117-30.667 3.86-43.426 1.738-24.19-4.023-44.791-14.545-61.825-31.58-16.05-16.049-26.7-35.925-30.847-57.567-.771-4.024-1.45-7.396-1.509-7.493-.058-.096-1.82.416-3.913 1.139-10.289 3.553-20.447-3.924-20.447-15.051 0-2.389.624-5.572 1.386-7.074 1.849-3.643 24.488-26.614 29.288-29.718 4.32-2.794 10.064-3.282 14.888-1.267" fill-rule="evenodd"/></svg>