<svg xmlns="http://www.w3.org/2000/svg" width="512" height="512"><path d="M114.773 1.272c-23.195 5.216-41.27 21.963-48.36 44.808l-1.986 6.4v407.04l1.986 6.4c6.517 20.998 22.669 37.15 43.667 43.667l6.4 1.986h279.04l6.4-1.986c20.998-6.517 37.15-22.669 43.667-43.667l1.986-6.4V52.48l-1.986-6.4c-6.445-20.766-22.155-36.629-43.24-43.661L396.373.427 258.133.274c-113.343-.126-139.162.054-143.36.998m282.176 33.852c6.781 3.178 12.137 8.422 15.424 15.1l2.774 5.633v400.286l-2.774 5.633c-3.287 6.678-8.643 11.922-15.424 15.1l-4.842 2.271H119.893l-4.842-2.271c-6.781-3.178-12.137-8.422-15.424-15.1l-2.774-5.633-.218-199.012-.219-199.012 1.784-4.767c3.286-8.784 9.524-15.177 18.359-18.817l5.041-2.076 135.253.197 135.254.197 4.842 2.271M123.958 48.61c-3.64.874-8.393 4.567-10.252 7.967-1.407 2.573-1.505 13.905-1.713 197.598-.159 140.172.044 195.851.722 198.369 1.199 4.455 6.183 9.488 10.611 10.718 4.802 1.333 260.546 1.333 265.348 0 4.428-1.23 9.412-6.263 10.611-10.718.678-2.518.881-58.197.722-198.369-.22-194.655-.222-194.872-1.968-197.843-.961-1.636-3.394-4.132-5.407-5.547l-3.659-2.572-131.126-.132c-72.12-.073-132.37.165-133.889.529" fill-rule="evenodd"/></svg>