<svg xmlns="http://www.w3.org/2000/svg" width="512" height="512"><path d="M258.186 35.071c-2.452 14.236-2.812 34.252-.91 50.514 5.852 50.031 30.578 95.057 70.133 127.711 14.211 11.732 36.452 24.296 55.195 31.18 10.293 3.78 25.398 7.643 36.809 9.412 16.723 2.592 43.059 2.536 58.121-.124l2.654-.469-.346-6.114c-1.541-27.18-6.412-50.317-15.389-73.101-20.517-52.07-59.632-94.428-109.893-119.005-15.39-7.526-25.848-11.47-40.824-15.394-14.799-3.878-29.982-6.292-43.806-6.965l-11.244-.548-.5 2.903m-43.146.741c-27.969 5.235-56.369 16.538-80.208 31.92-46.029 29.702-80.192 75.881-94.37 127.565-2.996 10.921-6.868 29.74-6.243 30.339.188.18 3.413.002 7.168-.395 10.617-1.123 38.205-.887 49.066.42 50.49 6.074 95.894 28.141 131.819 64.067 36.431 36.431 59.397 84.498 64.377 134.74 1.095 11.046 1.156 37.525.107 46.572-.408 3.52-.589 6.553-.403 6.741.618.623 19.413-3.243 30.35-6.243 65.447-17.954 121.81-68.393 146.926-131.485 5.859-14.719 11.948-36.772 13.868-50.226.542-3.798.457-4.104-1.013-3.647-.882.274-7.399.882-14.481 1.352-15.166 1.007-34.994.029-50.27-2.478-99.702-16.362-176.258-97.813-186.501-198.425-1.05-10.313-.674-46.581.524-50.576.699-2.328.457-2.333-10.716-.241M46.292 256.92c-4.342.448-9.331 1.112-11.087 1.477l-3.193.664.241 6.363c3.331 87.836 59.431 166.562 141.827 199.029 22.781 8.976 45.925 13.849 73.091 15.388l6.104.346.497-2.488c2.631-13.154 2.686-41.638.112-58.286-5.156-33.353-19.571-65.904-40.812-92.16-7.616-9.413-24.138-25.297-33.872-32.563-26.015-19.418-55.373-31.697-87.467-36.582-10.688-1.627-35.014-2.263-45.441-1.188" fill-rule="evenodd"/></svg>