<svg xmlns="http://www.w3.org/2000/svg" width="512" height="512"><path d="M66.133 33.673c-21.562 4.727-39.482 20.974-47.099 42.7L16.64 83.2v345.6l2.394 6.827c3.56 10.155 8.482 17.879 16.312 25.6C46.539 472.263 58.08 477.73 74.05 479.56c10.156 1.163 353.744 1.163 363.9 0 15.97-1.83 27.511-7.297 38.704-18.333 7.83-7.721 12.752-15.445 16.312-25.6l2.394-6.827V83.2l-2.394-6.827c-3.45-9.84-8.491-17.852-15.882-25.244-7.386-7.385-15.393-12.422-25.244-15.88l-6.827-2.396-186.88-.151c-151.729-.123-187.843.06-192 .971m38.147 64.77c1.634 1.109 21.304 16.691 43.71 34.627 43.381 34.724 43.943 35.267 43.991 42.531.022 3.192-1.911 8.296-4.067 10.739-2.532 2.87-82.382 66.554-85.514 68.201-4.162 2.19-10.765 1.615-15.205-1.324-6.908-4.572-9.109-15.381-4.46-21.909 1.087-1.527 16.42-14.314 34.074-28.415 17.654-14.101 32.427-25.934 32.83-26.294.403-.361-14.289-12.674-32.648-27.362-28.124-22.5-33.664-27.291-35.181-30.423-3.571-7.378-.802-16.361 6.396-20.75 4.018-2.451 12.188-2.258 16.074.379m159.761 128.033c8.749 5.127 10.262 18.137 2.908 25.003C262.224 255.892 261.194 256 224 256c-37.194 0-38.224-.108-42.949-4.521-7.316-6.83-5.851-19.778 2.824-24.979l3.432-2.057 36.618-.008 36.618-.008 3.498 2.049" fill-rule="evenodd"/></svg>