<svg xmlns="http://www.w3.org/2000/svg" width="512" height="512"><path d="M242.773 17.626c-20.475 4.367-38.018 18.938-45.788 38.033-5.15 12.655-4.985 8.471-4.989 125.852-.005 100.668-.098 107.483-1.494 109.61-.819 1.247-4.24 4.597-7.603 7.444-19.256 16.304-33.066 41.167-37.433 67.395-2.117 12.71-1.389 32.204 1.654 44.32 10.384 41.346 41.339 72.186 83.046 82.735 8.462 2.141 10.519 2.325 25.834 2.317 14.568-.008 17.649-.259 24.747-2.012 42.853-10.586 73.987-41.72 84.573-84.573 1.756-7.107 2.003-10.159 2.003-24.747 0-18.138-1.102-24.889-6.428-39.399-6.435-17.534-18.13-34.467-31.794-46.036-3.363-2.847-6.784-6.197-7.603-7.444-1.396-2.127-1.489-8.922-1.494-109.184-.004-116.033.106-113.084-4.674-125.002-6.055-15.095-19.174-28.962-33.317-35.217-11.813-5.224-26.666-6.773-39.24-4.092m21.088 80.711c2.012 1.131 4.324 3.483 5.663 5.76l2.263 3.85.426 113.129.427 113.13 2.06 3.006c1.133 1.653 4.512 4.657 7.509 6.674 25.502 17.169 29.114 52.089 7.632 73.783-9.463 9.557-20.205 14.088-33.448 14.108-12.226.018-23.397-4.117-32.087-11.877-23.434-20.924-20.635-58.87 5.605-75.966 3.071-2.001 6.453-5.036 7.516-6.746l1.933-3.108.427-113.067c.389-103.275.549-113.288 1.843-115.626 1.528-2.759 5.219-6.449 7.97-7.967 3.024-1.668 10.517-1.186 14.261.917" fill-rule="evenodd"/></svg>