<svg xmlns="http://www.w3.org/2000/svg" width="512" height="512"><path d="M80.436 34.609c-21.812 10.869-21.556 48.222.404 58.966 4.468 2.186 5.36 2.311 15.497 2.162 25.651-.377 88.762-2.826 92.491-3.589 5.687-1.164 10.023-3.557 13.581-7.495 3.981-4.407 5.34-8.575 5.342-16.386.002-8.443-2.052-14.279-6.712-19.073-6.381-6.566-7.714-6.834-60.285-12.086-25.767-2.575-48.894-4.681-51.394-4.681-3.165 0-5.875.662-8.924 2.182m135.262-.751c-2.678 1.727-4.168 5.243-3.438 8.11.277 1.088 1.459 3.505 2.627 5.37 6.451 10.305 9.062 21.169 8.484 35.298-.332 8.121-.899 11.457-3.089 18.146-1.475 4.507-2.682 9.544-2.682 11.193 0 1.65 1.198 6.602 2.661 11.005 4.66 14.017 4.449 29.259-.605 43.782-2.713 7.796-2.596 11.36.673 20.551 2.606 7.327 2.73 8.252 2.736 20.474.006 12.14-.134 13.222-2.729 20.995-1.505 4.507-2.736 9.715-2.736 11.573 0 1.858 1.22 6.81 2.711 11.005 2.584 7.271 2.713 8.244 2.773 20.853.069 14.593-1.16 20.464-6.497 31.036-2.991 5.925-3.271 10.103-1.114 16.594 1.158 3.487 1.399 6.153 1.039 11.52-.848 12.63-4.889 25.721-20.069 65.01-7.426 19.218-8.929 25.154-8.859 34.987.185 26.18 17.6 44.815 45.072 48.229 12.428 1.544 17.108-.773 23.545-11.659 2.18-3.687 10.363-16.111 18.184-27.61 50.194-73.795 68.111-102.754 92.127-148.907 7.477-14.369 8.174-15.353 12.368-17.488 2.547-1.295 6.065-1.579 23.893-1.924 18.927-.367 21.684-.611 29.115-2.579 26.599-7.044 48.46-26.296 58.354-51.391 5.106-12.952 5.703-18.909 5.346-53.338-.32-30.856-.344-31.215-2.591-38.518-3.152-10.245-5.879-16.106-11.255-24.185-8.728-13.118-20.188-22.965-34.759-29.867-14.853-7.036-17.717-7.446-56.156-8.034l-33.707-.516-6.827-4.009c-19.963-11.723-46.178-20.417-75.52-25.046-6.141-.968-16.476-1.531-32.853-1.787-21.741-.341-24.103-.239-26.222 1.127m-164.66 70.615c-9.071 2.381-16.721 12.937-18.643 25.725-2.342 15.587 4.985 31.358 16.637 35.807 4.058 1.55 5.52 1.552 57.14.056 87.322-2.531 86.02-2.409 93.438-8.759 6.801-5.821 9.815-16.369 7.839-27.427-1.829-10.236-7.201-16.292-16.729-18.859-1.877-.506-30.869-2.252-64.427-3.881-33.557-1.629-63.317-3.131-66.133-3.337-2.816-.207-6.921.097-9.122.675m-19.544 75.995c-8.643 4.503-14.387 14.751-15.08 26.902-.261 4.57-.023 9.184.602 11.668 2.557 10.172 9.19 18.722 16.706 21.535 4.312 1.613 4.783 1.603 79.388-1.609 68.488-2.95 75.437-3.382 79.481-4.944 8.748-3.38 13.157-8.773 14.831-18.144 2.722-15.228-4.289-27.913-17.007-30.77-3.193-.718-138.278-6.797-149.316-6.72-4.281.03-6.654.545-9.605 2.082m31.868 75.971c-7.833 3.973-13.235 12.078-14.951 22.428-2.615 15.786 8.26 34.513 22.397 38.568 1.843.528 19.447-.542 56.178-3.416 29.422-2.301 55.033-4.403 56.913-4.67 8.733-1.238 18.437-8.368 21.826-16.035 1.536-3.476 1.981-6.062 2.016-11.714.076-12.103-3.888-18.098-15.292-23.125-5.481-2.416-17.622-2.992-78.956-3.746l-45.653-.561-4.478 2.271" fill-rule="evenodd"/></svg>