<svg xmlns="http://www.w3.org/2000/svg" width="512" height="512"><path d="M235.52 17.598c-48.985 6.608-93.58 38.204-115.353 81.728-1.902 3.803-3.575 7.043-3.718 7.202-.143.158-3.266.652-6.941 1.098-11.128 1.351-22.248 4.732-33.235 10.106-37.256 18.222-60.06 54.52-60.06 95.601 0 28.069 10.301 53.497 29.861 73.716 15.402 15.921 32.367 25.421 55.286 30.961 4.753 1.149 12.704 1.447 46.48 1.747 35.135.311 40.747.534 40.747 1.616 0 .691-2.916 18.617-6.48 39.835-5.77 34.349-6.374 38.99-5.517 42.329 1.297 5.051 3.748 8.281 8.015 10.562 3.289 1.759 4.879 1.922 21.225 2.176l17.669.274.251 33.432c.235 31.467.35 33.63 1.957 36.791 4.102 8.072 13.258 11.217 21.311 7.318 3.652-1.767 6.787-5.907 45.44-60.011 22.834-31.962 42.053-59.665 42.709-61.562 2.236-6.467-.481-13.812-6.526-17.645l-3.855-2.445H308.74c-8.826 0-16.047-.199-16.047-.443 0-.243 1.776-7.539 3.946-16.213L300.586 320h55.675c61.183 0 63.355-.145 77.762-5.177 14.188-4.955 25.493-12.318 36.255-23.612 26.869-28.199 32.822-68.687 15.279-103.912-13.934-27.979-42.062-47.178-72.919-49.77l-6.776-.569-1.153-4.693c-6.391-25.999-19.238-49.363-37.683-68.53-34.43-35.779-82.718-52.721-131.506-46.139M113.519 337.565c-1.629.706-3.693 1.939-4.587 2.739-.894.801-7.721 13.669-15.172 28.596-14.285 28.618-15.009 30.738-12.641 37.018 1.522 4.037 5.971 7.915 10.634 9.271 3.797 1.104 4.818 1.103 8.569-.011 2.553-.758 5.33-2.385 6.934-4.061 1.543-1.612 8.165-13.82 15.634-28.824l12.958-26.026-.331-5.231c-.259-4.08-.851-5.913-2.694-8.328-4.517-5.923-12.564-8.067-19.304-5.143m279.219.401c-1.999 1.016-4.356 2.861-5.238 4.101-.882 1.239-7.406 13.891-14.498 28.116-10.873 21.805-12.895 26.463-12.895 29.695 0 11.828 12.585 19.629 23.126 14.337 4.267-2.142 7.259-7.037 19.896-32.548 13.89-28.041 14.423-29.793 11.093-36.502-3.961-7.982-13.593-11.21-21.484-7.199M129.28 417.372c-4.562 2.645-7.142 6.557-15.883 24.081-7.657 15.351-9.29 19.297-9.29 22.442 0 11.761 12.633 19.631 23.04 14.353 4.162-2.111 6.785-6.139 15.713-24.13 9.873-19.894 10.446-22.126 7.401-28.83-.877-1.932-3.035-4.611-4.794-5.953-2.643-2.016-4.179-2.484-8.839-2.696-3.213-.146-6.376.17-7.348.733m280.32-.034c-4.497 1.883-7.253 5.958-16.309 24.115-10.153 20.355-10.72 22.519-7.658 29.259.877 1.932 2.884 4.489 4.461 5.682 3.006 2.275 9.12 4.306 11.095 3.686.637-.2 2.207-.594 3.489-.874 5.212-1.141 8.186-5.25 17.825-24.624 7.825-15.73 9.283-19.287 9.282-22.648-.001-4.995-2.053-9.095-6.217-12.422-2.69-2.15-4.119-2.623-8.533-2.825-2.916-.134-6.262.159-7.435.651" fill-rule="evenodd"/></svg>