<svg xmlns="http://www.w3.org/2000/svg" viewBox="0 0 512 512"><path d="M308.48 17.848c-2.285 1.07-16.303 14.529-42.418 40.728-38.041 38.163-39.081 39.295-42.072 45.786l-3.067 6.656-6.568 2.978c-6.567 2.977-6.593 3.003-100.736 97.024-64.999 64.916-94.663 95.104-95.768 97.46-2.087 4.452-2.092 11.745-.01 16.213 1.044 2.242 10.336 12.075 27.074 28.651 21.284 21.077 26.064 25.402 28.997 26.24 7.364 2.103 12.089.944 20.913-5.127 6.784-4.667 12.347-6.179 20.677-5.622 15.058 1.008 26.699 12.644 27.675 27.663.541 8.335-.977 13.908-5.634 20.677-6.622 9.624-7.634 15.266-4.076 22.718 2.648 5.547 49.544 52.555 54.452 54.583 4.314 1.782 11.42 1.633 15.601-.327 2.356-1.104 32.548-30.772 97.463-95.768 93.76-93.877 94.059-94.188 97.084-100.763l3.035-6.596 6.596-3.039c6.413-2.956 7.676-4.117 45.726-42.045 26.199-26.115 39.658-40.133 40.728-42.418.878-1.877 1.603-5.141 1.611-7.253.032-8.785.018-8.803-26.719-35.691-13.686-13.763-26.228-25.716-27.871-26.562-7.768-4.003-13.752-3.235-23.058 2.958-7.943 5.287-13.098 6.763-21.617 6.193-10.939-.732-19.693-6.663-24.627-16.685-2.577-5.236-2.804-6.356-2.799-13.822.005-7.57.196-8.474 2.807-13.245 1.542-2.816 3.934-6.848 5.317-8.96 3.096-4.727 4.005-10.496 2.52-15.987-.997-3.689-3.439-6.427-26.354-29.551-16.572-16.722-26.429-26.031-28.669-27.074-4.465-2.08-11.76-2.077-16.213.007m-62.046 97.288c4.359 2.263 16.885 15.149 18.491 19.023 4.241 10.231-2.263 21.045-13.129 21.831-6.579.476-9.811-1.306-18.535-10.22-7.977-8.151-9.688-11.045-9.688-16.392 0-6.664 3.368-12.179 8.96-14.675 3.767-1.681 10.213-1.48 13.901.433m44.373 44.358c1.742.895 6.482 5.024 10.535 9.176 8.895 9.114 10.418 12.767 8.38 20.104-2.482 8.937-12.631 13.959-21.109 10.444-3.875-1.606-16.761-14.132-19.023-18.491-1.956-3.768-2.175-10.833-.44-14.156 1.308-2.502 5.038-6.211 7.757-7.711 2.77-1.528 10.368-1.182 13.9.634m44.126 43.828c3.092 1.6 15.916 14.64 17.574 17.871 1.902 3.703 2.112 9.805.473 13.728-2.202 5.271-8.526 9.282-14.633 9.282-5.314 0-7.605-1.284-14.996-8.409-4.205-4.054-8.471-8.707-9.48-10.34-2.269-3.671-2.489-11.273-.439-15.219 1.747-3.366 6.005-6.99 8.98-7.643 1.255-.276 2.665-.638 3.135-.805 1.307-.466 7.469.542 9.386 1.535m43.349 43.806c3.791 1.898 16.588 14.596 18.582 18.438 3.736 7.199 1.124 16.864-5.601 20.727-8.888 5.106-13.486 3.786-24.5-7.036-4.556-4.476-8.877-9.389-9.603-10.92-2.024-4.265-1.703-11.263.698-15.23 4.025-6.649 13.53-9.432 20.424-5.979" fill-rule="evenodd"/></svg>