<svg xmlns="http://www.w3.org/2000/svg" width="512" height="512"><path d="M241.92 48.656c-40.005 2.5-78.742 17.03-112.138 42.063-10.674 8.001-31.315 28.653-39.23 39.252-21.528 28.826-34.607 59.793-40.362 95.564-2.418 15.032-2.616 43.078-.41 58.198 5.305 36.358 18.806 68.903 40.778 98.296 8.04 10.755 28.658 31.373 39.413 39.413 29.402 21.978 62.03 35.511 98.296 40.768 7.099 1.029 15.606 1.485 27.733 1.485 33.197 0 61.748-6.528 90.88-20.78 22.442-10.978 37.76-21.97 55.912-40.123 18.158-18.158 29.156-33.484 40.119-55.912 34.469-70.51 26.234-153.619-21.488-216.855-32.704-43.336-83.862-72.966-138.116-79.994-12.74-1.65-28.565-2.176-41.387-1.375m42.24 33.686c36.431 5.991 69.824 23.168 96.077 49.421 26.314 26.315 43.064 58.926 49.567 96.504 2.077 11.998 2.077 43.468 0 55.466-3.953 22.845-11.571 43.602-22.971 62.592-40.137 66.861-119.121 99.325-194.588 79.979-60.995-15.636-109.974-63.937-125.967-124.224-3.771-14.215-5.235-24.235-5.803-39.721-1.274-34.697 6.728-66.407 24.385-96.64 8.251-14.129 27.385-36.721 33.139-39.13 9.085-3.802 18.73 1.815 19.655 11.446.543 5.648-.926 8.247-10.208 18.066-8.732 9.236-17.671 22.153-23.846 34.457-16.943 33.764-19.846 74.588-7.922 111.418 3.791 11.71 12.536 29.088 19.805 39.357 7.361 10.401 24.783 27.823 35.184 35.184 16.309 11.544 37.519 20.554 58.168 24.711 8.193 1.649 12.347 1.947 27.165 1.947s18.972-.298 27.165-1.947c20.649-4.157 41.859-13.167 58.168-24.711 10.401-7.361 27.823-24.783 35.184-35.184 11.544-16.309 20.554-37.519 24.711-58.168 1.649-8.193 1.947-12.347 1.947-27.165s-.298-18.972-1.947-27.165c-4.158-20.654-13.172-41.87-24.714-58.168-6.979-9.856-22.769-25.919-32.621-33.186-14.298-10.548-32.091-19.272-48.213-23.64-7.265-1.969-21.283-4.603-24.533-4.611-1.394-.003-1.494 1.98-1.494 29.737 0 29.449-.019 29.769-1.927 32.64-2.122 3.194-8.292 6.74-11.726 6.74-3.434 0-9.604-3.546-11.726-6.74l-1.927-2.899v-39.225c0-38.316.041-39.298 1.799-42.425.99-1.761 3.198-4.044 4.907-5.073 2.916-1.756 3.841-1.844 15.054-1.424 6.57.246 15.594 1.047 20.053 1.781M225.764 197.59c29.536 19.97 55.164 37.73 56.95 39.466 1.786 1.737 4.474 5.645 5.974 8.686 2.516 5.104 2.725 6.186 2.725 14.08 0 7.45-.287 9.156-2.227 13.245-9.613 20.257-36.781 25.464-51.794 9.927-1.875-1.94-19.656-27.527-39.514-56.861-39.663-58.587-39.312-57.95-34.586-62.676 1.582-1.582 3.077-2.177 5.473-2.177 2.933 0 9.214 4.001 56.999 36.31" fill-rule="evenodd"/></svg>