<svg xmlns="http://www.w3.org/2000/svg" width="512" height="512"><path d="M241.92 48.656c-32.351 2.022-64.984 12.273-93.189 29.276-53.917 32.501-89.753 86.952-98.941 150.335-2.03 14.002-2.03 41.464 0 55.466 5.257 36.266 18.79 68.894 40.768 98.296 8.04 10.755 28.658 31.373 39.413 39.413 29.402 21.978 62.03 35.511 98.296 40.768 7.099 1.029 15.606 1.485 27.733 1.485s20.634-.456 27.733-1.485c36.266-5.257 68.894-18.79 98.296-40.768 10.755-8.04 31.373-28.658 39.413-39.413 20.459-27.37 33.566-57.361 39.414-90.189 10.068-56.519-4.22-115.167-39.415-161.788-32.853-43.518-83.69-72.968-138.134-80.021-12.74-1.65-28.565-2.176-41.387-1.375m22.722 66.136c1.702 1.1 4.006 3.466 5.12 5.257l2.025 3.258.238 66.346.238 66.347h41.519c40.566 0 41.605.042 45.258 1.81 10.152 4.914 11.662 19.167 2.819 26.607-4.59 3.863-8.252 4.094-60.714 3.83L252.16 288l-3.71-2.124c-2.286-1.309-4.58-3.602-5.974-5.973l-2.263-3.85V123.307l1.98-3.185c4.971-7.995 14.735-10.313 22.449-5.33" fill-rule="evenodd"/></svg>