<svg xmlns="http://www.w3.org/2000/svg" width="512" height="512"><path d="M45.53 33.661c-4.176 1.817-9.783 7.338-11.747 11.566-1.706 3.673-1.794 5.406-2.04 39.976-.172 24.321.056 37.642.699 40.739 1.923 9.261 9.743 16.683 18.901 17.938 8.457 1.159 18.119-4.038 22.278-11.982 1.459-2.787 1.909-5.535 2.285-13.944l.467-10.472 10.218 10.25 10.217 10.249-14.644 14.732c-16.321 16.417-18.127 19.159-18.127 27.527 0 12.321 9.437 21.786 21.677 21.741 8.43-.03 11.156-1.824 27.562-18.133l14.72-14.634 3.748 3.679 3.748 3.678-4.681 6.955c-16.84 25.018-26.222 58.864-24.664 88.982 5.152 99.601 102.365 166.736 196.786 135.902 10.499-3.429 26.741-11.297 35.528-17.212l6.941-4.672 11.801 11.824 11.802 11.825-15.381 15.592c-16.391 16.617-17.411 18.155-17.411 26.26 0 6.134 1.783 10.343 6.382 15.066 3.256 3.343 5.398 4.726 8.92 5.76 5.774 1.695 7.144 1.695 12.917 0 4.241-1.246 5.94-2.658 20.012-16.629l15.378-15.267 22.562 22.573c24.779 24.793 26.826 26.295 35.856 26.312 6.148.011 11.445-2.406 15.887-7.248 5.808-6.332 7.327-14.323 4.27-22.461-1.36-3.618-5.051-7.734-24.283-27.076l-22.679-22.811 14.254-14.41c14.619-14.779 16.974-18.081 18.151-25.445 1.898-11.87-9.218-24.179-21.813-24.151-7.945.018-10.914 2.005-27.093 18.133l-14.718 14.673-11.845-11.822-11.845-11.822 4.672-6.941c9.319-13.845 17.754-33.95 21.528-51.314 8.306-38.211.129-81.299-21.558-113.596l-4.652-6.929 29.678-29.669 29.677-29.669.336 10.572c.277 8.725.654 11.177 2.162 14.042 4.186 7.954 13.835 13.141 22.288 11.982 9.065-1.242 16.998-8.771 18.901-17.938.643-3.097.871-16.414.699-40.739-.246-34.57-.334-36.303-2.04-39.976-2.012-4.333-7.648-9.811-11.937-11.603-4.293-1.794-80.138-1.759-84.44.039-7.253 3.03-12.672 10.035-13.729 17.743-1.149 8.387 4.066 18.054 11.991 22.225 2.865 1.508 5.317 1.885 14.042 2.162l10.572.336-29.675 29.683-29.674 29.684-7.777-5.116c-14.78-9.722-33.658-17.524-51.068-21.106-38.702-7.963-79.639-.254-112.13 21.118l-7.795 5.127-3.682-3.752-3.682-3.751 14.98-15.155c13.252-13.406 15.153-15.684 16.49-19.751 5.649-17.182-9.826-32.943-27.346-27.85-4.745 1.379-5.904 2.325-20.214 16.496l-15.181 15.033-10.24-10.208-10.24-10.208 10.472-.467c11.976-.535 15.295-1.755 20.523-7.542 9.957-11.021 5.683-28.852-8.317-34.701-4.239-1.771-80.56-1.773-84.63-.002m226.687 117.758c22.36 3.371 42.071 13.433 58.501 29.863s26.492 36.141 29.863 58.501c4.907 32.55-5.134 64.965-27.482 88.721-20.205 21.478-47.589 33.309-77.099 33.309-58.446 0-105.803-47.361-105.803-105.813 0-21.1 6.086-41.135 18.018-59.307 5.749-8.756 19.722-22.729 28.478-28.478 22.795-14.967 48.999-20.794 75.524-16.796" fill-rule="evenodd"/></svg>