<svg xmlns="http://www.w3.org/2000/svg" width="512" height="512"><path d="M203.744 34.084c-9.538 3.049-18.788 10.842-23.198 19.546-3.677 7.256-4.733 13.691-4.747 28.93l-.012 13.867h-49.954c-48.035 0-50.081.064-53.253 1.683-9.342 4.765-11.354 16.606-4.151 24.42 4.302 4.667 7.065 5.459 19.077 5.465l9.425.005 9.206 148.693c5.063 81.782 9.575 152.468 10.026 157.081 2.185 22.341 14.879 38.398 35.304 44.657C156.312 479.916 161.919 480 256 480c110.564 0 102.549.401 114.729-5.733 6.523-3.285 15.328-12.148 19.052-19.177 5.789-10.927 5.256-5.062 15.678-172.577L415.072 128l9.424-.005c12.01-.006 14.773-.798 19.075-5.465 7.203-7.814 5.191-19.655-4.151-24.42-3.172-1.619-5.218-1.683-53.253-1.683h-49.954l-.012-13.867c-.014-15.239-1.07-21.674-4.747-28.93-4.481-8.843-13.718-16.549-23.478-19.587-4.842-1.507-8.389-1.613-52.265-1.57-43.229.042-47.471.173-51.967 1.611m97.548 32.41 2.495 2.495v27.438h-95.574V68.989l2.495-2.495L213.202 64h85.596l2.494 2.494m-110.758 95.108c3.375 1.444 7.008 5.224 8.297 8.633.615 1.628 2.327 40.48 4.718 107.094 4.949 137.895 4.777 125.806 1.854 130.779-4.464 7.595-13.748 9.926-21.481 5.394-4.858-2.847-7.386-7.531-7.848-14.544-.186-2.829-2.082-54.65-4.213-115.157-3.602-102.276-3.779-110.264-2.513-113.579 3.138-8.216 12.873-12.177 21.186-8.62m73.507.874c2.037 1.194 4.384 3.599 5.622 5.76l2.124 3.711v232.106l-2.124 3.711c-1.275 2.226-3.591 4.569-5.79 5.858-7.547 4.423-17.144 1.812-21.536-5.858l-2.124-3.711V171.947l2.116-3.695c4.335-7.572 14.179-10.19 21.712-5.776m73.451.879c1.755 1.338 3.943 4.134 4.863 6.213l1.672 3.779-3.889 110.66c-2.138 60.863-4.049 112.843-4.247 115.51-.709 9.575-7.185 16.253-15.762 16.253-7.478 0-13.34-4.486-15.384-11.773-1.027-3.662 7.14-230.371 8.422-233.757 1.244-3.289 4.852-7.135 8.113-8.65 1.569-.729 4.585-1.088 7.791-.929 4.195.209 5.863.742 8.421 2.694" fill-rule="evenodd"/></svg>