<svg xmlns="http://www.w3.org/2000/svg" viewBox="0 0 512 512"><path d="M73.619 65.397c-8.441 4.162-11.796 13.081-7.98 21.216 2.008 4.283 340.611 342.935 344.23 344.28 5.676 2.111 14.098.251 17.761-3.922 4.35-4.956 5.398-12.498 2.506-18.045-2.525-4.845-340.169-341.981-344.135-343.617-4.057-1.674-8.879-1.639-12.382.088m113.451 47.718c-1.043.731-1.897 1.98-1.897 2.775 0 1.835 145.023 146.937 146.857 146.937.747 0 1.994-.703 2.771-1.561 1.274-1.408 1.412-5.683 1.406-43.733-.004-24.606-.371-44.483-.882-47.72-4.804-30.451-28.338-53.304-58.823-57.121-4.176-.523-24.19-.905-47.383-.905-34.96 0-40.398.171-42.049 1.328M46.491 123.438c-13.456 8.967-22.738 21.591-27.853 37.879l-1.998 6.363v176.64l1.998 6.363c8.359 26.62 29.42 44.842 56.263 48.679 4.6.657 36.385.858 105.152.663 92.972-.263 98.875-.369 104.107-1.863 12.03-3.435 26.882-11.826 27.88-15.751.452-1.775-14.944-17.473-129.096-131.627-86.655-86.656-130.18-129.611-131.332-129.611-.947 0-3.252 1.019-5.121 2.265m407.482 5.851c-3.912 1.292-87.367 59.444-92.85 64.698-3.744 3.589-7.666 11.731-8.702 18.066-1.091 6.666-1.091 81.228 0 87.894 1.194 7.303 5.286 15.098 10.085 19.211 7.916 6.786 86.868 61.75 90.963 63.326 5.365 2.065 14.262 2.179 20.359.261 8.811-2.771 16.765-10.528 20.194-19.692 1.788-4.78 1.791-4.968 1.565-108.206l-.227-103.417-2.773-5.633c-3.302-6.707-8.681-11.957-15.424-15.055-6.005-2.758-17.126-3.455-23.19-1.453" fill-rule="evenodd"/></svg>