<svg xmlns="http://www.w3.org/2000/svg" width="512" height="512"><path d="M75.093 112.707c-26.362 3.344-48.191 22.126-56.454 48.573l-1.999 6.4v176.64l1.999 6.4c7.205 23.061 23.622 39.489 46.641 46.671l7.68 2.396h102.4c116.383 0 107.069.561 123.307-7.431 7.87-3.874 9.952-5.402 17.119-12.57 7.168-7.167 8.696-9.249 12.57-17.119 7.92-16.091 7.431-9.042 7.431-107.094v-86.186l-1.896-6.534c-3.86-13.307-9.357-22.72-18.44-31.58-10.375-10.12-24.32-16.776-38.949-18.59-8.667-1.074-192.922-1.053-201.409.024m378.88 16.582c-3.912 1.292-87.367 59.444-92.85 64.698-3.744 3.589-7.666 11.731-8.702 18.066-1.091 6.666-1.091 81.228 0 87.894 1.194 7.303 5.286 15.098 10.085 19.211 7.916 6.786 86.868 61.75 90.963 63.326 5.365 2.065 14.262 2.179 20.359.261 8.811-2.771 16.765-10.528 20.194-19.692 1.788-4.78 1.791-4.968 1.565-108.206l-.227-103.417-2.773-5.633c-3.302-6.707-8.681-11.957-15.424-15.055-6.005-2.758-17.126-3.455-23.19-1.453" fill-rule="evenodd"/></svg>