<svg xmlns="http://www.w3.org/2000/svg" width="512" height="512"><path d="M259.814 96.366c-1.892.304-4.875 1.306-6.629 2.226-1.754.921-23.786 18.571-48.961 39.221l-45.772 37.547-38.053.427-38.052.426-4.868 2.391c-5.187 2.547-8.144 5.502-11.173 11.163l-1.879 3.513v125.44l2.647 4.693c1.456 2.582 4.257 5.932 6.224 7.445 6.708 5.16 8.478 5.355 48.487 5.355h36.143l46.262 37.966c25.445 20.881 47.991 38.819 50.103 39.862 5.627 2.779 14.283 2.616 20.108-.38 5.414-2.784 9.894-7.681 11.985-13.103C287.946 396.514 288 391.642 288 256c0-136.016-.05-140.504-1.626-144.59-4.039-10.472-15.303-16.852-26.56-15.044m132.695 34.273c-5.436 3.154-9.217 10.862-8.046 16.404.316 1.494 3.2 7.532 6.411 13.418 17.78 32.597 23.606 53.862 24.46 89.291.949 39.312-3.591 59.364-21.657 95.663-9.386 18.857-9.868 20.083-9.484 24.081 1.073 11.163 12.948 17.733 22.847 12.64 4.842-2.492 7.94-7.078 16.894-25.016 18.325-36.712 25.053-67.603 23.787-109.227-.285-9.386-1.126-21.098-1.868-26.026-4.341-28.824-14.606-56.696-30.876-83.841-3.818-6.369-8.375-9.18-14.839-9.153-3.075.013-5.624.603-7.629 1.766m-47.334 47.345c-3.847 2.007-5.627 3.848-7.357 7.616-2.502 5.45-2.036 8.948 2.598 19.47 8.85 20.098 11.558 33.608 10.89 54.343-.614 19.101-3.446 31.106-11.614 49.247-4.786 10.629-4.624 16.277.629 21.901 2.806 3.004 8.237 5.615 11.679 5.615 3.465 0 8.875-2.615 11.752-5.681 2.987-3.183 8.899-16.56 12.889-29.167 11.638-36.768 9.198-74.502-7.097-109.752-3.886-8.407-6.704-11.965-10.903-13.761-3.658-1.565-10.299-1.482-13.466.169" fill-rule="evenodd"/></svg>