<svg xmlns="http://www.w3.org/2000/svg" width="512" height="512"><path d="M246.613 25.684c-7.149 1.396-14.52 5.755-21.38 12.643-9.676 9.715-13.075 17.972-13.028 31.646.045 13.403 4.027 22.445 14.173 32.187 8.892 8.54 18.078 12.187 30.693 12.187 12.881 0 23.123-4.325 32.209-13.601 17.169-17.529 16.98-45.366-.427-62.773-10.944-10.943-26.281-15.406-42.24-12.289m-50.554 102.47c-11.647 1.513-23.632 7.648-36.215 18.539-14.347 12.418-33.464 38.135-45.31 60.953l-3.174 6.114v81.92l2.035 3.551c3.863 6.744 10.981 9.9 18.018 7.991 4.679-1.27 10.572-7.013 11.389-11.1.307-1.534.558-18.984.558-38.779v-35.991l4.514-7.636c9.849-16.659 19.572-29.686 29.579-39.63l7.294-7.248.505 58.874c.548 63.739.435 62.168 5.503 76.373 1.255 3.517 3.296 8.302 4.537 10.632 1.24 2.331 12.197 16.923 24.349 32.427l22.095 28.189 28.426 57.275c15.635 31.502 29.415 58.45 30.623 59.886 6.942 8.249 21.248 6.235 26.041-3.667 3.533-7.297 3.789-6.644-26.094-66.56l-27.239-54.614-.435-96.426c-.411-90.942-.525-96.694-2.016-101.12-3.437-10.205-6.745-15.598-14.187-23.126-12.644-12.791-22.474-16.63-43.948-17.166-6.571-.163-14.153-.011-16.848.339m93.567 76.737c-1.466 1.62-1.626 3.238-1.626 16.426 0 16.799.863 20.347 6.194 25.475 4.217 4.056 64.543 42.798 68.787 44.176 7.384 2.396 16.632-1.253 20.68-8.161 4.104-7.002 3.536-15.545-1.407-21.175-3.685-4.196-86.161-58.539-88.846-58.539-1.186 0-2.888.809-3.782 1.798M220.725 385.92c-4.834 4.441-64.326 79.823-65.676 83.217-4.714 11.853 4.008 24.09 17.17 24.09 8.303 0 7.276 1.048 37.759-38.54 15.531-20.17 28.825-38.075 29.541-39.789 2.06-4.931 1.07-10.341-3.569-19.504-2.238-4.419-5.03-8.79-6.205-9.714-2.826-2.223-6.443-2.127-9.02.24" fill-rule="evenodd"/></svg>