<svg xmlns="http://www.w3.org/2000/svg" width="512" height="512"><path d="M242.286 66.819c-8.622 2.446-15.175 7.828-20.389 16.747-1.803 3.084-41.147 75.974-87.431 161.977-61.62 114.5-84.517 157.791-85.512 161.676-1.6 6.243-1.146 12.039 1.493 19.093 2.515 6.722 10.473 14.73 17.393 17.503l5.12 2.052H427.947l5.12-2.059c7.051-2.835 14.826-10.621 17.349-17.372 2.699-7.223 3.145-12.94 1.509-19.327-1.034-4.036-23.512-46.503-88.198-166.633-94.45-175.407-89.128-166.254-99.701-171.46-6.196-3.05-15.441-3.984-21.74-2.197m16.763 108.515c5.881 2.45 11.284 9.026 12.66 15.41.306 1.421-.82 31.528-2.502 66.904-2.478 52.098-3.312 64.823-4.39 66.963-2.247 4.458-5.565 7.317-10.031 8.644-7.558 2.244-14.926-1.164-18.7-8.651-1.819-3.611-7.971-129.846-6.579-135.015 3.343-12.418 17.523-19.26 29.542-14.255m-1.102 183.363c7.67 3.214 12.07 9.95 12.07 18.476 0 6.506-2.017 11.079-6.701 15.191-2.618 2.298-9.891 5.289-12.863 5.289-2.971 0-10.245-2.991-12.862-5.289-4.684-4.112-6.701-8.685-6.701-15.191 0-8.431 4.322-15.138 11.883-18.441 3.36-1.468 11.709-1.487 15.174-.035" fill-rule="evenodd"/></svg>