<svg xmlns="http://www.w3.org/2000/svg" width="512" height="512"><path d="M244.48 1.263c-19.983 4.399-35.695 18.438-41.967 37.497-3.165 9.617-3.341 23.515-.417 32.92 4.593 14.774 15.049 27.396 28.108 33.933 16.948 8.483 36.921 8.211 52.676-.717 13.63-7.724 23.857-21.258 27.356-36.203 1.768-7.551 1.316-22.714-.866-29.013-3.471-10.023-6.739-15.277-14.128-22.714-5.946-5.986-8.65-8.001-14.527-10.824-11.858-5.696-24.68-7.423-36.235-4.879m-58.103 128.003c-11.499 2.502-24.087 11.993-29.58 22.3-1.28 2.402-10.804 32.546-21.166 66.987-16.653 55.351-18.792 63.128-18.428 66.991.726 7.71 5.391 14.212 12.263 17.092 3.55 1.488 11.464 1.476 15.05-.023 4.095-1.711 8.578-5.95 10.22-9.664.788-1.783 7.749-24.333 15.468-50.112 8.882-29.659 14.617-47.451 15.62-48.454.872-.871 2.927-1.802 4.568-2.068 4.342-.705 8.435 2.831 8.435 7.288 0 1.752-9.984 36.479-22.187 77.173-12.203 40.693-22.185 74.458-22.182 75.032.014 2.947 2.096 7.835 4.509 10.582 4.367 4.975 6.279 5.397 24.445 5.397h16.214l.241 61.653.24 61.653 2.656 5.547c4.951 10.337 11.487 14.933 21.237 14.933 4.969 0 6.639-.391 9.937-2.33 4.887-2.873 8.015-6.491 10.893-12.603l2.21-4.693.235-62.08.235-62.08h16.116l.241 61.653.24 61.653 2.656 5.547c4.951 10.337 11.487 14.933 21.237 14.933 4.969 0 6.639-.391 9.937-2.33 4.887-2.873 8.015-6.491 10.893-12.603l2.21-4.693.235-62.08.235-62.08h17.087c17.813 0 19.786-.34 24.134-4.157 2.571-2.256 4.816-7.467 4.816-11.18 0-2.058-8.995-33.412-22.226-77.474-23.114-76.972-23.25-77.528-19.728-80.715 3.896-3.526 10.933-2.093 12.79 2.605.518 1.313 6.163 19.859 12.544 41.214 17.838 59.698 16.293 55.151 20.164 59.35 6.524 7.077 16.867 8.43 25.177 3.292 5.447-3.368 9.246-10.424 9.084-16.872-.147-5.871-35.975-125.146-39.765-132.383-5.717-10.918-18.586-20.328-30.837-22.549-7.909-1.434-131.613-1.122-138.373.348" fill-rule="evenodd"/></svg>