<svg xmlns="http://www.w3.org/2000/svg" viewBox="0 0 512 512"><path d="M243.627 1.345c-19.713 4.353-36.421 20.497-41.901 40.483-2.391 8.724-2.014 22.419.862 31.315C210.01 96.094 231.7 111.787 256 111.787c24.299 0 45.979-15.685 53.415-38.644 2.856-8.818 3.223-22.501.838-31.315-4.988-18.443-19.572-33.667-37.613-39.265-7.932-2.461-20.916-3.006-29.013-1.218m24.047 33.885c4.501 2.855 7.56 6.071 9.916 10.423 1.45 2.681 1.85 4.88 1.862 10.24.013 6.073-.278 7.345-2.633 11.52-1.456 2.582-4.265 5.938-6.243 7.46-14.967 11.511-36.542 2.04-38.232-16.785-.795-8.853 3.214-17.199 10.486-21.829 5.518-3.515 6.66-3.793 14.45-3.526 5.676.195 7.428.616 10.394 2.497M81.92 112.379c-8.573.965-17.431 5.715-24.165 12.957-10.128 10.893-12.632 28.377-6.107 42.631 3.21 7.01 12.219 15.423 21.039 19.645 3.905 1.87 28.22 10.189 54.033 18.487 25.813 8.298 49.415 16.297 52.449 17.774 3.972 1.935 6.241 3.723 8.107 6.386 2.496 3.565 2.602 4.09 2.895 14.409.558 19.642-.783 26.664-27.125 142.008-10.358 45.355-18.823 84.139-18.812 86.187.073 12.908 9.269 27.908 20.97 34.202 8.316 4.474 18.909 6.023 27.554 4.03 10.776-2.484 22.062-11.7 27.11-22.135 1.475-3.051 9.871-27.819 18.657-55.04 8.785-27.221 16.339-50.453 16.785-51.627.687-1.807 2.437 2.884 11.461 30.72 20.604 63.557 24.091 73.851 26.418 77.99 6.961 12.382 21.07 20.958 34.525 20.987 22.262.048 41.62-19.993 39.857-41.262-.239-2.879-8.768-41.715-18.955-86.301-24.556-107.487-26.861-119.032-26.894-134.662-.027-13.102 2.06-17.374 10.798-22.105 2.266-1.227 26.008-10.166 52.76-19.864 26.752-9.699 51.738-19.146 55.524-20.994 9.139-4.461 15.781-10.458 19.139-17.278 11.634-23.632-2.919-52.422-28.803-56.981-6.849-1.207-14.418-.002-27.793 4.423-22.677 7.502-58.292 16.372-83.347 20.757-47.339 8.287-80.4 8.291-128 .015-25.087-4.361-58.585-12.676-84.907-21.075-11.615-3.706-19.054-4.972-25.173-4.284m11.6 33.574c17.862 6.168 55.772 16.054 79.707 20.787 61.169 12.097 104.888 12.091 165.546-.022 24.58-4.908 58.243-13.733 77.59-20.341 7.544-2.576 10.305-2.701 12.921-.582 1.529 1.238 1.966 2.482 2.015 5.727.059 3.978-.078 4.223-3.368 6.054-1.886 1.049-25.31 9.84-52.054 19.536-54.762 19.854-62.414 23.28-71.685 32.086-10.536 10.008-14.232 20.683-14.281 41.255-.048 19.516 1.51 27.556 26.763 138.171 10.277 45.019 18.686 82.772 18.686 83.897 0 7.28-9.236 9.847-13.559 3.768-2.478-3.484-42.139-127.117-46.579-145.196-2.132-8.682-4.425-16.996-5.095-18.475-1.619-3.571-5.96-6.767-10.871-8.001-5.345-1.343-11.471.596-15.163 4.801-1.43 1.629-2.6 3.07-2.6 3.202 0 .132-2.273 9.047-5.051 19.81-4.229 16.386-42.905 138.411-45.27 142.829-1.392 2.601-4.146 4.424-6.796 4.5-3.24.092-7.736-3.805-7.736-6.705 0-1.064 8.612-39.68 19.137-85.814 10.526-46.134 20.483-90.792 22.128-99.24 6.497-33.362 6.299-54.893-.643-69.973-4.301-9.345-13.52-18.067-24.775-23.438-2.909-1.388-26.756-9.476-52.994-17.973-26.238-8.497-49.556-16.245-51.817-17.218-7.143-3.073-9.629-8.929-5.607-13.21 2.288-2.435 4.92-2.489 11.451-.235" fill-rule="evenodd"/></svg>