<svg xmlns="http://www.w3.org/2000/svg" viewBox="0 0 512 512"><path d="M245.87.903c-10.282 1.839-21.533 7.891-29.46 15.846-10.475 10.513-16.009 23.635-16.152 38.291-.103 10.559 1.082 15.695 5.98 25.931 6.263 13.085 17.253 22.738 31.983 28.091 5.62 2.043 7.435 2.275 17.779 2.275 10.344 0 12.159-.232 17.779-2.275 9.107-3.309 15.082-7.137 22.083-14.146 4.929-4.934 6.968-7.815 9.965-14.08 4.833-10.1 6.018-15.268 5.915-25.796-.234-24.067-16.107-45.16-39.529-52.529C265.761.481 252.69-.317 245.87.903M69.973 112.57c-12.382 2.585-21.45 15.661-21.647 31.217-.113 8.976 2.12 14.14 8.746 20.219 8.404 7.711 18.235 11.588 70.928 27.972 26.048 8.1 49.123 15.617 51.277 16.706 5.454 2.757 8.944 7.017 10.078 12.304 1.284 5.986 1.151 16.535-.35 27.759-.69 5.162-2.435 18.602-3.878 29.866-1.565 12.213-9.318 57.219-19.209 111.495-9.121 50.058-16.585 92.763-16.585 94.901 0 15.931 15.598 28.047 34.496 26.797 7.943-.526 13.935-3.186 18.735-8.318 7.467-7.982 8.975-12.462 15.036-44.646 15.016-79.742 29.588-133.083 37.149-135.985 7.448-2.858 20.468 41.245 38.046 128.87 3.753 18.711 7.63 36.183 8.615 38.827 4.964 13.325 13.925 20.429 26.821 21.264 18.887 1.223 34.436-11.092 34.436-27.276 0-1.79-7.517-43.48-16.704-92.645-12.789-68.444-17.487-95.489-20.048-115.417-1.839-14.315-3.55-26.907-3.802-27.982-.251-1.076-.473-6.854-.494-12.841-.048-14.247.97-17.01 7.92-21.502 5.723-3.699 5.187-3.497 63.675-23.942 24.075-8.416 46.769-16.807 50.43-18.648 19.369-9.739 25.061-24.691 16.424-43.147-3.133-6.695-6.603-10.588-12.11-13.585-6.578-3.581-11.74-3.312-28.545 1.488-51.611 14.74-105.421 25.078-145.493 27.951-28.854 2.068-63.499-1.211-109.653-10.38-19.313-3.837-59.933-13.699-74.667-18.128-11.286-3.392-15.438-4.068-19.627-3.194" fill-rule="evenodd"/></svg>