<svg xmlns="http://www.w3.org/2000/svg" viewBox="0 0 512 512"><path d="M245.87.903c-10.282 1.839-21.533 7.891-29.46 15.846-10.475 10.513-16.009 23.635-16.152 38.291-.103 10.559 1.082 15.695 5.98 25.931 6.263 13.085 17.253 22.738 31.983 28.091 5.62 2.043 7.435 2.275 17.779 2.275 10.344 0 12.159-.232 17.779-2.275 9.107-3.309 15.082-7.137 22.083-14.146 4.929-4.934 6.968-7.815 9.965-14.08 4.833-10.1 6.018-15.268 5.915-25.796-.234-24.067-16.107-45.16-39.529-52.529C265.761.481 252.69-.317 245.87.903M60.216 124.048a13294.68 13294.68 0 0 0-8.03 25.525l-4.219 13.466 3.11 1.312c21.796 9.194 45.936 18.036 99.963 36.616 20.885 7.183 39.354 13.576 41.042 14.206l3.068 1.147-25.469 139.093c-14.009 76.502-25.324 139.483-25.146 139.959.317.848 55.182 16.875 55.766 16.291.282-.282 45.459-174.26 45.459-175.064 0-.212 4.566-.386 10.147-.386 9.811 0 10.164.064 10.633 1.92 5.328 21.081 44.942 173.314 45.156 173.527.586.586 55.451-15.438 55.769-16.288.178-.476-11.132-63.456-25.134-139.955l-25.458-139.089 38.47-12.885c21.159-7.087 45.506-15.439 54.106-18.559 14.207-5.155 52.733-19.911 54.015-20.688.292-.177-1.873-8.105-4.811-17.619-2.938-9.513-6.539-21.188-8.003-25.945l-2.662-8.647-9.167 2.484c-83.713 22.69-124.448 29.194-182.821 29.194-58.372 0-99.11-6.505-182.814-29.192l-9.16-2.482-3.81 12.059" fill-rule="evenodd"/></svg>