<svg xmlns="http://www.w3.org/2000/svg" width="512" height="512"><path d="M247.743 98.579c-1.96 1.175-4.456 3.571-5.547 5.325l-1.983 3.189-.233 66.322-.234 66.322-66.326.238-66.327.238-3.609 2.347c-9.726 6.323-9.509 21.071.402 27.232l3.207 1.995 66.327.233 66.326.234.234 66.326.233 66.327 1.995 3.207c6.232 10.024 21.352 10.024 27.584 0l1.995-3.207.233-66.327.234-66.326 66.326-.234 66.327-.233 3.207-1.995c10.248-6.371 10.055-21.498-.35-27.455l-3.711-2.124-65.899-.233-65.9-.234-.234-66.326-.233-66.327-1.995-3.207c-4.505-7.247-14.714-9.704-22.049-5.307" fill-rule="evenodd"/></svg>