<svg xmlns="http://www.w3.org/2000/svg" width="512" height="512"><path d="M156.587 48.536c-3.859.997-5.899 2.295-8.801 5.6-2.893 3.294-4.019 7.421-3.346 12.265.24 1.73 14.985 35.21 32.766 74.399l32.329 71.253-5.994.514c-3.297.282-25.172.666-48.612.853l-42.617.34-16.505-20.053c-20.572-24.995-22.189-26.666-29.117-30.079-5.605-2.761-5.703-2.776-20.495-3.06-8.175-.157-16.176-.04-17.78.261-3.528.662-9.472 5.823-11.052 9.597-.632 1.51-1.148 4.39-1.147 6.4.002 2.054 4.595 20.147 10.49 41.322l10.487 37.668-10.46 37.425c-6.52 23.325-10.472 38.966-10.49 41.513-.048 6.642 4.594 13.63 10.637 16.014 3.715 1.465 21.951 2.03 30.109.932 12.337-1.66 13.359-2.557 39.864-35.015l16.214-19.854 12.8.481c7.04.264 25.664.686 41.386.938 15.723.252 31.693.67 35.488.929l6.902.471-32.419 71.402c-35.896 79.06-35.153 77.037-31.095 84.616 1.55 2.896 3.177 4.419 6.68 6.253l4.631 2.426 17.493-.302c20.129-.348 22.143-.911 29.191-8.168 2.156-2.22 31.611-37.637 65.455-78.704l61.535-74.666 18.977.426c10.436.235 33.184.42 50.549.411 34.092-.017 38.261-.407 54.613-5.107 18.012-5.177 30.854-14.465 36.894-26.687 3.104-6.282 3.213-6.807 3.213-15.55 0-8.734-.111-9.273-3.197-15.517-7.641-15.461-25.457-25.607-53.149-30.268-7.768-1.307-14.08-1.575-37.094-1.575-15.253 0-37.354.3-49.113.668l-21.381.667-64.118-77.894c-35.264-42.842-65.387-78.736-66.939-79.765-1.552-1.029-3.974-2.343-5.382-2.921-2.955-1.213-34.316-1.915-38.4-.859m88.787 107.197c30.432 37.078 58.168 70.78 61.636 74.895 6.32 7.5 9.291 9.735 14.515 10.918 1.543.349 21.703.09 44.8-.576 31.057-.895 45.377-.979 54.979-.323 19.893 1.359 35.199 5.778 40.356 11.65 1.404 1.6 2.553 3.25 2.553 3.667 0 .417-1.048 2.004-2.328 3.526-4.603 5.47-19.138 10.175-36.925 11.953-7.493.749-20.531.724-55.137-.108-24.928-.599-46.736-.86-48.462-.58-1.726.28-4.457 1.324-6.069 2.321-1.717 1.061-28.417 32.718-64.49 76.464-33.858 41.06-61.693 74.52-61.857 74.356-.164-.164 13.114-29.883 29.507-66.042 16.392-36.159 30.047-67.261 30.344-69.115 1.153-7.209-3.412-15.756-10.16-19.023-3.747-1.814-5.403-1.907-54.477-3.077-67.596-1.61-79.857-1.603-83.807.047-4.955 2.07-8.594 5.903-28.329 29.841-10.231 12.411-18.709 22.458-18.839 22.328-.13-.13 3.399-13.27 7.844-29.199 5.85-20.97 8.082-30.305 8.086-33.827.004-3.543-2.176-12.696-8.029-33.706-4.42-15.864-7.921-28.957-7.782-29.097.14-.14 7.116 8.114 15.502 18.341 24.025 29.299 24.741 30.074 30.04 32.5l4.713 2.157 26.514-.196c14.583-.109 44.179-.501 65.768-.872 43.71-.751 42.904-.639 48.394-6.716 3.731-4.13 5.255-8.521 4.757-13.706-.275-2.86-8.398-21.628-29.225-67.527-33.2-73.168-32.545-71.686-30.928-69.967.662.704 26.103 31.616 56.536 68.693" fill-rule="evenodd"/></svg>