<svg xmlns="http://www.w3.org/2000/svg" width="512" height="512"><path d="M154.986 49.04c-4.214 1.503-8.757 5.892-10.002 9.665-.533 1.614-.782 4.713-.553 6.888.294 2.803 9.835 24.686 32.789 75.207l32.375 71.253-8.158.533c-4.486.292-26.277.77-48.424 1.061l-40.267.528-17.748-21.541c-9.761-11.847-18.904-22.64-20.319-23.983-1.415-1.343-5.068-3.647-8.119-5.12l-5.547-2.678-16.433-.264c-15.687-.252-16.588-.177-19.828 1.644-5.029 2.827-7.95 7.541-8.308 13.409-.25 4.109 1.292 10.516 10.233 42.537l10.528 37.698-10.469 37.395c-6.563 23.444-10.479 38.923-10.496 41.49-.048 7.382 5.11 14.283 12.265 16.408 4.917 1.46 20.905 1.667 29.773.385 10.911-1.578 12.351-2.863 37.293-33.262 9.05-11.029 16.688-20.32 16.975-20.646.651-.743 95.431 1.352 96.205 2.126.311.312-13.933 32.542-31.653 71.623-17.721 39.082-32.417 72.473-32.657 74.203-.679 4.881.458 8.978 3.434 12.367 4.862 5.537 7.539 6.207 24.869 6.229 18.296.022 23.255-1.015 28.991-6.064 2.056-1.81 32.093-37.675 66.749-79.699l63.01-76.408 6.906.56c3.798.308 26.459.609 50.359.668 47.231.117 49.138-.026 66.494-5.015 15.418-4.431 29.122-13.321 35.079-22.757 6.944-10.998 7.199-26.736.616-37.991-5.214-8.914-18.705-18.18-33.135-22.758-17.877-5.671-32.22-6.912-71.68-6.202-16.896.305-36.096.787-42.666 1.073l-11.947.52-64.144-77.967C219.28 73.693 202.286 53.6 199.45 51.842c-2.08-1.29-5.812-2.73-8.293-3.2-6.88-1.305-32.174-1.026-36.171.398" fill-rule="evenodd"/></svg>