<svg xmlns="http://www.w3.org/2000/svg" width="512" height="512"><path d="M100.267 65.189c-18.679 3.602-35.779 16.78-44.696 34.444-4.97 9.846-7.141 19.026-7.212 30.5-.069 11.062 1.09 16.62 5.152 24.711 5.067 10.093 15.273 21.149 23.724 25.7l2.787 1.501 43.969-42.993 43.969-42.993-1.245-2.408c-.685-1.325-3.628-4.822-6.54-7.772-16.392-16.606-39.573-24.612-59.908-20.69m290.358-.366c-9.105 1.664-19.03 5.946-28.385 12.245-5.822 3.92-15.098 12.992-16.955 16.583l-1.245 2.408 43.969 42.993 43.969 42.993 2.787-1.501c8.451-4.551 18.657-15.607 23.724-25.7 4.062-8.091 5.221-13.649 5.152-24.711-.093-15.069-3.926-26.961-12.653-39.253-8.559-12.056-21.305-20.992-35.319-24.764-5.885-1.583-19.586-2.291-25.044-1.293M234.322 97.398c-30.391 3.9-60.292 16.176-85.177 34.969-9.075 6.854-26.137 23.917-32.991 32.992-19.616 25.973-31.866 56.917-35.164 88.827-1.378 13.326-.567 36.299 1.711 48.497 5.013 26.836 16.316 53.042 31.67 73.43 3.272 4.344 5.949 8.247 5.949 8.672 0 .425-10.656 11.163-23.68 23.861l-23.68 23.089 11.511 11.549 11.512 11.549 23.902-23.843 23.902-23.844 2.986 2.574c5.495 4.737 21.669 15.078 30.412 19.445 23.28 11.628 46.283 17.525 72.415 18.566 39.705 1.58 79.872-10.84 111.012-34.326 4.019-3.031 7.563-5.512 7.875-5.512.313 0 11.131 10.544 24.041 23.43L416 454.753l11.947-11.42 11.946-11.42-3.84-3.788c-2.112-2.084-12.864-12.562-23.893-23.284-11.029-10.723-20.165-19.749-20.301-20.057-.136-.309 2.182-3.781 5.15-7.717 11.362-15.064 19.508-30.696 25.772-49.453 6.498-19.463 8.963-34.656 8.989-55.423.035-27.568-4.613-49.22-15.342-71.476-23.855-49.481-75.322-91.411-123.735-100.804-4.928-.956-12.214-2.131-16.191-2.611-8.559-1.034-33.817-.975-42.18.098m37.683 118.709L271.787 288l-55.68.22-55.68.219V256h79.36V144.213h32.436l-.218 71.894" fill-rule="evenodd"/></svg>