<svg xmlns="http://www.w3.org/2000/svg" width="512" height="512"><path d="M139.52 64.719c-15.759 5.181-14.857 27.314 1.255 30.769 6.154 1.32 224.296 1.32 230.45 0 8.189-1.756 13.495-9.15 12.554-17.495-.498-4.419-2.212-7.119-6.953-10.957l-3.224-2.609-116.188-.135c-63.903-.074-116.955.118-117.894.427m-31.073 47.683c-3.752.716-8.536 4.433-10.395 8.077-3.801 7.451-1.204 16.937 5.834 21.313l3.207 1.995h297.814l3.207-1.995c10.248-6.371 10.055-21.498-.35-27.455l-3.711-2.124-146.773-.102c-80.725-.056-147.7.075-148.833.291m-28.163 49.38c-15.098 4.059-28.723 19.097-31.579 34.855-.623 3.433-.914 38.053-.904 107.52.017 111.562-.089 108.949 4.821 119.081 3.289 6.787 13.715 16.967 20.765 20.274 3.05 1.431 7.581 3.026 10.068 3.545 6.401 1.335 338.689 1.335 345.09 0 2.487-.519 7.018-2.114 10.068-3.545 7.05-3.307 17.476-13.487 20.765-20.274 4.91-10.132 4.804-7.519 4.821-119.081.01-69.467-.281-104.087-.904-107.52-2.894-15.966-16.556-30.889-31.948-34.898-4.457-1.161-24.763-1.306-175.74-1.256-146.658.048-171.351.231-175.323 1.299m344.662 31.798c1.62.869 3.726 2.625 4.68 3.902 1.718 2.301 1.736 3.283 1.957 105.799l.224 103.477-1.93 2.836c-1.062 1.56-3.014 3.639-4.34 4.621L423.128 416H88.872l-2.409-1.785c-1.326-.982-3.278-3.061-4.34-4.621l-1.93-2.836.224-103.477c.221-102.516.239-103.498 1.957-105.799.954-1.277 3.06-3.033 4.68-3.902C89.892 192.058 96.07 192 256 192s166.108.058 168.946 1.58" fill-rule="evenodd"/></svg>