<svg xmlns="http://www.w3.org/2000/svg" width="512" height="512"><path d="M333.227 15.061c-1.408.164-6.208.701-10.667 1.194-40.716 4.498-85.131 21.057-127.573 47.563-64.001 39.971-120.23 102.267-151.512 167.862-25.595 53.669-34.5 107.144-25.428 152.694 5.605 28.144 17.483 51.175 36.489 70.749 20.465 21.077 45.815 33.977 78.584 39.99 14.74 2.705 45.969 2.708 62.821.006 30.375-4.869 57.737-13.66 86.939-27.931 45.976-22.468 89.461-56.164 126.081-97.695 78.186-88.671 108.156-197.806 75.099-273.463-6.83-15.63-16.908-29.928-29.829-42.314-23.05-22.097-52.37-34.785-88.513-38.302-8.671-.844-26.609-1.039-32.491-.353m44.865 34.336c23.85 5.189 40.171 13.731 55.475 29.036 15.316 15.316 23.902 31.729 29.02 55.475 2.302 10.685 3.145 36.125 1.648 49.762-.58 5.286-1.257 9.943-1.504 10.35-.426.703-145.291-143.507-145.291-144.635 0-1.291 16.393-2.28 33.707-2.034 15.106.215 20.369.615 26.945 2.046m-93.079 9.316c0 .847 1.11 3.247 2.467 5.333 3.254 5.004 158.438 159.81 161.971 161.576 1.502.75 3.326 1.365 4.053 1.365 1.868 0 1.763.52-2.463 12.173-33.822 93.271-121.615 180.546-213.947 212.685-9.925 3.455-10.107 3.481-10.107 1.442 0-.847-1.11-3.247-2.465-5.333-3.245-4.994-158.433-159.798-161.973-161.572-1.502-.753-3.326-1.369-4.053-1.369-1.749 0-1.72-.223 1.136-8.586 12.064-35.333 33.361-72.032 61.622-106.187 9.101-10.999 37.987-39.885 48.986-48.986 33.596-27.798 67.325-47.559 103.68-60.743 10.351-3.754 11.093-3.874 11.093-1.798m42.24 105.055c-1.978.926-8.234 6.462-14.881 13.168l-11.467 11.57-6.73-6.43c-3.702-3.537-8.033-6.975-9.625-7.64-8.622-3.602-19.182 1.536-21.686 10.55-1.888 6.8-.409 10.248 8.146 18.991l7.134 7.29-11.047 11.023-11.047 11.022-7.075-6.907c-8.605-8.398-12.383-9.923-19.615-7.914-4.245 1.179-8.244 4.678-10.156 8.887-3.408 7.502-1.599 12.747 7.593 22.017l6.565 6.621-10.857 10.857-10.858 10.858-5.343-5.241c-8.209-8.05-11.051-9.663-17.025-9.663-5.567 0-8.495 1.184-11.945 4.83-2.859 3.022-4.107 6.247-4.107 10.613 0 5.233 1.877 8.608 8.849 15.905l6.43 6.73-11.541 11.467c-6.347 6.308-12.281 12.893-13.186 14.634-2.912 5.602-1.368 14.744 3.172 18.775 4.642 4.122 12.709 5.213 18.043 2.44 1.741-.905 8.322-6.835 14.624-13.177l11.458-11.53 7.082 6.703c4.12 3.901 8.38 7.133 10.188 7.729 10.329 3.409 21.226-4.273 21.171-14.925-.029-5.59-1.67-8.544-9.08-16.344l-6.085-6.407 10.816-10.816 10.816-10.816 6.621 6.565c9.072 8.995 14.175 10.877 21.357 7.876 4.217-1.762 6.919-4.361 8.825-8.492 3.429-7.429 1.606-12.714-7.58-21.978l-6.561-6.617 11.043-11.068 11.044-11.068 7.302 7.146c5.521 5.402 8.187 7.384 10.926 8.121 12.021 3.237 22.96-8.734 18.985-20.777-.596-1.808-3.828-6.068-7.729-10.188l-6.703-7.082 11.53-11.458c6.342-6.302 12.272-12.883 13.177-14.624 2.912-5.602 1.368-14.744-3.172-18.775-4.617-4.1-12.077-5.127-17.796-2.451M194.56 462.594c0 1.094-18.922 2.758-31.147 2.739-35.829-.055-63.85-10.519-84.98-31.733-9.099-9.135-13.76-15.577-19.215-26.554-8.066-16.233-11.381-30.845-12.035-53.053-.429-14.548.658-33.716 2.038-35.95.454-.734 145.339 143.366 145.339 144.551" fill-rule="evenodd"/></svg>