<svg xmlns="http://www.w3.org/2000/svg" width="512" height="512"><path d="M319.573 32.858c-.469.163-3.829.549-7.466.858-3.638.31-6.614.84-6.614 1.178 0 .816 171.498 171.069 171.902 170.654.173-.177.799-4.161 1.392-8.855 1.464-11.59 1.238-41.212-.448-58.88-2.319-24.288-8.778-65.591-13.368-85.473l-1.006-4.358-13.316-2.619c-45.896-9.03-80.184-12.972-111.876-12.864-10.09.034-18.73.196-19.2.359m-67.579 13.643c-47.941 13.901-91.957 37.79-123.617 67.092-37.933 35.107-64.998 80.645-81.899 137.801-2.096 7.089-3.811 13.425-3.811 14.082 0 1.053 58.562 59.806 167.812 168.36l34.266 34.048 10.021-2.758c40.815-11.231 78.641-29.367 109.44-52.473 14.629-10.975 35.499-31.198 46.3-44.866 15.172-19.201 30.523-45.243 40.815-69.243 4.905-11.437 13.442-36.056 16.343-47.131l1.984-7.574-100.747-100.586C305.3 79.753 267.565 42.68 266.557 42.704c-.878.021-7.432 1.729-14.563 3.797m88.22 147.045-16.894 16.91 11.14 10.481c6.127 5.765 11.14 10.944 11.14 11.509 0 1.172-20.654 21.847-21.824 21.847-.421 0-5.669-4.892-11.662-10.871l-10.896-10.872-11.294 11.294-11.294 11.294 11.077 11.102 11.077 11.102-11.295 11.294-11.294 11.294-11.098-11.073L256 277.785l-11.094 11.069-11.094 11.069 11.094 11.117L256 322.157l-11.314 11.291-11.315 11.291-11.297-11.297-11.297-11.297-16.865 16.85-16.865 16.85-11.074-11.098-11.073-11.098 16.842-16.857 16.841-16.857-11.301-11.301-11.301-11.301 11.299-11.298 11.299-11.299 11.322 11.299 11.323 11.299 11.069-11.094 11.069-11.093-10.868-10.892c-5.977-5.991-10.867-11.265-10.867-11.721 0-1.1 20.636-21.761 21.735-21.761.47 0 5.757 4.893 11.75 10.872l10.896 10.872 11.303-11.364 11.302-11.364-11.322-10.814-11.323-10.815 11.335-11.307 11.334-11.307 11.008 11.032 11.007 11.032 17.114-16.601 17.113-16.602 11.114 11.114 11.115 11.115-16.894 16.91M33.412 312.922c-1.674 15.178-1.9 24.382-1.002 40.785 1.674 30.55 6.681 67.375 13.832 101.721l1.813 8.708 11.002 2.615c44.189 10.506 74.881 14.275 104.575 12.844 17.756-.856 41.17-3.212 42.284-4.255.631-.589-168.953-169.899-170.785-170.51-.438-.146-1.211 3.496-1.719 8.092" fill-rule="evenodd"/></svg>