<svg xmlns="http://www.w3.org/2000/svg" width="512" height="512"><path d="M445.956 129.36c-12.476 3.018-23.563 13.371-27.864 26.017-2.178 6.406-2.531 15.906-.849 22.857l1.109 4.581-41.709 41.752c-37.398 37.436-41.93 41.699-43.843 41.231-4.87-1.191-18.333-1.444-22.864-.43l-4.689 1.049-29.876-29.876-29.877-29.877 1.2-4.132c.659-2.273 1.181-7.204 1.159-10.959-.07-11.692-4.067-20.434-13.22-28.907-6.325-5.856-12.287-8.767-20.576-10.045-19.882-3.067-39.717 9.677-44.634 28.678-1.652 6.383-1.685 14.906-.083 20.968l1.234 4.666-49.66 49.75c-47.513 47.598-49.771 49.727-52.221 49.228-13.358-2.721-21.099-2.159-30.007 2.177-14.102 6.864-22.473 20.197-22.473 35.791 0 26.385 24.483 45.431 49.89 38.813 12.778-3.328 23.486-13.368 27.805-26.069 2.178-6.407 2.531-15.906.848-22.859l-1.109-4.583 49.853-49.852 49.852-49.853 5.05 1.315c6.351 1.654 12.119 1.652 19.164-.009l5.514-1.299 29.718 29.719 29.719 29.718-1.299 5.514c-3.321 14.088.424 27.462 10.508 37.526 8.33 8.313 16.907 11.933 28.274 11.933s19.944-3.62 28.274-11.933c10.083-10.064 13.829-23.438 10.508-37.525l-1.299-5.512 41.632-41.674c37.066-37.104 41.866-41.622 43.765-41.19 9.091 2.066 13.805 2.401 19.497 1.383 19.767-3.532 33.41-19.589 33.41-39.321 0-26.366-23.978-45.017-49.831-38.761m14.119 31.989c.948.507 2.271 2.235 2.942 3.84 3.205 7.67-5.828 14.016-12.177 8.555-5.035-4.331-1.919-13.317 4.618-13.317 1.592 0 3.669.415 4.617.922m-246.391 25.596c1.245 1.479 2.209 3.687 2.209 5.055 0 1.368-.964 3.576-2.209 5.055-1.781 2.117-2.863 2.625-5.585 2.625-4.682 0-7.566-2.927-7.566-7.68s2.884-7.68 7.566-7.68c2.722 0 3.804.508 5.585 2.625m111.371 111.371c4.503 3.789 3.383 10.501-2.137 12.808-8.106 3.387-14.676-7.168-7.973-12.808 1.479-1.245 3.687-2.209 5.055-2.209 1.368 0 3.576.964 5.055 2.209M61.16 338.256c5.025 4.323 1.864 13.314-4.747 13.502-5.432.154-9.527-5.335-7.677-10.293 1.967-5.272 8.164-6.873 12.424-3.209" fill-rule="evenodd"/></svg>