<svg xmlns="http://www.w3.org/2000/svg" width="512" height="512"><path d="M446.568 129.303c-7.262 1.957-12.203 4.712-17.739 9.891-8.537 7.985-12.64 17.417-12.577 28.913.019 3.52.592 8.18 1.272 10.356l1.237 3.956-42.005 41.999-42.006 41.999-4.688-1.049c-4.529-1.014-17.995-.76-22.862.431-1.906.466-5.3-2.65-31.843-29.233l-29.711-29.755 1.441-7.109c1.205-5.947 1.282-8.098.471-13.165-4.334-27.069-32.808-42.089-57.265-30.205-16.659 8.094-25.967 28.599-20.832 45.891l1.354 4.56-49.892 49.892-49.891 49.891-4.583-1.134c-6.888-1.705-16.584-1.339-23.242.877-6.449 2.146-14.264 7.54-18.291 12.624-10.471 13.22-11.629 32.428-2.782 46.105 14.414 22.281 44.227 25.39 62.364 6.503 6.007-6.255 9.764-13.65 11.013-21.674.874-5.617.211-13.612-1.493-17.996-.822-2.116 1.272-4.34 49.236-52.299l50.095-50.089 5.512 1.299c7.088 1.671 11.758 1.657 18.584-.055l5.5-1.379 29.853 29.854 29.854 29.853-1.379 5.5c-1.718 6.851-1.75 12.569-.107 18.88 4.711 18.085 20.471 30.438 38.834 30.438 19.753 0 36.44-14.442 39.495-34.179.894-5.771.607-9.238-1.543-18.707-.432-1.9 4.091-6.705 41.211-43.787l41.696-41.653 7.361 1.515c6.392 1.316 8.172 1.377 13.518.46 20.081-3.444 34.049-19.57 34.049-39.312 0-7.988-2.021-15.277-5.919-21.351-9.248-14.412-27.502-21.813-43.3-17.556" fill-rule="evenodd"/></svg>