<svg xmlns="http://www.w3.org/2000/svg" width="512" height="512"><path d="M439.817 129.266c-22.777 4.956-38.634 27.887-35.257 50.984l.998 6.824-35.579 35.587-35.58 35.588-5.28-1.107c-6.676-1.399-11.563-1.399-18.24 0l-5.28 1.107-26.401-26.511-26.402-26.511.897-6.119c.719-4.904.631-7.467-.444-12.92-3.568-18.113-15.659-31.274-33.495-36.459-6.796-1.975-21.116-1.394-27.567 1.119-12.593 4.905-22.231 14.535-27.298 27.276-2.081 5.234-2.295 6.818-2.305 17.072l-.01 11.303-43.598 43.592-43.597 43.591-6.862-1.004c-27.578-4.032-52.626 17.536-52.499 45.207.062 13.409 4.077 22.883 13.767 32.483 10.275 10.18 20.696 14.208 34.642 13.391 12.676-.742 22.385-5.246 31.177-14.465 9.674-10.142 13.698-23.733 11.69-39.481l-.654-5.12 43.419-43.402 43.418-43.402 4.423.949c5.768 1.237 15.03 1.209 20.538-.063l4.382-1.011 26.273 26.262 26.272 26.263-.815 4.402c-2.769 14.954 4.443 33.647 16.6 43.026 14.763 11.39 32.448 13.337 48.878 5.383 18.201-8.811 29.512-30.857 25.207-49.127l-.804-3.413 36.024-36.093c31.809-31.869 36.275-36.041 38.158-35.643 16.391 3.46 32.305-1.014 43.447-12.214 18.438-18.535 18.512-46.708.172-65.029-11.296-11.284-26.656-15.743-42.415-12.315" fill-rule="evenodd"/></svg>