<svg xmlns="http://www.w3.org/2000/svg" width="512" height="512"><path d="M241.493 48.641c-27.975 1.894-57.516 10.284-82.346 23.387-19.313 10.191-33.392 20.676-49.945 37.198-18.107 18.071-29.124 33.421-40.117 55.894-28.164 57.571-28.16 124.086.009 181.76 10.945 22.41 21.949 37.748 40.114 55.912 18.152 18.153 33.47 29.145 55.912 40.123 57.571 28.164 124.086 28.16 181.76-.009 22.399-10.94 37.69-21.916 55.9-40.126 18.198-18.198 29.162-33.469 40.135-55.9 34.435-70.391 26.261-153.597-21.276-216.567-16.594-21.98-40.225-42.492-64.505-55.989-34.708-19.294-75.663-28.39-115.641-25.683m42.667 33.685c18.328 3.065 35.289 8.622 51.413 16.843l8.32 4.243v36.614c0 20.138-.097 36.614-.216 36.614s-21.911-21.736-48.426-48.302L247.04 80.036l14.507.467c7.978.257 18.154 1.078 22.613 1.823m-51.419 28.815c13.262 13.256 24.112 24.392 24.112 24.747 0 .355-28.992.645-64.426.645-37.136 0-64.427-.322-64.427-.76 0-1.332 14.155-14.216 22.368-20.36 9.71-7.264 19.95-13.45 30.667-18.527 9.295-4.403 23.383-9.736 25.893-9.801 1.121-.03 9.922 8.173 25.813 24.056m159.334 33.499c8.91 10.963 15.08 20.562 21.391 33.28 5.403 10.887 11.494 26.4 11.494 29.275 0 .801-10.944 12.395-24.32 25.765l-24.32 24.309V127.632l4.756 4.664c2.617 2.565 7.566 8.12 10.999 12.344M176.64 168.323c0 .119-21.736 21.911-48.302 48.426L80.036 264.96l.467-14.507c.892-27.682 6.621-50.402 18.666-74.026l4.243-8.32h36.614c20.138 0 36.614.097 36.614.216m140.155 26.872 27.098 27.088v67.414l-27.088 27.098-27.088 27.098h-67.414l-27.098-27.088-27.098-27.088v-67.414l27.088-27.098 27.088-27.098h67.414l27.098 27.088m114.738 66.565c-.277 7.861-1.112 17.941-1.856 22.4-2.982 17.88-9.147 36.559-17.251 52.267l-3.852 7.466H334.939l48.208-48.213c26.514-26.517 48.361-48.213 48.548-48.213.188 0 .115 6.432-.162 14.293M135.68 319.758v64.61l-4.756-4.664c-6.03-5.913-15.955-18.12-21.55-26.505-8.419-12.62-18.546-33.927-21.664-45.582l-1.037-3.879 24.285-24.296c13.356-13.362 24.383-24.295 24.503-24.295.12 0 .219 29.075.219 64.611m118.832 111.857c-24.665.627-52.711-6.015-77.232-18.29l-9.173-4.593v-73.793l48.219 48.21 48.218 48.211-10.032.255m122.459-48.056c-13.588 13.074-27.484 22.628-45.451 31.247-10.24 4.912-24.044 10.154-26.74 10.154-.787 0-12.37-10.944-25.74-24.32l-24.309-24.32 64.848.033 64.848.032-7.456 7.174" fill-rule="evenodd"/></svg>