<svg xmlns="http://www.w3.org/2000/svg" width="512" height="512"><path d="M241.92 48.635c-5.163.352-12.599 1.124-16.525 1.715l-7.139 1.075 60.043 60.048c40.488 40.491 60.614 60.047 61.795 60.047 3.842 0 3.799.599 3.799-52.963V67.642l-5.76-2.575c-27.491-12.291-64.42-18.598-96.213-16.432m-64.427 14.838c-28.592 11.947-56.065 31.279-75.542 53.155-7.677 8.622-14.911 17.906-14.911 19.137 0 .45 33.092.763 80 .756 62.631-.01 80.463-.246 82.133-1.088 5.155-2.599 4.934-2.874-31.698-39.547-18.924-18.945-34.605-34.43-34.847-34.41-.243.02-2.553.919-5.135 1.997M376.32 168.429c0 88.239-.217 84.203 4.469 82.999 1.062-.273 17.229-15.808 35.926-34.522l33.996-34.025-3.089-7.461c-9.962-24.067-25.046-46.434-44.39-65.826-9.538-9.562-24.743-22.554-26.395-22.554-.284 0-.517 36.625-.517 81.389m-310.245 2.878c-8.788 20.659-13.673 38.271-16.745 60.373-2.03 14.604-1.266 43.093 1.588 59.191l.509 2.871 60.046-60.042c40.491-40.488 60.047-60.613 60.047-61.794 0-3.843.604-3.799-53.066-3.799H67.436l-1.361 3.2m155.282-2.103c-.984.57-13.368 12.808-27.52 27.197l-25.73 26.161.03 33.146c.022 24.415.303 33.61 1.067 34.911.92 1.569 40.888 40.343 51.175 49.648l4.01 3.626 32.232-.03c23.677-.022 32.711-.305 34.036-1.067.992-.57 13.376-12.811 27.52-27.203l25.716-26.168-.03-33.139c-.022-24.418-.303-33.601-1.067-34.892-.57-.964-12.81-13.348-27.2-27.52l-26.164-25.767-33.143.03c-24.399.022-33.614.304-34.932 1.067M400.39 278.437c-41.718 41.72-59.91 60.465-59.91 61.727 0 .998.523 2.248 1.162 2.778.842.699 15.194.904 52.12.745l50.958-.22 2.581-5.974c6.747-15.617 12.657-37.495 15.329-56.746 1.577-11.361 1.335-40.586-.434-52.408-.767-5.123-1.507-9.428-1.645-9.566-.138-.138-27.211 26.711-60.161 59.664M95.804 294.609l-34.522 34.492 3.092 7.47c10.024 24.216 24.935 46.329 44.394 65.835 10.578 10.604 24.789 22.554 26.821 22.554 1.458 0 1.304-159.237-.156-162.133-2.601-5.16-2.869-4.945-39.629 31.782m73.254 47.033c-.699.842-.904 15.194-.745 52.12l.22 50.958 5.974 2.581c15.647 6.76 37.628 12.692 56.746 15.316 15.101 2.072 43.377 1.344 59.618-1.535l2.871-.509-60.042-60.046c-41.907-41.911-60.591-60.047-61.86-60.047-1 0-2.252.523-2.782 1.162m92.071 35.947c-.579.698-.83 2.138-.557 3.2.273 1.062 15.808 17.229 34.522 35.926l34.025 33.996 7.6-3.129c15.903-6.547 34.108-17.431 48.988-29.288 13.005-10.363 31.481-29.665 37.93-39.627l1.519-2.347h-81.487c-71.075 0-81.621.162-82.54 1.269" fill-rule="evenodd"/></svg>