<svg xmlns="http://www.w3.org/2000/svg" width="512" height="512"><path d="M216.747 48.174c0 .341 60.696 60.685 111.146 110.502L345.6 176.16V47.787h-64.427c-35.434 0-64.426.174-64.426.387m-86.172 48.077L80.67 133.547l43.719.221c24.045.121 63.398.121 87.451 0l43.733-.221-36.601-37.12c-20.131-20.416-37.027-37.2-37.547-37.296-.52-.097-23.402 16.607-50.85 37.12m247.452 71.269c0 48.195.232 87.627.517 87.627.284 0 15.548-14.655 33.92-32.566a45959.132 45959.132 0 0 1 37.512-36.546l4.109-3.981-33.976-45.59c-18.686-25.075-35.8-48.061-38.029-51.081l-4.053-5.49v87.627m-330.24 62.665v63.784L111.36 230.4c34.965-34.963 63.573-63.666 63.573-63.785 0-.118-28.608-.215-63.573-.215H47.787v63.785m146.555-35.834L166.4 222.303v67.394l27.942 27.952 27.942 27.951h67.432l27.942-27.951 27.942-27.952V222.284l-27.951-27.942-27.952-27.942H222.284l-27.942 27.951M399.36 280.32l-63.569 63.573h128.422V280.32c0-34.965-.289-63.573-.642-63.573-.353 0-29.248 28.608-64.211 63.573m-282.88-7.415c-8.917 8.822-25.732 25.288-37.365 36.591l-21.152 20.551 31.419 42.123c17.28 23.168 34.383 46.14 38.005 51.049l6.586 8.925v-87.645c0-48.205-.288-87.643-.64-87.64-.352.004-7.936 7.224-16.853 16.046m49.275 127.522.218 63.36 64 .217 64 .218-63.571-63.578c-34.964-34.967-63.862-63.577-64.219-63.577-.356 0-.549 28.512-.428 63.36m91.098-21.883c0 .284 14.655 15.548 32.566 33.92a45959.132 45959.132 0 0 1 36.546 37.512l3.981 4.109 45.59-33.976c25.075-18.686 48.061-35.8 51.081-38.029l5.49-4.053H344.48c-48.195 0-87.627.232-87.627.517" fill-rule="evenodd"/></svg>