<svg xmlns="http://www.w3.org/2000/svg" width="512" height="512"><path d="M57.173 48.973c-13.196 2.934-22.532 12.995-24.776 26.7-1.09 6.654-1.039 19.267.104 25.504 1.926 10.513 8.883 19.505 18.699 24.167l4.693 2.229h400.214l4.693-2.229c9.816-4.662 16.773-13.654 18.699-24.167 1.143-6.237 1.194-18.85.104-25.504-2.311-14.11-12.258-24.41-26.034-26.957-7.625-1.409-390.015-1.161-396.396.257M64.942 161.6c-.723.871-.915 34.193-.745 129.067l.23 127.893 1.988 5.973c4.908 14.743 15.301 26.835 28.563 33.231 14.245 6.872 3.694 6.449 161.022 6.449 155.143 0 146.656.296 159.342-5.558 14.462-6.675 24.318-17.67 29.822-33.268l2.409-6.827.23-127.893c.17-94.874-.022-128.196-.745-129.067-1.459-1.758-380.657-1.758-382.116 0m196.762 47.521c2.979 1.125 6.793 4.669 8.666 8.052 1.271 2.297 1.442 8.162 1.66 57.118l.244 54.559 18.956-18.834c10.426-10.359 20.186-19.454 21.688-20.212 6.909-3.485 16.787-.54 20.531 6.122 2.101 3.737 2.56 10.286 1.011 14.418-1.341 3.576-67.854 70.054-72.06 72.022-4.334 2.027-8.466 2.027-12.8 0-4.206-1.968-70.719-68.446-72.06-72.022-1.549-4.132-1.09-10.681 1.011-14.418 3.744-6.662 13.622-9.607 20.531-6.122 1.502.758 11.262 9.853 21.688 20.212l18.956 18.834.244-54.559c.218-48.875.39-54.824 1.656-57.118 4.07-7.377 12.702-10.839 20.078-8.052" fill-rule="evenodd"/></svg>