<svg xmlns="http://www.w3.org/2000/svg" width="512" height="512"><path d="M69.041 48.689c-9.49 1.411-17.394 5.576-24.506 12.914-9.793 10.106-12.121 16.865-12.726 36.957-.573 19.023.51 27.815 4.449 36.109 4.14 8.718 12.426 16.967 21.254 21.159L64 158.909v127.423c0 138.092-.153 133.298 4.604 144.053 6.431 14.542 20.115 26.652 35.503 31.419l6.4 1.983h291.84l6.818-2.41c15.483-5.471 27.928-16.738 34.231-30.992 4.757-10.755 4.604-5.961 4.604-144.053V158.909l6.488-3.081c8.828-4.192 17.114-12.441 21.254-21.159 3.938-8.291 5.022-17.085 4.451-36.109-.337-11.272-.816-15.696-2.144-19.838-4.111-12.823-15.31-24.125-28.342-28.603l-5.547-1.906-185.173-.116c-101.846-.065-187.321.202-189.946.592m374.278 34.084c4.322 4.039 4.681 5.654 4.68 21.078-.002 16.156-.686 18.739-5.885 22.212l-2.9 1.937-183.127-.003c-181.227-.003-183.156-.021-185.908-1.699-5.578-3.401-6.172-5.521-6.176-22.02-.003-15.7.38-17.548 4.396-21.183 1.101-.996 2.577-2.023 3.281-2.282.704-.259 84.097-.404 185.318-.322l184.038.149 2.283 2.133m-27.948 205.44L415.147 416l-2.435 3.749c-3.297 5.078-6.154 7.627-11.219 10.012l-4.266 2.009H114.773l-4.266-2.009c-5.065-2.385-7.922-4.934-11.219-10.012L96.853 416l-.224-127.787-.224-127.786h319.19l-.224 127.786M249.6 209.428c-3.623 1.624-6.341 4.45-8.185 8.509-1.498 3.298-1.592 6.652-1.61 57.238l-.018 53.735-18.987-18.864c-10.443-10.375-20.216-19.484-21.718-20.242-1.502-.757-4.732-1.377-7.178-1.377-11.035 0-18.771 10.724-14.952 20.726 1.101 2.881 8.691 10.913 36.592 38.726 32.926 32.822 35.437 35.13 38.829 35.681 1.995.325 5.259.325 7.254 0 3.392-.551 5.903-2.859 38.829-35.681 27.901-27.813 35.491-35.845 36.592-38.726 3.819-10.002-3.917-20.726-14.952-20.726-2.446 0-5.676.62-7.178 1.377-1.502.758-11.275 9.867-21.718 20.242l-18.987 18.864-.018-53.735c-.018-50.483-.115-53.942-1.599-57.148-1.84-3.973-5.476-7.616-8.892-8.906-3.261-1.232-8.994-1.087-12.104.307" fill-rule="evenodd"/></svg>