<svg xmlns="http://www.w3.org/2000/svg" width="512" height="512"><path d="M154.027 161.791c-57.728 49.128-104.96 89.729-104.96 90.225 0 .496 47.232 41.098 104.96 90.226l104.96 89.324.22-51.183.22-51.184 10.446.584c62.834 3.514 99.402 16.019 134.18 45.886 11.74 10.082 19.283 17.961 41.83 43.693 13.462 15.364 17.98 20.018 18.222 18.773.865-4.444-.717-66.626-1.982-77.897-10.381-92.487-54.303-150.188-132.271-173.763-18.046-5.456-45.304-10.007-65.319-10.905l-4.693-.21-.427-51.445-.426-51.446-104.96 89.322" fill-rule="evenodd"/></svg>