<svg xmlns="http://www.w3.org/2000/svg" width="512" height="512"><path d="M241.92 48.656c-32.351 2.022-64.984 12.273-93.189 29.276-53.917 32.501-89.753 86.952-98.941 150.335-2.03 14.002-2.03 41.464 0 55.466 5.257 36.266 18.79 68.894 40.768 98.296 8.04 10.755 28.658 31.373 39.413 39.413 29.402 21.978 62.03 35.511 98.296 40.768 7.099 1.029 15.606 1.485 27.733 1.485s20.634-.456 27.733-1.485c36.266-5.257 68.894-18.79 98.296-40.768 10.755-8.04 31.373-28.658 39.413-39.413 20.459-27.37 33.566-57.361 39.414-90.189 10.068-56.519-4.22-115.167-39.415-161.788-32.853-43.518-83.69-72.968-138.134-80.021-12.74-1.65-28.565-2.176-41.387-1.375m76.541 148.963c50.397 47.438 49.326 46.351 49.326 50.074 0 1.648-.743 3.901-1.678 5.09-2.867 3.644-85.383 81.23-87.7 82.46-1.74.923-2.865.96-5.468.18-5.515-1.652-5.848-3.107-5.848-25.58v-19.629l-4.053.361c-2.229.199-9.045.552-15.147.783-18.894.718-38.541 4.916-52.906 11.305-9.695 4.312-21.947 12.662-30.981 21.113-4.27 3.995-8.688 7.496-9.817 7.78-2.878.722-7.611-1.472-9.071-4.205-1.048-1.959-1.072-3.738-.164-12.017 2.032-18.522 6.768-35.733 13.888-50.471 17.763-36.768 50.041-56.176 97.928-58.882l10.323-.584v-39.719l2.21-2.626c1.844-2.192 2.823-2.625 5.927-2.625h3.718l39.513 37.192" fill-rule="evenodd"/></svg>