<svg xmlns="http://www.w3.org/2000/svg" width="512" height="512"><path d="M264.107 74.121c-3.413 2.108-5.214 4.233-6.794 8.016-1.12 2.68-1.313 9.208-1.313 44.464 0 46.354.631 42.353-6.683 42.367-5.268.01-23.67 2.198-32.658 3.884-47.545 8.914-85.988 30.001-113.231 62.111-34.395 40.541-52.444 97.297-55.263 173.784-.681 18.472-.136 21.576 4.633 26.344 6.475 6.476 15.782 6.546 22.196.169 1.697-1.688 7.118-8.041 12.046-14.119 9.924-12.24 25.4-28.158 34.567-35.555 31.133-25.119 70.949-38.336 122.233-40.574l12.16-.531.019 41.306c.017 38.229.135 41.563 1.585 44.755 4.042 8.899 14.246 12.042 22.493 6.93 5.163-3.201 181.317-172.012 182.554-174.944 1.453-3.444 1.453-9.612 0-13.056C461.4 246.506 285.237 77.718 279.99 74.458c-4.019-2.497-12.109-2.669-15.883-.337" fill-rule="evenodd"/></svg>