<svg xmlns="http://www.w3.org/2000/svg" width="512" height="512"><path d="M241.493 48.673c-39.799 2.563-78.317 17.074-111.786 42.114-10.589 7.922-31.248 28.596-39.155 39.184-21.846 29.252-35.222 61.365-40.767 97.869-2.061 13.574-2.061 42.746 0 56.32 5.546 36.511 18.94 68.661 40.773 97.869 8.04 10.755 28.658 31.373 39.413 39.413 29.208 21.833 61.358 35.227 97.869 40.773 13.574 2.061 42.746 2.061 56.32 0 36.526-5.548 68.754-18.978 97.869-40.785 10.755-8.056 31.345-28.646 39.401-39.401 21.807-29.115 35.237-61.343 40.785-97.869 2.061-13.574 2.061-42.746 0-56.32-6.752-44.453-25.412-83.157-55.294-114.69-36.541-38.56-84.833-61.088-138.36-64.543-13.196-.852-12.782-.853-27.068.066m42.667 33.635c35.838 6.075 67.575 21.95 93.579 46.81 27.61 26.395 45.561 60.682 52.093 99.5 2.091 12.43 2.073 42.896-.033 55.115-9.878 57.299-44.492 104.256-95.788 129.946-48.421 24.25-107.601 24.25-156.022 0-51.464-25.774-86.214-73.029-95.815-130.297-2.121-12.648-2.121-42.116 0-54.764 10.541-62.873 51.565-113.601 110.675-136.854 13.047-5.132 28.757-8.823 46.938-11.027 6.667-.809 36.585.251 44.373 1.571m-28.585 79.463c-3.847 2.006-5.627 3.848-7.357 7.616-1.925 4.193-2.028 8.855-.287 13.022.87 2.082 10.5 12.366 28.319 30.242l27.001 27.087-69.206.238-69.206.237-3.623 2.56c-9.382 6.628-9.382 19.826 0 26.454l3.623 2.56 69.211.233 69.211.233-27.006 27.091c-17.823 17.88-27.454 28.165-28.324 30.247-1.743 4.173-1.638 8.834.295 13.022 2.172 4.707 5.249 7.291 10.213 8.579 5.046 1.309 9.385.54 13.23-2.344 1.473-1.105 21.163-20.624 43.757-43.375 39.264-39.538 41.117-41.546 41.923-45.42a19.905 19.905 0 0 0 0-8.106c-.806-3.874-2.665-5.888-41.923-45.438-22.594-22.762-42.577-42.442-44.408-43.734-2.677-1.889-4.263-2.347-8.106-2.343-2.663.003-5.911.596-7.337 1.339" fill-rule="evenodd"/></svg>