<svg xmlns="http://www.w3.org/2000/svg" width="512" height="512"><path d="M241.493 48.673c-39.799 2.563-78.317 17.074-111.786 42.114-10.589 7.922-31.248 28.596-39.155 39.184-21.846 29.252-35.222 61.365-40.767 97.869-2.061 13.574-2.061 42.746 0 56.32 5.546 36.511 18.94 68.661 40.773 97.869 8.04 10.755 28.658 31.373 39.413 39.413 29.208 21.833 61.358 35.227 97.869 40.773 13.574 2.061 42.746 2.061 56.32 0 36.526-5.548 68.754-18.978 97.869-40.785 10.755-8.056 31.345-28.646 39.401-39.401 21.807-29.115 35.237-61.343 40.785-97.869 2.061-13.574 2.061-42.746 0-56.32-6.752-44.453-25.412-83.157-55.294-114.69-36.541-38.56-84.833-61.088-138.36-64.543-13.196-.852-12.782-.853-27.068.066m42.667 33.635c35.838 6.075 67.575 21.95 93.579 46.81 27.61 26.395 45.561 60.682 52.093 99.5 2.091 12.43 2.073 42.896-.033 55.115-9.878 57.299-44.492 104.256-95.788 129.946-48.421 24.25-107.601 24.25-156.022 0-51.464-25.774-86.214-73.029-95.815-130.297-2.121-12.648-2.121-42.116 0-54.764 10.541-62.873 51.565-113.601 110.675-136.854 13.047-5.132 28.757-8.823 46.938-11.027 6.667-.809 36.585.251 44.373 1.571m-36.022 74.072c-3.397 2.057-84.699 82.701-86.217 85.52-2.845 5.284-1.891 13.844 2.016 18.087 4.528 4.917 12.341 6.643 18.472 4.082 2.082-.87 12.367-10.501 30.247-28.324l27.091-27.006.233 69.211.233 69.211 2.56 3.623c6.628 9.382 19.826 9.382 26.454 0l2.56-3.623.233-69.211.233-69.211 27.091 27.006c17.88 17.823 28.165 27.454 30.247 28.324 6.131 2.561 13.944.835 18.472-4.082 3.91-4.246 4.863-12.824 2.009-18.087-1.542-2.844-82.793-83.451-86.192-85.509-4.373-2.647-11.379-2.652-15.742-.011" fill-rule="evenodd"/></svg>