<svg xmlns="http://www.w3.org/2000/svg" width="512" height="512"><path d="M232.01 74.458c-5.247 3.26-181.41 172.048-182.661 175.014-1.456 3.451-1.452 9.614.008 13.076 1.346 3.191 177.619 171.924 183.01 175.182 6.012 3.633 14.307 2.473 19.112-2.674 4.485-4.803 4.521-5.201 4.521-49.322v-40.987h5.836c3.21 0 11.946.584 19.414 1.298 50.73 4.852 83.266 17.422 114.27 44.149 9.774 8.425 21.323 20.828 34.447 36.993 8.574 10.56 11.569 12.597 18.568 12.627 8.649.037 14.759-6.453 15.468-16.428.508-7.141-1.127-37.482-2.798-51.925-5.474-47.315-18.08-86.129-37.789-116.355-32.259-49.472-79.68-77.066-145.825-84.853-6.008-.707-13.228-1.383-16.044-1.503l-5.12-.217-.427-42.666c-.452-45.217-.364-44.275-4.587-48.935-2.875-3.173-6.048-4.399-11.371-4.394-3.639.003-5.765.511-8.032 1.92m-6.593 116.262c1.895 3.423 5.685 6.92 8.823 8.14 1.408.548 9.862 1.319 18.786 1.713 85.218 3.763 137.693 40.127 163.072 113.004 5.587 16.044 11.194 41.446 12.813 58.05l.582 5.973-7.173-6.465c-38.534-34.73-75.55-50.432-133.727-56.727-13.648-1.477-47.853-2.617-52.481-1.749-1.754.329-4.544 1.789-6.201 3.243-5.973 5.245-5.865 4.581-6.338 38.915l-.426 30.978-67.627-64.546C118.325 285.748 87.893 256.386 87.893 256c0-.386 30.432-29.748 67.627-65.249l67.627-64.546.426 30.978c.369 26.737.621 31.327 1.844 33.537" fill-rule="evenodd"/></svg>