<svg xmlns="http://www.w3.org/2000/svg" width="512" height="512"><path d="M241.92 48.656c-32.351 2.022-64.984 12.273-93.189 29.276-53.917 32.501-89.753 86.952-98.941 150.335-2.03 14.002-2.03 41.464 0 55.466 5.257 36.266 18.79 68.894 40.768 98.296 8.04 10.755 28.658 31.373 39.413 39.413 29.402 21.978 62.03 35.511 98.296 40.768 7.099 1.029 15.606 1.485 27.733 1.485s20.634-.456 27.733-1.485c36.266-5.257 68.894-18.79 98.296-40.768 10.755-8.04 31.373-28.658 39.413-39.413 20.459-27.37 33.566-57.361 39.414-90.189 10.068-56.519-4.22-115.167-39.415-161.788-32.853-43.518-83.69-72.968-138.134-80.021-12.74-1.65-28.565-2.176-41.387-1.375m22.326 107.967c2.312 1.355 4.425 3.52 5.622 5.76l1.919 3.59.238 68.639.237 68.638 26.648-26.56c27.504-27.414 30.716-30.015 37.117-30.058 3.208-.021 8.332 1.926 10.699 4.067 5.27 4.766 6.488 14.664 2.501 20.319-3.684 5.225-83.063 83.594-86.4 85.301-3.823 1.955-9.835 1.954-13.654-.003-3.34-1.712-82.721-80.08-86.4-85.298-3.987-5.655-2.769-15.553 2.501-20.319 2.367-2.141 7.491-4.088 10.699-4.067 6.401.043 9.613 2.644 37.117 30.058l26.648 26.56.237-68.638.238-68.639 1.91-3.572c4.087-7.646 14.358-10.328 22.123-5.778" fill-rule="evenodd"/></svg>