<svg xmlns="http://www.w3.org/2000/svg" width="512" height="512"><path d="M241.493 48.673c-39.799 2.563-78.317 17.074-111.786 42.114-10.589 7.922-31.248 28.596-39.155 39.184-21.846 29.252-35.222 61.365-40.767 97.869-2.061 13.574-2.061 42.746 0 56.32 5.546 36.511 18.94 68.661 40.773 97.869 8.04 10.755 28.658 31.373 39.413 39.413 29.208 21.833 61.358 35.227 97.869 40.773 13.574 2.061 42.746 2.061 56.32 0 36.526-5.548 68.754-18.978 97.869-40.785 10.755-8.056 31.345-28.646 39.401-39.401 21.807-29.115 35.237-61.343 40.785-97.869 2.061-13.574 2.061-42.746 0-56.32-6.752-44.453-25.412-83.157-55.294-114.69-36.541-38.56-84.833-61.088-138.36-64.543-13.196-.852-12.782-.853-27.068.066m42.667 33.635c35.838 6.075 67.575 21.95 93.579 46.81 27.61 26.395 45.561 60.682 52.093 99.5 2.091 12.43 2.073 42.896-.033 55.115-9.878 57.299-44.492 104.256-95.788 129.946-48.421 24.25-107.601 24.25-156.022 0-51.464-25.774-86.214-73.029-95.815-130.297-2.121-12.648-2.121-42.116 0-54.764 10.541-62.873 51.565-113.601 110.675-136.854 13.047-5.132 28.757-8.823 46.938-11.027 6.667-.809 36.585.251 44.373 1.571m-14.857 80.744-2.21 2.626v39.719l-10.323.584c-61.332 3.466-97.428 34.581-109.506 94.395-3.015 14.93-3.709 24.892-1.924 27.617 1.855 2.83 6.402 4.293 9.583 3.084 1.333-.507 5.516-3.888 9.297-7.515 8.515-8.168 15.988-13.543 25.768-18.533 15.421-7.869 36.535-12.853 57.905-13.669 6.102-.233 12.918-.586 15.147-.785l4.053-.361v40.957l2.06 2.06c2.754 2.754 6.063 3.495 9.063 2.03 2.392-1.169 84.66-78.368 87.893-82.478.937-1.191 1.678-3.442 1.678-5.098 0-3.72.788-2.92-49.731-50.481l-39.065-36.777h-3.739c-3.129 0-4.101.429-5.949 2.625" fill-rule="evenodd"/></svg>