<svg xmlns="http://www.w3.org/2000/svg" width="512" height="512"><path d="M261.805 89.046c-13.772 3.85-21.061 18.127-16.058 31.455 1.535 4.089 6.696 9.513 55.043 57.846l53.349 53.333-130.35.427-130.349.426-4.343 2.292c-11.685 6.166-16.261 20.284-10.339 31.895 2.548 4.995 5.608 8.029 10.842 10.75l3.84 1.997 129.92.221c71.456.122 129.92.502 129.92.844 0 .343-23.957 24.627-53.238 53.966-50.389 50.488-53.317 53.588-54.721 57.94-2.899 8.986.187 19.988 7.237 25.803 3.775 3.114 10.994 5.866 15.389 5.866 1.842 0 5.571-.812 8.288-1.804 4.709-1.721 8.439-5.3 80.213-76.971 81.212-81.095 78.549-78.141 79.397-88.052.258-3.013-.187-5.771-1.514-9.387-1.814-4.941-4.483-7.727-76.665-80.028-59.406-59.503-75.663-75.334-79.053-76.98-5.365-2.605-11.619-3.289-16.808-1.839" fill-rule="evenodd"/></svg>