<svg xmlns="http://www.w3.org/2000/svg" width="512" height="512"><path d="M241.92 48.656c-32.351 2.022-64.984 12.273-93.189 29.276-53.917 32.501-89.753 86.952-98.941 150.335-2.03 14.002-2.03 41.464 0 55.466 5.257 36.266 18.79 68.894 40.768 98.296 8.04 10.755 28.658 31.373 39.413 39.413 29.402 21.978 62.03 35.511 98.296 40.768 7.099 1.029 15.606 1.485 27.733 1.485s20.634-.456 27.733-1.485c36.266-5.257 68.894-18.79 98.296-40.768 10.755-8.04 31.373-28.658 39.413-39.413 20.459-27.37 33.566-57.361 39.414-90.189 10.068-56.519-4.22-115.167-39.415-161.788-32.853-43.518-83.69-72.968-138.134-80.021-12.74-1.65-28.565-2.176-41.387-1.375m72.042 156.36 50.664 50.989-50.674 50.984c-27.87 28.041-50.876 51.082-51.122 51.201-.247.119-5.428-4.774-11.514-10.874l-11.066-11.09 5.519-5.766c3.035-3.172 17.232-17.575 31.549-32.007l26.032-26.24H154.453v-32.426H303.35l-26.032-26.24c-14.317-14.432-28.514-28.835-31.549-32.007l-5.519-5.766 11.066-11.09c6.086-6.1 11.272-10.993 11.524-10.874.252.119 23.257 23.162 51.122 51.206" fill-rule="evenodd"/></svg>