<svg xmlns="http://www.w3.org/2000/svg" width="512" height="512"><path d="M241.92 48.656c-32.351 2.022-64.984 12.273-93.189 29.276-53.917 32.501-89.753 86.952-98.941 150.335-2.03 14.002-2.03 41.464 0 55.466 5.257 36.266 18.79 68.894 40.768 98.296 8.04 10.755 28.658 31.373 39.413 39.413 29.402 21.978 62.03 35.511 98.296 40.768 7.099 1.029 15.606 1.485 27.733 1.485s20.634-.456 27.733-1.485c36.266-5.257 68.894-18.79 98.296-40.768 10.755-8.04 31.373-28.658 39.413-39.413 20.459-27.37 33.566-57.361 39.414-90.189 10.068-56.519-4.22-115.167-39.415-161.788-32.853-43.518-83.69-72.968-138.134-80.021-12.74-1.65-28.565-2.176-41.387-1.375m29.098 114.117c5.003 3.527 83.547 82.994 85.144 86.145 2.047 4.036 1.792 11.09-.54 14.932-2.085 3.435-82.67 84.708-85.485 86.215-5.272 2.821-12.449 2.145-17.413-1.641-3.382-2.58-6.073-7.991-6.073-12.211 0-6.581 2.451-9.624 30.048-37.312l26.57-26.658-68.648-.228c-65.826-.219-68.784-.296-71.963-1.874-10.769-5.344-10.936-22.311-.275-28.009l3.59-1.919 68.639-.238 68.638-.237-26.56-26.648c-19.41-19.474-27.029-27.68-28.3-30.482-5.037-11.105 2.145-22.059 14.522-22.147 3.87-.028 5.41.411 8.106 2.312" fill-rule="evenodd"/></svg>