<svg xmlns="http://www.w3.org/2000/svg" width="512" height="512"><path d="M241.92 48.656c-32.351 2.022-64.984 12.273-93.189 29.276-53.917 32.501-89.753 86.952-98.941 150.335-2.03 14.002-2.03 41.464 0 55.466 5.257 36.266 18.79 68.894 40.768 98.296 8.04 10.755 28.658 31.373 39.413 39.413 29.402 21.978 62.03 35.511 98.296 40.768 7.099 1.029 15.606 1.485 27.733 1.485s20.634-.456 27.733-1.485c36.266-5.257 68.894-18.79 98.296-40.768 10.755-8.04 31.373-28.658 39.413-39.413 20.459-27.37 33.566-57.361 39.414-90.189 10.068-56.519-4.22-115.167-39.415-161.788-32.853-43.518-83.69-72.968-138.134-80.021-12.74-1.65-28.565-2.176-41.387-1.375m65.725 150.066 50.94 50.669-10.96 10.985c-6.028 6.041-11.24 10.984-11.581 10.984-.341 0-14.841-14.062-32.221-31.248l-31.6-31.249-.218 74.555-.218 74.555h-31.574l-.218-74.549-.218-74.55-31.617 31.243c-17.39 17.184-31.889 31.243-32.221 31.243-.332 0-5.538-4.945-11.568-10.989l-10.965-10.989 51.084-50.845c28.096-27.966 51.338-50.765 51.649-50.665.311.1 23.488 22.982 51.506 50.85" fill-rule="evenodd"/></svg>