<svg xmlns="http://www.w3.org/2000/svg" width="512" height="512"><path d="M232.021 74.409c-1.69 1.08-43.264 40.351-92.388 87.269-86.494 82.609-89.36 85.447-90.737 89.813-1.326 4.207-1.326 4.811 0 9.018 1.377 4.366 4.24 7.2 90.747 89.813 49.13 46.918 90.423 86.019 91.763 86.891 5.972 3.888 15.027 3.074 19.666-1.768 4.94-5.159 4.928-5.032 4.928-49.844v-41.12l12.16.531c6.688.292 18.304 1.322 25.813 2.289 57.389 7.392 93.571 27.823 131.135 74.047 4.847 5.964 10.209 12.232 11.916 13.929 6.201 6.164 15.854 6.139 22.051-.058 4.833-4.834 5.477-8.437 4.772-26.707-1.545-40.027-6.979-73.521-16.691-102.887-24.395-73.759-75.516-118.468-151.815-132.773-8.988-1.686-27.39-3.874-32.658-3.884-7.314-.014-6.681 4.007-6.702-42.553-.021-46.689.061-46.039-6.407-50.973-2.631-2.007-4.2-2.489-8.84-2.718-4.725-.234-6.139.04-8.713 1.685" fill-rule="evenodd"/></svg>