<svg xmlns="http://www.w3.org/2000/svg" width="512" height="512"><path d="M242.773 49.148c-44.419 3.367-83.24 18.331-116.788 45.016-38.278 30.448-64.53 73.237-74.262 121.04-2.989 14.683-3.936 24.756-3.936 41.861 0 23.807 2.99 42.69 10.268 64.85 23.913 72.807 86.344 126.59 162.288 139.807 58.398 10.164 119.069-5.694 165.79-43.332 11.195-9.019 27.376-25.75 35.734-36.95 52.605-70.485 55.406-166.655 6.973-239.383-33.349-50.076-84.631-82.405-144.68-91.207-8.948-1.312-33.318-2.314-41.387-1.702m43.754 82.689c43.529 6.188 75.39 31.286 88.049 69.36 3.884 11.68 5.294 20.057 5.776 34.323 1.44 42.598-14.91 73.291-44.289 83.138-15.056 5.046-30.327 1.474-41.929-9.808l-5.192-5.049-4.738 3.717c-5.89 4.621-13.125 8.308-21.407 10.908-8.486 2.665-25.145 2.872-32.397.402-14.916-5.079-25.25-13.885-31.895-27.178-5.719-11.439-6.92-16.762-6.89-30.53.029-13.097 1.221-18.866 5.978-28.938 9.181-19.437 27.016-33.82 47.26-38.112 7.275-1.542 22.944-1.543 31-.002 13.765 2.634 27.774 10.117 35.191 18.799l3.89 4.553-3.486 27.104c-3.84 29.855-3.821 34.308.178 41.531 5.376 9.708 17.497 8.841 27.503-1.967 7.674-8.288 11.959-19.931 13.239-35.967 2.938-36.829-12.36-66.266-41.791-80.409-13.035-6.264-26.671-8.992-44.955-8.992-18.663 0-30.672 2.81-47.152 11.034-25.388 12.668-45.804 36.149-55.107 63.38-3.926 11.49-5.044 19.014-4.984 33.533.049 11.981.335 14.698 2.333 22.186 4.173 15.643 11.604 28.659 22.69 39.745 18.166 18.166 42.154 26.796 69.958 25.167 12.861-.754 22.119-2.435 33.291-6.047 11.209-3.624 16.309-3.844 20.656-.89 8.123 5.52 7.647 18.619-.848 23.329-8.741 4.847-30.188 9.875-48.25 11.311-31.197 2.482-59.31-5.075-82.138-22.077-36.694-27.332-53.288-74.156-42.994-121.323 11.831-54.205 57.723-97.646 112.256-106.261 9.413-1.487 30.631-1.471 41.194.03m-33.514 89.245c-10.383 1.538-22.524 9.793-28.312 19.251-6.057 9.896-7.206 26.433-2.541 36.574 2.7 5.867 7.147 10.842 12.08 13.512 2.852 1.544 4.816 1.848 11.947 1.848 7.484 0 9.136-.283 13.442-2.301 6.892-3.23 13.677-9.935 17.22-17.018 3.459-6.913 4.148-9.994 6.727-30.075l1.959-15.26-2.607-1.612c-6.58-4.068-20.357-6.334-29.915-4.919" fill-rule="evenodd"/></svg>