<svg xmlns="http://www.w3.org/2000/svg" width="512" height="512"><path d="M243.627 49.148c-38.576 2.924-72.707 14.529-103.095 35.053-12.766 8.622-20.772 15.249-31.732 26.266-30.922 31.084-50.753 70.371-58.17 115.24-2.207 13.346-2.214 47.944-.014 61.836 7.044 44.467 27.256 84.453 58.543 115.816 17.029 17.071 33.29 28.74 55.108 39.545 58.597 29.021 124.911 29.192 183.466.474 65.215-31.985 108.245-94.015 115.713-166.806 1.255-12.231.535-39.142-1.372-51.292-12.166-77.513-66.494-141.568-140.794-166-19.802-6.512-37.654-9.552-59.307-10.1-7.744-.195-16-.21-18.346-.032m51.692 83.898c28.057 6.026 49.824 18.995 64.401 38.372 14.587 19.391 21.726 41.825 21.715 68.24-.015 33.606-10.936 59.038-31.162 72.566-19.042 12.736-40.789 11.281-55.505-3.713l-5.18-5.278-3.737 3.317c-5.015 4.45-13.22 8.94-21.175 11.586-5.612 1.866-8.122 2.184-17.636 2.233-8.716.045-12.099-.285-15.787-1.541-20.887-7.113-34.064-23.03-38.075-45.991-2.516-14.407-.456-28.705 6.053-42.01 6.968-14.245 16.833-23.966 31.596-31.135 10.603-5.149 18.059-6.839 30.173-6.839 15.827 0 29.275 3.68 40.738 11.149 5.193 3.383 13.995 12.106 13.995 13.869 0 .431-1.37 11.587-3.044 24.79-4.286 33.801-4.063 39.203 1.894 45.797 6.699 7.414 16.01 5.709 25.765-4.719 15.891-16.988 18.146-56.755 4.728-83.398-11.374-22.587-32.496-36.539-61.803-40.824-11.421-1.67-32.684-.624-43.06 2.119-10.845 2.867-26.884 10.66-36.301 17.638-45.296 33.568-58.556 94.731-29.791 137.414 4.701 6.977 15.067 17.343 22.044 22.045 16.551 11.154 36.449 16.26 58.555 15.026 13.455-.75 23.803-2.913 39.322-8.217 7.002-2.394 13.259-4.416 13.904-4.494 1.7-.205 10.717 25.128 9.266 26.031-2.705 1.684-30.169 10.2-37.992 11.78-36.288 7.33-70.743 1.604-97.766-16.249-9.017-5.956-22.126-18.702-28.66-27.866-9.979-13.992-17.252-31.408-20.03-47.961-1.793-10.68-1.781-31.382.025-41.939 9.824-57.44 55.931-103.57 112.971-113.028 10.785-1.788 38.735-1.094 49.559 1.23m-41.384 88.021c-7.336 1.125-15.122 5.1-21.033 10.738-9.428 8.992-13.197 18.417-12.541 31.358.649 12.806 5.251 21.532 14.085 26.71 3.149 1.845 5.237 2.351 10.809 2.617 14.109.675 25.568-6.414 32.411-20.049 3.138-6.251 4.475-11.98 6.497-27.835.966-7.579 1.932-14.593 2.145-15.588.325-1.511-.418-2.167-4.506-3.983-8.985-3.991-18.697-5.374-27.867-3.968" fill-rule="evenodd"/></svg>