<svg xmlns="http://www.w3.org/2000/svg" width="512" height="512"><path d="M243.2 48.747c-35.666 1.764-72.116 13.966-102.367 34.268-25.071 16.826-47.704 40.519-62.943 65.892-30.327 50.495-37.915 110.807-20.988 166.826 20.671 68.408 74.128 120.917 143.205 140.665 40.425 11.557 87.112 9.835 126.72-4.674 18.864-6.91 42.734-20.212 58.398-32.543 7.77-6.117 27.839-26.186 33.956-33.956 12.331-15.664 25.633-39.534 32.543-58.398 14.509-39.608 16.231-86.295 4.674-126.72-17.018-59.528-58.764-108.153-114.486-133.348-31.146-14.084-62.495-19.804-98.712-18.012m34.114 32.807c87.774 10.212 154.411 85.392 154.466 174.266.017 28.155-5.748 53.061-18.028 77.885-26.098 52.756-75.746 88.659-133.797 96.756-12.583 1.755-35.753 1.732-48.12-.047-87.344-12.567-151.814-86.923-151.594-174.841.116-46.617 18.487-90.742 51.538-123.794 38.449-38.448 90.971-56.574 145.535-50.225m-30.701 50.257c-31.613 5.637-57.906 20.049-79.224 43.424-17.199 18.859-28.046 39.858-33.567 64.978-2.556 11.634-2.789 38.036-.433 49.067 10.405 48.706 45.116 82.293 94.024 90.98 9.235 1.64 31.679 1.848 42.24.391 13.997-1.93 36.818-8.631 40.411-11.865 9.151-8.237 3.532-24.039-8.546-24.039-2.048 0-8.065 1.315-13.37 2.924-18.306 5.548-35.004 7.402-50.792 5.638-22.295-2.491-39.205-10.749-54.134-26.436-10.498-11.032-16.891-22.54-21.123-38.02-2.583-9.447-3.238-28.518-1.354-39.369 3.948-22.726 14.17-42.261 30.766-58.795 17.062-16.998 34.752-26.482 57.343-30.742 9.121-1.72 33.971-1.255 42.991.805 32.082 7.326 53.379 28.013 60.28 58.555 2.216 9.808 2.006 32.185-.394 41.997-4.247 17.368-13.468 28.714-25.55 31.439-8.845 1.995-16.493-7.362-16.384-20.045.021-2.378 1.492-15.797 3.269-29.819l3.231-25.494-4.618-4.988c-11.69-12.627-29.472-19.544-50.243-19.544-20.61 0-36.564 6.915-50.82 22.027-10.386 11.01-15.992 23.24-17.842 38.922-2.904 24.622 8.364 49.153 27.6 60.086 14.003 7.959 32.779 9.004 49.404 2.749 5.249-1.976 14.303-7.482 17.977-10.934l2.316-2.176 4.941 5.129c22.704 23.566 61.918 11.61 78.314-23.878 10.821-23.42 11.525-58.907 1.71-86.123-12.5-34.659-42.332-58.657-82.122-66.061-10.048-1.87-37.593-2.335-46.301-.783m26.88 90.233c4.014.865 13.227 4.466 13.227 5.171 0 3.882-4.744 35.023-5.945 39.025-5.029 16.76-19.29 27.291-35.612 26.298-6.953-.424-11.263-2.346-15.771-7.036-7.078-7.364-10.085-18.051-8.428-29.96 1.262-9.076 4.922-16.397 11.454-22.91 10.761-10.729 24.259-14.209 41.075-10.588" fill-rule="evenodd"/></svg>