<svg xmlns="http://www.w3.org/2000/svg" width="512" height="512"><path d="M220.16 62.831c-13.898 1.991-19.766 3.756-30.533 9.186-18.75 9.455-34.494 28.016-40.973 48.303-4.129 12.93-4.014 9.456-4.014 121.173 0 96.322.127 106.057 1.476 113.18 4.207 22.214 14.661 42.525 29.958 58.206 43.233 44.317 112.771 45.438 157.212 2.534 19.408-18.738 30.921-42.603 33.62-69.69.548-5.5.881-45.382.881-105.6V143.36H335.36v99.302c0 108.978.072 107.273-5.121 120.716-3.742 9.685-9.307 18.598-16.265 26.048-10.25 10.976-21.428 17.875-36.388 22.458-6.768 2.074-8.849 2.305-21.159 2.355-11.759.047-14.579-.214-20.323-1.878-15.765-4.569-27.22-11.431-37.805-22.646-10.393-11.013-17.023-23.81-20.075-38.75-1.551-7.593-1.613-12.566-1.39-111.829l.233-103.883 2.238-5.752c5.34-13.725 13.671-23.224 25.614-29.202 9.567-4.79 15.012-5.895 26.318-5.345 11.112.541 17.552 2.658 26.407 8.682 7.245 4.927 13.407 11.992 17.159 19.671 5.368 10.986 5.14 5.514 4.891 117.407l-.227 101.899-2.33 3.964c-4.606 7.835-12.098 12.137-21.137 12.137-9.271 0-16.951-4.76-21.541-13.35l-1.926-3.604-.233-83.005-.234-83.006-15.98.232-15.979.232v82.347c0 90.351-.11 88.23 5.168 99.68 9.237 20.038 28.771 32.587 50.725 32.587 15.537 0 28.526-5.439 39.692-16.619 7.326-7.335 10.896-13.13 14.209-23.061l1.992-5.974V133.547l-1.867-6.993c-2.559-9.585-5.328-16.166-10.206-24.256-4.862-8.063-15.576-19.417-23.152-24.536-7.035-4.753-19.811-10.838-26.15-12.456-9.508-2.426-23.011-3.527-30.358-2.475" fill-rule="evenodd"/></svg>