<svg xmlns="http://www.w3.org/2000/svg" width="512" height="512"><path d="M88.307 175.559c-30.466 43.523-55.393 79.722-55.393 80.443 0 .72 25.063 37.111 55.694 80.867l55.695 79.558H448v-320H143.7l-55.393 79.132m215.903 26.685 32.414-32.423 11.319 11.295 11.318 11.295-32.429 32.437-32.429 32.437 32.43 32.431 32.431 32.431-11.32 11.296-11.32 11.296-32.414-32.423-32.415-32.423-32.644 32.636-32.644 32.636-11.303-11.302-11.302-11.303 32.635-32.644 32.636-32.644-32.423-32.415-32.423-32.415 11.295-11.318 11.295-11.318 32.439 32.43 32.439 32.431 32.415-32.423" fill-rule="evenodd"/></svg>