<svg xmlns="http://www.w3.org/2000/svg" viewBox="0 0 512 512"><path d="M235.947 33.781c-39.16 6.893-72.695 34.153-87.542 71.161-5.424 13.518-7.608 24.491-8.201 41.191l-.507 14.294H94.625c-43.809 0-45.097.046-45.962 1.663-.611 1.142-.821 49.392-.67 153.814l.22 152.149 1.784 3.414c1.11 2.124 3.341 4.38 5.907 5.973l4.122 2.56h391.948l4.122-2.56c2.566-1.593 4.797-3.849 5.907-5.973l1.784-3.414.22-152.149c.151-104.422-.059-152.672-.67-153.814-.865-1.617-2.153-1.663-45.962-1.663h-45.072l-.507-14.294c-.385-10.845-1.022-16.508-2.642-23.476-5.278-22.696-16.414-42.314-33.064-58.244-16.916-16.185-37.818-26.781-60.4-30.619-9.927-1.687-30.193-1.694-39.743-.013m38.075 40.452c22.119 5.75 39.558 19.735 49.488 39.687 5.971 11.998 7.597 18.739 8.183 33.92l.486 12.587H180.053l.03-9.174c.016-5.045.545-12.053 1.174-15.573 6.297-35.221 35.369-61.356 70.476-63.355 5.422-.308 17.858.756 22.289 1.908m68.165 187.411c0 .338-108.496 136.261-110.45 138.371-.787.851-7.468-6.492-31.249-34.343-16.636-19.483-30.248-35.757-30.248-36.164 0-.857 22.405-20.175 23.399-20.175.364 0 8.053 8.64 17.085 19.2 9.033 10.56 17.096 19.899 17.919 20.753 1.435 1.489 3.266-.661 45.206-53.09l43.71-54.643 12.314 9.874c6.772 5.431 12.314 10.028 12.314 10.217" fill-rule="evenodd"/></svg>