<svg xmlns="http://www.w3.org/2000/svg" viewBox="0 0 512 512"><path d="M235.947 33.781c-39.16 6.893-72.695 34.153-87.542 71.161-5.424 13.518-7.608 24.491-8.201 41.191l-.507 14.294H94.625c-43.809 0-45.097.046-45.962 1.663-.611 1.142-.821 49.392-.67 153.814l.22 152.149 1.784 3.414c1.11 2.124 3.341 4.38 5.907 5.973l4.122 2.56h391.948l4.122-2.56c2.566-1.593 4.797-3.849 5.907-5.973l1.784-3.414.22-152.149c.151-104.422-.059-152.672-.67-153.814-.865-1.617-2.153-1.663-45.962-1.663h-45.072l-.507-14.294c-.385-10.845-1.022-16.508-2.642-23.476-5.278-22.696-16.414-42.314-33.064-58.244-16.916-16.185-37.818-26.781-60.4-30.619-9.927-1.687-30.193-1.694-39.743-.013m38.075 40.452c22.119 5.75 39.558 19.735 49.488 39.687 5.971 11.998 7.597 18.739 8.183 33.92l.486 12.587H180.053l.03-9.174c.016-5.045.545-12.053 1.174-15.573 6.297-35.221 35.369-61.356 70.476-63.355 5.422-.308 17.858.756 22.289 1.908m-98.235 151.839c0 9.822.415 20.846.923 24.498 2.564 18.434 10.926 34.529 24.79 47.719 9.75 9.275 21.132 15.57 34.873 19.285 10.431 2.821 28.823 2.821 39.254 0 15.081-4.078 27.565-11.451 37.977-22.429 10.168-10.721 16.195-21.549 20.17-36.236 1.576-5.825 1.881-9.759 2.226-28.722l.399-21.974H367.962l-.414 24.107c-.439 25.541-.993 29.969-5.411 43.222-8.91 26.733-28.941 50.251-54.119 63.541-16.245 8.575-33.123 12.694-52.018 12.694-31.165 0-58.952-11.854-80.514-34.347-14.982-15.629-24.317-33.1-29.174-54.603-1.101-4.874-1.544-12.149-1.86-30.507l-.414-24.107H175.787v17.859" fill-rule="evenodd"/></svg>