<svg xmlns="http://www.w3.org/2000/svg" viewBox="0 0 512 512"><path d="M236.496 33.796c-39.346 6.596-73.918 36.395-86.683 74.716-3.949 11.852-4.964 18.355-5.506 35.275l-.52 16.213-36.267.427-36.267.426-5.073 2.491c-6.701 3.29-11.935 8.671-15.258 15.685l-2.709 5.718-.228 113.454c-.199 98.618-.058 114.443 1.075 121.01 4.997 28.959 26.029 51.35 55.571 59.164 5.545 1.467 13.699 1.571 144.969 1.854 96.371.208 141.91.014 148.263-.631 19.589-1.989 33.869-9.045 47.234-23.336 7.786-8.326 12.712-16.89 16.287-28.315l2.403-7.68v-235.52l-2.709-5.718c-3.323-7.014-8.557-12.395-15.258-15.685l-5.073-2.491-36.267-.426-36.267-.427-.52-16.213c-.542-16.92-1.557-23.423-5.506-35.275-12.89-38.696-47.502-68.291-87.442-74.768-9.914-1.608-28.499-1.583-38.249.052m38.975 32.725c29.158 7.18 52.554 31.594 58.756 61.312.868 4.158 1.406 11.263 1.465 19.367l.095 12.8H176.213l.078-12.8c.049-8.276.567-15.121 1.464-19.367 6.775-32.061 31.787-56.362 64.37-62.541 8.736-1.657 23.898-1.098 33.346 1.229m51.952 183.588c6.171 2.987 9.765 11.047 7.944 17.813-1.255 4.658-92.341 118.898-97.141 121.834-4.31 2.635-11.345 2.635-15.644 0-2.983-1.829-39.434-43.543-44.083-50.448-4.457-6.62-2.264-16.378 4.803-21.37 4.567-3.227 11.92-3.517 16.553-.653 1.634 1.009 9.042 8.968 16.463 17.686 11.027 12.955 13.691 15.647 14.58 14.733.598-.614 18.426-22.813 39.618-49.331 25.269-31.618 39.609-48.872 41.661-50.129 4.085-2.5 10.248-2.555 15.246-.135" fill-rule="evenodd"/></svg>