<svg xmlns="http://www.w3.org/2000/svg" viewBox="0 0 512 512"><path d="M235.947 32.121c-20.829 2.374-33.503 4.921-48.824 9.812-33.937 10.834-64.821 29.682-90.164 55.026-51.828 51.827-74.673 124.053-62.317 197.014 7.533 44.48 29.84 87.174 62.643 119.894 46.658 46.539 106.42 69.628 171.942 66.429 73.512-3.589 141.716-44.95 180.039-109.181 27.01-45.271 37.154-99.764 28.26-151.808-11.154-65.26-50.458-122.17-108.147-156.59-26.918-16.061-57.727-26.365-89.486-29.929-9.394-1.055-36.887-1.472-43.946-.667m48.213 50.183c36.824 6.226 69.838 23.221 96.077 49.459 26.314 26.315 43.064 58.926 49.567 96.504 2.077 11.998 2.077 43.468 0 55.466-3.261 18.846-9.862 38.522-18.177 54.187-4.229 7.967-14.57 23.893-15.514 23.893-.787 0-245.926-245.157-245.926-245.943 0-1.007 17.4-12.176 25.39-16.298 16.581-8.554 38.472-15.516 55.25-17.57 4.224-.517 8.64-1.104 9.813-1.304 4.883-.835 35.842.308 43.52 1.606m-45.014 190.548c67.467 67.466 122.667 122.961 122.667 123.321 0 1.142-18.017 12.596-26.453 16.817-11.913 5.962-22.782 10.028-35.553 13.301-75.527 19.357-154.49-13.084-194.64-79.966-11.46-19.09-18.997-39.627-22.971-62.592-2.077-11.998-2.077-43.468 0-55.466 3.234-18.687 9.258-36.954 17.376-52.69 4.122-7.99 15.291-25.39 16.298-25.39.334 0 55.808 55.199 123.276 122.665" fill-rule="evenodd"/></svg>