<svg xmlns="http://www.w3.org/2000/svg" viewBox="0 0 512 512"><path d="M231.253 33.392c-16.448 1.674-38.791 7.061-54.742 13.198C100.88 75.689 47.141 142.028 34.6 221.777c-11.014 70.041 12.562 141.942 63.122 192.501 81.03 81.03 209.46 87.944 298.802 16.086 10.512-8.456 25.384-23.328 33.84-33.84 71.897-89.391 64.911-218.026-16.232-298.91-11.782-11.744-20.38-18.731-35.208-28.612-29.295-19.52-64.673-32.21-99.392-35.651-10.737-1.065-37.645-1.042-48.279.041m52.907 48.916c38.218 6.478 72.49 24.514 98.722 51.953 25.1 26.256 40.826 57.863 46.944 94.357 2.121 12.648 2.121 42.116 0 54.764-3.312 19.754-9.254 37.571-18.131 54.36-4.668 8.831-13.559 22.819-15.114 23.78-.997.616-246.519-244.668-246.116-245.878.502-1.506 16.159-11.496 25.322-16.157 20.338-10.346 38.453-15.653 64-18.75 6.667-.809 36.585.251 44.373 1.571m-44.799 190.804L362.24 396.037l-2.56 2.126c-4.148 3.446-16.625 10.986-25.698 15.53-48.39 24.235-107.585 24.229-155.993-.014-16.903-8.466-30.035-17.706-43.625-30.698-27.767-26.546-45.67-60.712-52.19-99.599-2.121-12.648-2.121-42.116 0-54.764 4.626-27.59 14.815-52.599 30.303-74.378 1.586-2.229 3.136-4.053 3.444-4.053.309 0 55.857 55.316 123.44 122.925" fill-rule="evenodd"/></svg>