<svg xmlns="http://www.w3.org/2000/svg" width="512" height="512"><path d="M376.887 17.149c-16.12 2.356-31.752 8.665-45.794 18.483-3.106 2.172-22.734 20.996-44.617 42.79-32.281 32.149-39.029 39.267-38.827 40.959.413 3.458 2.396 3.98 9.034 2.378 10.295-2.485 18.025-1.47 29.184 3.831 7.245 3.443 7.303 3.496 52.175 48.368s44.925 44.93 48.368 52.175c5.301 11.159 6.316 18.889 3.831 29.184-1.602 6.638-1.081 8.619 2.378 9.037 1.694.204 8.84-6.58 41.344-39.253 27.541-27.684 40.592-41.416 43.626-45.901 12.088-17.874 18.189-37.651 18.195-58.982.014-51.451-36.576-94.499-87.318-102.728-8.396-1.362-23.477-1.525-31.579-.341M255.954 155.212c-6.088 3.956-97.779 96.375-99.332 100.121-1.671 4.031-1.673 8.388-.005 12.428 1.807 4.376 82.211 85.043 87.01 87.294 4.17 1.956 8.824 2.071 13.04.323 4.087-1.694 98.483-95.684 101.038-100.604 2.149-4.135 2.268-10.237.278-14.199-1.853-3.688-79.749-82.037-84.87-85.364-5.352-3.476-11.809-3.476-17.159.001m5.822 38.109c6.469 2.703 9.828 7.672 9.828 14.539 0 12.247-12.713 19.79-23.409 13.889-6.054-3.339-9.361-11.095-7.569-17.751 2.459-9.132 12.598-14.251 21.15-10.677M86.109 280.533c-28.235 28.301-43.843 44.587-46.818 48.854-8.737 12.531-15.391 28.565-18.06 43.52-1.618 9.063-1.391 27.79.442 36.495 8.332 39.567 35.965 69.737 73.9 80.684 24.338 7.023 51.923 4.514 74.482-6.775 13.81-6.911 16.735-9.472 59.736-52.3 34.42-34.283 41.588-41.819 41.386-43.512-.404-3.391-2.502-4.04-7.729-2.393-10.331 3.257-25.12.665-35.316-6.188-2.89-1.943-23.301-21.753-48.563-47.135-51.581-51.823-49.488-49.079-49.348-64.69.068-7.609.569-11.582 2.228-17.687 1.883-6.928 1.994-8.08.93-9.6-.665-.949-2.043-1.726-3.062-1.726-1.308 0-14.285 12.462-44.208 42.453m130.081-37.878c7.396 4.069 9.725 14.439 4.938 21.986-3.731 5.884-11.309 8.798-17.537 6.742-6.496-2.144-11.554-8.877-11.554-15.383 0-6.256 5.498-13.82 10.909-15.008 1.254-.276 2.665-.629 3.134-.784 1.719-.569 6.912.688 10.11 2.447m95.277-.702c4.719 2.4 8.551 8.805 8.514 14.233-.058 8.773-9.309 17.091-17.523 15.758-11.813-1.917-17.783-14.086-11.865-24.184 4.05-6.91 13.523-9.545 20.874-5.807m-47.426 48.523c8.749 5.127 10.262 18.137 2.908 25.003C264.333 317.922 259.3 320 256 320c-5.462 0-11.647-3.871-14.282-8.938-1.836-3.53-1.745-10.411.19-14.43 3.653-7.589 14.527-10.613 22.133-6.156" fill-rule="evenodd"/></svg>