<svg xmlns="http://www.w3.org/2000/svg" width="512" height="512"><path d="M24.579 17.955c-1.735.916-4.231 3.077-5.547 4.802l-2.392 3.137V472.32l2.294 4.895c2.931 6.253 9.598 12.92 15.851 15.851l4.895 2.294 222.101.22c216.797.214 222.178.181 225.28-1.403 5.6-2.858 8.726-7.934 8.726-14.169 0-6.346-3.211-11.414-9.131-14.412-2.497-1.264-21.442-1.383-220.8-1.383H47.787v-218.06c0-212.293-.043-218.145-1.616-221.227-.889-1.741-2.329-3.792-3.2-4.556-4.973-4.365-12.763-5.388-18.392-2.415m367.528 80.068c-10.978 3.799-19.797 13.029-22.975 24.044-1.231 4.267-1.344 18.423-1.142 143.786l.223 139.054 2.668 5.546c4.868 10.125 12.852 17.16 22.734 20.033 4.068 1.182 8.834 1.351 31.93 1.132l27.148-.258 5.781-2.738c6.621-3.137 13.934-9.93 16.869-15.673 4.376-8.558 4.209-2.681 4.22-149.138.009-124.385-.117-137.267-1.391-141.649-2.426-8.345-8.039-15.714-15.737-20.659-7.421-4.767-9.734-5.063-39.182-5.007-23.183.043-27.466.253-31.146 1.527m54.016 31.001c.787.788 1.024 31.984 1.024 135.223 0 131.806-.03 134.215-1.651 135.083-1.007.539-9.662.883-22.187.883-19.398 0-20.63-.094-22.242-1.706-1.692-1.692-1.707-2.845-1.707-134.21 0-118.545.14-132.704 1.328-134.4 1.313-1.875 1.577-1.897 22.87-1.897 15.616 0 21.822.282 22.565 1.024M249.6 161.607c-13.563 4.366-23.42 16.161-25.229 30.186-1.052 8.156-.976 201.375.082 208.847 1.214 8.574 4.835 15.404 11.446 21.589 9.456 8.845 10.536 9.085 42.288 9.387 19.063.182 27.996-.043 30.72-.775 11.587-3.112 21.375-12.225 25.434-23.679 1.267-3.578 1.43-14.021 1.673-107.642.186-71.636-.016-105.394-.655-109.227-1.942-11.654-9.475-21.6-20.21-26.685l-5.816-2.755-28.16-.173c-21.038-.129-29.023.105-31.573.927m53.163 31.417c.785.785 1.024 24.771 1.024 102.766 0 91.354-.137 101.878-1.341 103.082-1.147 1.147-4.387 1.341-22.333 1.341-18.336 0-21.189-.178-22.552-1.412-1.496-1.353-1.561-5.66-1.561-102.766 0-91.001.137-101.49 1.341-102.694 1.148-1.148 4.436-1.341 22.869-1.341 15.607 0 21.81.282 22.553 1.024m-195.46 16.116c-8.174 1.926-16.731 8.168-21.598 15.754-5.727 8.926-5.492 4.859-5.492 95.106 0 90.309-.237 86.23 5.525 95.106 4.979 7.672 11.963 12.955 20.346 15.392 4.016 1.167 8.887 1.339 31.888 1.12l27.148-.258 5.816-2.754c6.434-3.048 13.967-10.044 16.806-15.609C192.044 404.564 192 405.519 192 320c0-85.575.047-84.558-4.279-93.037-2.268-4.446-10.147-12.264-14.71-14.597-7.374-3.77-10.747-4.137-37.331-4.057-13.845.042-26.615.416-28.377.831m50.62 31.53c1.613.864 1.65 2.645 1.65 79.33s-.037 78.466-1.65 79.33c-1.009.54-9.78.883-22.565.883-20.645 0-20.932-.024-22.243-1.896-1.178-1.683-1.328-10.55-1.328-78.507 0-75.472.025-76.635 1.706-78.317 1.612-1.612 2.845-1.706 22.243-1.706 12.524 0 21.18.344 22.187.883" fill-rule="evenodd"/></svg>