<svg xmlns="http://www.w3.org/2000/svg" width="512" height="512"><path d="M105.119 112.712c-11.203 1.935-21.854 10.179-27.25 21.09l-3.202 6.475-.222 22.662c-.229 23.33-.464 26.501-1.969 26.501-.482 0-2.734-1.856-5.003-4.125-14.971-14.972-39.636-10.804-48.545 8.204L16.64 198.4l-.269 55.04c-.189 38.784.017 56.361.7 59.512 3.057 14.121 18.84 25.064 32.71 22.678 7.259-1.249 12.808-4.066 17.603-8.937 4.342-4.411 5.516-4.927 6.338-2.783.285.742.518 10.884.518 22.537 0 18.398.213 21.872 1.617 26.382 5.591 17.965 23.743 29.656 41.482 26.717 14.26-2.363 24.911-11.043 30.482-24.843 1.901-4.709 1.938-5.492 2.362-50.436l.43-45.654h210.774l.427 45.227c.39 41.155.57 45.611 1.998 49.493 5.155 14.006 16.229 23.589 30.279 26.202 15.785 2.935 33.116-6.529 40.499-22.116l2.743-5.792.222-22.614c.229-23.332.463-26.453 1.983-26.453.491 0 2.692 1.842 4.891 4.094 7.08 7.25 17.447 10.76 26.298 8.903 10.32-2.164 18.169-8.167 22.354-17.096l2.279-4.861V198.4l-2.203-4.695c-9.042-19.274-34.19-23.42-48.905-8.063-3.899 4.069-5.155 4.584-5.974 2.448-.285-.742-.518-10.884-.518-22.537 0-23.613-.653-27.556-5.93-35.779-18.056-28.138-60.246-21.007-68.744 11.618-1.048 4.024-1.273 12.611-1.273 48.654v43.767H150.187v-43.051c0-44.396-.238-48.099-3.586-55.911-3.888-9.071-13.48-17.883-22.643-20.801-5.453-1.736-13.306-2.294-18.839-1.338" fill-rule="evenodd"/></svg>