<svg xmlns="http://www.w3.org/2000/svg" width="512" height="512"><path d="M106.971 112.676c-8.825 1.224-17.21 6.791-22.255 14.775-4.458 7.057-4.483 7.404-4.493 61.776l-.01 50.56H64.1l-.263-23.254c-.252-22.238-.348-23.41-2.189-26.857-1.06-1.982-3.329-5.007-5.044-6.722-9.417-9.417-26.037-8.691-34.776 1.517-5.778 6.751-5.615 4.67-5.615 71.529s-.163 64.778 5.615 71.529c1.63 1.903 5.161 4.54 7.847 5.859 11.828 5.808 25.482 1.083 31.973-11.064 1.841-3.447 1.937-4.619 2.189-26.857l.263-23.254h16.113l.01 50.56c.01 54.372.035 54.719 4.493 61.776 8.927 14.129 26.579 19.266 41.522 12.085 4.848-2.33 12.039-9.556 14.435-14.505 3.278-6.771 3.54-11.327 3.54-61.392v-48.524h223.574v48.524c0 29.255.344 50.337.866 53.09 1.249 6.586 3.989 11.7 8.905 16.615 14.697 14.697 38.499 11.876 49.726-5.893 4.458-7.057 4.483-7.404 4.493-61.776l.01-50.56H447.9l.263 23.254c.252 22.238.348 23.41 2.189 26.857 6.491 12.147 20.145 16.872 31.973 11.064 2.686-1.319 6.217-3.956 7.847-5.859 5.778-6.751 5.615-4.67 5.615-71.529s.163-64.778-5.615-71.529c-8.739-10.208-25.359-10.934-34.776-1.517-1.715 1.715-3.984 4.74-5.044 6.722-1.841 3.447-1.937 4.619-2.189 26.857l-.263 23.254h-16.113l-.01-50.56c-.01-54.372-.035-54.719-4.493-61.776-11.161-17.664-35.281-20.347-50.045-5.567-4.61 4.615-7.363 9.836-8.586 16.289-.522 2.753-.866 23.835-.866 53.09v48.524H144.213v-48.524c0-29.255-.344-50.337-.866-53.09-1.232-6.497-3.982-11.68-8.705-16.408-7.219-7.227-17.28-10.531-27.671-9.089" fill-rule="evenodd"/></svg>