<svg xmlns="http://www.w3.org/2000/svg" width="512" height="512"><path d="M80.64 97.612c-10.795 2.632-22.966 12.631-28.007 23.011-5.073 10.445-4.909 5.558-4.632 138.617.279 133.791-.138 123.352 5.363 134.206 3.115 6.148 11.303 14.509 17.38 17.748 8.856 4.72 13.971 5.388 38.879 5.081L131.84 416l3.979-2.339c11.47-6.743 10.689-22.573-1.384-28.057-3.054-1.387-5.947-1.569-25.307-1.585-21.116-.018-21.938-.082-24.21-1.869-4.953-3.896-4.705 2.769-4.701-126.336.003-116.302.038-118.913 1.665-121.581 3.445-5.649 3.973-5.762 29.149-6.233l22.787-.427 3.278-2.609c1.802-1.435 4.168-4.315 5.256-6.4 3.688-7.064.986-15.811-6.181-20.012l-3.628-2.125-23.818.072c-15.586.048-25.293.432-28.085 1.113m296.738.225c-3.823 1.884-7.601 6.404-8.857 10.596-1.956 6.528 1.424 14.175 7.865 17.795 3.183 1.789 4.248 1.868 24.458 1.825 20.387-.044 21.246.022 24.454 1.871 1.828 1.054 4.036 3.254 4.907 4.889 1.518 2.854 1.582 7.709 1.582 121.045 0 130.694.39 121.654-5.439 125.812-2.544 1.815-3.677 1.925-24.428 2.374-20.311.44-22.001.598-25.386 2.364-9.743 5.086-11.388 18.449-3.159 25.674 4.859 4.266 7.359 4.592 31.637 4.129 17.607-.337 23.032-.719 26.775-1.89 13.97-4.368 25.192-15.304 30.005-29.24l1.995-5.774V132.693l-1.995-5.774c-4.998-14.473-17.735-26.347-31.712-29.566-2.142-.494-14.025-.885-26.88-.886-19.442-.001-23.474.213-25.822 1.37M185.6 145.428c-3.623 1.624-6.341 4.45-8.185 8.509-1.523 3.353-1.591 7.717-1.591 102.063 0 94.136.071 98.713 1.58 101.973 6.114 13.204 23.078 13.204 29.192 0 1.509-3.26 1.58-7.837 1.58-101.973s-.071-98.713-1.58-101.973c-1.84-3.973-5.476-7.616-8.892-8.906-3.261-1.232-8.994-1.087-12.104.307m128 0c-3.623 1.624-6.341 4.45-8.185 8.509-1.523 3.353-1.591 7.717-1.591 102.063 0 94.136.071 98.713 1.58 101.973 6.114 13.204 23.078 13.204 29.192 0 1.509-3.26 1.58-7.837 1.58-101.973s-.071-98.713-1.58-101.973c-1.84-3.973-5.476-7.616-8.892-8.906-3.261-1.232-8.994-1.087-12.104.307m-65.857 17.151c-1.96 1.175-4.456 3.571-5.547 5.325l-1.983 3.189v169.814l1.995 3.207c6.232 10.024 21.352 10.024 27.584 0l1.995-3.207V171.093l-1.995-3.207c-4.505-7.247-14.714-9.704-22.049-5.307M124.16 176.561c-5.68 1.411-9.961 5.507-11.482 10.985-1.21 4.357-1.21 132.551 0 136.908 2.312 8.324 11.09 13.195 19.635 10.893 4.693-1.263 9.688-6.133 10.949-10.673 1.266-4.562 1.323-132.582.06-137.128-1.032-3.716-4.353-7.93-7.53-9.556-3.007-1.538-8.486-2.211-11.632-1.429m256 0c-5.68 1.411-9.961 5.507-11.482 10.985-1.21 4.357-1.21 132.551 0 136.908 2.312 8.324 11.09 13.195 19.635 10.893 4.693-1.263 9.688-6.133 10.949-10.673 1.266-4.562 1.323-132.582.06-137.128-1.032-3.716-4.353-7.93-7.53-9.556-3.007-1.538-8.486-2.211-11.632-1.429" fill-rule="evenodd"/></svg>