<svg xmlns="http://www.w3.org/2000/svg" width="512" height="512"><path d="M199.426 55.924c-57.25 16.704-103.445 55.368-129.444 108.343-7.7 15.688-12.726 30.396-17.426 50.986l-.535 2.347h16.246v24.747l2.346.09c8.801.339 20.714 1.561 28.235 2.897 6.475 1.149 8.981 1.307 9.421.594.33-.534 1.891-5.494 3.468-11.023 1.576-5.528 2.976-10.187 3.111-10.353.302-.373 25.294 6.787 26.127 7.485.33.277-.877 5.494-2.682 11.594-1.806 6.099-3.228 11.15-3.161 11.225.067.074 4.729 2.106 10.361 4.516 5.632 2.409 13.597 6.284 17.7 8.611 4.103 2.327 7.595 4.23 7.76 4.23.165 0 3.516-4.574 7.448-10.166l7.149-10.166 6.852 4.79c13.69 9.571 15.87 11.344 15.23 12.386-.345.563-3.427 4.96-6.85 9.771-3.422 4.812-6.222 9.046-6.222 9.41 0 .364 3.313 3.658 7.363 7.319 4.049 3.662 10.054 9.603 13.344 13.204 3.29 3.6 6.647 7.253 7.459 8.117 1.424 1.514 1.853 1.303 11.909-5.85 5.738-4.082 10.734-7.093 11.102-6.691 1.185 1.293 15.383 21.53 15.383 21.926 0 .211-4.512 3.553-10.027 7.427-5.514 3.874-10.179 7.171-10.364 7.326-.186.155 2.539 5.954 6.057 12.887 3.517 6.932 7.315 15.004 8.44 17.937 1.125 2.933 2.373 5.333 2.773 5.333.4 0 5.917-1.532 12.26-3.404 6.342-1.873 11.815-3.23 12.16-3.017.742.459 8.122 25.957 7.627 26.35-.187.148-5.523 1.717-11.859 3.486-6.336 1.769-11.787 3.465-12.114 3.768-.326.303.142 4.967 1.04 10.364.897 5.397 1.932 13.845 2.3 18.773l.667 8.96 14.835.234 14.835.234-.423 8.086c-.51 9.756-1.307 9.461 13.831 5.104 68.807-19.805 123.201-73.637 142.569-141.097a6486.12 6486.12 0 0 1 3.046-10.587c.391-1.34-.316-1.494-6.875-1.494h-7.311v-32.914l-11.475-.999c-6.312-.549-15.145-1.654-19.63-2.455-4.485-.801-8.347-1.265-8.581-1.03-.235.235-2.017 5.961-3.961 12.726-1.943 6.764-3.766 12.545-4.05 12.845-.489.517-25.301-6.273-26.197-7.169-.233-.233 1.277-6.326 3.356-13.54l3.781-13.117-2.249-1.023c-1.236-.563-5.894-2.6-10.351-4.526-4.457-1.926-11.369-5.305-15.36-7.51-3.991-2.204-7.467-4.11-7.724-4.235-.258-.125-4.098 4.939-8.534 11.252l-8.065 11.479-2.188-1.439c-9.799-6.441-20.352-14.401-20.08-15.145.182-.499 3.635-5.559 7.673-11.244 4.038-5.686 7.341-10.703 7.341-11.15 0-.446-2.016-2.546-4.48-4.665-4.551-3.915-18.057-17.5-22.514-22.644l-2.446-2.824-11.001 7.78c-6.05 4.279-11.266 7.47-11.59 7.09-.821-.961-14.131-20.092-14.826-21.311-.353-.618 3.233-3.663 9.465-8.036 5.518-3.873 10.388-7.353 10.824-7.733.464-.405-1.869-5.907-5.638-13.297-3.536-6.933-7.317-14.91-8.402-17.726-1.085-2.816-2.075-5.255-2.201-5.421-.126-.166-5.836 1.324-12.688 3.31-6.853 1.987-12.694 3.378-12.981 3.091-.736-.737-7.947-25.585-7.542-25.99.184-.184 5.831-1.96 12.55-3.948 10.355-3.063 12.201-3.863 12.114-5.248-.056-.898-.918-7.01-1.915-13.58-.997-6.571-1.815-14.539-1.817-17.707l-.005-5.76-8.747-.007c-12.057-.011-17.449-.742-18.06-2.45-.272-.761-1.456-2.688-2.631-4.283-1.407-1.91-2.135-4.02-2.135-6.186 0-2.082-.391-3.273-1.067-3.247-.587.022-5.597 1.362-11.134 2.977m102.654.079c0 1.62-.768 4.45-1.707 6.29-.938 1.84-1.706 4.321-1.706 5.513v2.167H270.63l.418 4.907c.721 8.453 2.955 23.653 3.568 24.279.323.33 5.888-.961 12.366-2.868 6.479-1.907 11.927-3.32 12.108-3.139.786.787 7.881 26.35 7.383 26.603-.304.155-5.83 1.781-12.279 3.614-10.63 3.02-11.682 3.492-11.249 5.048.263.944 3.151 7.204 6.418 13.912 4.095 8.409 6.263 12.002 6.981 11.574.574-.341 5.305-3.621 10.515-7.288 5.209-3.668 9.697-6.668 9.972-6.668.491 0 15.969 21.694 15.969 22.382 0 .193-4.608 3.561-10.24 7.484-5.632 3.924-10.24 7.429-10.24 7.79 0 .963 14.044 15.557 18.811 19.549l4.095 3.428 7.802-11.077 7.802-11.076 9.118 6.472c5.015 3.56 10.152 7.2 11.414 8.088l2.296 1.616-7.629 10.79c-4.196 5.934-7.629 11.017-7.629 11.296 0 .72 13.836 7.892 20.723 10.743 3.4 1.407 6.075 2.074 6.479 1.615.379-.429 2.19-6.058 4.024-12.509 1.909-6.715 3.773-11.731 4.361-11.733 1.035-.005 25.18 6.845 25.712 7.295.158.132-1.345 5.841-3.34 12.686-1.994 6.845-3.41 12.66-3.147 12.923.839.84 14.065 2.879 22.531 3.475l8.187.575-.323-12.506-.324-12.506h8.332c9.832 0 9.423.775 6.233-11.81-12.426-49.019-41.706-91.028-84.088-120.64-17.743-12.398-46.541-25.421-66.347-30.005l-5.333-1.234v2.945M69.12 281.381v11.055l-8.234.541c-4.529.297-8.395.701-8.591.897-.196.195.681 4.693 1.949 9.995 17.69 73.982 72.682 131.419 145.827 152.31 14.986 4.28 14.116 4.626 14.116-5.619v-8.533h27.788l-.604-7.57c-.774-9.677-2.479-21.372-3.177-21.787-.298-.177-5.681 1.183-11.965 3.023-6.283 1.839-11.644 3.123-11.914 2.853-1.025-1.025-7.746-25.561-7.152-26.109.343-.317 5.616-2.011 11.717-3.764 6.101-1.754 11.189-3.266 11.305-3.361.661-.535-7.846-19.021-11.574-25.151l-1.545-2.541-10.087 7.201-10.088 7.201-7.971-11.193c-4.384-6.156-7.786-11.493-7.56-11.859.226-.366 4.633-3.629 9.792-7.252 5.16-3.623 9.381-6.863 9.381-7.2 0-.991-13.035-14.636-18.178-19.03l-4.725-4.037-6.935 9.84-6.934 9.84-4.867-3.507a959.906 959.906 0 0 0-11.054-7.806c-3.403-2.364-6.187-4.669-6.187-5.123 0-.454 2.88-4.824 6.4-9.711 3.52-4.887 6.4-9.201 6.4-9.586 0-1.063-25.44-13.19-26.665-12.711-.587.23-2.363 5.071-3.947 10.759-1.583 5.687-3.014 10.341-3.18 10.341-.655 0-26.108-7.566-26.334-7.828-.133-.153 1.109-4.992 2.759-10.752 1.65-5.759 2.794-10.678 2.543-10.929-.72-.72-13.937-2.674-22.616-3.344l-7.893-.609v11.056" fill-rule="evenodd"/></svg>