<svg xmlns="http://www.w3.org/2000/svg" width="512" height="512"><path d="M229.12 49.948c-31.181 4.077-61.547 15.306-87.275 32.273-9.116 6.012-20.672 14.816-20.672 15.75 0 .326 30.336 30.927 67.413 68.002l67.413 67.409 17.186-17.185 17.185-17.186-5.563-7.132c-18.703-23.979-32.099-51.791-38.988-80.946-3.282-13.888-4.457-24.212-4.929-43.306-.416-16.799-.629-18.976-1.853-18.891-.761.053-5.224.598-9.917 1.212m43.447 3.674c-.81 6.479.195 26.851 1.816 36.819 4.199 25.825 13.558 49.714 27.613 70.483 3.785 5.593 7.845 11.321 9.022 12.729l2.14 2.56 38.834-38.823c21.359-21.353 38.835-39.044 38.835-39.313 0-.825-10.817-9.215-18.636-14.456-28.713-19.246-60.487-30.706-95.447-34.425l-3.577-.38-.6 4.806M91.881 128.213c-17.98 23.051-32.187 53.001-38.507 81.177-2.1 9.367-4.685 25.368-4.718 29.213-.016 1.767.359 1.812 18.971 2.277 24.604.614 41.271 3.345 61.154 10.017 22.897 7.684 43.585 18.813 63.098 33.943l7.132 5.53 17.186-17.185 17.185-17.186-67.409-67.413c-37.075-37.077-67.677-67.413-68.005-67.413-.327 0-3.067 3.168-6.087 7.04m282.729 31.795-38.823 38.834 2.56 2.14c6.563 5.487 23.888 16.382 33.209 20.885 16.231 7.84 31.668 12.701 50.454 15.888 8.276 1.404 39.69 2.26 40.844 1.113.272-.271.097-3.727-.39-7.68-4.556-36.975-19.824-74.103-42.345-102.975-3.02-3.872-5.76-7.04-6.089-7.04-.328 0-18.067 17.476-39.42 38.835m-78.933 78.928-17.054 17.07 67.407 67.41c37.073 37.076 67.674 67.411 68.002 67.411.327 0 3.067-3.168 6.087-7.04 17.98-23.051 32.187-53.001 38.507-81.177 2.129-9.497 4.686-25.389 4.718-29.33l.016-1.92h-15.316c-46.637 0-88.345-14.118-125.802-42.584-5-3.8-9.186-6.909-9.301-6.909-.116 0-7.884 7.681-17.264 17.069M52.265 272.838l-3.628.327.525 4.857c3.379 31.261 15.165 64.662 31.977 90.618 5.668 8.751 15.86 22.187 16.831 22.187.328 0 18.067-17.476 39.42-38.835l38.823-38.834-2.56-2.149c-6.168-5.178-23.767-16.219-33.224-20.844-26.69-13.055-60.915-19.781-88.164-17.327m186.331 23.179-16.961 16.978 5.56 7.129c18.701 23.976 32.097 51.79 38.986 80.943 3.231 13.673 4.432 24.239 4.924 43.306.43 16.698.655 18.986 1.865 18.982.757-.002 6.68-.783 13.161-1.734 34.905-5.125 67.342-18.663 95.458-39.843 4.579-3.449 8.58-6.685 8.893-7.191.485-.784-133.225-135.547-134.488-135.547-.24 0-8.069 7.64-17.398 16.977m-78.924 78.924c-21.861 21.865-38.474 39.129-38.153 39.647 1.023 1.656 17.04 13.351 25.288 18.466 18.759 11.631 45.105 22.075 66.566 26.388 12.203 2.453 24.774 4.136 25.495 3.413.948-.951.405-29.867-.712-37.895-3.377-24.267-13.204-51.199-25.685-70.4-5.056-7.778-12.892-18.347-13.602-18.347-.262 0-17.901 17.428-39.197 38.728" fill-rule="evenodd"/></svg>