<svg xmlns="http://www.w3.org/2000/svg" width="512" height="512"><path d="M249.6 65.618c-1.877.869-4.419 2.685-5.649 4.034-1.23 1.35-22.448 29.431-47.152 62.401L151.884 192l-33.915.01c-41.394.012-43.017.305-52.747 9.507-5.92 5.598-9.077 12.603-9.558 21.203-.35 6.266.155 8.208 24.088 92.553 17.132 60.376 25.254 87.695 27.145 91.307 1.554 2.966 5.427 7.91 9.128 11.649 6.394 6.461 11.005 9.393 20.489 13.03 4.701 1.803 4.979 1.808 116.499 2.049 124.528.269 118.051.546 130.35-5.564 8.646-4.296 18.047-13.765 22.249-22.411 2.238-4.605 9.832-30.092 27.08-90.88 23.773-83.783 23.968-84.536 23.642-91.306-.697-14.446-10.134-26.268-23.895-29.931-3.491-.929-12.054-1.198-38.408-1.206l-33.915-.01-45.956-61.227c-25.277-33.674-46.701-61.884-47.61-62.687-2.437-2.155-7.543-4.089-10.736-4.067-1.54.01-4.337.73-6.214 1.599m38.724 84.142L320.006 192H191.994l31.682-42.24c17.426-23.232 31.971-42.24 32.324-42.24.353 0 14.898 19.008 32.324 42.24m-21.071 128.406c10.267 3.171 18.423 10.335 23.167 20.347 2.527 5.336 2.699 6.3 2.682 15.087-.014 7.695-.359 10.233-1.914 14.08-3.826 9.469-12.13 17.763-21.535 21.507-3.743 1.491-6.506 1.878-13.653 1.914-8.577.044-9.236-.086-15.416-3.037-15.507-7.406-24.247-23.722-21.449-40.04 3.883-22.644 26.346-36.582 48.118-29.858" fill-rule="evenodd"/></svg>