<svg xmlns="http://www.w3.org/2000/svg" width="512" height="512"><path d="M249.6 65.618c-1.877.869-4.419 2.685-5.649 4.034-1.23 1.35-22.448 29.431-47.152 62.401L151.884 192h-42.035c-39.373 0-42.224.101-45.009 1.59-3.705 1.981-6.199 6.105-6.173 10.208.015 2.326 51.076 220.339 53.647 229.055.418 1.415 7.999 1.494 143.686 1.494s143.268-.079 143.686-1.494c2.548-8.619 53.628-226.726 53.645-229.055.029-4.101-2.465-8.227-6.171-10.208-2.785-1.489-5.636-1.59-45.009-1.59h-42.035l-45.956-61.227c-25.277-33.674-46.701-61.884-47.61-62.687-2.437-2.155-7.543-4.089-10.736-4.067-1.54.01-4.337.73-6.214 1.599m38.724 84.142L320.006 192H191.994l31.682-42.24c17.426-23.232 31.971-42.24 32.324-42.24.353 0 14.898 19.008 32.324 42.24m-21.337 128.328c10.672 3.321 18.601 10.225 23.415 20.388 2.55 5.383 2.716 6.318 2.694 15.124-.02 7.669-.37 10.245-1.914 14.08-3.808 9.458-12.119 17.761-21.529 21.507-3.743 1.491-6.506 1.878-13.653 1.914-8.577.044-9.236-.086-15.416-3.037-26.091-12.461-29.651-47.535-6.546-64.495 9.145-6.714 22.077-8.865 32.949-5.481" fill-rule="evenodd"/></svg>