<svg xmlns="http://www.w3.org/2000/svg" width="512" height="512"><path d="M241.493 48.641c-73.546 4.98-139.537 49.344-171.991 115.626-9.821 20.057-16.261 40.822-19.717 63.573-2.061 13.574-2.061 42.746 0 56.32 9.53 62.741 43.783 115.395 96.708 148.659 22.943 14.42 52.088 24.952 81.347 29.396 13.574 2.061 42.746 2.061 56.32 0 44.794-6.804 83.873-25.735 115.311-55.86 34.149-32.722 55.457-74.222 62.744-122.195 2.061-13.574 2.061-42.746 0-56.32-9.459-62.277-43.536-114.958-95.783-148.074-17.584-11.145-45.197-22.467-65.205-26.735-18.623-3.972-41.298-5.638-59.734-4.39m-.512 33.492c.159.587.924 5.794 1.702 11.571 1.674 12.424 5.959 29.663 10.329 41.549 7.07 19.229 19.577 41.571 31.951 57.072l5.368 6.725-17.166 17.167-17.167 17.166-56.402-56.402-56.402-56.402 7.549-5.502c23.824-17.359 47.049-27.382 74.964-32.352 10.396-1.85 14.888-2.024 15.274-.592m43.179.245c28.132 4.526 53.485 15.295 77.054 32.731l7.507 5.553-27.819 27.776-27.819 27.775-2.137-2.56c-3.972-4.757-14.705-21.287-18.562-28.586-9.081-17.182-16.057-39.358-18.321-58.24-.806-6.721-1.667-6.342 10.097-4.449m-67.963 190.806-17.186 17.186-7.132-5.53c-21.107-16.367-43.812-28.135-68.999-35.763-9.412-2.85-26.722-6.353-35.627-7.209l-6.186-.595.003-2.663c.006-4.521 2.492-18.414 5.057-28.263 5.458-20.956 14.79-40.171 28.95-59.604l5.502-7.549 56.402 56.402 56.402 56.402-17.186 17.186m181.5-121.282c13.538 18.268 23.077 38.366 28.55 60.151 2.601 10.353 5.266 25.76 4.568 26.408-.494.458-15.123-1.772-21.642-3.299-26.684-6.253-54.634-19.993-72.509-35.647-.501-.438 10.158-11.719 26.88-28.45 20.742-20.753 27.924-27.451 28.563-26.639.469.596 2.985 3.96 5.59 7.476m-76.656 76.151c20.965 16.376 45.96 28.926 71.602 35.951 11.141 3.053 29.49 6.503 34.584 6.503 1.852 0 3.093.485 3.42 1.337.818 2.133-1.358 16.053-4.393 28.103-5.551 22.041-15.261 42.317-29.339 61.267l-5.578 7.508-56.357-56.357-56.358-56.358 17.054-17.07c9.38-9.389 17.142-17.07 17.25-17.07.107 0 3.759 2.784 8.115 6.186m-223.238 47.96c21.506 4.437 39.806 11.601 58.138 22.762 6.389 3.89 19.846 13.63 19.846 14.365 0 .259-12.404 12.869-27.564 28.024l-27.564 27.553-5.552-7.505c-13.906-18.798-23.499-38.513-28.98-59.559-2.135-8.195-5.047-23.553-5.057-26.666-.005-1.642 5.411-1.31 16.733 1.026m214.804 59.208 56.176 56.181-7.538 5.592c-24.738 18.353-57.286 31.362-84.144 33.632l-6.194.524-1.019-8.527c-4.219-35.274-18.283-69.997-40.105-99.014l-8.054-10.709 16.914-16.93c9.303-9.312 17.111-16.93 17.351-16.93.241 0 25.717 25.281 56.613 56.181m-108.169 8.05c18.157 24.594 30.701 55.358 33.268 81.589l.617 6.3-5.028-.601c-28.259-3.381-58.346-15.616-82.539-33.564l-7.537-5.591 27.586-27.595c15.172-15.178 27.779-27.588 28.017-27.578.237.009 2.764 3.177 5.616 7.04" fill-rule="evenodd"/></svg>