<svg xmlns="http://www.w3.org/2000/svg" width="512" height="512"><path d="M251.958 48.599c-1.519.371-4.015 1.648-5.546 2.839-1.532 1.191-23.329 29.64-48.439 63.221l-45.653 61.055-41.813.054c-22.998.029-44.235.403-47.195.831-19.626 2.838-33.739 21.477-30.74 40.601.797 5.085 51.916 185.809 54.543 192.83 6.188 16.54 22.556 30.322 40.533 34.131 8.973 1.901 247.256 1.898 256.51-.004 16.928-3.478 32.179-15.647 39.563-31.57 1.679-3.622 13.243-42.926 29.37-99.829 28.608-100.937 28.316-99.686 25.625-109.678-3.707-13.768-15.788-24.422-30.028-26.481-2.96-.428-24.197-.802-47.195-.832l-41.813-.054-46.055-61.515c-30.607-40.883-47.064-62.168-49.066-63.461-3.467-2.238-8.614-3.111-12.601-2.138m35.994 84.729c17.157 22.876 31.195 41.788 31.195 42.026 0 .238-28.448.433-63.218.433-35.09 0-63.091-.328-62.933-.737.706-1.827 62.633-83.723 63.164-83.532.329.119 14.635 18.933 31.792 41.81m158.786 76.305c1 1 1.265 2.198.898 4.053-1.405 7.097-51.923 183.636-53.33 186.364-3.249 6.302-8.865 10.704-15.978 12.527-4.548 1.165-19.102 1.291-124.539 1.078-101.793-.205-119.88-.423-122.721-1.478-5.246-1.949-12.085-8.743-14.021-13.929C115.295 393.557 64 213.218 64 211.752c0-.471.603-1.46 1.341-2.198 1.211-1.211 19.689-1.341 190.659-1.341 175.424 0 189.422.105 190.738 1.42m-193.16 42.984c-12.867 1.751-22.364 6.684-32.65 16.959-5.867 5.861-8.051 8.785-10.895 14.584-11.712 23.884-6.385 51.337 13.437 69.241 10.494 9.479 23.638 14.396 38.427 14.373 14.351-.022 26.141-4.192 36.77-13.005 21.015-17.426 27.179-45.865 15.271-70.467-2.949-6.091-4.903-8.691-11.337-15.08-11.365-11.285-21.298-15.844-36.788-16.883-3.754-.252-9.26-.127-12.235.278m19.489 33.969c4.885 2.531 8.93 6.368 11.752 11.149 2.918 4.941 3.707 15.765 1.531 20.995-3.703 8.902-10.847 14.935-19.815 16.736-10.336 2.076-20.044-2.2-26.28-11.575-3.149-4.735-3.395-5.554-3.723-12.418-.298-6.226-.059-8.029 1.564-11.801 2.306-5.359 9.423-12.206 14.69-14.131 5.446-1.991 15.411-1.477 20.281 1.045" fill-rule="evenodd"/></svg>