<svg xmlns="http://www.w3.org/2000/svg" width="512" height="512"><path d="M17.067 256v128H176.64v-3.201c0-1.761 1.536-8.576 3.413-15.146 1.878-6.569 3.414-12.232 3.414-12.585 0-.353-30.144-.641-66.987-.641H49.493v-192h168.762l10.979-15.081c6.039-8.295 11.286-15.591 11.662-16.213.565-.939-18.513-1.133-111.574-1.133H17.067v128M254.72 144.36c-66.247 90.68-94.255 129.235-94.273 129.773-.011.352 14.79.64 32.891.64 30.941 0 32.884.09 32.472 1.494-.241.821-7.026 25.051-15.077 53.844-10.078 36.042-14.364 52.626-13.757 53.233 1.499 1.499 3.313.111 7.728-5.915 2.338-3.191 26.102-35.754 52.808-72.362l48.558-66.56-32.82-.224-32.819-.223.468-2.337c.258-1.285 7.026-25.699 15.041-54.254 8.014-28.554 14.356-52.266 14.092-52.693-1.486-2.405-4.15.306-15.312 15.584m35.413-13.655c0 1.488-1.536 8.189-3.413 14.891-1.877 6.702-3.413 12.781-3.413 13.508 0 1.183 7.052 1.323 66.99 1.323h66.99l-.217 95.786-.217 95.787-84.597.217-84.597.218-10.976 15.09c-6.037 8.3-11.104 15.402-11.261 15.783-.156.38 50.052.692 111.574.692h111.857V128h-158.72v2.705M70.827 256v73.387h59.675c56.093 0 59.704-.09 60.13-1.494 1.58-5.201 9.048-32.309 9.048-32.842 0-.358-17.664-.651-39.253-.651-21.59 0-39.254-.174-39.254-.386 0-.212 18.048-25.162 40.107-55.444 22.059-30.282 40.107-55.26 40.107-55.507 0-.247-29.376-.45-65.28-.45h-65.28V256m205.229-72.32c-.204.587-2.438 8.455-4.965 17.485l-4.595 16.418 39.589.222 39.589.222-40.132 55.04c-22.073 30.272-40.137 55.328-40.144 55.68-.006.352 29.173.64 64.842.64h64.853V182.613H335.76c-46.7 0-59.412.227-59.704 1.067m189.011 72.765v53.353l16-.233 16-.232.219-53.12.22-53.12h-32.439v53.352" fill-rule="evenodd"/></svg>