<svg xmlns="http://www.w3.org/2000/svg" width="512" height="512"><path d="M67.84 128.602c-19.398 2.739-37.793 16.17-46.507 33.958-6.676 13.625-6.4 9.593-6.4 93.44 0 68.95.117 75.124 1.528 80.64 5.523 21.604 22.999 39.586 44.126 45.406 5.242 1.443 14.642 1.527 171.093 1.527h165.547l6.826-2.324c13.396-4.562 25.017-13.429 32.746-24.986 4.824-7.212 7.094-12.761 9.005-22.012 1.159-5.61 1.343-16.314 1.343-78.251 0-76.942-.036-77.67-4.408-89.354-5.799-15.5-21.514-30.035-38.875-35.956l-6.637-2.263-163.414-.093c-89.877-.051-164.565.069-165.973.268m330.163 34.385c5.553 2.827 10.925 8.158 13.884 13.776l2.406 4.57v149.334l-2.43 4.617c-3.34 6.344-9.695 12.309-15.693 14.731L391.253 352l-156.16.237c-105.831.161-158.036-.051-161.983-.657-13.214-2.031-22.96-11.077-25.244-23.433-1.287-6.964-1.292-137.283-.005-144.31.51-2.785 1.721-6.408 2.691-8.05 3.949-6.687 11.041-12.518 17.715-14.566 1.173-.36 74.901-.59 163.84-.511l161.706.143 4.19 2.134m74.317 41.052c-2.828 1.639-6.466 5.298-7.97 8.014-1.249 2.258-1.448 7.08-1.678 40.805-.18 26.289.042 39.71.711 42.932 2.038 9.817 10.331 15.172 19.724 12.735 4.965-1.287 8.041-3.872 10.213-8.578 1.462-3.167 1.576-6.341 1.576-43.947 0-45.601.067-45.074-6.389-49.998-2.643-2.016-4.179-2.484-8.839-2.696-3.213-.146-6.376.17-7.348.733" fill-rule="evenodd"/></svg>