<svg xmlns="http://www.w3.org/2000/svg" width="512" height="512"><path d="M65.411 129.392c-8.701 1.867-14.445 4.263-21.45 8.948-9.205 6.157-16.853 14.822-21.342 24.182-6.614 13.79-6.406 10.752-6.406 93.478 0 82.922-.228 79.649 6.553 93.78 3.226 6.722 5.044 9.221 11.235 15.446 8.143 8.187 14.98 12.492 25.59 16.113l6.542 2.232 54.254.25 54.254.25.12-4.089c.066-2.249 1.61-9.273 3.431-15.609l3.312-11.52-54.699-.426c-54.649-.427-54.703-.429-59.564-2.393-6.82-2.756-12.823-8.434-16.228-15.352l-2.8-5.686V183.04l2.479-5.369c3.113-6.741 9.722-13.005 16.33-15.477 4.638-1.736 5.998-1.767 76.255-1.767h71.532l12.062-15.785c6.634-8.682 12.062-15.978 12.062-16.214 0-.235-37.728-.397-83.84-.358-70.312.058-84.782.271-89.682 1.322m222.162 1.967c0 1.893-1.536 8.876-3.413 15.519-1.877 6.643-3.413 12.401-3.413 12.796 0 .394 25.632.821 56.96.948l56.96.231 4.266 2.097c5.453 2.68 11.437 8.664 14.117 14.117l2.097 4.266v149.334l-2.091 4.266c-3.043 6.209-9.744 12.554-15.856 15.016L392.107 352l-72.721.241-72.721.24-11.905 15.546-11.904 15.546 84.198.232c91.364.252 90.977.269 102.564-4.439 14.625-5.943 27.772-19.04 33.662-33.536 4.691-11.544 4.72-12.104 4.72-89.83 0-62.274-.179-72.62-1.357-78.323-4.017-19.447-15.571-34.41-33.355-43.199-12.399-6.128-10.04-5.92-70.888-6.256l-54.827-.303v3.44m-40.25 19.468a208068.87 208068.87 0 0 1-53.101 69.622c-19.995 26.207-36.355 48.106-36.355 48.664 0 .557.597 1.867 1.328 2.91l1.328 1.897h31.525c27.167 0 31.525.173 31.525 1.254 0 .69-6.528 24.566-14.506 53.058-7.979 28.491-14.507 52.503-14.507 53.359 0 3.212 3.259 1.565 7.475-3.778 2.315-2.933 26.041-33.941 52.723-68.906 30.102-39.447 48.648-64.467 48.869-65.928.75-4.965 1.201-4.899-33.651-4.899-17.543 0-31.896-.191-31.896-.424 0-.234 6.734-24.439 14.965-53.791 8.231-29.351 14.736-53.736 14.456-54.189-1.563-2.528-4.394.44-20.178 21.151M79.359 186.24c-3.562 2.139-5.163 3.82-7.002 7.351l-2.384 4.577v115.524l2.196 4.406c2.695 5.408 7.603 9.194 13.497 10.411 2.843.587 21.437.822 53.416.676l49.055-.225 4.781-17.067 4.781-17.066-20.556-.445c-19.36-.418-20.793-.56-24.619-2.445-12.058-5.938-17.713-21.638-11.898-33.035 1.246-2.442 46.733-63.015 55.847-74.369.683-.851-10.591-1.066-55.82-1.066H83.978l-4.619 2.773m193.818 0c-1.135 3.599-8.644 30.419-8.644 30.877 0 .192 9.312.477 20.694.632 20.55.28 20.723.298 25.036 2.572 8.686 4.578 13.499 12.615 13.455 22.466-.02 4.607-.501 6.92-2.085 10.031-1.133 2.224-14.063 19.763-28.734 38.975-14.67 19.213-26.908 35.544-27.195 36.292-.475 1.237 4.618 1.338 56.54 1.117 56.755-.241 57.081-.252 60.534-2.1 4.618-2.472 9.429-7.922 10.547-11.948 1.249-4.497 1.249-113.811 0-118.308-1.157-4.165-6.216-9.788-10.605-11.787-3.183-1.45-6.971-1.556-56.04-1.574l-52.628-.018-.875 2.773m199.996 18.017c-3.206 1.488-6.864 5.346-8.052 8.492-.595 1.575-.908 16.488-.908 43.334 0 32.858.232 41.473 1.175 43.678 2.785 6.508 10.894 10.552 17.984 8.969 4.412-.986 6.594-2.432 9.585-6.352l2.403-3.15.229-42.307c.258-47.495.507-45.425-6.111-50.781-2.599-2.104-4.057-2.589-8.443-2.808-3.273-.163-6.281.191-7.862.925" fill-rule="evenodd"/></svg>