<svg xmlns="http://www.w3.org/2000/svg" width="512" height="512"><path d="M108.221 33.704c-28.904 4.864-50.774 22.96-57.911 47.917-3.657 12.789-3.068 19.135 2.329 25.11 3.45 3.818 5.373 4.528 17.329 6.399 13.184 2.062 18.955 4.061 22.112 7.656 1.452 1.654 2.727 3.089 2.834 3.19.107.101.399 64.696.649 143.544l.456 143.36 2.236 8.116c4.273 15.508 10.674 26.717 21.353 37.396 10.685 10.685 21.907 17.091 37.396 21.346l8.116 2.23 100.267.286c69.071.197 103.14-.008 109.502-.658 25.123-2.566 46.611-15.483 60.068-36.107 4.733-7.252 7.18-12.607 10.222-22.369l2.394-7.68.427-162.987.427-162.986 2.408-6.827c2.267-6.429 4.657-11.307 10.451-21.333 5.26-9.101 2.171-19.595-7.21-24.496l-4.564-2.384-167.369.087c-132.537.069-168.733.317-173.922 1.19m313.902 31.789c-6.091 19.093-6.544 23.439-6.547 62.72l-.003 32.214H128.185l-.381-18.987c-.354-17.629-.541-19.475-2.623-25.813-2.684-8.175-5.96-13.563-11.44-18.813-4.887-4.683-14.91-9.868-23.204-12.005-3.331-.858-6.057-1.876-6.057-2.261 0-.386 1.733-2.554 3.851-4.818 6.231-6.662 16.394-11.313 28.035-12.831 2.879-.375 72.959-.731 155.734-.791 142.973-.103 150.475-.033 150.023 1.385" fill-rule="evenodd"/></svg>