<svg xmlns="http://www.w3.org/2000/svg" width="512" height="512"><path d="M123.023 81.522c-9.772 2.121-17.601 6.695-26.188 15.298-7.937 7.953-11.627 13.676-14.602 22.647-1.418 4.276-1.595 9.426-2.001 58.007l-.445 53.313-4.694 2.464c-16.464 8.641-31.075 24.843-37.443 41.521C31.966 289.655 32 289.165 32 357.12c0 33.792.294 62.489.652 63.771.822 2.935 5.254 8.036 8.392 9.659 3.185 1.647 10.435 1.571 13.825-.146 6.8-3.444 8.524-6.782 9.137-17.701.442-7.865.628-8.549 2.841-10.453l2.368-2.037h373.57l2.368 2.037c2.213 1.904 2.399 2.588 2.841 10.453.536 9.538 1.764 12.614 6.467 16.201 2.18 1.663 4.358 2.434 7.641 2.707 6.006.498 8.267-.141 11.953-3.377 6.345-5.571 5.945-.847 5.945-70.261 0-69.423.037-68.898-5.982-83.826-5.874-14.567-19.587-30.834-31.844-37.774a1232.99 1232.99 0 0 1-7.831-4.467l-2.556-1.481v-51.076c0-48.071-.1-51.464-1.686-57.667-2.578-10.079-6.201-16.11-14.936-24.862-8.721-8.737-16.427-13.183-26.582-15.335-8.49-1.799-257.262-1.764-265.56.037m262.684 32.684c5.114 2.654 9.534 7.034 12.033 11.924 2.021 3.954 2.05 4.361 2.329 32.803.155 15.84.019 28.8-.303 28.8-.323 0-1.752-.981-3.178-2.18-3.275-2.756-9.112-5.723-15.148-7.7-4.214-1.38-9.171-1.57-48.561-1.864-29.35-.218-46.295-.01-51.2.63-7.906 1.032-15.341 3.98-21.872 8.669L256 188.023l-3.627-2.593c-1.994-1.425-5.546-3.55-7.893-4.721-8.818-4.4-10.12-4.496-61.013-4.496-43.558 0-47.768.126-52.444 1.569-6.242 1.926-12.175 4.879-15.611 7.771-1.426 1.199-2.855 2.18-3.178 2.18-.322 0-.458-12.96-.303-28.8.277-28.258.32-28.872 2.279-32.64 3.806-7.321 10.269-12.476 17.113-13.651 2.162-.371 59.418-.619 127.237-.551l123.307.122 3.84 1.993m-154.633 95.623c3.911 1.996 5.706 3.935 7.4 7.988 2.619 6.268 7.482 5.756-54.687 5.756h-56l.55-2.752c.833-4.165 4.532-8.892 8.492-10.852 3.437-1.701 4.867-1.754 47.312-1.755 41.264-.001 43.948.092 46.933 1.615m144.028.121c3.987 1.93 7.721 6.671 8.561 10.871l.55 2.752h-56c-55.795 0-56-.006-56-1.74 0-2.232 2.767-7.666 4.816-9.46 4.757-4.163 3.853-4.089 50.595-4.126 42.436-.033 44.009.024 47.478 1.703m34.128 46.968c18.039 3.27 34.968 20.412 37.862 38.335.515 3.193.898 19.855.902 39.254l.006 33.706H64v-34.19c0-20.69.362-36.189.918-39.253 3.151-17.383 19.982-34.539 37.055-37.771 6.276-1.189 300.721-1.266 307.257-.081" fill-rule="evenodd"/></svg>