<svg xmlns="http://www.w3.org/2000/svg" width="512" height="512"><path d="M89.625 81.565c-3.685 1.598-5.77 3.456-7.579 6.753-1.261 2.298-1.45 9.425-1.833 69.122L79.787 224l-5.399.595c-6.766.747-10.212 1.843-17.234 5.486-10.338 5.361-18.545 15.169-22.761 27.199L32 264.107l-.249 83.84-.248 83.84h36.764v-31.574h375.466v31.574h36.764l-.248-83.84-.249-83.84-2.363-6.68c-4.329-12.238-12.451-21.984-22.791-27.346-7.022-3.643-10.468-4.739-17.234-5.486l-5.399-.595-.426-66.56c-.461-71.843-.272-68.999-4.851-73.143-4.758-4.306 4.516-4.086-171.122-4.05-143.411.029-163.587.189-166.189 1.318m141.202 96.065c3.383 1.873 6.927 5.687 8.052 8.666.536 1.418.908 9.719.908 20.266v17.865H120.229l.259-19.052c.253-18.625.306-19.121 2.353-22.106 2.294-3.345 5.739-5.702 9.793-6.698 1.441-.354 23.547-.58 49.126-.501 41.572.128 46.778.294 49.067 1.56m152.761.549c1.885 1.081 4.381 3.355 5.547 5.055 2.078 3.03 2.123 3.455 2.377 22.141l.259 19.052H272.213v-17.948c0-13.143.309-18.686 1.153-20.706 1.423-3.407 6.616-8.08 9.743-8.769 1.282-.282 2.715-.649 3.184-.816.47-.166 21.782-.228 47.36-.138l46.507.163 3.428 1.966" fill-rule="evenodd"/></svg>