<svg xmlns="http://www.w3.org/2000/svg" width="512" height="512"><path d="M122.211 81.936c-18.384 4.816-32.576 17.863-39.269 36.098l-2.248 6.126-.285 42.665c-.337 50.484-1.227 46.502 9.792 43.82 3.659-.891 11.26-1.853 16.892-2.138 11.598-.587 12.732-1.124 13.579-6.418 1.989-12.437 13.1-23.256 26.145-25.456 3.751-.633 16.323-.863 36.749-.671 30.047.281 31.205.353 35.951 2.251 9.359 3.742 18.093 14.154 19.798 23.6 1.123 6.222 1.59 6.402 16.604 6.387 7.319-.007 13.808-.33 14.42-.718.612-.389 1.7-2.954 2.417-5.701.717-2.747 2.208-6.779 3.313-8.96 2.716-5.358 10.385-12.193 16.414-14.627 4.845-1.957 5.309-1.981 39.037-1.981 37.924 0 38.014.011 46.384 5.601 6.407 4.278 11.504 11.537 13.002 18.514 1.595 7.435 1.786 7.547 13.803 8.158 5.741.291 13.431 1.261 17.09 2.154 11.017 2.689 10.127 6.669 9.808-43.815l-.269-42.665-2.569-6.827c-3.104-8.248-7.372-14.853-13.449-20.813-7.602-7.456-15.707-12.025-26.001-14.658-6.232-1.594-10.651-1.647-133.669-1.602-122.367.046-127.461.109-133.439 1.676M95.147 225.832c-14.102 2.991-29.313 11.461-39.923 22.23-10.498 10.656-16.836 21.825-20.913 36.85l-2.226 8.208-.312 60.393c-.225 43.526-.037 61.722.675 65.151 1.815 8.74 8.459 13.755 17.124 12.922C59.086 430.672 64 424.087 64 412.252c0-6.654.14-7.19 2.494-9.544l2.495-2.495h374.022l2.495 2.495c2.354 2.354 2.494 2.89 2.494 9.544 0 12.927 5.267 19.108 16.285 19.108 5.126 0 6.096-.281 9.022-2.615 1.804-1.438 4.048-4.126 4.986-5.973 1.661-3.268 1.707-5.047 1.707-66.079 0-62.199-.016-62.782-1.916-70.235-1.053-4.133-3.08-10.314-4.504-13.735-7.607-18.272-24.817-35.112-43.698-42.757-14.539-5.887-3.676-5.547-174.486-5.47-132.974.06-155.101.245-160.249 1.336" fill-rule="evenodd"/></svg>