<svg xmlns="http://www.w3.org/2000/svg" width="512" height="512"><path d="M197.547 17.876c-20.91 3.732-42.121 14.566-56.325 28.77l-3.917 3.917-5.292-1.128c-11.175-2.381-24.496-1.013-34.602 3.553-14.946 6.752-25.078 17.977-30.643 33.95-1.994 5.721-2.263 7.783-2.238 17.169.025 9.334.318 11.51 2.347 17.422l2.319 6.756-3.305 3.484c-7.875 8.301-12.586 16.559-15.715 27.549-2.452 8.611-2.63 24.292-.37 32.682 2.137 7.939 7.539 18.406 12.457 24.14 4.498 5.246 11.717 11.759 15.604 14.08l2.346 1.401v108.053c0 104.812.051 108.251 1.686 114.644 2.581 10.09 6.2 16.11 14.936 24.847 8.737 8.736 14.757 12.355 24.847 14.936 6.371 1.629 9.781 1.686 102.318 1.686 92.888 0 95.925-.051 102.39-1.705 9.469-2.421 16.75-6.778 24.832-14.86 11.637-11.637 16.565-23.378 16.565-39.465v-7.97h16.249c18.501 0 25.708-1.091 35.808-5.42 17.457-7.482 32.239-22.56 39.107-39.89 4.822-12.168 4.836-12.353 4.836-66.477 0-54.088-.017-54.317-4.813-66.418-6.496-16.394-19.965-30.794-35.999-38.491-11.568-5.553-14.941-6.172-36.202-6.642l-18.986-.421v-2.465c0-1.58 1.379-4.339 3.843-7.686 7.718-10.483 11.292-20.677 12.098-34.499 1.297-22.266-8.423-42.459-26.739-55.551-9.363-6.692-22.501-11.4-31.81-11.4h-3.244l-2.367-6.614c-13.752-38.414-46.962-66.023-87.035-72.355-10.243-1.619-24.53-1.448-34.986.418m34.724 32.11c26.95 5.116 49.893 26.608 58.416 54.721 2.023 6.674 2.284 8.972 2.347 20.733.04 7.275-.062 15.619-.226 18.542-.253 4.511.039 5.891 1.926 9.11 3.043 5.193 9.725 8.576 15.29 7.741 8.569-1.285 12.741-6.125 14.634-16.979.723-4.149 1.315-9.252 1.315-11.34v-3.796l2.774.562c4.456.903 11.876 5.862 15.695 10.489 11.94 14.469 8.631 36.614-7.02 46.981-5.57 3.689-9.793 4.816-17.849 4.762-9.714-.065-14.597-2.127-27.951-11.809-2.89-2.094-5.347-3.095-8.534-3.476-2.461-.293-32.123-.417-65.915-.274-56.753.241-61.649.375-64.188 1.763-4.052 2.214-6.033 4.643-9.216 11.297-5.117 10.696-12.549 16.306-24.408 18.425-11.353 2.029-22.427-1.378-29.838-9.181-7.248-7.631-9.778-14.402-9.134-24.441.516-8.038 3.464-14.55 9.17-20.257 6.488-6.488 12.354-8.919 21.518-8.919 7.165 0 7.64.127 15.163 4.053 10.802 5.638 16.709 5.52 22.903-.455 6.473-6.244 6.191-16.882-.608-22.931-4.532-4.031-15.922-9.56-23.522-11.418-6.132-1.498-19.116-1.968-24.102-.871-2.465.542-2.863.361-3.627-1.647-1.14-2.999-.979-12.129.274-15.528 5.509-14.942 24.216-20.335 37.147-10.709 3.527 2.625 9.125 11.116 9.839 14.921.676 3.605 4.752 8.555 8.515 10.34 5.511 2.615 13.121 1.441 17.912-2.765 7.479-6.564 5.782-20.54-4.176-34.401l-2.976-4.143 3.12-2.756c17.364-15.34 40.342-21.088 65.332-16.344m49.875 162.17c12.499 7.79 25.29 11.612 38.707 11.566 4.459-.015 9.749-.4 11.755-.855l3.648-.828-.235 111.914-.234 111.914-2.123 4.156c-2.527 4.948-9.062 11.075-13.48 12.641-4.667 1.653-187.701 1.653-192.368 0-4.418-1.566-10.953-7.693-13.48-12.641l-2.123-4.156-.236-102.919-.236-102.918 7.063-.488c9.303-.644 15.606-2.412 25.232-7.078 8.799-4.265 18.549-12.652 23.385-20.115l2.68-4.136h105.72l6.325 3.943m-123.853 28.052c-.469.155-1.902.514-3.184.796-3.127.689-8.32 5.362-9.743 8.769-.942 2.254-1.153 18.12-1.153 86.64 0 80.069.072 84.014 1.583 86.832.871 1.624 2.989 4.09 4.707 5.48 5.742 4.648 16.276 3.773 21.127-1.754 4.354-4.96 4.157-.664 4.157-90.66 0-57.002-.289-84.378-.908-86.015-1.095-2.899-4.706-6.846-7.626-8.338-2.306-1.178-7.578-2.208-8.96-1.75m64 0c-.469.155-1.902.514-3.184.796-3.127.689-8.32 5.362-9.743 8.769-.942 2.254-1.153 18.12-1.153 86.64 0 80.069.072 84.014 1.583 86.832.871 1.624 2.989 4.09 4.707 5.48 5.742 4.648 16.276 3.773 21.127-1.754 4.354-4.96 4.157-.664 4.157-90.66 0-57.002-.289-84.378-.908-86.015-1.095-2.899-4.706-6.846-7.626-8.338-2.306-1.178-7.578-2.208-8.96-1.75m64 0c-.469.155-1.902.514-3.184.796-3.127.689-8.32 5.362-9.743 8.769-.942 2.254-1.153 18.12-1.153 86.64 0 80.069.072 84.014 1.583 86.832.871 1.624 2.989 4.09 4.707 5.48 5.742 4.648 16.276 3.773 21.127-1.754 4.354-4.96 4.157-.664 4.157-90.66 0-57.002-.289-84.378-.908-86.015-1.095-2.899-4.706-6.846-7.626-8.338-2.306-1.178-7.578-2.208-8.96-1.75m111.787.458c12.817 1.815 24.209 10.416 30.08 22.712l3.2 6.702v99.84l-3.071 6.4c-3.723 7.761-9.153 13.93-15.753 17.898-7.797 4.688-13.949 5.889-30.456 5.946l-14.293.049V239.787l12.16.017c6.688.009 14.848.397 18.133.862" fill-rule="evenodd"/></svg>