<svg xmlns="http://www.w3.org/2000/svg" width="512" height="512"><path d="M315.553 72.615c-9.806 1.085-19.725 8.331-24.381 17.81-2.076 4.227-2.319 5.66-2.319 13.682 0 8.144.219 9.387 2.402 13.653 3.149 6.154 8.98 12.017 14.965 15.051 4.394 2.227 5.612 2.442 13.78 2.442 8.051 0 9.446-.238 13.747-2.35 5.698-2.799 12.968-10.174 15.362-15.586 2.572-5.815 3.462-12.775 2.392-18.703-3.134-17.37-17.837-28.003-35.948-25.999m-48.184 55.979c-3.263.635-8.442 5.98-48.922 50.487-27.37 30.092-40.172 44.78-41.28 47.361-1.956 4.555-1.389 10.106 1.462 14.337 1.286 1.909 11.44 9.095 31.317 22.163l29.414 19.338.427 41.401.426 41.401 2.56 3.623c6.685 9.461 19.771 9.46 26.454-.001l2.56-3.624v-95.978l-2.239-3.382c-1.735-2.622-7.78-7.008-26.88-19.503-13.553-8.865-24.979-16.408-25.391-16.76-.692-.593 49.834-56.958 51.297-57.226.359-.065 7.248 11.733 15.309 26.219s15.887 27.597 17.391 29.135c1.503 1.537 4.124 3.182 5.823 3.654 1.809.503 15.643.852 33.383.844 27.629-.013 30.599-.153 33.767-1.592 9.784-4.443 12.644-16.683 5.798-24.818-3.935-4.678-3.964-4.682-32.181-5.14l-26.323-.426-18.213-32.73c-10.016-18.001-18.907-33.511-19.757-34.467-3.343-3.762-9.975-5.528-16.202-4.316M107.947 273.519c-47.632 8.943-79.793 51.302-75.371 99.271 3.119 33.836 25.791 64.21 57.133 76.541 12.792 5.033 17.902 5.89 34.878 5.849 14.706-.035 16.312-.198 23.466-2.375 35.775-10.883 60.348-38.011 66.527-73.443 8.616-49.407-25.222-97.154-75.005-105.835-8.96-1.563-23.327-1.566-31.628-.008m263.812.001c-65.612 12.402-96.775 86.534-59.774 142.192 5.422 8.155 16.649 19.183 25.242 24.795 8.446 5.515 16.292 9.126 26.72 12.298 7.154 2.177 8.76 2.34 23.466 2.375 16.976.041 22.086-.816 34.878-5.849 31.296-12.313 54.103-42.879 57.145-76.586 4.056-44.944-25.025-86.359-68.556-97.63-10.853-2.81-28.818-3.543-39.121-1.595m-232.772 32.495c9.553 2.125 18.327 7.339 27.064 16.083 6.288 6.292 8.43 9.134 11.299 14.993 4.822 9.848 6.119 15.546 6.104 26.822-.021 15.551-3.531 25.864-12.757 37.474-17.763 22.353-47.406 28.877-73.415 16.159-6.746-3.299-9.333-5.192-15.431-11.29-6.099-6.099-7.991-8.686-11.29-15.432-8.839-18.075-8.646-37.467.546-54.999 4.211-8.03 14.52-18.929 22.133-23.4 13.512-7.935 29.086-10.117 45.747-6.41m265.493.454c19.602 5.167 36.836 23.01 41.916 43.398 1.677 6.731 1.434 22.948-.448 29.866-4.329 15.916-16.442 30.582-31.23 37.813-10.414 5.092-19.557 6.991-30.275 6.287-17.476-1.148-32.375-8.901-43.14-22.446-9.229-11.615-12.744-21.941-12.744-37.44 0-10.653 1.377-17.637 4.919-24.95 13.275-27.404 41.458-40.316 71.002-32.528" fill-rule="evenodd"/></svg>