<svg xmlns="http://www.w3.org/2000/svg" width="512" height="512"><path d="M311.495 65.311C297.64 69.198 288.427 81.455 288.427 96c0 23.644 24.152 38.848 45.515 28.652 19.863-9.479 24.188-36.696 8.207-51.645-8.292-7.756-19.979-10.69-30.654-7.696m-60.359 51.478c-2.441.843-6.056 2.655-8.034 4.025-1.977 1.371-20.14 19.298-40.362 39.838-39.324 39.943-40.506 41.382-42.261 51.459-1.128 6.48-.11 12.545 3.097 18.436 3.031 5.569 5.949 8.017 17.972 15.075 43.231 25.379 55.979 32.987 57.03 34.038 1.004 1.004 1.209 7.29 1.213 37.201.003 22.483.341 37.202.9 39.216.493 1.772 2.116 4.614 3.609 6.313 7.822 8.91 21.163 6.669 26.296-4.417 1.476-3.188 1.579-6.393 1.561-48.64-.015-36.516-.248-45.884-1.212-48.64-1.544-4.415-4.758-7.185-26.038-22.443-14.137-10.137-17.543-12.964-17.749-14.738-.213-1.834 3.278-5.966 21.273-25.173 11.841-12.639 22.044-23.29 22.673-23.671 2.68-1.622 4.582.921 15.684 20.968 6.298 11.373 12.544 21.924 13.879 23.446 4.298 4.899 7.575 5.347 38.901 5.324 15.987-.012 29.416-.395 31.615-.902 14.811-3.413 17.263-22.27 3.857-29.665-2.167-1.196-6.487-1.478-28.16-1.839l-25.6-.427-14.663-26.88c-21.309-39.065-21.241-38.957-27.019-43.228-8.379-6.194-19.013-7.941-28.462-4.676m-141.909 148.35c-19.588 3.423-37.522 12.993-51.366 27.408-8.144 8.48-12.136 14.203-16.895 24.219-21.968 46.231-2.051 100.845 44.78 122.79 25.212 11.815 57.02 10.884 81.507-2.384 18.416-9.979 34.771-28.217 41.914-46.738 5.414-14.039 6.174-18.3 6.174-34.594 0-12.659-.28-15.951-1.84-21.615-9.887-35.907-37.045-61.759-71.805-68.353-6.598-1.251-26.884-1.71-32.469-.733m259.413 1.019c-34.544 7.612-60.405 32.708-70.141 68.067-1.559 5.661-1.841 8.963-1.843 21.615-.003 13.39.225 15.782 2.206 23.141 4.591 17.055 12.905 30.929 26.061 43.487 9.636 9.198 18.724 15.008 30.245 19.336 12.704 4.772 18.206 5.701 33.525 5.665 12.149-.029 14.591-.289 22.157-2.356 16.374-4.473 30.199-12.403 41.853-24.008 31.213-31.079 36.096-79.384 11.756-116.286-4.667-7.075-16.444-18.992-23.783-24.066-8.071-5.579-20.167-11.3-28.943-13.687-9.905-2.694-32.797-3.177-43.093-.908m-226.56 32.829c9.543 3.07 16.845 7.582 24.338 15.04 11.328 11.274 17.061 25.461 17.036 42.163-.016 10.722-1.601 17.656-6.162 26.957-2.882 5.874-5.025 8.72-11.278 14.973-6.251 6.251-9.101 8.398-14.974 11.28-9.244 4.535-17.056 6.341-27.307 6.311-27.194-.078-50.355-17.982-57.723-44.62-1.842-6.66-2.068-22.111-.422-28.904.625-2.582 2.874-8.323 4.997-12.759 3.268-6.828 4.99-9.188 11.224-15.391 9.71-9.659 19.926-14.99 33.391-17.424 1.173-.212 6.165-.258 11.093-.104 6.703.211 10.68.835 15.787 2.478m257.956-1.549c3.766.762 10.024 2.994 14.642 5.223 6.788 3.274 9.228 5.058 15.404 11.255 6.124 6.146 7.988 8.704 11.273 15.471 2.164 4.458 4.443 10.218 5.064 12.8 1.639 6.808 1.41 22.256-.429 28.904-7.368 26.638-30.529 44.542-57.723 44.62-10.251.03-18.063-1.776-27.307-6.311-5.873-2.882-8.723-5.029-14.974-11.28-12.417-12.417-17.415-24.543-17.44-42.314-.015-10.944 1.335-16.676 6.327-26.846 11.786-24.015 38.473-36.925 65.163-31.522" fill-rule="evenodd"/></svg>