<svg xmlns="http://www.w3.org/2000/svg" width="512" height="512"><path d="M186.453 25.175c-4.264 1.508-8.552 6.071-9.746 10.371-.503 1.813-.913 10.822-.916 20.134l-.004 16.853H94.218l-4.619 2.774c-3.562 2.139-5.163 3.82-7.002 7.35l-2.384 4.578v67.102l-.001 67.103-15.146 5.905c-25.139 9.801-28.357 11.963-31.414 21.11-3.225 9.651-3.703 7.884 24.527 90.745l25.874 75.947 4.921.256c10.884.567 27.696-3.825 42.068-10.99 10.955-5.462 20.791-12.888 31.352-23.673l8.368-8.545 3.579 3.936c18.459 20.299 39.352 32.111 64.592 36.518 11.609 2.027 30.667 1.293 41.886-1.614 21.187-5.488 37.576-15.128 53.098-31.229l7.446-7.724 3.137 3.612c18.41 21.206 43.19 35.39 68.167 39.021 3.711.539 8.627.857 10.926.706l4.179-.274 25.999-75.947c28.411-82.994 27.856-80.945 24.578-90.745-1.698-5.076-5.351-9.724-9.356-11.902-1.455-.792-10.326-4.521-19.713-8.288l-17.067-6.849-.426-67.828-.427-67.828-2.386-4.058c-1.654-2.816-3.745-4.839-6.826-6.606l-4.441-2.547-40.747-.008-40.747-.008-.004-16.853c-.003-9.662-.407-18.302-.947-20.247-1.208-4.35-6.238-9.38-10.588-10.588-2.346-.651-23.684-.932-69.101-.909-54.397.027-66.294.24-69.12 1.239m212.419 80.273c1.189 1.189 1.341 7.089 1.341 52.053 0 31.488-.307 50.712-.811 50.712-.446 0-32.895-12.644-72.108-28.098l-71.297-28.098-70.185 27.704c-38.602 15.238-71.049 27.924-72.105 28.191l-1.92.486v-50.805c0-45.048.152-50.956 1.341-52.145 1.208-1.209 15.345-1.341 142.872-1.341 127.527 0 141.664.132 142.872 1.341M161.673 413.235c-17.284 21.134-40.097 40.325-58.074 48.856-7.077 3.359-19.697 7.23-23.694 7.268-2.377.023-2.495.133-1.048.973 2.38 1.381 19.526.348 30.75-1.853 15.636-3.066 35.401-10.189 53.597-19.314l7.47-3.746 4.903 2.459c14.765 7.404 38.222 14.316 56.787 16.732 11.544 1.502 33.531 1.719 44.138.435 18.488-2.238 41.535-8.683 57.43-16.06l7.532-3.495 8.355 4.193c17.611 8.838 36.282 15.572 52.136 18.806 10.674 2.177 28.766 3.248 31.181 1.847 1.467-.852 1.369-.953-.94-.977-8.644-.087-28.573-8.834-41.796-18.346-14.113-10.152-31.036-26.317-42.667-40.757l-2.56-3.178-4.693 3.06c-7.562 4.93-24.445 12.824-34.346 16.059-21.394 6.99-44.894 9.564-66.168 7.247-26.444-2.88-50.512-11.328-71.056-24.94l-2.184-1.447-5.053 6.178" fill-rule="evenodd"/></svg>