<svg xmlns="http://www.w3.org/2000/svg" width="512" height="512"><path d="M260.347 17.253c-4.049 1.379-8.05 5.66-9.352 10.005-.604 2.018-1.469 7.367-1.921 11.886-1.183 11.832-2.91 18.172-7.61 27.938-7.907 16.43-19.198 29.558-52.269 60.774-45.836 43.263-59.238 65.546-60.905 101.264-1.288 27.607 7.055 51.726 25.156 72.724 6.289 7.296 16.287 15.564 22.341 18.475 4.977 2.394 6.335 2.664 13.226 2.631 5.942-.029 8.8-.481 12.627-1.997 6.126-2.426 13.142-9.054 16.404-15.499 9.305-18.377 25.655-34.141 51.183-49.345 4.693-2.796 16.021-9.184 25.173-14.195 22.748-12.458 29.541-16.645 40.96-25.248 25.858-19.483 40.835-41.706 46.662-69.24 1.894-8.948 2.105-32.408.371-41.186-8.518-43.126-43.628-76.791-91.296-87.54-8.982-2.025-26.615-2.855-30.75-1.447m-90.859 32.216c-3.027.973-6.421 4.04-7.467 6.75-.431 1.118-1.114 6.135-1.517 11.15-.911 11.327-2.795 15.635-12.328 28.177-9.876 12.993-14.022 19.722-17.014 27.612-2.487 6.559-2.648 7.688-2.69 18.922-.034 8.995.349 13.484 1.549 18.171.877 3.423 1.881 6.111 2.232 5.973.35-.138 3.658-4.283 7.35-9.211 6.589-8.793 20.793-23.469 54.53-56.34 16.553-16.128 23.464-24.123 29.912-34.602l3.637-5.911-1.841-1.452c-2.426-1.913-13.598-6.307-20.357-8.006-6.258-1.573-32.172-2.461-35.996-1.233m194.28 163.695c-9.001 9.012-18.082 16.342-30.008 24.221-8.423 5.564-14.563 9.108-44.053 25.425-32.014 17.714-48.427 32.022-57.5 50.126-4.608 9.195-3.209 12.81 6.353 16.409 27.595 10.385 56.917 8.487 85.28-5.519 37.996-18.763 61.54-58.046 59.898-99.935-.587-14.972-2.281-18.238-9.46-18.238-2.645 0-3.912.905-10.51 7.511M41.185 338.396c-6.491 3.891-10.547 13.825-8.677 21.252 1.9 7.546 10.205 14.121 17.955 14.216 2.441.029 15.777-3.641 38.71-10.656C127.898 351.365 128 351.316 128 344.633c0-2.654-.565-3.995-2.494-5.925l-2.495-2.495-39.105.008-39.106.008-3.615 2.167m345.309.312c-3.347 3.347-3.402 7.556-.147 11.197 2.101 2.351 5.92 3.742 36.48 13.28 21.236 6.628 35.586 10.676 37.978 10.713 8.014.123 16.176-5.789 18.359-13.298 2.708-9.315-2.081-20.45-10.1-23.479-1.568-.593-15.873-.908-41.239-.908h-38.836l-2.495 2.495m-206.441 14.351c-3.67 1.425-78.947 54.651-81.482 57.613-5.587 6.527-7.249 16.437-4.263 25.426 2.113 6.361 9.241 13.492 16.024 16.03 10.619 3.973 22.624 1.729 30.415-5.687 5.986-5.697 57.31-73.197 58.68-77.175 2.026-5.878-.997-12.653-6.893-15.451-2.833-1.344-9.869-1.771-12.481-.756m66.911.538c-3.573 1.616-8.624 6.958-9.673 10.231-.472 1.473-5.127 23.415-10.343 48.759-10.851 52.715-10.964 53.912-6.038 63.918 6.048 12.287 18.506 19.282 34.34 19.282 11.426 0 20.964-3.996 28.326-11.868 5.623-6.01 7.579-10.833 7.995-19.706.312-6.651-.468-11.125-9.402-53.925-6.134-29.386-10.351-47.713-11.384-49.482-.902-1.545-3.278-3.96-5.28-5.367-3.096-2.176-4.554-2.593-9.772-2.796-3.905-.152-7.091.195-8.769.954m71.74.643c-1.404.997-3.275 2.771-4.158 3.941-1.956 2.594-2.744 8.6-1.569 11.969.677 1.942 43.72 59.377 55.914 74.61 7.987 9.976 22.871 12.768 35.34 6.63 9.674-4.763 14.763-13.379 14.747-24.969-.01-7.943-2.439-13.393-8.189-18.373-4.388-3.801-67.384-47.921-75.379-52.792-5.811-3.541-12.573-3.952-16.706-1.016" fill-rule="evenodd"/></svg>