<svg xmlns="http://www.w3.org/2000/svg" width="512" height="512"><path d="M164.267 1.25c-13.14 2.448-23.688 8.171-33.801 18.338-6.084 6.117-8.024 8.772-11.288 15.446-2.167 4.433-4.18 9.104-4.472 10.38l-.531 2.321 119.339.266c119.062.266 119.355.271 126.166 2.103 22.298 6 38.98 19.663 48.743 39.923 7.377 15.307 6.695-2.074 6.948 177.21l.224 159.291 11.845 9.461c6.514 5.204 13.217 10.035 14.895 10.736 8.402 3.511 18.595-1.648 21.015-10.636.608-2.255.812-63.441.644-193.028-.276-214.159.487-192.248-7.247-208.074-3.35-6.854-5.156-9.299-11.688-15.82-6.448-6.438-9.066-8.378-15.832-11.736C413.885-.181 426.324.46 290.56.288c-95.827-.12-121.536.075-126.293.962m-64 79.875c-23.373 3.997-43.086 22.334-50.127 46.626l-1.927 6.649v183.04c0 181.506.015 183.064 1.707 185.936 2.913 4.943 7.484 8.005 12.581 8.428 2.687.223 5.599-.092 7.247-.782 1.516-.636 35.022-28.348 74.459-61.583l71.705-60.429 1.944 1.549c1.069.851 33.151 27.852 71.292 60.001s70.766 59.115 72.5 59.924c3.605 1.683 8.347 1.928 11.843.612 3.822-1.438 8.529-6.582 9.6-10.492.714-2.604.901-51.594.709-185.724-.248-172.729-.341-182.452-1.801-187.307-6.507-21.629-22.201-37.786-43.652-44.941l-5.974-1.992-113.92-.123c-62.656-.067-115.84.206-118.186.608" fill-rule="evenodd"/></svg>