<svg xmlns="http://www.w3.org/2000/svg" width="512" height="512"><path d="M144.213 34.166c-18.029 4.637-33.101 16.919-41.321 33.674C95.329 83.257 96 62.808 96 277.76c0 177.445.098 190.472 1.45 192.94 2.103 3.839 6.976 7.811 10.873 8.86 4.716 1.27 10.139-.252 14.719-4.129 2.021-1.711 32.762-28.958 68.313-60.548l64.638-57.437 66.994 59.57c36.847 32.764 68.349 60.287 70.006 61.162 3.691 1.952 10.258 2.075 13.772.257 3.305-1.708 7.742-6.753 8.583-9.757.358-1.282.652-87.771.652-192.198V86.613l-2.396-7.68c-7.154-22.935-23.943-39.231-46.167-44.811-6.558-1.647-9.744-1.694-111.787-1.648-100.876.045-105.29.112-111.437 1.692" fill-rule="evenodd"/></svg>