<svg xmlns="http://www.w3.org/2000/svg" viewBox="0 0 512 512"><path d="M231.253 33.392c-16.355 1.665-38.573 7.009-54.742 13.167-20.215 7.699-44.67 21.825-62.003 35.814-22.439 18.11-43.36 43.753-56.938 69.791-15.058 28.874-23.154 58.252-25.123 91.16-5.222 87.26 42.038 170.597 119.717 211.106 79.252 41.329 174.746 31.925 244.36-24.066 76.574-61.59 103.962-166.627 67.269-257.991-28.024-69.778-90.412-121.426-164.273-135.994-5.867-1.158-14.861-2.52-19.988-3.028-10.737-1.065-37.645-1.042-48.279.041m52.907 32.766c54.685 8.255 102.478 39.038 133.112 85.735 6.481 9.881 15.857 28.994 19.882 40.534 7.388 21.18 10.349 39.366 10.349 63.573 0 31.858-5.472 55.912-19.119 84.053-28.614 59.002-85.177 98.995-150.879 106.68-50.023 5.852-101.861-9.158-141.617-41.005-32.265-25.845-56.485-63.766-66.202-103.648-3.965-16.274-5.189-27.143-5.189-46.08 0-31.858 5.472-55.912 19.119-84.053 22.436-46.262 63.098-81.91 111.797-98.009 15.043-4.973 27.138-7.424 46.507-9.424 6.868-.709 33.525.329 42.24 1.644m3.69 39.346c-4.567 1.618-10.913 7.204-13.315 11.72-1.506 2.83-1.875 4.949-1.877 10.776-.004 8.177 1.084 11.043 6.263 16.499 4.247 4.475 8.906 6.689 15.124 7.188 7.659.615 13.244-1.478 18.817-7.051 9.597-9.597 9.571-23.7-.06-33.332-6.725-6.725-16.155-8.917-24.952-5.8m65.424 39.456c-6.839 2.243-13.248 8.29-15.763 14.874-1.973 5.166-1.461 14.035 1.099 19.049 2.368 4.638 8.669 10.096 13.589 11.773 15.593 5.313 31.801-6.399 31.801-22.979 0-7.992-4.986-16.193-12.535-20.617-2.994-1.755-5.225-2.322-9.955-2.531-3.353-.149-7.059.045-8.236.431m-69.967 31.636c-5.056 1.121-7.519 2.42-11.438 6.033-5.228 4.819-7.605 10.113-7.654 17.051-.187 26.008 34.917 33.548 45.691 9.813 2.349-5.174 2.52-13.682.373-18.579-4.408-10.055-16.72-16.591-26.972-14.318" fill-rule="evenodd"/></svg>