<svg xmlns="http://www.w3.org/2000/svg" viewBox="0 0 512 512"><path d="M235.947 32.121c-20.829 2.374-33.503 4.921-48.824 9.812-33.937 10.834-64.821 29.682-90.164 55.026-51.828 51.827-74.673 124.053-62.317 197.014 7.533 44.48 29.84 87.174 62.643 119.894 46.658 46.539 106.42 69.628 171.942 66.429 73.512-3.589 141.716-44.95 180.039-109.181 27.01-45.271 37.154-99.764 28.26-151.808-11.154-65.26-50.458-122.17-108.147-156.59-26.918-16.061-57.727-26.365-89.486-29.929-9.394-1.055-36.887-1.472-43.946-.667m71.335 69.558c9.322 5.099 14.425 13.698 14.425 24.308 0 10.212-5.505 19.657-14.204 24.368-18.765 10.163-41.369-3.164-41.228-24.307.111-16.434 12.674-28.388 29.06-27.65 5.485.246 7.323.751 11.947 3.281m68.03 43.805c5.309 2.898 8.651 6.458 11.855 12.628 1.98 3.812 2.311 5.485 2.315 11.701.005 8.763-1.745 13.263-7.586 19.507-5.633 6.022-10.958 8.193-20.083 8.188-8.126-.004-12.464-1.586-18.49-6.743-5.445-4.661-8.226-10.74-8.655-18.921-.524-9.977 1.197-14.634 7.87-21.305 6.703-6.701 10.331-8.071 20.555-7.764 6.614.199 8.311.575 12.219 2.709m-78.202 30.942c5.59 2.478 11.346 8.082 14.115 13.743 1.969 4.024 2.355 5.928 2.364 11.656.01 6.046-.321 7.521-2.834 12.627-6.232 12.664-20.609 18.473-34.275 13.848-6.516-2.205-14.476-10.144-16.604-16.561-5.101-15.374 2.805-31.589 17.796-36.5 4.873-1.596 14.485-1.01 19.438 1.187" fill-rule="evenodd"/></svg>