<svg xmlns="http://www.w3.org/2000/svg" width="512" height="512"><path d="M132.474 49.062c-1.546.671-3.156 2.197-3.627 3.435-.499 1.312-.847 13.94-.847 30.733v28.506l-51.878.239c-57.673.265-54.516-.063-58.24 6.045-1.599 2.623-1.662 4.688-1.665 54.567l-.004 51.84h479.574l-.004-51.84c-.003-49.879-.066-51.944-1.665-54.567-3.724-6.108-.567-5.78-58.24-6.045L384 111.736V83.23c0-16.817-.348-29.42-.848-30.736-1.873-4.926 4.015-4.71-127.338-4.674-102.047.028-120.988.219-123.34 1.242M343.893 99.84v11.947H168.107V87.893h175.786V99.84M16.213 355.714v99.714l1.937 2.899c1.066 1.595 3.274 3.571 4.907 4.392 2.805 1.409 15.7 1.492 232.943 1.492 217.243 0 230.138-.083 232.943-1.492 1.633-.821 3.841-2.797 4.907-4.392l1.937-2.899V256H336.251l-.232 16-.232 16H176.213l-.232-16-.232-16H16.213v99.714" fill-rule="evenodd"/></svg>