<svg xmlns="http://www.w3.org/2000/svg" width="512" height="512"><path d="M168.918 48.676c-10.648 1.603-21.35 7.446-28.661 15.649C131.276 74.402 128 84.248 128 101.165v10.438l-28.8.396c-32.913.453-36.828 1.067-48.983 7.685-15.295 8.327-25.691 20.62-31.206 36.903l-2.313 6.826-.3 30.507-.3 30.507h479.804l-.3-30.507-.3-30.507-2.313-6.826c-5.515-16.283-15.911-28.576-31.206-36.903-12.155-6.618-16.07-7.232-48.983-7.685l-28.8-.396v-10.438c0-17.278-3.376-27.11-12.857-37.439-5.45-5.939-13.063-10.808-21.276-13.61l-5.547-1.892-85.333-.13c-46.934-.072-87.465.19-90.069.582m174.107 33.236c1.831.934 4.408 3.111 5.726 4.837 2.293 3.004 2.408 3.607 2.677 14.088l.281 10.95H160.427v-9.841c0-10.599.871-14.019 4.37-17.149 5.341-4.779.009-4.512 91.024-4.55 82.095-.033 83.944.002 87.204 1.665M16.401 334.293l.239 78.294 2.233 6.542c7.253 21.245 23.228 36.455 44.878 42.731l6.649 1.927h371.2l6.649-1.927c21.65-6.276 37.625-21.486 44.878-42.731l2.233-6.542.239-78.294.239-78.293h-78.855c-62.065 0-79.033.227-79.696 1.067-.462.586-1.09 3.872-1.395 7.302-.946 10.666-6.497 18.526-15.548 22.017-3.962 1.528-7.38 1.614-64.344 1.614-56.964 0-60.382-.086-64.344-1.614-9.051-3.491-14.602-11.351-15.548-22.017-.305-3.43-.933-6.716-1.395-7.302-.663-.84-17.631-1.067-79.696-1.067H16.162l.239 78.293" fill-rule="evenodd"/></svg>