<svg xmlns="http://www.w3.org/2000/svg" width="512" height="512"><path d="M294.202 161.77c-66.771 71.138-121.498 129.604-121.616 129.923-.118.319 14.115 14.906 31.629 32.415l31.844 31.836 121.544-129.481C424.452 155.249 479.29 96.619 479.466 96.174c.325-.825-62.089-63.747-63.233-63.747-.346 0-55.26 58.204-122.031 129.343M130.133 321.259c-13.297 2.458-23.664 8.133-34.175 18.706-6.7 6.74-8.301 8.954-12.096 16.728-5.214 10.683-6.937 17.32-7.937 30.587-.688 9.11-1.025 10.47-4.16 16.757-1.877 3.764-5.191 8.86-7.364 11.326-7.4 8.394-18.975 15.931-27.9 18.166-4.916 1.231-4.916 1.231 4.005 10.818 18.404 19.779 44.479 32.674 71.211 35.218 46.5 4.424 87.974-29.28 95.225-77.386 1.6-10.616 1.595-16.1-.025-25.391-6.573-37.691-40.512-62.236-76.784-55.529" fill-rule="evenodd"/></svg>