<svg xmlns="http://www.w3.org/2000/svg" width="512" height="512"><path d="M416 32.366c-8 .974-16.319 4.158-23.384 8.95-5.742 3.895-18.745 18.036-113.859 123.834C217.371 233.432 170.688 286.049 169.763 288c-2.051 4.324-2.062 9.265-.03 13.738 1.946 4.285 5.485 6.905 12.114 8.968 9.247 2.878 14.272 5.849 21.55 12.738 7.575 7.17 11.583 13.41 13.411 20.876 1.595 6.517 3.905 10.444 7.575 12.872 5.87 3.885 13.821 3.538 18.729-.817 1.648-1.463 192.089-198.6 219.4-227.115 11.334-11.834 16.475-22.771 17.603-37.451.719-9.353-1.282-19.186-5.825-28.63-4.908-10.202-15.113-20.382-25.437-25.376-10.42-5.039-21.311-6.842-32.853-5.437m16.267 33.064c5.843 1.991 12.432 8.698 14.417 14.675 1.856 5.587 1.489 13.601-.843 18.441-.901 1.87-4.336 6.261-7.633 9.758-19.672 20.864-198.805 206.149-199.305 206.149-.334 0-2.183-1.994-4.11-4.431-4.787-6.057-13.284-14.213-18.686-17.937-2.464-1.699-4.48-3.33-4.48-3.626 0-.295 44.295-49.863 98.433-110.151C409.227 67.876 409.812 67.255 417.28 64.591c2.753-.982 10.997-.52 14.987.839M124.898 321.2c-13.106 2.506-24.068 8.232-34.225 17.881-14.513 13.786-20.623 26.734-22.453 47.583-.865 9.857-2.216 14.34-5.327 17.672-3.371 3.611-8.848 6.206-14.855 7.041-10.043 1.395-15.808 7.282-15.808 16.142 0 5.349 2.299 9.338 10.485 18.188 19.501 21.084 48.546 33.947 76.752 33.991 12.259.019 20.691-1.468 31.695-5.59 27.37-10.251 48.497-35.224 54.978-64.988 2.219-10.19 2.041-27.779-.371-36.64-6.524-23.97-26.287-43.987-49.364-49.998-8.594-2.238-23.36-2.839-31.507-1.282m28.998 34.439c10.39 4.888 18.709 15.428 21.146 26.789 1.317 6.142.445 19.439-1.726 26.319-2.625 8.316-7.446 15.891-14.757 23.186-19.841 19.797-50.068 21.332-78.161 3.971l-2.801-1.732 5.506-5.046c10.646-9.754 15.545-20.354 16.741-36.225.843-11.172 1.892-15.62 4.913-20.835 2.861-4.939 9.096-11.607 13.406-14.339 6.729-4.264 11.208-5.352 20.93-5.084 8.034.222 9.564.531 14.803 2.996" fill-rule="evenodd"/></svg>