<svg xmlns="http://www.w3.org/2000/svg" width="512" height="512"><path d="M217.73 33.801c-36.733 4.989-53.956 25.88-57.273 69.472-.476 6.257-.691 11.551-.477 11.765.214.214 3.762-1.061 7.885-2.833 25.413-10.923 46.187-14.869 81.735-15.521 39.826-.732 65.023 3.287 92.323 14.725 4.977 2.085 9.351 3.791 9.721 3.791 1.019 0 .002-14.553-1.793-25.635-5.56-34.345-22.855-51.4-56.612-55.825-13.275-1.74-62.538-1.7-75.509.061M80.213 115.052c0 34.506 3.435 53.943 12.862 72.775 3.39 6.773 11.535 18.157 16.072 22.466l2.64 2.506v59.414H31.536l.232 16 .232 16 39.727-.315 39.726-.315 1.042 14.418c1.51 20.896 4.365 38.464 8.237 50.686l1.502 4.741-8.424 8.588c-13.824 14.094-22.532 27.555-27.561 42.602-4.56 13.647-5.276 18.314-5.776 37.675l-.469 18.134h31.524l.499-14.72c.701-20.681 3.376-31.702 10.66-43.91 2.995-5.02 14.171-19.024 15.182-19.024.196 0 2.239 3.744 4.54 8.32 12.069 23.995 25.514 38.179 42.812 45.166 10.77 4.35 33.423 7.954 49.996 7.954h4.57V175.787h32.426V464.462l11.734-.588c26.78-1.343 43.683-5.66 56.462-14.421 9.645-6.613 20.154-20.338 28.852-37.681l4.721-9.414 3.809 4.261c16.325 18.266 21.243 31.366 22.182 59.088l.499 14.72h31.524l-.469-18.134c-.5-19.361-1.216-24.028-5.776-37.675-5.029-15.047-13.737-28.508-27.561-42.602l-8.424-8.588 1.502-4.741c3.888-12.272 6.732-29.819 8.209-50.65l1.025-14.455 39.749.316 39.749.315.232-16 .232-16h-80.251v-57.671l3.879-3.804c8.299-8.14 16.248-21.899 20.703-35.836 5.179-16.201 6.992-31.592 6.992-59.366V96.427h-31.302l-.572 20.366c-.605 21.529-1.414 30.643-3.646 41.074-1.465 6.846-5.21 17.066-6.255 17.066-.348 0-1.359-1.632-2.247-3.626-2.98-6.694-11.718-18.833-18.274-25.39-20.995-20.994-49.453-30.832-96.445-33.341-36.508-1.949-71.109 2.499-95.369 12.258-23.809 9.578-39.253 23.182-51.918 45.731-1.349 2.402-2.688 4.367-2.976 4.367-.958.002-5.037-10.019-6.659-16.362-2.435-9.521-3.413-19.666-4.039-41.883l-.571-20.26H80.213v18.625" fill-rule="evenodd"/></svg>