<svg xmlns="http://www.w3.org/2000/svg" width="512" height="512"><path d="M238.365 33.69c-27.27 4.948-53.756 24-66.334 47.717-5.152 9.713-.522 20.896 9.787 23.64 3.525.938 4.913.782 14.507-1.628 21.421-5.381 35.026-6.957 60.225-6.978 24.8-.02 39.192 1.53 60.463 6.513 11.482 2.69 15.18 2.104 20.235-3.205 6.642-6.975 6.226-13.566-1.598-25.324-13.895-20.884-37.697-36.405-62.482-40.746-8.671-1.518-26.403-1.513-34.803.011M88.807 97.874c-1.609.847-4.105 3.014-5.546 4.815-2.619 3.274-2.621 3.287-2.912 15.787-.934 40.221 7.861 69.132 27.557 90.591l4.307 4.693-.245 29.199-.246 29.199-34.455.241-34.456.241-3.623 2.56c-4.641 3.28-7.076 7.932-6.954 13.287.172 7.566 5.287 13.567 12.967 15.215 2.729.585 16.085.938 35.481.938h31.105v10.15c0 18.904 2.076 32.912 7.302 49.261l3.034 9.49-8.368 8.532c-21.813 22.239-32.035 44.845-33.302 73.649-.418 9.513-.279 11.143 1.25 14.599 5.454 12.33 23.048 12.566 28.668.384.673-1.459 1.49-6.684 1.816-11.612 1.404-21.197 6.736-34.69 19.643-49.706 3.126-3.638 5.801-6.614 5.944-6.614.143 0 3.007 3.44 6.363 7.644 12.416 15.548 28.923 28.776 47.436 38.012 12 5.987 27.67 11.518 32.633 11.518 4.618 0 10.218-3.083 12.864-7.081l2.29-3.461.427-130.69.426-130.689 2.56-4.123c3.266-5.258 7.67-7.653 13.909-7.563 5.602.081 10.631 3.255 13.322 8.407 1.78 3.407 1.783 3.625 2.209 134.036l.427 130.622 2.29 3.461c2.646 3.998 8.246 7.081 12.864 7.081 4.963 0 20.633-5.531 32.633-11.518 18.518-9.239 35.02-22.464 47.445-38.024 7.044-8.822 5.915-8.924 14.119 1.278 11.906 14.803 16.411 26.794 17.814 47.41.687 10.107 2.174 14.027 6.587 17.366 6.952 5.259 15.91 4.357 21.491-2.162 3.774-4.41 4.264-7.007 3.659-19.388-1.379-28.196-11.738-50.857-33.297-72.836l-8.368-8.532 3.034-9.49c5.226-16.349 7.302-30.357 7.302-49.261v-10.15h31.105c19.396 0 32.752-.353 35.481-.938 7.654-1.642 12.923-7.818 13.036-15.28.079-5.224-2.455-9.994-7.023-13.222l-3.623-2.56-34.488-.241-34.488-.241v-57.327l4.907-5.246c18.156-19.41 26.706-47.6 26.648-87.862-.022-14.864-.99-18.256-6.391-22.375-2.529-1.929-4.255-2.487-8.413-2.72-6.27-.352-9.831 1.219-13.677 6.032l-2.595 3.247-1.003 18.94c-1.073 20.272-1.478 24.136-3.504 33.446-1.371 6.307-5.16 16.65-6.089 16.626-.302-.008-1.947-2.605-3.655-5.771-4.119-7.635-12.946-18.457-19.642-24.08-20.429-17.158-44.245-26.544-79.226-31.225-14.831-1.984-46.966-2.007-61.44-.044-27.366 3.713-50.733 12.016-69.982 24.868-9.19 6.135-22.54 19.77-28.181 28.783-2.565 4.097-4.899 7.457-5.187 7.467-.952.03-5.032-9.985-6.659-16.347-2.121-8.294-3.261-18.595-3.949-35.69-.649-16.107-1.661-19.614-6.789-23.525-4.135-3.154-12.055-3.861-16.579-1.481" fill-rule="evenodd"/></svg>