<svg xmlns="http://www.w3.org/2000/svg" width="512" height="512"><path d="M320.427 32.814c-37.917 5.955-70.834 27.602-88.244 58.03-4.607 8.053-9.773 21.978-12.042 32.463-1.349 6.23-1.964 12.679-2.28 23.893-.483 17.173.738 29.497 4.424 44.641 2.425 9.967 2.694 15.411.926 18.761-1.787 3.385-4.735 6.132-92.224 85.947-44.118 40.248-82.066 75.333-84.329 77.967-4.913 5.719-10.949 17.849-12.999 26.124-2.056 8.298-1.903 21.896.343 30.409 5.492 20.825 20.706 37.414 40.89 44.587 13.585 4.827 27.907 4.896 41.716.199 16.269-5.533 14.188-3.527 96.87-93.387 78.17-84.955 85.436-92.72 88.155-94.215 4.152-2.281 7.633-2.316 17.514-.174 5.397 1.17 10.581 2.287 11.52 2.483 6.201 1.295 18.765 2.231 29.79 2.221 26.03-.026 47.917-6.152 67.52-18.9 8.426-5.479 23.41-20.361 29.168-28.969 21.541-32.203 28.565-76.423 17.642-111.067-5.188-16.455-9.837-21.615-19.471-21.612-4.072.001-5.823.44-8.169 2.05-1.643 1.127-17.771 16.742-35.84 34.7-32.403 32.204-32.91 32.661-36.992 33.26-7.928 1.164-9.646.078-26.861-16.974-8.602-8.52-16.251-16.643-16.999-18.051-1.485-2.797-1.845-8.769-.773-12.8.474-1.783 10.746-12.655 33.862-35.84 33.609-33.709 35.816-36.312 35.816-42.24 0-3.481-2.135-8.422-4.877-11.285-4.183-4.367-22.269-10.455-37.25-12.539-8.673-1.206-28.174-1.037-36.806.318M108.06 385.822c6.45 2.414 13.257 8.901 16.719 15.934 2.533 5.143 2.794 6.396 2.79 13.373-.004 6.868-.296 8.314-2.709 13.416-3.316 7.011-8.55 12.393-15.253 15.684-4.579 2.248-5.905 2.491-13.607 2.491-7.694 0-9.032-.245-13.6-2.485-6.695-3.282-11.944-8.679-15.26-15.69-2.417-5.11-2.704-6.535-2.696-13.398.008-6.517.354-8.419 2.283-12.56 7.419-15.922 24.772-22.961 41.333-16.765" fill-rule="evenodd"/></svg>