<svg xmlns="http://www.w3.org/2000/svg" width="512" height="512"><path d="M242.347 16.754c-1.174.169-5.59.726-9.814 1.236-9.351 1.13-21.427 4.092-31.146 7.639-59.534 21.729-100.08 75.344-104.902 138.716-3.046 40.02 9.33 82.901 32.93 114.108 2.197 2.904 13.263 14.496 24.592 25.76 22.524 22.395 27.491 28.386 33.542 40.453l4.024 8.027.427 18.562.427 18.562 2.609 3.278c7.684 9.653 20.563 9.036 26.625-1.276L224 387.84l-.06-17.92c-.064-19.216-.621-22.873-5.271-34.56-6.024-15.14-15.607-27.536-39.909-51.627-19.429-19.259-24.801-25.44-31.156-35.84-22.994-37.631-25.742-89.756-6.735-127.759 23.976-47.938 71.957-75.45 124.614-71.453 40.145 3.048 74.901 23.113 96.779 55.874 18.099 27.101 24.603 57.704 19.944 93.845-2.913 22.601-12.276 44.473-26.718 62.413-3.075 3.821-11.112 12.176-17.858 18.568-28.115 26.637-41.224 44.492-47.188 64.272-2.124 7.044-2.265 8.595-2.351 25.84L288 387.84l2.339 3.979c2.844 4.838 6.85 7.458 12.322 8.06 5.132.564 10.469-1.967 14.303-6.784l2.609-3.278.428-18.482.427-18.482 3.494-7.253c5.402-11.218 12.716-20.077 34.523-41.813 20.349-20.284 24.279-24.794 32.346-37.12 26.538-40.554 32.741-101.369 15.012-147.193-8.567-22.145-19.956-39.829-36.137-56.112-26.038-26.203-59.331-42.253-95.926-46.245-7.728-.843-26.563-1.061-31.393-.363M211.2 225.636c-10.706 4.779-12.128 20.022-2.549 27.328 5.642 4.303 18.106 11.256 24.674 13.764l6.462 2.466.004 58.043c.004 39.716.303 59.115.947 61.437 1.261 4.54 6.256 9.41 10.949 10.673 8.545 2.302 17.323-2.569 19.635-10.893.567-2.04.884-23.923.887-61.217l.004-58.043 6.462-2.466c6.604-2.522 19.04-9.467 24.75-13.822 7.73-5.896 8.484-17.873 1.533-24.372-3.238-3.028-6.311-4.108-11.68-4.105-3.88.002-5.264.546-11.237 4.414-3.747 2.427-9.699 5.776-13.227 7.443-5.571 2.632-7.255 3.031-12.814 3.031s-7.243-.399-12.814-3.031c-3.528-1.667-9.48-5.016-13.227-7.443-6.14-3.976-7.276-4.409-11.506-4.381-2.581.017-5.845.546-7.253 1.174m-10.238 192.135c-3.848 2.006-5.627 3.848-7.357 7.616-1.875 4.084-2.037 8.861-.427 12.614 1.436 3.346 6.073 7.865 9.331 9.093 1.596.602 19.541.906 53.491.906s51.895-.304 53.491-.906c3.258-1.228 7.895-5.747 9.331-9.093 1.544-3.598 1.493-8.075-.135-11.971-1.693-4.053-3.489-5.992-7.4-7.987-3.005-1.534-5.823-1.616-55.466-1.611-45.761.005-52.621.172-54.859 1.339m15.617 48.184c-1.735.916-4.231 3.077-5.547 4.802-2.111 2.769-2.392 3.862-2.392 9.311 0 5.599.24 6.47 2.581 9.363 5.281 6.525 4.094 6.356 44.586 6.356 33.741 0 36.308-.106 39.267-1.616 5.589-2.853 8.713-7.933 8.713-14.171 0-6.238-3.124-11.318-8.713-14.171-2.963-1.512-5.483-1.613-39.253-1.578-34.106.036-36.261.129-39.242 1.704" fill-rule="evenodd"/></svg>