<svg xmlns="http://www.w3.org/2000/svg" width="512" height="512"><path d="M237.227 17.16c-21.141 2.394-42.453 9.454-61.143 20.254-53.34 30.824-83.936 88.655-79.599 150.453 2.54 36.198 15.51 69.595 37.066 95.444 2.937 3.522 11.872 12.642 19.855 20.265 20.701 19.771 31.134 32.651 36.194 44.683 1.821 4.33 1.949 5.956 2.226 28.274l.294 23.68h47.667V268.994l-21.743-12.257c-11.958-6.741-21.75-12.542-21.76-12.891-.033-1.188 17.211-25.393 18.089-25.393.481 0 9.753 4.704 20.604 10.454 10.851 5.749 20.116 10.551 20.589 10.672.473.12 10.049-4.746 21.278-10.814l20.418-11.032 9.236 12.288c5.079 6.759 9.235 12.609 9.235 13.001 0 .391-9.792 6.435-21.76 13.43l-21.76 12.718v131.043h47.667l.273-23.68.274-23.68 3.494-7.253c5.455-11.325 12.764-20.183 34.501-41.813 20.358-20.258 24.271-24.746 32.369-37.12 21.51-32.869 30.172-80.628 22.157-122.162C399.84 76.578 343.134 24.687 273.74 17.117c-9.512-1.037-27.158-1.017-36.513.043M192 432.213V448h128v-31.573H192v15.786M208.213 480v15.787h95.574v-31.574h-95.574V480" fill-rule="evenodd"/></svg>