<svg xmlns="http://www.w3.org/2000/svg" width="512" height="512"><path d="M237.227 17.16c-21.141 2.394-42.453 9.454-61.143 20.254-53.34 30.824-83.936 88.655-79.599 150.453 2.54 36.198 15.51 69.595 37.066 95.444 2.937 3.522 11.872 12.642 19.855 20.265 20.757 19.824 31.262 32.807 36.155 44.683 1.676 4.069 1.949 6.643 2.388 22.514.541 19.619.907 21.163 6.032 25.476 4.221 3.551 7.694 4.12 23.322 3.816l14.369-.278 2.057-2.395 2.058-2.394-.027-61.606c-.022-49.572-.247-61.894-1.15-63.084-.618-.813-5.693-3.752-11.28-6.53-14.162-7.045-21.618-12.362-24.023-17.132-5.985-11.868 4.012-25.191 17.065-22.743 1.577.296 6.495 2.839 10.928 5.652 9.372 5.945 19.737 10.232 24.744 10.232 4.65 0 14.399-3.986 24.529-10.028 7.411-4.421 8.692-4.903 12.969-4.879 5.996.034 10.267 2.518 13.339 7.76 1.9 3.242 2.172 4.545 1.857 8.897-.605 8.373-5.043 12.532-23.27 21.81-6.085 3.098-11.545 6.264-12.132 7.036-.832 1.093-1.074 15.034-1.096 63.009l-.027 61.606 2.058 2.394 2.057 2.395 14.369.278c15.628.304 19.101-.265 23.322-3.816 5.141-4.326 5.496-5.84 5.973-25.476l.435-17.92 3.494-7.253c5.455-11.325 12.764-20.183 34.501-41.813 20.358-20.258 24.271-24.746 32.369-37.12 21.51-32.869 30.172-80.628 22.157-122.162C399.84 76.578 343.134 24.687 273.74 17.117c-9.512-1.037-27.158-1.017-36.513.043m-36.83 400.992c-6.045 3.193-9.083 9.498-8.014 16.627.752 5.019 5.93 11.054 10.593 12.349 4.203 1.168 101.845 1.168 106.048 0 4.663-1.295 9.841-7.33 10.593-12.349 1.084-7.23-2.004-13.51-8.197-16.669-3.179-1.623-5.189-1.682-55.599-1.646-50.015.036-52.438.11-55.424 1.688m17.228 47.413c-3.9 1.691-5.834 3.518-7.796 7.361-2.964 5.807-1.462 14.53 3.231 18.775 4.362 3.944 5.878 4.087 43.126 4.067 32.353-.017 35.506-.147 38.641-1.586 4.06-1.865 5.879-3.768 7.647-7.999a15.888 15.888 0 0 0 0-12.366c-1.768-4.231-3.587-6.134-7.647-7.999-3.14-1.442-6.252-1.566-38.827-1.553-29.629.013-35.897.225-38.375 1.3" fill-rule="evenodd"/></svg>