<svg xmlns="http://www.w3.org/2000/svg" width="512" height="512"><path d="M78.08 34.439c-2.347 1.098-5.846 3.716-7.776 5.819-6.893 7.509-6.346-10.232-6.098 197.852l.221 185.57 2.472 5.353c1.733 3.752 4.092 6.868 7.893 10.424l5.421 5.071v35.899h71.68V448h208.214v32.427h71.68v-35.899l5.421-5.071c3.801-3.556 6.16-6.672 7.893-10.424l2.472-5.353.221-185.57c.248-208.084.795-190.343-6.098-197.852-1.93-2.103-5.429-4.721-7.776-5.819l-4.267-1.996H82.347l-4.267 1.996m337.493 45.774v16.214H96.427V64h319.146v16.213m-175.786 128v80.214H96.427V128h143.36v80.213m175.786 0v80.214h-143.36V128h143.36v80.213M157.521 339.202c6.43 3.146 12.632 9.365 15.541 15.583 2.01 4.298 2.287 5.935 2.272 13.428-.016 7.893-.219 8.923-2.712 13.729-8.846 17.058-29.974 23.098-45.637 13.048-20.545-13.184-19.258-44.138 2.295-55.164 6.009-3.074 8.439-3.567 16.306-3.307 5.591.185 7.881.7 11.935 2.683m223.733-.028c3.736 1.685 6.753 3.92 9.954 7.379 6.067 6.552 8.342 12.464 8.38 21.772.024 5.961-.333 7.71-2.534 12.414-4.599 9.826-11.521 15.682-21.585 18.261-14.214 3.641-29.253-3.618-36.035-17.396-2.563-5.206-2.794-6.345-2.794-13.799 0-6.996.313-8.792 2.249-12.921 3.96-8.447 10.908-14.595 19.755-17.482 5.891-1.923 16.209-1.114 22.61 1.772" fill-rule="evenodd"/></svg>