<svg xmlns="http://www.w3.org/2000/svg" width="512" height="512"><path d="M99.471 33.734C87.242 37.09 74.624 47.289 69.347 58.082c-5.738 11.738-5.396-.541-5.146 184.452l.226 167.493 1.924 5.051c2.613 6.863 5.778 12.083 10.176 16.785l3.686 3.941v11.492c0 8.315.379 12.606 1.371 15.516 1.865 5.474 8.538 12.603 14.186 15.156 4.318 1.951 5.276 2.032 24.123 2.032 19.393 0 19.684-.027 24.394-2.236 9.425-4.419 14.771-12.4 15.812-23.603l.573-6.161h190.656l.573 6.161c1.041 11.203 6.387 19.184 15.812 23.603 4.71 2.209 5.001 2.236 24.394 2.236 18.847 0 19.805-.081 24.123-2.032 5.648-2.553 12.321-9.682 14.186-15.156.992-2.91 1.371-7.201 1.371-15.516v-11.492l3.686-3.941c4.398-4.702 7.563-9.922 10.176-16.785l1.924-5.051.226-167.493c.249-184.736.59-172.465-5.117-184.28-5.385-11.149-17.867-21.19-30.528-24.56-6.745-1.795-306.136-1.756-312.683.04m309.108 33.04c4.326 2.863 6.994 7.793 6.994 12.923 0 4.966-1.189 7.979-4.509 11.42-5.421 5.62 3.597 5.31-154.324 5.31-100.879 0-144.455-.278-147.539-.939-5.028-1.078-9.865-4.844-11.621-9.047-2.434-5.825-.717-14.366 3.688-18.35 4.699-4.249-3.425-4.048 155.648-3.849l148.116.185 3.547 2.347m-169.816 62.25c.781.781 1.024 19.471 1.024 78.914v77.889l-2.024 1.326c-1.792 1.175-9.313 1.299-65.92 1.086-68.9-.258-65.394-.018-70.586-4.823-5.078-4.7-4.83-.848-4.83-75.194 0-65.38.07-68.481 1.616-71.509 1.961-3.843 3.896-5.67 7.796-7.362 2.548-1.105 11.957-1.289 67.43-1.318 49.043-.025 64.715.212 65.494.991m167.207.289c4.053 1.693 5.992 3.489 7.987 7.4 1.546 3.028 1.616 6.12 1.616 70.984 0 45.842-.294 68.597-.907 70.221-1.126 2.978-4.67 6.792-8.053 8.665-2.31 1.279-8.79 1.44-66.456 1.656-56.607.213-64.128.089-65.92-1.086l-2.024-1.326v-77.889c0-59.443.243-78.133 1.024-78.914.779-.778 16.447-1.024 65.308-1.024 55.919 0 64.692.171 67.425 1.313M157.013 338.918c6.914 3.206 12.274 8.391 15.542 15.032 2.615 5.313 2.803 6.281 2.777 14.248-.027 7.872-.239 8.954-2.684 13.669-12.551 24.204-45.156 24.176-57.129-.049-2.844-5.755-3.131-6.984-3.128-13.384.005-9.194 2.257-15.185 8.12-21.6 7.016-7.678 14.425-10.746 24.982-10.349 5.133.193 7.992.797 11.52 2.433m224.241.256c3.736 1.685 6.753 3.92 9.954 7.379 6.141 6.632 8.396 12.507 8.401 21.881.003 6.4-.284 7.629-3.128 13.384-11.973 24.225-44.578 24.253-57.129.049-2.444-4.713-2.657-5.799-2.684-13.654-.024-7.471.252-9.13 2.221-13.329 3.96-8.447 10.908-14.595 19.755-17.482 5.891-1.923 16.209-1.114 22.61 1.772" fill-rule="evenodd"/></svg>