<svg xmlns="http://www.w3.org/2000/svg" width="512" height="512"><path d="M31.573 256v239.787h128.854v-95.574H192v95.574H480.431L480.216 336 480 176.213l-80-.217-80-.218V16.213H31.573V256m80.214-160v15.787H80.213V80.213h31.574V96M192 96v15.787h-31.573V80.213H192V96m80.213 0v15.787h-32.426V80.213h32.426V96m-160.426 80.213V192H80.213v-31.573h31.574v15.786m80.213 0V192h-31.573v-31.573H192v15.786m80.213 0V192h-32.426v-31.573h32.426v15.786m175.787 160v128H320v-32.426h32.427v-31.574H320V352.464l16-.232 16-.232.232-16 .232-16H320V272.251l16-.232 16-.232v-31.574l-16-.232-16-.232v-31.536h128v128M111.787 256v16.213H80.213v-32.426h31.574V256M192 256v16.213h-31.573v-32.426H192V256m80.213 0v16.213h-32.426v-32.426h32.426V256M384 256v16.251l16-.232 16-.232v-31.574l-16-.232-16-.232V256m-272.213 80.213v16.214H80.213V320h31.574v16.213m80.213 0v16.214h-31.573V320H192v16.213m80.019-.213-.232 16h-31.574l-.232-16-.232-16h32.502l-.232 16m111.981.232v16.232l16-.232 16-.232.232-16 .232-16H384v16.232M111.787 416v15.787H80.213v-31.574h31.574V416m160.426 0v15.787h-32.426v-31.574h32.426V416M384 416v15.787h32.427v-31.574H384V416" fill-rule="evenodd"/></svg>