<svg xmlns="http://www.w3.org/2000/svg" width="512" height="512"><path d="M68.499 17.439C52.511 21.313 39.424 33.97 33.589 51.2c-1.53 4.52-1.597 12.474-1.818 215.893-.164 151.298.038 212.486.711 215.732 1.077 5.191 4.786 10.016 9.077 11.809 3.59 1.5 111.951 1.718 114.729.231 3.94-2.109 4.139-4.255 4.139-44.738 0-35.639.101-38.234 1.616-41.201 5.899-11.558 22.545-11.538 28.147.034 1.764 3.643 1.81 4.739 1.81 42.788v39.05l2.502 2.502 2.502 2.502 136.512-.221 136.512-.221 3.28-2.615c1.803-1.438 4.047-4.126 4.985-5.973 1.685-3.316 1.707-5.047 1.707-136.052 0-108.674-.209-133.543-1.155-137.387-4.079-16.577-16.79-30.093-33.405-35.519-4.298-1.403-9.777-1.557-65.067-1.827L320 175.693v-58.365c0-38.79-.312-59.881-.93-62.886-2.717-13.205-12.496-26.249-24.331-32.453-11.521-6.039-5.612-5.757-119.379-5.69-79.557.046-103.395.301-106.861 1.14m34.575 64.39c3.911 1.996 5.706 3.935 7.4 7.988 2.314 5.538 1.138 12.797-2.773 17.123-2.462 2.722-7.592 4.847-11.701 4.847-6.613 0-11.938-3.533-14.474-9.604-2.313-5.536-1.149-12.735 2.773-17.152 4.017-4.523 13.138-6.079 18.775-3.202m81.919 1.15c9.538 6.312 8.975 20.815-1.036 26.682-6.627 3.884-14.767 2.542-19.875-3.276-6.526-7.432-4.175-19.65 4.71-24.479 4.468-2.428 11.627-1.954 16.201 1.073m77.234-1.613c4.873 2.036 9.977 9.522 9.977 14.634 0 2.745-2.154 7.715-4.504 10.39-6.427 7.32-16.978 7.315-23.411-.012-4.473-5.094-5.341-11.681-2.323-17.631 1.413-2.787 5.372-6.508 8.061-7.577 3.093-1.23 9.014-1.135 12.2.196m-156.935 81.917c11.618 8.862 6.509 27.129-7.977 28.521-14.849 1.427-22.901-17.393-11.851-27.699 3.08-2.873 5.8-3.682 11.5-3.422 4.175.19 5.856.715 8.328 2.6m80.298.065c3.653 2.786 6.364 8.082 6.391 12.484.026 4.17-3.624 11.073-7.097 13.42-9.742 6.586-23.32.237-24.281-11.354-.501-6.032.14-8.267 3.447-12.033 3.764-4.287 6.863-5.515 13.128-5.204 4.191.208 5.863.743 8.412 2.687m78.534-.823c11.055 6.479 10.083 22.524-1.689 27.871-7.715 3.505-16.742.309-20.717-7.334-1.836-3.53-1.745-10.411.19-14.43 3.673-7.631 14.526-10.614 22.216-6.107m176.795 48.405c2.085 1.38 4.181 3.778 5.271 6.03l1.81 3.739v120.197c0 110.646-.112 120.32-1.412 121.757-1.344 1.485-4.45 1.56-64 1.56H320l.001-22.4v-22.4l1.83 3.697c2.791 5.638 7.345 8.25 14.386 8.25 4.91 0 6.101-.325 8.827-2.403 5.834-4.45 7.863-10.13 6.099-17.076-3.504-13.8-22.978-15.787-29.312-2.991l-1.83 3.697.018-36.694c.018-36.528.026-36.677 1.614-33.181 3.65 8.039 14.098 11.523 21.95 7.321 2.745-1.469 7.054-6.758 7.623-9.355.28-1.282.64-2.764.798-3.293.599-1.999-1.466-8.502-3.58-11.274-2.58-3.382-7.991-6.074-12.211-6.074-6.074 0-13.719 5.347-15.327 10.719-.445 1.488-.761-12.291-.794-34.649-.054-36.675-.036-37.079 1.512-33.672 3.203 7.052 10.774 10.93 17.712 9.074 5.284-1.413 7.703-3.195 10.257-7.553 6.214-10.603-1.328-23.56-13.713-23.56-6.776 0-11.757 3.31-14.501 9.637-1.198 2.763-1.295 1.346-1.326-19.437L320 208.179l58.73.231 58.729.23 3.46 2.29m-340.805 29.772c4.236 1.176 9.604 6.068 10.871 9.907 1.418 4.296.589 10.744-1.844 14.34-2.346 3.468-9.223 7.273-13.095 7.246-5.608-.041-12.918-5.179-14.925-10.491-1.247-3.3-1.138-8.621.245-11.931 1.423-3.407 6.616-8.08 9.743-8.769 1.282-.282 2.715-.641 3.184-.798 1.524-.508 2.507-.425 5.821.496m80.126-.024c6.428 1.785 11.723 8.705 11.723 15.322 0 4.067-2.569 9.409-5.854 12.173-10.266 8.638-25.682 1.428-25.682-12.011 0-7.78 4.71-13.763 12.252-15.561 3.798-.906 4.032-.904 7.561.077m84.402 2.075c4.764 3.139 7.002 7.419 7.002 13.392 0 4.184-.42 5.629-2.5 8.588-3.482 4.955-7.356 7.025-13.144 7.025s-9.662-2.07-13.144-7.025c-4.753-6.763-2.945-16.76 3.915-21.646 5.3-3.773 12.446-3.907 17.871-.334m133.438-2.545c-.469.155-1.88.508-3.134.784-5.411 1.188-10.909 8.752-10.909 15.008 0 9.864 10.077 17.97 19.279 15.509 5.284-1.413 7.703-3.195 10.257-7.553 5.719-9.758-.237-21.804-11.653-23.569-1.643-.254-3.371-.335-3.84-.179m-293.131 82.67c7.201 4.766 9.028 15.912 3.69 22.517-3.55 4.392-7.246 6.365-12.06 6.438-5.14.077-9.929-2.268-13.324-6.526-2.334-2.926-2.615-3.896-2.615-9.022 0-4.794.376-6.312 2.277-9.184 4.735-7.155 14.712-9.067 22.032-4.223m76.613-1.557c4.217 1.762 6.919 4.361 8.825 8.492 6.223 13.484-8.771 27.283-21.97 20.22-2.616-1.4-7.03-6.695-7.654-9.181-.298-1.187-.37-4.224-.16-6.75.858-10.351 11.396-16.777 20.959-12.781m80.214 0c10.786 4.507 13.506 17.797 5.317 25.986-9.976 9.976-26.96 2.65-26.756-11.542.162-11.272 11.212-18.717 21.439-14.444m132.03.27c-10.623 4.826-12.97 17.905-4.64 25.85 3.068 2.925 9.579 5.347 12.242 4.554.516-.153 1.988-.509 3.27-.789 2.597-.569 7.886-4.878 9.355-7.623 4.202-7.852.718-18.3-7.321-21.95-4.431-2.013-8.538-2.026-12.906-.042m-290.732 80.238c3.911 1.996 5.706 3.935 7.4 7.988 2.314 5.538 1.138 12.797-2.773 17.123-2.462 2.722-7.592 4.847-11.701 4.847-6.613 0-11.938-3.533-14.474-9.604-2.313-5.536-1.149-12.735 2.773-17.152 4.017-4.523 13.138-6.079 18.775-3.202m159.153-.463c4.873 2.036 9.977 9.522 9.977 14.634 0 2.745-2.154 7.715-4.504 10.39-6.427 7.32-16.978 7.315-23.411-.012-4.473-5.094-5.341-11.681-2.323-17.631 1.413-2.787 5.372-6.508 8.061-7.577 3.093-1.23 9.014-1.135 12.2.196m130.45.678c-5.497 2.721-8.25 7.378-8.25 13.956 0 6.725 2.764 11.287 8.529 14.078 12.465 6.034 25.604-4.741 22.187-18.197-2.461-9.694-13.229-14.409-22.466-9.837" fill-rule="evenodd"/></svg>