<svg xmlns="http://www.w3.org/2000/svg" width="512" height="512"><path d="M67.954 17.567C52.981 21.191 39.512 33.904 34.215 49.41L32 55.893v213.334c0 117.333.294 214.382.652 215.664.904 3.228 5.594 8.358 8.907 9.743 4.112 1.718 424.77 1.718 428.882 0 4.303-1.798 7.999-6.617 9.085-11.844.677-3.264.878-42.05.703-135.945-.232-124.837-.322-131.612-1.811-136.072-5.33-15.961-17.126-27.748-32.978-32.951-4.308-1.414-9.647-1.564-65.04-1.835l-60.346-.294-.241-60.753c-.241-60.524-.249-60.775-2.17-66.433-5.235-15.417-20.272-28.449-36.344-31.497-2.465-.468-46.34-.767-106.269-.726-85.068.06-102.904.273-107.076 1.283m211.949 32.909c2.277 1.339 4.629 3.651 5.76 5.663l1.91 3.4v404.674H192v-25.757c0-24.503-.088-25.939-1.81-29.496-2.762-5.705-7.311-8.32-14.475-8.32-5.152 0-6.081.273-9.022 2.65-6.7 5.416-6.66 5.215-6.962 34.683l-.269 26.24H64l.019-201.6c.018-193.743.08-201.734 1.585-205.048 1.802-3.967 6.028-7.845 9.342-8.573 1.254-.276 2.665-.633 3.134-.793.469-.161 45.205-.223 99.413-.139l98.56.153 3.85 2.263M89.625 81.565c-5.922 2.568-9.412 7.923-9.412 14.443 0 8.873 6.914 15.779 15.795 15.779 8.869 0 15.779-6.914 15.779-15.787 0-11.464-11.597-19.018-22.162-14.435m79.762.064c-4.413 2.322-7.249 5.619-8.522 9.906-4.207 14.166 11.102 25.709 23.592 17.788 7.606-4.823 9.708-14.651 4.74-22.159-4.023-6.079-13.66-8.772-19.81-5.535m80.213-.206c-5.118 2.284-9.837 9.397-9.795 14.763.049 6.148 6.549 14.141 12.391 15.237 4.483.841 9.478-.068 12.831-2.335 3.39-2.293 7.195-9.216 7.168-13.042-.041-5.608-5.179-12.918-10.491-14.925-3.257-1.231-8.991-1.088-12.104.302M88.807 161.874c-1.609.847-4.088 2.994-5.508 4.771-2.118 2.651-2.639 4.184-2.896 8.533-.279 4.709-.032 5.742 2.211 9.232 6.396 9.954 20.411 9.979 26.709.047 4.496-7.089 2.959-15.477-3.845-20.984-4.043-3.273-12.033-4.039-16.671-1.599m80.564-.304c-3.303 1.498-7.919 6.747-8.577 9.752-.28 1.282-.674 2.852-.874 3.489-.2.637.06 2.749.577 4.694 2.156 8.107 9.28 13.141 17.26 12.196 14.199-1.681 19.182-19.697 7.842-28.346-2.559-1.952-4.226-2.485-8.421-2.694-3.151-.157-6.256.205-7.807.909m78.372 1.009c-10.984 6.584-9.943 22.473 1.822 27.817 8.122 3.689 17.174.157 21.035-8.209 2.153-4.663 2.006-7.837-.602-13.072-4.184-8.395-14.23-11.346-22.255-6.536m193.176 48.351c2.085 1.38 4.181 3.778 5.271 6.03l1.81 3.739v243.514H320l.001-22.4v-22.4l1.83 3.697c2.791 5.638 7.345 8.25 14.386 8.25 4.91 0 6.101-.325 8.827-2.403 5.834-4.45 7.863-10.13 6.099-17.076-3.504-13.8-22.978-15.787-29.312-2.991l-1.83 3.697.018-36.694c.018-36.528.026-36.677 1.614-33.181 3.65 8.039 14.098 11.523 21.95 7.321 2.745-1.469 7.054-6.758 7.623-9.355.28-1.282.64-2.764.798-3.293.599-1.999-1.466-8.502-3.58-11.274-2.58-3.382-7.991-6.074-12.211-6.074-6.074 0-13.719 5.347-15.327 10.719-.445 1.488-.761-12.291-.794-34.649-.054-36.675-.036-37.079 1.512-33.672 3.203 7.052 10.774 10.93 17.712 9.074 5.284-1.413 7.703-3.195 10.257-7.553 6.214-10.603-1.328-23.56-13.713-23.56-6.776 0-11.757 3.31-14.501 9.637-1.198 2.763-1.295 1.346-1.326-19.437L320 208.179l58.73.231 58.729.23 3.46 2.29M94.293 240.206c-.469.157-1.902.516-3.184.798-3.127.689-8.32 5.362-9.743 8.769-1.383 3.31-1.492 8.631-.245 11.931 2.007 5.312 9.317 10.45 14.925 10.491 3.872.027 10.749-3.778 13.095-7.246 2.433-3.596 3.262-10.044 1.844-14.34-2.004-6.071-11.652-12.084-16.692-10.403m78.386.395c-7.42 1.769-12.449 7.99-12.449 15.399 0 13.489 15.597 20.825 25.879 12.173 3.285-2.764 5.854-8.106 5.854-12.173 0-6.617-5.295-13.537-11.723-15.322-3.529-.981-3.763-.983-7.561-.077m79.279-.02c-11.81 2.961-15.833 17.931-7.152 26.613 8.717 8.717 23.391 4.82 26.59-7.062 3.13-11.621-7.685-22.498-19.438-19.551m146.122-.373c-.469.155-1.88.508-3.134.784-5.411 1.188-10.909 8.752-10.909 15.008 0 9.864 10.077 17.97 19.279 15.509 5.284-1.413 7.703-3.195 10.257-7.553 5.719-9.758-.237-21.804-11.653-23.569-1.643-.254-3.371-.335-3.84-.179M88.89 321.777c-12.746 6.495-10.981 25.431 2.735 29.355 13.287 3.8 24.288-9.184 18.626-21.985-3.443-7.783-13.643-11.302-21.361-7.37m80.398-.144c-8.039 3.65-11.523 14.098-7.321 21.95 1.469 2.745 6.758 7.054 9.355 7.623 1.282.28 2.839.668 3.459.862 2.532.79 8.986-1.702 12.101-4.673 8.282-7.899 5.903-20.992-4.688-25.804-4.368-1.984-8.475-1.971-12.906.042m80.277-.029c-12.078 5.486-12.68 22.429-1.009 28.383 9.56 4.877 20.087.046 22.912-10.515 2.503-9.36-5.515-19.435-15.468-19.435-1.643 0-4.539.705-6.435 1.567m144.241-.013c-10.623 4.826-12.97 17.905-4.64 25.85 3.068 2.925 9.579 5.347 12.242 4.554.516-.153 1.988-.509 3.27-.789 2.597-.569 7.886-4.878 9.355-7.623 4.202-7.852.718-18.3-7.321-21.95-4.431-2.013-8.538-2.026-12.906-.042M89.625 401.565c-5.922 2.568-9.412 7.923-9.412 14.443 0 8.873 6.914 15.779 15.795 15.779 8.869 0 15.779-6.914 15.779-15.787 0-11.464-11.597-19.018-22.162-14.435m159.975-.142c-5.118 2.284-9.837 9.397-9.795 14.763.049 6.148 6.549 14.141 12.391 15.237 4.483.841 9.478-.068 12.831-2.335 3.39-2.293 7.195-9.216 7.168-13.042-.041-5.608-5.179-12.918-10.491-14.925-3.257-1.231-8.991-1.088-12.104.302m143.077.621c-5.497 2.721-8.25 7.378-8.25 13.956 0 6.725 2.764 11.287 8.529 14.078 12.465 6.034 25.604-4.741 22.187-18.197-2.461-9.694-13.229-14.409-22.466-9.837" fill-rule="evenodd"/></svg>