<svg xmlns="http://www.w3.org/2000/svg" width="512" height="512"><path d="M88.89 65.831c-2.164 1.071-4.64 3.256-5.973 5.271l-2.277 3.44V287.147l2.334 8.349c5.062 18.105 12.852 31.681 25.35 44.18 12.499 12.498 26.075 20.288 44.18 25.35l8.349 2.334h141.654l7.655-1.949c38.233-9.733 65.77-39.477 72.552-78.369 1.033-5.922 1.286-15.977 1.286-51.11v-43.738l14.72-.415c9.983-.281 16.347-.871 19.778-1.832 20.383-5.712 36.663-21.948 43.29-43.174 1.909-6.113 1.999-7.545 1.999-32 0-24.748-.066-25.762-1.966-30.465-2.332-5.772-8.253-12.647-13.581-15.769-8.042-4.713.189-4.511-184.56-4.525l-171.093-.013-3.697 1.83m262.683 123.046c0 89.201-.059 92.681-1.681 99.026-5.634 22.028-22.709 39.504-44.864 45.918l-6.788 1.966H165.973l-6.664-1.932c-22.311-6.466-38.962-23.149-45.21-45.297-1.828-6.481-1.844-7.247-2.113-99.331l-.27-92.8h239.857v92.45m80.043-71.757c-.25 20.24-.304 20.796-2.47 25.387-1.217 2.581-3.888 6.358-5.934 8.394-7.127 7.089-14.974 9.507-30.892 9.519l-8.32.007v-64H431.871l-.255 20.693M57.6 401.424c-5.293 2.38-9.776 9.063-9.776 14.576 0 5.532 5.168 12.875 10.472 14.879 1.668.63 54.802.908 173.894.908 143.72 0 171.936-.191 174.237-1.175 6.509-2.785 10.553-10.894 8.969-17.984-.985-4.412-2.431-6.594-6.352-9.585l-3.151-2.403-172.867-.183c-143.489-.152-173.301.012-175.426.967" fill-rule="evenodd"/></svg>