<svg xmlns="http://www.w3.org/2000/svg" width="512" height="512"><path d="M131.413 33.654c-15.759 4.461-28.641 16.927-33.522 32.444L96 72.107v367.786l1.891 6.009c4.254 13.523 16.055 26.174 29.004 31.094 8.908 3.385 14.311 3.516 133.798 3.241 107.2-.246 115.551-.369 120.256-1.772 15.722-4.688 28.8-17.763 33.525-33.516 1.428-4.763 1.531-15.439 1.768-184.256.177-125.709-.026-181.326-.678-186.322-1.569-12.021-5.185-19.383-13.804-28.099-5.378-5.439-10.789-9.013-17.463-11.534l-4.99-1.885-122.027-.143c-96.596-.113-122.827.084-125.867.944m244.696 32.752c1.526 1.089 3.83 3.363 5.12 5.054l2.344 3.074v363.068l-2.609 3.224c-1.435 1.773-3.671 4.016-4.969 4.985-2.358 1.761-2.462 1.762-119.995 1.762s-117.637-.001-119.995-1.762c-1.298-.969-3.534-3.212-4.969-4.985l-2.609-3.224-.25-178.481c-.137-98.165-.01-180.162.282-182.217.422-2.962 1.378-4.582 4.615-7.819 2.245-2.245 4.998-4.259 6.118-4.474 1.119-.215 54.259-.344 118.088-.287l116.053.103 2.776 1.979m-222.952 31.21c-3.528 1.537-7.899 6.721-8.516 10.099-.28 1.535-.395 18.756-.255 38.269l.254 35.476 2.29 3.46c1.379 2.083 3.779 4.18 6.03 5.27l3.739 1.81h198.602l3.739-1.81c2.251-1.09 4.651-3.187 6.03-5.27l2.29-3.46.254-35.476c.14-19.513.025-36.734-.255-38.269-.634-3.472-5.043-8.606-8.705-10.135-4.026-1.683-201.633-1.648-205.497.036M336.019 144l-.232 16H176.213l-.232-16-.232-16h160.502l-.232 16M159.96 225.558c-9.842 3.792-15.747 12.158-15.747 22.311 0 15.852 15.149 27.504 30.107 23.155 17.168-4.991 23.275-25.803 11.376-38.766-4.884-5.32-10.573-7.83-17.589-7.758-3.051.031-6.717.507-8.147 1.058m85.071 1.501c-7.671 3.834-11.919 10.124-12.708 18.819-.902 9.952 3.981 18.734 12.974 23.334 18.454 9.437 39.292-7.791 33.714-27.874-1.618-5.825-6.062-11.124-11.855-14.138-7.451-3.876-14.56-3.921-22.125-.141m89.049-.664c-20.109 9.614-17.786 38.412 3.6 44.629 11.73 3.41 25.031-3.598 28.892-15.222 1.751-5.27 1.329-13.417-.938-18.12-3.915-8.126-11.11-12.62-20.887-13.047-5.358-.234-7.095.052-10.667 1.76M161.965 304.94c-11.558 3.23-18.49 13.108-17.589 25.063 1.117 14.821 14.883 24.789 29.176 21.127 11.676-2.991 19.118-13.144 18.212-24.846-1.154-14.913-15.653-25.298-29.799-21.344m87.894 0c-11.692 3.267-18.616 13.273-17.523 25.324.932 10.276 7.934 18.232 18.409 20.915 4.745 1.216 5.75 1.219 10.361.038 11.445-2.932 18.649-11.773 18.75-23.011.052-5.759-1.353-9.891-5.004-14.723-5.562-7.358-16.21-10.998-24.993-8.543m87.893 0c-8.073 2.256-14.706 8.823-16.905 16.737-.497 1.792-.839 20.711-.842 46.598-.006 48.954-.074 48.338 6.136 55.393 4.578 5.2 9.133 7.423 16.262 7.935 10.025.719 19.043-4.643 23.371-13.896l1.996-4.267.008-44.861c.007-38.35-.184-45.427-1.318-48.754-3.777-11.087-17.269-18.082-28.708-14.885m-177.403 80.334c-4.848 1.557-11.348 7.16-13.739 11.843-2.566 5.026-3.072 13.882-1.089 19.075 2.079 5.444 7.984 11.563 13.409 13.897 3.607 1.552 5.514 1.827 10.422 1.507 7.383-.483 11.836-2.621 16.507-7.928 10.352-11.761 7.204-29.054-6.663-36.601-5.431-2.956-12.988-3.675-18.847-1.793m87.544.187c-5.95 2.035-12.482 8.657-14.483 14.683-1.813 5.456-1.448 13.545.812 18.028 2.044 4.054 7.019 9.127 11.111 11.33 4.614 2.484 16.426 2.633 20.907.264 14.118-7.462 17.977-25.47 7.965-37.167-6.228-7.276-17.203-10.254-26.312-7.138" fill-rule="evenodd"/></svg>