<svg xmlns="http://www.w3.org/2000/svg" viewBox="0 0 512 512"><path d="M119.359 34.872c-5.767 3.657-7.084 7.023-7.426 18.991l-.284 9.916-13.371.456c-18.623.636-27.38 3.31-39.905 12.189-14.524 10.295-23.762 26.467-25.931 45.395-1.413 12.335-1.156 18.694.838 20.688 1.698 1.698 2.844 1.706 222.72 1.706s221.022-.008 222.72-1.706c1.994-1.994 2.251-8.353.838-20.688-2.169-18.928-11.407-35.1-25.931-45.395-12.54-8.889-21.276-11.553-39.974-12.191l-13.44-.458v-9.107c0-7.971-.262-9.633-2.105-13.332-4.38-8.788-14.535-11.674-22.749-6.464-5.782 3.666-7.083 7.013-7.429 19.101L367.644 64H144.213v-9.219c0-8.091-.257-9.736-2.105-13.445-4.38-8.788-14.535-11.674-22.749-6.464M33.253 177.521c-1.73 1.729-1.734 2.048-1.47 124.8.298 138.715-.307 126.59 7.085 141.839 6.238 12.869 16.097 22.729 28.972 28.976C83.316 480.644 65.674 480 256 480s172.684.644 188.16-6.864c12.875-6.247 22.734-16.107 28.972-28.976 7.392-15.249 6.787-3.124 7.085-141.839.264-122.752.26-123.071-1.47-124.8l-1.734-1.734H34.987l-1.734 1.734" fill-rule="evenodd"/></svg>