<svg xmlns="http://www.w3.org/2000/svg" viewBox="0 0 512 512"><path d="M119.359 34.872c-5.767 3.657-7.084 7.023-7.426 18.991l-.284 9.916-13.371.456c-18.623.636-27.38 3.31-39.905 12.189-14.524 10.295-23.762 26.467-25.931 45.395-1.413 12.335-1.156 18.694.838 20.688 1.698 1.698 2.844 1.706 222.72 1.706s221.022-.008 222.72-1.706c1.994-1.994 2.251-8.353.838-20.688-2.169-18.928-11.407-35.1-25.931-45.395-12.54-8.889-21.276-11.553-39.974-12.191l-13.44-.458v-9.107c0-7.971-.262-9.633-2.105-13.332-4.38-8.788-14.535-11.674-22.749-6.464-5.782 3.666-7.083 7.013-7.429 19.101L367.644 64H144.213v-9.219c0-8.091-.257-9.736-2.105-13.445-4.38-8.788-14.535-11.674-22.749-6.464M33.253 177.521c-1.73 1.729-1.734 2.048-1.47 124.8.298 138.715-.307 126.59 7.085 141.839 6.238 12.869 16.097 22.729 28.972 28.976C83.316 480.644 65.674 480 256 480s172.684.644 188.16-6.864c12.875-6.247 22.734-16.107 28.972-28.976 7.392-15.249 6.787-3.124 7.085-141.839.264-122.752.26-123.071-1.47-124.8l-1.734-1.734H34.987l-1.734 1.734m171.364 31.576c14.576 2.365 26.152 8.038 35.631 17.463 10.415 10.354 15.065 21.978 15.011 37.518-.031 8.742-1.361 15.591-4.332 22.307-2.164 4.892-7.747 12.928-11.431 16.453l-3.022 2.892 3.902 3.224c8.722 7.208 14.852 17.092 18.269 29.455 2.386 8.634 2.603 23.531.47 32.258-4.237 17.339-17.612 32.251-35.356 39.418-20.185 8.153-41.842 7.762-59.491-1.074-8.198-4.104-12.862-7.69-20.329-15.627-9.969-10.598-12.67-17.809-9.506-25.38 2.536-6.071 7.861-9.604 14.474-9.604 5.435 0 10.013 2.601 13.945 7.925 5.133 6.948 12.305 13.044 17.844 15.168 10.268 3.937 24.002 2.83 34.534-2.783 9.347-4.982 13.463-12.11 13.463-23.313 0-11.402-3.574-18.577-12.084-24.26-6.356-4.244-13.177-6.831-20.769-7.876-9.779-1.346-11.966-2.177-15.22-5.779-7.148-7.911-5.686-19.233 3.134-24.274 2.104-1.202 5.722-2.26 8.87-2.593 18.109-1.916 30.917-12.672 30.941-25.983.013-6.974-1.587-11.126-5.992-15.55-4.561-4.58-10.748-7.206-20.025-8.496-12.634-1.757-21.821 1.519-29.824 10.634-5.736 6.533-10.27 8.751-16.031 7.84-11.598-1.832-17.07-14.219-10.976-24.845 1.354-2.36 5.187-6.861 8.517-10.003 7.093-6.691 18.383-12.615 27.833-14.603 7.078-1.489 20.045-1.73 27.55-.512m154.576 4.878c1.609.82 4.105 2.967 5.546 4.771l2.621 3.279V401.618l-2.133 3.152c-2.435 3.598-9.222 7.39-13.227 7.39-4.004 0-10.792-3.792-13.227-7.389l-2.133-3.152-.227-72.383c-.126-39.81-.431-72.383-.679-72.383-.247 0-5.713 3.885-12.145 8.632-13.061 9.639-14.324 10.295-19.868 10.321-4.469.02-7.917-1.531-11.137-5.01-3.359-3.629-4.159-5.692-4.143-10.687.025-8.032 1.416-9.517 26.032-27.789 12.192-9.049 23.511-17.198 25.154-18.109 4.057-2.249 15.35-2.386 19.566-.236" fill-rule="evenodd"/></svg>