<svg xmlns="http://www.w3.org/2000/svg" viewBox="0 0 512 512"><path d="M119.743 34.579c-6.164 3.695-7.482 6.871-7.828 18.859l-.298 10.345-13.782.464c-15.16.51-19.398 1.389-29.251 6.068-17.261 8.197-29.899 23.529-35.068 42.545-1.331 4.894-1.472 17.319-1.736 152.953-.193 98.881.007 150.383.606 155.975 1.734 16.211 7.714 28.706 19.037 39.78 10.883 10.644 22.666 16.237 37.876 17.979 10.339 1.185 323.063 1.185 333.402 0 15.508-1.777 28.028-7.887 38.867-18.97 10.873-11.117 16.344-22.877 18.046-38.789.599-5.592.799-57.094.606-155.975-.264-135.634-.405-148.059-1.736-152.953-5.236-19.259-18.058-34.601-35.893-42.947-9.158-4.286-13.576-5.167-28.426-5.666l-13.782-.464-.298-10.345c-.261-9.053-.547-10.745-2.293-13.552-6.157-9.903-21.427-9.903-27.584 0-1.749 2.812-2.032 4.496-2.296 13.661L367.611 64H144.389l-.301-10.453c-.264-9.165-.547-10.849-2.296-13.661-4.505-7.247-14.714-9.704-22.049-5.307m307.32 63.616c9.904 3.706 17.74 12.592 19.81 22.466.6 2.863 1.099 9.334 1.109 14.379l.018 9.173H64v-8.676c0-12.472 1.257-18.524 5.075-24.431 3.82-5.91 8.688-9.946 15.253-12.646l4.845-1.993 166.582-.02c166.462-.02 166.584-.019 171.308 1.748m20.74 201.538-.23 123.947-2.407 5.209c-3.046 6.59-9.646 13.162-16.366 16.296l-5.12 2.388H88.32l-5.209-2.407c-6.59-3.046-13.162-9.646-16.296-16.366l-2.388-5.12-.23-123.947-.23-123.946h384.066l-.23 123.946M289.274 208.96c-6.839 2.243-13.248 8.29-15.763 14.874-1.973 5.166-1.461 14.035 1.099 19.049 2.368 4.638 8.669 10.096 13.589 11.773 15.593 5.313 31.801-6.399 31.801-22.979 0-7.992-4.986-16.193-12.535-20.617-2.994-1.755-5.225-2.322-9.955-2.531-3.353-.149-7.059.045-8.236.431m77.684 1.022c-5.543 2.514-9.083 5.474-11.52 9.631-9.786 16.701 3.152 37.632 22.343 36.146 10.082-.781 18.381-7.593 21.243-17.439 3.36-11.558-3.537-24.926-14.849-28.78-5.423-1.848-12.574-1.665-17.217.442m-241.091 80.452c-4.806 2.243-9.929 7.46-12.046 12.267-2.116 4.805-2.01 14.222.215 19.006 4.137 8.895 12.347 14.091 22.071 13.966 7.112-.091 11.081-1.647 16.174-6.341 12.176-11.224 9.217-31.275-5.713-38.715-5.982-2.98-14.544-3.056-20.701-.183m80.213-.039c-20.109 9.614-17.786 38.412 3.6 44.629 11.73 3.41 25.031-3.598 28.892-15.222 1.751-5.27 1.329-13.417-.938-18.12-3.915-8.126-11.11-12.62-20.887-13.047-5.358-.234-7.095.052-10.667 1.76m81.88-.837c-9.842 3.792-15.747 12.158-15.747 22.311 0 15.852 15.149 27.504 30.107 23.155 17.168-4.991 23.275-25.803 11.376-38.766-4.884-5.32-10.573-7.83-17.589-7.758-3.051.031-6.717.507-8.147 1.058m77.472 1.059c-14.963 7.457-17.916 27.466-5.713 38.715 5.093 4.694 9.062 6.25 16.174 6.341 7.159.092 12.016-1.858 16.969-6.811 4.953-4.953 6.903-9.81 6.811-16.969-.089-6.997-1.604-10.96-6.092-15.939-6.855-7.604-18.984-9.904-28.149-5.337m-234.833 78.077c-7.842 1.588-15.274 8.692-17.652 16.873-5.644 19.412 15.143 36.842 33.327 27.946 8.439-4.129 13.486-12.078 13.555-21.348.112-15.25-13.973-26.56-29.23-23.471m79.153.246c-13.788 3.853-21.096 18.195-16.027 31.455 2.914 7.623 8.634 12.663 16.723 14.735 5.634 1.444 11.688.818 16.584-1.713 3.706-1.917 8.694-7.138 10.602-11.099 2.267-4.703 2.689-12.85.938-18.12-3.786-11.4-17.206-18.504-28.82-15.258m80.213 0c-11.558 3.23-18.49 13.108-17.589 25.063 1.117 14.821 14.883 24.789 29.176 21.127 11.676-2.991 19.118-13.144 18.212-24.846-1.154-14.913-15.653-25.298-29.799-21.344" fill-rule="evenodd"/></svg>