<svg xmlns="http://www.w3.org/2000/svg" viewBox="0 0 512 512"><path d="M111.787 48.165v15.739l-31.36.261c-30.665.256-31.44.304-34.964 2.187-4.898 2.617-9.4 7.291-11.603 12.044-1.763 3.807-1.831 5.07-1.845 34.671L32 143.787h448l-.015-30.72c-.014-29.601-.082-30.864-1.845-34.671-2.203-4.753-6.705-9.427-11.603-12.044-3.524-1.883-4.299-1.931-34.964-2.187l-31.36-.261V32.427h-48.64V64H160.427V32.427h-48.64v15.738M31.774 326.613 32 461.227l2.381 4.848c2.697 5.493 6.832 9.501 12.509 12.128L50.773 480h410.454l4.848-2.381c5.493-2.697 9.501-6.832 12.128-12.509l1.797-3.883.229-134.614.229-134.613H31.547l.227 134.613" fill-rule="evenodd"/></svg>