<svg xmlns="http://www.w3.org/2000/svg" width="512" height="512"><path d="M130.431 34.981c-23.682 8.911-45.288 19.971-65.578 33.569-16.085 10.779-31.667 22.846-32.514 25.179-.284.78.591 5.642 1.942 10.804 9.277 35.433 29.057 79.221 56.858 125.867 13.786 23.13 30.31 46.426 45.398 64 19.622 22.856 56.223 59.463 79.356 79.368 51.385 44.216 133.406 88.722 191.574 103.951 5.162 1.351 10.032 2.226 10.821 1.942 1.678-.602 13.669-15.548 21.503-26.803 15.422-22.155 28.39-47.23 37.794-73.081l2.934-8.062-6.053-5.738c-9.384-8.894-24.294-20.174-44.813-33.899-29.826-19.952-71.832-44.505-76.141-44.505-1.91 0-11.817 7.593-28.392 21.761-13.145 11.236-12.975 11.139-17.254 9.857-9.476-2.839-28.549-13.96-44.613-26.012-11.443-8.586-31.272-27.841-40.043-38.886-14.088-17.737-30.416-45.638-30.605-52.293-.073-2.591 1.242-4.54 10.568-15.653 17.698-21.092 21.254-25.706 21.254-27.581 0-3.512-12.305-25.807-29.694-53.806-19.003-30.597-36.501-54.767-49.577-68.48-4.59-4.814-5.633-4.92-14.725-1.499" fill-rule="evenodd"/></svg>