<svg xmlns="http://www.w3.org/2000/svg" width="512" height="512"><path d="M191.776 81.568c-6.746 2.097-11.559 7.904-28.629 34.544-15.091 23.552-17.23 26.327-21.28 27.609-1.913.605-1.92.571-1.92-8.902 0-9.374-.036-9.546-2.495-12.005l-2.494-2.494h-22.735c-13.961 0-23.369.339-24.377.879-3.146 1.683-4.219 5.357-4.219 14.439v8.575H50.619l-5.222 2.61c-5.774 2.885-8.922 6.111-11.612 11.897L32 162.56v250.88l1.834 3.967c2.21 4.782 7.235 9.988 11.848 12.275 3.338 1.655 6.264 1.678 210.318 1.678s206.98-.023 210.318-1.678c4.613-2.287 9.638-7.493 11.848-12.275L480 413.44V288c0-117.25-.097-125.654-1.481-128.715-2.382-5.267-6.173-9.431-11.043-12.129l-4.543-2.516-46.57-.427-46.571-.426-2.943-2.018c-2.058-1.411-7.549-9.234-18.265-26.027-16.146-25.299-19.954-30.253-25.559-33.254-3.44-1.842-3.662-1.849-65.318-2.016-52.562-.142-62.478.023-65.931 1.096M274.613 178c35.425 6.369 65.469 35.093 73.722 70.483l1.753 7.517 22.29.024 22.289.024-29.235 29.05-29.235 29.05-29.41-28.861-29.41-28.86 20.438-.229 20.439-.228-1.994-5.494c-6.638-18.287-22.168-33.204-41.06-39.438-6.001-1.98-8.272-2.262-18.773-2.325-10.285-.063-12.834.206-18.325 1.93-7.536 2.366-13.426 5.215-19.035 9.208l-4.079 2.903-11.61-11.37-11.609-11.371 5.875-4.354c22.52-16.69 48.812-22.722 76.969-17.659m-40.8 109.782c0 .355-8.832.645-19.626.645-15.745 0-19.627.224-19.627 1.133 0 .623.999 3.599 2.219 6.613 7.205 17.792 23.517 32.185 42.629 37.614 8.752 2.485 23.599 2.661 31.952.378 6.594-1.803 16.015-6.105 21.295-9.725 2.71-1.857 4.181-2.384 5.12-1.833.725.425 5.926 5.196 11.558 10.603l10.24 9.83-4.221 3.918c-8.073 7.491-22.148 14.44-37.514 18.522-5.868 1.558-9.211 1.83-22.265 1.81-13.854-.021-16.169-.242-23.611-2.257-21.925-5.935-39.861-17.84-52.933-35.136-6.77-8.959-13.722-23.373-16.171-33.532l-1.914-7.938h-43.601l29.43-29.44 29.431-29.44 28.805 28.795c15.842 15.837 28.804 29.085 28.804 29.44" fill-rule="evenodd"/></svg>