<svg xmlns="http://www.w3.org/2000/svg" width="512" height="512"><path d="M201.813 80.764c-8.776 1.967-19.103 7.718-24.122 13.435-1.381 1.572-8.711 12.605-16.289 24.517-13.372 21.018-15.485 23.723-19.535 25.005-1.859.588-1.92.427-1.92-5.024 0-8.673-2.577-13.629-8.713-16.761-2.769-1.413-5.145-1.616-18.931-1.616-16.774 0-19.088.413-22.993 4.108-3.679 3.481-4.931 6.576-5.453 13.485l-.477 6.3-4.783.013c-19.432.051-37.74 13.74-44.382 33.184L32 183.893v208.214l2.215 6.483c5.323 15.582 18.372 27.908 33.798 31.926 7.375 1.921 368.599 1.921 375.974 0 7.31-1.904 14.349-5.798 20.092-11.115 6.603-6.114 10.929-12.682 13.706-20.811l2.215-6.483V183.893l-2.215-6.483c-5.37-15.719-18.806-28.27-34.131-31.883-4.38-1.032-12.075-1.291-38.691-1.301-31.778-.012-33.382-.089-36.852-1.769-3.294-1.594-4.902-3.766-17.46-23.577-7.607-12.002-14.961-23.109-16.342-24.681-3.259-3.712-12.723-9.955-18.149-11.972-3.979-1.48-7.919-1.596-58.453-1.716-29.803-.072-54.955.042-55.894.253m105.883 32.89c1.922 1.053 6.283 7.228 16.213 22.956 7.471 11.833 15.12 23.1 16.998 25.038 4.515 4.661 10.462 8.683 16.92 11.443l5.266 2.251 36.694.436c39.703.471 39.146.404 43.692 5.273 4.735 5.071 4.521 0 4.521 106.949 0 87.079-.155 98.985-1.321 101.776-1.762 4.216-4.361 6.918-8.492 8.824-3.284 1.516-10.182 1.576-182.187 1.576-172.005 0-178.903-.06-182.187-1.576-4.131-1.906-6.73-4.608-8.492-8.824C64.155 386.985 64 375.079 64 288c0-106.949-.214-101.878 4.521-106.949 4.548-4.872 3.954-4.8 44.119-5.293 42.36-.519 41.244-.337 52.096-8.468 7.139-5.348 8.367-6.964 23.364-30.757 6.952-11.029 13.113-20.559 13.691-21.177 3.145-3.362 5.931-3.53 55.489-3.333 43.013.171 48.049.334 50.416 1.631m-61.083 63.025c-35.216 3.181-67.237 27.309-79.755 60.097-3.995 10.462-5.44 16.609-6.302 26.799-4.757 56.262 39.158 104.212 95.444 104.212 26.634 0 50.814-10.355 69.221-29.643 36.009-37.733 35.403-96.914-1.37-133.686-7.074-7.075-17.322-14.538-25.611-18.653-14.59-7.242-34.17-10.703-51.627-9.126m22.863 32.838c12.945 2.567 27.118 11.283 36.141 22.227 16.634 20.175 18.976 49.816 5.715 72.322-7.772 13.19-20.904 23.834-35.512 28.784-7.769 2.634-9.037 2.814-19.82 2.814s-12.051-.18-19.82-2.814c-4.925-1.668-10.851-4.486-14.57-6.928-42.506-27.905-38.336-89.731 7.545-111.878 11.554-5.577 26.538-7.259 40.321-4.527" fill-rule="evenodd"/></svg>