<svg xmlns="http://www.w3.org/2000/svg" width="512" height="512"><path d="M142.788 97.753c-10.256 2.249-23.207 9.496-29.58 16.55-6.204 6.866-9.337 13.262-29.188 59.563L64 220.565l.019 91.317c.018 86.75.097 91.49 1.585 94.767 2.119 4.666 6.004 7.731 11.213 8.848 5.613 1.204 32.753 1.204 38.366 0 5.209-1.117 9.094-4.182 11.213-8.848 1.218-2.681 1.571-5.586 1.585-13.049L128 384h256l.019 9.6c.014 7.463.367 10.368 1.585 13.049 2.119 4.666 6.004 7.731 11.213 8.848 5.613 1.204 32.753 1.204 38.366 0 5.209-1.117 9.094-4.182 11.213-8.848 1.488-3.276 1.567-8.015 1.585-94.725l.019-91.275-19.719-46.111c-10.846-25.361-21.006-48.247-22.578-50.857-7.933-13.173-21.565-22.714-37.132-25.989-8.548-1.798-217.564-1.742-225.783.061m225.241 33.506c3.163 1.557 6.803 4.132 8.088 5.721 1.285 1.589 8.906 18.171 16.935 36.848l14.598 33.959-75.825.218c-41.704.119-109.945.119-151.648 0l-75.823-.218 14.44-33.701c7.942-18.536 15.387-34.943 16.545-36.461 2.405-3.153 8.125-6.74 13.385-8.394 2.916-.917 23.45-1.1 108.574-.967l104.979.163 5.752 2.832m47.544 164.827v56.3H96.427V239.787h319.146v56.299m-279.566-38.933c-9.427 2.4-18.289 10.209-21.737 19.155-2.594 6.732-2.588 16.668.014 23.422 2.593 6.729 8.988 13.543 15.909 16.949 16.08 7.917 35.551.671 43.304-16.114 1.522-3.293 1.863-5.594 1.863-12.565 0-7.392-.295-9.161-2.203-13.229-6.31-13.452-22.8-21.272-37.15-17.618m225.256-.266c-8.868 1.755-18.433 9.385-22.42 17.884-1.908 4.068-2.203 5.837-2.203 13.229 0 6.971.341 9.272 1.863 12.565 9.91 21.454 37.307 25.97 53.05 8.745 5.747-6.288 8.052-12.39 8.052-21.31 0-8.657-2.301-14.945-7.643-20.887-8.024-8.925-18.926-12.556-30.699-10.226" fill-rule="evenodd"/></svg>