<svg xmlns="http://www.w3.org/2000/svg" width="512" height="512"><path d="M119.789 98.551c-1.935 1.16-4.094 2.989-4.799 4.064-.704 1.076-12.466 28.071-26.136 59.989L64 220.636v189.79l2.488 2.787L68.977 416l16.427.282c18.676.32 21.496-.011 24.345-2.86 1.979-1.979 2.038-2.434 2.038-15.73V384h288.426v13.692c0 19.477-.602 19.052 26.383 18.59l16.427-.282 2.489-2.787 2.488-2.787v-189.79l-24.854-58.032c-13.67-31.918-25.437-58.921-26.148-60.007-.711-1.085-2.905-2.918-4.874-4.072l-3.581-2.098-132.618.008-132.618.008-3.518 2.108m270.765 69.342 17.088 39.894-75.821.218c-41.702.119-109.94.119-151.642 0l-75.821-.218 17.088-39.894L138.533 128h234.934l17.087 39.893m-233.119 91.393c10.742 5.026 17.427 14.644 18.164 26.131.518 8.067-.882 13.706-4.972 20.034-10.749 16.63-33.818 19.334-48.42 5.675-12.652-11.834-13.345-31.929-1.543-44.733 9.468-10.272 24.004-13.082 36.771-7.107m223.543-.425c20.58 9.421 25.218 36.922 8.815 52.265-14.602 13.659-37.671 10.955-48.42-5.675-11.997-18.562-2.201-43.129 19.37-48.579 5.374-1.357 14.99-.413 20.235 1.989" fill-rule="evenodd"/></svg>