<svg xmlns="http://www.w3.org/2000/svg" width="512" height="512"><path d="M212.053 97.383c-39.106 2.727-66.432 8.721-86.145 18.898-6.769 3.495-10.037 5.87-15.518 11.28-6.887 6.798-7.026 7.022-17.061 27.54l-10.117 20.686H69.04c-8.028 0-15.329.403-16.84.93-3.292 1.147-4.402 4.507-4.409 13.346-.006 7.942 1.664 12.186 5.705 14.495l3.083 1.762-12.716 6.452c-19.169 9.726-20.497 10.695-22.061 16.093-4.354 15.035-5.951 42.108-5.328 90.282.427 32.982 2.376 76.764 3.562 80 .257.702 2.263 1.066 5.866 1.066h5.475l.565 4.907c.804 6.98 1.93 9.342 4.959 10.398 4.003 1.395 84.037 1.218 86.832-.193 2.546-1.284 4.153-5.496 4.219-11.058l.048-4.054h256l.048 4.054c.066 5.562 1.673 9.774 4.219 11.058 2.61 1.317 83.918 1.597 87.327.301 2.33-.885 3.533-3.85 4.422-10.895l.561-4.443 5.685-.251 5.685-.25.562-6.305c2.988-33.473 4.02-113.849 1.743-135.775-1.402-13.509-3.281-24.88-4.972-30.092-1.707-5.264-3.881-6.868-20.324-15.004l-13.276-6.569 2.962-1.596c4.389-2.364 5.879-6.963 5.413-16.713-.556-11.63-.261-11.454-19.719-11.784l-15.567-.264-6.326-13.816c-3.479-7.598-7.888-16.671-9.797-20.161-14.734-26.926-48.139-39.847-114.833-44.417-14.544-.996-71.015-.936-85.76.092m87.467 32.733c31.091 3.107 53.105 8.127 67.398 15.369 12.297 6.232 24.128 23.133 35.765 51.096l3.421 8.219H105.79l1.363-3.2c.75-1.76 2.084-5.002 2.966-7.204 3.077-7.682 11.269-23.354 15.751-30.129 8.308-12.562 16.722-18.937 31.577-23.923 14.105-4.735 37.676-8.864 60.58-10.613a3233.08 3233.08 0 0 0 15.786-1.235c8.562-.719 53.345.385 65.707 1.62m-234.24 110.5c16.022 1.449 32.327 5.664 44.561 11.52 12.867 6.159 23.425 14.139 20.829 15.743-2.63 1.625-41.423 4.302-62.644 4.322-16.519.016-17.996-.544-19.411-7.363-1.064-5.123-.819-22.142.345-24.026.745-1.205 4.645-1.252 16.32-.196m396.536.237c2.009 1.598 2.518 7.301 1.482 16.594-1.203 10.789-2.33 13.495-5.922 14.214-9.641 1.928-69.057-1.192-72.188-3.791-2.384-1.979-1.36-4.774 2.865-7.819 9.52-6.861 19.613-11.275 34.601-15.13 16.914-4.352 36.275-6.362 39.162-4.068m-174.243 65.181c29.76 3.312 61.176 11.215 77.739 19.556 9.448 4.757 10.183 7.295 5.548 19.157L368.027 352l-111.813.216-111.812.217-3.567-8.132c-3.274-7.465-3.485-8.379-2.574-11.137 1.715-5.198 7.316-7.863 32.406-15.422 14.066-4.238 35.085-8.91 49.399-10.98 21.28-3.077 44.177-3.324 67.507-.728" fill-rule="evenodd"/></svg>