<svg xmlns="http://www.w3.org/2000/svg" width="512" height="512"><path d="M220.16 97.399c-14.22 1.061-36.406 3.963-48.213 6.307-33.896 6.73-52.487 16.49-67.305 35.331-6.259 7.959-8.594 11.735-15.534 25.118l-6.137 11.835-9.699-.103c-5.334-.056-11.205.256-13.046.695-12.132 2.892-16.244 17.787-7.363 26.669l3.206 3.206-7.768 4.387c-9.912 5.599-15.928 10.203-18.861 14.436-7.712 11.128-12.205 39.087-12.96 80.64-.398 21.898-.243 26.349 1.349 38.67 1.982 15.346 5.07 31.288 7.956 41.08 2.125 7.21 6.265 12.249 11.089 13.496 2.439.631 2.909 1.212 3.597 4.443 1.184 5.558 6.429 10.632 12.264 11.863 6.132 1.294 56.582 1.283 62.636-.014 5.767-1.235 10.402-5.595 11.899-11.193l1.042-3.894 4.751-.567c2.612-.312 10.702-1.836 17.977-3.386 14.378-3.065 22.627-4.224 39.68-5.577 43.259-3.43 88.098-3.418 131.84.036 16.001 1.264 27.503 2.898 40.96 5.819 6.336 1.376 13.463 2.756 15.838 3.067 4.276.56 4.329.605 5.366 4.481 1.503 5.62 6.128 9.977 11.905 11.214 6.054 1.297 56.504 1.308 62.636.014 5.835-1.231 11.08-6.305 12.264-11.863.688-3.231 1.158-3.812 3.597-4.443 4.819-1.246 8.962-6.285 11.107-13.51 2.725-9.18 6.683-30.099 8.224-43.469 3.2-27.769.427-78.156-5.575-101.271-3.872-14.914-8.294-20.367-23.637-29.149l-9.301-5.324 3.199-3.199c8.875-8.875 4.758-23.771-7.369-26.662-1.841-.439-7.712-.751-13.046-.695l-9.699.103-6.202-11.98c-21.55-41.62-42.505-54.783-100.694-63.25-27.532-4.006-73.157-5.51-101.973-3.361m61.44 31.489c37.005 2.312 67.143 7.918 82.481 15.342 8.49 4.109 15.767 10.588 21.47 19.115 4.456 6.662 14.191 25.144 13.57 25.765-.21.21-6.29-.194-13.511-.897-35.354-3.441-70.799-4.736-129.61-4.736-58.811 0-94.256 1.295-129.61 4.736-7.221.703-13.301 1.107-13.511.897-.539-.539 8.521-18.063 12.603-24.378 7.304-11.301 15.838-18.303 27.995-22.967 26.359-10.114 82.323-15.739 128.123-12.877m53.333 87.816c33.722 1.808 58.652 4.012 78.412 6.933 11.693 1.728 11.963 1.818 20.054 6.662 4.51 2.7 11.565 6.779 15.677 9.063 6.783 3.769 7.56 4.463 8.373 7.484 3.524 13.087 6.148 40.792 6.201 65.474.041 19.09-1.298 32.897-4.841 49.92l-1.065 5.12-38.546.222-38.546.222-11.585-2.577c-21.538-4.792-45.32-7.118-87.757-8.585-27.71-.958-62.765-.12-91.521 2.189-20.314 1.631-30.965 3.112-45.815 6.373l-11.76 2.583H54.155l-1.489-8.32c-4.402-24.589-5.493-41.658-4.107-64.214 1.331-21.657 3.515-39.208 6.048-48.617.745-2.765 1.691-3.593 8.317-7.274 4.112-2.284 11.167-6.363 15.677-9.063 8.091-4.844 8.361-4.934 20.054-6.662 26.301-3.888 61.814-6.498 109.985-8.085 16.814-.554 110.4.3 126.293 1.152M81.665 241.017c-1.131 1.131-1.451 2.994-1.447 8.431.01 14.482 3.599 19.214 16.635 21.927 6.927 1.441 42.093.08 58.307-2.257 3.81-.549 5.438-2.467 4.65-5.48-.423-1.617-8.571-7.111-16.309-10.995-12.164-6.107-33.981-11.459-50.956-12.499-8.231-.505-9.613-.394-10.88.873m330.759-.353c-14.082 1.482-33.64 6.816-43.925 11.979-7.738 3.884-15.886 9.378-16.309 10.995-.788 3.013.84 4.931 4.65 5.48 16.214 2.337 51.38 3.698 58.307 2.257 13.036-2.713 16.625-7.445 16.635-21.927.006-8.86-.698-9.705-7.95-9.545-2.899.063-8.033.406-11.408.761M230.4 288.954c-51.612 5.972-69.196 10.063-80.854 18.812-9.78 7.34-6.124 17.909 8.512 24.609 7.948 3.639 17.528 3.968 106.136 3.648l80.979-.293 5.724-1.915c9.818-3.284 16.893-10.108 16.886-16.288-.012-12.233-17.112-19.238-63.996-26.217-13.309-1.981-17.951-2.248-42.667-2.462-15.253-.132-29.077-.084-30.72.106" fill-rule="evenodd"/></svg>