<svg xmlns="http://www.w3.org/2000/svg" width="512" height="512"><path d="M241.92 48.656c-32.351 2.022-64.984 12.273-93.189 29.276-53.917 32.501-89.753 86.952-98.941 150.335-2.03 14.002-2.03 41.464 0 55.466 5.257 36.266 18.79 68.894 40.768 98.296 8.04 10.755 28.658 31.373 39.413 39.413 29.402 21.978 62.03 35.511 98.296 40.768 7.099 1.029 15.606 1.485 27.733 1.485s20.634-.456 27.733-1.485c36.266-5.257 68.894-18.79 98.296-40.768 10.755-8.04 31.373-28.658 39.413-39.413 20.459-27.37 33.566-57.361 39.414-90.189 10.068-56.519-4.22-115.167-39.415-161.788-32.853-43.518-83.69-72.968-138.134-80.021-12.74-1.65-28.565-2.176-41.387-1.375m96.361 165.874c5.251 3.077 7.595 7.838 7.167 14.559-.275 4.311-.838 6.025-2.852 8.675-1.38 1.817-18.97 23.079-39.088 47.249-22.174 26.641-37.807 44.701-39.697 45.863-4.291 2.636-11.331 2.636-15.622 0-1.89-1.162-17.523-19.222-39.697-45.863-20.118-24.17-37.708-45.432-39.088-47.249-2.014-2.65-2.577-4.364-2.852-8.675-.424-6.657 1.902-11.429 7.083-14.536l3.432-2.057 78.858-.008 78.858-.008 3.498 2.05" fill-rule="evenodd"/></svg>