<svg xmlns="http://www.w3.org/2000/svg" width="512" height="512"><path d="M241.92 48.656c-32.351 2.022-64.984 12.273-93.189 29.276-53.917 32.501-89.753 86.952-98.941 150.335-2.03 14.002-2.03 41.464 0 55.466 5.257 36.266 18.79 68.894 40.768 98.296 8.04 10.755 28.658 31.373 39.413 39.413 29.402 21.978 62.03 35.511 98.296 40.768 7.099 1.029 15.606 1.485 27.733 1.485s20.634-.456 27.733-1.485c36.266-5.257 68.894-18.79 98.296-40.768 10.755-8.04 31.373-28.658 39.413-39.413 20.459-27.37 33.566-57.361 39.414-90.189 10.068-56.519-4.22-115.167-39.415-161.788-32.853-43.518-83.69-72.968-138.134-80.021-12.74-1.65-28.565-2.176-41.387-1.375m21.573 132.464c2.611 1.435 12.73 13.025 40.044 45.867 20.103 24.17 37.679 45.432 39.059 47.249 2.019 2.657 2.577 4.361 2.854 8.718.295 4.621.03 5.954-1.802 9.08-1.288 2.199-3.632 4.514-5.858 5.789l-3.71 2.124H177.92l-3.59-1.919c-2.293-1.226-4.409-3.316-5.857-5.788-1.954-3.334-2.221-4.61-1.928-9.211.238-3.735.906-6.137 2.223-7.986 1.035-1.454 18.616-22.75 39.067-47.323 39.941-47.991 40.466-48.52 48.165-48.52 2.542 0 5.271.699 7.493 1.92" fill-rule="evenodd"/></svg>