<svg xmlns="http://www.w3.org/2000/svg" width="512" height="512"><path d="M16.213 104.221v40.221l13.014-.463c9.708-.346 14.639-.932 19.413-2.308 18.426-5.311 32.344-16.882 40.564-33.724 4.928-10.096 6.275-16.185 6.938-31.36L96.692 64H16.213v40.221m111.555-25.074c-.391 12.385-.873 16.673-2.647 23.52-8.082 31.189-28.877 55.001-58.134 66.567-11.842 4.682-22.662 6.553-37.894 6.553h-12.88v64h8.443c19.642 0 34.166 2.932 48.492 9.789 22.591 10.813 38.951 28.459 48.281 52.077 4.451 11.269 5.735 18.517 6.308 35.627l.508 15.147h255.51l.508-15.147c.58-17.314 1.829-24.201 6.616-36.48 5.997-15.386 18.091-31.326 31.46-41.465 7.348-5.573 22.487-13.026 31.826-15.668 8.564-2.422 21.03-3.88 33.179-3.88h8.443v-64h-12.88c-15.047 0-25.735-1.824-37.647-6.424-27.755-10.719-49.151-34.186-57.365-62.916-2.762-9.661-3.895-18.96-3.895-31.971V64H128.245l-.477 15.147m288.09-2.56c.664 15.189 2.013 21.276 6.949 31.36 8.346 17.047 21.952 28.363 40.553 33.724 4.774 1.376 9.705 1.962 19.413 2.308l13.014.463V64h-80.479l.55 12.587m-139.4 37.763c29.79 6.138 56.388 28.304 67.929 56.612 5.805 14.24 6.633 18.818 6.659 36.825.022 14.895-.159 16.886-2.226 24.495-11.525 42.438-49.257 71.505-92.82 71.505-43.654 0-80.886-28.637-92.785-71.364-2.169-7.791-2.345-9.607-2.348-24.21-.003-13.872.241-16.718 2.015-23.466 10.374-39.471 42.675-67.587 82.816-72.085 8.339-.935 21.545-.21 30.76 1.688m-33.685 31.088c-24.048 5.628-42.3 23.057-48.76 46.562-2.379 8.657-2.177 24.991.413 33.28 3.635 11.636 8.223 19.25 16.74 27.779 6.519 6.53 8.97 8.34 15.821 11.69 11.325 5.537 17.163 6.932 29.013 6.932 11.85 0 17.688-1.395 29.013-6.932 6.851-3.35 9.302-5.16 15.821-11.69 8.517-8.529 13.105-16.143 16.74-27.779 2.59-8.289 2.792-24.623.413-33.28-5.901-21.471-22.427-38.605-43.64-45.245-7.685-2.406-24.012-3.086-31.574-1.317m-226.56 166.89v40.116l39.894-.222L96 352l.262-6.4c.375-9.178-1.18-21.809-3.641-29.569-3.057-9.64-7.55-16.764-15.869-25.162-6.345-6.405-8.47-7.937-16.214-11.686-11.209-5.428-18.551-6.97-33.195-6.97h-11.13v40.115m450.134-38.723c-3.286.689-9.984 3.197-14.885 5.573-7.739 3.751-9.873 5.29-16.214 11.691-8.319 8.398-12.812 15.522-15.869 25.162-2.461 7.76-4.016 20.391-3.641 29.569L416 352l39.893.222 39.894.222v-80.231l-11.734.07c-6.749.04-14.27.601-17.706 1.322M47.787 384v16.213h416.426v-32.426H47.787V384m32.426 48.213V448h351.574v-31.573H80.213v15.786" fill-rule="evenodd"/></svg>