<svg xmlns="http://www.w3.org/2000/svg" width="512" height="512"><path d="M417.274 80.99c-6.426 2.017-12.435 7.413-15.289 13.73-1.723 3.816-1.734 4.834-1.745 161.28l-.01 157.44 2.023 4.267c2.46 5.189 7.313 9.979 12.467 12.308 3.622 1.636 5.51 1.734 33.28 1.734 27.77 0 29.658-.098 33.28-1.734 5.154-2.329 10.007-7.119 12.467-12.308l2.023-4.267-.01-157.44c-.011-156.446-.022-157.464-1.745-161.28-2.111-4.673-6.862-9.746-11.455-12.232-3.297-1.785-4.432-1.853-33.28-2.009-16.427-.088-30.829.142-32.006.511M287.96 161.542c-7.094 2.777-12.442 8.217-14.758 15.012-.731 2.143-.986 33.44-.98 119.893l.008 116.993 2.023 4.267c2.46 5.189 7.313 9.979 12.467 12.308 3.621 1.635 5.523 1.735 33.28 1.745 29.087.01 29.491-.014 33.707-1.986 2.346-1.097 5.839-3.708 7.76-5.801 6.89-7.506 6.39 3.024 6.127-129.146-.229-115.135-.271-117.836-1.912-121.145-2.145-4.325-6.826-9.006-11.15-11.15-3.153-1.564-5.461-1.69-33.679-1.843-21.783-.118-31.023.122-32.893.853m-128 64c-7.094 2.777-12.442 8.217-14.758 15.012-.724 2.124-.984 25.669-.97 87.893.019 83.601.047 85.056 1.753 88.833 2.329 5.154 7.119 10.007 12.308 12.467 4.233 2.007 4.501 2.023 33.707 2.023 29.076 0 29.493-.025 33.707-1.996 2.346-1.097 5.839-3.708 7.76-5.801 6.809-7.418 6.394-.832 6.129-97.146-.229-83.31-.284-85.857-1.914-89.145-2.145-4.325-6.826-9.006-11.15-11.15-3.153-1.564-5.461-1.69-33.679-1.843-21.783-.118-31.023.122-32.893.853m-128 64c-7.094 2.777-12.442 8.217-14.758 15.012-.708 2.078-.983 17.922-.97 55.893.018 51.428.07 53.106 1.753 56.833 2.329 5.154 7.119 10.007 12.308 12.467 4.233 2.007 4.501 2.023 33.707 2.023 29.076 0 29.493-.025 33.707-1.996 2.346-1.097 5.839-3.708 7.76-5.801 6.645-7.239 6.402-4.657 6.132-65.146-.229-51.479-.31-53.904-1.917-57.145-.923-1.862-3.048-4.755-4.722-6.429-6.412-6.411-6.222-6.38-40.107-6.564-21.783-.118-31.023.122-32.893.853" fill-rule="evenodd"/></svg>