<svg xmlns="http://www.w3.org/2000/svg" width="512" height="512"><path d="M51.2 48.583c-7.372 1.507-13.881 6.846-17.236 14.137L32 66.987l-.225 146.706c-.2 129.918-.075 147.294 1.091 151.845 2.076 8.103 7.112 13.822 14.739 16.737 4.283 1.638 6.437 1.725 42.454 1.725H128v39.68c0 21.824.228 39.68.506 39.68.279 0 26.778-17.856 58.887-39.68L245.774 384h107.055c105.37 0 107.125-.027 111.566-1.725 7.627-2.915 12.663-8.634 14.739-16.737 1.166-4.551 1.291-21.927 1.091-151.845L480 66.987l-1.964-4.267c-2.484-5.398-6.253-9.343-11.689-12.236l-4.267-2.271-203.947-.12c-112.17-.066-205.29.154-206.933.49" fill-rule="evenodd"/></svg>