<svg xmlns="http://www.w3.org/2000/svg" width="512" height="512"><path d="M267.808 33.263c-65.335 8.215-121.547 47.25-149.131 103.56-12.375 25.263-18.105 50.279-18.11 79.07-.004 29.122 5.852 54.146 18.871 80.64 28.524 58.044 84.823 96.505 150.642 102.911 25.466 2.479 54.29-1.984 88.578-13.715 7.015-2.4 10.769-3.274 12.373-2.881 1.266.311 16.22 5.498 33.231 11.526 24.84 8.801 31.824 10.959 35.475 10.959 9.609 0 17.433-4.865 21.647-13.462 3.87-7.893 3.474-10.789-6.061-44.357l-8.303-29.232 4.384-6.608c6.312-9.516 15.576-28.859 19.536-40.793 6.305-19.002 8.939-35.839 8.868-56.694-.164-47.986-18.162-91.172-52.288-125.466-28.542-28.683-63.146-46.648-103.68-53.827-8.048-1.425-14.532-1.871-30.293-2.08-11.03-.146-22.612.056-25.739.449M63.69 217.143c-4.038 1.44-7.274 4.428-12.046 11.124-4.906 6.882-6.563 10.338-10.673 22.257-15.257 44.249-10.651 92.413 12.781 133.624 2.385 4.195 4.536 8.662 4.78 9.926.244 1.265-2.074 15.387-5.151 31.383-3.077 15.996-5.594 30.064-5.594 31.262 0 7.909 6.846 17.771 14.674 21.138 8.776 3.776 11.141 3.272 43.666-9.3 15.895-6.144 29.874-11.17 31.065-11.17 1.191 0 6.234 1.309 11.207 2.909 21.651 6.966 38.857 9.453 60.934 8.807 25.451-.744 42.404-4.596 67.515-15.338 12.94-5.536 16.767-7.693 20.271-11.428 4.635-4.94 5.448-11.953 2.058-17.738-3.183-5.431-7.2-7.203-18.575-8.191-18.049-1.568-26.717-2.656-34.842-4.372-40.225-8.5-73.703-26.584-102.411-55.32-17.286-17.303-28.339-32.72-38.865-54.209-9.28-18.946-16.093-42.099-18.365-62.407-1.398-12.499-2.345-15.526-6.004-19.185-4.722-4.722-10.218-5.984-16.425-3.772" fill-rule="evenodd"/></svg>