<svg xmlns="http://www.w3.org/2000/svg" width="512" height="512"><path d="M228.155 33.712c-27.438 3.469-50.697 10.612-75.94 23.323C88.706 89.014 44.27 150.432 34.088 220.306c-1.726 11.845-2.375 29.959-1.564 43.63 2.209 37.244 12.095 68.33 32.336 101.676l6.872 11.323-10.365 37.448c-9.127 32.971-10.315 38.017-9.935 42.208.735 8.105 6.471 16.813 13.448 20.417 4.423 2.284 11.817 3.452 15.962 2.521 1.919-.431 20.028-6.742 40.242-14.023 25.748-9.275 37.843-13.239 40.395-13.239 2.035 0 7.404 1.358 12.174 3.078 36.357 13.113 70.834 18.826 100.267 16.612 31.269-2.351 56.537-9.17 84.053-22.684 49.937-24.524 89.417-68.658 108.363-121.139 29.985-83.054 9.366-172.615-53.689-233.213-33.695-32.382-74.702-52.515-123.091-60.432-11.773-1.926-48.624-2.392-61.401-.777m54.822 32.421c33.439 4.564 64.14 17.294 90.783 37.64 54.726 41.794 82.055 108.507 72.057 175.902-10.393 70.063-59.219 128.611-125.705 150.735-35.545 11.828-70.371 12.932-108 3.424-4.726-1.194-15.888-4.619-24.805-7.611-18.008-6.042-24.454-7.129-33.22-5.603-3.138.547-19.468 5.971-36.29 12.053-16.822 6.083-30.751 11.06-30.954 11.06-.203 0 3.229-12.96 7.626-28.8 10.272-36.997 10.051-35.936 8.807-42.255-1.36-6.913-3.945-12.526-10.797-23.442-16.582-26.416-25.449-53.654-27.781-85.341-6.158-83.684 45.608-160.751 127.008-189.085 14.658-5.102 33.268-8.978 49.361-10.282 7.772-.629 32.474.317 41.91 1.605" fill-rule="evenodd"/></svg>