<svg xmlns="http://www.w3.org/2000/svg" width="512" height="512"><path d="M51.2 48.583c-7.372 1.507-13.881 6.846-17.236 14.137L32 66.987l-.225 146.706c-.2 129.918-.075 147.294 1.091 151.845 2.076 8.103 7.112 13.822 14.739 16.737 4.283 1.638 6.437 1.725 42.454 1.725H128v39.68c0 21.824.228 39.68.506 39.68.279 0 26.778-17.856 58.887-39.68L245.774 384h107.055c105.37 0 107.125-.027 111.566-1.725 7.627-2.915 12.663-8.634 14.739-16.737 1.166-4.551 1.291-21.927 1.091-151.845L480 66.987l-1.964-4.267c-2.484-5.398-6.253-9.343-11.689-12.236l-4.267-2.271-203.947-.12c-112.17-.066-205.29.154-206.933.49m122.228 138.503c19.75 9.073 24.594 35.769 9.26 51.035-5.459 5.434-10.421 8.097-17.543 9.413-5.986 1.107-13.244.055-19.12-2.77-6.026-2.897-13.106-10.439-15.494-16.504-2.543-6.458-2.807-16.674-.595-23.033 3.001-8.63 11.412-16.826 20.134-19.619 6.257-2.003 17.3-1.305 23.358 1.478m96.652.419c6.228 3.214 11.454 8.465 14.664 14.735 2.184 4.267 2.403 5.508 2.403 13.653 0 8.1-.231 9.431-2.405 13.858-4.602 9.37-13.018 15.647-23.916 17.836-12.695 2.549-27.392-5.26-33.568-17.836-2.174-4.427-2.405-5.758-2.405-13.858 0-8.145.219-9.386 2.403-13.653 3.073-6.002 8.388-11.498 13.811-14.279 6.458-3.313 7.9-3.61 16.213-3.344 6.639.213 8.374.604 12.8 2.888m95.348-.419c19.75 9.073 24.594 35.769 9.26 51.035-5.459 5.434-10.421 8.097-17.543 9.413-5.986 1.107-13.244.055-19.12-2.77-6.026-2.897-13.106-10.439-15.494-16.504-2.543-6.458-2.807-16.674-.595-23.033 3.001-8.63 11.412-16.826 20.134-19.619 6.257-2.003 17.3-1.305 23.358 1.478" fill-rule="evenodd"/></svg>