<svg xmlns="http://www.w3.org/2000/svg" width="512" height="512"><path d="M228.693 33.661c-30.199 3.87-55.868 11.955-80.64 25.4C92.52 89.202 52.931 139.787 38.336 199.253c-7.702 31.381-8.277 66.836-1.578 97.221 5.49 24.904 17.225 53.089 30.14 72.391l5.004 7.479-11.912 51.614c-6.952 30.121-11.529 51.613-10.991 51.61.506-.003 26.268-6.304 57.248-14.003l56.327-13.998 18.767 6.263c31.561 10.534 53.055 14.374 80.206 14.329 19.025-.032 33.032-1.72 51.2-6.17 54.158-13.267 100.523-46.313 131.791-93.931 25.153-38.307 37.877-86.8 34.965-133.258-6.496-103.605-84.237-187.289-189.796-204.307-11.73-1.891-48.804-2.396-61.014-.832" fill-rule="evenodd"/></svg>