<svg xmlns="http://www.w3.org/2000/svg" width="512" height="512"><path d="M94.772 48.704c-29.081 3.815-52.558 24.706-60.823 54.123l-1.918 6.826-.279 100.694c-.19 68.69.016 103.244.649 108.719 3.573 30.951 23.705 54.165 54.626 62.99 3.357.958 9.906 1.453 22.84 1.728l18.133.386.019 33.408c.017 30.567.152 33.702 1.585 36.857 3.9 8.586 14.898 12.28 22.244 7.472 1.148-.751 22.73-18.577 47.96-39.613l45.872-38.248 87.293-.249c80.616-.231 87.681-.366 92.361-1.761 7.394-2.205 14.369-5.147 19.917-8.4 6.942-4.07 20.497-17.785 24.758-25.049 4.656-7.938 8.442-19.581 9.587-29.482.641-5.537.844-39.633.65-108.758l-.284-100.694-1.915-6.826c-7.428-26.488-26.106-45.171-52.66-52.676l-6.827-1.929-159.147-.119c-87.53-.066-161.619.205-164.641.601m78.656 138.382c19.75 9.073 24.594 35.769 9.26 51.035-5.459 5.434-10.421 8.097-17.543 9.413-5.986 1.107-13.244.055-19.12-2.77-6.026-2.897-13.106-10.439-15.494-16.504-2.543-6.458-2.807-16.674-.595-23.033 3.001-8.63 11.412-16.826 20.134-19.619 6.257-2.003 17.3-1.305 23.358 1.478m96.652.419c6.228 3.214 11.454 8.465 14.664 14.735 2.184 4.267 2.403 5.508 2.403 13.653 0 8.1-.231 9.431-2.405 13.858-4.602 9.37-13.018 15.647-23.916 17.836-12.695 2.549-27.392-5.26-33.568-17.836-2.174-4.427-2.405-5.758-2.405-13.858 0-8.145.219-9.386 2.403-13.653 3.073-6.002 8.388-11.498 13.811-14.279 6.458-3.313 7.9-3.61 16.213-3.344 6.639.213 8.374.604 12.8 2.888m95.348-.419c19.75 9.073 24.594 35.769 9.26 51.035-5.459 5.434-10.421 8.097-17.543 9.413-5.986 1.107-13.244.055-19.12-2.77-6.026-2.897-13.106-10.439-15.494-16.504-2.543-6.458-2.807-16.674-.595-23.033 3.001-8.63 11.412-16.826 20.134-19.619 6.257-2.003 17.3-1.305 23.358 1.478" fill-rule="evenodd"/></svg>