<svg xmlns="http://www.w3.org/2000/svg" width="512" height="512"><path d="M228.693 33.661c-37.134 4.758-68.618 16.302-98.514 36.121-34.206 22.677-62.8 56.043-78.958 92.138-29.853 66.685-24.586 142.931 14.135 204.612 3.36 5.354 5.471 9.641 5.471 11.114 0 1.319-4.293 17.784-9.539 36.59-8.155 29.234-9.544 35.119-9.578 40.591-.034 5.313.343 7.133 2.219 10.72 2.35 4.497 7.389 9.634 11.513 11.741 4.028 2.057 10.605 3.075 14.771 2.287 2.112-.4 20.442-6.708 40.732-14.018 23.938-8.623 38.068-13.29 40.24-13.29 1.859 0 11.254 2.626 21.134 5.908 30.484 10.125 52.397 14.016 78.801 13.992 74.196-.068 142.025-37.069 183.362-100.024 33.391-50.852 43.947-116.651 28.203-175.791-22.526-84.617-93.548-147.441-182.978-161.859-11.73-1.891-48.804-2.396-61.014-.832" fill-rule="evenodd"/></svg>