<svg xmlns="http://www.w3.org/2000/svg" width="512" height="512"><path d="M94.856 48.746c-29.339 3.119-54.232 25.842-61.293 55.949C32.092 110.966 32 117.57 32 216.32v104.96l1.873 7.336c3.784 14.821 9.894 24.986 21.696 36.096 6.22 5.855 9.399 8.091 16.394 11.528 13.105 6.441 16.065 7.035 37.441 7.524l18.525.423.249 34.815.249 34.815 2.609 3.278c3.851 4.837 9.168 7.348 14.352 6.778 2.289-.252 5.148-1.105 6.354-1.895 1.206-.79 22.834-18.647 48.061-39.681l45.868-38.243 87.725-.274c97.648-.305 90.426.127 104.228-6.238 8.205-3.784 15.466-9.057 22.41-16.274 9.28-9.643 14.549-19.047 18.048-32.211 1.826-6.871 1.843-7.677 2.132-106.764.188-64.524-.02-102.942-.589-108.61-.557-5.555-1.888-11.81-3.629-17.062-6.101-18.397-21.981-35.43-40.152-43.065-13.424-5.64-1.048-5.258-175.577-5.419-87.292-.081-161.486.192-165.411.609m323.738 32.783c13.51 3.497 25.49 16.167 28.446 30.086 1.348 6.351 1.357 202.148.009 208.556-3.356 15.957-17.44 29.108-33.609 31.382-3.589.504-39.943.847-91.076.857-76.229.015-85.461.16-88.538 1.391-1.987.795-18.092 13.577-38.204 30.32l-34.769 28.945-.426-24.56c-.455-26.158-.487-26.361-5.011-31.249-4.367-4.718-5.028-4.829-28.867-4.847-12.109-.01-24.704-.404-27.989-.877-11.575-1.666-21.801-8.44-28.663-18.987C63.77 323.128 64 327.679 64 215.98c0-69.851.284-101.201.947-104.365 2.134-10.193 10.087-20.979 19.554-26.519 8.603-5.034-.939-4.765 171.106-4.827 139.638-.049 158.489.097 162.987 1.26M150.07 185.657c-9.389 2.891-17.434 11.199-20.498 21.168-5.676 18.469 6.122 37.321 25.493 40.733 17.771 3.13 35.124-10.519 36.659-28.835 1.239-14.778-8.266-28.992-22.145-33.114-5.365-1.593-14.25-1.571-19.509.048m97.397-.585c-5.217 1.713-11.005 5.377-14.646 9.269-4.962 5.304-6.506 8.294-8.01 15.506-3.676 17.633 7.759 34.003 26.363 37.74 12.522 2.514 27.412-5.273 33.371-17.453 4.315-8.818 4.32-20.475.013-28.804-2.447-4.73-9.097-11.094-14.464-13.84-4.423-2.263-6.198-2.661-12.814-2.873-4.224-.135-8.64.07-9.813.455m94.603.585c-9.389 2.891-17.434 11.199-20.498 21.168-5.676 18.469 6.122 37.321 25.493 40.733 17.771 3.13 35.124-10.519 36.659-28.835 1.239-14.778-8.266-28.992-22.145-33.114-5.365-1.593-14.25-1.571-19.509.048" fill-rule="evenodd"/></svg>