<svg xmlns="http://www.w3.org/2000/svg" width="512" height="512"><path d="M103.68 48.717c-27.199 3.23-49.277 24.37-54.621 52.303-1.915 10.009-1.915 299.951 0 309.96 5.17 27.023 24.913 46.834 51.743 51.923 6.044 1.147 25.434 1.31 155.198 1.31s149.154-.163 155.198-1.31c22.193-4.21 40.258-19.073 48.384-39.808 4.801-12.251 4.631-6.127 4.631-167.095 0-129.764-.163-149.154-1.31-155.198-5.349-28.2-27.529-48.923-55.834-52.167-8.951-1.026-294.709-.948-303.389.082m255.36 113.52c7.335 3.55 10.881 13.523 7.267 20.435-.875 1.675-32.414 39.74-70.085 84.589-73.865 87.938-70.971 84.842-79.138 84.659-1.957-.043-4.947-.811-6.646-1.706-3.029-1.596-61.229-65.314-64.62-70.747-1.948-3.12-2.171-11.373-.401-14.763 1.616-3.094 5.509-6.685 8.452-7.796 1.321-.5 4.254-.908 6.517-.908 3.27 0 4.918.569 8.029 2.773 2.152 1.526 13.978 14.021 26.278 27.768 21.256 23.757 22.435 24.919 23.807 23.467.794-.84 25.759-30.52 55.479-65.955 68.283-81.412 67.501-80.506 70.904-82.183 3.951-1.947 9.685-1.798 14.157.367" fill-rule="evenodd"/></svg>