<svg xmlns="http://www.w3.org/2000/svg" width="512" height="512"><path d="M241.92 48.669c-64.561 4.115-123.152 38.433-159.962 93.693-26.292 39.469-38.649 92.321-32.455 138.811 6.326 47.479 26.376 88.354 59.673 121.651 33.526 33.526 73.443 53.027 122.504 59.846 4.224.587 15.168 1.068 24.32 1.068 9.152 0 20.096-.481 24.32-1.068 49.001-6.811 88.952-26.339 122.482-59.868 33.529-33.53 53.057-73.481 59.868-122.482 1.376-9.9 1.376-38.74 0-48.64-6.778-48.766-26.328-88.904-59.45-122.057-11.819-11.831-20.651-19.077-33.662-27.617-37.561-24.655-81.952-36.249-127.638-33.337m74.066 131.052c6.197 5.449 11.267 10.359 11.267 10.911 0 .552-16.319 19.656-36.265 42.452l-36.265 41.447-12.117-11.48-12.116-11.479 22.329-24.879c45.647-50.861 51.096-56.88 51.493-56.88.224 0 5.477 4.459 11.674 9.908m62.294-.014c6.197 5.441 11.386 10.216 11.533 10.611.256.692-131.544 152.074-132.783 152.51-.335.117-16.542-15.722-36.016-35.2l-35.406-35.414 11.302-11.302 11.302-11.302 23.462 23.45 23.462 23.451 2.453-2.549c1.349-1.402 26.329-29.909 55.513-63.349 29.183-33.44 53.252-60.8 53.485-60.8.234 0 5.496 4.452 11.693 9.894M203.304 331.301 192 342.605l-35.41-35.401-35.409-35.402 11.296-11.32 11.297-11.319 35.417 35.417 35.417 35.417-11.304 11.304" fill-rule="evenodd"/></svg>