<svg xmlns="http://www.w3.org/2000/svg" width="512" height="512"><path d="M411.037 113.023c-1.791.639-4.062 1.87-5.047 2.736-.985.866-48.818 55.334-106.295 121.041-57.477 65.707-105.418 120.422-106.534 121.589l-2.031 2.122-42.871-42.787c-23.58-23.532-44.101-43.399-45.603-44.149-6.243-3.113-15.052-.812-19.571 5.114-2.982 3.909-3.78 11.405-1.685 15.821.765 1.612 23.807 25.297 51.934 53.383 45.681 45.614 50.922 50.58 54.322 51.472 3.87 1.016 7.984.633 11.78-1.097 1.831-.834 223.902-253.586 229.728-261.467 2.406-3.255 3.253-9.853 1.821-14.192-1.267-3.839-6.635-8.731-10.871-9.907-4.112-1.142-5.07-1.108-9.077.321" fill-rule="evenodd"/></svg>