<svg xmlns="http://www.w3.org/2000/svg" width="512" height="512"><path d="M241.92 48.669c-64.561 4.115-123.152 38.433-159.962 93.693-26.292 39.469-38.649 92.321-32.455 138.811 6.326 47.479 26.376 88.354 59.673 121.651 33.526 33.526 73.443 53.027 122.504 59.846 4.224.587 15.168 1.068 24.32 1.068 9.152 0 20.096-.481 24.32-1.068 49.001-6.811 88.952-26.339 122.482-59.868 33.529-33.53 53.057-73.481 59.868-122.482 1.376-9.9 1.376-38.74 0-48.64-6.778-48.766-26.328-88.904-59.45-122.057-11.819-11.831-20.651-19.077-33.662-27.617-37.561-24.655-81.952-36.249-127.638-33.337m117.12 113.568c7.335 3.55 10.881 13.523 7.267 20.435-.875 1.675-32.414 39.74-70.085 84.589-73.865 87.938-70.971 84.842-79.138 84.659-1.957-.043-4.947-.811-6.646-1.706-3.029-1.596-61.229-65.314-64.62-70.747-1.948-3.12-2.171-11.373-.401-14.763 1.616-3.094 5.509-6.685 8.452-7.796 1.321-.5 4.254-.908 6.517-.908 3.27 0 4.918.569 8.029 2.773 2.152 1.526 13.978 14.021 26.278 27.768 21.256 23.757 22.435 24.919 23.807 23.467.794-.84 25.759-30.52 55.479-65.955 68.283-81.412 67.501-80.506 70.904-82.183 3.951-1.947 9.685-1.798 14.157.367" fill-rule="evenodd"/></svg>