<svg xmlns="http://www.w3.org/2000/svg" width="512" height="512"><path d="M241.493 48.673c-39.799 2.563-78.317 17.074-111.786 42.114-10.589 7.922-31.248 28.596-39.155 39.184-21.846 29.252-35.222 61.365-40.767 97.869-2.061 13.574-2.061 42.746 0 56.32 5.546 36.511 18.94 68.661 40.773 97.869 8.04 10.755 28.658 31.373 39.413 39.413 29.208 21.833 61.358 35.227 97.869 40.773 13.574 2.061 42.746 2.061 56.32 0 36.526-5.548 68.754-18.978 97.869-40.785 10.755-8.056 31.345-28.646 39.401-39.401 21.807-29.115 35.237-61.343 40.785-97.869 2.061-13.574 2.061-42.746 0-56.32-6.752-44.453-25.412-83.157-55.294-114.69-36.541-38.56-84.833-61.088-138.36-64.543-13.196-.852-12.782-.853-27.068.066m42.667 33.635c35.838 6.075 67.575 21.95 93.579 46.81 27.61 26.395 45.561 60.682 52.093 99.5 2.091 12.43 2.073 42.896-.033 55.115-9.878 57.299-44.492 104.256-95.788 129.946-48.421 24.25-107.601 24.25-156.022 0-51.464-25.774-86.214-73.029-95.815-130.297-2.121-12.648-2.121-42.116 0-54.764 10.541-62.873 51.565-113.601 110.675-136.854 13.047-5.132 28.757-8.823 46.938-11.027 6.667-.809 36.585.251 44.373 1.571m61.013 79.334c-1.408.632-3.942 2.633-5.63 4.447-1.689 1.814-29.294 34.594-61.344 72.844-32.049 38.251-58.912 70.228-59.693 71.061-1.345 1.432-2.682.112-24.687-24.383-12.796-14.243-24.488-26.626-25.982-27.516-4.346-2.591-12.162-2.272-16.626.679-6.229 4.119-8.789 12.789-5.803 19.653 1.844 4.239 61.342 69.81 65.088 71.731 3.999 2.052 10.044 2.148 14.071.224 2.366-1.13 19.705-21.225 71.253-82.575 37.47-44.595 68.989-82.487 70.042-84.204 2.11-3.439 2.561-9.435 1.017-13.521-1.112-2.943-4.703-6.835-7.797-8.452-2.891-1.51-10.53-1.504-13.909.012" fill-rule="evenodd"/></svg>