<svg xmlns="http://www.w3.org/2000/svg" width="512" height="512"><path d="M241.493 48.632c-34.755 2.385-69.692 14.113-98.56 33.086-14.348 9.431-22.253 15.895-34.59 28.285-16.787 16.861-30.122 35.745-40.124 56.824-21.723 45.775-26.091 97.617-12.276 145.679C76.1 382.635 130.61 436.733 201.051 456.521c47.175 13.252 98.76 8.711 144.073-12.682 42.022-19.839 78.437-56.161 98.449-98.199 25.946-54.501 27.186-116.188 3.446-171.514-15.511-36.149-41.122-67.188-74.112-89.818-26.741-18.343-57.827-30.232-89.634-34.282-13.044-1.66-29.765-2.218-41.78-1.394m71.68 129.308c4.733 2.436 8.551 8.824 8.515 14.246-.01 1.54-.737 4.337-1.614 6.214-.878 1.877-13.895 17.471-28.928 34.654-28.859 32.986-30.038 34.068-37.083 34.021-6.569-.045-13.391-5.472-15.166-12.063-1.327-4.929-.269-9.574 3.222-14.148 4.538-5.946 50.371-58.332 53.338-60.965 4.472-3.969 12.16-4.819 17.716-1.959m62.294 0c4.733 2.436 8.551 8.824 8.514 14.246-.01 1.54-.734 4.337-1.61 6.214-2.322 4.984-116.034 134.664-119.172 135.908-4.731 1.875-7.275 2.106-11.287 1.022-3.633-.982-6.501-3.549-29.9-26.768-14.709-14.595-26.657-27.156-27.678-29.095-4.45-8.456-.802-18.425 8.104-22.146 8.563-3.578 11.54-1.863 31.849 18.344 15.23 15.154 17.421 17.028 19.897 17.028 1.53 0 3.539-.405 4.465-.901.926-.495 23.191-25.551 49.477-55.68 26.287-30.128 48.662-55.471 49.723-56.316 4.823-3.844 12.239-4.625 17.618-1.856m-224.854 79.688c2.241 1.044 12.395 10.638 29.559 27.928 24.731 24.914 26.191 26.558 26.996 30.42 2.598 12.46-7.548 22.54-19.512 19.384-3.322-.877-6.845-4.056-30.095-27.163-17.213-17.106-26.886-27.353-27.928-29.584-3.746-8.016-.194-17.135 8.18-21 4.344-2.005 8.476-2 12.8.015" fill-rule="evenodd"/></svg>