<svg xmlns="http://www.w3.org/2000/svg" width="512" height="512"><path d="M103.945 48.665c-25.597 3.036-46.386 21.063-53.803 46.653l-1.929 6.655v308.054l1.929 6.655c6.483 22.367 22.807 38.693 45.167 45.173l6.664 1.932h308.054l6.664-1.932c22.298-6.462 38.702-22.866 45.164-45.164l1.932-6.664V101.973l-1.932-6.664c-6.464-22.304-23.102-38.915-45.297-45.224l-6.531-1.856-150.187-.121c-82.603-.066-152.756.185-155.895.557m309.27 34.269c6.253 2.931 12.92 9.598 15.851 15.851l2.294 4.895v304.64l-2.294 4.895c-2.931 6.253-9.598 12.92-15.851 15.851l-4.895 2.294H103.68l-4.895-2.294c-6.253-2.931-12.92-9.598-15.851-15.851l-2.294-4.895V103.68l1.936-4.199c3.905-8.467 10.72-14.735 19.227-17.684 4.218-1.462 11.882-1.528 155.477-1.347l151.04.19 4.895 2.294m-68.042 78.708c-1.408.632-3.942 2.633-5.63 4.447-1.689 1.814-29.294 34.594-61.344 72.844-32.049 38.251-58.912 70.228-59.693 71.061-1.345 1.432-2.682.112-24.687-24.383-12.796-14.243-24.488-26.626-25.982-27.516-4.346-2.591-12.162-2.272-16.626.679-6.229 4.119-8.789 12.789-5.803 19.653 1.844 4.239 61.342 69.81 65.088 71.731 3.999 2.052 10.044 2.148 14.071.224 2.366-1.13 19.705-21.225 71.253-82.575 37.47-44.595 68.989-82.487 70.042-84.204 2.11-3.439 2.561-9.435 1.017-13.521-1.112-2.943-4.703-6.835-7.797-8.452-2.891-1.51-10.53-1.504-13.909.012" fill-rule="evenodd"/></svg>