<svg xmlns="http://www.w3.org/2000/svg" width="512" height="512"><path d="M47.787 256v208.213h416.426V47.787H47.787V256m315.972-91.007c5.501 4.624 10.001 8.75 10.001 9.171 0 .641-150.004 179.874-154.414 184.503-1.506 1.581-7.289-4.615-79.166-84.823l-2.752-3.072 11.539-10.373c6.347-5.705 11.817-10.372 12.156-10.372.339 0 13.06 13.841 28.27 30.759 26.352 29.313 27.722 30.688 29.112 29.227.802-.843 30.707-36.392 66.456-78.998l64.999-77.466 1.899 1.519c1.044.835 6.4 5.302 11.9 9.925" fill-rule="evenodd"/></svg>