<svg xmlns="http://www.w3.org/2000/svg" width="512" height="512"><path d="M241.493 48.673c-39.799 2.563-78.317 17.074-111.786 42.114-10.589 7.922-31.248 28.596-39.155 39.184-21.846 29.252-35.222 61.365-40.767 97.869-2.061 13.574-2.061 42.746 0 56.32 5.546 36.511 18.94 68.661 40.773 97.869 8.04 10.755 28.658 31.373 39.413 39.413 29.208 21.833 61.358 35.227 97.869 40.773 13.574 2.061 42.746 2.061 56.32 0 36.526-5.548 68.754-18.978 97.869-40.785 10.755-8.056 31.345-28.646 39.401-39.401 21.807-29.115 35.237-61.343 40.785-97.869 2.061-13.574 2.061-42.746 0-56.32-6.752-44.453-25.412-83.157-55.294-114.69-36.541-38.56-84.833-61.088-138.36-64.543-13.196-.852-12.782-.853-27.068.066m42.667 33.635c35.838 6.075 67.575 21.95 93.579 46.81 27.61 26.395 45.561 60.682 52.093 99.5 2.091 12.43 2.073 42.896-.033 55.115-9.878 57.299-44.492 104.256-95.788 129.946-48.421 24.25-107.601 24.25-156.022 0-51.464-25.774-86.214-73.029-95.815-130.297-2.121-12.648-2.121-42.116 0-54.764 10.541-62.873 51.565-113.601 110.675-136.854 13.047-5.132 28.757-8.823 46.938-11.027 6.667-.809 36.585.251 44.373 1.571m16.742 94.513c-1.828.494-4.694 2.295-6.4 4.021-8.373 8.475-53.624 61.126-54.906 63.885-3.705 7.974.311 17.448 8.922 21.046 4.05 1.692 7.424 1.671 11.785-.074 2.867-1.147 8.334-6.932 30.843-32.64 15.047-17.185 28.07-32.782 28.941-34.659 2.8-6.039 1.753-12.18-2.96-17.361-3.735-4.106-10.312-5.816-16.225-4.218m62.516-.053c-1.699.463-4.254 1.872-5.678 3.131-1.424 1.258-24.179 27.056-50.566 57.328-26.387 30.272-48.89 55.994-50.008 57.16l-2.032 2.12-18.98-18.942c-12.302-12.277-20.097-19.404-22.153-20.254-4.167-1.722-7.989-1.63-12.223.293-8.817 4.005-12.217 14.669-7.23 22.677.891 1.429 13.258 14.179 27.482 28.333 22.676 22.563 26.322 25.856 29.586 26.726 4.335 1.154 9.031.552 12.593-1.614 3.586-2.181 116.253-131.208 118.167-135.326 2.805-6.034 1.759-12.178-2.956-17.361-3.683-4.05-10.318-5.82-16.002-4.271m-224.012 79.821c-2.734.536-8.91 6.181-10.237 9.358-1.608 3.849-1.434 8.606.464 12.666 1.044 2.235 10.689 12.441 27.928 29.555 28.354 28.148 29.18 28.772 36.574 27.663 9.634-1.445 15.712-10.744 13.214-20.215-.863-3.271-4.159-6.92-27.152-30.055-17.106-17.213-27.353-26.886-29.584-27.928-3.213-1.502-7.046-1.859-11.207-1.044" fill-rule="evenodd"/></svg>