<svg xmlns="http://www.w3.org/2000/svg" width="512" height="512"><path d="M101.941 162.393c-8.91 4.257-14.858 14.533-13.763 23.775 1.127 9.519-.935 7.242 78.472 86.652 82.317 82.32 78.472 78.924 89.35 78.924s7.033 3.396 89.35-78.924c79.407-79.41 77.345-77.133 78.472-86.652 1.128-9.526-5.177-20.062-14.373-24.018-5.968-2.567-15.804-2.184-20.841.813-1.831 1.088-32.416 31.008-67.968 66.487L256 293.958l-64.64-64.508c-35.552-35.479-66.146-65.404-67.987-66.5-5.142-3.059-15.625-3.332-21.432-.557" fill-rule="evenodd"/></svg>