<svg xmlns="http://www.w3.org/2000/svg" width="512" height="512"><path d="M241.92 48.656c-32.351 2.022-64.984 12.273-93.189 29.276-53.917 32.501-89.753 86.952-98.941 150.335-2.03 14.002-2.03 41.464 0 55.466 5.257 36.266 18.79 68.894 40.768 98.296 8.04 10.755 28.658 31.373 39.413 39.413 29.402 21.978 62.03 35.511 98.296 40.768 7.099 1.029 15.606 1.485 27.733 1.485s20.634-.456 27.733-1.485c36.266-5.257 68.894-18.79 98.296-40.768 10.755-8.04 31.373-28.658 39.413-39.413 20.459-27.37 33.566-57.361 39.414-90.189 10.068-56.519-4.22-115.167-39.415-161.788-32.853-43.518-83.69-72.968-138.134-80.021-12.74-1.65-28.565-2.176-41.387-1.375m-4.026 96.867c4.388 1.811 102.1 99.258 104.361 104.077 1.956 4.17 2.059 7.996.329 12.187-1.812 4.388-99.259 102.101-104.077 104.361-10.514 4.932-21.76-2.606-21.76-14.583 0-2.389.616-5.572 1.368-7.074.753-1.502 20.62-22.027 44.149-45.611l42.78-42.88-42.78-42.88c-23.529-23.584-43.396-44.109-44.149-45.611-1.898-3.787-1.749-10.672.319-14.724 3.615-7.087 12.161-10.275 19.46-7.262" fill-rule="evenodd"/></svg>