<svg xmlns="http://www.w3.org/2000/svg" width="512" height="512"><path d="M321.617 89.031c-2.162.603-5.81 2.489-8.107 4.191-2.297 1.703-36.852 35.856-76.788 75.897-80.064 80.273-76.466 76.18-76.466 86.974 0 10.769-3.304 7.032 78.924 89.257 79.41 79.407 77.133 77.345 86.652 78.472 11.716 1.388 23.385-7.606 25.659-19.778.797-4.266-.227-11.354-2.213-15.318-.714-1.426-30.532-31.873-66.262-67.659L218.053 256l64.963-65.067c35.73-35.786 65.548-66.233 66.262-67.659 3.308-6.603 3.243-15.74-.159-22.341-4.877-9.463-17.168-14.782-27.502-11.902" fill-rule="evenodd"/></svg>