<svg xmlns="http://www.w3.org/2000/svg" width="512" height="512"><path d="M241.493 48.673c-39.799 2.563-78.317 17.074-111.786 42.114-10.589 7.922-31.248 28.596-39.155 39.184-21.846 29.252-35.222 61.365-40.767 97.869-2.061 13.574-2.061 42.746 0 56.32 5.546 36.511 18.94 68.661 40.773 97.869 8.04 10.755 28.658 31.373 39.413 39.413 29.208 21.833 61.358 35.227 97.869 40.773 13.574 2.061 42.746 2.061 56.32 0 36.526-5.548 68.754-18.978 97.869-40.785 10.755-8.056 31.345-28.646 39.401-39.401 21.807-29.115 35.237-61.343 40.785-97.869 2.061-13.574 2.061-42.746 0-56.32-6.752-44.453-25.412-83.157-55.294-114.69-36.541-38.56-84.833-61.088-138.36-64.543-13.196-.852-12.782-.853-27.068.066m42.667 33.635c35.838 6.075 67.575 21.95 93.579 46.81 27.61 26.395 45.561 60.682 52.093 99.5 2.091 12.43 2.073 42.896-.033 55.115-9.878 57.299-44.492 104.256-95.788 129.946-48.421 24.25-107.601 24.25-156.022 0-51.464-25.774-86.214-73.029-95.815-130.297-2.121-12.648-2.121-42.116 0-54.764 10.541-62.873 51.565-113.601 110.675-136.854 13.047-5.132 28.757-8.823 46.938-11.027 6.667-.809 36.585.251 44.373 1.571m-74.683 63.095c-3.51 1.529-7.807 6.613-8.892 10.52-1.107 3.984-1.106 4.149.024 8.344.785 2.914 7.36 9.865 44.998 47.573L289.684 256l-44.077 44.16c-37.638 37.708-44.213 44.659-44.998 47.573-1.13 4.195-1.131 4.36-.024 8.344 1.113 4.01 5.434 9.033 9.081 10.557 3.654 1.527 8.954 1.46 12.868-.163 3.746-1.552 98.721-95.798 102.681-101.891 3.476-5.349 3.477-11.807.003-17.16-3.94-6.07-98.932-100.324-102.684-101.886-3.84-1.598-9.558-1.656-13.057-.131" fill-rule="evenodd"/></svg>