<svg xmlns="http://www.w3.org/2000/svg" width="512" height="512"><path d="M191.372 17.529c-11.391 3.068-22.424 12.24-27.363 22.75-1.479 3.146-3.369 6.069-4.202 6.496-.832.428-6.89 1.012-13.46 1.299-14.299.623-22.595 2.544-31.818 7.368-14.927 7.807-25.928 20.76-31.548 37.145l-2.341 6.826-.238 169.814c-.268 190.67-.754 175.722 6.186 190.293 6.527 13.702 16.202 23.376 29.892 29.886 14.275 6.788 5.376 6.381 139.52 6.381s125.245.407 139.52-6.381c13.69-6.51 23.365-16.184 29.892-29.886 6.94-14.571 6.454.377 6.186-190.293l-.238-169.814-2.341-6.826c-5.62-16.385-16.621-29.338-31.548-37.145-9.223-4.824-17.519-6.745-31.818-7.368-6.57-.287-12.622-.868-13.448-1.292-.825-.424-2.737-3.347-4.249-6.496-3.351-6.983-11.973-16.036-18.347-19.267-9.557-4.842-9.06-4.811-74.002-4.75-48.614.046-60.601.281-64.235 1.26m137.514 65.557c4.792 3.655 6.467 6.954 6.471 12.743.002 2.722-.539 5.986-1.201 7.253-1.616 3.094-5.509 6.685-8.452 7.797-1.623.613-24.227.908-69.704.908-45.477 0-68.081-.295-69.704-.908-2.943-1.112-6.836-4.703-8.452-7.797-1.549-2.964-1.552-11.191-.005-14.164 1.479-2.844 4.388-5.606 7.761-7.371 2.275-1.19 10.22-1.315 71.32-1.123l68.76.216 3.206 2.446" fill-rule="evenodd"/></svg>