<svg xmlns="http://www.w3.org/2000/svg" width="512" height="512"><path d="M191.573 17.417c-12.691 3.15-24.977 14.297-29.103 26.406l-1.35 3.964-8.24.014c-18.635.034-30.609 2.566-40.549 8.575-11.389 6.884-20.125 16.281-25.733 27.677-6.91 14.04-6.443-.339-6.187 190.72l.229 170.24 2.325 6.827c3.412 10.019 7.866 17.018 16.022 25.173 8.155 8.156 15.154 12.61 25.173 16.022l6.827 2.325h250.026l6.827-2.325c10.019-3.412 17.018-7.866 25.173-16.022 8.156-8.155 12.61-15.154 16.022-25.173l2.325-6.827.229-170.24c.256-191.059.723-176.68-6.187-190.72-5.608-11.396-14.344-20.793-25.733-27.677-9.94-6.009-21.914-8.541-40.549-8.575l-8.24-.014-1.35-3.964c-4.245-12.459-17.2-23.886-30.212-26.649-6.678-1.418-121.935-1.198-127.745.243m122.036 31.598c4.857 2.03 6.384 5.571 6.388 14.814.003 9.064-1.11 12.114-5.372 14.712-2.636 1.608-4.695 1.666-58.712 1.669l-55.981.003-2.887-1.945c-4.501-3.033-5.128-5.002-4.858-15.248.263-9.984 1.048-11.757 6.213-14.037 3.947-1.742 111.034-1.712 115.209.032M162.47 84.177c4.164 12.219 17.006 23.795 29.625 26.705 5.078 1.17 122.732 1.17 127.81 0 12.619-2.91 25.461-14.486 29.625-26.705l1.35-3.964h10.636c11.577 0 16.556.899 22.075 3.983 5.46 3.052 11.793 10.258 14.143 16.092l2.053 5.099V439.04l-2.725 5.752c-4.744 10.014-13.011 16.616-23.235 18.555-6.263 1.188-229.391 1.188-235.654 0-10.224-1.939-18.491-8.541-23.235-18.555l-2.725-5.752V105.387l2.053-5.099c2.35-5.834 8.918-13.308 14.155-16.104 5.745-3.068 9.785-3.8 21.472-3.887l11.227-.084 1.35 3.964" fill-rule="evenodd"/></svg>