<svg xmlns="http://www.w3.org/2000/svg" width="512" height="512"><path d="M241.92 48.669c-64.561 4.115-123.152 38.433-159.962 93.693-26.292 39.469-38.649 92.321-32.455 138.811 6.326 47.479 26.376 88.354 59.673 121.651 33.526 33.526 73.443 53.027 122.504 59.846 4.224.587 15.168 1.068 24.32 1.068 9.152 0 20.096-.481 24.32-1.068 49.001-6.811 88.952-26.339 122.482-59.868 33.529-33.53 53.057-73.481 59.868-122.482 1.376-9.9 1.376-38.74 0-48.64-6.778-48.766-26.328-88.904-59.45-122.057-11.819-11.831-20.651-19.077-33.662-27.617-37.561-24.655-81.952-36.249-127.638-33.337m-42.838 129.334c1.502.749 14.923 13.515 29.825 28.368L256 233.377l27.093-27.006c14.902-14.853 28.323-27.619 29.825-28.368 3.133-1.564 9.274-1.783 12.786-.455 3.269 1.235 7.06 4.917 8.481 8.238 1.575 3.68 1.486 9.942-.188 13.296-.749 1.502-13.515 14.923-28.368 29.825L278.623 256l27.485 27.52c18.455 18.479 27.915 28.562 28.795 30.693 4.001 9.687-2.348 20.615-12.653 21.776-7.663.864-8.281.387-38.303-29.51L256 278.648l-27.52 27.454c-15.136 15.099-28.601 27.859-29.922 28.355-3.088 1.161-9.185 1.158-12.262-.005-3.269-1.235-7.06-4.917-8.481-8.238-1.575-3.68-1.486-9.942.188-13.296.749-1.502 13.515-14.923 28.368-29.825L233.377 256l-27.006-27.093c-14.853-14.902-27.619-28.323-28.368-29.825-1.564-3.133-1.783-9.274-.455-12.786 1.199-3.174 4.872-7.027 8.052-8.447 3.511-1.567 10.186-1.491 13.482.154" fill-rule="evenodd"/></svg>