<svg xmlns="http://www.w3.org/2000/svg" width="512" height="512"><path d="M52.474 52.913 41.399 64.012l203.299 203.299 203.298 203.298 11.306-11.306 11.307-11.306-203.091-203.092C155.819 133.205 64.23 41.813 63.988 41.813c-.241 0-5.423 4.995-11.514 11.1m185.329 28.148c-9.603 1.204-19.237 3.378-29.121 6.57-9.457 3.055-28.782 12.287-33.13 15.828l-2.368 1.928 151.354 151.332 151.355 151.332 5.4-4.986c21.15-19.522 31.917-47.821 30.438-79.999-2.29-49.81-36.752-85.814-92.744-96.892l-4.694-.929-1.587-8.302c-3.18-16.625-11.164-39.332-18.671-53.103-8.069-14.8-16.654-26.287-28.776-38.5-22.171-22.339-50.912-37.415-81.952-42.986-9.29-1.668-36.381-2.437-45.504-1.293m-134.976 99.07c-11.75 2.86-22.085 6.65-33.425 12.26-31.585 15.624-53.238 40.036-63.26 71.325C1.451 278.359.459 285.404.496 303.787c.028 13.818.351 18.108 1.901 25.299 7.361 34.147 24.992 60.214 53.711 79.408 14.883 9.948 30.817 16.471 51.158 20.943 8.314 1.827 9.059 1.839 132.521 2.109l124.16.271-126.719-126.735c-69.696-69.705-126.912-126.708-127.147-126.674-.235.034-3.5.81-7.254 1.723" fill-rule="evenodd"/></svg>