<svg xmlns="http://www.w3.org/2000/svg" width="512" height="512"><path d="M346.981 33.761c-1.822.668-6.793 2.97-11.047 5.115-34.464 17.381-62.757 49.176-74.268 83.461-1.239 3.691-2.253 6.984-2.253 7.319 0 .335 2.592 1.079 5.76 1.654 9.475 1.719 23.07 5.928 33.363 10.327 32.779 14.011 62.537 41.065 79.798 72.55l3.041 5.546 10.486 3.372c12.954 4.165 34.339 14.787 44.451 22.079 4.132 2.98 10.706 8.34 14.609 11.912l7.096 6.494 5.871-4.764c17.13-13.899 31.862-31.845 40.877-49.795 4.248-8.459 7.36-16.183 6.513-16.167-.307.005-4.014 1.169-8.238 2.587-21.848 7.329-52.55 8.671-77.653 3.392-28.187-5.927-50.02-19.913-64.099-41.062-13.933-20.929-19.741-44.569-18.848-76.714.482-17.345 2.309-28.981 6.518-41.506 1.319-3.924 2.159-7.107 1.867-7.074-.293.033-2.022.606-3.844 1.274M214.613 160.95c-49.489 7.139-89.302 36.204-111.029 81.056-5.412 11.171-11.485 29.046-13.597 40.021-.814 4.224-1.72 7.956-2.015 8.293-.295.337-5.003 1.741-10.462 3.119C28.854 305.728-.015 339.897.003 385.178c.009 20.878 6.514 42.081 17.31 56.422C34.38 464.27 60.507 476.894 96 479.621c8.044.618 52.227.81 135.253.588 121.433-.324 123.45-.357 132.706-2.139 49.129-9.462 84.776-41.254 96.395-85.971 6.168-23.74 4.272-51.65-5.038-74.14-14.118-34.106-46.02-59.014-87.37-68.218l-8.8-1.958-3.204-7.198c-9.309-20.916-26.757-42.306-45.378-55.632-9.196-6.581-25.251-14.757-35.55-18.103-14.188-4.61-21.563-5.706-40.347-5.998-9.622-.149-18.646-.106-20.054.098" fill-rule="evenodd"/></svg>