<svg xmlns="http://www.w3.org/2000/svg" width="512" height="512"><path d="M327.165 37.001C313.992 43.934 306 49.831 295.211 60.58c-15.082 15.028-25.238 31.376-31.948 51.427-3.671 10.973-4.505 16.094-2.844 17.472.654.543 4.717 1.756 9.029 2.698 43.717 9.541 80.78 36.556 106.359 77.523 5.625 9.009 7.187 10.326 15.446 13.021 22.982 7.499 43.709 19.624 61.237 35.824 4.579 4.232 8.646 7.695 9.038 7.695 2.034 0 14.443-9.913 22.342-17.849 13.135-13.196 26.645-34.257 27.88-43.463.97-7.233-4.331-15.164-11.46-17.143-4.451-1.236-4.291-1.259-14.546 2.05-14.544 4.693-23.044 5.839-39.451 5.316-14.738-.469-20.919-1.603-32.457-5.954-27.732-10.457-50.587-33.98-60.044-61.798-3.902-11.477-5.114-19.369-5.085-33.106.031-14.706 1.499-24.374 5.496-36.201 3.273-9.687 3.156-14.553-.466-19.302-3.617-4.741-6.89-6.359-12.83-6.342-4.52.014-6.131.547-13.742 4.553M214.613 160.95c-49.358 7.12-88.833 35.849-110.905 80.715-4.142 8.418-9.853 24.489-13.693 38.527-2.23 8.154-5.553 10.882-17.843 14.652-19.767 6.062-34.131 14.332-46.594 26.824-7.783 7.8-11.79 13.324-16.486 22.729-14.657 29.353-11.088 71.554 8.221 97.203C34.38 464.27 60.507 476.894 96 479.621c8.044.618 52.227.81 135.253.588 121.433-.324 123.45-.357 132.706-2.139 49.129-9.462 84.776-41.254 96.395-85.971 7.403-28.492 3.079-62.342-11.041-86.434-15.797-26.954-41.321-45.245-76.47-54.802-5.263-1.431-10.635-3.361-11.937-4.288-1.345-.958-4.402-5.53-7.077-10.584-20.894-39.476-52.554-64.178-93.749-73.144-6.15-1.338-11.829-1.784-25.413-1.995-9.622-.149-18.646-.106-20.054.098" fill-rule="evenodd"/></svg>