<svg xmlns="http://www.w3.org/2000/svg" width="512" height="512"><path d="M237.227 81.091c-36.896 5.102-68.615 21.917-92.283 48.923-8.382 9.564-15.927 20.764-23.056 34.224-3.69 6.967-6.256 10.781-8.076 12.004-1.467.986-6.843 2.866-11.946 4.178C36.018 197.35-2.331 245.833.236 308.907c1.688 41.505 21.248 76.445 55.675 99.457 15.425 10.31 31.939 17.023 51.751 21.037l9.671 1.959H416l9.605-1.947c36.842-7.467 61.98-25.193 75.745-53.412 15.261-31.285 13.984-71.434-3.164-99.418-14.711-24.008-37.513-39.422-72.778-49.196-7.715-2.138-11.74-6.554-13.587-14.907-13.735-62.096-55.025-108.931-110.909-125.804-14.729-4.446-23.722-5.748-41.925-6.068-8.918-.156-18.71.061-21.76.483m86.827 112.719c7.426 3.595 10.693 12.83 7.24 20.463-.996 2.202-24.501 30.789-56.866 69.161-41.832 49.596-55.936 65.774-58.345 66.927-4.594 2.198-10.284 1.985-14.48-.544-3.773-2.273-48.844-51.696-52.117-57.149-2.344-3.905-2.696-11.249-.721-15.046 2.567-4.935 8.813-8.822 14.177-8.822 6.33 0 8.941 2.105 25.824 20.814 8.94 9.907 17.109 18.908 18.152 20.001l1.898 1.989 48.903-58.074c52.028-61.786 51.78-61.528 59.238-61.529 1.847-.001 5.04.814 7.097 1.809" fill-rule="evenodd"/></svg>