<svg xmlns="http://www.w3.org/2000/svg" width="512" height="512"><path d="M241.92 48.656c-32.351 2.022-64.984 12.273-93.189 29.276-53.917 32.501-89.753 86.952-98.941 150.335-2.03 14.002-2.03 41.464 0 55.466 5.257 36.266 18.79 68.894 40.768 98.296 8.04 10.755 28.658 31.373 39.413 39.413 29.402 21.978 62.03 35.511 98.296 40.768 7.099 1.029 15.606 1.485 27.733 1.485s20.634-.456 27.733-1.485c36.266-5.257 68.894-18.79 98.296-40.768 10.755-8.04 31.373-28.658 39.413-39.413 20.459-27.37 33.566-57.361 39.414-90.189 10.068-56.519-4.22-115.167-39.415-161.788-32.853-43.518-83.69-72.968-138.134-80.021-12.74-1.65-28.565-2.176-41.387-1.375m32.808 122.011c12.807 3.638 22.723 9.783 32.206 19.958 9.906 10.627 17.595 26.941 19.955 42.335.54 3.52 1.418 6.682 1.953 7.027.534.345 2.139.633 3.565.64 4.476.022 12.502 2.46 19.702 5.984 9.265 4.535 15.697 10.873 19.815 19.527 2.841 5.971 3.119 7.243 3.409 15.58.53 15.224-2.511 24.018-11.325 32.747-5.769 5.714-11.741 8.954-21.645 11.742-6.511 1.833-7.302 1.851-79.536 1.875-78.212.026-78.602.008-90.342-4.356-17.103-6.356-30.706-21.261-34.642-37.957-1.638-6.95-1.651-20.959-.026-27.852 4.091-17.353 18.029-31.692 37.117-38.184 3.398-1.156 8.149-2.352 10.556-2.658 5.126-.652 7.363-1.642 7.363-3.258 0-2.414 7.776-16.48 11.931-21.582 10.139-12.45 25.059-20.946 41.403-23.577 5.813-.935 22.249.222 28.541 2.009" fill-rule="evenodd"/></svg>