<svg xmlns="http://www.w3.org/2000/svg" width="512" height="512"><path d="M235.025 81.416c-28.834 4.158-51.873 14.458-74.417 33.268-16.997 14.182-31.54 33.486-40.856 54.236l-3.658 8.147-10.367 2.345C57.681 190.279 21.709 219.409 7.693 258.8c-13.055 36.691-9.298 77.652 10.062 109.703 21.03 34.814 56.384 56.786 100.432 62.415 5.601.716 47.181.907 153.6.706l145.92-.276 8.96-1.968c29.926-6.574 51.284-19.271 66.597-39.593 21.179-28.107 24.79-74.089 8.381-106.731-11.656-23.187-33.653-41.409-61.817-51.208-7.243-2.52-11.589-3.641-24.041-6.205-1.181-.243-1.92-1.021-1.92-2.021 0-.895-.806-5.207-1.791-9.584-10.554-46.894-34.646-84.11-69.7-107.671-18.236-12.257-38.103-20.197-60.349-24.12-9.786-1.726-37.41-2.214-47.002-.831m42.308 32.659c42.102 6.727 78.784 37.525 95.591 80.256 4.28 10.883 8.054 25.668 9.843 38.561 1.821 13.13 2.388 14.702 6.747 18.72 3.915 3.609 4.269 3.718 17.099 5.251 29.688 3.547 54.784 18.531 65.599 39.166 5.997 11.442 6.935 15.847 6.928 32.504-.007 13.013-.259 15.806-1.963 21.712-3.12 10.816-8.153 19.581-15.507 27.008-10.323 10.424-22.305 16.42-41.145 20.588l-8.792 1.946H267.52c-158.725 0-149.557.284-166.841-5.176-33.612-10.618-57.748-35.424-65.953-67.784-1.565-6.17-1.84-9.677-1.84-23.467 0-13.795.275-17.295 1.841-23.467 4.067-16.029 11.546-29.284 22.903-40.589 16.907-16.831 37.5-26.27 66.894-30.662 13.574-2.028 15.566-3.657 20.405-16.691 6.987-18.818 15.2-32.02 27.871-44.805 9.671-9.757 17.183-15.561 27.347-21.13 22.604-12.386 48.924-16.457 77.186-11.941" fill-rule="evenodd"/></svg>