<svg xmlns="http://www.w3.org/2000/svg" width="512" height="512"><path d="M241.92 48.656c-32.351 2.022-64.984 12.273-93.189 29.276-53.917 32.501-89.753 86.952-98.941 150.335-2.03 14.002-2.03 41.464 0 55.466 5.257 36.266 18.79 68.894 40.768 98.296 8.04 10.755 28.658 31.373 39.413 39.413 29.402 21.978 62.03 35.511 98.296 40.768 7.099 1.029 15.606 1.485 27.733 1.485s20.634-.456 27.733-1.485c36.266-5.257 68.894-18.79 98.296-40.768 10.755-8.04 31.373-28.658 39.413-39.413 20.459-27.37 33.566-57.361 39.414-90.189 10.068-56.519-4.22-115.167-39.415-161.788-32.853-43.518-83.69-72.968-138.134-80.021-12.74-1.65-28.565-2.176-41.387-1.375m25.437 120.401c12.975 2.01 25.478 8.138 35.328 17.315 10.845 10.105 17.451 21.13 21.94 36.621 3.776 13.032 6.033 15.601 16.944 19.289 16.093 5.44 24.877 12.344 30.357 23.86 2.839 5.967 3.117 7.24 3.407 15.576.53 15.224-2.511 24.018-11.325 32.747-5.765 5.711-11.731 8.948-21.645 11.747-6.524 1.841-7.171 1.856-81.67 1.875l-75.093.02-6.788-1.966c-26.101-7.557-42.304-28.387-42.266-54.337.024-16.26 4.421-27.181 15.302-38.001 7.837-7.794 16.915-12.67 29.432-15.809 4.665-1.17 9.095-2.682 9.845-3.361.75-.679 3.171-4.803 5.379-9.164 13.885-27.42 40.522-41.109 70.853-36.412" fill-rule="evenodd"/></svg>