<svg xmlns="http://www.w3.org/2000/svg" width="512" height="512"><path d="M235.52 33.357c-23.114 2.975-45.688 11.415-64.853 24.247-18.852 12.623-35.24 30.562-46.77 51.196-8.348 14.941-9.043 15.564-19.92 17.861-32.789 6.925-55.716 18.483-74.537 37.577C8.224 185.763-1.148 211.017.296 242.773c1.28 28.139 11.668 51.816 31.247 71.221 15.815 15.675 39.624 28.196 64.03 33.675 17.752 3.985 20.688 4.143 83.84 4.532l60.374.372v72.8l-19.414-19.316c-10.677-10.624-20.311-19.773-21.409-20.331-1.098-.558-4.029-1.032-6.512-1.055-5.853-.052-10.994 2.743-13.661 7.426-2.73 4.795-3.183 7.482-2.048 12.162.919 3.792 3.192 6.28 34.361 37.618 18.357 18.456 35.021 34.532 37.032 35.725 4.973 2.949 10.755 2.949 15.728 0 2.011-1.193 18.675-17.269 37.032-35.725 30.466-30.631 33.458-33.892 34.305-37.397 2.514-10.391-5.004-19.904-15.653-19.809-2.483.023-5.414.497-6.512 1.055-1.098.558-10.732 9.707-21.409 20.331l-19.414 19.316v-72.946l62.934-.002c76.037-.003 85.541-.543 106.7-6.06 18.681-4.872 33.238-12.644 45.228-24.146 15.897-15.251 23.627-33.206 24.653-57.259 1.716-40.215-19.445-70.195-60.741-86.057-6.34-2.434-16.039-5.116-28.395-7.85-2.639-.584-8.323-5.846-9.415-8.716-.489-1.285-2.092-6.673-3.561-11.972-17.549-63.292-67.23-107.67-130.576-116.638-9.688-1.372-34.123-1.58-43.52-.37m26.184 175.764c2.979 1.125 6.793 4.669 8.666 8.052 1.28 2.314 1.44 8.956 1.655 68.907l.238 66.347h-32.526l.238-66.347c.215-59.854.377-66.597 1.651-68.907 4.07-7.377 12.702-10.839 20.078-8.052" fill-rule="evenodd"/></svg>