<svg xmlns="http://www.w3.org/2000/svg" width="512" height="512"><path d="M329.342 35.904c-30.394 14.662-54.404 42.204-66.005 75.712-4.315 12.466-6.491 24.254-7.087 38.398-.451 10.712-.68 12.133-1.875 11.646-.749-.304-8.128-.76-16.398-1.013-26.592-.811-44.236 2.677-66.394 13.126-22.814 10.759-43.335 28.533-57.756 50.027-11.12 16.574-20.721 40.413-24.266 60.249-1.193 6.675-1.661 7.203-7.214 8.146-7.432 1.261-19.145 5.103-27.329 8.964-11.814 5.572-20.835 11.851-29.444 20.493-12.134 12.18-18.894 24.273-23.167 41.441-2.566 10.308-2.782 32.097-.427 43.094 4.179 19.521 11.633 33.368 24.58 45.664 17.993 17.088 39.223 25.52 69.803 27.725 15.789 1.139 237.61 1.115 252.58-.027 6.298-.48 14.276-1.457 17.729-2.17 51.591-10.657 87.406-46.475 95.931-95.939 1.552-9.005 1.357-30.22-.366-39.796-3.727-20.712-11.558-37.128-25.266-52.966-3.321-3.836-6.038-7.129-6.038-7.318 0-.189 1.632-.831 3.627-1.427 13.189-3.943 34.057-16.84 46.869-28.965 15.628-14.791 30.621-38.441 30.552-48.195-.046-6.527-5.505-13.302-12.18-15.117-3.068-.834-4.453-.71-9.561.856-20.139 6.171-21.049 6.319-39.253 6.399-19.49.086-24.91-.804-39.163-6.43-25.697-10.144-46.432-30.831-56.466-56.333-8.754-22.252-9.068-50.727-.824-74.911 3.286-9.64 2.767-14.965-1.948-20.009-5.578-5.966-12.773-6.375-23.244-1.324m-11.216 81.856c10.983 59.791 59.144 103.963 119.078 109.215 5.703.5 13.057.995 16.343 1.1l5.973.192-5.298 4.289c-15.746 12.746-34.29 20.481-54.656 22.796-8.537.971-8.927.938-15.786-1.308-7.134-2.336-14.313-4.211-20.912-5.461-3.616-.685-3.662-.741-7.306-8.796-12.102-26.747-34.743-50.933-60.206-64.314-6.9-3.626-6.907-3.646-6.917-19.74-.014-25.678 7.899-47.686 24.222-67.365l3.499-4.218.552 14.458c.304 7.952.94 16.571 1.414 19.152m-65.048 76.303c32.704 6.546 61.047 30.094 74.695 62.056 6.451 15.109 13.888 21.057 30.2 24.153 35.191 6.68 61.31 27.86 70.272 56.985 4.104 13.338 4.518 33.2.993 47.596-4.976 20.318-20.203 39.72-39.66 50.535-7.228 4.017-17.674 8.024-26.857 10.301-7.257 1.8-8.189 1.815-135.308 2.112-93.607.218-130.176.032-136.101-.692-25.386-3.106-44.288-14.713-52.743-32.389-4.342-9.077-6.142-17.781-6.142-29.694 0-24.328 10.977-41.974 33.23-53.418 8.1-4.166 14.796-6.416 25.65-8.622 8.975-1.823 14.411-4.512 19.552-9.67 4.955-4.972 7.427-10.187 9.537-20.116 3.975-18.7 7.896-30.021 14.761-42.614 14.665-26.903 39.879-47.352 67.51-54.75 14.295-3.828 36.283-4.602 50.411-1.773" fill-rule="evenodd"/></svg>