<svg xmlns="http://www.w3.org/2000/svg" width="512" height="512"><path d="M153.527 124.204c-4.599 1.417.094-2.542-78.128 65.913-42.492 37.186-60.357 53.341-61.811 55.893-1.616 2.837-2.047 4.842-2.057 9.563-.021 10.933-3.559 7.305 69.556 71.316 36.147 31.646 67.292 58.392 69.212 59.437 4.847 2.637 8.713 3.191 14.004 2.007 8.741-1.956 15.287-9.126 16.323-17.879.762-6.433-.969-11.426-5.761-16.61-2.239-2.422-28.075-25.332-57.413-50.911C88.114 277.355 64.11 256.235 64.11 256c0-.235 24.004-21.355 53.342-46.933 29.338-25.579 55.174-48.489 57.413-50.911 4.792-5.184 6.523-10.177 5.761-16.61-.977-8.251-6.712-15.039-14.75-17.458-4.889-1.472-7.268-1.449-12.349.116m192.262-.118c-7.791 2.536-13.461 9.403-14.415 17.46-.762 6.433.969 11.426 5.761 16.61 2.239 2.422 28.075 25.332 57.413 50.911 29.338 25.578 53.342 46.698 53.342 46.933 0 .235-24.004 21.355-53.342 46.933-29.338 25.579-55.174 48.489-57.413 50.911-4.792 5.184-6.523 10.177-5.761 16.61 1.036 8.753 7.582 15.923 16.323 17.879 5.291 1.184 9.157.63 14.004-2.007 1.92-1.045 33.065-27.791 69.212-59.437 73.115-64.011 69.577-60.383 69.556-71.316-.01-4.723-.441-6.725-2.06-9.568-1.462-2.567-20.803-20.017-67.624-61.013-36.066-31.58-67.214-58.291-69.217-59.356-4.624-2.461-11.043-3.091-15.779-1.55m-96.693 16.177c-5.064 1.811-9.116 5.519-11.635 10.649l-2.368 4.821-.232 72.483-.232 72.483-14.701-14.571c-16.754-16.605-19.657-18.535-27.928-18.564-4.544-.016-6.359.428-10.041 2.458-10.496 5.787-13.967 19.317-7.524 29.32 2.939 4.562 68.62 69.653 72.178 71.529 4.142 2.184 14.633 2.184 18.774 0 3.484-1.838 68.082-65.819 71.726-71.042 6.996-10.027 3.714-23.86-7.072-29.807-3.682-2.03-5.497-2.474-10.041-2.458-8.271.029-11.174 1.959-27.928 18.564l-14.701 14.571-.232-72.483-.232-72.483-2.368-4.821c-3.664-7.46-10.426-11.744-18.539-11.744-2.112 0-5.219.493-6.904 1.095" fill-rule="evenodd"/></svg>