<svg xmlns="http://www.w3.org/2000/svg" width="512" height="512"><path d="M297.583 75.61c-5.161 1.587-10.997 7.153-12.879 12.283-3.73 10.166-97.824 325.754-97.824 328.097 0 1.481.587 4.415 1.304 6.519 3.71 10.889 15.105 16.709 26.204 13.383 4.639-1.39 11.304-7.568 12.97-12.022.741-1.982 23.068-75.987 49.616-164.457 44.962-149.831 48.242-161.189 47.862-165.76-.727-8.747-6.338-15.674-14.746-18.205-4.92-1.481-7.262-1.45-12.507.162m-144.056 48.594c-4.599 1.417.094-2.542-78.128 65.913-42.279 37-60.368 53.354-61.823 55.893-2.947 5.145-2.946 14.837.003 19.985 2.514 4.388 130.988 117.254 137.239 120.565 5.301 2.809 13.516 2.92 18.569.252 9.545-5.041 13.704-15.723 10.166-26.107-1.738-5.1-2.467-5.777-65.038-60.332C86.792 276.203 64.11 256.235 64.11 256c0-.235 23.988-21.355 53.307-46.933 29.32-25.579 54.826-47.957 56.681-49.728 4.516-4.312 6.098-7.632 6.596-13.838.786-9.782-5.232-18.571-14.625-21.36-5.132-1.524-7.426-1.513-12.542.063m192.047-.061c-9.128 2.927-15.038 11.773-14.268 21.358.498 6.206 2.08 9.526 6.596 13.838 1.855 1.771 27.361 24.149 56.681 49.728 29.319 25.578 53.307 46.698 53.307 46.933 0 .235-22.682 20.203-50.405 44.373-62.571 54.555-63.3 55.232-65.038 60.332-3.538 10.384.621 21.066 10.166 26.107 5.053 2.668 13.268 2.557 18.569-.252 6.251-3.311 134.725-116.177 137.239-120.565 1.674-2.923 2.059-4.792 2.059-9.995 0-5.203-.385-7.072-2.059-9.995-1.463-2.554-21.047-20.22-67.636-61.013-36.066-31.58-67.214-58.291-69.217-59.356-4.686-2.493-11.029-3.085-15.994-1.493" fill-rule="evenodd"/></svg>