<svg xmlns="http://www.w3.org/2000/svg" width="512" height="512"><path d="M81.531 184.682c-44.097 38.632-80.302 70.616-80.455 71.076-.153.459 33.039 29.982 73.76 65.605 40.721 35.624 76.979 67.359 80.572 70.523l6.532 5.753L175.8 381.8l13.859-15.84-2.701-2.286C175.691 354.133 64.11 256.335 64.11 256c0-.335 111.581-98.133 122.848-107.674l2.701-2.286-13.866-15.847c-7.626-8.715-13.915-15.825-13.976-15.799-.061.026-36.19 31.656-80.286 70.288m254.964-54.931c-7.43 8.492-13.587 15.7-13.683 16.018-.095.318 28.008 25.154 62.452 55.191 34.444 30.037 62.625 54.805 62.626 55.04 0 .335-111.572 98.125-122.848 107.674l-2.701 2.286L336.2 381.8l13.86 15.839 6.532-5.753c3.593-3.164 39.838-34.888 80.544-70.498 40.706-35.61 74.011-65.035 74.011-65.388 0-.353-33.305-29.778-74.011-65.388-40.706-35.61-76.963-67.345-80.572-70.523l-6.561-5.778-13.508 15.44M157.44 226.132c-15.082 4.729-24.72 20.289-21.79 35.18.575 2.922 1.812 6.817 2.75 8.655 2.644 5.182 8.956 11.374 14.24 13.969 4.27 2.097 5.742 2.357 13.333 2.357 10.297 0 14.29-1.52 21.228-8.082 6.699-6.335 9.44-12.785 9.44-22.211 0-9.325-2.758-15.899-9.227-21.994-6.509-6.133-11.373-8.172-20.148-8.448-3.996-.126-8.418.133-9.826.574m87.392 1.109c-12.978 5.451-20.083 16.549-19.404 30.31.577 11.695 7.138 21.558 17.604 26.464 4.199 1.968 5.966 2.278 12.968 2.278s8.769-.31 12.968-2.278c6.201-2.907 12.14-8.846 15.047-15.047 1.968-4.199 2.278-5.966 2.278-12.968 0-7.01-.309-8.767-2.288-12.988-2.838-6.055-9.03-12.199-15.205-15.085-6.809-3.183-17.309-3.483-23.968-.686m91.808-.823c-7.981 2.624-15.212 9.2-18.924 17.209-2.01 4.338-2.371 6.227-2.365 12.373.01 9.428 2.755 15.881 9.448 22.211 6.938 6.562 10.931 8.082 21.228 8.082 7.591 0 9.063-.26 13.333-2.357 12.307-6.044 19.542-20.205 16.996-33.269-1.936-9.935-7.863-17.754-17.046-22.487-3.826-1.971-5.915-2.433-11.947-2.637-4.415-.149-8.661.198-10.723.875" fill-rule="evenodd"/></svg>