<svg xmlns="http://www.w3.org/2000/svg" width="512" height="512"><path d="M153.906 129.181c-2.43 1.105-129.616 111.826-134.009 116.662-4.965 5.464-4.965 14.85 0 20.314 4.879 5.371 131.697 115.602 134.199 116.647 6.898 2.882 15.07.174 19.29-6.394 2.231-3.472 2.489-4.537 2.217-9.137-.18-3.054-.925-6.15-1.802-7.487-.821-1.254-27.399-24.953-59.061-52.665C83.079 279.409 57.173 256.404 57.173 256c0-.404 25.906-23.409 57.567-51.121 31.662-27.712 58.233-51.401 59.047-52.643.813-1.242 1.641-4.5 1.84-7.241.305-4.222.02-5.563-1.866-8.781-1.224-2.09-3.566-4.627-5.205-5.64-3.795-2.346-11.039-3.034-14.65-1.393m193.327-.365c-3.831 1.16-6.751 3.57-9.022 7.444-1.857 3.169-2.142 4.526-1.838 8.735.199 2.741 1.027 5.999 1.84 7.241.814 1.242 27.385 24.931 59.047 52.643 31.661 27.712 57.567 50.717 57.567 51.121 0 .404-25.906 23.409-57.567 51.121-31.662 27.712-58.24 51.411-59.061 52.665-.877 1.337-1.622 4.433-1.802 7.487-.272 4.6-.014 5.665 2.217 9.137 4.22 6.568 12.392 9.276 19.29 6.394 2.502-1.045 129.32-111.276 134.199-116.647 2.451-2.697 3.684-6.096 3.684-10.157s-1.233-7.46-3.684-10.157c-4.879-5.371-131.697-115.602-134.199-116.647-3.1-1.295-7.173-1.44-10.671-.38M249.6 145.428c-3.623 1.624-6.341 4.45-8.185 8.509-1.515 3.335-1.592 7.241-1.61 81.544l-.018 78.04-20.267-20.15c-17.432-17.332-20.722-20.236-23.521-20.759-4.907-.918-9.691.038-13.064 2.61-5.918 4.514-8.095 10.526-6.262 17.292.994 3.67 3.948 6.893 34.012 37.111 18.107 18.201 34.43 34.137 36.272 35.413 2.828 1.96 4.238 2.322 9.043 2.322 4.805 0 6.215-.362 9.043-2.322 1.842-1.276 18.165-17.212 36.272-35.413 30.064-30.218 33.018-33.441 34.012-37.111 3.205-11.829-6.893-22.228-19.326-19.902-2.799.523-6.089 3.427-23.521 20.759l-20.267 20.15-.018-78.04c-.018-74.141-.098-78.212-1.599-81.454-1.84-3.973-5.476-7.616-8.892-8.906-3.261-1.232-8.994-1.087-12.104.307" fill-rule="evenodd"/></svg>