<svg xmlns="http://www.w3.org/2000/svg" width="512" height="512"><path d="M122.453 32.428c-11.765 1.64-19.637 5.783-30.339 15.968-13.811 13.143-18.948 24.048-19.008 40.351-.048 13.363 3.123 22.479 11.429 32.853 2.255 2.816 13.356 14.336 24.67 25.6l20.57 20.48-43.912 43.52c-25.596 25.368-45.195 45.478-46.988 48.213-8.965 13.673-8.829 33.81.32 47.488 2.238 3.346 25.766 26.521 71.343 70.272 37.402 35.904 69.69 66.482 71.752 67.951 12.735 9.074 29.694 10.341 44.31 3.311 6.798-3.27 2.888.403 102.993-96.751 19.122-18.558 35.36-34.074 36.085-34.48.725-.405 6.497-1.255 12.825-1.887 9.647-.964 12.131-1.515 15.365-3.41 7.729-4.53 12.423-14.554 10.662-22.766-.515-2.402-1.544-5.647-2.287-7.213-1.545-3.255-236.158-236.24-242.443-240.76-10.153-7.302-24.155-10.579-37.347-8.74m15.787 33.345c2.77 1.252 9.964 7.84 25.82 23.646l21.981 21.911-16.426 16.442c-9.034 9.043-16.83 16.441-17.324 16.441-.494 0-10.56-9.709-22.367-21.575-15.297-15.373-21.966-22.671-23.198-25.387-3.788-8.351-1.344-17.34 6.883-25.314 8.002-7.755 16.439-9.867 24.631-6.164m146.825 143.483c41.721 41.406 75.577 75.536 75.236 75.844-.342.308-2.157 1.033-4.034 1.612-1.878.578-5.142 2.027-7.254 3.221-4.286 2.422-2.468.697-78.428 74.44-30.215 29.334-55.937 54.003-57.161 54.821-2.581 1.727-9.003 1.947-11.743.402-1.011-.57-32.004-29.998-68.874-65.397-43.997-42.24-67.34-65.233-67.922-66.9-1.325-3.801-1.074-6.659.863-9.836 1.396-2.289 142.157-143.323 143.176-143.453.156-.02 34.419 33.841 76.141 75.246m127.522 111.113c-.47.184-1.932.574-3.251.865-3.06.677-8.308 5.522-17.609 16.259-35.714 41.228-45.789 68.496-36.329 98.324 3.084 9.722 7.553 16.73 16.229 25.444 12.833 12.891 26.175 18.433 44.373 18.433 18.165 0 31.47-5.534 44.373-18.456 8.678-8.691 13.139-15.678 16.229-25.421 8.668-27.33.067-54.488-28.149-88.873-10.721-13.065-19.619-22.584-22.765-24.352-3.015-1.694-10.999-3.049-13.101-2.223m11.634 47.657c12.92 16.05 19.862 28.12 22.633 39.351 3.672 14.878-3.671 30.613-17.452 37.397-5.155 2.538-6.407 2.799-13.402 2.799-6.995 0-8.247-.261-13.402-2.799-9.665-4.758-16.125-13.607-17.943-24.578-1.731-10.446 2.074-22.104 12.153-37.233 7.038-10.565 18.602-24.765 19.643-24.121.413.255 3.909 4.388 7.77 9.184" fill-rule="evenodd"/></svg>