<svg xmlns="http://www.w3.org/2000/svg" width="512" height="512"><path d="M247.893 48.324c-34.423 2.466-63.643 15.75-87.937 39.979-23.168 23.106-37.224 53.198-39.323 84.188-.528 7.803-.464 8.275 1.257 9.196 1.421.761 3.246.609 8.442-.702 27.838-7.022 57.172-6.117 84.605 2.611 9.712 3.09 24.449 9.942 33.361 15.511 3.508 2.193 6.974 3.986 7.702 3.986.728 0 4.08-1.715 7.448-3.811 27.277-16.975 59.006-24.919 90.469-22.65 11.969.863 21.633 2.406 29.622 4.728 7.549 2.195 8.767.542 7.783-10.554-4.378-49.328-38.149-94.245-84.975-113.019-17.187-6.891-40.86-10.723-58.454-9.463m-92.16 144.274c-13.915 1.27-32.24 6.049-33.707 8.79-1.852 3.46 4.406 26.501 11.001 40.504 7.127 15.134 16.517 27.969 29.747 40.662 7.933 7.611 25.369 20.379 27.829 20.379 2.434 0 3.849-2.557 5.668-10.24 5.723-24.171 18.006-47.262 35.786-67.273 4.721-5.313 8.583-10.014 8.583-10.446 0-4.22-27.23-16.425-44.408-19.905-13.197-2.673-28.229-3.59-40.499-2.471m173.376.242c-16.596 2.103-32.408 6.867-46.178 13.917-8.301 4.249-11.571 6.585-11.571 8.268 0 .461 3.192 4.397 7.094 8.746 19.27 21.483 31.059 43.147 36.94 67.883 2.063 8.679 3.448 11.279 6.003 11.279 2.46 0 19.896-12.768 27.829-20.379 13.23-12.693 22.62-25.528 29.747-40.662 6.595-14.003 12.853-37.044 11.001-40.504-1.063-1.986-11.303-5.279-22.614-7.272-9.145-1.612-30.085-2.31-38.251-1.276M92.932 214.964c-45.908 30.492-69.11 85.898-58.278 139.164 12.286 60.421 66.143 106.533 128.213 109.775 21.431 1.12 47.838-4.817 67.533-15.182 8.045-4.234 10.24-5.981 10.24-8.147 0-.62-3.689-5.059-8.197-9.864-24.954-26.597-38.159-58.915-40.331-98.707l-.539-9.858-4.693-2.698c-13.517-7.771-20.454-12.438-28.378-19.091-24.678-20.721-42.565-49.576-50.139-80.888-1.877-7.76-3.265-10.401-5.466-10.401-.598 0-5.082 2.653-9.965 5.897m313.855-4.669c-.676.676-2.093 4.804-3.15 9.173-7.574 31.312-25.461 60.167-50.139 80.888-7.924 6.653-14.861 11.32-28.378 19.091l-4.693 2.698-.539 9.858c-2.169 39.743-15.408 72.143-40.331 98.707-4.508 4.805-8.197 9.244-8.197 9.864 0 2.166 2.195 3.913 10.24 8.147 19.687 10.361 46.103 16.302 67.515 15.183 19.313-1.008 36.277-5.491 54.085-14.291 13.804-6.822 24.51-14.603 36.267-26.36 11.741-11.741 19.522-22.441 26.373-36.266 13.885-28.021 17.595-57.202 11.089-87.231-6.166-28.456-21.156-54.176-42.734-73.316-6.807-6.039-23.122-17.373-25.006-17.373-.646 0-1.727.552-2.402 1.228M245.55 234.571c-17.409 18.139-29.178 40.541-34.697 66.051-1.325 6.124-1.573 8.796-.926 10.005 1.01 1.886 10.577 5.017 22.606 7.397 5.69 1.126 11.772 1.52 23.467 1.52 11.695 0 17.777-.394 23.467-1.52 11.704-2.316 21.601-5.519 22.554-7.3 1.062-1.985-1.538-15.04-5.165-25.934-6.075-18.246-16.937-36.185-30.406-50.219-10.588-11.031-10.312-11.031-20.9 0m-36.27 96.621c-1.414 1.453-1.345 5.913.256 16.697 4.185 28.184 16.927 53.847 37.245 75.009 9.187 9.571 9.361 9.563 19.162-.805 16.094-17.026 26.543-35.322 33.057-57.881 2.266-7.847 4.787-22.931 4.787-28.644 0-6.088-1.043-6.261-17.067-2.825-19.688 4.222-41.834 4.219-61.44-.01-11.71-2.525-14.757-2.818-16-1.541" fill-rule="evenodd"/></svg>