<svg xmlns="http://www.w3.org/2000/svg" viewBox="0 0 512 512"><path d="M183.743 34.579c-1.96 1.175-4.456 3.571-5.547 5.325-1.948 3.134-1.987 3.656-2.254 30.069-.297 29.432-.064 31.381 4.35 36.408 6.434 7.328 16.982 7.328 23.416 0 4.414-5.027 4.647-6.976 4.35-36.408-.267-26.458-.303-26.93-2.266-30.087-4.505-7.247-14.714-9.704-22.049-5.307m-99.69 40.862c-8.148 3.612-11.856 12.684-8.502 20.8 1.618 3.913 36.912 39.652 41.535 42.058 5.6 2.914 14.743 1.371 18.775-3.17 4.123-4.643 5.213-12.711 2.438-18.043-2.406-4.623-38.145-39.917-42.058-41.535-3.854-1.593-8.742-1.637-12.188-.11m203.52.098c-3.778 1.679-39.644 37.267-41.872 41.547-2.775 5.332-1.685 13.4 2.438 18.043 4.029 4.537 13.167 6.083 18.775 3.177 1.741-.902 11.664-10.214 22.049-20.693 20.293-20.475 21.402-22.059 20.574-29.403-1.14-10.116-12.702-16.786-21.964-12.671m-93.655 78.214c-13.871 1.468-27.609 10.853-35.062 23.954-8.168 14.358-7.527 34.671 1.518 48.102 4.637 6.886 233.79 235.726 239.054 238.728 13.417 7.651 30.609 8.386 44.316 1.896 9.051-4.286 18.399-13.628 22.678-22.666 6.793-14.346 5.637-32.611-2.902-45.839-1.46-2.263-55.182-56.562-119.381-120.663-108.448-108.284-117.123-116.739-122.326-119.228-8.58-4.106-17.148-5.421-27.895-4.284M44.447 176.381c-3.786.762-8.543 4.468-10.395 8.098-3.801 7.451-1.204 16.937 5.834 21.313 3.157 1.963 3.629 1.999 30.087 2.266 29.432.297 31.381.064 36.408-4.35 6.791-5.962 7.366-15.824 1.298-22.238-4.972-5.255-4.911-5.245-34.292-5.38-14.784-.069-27.807.062-28.94.291m392.97 240.658c5.468 12.554-6.949 25.48-19.868 20.682-1.359-.504-41.582-40.054-92.637-91.086l-90.235-90.195 10.868-10.892 10.868-10.892 89.904 89.819c52.516 52.465 90.402 90.96 91.1 92.564M117.333 245.69c-4.659 2.184-40.006 37.773-41.782 42.069-4.003 9.686 2.347 20.615 12.652 21.777 7.352.829 8.932-.277 29.41-20.573 10.479-10.385 19.791-20.308 20.693-22.049 2.906-5.608 1.36-14.746-3.177-18.775-4.618-4.101-12.079-5.127-17.796-2.449" fill-rule="evenodd"/></svg>