<svg xmlns="http://www.w3.org/2000/svg" width="512" height="512"><path d="M247.467 48.312c-35.152 2.948-63.392 15.844-87.511 39.964-15.82 15.819-26.433 32.978-33.227 53.717-2.763 8.436-6.074 23.319-5.349 24.045.186.186 4.536-.6 9.666-1.746 13.292-2.971 21.927-3.868 37.038-3.849 19.943.025 35.875 2.566 53.783 8.576 8.947 3.002 23.493 9.592 29.963 13.572l4.17 2.567 4.132-2.543c11.68-7.187 33.499-15.55 48.898-18.743 23.701-4.914 50.936-4.631 73.66.766 4.08.969 7.614 1.762 7.852 1.762 1.439 0-4.038-22.004-7.965-32-6.916-17.604-16.415-31.941-30.56-46.124-20.98-21.037-45.768-33.831-74.257-38.326-8.275-1.306-24.071-2.16-30.293-1.638m-94.72 144.634c-7.907.895-20.208 3.561-26.454 5.732l-4.693 1.631.24 4.387c.327 5.999 3.851 19.172 7.893 29.511 4.22 10.793 10.401 21.701 17.959 31.696 6.147 8.128 20.698 22.676 27.443 27.439l3.941 2.781 1.007-4.915c1.84-8.975 7.631-25.258 12.76-35.88 7.913-16.384 17.168-29.892 28.93-42.223 3.477-3.645 6.168-6.764 5.981-6.931-1.017-.906-6.719-3.431-12.924-5.724-19.224-7.103-41.667-9.816-62.083-7.504m175.786-.002c-8.095.915-17.29 2.911-26.026 5.652-7.586 2.379-18.347 6.98-18.347 7.844 0 .306 1.952 2.463 4.338 4.792 18.693 18.249 35.27 47.968 42.35 75.925l2.24 8.849 3.858-2.723c6.671-4.707 21.246-19.292 27.362-27.38 7.523-9.949 13.351-20.227 17.782-31.36 4.145-10.416 7.734-23.688 8.07-29.847l.24-4.387-4.693-1.628c-16.02-5.557-38.658-7.828-57.174-5.737M85.76 219.869c-46.495 36.092-64.982 95.688-46.81 150.904 14.761 44.852 53.845 80.021 100.072 90.047 22.975 4.982 45.894 4.077 67.911-2.683 7.569-2.323 19.804-7.043 20.774-8.013.197-.197-2.436-3.347-5.85-7.001-19.647-21.027-33.627-46.398-40.485-73.47-2.491-9.834-4.687-23.976-4.728-30.453-.043-6.644-.54-7.409-7.6-11.677-19.028-11.504-37.65-28.923-50.669-47.396-11.471-16.276-22.524-41.313-26.191-59.327-.549-2.699-1.067-4.906-1.151-4.906-.084 0-2.457 1.789-5.273 3.975m333.633 2.64c-3.241 14.565-11.339 34.321-19.851 48.424-13.479 22.334-35.086 43.939-56.751 56.747-7.349 4.344-6.476 2.212-8.215 20.06-3.279 33.652-19.781 69.213-44.127 95.093-3.459 3.677-6.289 6.89-6.289 7.141 0 .646 16.331 6.913 23.467 9.005 20.139 5.905 43.566 6.565 65.351 1.841 24.218-5.253 47.93-18.098 65.924-35.712 47.051-46.057 54.477-118.305 17.781-172.988-7.92-11.803-21.28-25.769-32.047-33.501l-3.775-2.711-1.468 6.601m-173.088 11.339c-14.394 15.022-24.945 32.271-31.165 50.953-2.853 8.57-6.39 24.61-5.778 26.205.476 1.241 13.024 5.051 23.171 7.035 10.723 2.098 36.211 2.098 46.934 0 10.147-1.984 22.695-5.794 23.171-7.035.643-1.676-2.977-17.769-5.981-26.59-6.521-19.145-16.554-35.532-30.962-50.568-4.966-5.182-9.328-9.421-9.695-9.421-.367 0-4.729 4.239-9.695 9.421m-37.238 112.258c0 .278.767 4.271 1.705 8.873 3.556 17.449 12.103 37.152 22.462 51.778 5.94 8.386 20.813 24.191 22.766 24.191 1.953 0 16.826-15.805 22.766-24.191 10.402-14.686 18.906-34.326 22.5-51.962.958-4.703 1.578-8.716 1.377-8.916-.201-.201-3.4.409-7.11 1.356-24.217 6.183-54.783 6.2-78.896.044-7.257-1.853-7.57-1.902-7.57-1.173" fill-rule="evenodd"/></svg>