<svg xmlns="http://www.w3.org/2000/svg" width="512" height="512"><path d="M269.227 48.661c-71.823 4.488-142.893 41.718-182.985 95.858-43.348 58.538-50.27 132.68-18.414 197.241 9.873 20.01 20.091 34.416 36.246 51.102 36.735 37.943 85.444 61.279 144.673 69.311 13.381 1.815 48.506 2.093 61.013.483 29.289-3.769 53.359-10.206 77.089-20.613 18.437-8.086 43.585-24.539 55.421-36.259 9.287-9.196 13.42-19.459 13.397-33.27-.023-14.117-4.051-24.956-12.609-33.928-7.952-8.337-14.442-11.368-31.712-14.806-6.687-1.331-11.976-2.905-14.264-4.247-7.229-4.236-10.517-11.687-7.625-17.279.757-1.465 9.97-10.337 20.473-19.714 20.318-18.142 26.392-24.442 33.66-34.916 15.196-21.897 22.395-48.859 19.791-74.115-3.87-37.544-23.142-67.373-58.901-91.17-37.536-24.98-85.064-36.814-135.253-33.678m35.536 32.422c37.521 3.69 69.731 16.51 95.522 38.018 10.3 8.589 18.505 19.109 23.912 30.659 9.513 20.321 10.012 44.375 1.335 64.444-6.871 15.893-12.523 22.704-36.712 44.243-21.526 19.168-24.597 22.458-28.38 30.406-8.966 18.839-3.533 39.514 14.136 53.79 7.931 6.407 14.62 9.236 29.051 12.284 7.122 1.504 13.278 3.286 14.506 4.199 3.782 2.811 5.363 6.576 5.421 12.907.066 7.231-1.336 9.484-10.425 16.748-26.573 21.24-58.49 34.55-98.216 40.957-13.046 2.105-44.854 2.538-59.766.815-48.953-5.657-90.949-24.306-122.521-54.408-16.181-15.427-27.368-30.613-36.647-49.745-29.628-61.093-16.875-132.573 32.428-181.76 36.58-36.494 85.752-59.057 139.113-63.834 7.737-.693 28.994-.535 37.243.277m-86.608 31.574c-13.746 2.388-24.95 14.924-25.96 29.045-1.325 18.513 13.205 34.085 31.805 34.085 27.695 0 42.203-32.908 23.469-53.232-7.486-8.121-18.375-11.798-29.314-9.898m103.782-.006c-9.832 2.037-18.777 9.109-22.951 18.146-2.157 4.669-2.453 6.288-2.453 13.416 0 7.016.309 8.766 2.294 13.002 2.931 6.253 9.598 12.92 15.852 15.851 4.29 2.011 5.949 2.294 13.428 2.294 7.63 0 9.051-.255 13.429-2.404 10.075-4.945 17.243-15.29 18.278-26.379 1.286-13.774-7.802-27.927-20.837-32.45-5.187-1.8-12.444-2.428-17.04-1.476m-183.755 63.961c-16.336 2.913-28.495 19.663-25.779 35.514 1.908 11.142 8.475 20.168 18.124 24.911 4.188 2.058 5.698 2.323 13.26 2.323 7.457 0 9.144-.286 13.376-2.27 11.144-5.225 17.808-15.148 18.444-27.465.284-5.515-.007-7.993-1.403-11.949-5.194-14.72-20.712-23.794-36.022-21.064m3.898 104.129c-13.466 4.515-21.76 16.064-21.76 30.299 0 28.222 34.012 42.565 53.801 22.688 10.466-10.513 12.78-24.43 6.217-37.4-6.837-13.514-23.813-20.431-38.258-15.587m102.524 39.757c-12.538 3.035-25.533 13.189-31.042 24.255-9.639 19.362-6.284 40.954 8.69 55.928 9.61 9.61 20.223 14.019 33.748 14.019 13.525 0 24.138-4.409 33.748-14.019 18.723-18.722 18.893-48.4.385-67.061-11.946-12.044-29.308-17.048-45.529-13.122" fill-rule="evenodd"/></svg>