<svg xmlns="http://www.w3.org/2000/svg" width="512" height="512"><path d="M241.493 48.673c-39.799 2.563-78.317 17.074-111.786 42.114-10.589 7.922-31.248 28.596-39.155 39.184-21.846 29.252-35.222 61.365-40.767 97.869-2.061 13.574-2.061 42.746 0 56.32 5.546 36.511 18.94 68.661 40.773 97.869 8.04 10.755 28.658 31.373 39.413 39.413 29.208 21.833 61.358 35.227 97.869 40.773 13.574 2.061 42.746 2.061 56.32 0 36.526-5.548 68.754-18.978 97.869-40.785 10.755-8.056 31.345-28.646 39.401-39.401 21.807-29.115 35.237-61.343 40.785-97.869 2.061-13.574 2.061-42.746 0-56.32-6.752-44.453-25.412-83.157-55.294-114.69-36.541-38.56-84.833-61.088-138.36-64.543-13.196-.852-12.782-.853-27.068.066m42.667 33.635c35.838 6.075 67.575 21.95 93.579 46.81 27.61 26.395 45.561 60.682 52.093 99.5 2.091 12.43 2.073 42.896-.033 55.115-9.878 57.299-44.492 104.256-95.788 129.946-48.421 24.25-107.601 24.25-156.022 0-51.464-25.774-86.214-73.029-95.815-130.297-2.121-12.648-2.121-42.116 0-54.764 10.541-62.873 51.565-113.601 110.675-136.854 13.047-5.132 28.757-8.823 46.938-11.027 6.667-.809 36.585.251 44.373 1.571m7.527 92.131c-33.173 13.296-62.741 25.544-65.707 27.218-10.96 6.187-19.748 15.259-25.317 26.136-1.816 3.546-13.97 33.18-27.01 65.853-17.2 43.095-23.567 59.968-23.194 61.457.7 2.788 3.571 5.718 6.266 6.395 1.716.43 15.78-4.852 61.629-23.151 32.673-13.04 62.323-25.203 65.889-27.029 11.102-5.684 21.047-15.458 26.687-26.227 3.892-7.43 50.883-125.006 50.883-127.312 0-2.464-5.311-7.602-7.808-7.553-1.103.021-29.146 10.917-62.318 24.213m-27.526 59.098c5.639 1.921 12.381 8.663 14.302 14.302 2.983 8.755 1.187 17.347-5.084 24.322-9.252 10.29-25.506 10.29-34.758 0-9.003-10.014-8.717-23.456.699-32.873 6.826-6.825 15.675-8.874 24.841-5.751" fill-rule="evenodd"/></svg>