<svg xmlns="http://www.w3.org/2000/svg" width="512" height="512"><path d="M241.92 48.669c-64.561 4.115-123.152 38.433-159.962 93.693-26.292 39.469-38.649 92.321-32.455 138.811 6.326 47.479 26.376 88.354 59.673 121.651 33.526 33.526 73.443 53.027 122.504 59.846 4.224.587 15.168 1.068 24.32 1.068 9.152 0 20.096-.481 24.32-1.068 49.001-6.811 88.952-26.339 122.482-59.868 33.529-33.53 53.057-73.481 59.868-122.482 1.376-9.9 1.376-38.74 0-48.64-6.778-48.766-26.328-88.904-59.45-122.057-11.819-11.831-20.651-19.077-33.662-27.617-37.561-24.655-81.952-36.249-127.638-33.337m125.867 95.762c0 .12-14.346 36.079-31.879 79.908L304.03 304.03l-79.643 31.859c-43.804 17.523-79.754 31.749-79.889 31.613-.136-.135 14.09-36.086 31.613-79.89l31.86-79.643 79.268-31.799c75.013-30.092 80.548-32.273 80.548-31.739m-120.086 89.087c-5.583 1.977-11.767 8.049-13.84 13.59-7.391 19.754 11.187 38.455 30.881 31.087 16.175-6.052 20.29-28.001 7.419-39.574-6.873-6.179-16.027-8.089-24.46-5.103" fill-rule="evenodd"/></svg>