<svg xmlns="http://www.w3.org/2000/svg" width="512" height="512"><path d="M197.973 48.364c-15.16 1.1-31.157 5.484-47.552 13.031-32.994 15.188-60.864 35.988-80.095 59.778-7.68 9.501-9.582 12.642-10.714 17.702-1.357 6.066-4.403 8.744-9.971 8.77-2.193.011-5.666.781-7.718 1.712-4.655 2.112-35.987 31.987-39.077 37.259-1.357 2.315-2.323 5.535-2.609 8.695-.843 9.286.332 10.853 29.509 39.356 14.173 13.845 27.19 25.928 28.927 26.852 3.883 2.063 12.543 2.728 16.882 1.296 3.976-1.312 36.925-32.515 40.155-38.027 2.883-4.92 3.528-11.53 1.617-16.575-.801-2.112-1.511-4.8-1.578-5.973-.114-1.983.133-2.122 3.5-1.972 7.209.321 20.711 9.751 41.696 29.124l10.332 9.538.542 5.335c.363 3.567 1.564 7.413 3.624 11.608l3.082 6.273 3.111-2.937c1.711-1.616 16.658-15.521 33.217-30.901 22.186-20.607 29.879-28.237 29.241-29.005-1.722-2.075-9.977-5.998-15.401-7.32l-5.546-1.351-13.038-17.876c-16.418-22.509-16.829-23.322-16.829-33.249 0-6.949.267-8.236 2.766-13.316 3.503-7.123 9.456-12.755 17.518-16.574 13.427-6.361 26.96-7.921 39.526-4.556 3.713.994 7.777 1.994 9.032 2.221 5.178.937 13.434-4.168 15.765-9.748 1.679-4.018 1.414-9.417-.675-13.731-1.005-2.076-5.517-7.509-10.026-12.073-7.618-7.708-8.956-8.668-18.866-13.531-11.658-5.721-20.288-8.25-32.566-9.544-7.799-.821-9.99-.857-17.781-.291m182.187.295c-31.722 3.378-60.705 19.505-77.414 43.074-17.142 24.183-22.209 58.283-13.861 93.295 2.367 9.929 2.554 12.726 1.067 15.99-.57 1.25-40.918 39.33-89.663 84.624s-90.168 84.302-92.051 86.684c-14.557 18.416-16.143 43.767-4.027 64.339 1.585 2.691 5.658 7.665 9.05 11.054 4.83 4.825 7.882 6.998 14.08 10.024 8.306 4.054 17.791 6.47 25.406 6.47 13.245 0 28.993-6.457 39.039-16.008 3.328-3.164 42.363-44.613 86.745-92.11 71.005-75.988 81.056-86.427 83.701-86.923 3.32-.623 3.954-.543 16.221 2.035 40.517 8.516 78.186-.634 102.134-24.808 14.249-14.384 23.974-33.094 29.064-55.923 1.541-6.908 1.843-10.919 1.815-24.076-.031-14.288-.247-16.583-2.278-24.172-2.529-9.456-5.771-17.082-8.544-20.098-4.672-5.082-13.313-6.586-19.611-3.414-2.253 1.135-13.96 12.118-31.38 29.44-27.708 27.551-27.798 27.631-31.403 27.631-1.988 0-4.652-.545-5.919-1.212-1.267-.666-7.925-6.906-14.794-13.866-13.126-13.3-14.303-15.187-13.093-20.976.453-2.167 6.618-8.837 28.193-30.506 18.436-18.517 28.05-28.788 28.928-30.906 2.91-7.022.466-16.02-5.402-19.888-10.874-7.168-37.247-11.771-56.003-9.774m-50.035 298.904-32.898 35.157 5.2 5.602a387299 387299 0 0 0 22.184 23.893c9.342 10.061 22.284 24.244 28.761 31.518 6.477 7.275 13.349 14.246 15.271 15.49 1.922 1.245 6.019 2.947 9.105 3.782 4.726 1.28 6.466 1.372 11.05.587 9.912-1.698 12.022-3.254 33.775-24.903 22.408-22.3 24.379-25.07 25.211-35.432.876-10.92-3.179-18.725-14.873-28.623-8.897-7.529-32.392-28.451-52.73-46.954-7.997-7.275-15.128-13.687-15.848-14.25-1.108-.865-6.393 4.409-34.208 34.133" fill-rule="evenodd"/></svg>