<svg xmlns="http://www.w3.org/2000/svg" width="512" height="512"><path d="M235.947 32.932c-1.408.193-7.168.963-12.8 1.711-45.717 6.07-91.56 29.208-125.846 63.517-35.148 35.171-56.809 79.485-63.614 130.14-1.649 12.279-1.888 38.816-.464 51.593 10.78 96.716 81.661 175.032 176.778 195.323 28.475 6.074 63.523 6.074 91.998 0 60.645-12.937 112.825-49.852 145.36-102.834 32.513-52.947 41.096-118.42 23.535-179.529-21.552-75-84.293-135.253-160.281-153.926-19.536-4.8-27.851-5.788-51.2-6.082-11.498-.145-22.058-.105-23.466.087M256 256v180.053l-5.333-.026c-7.509-.038-23.427-2.063-33.494-4.262-45.504-9.939-85.775-37.802-111.594-77.211-14.144-21.589-23.281-45.579-27.622-72.527-2.809-17.434-2.004-43.679 1.924-62.72 7.868-38.146 29.976-75.564 59.006-99.872 32.469-27.188 71.714-42.3 112.633-43.371l4.48-.117V256" fill-rule="evenodd"/></svg>