<svg xmlns="http://www.w3.org/2000/svg" width="512" height="512"><path d="M75.406 64.589c-2.734.536-8.91 6.181-10.237 9.358-1.533 3.67-1.481 8.125.141 12.054.911 2.206 16.957 18.83 52.69 54.586L169.381 192H131.04c-37.327 0-38.44.048-42.08 1.81-6.835 3.309-10.43 12.265-7.945 19.794 1.509 4.571 6.675 8.776 12.19 9.92 3.23.671 21.848.888 61.737.718 51.847-.22 57.355-.376 59.758-1.692 3.414-1.87 7.814-6.893 8.648-9.872.358-1.282.652-28.827.652-61.211 0-57.192-.049-58.977-1.707-62.239-.938-1.847-3.182-4.535-4.986-5.973-2.926-2.334-3.896-2.615-9.022-2.615-7.164 0-11.713 2.615-14.475 8.32-1.762 3.64-1.81 4.753-1.81 42.08v38.341L140.587 118c-35.756-35.733-52.38-51.779-54.586-52.69-3.028-1.25-6.64-1.496-10.595-.721m350.407.704c-1.842.82-22.68 21.011-54.4 52.709L320 169.381V131.04c0-37.327-.048-38.44-1.81-42.08-2.762-5.705-7.311-8.32-14.475-8.32-5.152 0-6.081.273-9.022 2.65-1.804 1.458-4.048 3.954-4.986 5.547-1.663 2.821-1.707 4.431-1.707 62.203 0 32.619.294 60.356.652 61.638.834 2.979 5.234 8.002 8.648 9.872 2.403 1.316 7.911 1.472 59.758 1.692 39.889.17 58.507-.047 61.737-.718 5.515-1.144 10.681-5.349 12.19-9.92 2.485-7.529-1.11-16.485-7.945-19.794-3.64-1.762-4.753-1.81-42.073-1.81h-38.335l51.737-51.84c55.693-55.804 54.309-54.19 53.398-62.279-.48-4.26-2.228-7.03-6.738-10.68-3.792-3.07-10.672-3.932-15.216-1.908M89.157 289.616c-3.622 1.578-7.901 6.748-8.58 10.366-1.441 7.681 1.978 15.108 8.383 18.208 3.64 1.762 4.753 1.81 42.08 1.81h38.341L118 371.413c-35.733 35.756-51.779 52.38-52.69 54.586-2.532 6.132-1.433 11.851 3.222 16.769 4.866 5.141 11.116 6.545 17.469 3.922 2.206-.911 18.83-16.957 54.586-52.69L192 342.619v38.341c0 37.327.048 38.44 1.81 42.08 3.309 6.835 12.265 10.43 19.794 7.945 4.571-1.509 8.776-6.675 9.92-12.19 1.507-7.257.87-118.131-.695-120.982-1.693-3.085-5.301-6.793-7.96-8.183-3.292-1.719-121.767-1.733-125.712-.014m207.34.4c-3.339 2.036-7.04 6.444-7.857 9.356-.352 1.255-.64 28.969-.64 61.588 0 66.045-.38 61.72 5.911 67.245 7.362 6.463 19.946 3.786 24.279-5.165 1.762-3.64 1.81-4.753 1.81-42.08v-38.341L371.413 394c35.756 35.733 52.38 51.779 54.586 52.69 6.353 2.623 12.603 1.219 17.469-3.922 4.655-4.918 5.754-10.637 3.222-16.769-.911-2.206-16.957-18.83-52.69-54.586L342.619 320h38.341c37.327 0 38.44-.048 42.08-1.81 9.002-4.358 11.627-16.918 5.091-24.362-4.938-5.624-2.105-5.402-68.637-5.398-57.327.003-60.533.084-62.997 1.586" fill-rule="evenodd"/></svg>