<svg xmlns="http://www.w3.org/2000/svg" width="512" height="512"><path d="M100.267 32.952c-.939.19-3.819.759-6.4 1.266-6.9 1.354-18.25 6.359-26.027 11.475-12.938 8.512-24.885 23.185-30.19 37.079C31.691 98.376 32 90.842 32 220.587c0 129.191-.373 119.858 5.385 134.687 5.889 15.167 19.939 30.079 35.551 37.734 8.281 4.06 17.94 6.365 29.127 6.95l9.477.497.548 9.052c1.34 22.137 9.904 39.483 26.458 53.59 6.299 5.367 17.581 11.414 25.826 13.842 11.526 3.392 19.152 3.573 138.135 3.277l114.346-.284 7.098-1.887c14.187-3.771 25.983-10.651 35.618-20.774 9.255-9.725 14.919-19.938 18.476-33.32l1.887-7.098.284-114.346c.296-118.983.115-126.609-3.277-138.135-5.585-18.971-19.115-35.067-37.046-44.071-10.215-5.13-18.233-7.265-30.384-8.088l-9.051-.614-.498-9.506c-1.025-19.569-6.855-33.535-19.76-47.33-8.412-8.993-18.916-15.602-31.613-19.892l-5.974-2.018-120.32-.123c-66.176-.067-121.088.032-122.026.222M336.385 64.96c6.384 1.356 13.325 5.066 18.691 9.992 8.64 7.93 12.711 17.586 12.711 30.15v6.61l-96.64.297c-105.952.327-99.621.024-113.28 5.418-21.19 8.368-37.046 26.304-43.671 49.4l-1.959 6.826-.249 97.067-.25 97.067h-7.153c-8.384 0-15.542-1.95-21.726-5.919-8.759-5.62-15.814-15.665-17.899-25.483-1.321-6.22-1.36-226.343-.042-233.615 3.151-17.383 19.982-34.539 37.055-37.771 6.453-1.222 228.668-1.258 234.412-.039m81.292 80.561c14.305 3.726 26.364 16.428 29.383 30.948 1.245 5.989 1.328 231.658.088 238.348-2.843 15.332-16.191 29.032-31.403 32.232-3.197.672-38.464.951-120.339.951-109.62 0-116.118-.084-121.449-1.562-3.098-.859-7.33-2.556-9.403-3.771-5.067-2.97-12.765-10.856-15.499-15.878-5.056-9.291-4.842-3.496-4.842-130.682 0-101.958.164-117.177 1.308-121.57 3.631-13.94 14.818-25.254 28.648-28.973 7.134-1.919 236.152-1.959 243.508-.043" fill-rule="evenodd"/></svg>