<svg xmlns="http://www.w3.org/2000/svg" width="512" height="512"><path d="M52.053 33.225c-7.724 2.358-13.989 7.977-17.662 15.842L32 54.187v326.826l2.017 4.461c1.109 2.453 3.675 5.989 5.702 7.858 6.229 5.741 8.288 6.285 25.338 6.688l15.137.359.223-148.35.223-148.349 2.294-4.895c2.931-6.253 9.598-12.92 15.851-15.851l4.895-2.294 148.349-.223 148.35-.223-.359-15.137c-.4-16.908-.936-18.999-6.439-25.103-1.75-1.941-5.101-4.424-7.448-5.52l-4.266-1.991-163.84.065c-90.112.036-164.8.358-165.974.717m71.905 79.386c-3.64.873-8.393 4.566-10.252 7.966-1.407 2.573-1.493 12.444-1.493 172.116 0 161.039.076 169.548 1.529 172.645 2.332 4.969 7.827 10.404 12.784 12.645l4.461 2.017h330.24l4.848-2.381c5.493-2.697 9.501-6.832 12.128-12.509l1.797-3.883V296.533c0-159.496-.051-164.825-1.614-168.877-2.078-5.389-6.54-10.288-11.985-13.162l-4.321-2.281-167.68-.132c-92.224-.073-168.923.166-170.442.53" fill-rule="evenodd"/></svg>