<svg xmlns="http://www.w3.org/2000/svg" width="512" height="512"><path d="M86.613 34.213C63.061 39.952 43.429 58.29 35.541 81.92c-3.977 11.915-4.083 15.835-3.783 139.947l.282 116.48 1.939 6.826c2.256 7.941 6.57 17.473 10.523 23.249 7.858 11.483 20.881 21.863 33.365 26.593l2.346.889.012-122.218c.01-115.832.094-122.622 1.599-129.914 6.402-31.02 30.928-55.546 61.948-61.948 7.292-1.505 14.082-1.589 129.914-1.599l122.218-.012-.889-2.346c-6.62-17.472-21.671-32.815-39.414-40.18-13.245-5.497-7.009-5.267-140.738-5.199-117.349.06-121.652.118-128.25 1.725m91.307 78.129c-9.099 1.158-14.498 2.453-20.657 4.954-18.36 7.457-33.354 22.547-40.299 40.557-5.391 13.977-5.242 9.744-4.977 141.734l.241 119.826 1.873 6.418c7.721 26.451 26.201 44.756 52.726 52.224l6.826 1.922 116.48.271c82.004.19 118.961-.013 124.863-.685 34.909-3.977 60.585-29.653 64.568-64.567.675-5.911.876-42.729.682-124.863l-.275-116.48-1.919-6.826c-6.246-22.218-20.088-38.701-40.426-48.141-14.788-6.864-4.52-6.378-138.106-6.532-65.472-.075-120.192.009-121.6.188" fill-rule="evenodd"/></svg>