<svg xmlns="http://www.w3.org/2000/svg" width="512" height="512"><path d="M445.867 48.187c-.47.167-1.943.545-3.275.84-2.908.644-18.245 15.145-19.75 18.672-1.782 4.179-.587 6.571 7.151 14.308 10.683 10.683 11.884 10.624 23.762-1.17 6.123-6.08 8.192-8.749 9.246-11.921 2.363-7.113-.021-14.022-6.221-18.032-2.998-1.939-8.928-3.404-10.913-2.697M309.302 180.089l-92.21 92.195-4.632 14.07c-4.789 14.546-4.949 16.58-1.366 17.285.779.153 7.458-1.712 14.842-4.145l13.424-4.424 91.604-91.428c56.063-55.956 92.085-92.533 92.842-94.275 1.898-4.363.379-7.472-7.307-14.951-6.486-6.312-6.837-6.523-10.845-6.523h-4.142l-92.21 92.196M96.56 112.705c-19.059 2.472-35.578 14.841-43.677 32.704-5.362 11.825-5.17 6.152-4.908 145.578l.238 126.72 2.322 6.844c6.058 17.856 19.021 30.811 36.932 36.911l6.826 2.325h259.414l6.826-2.325c17.911-6.1 30.874-19.055 36.932-36.911l2.322-6.844.232-109.873c.255-120.701.555-113.564-4.869-115.81-1.45-.601-3.62-.819-4.947-.497-1.611.391-22.725 20.891-66.363 64.435-35.2 35.123-65.651 64.877-67.669 66.12-5.193 3.198-35.381 13.257-41.559 13.848-10.065.964-21.126-3.429-28.641-11.375-7.523-7.955-11.031-19.187-9.317-29.829.985-6.118 9.218-30.786 12.425-37.227 1.785-3.588 15.099-17.386 66.489-68.912 35.342-35.435 64.516-65.297 64.833-66.36.317-1.064.146-3.237-.38-4.829-1.972-5.977 5.24-5.624-112.363-5.503-58.127.059-108.121.424-111.098.81" fill-rule="evenodd"/></svg>