<svg xmlns="http://www.w3.org/2000/svg" width="512" height="512"><path d="M134.14 34.637c-2.44 1.216-5.577 3.594-6.971 5.286-5.013 6.081-5.142 7.25-5.142 46.416v35.688H86.339c-39.627 0-40.495.103-46.865 5.556-6.243 5.343-8.967 15.734-6.242 23.812 1.502 4.452 7.249 10.581 11.995 12.79 3.679 1.713 5.366 1.799 40.295 2.044l36.456.256.253 82.944.254 82.944 1.957 6.367c1.076 3.502 3.737 9.838 5.913 14.08 3.261 6.36 5.46 9.218 12.533 16.292 7.074 7.073 9.932 9.272 16.292 12.533 4.242 2.176 10.578 4.837 14.08 5.913l6.367 1.957 82.944.254 82.944.253.256 36.456c.245 34.929.331 36.616 2.044 40.295 2.209 4.746 8.338 10.493 12.79 11.995 11.29 3.808 24.279-2.483 28.065-13.592 1.087-3.193 1.303-9.741 1.303-39.515v-35.688h35.688c29.774 0 36.322-.216 39.515-1.303 14.611-4.979 19.56-24.309 9.021-35.233-1.502-1.556-4.074-3.668-5.717-4.693l-2.987-1.864-139.52-.427-139.52-.426-4.75-2.228c-5.333-2.501-10.307-7.184-13.043-12.279l-1.833-3.413-.427-139.52c-.426-139.281-.43-139.527-2.21-143.36-2.012-4.333-7.648-9.811-11.937-11.603-4.79-2.002-12.984-1.543-18.113 1.013m74.068 88.187c-8.811 2.68-15.024 10.168-15.96 19.235-.937 9.08 4.288 18.059 12.728 21.873l4.517 2.041 59.307.427c58.672.422 59.343.446 62.72 2.263 4.364 2.348 9.469 7.453 11.817 11.817 1.817 3.378 1.841 4.038 2.263 63.147l.427 59.733 2.317 4.394c7.339 13.914 25.37 16.311 35.807 4.759 6.156-6.815 5.921-3.798 5.618-71.873-.27-60.733-.28-61.043-2.22-67.38-7.948-25.97-29.469-45.447-55.167-49.928-6.249-1.09-16.945-1.293-64.76-1.232-31.502.04-58.238.366-59.414.724" fill-rule="evenodd"/></svg>