<svg xmlns="http://www.w3.org/2000/svg" width="512" height="512"><path d="M136.962 33.771c-3.848 2.006-5.627 3.848-7.357 7.616-1.452 3.162-1.569 6.476-1.586 45.013L128 128l-41.6.019c-38.619.017-41.845.131-45.013 1.594-1.878.866-4.33 2.57-5.45 3.786-2.009 2.182-4.582 9.907-3.969 11.914.174.569.546 2.083.826 3.365.634 2.893 4.985 7.943 8.506 9.872 2.37 1.299 7.034 1.476 44.646 1.701l42 .251.241 85.936.242 85.935 2.003 5.974c7.01 20.904 22.317 36.211 43.221 43.221l5.974 2.003 85.935.242 85.936.241.251 42c.225 37.612.402 42.276 1.701 44.646 1.929 3.521 6.979 7.872 9.872 8.506 1.282.28 2.796.652 3.365.826 2.007.613 9.732-1.96 11.914-3.969 1.216-1.12 2.92-3.572 3.786-5.45 1.463-3.168 1.577-6.394 1.594-45.013L384 384l41.6-.019c38.619-.017 41.845-.131 45.013-1.594 1.878-.866 4.33-2.57 5.45-3.786 2.009-2.182 4.582-9.907 3.969-11.914-.174-.569-.546-2.083-.826-3.365-.627-2.864-5.013-7.985-8.291-9.68-2.113-1.093-20.475-1.257-140.034-1.255-77.205.002-139.939-.335-142.927-.766-10.816-1.562-19.638-7.934-24.633-17.79l-2.468-4.871-.426-142.507c-.355-118.57-.624-142.865-1.598-144.64-1.693-3.085-5.301-6.793-7.96-8.183-3.063-1.6-10.717-1.522-13.907.141m66.558 94.936c-11.276 3.787-15.029 16.857-7.433 25.884 4.708 5.596 1.923 5.365 70.58 5.836l62.293.426 4.922 2.494c5.84 2.959 12.273 9.499 15.176 15.426l2.089 4.267.426 62.293c.335 48.902.669 62.844 1.551 64.854 3.428 7.811 13.213 11.872 20.877 8.663 3.739-1.565 8.935-7.515 9.57-10.959.286-1.553.399-31.048.25-65.544l-.271-62.72-1.992-5.974c-6.98-20.92-22.745-36.632-43.201-43.053l-6.837-2.146-63.147-.16c-34.73-.088-63.914.098-64.853.413" fill-rule="evenodd"/></svg>