<svg xmlns="http://www.w3.org/2000/svg" width="512" height="512"><path d="M241.493 33.8c-3.05.661-8.618 2.682-12.373 4.492-7.009 3.377-154.211 88.833-160.398 93.116-8.26 5.719-15.349 15.128-18.601 24.69l-1.908 5.609-.235 91.468c-.259 100.553-.353 98.466 4.887 109.065 2.947 5.96 7.931 12.203 13.068 16.369 3.883 3.149 150.132 88.591 161.37 94.276 18.295 9.255 39.094 9.256 57.394.001 11.241-5.684 157.467-91.112 161.36-94.269 5.147-4.174 10.13-10.413 13.078-16.377 5.247-10.614 5.153-8.528 4.891-109.082l-.239-91.451-1.908-5.609c-3.589-10.554-11.086-19.899-21.115-26.324-10.247-6.564-152.746-89.092-158.648-91.881-3.334-1.575-8.872-3.45-12.305-4.165-7.609-1.586-20.822-1.552-28.318.072m27.017 33.14c5.567 2.548 146.228 84.285 146.172 84.939-.082.952-157.132 92.601-158.682 92.601-1.549 0-158.6-91.649-158.682-92.601-.041-.471 138.738-81.344 144.802-84.383 8.194-4.106 18.177-4.316 26.39-.556M161.28 226.833l78.08 45.989.217 85.45.218 85.451-4.058-2.461c-2.231-1.353-35.929-20.973-74.884-43.6-38.954-22.627-72.253-42.104-73.996-43.283-1.744-1.179-3.952-3.757-4.907-5.73-1.71-3.533-1.737-4.854-1.737-86.548 0-78.766.076-82.918 1.494-82.109.821.469 36.629 21.547 79.573 46.841M430.054 348.64c-.957 1.978-3.167 4.562-4.911 5.743-1.743 1.181-35.042 20.66-73.996 43.287-38.955 22.627-72.653 42.245-74.884 43.596l-4.058 2.457.218-85.448.217-85.448L352 226.133l79.36-46.694.218 82.803c.215 81.827.197 82.844-1.524 86.398" fill-rule="evenodd"/></svg>