<svg xmlns="http://www.w3.org/2000/svg" width="512" height="512"><path d="M96.427 80.306c-9.17.805-16.387 2.865-25.216 7.2-31.879 15.654-47.271 52.379-36.304 86.618 6.954 21.708 23.274 38.229 45.168 45.725 21.608 7.399 45.203 4.288 63.85-8.418l4.405-3.002 25.861 15.722c14.223 8.647 25.939 15.801 26.036 15.898.37.371-8.324 36.865-8.9 37.355-.334.285-10.114 6.329-21.734 13.432l-21.128 12.914-5.695-3.82c-25.656-17.207-60.954-14.876-85.622 5.653-17.412 14.49-27.457 39.697-24.7 61.98 3.657 29.557 23.153 52.667 51.77 61.368 6.614 2.011 8.947 2.285 19.462 2.285 10.57 0 12.832-.269 19.627-2.331 20.228-6.139 35.762-19.196 44.827-37.678 6.442-13.135 8.856-28.875 6.467-42.16-.715-3.971-1.22-7.294-1.123-7.385.096-.091 68.719-40.757 152.495-90.37 83.776-49.613 152.8-90.592 153.387-91.066.783-.633 1.067-5.026 1.067-16.544V128H432.026l-98.779 34.987c-54.328 19.242-99.31 34.986-99.96 34.986-.651 0-14.245-6.96-30.21-15.468l-29.027-15.468.655-4.372c1.151-7.68.479-20.931-1.433-28.265-9.124-35.003-40.741-57.259-76.845-54.094m20.48 34.145c19.02 6.559 30.262 27.582 25.18 47.091-5.732 22.008-27.637 34.874-49.197 28.896-11.245-3.118-19.871-10.405-25.285-21.358-3.159-6.391-3.178-6.498-3.178-17.142 0-10.291.107-10.939 2.743-16.503 5.428-11.46 17.393-20.749 29.257-22.715 6.115-1.014 14.601-.296 20.48 1.731m148.052 112.904c8.797 6.709 8.229 19.743-1.14 26.162-4.457 3.055-12.181 2.923-17.038-.291-8.069-5.34-9.467-16.962-2.887-23.997 3.449-3.686 6.706-4.863 12.644-4.568 4.195.209 5.862.742 8.421 2.694m37.121 56.462c-22.293 12.876-40.625 23.692-40.738 24.037-.113.344 38.095 13.97 84.907 30.28l85.111 29.653h49.104l-.232-15.862-.232-15.862-67.781-37.898c-37.279-20.844-68.191-37.867-68.693-37.828-.502.039-19.153 10.605-41.446 23.48m-191.054 37.054c7.404 1.404 14.825 5.376 20.332 10.884 23.247 23.247 10.673 62.156-21.892 67.74-16.688 2.862-34.706-6.906-42.296-22.93-2.636-5.564-2.743-6.212-2.743-16.503 0-10.658.015-10.743 3.201-17.188 8.247-16.687 25.447-25.407 43.398-22.003" fill-rule="evenodd"/></svg>