<svg xmlns="http://www.w3.org/2000/svg" width="512" height="512"><path d="M57.154 48.611C40.227 50.824 24.87 63.238 18.585 79.787l-1.945 5.12-.226 136.889c-.246 149.16-.477 141.339 4.475 151.537 4.135 8.514 14.098 18.195 22.85 22.202 10.07 4.61 10.76 4.647 85.344 4.664l68.923.014-.414 1.92c-.227 1.056-1.019 7.104-1.76 13.44-.742 6.336-1.548 12.552-1.793 13.813l-.444 2.293-27.038.267c-30.366.3-30.046.238-35.48 6.96-2.385 2.951-2.65 3.862-2.65 9.094 0 5.202.275 6.161 2.609 9.094 1.435 1.804 4.301 4.143 6.368 5.199l3.758 1.92h229.676l3.758-1.92c2.067-1.056 4.933-3.395 6.368-5.199 2.334-2.933 2.609-3.892 2.609-9.094 0-5.232-.265-6.143-2.65-9.094-5.434-6.722-5.114-6.66-35.48-6.96l-27.038-.267-.444-2.293c-.245-1.261-1.051-7.477-1.793-13.813-.741-6.336-1.533-12.384-1.76-13.44l-.414-1.92 68.923-.014c74.584-.017 75.274-.054 85.344-4.664 8.752-4.007 18.715-13.688 22.85-22.202 4.952-10.198 4.721-2.377 4.475-151.537l-.226-136.889-1.945-5.12c-5.088-13.397-17.166-25.013-30.847-29.666l-5.608-1.908-197.547-.109c-108.65-.06-199.667.168-202.259.507m396.55 32.51c2.979 1.125 6.793 4.669 8.666 8.052 1.295 2.341 1.436 11.643 1.646 108.587l.23 106.027H47.754l.23-106.027c.21-96.944.351-106.246 1.646-108.587 1.797-3.245 5.638-6.906 8.397-8.003 3.077-1.224 392.441-1.272 395.677-.049m-192 256c5.812 2.196 9.9 8.34 9.9 14.879 0 4.839-1.505 8.301-5.074 11.679-9.904 9.37-26.134 2.117-26.134-11.679 0-6.395 4.033-12.605 9.631-14.83 2.867-1.14 8.725-1.165 11.677-.049" fill-rule="evenodd"/></svg>