<svg xmlns="http://www.w3.org/2000/svg" width="512" height="512"><path d="M57.173 48.673c-5.958.862-8.687 1.726-14.982 4.746-6.796 3.259-17.196 13.55-20.681 20.463-5.552 11.016-5.297 5.465-5.297 115.041v99.504h479.574v-99.504c0-109.576.255-104.025-5.297-115.041-3.461-6.867-13.888-17.206-20.594-20.421-11.879-5.695 7.599-5.201-210.483-5.34-108.65-.07-199.658.179-202.24.552m-40.96 282.51c0 22.159.257 28.388 1.343 32.58 3.522 13.591 13.158 25.344 25.754 31.41 10.405 5.012 10.363 5.009 85.773 5.026l68.923.014-.414 1.92c-.227 1.056-1.019 7.104-1.76 13.44-.742 6.336-1.548 12.552-1.793 13.813l-.444 2.293-27.038.267c-29.164.288-29.601.354-34.036 5.105-7.754 8.304-4.761 21.38 5.917 25.842 2.799 1.169 16.234 1.32 117.562 1.32 124.181 0 117.586.243 122.768-4.52 2.684-2.468 5.19-7.999 5.213-11.507.023-3.452-1.999-8.455-4.502-11.135-4.435-4.751-4.872-4.817-34.036-5.105l-27.038-.267-.444-2.293c-.245-1.261-1.051-7.477-1.793-13.813-.741-6.336-1.533-12.384-1.76-13.44l-.414-1.92 68.923-.014c75.726-.017 75.24.013 86.199-5.192 7.447-3.537 17.657-13.515 21.374-20.889 4.927-9.774 5.297-12.774 5.297-42.935v-27.396H16.213v27.396m245.491 5.938c5.812 2.196 9.9 8.34 9.9 14.879 0 4.839-1.505 8.301-5.074 11.679-9.904 9.37-26.134 2.117-26.134-11.679 0-6.395 4.033-12.605 9.631-14.83 2.867-1.14 8.725-1.165 11.677-.049" fill-rule="evenodd"/></svg>