<svg xmlns="http://www.w3.org/2000/svg" width="512" height="512"><path d="M30.293 48.202c-.469.159-1.902.52-3.184.802-3.127.689-8.32 5.362-9.743 8.769-.954 2.284-1.153 30.849-1.153 166.144 0 113.364.278 164.121.908 165.787 1.29 3.416 4.933 7.052 8.906 8.892 3.249 1.504 7.501 1.581 88.533 1.599l85.12.018v31.574H128v32.426h256v-32.426h-71.68v-31.574l85.12-.018c81.032-.018 85.284-.095 88.533-1.599 3.973-1.84 7.616-5.476 8.906-8.892 1.276-3.376 1.276-328.032 0-331.408-1.125-2.979-4.669-6.793-8.052-8.666-2.366-1.309-19.756-1.428-229.12-1.567-124.608-.082-226.944-.02-227.414.139m429.654 144.225v107.946H52.053V84.48h407.894v107.947M261.704 337.121c5.812 2.196 9.9 8.34 9.9 14.879 0 14.673-17.647 21.389-27.304 10.39-2.35-2.675-4.504-7.645-4.504-10.39 0-5.003 5.049-12.532 9.788-14.597 3.149-1.372 8.882-1.506 12.12-.282" fill-rule="evenodd"/></svg>