<svg xmlns="http://www.w3.org/2000/svg" viewBox="0 0 512 512"><path d="M116.196 33.184c2.511 6.687 47.357 110.176 47.744 110.176.297 0 18.316-23.712 40.041-52.693 21.726-28.982 40.443-53.942 41.595-55.467l2.093-2.773H181.79c-38.007 0-65.759.32-65.594.757M266.424 35.2c1.152 1.525 19.869 26.485 41.595 55.467 21.725 28.981 39.744 52.693 40.041 52.693.387 0 45.233-103.489 47.744-110.176.165-.437-27.587-.757-65.594-.757h-65.879l2.093 2.773M56.42 104.796c-17.89 29.524-32.527 54.12-32.527 54.656 0 .721 14.575.975 55.985.975 50.245 0 55.932-.136 55.476-1.325-.976-2.545-45.96-107.478-46.183-107.731-.124-.141-14.862 23.9-32.751 53.425m343.533-.229c-12.562 29.323-23.059 53.888-23.327 54.588-.43 1.119 6.19 1.272 55.069 1.272 38.13 0 55.558-.281 55.558-.894 0-.788-62.52-106.112-63.911-107.668-.303-.338-10.828 23.378-23.389 52.702m-175.532 12.034c-17.127 22.831-31.265 42.031-31.417 42.668-.23.967 10.15 1.158 62.933 1.158 41.854 0 63.21-.291 63.21-.859 0-.944-62.022-83.916-62.987-84.263-.329-.118-14.611 18.465-31.739 41.296M46.316 220.895c12.307 15.893 62.313 80.539 111.124 143.658 48.811 63.12 88.856 114.493 88.989 114.164.171-.422-87.567-252.488-98.982-284.37l-.841-2.347H23.938l22.378 28.895m140.011-18.442 36.394 103.254c17.99 51.04 32.962 92.8 33.272 92.8.309 0 15.285-41.76 33.279-92.8l36.401-103.254L329.358 192H182.642l3.685 10.453m178.227-8.106c-11.523 32.186-99.156 283.94-98.985 284.363.134.331 50.241-64.044 111.348-143.054L488.021 192H365.394l-.84 2.347" fill-rule="evenodd"/></svg>