<svg xmlns="http://www.w3.org/2000/svg" viewBox="0 0 512 512"><path d="M118.784 33.451c-.563.563-1.024 1.629-1.024 2.368 0 .74 9.888 24.375 21.973 52.523l21.974 51.178 2.649.258c2.582.252 3.637-1.064 41.285-51.469 35.949-48.132 38.569-51.873 37.689-53.805l-.947-2.077h-61.287c-46.531 0-61.535.246-62.312 1.024m147.456.26c0 1.957 80.136 108.369 81.61 108.369.889 0 8.383-16.559 24.265-53.619 12.638-29.491 22.978-54.163 22.978-54.827 0-1.03-9.449-1.207-64.426-1.207-56.8 0-64.427.152-64.427 1.284M85.785 57.457c-2.723 2.47-61.038 96.858-61.038 98.797 0 .834.853 2.114 1.896 2.844 1.665 1.167 8.12 1.329 52.907 1.329 50.296 0 51.034-.025 52.76-1.751 1.227-1.227 1.575-2.311 1.164-3.626-.518-1.659-38.653-90.538-41.323-96.311-1.42-3.068-3.855-3.559-6.366-1.282m335.579-.924c-1.117.874-40.852 92.273-42.83 98.517-.419 1.321-.077 2.394 1.156 3.626 1.726 1.726 2.463 1.751 52.855 1.751 49.059 0 51.187-.066 53.12-1.633 1.764-1.428 1.9-1.934 1.089-4.053-1.251-3.273-59.911-97.78-61.2-98.6-1.468-.933-2.638-.823-4.19.392m-196.409 59.384c-16.456 21.949-28.688 39.029-28.688 40.058 0 .987.853 2.393 1.896 3.123 1.67 1.17 8.588 1.329 57.837 1.329s56.167-.159 57.837-1.329c1.043-.73 1.896-2.136 1.896-3.123 0-1.029-12.232-18.109-28.688-40.058C261.341 81.635 258.111 77.653 256 77.653c-2.111 0-5.341 3.982-31.045 38.264M23.079 193.233c-.563.678-.898 2.001-.745 2.939.387 2.364 216.657 282.419 218.581 283.048.855.279 2.481.275 3.614-.009 3.292-.827 3.511-4.066.836-12.369-5.327-16.538-95.384-271.151-96.533-272.922l-1.245-1.92H85.845c-52.796 0-61.891.179-62.766 1.233m162.734-.311c-.821.478-1.493 1.548-1.493 2.378 0 1.447 67.47 193.548 68.647 195.452.716 1.158 5.309 1.224 6.012.087 1.162-1.88 68.701-194.102 68.701-195.529 0-.849-.743-1.941-1.651-2.427-2.265-1.212-138.132-1.175-140.216.039m177.359.998c-.682 1.056-23.348 64.58-50.368 141.165-40.518 114.84-48.99 139.61-48.338 141.324 1.285 3.381 5.189 4.2 7.981 1.673 3.32-3.005 216.949-280.252 217.219-281.907.703-4.311 2.771-4.175-63.511-4.175h-61.742l-1.241 1.92" fill-rule="evenodd"/></svg>