<svg xmlns="http://www.w3.org/2000/svg" viewBox="0 0 512 512"><path d="M160.008 87.936c-52.092 30.458-94.806 55.676-94.92 56.041-.115.364 42.794 25.735 95.352 56.378L256 256.071l95.561-55.716c52.559-30.643 95.567-55.957 95.573-56.252.018-.76-189.448-111.218-191.075-111.397-.737-.08-43.959 24.773-96.051 55.23m109.914 35.256c8.625 4.22 11.914 11.308 8.422 18.153-4.462 8.747-19.625 12.941-32.406 8.963-18.047-5.617-18.481-22.133-.748-28.457 6.805-2.427 18.305-1.803 24.732 1.341M47.996 268.782l.217 98.3 95.487 56.246c52.517 30.935 95.621 56.245 95.786 56.245.166 0 .287-44.064.27-97.92l-.031-97.92-94.642-56.115c-52.053-30.864-95.241-56.345-95.973-56.626-1.201-.461-1.309 9.044-1.114 97.79m319.608-41.577-95.33 56.528-.03 97.92c-.017 53.856.104 97.92.27 97.92.165 0 43.269-25.31 95.786-56.245l95.487-56.246.217-98.208c.119-54.014-.073-98.205-.427-98.202-.354.002-43.542 25.442-95.973 56.533m56.004 7.776c1.61 1.227 4.012 4.443 5.339 7.145 2.183 4.446 2.413 5.767 2.413 13.874s-.23 9.428-2.413 13.874c-3.291 6.701-7.193 9.593-12.947 9.593-3.482 0-5.04-.489-7.467-2.34-9.091-6.934-11.106-27.133-3.781-37.9 5.022-7.382 12.529-9.072 18.856-4.246m-224.741 55.482c1.647 1.119 4.013 3.904 5.256 6.188 8.529 15.671 1.261 39.136-12.123 39.136-13.424 0-20.678-23.418-12.123-39.136 2.961-5.439 7.066-8.224 12.123-8.224 2.673 0 4.797.63 6.867 2.036m128 0c1.647 1.119 4.013 3.904 5.256 6.188 8.529 15.671 1.261 39.136-12.123 39.136-13.424 0-20.678-23.418-12.123-39.136 2.961-5.439 7.066-8.224 12.123-8.224 2.673 0 4.797.63 6.867 2.036m-225.44 31.183c5.693 2.904 9.473 10.282 10.135 19.781C112.584 356.1 105.687 367.78 96 367.78c-6.638 0-12.777-6.365-14.975-15.526-1.216-5.071-.665-16.116.993-19.881 3.399-7.717 8.472-12.251 13.803-12.335 1.309-.021 3.832.702 5.606 1.608m320 0c5.693 2.904 9.473 10.282 10.135 19.781 1.022 14.673-5.875 26.353-15.562 26.353-6.638 0-12.777-6.365-14.975-15.526-1.216-5.071-.665-16.116.993-19.881 3.399-7.717 8.472-12.251 13.803-12.335 1.309-.021 3.832.702 5.606 1.608m-94.941 56.559c3.32 2.275 6.855 7.529 8.2 12.187.543 1.882.971 6.533.951 10.335-.075 14.209-8.285 24.789-17.844 22.995-4.257-.798-8.283-4.764-11.014-10.848-4.024-8.967-3.277-21.589 1.733-29.309 4.667-7.191 12.076-9.401 17.974-5.36" fill-rule="evenodd"/></svg>