<svg xmlns="http://www.w3.org/2000/svg" width="512" height="512"><path d="M231.253 33.392c-16.355 1.665-38.573 7.009-54.742 13.167-20.215 7.699-44.67 21.825-62.003 35.814-22.439 18.11-43.36 43.753-56.938 69.791-15.058 28.874-23.154 58.252-25.123 91.16-5.222 87.26 42.038 170.597 119.717 211.106 79.252 41.329 174.746 31.925 244.36-24.066 76.574-61.59 103.962-166.627 67.269-257.991-28.024-69.778-90.412-121.426-164.273-135.994-5.867-1.158-14.861-2.52-19.988-3.028-10.737-1.065-37.645-1.042-48.279.041m52.907 32.766c54.685 8.255 102.478 39.038 133.112 85.735 6.481 9.881 15.857 28.994 19.882 40.534 7.388 21.18 10.349 39.366 10.349 63.573 0 31.858-5.472 55.912-19.119 84.053-28.614 59.002-85.177 98.995-150.879 106.68-50.023 5.852-101.861-9.158-141.617-41.005-32.265-25.845-56.485-63.766-66.202-103.648-3.965-16.274-5.189-27.143-5.189-46.08 0-31.858 5.472-55.912 19.119-84.053 22.436-46.262 63.098-81.91 111.797-98.009 15.043-4.973 27.138-7.424 46.507-9.424 6.868-.709 33.525.329 42.24 1.644m-46.177 79.398c-22.402 3.502-44.099 14.719-60.947 31.509-15.786 15.732-26.078 34.68-30.839 56.777-2.19 10.162-2.19 34.154 0 44.316 4.756 22.072 15.03 40.997 30.839 56.806 15.809 15.809 34.734 26.083 56.806 30.839 10.162 2.19 34.154 2.19 44.316 0 21.967-4.733 41.072-15.105 56.806-30.839 15.734-15.734 26.106-34.839 30.839-56.806 2.19-10.162 2.19-34.154 0-44.316-11.404-52.926-57.185-89.961-110.656-89.516-5.398.044-13.121.598-17.164 1.23m34.514 32.454c19.415 3.69 38.483 16.444 49.579 33.159 4.283 6.453 9.423 17.604 11.077 24.032 3.255 12.645 3.263 28.791.023 41.598-1.827 7.219-8.756 21.176-13.833 27.861-11.007 14.494-26.587 24.51-45.423 29.201-5.447 1.356-9.91 1.806-17.92 1.806-31.467 0-57.885-16.617-71.712-45.107-6.658-13.72-9.128-27.497-7.592-42.345 1.135-10.973 2.838-16.979 7.592-26.775 8.697-17.919 20.458-29.464 38.695-37.983 15.384-7.185 31.208-8.926 49.514-5.447m-27.307 47.948c-14.124 5.036-23.13 20.196-20.736 34.905 4.194 25.767 35.597 35.998 54.002 17.593 15.558-15.557 11.135-41.534-8.726-51.251-6.229-3.048-17.837-3.638-24.54-1.247" fill-rule="evenodd"/></svg>