<svg xmlns="http://www.w3.org/2000/svg" width="512" height="512"><path d="M235.947 32.121c-20.829 2.374-33.503 4.921-48.824 9.812-33.937 10.834-64.821 29.682-90.164 55.026-51.828 51.827-74.673 124.053-62.317 197.014 7.533 44.48 29.84 87.174 62.643 119.894 46.658 46.539 106.42 69.628 171.942 66.429 73.512-3.589 141.716-44.95 180.039-109.181 27.01-45.271 37.154-99.764 28.26-151.808-11.154-65.26-50.458-122.17-108.147-156.59-26.918-16.061-57.727-26.365-89.486-29.929-9.394-1.055-36.887-1.472-43.946-.667m42.666 114.166c44.419 9.811 77.64 43.244 87.234 87.789 2.147 9.966 2.095 34.056-.094 44.111-4.756 21.849-15.072 41-30.372 56.386-13.204 13.278-28.067 22.443-45.248 27.901-13.857 4.402-17.201 4.873-34.56 4.868-14.82-.004-17.003-.204-25.407-2.328-27.005-6.827-49.859-22.281-65.503-44.294-6.121-8.614-13.935-25.106-16.513-34.853-7.146-27.02-4.723-53.657 7.102-78.08 11.586-23.929 27.955-40.417 51.681-52.057 11.507-5.645 19.903-8.392 31.574-10.329 8.734-1.45 31.842-.939 40.106.886m-32.107 30.342c-12.229 1.52-25.938 6.724-36.535 13.869-2.14 1.443-7.155 5.95-11.144 10.015-21.275 21.68-28.281 52.551-18.446 81.277 4.158 12.142 9.688 20.875 19.321 30.508 9.633 9.633 18.366 15.163 30.508 19.321 22.258 7.62 46.601 5.065 66.952-7.028 9.41-5.592 21.837-18.019 27.429-27.429 18.204-30.634 14.127-69.429-10.038-95.522-16.81-18.15-43.708-28.037-68.047-25.011m23.289 50.607c5.666 2.773 12.872 10.104 15.479 15.75 1.552 3.359 1.873 5.59 1.873 13.014 0 8.021-.243 9.455-2.319 13.682-6.191 12.604-20.239 20.053-33.691 17.864-10.069-1.639-19.417-8.587-23.911-17.772-2.936-6.002-3.66-16.349-1.632-23.327 2.556-8.791 10.716-17.322 19.599-20.49 6.735-2.402 18.307-1.8 24.602 1.279" fill-rule="evenodd"/></svg>