<svg xmlns="http://www.w3.org/2000/svg" width="512" height="512"><path d="M235.947 32.121c-20.829 2.374-33.503 4.921-48.824 9.812-33.937 10.834-64.821 29.682-90.164 55.026-51.828 51.827-74.673 124.053-62.317 197.014 7.533 44.48 29.84 87.174 62.643 119.894 46.658 46.539 106.42 69.628 171.942 66.429 73.512-3.589 141.716-44.95 180.039-109.181 27.01-45.271 37.154-99.764 28.26-151.808-11.154-65.26-50.458-122.17-108.147-156.59-26.918-16.061-57.727-26.365-89.486-29.929-9.394-1.055-36.887-1.472-43.946-.667m40.284 146.683c7.956 2.011 18.693 6.887 25.798 11.715 5.01 3.404 16.048 14.442 19.452 19.452 4.845 7.13 9.705 17.85 11.89 26.225 2.95 11.311 3.109 26.926.388 38.099-12.832 52.701-72.56 77.969-118.884 50.296-7.503-4.483-19.962-16.013-24.377-22.562-4.857-7.205-9.693-17.886-11.874-26.225-3.099-11.855-3.099-27.754.001-39.612 9.728-37.205 43.459-61.921 81.642-59.82 4.458.245 11.642 1.34 15.964 2.432m-31.041 47.154c-14.124 5.036-23.13 20.196-20.736 34.905 4.194 25.767 35.597 35.998 54.002 17.593 15.558-15.557 11.135-41.534-8.726-51.251-6.229-3.048-17.837-3.638-24.54-1.247" fill-rule="evenodd"/></svg>