<svg xmlns="http://www.w3.org/2000/svg" viewBox="0 0 512 512"><path d="M130.018 33.701c-21.434 4.661-39.354 20.938-46.982 42.672L80.64 83.2v345.6l2.396 6.827c3.569 10.168 8.484 17.883 16.31 25.6 11.193 11.036 22.734 16.503 38.704 18.333 10.052 1.152 225.848 1.152 235.9 0 15.97-1.83 27.511-7.297 38.704-18.333 7.83-7.721 12.752-15.445 16.312-25.6l2.394-6.827.234-101.008c.169-73.197-.028-101.323-.716-102.152-.777-.936-14.53-1.196-75.754-1.432-67.024-.259-75.291-.438-79.491-1.719-16.248-4.958-28.547-16.974-33.828-33.049-1.43-4.354-1.562-10.113-1.819-79.747-.192-51.946-.561-75.394-1.196-76.16-1.353-1.629-101.215-1.476-108.772.168m142.195 78.243c0 67.113.013 67.596 1.81 71.31 1.091 2.252 3.187 4.65 5.271 6.029l3.461 2.29 68.137.229c62.141.208 68.183.106 68.667-1.154.39-1.015-18.683-20.596-71.912-73.828-40.898-40.9-73.094-72.447-73.938-72.447-1.413 0-1.496 3.754-1.496 67.571m-1.706 130.43c15.475 4.533 27.942 17.385 32.009 32.999.826 3.17 1.271 8.966 1.271 16.547 0 11.378.047 11.68 1.92 12.182 1.056.283 2.924.52 4.152.526 3.576.019 13.943 5.691 17.406 9.524 1.741 1.927 4.371 6.047 5.844 9.156l2.678 5.652.286 27.177c.187 17.778-.05 29.107-.686 32.758-2.49 14.299-12.676 24.352-27.06 26.708-6.472 1.06-98.182 1.06-104.654 0-14.384-2.356-24.57-12.409-27.06-26.708-.636-3.651-.873-14.98-.686-32.758l.286-27.177 2.678-5.652c1.473-3.109 4.103-7.229 5.844-9.156 3.463-3.833 13.83-9.505 17.406-9.524 1.228-.006 3.096-.243 4.152-.526 1.873-.502 1.92-.804 1.92-12.182 0-7.581.445-13.377 1.271-16.547 6.8-26.107 34.117-40.88 61.023-32.999m-21.76 31.452c-7.362 3.398-8.96 7.001-8.96 20.203v9.758h32.426v-9.758c0-5.367-.409-10.839-.91-12.16-2.096-5.532-8.597-9.618-15.303-9.618-2.112 0-5.376.709-7.253 1.575" fill-rule="evenodd"/></svg>