<svg xmlns="http://www.w3.org/2000/svg" width="512" height="512"><path d="M130.018 33.701c-21.434 4.661-39.354 20.938-46.982 42.672L80.64 83.2v345.6l2.396 6.827c3.569 10.168 8.484 17.883 16.31 25.6 11.193 11.036 22.734 16.503 38.704 18.333 10.052 1.152 225.848 1.152 235.9 0 15.97-1.83 27.511-7.297 38.704-18.333 7.83-7.721 12.752-15.445 16.312-25.6l2.394-6.827.234-101.008c.169-73.197-.028-101.323-.716-102.152-.777-.936-14.53-1.196-75.754-1.432-67.024-.259-75.291-.438-79.491-1.719-16.248-4.958-28.547-16.974-33.828-33.049-1.43-4.354-1.562-10.113-1.819-79.747-.192-51.946-.561-75.394-1.196-76.16-1.353-1.629-101.215-1.476-108.772.168m142.195 78.243c0 67.113.013 67.596 1.81 71.31 1.091 2.252 3.187 4.65 5.271 6.029l3.461 2.29 68.137.229c62.141.208 68.183.106 68.667-1.154.39-1.015-18.683-20.596-71.912-73.828-40.898-40.9-73.094-72.447-73.938-72.447-1.413 0-1.496 3.754-1.496 67.571" fill-rule="evenodd"/></svg>