<svg xmlns="http://www.w3.org/2000/svg" width="512" height="512"><path d="M147.936 17.146c-20.994 3.509-38.917 19.234-46.854 41.11-5.027 13.857-4.896 11.496-5.27 94.917-.228 50.972-.041 79.096.557 83.627 2.341 17.742 15.545 31.439 33.381 34.627 18.974 3.391 38.595-8.735 44.42-27.451 1.538-4.941 1.617-9.062 1.617-84.479V80.213H144.24l-.227 77.728-.226 77.727-2.395 2.059c-3.424 2.945-7.688 2.775-10.898-.435L128 234.798v-75.937c0-82.215.076-83.742 4.617-93.342 6.166-13.033 18.134-19.14 32.93-16.804 12.586 1.987 20.047 9.132 24.455 23.417 1.479 4.796 1.571 9.803 1.571 85.308 0 80-.005 80.232-1.881 87.265-7.332 27.472-26.688 43.025-53.599 43.068-21.98.035-39.056-10.312-48.533-29.408-7.059-14.224-7.322-16.703-7.335-69.138l-.012-45.014h-32.54l.345 48.427c.372 52.422.369 52.381 5.443 67.627 4.645 13.957 10.993 24.345 21.185 34.668 13.821 13.997 26.866 20.274 51.434 24.748l1.92.35v75.303c0 71.827.073 75.441 1.59 78.277.874 1.636 2.89 3.742 4.48 4.68 2.862 1.691 4.422 1.707 162.187 1.707h159.298l2.356-1.759c1.296-.968 3.149-2.82 4.116-4.116 1.754-2.35 1.76-2.701 1.982-118.347l.222-115.991H276.632l-2.209-2.626-2.21-2.625V47.787l-28.8-.011-28.8-.011-2.986-4.769c-1.643-2.624-5.737-7.385-9.097-10.581-7.446-7.082-18.673-12.924-28.627-14.898-7.044-1.396-18.827-1.565-25.967-.371M304.853 56.08c-.842.302-1.066 16.048-1.066 74.846 0 71.055.071 74.527 1.56 75.875 1.427 1.291 7.89 1.412 75.416 1.412 66.042 0 73.972-.141 74.966-1.338.964-1.162-8.676-11.132-73.069-75.572-40.799-40.828-74.756-74.542-75.46-74.92-.704-.377-1.76-.514-2.347-.303" fill-rule="evenodd"/></svg>