<svg xmlns="http://www.w3.org/2000/svg" width="512" height="512"><path d="M85.588 34.099c-5.845 3.564-5.375-15.852-5.371 222.072.003 212.028.028 215.337 1.668 218.028.917 1.502 2.931 3.422 4.477 4.266C89.041 479.928 97.013 480 256 480s166.959-.072 169.638-1.535c1.546-.844 3.56-2.764 4.477-4.266 1.631-2.677 1.665-5.249 1.668-126.238l.004-123.505-93.421-.228-93.421-.228-2.366-2.366-2.366-2.366-.224-93.421-.225-93.42-75.722.003c-73.597.003-75.799.05-78.454 1.669m186.625 80.93c0 57.136.243 75.166 1.024 75.947.781.781 18.723 1.024 75.547 1.024 67.56 0 74.572-.128 75.047-1.367.382-.995-19.732-21.625-74.051-75.947-42.117-42.119-75.227-74.579-76.072-74.579-1.413 0-1.495 4.101-1.495 74.922M351.573 288v15.787H160.427v-31.574h191.146V288m0 80.213V384H160.427v-31.573h191.146v15.786" fill-rule="evenodd"/></svg>