<svg xmlns="http://www.w3.org/2000/svg" viewBox="0 0 512 512"><path d="M85.588 34.099c-5.845 3.564-5.375-15.852-5.371 222.072.003 212.028.028 215.337 1.668 218.028.917 1.502 2.931 3.422 4.477 4.266C89.041 479.928 97.013 480 256 480s166.959-.072 169.638-1.535c1.546-.844 3.56-2.764 4.477-4.266 1.631-2.677 1.665-5.249 1.668-126.238l.004-123.505-93.421-.228-93.421-.228-2.366-2.366-2.366-2.366-.224-93.421-.225-93.42-75.722.003c-73.597.003-75.799.05-78.454 1.669m186.625 80.93c0 57.136.243 75.166 1.024 75.947.781.781 18.723 1.024 75.547 1.024 67.56 0 74.572-.128 75.047-1.367.382-.995-19.732-21.625-74.051-75.947-42.117-42.119-75.227-74.579-76.072-74.579-1.413 0-1.495 4.101-1.495 74.922m-1.706 127.345c15.475 4.533 27.942 17.385 32.009 32.999.825 3.17 1.271 8.966 1.271 16.543v11.665l10.453.369c11.502.407 14.189 1.278 18.032 5.845 1.229 1.461 2.523 3.683 2.875 4.937.352 1.255.64 21.865.64 45.801v43.52l-2.263 3.85c-1.394 2.371-3.688 4.664-5.974 5.973L323.84 416H188.16l-3.71-2.124c-2.286-1.309-4.58-3.602-5.974-5.973l-2.263-3.85v-88.746l2.021-3.526c3.377-5.894 7.213-7.436 19.526-7.849l10.453-.351v-11.665c0-7.577.446-13.373 1.271-16.543 6.8-26.107 34.117-40.88 61.023-32.999m-21.76 31.452c-7.362 3.398-8.96 7.001-8.96 20.203v9.758h32.426v-9.758c0-5.367-.409-10.839-.91-12.16-2.096-5.532-8.597-9.618-15.303-9.618-2.112 0-5.376.709-7.253 1.575" fill-rule="evenodd"/></svg>