<svg xmlns="http://www.w3.org/2000/svg" width="512" height="512"><path d="M206.568 17.539c-19.047 4.13-36.594 19.839-43.162 38.639-2.843 8.135-3.817 17.877-3.826 38.24l-.007 17.192-30.506.411c-33.197.446-36.278.821-46.161 5.608-16.405 7.947-28.236 22.011-33.13 39.384-1.486 5.275-1.563 12.493-1.563 147.2 0 134.708.077 141.926 1.563 147.2 6.301 22.369 23.75 38.986 45.626 43.451 3.091.631 36.33.923 105.037.923 97.246 0 100.729-.055 107.094-1.683 10.695-2.735 17.791-6.944 26.566-15.758 8.583-8.621 12.711-15.441 15.792-26.093 1.619-5.597 1.903-9.206 2.304-29.213l.457-22.827h28.399c36.896 0 43.712-1.228 56.454-10.177 11.585-8.136 19.617-19.026 24.277-32.916l2.005-5.973.238-93.199c.261-101.708.376-98.983-4.6-108.802-2.759-5.445-4.448-7.224-68.86-72.541-54.576-55.342-55.82-56.458-65.885-59.079-7.093-1.848-109.585-1.837-118.112.013m89.539 79.135c0 53.56.005 53.62 5.151 63.815 3.487 6.907 11.855 15.176 18.819 18.596 10.206 5.012 12.581 5.204 64.563 5.22l47.147.015v80.608c0 79.222-.03 80.689-1.753 85.292-2.186 5.843-7.843 12.235-13.291 15.017l-4.156 2.123-30.08.244-30.08.245-.017-51.871c-.01-29.322-.382-54.468-.857-57.845-.533-3.785-1.978-8.295-3.945-12.312-2.915-5.951-6.145-9.431-52.676-56.747-72.202-73.42-68.365-69.686-74.843-72.825-5.966-2.891-13.8-4.417-22.821-4.445l-5.399-.017.279-21.12c.274-20.783.315-21.197 2.538-25.94 3.963-8.452 11.765-14.636 20.286-16.078 2.149-.364 21.284-.707 42.521-.762l38.614-.1v48.887m122.838 54.579c.023.352-18.236.64-40.576.64-44.951 0-44.881.008-48.227-5.478-1.511-2.479-1.601-5.021-1.58-44.868l.022-42.24 45.16 45.653c24.838 25.109 45.179 45.941 45.201 46.293M184.32 193.77v49.556l2.161 6.436c4.743 14.13 16.441 25.104 30.728 28.825 4.222 1.099 12.761 1.306 53.924 1.306h48.908l-.234 81.707-.234 81.707-2.007 4.439c-2.537 5.61-9.476 12.242-15.062 14.396-4.122 1.59-7.551 1.645-102.824 1.645h-98.56l-4.767-2.236c-5.806-2.723-10.247-7.022-13.366-12.94l-2.347-4.451V164.267L82.902 160c3.758-7.089 10.487-12.759 17.791-14.989 1.174-.358 20.47-.684 42.88-.724l40.747-.074v49.557m77.653 7.475c24.64 25.031 44.932 45.874 45.093 46.317.181.5-15.408.716-41.112.568-40.296-.23-41.467-.284-43.76-1.996-1.295-.968-3.147-2.82-4.115-4.115-1.713-2.295-1.765-3.455-1.996-44.613-.13-23.241.062-42.126.427-41.965.365.161 20.823 20.773 45.463 45.804" fill-rule="evenodd"/></svg>