<svg xmlns="http://www.w3.org/2000/svg" width="512" height="512"><path d="M165.801 17.885c-5.908 3.603-5.774 2.479-6.044 50.595l-.243 43.307 21.576.006c25.287.008 30.435.647 39.07 4.855 7.39 3.601 1.574-2.029 73.444 71.085 29.761 30.277 50.864 52.413 52.273 54.835 5.601 9.622 5.228 4.098 5.696 84.259l.427 72.96h52.053c48.925 0 52.191-.094 54.341-1.553 1.258-.854 2.986-2.582 3.84-3.84 1.48-2.181 1.563-7.875 1.778-122.394l.225-120.107h-63.628c-70.222 0-66.975.248-70.404-5.374-1.612-2.646-1.665-4.76-1.668-66.519l-.004-63.787-80 .004c-77.84.003-80.073.048-82.732 1.668m194.33 53.876c-.024 44.554-.011 44.893 1.771 46.507 1.71 1.547 3.904 1.637 45.654 1.861 24.121.13 43.839-.062 43.816-.427-.023-.364-20.556-21.398-45.629-46.742l-45.587-46.08-.025 44.881M53.673 146.15c-1.595 1.066-3.571 3.274-4.392 4.907-1.405 2.797-1.492 12.631-1.492 168.943s.087 166.146 1.492 168.943c.821 1.633 2.803 3.845 4.404 4.915l2.912 1.945 128.219-.221 128.22-.222 2.283-2.133c4.968-4.642 4.681 2.101 4.681-110.038V279.893h-63.231c-70.044 0-67.176.224-70.729-5.525-1.684-2.725-1.72-4.106-1.72-66.469v-63.686H56.572l-2.899 1.937m162.22 53.364c0 42.391.072 44.439 1.631 46.365l1.631 2.014 44.101.236c27.782.149 43.993-.066 43.809-.58-.325-.91-89.522-91.651-90.532-92.1-.352-.157-.64 19.673-.64 44.065" fill-rule="evenodd"/></svg>