<svg xmlns="http://www.w3.org/2000/svg" width="512" height="512"><path d="M130.018 33.701c-21.434 4.661-39.354 20.938-46.982 42.672L80.64 83.2v345.6l2.396 6.827c3.569 10.168 8.484 17.883 16.31 25.6 11.193 11.036 22.734 16.503 38.704 18.333 10.052 1.152 225.848 1.152 235.9 0 15.97-1.83 27.511-7.297 38.704-18.333 7.83-7.721 12.752-15.445 16.312-25.6l2.394-6.827.234-101.008c.169-73.197-.028-101.323-.716-102.152-.777-.936-14.53-1.196-75.754-1.432-67.024-.259-75.291-.438-79.491-1.719-16.248-4.958-28.547-16.974-33.828-33.049-1.43-4.354-1.562-10.113-1.819-79.747-.192-51.946-.561-75.394-1.196-76.16-1.353-1.629-101.215-1.476-108.772.168m142.195 78.243c0 67.113.013 67.596 1.81 71.31 1.091 2.252 3.187 4.65 5.271 6.029l3.461 2.29 68.137.229c62.141.208 68.183.106 68.667-1.154.39-1.015-18.683-20.596-71.912-73.828-40.898-40.9-73.094-72.447-73.938-72.447-1.413 0-1.496 3.754-1.496 67.571m70.812 161.968c1.831.934 4.408 3.113 5.726 4.84 2.115 2.774 2.396 3.864 2.396 9.316 0 5.599-.241 6.47-2.582 9.363-1.419 1.754-3.909 3.902-5.533 4.773-2.818 1.511-6.763 1.583-86.833 1.583-91.216 0-86.967.222-91.665-4.802-2.936-3.141-4.107-6.296-4.107-11.068 0-6.561 2.812-11.045 8.96-14.286 2.282-1.203 11.648-1.353 86.434-1.384 82.095-.033 83.944.002 87.204 1.665m-1.107 79.422c3.269 1.235 7.06 4.918 8.48 8.239 2.467 5.764.749 14.343-3.672 18.341C342.081 384.115 344.637 384 256 384s-86.081.115-90.726-4.086c-4.434-4.01-6.31-13.679-3.644-18.783 1.308-2.502 5.038-6.211 7.757-7.711 2.359-1.302 169.093-1.385 172.531-.086" fill-rule="evenodd"/></svg>