<svg xmlns="http://www.w3.org/2000/svg" width="512" height="512"><path d="M247.359 34.872c-7.539 4.781-7.146 1.084-7.146 67.101V160h31.574v-58.027c0-55.588-.069-58.166-1.646-61.341-3.932-7.925-14.969-10.715-22.782-5.76m-126.014 127.28c-19.575 5.129-35.248 21.386-39.883 41.37-1.109 4.781-1.249 20.604-1.051 118.81l.229 113.295 2.286 6.259c3.22 8.813 7.074 14.896 13.56 21.399 9.306 9.331 20.014 14.52 33.647 16.306 7.863 1.031 243.871 1.031 251.734 0 13.633-1.786 24.341-6.975 33.647-16.306 6.486-6.503 10.34-12.586 13.56-21.399l2.286-6.259V204.373l-2.286-6.259c-3.22-8.813-7.074-14.896-13.56-21.399-6.341-6.358-13.981-11.179-22.127-13.962-5.486-1.873-6.188-1.897-63.36-2.139l-57.814-.244v152.316l26.667-26.534c14.667-14.593 27.949-27.183 29.515-27.977 3.526-1.787 11.088-1.884 14.356-.184 7.451 3.876 10.753 13.061 7.499 20.863-.902 2.166-14.108 15.981-41.6 43.52-22.152 22.191-41.724 41.352-43.492 42.58-3.837 2.665-10.075 3.494-14.819 1.971-2.627-.844-11.602-9.335-44.076-41.699-22.427-22.352-41.79-42.099-43.027-43.884-5.358-7.726-2.471-18.938 6.013-23.351 3.268-1.7 10.83-1.603 14.356.184 1.566.794 14.848 13.384 29.515 27.977l26.667 26.534V160.427l-56.107.047c-52.418.044-56.516.154-62.335 1.678" fill-rule="evenodd"/></svg>