<svg xmlns="http://www.w3.org/2000/svg" width="512" height="512"><path d="M239.787 16.737c-18.147 2.2-33.848 5.885-46.938 11.016-59.867 23.468-101.541 75.692-110.976 139.074-1.57 10.544-1.652 16.775-1.656 125.968-.003 99.031.175 115.902 1.295 122.323 5.118 29.349 23.903 55.489 49.901 69.439 14.4 7.726 28.571 11.23 45.424 11.23 34.864 0 64.061-14.494 86.774-43.076 2.763-3.476 11.269-16.79 18.904-29.587 7.634-12.796 16.953-27.863 20.709-33.481 13.773-20.605 27.757-35.823 42.803-46.581 12.744-9.112 19.158-14.429 29.318-24.307 28.658-27.859 45.981-58.427 53.457-94.328 3.068-14.738 3.837-38.209 1.778-54.331-9.91-77.591-68.79-138.63-146.42-151.788-7.788-1.32-37.706-2.38-44.373-1.571m35.84 32.879c56.336 6.913 105.217 50.295 119.57 106.117 5.103 19.847 5.876 44.213 2.007 63.226-3.483 17.114-12.916 38.284-24.109 54.108-9.108 12.874-27.021 30.28-44.562 43.298-28.365 21.053-42.308 38.065-72.114 87.992-14.686 24.6-18.204 29.634-26.537 37.966-19.644 19.644-49.554 26.867-74.841 18.073-19.491-6.778-36.475-25.891-41.315-46.492-1.408-5.992-1.513-14.29-1.513-119.931 0-121.414-.062-119.422 4.318-136.96C132.958 91.239 193.749 45.582 261.12 48.42c3.989.168 10.517.706 14.507 1.196M235.84 81.874c-11.629 2.048-19.536 4.541-29.915 9.431-32.2 15.174-54.078 42.724-60.403 76.062-1.106 5.833-1.309 17.212-1.309 73.525 0 66.147.013 66.649 1.81 70.362 5.15 10.637 20.482 11.582 27.047 1.667l2.29-3.459.427-30.729.426-30.729 4.694-1.629c16.735-5.81 58.394-8.678 66.344-4.567 3.58 1.852 6.716 6.109 7.951 10.794 1.477 5.603.069 9.599-5.871 16.663-22.702 26.994-39.749 53.693-40.921 64.088-.97 8.603 3.271 15.45 10.988 17.742 8.806 2.615 17.169-2.272 20.57-12.02 3.014-8.643 17.086-29.083 33.4-48.515 10.408-12.398 14.176-21.469 14.195-34.167.033-22.251-14.779-41.423-36.222-46.884-6.056-1.543-31.189-1.781-44.957-.426-7.893.776-23.545 3.386-28.677 4.781l-1.92.522.007-14.82c.004-8.151.399-18.241.878-22.422 4.578-39.968 43.581-68.589 87.799-64.429 31.497 2.964 58.677 23.137 67.804 50.323 1.2 3.576 2.691 11.066 3.361 16.885 1.079 9.373 1.465 10.786 3.724 13.614 3.325 4.162 7.397 6.14 12.64 6.14 5.285 0 9.317-1.981 12.739-6.262 2.399-3 2.646-3.908 2.914-10.731.678-17.267-6.083-38.014-18.092-55.522-12.324-17.967-35.869-34.883-58.148-41.777-16.473-5.097-38.619-6.496-55.573-3.511" fill-rule="evenodd"/></svg>