<svg xmlns="http://www.w3.org/2000/svg" width="512" height="512"><path d="M240.64 16.698c-1.173.2-5.589.787-9.813 1.304-20.733 2.538-45.405 11.311-65.152 23.165-39.746 23.86-68.525 62.395-79.985 107.104-5.656 22.064-5.537 18.7-5.281 148.705l.231 117.317 2.28 8.252c4.728 17.11 12.578 31.129 24.302 43.401 8.865 9.279 15.937 14.5 27.178 20.066 13.316 6.594 23.198 9.016 38.982 9.555 36.394 1.242 66.655-13.19 90.456-43.142 2.757-3.468 11.208-16.731 18.781-29.472 7.573-12.742 16.742-27.614 20.376-33.05 13.879-20.762 27.917-36.04 43.032-46.834 24.387-17.416 43.51-36.753 57.835-58.482 6.912-10.485 16.177-29.617 19.836-40.96 5.313-16.475 7.342-28.626 7.836-46.934.516-19.137-.769-31.044-5.224-48.422-11.46-44.709-40.239-83.244-79.985-107.104-19.005-11.409-39.924-19.103-62.165-22.863-7.678-1.298-38.637-2.441-43.52-1.606m41.813 66.356c48.339 11.399 82.613 49.633 85.06 94.884.459 8.496.333 9.748-1.308 12.964-.999 1.957-3.23 4.637-4.957 5.955-2.767 2.11-3.871 2.396-9.248 2.396-5.377 0-6.481-.286-9.248-2.396-4.448-3.392-6.208-7.471-6.824-15.813-.747-10.096-2.698-17.334-7.055-26.164-6.32-12.806-16.199-23.373-28.81-30.814-32.273-19.044-74.362-14.896-101.62 10.017-9.37 8.563-17.129 21.42-20.534 34.024-1.161 4.294-1.59 10.149-1.901 25.928l-.402 20.382 2.437-.621c6.406-1.632 19.52-3.864 27.487-4.679 13.596-1.39 39.69-1.167 45.811.392 16.953 4.317 30.619 17.984 34.937 34.937 1.654 6.496 1.657 16.595.006 23.108-2.023 7.981-5.511 13.919-14.84 25.273-14.685 17.87-24.503 31.975-29.941 43.014-5.455 11.075-6.5 12.406-11.32 14.42-9.763 4.079-20.575-2.261-21.758-12.759-1.085-9.627 11.352-31.479 33.525-58.905 12.701-15.71 13.029-16.204 13.694-20.634.811-5.409-1.551-10.866-6.256-14.455-4.614-3.519-9.425-4.145-26.24-3.416-18.967.823-34.737 3.362-44.065 7.094l-3.296 1.319v29.505c0 28.322-.073 29.654-1.81 33.244-2.683 5.542-7.349 8.319-13.977 8.319-6.66 0-11.291-2.773-14.01-8.388l-1.843-3.808.262-69.422.263-69.422 2.238-8.149c10.86-39.538 42.745-68.967 83.986-77.518 12.231-2.536 12.218-2.535 28.091-2.217 11.729.236 16.222.696 23.466 2.405" fill-rule="evenodd"/></svg>