<svg xmlns="http://www.w3.org/2000/svg" width="512" height="512"><path d="M247.359 34.872c-5.782 3.666-7.083 7.013-7.429 19.101L239.644 64l-82.062.015c-67.914.012-83.056.225-87.828 1.237-13.359 2.83-26.706 13.222-32.49 25.296C31.692 102.18 32 94.833 32 216.32v110.933l1.893 5.974c4.15 13.1 13.583 24.238 25.194 29.748 9.262 4.396 12.681 4.812 39.573 4.812h24.335l-.61 1.92c-.336 1.056-6.528 22.654-13.76 47.997-12.643 44.306-13.111 46.224-12.183 49.92 2.497 9.932 12.202 15.208 21.12 11.482 3.707-1.549 6.724-4.191 8.347-7.308.637-1.226 6.958-22.538 14.045-47.36 7.088-24.822 13.65-47.723 14.582-50.891l1.696-5.76h83.555l.018 25.386c.017 22.889.175 25.723 1.599 28.8 6.114 13.204 23.078 13.204 29.192 0 1.424-3.077 1.582-5.911 1.599-28.8l.018-25.386h83.555l1.696 5.76c.932 3.168 7.494 26.069 14.582 50.891 7.087 24.822 13.408 46.134 14.045 47.36 1.623 3.117 4.64 5.759 8.347 7.308 8.918 3.726 18.623-1.55 21.12-11.482.928-3.696.46-5.614-12.183-49.92-7.232-25.343-13.424-46.941-13.76-47.997l-.61-1.92h24.335c26.892 0 30.311-.416 39.573-4.812 11.611-5.51 21.044-16.648 25.194-29.748l1.893-5.974V103.68l-2.257-6.172c-1.241-3.394-3.321-8.002-4.622-10.24-3.556-6.113-11.922-13.869-18.933-17.551-11.104-5.832-8.548-5.686-99.77-5.702L272.356 64l-.286-10.027c-.346-12.088-1.647-15.435-7.429-19.101-5.423-3.439-11.859-3.439-17.282 0m191.928 63.171c3.911 1.995 5.707 3.934 7.4 7.987 1.158 2.771 1.313 15.754 1.313 109.863 0 94.396-.153 107.087-1.321 109.883-1.762 4.216-4.361 6.918-8.492 8.824-3.284 1.516-10.182 1.576-182.187 1.576-172.005 0-178.903-.06-182.187-1.576-4.131-1.906-6.73-4.608-8.492-8.824-1.169-2.797-1.319-15.477-1.302-110.069.018-101.911.092-107.067 1.586-110.32 1.703-3.709 3.402-5.451 7.355-7.539 2.313-1.222 19.978-1.356 182.861-1.387 175.276-.033 180.389.011 183.466 1.582m-351.11 14.676c-2.938.855-6.843 4.924-7.562 7.88-.248 1.02-.344 44.76-.213 97.2l.238 95.346 3.214 3.214 3.214 3.214 167.453.224c118.895.159 168.104-.045 169.699-.702 1.235-.509 3.347-2.075 4.693-3.48l2.447-2.553.216-96.158c.212-94.133.182-96.215-1.452-98.884-.918-1.5-2.727-3.42-4.019-4.267-2.243-1.469-9.936-1.546-168.787-1.68-99.508-.085-167.525.175-169.141.646" fill-rule="evenodd"/></svg>