<svg xmlns="http://www.w3.org/2000/svg" width="512" height="512"><path d="M233.813 48.213V64h-96.226c-92.237 0-96.35.066-99.2 1.59-1.636.874-3.742 2.89-4.68 4.48C32.018 72.929 32 74.492 32 215.893c0 135.986.075 143.07 1.535 145.745.844 1.546 2.764 3.56 4.266 4.477 2.609 1.59 4.571 1.665 43.479 1.668 22.411.002 40.747.161 40.747.353 0 .192-7.104 22.919-15.787 50.504-8.683 27.586-15.787 50.57-15.787 51.075 0 .788 33.02 9.997 35.414 9.878.469-.024 8.482-24.326 17.807-54.005 9.325-29.679 17.281-54.825 17.679-55.881l.725-1.92h71.735v64h44.374v-64h35.782c33.339 0 35.813.102 36.232 1.493.246.821 7.193 25.854 15.435 55.627 8.243 29.774 15.123 54.27 15.29 54.436.45.45 34.954-7.591 35.801-8.343.523-.464-20.512-78.898-27.279-101.72-.418-1.408 1.921-1.494 40.788-1.497 39.388-.003 41.353-.077 43.963-1.668 1.502-.917 3.422-2.931 4.266-4.477 1.46-2.675 1.535-9.759 1.535-145.745 0-141.401-.018-142.964-1.707-145.823-.938-1.59-3.044-3.606-4.68-4.48-2.85-1.524-6.963-1.59-99.2-1.59h-96.226V32.427h-44.374v15.786M442.027 216.32v113.92H69.973V102.4h372.054v113.92m-354.134 0v96h336.214v-192H87.893v96" fill-rule="evenodd"/></svg>