<svg xmlns="http://www.w3.org/2000/svg" width="512" height="512"><path d="M240.736 33.693c-8.502 1.925-13.521 3.737-22.335 8.064C157.16 71.821 98.429 160.402 83.709 244.907c-3.019 17.328-3.757 28.904-3.236 50.732.791 33.11 5.48 57.612 15.969 83.448 12.072 29.734 33.279 56.01 58.865 72.932 30.86 20.411 71.405 30.234 113.684 27.542 62.383-3.972 109.401-31.991 137.775-82.104 16.25-28.7 25.034-67.053 25.012-109.219-.014-28.64-3.457-50.702-12.49-80.025-24.843-80.651-86.994-156.545-141.551-172.852-9.572-2.861-28.051-3.694-37.001-1.668m31.145 33.501c14.68 5.198 29.202 15.378 46.509 32.604 13.217 13.155 22.415 24.427 32.648 40.009 20.193 30.75 33.712 60.764 41.877 92.975 9.128 36.011 9.149 76.921.057 112.391-6.931 27.041-18.101 47.165-36.249 65.306-10.796 10.79-20.245 17.563-32.811 23.516-39.705 18.808-96.119 18.808-135.824 0-12.566-5.953-22.015-12.726-32.811-23.516-26.675-26.665-39.684-59.849-42.632-108.75-2.525-41.869 6.215-81.793 27.571-125.942 27.282-56.401 72.875-103.388 107.677-110.969 6.062-1.32 16.457-.291 23.988 2.376" fill-rule="evenodd"/></svg>