<svg xmlns="http://www.w3.org/2000/svg" width="512" height="512"><path d="M240.64 33.695c-34.958 7.851-74.752 40.984-106.938 89.038-26.114 38.989-44.153 84.35-51.13 128.574-2.538 16.092-2.746 56.434-.372 72.533 9.503 64.464 37.734 109.421 85.053 135.447 39.366 21.651 98.913 26.815 146.347 12.69 74.963-22.321 118.187-89.677 118.187-184.171 0-34.205-6.188-65.32-20.109-101.115-21.933-56.397-62.118-109.739-102.539-136.113-9.047-5.903-24.504-13.294-32.659-15.616-8.468-2.412-27.713-3.092-35.84-1.267" fill-rule="evenodd"/></svg>