<svg xmlns="http://www.w3.org/2000/svg" width="512" height="512"><path d="M241.493 48.641c-73.546 4.98-139.537 49.344-171.991 115.626-9.821 20.057-16.261 40.822-19.717 63.573-2.061 13.574-2.061 42.746 0 56.32 9.53 62.741 43.783 115.395 96.708 148.659 22.943 14.42 52.088 24.952 81.347 29.396 13.574 2.061 42.746 2.061 56.32 0 44.794-6.804 83.873-25.735 115.311-55.86 34.149-32.722 55.457-74.222 62.744-122.195 2.061-13.574 2.061-42.746 0-56.32-9.459-62.277-43.536-114.958-95.783-148.074-17.584-11.145-45.197-22.467-65.205-26.735-18.623-3.972-41.298-5.638-59.734-4.39m42.667 33.667c38.218 6.478 72.49 24.514 98.722 51.953 25.1 26.256 40.826 57.863 46.944 94.357 2.121 12.648 2.121 42.116 0 54.764-13.054 77.859-73.877 137.094-151.043 147.099-80.451 10.431-157.211-35.261-187.03-111.33-3.848-9.817-7.538-23.595-9.579-35.769-2.121-12.648-2.121-42.116 0-54.764 6.377-38.038 22.752-70.023 49.587-96.857 29.625-29.626 63.5-45.626 108.026-51.024 6.667-.809 36.585.251 44.373 1.571" fill-rule="evenodd"/></svg>