<svg xmlns="http://www.w3.org/2000/svg" width="512" height="512"><path d="M249.154 48.597c-17.006 2.274-32.477 14.804-38.51 31.19-2.776 7.539-2.817 24.107-.081 32 4.362 12.582 15.847 24.414 28.174 29.026 7.653 2.863 16.269 3.861 23.556 2.728 11.798-1.834 19.622-5.804 27.727-14.067 10.194-10.394 13.34-18.287 13.34-33.474 0-15.002-3.081-22.882-12.952-33.125-10.698-11.101-25.836-16.34-41.254-14.278m12.55 32.524c5.812 2.196 9.9 8.34 9.9 14.879 0 13.796-16.23 21.049-26.134 11.679-3.569-3.378-5.074-6.84-5.074-11.679 0-6.395 4.033-12.605 9.631-14.83 2.867-1.14 8.725-1.165 11.677-.049m-17.963 128.446c-7.674 1.858-14.834 6.104-21.452 12.722-9.731 9.73-14.076 20.137-14.076 33.711 0 13.574 4.345 23.981 14.076 33.711 9.73 9.731 20.137 14.076 33.711 14.076 13.574 0 23.981-4.345 33.711-14.076 9.731-9.73 14.076-20.137 14.076-33.711 0-13.574-4.345-23.981-14.076-33.711-6.76-6.76-13.779-10.861-21.844-12.762-6.742-1.589-17.468-1.571-24.126.04m19.939 32.373c5.121 2.635 7.966 7.66 7.96 14.056-.007 7.696-4.318 13.464-11.508 15.4-11.221 3.022-21.604-6.546-19.769-18.216 1.63-10.368 13.704-16.188 23.317-11.24m-14.526 126.657c-17.006 2.274-32.477 14.804-38.51 31.19-2.776 7.539-2.817 24.107-.081 32 4.362 12.582 15.847 24.414 28.174 29.026 7.653 2.863 16.269 3.861 23.556 2.728 11.798-1.834 19.622-5.804 27.727-14.067 10.194-10.394 13.34-18.287 13.34-33.474 0-15.002-3.081-22.882-12.952-33.125-10.698-11.101-25.836-16.34-41.254-14.278m12.55 32.524c5.812 2.196 9.9 8.34 9.9 14.879 0 4.839-1.505 8.301-5.074 11.679-9.904 9.37-26.134 2.117-26.134-11.679 0-6.395 4.033-12.605 9.631-14.83 2.867-1.14 8.725-1.165 11.677-.049" fill-rule="evenodd"/></svg>