<svg xmlns="http://www.w3.org/2000/svg" width="512" height="512"><path d="M84.168 209.515c-13.144 3.319-25.358 13.373-31.344 25.8-15.237 31.636 7.99 68.472 43.176 68.472 16.47 0 31.293-8.168 40.533-22.334 9.764-14.969 9.768-35.9.009-50.906-5.894-9.064-16.476-17.325-26.019-20.312-6.089-1.906-20.138-2.29-26.355-.72m162.019-.488c-22.169 4.804-37.974 24.355-37.974 46.973 0 13.119 4.67 24.3 14.078 33.709 18.962 18.962 48.456 18.962 67.418 0 24.831-24.831 15.773-66.104-17.257-78.626-6.358-2.411-19.779-3.462-26.265-2.056m157.981.488c-13.144 3.319-25.358 13.373-31.344 25.8-15.237 31.636 7.99 68.472 43.176 68.472 16.47 0 31.293-8.168 40.533-22.334 9.764-14.969 9.768-35.9.009-50.906-5.894-9.064-16.476-17.325-26.019-20.312-6.089-1.906-20.138-2.29-26.355-.72" fill-rule="evenodd"/></svg>