<svg xmlns="http://www.w3.org/2000/svg" width="512" height="512"><path d="M165.801 81.885c-1.502.917-3.422 2.931-4.266 4.477-1.44 2.637-1.549 7.487-1.766 78.118l-.232 75.307h147.228l-31.786-31.795-31.787-31.795 11.318-11.294 11.317-11.294 51.191 51.195L368.208 256l-51.19 51.196-51.191 51.195-11.317-11.294-11.318-11.294 31.787-31.795 31.786-31.795H159.537l.232 75.307c.217 70.631.326 75.481 1.766 78.118.844 1.546 2.764 3.56 4.266 4.477 2.683 1.635 5.475 1.665 154.199 1.665 148.724 0 151.516-.03 154.199-1.665 1.502-.917 3.422-2.931 4.266-4.477C479.928 422.959 480 414.987 480 256s-.072-166.959-1.535-169.638c-.844-1.546-2.764-3.56-4.266-4.477-2.683-1.635-5.475-1.665-154.199-1.665-148.724 0-151.516.03-154.199 1.665M31.954 240.878c-.232.606-.317 7.808-.188 16.005L32 271.787h128v-31.574l-63.811-.218c-51.513-.177-63.893-.007-64.235.883" fill-rule="evenodd"/></svg>