<svg xmlns="http://www.w3.org/2000/svg" width="512" height="512"><path d="M78.933 80.767c-19.189 3.996-33.772 15.051-41.481 31.446C31.623 124.609 32 114.671 32 256c0 119.776.093 127.912 1.522 133.12 4.601 16.767 15.229 29.888 30.064 37.116 11.882 5.789 6.115 5.524 120.384 5.538 100.31.012 103.524-.037 109.955-1.682 19.083-4.88 33.159-18.521 40.03-38.792 1.685-4.969 1.763-7.347 2.044-62.127l.293-56.96h89.06l-27.867 27.947c-30.328 30.414-29.617 29.465-28.629 38.235 1.095 9.716 12.28 15.806 21.785 11.862 3.903-1.62 83.675-80.875 86.956-86.393 2.957-4.975 2.957-10.753 0-15.728-3.281-5.518-83.053-84.773-86.956-86.393-9.505-3.944-20.69 2.146-21.785 11.862-.988 8.77-1.699 7.821 28.629 38.235l27.867 27.947h-89.06l-.293-56.96c-.281-54.698-.362-57.164-2.035-62.08-5.691-16.719-15.265-27.942-29.909-35.059-11.646-5.661-6.981-5.454-120.588-5.361-56.555.046-103.595.244-104.534.44M336.213 256v16.213l-74.026-.018c-69.975-.018-74.216-.105-77.476-1.586-13.578-6.167-12.029-26.59 2.274-29.967 1.585-.374 35.81-.72 76.055-.768l73.173-.087V256" fill-rule="evenodd"/></svg>