<svg xmlns="http://www.w3.org/2000/svg" width="512" height="512"><path d="M64 136.125v72.126l16-.232 16-.232.221-44.363.221-44.364 55.885 55.88 55.885 55.88 11.304-11.304 11.304-11.304-55.88-55.885-55.88-55.885 44.364-.221L207.787 96l.232-16 .232-16H64v72.125M303.981 80l.232 16 44.363.221 44.364.221-55.88 55.885-55.88 55.885 11.304 11.304 11.304 11.304 55.885-55.88 55.885-55.88.221 44.364.221 44.363 16 .232 16 .232V64H303.749l.232 16M152.318 337.07l-55.465 55.469-.426-44.163L96 304.213l-16-.232-16-.232V448h144.213v-31.573H163.84c-24.405 0-44.373-.287-44.373-.638 0-.351 25.052-25.692 55.672-56.315l55.673-55.677-11.074-11.099c-6.09-6.104-11.272-11.098-11.515-11.098-.243 0-25.4 24.961-55.905 55.47m139.944-44.372-11.074 11.099 55.673 55.677c30.62 30.623 55.672 55.964 55.672 56.315 0 .351-19.968.638-44.373.638h-44.373V448H448V303.749l-16 .232-16 .232-.427 44.163-.426 44.163-55.465-55.469c-30.505-30.509-55.662-55.47-55.905-55.47-.243 0-5.425 4.994-11.515 11.098" fill-rule="evenodd"/></svg>