<svg xmlns="http://www.w3.org/2000/svg" viewBox="0 0 512 512"><path d="M200.346 34.117c-11.904 3.022-23.67 10.057-31.903 19.076-11.59 12.695-17.351 27.442-17.391 44.514-.02 8.535-1.693 12.815-5.319 13.605-1.07.233-16.73.576-34.8.763-36.206.373-36.969.468-48.213 6.04-13.944 6.909-24.322 19.547-28.752 35.014-1.932 6.746-1.968 7.614-1.968 47.852v40.98l2.18 4.239c1.548 3.009 3.383 4.983 6.329 6.806l4.15 2.567 20.124.495c15.982.393 20.907.793 23.927 1.944 13.274 5.061 23.361 17.452 25.596 31.441 2.926 18.314-7.893 37.646-24.865 44.428-4.036 1.613-6.8 1.864-25.157 2.286l-20.623.473-3.697 2.598c-2.034 1.429-4.657 4.309-5.831 6.4L32 349.44l.007 41.387c.008 46.244-.006 46.106 6.206 58.88 4.357 8.958 15.122 19.723 24.08 24.08 12.774 6.212 12.636 6.198 58.88 6.206l41.387.007 3.802-2.133c2.091-1.174 4.971-3.798 6.4-5.833l2.598-3.699.552-17.634c.386-12.339.935-18.678 1.828-21.108 4.511-12.276 11.851-20.672 22.53-25.771 6.443-3.077 6.973-3.182 16.05-3.182 6.913 0 10.687.426 14.319 1.618 6.707 2.201 14.881 7.846 18.739 12.941 5.522 7.293 5.985 9.558 6.546 32.018l.503 20.124 2.567 4.15c1.822 2.943 3.799 4.783 6.802 6.329l4.235 2.18 36.718.25c21.118.144 39.706-.114 43.751-.608 22.756-2.778 40.096-17.051 47.253-38.895 1.872-5.714 1.977-7.475 2.422-40.534.256-19.008.777-35.042 1.159-35.632 1.57-2.427 5.576-3.415 15.519-3.826 8.081-.334 11.68-.908 17.067-2.725 12.839-4.331 23.215-11.419 30.945-21.14 20.619-25.929 19.979-61.078-1.539-84.562-12.825-13.996-27.71-20.89-46.899-21.723-10.17-.442-13.758-1.477-15.335-4.424-.556-1.039-.879-12.953-.879-32.454 0-35.272-.5-39.444-6.134-51.172-6.338-13.195-19.963-24.453-34.826-28.777-3.835-1.115-10.698-1.427-37.546-1.703-18.07-.187-33.713-.526-34.763-.754-3.585-.779-4.69-3.957-5.414-15.573-.499-8.006-1.262-12.627-2.917-17.668-6.783-20.66-22.038-35.91-43.121-43.108-8.072-2.756-25.944-3.191-35.146-.855" fill-rule="evenodd"/></svg>