<svg xmlns="http://www.w3.org/2000/svg" width="512" height="512"><path d="M229.547 97.712c-30.006 3.685-54.671 11.506-83.363 26.436-28.779 14.975-51.151 31.683-77.117 57.592-15.893 15.857-24.806 26.162-39 45.087-11.197 14.931-13.181 18.981-13.663 27.893-.487 9.004 1.181 13.646 9.225 25.671 15.914 23.788 30.971 41.581 51.061 60.336 46.008 42.952 97.765 67.738 154.526 74 11.528 1.272 37.224 1.276 48.677.008 54.025-5.982 104.224-29.246 150.187-69.602 22.594-19.837 52.806-56.131 62.084-74.582 3.026-6.018 3.196-6.789 3.195-14.507 0-9.635-1.055-12.438-9.153-24.337-47.226-69.389-117.11-118.535-186.819-131.384-21.451-3.954-50.165-5.027-69.84-2.611m41.856 31.196c66.311 5.249 131.746 44.845 179.704 108.745 6.935 9.24 12.253 17.2 12.253 18.339 0 1.957-14.07 21.699-23.726 33.288-39.293 47.163-91.046 79.919-142.996 90.505-33.589 6.846-67.87 5.208-101.023-4.827-13.494-4.084-18.869-6.24-33.908-13.6-42.379-20.74-79.531-54.214-109.404-98.575l-4.34-6.444 7.379-9.919c12.126-16.302 21.91-27.649 35.923-41.664 26.322-26.327 50.485-43.665 79.856-57.303 32.943-15.295 65.43-21.303 100.282-18.545m-30.832 32.329c-31.149 5.688-56.877 24.779-70.5 52.313-6.736 13.616-9.802 26.895-9.802 42.45 0 47.175 33.308 86.445 80.371 94.755 7.657 1.352 24.708 1.17 32.501-.346 39.716-7.729 69.539-37.552 77.268-77.268 1.516-7.793 1.698-24.844.346-32.501-3.112-17.621-11.013-34.468-22.117-47.157-12.821-14.651-29.091-24.877-47.921-30.12-6.892-1.918-10.143-2.292-22.157-2.544-7.744-.163-15.839.025-17.989.418m33.786 33.51c20.12 5.884 36.76 22.491 42.981 42.896 1.77 5.805 2.084 8.576 2.084 18.357 0 9.781-.314 12.552-2.084 18.357-6.252 20.507-22.533 36.71-43.418 43.212-9.259 2.882-26.581 2.882-35.84 0-20.885-6.502-37.166-22.705-43.418-43.212-1.77-5.805-2.084-8.576-2.084-18.357 0-9.781.314-12.552 2.084-18.357 7.06-23.158 26.581-40.421 50.641-44.782 7.113-1.289 21.358-.365 29.054 1.886" fill-rule="evenodd"/></svg>