<svg xmlns="http://www.w3.org/2000/svg" width="512" height="512"><path d="M74.879 74.881 64.011 85.773l181.121 181.119 181.121 181.12 10.868-10.893 10.868-10.892-181.121-181.119L85.747 63.988 74.879 74.881m154.463 22.79c-13.247 1.676-28.768 5.093-41.242 9.081l-10.88 3.478 26.561 26.561 26.56 26.56 4.936-1.118c7.279-1.648 27.015-2.206 35.286-.996 8.814 1.289 19.985 4.913 28.655 9.297 25.925 13.109 43.554 35.96 50.791 65.839 1.557 6.427 1.508 30.949-.077 39.101l-1.215 6.248 34.917 34.926c19.205 19.209 35.299 34.925 35.765 34.925 1.382 0 24.11-23.558 32.938-34.142 13.741-16.474 29.902-38.895 40.38-56.018 3.787-6.19 4.407-4.244-6.759-21.2-8.904-13.52-22.418-31.745-32.903-44.373-9.943-11.975-34.536-36.393-44.978-44.657-34.375-27.208-74.014-45.031-116.237-52.265-13.717-2.35-48.317-3.04-62.498-1.247M79.983 175.747c-19.82 20.414-40.874 46.386-58.641 72.343l-5.392 7.877 3.262 5.35c11.461 18.798 28.515 42.246 44.068 60.588 10.562 12.456 33.398 34.619 44.005 42.708 63.767 48.626 143.146 63.591 217.195 40.947 5.515-1.686 10.027-3.294 10.027-3.572s-11.868-12.368-26.372-26.867l-26.373-26.362-5.414 1.066c-44.018 8.667-85.999-11.448-105.88-50.732-9.298-18.371-12.332-39.699-8.675-60.986l1.366-7.953-34.002-34.01c-18.701-18.706-34.442-34.011-34.979-34.011-.538 0-6.926 6.127-14.195 13.614m180.284 16.951c0 1.056 58.797 59.402 59.327 58.873.773-.774-1.136-10.281-3.423-17.04-3.045-9.002-6.886-14.841-15.403-23.417-6.524-6.57-8.956-8.378-15.787-11.733-7.58-3.723-14.041-5.772-21.514-6.824-1.76-.247-3.2-.184-3.2.141m-67.851 71.195c2.506 16.051 8.596 27.683 20.217 38.614 7.454 7.011 13.638 10.87 21.898 13.664 6.759 2.287 16.266 4.196 17.04 3.423.571-.572-57.861-59.327-59.001-59.327-.396 0-.465 1.632-.154 3.626" fill-rule="evenodd"/></svg>