<svg xmlns="http://www.w3.org/2000/svg" width="512" height="512"><path d="M228.723 97.716c-43.611 5.838-85.522 24.019-121.409 52.666-11.432 9.126-37.947 35.682-49.648 49.725-9.965 11.959-28.529 36.474-36.683 48.44l-5.044 7.402 3.267 5.359c11.468 18.808 28.519 42.252 44.074 60.597 10.562 12.456 33.398 34.619 44.005 42.708 59.768 45.576 133.912 61.793 203.903 44.598 34.902-8.575 69.053-25.477 97.559-48.285 10.756-8.606 32.736-30.399 42.567-42.206 14.107-16.942 31.072-40.423 41.403-57.307 3.787-6.19 4.407-4.244-6.759-21.2-8.904-13.52-22.418-31.745-32.903-44.373-9.943-11.975-34.536-36.393-44.978-44.657-34.374-27.207-73.993-45.022-116.237-52.267-13.859-2.377-49.296-3.051-63.117-1.2m44.445 63.963c39.501 6.918 71.797 40.104 77.591 79.729 1.429 9.773.593 29.245-1.615 37.632-7.883 29.94-29.273 54.708-56.748 65.709-47.053 18.841-99.161-.671-121.928-45.656-7.117-14.062-10.041-26.612-10.041-43.093 0-16.944 3.016-29.472 10.66-44.272 13.39-25.925 38.883-44.886 67.278-50.038 8.4-1.524 26.132-1.529 34.803-.011m-27.771 31.167c-14.403 2.612-28.725 10.893-38.401 22.203-15.275 17.854-19.132 43.093-10.011 65.505 6.131 15.068 19.393 28.33 34.461 34.461 24.317 9.896 51.25 4.524 69.671-13.898 23.964-23.964 25.175-61.925 2.787-87.357-7.437-8.448-20.675-16.654-31.769-19.695-5.664-1.552-21.038-2.253-26.738-1.219" fill-rule="evenodd"/></svg>