<svg xmlns="http://www.w3.org/2000/svg" width="512" height="512"><path d="M77.227 64.807c-9.388 2.252-14.729 10.774-12.381 19.755.902 3.45 15.663 18.438 179.908 182.681C440.43 462.916 425.743 448.972 434.755 447.621c2.885-.433 4.955-1.468 7.469-3.737 5.853-5.282 7.301-11.752 4.138-18.497-1.116-2.382-55.468-57.232-179.821-181.469C113.668 91.188 87.895 65.782 85.333 65.295a376.237 376.237 0 0 1-4.266-.835c-.704-.147-2.432.009-3.84.347m157.866 32.13c-1.408.195-5.632.759-9.386 1.255-16.96 2.237-40.597 8.217-43.396 10.979-.967.954-1.385 2.187-1.073 3.169.281.884 11.622 12.695 25.202 26.246 24.354 24.301 24.731 24.63 27.526 24.042 12.085-2.541 28.237-2.938 39.307-.964 38.733 6.906 69.613 37.633 77.01 76.63 1.664 8.772 1.669 26.668.01 35.338-.703 3.678-1.279 6.869-1.28 7.091 0 .221 15.834 16.253 35.186 35.626 23.425 23.45 35.77 35.224 36.932 35.224 3.54 0 29.13-24.817 43.833-42.51 13.73-16.522 27.189-36.377 29.535-43.568 2.405-7.378 1.516-16.384-2.389-24.189-3.306-6.608-14.742-22.699-25.825-36.337-9.758-12.007-35.783-37.734-48.178-47.626-39.809-31.769-83.431-51.69-128.827-58.83-8.527-1.341-47.658-2.479-54.187-1.576m-147.285 67.03c-5.677 4.062-32.574 31.422-41.82 42.54-11.589 13.934-24.301 31.195-27.023 36.693-2.063 4.164-2.325 5.655-2.325 13.227 0 7.942.194 8.917 2.794 14.08 3.099 6.152 13.846 21.489 24.936 35.587 9.377 11.92 37.926 40.572 49.792 49.973 67.894 53.787 143.942 71.836 220.257 52.277 14.087-3.61 16.156-4.511 16.538-7.203.239-1.691-3.881-6.224-23.894-26.286-13.301-13.333-24.811-24.592-25.578-25.019-.89-.496-3.831-.294-8.107.555-14.249 2.831-33.607 1.418-48.095-3.51-32.769-11.145-57.708-40.048-63.604-73.713-1.572-8.977-1.567-25.736.011-34.591.729-4.093.908-7.288.454-8.106-1.225-2.206-68.672-69.191-69.667-69.191-.503 0-2.604 1.209-4.669 2.687m175.872 30.288c0 2.043 51.939 54.065 53.978 54.065 2.482 0 1.431-6.656-2.663-16.857-7.527-18.753-28.09-35.321-47.442-38.223-3.421-.513-3.873-.394-3.873 1.015m-70.463 70.561c-.616 1.605 1.045 8.482 3.633 15.039 4.65 11.783 15.24 24.209 26.417 30.999 5.169 3.14 19.108 8.293 22.432 8.293 5.073 0 2.878-2.72-23.49-29.098-14.497-14.503-26.853-26.369-27.457-26.369-.605 0-1.295.511-1.535 1.136" fill-rule="evenodd"/></svg>