<svg xmlns="http://www.w3.org/2000/svg" width="512" height="512"><path d="M400.302 33.7c-7.473 1.685-18.215 7.207-24.608 12.652-3.674 3.129-13.99 15.729-33.357 40.739-16.985 21.936-29.102 36.831-30.738 37.787-1.486.868-4.928 1.78-7.649 2.027-4.946.448-4.949.447-9.801-3.799-18.62-16.294-45.395-16.229-63.478.153-16.697 15.127-20.888 37.149-10.922 57.396 2.242 4.554 5.216 8.425 11.474 14.933l8.448 8.785-92.877 93.014L53.918 390.4l-3.829 8.107c-6.276 13.289-12.723 35.368-16.773 57.444-1.706 9.301-1.366 12.616 1.765 17.185 4.413 6.44 9.918 7.807 22.074 5.48 22.503-4.306 43.255-10.45 56.338-16.68l8.107-3.861 93.013-92.873 93.014-92.873 8.785 8.448c6.508 6.258 10.379 9.232 14.933 11.474 20.1 9.893 41.975 5.806 57.254-10.697 5.237-5.656 10.055-14.836 11.532-21.969 3.013-14.558-1.071-30.37-10.575-40.941-3.815-4.243-3.986-4.655-3.963-9.512.044-9.179-.381-8.754 39.94-40.036 37.351-28.979 41.261-32.519 46.794-42.376 9.086-16.184 9.965-39.168 2.159-56.385-7.379-16.275-22.174-29.587-39.049-35.137-5.515-1.814-8.585-2.23-18.157-2.456-7.854-.186-13.257.119-16.978.958m21.25 31.154c6.43 1.22 11.646 4.048 16.596 8.998 4.958 4.958 7.765 10.143 9.037 16.693 1.868 9.624-1.583 21.051-8.257 27.338-1.816 1.711-18.085 14.519-36.155 28.464-18.069 13.944-34.226 26.669-35.903 28.277-1.678 1.608-4.366 5.013-5.974 7.567l-2.923 4.643-16.342-16.311-16.343-16.312 4.823-3.233c6.873-4.608 8.233-6.203 35.958-42.178 13.745-17.835 26.186-33.717 27.648-35.293 7.146-7.711 16.868-10.732 27.835-8.653m-152.07 79.731c2.785 1.48 96.877 95.696 98.216 98.346 1.444 2.857 1.138 10.546-.553 13.862-2.335 4.58-7.118 7.917-12.025 8.388-8.503.817-6.993 2.087-57.964-48.752-31.207-31.127-47.735-48.216-48.853-50.512-3.882-7.971-.139-18.474 7.697-21.598 3.198-1.275 10.868-1.124 13.482.266m-75.126 195.574-90.676 90.564-5.725 1.503c-9.114 2.391-14.7.647-18.005-5.62-1.888-3.582-1.406-10.202 1.171-16.085 1.367-3.121 19.782-21.984 91.489-93.716l89.777-89.808 11.323 11.299 11.323 11.299-90.677 90.564" fill-rule="evenodd"/></svg>