<svg xmlns="http://www.w3.org/2000/svg" width="512" height="512"><path d="M405.31 32.419c-6.479 1.033-11.994 2.981-20.03 7.076-6.475 3.299-8.96 5.602-48.232 44.695l-41.406 41.218-16.774-16.774-16.773-16.774-8.381 7.736c-4.609 4.254-20.05 19.529-34.313 33.945l-25.932 26.209 22.089 22.101 22.088 22.101L134.6 307 31.554 410.049l.223 34.975L32 480l34.976.223 34.975.223L205 377.4l103.048-103.046 21.556 21.543c11.855 11.849 21.938 21.543 22.406 21.543.468 0 16.015-15.167 34.548-33.705l33.697-33.704-17.043-17.059-17.042-17.058 40.964-41.184c44.375-44.612 45.265-45.674 49.532-59.103 4.228-13.304 4.258-25.887.095-38.969-3.341-10.501-7.631-17.314-16.3-25.885-8.78-8.68-17.032-13.601-27.821-16.589-7.315-2.025-20.397-2.87-27.33-1.765M273.071 239.364l12.356 12.378-20.26 20.259-20.259 20.26-12.582-12.582-12.582-12.582 20.041-20.055c11.023-11.031 20.241-20.055 20.486-20.055.244 0 6.004 5.57 12.8 12.377" fill-rule="evenodd"/></svg>