<svg xmlns="http://www.w3.org/2000/svg" width="512" height="512"><path d="M402.493 24.764c-25.57 8.793-29.275 10.452-31.737 14.209-.81 1.237-4.594 14.574-8.408 29.638L355.413 96l-68.266.427c-62.907.393-68.481.544-70.996 1.919-7.184 3.928-9.93 13.053-6.229 20.698 2.409 4.976 7.117 8.217 12.72 8.756l4.147.398.581 5.136c1.009 8.919 3.522 10.879 13.95 10.88 16.803.003 43.284 4.992 58.411 11.005 19.491 7.748 33.975 17.101 47.629 30.754 17.163 17.163 28.108 36.786 33.251 59.613.923 4.097 1.546 4.941 6.683 9.052 14.802 11.845 23.53 25.761 27.04 43.113 2.143 10.59 1.393 26.162-1.723 35.819-2.541 7.874-2.514 9.033.448 19.283 1.753 6.063 1.974 8.64 1.977 23.04.003 14.783-.193 16.938-2.212 24.422-6.532 24.202-22.491 44.859-42.477 54.981-6.773 3.43-7.237 3.974-12.291 14.394-2.522 5.201-6.759 12.482-9.416 16.18-2.656 3.697-4.71 7.345-4.563 8.106.238 1.238 3.274 1.408 28.775 1.609 23.324.184 29.452-.012 33.695-1.081 16.299-4.104 29.661-16.668 34.584-32.518 1.171-3.77 6.426-50.74 18.965-169.512l17.344-164.297 4.032-.388c15.552-1.496 19.65-22.58 5.766-29.664-3.207-1.635-5.087-1.698-50.724-1.698-44.577 0-47.393-.089-47.372-1.494.023-1.64 8.163-34.321 8.641-34.697.163-.129 9.321-3.25 20.35-6.937 18.347-6.132 20.355-6.998 23.594-10.176 4.532-4.445 6.073-9.433 4.623-14.963-1.141-4.35-5.134-9.023-9.203-10.768-5.192-2.228-9.248-1.365-34.654 7.372M149.537 176.745c-37.599 3.093-68.664 19.511-85.881 45.388-8.341 12.535-13.055 25.806-15.112 42.546l-1.007 8.192-3.502 1.032c-8.486 2.5-19.405 11.503-23.354 19.255-2.647 5.195-4.468 12.181-4.468 17.136 0 3.516.447 5.01 2.059 6.885l2.059 2.394 47.221.427c56.28.509 50.327-.769 65.466 14.05 5.53 5.414 10.564 9.843 11.186 9.843.622 0 5.583-4.374 11.024-9.719 5.44-5.346 11.62-10.626 13.732-11.734l3.84-2.013L276.341 320l103.54-.427 2.06-2.394c2.454-2.853 2.689-7.2.786-14.507-3.486-13.384-12.678-23.565-25.607-28.362-2.347-.87-4.549-1.986-4.894-2.48-.344-.493-.632-2.687-.64-4.875-.029-8.922-4.328-24.782-9.515-35.099-8.776-17.459-23.242-31.621-42.231-41.342-15.901-8.141-30.901-12.21-51.004-13.837-12.828-1.038-86.47-.988-99.299.068m-124.4 177.271c-3.339 2.036-7.04 6.444-7.857 9.356-.352 1.255-.622 7.465-.599 13.801.038 10.632.244 12.097 2.675 18.997 3.569 10.131 7.245 15.926 14.452 22.789 7.19 6.846 14.729 10.837 23.026 12.192 3.237.529 5.977 1.011 6.088 1.072.111.06 1.122 3.736 2.246 8.167 3.871 15.258 10.856 27.433 21.345 37.202 7.827 7.29 14.902 11.494 25.274 15.015l8.106 2.753H280.32l7.972-2.783c15.197-5.307 26.549-13.749 34.973-26.009 4.559-6.636 9.403-17.614 11.581-26.248l2.045-8.107 4.077-.59c18.986-2.751 34.051-16.95 40.568-38.236 1.543-5.04 1.968-8.486 1.998-16.214.049-12.244-.621-15.447-4.043-19.345-5.031-5.731 1.231-5.401-102.688-5.401H182.35l-13.735 13.527c-15.492 15.258-18.266 16.947-26.446 16.103-2.525-.261-5.882-1.137-7.46-1.948-1.578-.811-8.846-7.371-16.151-14.578l-13.281-13.104-38.772.003c-36.26.003-38.94.106-41.368 1.586" fill-rule="evenodd"/></svg>