<svg xmlns="http://www.w3.org/2000/svg" width="512" height="512"><path d="M400.765 26.013C384.408 31.327 370.721 36 370.35 36.397c-.371.398-3.822 13.776-7.67 29.73-3.847 15.954-7.175 29.298-7.395 29.654-.219.355-33.4.646-73.735.646h-73.337V128H226.788l.562 5.76c.309 3.168.768 6.816 1.02 8.107l.459 2.346 9.532.001c19.73.003 45.166 4.564 61.37 11.005 19.491 7.748 33.975 17.101 47.629 30.754 17.316 17.317 28.149 36.843 33.254 59.943.986 4.461 1.437 5.101 5.627 7.987 9.752 6.716 19.584 19.36 24.54 31.557 6.164 15.168 6.403 36.347.583 51.662l-1.71 4.5 1.71 5.189c4.958 15.041 5.54 37.563 1.384 53.504-6.439 24.7-22.405 44.945-43.953 55.732-5.038 2.522-6.429 3.655-7.194 5.86-2.847 8.197-10.117 20.519-18.624 31.564l-1.831 2.377 42.12-.244c41.48-.24 42.174-.272 45.615-2.114 5.078-2.717 8.571-7.159 10.43-13.262 1.176-3.861 6.703-53.569 19.879-178.787l18.25-173.439 9.173-.001 9.174-.001V96.427h-53.334c-50.233 0-53.332-.087-53.311-1.494.024-1.642 8.164-34.323 8.641-34.694.163-.127 10.199-3.611 22.301-7.742 12.103-4.131 21.895-7.769 21.76-8.085-.134-.315-2.356-6.789-4.937-14.386-2.581-7.597-5.077-13.782-5.547-13.744-.469.038-14.237 4.417-30.595 9.731M149.537 176.745c-37.599 3.093-68.664 19.511-85.881 45.388-8.341 12.535-13.055 25.806-15.112 42.546l-1.007 8.192-3.502 1.032c-5.764 1.698-11.867 5.639-16.894 10.909-7.761 8.137-10.928 16.276-10.928 28.09V320h88.766l19.155 14.108 19.156 14.108 19.398-14.108L182.086 320H384v-6.221c0-18.293-10.21-33.284-26.88-39.469-2.347-.87-4.549-1.986-4.894-2.48-.344-.493-.632-2.687-.64-4.875-.029-8.922-4.328-24.782-9.515-35.099-8.776-17.459-23.242-31.621-42.231-41.342-15.901-8.141-30.901-12.21-51.004-13.837-12.828-1.038-86.47-.988-99.299.068M16.376 370.56c.324 17.683.398 18.319 2.973 25.61 3.582 10.139 7.256 15.931 14.459 22.789 7.19 6.846 14.729 10.837 23.026 12.192 3.237.529 5.977 1.011 6.088 1.072.111.06 1.122 3.736 2.246 8.167 3.871 15.258 10.856 27.433 21.345 37.202 7.827 7.29 14.902 11.494 25.274 15.015l8.106 2.753H280.32l7.972-2.783c15.197-5.307 26.549-13.749 34.973-26.009 4.552-6.626 9.402-17.609 11.573-26.211l2.037-8.069 6.179-1.041c17.297-2.915 31.872-17.108 38.441-37.434 1.681-5.201 1.979-8.262 2.304-23.68l.373-17.706-100.139.001h-100.14l-20.013 17.066c-11.008 9.386-20.242 17.066-20.52 17.066-.278 0-9.512-7.68-20.52-17.066l-20.013-17.066H59.435l-43.391-.001.332 18.133" fill-rule="evenodd"/></svg>