<svg xmlns="http://www.w3.org/2000/svg" width="512" height="512"><path d="M234.24 17.538c-38.773 5.22-72.817 22.58-99.962 50.975-48.291 50.512-59.977 125.668-29.353 188.767 13.308 27.418 34.347 51.192 60.195 68.018 18.401 11.977 43.232 21.458 64.427 24.598 3.52.522 7.264 1.12 8.32 1.329l1.92.381v48.607h-22.558c-13.864 0-23.484.35-24.96.908-5.303 2.004-10.472 9.347-10.472 14.879s5.169 12.875 10.472 14.879c1.476.558 11.096.908 24.96.908h22.558l.018 25.386c.017 22.889.175 25.723 1.599 28.8 6.114 13.204 23.078 13.204 29.192 0 1.424-3.077 1.582-5.911 1.599-28.8l.018-25.386h22.558c13.864 0 23.484-.35 24.96-.908 5.303-2.004 10.472-9.347 10.472-14.879s-5.169-12.875-10.472-14.879c-1.476-.558-11.096-.908-24.96-.908h-22.558v-48.607l1.92-.381c1.056-.209 4.8-.807 8.32-1.329 21.287-3.154 46.416-12.809 65.045-24.991 25.281-16.533 46.392-40.498 59.571-67.625 21.76-44.787 22.54-95.71 2.177-142.08-20.383-46.414-64.64-82.996-114.419-94.575-18.481-4.299-42.496-5.522-60.587-3.087m40.96 32.08c49.241 6.525 91.905 41.402 108.822 88.96 13.505 37.963 8.886 82.689-11.994 116.154-14.693 23.548-36.087 42.436-60.135 53.093-46.5 20.605-98.328 14.594-138.666-16.084-7.397-5.626-20.203-18.503-25.783-25.928-11.809-15.713-20.36-34.725-24.564-54.613-2.332-11.034-3.201-32.385-1.763-43.308 4.266-32.382 18.423-60.581 41.349-82.359C192.747 56.77 232.823 44.002 275.2 49.618" fill-rule="evenodd"/></svg>