<svg xmlns="http://www.w3.org/2000/svg" width="512" height="512"><path d="M236.373 17.171c-30.901 3.557-62.481 16.47-87.006 35.579-34.992 27.264-57.682 65.628-65.451 110.663-2.236 12.96-2.018 41.863.415 55.24 5.324 29.261 16.517 54.78 34.161 77.88 6.139 8.039 20.243 22.241 29.254 29.459 21.735 17.409 50.302 30.519 76.254 34.994 2.816.486 6.176 1.093 7.467 1.35l2.346.466v31.438l-20.266.008c-19.435.008-20.442.09-24.534 2-5.615 2.62-10.23 7.839-11.898 13.456-1.661 5.593-1.658 6.998.032 12.754 1.69 5.758 8.301 12.649 13.672 14.253 2.336.698 10.103 1.049 23.199 1.049h19.687l.268 21.12c.305 24.083.559 25.106 7.861 31.533 8.762 7.712 20.7 7.301 29.232-1.008 6.507-6.337 7.121-9.148 7.121-32.6V437.76h19.741c13.138 0 20.915-.351 23.253-1.049 5.371-1.604 11.982-8.495 13.672-14.253 1.69-5.756 1.693-7.161.032-12.754-1.668-5.617-6.283-10.836-11.898-13.456-4.092-1.91-5.099-1.992-24.534-2l-20.266-.008v-31.438l2.346-.466c1.291-.257 4.651-.864 7.467-1.35 25.952-4.475 54.519-17.585 76.254-34.994 9.011-7.218 23.115-21.42 29.254-29.459 41.268-54.032 48.024-125.699 17.469-185.318-26.883-52.453-77.841-87.56-136.63-94.129-9.018-1.008-28.862-.963-37.974.085m37.974 44.364c37.096 4.746 72.338 27.929 92.607 60.918 7.422 12.082 13.316 27.261 16.732 43.094 2.39 11.077 2.212 39.165-.32 50.502-5.915 26.485-16.909 46.525-35.998 65.613-15.947 15.947-31.685 25.666-52.146 32.202-14.365 4.589-21.781 5.659-39.222 5.659-17.441 0-24.857-1.07-39.222-5.659-20.461-6.536-36.199-16.255-52.146-32.202-18.998-18.998-30.236-39.423-35.859-65.176-2.183-9.995-3.053-30.619-1.756-41.619 7.217-61.194 57.173-109.421 118.316-114.222 9.356-.735 18.51-.454 29.014.89" fill-rule="evenodd"/></svg>