<svg xmlns="http://www.w3.org/2000/svg" width="512" height="512"><path d="M114.549 17.152c-12.716 2.143-23.641 7.81-32.74 16.982C70.514 45.52 70.22 46.327 49.706 122.453L32 188.16l.033 54.613c.032 53.284.078 54.774 1.873 61.181 1.012 3.611 3.002 8.908 4.423 11.771l2.582 5.204-3.722 3.589c-5.778 5.57-5.781 5.611-5.413 65.234.31 50.127.383 52.07 2.18 58.551 3.085 11.119 8.05 19.462 16.817 28.258 8.598 8.626 15.39 12.997 25.6 16.474l6.827 2.325h345.6l6.827-2.325c10.21-3.477 17.002-7.848 25.6-16.474 8.771-8.801 13.739-17.152 16.81-28.258 1.789-6.47 1.865-8.505 2.186-58.527.381-59.627.377-59.677-5.412-65.258l-3.722-3.589 2.582-5.204c1.421-2.863 3.409-8.16 4.42-11.771 1.79-6.4 1.838-7.946 1.873-60.754l.036-54.187-16.501-61.866c-9.075-34.027-17.598-65.269-18.939-69.427-3.229-10.011-6.753-15.763-14.48-23.632-7.314-7.448-14.863-12.034-25.163-15.288l-6.837-2.16-139.52-.122c-77.857-.069-141.505.212-144.011.634m281.939 32.652c6.198 2.251 12.101 7.055 14.984 12.194 1.774 3.163 6.42 19.218 16.544 57.173 7.743 29.027 14.296 53.64 14.563 54.696l.486 1.92-63.026.018c-59.45.018-63.219.109-66.439 1.595-6.399 2.953-9.804 8.668-9.826 16.493-.033 11.641-4.901 22.656-14.063 31.818-9.73 9.731-20.137 14.076-33.711 14.076-13.574 0-23.981-4.345-33.711-14.076-9.162-9.162-14.03-20.177-14.063-31.818-.022-7.825-3.427-13.54-9.826-16.493-3.22-1.486-6.989-1.577-66.439-1.595l-63.026-.018.482-1.92c.266-1.056 6.822-25.659 14.571-54.673 15.249-57.1 16.202-59.782 22.994-64.72 4.79-3.482 8.554-4.975 14.618-5.799 2.816-.382 64.832-.643 137.813-.578 127.184.111 132.876.182 137.075 1.707m-217.3 163.956c3.804 13.503 10.248 24.409 20.445 34.607 15.573 15.572 34.268 23.3 56.367 23.3 22.099 0 40.794-7.728 56.367-23.3 10.197-10.198 16.641-21.104 20.445-34.607l1.442-5.12 56.916-.219 56.916-.22-.256 43.74-.257 43.739-2.3 4.909c-3.219 6.868-9.777 13.527-16.283 16.532l-5.31 2.452H88.32l-5.12-2.388c-6.72-3.134-13.32-9.706-16.366-16.296l-2.407-5.209-.257-43.739-.256-43.74 56.916.22 56.916.219 1.442 5.12m-1.332 139.733c5.865 20.208 14.506 33.924 28.189 44.744 29.678 23.467 70.793 23.422 100.03-.111 13.851-11.149 22.208-24.437 28.069-44.633.243-.839 12.398-1.066 57.083-1.066H448v40.25c0 25.82-.342 42.213-.954 45.726-1.75 10.052-10.719 20.349-20.806 23.887-4.011 1.407-14.244 1.497-170.667 1.497h-166.4l-4.973-2.006c-5.719-2.308-13.839-9.695-16.556-15.063-3.35-6.617-3.644-10.927-3.644-53.373v-40.918h56.773c44.685 0 56.84.227 57.083 1.066m122.101 2.026c-2.225 5.326-8.926 13.913-13.955 17.884-12.25 9.673-27.119 12.792-42.379 8.889-7.23-1.849-11.441-4.01-18.156-9.318-4.593-3.63-11.283-12.329-13.424-17.455l-1.293-3.092h90.5l-1.293 3.092" fill-rule="evenodd"/></svg>