<svg xmlns="http://www.w3.org/2000/svg" width="512" height="512"><path d="M114.654 65.251c-7.841 1.434-11.404 2.613-18.267 6.043-13.523 6.759-23.692 18.764-29.043 34.284-.935 2.711-9.39 41.408-18.79 85.993l-17.091 81.065.345 60.589c.247 43.308.636 61.684 1.366 64.428 6.808 25.617 25.495 43.946 50.026 49.07 8.98 1.875 336.62 1.875 345.6 0 24.531-5.124 43.218-23.453 50.026-49.07.73-2.745 1.118-21.107 1.362-64.426l.341-60.587-17.085-81.067c-9.396-44.586-17.847-83.276-18.779-85.976-6.858-19.867-21.298-33.484-41.647-39.275l-6.645-1.891-137.813-.147c-110.238-.118-139.032.075-143.906.967M400.282 99.6c6.345 3.124 11.634 9.291 13.948 16.267 1.328 4.003 29.503 136.672 29.503 138.923 0 .99-10.35 1.215-64.703 1.408l-64.703.229-2.968 2.034c-5.128 3.514-6.774 7-7.643 16.186-1.011 10.684-3.313 17.375-8.54 24.818-11.725 16.696-31.561 23.94-51.553 18.827-10.806-2.763-19.83-9.025-26.521-18.401-5.38-7.54-7.964-14.936-8.873-25.4-.649-7.469-1.021-8.807-3.198-11.497-1.355-1.674-3.525-3.836-4.823-4.805-2.329-1.74-3.193-1.765-67.15-1.991-54.362-.193-64.791-.419-64.791-1.405 0-2.92 28.527-136.238 29.988-140.145 1.858-4.971 6.991-11.231 11.486-14.009 6.93-4.283.823-4.12 147.557-3.947l137.405.161 5.579 2.747M177.856 289.493c5.865 20.208 14.506 33.924 28.189 44.744 29.678 23.467 70.793 23.422 100.03-.111 13.851-11.149 22.208-24.437 28.069-44.633.243-.839 12.405-1.066 57.12-1.066h56.811l-.266 51.413c-.29 56.247-.035 53.431-5.602 61.916-3.555 5.418-8.848 9.641-15.41 12.294l-4.824 1.95H90.027l-4.824-1.95c-6.562-2.653-11.855-6.876-15.41-12.294-5.567-8.485-5.312-5.669-5.602-61.916l-.266-51.413h56.811c44.715 0 56.877.227 57.12 1.066" fill-rule="evenodd"/></svg>