<svg xmlns="http://www.w3.org/2000/svg" width="512" height="512"><path d="M63.65 66.347c-.267 1.29-7.594 45.06-16.281 97.265l-15.796 94.919V448h448.854V258.531l-15.796-94.919c-8.687-52.205-16.014-95.975-16.281-97.265L447.864 64H64.136l-.486 2.347m350.628 42.24c.269 1.525 5.079 34.261 10.688 72.746 5.609 38.486 10.389 71.03 10.622 72.32l.423 2.347H320v2.466c0 6.039-2.871 17.133-6.319 24.414-7.063 14.919-18.801 26.306-33.127 32.136-32.182 13.096-67.491-.709-82.192-32.136-3.978-8.505-5.138-12.578-6.01-21.12l-.588-5.76H75.989l.425-2.347c.234-1.29 5.033-34.026 10.666-72.746 5.632-38.72 10.454-71.456 10.715-72.747l.474-2.347h315.52l.489 2.774" fill-rule="evenodd"/></svg>