<svg xmlns="http://www.w3.org/2000/svg" width="512" height="512"><path d="M63.572 18.133c-.254 1.056-7.557 37.434-16.23 80.841l-15.769 78.92V320h448.854V177.894l-15.769-78.92c-8.673-43.407-15.976-79.785-16.23-80.841l-.461-1.92H64.033l-.461 1.92m350.712 41.814c.247 1.056 5.047 26.688 10.666 56.96 5.619 30.272 10.424 55.904 10.676 56.96l.46 1.92h-115.85l-.584 5.76c-2.698 26.64-20.026 47.788-45.732 55.815-5.383 1.681-8.23 1.998-17.92 1.998-9.703 0-12.525-.315-17.89-2-25.844-8.116-43.057-29.109-45.762-55.813l-.584-5.76H75.914l.46-1.92c.252-1.056 5.057-26.688 10.676-56.96 5.619-30.272 10.419-55.904 10.666-56.96l.45-1.92h315.668l.45 1.92M31.573 424.107v71.68h448.854v-143.36H320.199l-.603 5.626c-2.736 25.552-19.928 47.115-43.544 54.614-39.441 12.525-79.241-13.461-83.648-54.614l-.603-5.626H31.573v71.68" fill-rule="evenodd"/></svg>