<svg xmlns="http://www.w3.org/2000/svg" width="512" height="512"><path d="M114.549 17.161c-12.67 2.111-23.635 7.795-32.74 16.973-11.404 11.496-11.573 11.967-32.321 89.947l-17.915 67.335v24.421c0 13.432.4 27.675.889 31.652 3.819 31.094 23.787 59.927 48.297 69.74l5.854 2.344h338.774l5.854-2.344c22.201-8.888 40.357-32.746 47.245-62.082.985-4.196 1.393-12.616 1.674-34.56l.372-29.014-17.968-67.413c-15.525-58.25-18.483-68.457-21.756-75.093-8.197-16.615-22.274-27.334-41.021-31.234-7.331-1.524-13.898-1.593-144.214-1.509-75.093.049-138.554.425-141.024.837M391.07 48.658c6.761.977 12.734 3.792 16.551 7.799 2.94 3.087 6.607 9.846 7.565 13.943.329 1.408 6.503 24.786 13.719 51.951 7.217 27.165 13.122 50.301 13.122 51.413v2.023l-61.227.02c-33.675.011-62.733.37-64.574.797-6.473 1.501-11.183 6.83-11.966 13.539-2.111 18.079-5.6 26.65-14.437 35.467-23.185 23.13-62.068 16.83-76.389-12.377-3.344-6.82-4.199-10.286-5.694-23.09-.783-6.709-5.493-12.038-11.966-13.539-1.841-.427-30.899-.786-64.574-.797l-61.227-.02v-2.01c0-1.105 5.952-24.368 13.227-51.695 7.275-27.328 13.227-50.18 13.227-50.783 0-2.492 6.25-13.339 9.156-15.89 3.921-3.443 9.526-5.955 15.117-6.776 6.682-.981 263.575-.958 270.37.025M41.387 353.42c-2.751 1.518-6.443 5.208-7.97 7.967-1.236 2.233-1.451 6.691-1.682 34.986-.153 18.756.111 35.899.627 40.662 1.809 16.695 7.158 28.206 18.411 39.619 7.721 7.83 15.445 12.752 25.6 16.312l6.827 2.394h345.6l6.827-2.394c10.155-3.56 17.879-8.482 25.6-16.312 11.253-11.413 16.602-22.924 18.411-39.619.516-4.763.78-21.906.627-40.662-.231-28.295-.446-32.753-1.682-34.986-1.873-3.383-5.687-6.927-8.665-8.053-1.632-.616-26.824-.907-78.553-.907h-76.151l-3.855 2.445c-4.976 3.155-6.808 7.083-7.672 16.45-1.213 13.14-5.886 22.911-15.086 31.545-9.222 8.654-19.969 12.91-32.601 12.91-12.632 0-23.379-4.256-32.601-12.91-9.2-8.634-13.873-18.405-15.086-31.545-.864-9.367-2.696-13.295-7.672-16.45l-3.855-2.445-76.846.026c-54.389.018-77.345.301-78.553.967" fill-rule="evenodd"/></svg>