<svg xmlns="http://www.w3.org/2000/svg" width="512" height="512"><path d="M114.654 65.26c-7.826 1.42-11.392 2.598-18.267 6.034-14.215 7.105-24.842 20.201-29.743 36.653-.979 3.285-9.27 41.551-18.425 85.035l-16.646 79.061.007 55.339c.004 31.373.378 58.569.862 62.799 3.081 26.891 19.97 47.189 46.086 55.39l6.379 2.002h342.186l6.379-2.002c26.116-8.201 43.005-28.499 46.086-55.39.484-4.229.858-31.408.862-62.745l.007-55.285-17.124-81.211c-11.596-54.993-17.94-83.328-19.654-87.772-7.963-20.648-24.332-34.012-46.367-37.855-6.579-1.147-24.549-1.303-142.034-1.236-106.164.061-135.785.31-140.594 1.183m285.714 33.974c9.759 4.793 12.994 10.765 17.692 32.668 11.364 52.982 24.82 117.952 24.82 119.842 0 1.215-.461 2.669-1.024 3.232-.778.778-15.878 1.024-62.747 1.024-66.704 0-65.057-.106-70.09 4.521-3.03 2.786-5.191 8.148-5.226 12.972-.126 17.079-11.68 34.471-27.881 41.967-5.191 2.402-14.5 4.51-19.912 4.51-25.17 0-47.612-21.823-47.793-46.477-.035-4.824-2.196-10.186-5.226-12.972-5.033-4.627-3.386-4.521-70.09-4.521-46.869 0-61.969-.246-62.747-1.024-.563-.563-1.024-2.014-1.024-3.224 0-1.21 6.327-32.232 14.059-68.937 14.631-69.45 15.218-71.649 20.847-78.059 2.581-2.94 8.749-6.446 13.256-7.536 1.436-.347 64.627-.572 140.425-.499l137.813.132 4.848 2.381m-262.562 30.357c-14.171 6.438-12.152 26.654 2.986 29.901 6.123 1.313 224.293 1.313 230.416 0 15.138-3.247 17.157-23.463 2.986-29.901-3.254-1.478-9.001-1.554-118.194-1.554s-114.94.076-118.194 1.554m-16.241 64.013c-7.052 3.203-10.93 10.774-9.074 17.712 1.425 5.328 3.197 7.703 7.737 10.372L124.16 224h263.68l3.932-2.312c4.54-2.669 6.312-5.044 7.737-10.372 1.856-6.938-2.022-14.509-9.074-17.712-3.298-1.498-9.176-1.567-134.435-1.567s-131.137.069-134.435 1.567" fill-rule="evenodd"/></svg>