<svg xmlns="http://www.w3.org/2000/svg" width="512" height="512"><path d="M65.088 81.527c-14.842 3.997-26.615 15.224-31.177 29.731L32 117.333v277.334l1.885 5.973c4.465 14.156 14.937 24.68 28.998 29.145l6.302 2.002h373.63l6.302-2.002c14.061-4.465 24.533-14.989 28.998-29.145l1.885-5.973V117.333l-1.911-6.075c-4.62-14.689-16.43-25.838-31.542-29.774-7.138-1.859-374.551-1.818-381.459.043m41.02 32.226c5.139 3.372 5.672 5.473 5.672 22.354 0 13.732-.176 15.649-1.665 18.092-3.16 5.182-5.532 5.801-22.222 5.801-13.401 0-15.23-.175-17.823-1.707-5.335-3.15-6.07-5.811-6.07-21.987 0-15.825.655-18.784 4.81-21.733 3.601-2.556 4.534-2.67 20.404-2.508 12.422.127 14.89.373 16.894 1.688m336.655.507c4.614 3.291 5.237 5.914 5.237 22.046 0 16.176-.735 18.837-6.07 21.987-2.593 1.532-4.422 1.707-17.823 1.707-16.69 0-19.062-.619-22.222-5.801-1.487-2.439-1.666-4.362-1.668-17.921-.004-15.912.397-18.006 4.084-21.343 2.913-2.636 6.12-3.077 21.086-2.896 13.801.166 14.646.274 17.376 2.221m-337.155 79.442c5.58 3.402 6.172 5.517 6.175 22.062.004 16.686-.649 19.292-5.605 22.355-2.685 1.658-3.902 1.755-19.056 1.506l-16.188-.265-2.551-2.447c-4.178-4.006-4.52-5.795-4.226-22.126.244-13.572.437-15.215 2.037-17.394 3.483-4.742 6.145-5.391 22.126-5.388 12.971.001 14.801.181 17.288 1.697m335.505-.207c5.951 3.034 6.429 4.546 6.73 21.292.294 16.331-.048 18.12-4.226 22.126l-2.552 2.447-16.372.238c-14.88.217-16.613.09-19.001-1.392-4.965-3.081-5.616-5.961-5.318-23.532.292-17.229.359-17.454 6.239-21.086 2.229-1.377 4.436-1.582 17.067-1.583 12.129-.002 14.986.242 17.433 1.49M360.87 241.92c1.592.939 4.088 3.182 5.546 4.986 2.385 2.951 2.651 3.862 2.651 9.094 0 5.202-.276 6.161-2.61 9.094-1.435 1.804-4.3 4.143-6.367 5.199l-3.758 1.92H155.668l-3.758-1.92c-2.067-1.056-4.932-3.395-6.367-5.199-2.328-2.925-2.61-3.9-2.61-9.026 0-4.988.318-6.164 2.404-8.899 2.847-3.732 5.589-5.657 9.351-6.562 1.514-.365 47.872-.602 103.019-.528 98.607.132 100.314.163 103.163 1.841m-255.109 31.853c5.33 2.858 6.026 5.438 6.022 22.32-.002 13.409-.177 15.233-1.698 17.728-3.39 5.56-5.548 6.172-21.765 6.174-15.981.003-18.643-.646-22.126-5.388-1.595-2.171-1.794-3.829-2.039-16.991-.149-8.022-.053-15.454.214-16.515.629-2.509 4.548-7.144 6.815-8.061.977-.395 8.502-.743 16.723-.773 12.913-.046 15.342.158 17.854 1.506m336.06.142c5.56 3.39 6.172 5.548 6.174 21.765.003 15.983-.646 18.645-5.391 22.126-2.241 1.644-3.564 1.767-18.972 1.767h-16.564l-3.214-3.212-3.214-3.212-.266-16.251c-.242-14.816-.121-16.479 1.37-18.834 3.442-5.436 4.955-5.839 21.936-5.842 13.827-.002 15.637.167 18.141 1.693m-335.928 79.833c5.266 2.723 5.887 5.065 5.89 22.232.004 14.642-.097 15.599-1.933 18.347-3.6 5.388-5.951 5.971-22.964 5.7-13.699-.218-15.308-.403-17.493-2.008-4.733-3.476-5.39-6.157-5.392-21.997-.002-23.055.533-23.587 23.721-23.592 12.434-.003 16.137.266 18.171 1.318m336.582.399c4.839 2.99 5.525 5.709 5.524 21.875-.002 15.84-.659 18.521-5.392 21.997-2.185 1.605-3.794 1.79-17.493 2.008-17.013.271-19.364-.312-22.964-5.7-1.833-2.745-1.937-3.714-1.937-18.176 0-17.001.508-19.085 5.375-22.052 2.447-1.492 4.366-1.666 18.418-1.669 14.241-.003 15.942.155 18.469 1.717" fill-rule="evenodd"/></svg>