<svg xmlns="http://www.w3.org/2000/svg" width="512" height="512"><path d="M31.573 256v175.787h448.854V80.213H31.573V256m80.214-119.893v24.32H64v-48.64h47.787v24.32m336.213 0v24.32h-47.787v-48.64H448v24.32m-336.213 79.786v23.894H64V192h47.787v23.893m336.213 0v23.894h-47.787V192H448v23.893M367.787 256v16.213H144.213v-32.426h223.574V256m-256 40.107V320H64v-47.787h47.787v23.894m336.213 0V320h-47.787v-47.787H448v23.894M111.787 376.32v23.893H64v-47.786h47.787v23.893m336.213 0v23.893h-47.787v-47.786H448v23.893" fill-rule="evenodd"/></svg>