<svg xmlns="http://www.w3.org/2000/svg" width="512" height="512"><path d="M24.89 129.831c-6.79 3.361-10.345 12.288-7.875 19.773 1.472 4.459 6.651 8.743 11.941 9.877 6.26 1.343 447.828 1.343 454.088 0 5.29-1.134 10.469-5.418 11.941-9.877 2.485-7.529-1.11-16.485-7.945-19.794l-3.739-1.81-227.357.001H28.587l-3.697 1.83m83.557 110.571c-3.752.716-8.536 4.433-10.395 8.077-3.801 7.451-1.204 16.937 5.834 21.313l3.207 1.995h297.814l3.207-1.995c10.248-6.371 10.055-21.498-.35-27.455l-3.711-2.124-146.773-.102c-80.725-.056-147.7.075-148.833.291m92.515 113.369c-3.848 2.006-5.627 3.848-7.357 7.616-1.875 4.084-2.037 8.861-.427 12.614 1.436 3.346 6.073 7.865 9.331 9.093 1.596.602 19.541.906 53.491.906s51.895-.304 53.491-.906c3.258-1.228 7.895-5.747 9.331-9.093 1.544-3.598 1.493-8.075-.135-11.971-1.693-4.053-3.489-5.992-7.4-7.987-3.005-1.534-5.823-1.616-55.466-1.611-45.761.005-52.621.172-54.859 1.339" fill-rule="evenodd"/></svg>