<svg xmlns="http://www.w3.org/2000/svg" viewBox="0 0 512 512"><path d="M241.92 48.669c-64.561 4.115-123.152 38.433-159.962 93.693-26.292 39.469-38.649 92.321-32.455 138.811 6.326 47.479 26.376 88.354 59.673 121.651 33.526 33.526 73.443 53.027 122.504 59.846 4.224.587 15.168 1.068 24.32 1.068 9.152 0 20.096-.481 24.32-1.068 49.001-6.811 88.952-26.339 122.482-59.868 33.529-33.53 53.057-73.481 59.868-122.482 1.376-9.9 1.376-38.74 0-48.64-6.778-48.766-26.328-88.904-59.45-122.057-11.819-11.831-20.651-19.077-33.662-27.617-37.561-24.655-81.952-36.249-127.638-33.337m131.642 144.652c14.779 6.174 13.168 26.601-2.379 30.183-5.284 1.218-225.082 1.218-230.366 0-15.244-3.512-17.235-23.323-3.004-29.891 3.265-1.507 8.421-1.576 118.001-1.594 101.524-.017 114.948.132 117.748 1.302m-31.592 63.992c1.727.721 3.868 1.969 4.756 2.773 4.411 3.989 6.129 12.527 3.694 18.355-1.384 3.313-6.514 8.003-9.742 8.907-3.046.852-166.31.852-169.356 0-2.934-.822-8.036-5.254-9.659-8.392-2.691-5.205-.851-14.835 3.605-18.865 4.58-4.142 1.91-4.022 90.546-4.058 72.826-.029 83.4.128 86.156 1.28m-46.93 64.497c10.142 4.909 11.662 19.167 2.836 26.593-4.238 3.566-8.998 4.024-41.876 4.024s-37.638-.458-41.876-4.024c-8.796-7.401-7.32-21.58 2.766-26.572 3.6-1.782 4.623-1.83 39.054-1.83 34.287-.001 35.47.054 39.096 1.809" fill-rule="evenodd"/></svg>