<svg xmlns="http://www.w3.org/2000/svg" width="512" height="512"><path d="M230.827 16.736c-42.801 3.291-76.124 11.269-103.254 24.721-13.85 6.867-18.837 10.469-20.955 15.133-2.049 4.513-2.049 7.747 0 12.26 2.389 5.261 7.518 8.384 13.71 8.349 4.12-.023 5.68-.545 10.726-3.59 31.391-18.937 79.208-28.642 134.333-27.263 48.223 1.205 86.755 10.092 115.194 26.566 7.922 4.589 9.447 5.055 14.206 4.341 8.232-1.234 14.25-10.306 12.076-18.202-1.435-5.21-3.658-7.424-12.558-12.507-25.344-14.476-56.355-23.663-95.212-28.207-11.361-1.329-57.679-2.415-68.266-1.601m2.986 56.382c-64.979 4.849-119.608 30.197-159.419 73.971-11.605 12.76-24.016 30.24-25.874 36.441-2.141 7.148 2.917 15.653 10.586 17.8 8.009 2.243 13.426-.718 20.001-10.934 19.576-30.413 47.936-54.45 82.089-69.575 17.526-7.762 38.39-13.446 61.951-16.876 10.447-1.521 53.425-1.506 64.853.023 34.295 4.589 62.998 14.944 89.234 32.194 20.653 13.579 36.511 29.001 53.907 52.425 7.374 9.928 9.851 12.107 15.025 13.215 9.891 2.116 19.876-8.373 17.251-18.123-1.779-6.609-18.472-28.108-33.298-42.887-39.648-39.524-89.206-62.002-148.519-67.365-8.961-.811-38.507-1.001-47.787-.309m4.977 55.74c-44.999 4.065-84.088 21.531-115.918 51.796-30.737 29.225-50.164 65.906-55.999 105.73-1.807 12.328-2.038 44.923-.43 60.496 2.762 26.742 9.624 61.996 13.282 68.238 7.028 11.993 26.283 8.211 27.593-5.42.243-2.527-.565-8.26-2.242-15.918-9.509-43.412-11.75-85.256-6.062-113.169 5.539-27.181 23.489-58.247 45.835-79.327 42.519-40.11 105.997-53.7 162.685-34.827 41.621 13.857 79.028 47.065 99.959 88.742 8.751 17.425 11.877 31.602 11.275 51.148-.343 11.135-.772 14.441-2.711 20.906-6.425 21.421-19.69 34.694-35.915 35.936-11.451.877-26.273-3.332-33.624-9.547-7.081-5.987-11.807-16.569-18.374-41.142-2.096-7.843-4.733-16.948-5.859-20.233-10.258-29.917-29.704-44.615-61.165-46.231-21.213-1.09-39.315 3.842-53.507 14.578-17.174 12.991-26.687 36.794-26.701 66.809-.01 19.855 4.2 43.052 10.268 56.58 19.543 43.572 54.326 80.916 92.704 99.531 11.786 5.717 31.298 12.253 36.581 12.253 8.925 0 15.369-6.693 15.028-15.607-.255-6.669-4.859-11.678-12.776-13.9-30.977-8.694-56.381-26.006-78.048-53.188-12.641-15.858-26.234-39.953-29.106-51.595-3.95-16.007-5.138-39.901-2.605-52.413 2.488-12.291 8.046-21.697 15.739-26.633 7.751-4.974 13.372-6.267 27.303-6.282 10.97-.013 12.949.212 17.45 1.98 11.099 4.36 17.525 14.099 23.111 35.024 7.316 27.407 11.541 38.945 17.738 48.442 12.741 19.525 30.929 29.332 58.181 31.372 34.544 2.587 63.648-21.693 73.96-61.7 3.435-13.325 4.273-33.137 2.013-47.554-5.101-32.526-24.411-67.712-52.875-96.347-31.129-31.315-70.19-51.221-112.326-57.243-11.253-1.608-33.701-2.257-44.462-1.285m-2.417 57.707c-8.255 1.005-22.316 4.09-29.292 6.427-53.636 17.965-85.811 70.728-83.954 137.675 1.112 40.114 15.832 84.576 39.692 119.893 11.02 16.311 27.397 35.166 32.354 37.247 11.443 4.805 23.959-5.625 20.704-17.253-.701-2.504-3.092-5.936-7.778-11.165-26.576-29.656-42.964-61.987-51.294-101.191-2.673-12.585-2.766-13.688-2.728-32.651.035-17.061.292-20.799 1.966-28.587 4.989-23.21 13.314-40.167 26.524-54.031 10.703-11.232 25.27-19.634 40.855-23.562 11.654-2.938 19.839-3.685 35.76-3.262 18.293.485 27.475 2.545 40.765 9.145 28.216 14.011 48.936 45.197 56.997 85.79 2.378 11.976 3.775 15.056 8.093 17.846 6.559 4.236 13.591 3.514 19.063-1.959 6.047-6.046 5.961-12.697-.462-36.018-13.7-49.74-43.795-84.784-84.629-98.547-13.751-4.634-20.657-5.632-40.876-5.906-10.325-.14-20.117-.091-21.76.109m13.16 121.4c-4.125 1.873-6.811 5.038-8.194 9.654-1.317 4.396.172 15.247 4.015 29.261 14.82 54.043 50.612 88.342 101.526 97.293 16.303 2.866 46.169 2.397 52.395-.822 5.935-3.07 9.421-10.533 7.775-16.646-.976-3.625-4.183-7.962-7.142-9.658-1.295-.741-7.803-1.068-22.308-1.119-21.833-.076-26.498-.654-40.107-4.972-26.658-8.458-46.352-28.279-58.334-58.71-2.961-7.523-6.484-20.973-7.775-29.686-1.162-7.843-3.646-11.923-8.77-14.403-4.575-2.215-8.501-2.273-13.081-.192" fill-rule="evenodd"/></svg>