<svg xmlns="http://www.w3.org/2000/svg" width="512" height="512"><path d="M234.667 16.79c-22.222 1.614-49.181 7.201-70.881 14.688-19.073 6.582-44.314 18.413-49.481 23.195-7.625 7.056-2.593 20.42 7.69 20.42 1.57 0 8.668-3.004 17.796-7.533 31.704-15.729 61.576-23.963 96.797-26.681 13.818-1.066 38.523-.629 50.985.901 30.877 3.793 56.971 11.854 86.901 26.844 14.747 7.385 17.847 7.974 22.291 4.234 3.897-3.278 5.422-6.75 4.921-11.198-.593-5.262-3.561-8.039-14.457-13.523-35.355-17.795-70.046-27.944-106.056-31.029-9.358-.802-37.221-.992-46.506-.318m-5.974 59.22c-65.823 7.165-124.188 38.39-164.962 88.257-12.074 14.766-15.518 20.367-15.518 25.243 0 6.999 5.899 12.392 12.653 11.567 4.137-.505 5.186-1.486 13.82-12.917 18.261-24.177 38.778-42.808 63.215-57.404C174.177 109.089 211.73 98.987 256 98.987c38.098 0 70.514 7.322 102.332 23.114 32.282 16.023 56.78 36.534 79.438 66.508 4.089 5.41 8.466 10.306 9.726 10.88 7.032 3.204 15.133-1.468 16.432-9.477.684-4.212-1.541-8.389-10.858-20.38-34.263-44.099-81.412-74.64-135.203-87.582-21.552-5.185-30.912-6.25-57.6-6.553-13.376-.152-27.584.079-31.574.513m13.227 56.319c-25.22 1.612-47.04 7.497-70.827 19.102-21.61 10.542-36.601 21.369-53.398 38.563-27.911 28.573-43.771 60.601-50.011 100.993-2.067 13.381-2.051 46.238.03 61.44 3.128 22.84 10.938 54.248 15.917 64.009 4.08 7.996 16.693 7.728 20.1-.427 1.763-4.219 1.581-5.864-1.803-16.278-13.082-40.26-16.517-81.079-9.681-115.042 6.11-30.353 21.904-58.687 45.256-81.188 31.65-30.497 73.507-47.341 117.644-47.341 44.582 0 85.236 16.278 117.216 46.933 27.06 25.939 44.01 59.074 48.762 95.318 1.642 12.531 1.643 26.643.002 32.944-3.742 14.367-14.645 26.292-29.125 31.854-7.837 3.011-21.141 3.74-29.335 1.608-11.698-3.042-21.911-10.274-28.476-20.162-4.757-7.164-6.546-13.32-7.476-25.734-1.651-22.026-8.237-36.571-22.769-50.279-37.742-35.604-99.702-19.631-116.44 30.018-2.717 8.058-2.735 8.227-2.689 24.753.08 28.689 5.816 52.652 18.715 78.178 9.389 18.581 19.547 32.189 35.947 48.156 16.25 15.82 31.092 26.147 49.374 34.351 11.84 5.313 30.641 11.664 34.56 11.674 8.359.022 13.594-9.392 9.74-17.513-1.83-3.856-3.721-4.937-14.998-8.574-27.565-8.888-48.007-21.675-67.775-42.394-11.458-12.01-18.783-22.502-26.35-37.744-9.881-19.905-14.093-35.025-15.985-57.395-1.826-21.571 1.476-33.032 12.823-44.515 25.713-26.02 70.982-15.02 80.656 19.599.716 2.562 1.686 9.521 2.155 15.465 1.476 18.679 7.319 32.371 19.115 44.789 39.785 41.883 109.562 22.266 121.877-34.263 1.501-6.891 1.225-27.019-.536-39.056-3.772-25.792-13.161-51.705-26.244-72.438-38.017-60.242-104.421-93.98-175.971-89.404m1.495 58.877c-51.893 5.018-95.81 40.166-111.878 89.541-4.985 15.316-5.673 20.565-5.646 43.093.026 21.864.934 30.551 5.217 49.92 8.415 38.057 29.287 75.871 59.771 108.286 7.526 8.004 7.551 8.021 12.224 8.368 3.593.267 5.296-.037 7.312-1.306 4.912-3.09 6.848-10.383 4.145-15.612-.734-1.418-4.437-5.911-8.229-9.984-23.719-25.473-41.348-55.316-49.698-84.128-6.908-23.839-9.883-55.665-6.972-74.6 6.887-44.808 42.035-80.486 87.143-88.459 10.111-1.787 29.29-1.788 38.823-.003 33.415 6.259 61.564 26.991 76.528 56.366 7.342 14.415 10.108 24.581 11.303 41.547.626 8.898.955 10.35 2.934 12.944 5.495 7.204 16.247 5.571 19.672-2.988 1.218-3.043 1.288-4.849.531-13.575-2.922-33.642-16.227-61.272-40.629-84.365-21.516-20.363-47.94-32.175-78.446-35.067-10.373-.983-13.741-.98-24.105.022m5.067 118.576c-4.51 2.749-5.592 6.489-4.987 17.232 1.579 28.037 13.14 56.38 31.464 77.14 20.384 23.094 44.584 36.465 74.03 40.904 16.829 2.536 46.416.806 52.823-3.09 7.557-4.596 7.058-16.49-.873-20.789-2.889-1.566-3.48-1.587-11.91-.427-12.315 1.696-32.598 1.528-41.522-.344-9.192-1.927-20.562-5.928-27.507-9.681-17.627-9.522-33.725-26.504-42.676-45.017-6.794-14.052-9.667-25.064-10.758-41.236-.309-4.572-1.103-9.387-1.765-10.698-2.712-5.371-10.809-7.353-16.319-3.994" fill-rule="evenodd"/></svg>