<svg xmlns="http://www.w3.org/2000/svg" width="512" height="512"><path d="M230.827 16.793c-49.751 3.168-91.109 15.172-122.258 35.485L98.95 58.55l7.351 11.471c4.042 6.31 7.794 11.937 8.338 12.505.765.801 3.103-.336 10.374-5.045 12.117-7.846 23.621-13.322 37.974-18.077 62.1-20.574 154.002-17.065 205.989 7.864 4.743 2.274 12.848 6.87 18.011 10.213 7.257 4.7 9.609 5.844 10.366 5.045.539-.568 4.277-6.209 8.308-12.535l7.33-11.503-9.589-6.206c-12.039-7.792-20.051-11.985-32.32-16.916-23.738-9.54-53.506-15.804-86.922-18.291-10.472-.78-42.838-.951-53.333-.282m2.986 56.325c-68.445 5.108-125.91 33.255-165.841 81.232-7.619 9.154-11.807 15.13-19.491 27.809-4.33 7.145-5.461 9.641-4.693 10.357.556.518 6.479 4.258 13.161 8.311l12.148 7.37 3.212-6.052c13.336-25.131 34.97-48.808 59.531-65.152 25.399-16.902 53.128-27.144 88.32-32.623 12.5-1.946 55.552-2.196 68.267-.396 66.12 9.36 114.947 40.581 150.826 96.438l4.992 7.772 12.54-7.879c6.897-4.333 12.542-8.234 12.544-8.669.008-1.448-14.195-22.124-21.439-31.209-9.325-11.696-25.407-27.851-36.333-36.499C374.526 94.622 331.625 77.95 281.6 73.427c-8.961-.811-38.507-1.001-47.787-.309m4.267 55.761c-26.64 2.531-51.411 9.771-73.32 21.43-50.374 26.807-87.553 76.56-96.955 129.746-5.027 28.431-2.96 69.83 5.571 111.625 3.337 16.347 8.127 33.28 9.414 33.28 1.223 0 28.454-6 28.8-6.345.176-.176-.865-4.159-2.313-8.851-8.392-27.196-14.689-75.44-13.33-102.137 1.441-28.337 7.097-48 20.07-69.778 16.255-27.288 37.129-47.424 63.539-61.292 43.422-22.8 97.208-24.559 142.151-4.648 28.587 12.665 56.581 36.875 75.077 64.929 16.756 25.414 22.811 44.695 21.963 69.935-.491 14.629-2.63 23.628-8.08 33.999-8.331 15.854-21.075 23.608-36.88 22.438-24.261-1.795-34.926-11.661-42.56-39.37-1.422-5.163-3.97-14.379-5.663-20.48-3.344-12.051-7.228-21.751-11.682-29.172-3.655-6.09-12.829-15.255-18.945-18.926-20.069-12.047-55.142-12.467-77.314-.928-25.716 13.385-37.938 39.946-36.462 79.244.874 23.267 4.675 39.955 12.903 56.641 10.606 21.507 23.017 39.174 39.315 55.965 20.27 20.882 41.185 34.924 65.491 43.97 8.31 3.093 27.602 8.193 30.992 8.193 1.595 0 2.236-1.564 5.686-13.867 2.138-7.627 3.773-13.992 3.633-14.146-.14-.153-4.373-1.21-9.406-2.347-41.49-9.378-75.285-35.143-100.082-76.303-13.532-22.46-16.962-33.974-17.795-59.737-.676-20.901 1.555-31.457 8.896-42.099 5.439-7.883 16.743-13.048 30.508-13.938 15.023-.972 26.072 2.266 32.859 9.63 5.268 5.715 8.591 13.801 14.504 35.287 6.178 22.453 9.789 31.94 15.463 40.633 12.111 18.551 28.188 27.965 53.119 31.103 41.806 5.262 74.644-24.563 81.677-74.185 1.403-9.895.525-31.502-1.691-41.629-6.865-31.368-25.417-63.21-52.607-90.292-31.096-30.972-69.239-50.217-111.746-56.382-10.838-1.571-34.262-2.197-44.8-1.196m-6.827 58.421c-29.031 4.351-50.552 14.885-69.561 34.049-19.378 19.536-30.22 41.683-36.391 74.339-1.652 8.741-1.936 13.091-1.951 29.859-.015 16.907.252 21.045 1.927 29.866 10.239 53.936 30.173 93.068 66.184 129.923l10.217 10.456 10.408-10.883 10.408-10.882-10.37-10.715c-28.587-29.539-46.489-63.556-55.319-105.114-2.673-12.585-2.766-13.688-2.728-32.651.035-17.061.292-20.799 1.966-28.587 10.198-47.441 37.767-74.573 81.57-80.278 4.618-.601 13.395-.825 22.187-.565 11.857.35 16.045.826 22.653 2.572 22.731 6.01 40.912 19.555 54.331 40.476 11.497 17.926 20.415 44.608 22.115 66.168.691 8.761-1.502 7.979 18.16 6.476l13.112-1.002-.591-7.75c-1.708-22.399-10.287-50.821-21.271-70.47-20.588-36.831-49.828-58.33-88.27-64.902-11.451-1.957-36.947-2.158-48.786-.385m21.334 119.513c-7.275.594-13.243 1.116-13.262 1.16-.02.044.263 3.632.628 7.974 2.324 27.639 10.602 52.788 24.367 74.026 19.4 29.933 47.686 48.321 83.577 54.33 12.053 2.019 37.376 2.022 51.813.006 5.59-.78 10.334-1.588 10.542-1.797.386-.385-5.304-28.469-5.882-29.031-.174-.17-3.773.294-7.997 1.03-5.064.882-13.056 1.346-23.466 1.36-14.094.019-16.815-.219-25.379-2.223-32.782-7.67-54.307-26.783-68.01-60.387-3.749-9.192-7.259-23.733-8.235-34.114-1.269-13.502-1.315-13.676-3.566-13.534-1.047.067-7.856.606-15.13 1.2" fill-rule="evenodd"/></svg>