<svg xmlns="http://www.w3.org/2000/svg" viewBox="0 0 512 512"><path d="M217.173 81.818c-1.877.862-4.07 2.308-4.874 3.213-2.123 2.391-4.082 7.502-4.111 10.728-.015 1.541 2.563 11.941 5.727 23.113 4.163 14.701 5.52 20.681 4.91 21.647-.463.734-5.44 3.314-11.06 5.732-23.127 9.95-45.262 23.985-73.161 46.386-6.036 4.847-12.057 9.03-13.379 9.294-2.948.59-3.958.061-13.175-6.89-20.708-15.619-47.27-27.119-75.079-32.505-19.769-3.829-27.267-2.214-31.338 6.752-2.28 5.018-2.031 8.5 1.42 19.889 6.672 22.017 14.744 40.145 24.623 55.303 3.858 5.919 5.569 9.368 5.583 11.258.015 1.908-1.522 5.106-5.126 10.667-10.297 15.89-19.372 36.173-25.253 56.443-3.506 12.083-3.522 16.569-.077 21.774 2.695 4.073 8.276 6.952 13.466 6.949 4.819-.004 16.818-2.078 27.318-4.722 24.759-6.234 49.216-17.937 67.045-32.082 5.705-4.526 9.279-5.743 12.229-4.164 1.042.558 7.539 5.493 14.437 10.966 27.474 21.799 50.824 36.313 73.002 45.377 4.198 1.716 8.023 3.739 8.5 4.495.643 1.019-.622 6.633-4.885 21.687-3.164 11.172-5.742 21.767-5.727 23.546.028 3.529 2.339 8.761 4.841 10.956 5.369 4.713 10.871 5.185 23.399 2.01 24.264-6.151 51.263-19.449 77.104-37.978l10.976-7.87 11.144-1.165c12.568-1.315 26.071-3.424 30.215-4.719 4.493-1.405 4.383-3.688-.602-12.531-2.398-4.255-6.427-12.077-8.953-17.383-30.517-64.102-27.022-140.626 9.204-201.505 4.038-6.786 4.834-9.917 2.911-11.451-1.477-1.178-13.854-3.315-30.08-5.193l-13.654-1.58-8.359-6.062c-26.063-18.899-55.336-33.57-78.816-39.499-11.406-2.881-15.602-3.064-20.345-.886m179.391 74.895c-15.895 26.782-24.86 51.984-27.884 78.387-1.13 9.861-1.13 31.939 0 41.8 2.131 18.608 9.08 42.579 16.951 58.473 7.777 15.706 16.346 30.523 17.885 30.925.838.219 6.101-1.584 11.697-4.008 43.751-18.951 80.593-54.136 93.043-88.858 4.032-11.246 4.561-18.078 2.145-27.695-6.725-26.769-31.503-56.997-65.241-79.592-9.843-6.592-34.537-19.174-39.077-19.911l-3.01-.489-6.509 10.968m25.567 68.624c8.178 3.098 11.909 13.522 7.846 21.917-6.908 14.268-28.254 9.873-29.578-6.09-.554-6.681 3.403-13.467 9.201-15.779 2.869-1.144 9.572-1.169 12.531-.048" fill-rule="evenodd"/></svg>