<svg xmlns="http://www.w3.org/2000/svg" width="512" height="512"><path d="M133.973 32.99c-34.464 3.354-55.26 9.764-64.042 19.74-6.42 7.294-5.933-10.293-5.912 213.452.018 193.609.077 201.144 1.594 204.431.866 1.878 2.57 4.33 3.786 5.45 2.182 2.009 9.907 4.582 11.914 3.969.569-.174 2.083-.546 3.365-.826 2.893-.634 7.943-4.985 9.872-8.506 1.325-2.419 1.487-9.336 1.877-80.3l.426-77.653 5.821-1.945c14.778-4.938 45.187-7.664 68.784-6.166 25.23 1.602 42.954 4.742 94.355 16.719 53.672 12.506 65.293 14.401 87.894 14.335 24.307-.071 46.562-3.567 68.146-10.706 12.245-4.05 17.158-6.472 20.777-10.244 5.691-5.931 5.37 1.443 5.37-123.431 0-112.993-.002-113.121-1.783-116.801C443.301 68.485 436.399 64 430.045 64c-1.083 0-8.719 2.304-16.967 5.121-17.763 6.064-31.499 9.019-48.26 10.382-21.372 1.737-33.77-.835-78.951-16.378-62.137-21.376-78.237-25.913-104.479-29.443-8.452-1.137-38.355-1.573-47.415-.692m38.523 31.896c23.47 2.352 40.19 6.881 93.062 25.212 49.86 17.287 63.371 20.738 84.008 21.46 20.862.729 42.534-2.235 64.514-8.825 1.416-.425 1.493 4.502 1.493 95.146v95.593l-6.905 2.182c-15.995 5.053-37.071 8.136-55.568 8.128-18.234-.007-29.93-2.009-82.167-14.064-42.626-9.837-59.315-13.071-82.346-15.956-11.777-1.475-51.253-1.474-63.147.001-8.124 1.008-23.781 3.82-27.52 4.943-1.416.426-1.493-4.867-1.493-102.828V72.602l5.76-1.788c17.157-5.324 49.297-8.034 70.309-5.928" fill-rule="evenodd"/></svg>