<svg xmlns="http://www.w3.org/2000/svg" width="512" height="512"><path d="M200.962 33.771c-3.848 2.006-5.627 3.848-7.357 7.616-1.914 4.167-1.985 7.213-.338 14.318 1.948 8.399 2.859 22.297 2.095 31.975-2.362 29.947-12.038 51.865-46.69 105.767-19.964 31.053-28.231 45.013-35.285 59.58-13.518 27.915-18.845 52.722-16.885 78.624 3.864 51.046 31.881 97.326 75.173 124.177 28.582 17.727 62.768 26.198 95.632 23.698 79.44-6.045 142.189-68.581 148.176-147.672.946-12.51-.024-38.518-2.071-55.493-8.474-70.268-37.371-132.686-83.664-180.713-36.919-38.302-83.99-63.222-119.401-63.213-4.528.002-7.689.451-9.385 1.336m38.249 37.041c54.185 21.208 105.073 79.46 128.038 146.565 14.817 43.3 20.472 96.614 13.742 129.554-5.819 28.477-23.618 56.524-47.338 74.59-6.494 4.947-13.653 9.714-13.653 9.093 0-.188 1.708-3.553 3.796-7.478 11.664-21.929 15.182-52.183 9.386-80.718-2.211-10.884-7.754-26.352-13.997-39.058-22.386-45.558-61.868-78.933-93.378-78.933-6.659 0-9.45.952-13.098 4.47-3.984 3.844-4.797 7.143-4.131 16.759.958 13.826-.685 19.882-12.796 47.173-3.886 8.758-8.407 19.51-10.047 23.894-13.563 36.266-12.917 75.589 1.723 104.824 2.233 4.458 4.211 8.426 4.395 8.817.517 1.093-6.395-3.427-13.506-8.833-19.593-14.893-35.369-36.79-43.333-60.144-7.734-22.679-8.831-46.866-3.078-67.86 5.717-20.862 14.394-37.192 45.333-85.314 25.01-38.899 35.02-57.878 42.473-80.527 5.491-16.686 7.344-27.303 7.876-45.126.37-12.408.674-15.147 1.681-15.147.676 0 5.137 1.53 9.912 3.399m9.536 195.253c25.485 18.011 48.04 54.481 53.698 86.826 1.668 9.54 1.706 22.25.097 32.816-2.23 14.649-7.147 25.414-15.395 33.708-8.665 8.713-17.877 12.372-31.147 12.372-13.262 0-22.473-3.656-31.147-12.363-11.936-11.982-17.497-30.899-16.403-55.794.79-17.97 4.174-29.837 16.213-56.857 8.692-19.507 12.828-30.54 14.235-37.973 1.542-8.152 1.412-7.912 3.649-6.752 1.063.551 3.853 2.359 6.2 4.017" fill-rule="evenodd"/></svg>