<svg xmlns="http://www.w3.org/2000/svg" width="512" height="512"><path d="M192.278 33.627c.312.813 1.418 5.387 2.458 10.165 1.634 7.51 1.893 11.292 1.909 27.888.016 16.886-.218 20.28-1.938 28.16-2.978 13.638-7.429 26.113-14.385 40.316-7.569 15.456-13.306 25.122-31.277 52.697-26.922 41.311-38.113 61.956-45.202 83.387-6.753 20.415-8.813 35.965-7.341 55.411 5.433 71.773 58.014 131.169 128.623 145.294 26.504 5.302 54.195 3.555 80.831-5.101 47.637-15.479 86.403-54.235 101.875-101.847 6.866-21.128 8.915-38.686 7.695-65.909-3.477-77.528-29.232-144.213-76.753-198.729-34.58-39.671-92.011-69.965-137.744-72.661-8.611-.507-9.275-.437-8.751.929m62.138 236.756c20.47 16.378 39.509 47.055 46.651 75.165 2.091 8.23 2.282 10.345 2.199 24.372-.08 13.622-.34 16.3-2.293 23.67-6.588 24.852-22.285 38.176-44.973 38.176-25.646 0-42.741-17.519-46.881-48.041-2.047-15.093-.555-33.588 3.834-47.515 3.297-10.461 6.012-17.028 15.165-36.69 7.804-16.763 10.885-25.527 12.082-34.37l.552-4.077 3.409 1.917c1.875 1.054 6.49 4.381 10.255 7.393" fill-rule="evenodd"/></svg>