<svg xmlns="http://www.w3.org/2000/svg" width="512" height="512"><path d="M308.828 18.184c-3.185 1.669-20.793 23.003-114.975 139.307-61.167 75.534-111.759 138.571-112.427 140.082-3.317 7.51.151 17.043 7.493 20.597 3.747 1.814 4.267 1.83 59.898 1.83h56.119l-.5 2.347c-3.118 14.636-27.791 152.896-27.777 155.653.036 7.27 5.427 14.647 12.377 16.941 4.384 1.447 11.438.696 15.177-1.615 2.034-1.257 40.929-48.657 112.991-137.698 60.439-74.679 110.826-137.07 111.971-138.646 1.479-2.037 2.187-4.328 2.447-7.918.311-4.299.033-5.618-1.861-8.85-1.224-2.09-3.669-4.696-5.433-5.793l-3.208-1.994-56.97-.237-56.971-.237.429-1.896c2.56-11.313 27.752-153.03 27.752-156.117 0-13.101-14.812-21.897-26.532-15.756" fill-rule="evenodd"/></svg>