<svg xmlns="http://www.w3.org/2000/svg" width="512" height="512"><path d="M308.828 18.196c-3.178 1.675-20.99 23.269-114.901 139.306C132.799 233.031 82.207 296.037 81.5 297.516c-3.159 6.601-.565 15.558 5.707 19.71l3.547 2.347 57.087.231 57.087.231-.501 2.329c-2.762 12.857-27.782 153.348-27.768 155.923.038 6.989 5.546 14.399 12.377 16.654 4.384 1.447 11.438.696 15.177-1.615 2.034-1.258 40.921-48.651 112.991-137.708 60.439-74.685 110.832-137.155 111.983-138.822 4.815-6.968 2.755-17.29-4.394-22.022l-3.547-2.347-57.111-.231-57.111-.231.469-1.903c2.073-8.403 27.867-152.913 27.867-156.122 0-13.108-14.835-21.91-26.532-15.744m-25.636 126.657c-6.003 32.736-10.929 61.165-10.947 63.174-.067 7.669 4.984 13.797 12.743 15.461 2.876.617 20.159.939 50.414.939 25.321 0 46.038.186 46.038.414 0 1.057-162.508 201.127-162.758 200.378-.156-.469 4.528-27.304 10.41-59.634 5.882-32.329 10.695-60.203 10.695-61.941 0-5.514-3.183-10.932-8.107-13.797-1.222-.711-15.972-1.115-51.919-1.42L129.55 288l78.694-97.28c78.58-97.138 85.285-105.387 85.662-105.387.111 0-4.711 26.784-10.714 59.52" fill-rule="evenodd"/></svg>