<svg xmlns="http://www.w3.org/2000/svg" width="512" height="512"><path d="M187.733 32.427c-11.397.278-18.121.787-19.296 1.46-2.831 1.624-7.081 6.872-7.643 9.435-.28 1.282-.652 2.796-.826 3.365-.613 2.007 1.96 9.732 3.969 11.914 3.839 4.169 7.926 5.36 18.463 5.38L192 64l-.015 40.747c-.015 42.916-.349 47.482-4.083 55.925-.9 2.034-30.357 49.179-65.461 104.766-35.104 55.588-65.314 104.224-67.134 108.08-5.268 11.162-6.862 18.455-6.862 31.389 0 8.562.408 12.617 1.786 17.773 7.802 29.176 30.215 50.349 59.422 56.136 8.875 1.759 283.819 1.759 292.694 0 24.065-4.768 43.271-19.556 53.876-41.483 5.633-11.645 7.332-19.162 7.332-32.426 0-12.931-1.593-20.223-6.86-31.389-1.819-3.856-32.005-52.439-67.081-107.961-35.076-55.523-64.535-102.668-65.463-104.767-3.793-8.574-4.121-13.014-4.136-56.043L320 64l9.6-.019c10.537-.02 14.624-1.211 18.463-5.38 3.938-4.277 4.859-12.785 1.97-18.184-1.344-2.511-6.661-7.024-8.929-7.578-2.515-.614-130.933-.96-153.371-.412m99.84 69.883c0 21.07.406 42.286.902 47.146 1.014 9.945 4.446 21.324 8.86 29.379 1.561 2.85 17.265 28.017 34.896 55.926 17.632 27.91 32.31 51.402 32.618 52.205.527 1.374-5.94 1.461-108.849 1.461s-109.376-.087-108.849-1.461c.308-.803 15.025-24.323 32.703-52.266 17.678-27.944 33.786-54.071 35.796-58.06 2.009-3.989 4.682-11.093 5.94-15.787l2.286-8.533.348-44.16.348-44.16H287.573v38.31M404.48 349.078c22.267 35.282 23.462 37.343 25.606 44.185 7.151 22.808-8.456 48.83-32.261 53.794-6.386 1.332-277.264 1.332-283.65 0-23.332-4.866-39.192-30.599-32.588-52.875 2.058-6.94 3.169-8.879 24.538-42.812l19.742-31.351L256 320.014l130.133-.006 18.347 29.07" fill-rule="evenodd"/></svg>