<svg xmlns="http://www.w3.org/2000/svg" width="512" height="512"><path d="M308.828 18.182c-3.133 1.64-11.709 11.79-51.329 60.75-26.162 32.329-47.803 59.523-48.091 60.432-.408 1.284 1.536 3.728 8.74 10.987 9.979 10.055 11.437 11.188 13.418 10.428.709-.272 14.78-17.161 31.269-37.53 16.488-20.37 30.266-37.214 30.617-37.431.351-.216-4.27 26.37-10.268 59.081-5.999 32.711-10.921 61.081-10.939 63.045-.042 4.697 1.186 7.761 4.477 11.173 5.034 5.218 6.038 5.31 57.94 5.31 25.728 0 46.778.198 46.778.441 0 .242-8.282 10.649-18.404 23.126-10.123 12.477-18.833 23.625-19.357 24.775-.891 1.956-.355 2.691 8.378 11.491 10.047 10.123 11.499 11.253 13.486 10.491 1.632-.626 63.748-77.297 65.139-80.402 2.85-6.364.019-15.664-5.976-19.632l-3.46-2.29-57.11-.237-57.109-.237.468-1.896c2.072-8.401 27.865-152.909 27.865-156.117 0-13.1-14.809-21.895-26.532-15.758M77.227 64.807c-9.388 2.252-14.729 10.774-12.381 19.755.902 3.45 15.663 18.438 179.908 182.681C440.43 462.916 425.743 448.972 434.755 447.621c2.885-.433 4.955-1.468 7.469-3.737 5.853-5.282 7.301-11.752 4.138-18.497-1.116-2.382-55.468-57.232-179.821-181.469C113.668 91.188 87.895 65.782 85.333 65.295a376.237 376.237 0 0 1-4.266-.835c-.704-.147-2.432.009-3.84.347m68.992 152.476c-1.652.677-63.794 77.88-65.027 80.788-2.961 6.981.811 16.751 7.768 20.119 3.694 1.788 4.414 1.81 59.857 1.81h56.119l-.499 2.347c-3.027 14.24-27.792 153.144-27.778 155.8.037 7.126 5.487 14.52 12.377 16.794 4.382 1.446 11.438.696 15.175-1.614 1.974-1.22 20.012-22.819 49.698-59.511 25.631-31.677 47.242-58.716 48.026-60.087l1.425-2.491-9.387-9.463c-10.1-10.181-11.555-11.316-13.539-10.554-.709.272-14.83 17.223-31.38 37.668-16.55 20.446-30.222 36.78-30.383 36.298-.16-.482 4.525-27.219 10.412-59.416 5.887-32.197 10.704-60.095 10.704-61.996 0-6.289-4.03-12.315-9.656-14.441-1.595-.602-18.734-.907-50.987-.907-30.44 0-48.584-.306-48.584-.819 0-.45 8.637-11.49 19.194-24.533 10.557-13.043 19.197-24.311 19.2-25.04.006-1.419-19.682-21.334-20.98-21.221-.426.037-1.215.248-1.755.469" fill-rule="evenodd"/></svg>