<svg xmlns="http://www.w3.org/2000/svg" width="512" height="512"><path d="M319.951 34.332c-7.921 2.766-14.546 6.981-21.819 13.881-5.779 5.484-6.296 6.253-6.294 9.382.002 3.381.627 4.033 79.58 82.987 78.681 78.68 79.617 79.578 82.95 79.578 3.022 0 3.927-.569 8.715-5.476 16.32-16.727 20.846-34.72 13.002-51.697-2.375-5.14-6.933-9.912-62.044-64.972-56.151-56.098-59.815-59.583-65.454-62.255-5.305-2.514-6.929-2.862-14.507-3.107-7.167-.232-9.429.037-14.129 1.679m-53.533 51.727c-1.436.91-7.173 14.253-9.412 21.888-3.396 11.576-6.939 34.905-6.97 45.888-.012 4.271-2.557 11.316-6.461 17.887-2.489 4.191-24.508 26.72-101.964 104.331-64.975 65.105-99.795 100.593-101.726 103.68-11.209 17.914-10.182 39.791 2.765 58.855 4.517 6.652 18.127 20.854 26.238 27.378 15.814 12.722 35.303 17.059 51.792 11.524 3.688-1.239 8.476-3.255 10.64-4.482 2.525-1.432 39.521-37.742 103.347-101.432 66.407-66.266 100.971-100.168 104.106-102.112 8.686-5.385 12.946-6.68 26.339-8.007 20.79-2.06 33.062-4.592 47.217-9.741 9.783-3.558 13.847-5.978 14.201-8.457.243-1.698-12.408-14.727-77.659-79.977-51.643-51.643-78.522-77.944-79.65-77.936-.935.008-2.197.328-2.803.713m-32.625 183.597c6.683 3.44 10.474 9.765 10.474 17.479 0 14.948-14.564 24.347-27.947 18.036-5.084-2.397-7.402-4.757-9.742-9.918-4.938-10.893 1.11-23.815 12.647-27.02 4.638-1.288 10.39-.727 14.568 1.423" fill-rule="evenodd"/></svg>