<svg xmlns="http://www.w3.org/2000/svg" width="512" height="512"><path d="M240.951 17.488c-15.645 3.402-30.969 13.725-40.202 27.08-6.93 10.024-10.518 19.589-12.112 32.281-1.22 9.716-4.347 10.923-12.003 4.633-10.702-8.793-24.285-13.925-38.837-14.673-20.398-1.048-37.178 5.501-51.683 20.171-9.819 9.931-15.783 21.363-18.444 35.354-1.546 8.127-1.074 21.069 1.063 29.133 1.968 7.425 7.292 18.007 12.252 24.35 2.373 3.034 4.322 6.38 4.331 7.436.024 2.715-2.918 5.334-5.992 5.334-1.428 0-5.556.608-9.173 1.351-21.957 4.513-40.519 19.991-48.779 40.674-7.296 18.266-6.531 38.183 2.128 55.437 10.569 21.06 28.91 33.789 53.756 37.308 9.29 1.315 10.407 4.487 4.226 12.009-8.701 10.59-13.963 24.369-14.686 38.457-1.05 20.443 5.441 37.397 19.765 51.632 18.546 18.429 43.738 24.443 68.746 16.41 7.911-2.542 13.207-5.326 20.148-10.593 9.218-6.995 11.919-6.185 13.191 3.958 3.081 24.565 18.655 45.647 40.52 54.85 9.642 4.058 15.462 5.187 26.834 5.203 12.207.018 19.998-1.739 30.022-6.769 21.089-10.584 33.814-28.911 37.335-53.77 1.317-9.306 4.504-10.416 12.009-4.186 5.63 4.673 17.97 10.839 25.546 12.764 22.212 5.644 46.287-.512 62.948-16.097 26.062-24.38 28.888-63.468 6.635-91.791-6.274-7.986-5.087-10.859 5.003-12.111 23.7-2.943 44.281-17.879 54.384-39.468 4.553-9.731 6.148-18.193 5.717-30.343-.33-9.306-.759-11.858-3.215-19.129-8.435-24.98-30.998-43.132-56.567-45.508-10.482-.974-11.564-4.171-4.544-13.42 5.679-7.482 9.293-14.614 11.809-23.306 1.605-5.546 1.919-8.647 1.882-18.602-.04-11.024-.248-12.559-2.689-19.866-7.962-23.84-27.187-41.001-51.409-45.89-8.449-1.705-22.086-1.325-30.333.845-7.191 1.892-19.618 8.221-25.167 12.816-7.776 6.439-10.788 5.163-12.063-5.111-3.621-29.162-24.947-53.02-52.64-58.889-7.079-1.501-22.735-1.482-29.712.036m35.28 161.316c7.956 2.011 18.693 6.887 25.798 11.715 5.01 3.404 16.048 14.442 19.452 19.452 4.845 7.13 9.705 17.85 11.89 26.225 2.95 11.311 3.109 26.926.388 38.099-12.832 52.701-72.56 77.969-118.884 50.296-7.503-4.483-19.962-16.013-24.377-22.562-4.857-7.205-9.693-17.886-11.874-26.225-3.099-11.855-3.099-27.754.001-39.612 9.728-37.205 43.459-61.921 81.642-59.82 4.458.245 11.642 1.34 15.964 2.432m-30.044 30.223c-22.169 4.804-37.974 24.355-37.974 46.973 0 13.119 4.67 24.3 14.078 33.709 18.962 18.962 48.456 18.962 67.418 0 24.831-24.831 15.773-66.104-17.257-78.626-6.358-2.411-19.779-3.462-26.265-2.056" fill-rule="evenodd"/></svg>