<svg xmlns="http://www.w3.org/2000/svg" width="512" height="512"><path d="M63.573 64.569c-5.246.75-12.124 3.09-17.92 6.097-8.599 4.461-19.508 15.546-23.674 24.054-6.125 12.51-5.74 1.697-5.74 161.28 0 159.403-.372 148.844 5.665 161.079 3.565 7.227 11.966 16.728 18.979 21.465 5.763 3.893 14.071 7.28 20.927 8.532 7.128 1.301 381.252 1.301 388.38 0 6.856-1.252 15.164-4.639 20.927-8.532 7.013-4.737 15.414-14.238 18.979-21.465 6.007-12.174 5.664-3.43 5.678-144.942.012-123.441-.042-127.864-1.638-134.105-3.969-15.52-14.874-28.932-29.496-36.278-10.26-5.155-1.944-4.818-130.987-5.305L214.613 96l-4.343-2.243c-2.389-1.233-10.742-6.52-18.563-11.748-15.233-10.182-21.293-13.552-28.72-15.971-4.249-1.384-9.056-1.543-50.774-1.682-25.344-.084-47.232.012-48.64.213m92.587 33.01c1.643.592 9.999 5.768 18.569 11.5 16.475 11.02 22.448 14.38 30.071 16.916 4.431 1.474 11.317 1.586 123.307 1.997l118.613.435 3.604 1.925c4.92 2.629 9.487 7.381 11.609 12.078 1.513 3.347 1.821 6.057 2.122 18.637l.352 14.72H47.671l.271-30.507c.265-29.743.32-30.613 2.235-34.773 2.568-5.58 6.419-9.547 11.69-12.043l4.266-2.021 43.52.029c32.838.022 44.253.294 46.507 1.107M464.022 302.72l-.235 94.507-2.017 4.46c-2.482 5.49-7.804 10.531-13.393 12.687C444.275 415.956 439.015 416 256 416c-183.015 0-188.275-.044-192.377-1.626-5.589-2.156-10.911-7.197-13.393-12.687l-2.017-4.46-.235-94.507-.234-94.507h416.512l-.234 94.507" fill-rule="evenodd"/></svg>