<svg xmlns="http://www.w3.org/2000/svg" width="512" height="512"><path d="M36.267 65.194c-7.736 2.446-14.16 7.877-17.679 14.946-1.946 3.909-1.948 3.962-2.19 49.78l-.241 45.867h479.63v-28.555c0-26.621-.118-28.869-1.735-33.192-2.21-5.906-7.069-11.428-12.895-14.655l-4.57-2.532-131.611-.224-131.61-.224-24.346-16.202L164.674 64l-62.497.057c-47.894.044-63.295.309-65.91 1.137M16.414 318.08l.226 109.867 1.948 3.913c2.697 5.417 8.266 10.845 13.839 13.488l4.693 2.225h218.453c213.274 0 218.554-.038 222.696-1.636 5.319-2.051 11.875-8.111 14.829-13.707l2.262-4.283.226-109.867.226-109.867H16.188l.226 109.867" fill-rule="evenodd"/></svg>