<svg xmlns="http://www.w3.org/2000/svg" width="512" height="512"><path d="M91.809 65.403c-18.994 4.072-34.919 18.521-41.248 37.424l-2.285 6.826-.347 34.56-.346 34.56-5.887 2.908c-4.298 2.123-7.551 4.658-12.058 9.393-9.311 9.786-13.425 19.644-13.425 32.174 0 3.379 3.265 39.402 7.255 80.052 3.99 40.651 7.826 79.868 8.524 87.151 1.516 15.833 3.886 23.831 9.534 32.183 8.133 12.024 21.563 21.307 34.847 24.087 8.986 1.88 350.268 1.88 359.254 0 21.593-4.518 39.743-23.6 43.12-45.334 1.554-10.002 17.04-171.615 17.04-177.831 0-12.995-3.944-22.54-13.423-32.488-4.549-4.775-7.735-7.244-12.109-9.387l-5.935-2.908-.053-15.609c-.065-18.826-1.282-25.918-6.174-35.962-6.184-12.698-19.5-24.26-33.133-28.767-4.375-1.446-10.566-1.581-91.307-1.993-85.686-.437-86.654-.461-90.453-2.231-2.112-.984-11.383-6.783-20.602-12.886-9.218-6.103-19.226-12.084-22.24-13.29-9.006-3.605-15.66-4.04-60.686-3.965-33.645.055-43.135.32-47.863 1.333m97.204 32.614c1.878.854 10.518 6.281 19.2 12.059 15.62 10.395 22.877 14.352 30.024 16.37 2.732.771 25.945 1.161 89.87 1.51l86.186.471 3.84 1.994c4.906 2.548 9.041 6.475 11.38 10.806 1.659 3.073 1.871 4.965 2.126 18.986l.283 15.574H80.213v-30.321c0-32.755.013-32.863 4.802-39.798 2.284-3.308 7.685-7.317 11.355-8.43 1.204-.366 21.774-.689 45.71-.719 40.335-.051 43.77.059 46.933 1.498m265.214 111.349c3.604 1.506 7.966 6.534 9.038 10.419.663 2.4-.84 20.362-6.766 80.877-4.19 42.785-8.039 82.207-8.552 87.605-.538 5.644-1.59 11.308-2.478 13.331-2.265 5.162-7.111 10.081-12.196 12.38L428.8 416H83.2l-4.473-2.022c-5.082-2.297-9.927-7.213-12.201-12.38-1.019-2.314-2.018-8.482-2.92-18.025-.755-7.978-4.623-47.637-8.598-88.129-6.817-69.461-7.15-73.802-5.898-76.8 1.647-3.943 5.123-7.718 8.49-9.221 3.829-1.709 392.54-1.765 396.627-.057" fill-rule="evenodd"/></svg>