<svg xmlns="http://www.w3.org/2000/svg" width="512" height="512"><path d="M241.493 48.673c-18.436 1.188-42.067 6.233-58.453 12.479-9.71 3.702-29.292 13.43-37.472 18.614-52.285 33.14-86.317 85.751-95.783 148.074-2.061 13.574-2.061 42.746 0 56.32 9.53 62.741 43.783 115.395 96.708 148.659 22.943 14.42 52.088 24.952 81.347 29.396 13.574 2.061 42.746 2.061 56.32 0 44.794-6.804 83.873-25.735 115.311-55.86 34.149-32.722 55.457-74.222 62.744-122.195 2.061-13.574 2.061-42.746 0-56.32-9.459-62.276-43.564-114.998-95.783-148.07-8.33-5.275-26.132-14.192-36.192-18.128-17.229-6.739-40.345-11.635-61.44-13.012-13.439-.878-12.989-.878-27.307.043m37.038 32.979c1.193.668-.711 2.253-10.537 8.77L256 98.377l-11.959-7.932c-6.577-4.362-11.731-8.159-11.454-8.437 1.74-1.739 42.902-2.058 45.944-.356m-63.179 28.001 24.392 16.214.021 21.021.022 21.021-30.876 25.912c-16.981 14.252-31.179 26.037-31.551 26.189-.849.348-35.791-14.322-37.087-15.571-1.098-1.057-20.806-56.862-20.806-58.913 0-.746 5.088-6.478 11.306-12.737 10.986-11.058 21.238-19.309 33.494-26.958 7.218-4.505 24.364-12.91 25.719-12.608.536.119 11.95 7.513 25.366 16.43m118.777-11.15c12.606 6.267 22.111 12.396 33.447 21.57 8.626 6.981 24.957 23.701 24.957 25.551 0 1.906-19.782 57.819-20.81 58.82-1.247 1.213-36.291 15.898-37.12 15.554-.351-.146-14.533-11.925-31.514-26.177l-30.876-25.912.024-21.021.023-21.021 24.51-16.369c13.481-9.003 24.916-16.395 25.412-16.427.496-.032 5.872 2.413 11.947 5.432m-230.982 98.369 5.113 14.684-12.103 10.427c-6.657 5.735-12.725 10.948-13.484 11.585-1.268 1.064-1.283.556-.188-6.281 2.237-13.971 6.215-27.54 12.294-41.941 1.05-2.486 2.211-4.214 2.581-3.84.37.375 2.974 7.289 5.787 15.366m316.8-4.707c3.982 10.046 7.834 24.164 9.567 35.065 1.096 6.89 1.081 7.402-.187 6.333-.759-.639-6.831-5.839-13.494-11.555l-12.114-10.393 5.094-14.614c2.801-8.038 5.329-14.996 5.618-15.464.697-1.127 1.37.17 5.516 10.628m-135.776 27.568c15.079 12.672 27.984 23.48 28.678 24.018 1.091.847.392 4.516-5.198 27.28-3.553 14.467-6.85 27.754-7.328 29.529l-.869 3.227h-86.908l-.86-3.2c-.473-1.76-3.771-15.017-7.329-29.46l-6.468-26.259 2.735-2.328c23.251-19.784 55.084-46.164 55.54-46.026.325.099 12.928 10.547 28.007 23.219m-136.005 23.201c12.576 5.309 17.777 7.914 18.315 9.173.413.968 4.249 16.086 8.525 33.597l7.774 31.837-5.762 9.976c-3.17 5.487-7.719 13.24-10.11 17.23L162.56 352l-26.653.225-26.652.226-2.549-3.518c-3.504-4.838-11.122-20.01-14.956-29.786-3.734-9.523-7.586-23.824-9.27-34.415l-1.199-7.534 8.64-7.497c32.097-27.853 39.434-34.113 40.02-34.145.364-.02 8.565 3.3 18.225 7.378m255.333 10.641c11.569 9.93 22.418 19.36 24.108 20.956l3.074 2.902-1.179 7.417c-1.729 10.871-5.587 24.971-9.62 35.159-3.851 9.729-11.736 25.21-15.104 29.656l-2.11 2.786-26.614-.226L349.44 352l-4.348-7.253c-2.391-3.99-6.94-11.742-10.109-17.229l-5.762-9.975 7.88-32.265c4.335-17.745 8.191-32.873 8.571-33.616.578-1.133 33.857-15.992 36.067-16.105.399-.02 10.191 8.088 21.76 18.018m-91.131 98.852c5.097 8.682 9.283 16.352 9.303 17.043.04 1.396-21.107 55.516-22.118 56.603-2.285 2.459-27.098 5.714-43.553 5.714-16.472 0-41.392-3.272-43.511-5.714-.901-1.038-22.196-55.253-22.196-56.509 0-.601 2.056-4.607 4.568-8.902l9.441-16.136 4.873-8.327 46.964.22 46.963.221 9.266 15.787m-146.074 44.525c2.863 7.124 5.105 13.054 4.981 13.178-.968.968-23.633-14.962-32.182-22.618l-3.84-3.439 12.918-.037 12.917-.036 5.206 12.952m206.613-9.44c-8.09 7.245-17.6 14.126-29.247 21.16l-3.22 1.945 1.624-4.135c.893-2.275 3.235-8.263 5.205-13.309l3.58-9.173 12.949.036 12.949.037-3.84 3.439" fill-rule="evenodd"/></svg>