<svg xmlns="http://www.w3.org/2000/svg" viewBox="0 0 512 512"><path d="M375.725 17.049C356.54 21.155 337.299 37.938 321.896 64c-9.488 16.054-18.645 39.222-23.948 60.587-5.382 21.687-9.661 53.603-9.725 72.533-.085 25.384 4.48 36.149 19.162 45.189 11.227 6.914 33.717 13.25 66.971 18.87 38.792 6.555 51.779 1.379 65.456-26.086 9.84-19.762 18.49-50.833 22.424-80.547 2.206-16.668 1.968-43.503-.512-57.693-2.065-11.813-6.916-27.836-10.738-35.468-10.683-21.332-28.411-37.278-47.359-42.599-7.197-2.021-22.21-2.955-27.902-1.737m-257.538 95.64c-46.524 7.111-74.541 56.65-69.701 123.241 2.476 34.066 11.521 70.279 23.732 95.014 8.688 17.598 16.749 25.111 29.943 27.907 3.182.674 8.09 1.231 10.906 1.236 14.305.029 63.369-9.717 79.513-15.794 11.95-4.498 22.085-12.197 25.77-19.577 4.767-9.545 6.571-24.082 5.211-42.01-1.115-14.695-4.55-39.34-7.313-52.457-9.485-45.039-30.36-85.363-53.855-104.034-14.14-11.236-29.146-15.828-44.206-13.526m168.106 160.52c-7.133 3.945-10.925 12.785-13.299 31.004-1.268 9.731-.498 33.652 1.346 41.812 6.364 28.163 20.471 45.757 41.82 52.157 7.614 2.282 21.855 2.1 30.648-.393 14.091-3.995 24.874-10.882 37.288-23.815 12.746-13.279 22.362-29.049 27.97-45.867 5.913-17.731 5.123-27.204-2.599-31.194-3.515-1.817-113.314-24.715-118.312-24.674-1.735.015-3.923.451-4.862.97M163.437 379.272c-30.025 6.269-56.024 11.828-57.775 12.353-8.255 2.473-10.948 8.623-8.888 20.296 1.659 9.407 4.079 16.226 9.941 28.016 14.226 28.612 36.935 48.752 61.502 54.543 6.926 1.633 19.257 1.644 26.125.025 27.982-6.598 45.429-36.206 45.441-77.115.008-24.518-4.84-42.635-12.642-47.243-5.047-2.981-7.22-2.67-63.704 9.125" fill-rule="evenodd"/></svg>