<svg xmlns="http://www.w3.org/2000/svg" width="512" height="512"><path d="M128.427 80.752c-31.41 3.812-48.051 13.449-59.645 34.542-3.732 6.789-9.118 22.962-11.478 34.466-.963 4.693-10.466 54.421-21.118 110.507-21.407 112.72-21.787 115.351-18.717 129.425 2.198 10.073 6.561 18.466 13.15 25.298 6.426 6.662 12.308 10.47 21.434 13.876 5.527 2.062 7.681 2.395 15.787 2.441 11.312.064 15.633-1.214 24.776-7.329 11.955-7.996 19.544-18.452 33.091-45.588 4.937-9.891 10.047-19.255 11.355-20.809 4.592-5.457-1.943-5.154 111.369-5.154H351.85l3.576 2.096c3.307 1.937 4.364 3.626 14.029 22.4 11.848 23.014 17.521 32.057 24.657 39.305 9.966 10.122 19.118 14.669 30.848 15.327 17.345.973 35.538-7.977 45.276-22.273 7.538-11.067 10.982-26.164 9.399-41.208-.664-6.312-34.705-188.086-40.244-214.901-5.562-26.925-12.61-42.264-24.628-53.601-9.072-8.558-18.899-13.405-34.603-17.068-7.594-1.772-9.026-1.793-128.427-1.927-66.41-.075-121.898.004-123.306.175m47.36 103.568v23.893h47.786v31.574h-47.786v48.64h-31.574v-48.64H96.427v-31.574h47.786v-47.786h31.574v23.893m168.533-22.301c11.902 5.42 15.228 20.788 6.664 30.793-4.088 4.776-8.665 6.832-15.197 6.825-20.404-.021-27.121-27.682-9.039-37.225 4.737-2.501 12.56-2.676 17.572-.393m-43.416 44.337c7.097 3.649 10.563 9.435 10.563 17.636 0 6.785-1.851 10.911-6.791 15.139-6.126 5.244-13.731 6.294-20.943 2.894-5.084-2.398-7.402-4.758-9.741-9.918-6.124-13.507 4.62-29.048 19.232-27.82 2.405.202 5.861 1.133 7.68 2.069m84.375-1.467c8.198 2.064 14.369 10.269 14.374 19.111.01 19.937-26.001 27.326-36.487 10.365-6.675-10.797-1.661-24.904 10.379-29.201 3.973-1.418 6.922-1.487 11.734-.275m-40.911 45.04c11.78 5.351 15.186 21.399 6.567 30.94-4.338 4.801-8.968 6.973-14.883 6.982-16.125.023-25.561-18.588-16.069-31.693 5.051-6.972 16.378-9.865 24.385-6.229" fill-rule="evenodd"/></svg>