<svg xmlns="http://www.w3.org/2000/svg" width="512" height="512"><path d="M146.347 80.79C99.696 86.645 68.25 118.837 44.8 184.747c-11.4 32.042-21.421 75.123-26.598 114.346-2.175 16.48-2.161 57.204.024 69.547 2.901 16.389 8.748 31.788 15.629 41.161 13.281 18.093 37.641 26.172 59.703 19.802 18.532-5.351 31.476-15.58 57.635-45.548 15.218-17.433 31.928-25.596 60.8-29.702 13.332-1.895 71.105-2.149 84.54-.37 33.155 4.389 48.199 12.118 67.234 34.544 19.116 22.522 34.427 34.388 52.66 40.814 4.677 1.649 7.284 1.957 16.64 1.97 9.85.013 11.87-.247 18.031-2.32 17.755-5.973 30.958-19.697 37.786-39.275 4.728-13.559 6.13-22.326 6.65-41.604.698-25.863-1.983-51.364-9.155-87.082-15.048-74.938-35.094-122.903-63.107-150.998-17.058-17.109-32.663-25.275-54.628-28.586-17.315-2.61-30.915-1.179-57.129 6.013-26.805 7.354-45.559 9.607-67.261 8.081-14.989-1.054-22.217-2.386-43.721-8.054-9.621-2.537-20.949-5.209-25.173-5.94-6.932-1.198-22.298-1.598-29.013-.756m28.16 33.215c3.285.679 11.541 2.743 18.346 4.587C217.671 125.316 235.684 128 256 128c20.749 0 37.366-2.591 67.84-10.576 19.326-5.065 26.031-5.929 36.758-4.737 13.037 1.448 21.802 4.845 31.705 12.289 24.663 18.54 45.062 62.186 59.442 127.184 18.569 83.932 15.632 133.943-8.545 145.484-5.122 2.446-12.491 2.655-18.826.536-9.884-3.307-21.895-13.458-37.015-31.281-28.967-34.145-57.315-45.054-121.119-46.61-30.14-.734-56.744 1.215-76.418 5.599-25.517 5.685-45.736 17.586-62.491 36.779-19.851 22.739-26.432 28.815-36.738 33.923-5.248 2.601-7.181 3.11-11.947 3.15-18.073.149-27.502-15.699-30.027-50.468-1.792-24.673 1.76-57.805 10.32-96.259 18.418-82.734 43.76-127.336 78.315-137.831 11.244-3.416 24.414-3.832 37.253-1.177m-21.334 47.631c-3.18 1.42-6.853 5.272-8.052 8.446-.536 1.418-.908 9.706-.908 20.222v17.819l-19.123.258-19.123.259-3.277 2.65c-4.668 3.776-6.507 7.335-6.507 12.591 0 4.952 1.483 8.4 5.074 11.798 3.97 3.756 6.117 4.108 25.092 4.108h17.864v17.864c0 10.52.373 18.852.906 20.267 2.123 5.632 8.475 9.826 14.881 9.826 6.406 0 12.758-4.194 14.881-9.826.533-1.415.906-9.747.906-20.267v-17.864h17.947c13.341 0 18.652-.302 20.693-1.175 6.509-2.785 10.553-10.894 8.969-17.984-.985-4.411-2.431-6.593-6.35-9.585l-3.148-2.403-19.056-.259-19.055-.258v-17.819c0-10.516-.372-18.804-.908-20.222-1.235-3.269-4.918-7.06-8.238-8.48-3.455-1.479-10.117-1.462-13.468.034m173.575.776c-2.069 1.091-4.98 3.579-6.469 5.527-10.021 13.108-.907 31.741 15.526 31.741 11.43 0 19.998-8.408 19.998-19.627 0-7.994-4.803-15.261-12.096-18.303-4.831-2.015-12.451-1.718-16.959.662m-41.199 42.737c-16.792 6.244-17.969 29.379-1.876 36.873 7.3 3.399 14.872 2.357 21.003-2.891 11.023-9.435 9.099-26.157-3.772-32.775-4.348-2.236-11.15-2.771-15.355-1.207m87.996.015c-5.104 1.821-8.864 5.236-11.341 10.3-7.676 15.69 7.553 32.89 24.22 27.355 5.875-1.952 11.496-8.123 12.961-14.232 1.709-7.122.023-12.757-5.457-18.237-6.027-6.027-13.032-7.809-20.383-5.186m-46.629 45.405c-8.517 4.244-12.666 13.573-10.035 22.565 4.484 15.325 22.575 19.811 33.582 8.327 7.075-7.38 7.255-18.92.414-26.508-6.245-6.927-15.471-8.615-23.961-4.384" fill-rule="evenodd"/></svg>