<svg xmlns="http://www.w3.org/2000/svg" width="512" height="512"><path d="M184.747 34.156c-5.133 1.075-10.511 3.017-16.214 5.855-14.905 7.416-25.38 17.769-32.478 32.096-5.62 11.343-7.439 19.111-7.493 32-.052 12.339 1.761 20.699 6.786 31.288 1.665 3.509 2.827 6.904 2.582 7.543-.359.935-5.489 1.224-26.308 1.477-28.814.352-30.154.567-39.743 6.386-10.509 6.378-17.935 15.597-21.617 26.839-1.887 5.76-2.045 7.567-2.005 22.893.043 16.128.118 16.837 2.454 23.04 3.087 8.197 7.036 14.131 13.177 19.801 6.203 5.728 11.895 8.804 20.238 10.938C90.451 255.93 93.79 256 164.233 256c56.033 0 73.749-.243 74.53-1.024.775-.775 1.024-14.355 1.024-55.893v-54.87h32.426v54.87c0 41.538.249 55.118 1.024 55.893.781.781 18.497 1.024 74.53 1.024 70.443 0 73.782-.07 80.107-1.688 8.343-2.134 14.035-5.21 20.238-10.938 6.141-5.67 10.09-11.604 13.177-19.801 2.336-6.203 2.411-6.912 2.454-23.04.04-15.326-.118-17.133-2.005-22.893-3.682-11.242-11.108-20.461-21.617-26.839-9.589-5.819-10.929-6.034-39.743-6.386-20.819-.253-25.949-.542-26.308-1.477-.245-.639.917-4.034 2.582-7.543 5.025-10.589 6.838-18.949 6.786-31.288-.054-12.933-1.887-20.721-7.53-32-7.27-14.53-17.526-24.676-32.441-32.093-11.643-5.79-21.991-7.947-34.987-7.294-18.648.937-32.906 7.066-46.711 20.077L256 58.233l-5.831-5.5c-17.952-16.935-41.434-23.603-65.422-18.577m22.706 30.715c11.17 2.118 22.014 9.982 27.211 19.733 4.711 8.84 5.101 11.645 5.113 36.783l.01 22.826-21.547-.012c-29.562-.018-35.839-1.68-46.281-12.258-8.024-8.128-11.471-16.629-11.511-28.386-.084-24.494 22.749-43.286 47.005-38.686M320 64.887c12.318 2.71 22.373 10.664 27.906 22.078 2.669 5.505 3.121 7.362 3.485 14.326.315 6.018.047 9.372-1.081 13.539-2.708 10.005-10.808 19.997-19.977 24.643-7.977 4.042-13.174 4.714-36.573 4.728l-21.547.012.021-22.826c.012-12.555.395-24.447.852-26.427C277.82 74.444 299.697 60.42 320 64.887M82.279 290.55l-2.124 2.124.243 68.063.242 68.063 2.396 6.827c3.569 10.168 8.484 17.883 16.31 25.6 11.193 11.036 22.734 16.503 38.704 18.333 4.094.469 27.806.856 52.693.86 39.582.006 45.488-.16 47.147-1.322l1.897-1.328v-93.648c0-71.699-.24-93.887-1.024-94.671-.782-.782-19.199-1.024-77.692-1.024H84.402l-2.123 2.123m190.958-1.099c-.784.784-1.024 22.972-1.024 94.671v93.648l1.897 1.328c1.659 1.162 7.565 1.328 47.147 1.322 24.887-.004 48.599-.391 52.693-.86 15.97-1.83 27.511-7.297 38.704-18.333 7.834-7.725 12.757-15.453 16.308-25.6l2.389-6.827.247-68.063.247-68.063-2.124-2.124-2.123-2.123h-76.669c-58.493 0-76.91.242-77.692 1.024" fill-rule="evenodd"/></svg>