<svg xmlns="http://www.w3.org/2000/svg" width="512" height="512"><path d="M186.091 33.354c-21.221 4.164-40.689 19.105-50.709 38.917-1.233 2.437-3.276 7.813-4.54 11.947-2.019 6.599-2.303 8.972-2.33 19.462-.036 14.126 1.693 21.668 7.644 33.33l3.676 7.203h-24.573c-13.515 0-26.641.382-29.169.848-6.229 1.149-17.451 6.857-21.856 11.115-8.802 8.51-12.962 15.676-15.182 26.152-1.498 7.072-1.774 57.192-.363 65.992 2.214 13.807 13.009 28.331 25.478 34.281l5.95 2.839.048 69.623c.055 78.868-.181 75.848 7.046 90.377 2.922 5.874 5.155 8.808 11.745 15.428 6.819 6.85 9.408 8.809 15.978 12.09C130.02 480.492 120.164 480 256 480s125.98.492 141.066-7.042c6.57-3.281 9.159-5.24 15.978-12.09 6.59-6.62 8.823-9.554 11.745-15.428 7.227-14.529 6.991-11.509 7.046-90.377l.048-69.623 5.973-2.851c12.374-5.905 23.255-20.554 25.455-34.269 1.411-8.8 1.135-58.92-.363-65.992-2.22-10.476-6.38-17.642-15.182-26.152-4.405-4.258-15.627-9.966-21.856-11.115-2.528-.466-15.654-.848-29.169-.848h-24.573l3.676-7.203c5.951-11.662 7.68-19.204 7.644-33.33-.027-10.49-.311-12.863-2.33-19.462-3.949-12.911-9.674-22.36-19.186-31.666-8.3-8.121-17.986-13.868-29.599-17.562-8.46-2.691-24.779-3.316-34.622-1.324-13.797 2.791-25.593 9.041-35.97 19.06L256 58.307l-5.781-5.581c-10.194-9.842-22.103-16.224-35.356-18.948-7.064-1.451-22.383-1.677-28.772-.424m22.294 31.597c14.074 2.96 26.539 14.75 30.086 28.455 1.027 3.97 1.316 10.124 1.316 28.042v22.956l-24.107-.38c-22.657-.357-24.415-.498-29.227-2.354-10.048-3.876-18.276-11.527-22.957-21.35-2.52-5.289-2.643-6.044-2.643-16.258 0-10.629.024-10.759 3.149-17.066 8.432-17.019 26.236-25.862 44.383-22.045m113.264.368c11.156 2.63 20.873 10.623 26.349 21.677 3.125 6.307 3.149 6.437 3.149 17.066 0 10.214-.123 10.969-2.643 16.258-4.681 9.823-12.909 17.474-22.957 21.35-4.812 1.856-6.57 1.997-29.227 2.354l-24.107.38v-22.956c0-25.607.585-29.71 5.37-37.697 9.138-15.251 26.59-22.551 44.066-18.432m-81.862 150.574V256h-73.544c-73.2 0-73.562-.008-77.283-1.81-2.251-1.09-4.651-3.187-6.03-5.269l-2.29-3.459-.258-27.371c-.142-15.054-.027-28.627.255-30.163.544-2.957 4.574-8.143 7.587-9.762.991-.533 2.955-1.247 4.363-1.587 1.408-.34 35.104-.657 74.88-.705l72.32-.087v40.106m183.126-38.23c3.788 2.075 7.851 7.011 8.45 10.265.282 1.536.397 15.109.255 30.163l-.258 27.371-2.29 3.459c-1.379 2.082-3.779 4.179-6.03 5.269-3.721 1.802-4.083 1.81-77.283 1.81h-73.544v-80.259l74.027.236c67.774.216 74.25.359 76.673 1.686M239.787 368.239v79.812l-51.84-.239-51.84-.239-4.88-2.287c-10.073-4.721-17.074-14.009-18.62-24.705-.432-2.989-.794-33.946-.803-68.794l-.017-63.36h128v79.812m160.409-16.452c-.009 34.848-.366 65.775-.793 68.726-1.529 10.576-8.046 19.465-17.786 24.261l-5.685 2.799-51.859.239-51.86.239V288.427h128l-.017 63.36" fill-rule="evenodd"/></svg>