<svg xmlns="http://www.w3.org/2000/svg" width="512" height="512"><path d="M147.191 33.242c-48.737 10.431-67.769 69.922-33.889 105.936 3.479 3.698 8.209 7.945 10.511 9.437l4.187 2.712v209.346l-4.187 2.712c-2.302 1.492-7.117 5.828-10.698 9.636-11.139 11.84-16.889 26.472-16.889 42.979 0 24.472 13.881 46.77 35.59 57.171 10.246 4.908 17.62 6.642 28.184 6.627 10.77-.016 18.317-1.784 28.16-6.599 13.42-6.565 22.539-15.699 28.988-29.039 2.043-4.224 4.377-10.368 5.187-13.653 1.972-7.992 1.972-21.227.002-29.014-1.718-6.787-6.851-18.173-10.195-22.613-3.669-4.871-12.152-13.118-15.824-15.384-4.091-2.524-4.352-4.434-1.458-10.649 5.266-11.309 18.637-17.011 61.14-26.073 51.342-10.947 69.2-17.633 90.027-33.706 21.798-16.823 34.404-41.028 37.527-72.055.549-5.452.628-5.594 4.637-8.335 4.386-2.998 12.294-10.713 15.948-15.558 3.363-4.46 8.488-15.847 10.177-22.613 1.952-7.816 1.945-21.08-.015-29.014-4.618-18.695-17.208-34.417-34.141-42.635-9.603-4.661-17.505-6.431-28.701-6.431-10.389 0-17.339 1.538-26.766 5.924-13.156 6.122-23.489 16.332-29.845 29.489-4.871 10.084-6.622 17.53-6.622 28.16 0 21.284 9.919 40.064 27.99 52.997l3.469 2.483-1.008 5.982c-2.543 15.094-11.955 24.376-31.957 31.518-8.128 2.902-24.846 7.094-46.08 11.555-18.578 3.903-32.276 7.391-41.749 10.631-3.485 1.192-6.461 2.167-6.614 2.167-.152 0-.277-28.416-.277-63.146 0-34.731.298-63.147.663-63.147 1.428 0 12.133-9.233 16.324-14.08 5.21-6.025 11.271-18.036 13.349-26.453.9-3.649 1.474-9.295 1.474-14.507 0-10.587-1.749-17.992-6.651-28.16-7.61-15.782-20.428-26.874-37.987-32.868-4.359-1.488-7.94-1.945-17.039-2.173-6.336-.159-13.06.04-14.942.443m25.814 33.72c6.517 2.971 13.138 9.596 16.14 16.149 2.047 4.469 2.387 6.3 2.394 12.889.006 6.614-.322 8.391-2.367 12.8-3.112 6.711-9.685 13.316-16.283 16.366-4.494 2.077-6.264 2.407-12.889 2.407-6.622 0-8.385-.329-12.8-2.388-6.743-3.145-13.327-9.709-16.345-16.296-2.047-4.469-2.387-6.3-2.394-12.889-.006-6.615.322-8.39 2.368-12.8 4.073-8.778 12.682-16.05 21.701-18.328 5.477-1.384 14.986-.413 20.475 2.09m192 64c6.517 2.971 13.138 9.596 16.14 16.149 2.047 4.469 2.387 6.3 2.394 12.889.006 6.614-.322 8.391-2.367 12.8-3.112 6.711-9.685 13.316-16.283 16.366-4.494 2.077-6.264 2.407-12.889 2.407-6.622 0-8.385-.329-12.8-2.388-6.743-3.145-13.327-9.709-16.345-16.296-2.047-4.469-2.387-6.3-2.394-12.889-.006-6.615.322-8.39 2.368-12.8 4.073-8.778 12.682-16.05 21.701-18.328 5.477-1.384 14.986-.413 20.475 2.09m-192 256c6.517 2.971 13.138 9.596 16.14 16.149 2.047 4.469 2.387 6.3 2.394 12.889.006 6.614-.322 8.391-2.367 12.8-3.112 6.711-9.685 13.316-16.283 16.366-4.494 2.077-6.264 2.407-12.889 2.407-6.622 0-8.385-.329-12.8-2.388-6.743-3.145-13.327-9.709-16.345-16.296-2.047-4.469-2.387-6.3-2.394-12.889-.006-6.615.322-8.39 2.368-12.8 4.073-8.778 12.682-16.05 21.701-18.328 5.477-1.384 14.986-.413 20.475 2.09" fill-rule="evenodd"/></svg>