<svg xmlns="http://www.w3.org/2000/svg" width="512" height="512"><path d="M112.055 34.075C90.191 39.994 73.324 56.308 66.556 78.08c-2.521 8.109-3.168 21.808-1.419 30.019 2.782 13.054 8.228 23.166 17.636 32.744 10.898 11.095 23.194 16.864 40.344 18.929l8.985 1.081 45.736 52.186 45.735 52.187v95.584l-5.464 3.9c-19.569 13.964-29.474 39.099-24.877 63.128 2.478 12.948 7.945 23.235 17.541 33.005 25.047 25.5 65.407 25.5 90.454 0 9.596-9.77 15.063-20.057 17.541-33.005 4.597-24.029-5.308-49.164-24.877-63.128l-5.464-3.9v-96.726l45.655-52.042c25.11-28.623 46.086-51.93 46.612-51.794 2.335.607 17.483-1.715 23.351-3.578 19.616-6.23 34.947-22.181 41.517-43.198 2.849-9.115 2.837-25.676-.025-34.965-5.41-17.561-17.403-31.939-32.997-39.56-9.472-4.629-14.294-5.794-26.012-6.285-9.067-.38-11.783-.174-17.814 1.351-18.56 4.693-33.467 16.723-41.919 33.827-5.138 10.398-6.376 16.075-6.325 29.013.04 10.21.262 11.731 2.791 19.088l2.747 7.994-3.751 4.379c-2.063 2.409-17.939 20.547-35.281 40.308l-31.531 35.93-35.015-40.036-35.015-40.035 1.951-4.854c4.804-11.947 5.787-27.378 2.538-39.84-5.447-20.897-22.632-38.568-43.984-45.228-7.455-2.325-26.08-2.592-33.865-.484m27.038 32.04c8.459 2.979 15.424 10.046 18.819 19.095 2.791 7.441 2.162 17.483-1.57 25.06-3.265 6.627-8.622 11.808-15.542 15.03-3.999 1.862-5.892 2.185-12.8 2.185s-8.801-.323-12.8-2.185c-6.92-3.222-12.277-8.403-15.542-15.03-3.759-7.63-4.364-17.613-1.526-25.178 5.001-13.331 17.696-21.658 31.575-20.709 3.05.209 7.274.988 9.386 1.732m256 0c8.459 2.979 15.424 10.046 18.819 19.095 2.791 7.441 2.162 17.483-1.57 25.06-3.265 6.627-8.622 11.808-15.542 15.03-3.999 1.862-5.892 2.185-12.8 2.185s-8.801-.323-12.8-2.185c-6.92-3.222-12.277-8.403-15.542-15.03-3.759-7.63-4.364-17.613-1.526-25.178 5.001-13.331 17.696-21.658 31.575-20.709 3.05.209 7.274.988 9.386 1.732m-128 320c8.459 2.979 15.424 10.046 18.819 19.095 2.791 7.441 2.162 17.483-1.57 25.06-3.265 6.627-8.622 11.808-15.542 15.03-3.999 1.862-5.892 2.185-12.8 2.185s-8.801-.323-12.8-2.185c-6.92-3.222-12.277-8.403-15.542-15.03-3.759-7.63-4.364-17.613-1.526-25.178 5.001-13.331 17.696-21.658 31.575-20.709 3.05.209 7.274.988 9.386 1.732" fill-rule="evenodd"/></svg>