<svg xmlns="http://www.w3.org/2000/svg" width="512" height="512"><path d="M297.387 17.565c-1.408.76-18.018 16.798-36.911 35.641-35.23 35.137-36.22 36.307-36.22 42.794 0 6.516.949 7.635 37.078 43.688 31.043 30.977 35.584 35.195 38.453 35.717 7.921 1.44 15.275-1.902 18.403-8.365 1.666-3.442 1.81-5.145 1.81-21.464V127.85l13.44.288c12.402.266 13.803.461 18.133 2.518 5.65 2.684 10.467 7.36 13.525 13.131l2.262 4.266.226 106.303.227 106.302-4.705 3.241c-10.431 7.183-19.562 19.518-24.041 32.474-2.166 6.265-2.362 7.881-2.375 19.627-.014 12.174.116 13.166 2.642 20.276 3.448 9.705 7.113 15.775 13.937 23.078 12.815 13.716 28.466 20.522 46.942 20.415 14.918-.087 27.655-4.464 39.141-13.451 13.205-10.332 21.628-25.179 24.139-42.548 1.945-13.451-2.08-30.786-9.929-42.757-3.929-5.992-12.483-14.609-17.916-18.045l-3.818-2.416-.253-110.089-.252-110.09-2.346-8.015c-9.952-34.016-35.654-58.458-69.726-66.309-3.327-.767-12.289-1.479-22.4-1.781L320 63.766V46.233c0-20.201-.748-23.112-7.007-27.254-4.261-2.819-11.744-3.497-15.606-1.414M97.541 33.664c-2.908.658-8.476 2.702-12.374 4.543-20.628 9.742-33.613 27.618-36.655 50.463-2.874 21.587 7.902 46.584 25.224 58.515l4.692 3.231.305 108.472c.331 117.905.049 110.802 4.998 125.954 8.878 27.184 30.882 49.214 58.311 58.382 10.61 3.546 19.66 4.776 35.136 4.776h13.969v17.954c0 15.934.181 18.31 1.616 21.12 1.995 3.911 3.934 5.706 7.987 7.4 4.262 1.781 9.441 1.651 13.257-.332 4.091-2.125 70.625-68.844 71.813-72.011 1.155-3.082 1.155-9.18 0-12.262-1.341-3.576-67.854-70.054-72.06-72.021-4.171-1.952-8.834-2.067-13.01-.322-4.053 1.694-5.992 3.489-7.987 7.4-1.435 2.811-1.616 5.187-1.616 21.179v18.012l-13.532-.272-13.532-.272-5.849-2.986c-4.256-2.173-6.728-4.15-9.073-7.254-6.196-8.202-5.801-.255-5.801-116.6V151.957l4.933-3.35c10.677-7.251 20.078-19.83 24.647-32.98 2.192-6.31 2.37-7.797 2.344-19.627-.026-11.688-.232-13.393-2.37-19.627-3.461-10.092-8.385-17.837-16.276-25.6-8.101-7.97-13.833-11.575-24.148-15.189-6.616-2.317-8.754-2.647-18.57-2.867-7.293-.164-12.904.161-16.379.947m27.437 33.197c20.58 9.421 25.218 36.922 8.815 52.265-14.602 13.659-37.671 10.955-48.42-5.675-11.997-18.562-2.201-43.129 19.37-48.579 5.374-1.357 14.99-.413 20.235 1.989m288.457 320.425c10.742 5.026 17.427 14.644 18.164 26.131.518 8.067-.882 13.706-4.972 20.034-10.749 16.63-33.818 19.334-48.42 5.675-12.652-11.834-13.345-31.929-1.543-44.733 9.468-10.272 24.004-13.082 36.771-7.107" fill-rule="evenodd"/></svg>