<svg xmlns="http://www.w3.org/2000/svg" width="512" height="512"><path d="M261.419 52.48c-24.006 23.467-43.59 43.051-43.52 43.52.07.469 19.712 20.053 43.648 43.52l43.52 42.667.225-27.149.225-27.148 20.682.268c20.263.263 20.776.314 25.374 2.498 5.65 2.684 10.467 7.36 13.525 13.131l2.262 4.266.226 106.303.227 106.302-4.705 3.241c-10.431 7.183-19.562 19.518-24.041 32.474-2.166 6.265-2.362 7.881-2.375 19.627-.014 12.174.116 13.166 2.642 20.276 3.448 9.705 7.113 15.775 13.937 23.078 12.815 13.716 28.466 20.522 46.942 20.415 14.918-.087 27.655-4.464 39.141-13.451 13.205-10.332 21.628-25.179 24.139-42.548 1.945-13.451-2.08-30.786-9.929-42.757-3.929-5.992-12.483-14.609-17.916-18.045l-3.818-2.416-.253-110.089-.252-110.09-2.346-8.015c-9.953-34.02-35.375-58.208-69.726-66.345-4.001-.947-12.261-1.438-29.641-1.759l-24.095-.445-.225-26.998-.225-26.998-43.648 42.667M97.433 34.087c-22.197 5.451-40.36 23.429-46.354 45.882-2.429 9.098-2.443 22.915-.031 31.94 3.915 14.654 13.478 28.42 25.477 36.676l3.645 2.507.253 110.267.252 110.268 2.346 8.015c8.792 30.05 29.793 52.721 58.266 62.897 12.981 4.64 19.789 5.461 45.278 5.461h22.502l.04 27.52.041 27.52 22.163-22.613a22960.69 22960.69 0 0 0 42.549-43.549l20.386-20.936-42.376-43.369-42.377-43.368-.225 27.45-.225 27.45-21.962-.266c-21.649-.262-22.028-.297-26.654-2.495-5.65-2.684-10.467-7.36-13.525-13.131l-2.262-4.266-.226-105.973-.227-105.972 4.678-3.105c6.588-4.373 16.539-15.313 20.252-22.265 10.052-18.822 10.242-40.537.525-60.072-2.932-5.897-5.129-8.775-11.745-15.391-6.615-6.615-9.494-8.812-15.39-11.745-3.99-1.984-10.291-4.37-14.004-5.302-8.689-2.182-22.266-2.198-31.07-.035m28.398 32.774c13.331 6.103 21.044 20.499 18.469 34.473-.564 3.063-1.817 7.12-2.784 9.015-2.885 5.655-9.588 12.059-15.46 14.772-4.603 2.126-6.331 2.452-12.989 2.452-6.822 0-8.3-.295-13.227-2.64-7.052-3.358-12.352-8.659-15.702-15.706-2.34-4.924-2.636-6.41-2.636-13.227s.296-8.303 2.636-13.227c4.228-8.894 12.23-15.569 21.459-17.901 5.374-1.357 14.989-.413 20.234 1.989m287.604 320.425c10.742 5.026 17.427 14.644 18.164 26.131.518 8.067-.882 13.706-4.972 20.034-10.749 16.63-33.818 19.334-48.42 5.675-12.652-11.834-13.345-31.929-1.543-44.733 9.468-10.272 24.004-13.082 36.771-7.107" fill-rule="evenodd"/></svg>