<svg xmlns="http://www.w3.org/2000/svg" width="512" height="512"><path d="M297.387 17.537c-3.287 1.686-70.072 68.246-71.858 71.616-1.73 3.264-1.73 10.43 0 13.694 1.969 3.715 69.721 70.994 72.553 72.047 9.538 3.545 20.57-3.102 21.694-13.071.83-7.361-.247-8.88-21.397-30.196l-19.685-19.84 31.106.017c17.109.009 33.795.395 37.08.857 17.331 2.437 32.978 17.486 36.254 34.869.555 2.947.866 40.8.866 105.465v100.868l-3.627 1.066c-13.928 4.095-30.469 18.174-37.162 31.631-4.925 9.901-6.998 18.622-6.998 29.44 0 10.818 2.073 19.539 6.998 29.44 2.931 5.893 5.134 8.781 11.745 15.397 13.466 13.476 26.403 18.867 45.257 18.86 8.072-.002 11.177-.401 17.494-2.246 21.371-6.242 37.979-22.979 44.08-44.423 2.729-9.59 2.729-24.466 0-34.056-5.643-19.833-20.932-36.328-39.992-43.146l-5.298-1.896-.296-103.792c-.266-93.326-.439-104.382-1.718-109.653-6.553-26.997-24.68-47.558-49.41-56.043-11.209-3.846-15.78-4.215-52.286-4.222l-34.093-.007 19.685-19.84c21.15-21.316 22.227-22.835 21.397-30.196-1.161-10.3-13.438-17.231-22.389-12.64M95.573 34.183c-21.552 5.599-39.155 22.979-45.36 44.789-2.729 9.59-2.729 24.466 0 34.056 5.507 19.357 20.863 36.243 38.895 42.771l5.185 1.878.443 104.841.442 104.842 1.887 6.68c8.384 29.692 30.145 50.372 59.355 56.405 5.285 1.092 12.975 1.342 41.297 1.342h34.802L213.144 451.2c-19.859 19.899-21.997 22.698-21.997 28.8 0 3.433 1.901 8.524 4.086 10.94 3.823 4.228 12.158 6.073 17.831 3.946 3.064-1.148 70.653-68.549 72.371-72.169 1.493-3.146 1.68-9.393.385-12.848-1.188-3.167-67.722-69.886-71.813-72.011-5.776-3.001-14.512-1.511-18.774 3.202-2.185 2.416-4.086 7.507-4.086 10.94 0 6.102 2.138 8.901 21.997 28.8l19.375 19.413-32.419-.014c-35.122-.017-40.172-.502-48.714-4.681-5.887-2.88-14.611-11.062-18.244-17.11-6.187-10.299-5.891-4.425-5.946-118.26l-.049-102.091 2.971-.558c1.634-.306 6.53-2.335 10.88-4.507 6.647-3.319 9.207-5.254 16.046-12.124 6.59-6.62 8.823-9.554 11.745-15.428 4.925-9.901 6.998-18.622 6.998-29.44 0-10.818-2.073-19.539-6.998-29.44-2.931-5.894-5.133-8.78-11.745-15.396-6.874-6.878-9.396-8.77-16.244-12.186-4.48-2.235-10.779-4.598-14.08-5.283-8.616-1.787-23.272-1.557-31.147.488m24.019 30.978c12.435 2.927 21.972 13.339 23.724 25.899 3.887 27.883-26.153 46.898-49.29 31.2-16.301-11.059-18.576-34.589-4.687-48.478 8.226-8.226 18.949-11.282 30.253-8.621m293.151 321.787c6.159 2.82 10.057 6.075 13.571 11.332 9.723 14.544 6.074 33.991-8.23 43.866-23.014 15.889-53.257-3.122-49.412-31.06 1.693-12.306 11.168-22.835 23.335-25.933 6.065-1.545 15.161-.757 20.736 1.795" fill-rule="evenodd"/></svg>