<svg xmlns="http://www.w3.org/2000/svg" width="512" height="512"><path d="M112.213 34.056c-24.604 6.709-42.285 25.567-46.981 50.106-4.635 24.23 5.517 49.558 25.613 63.898l5.329 3.803.537 6.357c1.524 18.031 8.666 39.944 18.153 55.697 20.156 33.47 54.941 57.843 97.986 68.656l10.723 2.693v75.544l-5.464 3.9c-19.569 13.964-29.474 39.099-24.877 63.128 2.478 12.948 7.945 23.235 17.541 33.005 25.047 25.5 65.407 25.5 90.454 0 9.596-9.77 15.063-20.057 17.541-33.005 4.597-24.029-5.308-49.164-24.877-63.128l-5.464-3.9v-75.544l10.723-2.693c48.693-12.232 86.954-42.052 104.715-81.613 5.805-12.93 10.336-29.871 11.42-42.699l.534-6.316 5.801-4.313c17.63-13.11 27.22-33.027 26.095-54.192-.581-10.919-2.157-16.838-7.142-26.818-7.197-14.409-20.285-25.627-36.606-31.376-6.259-2.205-7.684-2.375-19.967-2.375-12.283 0-13.708.17-19.967 2.375-18.294 6.444-32.4 19.777-39.487 37.323-4.729 11.707-5.688 27.224-2.45 39.644 1.811 6.951 7.254 17.741 11.914 23.621 3.524 4.447 10.935 11.214 15.717 14.353 1.885 1.237 1.919 1.477 1.01 7.156-5.207 32.545-33.866 57.222-75.537 65.042-10.868 2.039-28.983 1.876-40.197-.363-23.288-4.648-41.631-14.037-55.227-28.269-10.193-10.668-16.323-22.725-18.513-36.41-.909-5.679-.875-5.919 1.01-7.156 4.782-3.139 12.193-9.906 15.717-14.353 16.64-20.996 18.397-49.649 4.499-73.352-3.91-6.668-14.509-17.098-21.683-21.336-10.327-6.101-17.774-8.122-31.099-8.442-9.311-.224-12.666.035-17.494 1.352m26.88 32.059c8.459 2.979 15.424 10.046 18.819 19.095 2.791 7.441 2.162 17.483-1.57 25.06-3.265 6.627-8.622 11.808-15.542 15.03-3.999 1.862-5.892 2.185-12.8 2.185s-8.801-.323-12.8-2.185c-6.92-3.222-12.277-8.403-15.542-15.03-3.759-7.63-4.364-17.613-1.526-25.178 5.001-13.331 17.696-21.658 31.575-20.709 3.05.209 7.274.988 9.386 1.732m256 0c8.459 2.979 15.424 10.046 18.819 19.095 2.791 7.441 2.162 17.483-1.57 25.06-3.265 6.627-8.622 11.808-15.542 15.03-3.999 1.862-5.892 2.185-12.8 2.185s-8.801-.323-12.8-2.185c-6.92-3.222-12.277-8.403-15.542-15.03-3.759-7.63-4.364-17.613-1.526-25.178 5.001-13.331 17.696-21.658 31.575-20.709 3.05.209 7.274.988 9.386 1.732m-128 320c8.459 2.979 15.424 10.046 18.819 19.095 2.791 7.441 2.162 17.483-1.57 25.06-3.265 6.627-8.622 11.808-15.542 15.03-3.999 1.862-5.892 2.185-12.8 2.185s-8.801-.323-12.8-2.185c-6.92-3.222-12.277-8.403-15.542-15.03-3.759-7.63-4.364-17.613-1.526-25.178 5.001-13.331 17.696-21.658 31.575-20.709 3.05.209 7.274.988 9.386 1.732" fill-rule="evenodd"/></svg>