<svg xmlns="http://www.w3.org/2000/svg" width="512" height="512"><path d="M243.627 128.503c-19.556 2.805-31.957 6.553-46.426 14.032-29.324 15.157-51.31 40.694-62.332 72.4L131.718 224l-38.339.427-38.339.426-4.722 2.319c-5.903 2.899-12.176 9.094-14.949 14.763-9.438 19.29 2.568 42.144 23.981 45.651 2.792.457 20.275.833 38.85.836l33.774.005 2.669 8.079c12.727 38.528 43.54 69.049 82.104 81.327 15.361 4.891 21.079 5.725 39.253 5.725s23.892-.834 39.253-5.725c38.676-12.313 69.339-42.684 82.101-81.319l2.672-8.087 33.774-.005c18.575-.003 36.058-.379 38.85-.836 21.413-3.507 33.419-26.361 23.981-45.651-2.773-5.669-9.046-11.864-14.949-14.763l-4.722-2.319-38.34-.426-38.341-.427-3.139-9.147c-10.941-31.886-33.009-57.336-63.03-72.692-17.994-9.205-33.771-13.153-54.697-13.688-7.274-.186-14.378-.172-15.786.03m28.508 65.562c7.176 1.967 17.887 7.473 23.821 12.244C310.49 217.998 320 237.652 320 256c0 24.841-16.468 49.484-39.383 58.933-32.102 13.238-67.487-.549-82.265-32.053-4.817-10.268-5.907-15.231-5.907-26.88s1.09-16.612 5.907-26.88c8.93-19.037 26.438-32.537 47.045-36.274 5.7-1.034 21.074-.333 26.738 1.219" fill-rule="evenodd"/></svg>