<svg xmlns="http://www.w3.org/2000/svg" width="512" height="512"><path d="M112.213 34.056c-18.477 5.038-32.744 16.459-40.859 32.71-4.758 9.528-6.436 15.649-7.077 25.821-1.339 21.226 8.672 42.363 26.061 55.026l5.235 3.812V360.81l-5.464 3.9c-19.569 13.964-29.474 39.099-24.877 63.128 2.478 12.948 7.945 23.235 17.541 33.005 25.047 25.5 65.407 25.5 90.454 0 13.219-13.458 19.635-30.198 18.496-48.256-.616-9.779-2.301-16.185-6.507-24.747-5.106-10.394-10.986-17.075-22.533-25.6l-2.311-1.707.241-68.328.24-68.328 79.787 35.652c76.704 34.275 79.797 35.744 80.053 38.035.52 4.645 3.781 14.405 6.641 19.876 11.152 21.331 32.269 34.121 56.666 34.319 24.375.199 46.239-13.408 57.205-35.599 4.923-9.965 6.307-16.11 6.34-28.16.033-11.992-1.307-17.957-6.325-28.16-7.818-15.897-22.031-27.931-39.3-33.277-2.822-.874-8.959-1.632-15.392-1.901-9.014-.378-11.797-.171-17.681 1.317-6.871 1.738-17.96 6.686-20.914 9.333-1.395 1.25-4.445.04-40.96-16.255-124.88-55.727-146.142-65.378-146.355-66.434-.13-.641 2.13-2.888 5.021-4.994 19.834-14.443 29.727-39.431 25.129-63.467-2.484-12.979-8.022-23.408-17.541-33.033-7.336-7.416-15.379-12.47-25.174-15.816-9.266-3.166-26.608-3.775-35.84-1.257m26.88 32.059c8.459 2.979 15.424 10.046 18.819 19.095 2.791 7.441 2.162 17.483-1.57 25.06-3.265 6.627-8.622 11.808-15.542 15.03-3.999 1.862-5.892 2.185-12.8 2.185s-8.801-.323-12.8-2.185c-6.92-3.222-12.277-8.403-15.542-15.03-3.759-7.63-4.364-17.613-1.526-25.178 5.001-13.331 17.696-21.658 31.575-20.709 3.05.209 7.274.988 9.386 1.732m256 192c8.459 2.979 15.424 10.046 18.819 19.095 2.791 7.441 2.162 17.483-1.57 25.06-3.265 6.627-8.622 11.808-15.542 15.03-3.999 1.862-5.892 2.185-12.8 2.185s-8.801-.323-12.8-2.185c-6.92-3.222-12.277-8.403-15.542-15.03-3.759-7.63-4.364-17.613-1.526-25.178 5.001-13.331 17.696-21.658 31.575-20.709 3.05.209 7.274.988 9.386 1.732m-256 128c8.459 2.979 15.424 10.046 18.819 19.095 2.791 7.441 2.162 17.483-1.57 25.06-3.265 6.627-8.622 11.808-15.542 15.03-3.999 1.862-5.892 2.185-12.8 2.185s-8.801-.323-12.8-2.185c-6.92-3.222-12.277-8.403-15.542-15.03-3.759-7.63-4.364-17.613-1.526-25.178 5.001-13.331 17.696-21.658 31.575-20.709 3.05.209 7.274.988 9.386 1.732" fill-rule="evenodd"/></svg>