<svg xmlns="http://www.w3.org/2000/svg" width="512" height="512"><path d="M281.173 17.851c-4.772 2.238-69.848 67.573-71.649 71.935-1.744 4.221-1.627 8.874.327 13.041 2.238 4.772 67.573 69.848 71.935 71.649 4.038 1.668 8.402 1.667 12.397-.002 4.053-1.694 5.992-3.489 7.988-7.4 1.435-2.811 1.616-5.187 1.616-21.195V127.85l13.53.288 13.53.289 5.851 2.986c4.258 2.174 6.729 4.149 9.074 7.254 6.198 8.203 5.801.213 5.801 116.983v105.16l-5.464 3.9c-19.569 13.964-29.474 39.099-24.877 63.128 2.478 12.948 7.945 23.235 17.541 33.005 25.047 25.5 65.407 25.5 90.454 0 9.596-9.77 15.063-20.057 17.541-33.005 4.597-24.029-5.308-49.164-24.877-63.128l-5.464-3.9-.015-102.538c-.009-61.126-.354-105.756-.854-110.506-2.974-28.229-17.52-52.769-40.143-67.723-18.227-12.047-32.775-16.028-58.615-16.038L303.787 64V46.046c0-15.934-.182-18.31-1.616-21.12-1.996-3.911-3.935-5.706-7.988-7.4-4.179-1.746-8.841-1.629-13.01.325M111.827 34.139C87.834 40.597 69.88 59.873 65.232 84.162c-4.605 24.069 5.259 48.998 25.106 63.451l5.235 3.812V360.81l-5.464 3.9c-19.569 13.964-29.474 39.099-24.877 63.128 2.478 12.948 7.945 23.235 17.541 33.005 25.047 25.5 65.407 25.5 90.454 0 9.596-9.77 15.063-20.057 17.541-33.005 4.597-24.029-5.308-49.164-24.877-63.128l-5.464-3.9V151.425l5.235-3.812c17.317-12.611 27.173-33.104 26.053-54.173-.581-10.919-2.157-16.838-7.142-26.818-7.215-14.446-20.434-25.756-36.606-31.322-5.77-1.986-8.399-2.36-18.26-2.596-9.468-.228-12.654.028-17.88 1.435m27.266 31.976c8.459 2.979 15.424 10.046 18.819 19.095 2.791 7.441 2.162 17.483-1.57 25.06-3.265 6.627-8.622 11.808-15.542 15.03-3.999 1.862-5.892 2.185-12.8 2.185s-8.801-.323-12.8-2.185c-6.92-3.222-12.277-8.403-15.542-15.03-3.759-7.63-4.364-17.613-1.526-25.178 5.001-13.331 17.696-21.658 31.575-20.709 3.05.209 7.274.988 9.386 1.732m0 320c8.459 2.979 15.424 10.046 18.819 19.095 2.791 7.441 2.162 17.483-1.57 25.06-3.265 6.627-8.622 11.808-15.542 15.03-3.999 1.862-5.892 2.185-12.8 2.185s-8.801-.323-12.8-2.185c-6.92-3.222-12.277-8.403-15.542-15.03-3.759-7.63-4.364-17.613-1.526-25.178 5.001-13.331 17.696-21.658 31.575-20.709 3.05.209 7.274.988 9.386 1.732m256 0c8.459 2.979 15.424 10.046 18.819 19.095 2.791 7.441 2.162 17.483-1.57 25.06-3.265 6.627-8.622 11.808-15.542 15.03-3.999 1.862-5.892 2.185-12.8 2.185s-8.801-.323-12.8-2.185c-6.92-3.222-12.277-8.403-15.542-15.03-3.759-7.63-4.364-17.613-1.526-25.178 5.001-13.331 17.696-21.658 31.575-20.709 3.05.209 7.274.988 9.386 1.732" fill-rule="evenodd"/></svg>