<svg xmlns="http://www.w3.org/2000/svg" width="512" height="512"><path d="M112.64 34.183c-17.599 4.572-32.887 17.12-41.005 33.657-4.204 8.564-5.888 14.971-6.505 24.747-1.124 17.823 5.177 34.493 18.07 47.809 7.087 7.318 14.546 12.318 23.156 15.52l6.284 2.337v195.743l-4.48 1.442c-9.982 3.213-21.102 10.986-28.488 19.912-17.394 21.022-19.493 50.318-5.308 74.081 3.817 6.395 13.545 16.32 20.184 20.592 10.606 6.826 20.942 9.709 34.732 9.686 18.201-.029 31.431-5.54 44.373-18.482 8.632-8.632 13.026-15.489 16.406-25.6 2.068-6.189 2.281-8.023 2.281-19.627s-.213-13.438-2.281-19.627c-1.255-3.754-3.732-9.273-5.504-12.264-7.75-13.08-22.677-25.219-35.862-29.161l-3.626-1.085V230.13l9.173 8.941c15.382 14.994 30.296 25.219 52.693 36.127 30.552 14.88 66.012 24.294 104.534 27.753 5.866.527 10.908 1.218 11.203 1.537.296.318 1.014 2.115 1.597 3.992 1.743 5.613 6.551 14.191 11.115 19.831 13.799 17.054 34.872 25.655 56.837 23.198 15.229-1.704 26.784-7.388 37.861-18.624 8.229-8.346 12.676-15.376 15.979-25.258 2.068-6.189 2.281-8.023 2.281-19.627s-.213-13.438-2.281-19.627c-5.607-16.776-18.552-31.171-34.918-38.829-15.421-7.217-38.33-6.863-54.072.835-14.805 7.239-28.586 22.908-32.854 37.354-1.013 3.429-1.246 3.627-4.26 3.627-15.934 0-49.799-6.404-70.782-13.386-58.236-19.377-95.015-54.041-102.738-96.831-.561-3.111-.548-3.128 3.514-4.49 8.467-2.84 16.669-8.199 24.131-15.768 8.229-8.346 12.676-15.376 15.979-25.258 2.068-6.189 2.281-8.023 2.281-19.627s-.213-13.438-2.281-19.627c-6.997-20.935-25.898-38.335-46.347-42.667-8.488-1.798-23.182-1.572-31.072.477m23.211 30.775c6.417 1.361 10.577 3.697 15.551 8.735 5.27 5.337 8.252 11.181 8.948 17.534 1.153 10.52-1.334 18.782-7.899 26.239-13.555 15.4-38.292 13.434-49.911-3.966-4.153-6.22-5.595-11.93-5.072-20.083 1.227-19.116 19.287-32.506 38.383-28.459m256 192c6.417 1.361 10.577 3.697 15.551 8.735 5.27 5.337 8.252 11.181 8.948 17.534 1.153 10.52-1.334 18.782-7.899 26.239-13.555 15.4-38.292 13.434-49.911-3.966-4.153-6.22-5.595-11.93-5.072-20.083 1.227-19.116 19.287-32.506 38.383-28.459m-256 128c6.417 1.361 10.577 3.697 15.551 8.735 5.27 5.337 8.252 11.181 8.948 17.534 1.153 10.52-1.334 18.782-7.899 26.239-13.555 15.4-38.292 13.434-49.911-3.966-4.153-6.22-5.595-11.93-5.072-20.083 1.227-19.116 19.287-32.506 38.383-28.459" fill-rule="evenodd"/></svg>