<svg xmlns="http://www.w3.org/2000/svg" width="512" height="512"><path d="M117.36 169.064c-20.46 1.568-39.543 5.906-52.411 11.914-6.403 2.989-7.861 3.342-13.812 3.342-7.572 0-10.433.847-13.88 4.108-4.883 4.62-6.285 10.659-4.047 17.438 1.352 4.097 6.928 8.885 11.185 9.604l3.27.553.461 5.268c.253 2.898.689 9.877.968 15.509 2.59 52.228 17.179 83.64 45.199 97.315 15.184 7.41 32.107 10.318 55.371 9.514 39.686-1.372 62.215-14.232 76.003-43.382 6.753-14.276 9.499-26.76 13.638-61.994.733-6.241 1.896-12.435 2.583-13.765 4.116-7.96 15.331-10.775 22.818-5.729 5.984 4.032 7.002 7.334 9.247 29.988 3.579 36.115 12.794 60.03 28.777 74.686 14.527 13.32 32.003 19.241 59.606 20.196 55.705 1.926 85.016-19.228 95.835-69.166 2.272-10.482 4.114-25.136 4.735-37.663.279-5.632.715-12.611.968-15.509l.461-5.268 3.27-.553c4.257-.719 9.833-5.507 11.185-9.604 2.238-6.779.836-12.818-4.047-17.438-3.447-3.261-6.308-4.108-13.88-4.108-5.953 0-7.407-.352-13.812-3.345-17.911-8.37-45.44-12.861-78.838-12.861-39.46 0-72.376 6.563-87.536 17.455l-4.05 2.909-4.554-1.843c-3.885-1.572-6.243-1.843-16.073-1.843s-12.188.271-16.073 1.843l-4.554 1.843-4.05-2.909c-11.612-8.343-35.213-14.577-62.79-16.585-13.738-1.001-37.552-.963-51.173.08m55.687 32.362c13.887 1.496 30.808 5.199 33.934 7.426 1.229.875.053 30.008-1.788 44.298-4.519 35.078-14.402 50.577-35.806 56.158-8.859 2.31-24.736 3.315-35.603 2.254-17.683-1.727-27.214-5.384-34.723-13.323-11.429-12.084-17.727-38.003-18.227-74.999l-.194-14.414 4.693-1.61c6.176-2.119 19.312-4.773 28.252-5.707 10.311-1.078 49.717-1.133 59.462-.083m236.126 1.545c5.163.951 12.267 2.637 15.787 3.747l6.4 2.017-.154 13.179c-.184 15.856-1.498 30.521-3.814 42.599-5.186 27.038-15.03 39.857-34.405 44.804-13.606 3.473-37.033 3.469-50.374-.009-21.367-5.572-31.288-21.094-35.784-55.987-1.877-14.568-3.078-43.614-1.839-44.469 3.007-2.075 16.744-5.266 30.37-7.055 14.172-1.861 61.417-1.11 73.813 1.174" fill-rule="evenodd"/></svg>