<svg xmlns="http://www.w3.org/2000/svg" width="512" height="512"><path d="M235.947 32.121c-20.829 2.374-33.503 4.921-48.824 9.812-33.937 10.834-64.821 29.682-90.164 55.026-51.828 51.827-74.673 124.053-62.317 197.014 7.533 44.48 29.84 87.174 62.643 119.894 46.658 46.539 106.42 69.628 171.942 66.429 73.512-3.589 141.716-44.95 180.039-109.181 27.01-45.271 37.154-99.764 28.26-151.808-11.154-65.26-50.458-122.17-108.147-156.59-26.918-16.061-57.727-26.365-89.486-29.929-9.394-1.055-36.887-1.472-43.946-.667m36.266 32.75c19.545 2.03 35.454 5.914 53.262 13.003l11.022 4.387 5.007 7.723c2.754 4.247 7.31 12.227 10.123 17.732 2.813 5.506 5.897 10.429 6.853 10.94 1.882 1.007 4.556-.131 14.78-6.29 4.591-2.766 5.207-2.93 6.826-1.814 3.018 2.08 20.981 20.291 20.981 21.271 0 1.002-12.609 9.077-23.325 14.94-3.677 2.011-6.891 4.195-7.144 4.853-.252.657 1.301 8.381 3.453 17.163 2.151 8.782 4.681 20.576 5.622 26.208 1.813 10.85 4.327 33.229 4.327 38.522 0 6.44-.843 6.278 32.586 6.278 27.541 0 29.807.111 30.374 1.493.799 1.945.799 27.495 0 29.44-.567 1.382-2.826 1.493-30.226 1.493-33.024 0-32.734-.05-32.734 5.704 0 12.556-5.182 45.906-10.428 67.114-2.636 10.655-3.325 14.732-2.67 15.787.486.782 4.382 3.342 8.657 5.689 9.147 5.02 22.361 13.41 22.361 14.198 0 1.165-21.584 22.068-22.787 22.068-.698 0-2.289-.722-3.535-1.606-1.245-.883-4.836-2.967-7.979-4.631-9.094-4.815-9.296-4.679-18.714 12.539-2.795 5.109-6.901 12.021-9.126 15.36-4.717 7.08-7.349 8.622-24.278 14.221-37.592 12.433-81.747 12.422-118.989-.029-15.42-5.156-19.465-7.219-22.321-11.384-4.364-6.363-9.373-14.882-13.368-22.731-6.103-11.994-8.63-12.758-19.861-6.004-3.9 2.346-7.548 4.256-8.107 4.245-1.312-.027-12.613-10.067-18.56-16.49l-4.62-4.989 2.283-1.964c2.364-2.033 17.396-11.202 25.166-15.349 2.436-1.301 4.596-2.797 4.798-3.324.203-.528-1.095-6.667-2.884-13.642-5.15-20.083-9.129-44.163-10.634-64.361-.383-5.142-1.028-8.363-1.838-9.173-1.047-1.047-6.042-1.248-31.08-1.248-27.61 0-29.879-.111-30.446-1.493-.337-.821-.613-7.747-.613-15.391 0-11.426.227-14.042 1.28-14.707.742-.469 13.731-.815 30.903-.822 27.333-.012 29.685-.129 30.418-1.507.438-.821 1.236-6.485 1.774-12.586 1.845-20.9 6.09-45.331 11.083-63.779 2.979-11.006 3.16-10.614-7.618-16.515-8.994-4.925-22.177-13.36-22.183-14.194-.006-.868 18.3-19.086 20.869-20.769 2.033-1.332 2.359-1.232 9.632 2.966 9.1 5.251 12.039 5.569 15.659 1.694 1.362-1.458 2.476-3.037 2.476-3.51 0-1.2 7.86-15.082 13.208-23.329l4.46-6.876 10.152-3.988c27.92-10.968 58.16-15.393 85.673-12.536m-43.527 8.657c-12.915 8.289-30.132 29.484-39.851 49.063-3.664 7.381-3.831 8.009-2.622 9.846.936 1.423 3.259 2.495 8.446 3.898 10.926 2.955 21.664 5.137 31.956 6.495 8.105 1.069 9.584 1.07 11.252.008l1.92-1.224v-34.937c0-33.668-.06-34.969-1.651-35.82-2.591-1.387-3.548-1.116-9.45 2.671m44.868-2.214c-1.175 1.175-1.341 5.614-1.341 35.821v34.479l1.92 1.224c2.937 1.872 18.35-.303 39.459-5.567 9.992-2.491 13.235-4.069 13.235-6.438 0-1.766-5.534-12.5-11.14-21.606-9.398-15.267-21.083-28.161-32.323-35.666-5.813-3.882-7.734-4.322-9.81-2.247m-100.632 93.612c-2.687 1.964-8.522 29.065-11.159 51.821-1.599 13.802-1.696 20.632-.312 22.016 1.473 1.473 75.838 1.473 77.312 0 1.615-1.615 1.453-59.851-.171-61.199-.657-.545-4.785-1.386-9.173-1.868-11.389-1.252-27.572-4.513-41.942-8.453-6.826-1.872-12.559-3.403-12.741-3.403-.181 0-.998.489-1.814 1.086m152.625 2.034c-12.618 3.582-32.326 7.595-42.966 8.748-4.388.476-8.516 1.311-9.173 1.856-1.624 1.348-1.786 59.584-.171 61.199.766.765 10.558 1.024 38.807 1.024h37.783l1.225-1.92c.997-1.562 1.081-3.511.453-10.454-2.531-27.951-9.209-60.834-12.737-62.722-1.952-1.045-.939-1.219-13.221 2.269M161.451 273.237c-1.382 1.382-1.287 8.221.304 21.898 2.218 19.056 7.798 46.279 10.301 50.252 1.514 2.403 4.102 2.449 11.411.201 8.746-2.689 28.375-6.557 40.96-8.071 6.336-.762 12.384-1.743 13.44-2.18l1.92-.794v-30.141c0-22.305-.267-30.407-1.024-31.165-1.474-1.473-75.839-1.473-77.312 0m111.786 0c-.757.757-1.024 8.732-1.024 30.588 0 27.101.125 29.67 1.494 30.84.945.809 5.874 1.801 13.44 2.705 13.71 1.638 29.095 4.633 39.906 7.768 9.251 2.682 11.327 2.722 12.908.249 2.672-4.182 8.875-35.118 10.736-53.547.498-4.928 1.075-10.529 1.282-12.447.245-2.268-.075-4.133-.916-5.334-1.293-1.845-1.311-1.846-39.047-1.846-28.227 0-38.013.259-38.779 1.024m-44.97 95.973c-13.407 1.647-39.032 7.216-41.1 8.933-2.089 1.733-1.184 6.15 2.775 13.537 9.031 16.85 20.687 32.039 31.734 41.352 8.935 7.532 12.992 9.657 15.901 8.331l2.21-1.006v-34.835c0-25.955-.261-35.095-1.024-35.858-.974-.974-4.887-1.143-10.496-.454m45.013.367c-.817.851-1.067 9.138-1.067 35.439 0 30.07.167 34.495 1.341 35.67 1.918 1.918 3.778 1.672 8.092-1.071 10.672-6.785 21.452-18.066 31.138-32.585 6.094-9.135 14.001-23.607 14.026-25.671.03-2.469-2.862-4.027-11.503-6.197-20.207-5.075-39.993-7.704-42.027-5.585" fill-rule="evenodd"/></svg>