<svg xmlns="http://www.w3.org/2000/svg" width="512" height="512"><path d="M239.787 168.045v151.832l-4.907.512c-17.052 1.776-22.412 2.535-33.532 4.747-71.506 14.22-126.421 55.867-146.254 110.917-5.38 14.932-6.573 21.514-7.065 38.975-.253 8.999-.212 17.351.092 18.56l.552 2.199h414.61l.583-3.108c.32-1.709.362-10.061.093-18.56-.521-16.427-1.841-23.562-7.042-38.066-19.669-54.847-74.661-96.558-146.265-110.942-9.369-1.882-33.371-5.111-37.994-5.111-.251 0-.358-26.541-.237-58.979l.219-58.979 86.683-44.488c47.676-24.468 86.793-44.871 86.926-45.341.181-.635-204.629-96-206.175-96-.158 0-.287 68.325-.287 151.832m29.76 152.488 2.666.534v94.506h-32.426v-94.601l1.92-.37c3.099-.597 24.929-.651 27.84-.069" fill-rule="evenodd"/></svg>