<svg xmlns="http://www.w3.org/2000/svg" width="512" height="512"><path d="M238.59 33.744c-13.326 2.512-28.409 8.621-38.91 15.758-5.19 3.527-16.968 15.485-20.82 21.139-6.401 9.394-2.097 21.98 8.535 24.957 4.043 1.132 5.141.985 15.698-2.103 10.955-3.205 25.128-2.572 37.627 1.679 19.423 6.606 29.845 16.469 34.539 32.688 1.04 3.596 2.164 9.447 2.496 13.001.589 6.297.522 6.627-2.571 12.8-1.746 3.486-6.105 10.676-9.686 15.98-3.581 5.304-7.369 11.064-8.417 12.8-2.268 3.757-2.507 9.095-.609 13.638 1.681 4.026 36.996 39.721 41.714 42.164 4.074 2.109 10.257 2.267 13.951.356 1.471-.76 7.201-5.336 12.735-10.168 15.735-13.739 19.852-16.85 26.491-20.018 5.61-2.678 6.747-2.922 12.144-2.617 7.978.45 8.583 1.235 4.785 6.21-4.294 5.626-6.034 12.025-4.815 17.709.518 2.418 1.676 5.577 2.573 7.02.896 1.443 10.582 11.514 21.523 22.381 19.112 18.982 20.091 19.815 24.93 21.218 6.013 1.744 11.273 1.26 16.474-1.514 4.382-2.337 62.614-59.795 64.711-63.85.809-1.563 1.664-5.258 1.901-8.211.772-9.616-.137-10.986-21.769-32.803-21.931-22.12-24.706-24.116-33.538-24.12-3.896-.002-6.643.521-9.081 1.727l-3.495 1.729-.342-8.167c-.524-12.507-4.025-18.508-22.95-39.34-29.024-31.947-79.881-62.346-118.547-70.859-10.898-2.4-37.319-3.061-47.277-1.184M223.9 208.115c-6.066 1.573-11.383 5.162-21.57 14.564L108.8 308.98c-45.525 42.006-83.891 77.702-85.256 79.324-1.366 1.622-3.478 5.061-4.694 7.643-1.898 4.032-2.21 5.848-2.21 12.886 0 12.932 1.148 14.635 28.587 42.404 24.405 24.699 27.003 26.69 36.95 28.309 10.955 1.783 19.191-1.504 29.794-11.888 4.09-4.007 44.359-46.837 89.487-95.178 93.251-99.891 87.395-92.715 87.395-107.093 0-12.762-1.223-14.758-21.596-35.243-19.726-19.835-22.81-21.867-33.998-22.399-3.684-.176-7.896-.009-9.359.37" fill-rule="evenodd"/></svg>