<svg xmlns="http://www.w3.org/2000/svg" width="512" height="512"><path d="M238.867 33.702c-13.712 2.587-29.642 8.947-39.74 15.867-5.472 3.75-15.258 13.724-19.43 19.803-6.131 8.934-4.881 18.711 3.049 23.853 5.455 3.536 8.173 3.715 17.159 1.124 14.721-4.242 27.476-3.826 42.427 1.386 15.355 5.353 24.089 12.598 29.905 24.81 3.33 6.991 5.95 18.198 5.95 25.455 0 7.612-7.355 20.526-20.869 36.641-6.68 7.966-9.597 12.521-11.047 17.252-.377 1.233-1.479 1.494-6.303 1.494-6.706 0-13.425 1.764-18.955 4.977-2.112 1.227-16.757 14.947-32.546 30.489-40.903 40.263-88.561 84.286-134.707 124.434-29.202 25.407-32.042 28.155-34.712 33.594-2.154 4.388-2.408 5.805-2.408 13.439 0 13.361.503 14.144 25.657 39.882 11.588 11.857 22.763 22.976 24.834 24.709 10.923 9.145 28.872 9.192 39.489.105 2.011-1.722 11.514-12.098 21.116-23.058 48.993-55.919 95.276-105.473 136.604-146.257 21.75-21.464 25.044-25.064 27.328-29.867 3.078-6.475 4.793-15.054 4.029-20.153-.462-3.082-.303-3.743.996-4.145 5.134-1.587 9.449-4.62 18.118-12.734 24.617-23.039 36.921-31.147 47.272-31.148 4.138-.001 7.353.788 9.007 2.209.173.149-.888 1.791-2.359 3.649-3.802 4.8-5.455 9.216-5.473 14.621-.027 8.318 1.572 10.5 23.838 32.516 17.633 17.435 20.936 20.331 24.576 21.547 5.257 1.755 8.342 1.767 14.11.054 4.257-1.264 6.439-3.217 34.501-30.882 16.476-16.243 30.825-30.692 31.886-32.109 4.135-5.52 4.805-14.614 1.578-21.419-1.527-3.219-6.815-8.996-21.539-23.528-11.679-11.527-20.885-19.916-22.928-20.892-4.432-2.117-14.172-2.178-18.091-.113-1.502.792-2.896 1.44-3.098 1.44-.202 0-.527-3.552-.723-7.894-.277-6.155-.836-8.927-2.536-12.586-4.68-10.074-28.474-36.317-44.245-48.799-29.896-23.662-66.459-42.455-94.417-48.53-11.02-2.395-37.495-3.087-47.303-1.236m31.662 31.185c24.186 2.965 55.368 17.54 85.195 39.821 10.66 7.963 26.504 23.417 34.589 33.739l4.984 6.364.14 9.728c.117 8.139.463 10.454 2.123 14.177 2.361 5.295 8.79 11.604 14.317 14.049 7.804 3.452 19.915 4.407 25.886 2.042.865-.343 4.613 2.831 11.512 9.748l10.229 10.256-20.257 20.258-20.258 20.258-9.951-9.951-9.951-9.951 2.051-4.552c2.9-6.441 2.979-19.632.155-25.753-4.887-10.589-15.595-18.135-29.464-20.763-21.34-4.044-41.163 4.8-70.696 31.542l-9.907 8.971-5.134-5.135-5.135-5.135 6.508-8.378c18.202-23.433 24.335-39.438 22.278-58.134-2.3-20.908-9.241-37.375-21.221-50.347-8.449-9.15-16.566-14.276-35.935-22.698-1.792-.779-1.105-.937 4.289-.985 3.532-.032 9.676.341 13.653.829m-17.802 178.911c8.83 8.737 10.953 11.299 10.953 13.219 0 1.982-3.528 5.856-21.021 23.082-41.225 40.595-93.705 96.812-141.375 151.439L86.98 447.929l-18.957-19.245c-10.426-10.585-19.069-19.547-19.207-19.917-.138-.369 4.851-5.036 11.086-10.372 26.979-23.089 82.436-73.02 110.765-99.727 8.213-7.743 26.697-25.695 41.076-39.893 18.878-18.641 26.684-25.815 28.087-25.815 1.345 0 5.314 3.335 12.897 10.838" fill-rule="evenodd"/></svg>