<svg xmlns="http://www.w3.org/2000/svg" width="512" height="512"><path d="M238.59 33.744c-30.479 5.746-53.347 22.356-60.454 43.909-2.858 8.669-3.206 7.829 5.486 13.231 6.437 4.001 8.291 4.779 10.448 4.383 1.443-.264 6.271-1.259 10.73-2.209 12.652-2.698 22.467-2.188 34.987 1.817 23.963 7.665 35.716 21.901 37.968 45.988.587 6.28.516 6.64-2.498 12.624-3.848 7.641-9.488 16.495-15.836 24.86-6.066 7.992-6.834 9.445-6.834 12.922 0 2.518 2.337 5.141 23.68 26.571 13.024 13.078 24.764 24.35 26.089 25.05 1.395.736 3.372 1.06 4.698.769 1.328-.292 9.455-6.955 19.351-15.866 13.706-12.341 18.404-16.043 23.888-18.822 6.418-3.253 7.196-3.442 12.986-3.16 8.003.389 9.004 1.37 5.486 5.377-5.299 6.035-6.968 13.192-4.82 20.674 1.369 4.769 2.24 5.765 25.456 29.107 13.221 13.292 25.119 24.738 26.438 25.435 1.865.985 3.007 1.067 5.132.365 1.869-.617 15.114-13.293 41.884-40.087l39.151-39.184-.526-3.24c-.463-2.85-3.314-6.029-23.747-26.472-26.23-26.243-28.509-27.944-37.451-27.948-3.943-.002-6.641.519-9.174 1.773l-3.588 1.775v-6.565c0-12.362-2.592-17.418-18.261-35.626-30.234-35.131-82.551-67.45-123.579-76.34-10.745-2.329-37.307-2.955-47.09-1.111m-11.396 166.197c-1.755.644-42.235 38.254-109.843 102.056C34.733 379.963 10.067 403.698 9.325 405.945c-2.199 6.665-2.491 6.293 34.298 43.665 18.763 19.061 35.535 35.519 37.272 36.572 3.797 2.303 7.303 2.439 11.092.43 4.381-2.323 203.846-213.969 205.027-217.548 2.241-6.791 2.233-6.801-29.342-38.54-16.269-16.354-30.38-29.843-31.911-30.507-3.271-1.418-4.866-1.432-8.567-.076" fill-rule="evenodd"/></svg>