<svg xmlns="http://www.w3.org/2000/svg" width="512" height="512"><path d="M229.036 1.268c-13.076 2.845-25.459 12.677-31.824 25.269-1.802 3.566-3.424 6.918-3.604 7.448-.237.695-1.636.615-5.021-.287-6.126-1.633-18.803-1.615-25.138.035-14.515 3.781-27.217 15.425-32.663 29.943-1.961 5.228-2.245 7.443-2.594 20.244l-.393 14.374-2.246-.57c-4.64-1.179-19.502-1.468-24.295-.473-15.148 3.145-29.575 16.138-34.837 31.375l-1.994 5.774v105.813c0 96.995.127 106.703 1.522 116.48 6.573 46.049 20.011 77.796 44.608 105.387 18.838 21.131 45.948 36.943 76.75 44.764 27.576 7.001 68.192 6.688 98.986-.763 39.336-9.519 67.499-29.235 88.975-62.289 9.506-14.631 14.811-27.493 41.905-101.605 14.499-39.659 27.191-74.793 28.204-78.075 3.902-12.64 3.044-27.62-2.208-38.549-3.079-6.407-11.847-15.274-19.092-19.307-14.028-7.809-32.831-8.042-46.807-.581-10.271 5.483-16.692 13.07-21.897 25.872l-2.83 6.96-.296-75.52c-.276-70.213-.405-75.85-1.846-80.214-2.579-7.808-6.615-14.501-12.104-20.072-8.237-8.359-16.788-12.625-28.207-14.073-5.896-.748-16.574-.052-20.128 1.312-1.163.446-1.484-.295-1.918-4.435-1.411-13.457-5.733-22.858-14.448-31.425-12.034-11.831-27.988-16.418-44.56-12.812m18.251 32.775c3.911 1.995 5.707 3.934 7.4 7.987C255.843 44.797 256 57.071 256 144.77v99.598l1.81 3.739c2.762 5.705 7.311 8.32 14.475 8.32 5.152 0 6.081-.273 9.022-2.651 1.804-1.458 4.048-3.954 4.986-5.546 1.664-2.825 1.718-4.833 2.134-80.588.476-86.719-.077-79.56 6.529-84.599 2.726-2.078 3.917-2.403 8.827-2.403 7.091 0 11.655 2.636 14.407 8.32l1.81 3.739v115.384c0 95.763.199 115.861 1.169 118.183 1.78 4.259 7.727 8.916 12.255 9.595 7.111 1.066 14.894-3.084 17.332-9.244 7.577-19.142 36.444-87.812 37.626-89.507 1.956-2.803 7.294-5.003 12.141-5.003 4.719 0 10.591 3.062 13.211 6.89 1.799 2.629 1.959 3.61 1.589 9.75-.386 6.388-2.165 11.596-27.686 81.066-30.341 82.588-32.99 88.754-45.105 104.96-20.82 27.853-51.921 42.189-96.994 44.709-49.813 2.786-86.927-10.871-113.817-41.882-14.082-16.24-25.212-40.038-30.456-65.12-4.457-21.317-4.412-19.965-4.412-131.053V137.681l2.468-3.235c3.367-4.415 8.923-6.8 14.343-6.158 4.704.557 8.148 2.693 11.565 7.171l2.344 3.073.427 61.507c.324 46.667.682 61.953 1.483 63.352.581 1.015 2.648 3.207 4.592 4.872 7.698 6.589 19.463 4.233 24.462-4.898 1.349-2.463 1.496-9.965 1.89-96.179l.426-93.506 2.468-3.235c3.367-4.414 8.923-6.799 14.343-6.157 4.704.557 8.148 2.693 11.565 7.171l2.344 3.074.427 85.463.427 85.463 2.29 3.46c4.931 7.45 15.96 9.362 22.678 3.933 1.755-1.419 3.96-3.883 4.898-5.476 1.674-2.841 1.715-4.828 2.134-104.016.315-74.682.686-101.566 1.42-102.827 1.193-2.051 5.178-5.81 7.54-7.113 2.758-1.522 10.366-1.181 13.9.623" fill-rule="evenodd"/></svg>