<svg xmlns="http://www.w3.org/2000/svg" width="512" height="512"><path d="M261.12 1.334c-8.445 1.823-15.809 5.955-22.716 12.746-8.715 8.567-13.037 17.968-14.448 31.425-.434 4.14-.755 4.881-1.918 4.435-.768-.295-4.193-.89-7.61-1.324-23.737-3.009-45.133 10.825-52.826 34.157-1.432 4.344-1.582 10.289-2.002 79.787l-.453 75.093-3.209-7.733c-7.047-16.982-19.665-26.817-37.609-29.313-20.004-2.782-41.113 7.886-49.483 25.008-5.034 10.298-6.095 24.912-2.678 36.859 1.159 4.053 46.081 127.697 54.447 149.862 8.242 21.834 25.003 46.848 41.092 61.321 29.517 26.553 72.762 39.814 124.16 38.073 28.671-.971 49.556-5.944 72.251-17.204 22.089-10.958 38.746-25.014 53.81-45.404 20.178-27.312 32.038-63.04 35.215-106.082.676-9.155.893-43.433.704-111.36l-.274-98.133-2.28-5.871c-5.893-15.166-19.726-27.347-34.551-30.425-4.793-.995-19.655-.706-24.295.473l-2.246.57-.393-14.374c-.349-12.801-.633-15.016-2.594-20.244-5.446-14.518-18.148-26.162-32.663-29.943-6.335-1.65-19.012-1.668-25.138-.035-3.385.902-4.784.982-5.021.287-.18-.53-1.802-3.882-3.604-7.448-10.06-19.904-31.527-29.985-53.668-25.203m17.336 32.05c2.411 1.239 6.43 4.972 7.697 7.149.734 1.261 1.105 28.145 1.42 102.827.419 99.188.46 101.175 2.134 104.016.938 1.593 3.182 4.089 4.986 5.547 2.941 2.378 3.87 2.65 9.022 2.65 7.164 0 11.713-2.614 14.475-8.319 1.806-3.732 1.81-3.915 1.81-86.137 0-45.318.257-83.68.57-85.248.355-1.773 2.088-4.368 4.584-6.864 3.251-3.251 4.781-4.129 8.048-4.619 6.929-1.039 13.375 1.929 16.468 7.583 1.367 2.497 1.508 9.627 1.903 95.711.394 85.747.541 93.222 1.89 95.685 3.32 6.064 10.282 9.52 17.113 8.496 4.528-.679 10.475-5.336 12.255-9.595.951-2.276 1.169-13.679 1.169-61.172 0-32.106.257-59.657.57-61.225.355-1.773 2.088-4.368 4.584-6.864 3.251-3.251 4.781-4.129 8.048-4.619 7.25-1.087 13.526 1.994 16.688 8.194 1.647 3.227 1.683 5.449 1.683 102.229 0 101.205-.173 107.521-3.465 126.418-10.823 62.109-48.035 102.596-103.19 112.269-17.288 3.032-45.502 2.99-63.449-.093-44.536-7.652-70.403-26.607-90.198-66.096-2-3.99-15.906-40.662-30.903-81.494-25.484-69.384-27.295-74.686-27.685-81.066-.376-6.144-.218-7.119 1.583-9.75 2.62-3.828 8.492-6.89 13.211-6.89 4.841 0 10.179 2.197 12.158 5.003 1.191 1.69 29.507 69.083 37.607 89.507 2.444 6.161 10.224 10.31 17.334 9.244 4.528-.679 10.475-5.336 12.255-9.595.97-2.322 1.169-22.42 1.169-118.183V92.699l1.81-3.739c2.752-5.684 7.316-8.32 14.407-8.32 4.91 0 6.101.325 8.827 2.403 6.606 5.039 6.053-2.12 6.529 84.599.416 75.755.47 77.763 2.134 80.588.938 1.592 3.182 4.088 4.986 5.546 2.941 2.378 3.87 2.651 9.022 2.651 7.164 0 11.713-2.615 14.475-8.32l1.81-3.739.019-99.784c.018-94.999.094-99.948 1.586-103.197 1.73-3.768 3.509-5.61 7.357-7.616 2.975-1.551 10.792-1.775 13.494-.387" fill-rule="evenodd"/></svg>