<svg xmlns="http://www.w3.org/2000/svg" width="512" height="512"><path d="M234.993.759c-8.823 2.274-17.441 9.945-20.959 18.657l-1.981 4.904-.23 103.893-.229 103.894H197.12V146.01c0-83.339-.054-86.272-1.686-91.556-2.192-7.096-5.968-12.703-11.085-16.46-5.588-4.101-10.195-5.567-17.493-5.567-5.146 0-7.006.424-11.325 2.582-9.508 4.752-15.893 14.107-17.353 25.425-.405 3.135-.748 46.492-.763 96.35l-.028 90.65-1.956.491c-1.075.27-4.243.373-7.04.23l-5.084-.262-.427-64.426-.427-64.427-2.27-4.843c-2.896-6.178-7.959-11.665-13.697-14.844-4.102-2.272-5.251-2.5-12.619-2.5-6.689 0-8.79.337-12.011 1.924-6.621 3.263-10.716 7.445-14.206 14.505l-3.223 6.523v122.498c0 114.989.097 123.125 1.58 132.737 5.996 38.838 20.678 70.084 43.699 93 25.279 25.163 59.583 39.505 103.298 43.188 22.665 1.909 54.413.074 77.129-4.46 28.606-5.708 44.621-13.795 62.303-31.461 10.028-10.019 17.623-20.562 23.789-33.022 5.085-10.279 2.279-2.694 39.88-107.778l31.297-87.467.059-8.107c.071-9.942-1.942-15.749-7.669-22.119-8.509-9.464-21.41-12.421-32.365-7.418-5.396 2.464-10.458 6.811-13.345 11.46-.966 1.556-9.933 22.676-19.925 46.933l-18.168 44.104-5.621.253-5.621.252V193.901c0-130.589.302-123.022-5.269-131.797-12.819-20.19-40.523-17.866-50.898 4.27l-2.287 4.879-.426 80.214-.427 80.213-7.04.248-7.04.248-.017-99.235c-.01-61.483-.341-101.507-.87-105.208-2.19-15.335-13.554-26.615-27.581-27.375-2.881-.156-6.436.024-7.899.401" fill-rule="evenodd"/></svg>