<svg xmlns="http://www.w3.org/2000/svg" width="512" height="512"><path d="M268.122 1.616c-6.219 2.148-10.38 5.76-13.402 11.634l-2.56 4.975-.427 107.86-.426 107.86-3.188 2.921c-2.648 2.426-3.841 2.921-7.052 2.921-3.211 0-4.405-.495-7.053-2.921l-3.187-2.921-.427-83.479-.427-83.479-2.39-4.868c-1.315-2.677-3.619-5.906-5.12-7.176-13.655-11.55-35.669-7.562-42.932 7.777l-2.021 4.267-.008 119.552c-.006 85.067-.281 120.333-.952 122.258-.518 1.488-1.645 3.082-2.504 3.541-2.17 1.162-6.191 1.043-7.876-.231-.776-.587-11.374-21.298-23.552-46.025-24.662-50.073-24.917-50.47-35.747-55.538-4.846-2.268-6.695-2.665-12.544-2.697-5.936-.032-7.613.319-12.447 2.599-7.553 3.563-11.364 7.122-14.544 13.581-3.191 6.482-4.061 14.016-2.531 21.925 1.102 5.694 69.284 174.692 77.307 191.613 20.856 43.989 48.911 64.803 97.675 72.466 8.079 1.27 14.938 1.538 38.826 1.516 31.313-.029 36.589-.535 54.614-5.244 56.343-14.718 95.722-57.052 109.123-117.312 5.442-24.47 5.223-18.054 5.223-153.044v-122.88l-1.847-3.414c-2.221-4.103-7.286-9.063-11.379-11.143-4.358-2.215-14.886-2.661-20.307-.861-5.751 1.91-11.396 7.025-13.921 12.612l-2.039 4.512-.427 67.611-.426 67.611-2.64 2.639c-4.816 4.816-12.665 4.085-16.339-1.52-1.405-2.144-1.529-8.643-1.928-100.889l-.427-98.598-2.381-4.849c-2.796-5.694-6.874-9.533-13.203-12.431-3.922-1.795-5.56-2.049-11.559-1.792-10.229.438-17.772 4.886-22.211 13.098l-1.846 3.414-.426 91.733c-.411 88.307-.488 91.823-2.047 94.124-4.391 6.479-14.79 6.241-18.592-.425-.903-1.584-1.204-22.862-1.548-109.486l-.427-107.52-2.647-4.693c-6.061-10.746-18.798-15.358-30.884-11.184" fill-rule="evenodd"/></svg>