<svg xmlns="http://www.w3.org/2000/svg" width="512" height="512"><path d="M153.6 48.178V63.93l-36.053.248-36.054.249-4.573 2.532c-2.515 1.394-5.883 4.065-7.485 5.937C64.217 78.991 64 80.858 64 119.622v34.831H31.573v43.52H64v35.803l-16 .232-16 .232v43.52l16 .232 16 .232v35.803H31.545L31.772 336 32 357.973l16 .232 16 .233v34.386c0 40.478.053 40.834 7.198 47.978 7.144 7.145 7.5 7.198 47.978 7.198h34.386l.233 16 .232 16 21.973.228 21.973.227V448h35.803l.232 16 .232 16h43.52l.232-16 .232-16h35.803v32.455l21.973-.227 21.973-.228.232-16 .233-16h34.386c40.478 0 40.834-.053 47.978-7.198 7.145-7.144 7.198-7.5 7.198-47.978v-34.386l16-.233 16-.232.228-21.973.227-21.973H448v-35.803l16-.232 16-.232v-43.52l-16-.232-16-.232v-35.803h32.427v-43.52H448v-34.831c0-38.764-.217-40.631-5.435-46.726-1.602-1.872-4.97-4.543-7.485-5.937l-4.573-2.532-36.054-.249-36.053-.248V32.427H314.027V64h-35.84V32.427h-44.374V64h-35.84V32.427H153.6v15.751M384 256v128H128V128h256v128m-224.217.213L160 352h192l.217-95.787.217-95.786H159.566l.217 95.786" fill-rule="evenodd"/></svg>