<svg xmlns="http://www.w3.org/2000/svg" width="512" height="512"><path d="M169.387 33.42c-2.795 1.542-6.46 5.232-7.912 7.967-.939 1.767-1.476 5.666-1.736 12.586L159.363 64h-18.147c-22.803 0-29.112 1.048-41.015 6.814-14.042 6.802-25.634 18.926-31.226 32.66C64.852 113.597 64 120.059 64 141.191v19.236H53.718c-7.31 0-10.974.357-12.674 1.236-3.242 1.677-7.626 6.809-8.25 9.659-.28 1.282-.64 2.764-.798 3.293-.599 1.999 1.466 8.502 3.58 11.274 3.61 4.732 7.744 6.071 18.824 6.092L64 192v47.576l-10.027.358c-8.656.308-10.534.642-13.737 2.442-7.892 4.436-10.364 14.173-5.561 21.906 3.762 6.057 7.203 7.446 19.298 7.789l10.027.285V320l-9.6.019c-11.08.021-15.214 1.36-18.824 6.092-2.114 2.772-4.179 9.275-3.58 11.274.158.529.518 2.011.798 3.293.641 2.925 5.024 7.983 8.506 9.815 1.852.974 5.659 1.505 12.673 1.768l10.027.376v18.704c0 20.573.877 27.12 4.984 37.213 5.972 14.673 19.792 28.487 34.49 34.471 10.06 4.097 16.623 4.975 37.185 4.975h18.704l.376 10.027c.263 7.014.794 10.821 1.768 12.673 1.832 3.482 6.89 7.865 9.815 8.506 1.282.28 2.764.64 3.293.798 1.999.599 8.502-1.466 11.274-3.58 4.732-3.61 6.071-7.744 6.092-18.824L192 448h47.644l.285 10.027c.343 12.095 1.732 15.536 7.789 19.298 5.446 3.383 11.118 3.383 16.564 0 6.057-3.762 7.446-7.203 7.789-19.298l.285-10.027H320l.019 9.6c.021 11.08 1.36 15.214 6.092 18.824 2.772 2.114 9.275 4.179 11.274 3.58.529-.158 2.011-.518 3.293-.798 2.925-.641 7.983-5.024 9.815-8.506.974-1.852 1.505-5.659 1.768-12.673l.376-10.027h18.704c20.703 0 27.097-.869 37.276-5.067 7.793-3.213 14.673-7.998 21.132-14.697 6.564-6.807 10.021-11.948 13.17-19.584 4.213-10.216 5.081-16.592 5.081-37.311v-18.704l10.027-.376c7.014-.263 10.821-.794 12.673-1.768 3.482-1.832 7.865-6.89 8.506-9.815.28-1.282.64-2.764.798-3.293.599-1.999-1.466-8.502-3.58-11.274-3.61-4.732-7.744-6.071-18.824-6.092L448 320v-47.644l10.027-.285c12.095-.343 15.536-1.732 19.298-7.789 4.803-7.733 2.331-17.47-5.561-21.906-3.203-1.8-5.081-2.134-13.737-2.442L448 239.576V192l9.6-.019c11.08-.021 15.214-1.36 18.824-6.092 6.433-8.434 3.126-20.916-6.506-24.555-1.321-.499-6.793-.907-12.16-.907H448v-19.236c0-21.132-.852-27.594-4.975-37.717-5.592-13.734-17.184-25.858-31.226-32.66C399.896 65.048 393.587 64 370.784 64h-18.147l-.376-10.027c-.405-10.807-1.216-13.368-5.518-17.439-4.643-4.393-12.246-5.444-18.03-2.491-6.906 3.524-8.713 7.784-8.713 20.543V64h-47.644l-.286-10.027c-.346-12.088-1.647-15.435-7.429-19.101-5.423-3.439-11.859-3.439-17.282 0-5.782 3.666-7.083 7.013-7.429 19.101L239.644 64H192v-9.414c0-12.759-1.807-17.019-8.713-20.543-3.534-1.804-11.142-2.145-13.9-.623M364.8 130.815c6.72 3.134 13.32 9.706 16.366 16.296l2.407 5.209v207.36l-2.407 5.209c-3.046 6.59-9.646 13.162-16.366 16.296l-5.12 2.388H152.32l-5.209-2.407c-6.59-3.046-13.162-9.646-16.296-16.366l-2.388-5.12V152.32l2.389-5.12c4.115-8.819 12.842-16.168 21.714-18.282 1.808-.431 47.607-.704 105.177-.627l101.973.136 5.12 2.388m-201.253 30.578c-4.029 2.342-3.974 1.014-3.974 94.607 0 97.589-.278 92.768 5.489 95.177 4.493 1.878 177.383 1.878 181.876 0 5.767-2.409 5.489 2.412 5.489-95.177 0-94.118.075-92.396-4.139-94.651-2.413-1.292-182.518-1.248-184.741.044" fill-rule="evenodd"/></svg>