<svg xmlns="http://www.w3.org/2000/svg" width="512" height="512"><path d="M230.028 33.813c-48.357 6.193-95.144 29.802-131.503 66.358-13.442 13.515-19.675 21.104-29.853 36.349-29.721 44.521-42.555 99.845-34.052 146.787 4.986 27.523 25.545 90.295 37.869 115.626 18.796 38.634 53.354 70.647 84.596 78.366 20.876 5.158 34.093 3.097 54.689-8.528 11.557-6.523 16.643-10.919 19.767-17.083 4.676-9.227 4.76-19.124.246-28.771-1.122-2.396-21.623-38.725-45.558-80.73-31.075-54.535-44.604-77.507-47.313-80.338-3.969-4.146-10.15-7.756-15.123-8.832-4.694-1.016-13.839-.624-17.744.761-6.422 2.276-24.003 13.256-29.581 18.474-5.456 5.104-7.995 6.106-9.84 3.883-2.026-2.441-3.042-20.087-1.932-33.563 3.789-46.02 22.432-85.56 56.466-119.76 26.645-26.775 58.603-45.04 93.878-53.656 14.578-3.561 24.36-4.678 40.96-4.678s26.382 1.117 40.96 4.678c35.04 8.558 66.978 26.755 93.478 53.258 28.593 28.596 46.001 60.215 53.786 97.696 2.99 14.397 4.321 33.491 3.108 44.596-1.165 10.674-1.489 11.64-4.124 12.302-1.663.417-3.065-.443-7.527-4.616-5.179-4.846-17.054-12.502-26.501-17.088-11.999-5.824-28.442-2.638-36.974 7.165-3.498 4.019-90.919 157.19-93.207 163.307-4.467 11.945-1.654 25.025 7.229 33.621 4.484 4.339 22.266 14.496 30.123 17.207 18.819 6.492 40.952 3.183 61.927-9.26 25.246-14.976 47.132-39.428 61.233-68.411 9.22-18.951 26.679-69.194 33.518-96.458 5.403-21.541 6.784-31.374 6.735-47.948-.124-42.07-12.499-82.15-36.436-118.007-10.178-15.245-16.411-22.834-29.853-36.349-36.765-36.964-83.539-60.38-132.703-66.434-13.079-1.61-37.865-1.573-50.744.076" fill-rule="evenodd"/></svg>