<svg xmlns="http://www.w3.org/2000/svg" width="512" height="512"><path d="M232.533 33.42c-39.387 4.447-81.311 22.356-114.773 49.029-8.844 7.05-28.509 26.584-35.547 35.311-29.993 37.19-47.01 80.416-49.768 126.42-1.612 26.897 3.087 52.002 18.267 97.58 13.394 40.219 18.894 53.439 29.642 71.255 8.098 13.423 14.462 21.516 25.844 32.862 28.219 28.132 61.04 39.69 88.48 31.158 6.566-2.041 24.489-12.261 29.981-17.095 8.604-7.574 12.374-22.2 8.577-33.273-1.931-5.632-88.793-158.438-93.01-163.622-5.469-6.725-14.393-10.66-24.173-10.66-7.715 0-10.921 1.105-21.931 7.557-13.01 7.625-19.074 12.563-24.792 20.193-.98 1.307-1.99 2.036-2.246 1.622-.875-1.415-3.084-20.71-3.084-26.932 0-28.785 8.979-62.029 23.921-88.566 37.157-65.987 110.477-107.208 180.666-101.57 63.585 5.107 123.045 43.948 155.492 101.57 18.886 33.541 27.743 76.789 22.158 108.19-1.488 8.367-1.52 8.417-3.566 5.688-5.719-7.632-11.782-12.57-24.793-20.195-11.01-6.452-14.216-7.557-21.931-7.557-9.778 0-18.7 3.934-24.176 10.66-4.218 5.181-91.079 157.988-93.009 163.622-3.794 11.077-.023 25.7 8.579 33.273 5.492 4.834 23.415 15.054 29.981 17.095 16.975 5.278 34.686 3.201 54.305-6.368 12.859-6.273 22.95-13.627 34.614-25.227 14.782-14.701 29.138-35.874 37.538-55.365 4.495-10.431 17.693-48.223 22.832-65.382 11.154-37.238 14.34-57.153 12.926-80.782-3.577-59.776-32.003-115.746-79.433-156.402-35.111-30.096-78.792-49.48-122.097-54.182-9.752-1.059-35.735-1.006-45.474.093M158.76 358.827c22.681 39.893 41.942 73.729 42.802 75.191l1.564 2.658-7.599 4.385c-4.18 2.413-9.227 4.961-11.217 5.663-13.167 4.645-34.563-3.686-52.778-20.551-15.602-14.444-29.559-36.277-37.503-58.662-5.012-14.121-6.474-22.531-6.483-37.271-.008-13.615 1.219-20.135 5.149-27.354 2.99-5.494 6.175-8.398 15.252-13.906 5.76-3.496 7.916-4.414 8.627-3.674.521.543 19.504 33.627 42.186 73.521m254.594-63.45c4.295 3.755 7.654 9.688 9.642 17.033 2.169 8.011 1.987 28.299-.351 39.163-4.433 20.594-16.52 45.042-31.078 62.859-19.345 23.675-47.688 38.003-63.877 32.292-4.491-1.585-18.877-9.821-18.44-10.557.177-.297 19.216-33.756 42.31-74.354 23.093-40.597 42.527-74.664 43.187-75.704l1.2-1.89 6.926 4.024c3.809 2.213 8.525 5.423 10.481 7.134" fill-rule="evenodd"/></svg>