<svg xmlns="http://www.w3.org/2000/svg" width="512" height="512"><path d="M43.387 53.467 32.012 64.865l194.761 194.761 194.762 194.761 11.102-11.077c6.106-6.093 11.005-11.343 10.886-11.666-.119-.323-87.639-88.11-194.489-195.081L54.761 42.069 43.387 53.467m122.586 27.276c-9.269.92-22.613 3.598-22.613 4.539 0 .264 60.692 61.152 134.872 135.306l134.871 134.825 1.875-2.225c36.07-42.803 55.475-81.633 62.447-124.961 7.734-48.064-1.961-84.852-30.038-113.977-34.004-35.274-86.012-43.687-131.227-21.227-14.319 7.113-24.228 14.312-36.192 26.295l-8.886 8.9-4.947-5.535c-18.065-20.209-45.686-35.92-70.722-40.226-7.759-1.335-23.829-2.27-29.44-1.714m-95.514 71.569c-6.284 15.037-8.986 35.893-7.353 56.755 3.172 40.548 15.18 74.458 39.208 110.723 23.156 34.949 53.58 65.117 96.575 95.763 17.111 12.196 71.806 48.286 72.733 47.992 1.937-.615 68.03-44.895 67.818-45.436-.132-.338-60.414-60.982-133.959-134.765L71.762 149.193l-1.303 3.119" fill-rule="evenodd"/></svg>