<svg xmlns="http://www.w3.org/2000/svg" width="512" height="512"><path d="M49.92 48.187c-.469.167-1.88.529-3.134.805C41.375 50.18 35.877 57.744 35.877 64c0 1.643.719 4.523 1.598 6.4 1.108 2.366 57.968 60.106 185.293 188.16 101.033 101.611 184.954 185.655 186.491 186.766 5.086 3.673 13.375 3.287 18.658-.869 4.993-3.927 7.023-12.676 4.399-18.956-1.255-3.003-367.771-372.389-372.245-375.159-2.403-1.488-8.431-2.768-10.151-2.155m108.8 32.581c-8.041 1.217-17.172 3.192-17.546 3.797-.244.396 59.955 61.444 133.776 135.664l134.22 134.944 3.692-4.146c2.03-2.281 7.475-9.139 12.099-15.24 28.341-37.39 44.327-74.647 49.614-115.627 1.636-12.679 1.428-38.162-.383-47.164-9.684-48.11-46.601-84.511-92.896-91.596-10.683-1.635-28.529-1.209-38.683.923-23.228 4.878-43.531 16.347-62.603 35.366-7.573 7.552-10.282 9.742-12.05 9.742-1.762 0-4.394-2.114-11.6-9.315-10.309-10.304-15.106-14.174-26.156-21.101-17.72-11.108-38.659-16.933-59.964-16.68-5.163.061-10.347.256-11.52.433m-90.375 70.146c-1.47 2.788-5.135 15.432-6.623 22.847-1.829 9.122-2.018 32.776-.366 45.972 3.435 27.441 13 56.563 26.651 81.143 19.973 35.966 50.135 70.463 92.473 105.765 20.978 17.491 64.388 49.399 73.387 53.941 8.736 4.409 18.551 4.512 27.402.285 7.681-3.667 56.548-38.702 56.619-40.592.018-.465-25.801-26.769-57.374-58.453-31.573-31.685-92.06-92.417-134.416-134.961-62.018-62.292-77.156-77.079-77.753-75.947" fill-rule="evenodd"/></svg>