<svg xmlns="http://www.w3.org/2000/svg" width="512" height="512"><path d="M241.92 48.669c-64.561 4.115-123.152 38.433-159.962 93.693-26.292 39.469-38.649 92.321-32.455 138.811 6.326 47.479 26.376 88.354 59.673 121.651 33.526 33.526 73.443 53.027 122.504 59.846 4.224.587 15.168 1.068 24.32 1.068 9.152 0 20.096-.481 24.32-1.068 49.001-6.811 88.952-26.339 122.482-59.868 33.529-33.53 53.057-73.481 59.868-122.482 1.376-9.9 1.376-38.74 0-48.64-6.778-48.766-26.328-88.904-59.45-122.057-11.819-11.831-20.651-19.077-33.662-27.617-37.561-24.655-81.952-36.249-127.638-33.337m-22.613 120.646c11.156 2.371 21.325 8.229 30.897 17.801l5.832 5.833 5.742-5.912c13.089-13.477 28.817-19.816 46.346-18.681 13.462.872 24.975 6.172 34.841 16.039 15.243 15.242 19.935 34.637 14.898 61.58-3.757 20.1-16.009 43.084-31.89 59.822-11.917 12.562-36.247 33.402-58.493 50.105L256 364.52l-11.732-8.808c-22.269-16.72-46.232-37.256-58.241-49.915-8.334-8.784-15.814-19.461-21.601-30.834-8.699-17.097-11.989-30.525-11.963-48.83.014-10.097.293-12.363 2.253-18.346 5.178-15.804 16.004-28.178 30.425-34.778 10.31-4.718 22.926-6.082 34.166-3.694" fill-rule="evenodd"/></svg>