<svg xmlns="http://www.w3.org/2000/svg" width="512" height="512"><path d="M149.333 64.486c-1.173.205-5.013.794-8.533 1.308-37.709 5.51-72.59 35.318-86.083 73.565-5.902 16.729-7.853 34.33-6.118 55.201 6.112 73.561 46.436 137.279 128.625 203.246 22.632 18.166 56.672 42.666 65.492 47.138 4.701 2.383 5.923 2.625 13.284 2.625 7.361 0 8.583-.242 13.284-2.625 13.427-6.808 60.51-42.059 86.365-64.663 60.869-53.215 95.7-108.184 105.514-166.521 6.983-41.5 1.389-73.483-17.752-101.517-16.386-23.998-43.474-41.495-72.211-46.644-9.053-1.622-30.233-1.42-39.119.372-25.79 5.203-50.172 19.668-69.313 41.122-3.35 3.755-6.403 6.827-6.785 6.827-.381 0-3.219-2.88-6.306-6.4-18.598-21.211-44.083-36.442-69.306-41.422-6.578-1.299-26.817-2.35-31.038-1.612m224.265 34.425c27.048 7.877 48.422 30.184 55.673 58.102 4.94 19.018 2.121 52.451-6.616 78.48-17.304 51.551-56.744 99.124-124.842 150.588-14.341 10.838-40.552 29.492-41.44 29.492-.235 0-.295-50.208-.134-111.573.264-100.038.44-112.221 1.707-117.838 5.648-25.057 15.098-43.222 31.261-60.091 15.156-15.819 29.848-24.536 47.86-28.396 8.368-1.794 28.463-1.114 36.531 1.236" fill-rule="evenodd"/></svg>