<svg xmlns="http://www.w3.org/2000/svg" width="512" height="512"><path d="M148.48 64.534c-14.916 1.894-26.371 5.339-38.72 11.645-30.784 15.718-52.768 45.097-59.515 79.53-4.35 22.206-2.231 52.291 5.659 80.322 19.16 68.075 71.584 129.42 168.096 196.702 16.31 11.37 17.81 12.261 23.408 13.906 8.134 2.389 17.557 1.192 24.805-3.151 5.047-3.024 27.937-19.209 40.534-28.66 65.015-48.782 104.03-91.274 128.2-139.628 19.365-38.741 27.573-86.199 20.722-119.815-9.294-45.606-43.895-80.529-88.583-89.406-10.353-2.056-31.316-2.046-41.139.021-24.609 5.176-45.337 16.901-65.19 36.875-6.057 6.094-9.47 8.912-10.795 8.912-1.307 0-4.338-2.444-9.333-7.525-20.876-21.236-41.303-33.012-66.149-38.134-6.687-1.378-26.089-2.345-32-1.594" fill-rule="evenodd"/></svg>