<svg xmlns="http://www.w3.org/2000/svg" width="512" height="512"><path d="M146.468 64.877c-20.184 2.304-40.486 11.037-56.823 24.442-20.202 16.577-33.679 39.221-39.431 66.254-1.506 7.079-1.856 11.626-1.885 24.48-.019 8.683.46 19.435 1.066 23.894 11.266 82.967 63.179 150.613 176.738 230.302 6.336 4.446 13.824 9.262 16.64 10.702 4.652 2.378 5.861 2.618 13.227 2.618 7.366 0 8.575-.24 13.227-2.618 11.704-5.985 50.571-34.661 76.373-56.349 57.844-48.621 91.452-93.802 108.22-145.489 6.899-21.267 9.902-40.486 9.851-63.06-.029-12.854-.379-17.401-1.885-24.48-4.878-22.926-15.185-42.437-30.704-58.127-9.923-10.033-17.34-15.416-29.589-21.478-17.614-8.716-28.882-11.385-48.213-11.418-19.033-.033-32.282 2.848-48.4 10.526-13.786 6.567-23.123 13.43-36.72 26.99L256 114.193l-12.16-12.156c-13.41-13.405-23.323-20.644-37.37-27.288-8.623-4.078-19.845-7.643-28.407-9.022-7.933-1.279-24.045-1.712-31.595-.85m26.389 32.447c26.545 4.701 51.471 24.351 69.639 54.898 6.009 10.103 20.999 10.103 27.008 0 18.424-30.978 43.649-50.658 70.477-54.985 9.061-1.462 25.614-.614 33.746 1.728 14.454 4.164 30.097 14.553 39.245 26.065 9.221 11.604 14.23 22.272 17.221 36.677 2.979 14.346 1.545 39.122-3.457 59.733-6.951 28.644-22.564 58.625-44.903 86.225-25.672 31.718-69.966 70.318-118.373 103.156l-7.46 5.06-7.46-5.06c-9.887-6.708-31.177-22.23-40.753-29.713C130.771 320.923 92.846 268.29 82.286 206.933c-.727-4.224-1.531-14.208-1.786-22.186-.404-12.61-.23-15.638 1.327-23.156 3.011-14.531 8.789-26.496 18.377-38.052 10.807-13.027 29.449-23.643 46.569-26.521 4.461-.75 21.234-.554 26.084.306" fill-rule="evenodd"/></svg>