<svg xmlns="http://www.w3.org/2000/svg" width="512" height="512"><path d="M149.333 64.486c-1.173.205-5.013.794-8.533 1.308-37.709 5.51-72.59 35.318-86.083 73.565-5.902 16.729-7.853 34.33-6.118 55.201 3.989 48.01 21.889 90.011 57.098 133.973 8.16 10.189 34.496 36.674 45.77 46.028 16.819 13.956 39.782 30.504 71.893 51.81L256 448.028l32.64-21.657c50.163-33.283 70.703-49.188 95.423-73.892 48.673-48.64 74.535-100.118 79.338-157.919 2.694-32.414-3.593-58.303-19.99-82.317-16.385-23.996-43.427-41.465-72.211-46.65-10.132-1.824-31.031-1.405-41.547.834-25.722 5.475-48.575 18.679-67.609 39.061L256 111.96l-6.044-6.472c-19.083-20.434-42.246-33.793-67.609-38.993-8.242-1.689-27.973-2.89-33.014-2.009" fill-rule="evenodd"/></svg>