<svg xmlns="http://www.w3.org/2000/svg" width="512" height="512"><path d="M241.92 64.514c-28.033 2.894-47.985 8.33-69.973 19.064-38.739 18.911-68.69 48.723-87.924 87.515-26.675 53.803-26.675 116.011 0 169.814 9.922 20.011 20.442 34.744 35.902 50.275 58.19 58.463 146.379 73.393 220.128 37.268 59.273-29.035 98.994-85.237 106.68-150.945 9.367-80.077-33.809-158.549-106.68-193.889-18.826-9.13-35.757-14.418-55.893-17.458-8.715-1.315-35.372-2.353-42.24-1.644m37.01 33.242c69.939 10.254 125.06 65.375 135.314 135.314 2.552 17.411 1.405 43.911-2.601 60.05-16.931 68.215-74.571 117.097-144.336 122.406-82.743 6.296-157.422-53.868-169.551-136.596-1.732-11.816-1.732-34.044 0-45.86 5.032-34.323 20.655-65.363 45.303-90.011 25.006-25.006 56.45-40.617 92.034-45.694 8.931-1.274 34.006-1.05 43.837.391m-36.157 47.352c-25.663 4.024-47.473 22.754-54.955 47.195-3.021 9.868-2.057 15.941 3.239 20.397 5.047 4.247 11.951 4.592 17.09.853 2.595-1.887 6.04-8.252 6.04-11.158 0-1.125 1.161-4.478 2.581-7.452 4.944-10.361 16.407-19.226 27.967-21.63 6.426-1.335 21.119-1.169 26.772.303 9.517 2.479 19.342 9.954 23.601 17.957 1.999 3.758 2.271 5.237 2.275 12.392.003 7.452-.227 8.592-2.78 13.778-3.397 6.901-9.658 12.978-23.311 22.627-16.122 11.393-22.328 17.849-28.033 29.161-5.947 11.793-7.906 27.81-4.092 33.469 4.299 6.379 11.597 8.515 18.274 5.347 4.729-2.245 6.899-6.388 7.88-15.048 1.427-12.59 5.811-18.606 21.712-29.794 28.056-19.739 37.484-33.533 38.67-56.572.765-14.861-3.038-26.827-12.083-38.021-7.994-9.894-22.322-19.125-35.007-22.553-6.145-1.66-28.296-2.434-35.84-1.251m-1.918 185.176c-12.25 6.215-14.444 22.444-4.343 32.126 3.804 3.646 8.239 5.381 13.701 5.358 5.726-.024 10.488-2.19 14.431-6.563 3.977-4.412 5.281-8.484 4.856-15.163-.41-6.437-3.149-11.162-8.538-14.728-4.945-3.272-14.702-3.772-20.107-1.03" fill-rule="evenodd"/></svg>