<svg xmlns="http://www.w3.org/2000/svg" width="512" height="512"><path d="M235.947 32.121c-20.829 2.374-33.503 4.921-48.824 9.812-33.937 10.834-64.821 29.682-90.164 55.026-51.828 51.827-74.673 124.053-62.317 197.014 7.533 44.48 29.84 87.174 62.643 119.894 46.658 46.539 106.42 69.628 171.942 66.429 73.512-3.589 141.716-44.95 180.039-109.181 27.01-45.271 37.154-99.764 28.26-151.808-11.154-65.26-50.458-122.17-108.147-156.59-26.918-16.061-57.727-26.365-89.486-29.929-9.394-1.055-36.887-1.472-43.946-.667M192.181 77.44c1.048 1.206 1.862 10.86 4.224 50.133 1.608 26.752 2.789 49.226 2.624 49.941-.166.716-2.686 3.396-5.602 5.957-2.915 2.56-7.405 7.056-9.977 9.991-2.572 2.934-5.103 5.501-5.623 5.704-.521.202-22.985-.974-49.92-2.615-40.403-2.461-49.235-3.218-50.467-4.326-.821-.738-1.493-1.712-1.493-2.164 0-2.298 8.505-20.48 13.916-29.75 17.45-29.894 40.84-53.29 70.485-70.505 8.989-5.219 27.399-13.835 29.6-13.852.514-.004 1.519.665 2.233 1.486m137.894 1.557c37.593 15.459 70.924 44.851 91.982 81.116 5.132 8.837 13.971 27.689 13.989 29.835.027 3.33-1.588 3.536-52.03 6.608-26.978 1.643-49.508 2.73-50.066 2.416-.558-.315-2.964-2.801-5.346-5.525-2.383-2.724-6.825-7.14-9.872-9.813-5.254-4.61-5.542-5.059-5.576-8.701-.02-2.112 1.178-24.576 2.663-49.92 2.518-42.979 2.813-46.18 4.388-47.573.929-.821 1.86-1.493 2.069-1.493.209 0 3.719 1.372 7.799 3.05m-56.582 115.6c15.387 4.774 27.611 13.787 35.827 26.416 19.606 30.139 10.863 69.773-19.722 89.396-20.362 13.065-48.842 12.52-69.156-1.323-12.76-8.695-22.336-22.358-26.442-37.726-1.859-6.958-2.067-23.214-.381-29.806 3.041-11.894 9.289-22.832 17.739-31.055 9.33-9.078 19.434-14.413 32.695-17.264 7.775-1.672 21.748-1.025 29.44 1.362m-90.022 123.976c2.56 2.915 7.041 7.396 9.956 9.956 2.916 2.561 5.436 5.241 5.602 5.957.165.715-1.011 23.189-2.614 49.941-3.436 57.35-2.435 53.31-12.269 49.54-14.769-5.661-34.742-17.468-48.893-28.905-8.308-6.714-22.581-21.059-29.021-29.169-10.708-13.483-21.486-31.642-27.262-45.933-3.314-8.202-3.335-8.32-1.696-9.881 1.494-1.422 6.504-1.87 50.299-4.494 26.752-1.603 49.226-2.779 49.941-2.614.716.166 3.396 2.686 5.957 5.602m203.089-2.74c47.53 2.76 49.512 3.009 49.486 6.219-.005.514-1.919 5.316-4.254 10.671-14.577 33.433-39.109 62.624-69.979 83.271-9.382 6.276-24.985 14.534-33.959 17.973-9.834 3.77-8.833 7.81-12.269-49.54-1.603-26.752-2.779-49.226-2.614-49.941.166-.716 2.679-3.392 5.585-5.946 2.906-2.555 7.204-6.881 9.551-9.614 4.643-5.408 6.254-6.412 9.69-6.039 1.241.135 23.184 1.46 48.763 2.946" fill-rule="evenodd"/></svg>