<svg xmlns="http://www.w3.org/2000/svg" width="512" height="512"><path d="M243.928 34.449c-2.651 1.091-5.915 2.844-7.254 3.897-2.427 1.908-182.545 174.055-205.856 196.746-6.751 6.571-12.799 13.184-13.44 14.694-3.4 8.014.314 16.951 8.649 20.81 7.897 3.656 12.817 1.41 26.455-12.072 5.677-5.612 10.591-10.204 10.92-10.204.329 0 .598 46.02.598 102.268 0 97.549.074 102.49 1.593 107.097 3.064 9.285 9.965 16.473 19.525 20.333L90.027 480H195.84l3.979-2.339c2.189-1.287 4.877-3.783 5.973-5.547l1.995-3.207.426-72.297.427-72.297 1.944-1.943 1.943-1.943h86.946l1.943 1.943 1.944 1.943.427 72.297.426 72.297 1.995 3.207c1.096 1.764 3.784 4.26 5.973 5.547L316.16 480H421.973l4.909-1.982c8.94-3.61 16.038-10.637 19.282-19.091 1.274-3.32 1.45-13.659 1.836-107.354l.427-103.68 10.76 10.442c10.897 10.573 15.81 13.841 20.813 13.841 6.288 0 14.309-6.434 15.423-12.372.802-4.277-.069-9.654-1.988-12.263-.892-1.214-18.488-18.4-39.102-38.191l-37.48-35.983-.426-56.603L416 60.16l-2.124-3.71c-1.309-2.286-3.602-4.58-5.973-5.974l-3.85-2.263h-27.306c-15.019 0-28.356.294-29.638.653-2.63.736-7.874 5.062-9.435 7.784-.683 1.191-1.179 8.148-1.461 20.475l-.426 18.672-29.251-27.985c-16.088-15.392-30.468-28.883-31.955-29.98-7.699-5.681-21.393-7.192-30.653-3.383m92.201 105.924 79.395 75.947.025 115.84.024 115.84h-79.298l-.244-64.213-.244-64.214-2.046-5.12c-4.064-10.17-11.65-18.301-21.421-22.957l-5.547-2.643H205.227l-5.547 2.643c-9.771 4.656-17.357 12.787-21.421 22.957l-2.046 5.12-.244 64.214-.244 64.213H96.427l.024-115.84.024-115.84 79.549-76.133c43.752-41.873 79.81-76.049 80.129-75.946.319.102 36.308 34.362 79.976 76.132M384 111.081v30.868l-7.04-6.722c-3.872-3.697-7.52-7.293-8.107-7.991-.795-.946-1.066-7.09-1.066-24.146V80.213H384v30.868" fill-rule="evenodd"/></svg>