<svg xmlns="http://www.w3.org/2000/svg" width="512" height="512"><path d="m95.609 88.107.035 55.68 54.098 55.893c29.754 30.741 54.098 56.085 54.098 56.32 0 .235-24.346 25.579-54.102 56.32l-54.102 55.893.182 55.894L96 480h320l.182-55.893.182-55.894-54.102-55.893c-29.756-30.741-54.102-56.085-54.102-56.32 0-.235 24.344-25.579 54.098-56.32l54.098-55.893.035-55.68.036-55.68H95.573l.036 55.68m216.494 96.003-39.89 39.897v112.276l45.104 47.539 45.104 47.538-53.144.22c-29.23.121-77.341.121-106.915 0l-53.77-.22 45.597-47.546 45.598-47.547v-112.26l-39.89-39.897-39.89-39.897h191.986l-39.89 39.897" fill-rule="evenodd"/></svg>