<svg xmlns="http://www.w3.org/2000/svg" width="512" height="512"><path d="M131.84 34.022c-16.444 4.734-29.951 18.139-34.145 33.888-1.94 7.283-1.67 18.512.787 32.783 4.672 27.139 12.595 49.319 24.438 68.413 9.581 15.449 15.92 22.456 50.044 55.321 16.999 16.372 18.548 19.007 18.585 31.618.042 14.163-2.897 18.227-34.674 47.964-6.882 6.44-15.497 15.264-19.144 19.61-17.222 20.519-29.494 45.488-36.177 73.608-5.278 22.209-6.55 37.731-3.857 47.061 4.726 16.37 18.313 29.452 35.529 34.209C138.299 479.898 146.59 480 256 480s117.701-.102 122.774-1.503c17.216-4.757 30.803-17.839 35.529-34.209 4.305-14.914-2.388-51.234-14.728-79.915-9.35-21.731-20.391-37.224-40.439-56.746-31.274-30.454-32.986-32.287-35.914-38.472-2.478-5.231-2.795-6.728-2.795-13.173 0-6.541.29-7.861 2.894-13.151 3.165-6.429 6.912-10.429 31.622-33.764 20.393-19.258 29.543-30.626 39.152-48.64 14.571-27.317 24.892-72.911 20.58-90.913-3.109-12.976-12.558-25.146-24.275-31.263-11.881-6.203-3.164-5.831-134.95-5.764-109.595.057-118.874.172-123.61 1.535m201.272 111.96c1.793 1.411 2.248 2.496 2.248 5.366 0 3.14-.691 4.46-5.439 10.391-6.933 8.662-15.893 17.199-30.401 28.967-14.877 12.067-22.247 19.412-25.071 24.986l-2.271 4.481.231 56.527c.231 56.522.231 56.527 2.133 60.367 4.862 9.813 13.663 17.638 39.222 34.869 35.619 24.012 44.467 33.445 43.635 46.518-.394 6.189-2.531 9.825-7.028 11.959-2.678 1.271-11.242 1.376-95.101 1.172-91.999-.225-92.163-.228-94.568-2.01-6.782-5.026-8.34-13.768-3.905-21.917 2.783-5.113 11.57-12.967 24.717-22.094l21.579-14.98c21.389-14.848 30.313-23.646 34.626-34.134l2.027-4.93.02-55.689c.02-53.947-.033-55.803-1.687-59.323-2.722-5.791-8.638-11.871-24.682-25.368-15.396-12.953-28.167-25.384-33.651-32.756-3.052-4.104-4.086-8.845-2.453-11.257 1.888-2.789 3.873-2.862 78.805-2.888 74.365-.026 74.777-.016 77.014 1.743" fill-rule="evenodd"/></svg>