<svg xmlns="http://www.w3.org/2000/svg" width="512" height="512"><path d="M132.461 33.661c-15.02 3.638-29.276 16.957-34.299 32.046-2.282 6.855-2.473 17.133-.554 29.684 4.014 26.243 11.614 49.607 22.276 68.485 9.897 17.525 18.72 27.601 52.271 59.697 12.275 11.743 14.139 13.897 16.613 19.2 2.483 5.322 2.781 6.765 2.735 13.227-.095 13.224-4.284 19.623-25.996 39.714-28.672 26.531-39.868 40.694-51.224 64.799-11.062 23.48-20.04 62.705-17.864 78.048 2.728 19.233 17.799 35.397 37.554 40.279 6.948 1.717 237.106 1.717 244.054 0 15.53-3.838 29.338-15.656 34.962-29.925 3.005-7.624 3.597-14.969 2.118-26.292-4.823-36.92-16.838-67.716-36.876-94.516-2.106-2.816-14.677-15.872-27.937-29.014-21.723-21.528-24.395-24.482-26.988-29.848-2.581-5.338-2.879-6.712-2.879-13.245 0-6.557.292-7.887 2.906-13.245 2.452-5.026 4.71-7.686 14.47-17.048 35.595-34.143 42.521-41.886 52.644-58.848 14.084-23.602 25.28-62.55 25.29-87.983.004-9.671-2.515-17.522-8.164-25.438-7.236-10.141-18.502-17.842-29.375-20.08-7.001-1.442-239.719-1.154-245.737.303m243.677 33.143c4.018 2.611 6.73 6.415 7.509 10.533 1.36 7.2-5.436 38.844-11.746 54.686-8.068 20.257-17.832 33.775-38.564 53.397-29.348 27.775-34.547 33.706-39.904 45.52-7.436 16.399-6.963 36.627 1.237 52.909 4.839 9.61 9.676 15.181 31.745 36.566 14.761 14.304 23.049 23.066 27.805 29.395 14.972 19.922 24.801 45.743 29.004 76.191.908 6.575.857 7.886-.434 11.267-1.74 4.557-6.051 8.592-10.5 9.827-4.487 1.246-228.093 1.246-232.58 0-4.449-1.235-8.76-5.27-10.5-9.827-1.291-3.381-1.342-4.692-.434-11.267 4.77-34.555 16.212-61.735 35.35-83.973 3.105-3.608 12.796-13.203 21.535-21.323 23.391-21.732 30.24-30.463 34.922-44.512 5.308-15.928 4.194-33.154-3.095-47.858-4.439-8.952-9.822-15.434-23.555-28.364-35.894-33.791-44.9-45.244-54.315-69.07-5.881-14.883-12.567-46.675-11.265-53.564 1.04-5.498 6.539-11.296 12.067-12.723.913-.235 53.5-.374 116.86-.308l115.2.121 3.658 2.377m-196.664 78.424c-2.665 1.288-3.986 4.914-2.866 7.862 2.514 6.613 18.292 22.819 38.915 39.972 14.666 12.198 19.382 17.149 22.273 23.386l2.038 4.396-.237 56.191-.237 56.192-2.216 4.693c-4.819 10.204-14.069 18.937-36.184 34.16-33.264 22.898-41.615 29.66-44.829 36.3-2.3 4.751-2.543 11.577-.55 15.432 1.858 3.592 6.015 6.948 9.351 7.547 1.511.271 43.674.383 93.695.247l90.946-.246 3.108-2.37c2.277-1.737 3.457-3.551 4.419-6.788 4.141-13.946-6.126-25.517-46.599-52.518-21.779-14.528-30.395-22.315-35.599-32.173l-2.262-4.284-.237-56.192-.237-56.191 2.144-4.685c2.637-5.758 9.612-12.801 25.21-25.453 18.498-15.004 33.393-30.244 35.833-36.661 1.155-3.038.282-6.078-2.337-8.138-2.111-1.661-3.598-1.693-76.918-1.636-50.508.039-75.368.349-76.624.957" fill-rule="evenodd"/></svg>