<svg xmlns="http://www.w3.org/2000/svg" viewBox="0 0 512 512"><path d="M131.588 17.155c-21.194 3.574-41.23 21.294-48.623 43.005l-2.325 6.827v378.026l2.325 6.827c3.412 10.019 7.866 17.018 16.022 25.173 8.155 8.156 15.154 12.61 25.173 16.022l6.827 2.325h250.026l6.827-2.325c10.019-3.412 17.018-7.866 25.173-16.022 8.156-8.155 12.61-15.154 16.022-25.173l2.325-6.827V66.987l-2.325-6.827c-3.341-9.81-7.806-16.914-15.595-24.814-7.717-7.826-15.431-12.741-25.6-16.31l-6.827-2.396-122.453-.123c-68.557-.069-124.442.212-126.972.638m249.17 33.767c7.275 3.446 12.874 9.045 16.32 16.32l2.709 5.718v366.08l-2.725 5.752c-4.744 10.014-13.011 16.616-23.235 18.555-6.263 1.188-229.391 1.188-235.654 0-10.224-1.939-18.491-8.541-23.235-18.555l-2.725-5.752V72.96l2.709-5.718c4.673-9.864 13.975-17.163 23.736-18.625 2.351-.353 56.499-.587 120.329-.522l116.053.118 5.718 2.709M203.52 64.712c-15.763 5.244-14.863 27.32 1.255 30.776 6.025 1.292 96.425 1.292 102.45 0 8.189-1.756 13.495-9.15 12.554-17.495-.498-4.418-2.211-7.119-6.953-10.957l-3.223-2.609-52.188-.141c-28.704-.078-52.956.114-53.895.426m89.263 208.852c-14.666 3.943-25.88 16.755-28.275 32.301-3.011 19.551 8.534 41.46 25.895 49.14 13.646 6.036 27.653 2.855 39.413-8.952 20.098-20.179 18.484-53.067-3.295-67.144-9.773-6.317-22.581-8.346-33.738-5.345m-6.357 104.119c-31.683 5.724-55.312 25.843-61.499 52.361-1.858 7.967.251 13.938 5.865 16.602 2.533 1.202 10.73 1.354 73.124 1.353 65.215-.002 70.481-.109 73.197-1.494 3.943-2.01 6.135-5.226 6.645-9.745.532-4.726-3.603-17.585-7.964-24.764-10.735-17.671-31.408-30.523-55.367-34.42-9.51-1.547-25.122-1.498-34.001.107" fill-rule="evenodd"/></svg>