<svg xmlns="http://www.w3.org/2000/svg" viewBox="0 0 512 512"><path d="M130.133 17.601c-3.285.696-9.429 2.944-13.653 4.996-13.892 6.748-23.183 16.047-29.858 29.883-6.932 14.37-6.409-2.257-6.409 203.52 0 205.777-.523 189.15 6.409 203.52 6.684 13.854 16.004 23.174 29.858 29.858 14.124 6.813 5.314 6.409 139.52 6.409 134.206 0 125.396.404 139.52-6.409 13.854-6.684 23.174-16.004 29.858-29.858 6.932-14.37 6.409 2.257 6.409-203.52 0-205.777.523-189.15-6.409-203.52-7.995-16.572-20.866-27.669-39.245-33.836l-5.973-2.004-122.027-.152c-104.994-.131-122.86.024-128 1.113m180.054 48.012c14.231 6.568 12.24 26.379-3.004 29.891-5.178 1.193-97.188 1.193-102.366 0-15.244-3.512-17.235-23.323-3.004-29.891 3.198-1.476 6.626-1.576 54.187-1.576s50.989.1 54.187 1.576m5.731 208.294c25.039 7.734 35.192 35.256 22.386 60.684-3.88 7.706-12.377 16.438-19.164 19.696-18.441 8.853-39.219.529-49.386-19.785-4.315-8.62-5.483-14.399-5.076-25.104.285-7.497.675-9.34 3.048-14.39 3.213-6.838 10.375-14.721 16.311-17.952 9.141-4.975 21.891-6.234 31.881-3.149m4.509 103.669c31.629 5.144 55.771 25.108 62.38 51.586 1.588 6.364 1.197 10.118-1.442 13.823-3.696 5.191-.967 5.015-77.635 5.015-77.64 0-74.009.259-77.583-5.525-5.302-8.578 2.35-29.228 15.822-42.7 10.83-10.83 27.23-18.98 44.457-22.092 8.879-1.605 24.491-1.654 34.001-.107" fill-rule="evenodd"/></svg>