<svg xmlns="http://www.w3.org/2000/svg" width="512" height="512"><path d="M47.787 34.178C24.28 40.303 6.23 59.369 1.288 83.29-.619 92.524-.629 355.673 1.277 364.8c5.118 24.5 24.601 44.305 49.07 49.88 2.112.482 9.696 1.132 16.853 1.445l13.013.569v4.85c0 19.981 14.622 42.154 34.316 52.036 13.783 6.917-.297 6.42 182.004 6.42 182.51 0 166.704.575 181.334-6.598 5.937-2.911 8.741-5.037 15.457-11.72 7.098-7.063 8.731-9.255 12.114-16.256 7.049-14.592 6.643-4.882 6.368-152.306-.228-122.22-.34-130.883-1.76-135.618-7.688-25.64-29.066-42.856-56.286-45.328l-5.76-.523-.015-11.239c-.029-22.15-5.348-35.917-19.215-49.73-7.114-7.087-15.604-12.393-24.906-15.565l-6.637-2.264-171.52-.171c-167.727-.168-171.662-.135-177.92 1.496m342.192 30.676c9.657 1.832 18.738 8.905 22.942 17.868 2.013 4.292 2.252 5.905 2.502 16.905l.276 12.16-136.809.007c-85.807.004-139.592.325-144.272.862-4.105.47-9.289 1.472-11.52 2.227-16.335 5.525-29.512 17.053-36.939 32.317-6.226 12.794-5.946 6.756-5.946 128.056V384H70.049c-7.6 0-11.482-.41-15.389-1.626-9.594-2.986-17.773-10.986-20.921-20.464-1.183-3.562-1.304-18.746-1.107-139.22l.221-135.223 2.308-4.924C39.17 73.987 48.364 66.678 57.34 64.91c5.388-1.061 327.055-1.115 332.639-.056m72.528 82c5.672 2.676 11.294 8.138 14.367 13.96l2.273 4.306.227 101.773.226 101.774-20.012-16.62c-30.114-25.008-31.861-26.214-42.093-29.074-7.117-1.989-20.654-1.428-27.857 1.154-7.58 2.718-11.131 5.395-26.143 19.71l-13.765 13.128-14.225-14.017c-7.824-7.709-27.857-27.47-44.518-43.912-32.856-32.425-34.759-33.924-46.595-36.706-4.164-.978-8.256-1.264-13.992-.976-8.98.451-14.745 2.238-21.926 6.797-2.411 1.53-24.941 20.926-50.067 43.102-25.125 22.176-45.905 40.32-46.177 40.32-.272 0-.387-41.376-.256-91.946.267-102.456-.195-94.739 6.182-103.425 3.415-4.652 7.855-7.964 13.79-10.287 4.048-1.585 8.533-1.624 165.014-1.452l160.853.177 4.694 2.214m-99.792 27.303c-12.221 2.397-26.269 13.583-31.954 25.446-16.026 33.441 12.104 71.363 48.953 65.992 20.223-2.947 36.523-19.187 39.457-39.311 2.866-19.669-7.447-39.206-25.336-47.996-3.767-1.851-8.917-3.747-11.445-4.213-5.419-1-14.346-.963-19.675.082m17.13 32.868c2.851 1.431 6.557 5.808 7.247 8.558.848 3.377-.198 9.695-2.01 12.141-3.12 4.214-6.871 6.089-12.175 6.089-8.357 0-13.727-5.037-14.314-13.428-.287-4.106-.014-5.399 1.651-7.827 4.806-7.003 12.404-9.148 19.601-5.533M240.202 294.64c1.055.572 21.066 19.957 44.47 43.078l42.552 42.037-34.119 34.138-34.118 34.138-62.294-.229-62.293-.229-4.693-2.213c-6.24-2.944-11.631-8.499-14.827-15.28-2.6-5.518-2.614-5.623-2.64-20.451l-.027-14.905 52.48-46.372c63.202-55.847 59.933-53.056 63.83-54.495 3.399-1.255 8.56-.91 11.679.783m171.25 60.156c1.723.809 17.75 13.567 35.616 28.351l32.483 26.88.011 7.008c.008 5.099-.487 8.341-1.82 11.903-1.936 5.175-7.455 11.833-12.28 14.815-6.933 4.284-5.783 4.228-86.151 4.238l-75.09.009 34.556-34.635c41.176-41.27 59.75-58.962 62.441-59.475 4.135-.788 7.206-.517 10.234.906" fill-rule="evenodd"/></svg>