<svg xmlns="http://www.w3.org/2000/svg" width="512" height="512"><path d="M48.135 65.558c-7.816 2.702-13.096 8.536-15.267 16.871-1.136 4.361-1.295 25.62-1.295 173.571 0 149.168.152 169.184 1.316 173.654 2.092 8.031 7.13 13.721 14.716 16.621C52.088 447.989 53.463 448 256 448s203.912-.011 208.395-1.725c7.586-2.9 12.624-8.59 14.716-16.621 1.164-4.47 1.316-24.486 1.316-173.654 0-147.951-.159-169.21-1.295-173.571-2.171-8.335-7.451-14.169-15.267-16.871-4.1-1.418-15.809-1.502-207.865-1.502s-203.765.084-207.865 1.502m302.647 64.935c6.33 1.974 14.113 6.746 19.046 11.679 18.697 18.698 18.579 49.171-.265 67.748-9.644 9.508-20.055 13.758-33.803 13.798-13.456.04-25.003-5.032-34.653-15.22-8.489-8.963-12.688-19.792-12.67-32.677.018-13.319 4.391-24.058 13.542-33.261 6.456-6.491 15.159-11.453 23.376-13.327 6.893-1.572 18.128-1.015 25.427 1.26M241.494 250.454l48.208 48.213-58.878 58.898-58.877 58.898-49.494-.232c-47.739-.223-49.595-.291-52.383-1.938-1.59-.938-3.606-3.044-4.48-4.68-1.495-2.796-1.588-5.67-1.55-48.213l.04-45.24 64.173-56.959c35.296-31.327 64.367-56.959 64.603-56.96.236 0 22.123 21.695 48.638 48.213m166.484 49.99L448 333.795v36.423c0 33.897-.11 36.628-1.59 39.395-.874 1.636-2.89 3.742-4.48 4.68-2.844 1.68-4.631 1.711-113.183 1.933-60.662.124-110.294-.067-110.294-.425 0-.9 147.876-148.708 148.777-148.708.4 0 18.736 15.008 40.748 33.351" fill-rule="evenodd"/></svg>