<svg xmlns="http://www.w3.org/2000/svg" width="512" height="512"><path d="M87.467 64.527c-.939.189-3.819.762-6.4 1.274-2.582.512-7.853 2.399-11.715 4.194-18.066 8.397-30.873 23.856-35.875 43.302C32.107 118.626 32 128.916 32 256s.107 137.374 1.477 142.703c5.129 19.943 19.901 37.233 38.14 44.645C83.614 448.222 74.799 448 256 448c181.201 0 172.386.222 184.383-4.652 18.239-7.412 33.011-24.702 38.14-44.645C479.893 393.374 480 383.084 480 256s-.107-137.374-1.477-142.703c-4.975-19.344-17.896-34.944-35.932-43.384-12.655-5.923 3.387-5.435-184.031-5.59-93.163-.077-170.155.015-171.093.204M427.672 98.46c10.412 4.283 17.72 13.077 19.423 23.371.669 4.05.88 36.079.714 108.677l-.236 102.934-23.466-19.56c-27.581-22.988-30.083-24.795-38.448-27.77-5.478-1.948-7.703-2.258-16.166-2.247-7.93.009-10.782.367-14.865 1.864-8.887 3.259-12.564 6.047-27.581 20.91l-14.713 14.563-46.3-46.128c-45.785-45.615-46.381-46.168-53.554-49.673-14.872-7.268-30.141-7.149-44.295.346-4.238 2.244-17.727 13.744-54.692 46.628l-49.066 43.648-.236-94.225c-.165-66.217.047-95.932.714-99.967 1.703-10.294 9.011-19.089 19.423-23.371l4.845-1.993h333.654l4.845 1.993M325.12 129.334c-16.549 3.574-30.473 16.971-35.465 34.124-2.086 7.17-1.903 19.58.397 26.897 3.207 10.201 10.972 20.073 20.829 26.479 18.705 12.158 45.324 8.372 60.584-8.617 7.969-8.872 11.533-17.434 12.255-29.444 1.928-32.056-26.813-56.304-58.6-49.439m17.749 32.296c2.623 1.371 6.331 5.158 7.747 7.914 1.503 2.926 1.155 10.19-.659 13.743-1.995 3.911-3.934 5.707-7.987 7.4-6.675 2.789-12.953 1.157-17.933-4.661-6.685-7.81-4.378-19.714 4.686-24.182 3.466-1.708 11.066-1.823 14.146-.214m-144.593 92.355c1.476.742 22.652 21.273 47.057 45.626l44.374 44.276-36.329 36.311-36.328 36.31-63.512-.254L90.027 416l-4.909-1.982c-10.054-4.06-17.681-12.539-19.95-22.181-.723-3.074-1.125-10.008-1.098-18.93l.044-14.08 56.234-49.92c30.929-27.456 57.544-51.005 59.145-52.332 5.828-4.827 12.503-5.747 18.783-2.59M378.26 317.79c1.667 1.132 18.041 14.578 36.386 29.881L448 375.495l-.018 5.319c-.054 16.205-7.343 27.639-21.185 33.236l-4.824 1.95-79.146.247c-43.531.135-79.147-.058-79.147-.43 0-1.282 97.711-98.311 99.84-99.142 1.173-.459 4.288-.858 6.921-.888 3.712-.042 5.469.409 7.819 2.003" fill-rule="evenodd"/></svg>