<svg xmlns="http://www.w3.org/2000/svg" width="512" height="512"><path d="M49.73 33.716C27.84 38.473 10.245 54.98 2.444 78.08L.427 84.053.196 220.568C-.055 368.592-.192 363.7 4.546 375.431c7.379 18.27 22.568 32.229 41.298 37.956l1.898.58.243-136.37.243-136.37 1.922-6.827c7.814-27.768 29.066-47.74 56.378-52.984 5.254-1.009 33.064-1.203 172.694-1.203h166.431l-.529-2.773c-.866-4.532-6.961-16.055-11.387-21.526-8.465-10.464-23.042-19.539-35.657-22.198-8.556-1.804-340.049-1.804-348.35 0m84.935 78.951c-21.155 2.503-39.29 15.426-48.461 34.533-6.359 13.248-5.991 4.082-5.991 149.152 0 127.356.036 130.181 1.712 136.791 5.431 21.417 21.122 37.608 43.088 44.461l7.68 2.396h162.134c176.141 0 166.603.251 178.919-4.716 8.242-3.325 12.828-6.227 19.083-12.078 7.568-7.08 13.201-15.774 16.25-25.083l2.494-7.616v-268.8l-2.393-6.827c-7.211-20.567-22.34-34.878-43.128-40.798l-6.532-1.86-159.573-.115c-87.766-.064-162.143.188-165.282.56M380.587 174.1c18.681 2.899 34.77 19.406 37.625 38.604 4.675 31.433-24.098 58.332-55.034 51.449-15.014-3.34-26.83-13.256-32.798-27.521-9.122-21.805.942-47.909 22.492-58.342 9.582-4.64 17.299-5.806 27.715-4.19m-133.789 89.567c10.151 3.136 14.65 6.919 48.882 41.113l32.427 32.39-56.632 56.269-56.631 56.268h-36.906c-21.396 0-38.824-.364-41.472-.866-9.77-1.853-17.097-7.638-21.6-17.054l-2.653-5.547-.226-36.267-.227-36.266 46.881-41.785c25.785-22.982 48.735-42.859 51-44.172 7.056-4.089 13.432-5.676 23.016-5.729 6.334-.035 10.128.407 14.141 1.646m172.325 60.572c8.418 2.6 14.201 6.681 38.129 26.908l22.21 18.773.055 27.488c.054 26.101-.036 27.735-1.776 32.385-2.552 6.821-10.393 14.706-17.368 17.463l-5.12 2.024-98.133.221-98.133.222 59.306-59.209c39.642-39.576 60.722-60.022 63.574-61.661 11.128-6.398 25.656-8.197 37.256-4.614" fill-rule="evenodd"/></svg>