<svg xmlns="http://www.w3.org/2000/svg" width="512" height="512"><path d="M112.213 145.495c-25.385 4.04-47.286 15.526-65.305 34.249-11.87 12.333-19.574 25.096-25.075 41.537-11.26 33.655-5.53 70.587 15.478 99.764 6.332 8.796 19.375 21.32 28.396 27.267 19.245 12.689 36.999 18.35 60.272 19.216 15.68.584 25.858-.85 40.517-5.707 21.357-7.077 40.276-18.897 59.57-37.217 10.922-10.371 13.721-14.483 13.721-20.158 0-9.569-6.357-16.019-15.787-16.019-5.864 0-7.808 1.188-17.866 10.924-5.192 5.026-11.745 10.898-14.561 13.047-32.776 25.021-67.945 30.223-98.986 14.642-8.069-4.05-12.637-7.255-19.087-13.391C56.57 297.542 48.444 278.847 48.444 256c0-22.634 7.993-41.209 24.654-57.289 21.56-20.808 55.003-27.966 83.915-17.959 30.425 10.531 62.729 42.084 84.9 82.928 6.477 11.93 17.291 28.248 26.014 39.253 8.267 10.43 25.851 28.26 34.908 35.398 19.131 15.075 39.95 24.635 61.426 28.207 10.624 1.766 30.912 1.329 41.072-.886 33.698-7.345 62.254-28.766 77.97-58.487 13.741-25.986 16.279-57.744 6.864-85.884-5.5-16.439-13.203-29.201-25.075-41.539-22.166-23.038-51.159-35.472-82.799-35.508-33.597-.039-66.279 14.6-96.359 43.162-10.87 10.322-13.721 14.493-13.721 20.076 0 5.006 1.14 8.134 4.108 11.271 4.474 4.729 9.944 6.252 15.954 4.444 3.109-.936 5.946-3.139 13.643-10.595 22.733-22.023 44.99-33.692 68.531-35.931 41.887-3.983 80.643 24.543 88.083 64.832 1.316 7.128 1.315 21.899-.003 29.014-4.419 23.863-20.857 45.421-43.116 56.546-21.889 10.94-45.727 11.718-69.459 2.266-27.987-11.147-59-42.6-79.863-80.999-22.468-41.352-55.471-75.759-88.004-91.747-21.569-10.599-47.272-14.674-69.874-11.078" fill-rule="evenodd"/></svg>