<svg xmlns="http://www.w3.org/2000/svg" width="512" height="512"><path d="M108.8 137.912c-44.697 8.023-81.51 39.723-95.018 81.821-5.742 17.894-7.275 39.596-4.009 56.747 8.366 43.924 38.826 78.82 81.131 92.943 43.008 14.358 89.143 4.536 127.976-27.245 6.441-5.271 16.973-16.629 16.403-17.689-2.037-3.792-23.333-38.503-24.19-39.429-.977-1.057-2.891.478-13.317 10.682-13.166 12.885-20.169 18.029-32.443 23.831-12.24 5.785-18.797 7.365-32.64 7.862-14.868.534-23.125-1.168-35.84-7.39-14.86-7.272-26.164-18.446-33.24-32.856-5.721-11.651-6.821-16.669-6.835-31.189-.014-14.561 1.085-19.592 6.812-31.189 7.145-14.464 18.453-25.626 33.263-32.832 12.552-6.107 17.256-7.15 32.427-7.187 15.204-.036 20.497 1.102 33.359 7.175 27.257 12.87 52.678 39.537 72.432 75.98 5.976 11.026 18.818 30.392 26.594 40.106 7.364 9.2 23.563 25.885 31.882 32.838 30.392 25.403 65.821 37.809 98.871 34.621 55.789-5.38 99.476-44.78 109.809-99.032 2.092-10.985 2.092-29.975 0-40.96-9.834-51.632-50.542-90.534-102.724-98.164-9.295-1.359-34.155-.604-42.81 1.3-27.202 5.984-58.415 23.552-74.998 42.211-4.779 5.377-5.202 6.15-4.293 7.847 2.436 4.553 22.45 37.114 23.502 38.237 1.006 1.074 2.715-.282 12.478-9.899 24.076-23.718 46.475-33.708 72.751-32.448 12.466.598 17.934 1.988 29.014 7.377 14.825 7.21 26.155 18.4 33.24 32.83 5.729 11.667 6.823 16.668 6.823 31.189s-1.094 19.522-6.823 31.189c-7.077 14.412-18.383 25.587-33.24 32.854-19.944 9.755-41.765 10.36-62.576 1.736-27.515-11.403-54.48-39.378-76.942-79.827-11.92-21.465-24.642-38.629-41.362-55.805-11.14-11.444-19.861-18.843-31.174-26.448-15.994-10.753-36.39-19.175-52.906-21.847-10.189-1.649-32.045-1.617-41.387.06" fill-rule="evenodd"/></svg>