<svg xmlns="http://www.w3.org/2000/svg" width="512" height="512"><path d="M109.242 137.882c-34.04 6.205-63.271 25.153-81.452 52.798-26.212 39.857-26.212 90.783 0 130.64 24.143 36.71 68.157 57.971 112.041 54.12 29.832-2.618 54.822-13.314 80.045-34.259 8.981-7.458 11.823-12.677 11.766-21.608-.031-4.941-.466-6.759-2.52-10.524-4.609-8.446-11.306-12.446-20.909-12.488-7.489-.032-11.395 1.56-18.773 7.653-14.485 11.962-30.898 19.978-46.407 22.664-9.675 1.675-26.761.64-35.513-2.153-20.446-6.523-36.158-20.42-45.212-39.99-4.702-10.163-5.561-14.601-5.561-28.735 0-14.176.855-18.565 5.629-28.88 10.015-21.64 28.905-36.64 52.201-41.452 27.816-5.746 56.076 4.896 82.527 31.079 15.163 15.008 26.615 30.558 39.274 53.326 12.472 22.432 25.856 40.164 43.845 58.087 17.085 17.022 29.958 26.437 47.884 35.021 30.901 14.797 62.826 16.752 94.665 5.798 19.563-6.73 37.18-18.618 51.457-34.722 35.389-39.917 39.493-98.975 9.975-143.537-17.604-26.575-44.486-44.712-77.164-52.061-8.436-1.898-32.929-2.675-41.701-1.324-21.474 3.307-41.917 11.535-61.318 24.679-11.918 8.075-18.297 13.8-21.116 18.953-2.181 3.988-2.531 5.524-2.515 11.033.029 9.607 4.322 16.795 12.628 21.145 3.676 1.926 5.451 2.289 11.195 2.293 8.097.006 8.984-.4 21.221-9.699 19.502-14.821 37.018-21.419 56.859-21.419 29.572 0 55.006 16.167 67.331 42.8 4.774 10.315 5.629 14.704 5.629 28.88 0 14.134-.859 18.572-5.561 28.735-9.039 19.536-24.585 33.306-45.212 40.046-6.662 2.177-8.366 2.374-20.907 2.421-14.865.056-18.71-.632-30.969-5.541-12.486-4.999-25.543-14.209-38.626-27.243-14.272-14.218-26.002-30.272-38.356-52.491-31.686-56.992-79.47-96.638-125.435-104.075-9.99-1.616-32.003-1.6-40.945.03" fill-rule="evenodd"/></svg>