<svg xmlns="http://www.w3.org/2000/svg" width="512" height="512"><path d="M245.19 97.958c-14.124 5.036-23.13 20.196-20.736 34.905 4.194 25.767 35.597 35.998 54.002 17.593 15.558-15.557 11.135-41.534-8.726-51.251-6.229-3.048-17.837-3.638-24.54-1.247m-57.891 104.167c-4.66 2.117-8.551 6.798-10.323 12.42-1.267 4.019-1.33 5.345-.446 9.296 1.384 6.183 5.109 11.041 10.545 13.75l4.407 2.196h48.305V376.32h-28.614c-31.548 0-32.28.104-37.837 5.377-10.27 9.743-7.271 26.37 5.864 32.508 3.809 1.78 4.434 1.795 76.8 1.795s72.991-.015 76.8-1.795c13.135-6.138 16.134-22.765 5.864-32.508-5.467-5.187-6.666-5.377-33.997-5.377h-24.774l-.004-79.573c-.004-53.466-.302-80.643-.911-82.834-1.156-4.165-6.215-9.789-10.605-11.788-3.134-1.427-6.442-1.554-40.533-1.554-34.083 0-37.4.127-40.541 1.554" fill-rule="evenodd"/></svg>