<svg xmlns="http://www.w3.org/2000/svg" width="512" height="512"><path d="M237.653 56.847c-43.465 4.492-80.808 20.734-114.196 49.67-35.287 30.58-59.782 76.761-65.848 124.14-1.664 12.998-1.664 37.688 0 50.686 10.322 80.626 69.824 148.026 148.471 168.179 19.87 5.092 25.234 5.706 49.92 5.71 24.385.005 32.225-.907 51.2-5.956 69-18.358 123.718-73.076 142.076-142.076 5.049-18.975 5.961-26.815 5.956-51.2-.004-24.686-.618-30.05-5.71-49.92-16.227-63.326-62.844-114.787-124.829-137.799-21.473-7.972-39.514-11.178-64.853-11.528-10.325-.142-20.309-.1-22.187.094m27.368 82.823c5.72 1.945 13.204 9.429 15.149 15.149 5.117 15.048-2.841 30.185-18.033 34.297-4.577 1.239-6.25 1.327-10.061.528-9.359-1.963-15.173-6.237-19.056-14.006-2.138-4.279-2.62-6.29-2.62-10.929 0-3.127.644-7.577 1.43-9.89 1.861-5.474 9.435-13.202 14.788-15.091 5.094-1.798 13.212-1.823 18.403-.058m10.606 132.543v59.734H320v32.426H200.533v-32.426h43.52v-87.894H212.48V212.48H275.627v59.733" fill-rule="evenodd"/></svg>