<svg xmlns="http://www.w3.org/2000/svg" viewBox="0 0 512 512"><path d="M231.253 33.392c-16.355 1.665-38.573 7.009-54.742 13.167-20.215 7.699-44.67 21.825-62.003 35.814-22.439 18.11-43.36 43.753-56.938 69.791-15.058 28.874-23.154 58.252-25.123 91.16-5.222 87.26 42.038 170.597 119.717 211.106 79.252 41.329 174.746 31.925 244.36-24.066 76.574-61.59 103.962-166.627 67.269-257.991-28.024-69.778-90.412-121.426-164.273-135.994-5.867-1.158-14.861-2.52-19.988-3.028-10.737-1.065-37.645-1.042-48.279.041M256 119.782v55.781l3.2.529c1.76.291 4.399.533 5.864.539 8.333.029 26.757 6.951 36.965 13.888 5.01 3.404 16.048 14.442 19.452 19.452 4.841 7.123 9.704 17.846 11.895 26.225 3.099 11.854 3.099 27.754 0 39.608-2.181 8.339-7.017 19.02-11.874 26.225-4.415 6.549-16.874 18.079-24.377 22.562-9.231 5.514-21.445 9.627-32.412 10.914L256 336.527V448h-5.339c-7.51 0-25.457-2.202-35.361-4.338-21.187-4.57-47.607-15.7-65.113-27.43-40.169-26.915-69.316-68.246-80.501-114.152-3.965-16.274-5.189-27.143-5.189-46.08 0-31.858 5.472-55.912 19.119-84.053 31.068-64.062 95.883-105.889 167.051-107.804L256 64v55.782m-9.494 56.889c-12.042 1.407-25.882 6.645-36.535 13.827-6.549 4.415-18.079 16.874-22.562 24.377-8.86 14.832-12.872 33.151-10.914 49.838 2.15 18.325 9.703 33.987 22.758 47.191 14.06 14.221 30.503 22.057 50.134 23.892l6.613.618V175.787l-1.92.112c-1.056.061-4.464.409-7.574.772" fill-rule="evenodd"/></svg>