<svg xmlns="http://www.w3.org/2000/svg" width="512" height="512"><path d="M95.96 33.558c-7.332 2.825-12.825 8.573-14.838 15.528-.732 2.529-.918 55.709-.732 208.621.246 202.096.276 205.278 1.928 208.611 2.287 4.613 7.493 9.638 12.275 11.848L98.56 480h191.147l.215-223.787.215-223.786-95.789.065c-71.138.048-96.457.322-98.388 1.066m254.118 222.626L350.293 480h31.574c30.504 0 31.707-.062 35.54-1.834 4.782-2.21 9.988-7.235 12.275-11.848 1.655-3.338 1.678-6.264 1.678-210.318s-.023-206.98-1.678-210.318c-2.145-4.325-6.826-9.006-11.15-11.15-3.16-1.567-5.563-1.695-36.027-1.921l-32.642-.242.215 223.815" fill-rule="evenodd"/></svg>