<svg xmlns="http://www.w3.org/2000/svg" width="512" height="512"><path d="m82.839 18.423-2.626 2.209V107.201l2.394 2.293L85 111.787h86.201l2.293-2.394 2.293-2.393V20.632l-2.626-2.209-2.625-2.21H85.464l-2.625 2.21m128 0-2.626 2.209V107.201l2.394 2.293 2.393 2.293h86.201l2.293-2.394 2.293-2.393V20.632l-2.626-2.209-2.625-2.21h-85.072l-2.625 2.21m128 0-2.626 2.209V107.201l2.394 2.293 2.393 2.293h86.201l2.293-2.394 2.293-2.393V20.632l-2.626-2.209-2.625-2.21h-85.072l-2.625 2.21m-256 128-2.626 2.209V235.201l2.394 2.293L85 239.787h86.201l2.293-2.394 2.293-2.393v-86.368l-2.626-2.209-2.625-2.21H85.464l-2.625 2.21m128 0-2.626 2.209V235.201l2.394 2.293 2.393 2.293h86.201l2.293-2.394 2.293-2.393v-86.368l-2.626-2.209-2.625-2.21h-85.072l-2.625 2.21m128 0-2.626 2.209V235.201l2.394 2.293 2.393 2.293h86.201l2.293-2.394 2.293-2.393v-86.368l-2.626-2.209-2.625-2.21h-85.072l-2.625 2.21m-256 128-2.626 2.209V363.201l2.394 2.293L85 367.787h86.201l2.293-2.394 2.293-2.393v-86.368l-2.626-2.209-2.625-2.21H85.464l-2.625 2.21m128 0-2.626 2.209V363.201l2.394 2.293 2.393 2.293h86.201l2.293-2.394 2.293-2.393v-86.368l-2.626-2.209-2.625-2.21h-85.072l-2.625 2.21m128 0-2.626 2.209V363.201l2.394 2.293 2.393 2.293h86.201l2.293-2.394 2.293-2.393v-86.368l-2.626-2.209-2.625-2.21h-85.072l-2.625 2.21m-128 128-2.626 2.209V491.201l2.394 2.293 2.393 2.293h86.201l2.293-2.394 2.293-2.393v-86.368l-2.626-2.209-2.625-2.21h-85.072l-2.625 2.21" fill-rule="evenodd"/></svg>