<svg xmlns="http://www.w3.org/2000/svg" width="512" height="512"><path d="M118.187 17.027C96.018 21.831 80.213 41.382 80.213 64c0 13.119 4.67 24.3 14.078 33.709 18.962 18.962 48.456 18.962 67.418 0 24.831-24.831 15.773-66.104-17.257-78.626-6.358-2.411-19.779-3.462-26.265-2.056m128 0C224.018 21.831 208.213 41.382 208.213 64c0 13.119 4.67 24.3 14.078 33.709 18.962 18.962 48.456 18.962 67.418 0 24.831-24.831 15.773-66.104-17.257-78.626-6.358-2.411-19.779-3.462-26.265-2.056m128 0C352.018 21.831 336.213 41.382 336.213 64c0 13.119 4.67 24.3 14.078 33.709 18.962 18.962 48.456 18.962 67.418 0 24.831-24.831 15.773-66.104-17.257-78.626-6.358-2.411-19.779-3.462-26.265-2.056m-256 128C96.018 149.831 80.213 169.382 80.213 192c0 13.119 4.67 24.3 14.078 33.709 18.962 18.962 48.456 18.962 67.418 0 24.831-24.831 15.773-66.104-17.257-78.626-6.358-2.411-19.779-3.462-26.265-2.056m128 0c-22.169 4.804-37.974 24.355-37.974 46.973 0 13.119 4.67 24.3 14.078 33.709 18.962 18.962 48.456 18.962 67.418 0 24.831-24.831 15.773-66.104-17.257-78.626-6.358-2.411-19.779-3.462-26.265-2.056m128 0c-22.169 4.804-37.974 24.355-37.974 46.973 0 13.119 4.67 24.3 14.078 33.709 18.962 18.962 48.456 18.962 67.418 0 24.831-24.831 15.773-66.104-17.257-78.626-6.358-2.411-19.779-3.462-26.265-2.056m-256 128C96.018 277.831 80.213 297.382 80.213 320c0 13.119 4.67 24.3 14.078 33.709 18.962 18.962 48.456 18.962 67.418 0 24.831-24.831 15.773-66.104-17.257-78.626-6.358-2.411-19.779-3.462-26.265-2.056m128 0c-22.169 4.804-37.974 24.355-37.974 46.973 0 13.119 4.67 24.3 14.078 33.709 18.962 18.962 48.456 18.962 67.418 0 24.831-24.831 15.773-66.104-17.257-78.626-6.358-2.411-19.779-3.462-26.265-2.056m128 0c-22.169 4.804-37.974 24.355-37.974 46.973 0 13.119 4.67 24.3 14.078 33.709 18.962 18.962 48.456 18.962 67.418 0 24.831-24.831 15.773-66.104-17.257-78.626-6.358-2.411-19.779-3.462-26.265-2.056m-128 128c-31.034 6.726-46.919 40.397-32.627 69.16 3.676 7.398 12.855 16.577 20.253 20.253 19.396 9.637 40.884 6.28 55.896-8.731 24.831-24.831 15.773-66.104-17.257-78.626-6.358-2.411-19.779-3.462-26.265-2.056" fill-rule="evenodd"/></svg>