<svg xmlns="http://www.w3.org/2000/svg" width="512" height="512"><path d="M187.307 48.547c-4.614 1.201-9.601 4.252-12.316 7.535-4.036 4.88-5.178 9.953-5.178 23.006v11.365h-60.614c-67.048 0-63.353-.299-69.988 5.677-12.102 10.902-7.895 31.255 7.547 36.517 3.434 1.17 15.701 1.326 104.007 1.326 55.063 0 100.115.3 100.115.667 0 1.181-9.045 24.188-13.66 34.747-9.733 22.267-24.795 50.492-35.413 66.365l-4.437 6.632-8.958-12.605c-13.498-18.993-24.408-36.719-32.65-53.044-5.771-11.429-12.235-16.26-21.789-16.281-12.761-.029-23.623 12.164-21.781 24.448 1.586 10.579 24.857 50.004 47.067 79.741 4.931 6.603 9.167 12.528 9.412 13.168.613 1.597-35.738 37.811-49.165 48.979-13.773 11.455-27.934 21.962-38.282 28.402-14.168 8.818-16.758 12.347-16.758 22.835 0 7.67 1.865 11.863 7.375 16.579 6.792 5.814 16.145 6.915 24.139 2.842 21.716-11.065 59.29-41.363 88.633-71.473l13.462-13.813 11.682 11.415c14.323 13.993 26.614 24.3 31.616 26.513 9.182 4.062 20.872.795 26.349-7.362 7.865-11.714 5.462-21.706-7.924-32.952-8.829-7.417-28.798-26.646-31.258-30.099l-1.674-2.351 9.807-14.716c23.083-34.638 41.28-71.692 56.047-114.13l4.9-14.08 19.083-.427c17.786-.397 19.358-.561 23.117-2.413 13.576-6.686 16.189-25.322 4.969-35.43-6.635-5.976-2.94-5.677-69.988-5.677h-60.614V79.088c0-13.056-1.142-18.126-5.182-23.011-4.792-5.794-14.898-9.301-21.698-7.53m171.472 155.672c-2.373 1.131-5.637 3.608-7.253 5.506-2.297 2.697-13.014 27.863-49.019 115.103-46.061 111.605-46.08 111.655-46.047 117.625.025 4.401.511 6.873 1.845 9.387 2.119 3.991 6.366 8.193 10.267 10.159 8.704 4.385 21.263 1.291 26.902-6.628 1.006-1.414 6.14-12.962 11.408-25.664l9.577-23.094 51.477-.215 51.477-.216 8.472 20.696c10.639 25.99 11.538 27.793 15.747 31.595 12.017 10.857 31.452 4.633 35.612-11.405.778-3 .886-5.515.355-8.3-.419-2.197-21.428-54.062-46.687-115.256-49.542-120.022-47.324-115.248-55.349-119.13-5.357-2.591-13.537-2.662-18.784-.163m26.441 119.194 15.67 37.974-32.47.223c-17.859.123-32.634.061-32.833-.139-.31-.31 30.664-76.286 32.018-78.539.591-.983-1.082-4.826 17.615 40.481" fill-rule="evenodd"/></svg>