<svg xmlns="http://www.w3.org/2000/svg" width="512" height="512"><path d="M188.16 48.561c-5.68 1.411-9.961 5.507-11.482 10.985-.485 1.746-.884 10.758-.887 20.027l-.004 16.854h-66.176c-56.117 0-66.539.188-68.567 1.236-3.242 1.677-7.626 6.809-8.25 9.659-.28 1.282-.652 2.796-.826 3.365-.613 2.007 1.96 9.732 3.969 11.914 1.12 1.216 3.572 2.92 5.45 3.786 3.26 1.505 8.218 1.576 110.72 1.594 64.695.012 107.306.331 107.306.804 0 .431-2.347 7.043-5.216 14.691-13.971 37.254-30.668 70.505-49.916 99.408l-6.521 9.793-9.388-12.632c-11.875-15.979-30.006-43.333-38.634-58.285-9.776-16.943-10.338-17.729-14.025-19.61-6.702-3.419-16.458-1.49-20.323 4.017-2.554 3.64-3.812 8.42-3.188 12.113 1.529 9.052 34.41 60.625 57.641 90.409 3.796 4.866 6.723 9.282 6.505 9.813-.921 2.247-20.902 23.275-33.471 35.227-21.547 20.489-46.097 40.391-64.95 52.654-9.392 6.109-10.741 7.378-12.614 11.861-4.839 11.579 6.193 24.362 18.276 21.177 9.666-2.547 47.69-31.098 74.675-56.071 9.849-9.113 27.187-26.562 35.654-35.882l4.021-4.424 16.87 16.84c20.76 20.722 32.057 30.267 37.418 31.617 10.002 2.519 19.645-5.252 19.501-15.714-.085-6.134-1.837-8.739-11.217-16.672-9.036-7.641-41.204-39.624-41.204-40.966 0-.451 3.443-5.715 7.651-11.698 23.585-33.533 45.113-76.779 61.062-122.664l5.339-15.36 23.774-.427c25.67-.461 26.408-.59 30.93-5.431 2.006-2.147 4.584-9.868 3.969-11.882-.174-.569-.546-2.083-.826-3.365-.629-2.872-5.016-7.986-8.313-9.691-2.109-1.091-11.71-1.266-68.566-1.253l-66.114.016-.004-16.837c-.006-18.129-.563-21.752-3.97-25.801-3.756-4.464-10.393-6.608-16.079-5.195m172.8 161.315c-1.643.873-3.825 2.488-4.85 3.589-2.375 2.552-99.318 228.661-99.901 233.01-.94 7.005 4.475 14.81 11.797 17.004 4.111 1.231 9.69.101 13.741-2.784 3.119-2.221 4.158-4.325 17.333-35.095l10.87-25.387 58.145.018 58.145.017 11.89 27.929c12.978 30.482 14.603 33.123 21.698 35.248 6.843 2.05 14.832-1.459 18.156-7.976 3.799-7.445 6.047-1.445-46.605-124.408-26.614-62.158-49.289-114.408-50.388-116.111-3.891-6.03-13.59-8.477-20.031-5.054m29.326 106.73 21.751 50.754-43.593.221c-23.976.122-43.753.062-43.948-.134-.285-.285 41.594-99 43.052-101.477.225-.383.54-.567.699-.408.159.159 10.077 23.129 22.039 51.044" fill-rule="evenodd"/></svg>