<svg xmlns="http://www.w3.org/2000/svg" width="512" height="512"><path d="M169.813 69.12v21.333H31.573v43.52h109.654c60.309 0 109.653.3 109.653.667 0 1.181-9.045 24.188-13.66 34.747-9.727 22.251-24.795 50.492-35.396 66.339l-4.419 6.606-5.99-8.312c-15.992-22.197-27.742-41.377-39.91-65.147l-8.601-16.803-11.079 6.417a6472.099 6472.099 0 0 0-18.978 11.037l-7.901 4.62 8.06 15.968c13.078 25.911 27.809 49.637 46.254 74.494 5.006 6.746 9.14 12.72 9.187 13.276.147 1.719-20.56 23.834-34.474 36.819-17.945 16.748-32.169 28.031-52.684 41.793L64.018 368.08l1.484 2.298c.817 1.264 5.901 9.259 11.298 17.768 5.397 8.508 10.097 15.472 10.443 15.475 1.07.01 24.568-14.483 32.224-19.874 21.861-15.396 49.997-40.591 72.449-64.877l6.173-6.677 13.382 13.077c18.497 18.074 38.387 34.767 42.736 35.866.582.146 4.493-8.335 9.414-20.409l8.42-20.66-4.821-3.941c-8.54-6.983-28.168-25.373-34.349-32.182l-6.006-6.617 9.808-14.717c23.082-34.636 41.272-71.675 56.048-114.13l4.901-14.08 27.402-.225 27.403-.225V90.453h-138.24V47.787h-44.374V69.12m192.162 109.227c-.447 1.173-26.586 65.573-58.087 143.111-31.501 77.538-57.275 141.378-57.275 141.867 0 .594 7.718.888 23.283.888h23.283l12.252-29.013 12.251-29.013h90.705l5.809 13.866a9133.803 9133.803 0 0 0 12.23 29.014l6.421 15.146h23.463c21.934 0 23.435-.097 23.049-1.493-.519-1.872-114.923-283.478-115.875-285.227-.559-1.025-.859-.856-1.509.854m14.298 142.363c7.066 21.718 12.847 39.851 12.847 40.295 0 .491-10.353.808-26.391.808h-26.392l2.876-8.746c1.582-4.811 7.537-23.085 13.232-40.609 5.696-17.524 10.497-31.721 10.669-31.549.172.172 6.094 18.083 13.159 39.801" fill-rule="evenodd"/></svg>