<svg xmlns="http://www.w3.org/2000/svg" width="512" height="512"><path d="M248.32 48.344c-7.402.706-15.963 2.293-20.638 3.828-2.799.919-40.1 17.624-82.892 37.123-56.554 25.77-79.298 36.538-83.275 39.426-18.959 13.765-17.714 36.2 2.723 49.071 5.355 3.372 153.127 70.821 161.042 73.506 9.671 3.28 16.822 4.275 30.72 4.275 13.902 0 21.056-.996 30.72-4.277 7.914-2.687 155.686-70.137 161.042-73.507 20.436-12.857 21.682-35.308 2.723-49.066-6.772-4.914-157.803-73.984-168.65-77.128-9.915-2.873-23.573-4.198-33.515-3.251M76.246 224.275c-20.482 9.441-27.987 17.97-27.915 31.725.053 10.04 4.811 18.157 14.587 24.883 4.478 3.081 154.379 71.698 163.001 74.613 17.546 5.934 42.603 5.935 60.162.002 8.503-2.872 158.644-71.618 163.08-74.669 9.694-6.67 14.455-14.818 14.508-24.829.04-7.734-1.838-12.491-7.273-18.417-4.703-5.128-9.95-8.471-21.206-13.508l-8.97-4.014-57.163 26.167c-78.839 36.089-80.384 36.768-87.976 38.653-9.672 2.401-13.835 2.852-25.886 2.801-11.622-.049-21.195-1.532-30.436-4.714-3.233-1.113-35.774-15.701-72.312-32.416-36.538-16.716-66.682-30.364-66.987-30.331-.304.034-4.451 1.858-9.214 4.054m-.394 104.177c-10.664 4.832-15.253 7.839-20.268 13.279-12.835 13.925-8.905 33.014 9.118 44.289 6.785 4.245 157.113 72.213 164.363 74.313 16.571 4.803 37.25 4.817 53.742.038 6.611-1.916 146.146-64.879 161.062-72.677 20.938-10.946 26.37-30.895 12.527-46.01-4.829-5.273-11.145-9.306-21.713-13.864l-8.578-3.701-68.463 31.283c-50.715 23.172-70.607 31.861-76.733 33.515-7.588 2.048-9.639 2.232-24.909 2.232-15.196 0-17.344-.19-24.752-2.193-5.917-1.599-26.626-10.651-76.502-33.441-37.614-17.187-68.716-31.23-69.114-31.208-.399.023-4.8 1.888-9.78 4.145" fill-rule="evenodd"/></svg>