<svg xmlns="http://www.w3.org/2000/svg" width="512" height="512"><path d="M32.98 39.467c-2.889 47.421.101 95.564 9.341 150.4 21.729 128.954 71.482 213.701 148.064 252.206 16.364 8.227 38.245 15.409 57.082 18.736 13.357 2.359 39.911 3.238 52.983 1.755 33.938-3.851 63.777-16.92 85.252-37.339 8.03-7.636 18.645-20.309 17.755-21.199-.235-.235-5.189-1.781-11.009-3.435-56.682-16.11-110.313-42.169-160.341-77.908-23.217-16.585-48.669-37.761-72.186-60.058l-9.465-8.974 10.973-11.628 10.973-11.628 9.159 8.649c47.473 44.831 90.347 75.439 139.719 99.743 29.106 14.329 58.115 25.323 87.281 33.079l9.628 2.56 1.118-2.679c.615-1.474 2.126-6.52 3.358-11.214 8.034-30.6 6.962-61.318-3.216-92.16-9.686-29.347-24.586-53.385-47.396-76.459-30.033-30.382-66.202-51.583-106.119-62.204-12.9-3.432-22.289-5.318-51.321-10.308-65.254-11.216-86.195-18.61-124.16-43.837C74.679 65.084 64.61 57.301 47.122 42.073c-7.17-6.244-13.166-11.353-13.323-11.353-.157 0-.526 3.936-.819 8.747m381.843 343.536c-1.97 4.615-5.103 10.993-6.963 14.175-1.859 3.182-3.38 6.047-3.38 6.367 0 .321 2.016 1.028 4.48 1.572 2.464.544 10.432 2.331 17.707 3.97 13.235 2.983 51.018 9.528 51.578 8.935.51-.541 4.975-30.66 4.6-31.035-.195-.195-6.483-1.335-13.973-2.534-14.851-2.377-31.922-5.663-42.632-8.206-3.755-.892-7.053-1.624-7.33-1.628-.278-.003-2.116 3.77-4.087 8.384" fill-rule="evenodd"/></svg>