<svg xmlns="http://www.w3.org/2000/svg" width="512" height="512"><path d="M48.263 49.015c-7.019 2.594-11.333 7.991-13.682 17.114-5.633 21.883-1.815 78.063 8.963 131.898 21.234 106.057 61.101 184.039 114.323 223.62 27.854 20.715 56.812 33.372 89.6 39.162 13.357 2.359 39.911 3.238 52.983 1.755 33.938-3.851 63.777-16.92 85.252-37.339 8.03-7.636 18.645-20.309 17.755-21.199-.235-.235-5.189-1.781-11.009-3.435-73.1-20.777-140.362-57.72-203.435-111.736-18.739-16.049-28.611-25.54-30.393-29.223-4.996-10.319 2.743-22.327 14.427-22.387 5.024-.025 9.033 2.238 16.919 9.555 67.896 62.994 138.81 103.498 219.055 125.118l9.234 2.487.855-2.242c6.712-17.594 10.13-43.37 8.421-63.502-5.084-59.896-38.173-111.801-95.158-149.268-30.312-19.93-59.18-30.135-110.506-39.064-11.03-1.919-24.278-4.252-29.44-5.184-56.688-10.239-86.831-24.304-119.878-55.932-4.467-4.276-9.364-8.41-10.881-9.188-3.994-2.047-9.481-2.46-13.405-1.01m366.56 333.988c-1.97 4.615-5.103 10.993-6.963 14.175-1.859 3.182-3.38 6.047-3.38 6.367 0 .321 2.016 1.025 4.48 1.566 2.464.54 9.567 2.149 15.785 3.575 6.217 1.426 17.945 3.754 26.063 5.173 13.928 2.436 14.998 2.51 19.023 1.314 4.793-1.423 8.162-4.475 10.124-9.172 2.698-6.459 1.206-12.854-4.08-17.496-3.641-3.196-5.504-3.762-21.902-6.654-6.805-1.201-17.476-3.32-23.713-4.71-6.237-1.39-11.456-2.528-11.597-2.528-.142 0-1.869 3.776-3.84 8.39" fill-rule="evenodd"/></svg>