<svg xmlns="http://www.w3.org/2000/svg" width="512" height="512"><path d="M276.388 34.41c-8.573 3.572-14.103 8.872-17.992 17.245l-1.969 4.238v400.214l2.229 4.693c4.794 10.094 13.76 16.865 24.901 18.805 3.773.657 12.243.879 24.316.637 16.267-.325 19.079-.589 23.053-2.162 8.643-3.42 15.618-10.372 19.219-19.154L352 454.4l.236-194.56c.152-124.622-.065-196.524-.604-200.024-1.638-10.66-8.413-19.96-17.95-24.644l-4.722-2.319-23.893-.218c-23.356-.214-24.001-.174-28.679 1.775M37.803 81.768c-8.611 3.042-15.053 8.884-18.943 17.18l-2.22 4.732v352.427l2.27 4.842c4.589 9.789 12.514 16.068 23.143 18.334 8.681 1.851 26.573 1.169 32.873-1.253 8.57-3.296 15.604-10.288 19.219-19.104L96 454.4l.228-171.293c.247-186.553.438-178.614-4.481-187.007-3.023-5.159-8.967-10.456-14.798-13.19-4.588-2.151-5.626-2.282-19.776-2.49-12.695-.188-15.598.014-19.37 1.348m372.005.147c-8.569.876-17.609 2.184-20.089 2.905-9.563 2.78-17.971 11.217-20.768 20.84-1.295 4.453-.903 9.077 14.998 177.083 8.994 95.028 16.88 174.456 17.557 176.843 3.463 12.204 16.093 20.383 31.134 20.164 12.237-.179 38.609-3.373 43.76-5.3 10.789-4.037 19.391-15.587 19.38-26.023-.003-2.816-7.28-81.728-16.171-175.36-11.353-119.566-16.582-171.445-17.566-174.289-2.013-5.819-7.929-11.995-14.671-15.314-5.032-2.477-6.515-2.795-13.811-2.959-4.496-.102-15.185.533-23.753 1.41m-273.701 63.084c-7.526 1.894-16.738 9.039-20.131 15.615-3.357 6.506-4.189 12.245-4.189 28.873 0 14.322.155 16.042 1.56 17.314 1.422 1.286 6.997 1.412 62.557 1.412 48.419 0 61.307-.226 62.5-1.099 1.373-1.004 1.48-2.761 1.23-20.289l-.274-19.19-2.805-5.692c-3.252-6.602-8.584-11.774-15.542-15.076l-4.693-2.227-38.827-.142c-21.354-.079-39.978.147-41.386.501m-23.363 95.942c-.708.853-.909 20.155-.749 71.899l.218 70.733H239.36v-143.36l-62.824-.218c-52.259-.182-62.987-.023-63.792.946m-.631 176.72c-.261.679-.345 9.415-.187 19.414l.287 18.178 2.709 5.718c4.865 10.269 13.535 16.795 24.751 18.632 8.269 1.355 67.912 1.018 74.704-.422 10.185-2.158 18.19-8.584 22.713-18.232 2.224-4.745 2.275-5.241 2.527-24.682l.257-19.84H176.23c-54.747 0-63.71.172-64.117 1.234" fill-rule="evenodd"/></svg>