<svg xmlns="http://www.w3.org/2000/svg" width="512" height="512"><path d="M261.478 34.036c-1.445.881-3.269 2.954-4.053 4.606-1.319 2.78-1.425 18.901-1.425 217.5 0 207.611.051 214.593 1.59 217.471.874 1.636 2.89 3.742 4.48 4.68 2.778 1.641 4.422 1.707 42.294 1.707 38.468 0 39.461-.042 41.761-1.759 1.296-.968 3.148-2.82 4.116-4.116l1.759-2.357.253-211.777c.139-116.478.004-213.89-.3-216.471-.473-4.007-1.046-5.161-3.916-7.893l-3.362-3.2-40.284.003c-37.909.003-40.439.098-42.913 1.606M21.515 82.038c-5.742 3.677-5.302-12.759-5.298 198.026.003 188.33.029 191.447 1.668 194.135 3.513 5.76 3.785 5.801 38.586 5.801 30.28 0 31.375-.057 33.654-1.759 1.296-.968 3.148-2.82 4.116-4.116L96 471.768V280.471c0-182.545-.07-191.426-1.535-194.109-.844-1.546-2.764-3.56-4.266-4.477-2.581-1.573-4.482-1.665-34.306-1.654-30.631.011-31.657.065-34.378 1.807m392.778 2.048c-19.242 2.071-35.821 3.967-36.841 4.213-3.054.737-7.001 4.629-7.864 7.753-.599 2.167 3.137 51.306 14.357 188.879 16.791 205.882 14.967 189.707 21.784 193.244l3.382 1.755 38.559-4.806c25.788-3.214 39.448-5.265 41.242-6.193 3.63-1.877 6.014-6.034 6.018-10.493.002-2.004-6.706-85.716-14.907-186.027-16.078-196.67-14.943-186.01-20.226-189.901-1.337-.985-3.989-1.787-6.4-1.936-2.264-.139-19.861 1.441-39.104 3.512m-296.62 62.064c-5.732 3.83-5.884 4.729-5.885 34.97l-.001 27.093h128v-27.846c0-26.429-.088-27.987-1.72-30.629-3.522-5.697-1.57-5.525-62.496-5.525h-54.999l-2.899 1.937m-5.886 165.743V384h128V239.787h-128v72.106m.179 132.206c.236 26.413.327 27.779 2.007 30.027.967 1.295 2.82 3.147 4.116 4.115 2.323 1.734 3.136 1.759 57.547 1.759 51.519 0 55.378-.102 58.002-1.535 1.546-.844 3.56-2.764 4.477-4.266 1.561-2.561 1.665-4.463 1.668-30.252l.004-27.52H111.72l.246 27.672" fill-rule="evenodd"/></svg>