<svg xmlns="http://www.w3.org/2000/svg" width="512" height="512"><path d="M260.133 34.436c-10.132 4.202-17.098 12.618-19.388 23.419-.636 3.003-.958 18.95-.958 47.467v42.944l-3.627-1.813c-3.588-1.793-4.233-1.813-59.947-1.813-55.968 0-56.345.012-60.322 1.849l-4.002 1.85-.265-22.33c-.262-22.195-.278-22.358-2.558-27.224-2.931-6.253-9.598-12.92-15.851-15.851L88.32 80.64H39.68l-4.895 2.294c-6.253 2.931-12.92 9.598-15.851 15.851l-2.294 4.895v352.427l2.287 4.879c4.717 10.064 13.672 16.819 24.593 18.549 7.196 1.14 33.819 1.134 40.96-.009 6.621-1.06 11.251-3.156 16.052-7.265l3.549-3.038 2.786 2.699c3.931 3.808 10.787 6.805 17.782 7.774 3.518.488 26.487.717 55.657.557 49.598-.274 49.674-.277 54.576-2.246 2.699-1.084 6.751-3.427 9.003-5.207l4.094-3.237 4.056 3.254c2.231 1.79 6.243 4.138 8.917 5.218 4.817 1.945 5.203 1.963 42.408 1.964 33.206.001 38.089-.17 42.24-1.474 8.829-2.776 16.985-10.713 20.408-19.863 1.747-4.669 1.781-6.023 1.895-76.614.064-39.524.258-71.093.431-70.155.174.939 3.563 31.699 7.533 68.356 3.969 36.656 7.628 68.484 8.131 70.728 2.441 10.892 9.732 20.165 19.72 25.082 8.598 4.232 12.709 4.479 35.749 2.143 32.005-3.245 35.941-4.319 44.478-12.131 6.973-6.38 11.048-14.934 11.581-24.305.305-5.374-3.671-44.415-17.178-168.659-9.667-88.917-17.991-163.221-18.499-165.12-1.944-7.275-5.054-12.283-11.102-17.883-6.835-6.328-12.769-9.083-20.866-9.685-9.749-.725-52.477 4.38-58.549 6.996-1.318.568-1.463-.75-1.706-15.474l-.266-16.094-2.799-5.681c-3.138-6.368-8.597-11.821-15.196-15.179l-4.192-2.134-40.106-.21-40.107-.209-4.827 2.002M336.213 256v192h-64V64h64v192m-256 23.893V448H47.787V111.787h32.426v168.106m346.818-166.767c.737.737 1.534 2.177 1.771 3.2.573 2.471 34.564 316.459 34.769 321.176.099 2.274-.316 4.139-1.092 4.911-1.742 1.731-42.164 6.078-44.905 4.829-1.207-.551-2.09-1.903-2.402-3.683-.858-4.899-34.633-317.522-34.721-321.38-.046-2.029.363-4.134.908-4.679.748-.749 24.897-3.88 43.327-5.618.553-.053 1.608.508 2.345 1.244M223.573 192v16.213H128v-32.426H223.573V192m0 119.893V384H128V239.787H223.573v72.106m0 120.32V448H128v-31.573H223.573v15.786" fill-rule="evenodd"/></svg>