<svg xmlns="http://www.w3.org/2000/svg" width="512" height="512"><path d="M60.16 112.544c-5.707 1.455-9.964 5.534-11.482 11.002-.485 1.746-.876 11.238-.868 21.094.016 19.754.543 22.289 5.629 27.039 4.071 3.802 6.068 4.108 26.872 4.108 16.391 0 20.063-.228 22.345-1.383 3.878-1.964 5.666-3.708 7.515-7.33 1.447-2.835 1.616-5.217 1.616-22.771 0-20.802-.309-22.817-4.108-26.833-4.76-5.031-5.75-5.236-26.186-5.414-10.325-.091-19.925.129-21.333.488m84.053 31.669v23.894h320V120.32h-320v23.893m-88.47 82.366c-1.96 1.175-4.456 3.571-5.547 5.325-1.934 3.111-1.983 3.702-1.983 24.096 0 20.428.046 20.98 1.995 24.114 1.096 1.764 3.784 4.26 5.973 5.547 3.916 2.302 4.246 2.344 20.757 2.628 19.733.341 24.971-.441 29.48-4.4 5.078-4.458 5.369-5.97 5.369-27.889 0-21.426-.324-23.279-4.802-27.466-4.083-3.817-6.031-4.108-27.467-4.099-20.041.008-20.241.026-23.775 2.144M144.213 256v23.893h320v-47.786h-320V256M57.6 337.428c-3.623 1.624-6.341 4.45-8.185 8.509-1.389 3.058-1.593 5.779-1.605 21.423-.008 10.502.376 19.325.928 21.314 1.208 4.35 6.238 9.38 10.588 10.588 1.989.552 10.812.936 21.314.928 19.754-.016 22.289-.543 27.039-5.629 3.802-4.071 4.108-6.069 4.108-26.864 0-17.554-.169-19.936-1.616-22.771-1.849-3.622-3.637-5.366-7.515-7.33-2.292-1.16-5.929-1.377-22.614-1.349-14.753.025-20.542.329-22.442 1.181m86.613 30.788v24.322L304 392.322l159.787-.215.226-24.107.227-24.107H144.213v24.323" fill-rule="evenodd"/></svg>