<svg xmlns="http://www.w3.org/2000/svg" width="512" height="512"><path d="M74.658 112.652c-8.963 1.268-19.303 8.882-23.305 17.159-5.831 12.062-3.566 26.809 5.541 36.071 7.222 7.346 14.868 10.316 25.043 9.727 16.287-.941 28.731-13.385 29.672-29.672 1.205-20.842-15.913-36.262-36.951-33.285m77.553 8.702c-1.468.473-4.533 2.269-6.812 3.991-11.718 8.856-12.282 25.9-1.199 36.266 7.5 7.016-5.322 6.496 160.136 6.496h147.013l4.86-1.818c12.087-4.523 18.423-17.656 14.384-29.818-1.881-5.663-7.171-11.515-12.78-14.139l-4.266-1.995-149.334.078c-97.75.052-150.255.376-152.002.939m-84.078 105.05c-10.5 4.425-17.274 12.851-19.523 24.284-3.344 16.997 9.444 34.446 26.991 36.827 13.777 1.87 26.763-5.098 32.96-17.686 2.57-5.222 2.799-6.351 2.799-13.829 0-7.478-.229-8.607-2.799-13.829-3.149-6.395-8.632-11.862-15.196-15.151-3.385-1.697-5.752-2.154-12.298-2.376-7.006-.237-8.763.002-12.934 1.76m84.356 6.93c-11.846 4.243-18.438 16.059-15.626 28.008 1.941 8.246 7.517 14.427 15.626 17.319 2.682.957 28.939 1.164 151.479 1.195 145.955.037 148.304.011 152.774-1.661 5.764-2.157 11.239-7.65 13.466-13.512 4.492-11.822-.402-24.154-11.968-30.157l-3.84-1.993-149.333-.18c-124.197-.151-149.88.014-152.578.981M71.253 337.32c-5.522 1.679-9.975 4.453-14.205 8.851-4.956 5.152-7.191 9.575-8.427 16.673-1.797 10.32 1.337 19.998 8.937 27.598 14.703 14.703 38.498 11.876 49.735-5.908 5.209-8.244 5.918-20.578 1.712-29.765-2.856-6.239-9.539-12.92-15.79-15.784-5.677-2.601-16.245-3.402-21.962-1.665m83.487 7.457c-6.9 1.377-13.414 6.889-16.601 14.05-5.48 12.311 1.142 27.238 14.088 31.758 4.118 1.437 12.528 1.522 151.986 1.522 143.464 0 147.747-.046 151.87-1.637 2.333-.899 6.065-3.341 8.293-5.424 12.043-11.265 9.174-30.557-5.673-38.151l-5.035-2.575-147.687-.126c-81.228-.069-149.287.193-151.241.583" fill-rule="evenodd"/></svg>