<svg xmlns="http://www.w3.org/2000/svg" width="512" height="512"><path d="M236.8 50.875c-26.347 2.714-49.149 9.251-72.533 20.793-21.569 10.645-37.851 22.217-54.647 38.839-70.513 69.778-81.815 179.115-27.104 262.194 14.592 22.157 37.436 44.84 59.991 59.568 16.017 10.458 31.783 17.854 51.496 24.157 58.231 18.616 123.81 9.588 175.49-24.157 22.608-14.763 45.396-37.406 60.073-59.693 45.707-69.405 45.882-158.953.448-228.427-11.233-17.175-28.868-36.57-44.169-48.576-23.012-18.055-50.448-31.779-77.792-38.912-16.343-4.263-27.246-5.592-48.213-5.874-10.795-.145-21.163-.106-23.04.088m34.56 31.947c41.623 3.8 79.429 21.424 108.809 50.725 53.323 53.176 66.87 134.06 33.751 201.521-9.871 20.106-19.701 33.583-36.005 49.362-11.483 11.114-21.702 18.907-34.158 26.052-61.257 35.136-136.745 30.557-193.402-11.73-8.27-6.172-24.342-21.722-31.124-30.112-17.033-21.073-30.419-49.403-35.483-75.093-11.682-59.264 5.957-117.951 48.09-160 36.875-36.803 88.087-55.422 139.522-50.725m-111.069 78.437c-3.744 1.131-9.648 5.646-11.934 9.126-2.98 4.537-4.144 8.325-4.144 13.484 0 21.126 25.568 31.999 40.391 17.177 15.187-15.188 4.77-40.787-16.497-40.538-3.051.036-6.568.374-7.816.751m58.286 7.753c-7.11 2.875-10.74 8.68-10.189 16.295.425 5.866 3.457 10.357 8.84 13.093 3.275 1.664 5.047 1.707 70.772 1.707 65.725 0 67.497-.043 70.772-1.707 5.383-2.736 8.415-7.227 8.84-13.093.458-6.328-1.8-11.104-6.819-14.426l-3.548-2.348-68.329-.167c-41.714-.102-69.112.15-70.339.646m-47.8 7.628c.454 0 1.766 1.016 2.917 2.258 2.978 3.214 2.82 7.386-.402 10.608-3.18 3.18-6.684 3.277-10.24.285-2.078-1.749-2.625-2.881-2.625-5.432 0-5.12 4.215-9.153 8.389-8.026.626.169 1.508.307 1.961.307m-8.871 57.199c-3.809.956-6.844 2.743-10.727 6.315-4.313 3.966-6.326 8.579-6.78 15.538-.339 5.184-.086 6.773 1.699 10.671 2.662 5.815 6.684 9.837 12.499 12.499 3.896 1.784 5.49 2.038 10.671 1.702 7.06-.458 10.631-2.033 15.7-6.922 11.162-10.767 8.436-29.633-5.404-37.395-4.859-2.725-12.336-3.745-17.658-2.408m60.387 6.354c-.469.164-1.902.529-3.184.811-1.282.283-3.739 1.75-5.46 3.262-8.949 7.856-6.732 21.186 4.378 26.33 3.23 1.495 6.984 1.58 69.973 1.58s66.743-.085 69.973-1.58c10.378-4.805 13.195-17.21 5.706-25.126-5.276-5.575-.704-5.241-73.972-5.416-36.608-.087-66.944-.025-67.414.139m-49.001 11.475c6.155 6.154-.354 15.784-8.386 12.407-7.474-3.143-5.141-14.902 2.956-14.902 2.107 0 3.64.704 5.43 2.495m-10.18 53.027c-7.895 1.572-15.062 7.761-17.595 15.196-4.729 13.878 3.373 28.415 17.452 31.316 8.847 1.823 16.218-.546 22.459-7.218 15.749-16.837.424-43.821-22.316-39.294m53.172 8.361c-3.793 2.313-7.068 6.563-7.715 10.01-1.433 7.637 2.001 15.071 8.391 18.164 3.713 1.798 4.202 1.81 71.04 1.81 66.838 0 67.327-.012 71.04-1.81 8.951-4.333 11.628-16.917 5.165-24.279-5.118-5.828-.339-5.485-76.376-5.481-65.654.003-69.073.079-71.545 1.586m-42.417 9.977c3.638 4.134 1.777 10.544-3.574 12.31-5.285 1.744-9.866-1.833-9.866-7.704 0-3.036 2.054-5.872 5.12-7.068 2.369-.925 6.385.264 8.32 2.462" fill-rule="evenodd"/></svg>