<svg xmlns="http://www.w3.org/2000/svg" width="512" height="512"><path d="M74.658 112.652c-8.963 1.268-19.303 8.882-23.305 17.159-5.831 12.062-3.566 26.809 5.541 36.071 7.222 7.346 14.868 10.316 25.043 9.727 16.287-.941 28.731-13.385 29.672-29.672 1.205-20.842-15.913-36.262-36.951-33.285m78.232 17.179c-6.79 3.361-10.345 12.288-7.875 19.773 1.502 4.549 6.677 8.777 12.128 9.906 3.26.675 46.006.88 149.63.717L451.84 160l3.979-2.339c11.47-6.743 10.689-22.573-1.384-28.057-3.302-1.5-9.682-1.567-150.648-1.585l-147.2-.018-3.697 1.83m-84.757 96.573c-10.5 4.425-17.274 12.851-19.523 24.284-3.344 16.997 9.444 34.446 26.991 36.827 13.777 1.87 26.763-5.098 32.96-17.686 2.57-5.222 2.799-6.351 2.799-13.829 0-7.478-.229-8.607-2.799-13.829-3.149-6.395-8.632-11.862-15.196-15.151-3.385-1.697-5.752-2.154-12.298-2.376-7.006-.237-8.763.002-12.934 1.76m90.16 13.802c-.469.157-1.902.516-3.184.798-1.282.283-3.739 1.75-5.46 3.262-8.949 7.856-6.732 21.186 4.378 26.33 3.28 1.518 9.116 1.58 149.333 1.594 103.884.01 146.898-.258 149.314-.928 1.867-.519 4.806-2.354 6.531-4.08 8.814-8.814 4.629-23.781-7.431-26.578-3.038-.705-291.389-1.096-293.481-.398m-87.04 97.114c-5.522 1.679-9.975 4.453-14.205 8.851-4.956 5.152-7.191 9.575-8.427 16.673-1.797 10.32 1.337 19.998 8.937 27.598 14.703 14.703 38.498 11.876 49.735-5.908 5.209-8.244 5.918-20.578 1.712-29.765-2.856-6.239-9.539-12.92-15.79-15.784-5.677-2.601-16.245-3.402-21.962-1.665m81.904 16.296c-3.622 1.578-7.901 6.748-8.58 10.366-1.443 7.692 1.977 15.107 8.402 18.217l3.759 1.82 148.539-.223 148.538-.223 3.279-2.609c1.804-1.435 4.17-4.315 5.258-6.4 3.688-7.064.986-15.811-6.181-20.012l-3.628-2.125-148.405.033c-120.721.027-148.885.243-150.981 1.156" fill-rule="evenodd"/></svg>