<svg xmlns="http://www.w3.org/2000/svg" width="512" height="512"><path d="M241.92 48.669c-64.561 4.115-123.152 38.433-159.962 93.693-26.292 39.469-38.649 92.321-32.455 138.811 6.326 47.479 26.376 88.354 59.673 121.651 33.526 33.526 73.443 53.027 122.504 59.846 4.224.587 15.168 1.068 24.32 1.068 9.152 0 20.096-.481 24.32-1.068 49.001-6.811 88.952-26.339 122.482-59.868 33.529-33.53 53.057-73.481 59.868-122.482 1.376-9.9 1.376-38.74 0-48.64-6.778-48.766-26.328-88.904-59.45-122.057-11.819-11.831-20.651-19.077-33.662-27.617-37.561-24.655-81.952-36.249-127.638-33.337m-67.179 110.5c16.62 4.935 22.547 25.381 11.121 38.362-4.889 5.555-10.553 8.123-17.755 8.049-10.03-.102-16.98-4.283-21.217-12.763-7.966-15.941 2.994-34.267 20.848-34.863 1.441-.048 4.592.499 7.003 1.215m186.507 10.054c9.465 7.22 8.264 21.871-2.208 26.94-3.713 1.798-4.202 1.81-71.04 1.81-66.838 0-67.327-.012-71.04-1.81-9.507-4.602-11.66-18.66-3.929-25.651 4.751-4.296 1.599-4.134 75.889-3.902l69.187.217 3.141 2.396m-182.365 64.413c5.15 2.65 10.332 8.953 11.958 14.546 5.344 18.384-11.456 35.002-29.95 29.626-6.604-1.92-13.177-8.296-15.375-14.912-3.94-11.863 1.382-24.245 12.759-29.684 3.632-1.736 5.261-1.998 10.685-1.718 4.324.223 7.543.918 9.923 2.142m180.157 6.254c7.521 3.641 10.928 13.608 7.171 20.974-2.255 4.418-6.149 7.686-10.183 8.542-4.144.88-131.912.88-136.056 0-4.034-.856-7.928-4.124-10.183-8.542-3.738-7.328-.374-17.253 7.101-20.953 3.685-1.824 3.906-1.83 71.054-1.83 66.896-.001 67.383.011 71.096 1.809m-183.584 63.451c16.641 4.942 21.808 26.801 9.302 39.355-9.655 9.693-24.518 9.595-33.837-.224-5.179-5.455-6.267-8.321-6.263-16.499.003-8.67 1.632-12.434 7.69-17.766 6.607-5.816 14.39-7.455 23.108-4.866m183.416 7.684c6.183 3.104 8.488 6.951 8.488 14.167 0 5.152-.273 6.08-2.65 9.022-1.458 1.804-3.954 4.047-5.547 4.986-2.831 1.668-4.431 1.707-71.163 1.707s-68.332-.039-71.163-1.707c-1.593-.939-4.089-3.182-5.547-4.986-2.377-2.942-2.65-3.87-2.65-9.022 0-4.699.381-6.3 2.094-8.8 2.05-2.991 5.592-5.652 8.999-6.76.939-.305 31.68-.593 68.313-.64l66.606-.085 4.22 2.118" fill-rule="evenodd"/></svg>