<svg xmlns="http://www.w3.org/2000/svg" width="512" height="512"><path d="M232.107 33.788C150.122 45.702 90.465 116.78 96.452 195.413c3.911 51.378 33.573 120.165 89.275 207.033 19.498 30.406 43.992 64.64 50.09 70.008 11.378 10.016 29.606 9.786 40.877-.514 4.825-4.411 20.319-25.61 38.536-52.728 54.937-81.779 89.038-153.549 98.226-206.732 6.667-38.594-.913-76.586-21.538-107.947-25.459-38.711-66.19-64.277-112.752-70.771-11.756-1.64-35.686-1.627-47.059.026m40.028 96.277c7.176 1.967 17.887 7.473 23.821 12.244C310.49 153.998 320 173.652 320 192c0 24.841-16.468 49.484-39.383 58.933-32.102 13.238-67.487-.549-82.265-32.053-4.817-10.268-5.907-15.231-5.907-26.88s1.09-16.612 5.907-26.88c8.93-19.037 26.438-32.537 47.045-36.274 5.7-1.034 21.074-.333 26.738 1.219m-26.945 31.893c-14.124 5.036-23.13 20.196-20.736 34.905 4.194 25.767 35.597 35.998 54.002 17.593 15.558-15.557 11.135-41.534-8.726-51.251-6.229-3.048-17.837-3.638-24.54-1.247" fill-rule="evenodd"/></svg>