<svg xmlns="http://www.w3.org/2000/svg" width="512" height="512"><path d="M246.117 34.462c-5.733 2.67-10.163 7.373-12.284 13.04-1.575 4.211-1.726 6.616-1.726 27.445v22.83l-7.671 1.45c-15.899 3.006-37.174 11.333-51.636 20.21-20.829 12.785-39.896 31.712-52.628 52.238-9.702 15.644-17.648 35.613-20.961 52.68l-1.504 7.746-22.795.003c-25.905.003-28.924.57-35.164 6.601-12.62 12.199-8.455 33.397 7.754 39.462 4.209 1.574 6.621 1.727 27.41 1.729l22.795.003 1.504 7.746c10.737 55.305 52.832 102.635 106.936 120.237 5.754 1.872 13.948 4.08 18.208 4.907l7.746 1.504.003 22.795c.002 20.789.155 23.201 1.729 27.41 7.524 20.108 36.81 20.108 44.334 0 1.574-4.209 1.727-6.621 1.729-27.41l.003-22.795 7.746-1.504c17.156-3.33 37.032-11.257 52.885-21.089 36.754-22.795 64.139-62.23 72.259-104.055l1.504-7.746 22.795-.003c20.789-.002 23.201-.155 27.41-1.729 16.209-6.065 20.374-27.263 7.754-39.462-6.24-6.031-9.259-6.598-35.164-6.601l-22.795-.003-1.504-7.746c-5.8-29.875-21.517-59.021-43.835-81.291-22.261-22.212-52.147-38.309-81.39-43.837l-7.671-1.45v-22.83c0-20.829-.151-23.234-1.726-27.445-3.436-9.181-12.087-15.059-22.167-15.059-4.042 0-6.723.548-9.883 2.019m21.913 94.379c50.291 4.895 92.784 38.345 108.956 85.772 10.598 31.079 8.458 68.085-5.576 96.427-18.341 37.039-50.22 61.831-90.663 70.508-12.926 2.773-36.568 2.773-49.494 0-40.508-8.691-72.292-33.409-90.663-70.508-14.034-28.342-16.174-65.348-5.576-96.427 6.167-18.084 16.019-33.925 29.924-48.11 27.232-27.78 64.549-41.413 103.092-37.662" fill-rule="evenodd"/></svg>