<svg xmlns="http://www.w3.org/2000/svg" width="512" height="512"><path d="M239.611 17.495c-28.996 4.878-55.733 24.564-68.942 50.76-4.047 8.027-6.774 15.599-8.763 24.332-1.618 7.102-1.776 11.129-2.106 53.546L159.444 192h-34.965c-37.778 0-37.279-.056-41.706 4.681l-2.133 2.283-.221 144.173c-.244 159.396-.653 147.427 5.169 150.978 2.685 1.637 5.609 1.665 170.311 1.668 165.425.004 167.615-.018 170.308-1.683 1.501-.927 3.388-2.943 4.193-4.48 1.369-2.612 1.448-12.112 1.212-146.725l-.252-143.931-2.133-2.283c-4.652-4.978 2.902-4.681-119.046-4.681H197.878l.318-45.44c.357-50.983.206-49.602 6.865-62.507 2.582-5.004 5.354-8.649 10.382-13.653 11.628-11.572 24.093-16.64 40.924-16.64 16.233 0 28.705 5.163 40.285 16.677 5.797 5.763 7.58 8.235 10.788 14.954 4.098 8.584 5.275 12.573 6.216 21.062l.591 5.334H352.4l-.48-5.334c-2.215-24.583-10.691-43.849-26.629-60.531-22.112-23.145-54.065-33.746-85.68-28.427" fill-rule="evenodd"/></svg>