<svg xmlns="http://www.w3.org/2000/svg" width="512" height="512"><path d="M240.5 18.384c-32.592 5.077-61.531 28.388-73.728 59.388-6.224 15.819-7.197 26.026-7.198 75.504l-.001 38.502-13.866.437c-11.086.349-15.065.816-19.84 2.328-16.064 5.088-29.766 16.111-38.206 30.737-1.219 2.112-3.297 6.912-4.619 10.667l-2.402 6.826v202.24l2.325 6.827c3.412 10.019 7.866 17.018 16.022 25.173 8.155 8.156 15.154 12.61 25.173 16.022l6.827 2.325h250.026l6.827-2.325c10.019-3.412 17.018-7.866 25.173-16.022 8.156-8.155 12.61-15.154 16.022-25.173l2.325-6.827v-202.24l-2.402-6.826c-7.053-20.039-22.561-35.027-42.825-41.387-4.721-1.481-8.881-1.971-19.84-2.337l-13.866-.462-.001-38.494c0-21.171-.401-42.718-.89-47.88-1.913-20.181-8.535-37.049-20.347-51.829-21.894-27.395-55.916-40.591-90.689-35.174m30.359 32.389c17.651 3.739 34.1 16.958 42.663 34.286 6.004 12.148 5.902 11.148 6.255 61.501l.319 45.44H191.904l.319-45.44c.353-50.353.251-49.353 6.255-61.501 3.695-7.476 7.537-12.718 13.303-18.146 8.712-8.203 19.057-13.954 28.971-16.105 7.24-1.571 22.773-1.589 30.107-.035m110.583 176.283c5.677 2.663 12.133 8.916 14.954 14.482 1.142 2.253 2.482 6.717 2.978 9.919.603 3.896.821 35.891.657 96.703l-.244 90.88-2.725 5.752c-4.744 10.014-13.011 16.616-23.235 18.555-6.263 1.188-229.391 1.188-235.654 0-10.224-1.939-18.491-8.541-23.235-18.555l-2.725-5.752-.244-90.88c-.164-60.887.054-92.804.659-96.711 1.812-11.699 8.721-20.555 19.505-25.001l4.827-1.99 119.893.198 119.894.197 4.695 2.203" fill-rule="evenodd"/></svg>