<svg xmlns="http://www.w3.org/2000/svg" width="512" height="512"><path d="M239.611 17.495c-28.996 4.878-55.733 24.564-68.942 50.76-4.047 8.027-6.774 15.599-8.763 24.332-1.618 7.101-1.776 11.129-2.105 53.436l-.356 45.756-13.376.471c-14.783.521-20.148 1.636-29.614 6.156-15.948 7.615-27.822 21.397-33.811 39.247l-2.004 5.974-.243 97.706c-.273 110.051-.586 104.103 6.219 118.187 6.699 13.863 16.014 23.176 29.864 29.858 14.124 6.813 5.314 6.409 139.52 6.409 134.206 0 125.396.404 139.52-6.409 13.85-6.682 23.165-15.995 29.864-29.858 6.805-14.084 6.492-8.136 6.219-118.187l-.243-97.706-2.004-5.974c-5.989-17.85-17.863-31.632-33.811-39.247-9.465-4.52-14.831-5.635-29.609-6.156l-13.37-.471-.368-45.756c-.339-42.209-.503-46.352-2.11-53.436-7.678-33.838-30.758-59.989-62.835-71.195-14.136-4.939-32.515-6.442-47.642-3.897m31.519 32.491c17.184 3.82 33.381 16.7 41.537 33.034 6.976 13.971 6.786 12.281 7.127 63.54l.302 45.44H191.917l.288-45.44c.326-51.266.131-49.526 7.128-63.54 2.497-5 5.796-9.901 9.067-13.471 16.395-17.892 38.804-24.881 62.73-19.563" fill-rule="evenodd"/></svg>