<svg xmlns="http://www.w3.org/2000/svg" width="512" height="512"><path d="M57.6 81.423c-3.366 1.502-6.843 5.277-8.488 9.216-1.183 2.831-1.323 20.652-1.307 165.547.018 156.227.079 162.503 1.599 165.787 1.84 3.973 5.476 7.616 8.892 8.906 1.656.626 40.692.908 125.81.908h123.408l3.74-1.81c2.252-1.091 4.649-3.187 6.029-5.271l2.29-3.461.227-74.516.228-74.516h89.137l-31.992 32-31.991 32.001 11.303 11.303 11.303 11.303 46.561-46.503c25.609-25.577 47.189-47.656 47.956-49.064.811-1.489 1.394-4.523 1.394-7.253 0-2.73-.583-5.764-1.394-7.253-.767-1.408-22.347-23.487-47.956-49.064l-46.561-46.503-11.303 11.303-11.303 11.303 31.991 32.001 31.992 32h-89.137l-.228-74.516-.227-74.516-2.29-3.461c-1.38-2.084-3.777-4.18-6.029-5.271l-3.74-1.81-123.677.034C82.406 80.274 59.7 80.486 57.6 81.423M320 256v16.213H160.427v-32.426H320V256" fill-rule="evenodd"/></svg>