<svg xmlns="http://www.w3.org/2000/svg" width="512" height="512"><path d="M91.733 81.46c-18.969 4.192-34.268 18.183-41.12 37.604l-2.4 6.803v260.266l2.621 7.335c6.597 18.469 21.07 31.977 39.241 36.624 6.396 1.636 9.628 1.695 93.818 1.695 83.988 0 87.436-.062 93.774-1.683 10.19-2.606 17.817-7.038 25.705-14.936 7.132-7.141 10.663-12.774 14.189-22.635l1.983-5.546.262-57.387.262-57.387h89.095l-27.484 27.52c-18.455 18.479-27.915 28.563-28.795 30.693-1.724 4.174-1.629 8.002.302 12.187 3.866 8.376 12.989 11.929 21.001 8.178 2.297-1.075 17.267-15.504 45.795-44.141 43.537-43.702 44.222-44.487 44.222-50.65 0-6.159-.706-6.968-43.795-50.223-28.228-28.337-43.072-42.64-45.369-43.715-9.76-4.569-21.194 1.727-22.389 12.328-.863 7.652-.355 8.313 29.083 37.877l27.404 27.52H320l-.013-54.4c-.01-45.468-.224-55.297-1.299-59.859-3.688-15.647-16.944-30.535-34.604-38.864-13.553-6.393-6.832-5.986-101.897-6.17-68.209-.132-86.361.062-90.454.966M320 256.014v16.227l-74.027-.227c-84.08-.258-78.262.258-83.101-7.373-5.959-9.395-1.04-21.454 9.807-24.04 1.475-.352 35.225-.679 75.001-.727l72.32-.087v16.227" fill-rule="evenodd"/></svg>