<svg xmlns="http://www.w3.org/2000/svg" width="512" height="512"><path d="M219.733 81.47c-18.937 4.148-34.311 18.209-41.104 37.594l-2.383 6.803-.269 56.928-.269 56.927-50.094.246c-54.508.267-52.424.081-57.093 5.083-7.754 8.304-4.761 21.38 5.917 25.842 2.728 1.14 9.873 1.32 52.255 1.32h49.094l.014 53.547c.013 43.665.246 54.649 1.264 59.52 3.6 17.223 18.163 33.262 37.518 41.319 12.725 5.298 9.965 5.157 101.227 5.173 80.116.014 83.527-.049 89.857-1.668 10.19-2.606 17.817-7.038 25.705-14.936 7.326-7.335 10.896-13.13 14.209-23.061l1.992-5.974V125.867l-1.992-5.974c-3.302-9.898-6.889-15.729-14.219-23.111-7.901-7.957-17.231-13.181-27.309-15.289-8.372-1.752-176.331-1.772-184.32-.023m75.094 80.595c4.799 2.251 86.056 83.77 87.863 88.148 1.73 4.189 1.628 8.015-.325 12.187-1.075 2.297-15.516 17.282-44.142 45.808-37.681 37.55-42.915 42.462-45.797 42.985-8.07 1.464-14.628-1.629-18.094-8.534-2.342-4.665-2.563-6.918-1.177-11.992.78-2.856 5.408-7.908 28.339-30.934l27.407-27.52H175.787v-32.426h153.114l-27.407-27.52c-22.931-23.026-27.559-28.078-28.339-30.934-1.298-4.753-1.152-7.134.687-11.183 3.905-8.6 12.679-11.98 20.985-8.085" fill-rule="evenodd"/></svg>