<svg xmlns="http://www.w3.org/2000/svg" width="512" height="512"><path d="M235.947 32.932c-1.408.193-7.168.963-12.8 1.711-49.52 6.575-99.747 33.576-133.789 71.922-31.053 34.979-49.409 75.117-55.671 121.735-1.649 12.279-1.888 38.816-.464 51.593 10.769 96.619 81.695 174.983 176.778 195.318 20.274 4.336 49.488 5.825 69.892 3.561 83.092-9.218 154.022-63.35 184.56-140.852 10.46-26.546 15.331-52.786 15.286-82.347-.089-59.856-23.028-115.374-65.04-157.413-34.073-34.096-77.763-56.273-125.419-63.663-8.503-1.318-46.904-2.445-53.333-1.565m46.506 38.437c19.758 2.77 37.036 8.131 55.894 17.341 11.569 5.651 26.309 14.877 33.244 20.808l3.377 2.888-3.497 4.17c-10.71 12.772-28.932 27.993-47.363 39.562-9.589 6.019-37.839 20.485-40.024 20.496-.746.003-1.833-1.05-2.416-2.341-2.049-4.539-15.782-27.221-23.379-38.613-13.003-19.497-28.949-39.887-41.881-53.55-3.236-3.42-5.675-6.427-5.42-6.683.256-.255 2.712-.977 5.459-1.602 20.251-4.615 44.313-5.517 66.006-2.476m-101.198 28.684c15.946 17.004 34.776 41.723 48.925 64.227 6.996 11.126 15.735 26.151 15.394 26.465-.474.438-12.37 3.766-22.427 6.275-19.537 4.874-43.934 9.029-68.694 11.698-13.487 1.454-66.722 2.658-74.506 1.686l-4.703-.588 1.555-5.441c11.143-38.963 36.355-74.847 69.548-98.984 8.779-6.384 23.016-14.938 24.863-14.938.573 0 5.093 4.32 10.045 9.6m229.646 52.267c12.217 18.419 20.561 37.071 25.685 57.414 2.676 10.624 6.268 33.084 5.387 33.686-.205.141-6.517-.005-14.026-.324-21.608-.917-62.005-.833-82.189.171-10.178.506-21.331.986-24.785 1.067l-6.281.146-5.769-13.653c-3.173-7.51-6.567-15.464-7.543-17.677l-1.774-4.024 11.55-5.554c35.901-17.264 65.42-39.434 82.231-61.76l4.693-6.233 3.297 3.677c1.814 2.023 6.1 7.901 9.524 13.064m-146.935 73.6c.728 1.76 3.474 7.965 6.102 13.788s4.473 10.846 4.101 11.162c-.371.316-3.172 1.242-6.222 2.057-11.124 2.972-34.751 14.28-53.981 25.834-38.644 23.22-71.58 55.45-92.137 90.162-3.288 5.552-6.257 9.776-6.598 9.386-21.449-24.562-36.362-55.452-42.617-88.275-1.985-10.414-3.866-34.429-3.067-39.156l.541-3.2 33.009-.461c40.7-.569 63.993-2.744 98.447-9.193 14.282-2.673 43.042-9.704 53.603-13.105 3.52-1.133 6.646-2.091 6.947-2.13.301-.038 1.143 1.371 1.872 3.131m170.678 50.241 6.697.554-.567 4.789c-.996 8.427-4.732 24.117-8.182 34.366-12.24 36.357-36.412 69.061-67.544 91.383-3.763 2.699-7.113 4.907-7.442 4.907-.33 0-1.668-7.392-2.974-16.427-5.253-36.348-12.039-66.331-23.273-102.837-2.637-8.571-4.621-15.759-4.407-15.973 1.794-1.793 87.876-2.403 107.692-.762m-142.133 22.292c13.67 41.55 24.234 88.286 28.798 127.41l.553 4.743-8.397 2.719c-38.751 12.547-78.025 12.434-116.345-.334-17.863-5.951-35.24-14.804-49.733-25.335l-5.787-4.205 3.514-6.526c16.372-30.397 42.593-59.236 74.444-81.871 17.182-12.212 41.969-25.565 55.889-30.109 12.274-4.007 10.958-5.048 17.064 13.508" fill-rule="evenodd"/></svg>