<svg xmlns="http://www.w3.org/2000/svg" width="512" height="512"><path d="M31.785 256.213 32 480h448l.215-223.787.215-223.786H31.57l.215 223.786m353.523-18.531c17.297 3.016 30.144 11.195 39.756 25.311 3.77 5.536 3.862 5.903 1.816 7.187-.821.516-8.093 5.191-16.16 10.39l-14.667 9.452-2.687-4.188c-5.095-7.94-12.317-12.655-20.521-13.399-14.643-1.328-23.832 5.61-23.832 17.995 0 11.581 5.795 16.57 32.854 28.28 37.232 16.114 51.606 28.849 57.321 50.783 1.807 6.936 2.011 24.043.367 30.72-6.516 26.468-29.165 41.919-63.459 43.29-29.273 1.171-52.644-7.049-69.04-24.28-4.835-5.082-11.817-15.032-11.786-16.795.009-.514 7.568-5.296 16.798-10.627 15.751-9.097 16.85-9.594 17.904-8.106 10.429 14.709 19.667 20.748 34.214 22.367 13.014 1.448 24.246-1.5 29.614-7.771 5.492-6.416 5.641-16.363.354-23.661-3.576-4.937-10.012-8.767-28.074-16.709-19.475-8.563-21.726-9.699-30.47-15.371-16.395-10.637-25.276-24.405-27.591-42.775-3.035-24.085 7.306-45.317 27.012-55.462 3.701-1.905 8.211-3.939 10.023-4.519 10.649-3.411 27.681-4.304 40.254-2.112m-113.095 71.865c-.001 69.304-.434 82.726-2.995 92.835-3.898 15.385-14.417 28.758-27.725 35.246-11.633 5.672-16.071 6.538-33.28 6.493-14.044-.036-15.365-.182-22.186-2.446-3.99-1.324-8.982-3.282-11.094-4.35-10.33-5.226-20.811-15.563-26.385-26.019l-2.663-4.998 15.976-9.661a8028.84 8028.84 0 0 0 16.999-10.295c.673-.418 2.361 1.512 4.932 5.636 7.056 11.322 12.675 15.042 22.715 15.042 7.188 0 11.086-1.425 14.993-5.481 6.546-6.795 6.34-3.949 6.34-87.792v-73.97H272.213v69.76" fill-rule="evenodd"/></svg>