<svg xmlns="http://www.w3.org/2000/svg" width="512" height="512"><path d="M398.08 64.509c-18.984 2.785-30.811 6.113-42.377 11.927-22.552 11.337-42.896 33.775-57.928 63.891-7.866 15.758-10.506 23.316-8.961 25.646 1.447 2.182 3.388 2.07 12.774-.738 25.624-7.667 41.437-3.833 48.315 11.715 3.846 8.695 2.854 25.861-2.296 39.707-12.618 33.924-46.317 84.137-61.352 91.415-8.953 4.334-16.335.397-22.628-12.071-11.723-23.223-18.911-52.483-29.845-121.494-2.379-15.019-5.437-32.875-6.795-39.68-8.823-44.218-26.972-64.789-57.208-64.841-12.685-.022-23.22 3.977-40.072 15.213-11.026 7.352-14.953 10.505-42.982 34.515-31.208 26.733-54.433 47.562-54.111 48.527.481 1.443 19.841 26.221 20.526 26.271.364.026 6.469-3.836 13.567-8.584 14.344-9.593 18.584-11.802 22.707-11.829 4.616-.031 7.996 1.972 13.894 8.235 4.511 4.791 6.691 8.177 11.207 17.407 3.084 6.302 6.607 14.147 7.829 17.432 3.058 8.221 13.43 43.852 29.56 101.547 16.532 59.136 19.084 66.955 27.019 82.773 12.521 24.961 28.371 40.84 45.122 45.203 21.63 5.634 55.113-7.486 88.275-34.591 12.075-9.869 34.757-31.953 46.602-45.374 21.763-24.657 57.473-71.904 74.452-98.505 22.515-35.273 38.491-70.299 43.601-95.59 4.721-23.369 3.771-47.778-2.637-67.676-6.424-19.952-21.875-33.507-44.258-38.829-5.405-1.285-26.878-2.373-32-1.622" fill-rule="evenodd"/></svg>