<svg xmlns="http://www.w3.org/2000/svg" viewBox="0 0 512 512"><path d="M313.522 21.547c-4.353 4.604-7.836 10.553-25.488 43.53l-20.446 38.196-6.483 4.257-6.484 4.257H104.107v120.32h82.64l3.48 4.053c2.038 2.374 3.285 4.584 3.011 5.333-.257.704-20.417 38.554-44.8 84.111l-44.331 82.831v87.352H193.436l5.042-5.334c4.353-4.604 7.836-10.553 25.488-43.53l20.446-38.196 6.483-4.257 6.484-4.257h150.514v-120.32h-82.64l-3.488-4.053c-1.918-2.229-3.388-4.461-3.266-4.958.121-.498 20.285-38.345 44.808-84.105l44.586-83.2V16.213H318.564l-5.042 5.334" fill-rule="evenodd"/></svg>