<svg xmlns="http://www.w3.org/2000/svg" viewBox="0 0 512 512"><path d="M85.846 17.513c-13.603 3.456-26.751 14.013-32.483 26.084-5.901 12.425-5.547.597-5.547 185.096 0 184.533-.347 172.971 5.552 184.959 5.45 11.075 16.443 20.035 30.259 24.662 4.471 1.498 11.306 1.583 144.426 1.809 76.854.13 139.726-.06 139.717-.423-.009-.363-2.834-10.164-6.277-21.78-3.443-11.616-6.108-21.12-5.922-21.12.248 0 73.194 66.666 106.305 97.155l2.357 2.17-.223-219.263-.223-219.262-1.997-5.547c-6.129-17.029-18.832-29.004-35.21-33.193-6.051-1.547-13.152-1.635-171.007-2.12-144.652-.445-165.306-.351-169.727.773M219.72 130.26c.914 1.249-.218 1.827-10.146 5.176-17.538 5.917-42.236 18.672-48.721 25.162-1.581 1.583-1.425 1.568 2.134-.212 6.982-3.493 25.901-10.781 33.706-12.986 21.027-5.939 35.5-7.807 60.587-7.818 14.808-.007 21.931.366 29.013 1.516 19.908 3.233 39.391 9.107 55.662 16.782 4.842 2.284 8.576 3.785 8.299 3.336-.863-1.396-12.411-8.896-20.014-12.998-8.776-4.735-17.159-8.376-28.788-12.505l-8.735-3.101 1.386-1.978c1.304-1.861 1.743-1.943 7.455-1.388 18.427 1.792 37.67 8.756 54.64 19.774l7.611 4.942 4.434 9.419c9.978 21.2 19.098 48.566 23.757 71.286 3.322 16.205 4.672 26.245 5.8 43.146 1.186 17.777 1.745 15.91-7.62 25.409-14.338 14.542-35.433 24.062-57.634 26.01l-7.582.665-4.443-5.162c-10.955-12.728-11.89-14.073-10.198-14.668 16.135-5.671 25.318-10.912 34.519-19.702 3.719-3.553 6.592-6.629 6.386-6.835-.207-.207-3.087 1.208-6.401 3.143-16.251 9.491-40.788 17.868-61.155 20.879-35.728 5.28-72.155-.943-106.731-18.235l-12.925-6.464 3.396 4.057c6.854 8.186 23.371 18.705 34.615 22.043 1.994.593 3.626 1.246 3.626 1.452 0 .207-3.552 4.76-7.893 10.119l-7.893 9.744-5.547-.481c-26.574-2.303-49.857-13.354-64.039-30.395l-4.477-5.38.533-11.966c1.788-40.207 13.76-86.755 31.269-121.579 3.234-6.431 3.936-7.226 9.64-10.916 14.522-9.394 32.55-16.72 46.701-18.977 3.52-.562 6.976-1.134 7.68-1.272 3.751-.735 7.15-.333 8.093.958m-18.128 90.384c-12.869 6.413-17.915 23.242-11.016 36.743 4.439 8.688 12.092 13.465 21.477 13.405 7.104-.046 11.038-1.579 16.156-6.296 13.688-12.618 10.064-36.812-6.652-44.402-5.447-2.473-14.392-2.227-19.965.55m88.968-.151c-5.315 2.52-9.99 7.33-12.532 12.894-2.881 6.305-2.777 16.214.237 22.613 6.296 13.367 20.43 18.69 32.811 12.358 23.455-11.995 15.326-49.888-10.703-49.888-4.067 0-6.685.54-9.813 2.023" fill-rule="evenodd"/></svg>