<svg xmlns="http://www.w3.org/2000/svg" width="512" height="512"><path d="M243.585 33.702c-6.921 1.867-204.981 97.711-208.299 100.799-3.916 3.644-3.945 7.475-.086 11.202 3.824 3.692 202.441 99.571 209.918 101.334 6.855 1.616 14.972 1.6 21.975-.044 3.82-.897 34.235-15.143 97.707-45.764 117.301-56.591 111.873-53.865 113.962-57.248 2.069-3.349 1.597-6.124-1.587-9.339-2.751-2.778-203.392-99.791-209.393-101.245-5.376-1.303-18.87-1.133-24.197.305m177.108 193.584c-2.581 1.102-36.949 17.599-76.373 36.659-51.974 25.128-73.322 35.041-77.653 36.059-8.235 1.936-19.407 1.266-26.88-1.612-3.051-1.175-38.185-17.914-78.076-37.197-55.995-27.069-73.259-35.062-75.732-35.062-2.336 0-9.032 2.791-24.751 10.314-25.126 12.027-26.718 12.935-28.413 16.215-1.654 3.197-.92 5.92 2.452 9.095 2.977 2.804 195.555 96.277 205.8 99.891 4.801 1.694 7.647 2.111 14.506 2.126 4.694.01 10.262-.457 12.374-1.038 6.651-1.831 206.939-98.942 209.268-101.465 1.159-1.256 2.358-2.991 2.663-3.856.698-1.977-1.471-6.534-3.96-8.317-2.514-1.802-46.318-22.85-48.683-23.393-1.017-.233-3.96.478-6.542 1.581m2.56 114.617c-.704.283-34.9 16.769-75.991 36.636-50.528 24.429-76.493 36.542-80.214 37.419-6.849 1.614-14.063 1.648-21.368.1-4.194-.889-24.787-10.44-80.926-37.532-60.251-29.076-75.976-36.339-78.678-36.339-2.549 0-8.437 2.42-24.033 9.878-25.994 12.431-27.766 13.464-29.259 17.035-1.373 3.287-.952 5.025 1.991 8.214 2.354 2.552 202.815 99.721 209.278 101.444 5.703 1.519 18.35 1.304 24.342-.414 7.622-2.186 206.235-98.235 208.876-101.012 3.096-3.254 3.532-6.009 1.48-9.332-1.438-2.329-5.508-4.631-25.405-14.369-22.668-11.093-27.236-12.874-30.093-11.728" fill-rule="evenodd"/></svg>