<svg xmlns="http://www.w3.org/2000/svg" viewBox="0 0 512 512"><path d="M145.811 17.65c-1.233.765-2.856 2.431-3.606 3.702-1.343 2.274-48.754 302.513-48.173 305.066.252 1.109 116.563-205.657 117.324-208.568.31-1.186-46.495-90.258-51.208-97.452-2.734-4.172-9.845-5.535-14.337-2.748m104.887 67.302c-1.273.691-3.818 3.843-5.655 7.006-3.469 5.972-151.161 269.265-155.681 277.535-2.098 3.838 17.081-14.931 105.212-102.963l107.778-107.656-18.738-35.698c-15.409-29.357-19.245-36.039-21.595-37.623-3.295-2.22-7.889-2.464-11.321-.601m111.161 37.288C342.935 139.845 80.295 399.782 80.872 400.336c2.309 2.221 160.333 92.477 164.221 93.796 6.158 2.088 14.345 2.131 20.375.106 3.885-1.306 163.611-91.878 165.771-94.001.79-.777-44.928-274.101-46.676-279.05-1.417-4.013-5.759-6.84-10.504-6.84-3.505 0-4.194.445-12.2 7.893" fill-rule="evenodd"/></svg>