<svg xmlns="http://www.w3.org/2000/svg" width="512" height="512"><path d="M228.139 89.377c59.027 100.877 199.885 340.556 200.613 341.353.766.839 8.267 1.028 33.952.854l32.97-.224L392.673 256 289.671 80.64l-33.452-.223-33.453-.223 5.373 9.183m-30.242 32.776c-3.419 5.797-10.902 18.54-16.628 28.317l-10.412 17.777 11.638 19.844a754534.28 754534.28 0 0 0 77.345 131.765l65.707 111.921 33.158.005c28.561.004 33.092-.166 32.684-1.228-.373-.974-180.078-307.109-185.794-316.508l-1.48-2.434-6.218 10.541M84.322 315.533 16.325 431.36l68.211.218c37.516.121 98.864.121 136.329 0l68.118-.218-16.82-28.587-16.821-28.586-67.511-.219c-37.131-.12-67.511-.508-67.511-.862s14.976-26.142 33.28-57.307c18.304-31.165 33.28-57.038 33.28-57.497 0-1.005-33.524-58.526-34.133-58.567-.235-.016-31.026 52.093-68.425 115.798" fill-rule="evenodd"/></svg>