<svg xmlns="http://www.w3.org/2000/svg" width="512" height="512"><path d="m161.279 66.987-34.554 34.563 141.65 141.651 141.649 141.652 34.56-34.559 34.559-34.559-53.118-53.124c-29.215-29.217-53.118-53.504-53.118-53.971 0-.467 24.09-24.941 53.533-54.387 52.661-52.666 53.506-53.564 51.84-55.095-.931-.856-16.587-16.302-34.79-34.325l-33.096-32.768-53.731 53.725-53.73 53.725-53.55-53.545-53.549-53.545-34.555 34.562m-94.506 94.504-34.345 34.345 53.543 53.549 53.544 53.548-53.724 53.729-53.723 53.729 31.051 31.391c17.078 17.265 32.521 32.924 34.318 34.797l3.266 3.406 49.702-49.501c27.336-27.225 51.724-51.406 54.197-53.735l4.494-4.234 53.318 53.313 53.318 53.312 34.562-34.554 34.562-34.554-141.44-141.443c-77.792-77.793-141.634-141.442-141.87-141.442-.236 0-15.884 15.455-34.773 34.344" fill-rule="evenodd"/></svg>