<svg xmlns="http://www.w3.org/2000/svg" width="512" height="512"><path d="M0 256v175.787h512V80.213H0V256m381.013-136.619c20.003 1.371 28.904 2.547 37.081 4.901 21.801 6.274 35.992 22.074 40.509 45.105 3.483 17.754 6.112 65.949 5.237 96-1.054 36.198-3.854 74.387-6.085 82.997-3.966 15.31-14.378 28.334-27.765 34.734-17.471 8.352-31.626 9.676-119.942 11.213-79.203 1.379-168.909-.221-199.427-3.557-19.105-2.089-32.14-7.481-41.979-17.363-8.544-8.583-13.417-18.335-15.6-31.224-1.263-7.456-3.299-36.434-4.468-63.574-1.775-41.241 1.184-97.044 6.082-114.722 4.423-15.96 14.413-28.52 28.269-35.541 5.807-2.943 17.031-6.006 25.878-7.064 7.622-.911 33.987-2.474 50.344-2.984 22.023-.687 209.394.224 221.866 1.079m-216.912 34.3c-28.614 2.551-47.512 14.55-58.298 37.015-9.494 19.773-12.45 38.179-11.7 72.84.526 24.315 2.261 36.873 7.092 51.331 6.199 18.549 15.006 29.666 29.069 36.693 11.353 5.673 33.162 8.611 51.494 6.937 33.328-3.045 51.648-15.873 60.508-42.37 2.941-8.796 4.929-19.803 5.429-30.047l.343-7.04H197.12v4.851c0 14.213-7.923 25.057-20.164 27.599-9.231 1.916-17.387-.77-23.718-7.812-7.257-8.071-9.011-17.103-9.011-46.398 0-28.169 1.957-39.326 8.386-47.828 4.77-6.307 9.739-8.492 19.316-8.492 6.835 0 8.139.259 11.634 2.314 8.127 4.778 13.294 13.422 14.154 23.678l.504 6.008h50.252l-.557-7.467c-1.203-16.103-4.405-28.778-10.077-39.893-2.637-5.168-5.26-8.593-10.795-14.099-11.411-11.35-23.182-16.227-43.151-17.88-5.632-.466-10.624-.801-11.093-.743-.469.057-4.384.418-8.699.803m174.672-.394c-38.857 2.716-59.78 19.609-69.612 56.206-3.722 13.853-4.92 25.496-4.916 47.787.005 36.386 4.885 59.541 16.104 76.417 10.212 15.361 24.423 22.446 49.787 24.822 19.504 1.827 39.441-1.129 53.864-7.985 10.027-4.766 19.4-14.155 24.566-24.605 5.388-10.903 9.567-29.878 9.567-43.442v-3.447h-50.101l-.564 6.187c-.885 9.713-2.686 14.022-8.138 19.468-4.07 4.066-5.611 4.992-10.504 6.315-14.132 3.819-26.95-3.658-31.402-18.317-3.115-10.256-4.265-35.355-2.542-55.466 1.019-11.883 2.127-17 4.898-22.614 4.545-9.205 10.667-13.292 20.822-13.899 5.643-.337 7.148-.103 11.167 1.737 9.113 4.172 14.589 12.309 16.307 24.232l.904 6.277H418.133l-.005-5.333c-.012-13.391-4.275-30.774-10.515-42.88-8.144-15.8-24.897-27.142-44.52-30.139-6.952-1.062-18.81-1.706-24.32-1.321" fill-rule="evenodd"/></svg>