<svg xmlns="http://www.w3.org/2000/svg" width="512" height="512"><path d="M200.433 35.206c-3.393 1.757-6.388 4.116-8.14 6.413-1.984 2.6-4.786 4.66-9.853 7.239-9.326 4.749-17.747 12.68-17.747 16.714 0 7.643 4.852 10.611 17.92 10.962 10.371.279 10.316-.136-.178-1.358-7.393-.861-13.71-3.215-14.558-5.424-.779-2.03 1.618-6.2 5.455-9.489 3.454-2.961 11.773-8.21 13.012-8.21.295 0 .538 2.208.541 4.907.006 6.426 1.141 10.281 4.498 15.273 3.139 4.668 8.775 8.48 14.816 10.02l4.148 1.057 1.767 11.242c.973 6.183 2.011 11.484 2.307 11.78.296.296 3.254-.127 6.572-.94l6.035-1.479-.472-2.677c-.259-1.472-1.171-6.578-2.027-11.348l-1.555-8.672 3.59-2.53c9.7-6.838 13.224-18.87 8.906-30.411-1.601-4.279-2.037-4.75-4.907-5.294-1.732-.328-7.374-.182-12.536.325-5.163.507-9.493.817-9.622.689-.452-.45 13.97-3.013 21.949-3.9 7.301-.812 11.492-.686 18.093.542 1.945.362 2.25.829 2.179 3.338-.055 1.922.562 3.603 1.811 4.932l1.893 2.016-1.763 2.241c-.97 1.233-4.248 3.849-7.286 5.814-3.037 1.964-5.35 3.744-5.139 3.955.823.823 9.646-4.689 13.659-8.533 2.327-2.229 4.514-4.053 4.86-4.053 1.133 0 4.166-4.46 4.166-6.128 0-2.736-3.87-5.893-7.029-5.733-1.532.077-3.937-.342-5.345-.932-1.408-.591-7.552-1.244-13.653-1.453-8.343-.286-12.085-.788-15.092-2.027-2.64-1.088-6.019-1.647-9.952-1.647-5.052 0-6.767.421-11.323 2.779m44.047 74.042c-78.304 6.962-142.644 60.077-164.306 135.642-1.413 4.931-3.041 9.436-3.616 10.011-.576.576-3.654 1.416-6.84 1.867-6.752.956-12.116 3.79-15.451 8.162-8.354 10.953-12.787 33.645-10.826 55.415 1.716 19.043 6.114 35.745 12.941 49.148 4.22 8.285 5.746 10.477 11.09 15.925 7.691 7.842 12.217 9.052 26.12 6.984l6.622-.985 1.902 2.478c1.046 1.363 4.868 6.469 8.494 11.347 29.415 39.574 72.923 65.296 123.63 73.09 11.43 1.756 35.808 2.021 47.36.515 34.768-4.536 67.462-18.127 94.226-39.17 9.338-7.342 25.974-24.455 33.097-34.045 14.364-19.339 23.022-36.859 31.146-63.019l2.384-7.68 4.598-.561c6.288-.767 10.733-4.059 14.317-10.603 7.447-13.599 9.604-38.088 5.797-65.826-3.169-23.092-9.714-37.627-19.495-43.295-3.598-2.086-11.625-3.799-11.606-2.478.006.405.965 3.723 2.13 7.373 3.613 11.312 7.175 35.714 7.232 49.541.026 6.085-2.036 2.955-3.042-4.616-3.07-23.13-9.725-43.202-20.597-62.128-28.514-49.636-78.419-83.539-135.101-91.783-11.491-1.671-31.243-2.284-42.206-1.309M99.43 273.06c9.059 11.363 15.85 25.768 18.753 39.782 3.933 18.978 1.672 43.009-5.542 58.919-2.512 5.541-4.983 7.505-3.858 3.066 7.183-28.321 2.943-68.178-10.256-96.424-2.094-4.48-3.807-8.474-3.807-8.874 0-1.626 1.488-.51 4.71 3.531m261.202 73.319c9.388 4.263 11.718 16.282 4.705 24.272-6.498 7.403-20.192 5.483-24.448-3.428-6.262-13.109 6.683-26.775 19.743-20.844m-78.836 5.698c4.009 2.592 6.631 7.622 6.631 12.723 0 14.324-17.55 20.746-26.766 9.794-5.161-6.133-4.895-14.722.629-20.296 5.47-5.521 13.065-6.385 19.506-2.221" fill-rule="evenodd"/></svg>