<svg xmlns="http://www.w3.org/2000/svg" width="512" height="512"><path d="M235.947 32.932c-1.408.193-7.168.963-12.8 1.711-21.769 2.89-44.645 10.043-66.604 20.825-21.148 10.384-41.781 25.207-58.822 42.26-35.54 35.565-57.206 79.744-64.034 130.573-1.649 12.278-1.888 38.815-.464 51.592 9.27 83.165 63.345 154.018 140.857 184.56 26.362 10.387 52.692 15.307 81.92 15.307s55.558-4.92 81.92-15.307c70.139-27.637 121.5-88.41 137.296-162.454 4.329-20.294 5.803-49.347 3.546-69.892-5.586-50.853-27.979-97.678-64.093-134.021-33.537-33.749-77.837-56.215-125.389-63.589-8.503-1.318-46.904-2.445-53.333-1.565m2.37 88.293c4.934 1.37 8.487 5.105 14.246 14.977l5.266 9.028 5.554-9.45c3.054-5.197 6.692-10.408 8.084-11.579 7.057-5.938 17.316-4.217 22.773 3.819 1.724 2.539 1.967 3.767 1.686 8.513l-.329 5.547-38.145 64.998c-20.98 35.749-38.145 65.199-38.145 65.445 0 .246 14.112.565 31.36.709 30.888.257 31.427.292 35.833 2.283 8.606 3.891 15.018 13.944 14.559 22.827l-.259 5.018-84.053.242c-46.23.134-85.325.016-86.878-.261-3.369-.601-8.929-5.385-10.408-8.955-1.688-4.074-.702-11.27 2.035-14.859 4.532-5.941 4.77-5.986 34.545-6.46l26.761-.427 28.464-48.452 28.465-48.452-8.385-14.268c-11.321-19.262-12.039-20.779-12.039-25.412 0-6.912 3.664-12.252 9.945-14.491 4.028-1.436 4.988-1.472 9.065-.34m68.766 107.918 25.909 43.924h23.825c19.573 0 24.388.235 26.985 1.32 6.458 2.699 9.585 7.296 9.585 14.094 0 5.388-2.281 9.802-6.593 12.76-2.981 2.045-3.655 2.128-19.226 2.385-13.687.225-16.065.454-15.661 1.505.261.682 4.325 7.778 9.031 15.769 11.388 19.338 11.969 20.558 11.969 25.127 0 8.712-6.597 15.331-15.28 15.331-6.037 0-10.067-2.342-13.575-7.889-2.488-3.934-52.763-89.514-66.534-113.256-4.117-7.098-7.465-14.011-8.25-17.032-2.314-8.906-1.449-17.874 2.535-26.288 2.133-4.504 7.578-11.745 8.797-11.697.315.012 12.233 19.788 26.483 43.947M179.2 310.682c4.362 1.975 8.126 5.26 9.886 8.629 1.16 2.22.855 2.872-9.047 19.347-5.637 9.377-11.413 18.029-12.836 19.226-6.739 5.671-16.427 4.531-21.845-2.572-1.864-2.444-2.43-4.234-2.705-8.558l-.348-5.468 8.681-14.493c4.775-7.972 9.5-15.257 10.502-16.19 2.572-2.396 12.34-2.353 17.712.079" fill-rule="evenodd"/></svg>