<svg xmlns="http://www.w3.org/2000/svg" width="512" height="512"><path d="M235.947 32.932c-1.408.193-7.168.966-12.8 1.718-45.818 6.116-91.223 28.978-125.371 63.126-36.353 36.353-58.35 82.168-64.496 134.331-1.405 11.929-1.203 37.809.396 50.773 8.1 65.636 44.45 124.057 99.871 160.509 9.057 5.957 26.981 15.782 30.933 16.956l1.92.57.017-13.924c.009-7.658.555-17.974 1.214-22.923.659-4.949 7.925-37.589 16.145-72.533L198.723 288l-2.445-7.358c-3.444-10.361-4.582-19.428-4.04-32.191.747-17.585 6.114-31.731 15.859-41.801 8.688-8.978 17.508-12.567 29.248-11.9 11.435.649 19.604 6.245 24.489 16.774 1.881 4.053 2.276 6.277 2.553 14.362.404 11.777-1.238 20.502-8.087 42.968-12.063 39.567-13.393 46.204-11.074 55.256 4.79 18.697 23.512 29.581 43.954 25.554 10.295-2.028 18.537-6.458 27.107-14.57 21.011-19.89 33.632-54.363 35.047-95.734.573-16.737-.528-25.863-4.603-38.167-4.087-12.339-9.753-21.433-19.02-30.526-17.143-16.822-39.417-24.747-69.555-24.747-19.48 0-36.471 3.807-52.004 11.653-10.536 5.322-16.698 9.668-25.136 17.729-12.98 12.4-21.265 25.441-26.941 42.406-4.545 13.583-5.848 22.769-5.371 37.865.559 17.711 3.546 26.686 13.343 40.089 5.294 7.242 5.376 8.353 1.691 23.066-3.918 15.644-6.577 17.586-17 12.415-20.571-10.207-33.532-28.869-39.764-57.258-2.446-11.142-2.257-41.793.324-52.445 10.656-43.981 38.795-78.362 80.009-97.754 20.716-9.748 42.991-14.834 69.546-15.879 45.272-1.781 83.391 12.154 112.269 41.041 18.519 18.526 28.969 37.487 34.655 62.881 1.741 7.777 1.978 11.044 1.944 26.778-.072 33.063-5.87 58.619-19.3 85.07-21.521 42.386-60.409 67.003-103.114 65.275-12.541-.508-18.977-2.166-30.523-7.865-5.886-2.905-9.396-5.367-13.717-9.619-3.194-3.143-6.375-6.634-7.068-7.758-1.187-1.923-1.731-.209-9.215 29.013-4.374 17.081-9.087 34.321-10.473 38.31-3.053 8.787-10.07 23.603-15.524 32.779-3.044 5.12-3.746 6.918-2.907 7.441 2.034 1.266 19.744 5.09 31.827 6.871 14.089 2.077 42.008 2.487 55.04.808 52.671-6.784 97.621-28.513 133.546-64.559 31.593-31.698 52.102-69.96 61.412-114.57 3.801-18.212 5.099-47.292 2.998-67.17-3.671-34.743-16.249-70.001-35.314-98.986-35.136-53.42-90.873-89.244-154.109-99.05-8.503-1.318-46.904-2.445-53.333-1.565" fill-rule="evenodd"/></svg>