<svg data-name="Layer 1" xmlns="http://www.w3.org/2000/svg" viewBox="0 0 512 512"><path d="M122.132 17.174c-4.353 1.286-11.504 8.892-12.736 13.546-2.126 8.034-61.633 387.054-61.129 389.354.706 3.23 4.402 7.434 7.772 8.842 2.235.934 11.802 1.164 48.374 1.164h45.589l.46-1.92c.253-1.056 5.313-32.621 11.245-70.144 5.932-37.523 11.277-69.395 11.877-70.827 1.645-3.925 5.418-8.003 9.35-10.106 3.414-1.827 4.578-1.899 38.933-2.422 45.38-.691 59.25-2.394 83.067-10.197 55.029-18.03 87.357-59.438 100.084-128.195 1.82-9.832 2.499-32.802 1.227-41.502-3.334-22.798-16.772-43.864-36.154-56.673-15.489-10.236-29.973-15.257-56.358-19.537-10.879-1.765-13.969-1.828-99.973-2.028-57.135-.133-89.773.097-91.628.645M424.611 150.4c-.163.587-1.34 6.059-2.615 12.16-4.742 22.69-13.969 45.652-25.031 62.293-23.516 35.378-59.069 55.638-109.452 62.371-7.841 1.048-19.396 1.508-44.313 1.762-20.341.208-35.131.713-37.298 1.274-4.386 1.134-9.979 5.768-12.188 10.098-1.186 2.325-5.551 27.889-15.757 92.282-7.765 48.987-14.104 90.603-14.087 92.48.037 4.178 1.431 6.837 4.721 9.006 2.386 1.573 4.412 1.65 43.548 1.655 43.358.006 44.312-.072 49.578-4.045 5.224-3.941 5.714-6.006 14.347-60.44 8.939-56.361 9.022-56.687 15.679-61.365l3.649-2.565 18.366-.591c10.1-.325 21.877-1.014 26.17-1.531 62.331-7.516 100.991-40.193 117.131-99.004 11.547-42.078 8.66-74.949-8.599-97.909-4.291-5.708-10.01-10.895-17.515-15.885-5.108-3.396-5.89-3.648-6.334-2.046" fill-rule="evenodd"/></svg>