<svg xmlns="http://www.w3.org/2000/svg" viewBox="0 0 512 512"><path d="M91.406 114.032c-2.95 2.066-4.568 6.495-3.452 9.447.497 1.313 10.073 18.324 21.28 37.801s20.59 35.989 20.85 36.693c.342.925-2.25 2.898-9.343 7.113C57.229 242.817 12.777 310.264 1.701 385.703c-.93 6.338-1.694 12.004-1.696 12.59-.004.851 51.761 1.067 255.995 1.067s255.999-.216 255.995-1.067c-.017-4.091-3.898-26.179-6.334-36.056-15.596-63.233-52.818-116.639-105.613-151.536-5.489-3.628-11.921-7.652-14.294-8.944-2.372-1.292-4.314-2.638-4.314-2.993s9.076-16.326 20.169-35.491c24.167-41.753 23.816-41.042 22.186-44.942-2.492-5.966-8.773-7.551-13.255-3.344-1.375 1.29-11.99 18.858-23.588 39.04-11.599 20.181-21.172 36.794-21.275 36.916-.102.123-5.393-1.866-11.758-4.42-28.164-11.301-57.146-17.162-89.812-18.162-38.682-1.184-75.641 5.442-109.971 19.716-4.163 1.731-7.662 3.034-7.776 2.895-.113-.139-9.695-16.764-21.293-36.945-11.599-20.182-22.218-37.75-23.598-39.04-2.908-2.72-6.99-3.108-10.063-.955m53.765 171.85c4.124 1.145 10.425 6.814 12.624 11.357 2.356 4.867 2.357 12.439.003 17.641-7.283 16.088-29.42 17.144-37.771 1.801-3.048-5.6-3.652-10.635-1.968-16.391 3.364-11.497 15.114-17.741 27.112-14.408m237.809 1.342c15.923 7.934 15.681 30.417-.413 38.41-4.645 2.307-14.027 2.178-18.62-.256-9.826-5.206-14.405-18.145-9.917-28.024 1.847-4.068 8.647-10.332 12.394-11.42 5.362-1.556 11.862-1.05 16.556 1.29" fill-rule="evenodd"/></svg>