<svg data-name="Layer 1" xmlns="http://www.w3.org/2000/svg" viewBox="0 0 512 512"><path d="M237.653 34.208C144.079 41.76 64.101 108.302 39.794 198.827c-5.48 20.407-7.589 37.134-7.534 59.733.12 48.72 15.181 93.554 44.805 133.374 8.881 11.939 29.583 33.142 40.793 41.78 26.805 20.657 59.9 36.078 91.862 42.803 5.757 1.212 10.653 2.203 10.88 2.203.227 0 .413-35.131.413-78.068v-78.069l-28.373-.225-28.373-.225-.224-32.213-.224-32.213h57.041l.401-33.067c.422-34.855.789-38.633 4.985-51.389 7.573-23.019 24.035-39.632 47.023-47.453 11.157-3.795 21.414-4.91 40.263-4.377 14.759.417 34.009 2.137 40.388 3.609l1.92.443v54.58l-13.013.015c-26.682.03-35.712 2.337-43.632 11.146-7.295 8.114-7.705 10.167-8.033 40.242l-.286 26.23 31.031.223 31.031.224-4.898 31.574c-2.694 17.365-4.921 31.861-4.949 32.213-.028.352-11.763.64-26.078.64h-26.026v78.08c0 42.944.149 78.08.332 78.08.183 0 4.119-.772 8.747-1.715 85.281-17.381 152.86-82.309 173.581-166.772 5.66-23.07 7.753-54.323 5.146-76.846-14.054-121.443-120.004-208.956-241.14-199.179" fill-rule="evenodd"/></svg>