<svg xmlns="http://www.w3.org/2000/svg" width="512" height="512"><path d="M326.297 34.523c-38.776 10.024-70.028 43.192-76.724 81.429-1.36 7.761-1.567 13.783-.695 20.147l.558 4.071 6.571-.548c31.154-2.598 60.885-24.943 75.942-57.075 6.532-13.938 10.284-32.484 8.999-44.478l-.604-5.642-3.132.042c-1.723.023-6.634.947-10.915 2.054M161.173 138.664c-32.361 6.125-66.118 32.455-82.32 64.206-16.443 32.226-19.308 79.666-7.666 126.947 9.308 37.8 26.674 73.997 51.06 106.426 22.703 30.191 43.027 43.626 65.913 43.571 9.823-.024 15.631-1.554 31.635-8.333 15.504-6.568 23.375-8.738 35.565-9.809 18.273-1.604 33.708 1.154 51.622 9.227 17.374 7.829 26.691 9.848 38.946 8.44 21.173-2.433 42.984-20.513 67.202-55.703 13.531-19.663 22.38-35.273 31.799-56.099l3.007-6.649-6.512-2.968c-19.253-8.774-36.966-25.957-46.566-45.173-8.154-16.324-12.019-37.817-10.027-55.765 3.207-28.897 18.333-53.768 42.476-69.839 3.872-2.578 7.04-4.99 7.04-5.359 0-1.325-16.755-17.635-22.517-21.92-12.76-9.49-26.119-16.146-40.348-20.104-5.807-1.616-8.917-1.865-23.749-1.903-15.969-.041-17.648.108-26.112 2.316-4.975 1.298-15.343 4.705-23.04 7.571-29.734 11.071-39.354 11.052-72.448-.139-25.084-8.482-29.517-9.447-45.226-9.841-9.222-.231-15.197.041-19.734.9" fill-rule="evenodd"/></svg>