<svg xmlns="http://www.w3.org/2000/svg" width="512" height="512"><path d="M233.813 33.755c-19.622 3.041-41.398 11.431-57.529 22.165-14.76 9.821-30.671 27.06-38.843 42.086-13.332 24.51-16.689 50.268-12.783 98.082.548 6.708.752 12.44.453 12.739-.299.299-6.011-.953-12.694-2.781-16.015-4.383-21.875-4.491-29.878-.551-10.894 5.363-16.449 14.772-15.782 26.73.448 8.033 3.3 14.381 8.696 19.355 5.047 4.653 8.923 6.494 20.291 9.639 15.508 4.29 21.656 7.882 24.292 14.192 1.58 3.781.974 6.571-3.271 15.053-4.772 9.537-9.4 16.049-17.126 24.096-7.964 8.296-16.543 14.425-27.333 19.528-13.36 6.318-23.242 8.569-49.693 11.318l-5.973.621-.246 6.937c-.577 16.257 4.949 28.956 17.075 39.236 6.682 5.666 11.554 7.787 26.352 11.475 14.912 3.715 20.968 6.341 23.15 10.034.747 1.264 1.807 4.777 2.356 7.805 1.28 7.056 2.485 9.305 7.22 13.473 7.159 6.301 17.174 7.563 35.88 4.52 15.943-2.593 20.865-2.905 27.684-1.755 8.212 1.385 18.238 6.514 30.769 15.74 5.397 3.974 12.729 8.988 16.292 11.142 18.922 11.441 41.123 16.97 60.258 15.006 17.72-1.819 31.613-7.646 58.277-24.442 18.097-11.401 25.559-15.248 32.287-16.644 5.837-1.212 20.898-.675 37.219 1.326 22.711 2.784 28.91-.637 36.452-20.118 3.951-10.205 4.72-10.904 13.508-12.255 7.991-1.228 20.311-4.976 27.154-8.26 8.27-3.969 17.088-12.091 20.884-19.237 3.09-5.816 5.641-16.009 6.292-25.14l.525-7.37-4.6-.577c-32.065-4.019-51.387-10.923-69.588-24.864-15.322-11.736-29.517-32.356-29.674-43.107-.103-7.039 3.062-9.255 23.802-16.665 18.475-6.602 24.512-11.326 28.698-22.46 4.849-12.894-2.052-28.776-15.097-34.749-8.451-3.869-12.973-3.622-33.463 1.825-4.841 1.286-8.901 2.204-9.023 2.038-.122-.166.289-6.253.914-13.528 1.838-21.427 1.633-48.8-.455-60.604-3.2-18.088-8.378-31.4-17.576-45.184-18.589-27.856-48.978-47.498-84.637-54.705-12.134-2.453-39.25-3.065-51.516-1.165m-18.418 97.119c1.609 1.228 4.012 4.443 5.339 7.146 2.204 4.489 2.413 5.724 2.411 14.3-.001 8.211-.253 9.868-2.016 13.227-3.76 7.165-7.822 10.24-13.529 10.24-5.028 0-9.006-3.224-12.342-10.001-2.613-5.306-2.83-6.377-2.81-13.875.016-6.605.383-8.92 1.961-12.38 4.948-10.85 13.491-14.374 20.986-8.657m93.341-1.67c3.467 1.811 6.682 5.558 8.851 10.316 1.582 3.471 1.949 5.782 1.965 12.391.02 7.498-.197 8.569-2.81 13.875-3.336 6.777-7.314 10.001-12.342 10.001-5.728 0-9.843-3.128-13.475-10.24-2.675-5.238-3.331-17.532-1.268-23.744 3.59-10.807 11.946-16.326 19.079-12.599m-99.4 63.784c1.025.544 3.961 2.852 6.524 5.129 5.663 5.031 17.953 11.25 26.06 13.186 7.891 1.885 21.32 1.853 28.587-.068 7.879-2.084 16.619-6.363 22.904-11.217 10.616-8.197 10.603-8.189 13.682-7.697 5.653.902 8.39 6.335 5.757 11.427-2.751 5.319-17.503 15.46-28.864 19.841-17.027 6.566-36.515 6.928-53.605.993-12.243-4.251-28.168-14.911-31.287-20.943-3.513-6.793 3.589-14.178 10.242-10.651" fill-rule="evenodd"/></svg>