<svg data-name="Layer 1" xmlns="http://www.w3.org/2000/svg" viewBox="0 0 512 512"><path d="M231.68 16.287c-56.507 5.794-107.284 30.434-147.793 71.717C46.72 125.881 24.278 172.74 16.915 227.84c-1.635 12.237-1.37 45.029.465 57.6 1.86 12.733 5.024 27.61 7.895 37.12 28.805 95.392 111.502 162.837 210.405 171.6 13.902 1.232 40.267.552 52.747-1.359 61.957-9.491 115.074-39.728 153.723-87.51 9-11.126 17.797-24.345 17.797-26.744 0-1.098-.796-3.009-1.769-4.245-2.586-3.288-6.103-2.938-15.021 1.494-9.22 4.582-28.3 10.809-41.829 13.65-37.754 7.928-79.019 4.037-116.315-10.966-41.65-16.756-77.077-52.881-86.542-88.248-4.263-15.931-5.024-37.867-1.755-50.569 3.638-14.136 12.12-25.733 25.163-34.404 10.727-7.13 20.806-10.097 34.121-10.044 18.421.074 34.378 7.472 46.459 21.54 4.85 5.649 11.045 18.133 12.486 25.165 1.365 6.662 1.367 19.232.003 25.173-1.665 7.252-8.781 21.071-14.501 28.16-5.611 6.953-6.5 10.359-3.979 15.234 4.71 9.108 23.286 18.021 45.517 21.838 49.441 8.489 91.788-2.315 120.118-30.648 12.136-12.137 21.284-26.852 27.125-43.632 4.922-14.141 6.074-21.164 6.073-37.032-.001-21.094-2.88-38.503-9.792-59.22-28.915-86.666-123.876-146.978-230.362-146.31-9.152.057-19.712.419-23.467.804" fill-rule="evenodd"/></svg>