<svg xmlns="http://www.w3.org/2000/svg" width="512" height="512"><path d="M71.253 83.667c-49.889 3.902-54.737 4.45-59.053 6.674C2.766 95.203-1.757 105.831.848 117.02c1.35 5.799 5.907 15.667 58.094 125.823 23.552 49.711 43.386 91.728 44.075 93.37 5.214 12.413 18.16 20.639 32.427 20.605 6.052-.015 11.918-1.252 42.666-9 19.608-4.941 40.066-10.146 45.463-11.568 5.398-1.422 10.238-2.588 10.756-2.591.518-.003 7.586 11.61 15.706 25.808 26.687 46.659 33.014 56.836 39.178 63.011 9.132 9.15 18.359 11.326 32.592 7.686 14.391-3.681 158.532-54.168 167.223-58.572 12.063-6.113 16.325-16.659 11.025-27.281-1.173-2.352-12.187-17.52-24.476-33.707s-22.389-29.793-22.444-30.236c-.055-.442 8.848-3.17 19.784-6.06 25.509-6.744 26.081-6.927 30.104-9.66 7.982-5.421 10.985-14.535 7.433-22.564-.955-2.159-4.171-6.728-7.146-10.152-2.974-3.424-15.772-18.89-28.438-34.369-12.667-15.48-24.457-29.579-26.201-31.331-6.584-6.617-13.07-9.427-21.644-9.378-5.375.031-65.582 9.282-76.305 11.725-11.447 2.608-18.264 9.701-18.318 19.064-.018 2.943.596 6.215 1.571 8.381.88 1.953 9.579 14.615 19.333 28.137 16.255 22.537 17.58 24.637 15.894 25.199-3.849 1.283-109.039 25.592-109.359 25.272-.185-.185-25.161-41.029-55.502-90.764-30.342-49.735-56.608-92.156-58.371-94.268-1.833-2.197-5.332-4.935-8.177-6.399-4.558-2.345-5.759-2.571-14.421-2.715-5.198-.086-28.65 1.345-52.117 3.181m88.858 122.662c26.343 44.45 47.79 80.939 47.659 81.087-.356.404-57.725 13.811-59.096 13.811-1.14 0-86.629-170.675-85.876-171.447.392-.403 40.792-4.088 46.002-4.197l3.413-.071 47.898 80.817m273.784 10.163c6.348 7.839 11.255 14.505 10.904 14.814-.352.31-6.123 1.918-12.826 3.574l-12.187 3.011-11.784-15.479c-6.482-8.513-11.645-15.647-11.475-15.853.457-.551 19.869-4.099 23.076-4.217 2.563-.095 3.529.862 14.292 14.15M419 312.764c8.91 11.978 16.2 22.078 16.2 22.444 0 .366-25.969 9.223-57.709 19.682-47.63 15.695-57.894 18.818-58.763 17.877-.579-.627-8-12.754-16.491-26.947L286.8 320.013l2.307-.576c1.268-.317 26.69-6.82 56.493-14.452 29.803-7.631 54.865-13.903 55.693-13.937 1.009-.041 6.854 7.128 17.707 21.716" fill-rule="evenodd"/></svg>