<svg xmlns="http://www.w3.org/2000/svg" width="512" height="512"><path d="M334.933 64.901c-39.08 5.282-71.801 34.066-82.13 72.249-2.038 7.534-2.26 9.833-2.292 23.703-.022 9.319.352 16.619.951 18.56l.987 3.2h-4.863c-7.359 0-24.679-2.31-38.519-5.139-43.044-8.795-83.822-27.914-119.037-55.81-9.315-7.38-30.155-27.464-36.27-34.957-2.112-2.587-4.072-4.723-4.356-4.746-1.001-.08-7.534 15.098-9.668 22.462-7.455 25.727-3.405 53.737 11.16 77.17 3.868 6.223 18.055 21.483 25.051 26.944l2.986 2.331-6.4-.446c-8.565-.598-21.323-3.924-29.448-7.678-3.648-1.685-7.007-3.064-7.466-3.064-1.315 0 .144 13.929 2.387 22.802 4.311 17.047 11.94 31.089 23.581 43.399 11.96 12.648 28.366 22.719 44.007 27.014 3.868 1.062 7.036 2.165 7.04 2.451.026 2.13-28.616 3.806-38.662 2.263-3.975-.611-4.089-.57-3.533 1.28.316 1.051 2.04 5.07 3.83 8.932 14.049 30.3 44.493 51.798 78.808 55.651 4.171.468 7.706.973 7.855 1.122.148.149-4.441 3.424-10.2 7.278-23.234 15.551-49.12 25.877-77.772 31.022-9.753 1.752-13.791 1.994-33.426 2.003l-22.333.01 3.766 2.344c31.756 19.765 70.514 33.265 111.3 38.768 16.112 2.174 54.265 2.16 71.253-.026 57.289-7.373 105.718-28.413 146.773-63.767 44.765-38.548 77.061-93 90.438-152.479 3.842-17.082 5.638-32.119 6.163-51.61l.501-18.556 7.769-6.161c10.558-8.372 26.055-24.084 33.714-34.18 3.474-4.581 6.144-8.503 5.932-8.715-.213-.212-2.707.552-5.544 1.698-12.359 4.992-32.187 10.247-45.106 11.956l-4.267.564 5.974-4.044c8.147-5.514 19.521-17.192 25.456-26.134 4.479-6.749 10.81-19.615 10.81-21.969 0-.528-2.795.574-6.212 2.45-12.444 6.829-32.473 14.331-48.307 18.094l-7.16 1.701-3.507-3.356c-12.361-11.829-28.04-20.333-45.32-24.581-9.768-2.4-26.852-3.333-36.694-2.003" fill-rule="evenodd"/></svg>