<svg xmlns="http://www.w3.org/2000/svg" width="512" height="512"><path d="M248.747 32.776c-12.895 3.195-21.688 12.692-24.44 26.398-1.811 9.017 2.012 20.463 9.24 27.668 12.374 12.333 31.582 12.576 44.557.564l4.979-4.609 3.738 2.694c17.162 12.368 34.334 40.289 45.3 73.656 9.885 30.079 14.842 61.092 15.753 98.56.926 38.072-2.89 71.116-12.055 104.405-1.66 6.031-3.019 11.638-3.019 12.46 0 .823.877 2.8 1.95 4.395 3.51 5.221 10.437 5.834 14.949 1.322 5.37-5.37 14.736-50.147 17.302-82.719 1.315-16.696.571-61.236-1.272-76.13-7.827-63.26-27.529-112.814-56.35-141.73-5.188-5.206-11.978-11.085-15.089-13.066-5.397-3.436-5.682-3.786-6.196-7.603-1.152-8.555-7.698-18.184-15.451-22.727-4.31-2.526-12.3-4.772-16.609-4.668-1.661.04-4.941.548-7.287 1.13m13.201 20.544c3.957 2.046 6.327 6.104 6.327 10.832 0 8.989-9.645 15.204-17.378 11.199-8.458-4.38-9.304-16.848-1.469-21.626 3.274-1.996 9.08-2.183 12.52-.405M140.8 123.45c-48.323 4.798-76.954 29.619-79.072 68.55-.58 10.657.921 20.606 4.908 32.539 3.263 9.767 10.304 24.223 13.343 27.395 6.043 6.308 16.448 1.842 16.448-7.06 0-1.472-1.334-5.062-2.965-7.978-20.591-36.821-14.307-70.799 15.765-85.241 14.52-6.974 30.492-9.669 52.48-8.856 7.509.277 17.46 1.093 22.112 1.813 10.905 1.686 13.165 1.645 16.356-.301 5.397-3.291 5.964-10.901 1.117-14.98-2.805-2.36-3.305-2.517-12.279-3.846-15.473-2.293-36.627-3.186-48.213-2.035m214.287 3.465c-3.278 3.278-4.033 6.303-2.548 10.204 2.029 5.331 4.183 6.252 16.706 7.14 23.824 1.689 36.48 6.313 47.687 17.422 9.231 9.15 13.148 18.803 13.148 32.4 0 20.919-10.718 45.571-31.212 71.788-7.282 9.316-8.041 10.598-8.041 13.584 0 7.253 7.883 11.972 14.385 8.61 4.817-2.491 22.582-27.243 30.362-42.303 9.095-17.608 13.193-31.599 13.878-47.392.608-14.015-.915-22.379-6.055-33.248-11.757-24.861-37.104-38.803-73.207-40.269l-12.531-.508-2.572 2.572m-62.083 5.381c-22.702 5.838-43.913 13.77-67.297 25.166-91.659 44.669-159.21 118.374-163.116 177.975l-.548 8.361-4.876 5.014c-9.652 9.926-11.906 24.178-5.757 36.405 2.56 5.09 9.737 12.174 14.725 14.533 16.621 7.864 35.472 1.092 43.37-15.579 2.422-5.114 2.707-6.528 2.698-13.398-.01-6.826-.306-8.296-2.667-13.226-1.461-3.051-4.336-7.231-6.39-9.29-4.226-4.237-12.051-8.302-17.578-9.13l-3.722-.559.521-3.95c2.282-17.322 8.591-33.09 20.7-51.738 37.225-57.329 119.605-112.627 196.461-131.876 5.819-1.458 11.27-3.02 12.113-3.471 5.675-3.037 5.597-13.001-.129-16.384-3.335-1.97-7.358-1.721-18.508 1.147m-46.905 112.948C222.532 256.218 230.074 291.3 256 291.3c17.353 0 29.096-16.786 23.048-32.949-2.01-5.373-7.291-10.89-12.808-13.38-5.575-2.517-14.407-2.397-20.141.273m-132.437 32.663c-3.339 1.646-5.289 5.025-5.289 9.169 0 2.493.945 4.052 5.584 9.216 10.467 11.65 29.369 28.313 46.47 40.963 52.865 39.111 115.382 65.45 171.946 72.445 13.017 1.61 38.345 1.364 48.64-.472 10.834-1.932 21.097-4.897 28.369-8.194l5.697-2.583 4.3 1.938c3.494 1.575 5.823 1.94 12.408 1.948 7.156.009 8.735-.28 13.467-2.466 6.883-3.178 13.785-10.442 16.472-17.335 2.665-6.835 2.665-16.69 0-23.526-2.712-6.956-9.602-14.18-16.472-17.27-10.722-4.822-23.707-3.457-33.166 3.486-9.79 7.187-14.824 21.649-11.634 33.427l1.209 4.467-4.77 1.785c-39.603 14.817-103.796 3.771-168.626-29.018-35.979-18.196-65.189-38.854-92.63-65.51-11.322-10.999-15.162-13.935-18.146-13.878-.556.011-2.279.645-3.829 1.408m-27.5 81.76c5.972 3.089 8.181 10.447 4.98 16.59-4.575 8.777-16.021 9.162-21.173.711-2.084-3.418-2.222-9.318-.294-12.582 3.047-5.159 11.151-7.478 16.487-4.719m352.197.405c1.502.916 3.326 2.816 4.053 4.221 1.733 3.352 1.685 9.868-.095 12.882-1.769 2.994-6.943 5.972-10.378 5.972-9.879 0-16.111-11.243-10.76-19.41 3.378-5.156 11.791-6.95 17.18-3.665m-268.972 16.165c-.939.412-2.635 1.749-3.769 2.969-3.335 3.59-2.749 7.692 3.079 21.54 19.863 47.197 48.605 75.11 81.148 78.808 13.501 1.534 28.063-1.965 41.317-9.926 8.699-5.225 21.998-17.779 29.577-27.919 11.473-15.35 12.755-19.639 7.453-24.941-2.416-2.416-3.526-2.901-6.637-2.901-4.941 0-6.481 1.225-12.055 9.587-17.471 26.215-38.32 39.2-58.426 36.389-11.701-1.636-21.433-6.767-32.02-16.882-12.537-11.978-23.703-29.533-32.656-51.342-2.657-6.473-5.71-12.595-6.784-13.604-2.145-2.015-7.549-2.954-10.227-1.778" fill-rule="evenodd"/></svg>