<svg xmlns="http://www.w3.org/2000/svg" width="512" height="512"><path d="M135.68 33.698c-39.271 6.726-72.849 31.137-90.491 65.789-4.462 8.765-9.403 22.896-11.013 31.5-4.936 26.366-1.114 53.74 10.837 77.623l3.828 7.649-1.417 8.534c-3.519 21.187-3.659 41.233-.444 63.634 9.116 63.521 47.499 119.482 104.487 152.338 35.583 20.515 80.769 30.942 120.718 27.856 7.132-.55 15.606-1.437 18.831-1.969 5.792-.957 5.951-.931 12.969 2.083 18.163 7.803 32.882 10.957 51.428 11.019 26.233.089 49.149-6.816 70.872-21.354 25.767-17.243 45.921-47.508 51.536-77.387 4.341-23.105 1.626-49.349-7.242-69.996l-3.156-7.349 1.913-11.674c2.373-14.479 3.207-39.34 1.785-53.201-4.194-40.884-18.664-76.784-44.313-109.94-12.155-15.712-34.569-35.889-52.621-47.371-26.252-16.695-56.348-27.486-89.6-32.124-10.432-1.455-41.185-1.432-53.161.041l-9.641 1.185-8.279-4.313c-18.5-9.638-36.643-13.905-58.497-13.757-7.111.048-15.809.581-19.329 1.184m139.947 77.287c33.731 3.089 59.348 14.176 77.327 33.468 10.254 11.004 15.687 23.617 15.685 36.42-.001 8.384-2.913 14.828-9.499 21.021-6.73 6.327-12.457 8.286-22.927 7.842-6.061-.257-8.969-.793-11.526-2.125-4.215-2.196-11.024-9.357-14.843-15.611-10.967-17.964-18.642-26.593-27.094-30.463-16.961-7.765-49.942-6.388-65.51 2.735-12.747 7.471-18.027 18.901-13.4 29.008 2.343 5.115 9.45 11.211 17.437 14.953 8.434 3.953 16.439 6.329 37.283 11.067 52.82 12.006 73.358 18.932 92.101 31.057 14.331 9.27 24.993 23.743 29.211 39.654 2.53 9.539 3.126 28.977 1.184 38.571-6.274 30.992-29.333 54.102-66.041 66.186-15.871 5.224-29.535 7.293-51.335 7.773-33.962.748-57.533-3.462-79.843-14.261-25.145-12.17-45.648-36.483-50.335-59.689-3.405-16.858 2.203-29.139 16.258-35.607 4.427-2.038 6.217-2.36 13.227-2.386 7.086-.026 8.697.258 12.8 2.254 8.333 4.056 12.212 8.671 19.227 22.881 9.475 19.194 16.416 27.197 28.824 33.237 3.844 1.871 9.948 3.99 13.566 4.709 7.585 1.508 26.52 1.74 34.626.424 18.693-3.033 34.109-12.467 39.996-24.475 2.062-4.205 2.413-5.944 2.379-11.761-.054-9.032-2.33-14.28-8.727-20.127-9.109-8.325-20.789-12.719-51.906-19.53-54.968-12.031-79.229-21.861-96.467-39.084-14.19-14.178-19.588-28.825-18.894-51.264.318-10.261.672-12.536 2.974-19.098 10.767-30.694 40.035-50.306 84.322-56.501 15.807-2.211 34.509-2.69 49.92-1.278" fill-rule="evenodd"/></svg>