<svg xmlns="http://www.w3.org/2000/svg" width="512" height="512"><path d="m310.936 44.163-16.318 11.682 38.904 51.651c75.605 100.375 81.381 107.971 82.107 107.971.403 0 7.858-5.273 16.566-11.717l15.834-11.716-59.854-79.804c-32.92-43.892-60.095-79.791-60.388-79.776-.294.015-7.877 5.284-16.851 11.709m-71.826 67.326-12.725 15.1 5.208 4.376c2.864 2.407 37.935 31.163 77.936 63.903l72.728 59.526 2.463-2.824c1.355-1.553 7.128-8.375 12.83-15.161 9.821-11.689 10.288-12.413 8.862-13.764-2.024-1.917-152.27-124.835-153.561-125.63-.654-.403-5.542 4.746-13.741 14.474m-49.575 73.044a3241.115 3241.115 0 0 1-8.196 17.966c-3.325 7.241-5.475 12.934-5.037 13.339 1.053.971 181.59 83.689 182.581 83.654 1.276-.046 16.946-34.939 16.075-35.795-.731-.718-181.82-84.497-182.641-84.497-.214 0-1.466 2.4-2.782 5.333M153.3 288.922c-2.262 10.598-3.935 19.447-3.719 19.664.373.372 191.469 39.905 196.019 40.551 2.121.301 2.156.195 6.226-18.815 2.251-10.515 3.787-19.395 3.413-19.733-.531-.48-195.617-40.94-197.386-40.937-.242.001-2.291 8.672-4.553 19.27M64 400.213v80.214H431.787V320H391.68v120.32H104.107V320H64v80.213m80.213-20.053v20.053H348.16v-40.106H144.213v20.053" fill-rule="evenodd"/></svg>