<svg xmlns="http://www.w3.org/2000/svg" width="512" height="512"><path d="M66.712 55.306C59.33 75.405 54.893 95.84 52.454 120.984c-1.314 13.546-1.512 30.788-.447 39.016l.662 5.12-4.633 5.787c-16.525 20.641-27.388 48.448-31.048 79.475-.662 5.618-.837 16.892-.522 33.697.624 33.23 2.402 45.487 9.731 67.068 3.899 11.482 11.172 27.554 15.832 34.986 16.325 26.04 49.324 52.295 79.841 63.522 12.952 4.765 32.614 9.048 52.968 11.54 24.666 3.02 110.935 3.779 147.571 1.298 22.192-1.502 45.101-5.609 62.052-11.124 24.243-7.887 48.409-23.149 67.006-42.318 12.688-13.077 18.214-20.98 25.87-36.998 8.101-16.948 13.65-34.898 16.385-53.006 1.823-12.071 2.645-56.118 1.272-68.211-3.448-30.386-15.478-61.074-31.776-81.06l-3.858-4.731.801-6.363c1.024-8.13.256-32.346-1.45-45.724-2.477-19.419-6.578-37.553-12.046-53.269-4.556-13.093-3.126-12.06-13.365-9.651-30.386 7.152-65.286 23.456-102.379 47.825l-8.278 5.44-8.362-1.676c-15.512-3.109-27.62-3.921-58.281-3.908-30.514.012-40.837.714-57.259 3.894l-9.046 1.752-13.567-8.916c-41.517-27.281-71.65-40.632-104.077-46.114-2.598-.44-2.634-.393-5.339 6.971m122.402 195.537c61.88 6.091 68.082 6.214 109.979 2.179 31.385-3.023 64.596-3.807 74.688-1.764 15.133 3.064 25.025 8.39 35.917 19.34 18.881 18.982 26.438 41.667 23.933 71.839-1.539 18.526-4.255 29.462-10.428 41.99-10.866 22.05-28.659 34.679-60.753 43.118-28.199 7.416-57.366 10.215-106.45 10.215-50.044 0-79.708-2.927-107.717-10.63-40.485-11.133-59.231-30.536-66.918-69.264-1.131-5.695-1.512-11.91-1.537-25.066-.031-15.384.196-18.399 1.876-25.004 3.566-14.012 10.204-25.967 20.179-36.344 19.061-19.828 41.443-25.115 87.231-20.609m-24.537 40.576c-9.766 3.134-19.041 13.374-23.352 25.781-3.011 8.666-3.879 25.378-1.821 35.063 3.066 14.432 12.795 27.816 22.975 31.605 6.498 2.419 14.957 2.453 20.185.081 8.979-4.073 16.91-13.888 21.014-26.008 3.094-9.138 3.825-23.503 1.696-33.342-3.032-14.012-11.611-26.731-21.381-31.696-5.295-2.691-13.572-3.327-19.316-1.484m168.181-.175c-11.878 3.36-22.639 16.874-25.975 32.62-1.61 7.599-1.614 20.47-.01 28.136 1.793 8.568 7.29 19.199 12.752 24.662 6.25 6.249 11.206 8.513 19.511 8.911 6.083.291 7.137.086 12.094-2.354 9.718-4.785 17.508-15.471 21.006-28.818 2.238-8.538 2.426-22.891.411-31.391-3.171-13.377-11.869-25.767-21.242-30.26-4.969-2.382-13.113-3.043-18.547-1.506" fill-rule="evenodd"/></svg>