<svg xmlns="http://www.w3.org/2000/svg" width="512" height="512"><path d="M58.788 33.66c-13.551 3.75-23.811 14.738-26.282 28.15-1.176 6.385-1.292 376.213-.12 384.318 2.031 14.046 12.694 26.818 26.921 32.245 4.144 1.58 9.71 1.634 193.706 1.863 129.679.162 191.29-.048 195.303-.664 14.137-2.169 24.435-11.061 29.699-25.645l1.985-5.5.236-190.294c.164-132.156-.043-192.118-.678-196.266-1.865-12.185-7.849-20.503-18.556-25.795l-6.513-3.219-195.885-.14c-156.475-.113-196.675.078-199.816.947m91.672 74.283c10.148 2.643 16.523 7.656 20.991 16.506 8.963 17.757 2.177 39.973-14.495 47.455-14.367 6.447-30.333 4.078-40.409-5.998-9.973-9.974-12.548-26.918-6.198-40.788 6.357-13.886 23.901-21.398 40.111-17.175m201.113 95.594c7.796 1.998 19.986 8.07 26.006 12.954 14.541 11.797 24.146 31.832 26.839 55.981.568 5.095.915 31.846.915 70.534v62.327h-64l-.029-58.24c-.032-61.875-.229-65.429-4.209-75.943-2.438-6.444-8.843-13.444-14.731-16.101-3.815-1.722-5.856-2.03-13.457-2.033-8.259-.002-9.394.204-14.507 2.64-8.899 4.241-15.219 11.407-19.038 21.587-1.752 4.67-1.802 6.25-2.1 66.437l-.306 61.653H209.067v-199.68h64v13.654c0 7.509.288 13.635.64 13.612.352-.022 2.176-2.185 4.053-4.805 7.19-10.035 18.799-19.053 29.586-22.98 10.727-3.906 32.193-4.682 44.227-1.597M170.667 305.493v99.84h-64v-199.68h64v99.84" fill-rule="evenodd"/></svg>