<svg xmlns="http://www.w3.org/2000/svg" viewBox="0 0 512 512"><path d="M252.919 16.202c-2.945.666-59.323 33.295-62.495 36.17-9.207 8.342-5.256 23.734 6.948 27.071 5.409 1.479 8.784.2 26.024-9.863 8.475-4.946 15.63-8.993 15.9-8.993.27 0 .491 12.206.491 27.126 0 26.448.048 27.219 1.92 30.883 1.056 2.067 3.395 4.933 5.199 6.368 2.933 2.334 3.892 2.609 9.094 2.609s6.161-.275 9.094-2.609c1.804-1.435 4.143-4.301 5.199-6.368 1.872-3.664 1.92-4.435 1.92-30.883 0-14.92.221-27.126.491-27.126s7.425 4.047 15.9 8.993c8.474 4.946 16.989 9.41 18.922 9.919 12.147 3.197 23.427-10.934 17.677-22.146-.893-1.742-2.525-3.983-3.627-4.98-1.621-1.468-52.994-31.895-59.176-35.049-2.595-1.324-6.529-1.789-9.481-1.122M112.213 97.474c-1.408.502-13.696 7.517-27.306 15.589-13.611 8.071-25.95 15.296-27.419 16.056-3.584 1.851-7.333 5.936-8.565 9.332-.708 1.952-1.02 13.025-1.053 37.336-.042 31.856.077 34.827 1.53 37.973 1.906 4.131 4.608 6.731 8.824 8.493 7.437 3.107 16.016-.146 20.15-7.64 1.159-2.101 1.489-6.1 1.839-22.301l.427-19.741 19.2 11.458c25.092 14.973 26.44 15.651 31.146 15.651 5.159 0 8.823-1.632 12.138-5.408 5.172-5.89 5.362-14.451.452-20.287-1.156-1.374-12.481-8.675-25.167-16.224l-23.064-13.726 15.396-9.095c17.476-10.323 18.612-11.192 20.774-15.9 3.831-8.343.452-16.986-8.208-20.996-3.801-1.759-7.259-1.937-11.094-.57m276.48.57c-8.66 4.01-12.039 12.653-8.208 20.996 2.162 4.708 3.298 5.577 20.774 15.9l15.396 9.095-22.941 13.661c-12.617 7.513-23.757 14.561-24.754 15.662-5.588 6.168-5.622 14.607-.084 20.914 3.316 3.777 6.979 5.408 12.144 5.408 4.714 0 5.078-.183 30.287-15.203l20.053-11.949.427 19.762c.456 21.143.729 22.528 5.264 26.763 8.123 7.584 20.82 4.954 25.549-5.293 1.453-3.146 1.572-6.117 1.53-37.973-.033-24.311-.345-35.384-1.053-37.336-1.232-3.396-4.981-7.481-8.565-9.332-1.469-.76-13.808-7.981-27.419-16.048-13.61-8.067-26.052-15.112-27.647-15.656-4.027-1.372-6.776-1.211-10.753.629M193.976 209.872c-7.385 3.353-10.727 12.946-7.248 20.81 2.075 4.691 2.988 5.321 32.381 22.331l20.644 11.947.021 28.16c.014 17.859.367 29.402.964 31.554 1.261 4.54 6.256 9.41 10.949 10.673 8.545 2.302 17.323-2.569 19.635-10.893.523-1.88.891-14.653.904-31.334l.021-28.16 20.644-11.947c29.393-17.01 30.306-17.64 32.381-22.331 4.74-10.716-2.787-22.39-14.474-22.45-4.46-.023-5.839.668-33.013 16.545-11.719 6.847-21.522 12.45-21.785 12.45-.263 0-10.066-5.603-21.785-12.45-11.72-6.847-23.12-13.375-25.333-14.507-4.882-2.494-9.988-2.631-14.906-.398M57.6 290.04c-4.131 1.906-6.731 4.608-8.493 8.824-1.116 2.673-1.32 8.389-1.32 37.01 0 36.847.206 38.77 4.62 43.01 4.173 4.009 58.633 36.345 62.181 36.921 11.862 1.925 22.015-10.82 17.371-21.806-1.867-4.418-4.835-6.731-21.099-16.443-12.286-7.336-15.158-9.393-14.268-10.213.613-.565 10.331-6.511 21.595-13.212 11.264-6.702 21.723-13.353 23.242-14.782 10.902-10.248 3.221-27.945-11.661-26.868-4.384.317-6.548 1.415-26.947 13.669L80.64 339.475l-.427-19.764c-.35-16.223-.679-20.223-1.839-22.324-4.269-7.74-13.133-10.874-20.774-7.347m384.433-.254c-3.632 1.575-6.527 4.193-8.407 7.601-1.16 2.102-1.489 6.106-1.839 22.398l-.427 19.837-7.253-4.373c-33.595-20.258-38.585-22.929-42.84-22.929-5.406 0-9.032 1.582-12.391 5.408-5.538 6.308-5.504 14.727.084 20.923.997 1.105 12.106 8.157 24.685 15.67 12.58 7.513 22.756 13.758 22.614 13.878-.143.121-7.363 4.452-16.046 9.624-8.682 5.173-16.444 10.133-17.247 11.022-3.81 4.218-5.097 11.626-2.908 16.729 2.741 6.388 11.034 10.949 17.628 9.696 3.55-.675 58.157-32.763 61.907-36.377 4.421-4.261 4.622-6.153 4.602-43.205-.018-31.264-.147-34.313-1.595-37.448-3.749-8.124-12.774-11.834-20.567-8.454M249.6 385.613c-4.131 1.906-6.731 4.608-8.493 8.825-1.097 2.626-1.32 7.712-1.32 30.068 0 14.799-.251 26.907-.558 26.907-.306 0-6.738-3.598-14.293-7.996-20.515-11.944-21.727-12.416-27.706-10.807-9.481 2.553-14.734 13.65-10.433 22.037.893 1.742 2.525 3.997 3.627 5.011 3.27 3.012 59.43 35.416 62.632 36.138 1.619.365 4.269.365 5.888 0 3.202-.722 59.362-33.126 62.632-36.138 1.102-1.014 2.734-3.269 3.627-5.011 4.301-8.387-.952-19.484-10.433-22.037-5.979-1.609-7.191-1.137-27.706 10.807-7.555 4.398-13.987 7.996-14.293 7.996-.307 0-.566-12.192-.576-27.093-.017-24.515-.169-27.418-1.595-30.507-3.859-8.363-12.953-11.914-21-8.2" fill-rule="evenodd"/></svg>