<svg xmlns="http://www.w3.org/2000/svg" viewBox="0 0 512 512"><path d="M251.733 38.4v22.187h-40.106V74.24h40.078l.227 21.973.228 21.974h14.507l.227-21.974.228-21.973H307.2V60.587h-40.107V16.213h-15.36V38.4M120.32 95.573V128H59.733v18.773h60.587v65.707h20.48v-65.707h60.587V128H140.8V63.147h-20.48v32.426m250.027 0V128h-59.734V147.627h59.734V212.48h22.186V147.627h60.587V128h-60.587V63.147h-22.186v32.426m-128 110.507v36.267H176.64v25.6h65.688l.223 36.053.222 36.053h26.454l.222-36.053.223-36.053h66.541v-25.6h-66.56v-72.534h-27.306v36.267m193.422-4.978c-.313.313-.569 10.489-.569 22.614v22.044h-40.107v17.92H435.2V308.907H454.827V263.68h40.96v-17.92h-40.96V200.533h-9.245c-5.084 0-9.5.256-9.813.569M56.32 225.707v21.76H16.213v14.506H56.32v43.52h14.507V261.12h40.106V247.467H70.827v-43.52H56.32v21.76m62.943 102.186-.223 32.64-29.653.225-29.654.224v19.605h59.734V445.44h22.186V380.587h59.734v-19.605l-29.654-.224-29.653-.225-.223-32.64-.224-32.64h-22.146l-.224 32.64m250.88 0-.223 32.64-29.653.225-29.654.224v19.605h59.734V445.44h22.186V380.587h60.587v-19.605l-30.08-.224-30.08-.225-.223-32.64-.224-32.64h-22.146l-.224 32.64m-123.53 82.56v23.04h-40.106v16.214h40.106v46.08H266.24v-46.08h40.96v-16.214h-40.96v-46.08H246.613v23.04" fill-rule="evenodd"/></svg>