<svg xmlns="http://www.w3.org/2000/svg" width="512" height="512"><path d="M83.797 33.451c-.563.563-1.024 1.898-1.024 2.967 0 1.466 24.812 25.67 101.232 98.753l101.231 96.811 30.072-28.738c22.013-21.037 29.815-28.988 29.115-29.673-2.266-2.217-255.85-141.144-257.631-141.144-1.084 0-2.431.46-2.995 1.024M49.128 56.808C47.916 58.019 47.787 77.273 47.787 256s.129 197.981 1.341 199.192c.737.738 2.216 1.341 3.286 1.341 1.431 0 29.074-26.45 104.473-99.968 56.389-54.983 102.526-100.236 102.526-100.562 0-.327-46.132-45.581-102.516-100.565C81.194 81.615 53.868 55.467 52.424 55.467c-1.075 0-2.559.603-3.296 1.341m295.063 166.801c-18.233 17.45-33.151 32.03-33.151 32.401 0 1.241 66.302 64.083 67.336 63.822.561-.142 17.128-9.091 36.815-19.885 30.033-16.467 36.564-20.384 40.566-24.329 5.694-5.612 7.973-11.22 7.973-19.618 0-8.42-2.278-14.008-7.996-19.618-4.009-3.934-10.573-7.865-40.183-24.067-19.465-10.651-36.025-19.606-36.8-19.899-1.035-.392-10.229 7.907-34.56 31.193M183.959 376.876c-89.689 85.771-101.256 97.12-101.022 99.119.161 1.386 1.078 2.663 2.372 3.305 1.889.937 2.879.627 9.479-2.967 53.025-28.877 250.7-138.104 250.565-138.453-.099-.257-13.664-13.382-30.144-29.166l-29.964-28.699-101.286 96.861" fill-rule="evenodd"/></svg>