<svg xmlns="http://www.w3.org/2000/svg" width="512" height="512"><path d="M28.587 65.202c-9.19 2.277-18.608 9.487-23.415 17.925C-.322 92.771-.001 82.023.01 256.123.021 426.36-.195 417.827 4.35 427.302c3.133 6.532 10.938 14.038 18.075 17.383l6.162 2.888H483.502l6.479-3.202c10.796-5.335 18.635-15.352 21.068-26.92.679-3.23.951-49.497.951-162.01 0-140.844-.143-158.042-1.35-162.731-3.525-13.688-14.995-24.918-28.345-27.751-6.847-1.452-447.828-1.216-453.718.243m122.982 118.155c12.776 21.294 23.557 39.043 23.956 39.443.4.4 11.418-17.101 24.509-38.93l23.781-39.657h63.758v223.574h-63.146V312.32c0-30.507-.288-55.45-.64-55.43-.352.019-11.249 14.23-24.215 31.578l-23.575 31.543-23.785-31.729-23.785-31.728-.22 55.616-.219 55.617H64V144.193l32.17.223 32.17.224 23.229 38.717m264.004 16.75V256h23.965c13.18 0 23.836.312 23.68.694-.563 1.374-78.801 111.012-79.218 111.011-.459-.002-78.744-109.616-79.218-110.921-.168-.465 9.478-.784 23.68-.784h23.965V144.213h63.146v55.894" fill-rule="evenodd"/></svg>