<svg xmlns="http://www.w3.org/2000/svg" width="512" height="512"><path d="M285.44 32.991c-36.659 2.985-59.567 7.759-80.79 16.835-28.544 12.208-47.029 28.946-58.311 52.801-7.594 16.056-10.545 30.699-11.264 55.88l-.493 17.28H80.213v48.64h54.614v47.786H80.213V320h54.414l.431 25.387c.298 17.566.846 27.76 1.779 33.092 10.16 58.028 51.86 89.735 130.17 98.974 36.341 4.287 86.405 3.081 126.806-3.056 10.673-1.621 37.268-6.679 37.81-7.19.34-.321-10.024-68.933-10.482-69.39-.19-.191-7.377.655-15.97 1.88-35.642 5.08-55.98 6.704-84.318 6.735-24.238.027-37.139-1.259-49.984-4.981-16.016-4.641-26.655-12.708-32.218-24.429-4.863-10.248-5.919-16.573-6.349-38.035L231.921 320h128.153l.439-1.92c.79-3.459 7.274-43.147 7.274-44.524 0-1.21-6.692-1.343-67.84-1.343h-67.84v-47.786h71.629c39.397 0 71.83-.325 72.075-.721.368-.595 8.189-45.9 8.189-47.436 0-.266-34.224-.483-76.054-.483h-76.054l.443-12.16c.688-18.894 4.408-29.322 13.788-38.649 13.86-13.782 34.946-19.168 75.022-19.161 28.646.005 50.35 1.696 83.985 6.547 8.571 1.235 15.796 2.034 16.055 1.775.436-.436 10.602-66.078 10.602-68.459 0-.684-4.035-1.859-11.307-3.291-24.463-4.818-42.812-7.312-66.773-9.076-10.722-.789-59.69-1.02-68.267-.322" fill-rule="evenodd"/></svg>