<svg xmlns="http://www.w3.org/2000/svg" width="512" height="512"><path d="M357.12 49.522c-64.768 9.302-119.392 17.156-121.387 17.454l-3.626.542v181.661l123.946-.216L480 248.747l.217-108.16.216-108.16-2.776.091c-1.528.05-55.769 7.702-120.537 17.004M122.027 83.106 32 96.054V248.747l91.947.217 91.946.217V69.973l-1.92.093c-1.056.05-42.432 5.918-91.946 13.04M31.782 340.23 32 415.072l45.653 6.619c25.11 3.64 66.486 9.641 91.947 13.336l46.293 6.718V265.387H31.564l.218 74.843m200.534 14.534.217 89.376 121.6 17.686c66.88 9.727 122.656 17.699 123.947 17.716l2.347.031V265.387H232.099l.217 89.377" fill-rule="evenodd"/></svg>