<svg xmlns="http://www.w3.org/2000/svg" width="512" height="512"><path d="M234.24 32.979c-42.392 4.602-81.293 20.042-114.85 45.586-8.077 6.149-24.743 21.236-26.618 24.098-1.535 2.343-7.154-7.736 64.032 114.847l11.593 19.963 2.678-8.443c9.42-29.695 32.038-51.543 62.312-60.19l6.826-1.95 110.294-.267c72.55-.175 110.293-.557 110.293-1.117 0-1.117-6.118-13.307-10.472-20.866-30.301-52.605-80.771-90.872-139.478-105.753-18.049-4.576-28.152-5.759-51.437-6.028-11.968-.138-23.296-.084-25.173.12M70.3 130.804c-20.752 31.394-32.995 64.841-37.083 101.303-1.451 12.944-1.23 37.626.455 50.773 11.633 90.767 74.231 163.54 162.369 188.761 8.966 2.565 10.777 2.853 11.694 1.857 1.539-1.67 76.688-132.192 76.31-132.538-.171-.157-3.96.65-8.418 1.792-24.612 6.307-51.275.968-72.166-14.452-6.565-4.845-14.978-13.368-19.566-19.82-2.003-2.816-26.943-45.44-55.422-94.72-28.48-49.28-52.05-89.874-52.379-90.209-.328-.335-2.936 2.929-5.794 7.253m176.238 58.675c-20.568 2.84-40.824 17.15-50.055 35.362-6.167 12.166-8.829 26.459-7.204 38.668 2.484 18.658 11.6 34.732 25.817 45.525 7.843 5.954 13.055 8.592 22.722 11.498 6.394 1.923 9.106 2.26 18.182 2.26 9.113 0 11.786-.335 18.347-2.299 26.343-7.884 44.282-28.721 48.283-56.083 3.181-21.758-6.598-46.191-24.198-60.461-6.433-5.215-18.665-11.337-26.219-13.122-7.278-1.719-18.657-2.317-25.675-1.348m73.418 5.294c25.084 25.63 32.403 63.292 18.53 95.36-1.523 3.52-26.292 47.246-55.042 97.168-28.75 49.922-52.067 90.974-51.814 91.226 1.062 1.062 24.067 1.711 35.996 1.015 72.711-4.241 136.337-41.027 176.322-101.942 7.907-12.045 17.905-32.014 22.644-45.227 15.574-43.418 17.566-91.835 5.556-135.04l-2.194-7.893H314.736l5.22 5.333" fill-rule="evenodd"/></svg>