<svg xmlns="http://www.w3.org/2000/svg" width="512" height="512"><path d="M305.92 48.302c-25.138 3.627-42.248 9.347-59.594 19.923-14.035 8.557-21.074 14.864-59.017 52.881l-36.691 36.763 33.907 33.907 33.907 33.907 36.917-36.737c39.413-39.22 40.413-40.053 52.278-43.516 6.687-1.952 18.786-1.947 25.617.01 14.516 4.16 26.597 15.318 31.798 29.368 2.806 7.582 3.468 19.542 1.536 27.762-3.107 13.222-4.131 14.492-43.945 54.512l-36.307 36.495 33.903 33.902 33.902 33.902 35.046-34.984c19.275-19.241 37.469-37.864 40.429-41.384 16.297-19.375 27.58-43.558 32.216-69.051 2.505-13.767 2.497-35.686-.016-49.631-10.594-58.779-55.387-104.321-114.099-116.007-6.93-1.379-13.237-1.932-24.294-2.127-8.213-.145-16.085-.098-17.493.105m-200.752 155.01-22.393 22.405 33.924 33.916 33.924 33.916 22.604-22.616 22.603-22.615-33.698-33.706c-18.533-18.538-33.894-33.705-34.134-33.705-.24 0-10.514 10.082-22.83 22.405M31.573 319.573v15.787h80.214v-31.573H31.573v15.786m209.275 19.419-22.393 22.405 33.924 33.916 33.924 33.916 22.604-22.616 22.603-22.615-33.698-33.706c-18.533-18.538-33.894-33.705-34.134-33.705-.24 0-10.514 10.082-22.83 22.405m-145.496 54.19-27.946 27.955 11.527 11.503 11.527 11.503L118.614 416l28.153-28.144-11.292-11.315c-6.21-6.223-11.491-11.314-11.735-11.314-.244 0-13.018 12.579-28.388 27.955m80.435 46.285v40.106h32.426V399.36h-32.426v40.107" fill-rule="evenodd"/></svg>