<svg xmlns="http://www.w3.org/2000/svg" width="512" height="512"><path d="M311.893 41.837c-28.299 3.206-55.84 14.932-77.226 32.88-9.152 7.68-75.947 74.84-75.947 76.362 0 1.617 64.918 66.521 66.535 66.521.662 0 17.547-16.25 37.521-36.112 34.307-34.113 36.672-36.282 42.717-39.176 13.975-6.689 28.51-6.734 42.425-.131 14.918 7.079 25.136 22.051 26.421 38.714.695 9.015-.854 16.951-4.999 25.612-3.421 7.146-3.999 7.783-39.206 43.144-19.654 19.74-35.734 36.433-35.734 37.094 0 1.617 64.905 66.535 66.521 66.535 1.517 0 67.802-65.913 75.517-75.093 36.733-43.711 44.441-105.018 19.689-156.589-17.318-36.084-53.33-65.645-92.133-75.628-15.783-4.061-37.518-5.786-52.101-4.133M115.051 193.493c-16.49 16.6-17.643 17.967-18.454 21.873-.655 3.156-.579 5.121.314 8.107 1.039 3.471 4.208 6.962 26.587 29.287 13.975 13.941 26.49 25.749 27.811 26.24 3.533 1.314 9.666 1.088 12.787-.471 1.502-.75 10.315-8.906 19.584-18.125 12.99-12.919 16.853-17.253 16.853-18.907 0-3.144-62.592-65.71-65.737-65.71-1.672 0-6.11 3.98-19.745 17.706M41.813 305.147c-4.519 1.958-7.585 5.371-8.948 9.961-1.789 6.023-.664 10.685 3.719 15.422 4.795 5.18 5.098 5.232 32.335 5.528 28.897.314 32.799-.169 37.784-4.672 3.931-3.552 5.421-7.572 4.883-13.171-.528-5.502-3.788-10.315-8.546-12.618-3.576-1.731-4.928-1.809-30.989-1.777-22.415.028-27.781.263-30.238 1.327m209.783 23.173c-9.219 9.269-17.375 18.082-18.125 19.584-1.559 3.121-1.785 9.254-.471 12.787 1.361 3.659 50.947 52.973 54.416 54.118 3.618 1.194 7.802 1.19 11.44-.011 1.947-.642 8.536-6.64 20.565-18.718 14.154-14.213 17.586-18.101 17.134-19.407-.31-.898-14.817-15.937-32.236-33.42-24.897-24.988-32.129-31.786-33.816-31.786-1.654 0-5.988 3.863-18.907 16.853m-134.263 44.962c-3.431 1.557-41.065 39.512-42.199 42.56-1.15 3.09-1.144 8.346.014 11.409 1.928 5.104 9.299 10.452 14.452 10.486 6.583.043 8.373-1.285 27.96-20.734 12.518-12.43 19.612-20.131 20.795-22.573 3.7-7.644.671-16.706-6.95-20.794-3.491-1.872-10.346-2.045-14.072-.354m66.41 29.084c-1.96 1.174-4.456 3.571-5.547 5.325-1.953 3.141-1.987 3.608-2.24 30.823l-.258 27.634 2.155 4.366c4.77 9.665 16.605 12.148 24.388 5.117 5.868-5.301 6.075-6.628 5.794-37.02-.227-24.531-.392-27.167-1.894-30.193-3.813-7.685-14.746-10.639-22.398-6.052" fill-rule="evenodd"/></svg>