<svg xmlns="http://www.w3.org/2000/svg" width="512" height="512"><path d="M418.605 65.354c-18.888 4.226-35.394 17.056-43.466 33.786-2.11 4.374-4.499 10.449-5.308 13.5-2.031 7.655-2.036 23.294-.009 30.671 6.39 23.264 23.409 40.281 46.654 46.65 7.405 2.029 23.072 2.069 30.671.077 18.502-4.848 35.731-19.283 43.215-36.206 7.779-17.588 7.04-38.565-1.964-55.808-7.988-15.298-23.162-27.419-39.971-31.931-7.445-1.998-22.524-2.372-29.822-.739M40.85 81.925c-4.439 2.346-7.279 6.124-8.347 11.105-1.324 6.173-1.309 319.838.016 326.014 1.158 5.403 5.555 10.629 10.028 11.92 2.143.618 68.895.819 215.294.646l212.187-.25 3.279-2.615c1.804-1.438 4.048-4.126 4.986-5.973 1.675-3.297 1.711-5.283 1.937-107.35.185-83.788.019-103.899-.853-103.519l-8.764 3.811c-20.494 8.915-41.866 10.537-63.573 4.824-9.492-2.497-23.009-8.847-30.368-14.266l-5.195-3.824-53.508 41.621c-29.43 22.891-54.677 42.105-56.106 42.697-3.654 1.513-9.376 1.243-12.87-.607-1.632-.865-38.168-28.967-81.191-62.449l-78.223-60.878 5.415-6.962c2.978-3.83 7.268-9.363 9.534-12.297 2.265-2.933 4.431-5.333 4.811-5.333.381 0 33.536 25.549 73.679 56.776l72.985 56.777 46.292-35.972c25.46-19.785 46.628-36.281 47.039-36.66.414-.381-.985-4.226-3.146-8.644-13.03-26.637-13.246-57.792-.578-83.69l3.234-6.614-152.448.038c-148.581.037-152.528.079-155.546 1.674" fill-rule="evenodd"/></svg>