<svg xmlns="http://www.w3.org/2000/svg" width="512" height="512"><path d="M78.933 80.761c-19.316 4.09-33.768 15.049-41.481 31.452C31.623 124.609 32 114.671 32 256c0 119.776.093 127.912 1.522 133.12 4.601 16.767 15.229 29.888 30.064 37.116 12.148 5.919-1.562 5.525 192.414 5.525 191.796 0 179.851.31 191.354-4.956 14.64-6.702 25.61-19.582 30.649-35.984l1.965-6.394.261-123.307c.163-77.097-.052-125.865-.576-130.133-2.81-22.915-15.634-39.392-37.108-47.678l-6.918-2.669-177.494-.12c-97.621-.067-178.261.042-179.2.241m40.415 65.207c1.578.962 32.97 25.165 69.76 53.786L256 251.791l67.2-52.28c36.96-28.754 68.544-52.985 70.187-53.845 4.201-2.202 10.768-1.606 15.291 1.388 6.67 4.413 8.881 13.628 4.95 20.626-1.503 2.675-17.6 15.64-74.439 59.958-39.887 31.099-74.034 57.351-75.881 58.338-4.079 2.179-10.208 2.348-14 .387-2.713-1.403-143.451-110.466-148.051-114.73-5.649-5.237-6.79-13.26-2.842-19.996 4.043-6.899 14.341-9.688 20.933-5.669" fill-rule="evenodd"/></svg>