<svg xmlns="http://www.w3.org/2000/svg" width="512" height="512"><path d="M40.85 81.925c-4.439 2.346-7.279 6.124-8.347 11.105-1.324 6.173-1.309 319.838.016 326.014 1.158 5.403 5.555 10.629 10.028 11.92 2.143.618 68.895.819 215.294.646l212.187-.25 3.279-2.615c1.804-1.438 4.048-4.126 4.986-5.973 1.687-3.319 1.71-5.277 1.934-164.212.16-113.493-.047-162.175-.702-165.342-1.077-5.199-3.924-8.971-8.558-11.335-3.222-1.644-6.501-1.669-215.146-1.632-207.155.037-211.943.074-214.971 1.674m142.166 113.09L256 251.79l72.984-56.775c40.142-31.226 73.296-56.775 73.677-56.775.38 0 2.546 2.4 4.811 5.333 2.266 2.934 6.556 8.467 9.534 12.297l5.415 6.962-78.223 60.878c-43.023 33.482-79.576 61.593-81.229 62.468-1.687.894-4.745 1.592-6.969 1.592s-5.282-.698-6.969-1.592c-1.653-.875-38.206-28.986-81.229-62.468l-78.223-60.878 5.415-6.962c2.978-3.83 7.268-9.363 9.534-12.297 2.265-2.933 4.431-5.333 4.811-5.333.381 0 33.535 25.549 73.677 56.775" fill-rule="evenodd"/></svg>