<svg xmlns="http://www.w3.org/2000/svg" width="512" height="512"><path d="M419.84 65.238c-13.674 2.932-22.877 7.945-32.926 17.935-6.566 6.527-8.362 8.948-11.728 15.814-8.582 17.498-9.572 33.644-3.145 51.291 11.072 30.402 45.005 47.973 76.386 39.554 27.759-7.447 47.36-33.038 47.36-61.832 0-28.837-19.556-54.38-47.36-61.861-7.143-1.922-21.69-2.38-28.587-.901M78.933 80.767c-19.189 3.996-33.772 15.051-41.481 31.446C31.623 124.609 32 114.671 32 256c0 119.776.093 127.912 1.522 133.12 4.601 16.767 15.229 29.888 30.064 37.116 12.148 5.919-1.562 5.525 192.414 5.525 191.796 0 179.851.31 191.354-4.956 14.647-6.705 25.636-19.611 30.639-35.984l1.954-6.394.274-86.4c.151-47.52.056-86.4-.211-86.4s-2.682 1.102-5.368 2.449c-22.193 11.131-49.685 12.93-73.554 4.811-7.385-2.511-20.077-9.032-25.211-12.952-2.153-1.644-4.421-2.795-5.039-2.558-.618.237-24.589 18.688-53.268 41.002-28.678 22.313-53.371 41.204-54.871 41.98-3.495 1.807-9.9 1.809-13.391.004-2.713-1.403-143.451-110.466-148.051-114.73-5.656-5.244-6.79-13.259-2.831-20.015 4.025-6.868 14.35-9.657 20.922-5.65 1.578.962 32.97 25.166 69.762 53.787l66.893 52.038 46.292-35.972c25.46-19.785 46.609-36.263 46.998-36.619.388-.355-1.244-4.638-3.627-9.518-6.118-12.525-8.651-22.942-9.203-37.844-.64-17.276 2.352-32.112 9.246-45.842 1.348-2.686 2.451-5.086 2.451-5.334 0-.526-266.693-.425-269.227.103" fill-rule="evenodd"/></svg>