<svg xmlns="http://www.w3.org/2000/svg" width="512" height="512"><path d="M249.173 64.535c-1.173.227-3.477.823-5.12 1.324-4.438 1.353-182.302 89.232-187.512 92.646-6.634 4.348-14.884 13.715-18.403 20.896C31.587 192.77 32 184.919 32 296.107c0 79.461.227 100.441 1.132 104.533.623 2.816 2.865 8.725 4.983 13.131 6.509 13.541 18.304 23.575 33.992 28.918l6.826 2.324h354.134l6.826-2.324c15.213-5.181 27.349-15.307 33.58-28.019 6.987-14.253 6.527-5.921 6.527-118.137 0-111.666.414-103.76-6.138-117.132-3.518-7.18-11.768-16.547-18.403-20.897-4.965-3.255-181.143-90.418-186.881-92.459-3.717-1.322-15.606-2.247-19.405-1.51m93.984 73.608c46.452 22.944 84.469 42.017 84.482 42.385.013.367-38.696 19.826-86.021 43.242-75.053 37.136-86.426 42.523-89.031 42.171-2.817-.38-171.555-83.184-171.49-84.153.017-.25 38.705-19.545 85.974-42.877 60.179-29.705 86.794-42.432 88.785-42.453 2.069-.023 25.829 11.323 87.301 41.685" fill-rule="evenodd"/></svg>