<svg xmlns="http://www.w3.org/2000/svg" width="512" height="512"><path d="M75.093 81.545c-11.17 2.407-24.045 10.669-31.315 20.095-4.436 5.751-8.175 13.222-10.21 20.401C32.078 127.3 32 133.929 32 256s.078 128.7 1.568 133.959c3.377 11.911 9.962 21.956 19.326 29.477 6.962 5.592 12.879 8.588 21.138 10.7 6.279 1.606 11.226 1.651 181.968 1.651 171.993 0 175.646-.034 182.105-1.686 19.356-4.95 34.673-20.197 40.327-40.142C479.922 384.7 480 378.071 480 256s-.078-128.7-1.568-133.959c-5.782-20.395-22.378-36.434-41.952-40.544-8.743-1.835-352.861-1.79-361.387.048m358.477 32.48c4.997 2.311 9.88 7.194 12.192 12.192l1.811 3.916v251.734l-1.811 3.916c-2.312 4.998-7.195 9.881-12.192 12.192l-3.917 1.812H82.347l-3.917-1.812c-4.719-2.183-9.464-6.76-12.078-11.651l-1.925-3.604V129.28l1.925-3.604c3.707-6.937 9.708-11.61 16.7-13.004 1.959-.391 80.745-.654 175.081-.585l171.52.126 3.917 1.812m-328.183 31.606c-6.251 3.296-9.204 7.906-9.204 14.369 0 4.854 1.52 8.338 5.074 11.633 4.6 4.264 145.338 113.327 148.051 114.73 3.488 1.804 9.896 1.804 13.384 0 2.713-1.403 143.451-110.466 148.051-114.73 1.332-1.236 3.019-3.389 3.748-4.786 1.702-3.26 1.704-10.426.005-13.694-3.984-7.663-13.879-11.141-21.142-7.431-1.625.83-33.194 25.035-70.154 53.789l-67.2 52.28-67.2-52.28c-36.96-28.754-68.529-52.959-70.154-53.789-3.631-1.855-9.833-1.897-13.259-.091" fill-rule="evenodd"/></svg>