<svg xmlns="http://www.w3.org/2000/svg" width="512" height="512"><path d="M330.24 37.973v21.76h43.079l-18.694 18.709-18.694 18.708-5.862-6.276c-20.885-22.363-52.488-39.71-83.133-45.63-92.161-17.805-177.878 45.599-188.159 139.18-1.157 10.53-.512 31.515 1.268 41.283 5.042 27.654 16.01 52.218 32.388 72.533 6.809 8.447 21.208 22.452 29.163 28.367 15.991 11.889 37.015 21.821 56.324 26.606 5.632 1.395 11.392 2.654 12.8 2.796l2.56.258.23 18.986.229 18.987h-49.526v43.52h49.494v58.027H238.08V437.76H288.427v-43.52H238.08v-37.514l1.92-.385c31.048-6.221 51.837-15.296 73.129-31.922 32.185-25.132 53.58-62.116 59.327-102.556 1.651-11.616 1.65-31.593-.003-43.438-1.507-10.806-5.92-27.51-9.715-36.772l-2.622-6.4 21.755-21.758 21.756-21.758v42.236H448V16.213H330.24v21.76m-97.28 49.455c36.163 5.492 67.512 27.965 83.977 60.199 5.442 10.653 8.425 18.709 10.312 27.841 7.979 38.625-3.497 77.799-30.717 104.852-21.177 21.048-47.034 32.309-76.799 33.446-19.17.733-35.832-2.871-53.794-11.637-33.009-16.107-56.076-46.919-62.248-83.147-1.661-9.751-1.647-27.729.03-38.075 7.686-47.428 46.687-85.934 94.679-93.478 9.39-1.476 24.843-1.477 34.56-.001" fill-rule="evenodd"/></svg>