<svg xmlns="http://www.w3.org/2000/svg" width="512" height="512"><path d="M344.429 17.454c-8.393 3.022-14.203 11.387-14.17 20.403.032 9.098 4.373 16.069 12.354 19.843 3.911 1.848 5.371 2.017 17.486 2.025l13.22.008-18.694 18.709-18.694 18.708-5.862-6.276c-20.885-22.363-52.488-39.71-83.133-45.63-92.161-17.805-177.878 45.599-188.159 139.18-1.157 10.53-.512 31.515 1.268 41.283 5.042 27.654 16.01 52.218 32.388 72.533 6.809 8.447 21.208 22.452 29.163 28.367 15.991 11.889 37.015 21.821 56.324 26.606 5.632 1.395 11.392 2.654 12.8 2.796l2.56.258.23 18.986.229 18.987-16.443.019c-17.903.02-20.137.486-25.976 5.416-9.335 7.88-9.335 24.77 0 32.65 5.838 4.929 8.075 5.396 25.96 5.416l16.427.019v19.045c0 23.452.614 26.263 7.12 32.6 10.919 10.633 27.618 7.797 34.97-5.938 1.738-3.246 1.873-4.813 2.124-24.587l.267-21.12 16.373-.008c15.349-.008 16.639-.133 20.645-1.998 7.913-3.685 12.582-11.016 12.582-19.754 0-8.738-4.669-16.069-12.582-19.754-4.007-1.866-5.294-1.99-20.699-1.998l-16.427-.008v-37.514l1.92-.385c31.048-6.221 51.837-15.296 73.129-31.922 32.185-25.132 53.58-62.116 59.327-102.556 1.651-11.616 1.65-31.593-.003-43.438-1.506-10.801-5.918-27.505-9.713-36.772l-2.621-6.4 21.541-21.557 21.54-21.558.513 12.598c.546 13.433 1.334 16.498 5.519 21.471 5.622 6.682 16.051 9.504 23.96 6.484 4.888-1.867 10.052-6.416 12.523-11.033 1.838-3.434 1.858-3.932 1.858-46.565 0-40.908-.083-43.262-1.652-46.424-2.108-4.247-6.13-8.269-10.377-10.376-3.142-1.56-5.718-1.664-45.571-1.841-34.337-.153-42.858.035-45.544 1.002M232.96 87.428c36.163 5.492 67.512 27.965 83.977 60.199 5.442 10.653 8.425 18.709 10.312 27.841 7.979 38.625-3.497 77.799-30.717 104.852-21.177 21.048-47.034 32.309-76.799 33.446-19.17.733-35.832-2.871-53.794-11.637-33.009-16.107-56.076-46.919-62.248-83.147-1.661-9.751-1.647-27.729.03-38.075 7.686-47.428 46.687-85.934 94.679-93.478 9.39-1.476 24.843-1.477 34.56-.001" fill-rule="evenodd"/></svg>