<svg xmlns="http://www.w3.org/2000/svg" width="512" height="512"><path d="M347.066 48.702c-4.967 1.195-7.794 2.95-11.458 7.112-9.48 10.77-6.153 26.949 7.005 34.072 3.166 1.713 4.947 1.878 24.541 2.274l21.127.427-29.874 29.862c-22.944 22.935-30.146 29.665-31.049 29.013-15.203-10.985-34.992-21.388-50.222-26.402-35.498-11.685-74.243-11.68-109.789.017-19.323 6.358-38.447 16.657-54.052 29.108-31.44 25.086-53.701 61.566-61.607 100.962-6.206 30.923-4.469 59.556 5.436 89.6 6.056 18.367 15.473 36.22 27.232 51.626 5.5 7.207 20.693 22.69 28.284 28.824 39.472 31.896 92.138 45.11 141.653 35.541 23.213-4.486 43.787-12.764 63.003-25.348 62.596-40.992 91.906-117.664 72.68-190.126-4.944-18.634-12.785-35.939-23.684-52.271l-6.456-9.673 29.789-29.801 29.788-29.8.427 21.127c.396 19.594.561 21.375 2.274 24.541 5.462 10.089 16.182 14.574 27.067 11.324 5.371-1.604 11.982-8.495 13.672-14.253 1.956-6.664 2.047-96.432.105-102.943-1.636-5.482-5.152-9.634-10.815-12.77l-4.57-2.532-48.64-.144c-26.865-.08-50.085.204-51.867.633M241.493 161.678c39.773 6.089 73.692 29.519 93.724 64.739 11.057 19.44 16.356 40.215 16.356 64.12 0 65.494-48.156 119.818-113.92 128.512-10.45 1.381-30.914.531-41.522-1.726-46.132-9.813-82.43-41.985-97.179-86.134-5.092-15.243-6.328-23.499-6.273-41.909.039-12.934.39-17.406 1.945-24.747 8.633-40.755 34.646-74.199 71.349-91.728 11.407-5.448 27.364-10.139 40.107-11.791 6.679-.865 28.039-.465 35.413.664" fill-rule="evenodd"/></svg>