<svg xmlns="http://www.w3.org/2000/svg" width="512" height="512"><path d="M243.627 1.345c-19.713 4.353-36.421 20.497-41.901 40.483-2.391 8.724-2.014 22.419.862 31.315C210.01 96.094 231.7 111.787 256 111.787c24.299 0 45.979-15.685 53.415-38.644 2.856-8.818 3.223-22.501.838-31.315-4.988-18.443-19.572-33.667-37.613-39.265-7.932-2.461-20.916-3.006-29.013-1.218m24.047 33.885c4.501 2.855 7.56 6.071 9.916 10.423 1.45 2.681 1.85 4.88 1.862 10.24.013 6.073-.278 7.345-2.633 11.52-1.456 2.582-4.265 5.938-6.243 7.46-14.967 11.511-36.542 2.04-38.232-16.785-.795-8.853 3.214-17.199 10.486-21.829 5.518-3.515 6.66-3.793 14.45-3.526 5.676.195 7.428.616 10.394 2.497m-70.756 93.629c-18.263 3.175-35.51 15.53-45.257 32.421-1.219 2.112-3.297 6.912-4.619 10.667l-2.402 6.826V290.56l2.753 5.813c7.211 15.225 22.367 24.401 38.769 23.474l5.838-.329v78.995c0 68.414.176 79.676 1.316 84.081 3.366 13.005 15.05 24.686 28.09 28.082a40.85 40.85 0 0 0 29.853-3.624l4.741-2.568 4.741 2.568a40.85 40.85 0 0 0 29.853 3.624c13.04-3.396 24.724-15.077 28.09-28.082 1.14-4.405 1.316-15.667 1.316-84.081v-78.995l5.838.329c16.402.927 31.558-8.249 38.769-23.474l2.753-5.813V178.773l-2.402-6.826c-7.035-19.991-22.138-34.625-42.825-41.496l-5.973-1.984-57.6-.155c-31.68-.085-59.419.161-61.642.547m120.524 34.197c5.677 2.663 12.133 8.916 14.954 14.482 3.549 7.004 3.895 12.788 3.635 60.737l-.244 44.994-2.206 2.205c-3.431 3.43-10.494 2.738-12.469-1.221-.377-.755-.877-23.13-1.112-49.721l-.427-48.349-2.65-3.278c-3.876-4.794-7.371-6.549-13.037-6.549-6.109 0-11.163 2.962-13.948 8.177L288 188.16l-.427 143.787c-.235 79.245-.76 144.303-1.169 144.937-2.397 3.717-9.787 3.667-12.675-.085-1.373-1.783-1.48-6.923-1.515-72.746-.036-67.012-.123-71.01-1.614-74.24-1.906-4.131-4.608-6.73-8.824-8.492-7.849-3.28-16.633.382-20.376 8.492-1.491 3.23-1.578 7.228-1.614 74.24-.035 65.823-.142 70.963-1.515 72.746-2.888 3.752-10.278 3.802-12.675.085-.409-.634-.934-65.692-1.169-144.937L224 188.16l-2.124-3.71c-2.928-5.115-8.321-8.197-14.195-8.112-5.278.076-8.868 1.946-12.604 6.567l-2.65 3.278-.427 48.349c-.235 26.591-.735 48.966-1.112 49.721-1.975 3.959-9.038 4.651-12.469 1.221l-2.206-2.205-.244-44.994c-.156-28.658.084-47.112.659-50.826 1.811-11.696 8.714-20.546 19.505-25.006l4.827-1.995 55.893.203 55.894.202 4.695 2.203" fill-rule="evenodd"/></svg>