<svg xmlns="http://www.w3.org/2000/svg" width="512" height="512"><path d="M245.87.961c-10.089 1.676-21.484 7.783-29.46 15.788-10.475 10.513-16.009 23.635-16.152 38.291-.103 10.559 1.082 15.695 5.98 25.931 6.263 13.085 17.253 22.738 31.983 28.091 5.62 2.043 7.435 2.275 17.779 2.275 10.344 0 12.159-.232 17.779-2.275 9.006-3.273 15.021-7.102 22.01-14.011 4.943-4.887 6.885-7.63 9.973-14.08 4.898-10.236 6.083-15.372 5.98-25.931-.333-34.251-31.45-59.798-65.872-54.079m-45.763 127.553c-.939.196-3.754.771-6.255 1.277-21.462 4.348-40.318 22.031-47.226 44.289l-1.986 6.4V306.053l2.583 4.178c6.761 10.937 21.892 12.921 30.446 3.993 6.603-6.893 6.175-2.796 6.651-63.632l.427-54.474 2.394-2.059c3.06-2.632 6.658-2.631 9.718 0l2.394 2.06.427 149.194c.476 166.421-.124 151.673 6.472 158.975 10.581 11.711 28.734 9.698 36.836-4.084l2.345-3.991.427-76.373c.328-58.679.673-76.803 1.488-78.227 2.889-5.047 9.041-6.838 13.81-4.02 5.004 2.956 4.719-1.552 5.182 81.82l.427 76.8 2.345 3.991c7.972 13.561 26.041 15.77 36.467 4.46 7.026-7.623 6.363 7.832 6.841-159.351l.427-149.194 2.394-2.06c3.311-2.848 6.918-2.692 10.045.435l2.494 2.495v51.964c0 59.707-.128 58.465 6.703 65.09 6.381 6.189 14.113 7.572 21.944 3.925 5.103-2.376 9.196-6.998 10.562-11.925.708-2.554.908-20.606.719-64.976l-.261-61.44-1.986-5.974c-6.117-18.402-19.241-33.028-36.023-40.144-12.286-5.21-9.085-4.976-70.778-5.171-31.211-.099-57.515-.02-58.453.176" fill-rule="evenodd"/></svg>