<svg xmlns="http://www.w3.org/2000/svg" width="512" height="512"><path d="M176.065 32.838c-3.367.611-8.167 2.062-10.667 3.226-6.541 3.044-119.897 79.244-124.227 83.507-4.476 4.409-7.662 10.752-8.757 17.433-1.183 7.227-1.119 297.679.067 304.994 1.747 10.766 8.724 20.023 18.57 24.638 4.179 1.96 5.953 2.271 12.949 2.27 6.445 0 8.894-.368 11.947-1.792 2.112-.985 26.107-16.321 53.323-34.079 46.123-30.096 49.778-32.313 53.834-32.649 3.001-.249 5.212.085 7.13 1.076 1.528.791 27.706 17.703 58.173 37.583 32.529 21.225 57.399 36.894 60.251 37.962 2.671.999 7.971 2.198 11.778 2.663 8.005.979 16.257-.335 23.808-3.792 6.945-3.18 121.58-78.798 126.194-83.243 4.977-4.795 7.931-10.645 9.098-18.022 1.227-7.75 1.21-297.045-.017-304.611-1.748-10.771-8.734-20.037-18.57-24.63-4.192-1.957-5.932-2.257-12.949-2.233-5.78.02-9.07.452-11.465 1.507-1.847.813-25.847 16.157-53.333 34.097l-49.975 32.617h-11.11l-57.632-36.878c-31.698-20.283-59.49-37.7-61.761-38.705-3.942-1.743-15.218-4.197-18.831-4.097-.938.026-4.461.547-7.828 1.158m78.655 73.395c27.691 17.729 51.979 32.937 53.973 33.797l3.627 1.563V291.81c0 82.619-.176 150.217-.391 150.217-.215 0-23.666-15.186-52.113-33.747-28.446-18.561-53.423-34.573-55.502-35.583l-3.781-1.837V71.484l1.92 1.257c1.056.691 24.576 15.762 52.267 33.492m-86.613 115.464V370.86l-4.054 1.968c-2.229 1.082-25.479 15.942-51.666 33.023-26.187 17.081-47.787 31.056-48 31.056-.213 0-.387-66.412-.387-147.581v-147.58l51.413-34.56c28.278-19.008 51.702-34.58 52.054-34.606.352-.026.64 67.077.64 149.117m279.893.938v147.541l-50.987 33.513c-28.042 18.432-51.466 33.878-52.053 34.323-.852.648-1.067-29.098-1.067-148.049V141.104l4.054-1.87c2.229-1.029 25.365-15.845 51.413-32.925s47.648-31.091 48-31.135c.352-.044.64 66.313.64 147.461" fill-rule="evenodd"/></svg>