<svg xmlns="http://www.w3.org/2000/svg" width="512" height="512"><path d="M153.092 41.673c-15.925 10.346-109.607 74.953-111.969 77.218-3.86 3.704-7.727 11.892-8.75 18.529-.546 3.548-.764 59.196-.611 156.127L32 444.16l1.948 4.817c2.596 6.421 6.144 11.166 11.064 14.796 4.812 3.552 13.292 6.414 19.002 6.414 8.76 0 12.177-1.864 56.31-30.715 49.156-32.134 45.71-29.762 46.871-32.259 1.199-2.577 1.292-360.875.095-364.023-.863-2.271-4.83-4.79-7.542-4.79-.889 0-3.884 1.473-6.656 3.273m49.409-1.214-2.394 2.06-.22 181.011c-.191 157.697-.058 181.324 1.033 183.432 1.755 3.394 99.422 66.922 102.885 66.922 3.101 0 6.662-2.348 7.7-5.078 1.197-3.149 1.1-359.361-.099-362.801-.777-2.228-8.414-7.518-50.692-35.114-54.212-35.385-53.118-34.814-58.213-30.432m239.952 1.868c-6.091 1.484-13.775 6.062-51.2 30.501-48.605 31.741-45.284 29.456-46.448 31.959-.638 1.371-.912 56.088-.912 182.016 0 197.513-.377 183.667 5.064 185.92 1.421.589 3.512.837 4.647.552 2.462-.618 113.203-76.355 117.273-80.204 3.731-3.53 7.663-11.676 8.702-18.031 1.091-6.67 1.117-297.418.028-304.955-1.613-11.151-7.694-19.655-17.536-24.519-5.028-2.485-7.499-3.176-12.114-3.388-3.188-.147-6.565-.08-7.504.149" fill-rule="evenodd"/></svg>