<svg xmlns="http://www.w3.org/2000/svg" width="512" height="512"><path d="M87.136 33.775c-7.515 2.021-14.621 6.303-21.116 12.722-6.048 5.979-6.198 6.24-24.047 41.93-9.878 19.752-18.638 38.177-19.467 40.943-2.064 6.889-1.963 19.608.206 25.937L24.32 160l139.256.216 139.256.216 2.108-1.923c1.767-1.612 69.202-108.008 75.425-119.003 1.63-2.881 1.846-3.931 1.096-5.333l-.934-1.746-144.397.056c-123.28.048-145.069.237-148.994 1.292m307.152 43.692a1567131.86 1567131.86 0 0 0-59.799 95.333 83356.393 83356.393 0 0 1-34.335 54.716l-2.222 3.516-7.099-2.066c-20.927-6.091-48.734-6.092-69.653-.004l-7.087 2.062-3.068-4.792c-1.687-2.635-6.889-10.936-11.56-18.445-4.671-7.51-9.102-14.134-9.848-14.72-1.06-.834-16.499-1.067-70.608-1.067-66.006 0-69.317.073-70.663 1.561-.777.858-1.413 1.958-1.413 2.444 0 .487 18.829 30.196 41.841 66.02 23.013 35.824 41.672 65.575 41.465 66.113-1.373 3.58-2.418 19.156-1.967 29.324 2.086 47.023 28.505 87.67 70.981 109.215 8.905 4.516 25.117 9.78 35.84 11.638 11.359 1.967 30.455 1.967 41.814 0 53.382-9.246 94.339-49.51 105.084-103.306 1.81-9.062 2.126-35.408.519-43.242l-.999-4.872 51.748-80.461c28.462-44.253 52.809-82.968 54.105-86.033 4.357-10.303 4.982-20.551 1.917-31.458-.712-2.531-9.376-20.764-19.254-40.516-17.796-35.583-18.017-35.97-24.047-41.978-4.391-4.375-7.87-6.922-12.487-9.139-12.025-5.777-7.45-10.462-39.205 40.157M270.08 289.716c7.677 1.618 19.924 7.609 26.433 12.93 25.43 20.789 30.735 57.607 12.277 85.204-12.921 19.32-36.939 30.488-59.527 27.681-31.961-3.971-54.966-28.267-56.925-60.118-1.287-20.923 8.46-42.089 25.013-54.317 6.268-4.631 17.466-9.884 24.164-11.336 7.323-1.587 21.145-1.609 28.565-.044m-22.585 31.65c-11.885 3.194-20.673 12.944-22.997 25.517-2.525 13.659 5.386 28.217 18.702 34.417 3.999 1.862 5.892 2.185 12.8 2.185s8.801-.323 12.8-2.185c13.316-6.2 21.227-20.758 18.702-34.417-2.36-12.765-11.149-22.377-23.37-25.56-6.193-1.614-10.515-1.602-16.637.043" fill-rule="evenodd"/></svg>