<svg xmlns="http://www.w3.org/2000/svg" width="512" height="512"><path d="M87.136 33.775c-7.514 2.021-14.621 6.302-21.092 12.706-6.012 5.949-6.213 6.299-24.034 41.885-9.885 19.737-18.663 38.169-19.508 40.96-2.999 9.905-1.611 24.43 3.243 33.946.933 1.827 24.193 38.319 51.69 81.092 27.497 42.773 50.656 78.921 51.464 80.329 1.335 2.326 1.367 3.262.342 10.24-4.025 27.396 2.32 58.209 17.03 82.709 21.442 35.715 59.033 58.836 100.53 61.835 29.579 2.138 59.386-6.245 83.668-23.531 8.018-5.708 21.457-18.719 27.406-26.534 20.143-26.461 29.501-61.885 24.91-94.288l-1.183-8.344 51.689-80.403c28.428-44.222 52.755-82.911 54.059-85.976 4.376-10.286 5.001-20.535 1.918-31.502-.718-2.556-9.393-20.796-19.278-40.533-17.745-35.434-18.048-35.962-24.034-41.954-6.543-6.548-13.383-10.575-21.596-12.715-7.247-1.887-330.193-1.812-337.224.078m295.598 62.012-19.961 31.786-152.377.216-152.377.216 14.425-28.803C86.973 70.189 89.121 66.83 94.293 65.027c1.742-.607 51.438-.914 155.481-.96L402.695 64l-19.961 31.787m62.12 14.08c14.82 29.839 15.506 31.758 13.359 37.403-.483 1.273-21.078 33.761-45.766 72.197l-44.886 69.884-3.087-5.102c-7.347-12.143-20.075-25.915-32.129-34.767l-5.449-4 1.885-3.138C336.264 229.89 429.747 81.11 430.102 81.091c.246-.013 6.885 12.936 14.752 28.776m-287.423 91.306a72722.167 72722.167 0 0 0 26.616 42.507c1.029 1.627.699 2.064-4.363 5.782-12.086 8.873-24.804 22.633-32.161 34.793l-3.091 5.108-41.069-63.93c-22.588-35.162-41.07-64.172-41.07-64.468 0-.296 15.668-.538 34.818-.538h34.817l25.503 40.746m180.368-33.706a65179.74 65179.74 0 0 1-37.921 60.475l-1.946 3.09-7.081-2.051c-21.012-6.086-48.685-6.088-69.69-.004l-7.068 2.047-2.785-4.365c-2.355-3.693-21.037-33.496-37.104-59.192l-4.402-7.04h172.396l-4.399 7.04m-62.542 90.704c32.961 6.799 60.285 30.628 71.181 62.075 6.9 19.913 6.9 43.595 0 63.508-11.379 32.841-40.725 57.353-75.398 62.976-51.065 8.282-100.435-26.773-109.3-77.608-1.68-9.633-1.68-24.611 0-34.244 6.659-38.186 37.1-69.261 75.1-76.665 3.733-.727 8.131-1.488 9.773-1.69 5.587-.689 21.852.246 28.644 1.648m-34.335 31.582c-14.905 3.269-30.352 14.368-39.159 28.134-12.958 20.257-12.958 47.969 0 68.226 8.881 13.883 23.899 24.623 39.534 28.274 7.449 1.738 21.957 1.738 29.406 0 15.635-3.651 30.653-14.391 39.534-28.274 12.958-20.257 12.958-47.969 0-68.226-9.008-14.081-24.34-24.943-39.799-28.195-7.349-1.546-22.333-1.515-29.516.061m22.417 31.374c22.271 4.669 31.847 32.558 17.437 50.787-3.729 4.718-9.867 9.074-14.912 10.585-4.456 1.334-15.272 1.334-19.728 0-5.045-1.511-11.183-5.867-14.912-10.585-11.701-14.802-8.08-36.662 7.755-46.823 4.365-2.801 11.297-4.891 16.594-5.002 1.408-.029 4.903.438 7.766 1.038" fill-rule="evenodd"/></svg>