<svg xmlns="http://www.w3.org/2000/svg" width="512" height="512"><path d="M208.213 110.08c0 34.261-.233 62.293-.517 62.293-.285 0-24.436-13.824-53.669-30.72-29.234-16.896-53.481-30.703-53.883-30.683-.402.02-11.375 18.548-24.385 41.173-19.254 33.484-23.433 41.305-22.458 42.042.658.498 24.826 14.514 53.706 31.147 28.881 16.633 52.517 30.433 52.525 30.668.008.235-23.641 14.059-52.555 30.72-28.913 16.661-53.088 30.677-53.721 31.147-1.59 1.177 45.47 83.346 47.476 82.894.725-.163 25.002-13.985 53.949-30.715 28.946-16.731 52.833-30.419 53.081-30.419.248 0 .451 28.032.451 62.293v62.293h95.574V401.92c0-34.261.203-62.293.451-62.293s24.135 13.688 53.081 30.419c28.947 16.73 53.224 30.552 53.949 30.715 2.006.452 49.066-81.717 47.476-82.894-.633-.47-24.808-14.486-53.721-31.147-28.914-16.661-52.563-30.485-52.555-30.72.008-.235 23.644-14.035 52.525-30.668 28.88-16.633 53.048-30.649 53.706-31.147.975-.737-3.204-8.558-22.458-42.042-13.01-22.625-23.983-41.153-24.385-41.173-.402-.02-24.649 13.787-53.883 30.683-29.233 16.896-53.384 30.72-53.669 30.72-.284 0-.517-28.032-.517-62.293V47.787h-95.574v62.293" fill-rule="evenodd"/></svg>