<svg xmlns="http://www.w3.org/2000/svg" width="512" height="512"><path d="M233.852 48.681c-9.428 1.942-18.578 9.076-22.889 17.846l-2.323 4.726-.241 47.75c-.215 42.634-.389 47.914-1.626 49.28-.761.842-1.922 1.53-2.578 1.53-.657 0-18.934-10.256-40.615-22.792-23.225-13.429-41.173-23.268-43.687-23.948-10.039-2.719-22.726.82-30.183 8.418-4.549 4.635-22.675 35.999-24.568 42.512-3.092 10.634.669 23.528 9.028 30.955 2.28 2.025 21.456 13.663 42.626 25.869 21.742 12.535 38.698 22.836 38.98 23.68.274.821.279 2.165.011 2.986-.278.848-17.685 11.453-40.271 24.534-43.476 25.179-45.284 26.508-49.088 36.094-2.852 7.186-2.747 17.659.241 24.101 2.733 5.891 17.163 30.836 20.359 35.195 6.038 8.233 16.629 13.073 26.892 12.289 3.285-.25 7.509-1.104 9.387-1.896 1.877-.792 20.584-11.381 41.572-23.532 20.987-12.15 38.72-22.091 39.406-22.091.685 0 1.85.603 2.587 1.341 1.187 1.186 1.341 6.703 1.341 47.808 0 43.955.091 46.724 1.672 51.223 3.013 8.573 9.474 15.315 18.201 18.993 5.268 2.221 5.439 2.235 27.914 2.235s22.646-.014 27.914-2.235c8.727-3.678 15.188-10.42 18.201-18.993 1.581-4.499 1.672-7.268 1.672-51.223 0-41.105.154-46.622 1.341-47.808.737-.738 1.929-1.341 2.648-1.341.719 0 18.843 10.139 40.276 22.532 25.322 14.642 40.739 23.047 44.022 24.002 10.373 3.015 22.214-.292 30.11-8.409 5.127-5.269 22.611-35.265 24.672-42.328 3.096-10.603-.666-23.508-9.019-30.942-2.276-2.025-20.766-13.282-41.09-25.015-20.323-11.734-37.899-22.132-39.058-23.107-4.524-3.808-4.026-4.182 37.455-28.093 21.168-12.203 40.365-23.844 42.659-25.869 8.392-7.408 12.131-20.374 8.991-31.175-1.305-4.492-17.315-33.504-21.98-39.833-4.719-6.401-16.014-11.923-24.388-11.923-8.271 0-12.15 1.862-52.125 25.027-21.602 12.517-39.82 22.759-40.483 22.759-.664 0-1.842-.702-2.619-1.56-1.278-1.412-1.412-5.972-1.412-47.808 0-43.738-.091-46.506-1.672-51.004-3.025-8.606-10.034-15.746-18.976-19.331-4.116-1.65-6.381-1.833-25.006-2.014-11.264-.109-22.19.154-24.281.585" fill-rule="evenodd"/></svg>