<svg xmlns="http://www.w3.org/2000/svg" width="512" height="512"><path d="M407.793 33.605c-5.645 2.017-8.945 4.688-16.179 13.099-14.98 17.414-37.5 39.241-55.401 53.696-22.265 17.98-45.019 31.277-64.879 37.918-17.743 5.932-16.841 5.884-111.334 5.895-55.623.007-85.646.313-87.893.896-8.006 2.079-16.8 9.039-20.474 16.205-2.247 4.382-3.846 11.915-3.846 18.118 0 3.735-.41 4.654-3.796 8.525-7.904 9.035-11.79 20.916-11.79 36.043 0 15.127 3.886 27.008 11.79 36.043 3.513 4.016 3.796 4.691 3.796 9.066 0 13.207 5.461 23.728 15.664 30.175 6.588 4.162 9.297 4.484 37.882 4.493l26.667.01v78.048c0 75.917.047 78.172 1.704 82.602 1.882 5.031 7.043 10.82 11.554 12.961 5.752 2.729 12.17 3.17 41.276 2.833 32.073-.372 33.78-.64 41.509-6.515 7.594-5.773 13.184-16.527 13.184-25.362 0-5.258-2.677-13.699-10.936-34.487-10.973-27.622-15.003-41.298-16.87-57.256l-.559-4.776 4.467-.529c9.402-1.113 18.567-8.005 23.232-17.471 2.706-5.491 2.808-6.083 3.075-17.826l.275-12.146 5.698.474c21.365 1.779 43.528 10.589 68.418 27.196 21.645 14.444 47.259 36.813 66.665 58.221 18.313 20.203 21.099 22.796 26.378 24.549 12.367 4.108 27.065-.527 35.072-11.06 6.063-7.975 5.858-5.279 5.858-76.941v-64.329h2.019c3.611 0 14.161-5.977 18.881-10.697 14.703-14.703 14.753-39.811.109-54.438-4.824-4.818-12.789-9.476-17.789-10.404l-3.179-.59-.234-65.489-.234-65.489-2.986-5.843c-5.391-10.545-15.518-16.632-27.552-16.559-3.385.021-7.544.534-9.242 1.141m7.78 190.6v155.938l-7.808-8.525c-42.713-46.634-88.095-79.64-127.277-92.566l-8.275-2.73V171.686l5.987-1.818c20.346-6.18 46.554-20.475 69.533-37.928 19.13-14.529 47.507-40.74 61.44-56.752 3.286-3.776 6.07-6.877 6.187-6.893.117-.016.213 70.144.213 155.91m-320-.205v48.213h-15.36v-96.426h15.36V224m144.214 0v48.213H128v-96.426h111.787V224m-31.755 88.107.245 7.893-9.632.019c-10.949.021-14.944 1.267-18.818 5.871-3.983 4.734-4.471 8.043-3.332 22.568 2.189 27.919 6.212 42.974 22.156 82.902 2.812 7.04 5.371 13.664 5.688 14.72l.576 1.92h-44.488V303.76l23.68.227 23.68.226.245 7.894" fill-rule="evenodd"/></svg>