<svg xmlns="http://www.w3.org/2000/svg" width="512" height="512"><path d="m335.848 88.103-63.635 55.676v160.447l62.332 54.607c34.283 30.034 63.371 55.277 64.64 56.096 2.038 1.315 4.805 1.489 23.665 1.493 17.954.004 21.659-.207 23.253-1.324L448 413.77v-75.499c0-59.666.224-75.562 1.067-75.804 19.246-5.518 30.762-19.918 30.762-38.467 0-15.221-7.908-28.015-21.636-35.002-2.138-1.088-5.306-2.244-7.04-2.57l-3.153-.591v-75.681c0-57.726-.243-75.924-1.024-76.705-.746-.747-7.325-1.024-24.259-1.024h-23.235l-63.634 55.676m-286.72 57.451c-1.137 1.136-1.341 4.152-1.341 19.745v18.403l-3.365 3.651c-7.667 8.317-12.18 21.829-12.23 36.614-.049 14.564 4.301 27.703 12.063 36.431l3.532 3.971v18.058c0 10.816.354 18.72.883 19.709.84 1.57 2.022 1.651 24.32 1.651h23.437V144.213H73.448c-19.753 0-23.168.189-24.32 1.341M128 310.992V477.77l1.897 1.328c1.664 1.166 8.041 1.329 52.08 1.329 41.344 0 50.694-.213 53.075-1.208 3.25-1.358 4.735-3.547 4.735-6.981 0-1.281-6.912-28.582-15.36-60.669-8.448-32.088-15.36-58.522-15.36-58.742 0-.22 5.196-.4 11.547-.4 12.349 0 16.545-.952 18.251-4.139.645-1.206.922-32.055.922-102.899V144.213H128v166.779" fill-rule="evenodd"/></svg>