<svg xmlns="http://www.w3.org/2000/svg" width="512" height="512"><path d="M82.203 128.819c-12.998 3.095-21.197 17.886-16.971 30.611 2.071 6.235 7.885 12.401 13.769 14.602 4.675 1.749 5.214 1.755 176.999 1.755s172.324-.006 176.999-1.755c5.884-2.201 11.698-8.367 13.769-14.602 3.02-9.092-.413-20.188-8.066-26.075-7.455-5.734 5.392-5.364-183.07-5.268-93.899.048-171.942.377-173.429.732M81.92 232.9c-7.083 2.177-12.112 6.35-15.497 12.86-1.575 3.03-1.996 5.191-1.994 10.24.002 7.771 2.323 13.029 7.93 17.964 7.299 6.425-8.04 5.929 183.641 5.929 191.681 0 176.342.496 183.641-5.929 5.607-4.935 7.928-10.193 7.93-17.964.003-9.764-4.115-16.586-12.798-21.2l-4.266-2.267-173.227-.144c-95.275-.079-174.187.151-175.36.511m-2.537 104.795c-5.486 1.936-12.163 8.89-14.08 14.664-2.047 6.161-1.402 13.02 1.771 18.851 2.62 4.813 5.524 7.604 10.907 10.484l3.512 1.879h349.014l3.512-1.879c5.383-2.88 8.287-5.671 10.907-10.484 5.189-9.535 3.637-20.038-4.104-27.779-7.929-7.929 10.273-7.227-185.187-7.15-154.802.06-172.825.205-176.252 1.414" fill-rule="evenodd"/></svg>