<svg xmlns="http://www.w3.org/2000/svg" width="512" height="512"><path d="M72.677 146.044c-5.497 2.721-8.25 7.378-8.25 13.956 0 6.628 2.777 11.294 8.319 13.977l3.74 1.81h359.028l3.74-1.81c5.542-2.683 8.319-7.349 8.319-13.977s-2.777-11.294-8.319-13.977l-3.74-1.81-179.57.001-179.571.001-3.696 1.829m3.504 94.566c-3.758.9-6.502 2.825-9.351 6.559-2.086 2.735-2.403 3.911-2.403 8.899 0 5.126.282 6.101 2.609 9.026 1.435 1.804 4.301 4.143 6.368 5.199l3.758 1.92h357.676l3.758-1.92c2.067-1.056 4.933-3.395 6.368-5.199 2.334-2.933 2.609-3.892 2.609-9.094 0-5.232-.265-6.143-2.65-9.094-1.458-1.804-3.954-4.047-5.547-4.986-2.869-1.691-4.55-1.708-181.669-1.838-98.326-.072-180.012.166-181.526.528m-3.504 97.434c-5.497 2.721-8.25 7.378-8.25 13.956 0 6.628 2.777 11.294 8.319 13.977l3.74 1.81h359.028l3.74-1.81c5.542-2.683 8.319-7.349 8.319-13.977s-2.777-11.294-8.319-13.977l-3.74-1.81-179.57.001-179.571.001-3.696 1.829" fill-rule="evenodd"/></svg>