<svg xmlns="http://www.w3.org/2000/svg" width="512" height="512"><path d="M94.293 48.208c-.469.155-1.902.514-3.184.796-3.127.689-8.32 5.362-9.743 8.769-1.526 3.652-1.46 8.952.16 12.868.936 2.263 49.548 51.423 169.6 171.513 92.558 92.587 169.702 169.326 171.431 170.53 4.417 3.077 8.52 3.83 13.632 2.504 10.476-2.717 15.131-15.29 8.947-24.167-3.399-4.88-338.541-339.478-341.456-340.902-2.702-1.32-7.947-2.388-9.387-1.911m152.24.414c-17.104 2.141-32.666 9.35-44.911 20.804-6.182 5.783-12.46 13.569-13.435 16.661-.579 1.839 6.369 9.045 72.356 75.032 63.316 63.315 73.175 72.85 74.334 71.888 1.187-.985 1.336-7.1 1.336-54.703 0-33.786-.341-56.048-.923-60.234-5.375-38.644-36.776-67.669-75.45-69.74-4.224-.227-10.212-.095-13.307.292M121.6 193.613c-4.131 1.906-6.731 4.608-8.493 8.825-1.067 2.554-1.319 7.056-1.313 23.455.009 27.662 1.545 40.246 7.004 57.384 16.362 51.366 59.449 89.066 112.669 98.583l8.32 1.488v48.326l-25.883.27-25.882.269-4.121 2.56c-5.232 3.252-7.704 7.733-7.643 13.857.053 5.28 3.237 10.568 8.074 13.409 2.919 1.715 4.222 1.752 69.535 1.996 50.45.189 67.475-.004 70.34-.794 7.395-2.039 13.061-10.806 11.588-17.928-.86-4.162-4.114-8.756-7.844-11.075-3.216-1.999-3.592-2.028-29.498-2.294l-26.24-.268v-48.328l8.32-1.488c11.276-2.016 23.32-5.674 33.646-10.219 9.563-4.208 11.794-5.819 11.794-8.512 0-1.891-19.3-21.796-21.134-21.796-.508 0-3.896 1.191-7.529 2.645-42.593 17.055-91.488 5.994-123.09-27.845-10.468-11.209-19.642-26.648-24.322-40.933-4.568-13.944-5.059-17.957-5.601-45.795l-.51-26.169-2.572-3.698c-4.703-6.765-12.617-9.155-19.615-5.925m256 0c-4.131 1.906-6.731 4.608-8.493 8.825-1.073 2.569-1.321 7.201-1.325 24.735-.004 14.834-.406 24.234-1.289 30.088l-1.283 8.514 11.742 11.77c6.458 6.474 12.306 11.664 12.997 11.533 2.742-.521 7.758-19.624 9.419-35.875.55-5.376.856-18.435.699-29.772l-.28-20.196-2.572-3.697c-4.704-6.765-12.617-9.155-19.615-5.925m-200.901 21.39c-1.913 1.183-.751 34.468 1.497 42.853 4.16 15.522 11.028 27.55 21.994 38.514 10.709 10.707 20.032 16.215 35.212 20.799 6.331 1.912 9.057 2.239 19.318 2.315 12.497.093 21.768-1.277 23.603-3.489.828-.997-7.855-10.092-48.417-50.713-27.184-27.225-50.023-49.831-50.752-50.238-.729-.406-1.834-.424-2.455-.041" fill-rule="evenodd"/></svg>