<svg xmlns="http://www.w3.org/2000/svg" width="512" height="512"><path d="M248.32 48.377c-37.482 3.975-66.768 32.369-71.682 69.499-.641 4.848-.852 27.395-.657 70.284.281 61.638.332 63.303 2.129 69.696 4.469 15.898 11.184 27.619 22.043 38.477 10.601 10.599 20.218 16.286 35.249 20.845 6.412 1.945 8.982 2.247 19.745 2.316 9.569.061 13.823-.289 18.773-1.548 32.915-8.369 56.726-34.842 61.37-68.23 1.259-9.05 1.259-123.448 0-132.499-5.126-36.852-33.335-64.409-70.135-68.512-8.098-.903-10.901-.958-16.835-.328M112.023 223.36c.434 32.265.877 37.345 4.478 51.413 6.742 26.335 18.767 47.463 37.909 66.604 21.322 21.323 49.374 36.001 77.27 40.432 1.877.299 4.469.752 5.76 1.008l2.347.465V431.787h-64v32.426h160.426v-32.426h-64V383.282l2.347-.465c1.291-.256 3.883-.709 5.76-1.008 11.558-1.835 27.044-6.887 38.4-12.526 16.008-7.949 26.866-15.823 39.68-28.779 18.373-18.574 30.549-40.149 37.099-65.731 3.571-13.949 4.026-19.185 4.475-51.413l.437-31.36h-32.624v28.166c0 20.667-.341 30.432-1.279 36.679-5.808 38.667-32.586 72.35-69.149 86.98-15.697 6.281-21.457 7.297-41.359 7.297s-25.662-1.016-41.359-7.297c-32.678-13.075-58.081-41.826-67.043-75.878-2.688-10.216-3.354-19.622-3.369-47.574L144.213 192h-32.612l.422 31.36" fill-rule="evenodd"/></svg>