<svg xmlns="http://www.w3.org/2000/svg" width="512" height="512"><path d="M241.92 48.669c-64.561 4.115-123.152 38.433-159.962 93.693-26.292 39.469-38.649 92.321-32.455 138.811 6.326 47.479 26.376 88.354 59.673 121.651 33.526 33.526 73.443 53.027 122.504 59.846 4.224.587 15.168 1.068 24.32 1.068 9.152 0 20.096-.481 24.32-1.068 49.001-6.811 88.952-26.339 122.482-59.868 33.529-33.53 53.057-73.481 59.868-122.482 1.376-9.9 1.376-38.74 0-48.64-6.778-48.766-26.328-88.904-59.45-122.057-11.819-11.831-20.651-19.077-33.662-27.617-37.561-24.655-81.952-36.249-127.638-33.337m42.24 33.635c37.002 6.256 69.634 23.067 96.051 49.485 26.524 26.524 43.051 58.676 49.593 96.478 2.077 11.998 2.077 43.468 0 55.466-3.953 22.845-11.571 43.602-22.971 62.592-23.854 39.736-62.397 68.525-107.078 79.979-75.456 19.343-154.457-13.128-194.588-79.979-11.4-18.99-19.018-39.747-22.971-62.592-2.077-11.998-2.077-43.468 0-55.466 6.51-37.622 23.222-70.158 49.567-96.504 13.075-13.074 29.841-25.258 45.702-33.213 15.18-7.613 37.881-14.652 53.362-16.548 4.224-.517 8.64-1.104 9.813-1.304 4.883-.835 35.842.308 43.52 1.606m-129.496 45.979c-8.542 3.099-12.713 13.029-8.935 21.274 1.455 3.175 194.116 214.661 197.655 216.968 7.64 4.98 19.643 1.346 23.228-7.031 1.593-3.723 1.421-10.326-.354-13.578-.802-1.469-45.37-50.691-99.041-109.383-78.793-86.165-98.227-106.97-100.924-108.05-3.882-1.553-7.716-1.619-11.629-.2m93.656.253c-12.557 2.416-24.589 9.94-31.167 19.492-3.125 4.538-3.256 4.969-2.083 6.896 2.558 4.205 84.931 94.129 86.279 94.188.771.034 1.635-.546 1.92-1.288.285-.743.518-18.639.518-39.771 0-42.74-.131-43.996-5.699-54.616-5.457-10.41-16.222-19.395-27.52-22.97-5.456-1.727-17.759-2.794-22.248-1.931m-79.156 81.04c-4.563 2.328-7.629 6.529-8.776 12.026-1.336 6.408-.551 34.342 1.184 42.099 4.058 18.147 14.508 34.698 30.105 47.685 12.253 10.201 26.545 17.561 41.442 21.34l6.241 1.583.242 9.059.242 9.059h-9.876c-11.374 0-14.864 1.205-18.932 6.539-2.071 2.715-2.396 3.912-2.396 8.817 0 7.091 2.636 11.655 8.32 14.407 3.625 1.755 4.811 1.81 39.04 1.81s35.415-.055 39.04-1.81c5.684-2.752 8.32-7.316 8.32-14.407 0-4.905-.325-6.102-2.396-8.817-4.068-5.334-7.558-6.539-18.932-6.539h-9.876l.242-9.108.242-9.107 4.94-1.121c5.595-1.269 8.287-2.502 8.287-3.798 0-.487-4.992-6.369-11.094-13.069l-11.094-12.184-9.599-.48c-11.274-.564-22.403-3.729-31.36-8.919-6.98-4.045-20.159-17.032-23.766-23.421-5.732-10.153-6.309-12.975-6.869-33.631-.491-18.086-.594-18.957-2.568-21.837-1.131-1.649-3.375-3.903-4.986-5.007-3.823-2.619-11.395-3.195-15.367-1.169m159.665.393c-1.949.965-4.637 3.33-5.973 5.257l-2.429 3.502-.513 19.276c-.395 14.857-.836 20.132-1.92 23.01-.774 2.054-1.407 4.25-1.407 4.88 0 1.501 20.555 24.239 21.912 24.239 1.636 0 6.761-9.899 9.56-18.464 1.4-4.283 2.955-11.466 3.456-15.961 1.151-10.322 1.145-29.661-.011-34.678-2.386-10.355-13.323-15.69-22.675-11.061M208.632 247.68c3.167 15.848 12.591 28.459 26.287 35.172 6.56 3.215 11.694 4.638 11.694 3.239 0-1.189-36.554-41.184-37.641-41.184-.554 0-.683 1.056-.34 2.773" fill-rule="evenodd"/></svg>