<svg xmlns="http://www.w3.org/2000/svg" width="512" height="512"><path d="M241.92 48.669c-64.561 4.115-123.152 38.433-159.962 93.693-26.292 39.469-38.649 92.321-32.455 138.811 6.326 47.479 26.376 88.354 59.673 121.651 33.526 33.526 73.443 53.027 122.504 59.846 4.224.587 15.168 1.068 24.32 1.068 9.152 0 20.096-.481 24.32-1.068 49.001-6.811 88.952-26.339 122.482-59.868 33.529-33.53 53.057-73.481 59.868-122.482 1.376-9.9 1.376-38.74 0-48.64-6.778-48.766-26.328-88.904-59.45-122.057-11.819-11.831-20.651-19.077-33.662-27.617-37.561-24.655-81.952-36.249-127.638-33.337m28.648 81.798c11.334 3.586 22.052 12.551 27.578 23.067 5.578 10.614 5.765 12.572 5.464 57.144l-.268 39.775-2.159 5.56c-7.65 19.699-24.75 31.694-45.183 31.694s-37.533-11.995-45.183-31.694l-2.159-5.56-.268-39.775c-.302-44.646-.121-46.516 5.528-57.265 10.52-20.021 34.807-29.858 56.65-22.946m-90.328 78.637c4.245 1.179 8.244 4.679 10.156 8.887 1.329 2.927 1.571 5.773 1.598 18.809.05 24.628 2.923 32.476 17.027 46.515 9.421 9.378 15.83 13.412 27.352 17.216 7.28 2.403 9.195 2.682 18.774 2.731 12.471.064 17.787-1.137 29.44-6.65 13.538-6.406 25.583-17.782 30.803-29.092 3.823-8.283 4.609-13.418 4.629-30.259.016-13.501.248-16.327 1.585-19.27 5.416-11.922 22.423-12.691 28.246-1.277 1.571 3.08 1.723 5.002 1.723 21.795 0 20.367-.918 27.11-5.135 37.691-10.621 26.648-37.093 48.798-67.557 56.526l-6.241 1.583-.242 9.059-.242 9.059h9.786c10.348 0 13.351.666 16.594 3.683 8.142 7.573 6.297 21.34-3.496 26.08-3.625 1.755-4.811 1.81-39.04 1.81s-35.415-.055-39.04-1.81c-9.793-4.74-11.638-18.507-3.496-26.08 3.243-3.017 6.246-3.683 16.594-3.683h9.786l-.242-9.059-.242-9.059-6.241-1.583c-30.709-7.791-57.186-30.084-67.813-57.099-3.959-10.065-4.879-17.067-4.879-37.118 0-20.502.563-23.03 5.989-26.894 4.557-3.245 8.562-3.972 13.824-2.511" fill-rule="evenodd"/></svg>