<svg xmlns="http://www.w3.org/2000/svg" width="512" height="512"><path d="M84.047 52.913 72.973 64.012l179.401 179.401 179.401 179.402 11.531-11.508 11.532-11.508-178.992-178.993C177.401 122.36 96.465 41.813 95.988 41.813c-.476 0-5.85 4.995-11.941 11.1m162.486-4.244c-22.141 2.588-42.942 14.869-55.541 32.79l-4.176 5.94 74.485 74.489 74.486 74.489.242-55.682c.159-36.529-.077-58.137-.685-62.819-4.824-37.152-33.121-65.038-70.189-69.171-9.008-1.005-10.317-1.007-18.622-.036M111.794 219.093c.009 34.796 1.241 46.093 7.004 64.184 16.362 51.366 59.449 89.066 112.669 98.583l8.32 1.488v48.439h-64v32.426h160.426v-32.426h-64V383.396l9.895-1.863c14.733-2.773 34.125-9.697 43.65-15.584l2.939-1.816-11.698-11.721-11.698-11.721-7.039 2.839c-15.675 6.32-28.559 8.463-46.833 7.79-17.225-.635-30.199-3.893-45.175-11.347-30.228-15.044-51.399-42.111-59.673-76.293-1.569-6.482-1.796-10.679-2.133-39.467L144.072 192h-32.285l.007 27.093m255.784 4.694c-.237 22.382-.674 33.261-1.477 36.77l-1.141 4.983 12.852 12.852 12.852 12.852 2.555-8.022c5.744-18.032 6.978-29.361 6.987-64.129l.007-27.093h-32.298l-.337 31.787m-191.574 8.106c.457 21.218 1.289 26.128 6.578 38.833 7.232 17.371 23.962 34.715 40.576 42.062 11.575 5.119 18.739 6.621 31.989 6.706 9.473.061 13.823-.292 18.56-1.506 3.402-.872 6.186-1.833 6.186-2.136 0-.841-102.726-103.372-103.569-103.372-.406 0-.55 8.736-.32 19.413" fill-rule="evenodd"/></svg>