<svg xmlns="http://www.w3.org/2000/svg" width="512" height="512"><path d="M241.92 48.669c-64.561 4.115-123.152 38.433-159.962 93.693-26.292 39.469-38.649 92.321-32.455 138.811 6.326 47.479 26.376 88.354 59.673 121.651 33.526 33.526 73.443 53.027 122.504 59.846 4.224.587 15.168 1.068 24.32 1.068 9.152 0 20.096-.481 24.32-1.068 49.001-6.811 88.952-26.339 122.482-59.868 33.529-33.53 53.057-73.481 59.868-122.482 1.376-9.9 1.376-38.74 0-48.64-6.778-48.766-26.328-88.904-59.45-122.057-11.819-11.831-20.651-19.077-33.662-27.617-37.561-24.655-81.952-36.249-127.638-33.337m28.648 81.798c11.334 3.586 22.052 12.551 27.578 23.067 5.578 10.614 5.765 12.572 5.464 57.144l-.268 39.775-2.159 5.56c-7.65 19.699-24.75 31.694-45.183 31.694s-37.533-11.995-45.183-31.694l-2.159-5.56-.268-39.775c-.302-44.646-.121-46.516 5.528-57.265 10.52-20.021 34.807-29.858 56.65-22.946m-78.555 99.72c.014 24.905.632 29.113 5.72 38.952 2.286 4.419 5.343 8.259 11.288 14.176 9.421 9.378 15.83 13.412 27.352 17.216 7.28 2.403 9.195 2.682 18.774 2.731 12.471.064 17.787-1.137 29.44-6.65 13.538-6.406 25.583-17.782 30.803-29.092 4.107-8.897 4.61-12.923 4.61-36.873v-22.434h31.573v24.356c0 18.855-.304 25.842-1.348 30.934-6.56 31.999-35.571 60.148-71.344 69.223l-6.241 1.583-.242 9.059-.242 9.059h31.631V384h-95.574v-31.573h31.631l-.242-9.059-.242-9.059-6.241-1.583c-30.709-7.791-57.186-30.084-67.813-57.099-4.207-10.696-4.879-16.631-4.879-43.058v-24.356H192l.013 21.974" fill-rule="evenodd"/></svg>