<svg xmlns="http://www.w3.org/2000/svg" width="512" height="512"><path d="M241.92 48.669c-64.561 4.115-123.152 38.433-159.962 93.693-26.292 39.469-38.649 92.321-32.455 138.811 6.326 47.479 26.376 88.354 59.673 121.651 33.526 33.526 73.443 53.027 122.504 59.846 4.224.587 15.168 1.068 24.32 1.068 9.152 0 20.096-.481 24.32-1.068 49.001-6.811 88.952-26.339 122.482-59.868 33.529-33.53 53.057-73.481 59.868-122.482 1.376-9.9 1.376-38.74 0-48.64-6.778-48.766-26.328-88.904-59.45-122.057-11.819-11.831-20.651-19.077-33.662-27.617-37.561-24.655-81.952-36.249-127.638-33.337m25.968 188.558 99.904 108.8-5.336 5.002a1037.135 1037.135 0 0 1-11.823 10.857l-6.488 5.854-99.752-108.712c-54.864-59.791-99.753-109.147-99.753-109.678 0-1.094 21.87-21.357 22.766-21.094.318.094 45.535 49.131 100.482 108.971m2.68-106.754c11.319 3.569 22.05 12.541 27.574 23.052 5.402 10.281 5.618 12.365 5.632 54.368.012 36.027-.281 43.355-1.712 42.807-1.455-.557-87.875-96.432-87.875-97.489 0-2.072 7.559-11.258 12.146-14.759 6.661-5.085 14.99-8.768 22.414-9.909 5.126-.789 16.348.204 21.821 1.93m-78.555 99.714c.014 24.905.632 29.113 5.72 38.952 3.934 7.605 16.856 20.795 24.987 25.504 8.958 5.187 20.089 8.353 31.349 8.916l9.588.48 11.635 12.741c7.026 7.693 11.326 13.05 10.855 13.521-.429.429-3.643 1.506-7.143 2.394l-6.364 1.614-.242 9.059-.242 9.059h31.631V384h-95.574v-31.573h31.631l-.242-9.059-.242-9.059-6.241-1.583c-30.709-7.791-57.186-30.084-67.813-57.099-4.207-10.696-4.879-16.631-4.879-43.058v-24.356H192l.013 21.974m159.35 5.12c-.313 25.067-.481 27.571-2.256 33.483-1.973 6.571-8.158 19.892-9.911 21.347-.692.574-4.239-2.777-11.876-11.223-8.547-9.451-10.792-12.432-10.434-13.852.25-.995 1.048-4.113 1.771-6.929 1.021-3.969 1.319-10.154 1.33-27.52l.013-22.4h31.7l-.337 27.094M226.986 263.68c9.548 10.56 18.296 20.225 19.44 21.477l2.079 2.277-3.719-.801c-14.231-3.063-28.46-15.832-33.686-30.227-2.081-5.736-3.585-14.162-2.281-12.779.443.469 8.618 9.493 18.167 20.053" fill-rule="evenodd"/></svg>