<svg xmlns="http://www.w3.org/2000/svg" width="512" height="512"><path d="M248.32 48.377c-37.482 3.975-66.768 32.369-71.682 69.499-.641 4.848-.852 27.395-.657 70.284.281 61.638.332 63.303 2.129 69.696 4.469 15.898 11.184 27.619 22.043 38.477 10.601 10.599 20.218 16.286 35.249 20.845 6.412 1.945 8.982 2.247 19.745 2.316 9.569.061 13.823-.289 18.773-1.548 32.915-8.369 56.726-34.842 61.37-68.23 1.259-9.05 1.259-123.448 0-132.499-5.126-36.852-33.335-64.409-70.135-68.512-8.098-.903-10.901-.958-16.835-.328M121.565 193.604c-4.102 1.863-7.534 5.702-8.959 10.02-1.279 3.873-.618 47.954.855 57.069 5.095 31.532 18.8 58.535 40.949 80.684 21.322 21.323 49.374 36.001 77.27 40.432 1.877.299 4.469.752 5.76 1.008l2.347.465V431.787l-24.107.02c-13.259.011-25.613.37-27.454.797-12.06 2.797-16.245 17.764-7.431 26.578 1.725 1.726 4.664 3.561 6.531 4.08 4.752 1.319 132.596 1.319 137.348 0 1.867-.519 4.806-2.354 6.531-4.08 8.814-8.814 4.629-23.781-7.431-26.578-1.841-.427-14.195-.786-27.454-.797l-24.107-.02V383.282l2.347-.465c1.291-.256 3.883-.709 5.76-1.008 15.809-2.511 34.657-9.612 50.347-18.969 14.536-8.669 32.283-25.18 42.419-39.464 12.861-18.123 21.866-40.308 25.443-62.683 1.476-9.231 2.147-53.186.871-57.052-2.987-9.05-12.786-13.826-21.176-10.32-4.216 1.762-6.918 4.361-8.824 8.492-1.399 3.03-1.578 5.839-1.595 24.966-.012 14.702-.425 24.258-1.297 30.066-5.808 38.667-32.586 72.35-69.149 86.98-15.697 6.281-21.457 7.297-41.359 7.297s-25.662-1.016-41.359-7.297c-24.788-9.918-45.621-28.826-57.829-52.485-10.186-19.741-12.551-31.816-12.602-64.353-.03-19.309-.212-22.145-1.61-25.174-3.861-8.366-12.913-11.898-21.035-8.209" fill-rule="evenodd"/></svg>