<svg xmlns="http://www.w3.org/2000/svg" width="512" height="512"><path d="M247.42 18.674c-4.37 2.835-83.676 82.229-85.317 85.413-3.016 5.848-2.194 14.139 1.834 18.514 4.528 4.916 12.341 6.643 18.472 4.081 2.082-.87 12.373-10.506 30.266-28.343l27.112-27.026v168.474H71.313l27.026-27.112c17.837-17.893 27.473-28.184 28.343-30.266 2.788-6.671.647-14.683-5.092-19.061-4.096-3.124-12.19-3.917-16.71-1.637-3.691 1.863-82.904 80.62-86.206 85.709-3.47 5.35-3.47 11.81 0 17.16 2.835 4.37 82.229 83.676 85.413 85.317 5.848 3.016 14.139 2.194 18.514-1.834 4.916-4.528 6.643-12.341 4.081-18.472-.87-2.082-10.506-12.373-28.343-30.266l-27.026-27.112h168.474V440.71l-26.24-26.088c-14.432-14.349-27.456-26.92-28.941-27.935-5.953-4.07-15.15-2.983-20.306 2.399-4.361 4.551-5.32 12.77-2.197 18.827 1.641 3.184 80.947 82.578 85.317 85.413 5.35 3.47 11.81 3.47 17.16 0 4.37-2.835 83.676-82.229 85.317-85.413 3.016-5.848 2.194-14.139-1.834-18.514-4.581-4.974-12.601-6.693-18.547-3.975-1.863.852-14.015 12.253-30.209 28.344l-27.094 26.919V272.213h168.474l-27.026 27.112c-17.837 17.893-27.473 28.184-28.343 30.266-2.562 6.131-.835 13.944 4.081 18.472 4.375 4.028 12.666 4.85 18.514 1.834 3.184-1.641 82.578-80.947 85.413-85.317 1.969-3.036 2.461-4.751 2.461-8.58 0-3.829-.492-5.544-2.461-8.58-3.302-5.089-82.515-83.846-86.206-85.709-4.52-2.28-12.614-1.487-16.71 1.637-5.739 4.378-7.88 12.39-5.092 19.061.87 2.082 10.506 12.373 28.343 30.266l27.026 27.112H272.213V71.313l27.112 27.026c17.893 17.837 28.184 27.473 30.266 28.343 6.131 2.562 13.944.835 18.472-4.081 4.028-4.375 4.85-12.666 1.834-18.514-1.641-3.184-80.947-82.578-85.317-85.413-3.036-1.969-4.751-2.461-8.58-2.461-3.829 0-5.544.492-8.58 2.461" fill-rule="evenodd"/></svg>