<svg xmlns="http://www.w3.org/2000/svg" width="512" height="512"><path d="M302.071 51.496c-42.011 10.397-76.859 19.215-77.44 19.594-.834.545-1.058 30.598-1.058 142.202 0 112.426-.219 141.595-1.066 141.915-.587.222-13.547 4.92-28.8 10.44-38.904 14.08-48.338 19.06-56.138 29.637-10.314 13.984-12.508 36.508-5.386 55.276 3.942 10.387 15.268 21.58 26.323 26.014 16.191 6.493 42.07 3.516 63.596-7.317 7.672-3.86 21.876-13.585 26.289-17.997 7.84-7.838 7.152 5.883 7.411-147.714l.229-135.493 1.904-.722c1.048-.398 29.361-7.943 62.918-16.769 33.558-8.825 61.494-16.407 62.08-16.849.833-.626 1.067-11.847 1.067-51.044V32.427l-2.773.082c-1.526.046-37.146 8.59-79.156 18.987" fill-rule="evenodd"/></svg>