<svg xmlns="http://www.w3.org/2000/svg" width="512" height="512"><path d="M397.653 33.41c-1.642.456-47.302 12.733-101.466 27.282-57.82 15.532-100.243 27.347-102.75 28.618-5.053 2.56-11.635 9.053-13.797 13.609-3.924 8.269-3.832 5.227-3.843 128.148-.009 96.834-.207 116.754-1.185 119.04-2.488 5.814-4.807 6.998-32.176 16.434-31.027 10.697-35.586 12.519-41.863 16.728-6.514 4.368-11.257 10.055-15.203 18.224-3.957 8.196-5.157 13.532-5.157 22.946 0 25.293 17.414 47.735 41.735 53.784 14.793 3.68 24.548 2.022 52.572-8.934 16.927-6.619 26.82-16.804 31.865-32.809 1.186-3.762 1.399-17.582 1.8-116.907.451-111.622.471-112.667 2.205-115.626.963-1.643 3.267-3.819 5.12-4.836 3.016-1.656 177.674-48.924 180.774-48.924.7 0 1.87.853 2.601 1.896 1.177 1.68 1.328 10.038 1.324 73.174-.004 46.397-.313 72.384-.887 74.45-1.031 3.713-4.349 7.926-7.53 9.562-1.235.635-12.229 4.691-24.432 9.015-12.203 4.323-25.604 9.174-29.781 10.778-15.816 6.075-26.012 16.467-31.297 31.898-1.466 4.28-1.914 7.592-1.961 14.507-.114 16.574 4.706 28.34 16.457 40.179 7.96 8.019 15.057 12.158 25.372 14.799 7.3 1.868 19.8 1.746 26.823-.262 11.143-3.187 30.347-10.578 35.861-13.802 10.242-5.988 18.51-17.045 21.694-29.006 1.062-3.992 1.24-28.132 1.249-169.41.011-184.865.59-169.061-6.488-176.933-5.447-6.058-11.054-8.625-18.63-8.528-3.31.042-7.363.45-9.006.906m2.56 58.134v25.838l-7.04.996c-5.692.806-178.194 46.377-183.479 48.471-1.422.564-1.494-.806-1.28-24.457l.226-25.054 95.573-25.757L400 65.765c.117-.032.213 11.569.213 25.779m-.004 267.496c-.003 10.285-.4 19.129-.947 21.101-1.756 6.323-5.603 8.966-21.235 14.585-11.876 4.268-14.949 5.055-19.627 5.021-6.631-.047-11.015-2.044-15.583-7.101-4.492-4.971-5.956-8.34-6.415-14.757-.485-6.777 1.662-12.237 6.164-15.671 2.626-2.003 53.009-20.683 56.154-20.82 1.376-.06 1.493 1.321 1.489 17.642m-224.593 50.415-.256 20.336-2.391 3.132c-2.939 3.85-4.233 4.528-19.049 9.982-17.39 6.401-24.24 6.521-32.052.562-10.409-7.939-12.983-24.558-4.989-32.213 2.759-2.641 6.737-4.281 30.401-12.53 14.975-5.221 27.534-9.517 27.91-9.548.375-.031.567 9.095.426 20.279" fill-rule="evenodd"/></svg>