<svg xmlns="http://www.w3.org/2000/svg" width="512" height="512"><path d="M301.227 46.942c-61.076 15.911-63.298 16.692-69.649 24.484-1.956 2.398-4.461 6.605-5.567 9.347L224 85.76l-.427 131.84-.426 131.84-1.828 2.56c-1.006 1.408-2.574 3.234-3.487 4.059-.912.824-14.652 5.925-30.533 11.335-15.88 5.41-31.121 11.034-33.867 12.498-18.624 9.926-28.906 33.291-24.193 54.978 2.432 11.187 7.187 19.92 15.27 28.04 3.827 3.844 9.07 8.174 11.651 9.622 10.247 5.748 23.013 8.388 33.913 7.015 7.309-.921 30.429-8.271 39.379-12.519 11.828-5.614 22.098-18.602 25.236-31.916 1.116-4.734 1.288-22.098 1.299-130.713.012-111.104.162-125.611 1.334-128.415 1.551-3.713 4.191-6.724 7.325-8.355 1.235-.642 24.218-6.735 51.075-13.54 52.867-13.394 53.395-13.579 60.225-21.14 1.722-1.905 4.142-5.622 5.379-8.26l2.248-4.796.259-34.418c.284-37.954.132-39.358-4.957-45.532-1.404-1.702-4.548-4.09-6.988-5.306-7.872-3.923-9.363-3.663-70.66 12.305" fill-rule="evenodd"/></svg>