<svg xmlns="http://www.w3.org/2000/svg" width="512" height="512"><path d="M299.52 59.664c-55.147 14.887-101.611 27.522-103.253 28.077-4.619 1.561-11.192 6.986-14.699 12.13-6.097 8.941-5.781 1.777-5.781 131.362 0 111.867-.064 116.645-1.583 119.479-2.991 5.577-6.147 7.112-35.111 17.082-15.253 5.25-30.229 10.756-33.28 12.236-7.434 3.605-15.75 11.916-19.86 19.845-4.025 7.767-5.711 15.031-5.727 24.675-.054 33.025 29.189 59.008 61.815 54.923 7.182-.899 33.728-9.952 41.85-14.272 6.656-3.539 15.027-12.43 18.666-19.824 5.869-11.926 5.625-6.405 5.642-127.758.014-107.357.047-109.538 1.702-112.781 2.199-4.311 5.114-6.3 12.403-8.459 11.439-3.39 172.575-46.192 173.896-46.192.732 0 1.935.603 2.672 1.341 1.198 1.198 1.341 9.004 1.337 73.173-.004 46.779-.313 72.939-.887 75.006-1.032 3.719-4.355 7.934-7.53 9.552-1.235.629-14.917 5.644-30.405 11.144-15.488 5.5-30.272 11.184-32.854 12.631-2.581 1.448-7.24 5.203-10.354 8.345-16.281 16.434-18.765 42.454-6.094 63.848 6.857 11.577 20.641 21.781 34.065 25.218 6.597 1.688 19.459 1.733 25.78.089 7.629-1.984 32.39-11.294 36.72-13.806 6.062-3.518 14.839-12.917 17.935-19.206 5.543-11.259 5.18 1.273 5.192-179.557.011-187.489.779-169.536-7.607-177.922-3.237-3.236-6.1-5.213-8.962-6.186-8.972-3.051-7.926-3.284-115.688 25.807" fill-rule="evenodd"/></svg>