<svg xmlns="http://www.w3.org/2000/svg" width="512" height="512"><path d="M444.16 48.601c-3.454.912-387.483 177.202-390.056 179.056-2.576 1.857-6.317 9.156-6.317 12.325 0 5.553 3.967 11.523 9.566 14.394 3.055 1.567 6.453 1.624 97.535 1.624 102.54 0 97.866-.218 100.093 4.669.77 1.691 1.024 25.22 1.038 96.278.018 89.391.096 94.21 1.585 97.488 5.715 12.582 22.442 12.719 28.768.237 1.19-2.349 41.561-90.156 89.713-195.125 81.439-177.535 87.553-191.182 87.611-195.554.043-3.27-.465-5.603-1.671-7.668-3.446-5.901-11.532-9.397-17.865-7.724" fill-rule="evenodd"/></svg>