<svg xmlns="http://www.w3.org/2000/svg" width="512" height="512"><path d="M35.963 35.627c-2.868 2.73-3.444 3.889-3.92 7.893-.306 2.581-.439 91.093-.294 196.693.295 215.687-.382 194.814 6.792 209.465 4.927 10.06 13.714 18.85 23.781 23.785C76.9 480.609 58.854 480 255.929 480c127.058 0 175.375-.259 175.603-.942.172-.518-2.537-1.981-6.022-3.252-20.854-7.606-37.187-27.626-40.571-49.729-.662-4.327-.939-61.925-.939-195.285 0-209.738.472-192.939-5.525-196.645-2.766-1.71-3.834-1.72-170.966-1.72H39.325l-3.362 3.2M192 160v48.213H96.427v-96.426H192V160m128-32v16.213H224.427v-32.426H320V128m96.185-15.687c-1.048 1.048-.739 303.103.316 308.864 1.93 10.536 8.939 19.579 18.699 24.123 3.999 1.862 5.892 2.185 12.8 2.185s8.801-.323 12.8-2.185c9.966-4.64 16.887-13.73 18.742-24.611.672-3.943.874-48.058.701-152.893-.243-147.305-.244-147.352-2.002-149.707-.968-1.296-2.819-3.149-4.115-4.116-2.246-1.678-3.623-1.771-29.842-2.016-15.118-.141-27.762.019-28.099.356M320 192v16.213H224.427v-32.426H320V192m0 64v16.213H96.427v-32.426H320V256m0 64v16.213H96.427v-32.426H320V320m0 64v16.213H96.427v-32.426H320V384" fill-rule="evenodd"/></svg>