<svg xmlns="http://www.w3.org/2000/svg" width="512" height="512"><path d="M241.92 48.669c-64.561 4.115-123.152 38.433-159.962 93.693-26.292 39.469-38.649 92.321-32.455 138.811 6.326 47.479 26.376 88.354 59.673 121.651 33.526 33.526 73.443 53.027 122.504 59.846 4.224.587 15.168 1.068 24.32 1.068 9.152 0 20.096-.481 24.32-1.068 49.001-6.811 88.952-26.339 122.482-59.868 33.529-33.53 53.057-73.481 59.868-122.482 1.376-9.9 1.376-38.74 0-48.64-6.778-48.766-26.328-88.904-59.45-122.057-11.819-11.831-20.651-19.077-33.662-27.617-37.561-24.655-81.952-36.249-127.638-33.337m24.919 81.863c5.923 2.548 12.452 9.546 15.76 16.892 1.424 3.162 3.197 6.434 3.941 7.272.743.837 5.215 3.41 9.939 5.716 20.581 10.05 32.153 24.081 37.663 45.668 1.833 7.181 2.303 11.644 2.968 28.16.868 21.552 1.767 29.891 4.305 39.933 3.1 12.264 6.604 18.542 17.582 31.503 3.465 4.09 6.857 8.506 7.539 9.813 3.548 6.802-.744 16.922-8.405 19.817-1.647.622-33.805.907-102.344.907-97.959 0-100.01-.033-103.411-1.694-4.712-2.301-7.509-6.653-7.989-12.43-.449-5.419-.127-6.028 8.793-16.596 16.935-20.066 20.062-30.326 21.71-71.253.665-16.516 1.135-20.979 2.968-28.16 5.51-21.587 17.082-35.618 37.663-45.668 4.724-2.306 9.196-4.879 9.939-5.716.744-.838 2.511-4.097 3.927-7.243 2.74-6.083 9.085-13.602 13.359-15.831 7.766-4.049 16.315-4.436 24.093-1.09m28.251 225.975c.561 7.765-6.784 18.095-16.111 22.658-12.724 6.225-32.312 6.331-45.601.248-8.855-4.054-15.499-12.411-16.429-20.663-.775-6.871-4.003-6.367 39.241-6.119l38.637.222.263 3.654" fill-rule="evenodd"/></svg>