<svg xmlns="http://www.w3.org/2000/svg" width="512" height="512"><path d="M241.92 48.669c-64.561 4.115-123.152 38.433-159.962 93.693-26.292 39.469-38.649 92.321-32.455 138.811 6.326 47.479 26.376 88.354 59.673 121.651 33.526 33.526 73.443 53.027 122.504 59.846 4.224.587 15.168 1.068 24.32 1.068 9.152 0 20.096-.481 24.32-1.068 49.001-6.811 88.952-26.339 122.482-59.868 33.529-33.53 53.057-73.481 59.868-122.482 1.376-9.9 1.376-38.74 0-48.64-6.778-48.766-26.328-88.904-59.45-122.057-11.819-11.831-20.651-19.077-33.662-27.617-37.561-24.655-81.952-36.249-127.638-33.337m38.233 81.251c.245 1.056 1.107 6.912 1.916 13.013.809 6.102 1.898 11.504 2.421 12.006.522.501 3.254 1.603 6.07 2.449 19.25 5.781 34.406 20.447 42.328 40.958 5.383 13.936 6.054 18.831 6.502 47.397l.408 26.009 13.976 17.937 13.977 17.938.018 11.489c.015 9.811-.155 11.307-1.162 10.24-.648-.687-35.621-38.85-77.717-84.806-66.551-72.655-76.336-83.67-74.991-84.423.851-.476 4.197-1.706 7.435-2.732 3.238-1.027 6.171-2.397 6.518-3.044.346-.648 1.266-5.786 2.043-11.418.777-5.632 1.623-11.296 1.88-12.586l.467-2.347h47.466l.445 1.92m-12.502 115.102c57.656 62.016 104.943 113.047 105.083 113.402.264.671-22.012 21.303-23.004 21.307-.59.002-210.024-225.038-210.459-226.14-.257-.651 21.998-21.274 22.993-21.306.307-.01 47.731 50.722 105.387 112.737m-42.371 24.712c27.456 30.013 52.352 57.25 55.324 60.525l5.404 5.954H144.213l.018-14.293.018-14.293 13.977-17.938 13.976-17.937.428-26.009c.4-24.313.863-30.793 2.189-30.641.298.034 23.005 24.618 50.461 54.632m70.443 85.893c-1.155 6.439-2.21 9.358-4.795 13.26-4.62 6.975-10.561 10.775-21.034 13.454-15.678 4.01-34.942.482-44.495-8.148-4.091-3.696-8.327-11.91-9.135-17.713l-.564-4.053H296.297l-.574 3.2" fill-rule="evenodd"/></svg>