<svg xmlns="http://www.w3.org/2000/svg" width="512" height="512"><path d="M242.053 33.776c-11.644 2.819-25.598 12.696-34.027 24.085-2.887 3.901-7.632 13.085-10.728 20.764-.694 1.72-3.084 3.289-10.143 6.655-12.009 5.726-15.202 8.006-17.312 12.365-4.303 8.889-.107 18.909 9.31 22.232 5.183 1.829 7.69 1.172 22.152-5.805 14.384-6.938 20.628-12.036 23.948-19.549 6.189-14.007 7.953-17.205 11.693-21.204 6.025-6.441 11.131-8.799 19.054-8.799 7.923 0 13.029 2.358 19.054 8.799 3.721 3.978 5.082 6.44 11.76 21.269 3.245 7.206 9.308 12.4 21.142 18.109 28.988 13.986 44.02 30.139 52.986 56.936 4.599 13.746 5.995 24.513 6.848 52.796.85 28.177 1.693 38.791 4.358 54.854 3.959 23.861 11.74 42.892 25.153 61.521 6.013 8.351 8.63 10.693 13.404 11.999 6.426 1.756 14.479-1.573 17.39-7.19 3.976-7.673 3.09-12.528-4.107-22.498-10.137-14.042-15.769-26.841-19.068-43.333-3.03-15.147-3.795-23.697-4.701-52.543-1.279-40.706-4.596-58.6-14.98-80.81-11.902-25.459-31.969-45.175-59.917-58.87-7.339-3.596-9.976-5.327-10.642-6.983-3.045-7.573-7.824-16.82-10.706-20.715-8.58-11.593-22.425-21.298-34.418-24.125-6.776-1.597-20.825-1.577-27.503.04M61.867 48.187c-.47.167-1.903.535-3.185.817-3.508.773-8.045 5.219-9.671 9.476-1.578 4.131-1.245 9.084.878 13.076.661 1.242 88.682 89.686 195.603 196.544 177.767 177.662 194.72 194.369 198.124 195.258 12.201 3.187 22.929-7.541 19.742-19.742-.889-3.404-17.596-20.357-195.258-198.124C161.242 138.571 72.853 50.584 71.68 49.966c-2.25-1.185-8.367-2.294-9.813-1.779m59.45 142.177c-7.85 4-9.425 9.749-9.493 34.656-.06 22.162-2.152 42.549-6.067 59.115-3.477 14.715-11.298 29.424-23.835 44.825-12.487 15.34-14.433 18.26-16.327 24.496-5.069 16.687 2.657 34.375 18.381 42.086 3.328 1.632 8.119 3.35 10.647 3.819 2.623.486 20.992.852 42.781.852h38.184l.591 5.76c3.498 34.089 25.665 61.449 57.186 70.583 25.422 7.368 52.027 2.085 72.666-14.428 14.027-11.223 23.528-26.398 28.078-44.848 1.839-7.459 2.727-33.501 1.29-37.854-1.429-4.332-4.858-8.17-8.964-10.035-3.289-1.494-8.64-1.568-115.704-1.586-86.152-.014-112.494-.256-113.28-1.042-2.216-2.216-.793-4.986 8.486-16.509 15.223-18.905 22.331-31.104 27.568-47.314 7.144-22.116 9.614-40.597 10.435-78.089.511-23.349.481-23.978-1.325-27.519-3.833-7.513-13.818-10.779-21.298-6.968M303.45 405.797c-.789 7.704-3.764 15.384-8.563 22.11-11.653 16.33-31.487 23.444-51.264 18.385-18.686-4.779-33.39-21.803-35.155-40.703l-.501-5.376h96.055l-.572 5.584" fill-rule="evenodd"/></svg>