<svg xmlns="http://www.w3.org/2000/svg" width="512" height="512"><path d="M215.631 34.347c-.246 1.056-2.067 11.745-4.045 23.754l-3.598 21.834-8.207 2.288c-9.833 2.741-26.523 10.742-34.347 16.465-28.41 20.779-45.049 52.186-51.682 97.553-.984 6.731-1.417 19.417-1.726 50.557l-.412 41.572-23.807 31.745L64 351.86V400.213h384V351.86l-23.807-31.745-23.807-31.745-.4-41.572c-.44-45.683-1.149-53.748-6.565-74.689-12.283-47.486-41.837-79.45-83.754-90.586l-5.64-1.498-3.605-21.879c-1.983-12.034-3.807-22.743-4.053-23.799l-.447-1.92h-79.844l-.447 1.92m-30.781 401.92c13.503 26.697 40.986 43.5 71.15 43.5 30.164 0 57.647-16.803 71.15-43.5l2.265-4.48h-146.83l2.265 4.48" fill-rule="evenodd"/></svg>