<svg xmlns="http://www.w3.org/2000/svg" width="512" height="512"><path d="M241.493 48.673c-39.799 2.563-78.317 17.074-111.786 42.114-10.589 7.922-31.248 28.596-39.155 39.184-21.846 29.252-35.222 61.365-40.767 97.869-2.061 13.574-2.061 42.746 0 56.32 5.546 36.511 18.94 68.661 40.773 97.869 8.04 10.755 28.658 31.373 39.413 39.413 29.208 21.833 61.358 35.227 97.869 40.773 13.574 2.061 42.746 2.061 56.32 0 36.526-5.548 68.754-18.978 97.869-40.785 10.755-8.056 31.345-28.646 39.401-39.401 21.807-29.115 35.237-61.343 40.785-97.869 2.061-13.574 2.061-42.746 0-56.32-6.752-44.453-25.412-83.157-55.294-114.69-36.541-38.56-84.833-61.088-138.36-64.543-13.196-.852-12.782-.853-27.068.066m42.667 33.635c35.838 6.075 67.575 21.95 93.579 46.81 27.61 26.395 45.561 60.682 52.093 99.5 2.091 12.43 2.073 42.896-.033 55.115-9.878 57.299-44.492 104.256-95.788 129.946-48.421 24.25-107.601 24.25-156.022 0-51.464-25.774-86.214-73.029-95.815-130.297-2.121-12.648-2.121-42.116 0-54.764 10.541-62.873 51.565-113.601 110.675-136.854 13.047-5.132 28.757-8.823 46.938-11.027 6.667-.809 36.585.251 44.373 1.571m-35.413 46.834c-1.878.622-4.578 1.738-6.001 2.48-4.274 2.229-10.619 9.748-13.359 15.831-1.416 3.146-3.183 6.405-3.927 7.243-.743.837-5.215 3.41-9.939 5.716-21.297 10.4-32.116 23.717-38.138 46.948-1.224 4.72-1.985 12.67-2.901 30.293-2.02 38.867-5.228 49.129-21.141 67.623-9.015 10.476-9.269 10.949-8.911 16.564.381 5.984 3.092 10.309 7.946 12.679 3.401 1.661 5.452 1.694 103.411 1.694 68.539 0 100.697-.285 102.344-.907 5.701-2.154 9.659-8.158 9.651-14.639-.005-4.333-.78-5.607-10.099-16.595-5.079-5.989-8.307-10.836-11.27-16.925-5.937-12.201-7.467-20.734-8.946-49.913-.88-17.356-1.622-25.142-2.849-29.874-6.025-23.233-16.842-36.548-38.139-46.948-4.724-2.306-9.196-4.879-9.939-5.716-.744-.838-2.517-4.11-3.941-7.272-3.308-7.346-9.837-14.344-15.76-16.892-5.371-2.311-13.442-2.931-18.092-1.39m-32.034 225.055c-1.641 3.066 1.828 12.553 6.484 17.732 13.895 15.455 49.199 16.2 64.047 1.352 5.603-5.603 9.445-14.814 7.911-18.963l-.7-1.891h-38.397c-37.982 0-38.408.019-39.345 1.77" fill-rule="evenodd"/></svg>