<svg xmlns="http://www.w3.org/2000/svg" width="512" height="512"><path d="M242.347 33.786c-18.789 4.991-35.456 20.423-43.045 39.855l-2.707 6.932-11.05 5.58c-36.739 18.554-58.125 44.841-67.87 83.429-3.74 14.809-5.011 27.038-5.875 56.551-.835 28.51-2.164 41.875-5.587 56.183-4.732 19.786-10.8 30.432-32.404 56.856-7.556 9.243-9.314 13.898-9.352 24.775-.028 7.828.191 9 2.648 14.185 4.601 9.712 11.371 15.849 21.642 19.619l5.546 2.036H256c155.597 0 161.884-.061 166.4-1.593 10.156-3.446 17.884-10.329 22.473-20.014 2.482-5.239 2.698-6.39 2.67-14.233-.038-10.877-1.796-15.532-9.352-24.775-21.604-26.424-27.672-37.07-32.404-56.856-3.437-14.367-4.764-27.728-5.583-56.183-.426-14.784-1.192-30.144-1.703-34.133-4.838-37.782-19.632-67.644-43.171-87.141-9.835-8.147-16.478-12.443-28.873-18.672l-11.036-5.547-2.715-6.965c-7.661-19.653-24.409-35.049-43.445-39.941-6.412-1.648-20.62-1.62-26.914.052m-55.833 399.342c-2.055 2.055-1.646 3.893 2.183 9.833 11.22 17.4 27.857 29.306 48.354 34.604 11.72 3.028 26.178 3.028 37.898 0 20.497-5.298 37.134-17.204 48.354-34.604 3.829-5.94 4.238-7.778 2.183-9.833-1.197-1.197-8.674-1.341-69.486-1.341-60.812 0-68.289.144-69.486 1.341" fill-rule="evenodd"/></svg>