<svg xmlns="http://www.w3.org/2000/svg" width="512" height="512"><path d="M241.493 48.641c-40.089 2.714-78.33 17.113-111.711 42.06-10.583 7.909-31.238 28.586-39.213 39.255-30.675 41.036-45.787 91.107-42.1 139.484 2.19 28.738 8.636 52.952 20.616 77.44 10.978 22.442 21.97 37.76 40.123 55.912 18.158 18.158 33.484 29.156 55.912 40.119 29.139 14.245 57.731 20.784 90.88 20.784 33.149 0 61.741-6.539 90.88-20.784 22.428-10.963 37.754-21.961 55.912-40.119s29.156-33.484 40.119-55.912c14.245-29.139 20.784-57.731 20.784-90.88 0-12.216-.452-20.582-1.497-27.733-5.333-36.479-18.768-68.881-40.756-98.296-7.985-10.682-28.636-31.357-39.224-39.27-29.816-22.283-63.24-36.029-98.911-40.678-12.75-1.661-29.508-2.215-41.814-1.382m-61.306 104.532c10.338 20.886 18.933 37.974 19.1 37.974.166 0 2.915-1.985 6.108-4.41 6.952-5.281 18.772-11.047 27.565-13.447 25.103-6.852 53.827-1.607 73.645 13.447 3.193 2.425 5.942 4.41 6.108 4.41.167 0 8.776-17.117 19.132-38.038 13.632-27.537 19.13-37.861 19.919-37.397 4.031 2.371 14.567 10.956 21.516 17.532 22.811 21.588 39.599 50.386 47.434 81.369 1.306 5.163 2.648 11.595 2.982 14.294l.607 4.906h-85.411l.762 2.655c.419 1.46 1.168 6.356 1.664 10.88 2.314 21.07-3.905 43.122-17.099 60.632-7.921 10.512-16.702 17.877-29.072 24.384l-6.505 3.423 25.492 33.515c14.021 18.434 25.493 33.828 25.493 34.209 0 1.276-20.023 10.291-30.489 13.727-35.214 11.564-71.062 11.564-106.276 0-10.466-3.436-30.489-12.451-30.489-13.727 0-.381 11.472-15.775 25.493-34.209l25.492-33.515-6.505-3.417c-9.452-4.964-14.232-8.459-21.505-15.725-11.103-11.093-18.575-24.252-22.706-39.989-1.859-7.082-2.17-10.077-2.148-20.656.017-7.922.473-14.138 1.268-17.28l1.241-4.907H87.697l.607-4.906c.334-2.699 1.676-9.131 2.982-14.294 7.847-31.029 24.619-59.776 47.518-81.448 6.989-6.614 21.036-17.965 22.233-17.965.194 0 8.811 17.088 19.15 37.973m66 55.854c-22.169 4.804-37.974 24.355-37.974 46.973 0 13.119 4.67 24.3 14.078 33.709 18.962 18.962 48.456 18.962 67.418 0 24.831-24.831 15.773-66.104-17.257-78.626-6.358-2.411-19.779-3.462-26.265-2.056" fill-rule="evenodd"/></svg>