<svg xmlns="http://www.w3.org/2000/svg" width="512" height="512"><path d="M332.524 17.602c-36.886 7.913-66.967 38.378-74.874 75.831-2.271 10.757-2.16 12.855.844 15.859 3.04 3.04 6.042 3.198 15.893.836 20.394-4.889 35.794-13.423 49.628-27.499 14.676-14.933 22.536-29.746 26.747-50.407 1.512-7.421 1.563-8.628.472-11.239-.673-1.609-1.998-3.341-2.946-3.848-2.318-1.24-8.686-1.052-15.764.467m-176.791 94.773c-33.902 4.399-59.403 20.047-77.61 47.625-17.826 27.001-27.012 61.029-29.644 109.811-1.426 26.439.123 43.812 6.128 68.699 15.491 64.202 54.98 128.199 91.985 149.074 9.979 5.629 16.579 7.544 27.553 7.996 21.611.889 37.223-3.229 60.346-15.917 18.292-10.038 24.726-10.038 43.018 0 23.123 12.688 38.735 16.806 60.346 15.917 10.974-.452 17.574-2.367 27.553-7.996 37.005-20.875 76.494-84.872 91.985-149.074 6.066-25.141 7.567-42.286 6.096-69.609-2.295-42.592-8.44-70.403-21.234-96.101-8.279-16.626-21.362-32.466-34.362-41.6-21.43-15.058-50.203-21.821-77.482-18.213-5.772.764-20.172 3.855-32 6.871-41.79 10.653-43.213 10.652-84.917-.061-11.88-3.052-25.704-6.095-30.72-6.763-8.48-1.129-21.059-1.436-27.041-.659m35.414 34.719c4.928 1.205 15.402 3.904 23.276 5.998 19.469 5.177 28.867 6.69 41.577 6.694 13.508.004 20.869-1.305 50.238-8.929l23.575-6.12 14.507-.044c15.903-.049 21.732 1.049 33.217 6.256 28.926 13.116 46.004 44.326 52.114 95.238 1.896 15.798 2.595 45.63 1.341 57.173-3.13 28.79-12.057 57.854-26.866 87.467-19.097 38.187-43.689 66.921-61.835 72.251-4.133 1.215-6.097 1.281-14.184.481-12.495-1.236-20.356-3.882-34.441-11.593-6.459-3.537-14.792-7.495-18.518-8.798-6.203-2.169-7.819-2.368-19.148-2.368s-12.945.199-19.148 2.368c-3.726 1.303-12.059 5.261-18.518 8.798-14.085 7.711-21.946 10.357-34.441 11.593-8.087.8-10.051.734-14.184-.481-17.962-5.276-42.931-34.451-61.835-72.251C89.57 354.226 80.27 318.769 80.232 285.44c-.043-37.957 5.729-69.786 17.039-93.947 5.473-11.694 10.028-18.218 18.707-26.8 8.262-8.169 16.26-13.12 26.955-16.689 9.939-3.317 13.153-3.723 26.88-3.396 9.645.23 14.35.778 21.334 2.486m19.192 110.497c-6.71 3.049-12.209 11.794-15.901 25.289-1.551 5.67-1.879 9.213-1.934 20.907-.058 12.182.199 15.057 1.905 21.333 3.824 14.072 10.925 24.254 18.344 26.302 9.996 2.76 20.073-8.001 25.027-26.729 2.38-8.996 2.179-33.26-.35-42.407-3.469-12.543-8.976-21.219-15.621-24.609-4.064-2.073-7.046-2.095-11.47-.086m79.668.129c-6.521 3.446-12.012 12.184-15.437 24.566-1.519 5.492-1.825 9.013-1.873 21.501-.064 16.895.924 22.281 6.086 33.171 11.381 24.01 30.647 18.083 38.798-11.935 1.667-6.142 1.936-9.153 1.896-21.236-.052-15.498-1.397-22.634-6.197-32.894-5.782-12.355-14.973-17.558-23.273-13.173" fill-rule="evenodd"/></svg>