<svg xmlns="http://www.w3.org/2000/svg" width="512" height="512"><path d="M334.08 48.192c-.469.164-1.88.524-3.134.8-5.411 1.188-10.909 8.752-10.909 15.008 0 3.659 2.447 9.166 5.195 11.693 4.847 4.455 5.515 4.52 46.147 4.52h37.78l-19.154 19.168c-10.534 10.543-18.979 19.307-18.766 19.477.213.169 1.732 1.202 3.374 2.295 4.415 2.936 12.572 10.994 15.571 15.38 1.444 2.112 2.77 4.015 2.946 4.228.177.213 8.946-8.232 19.489-18.766l19.168-19.154.018 37.966c.018 35.087.139 38.225 1.595 41.38 1.906 4.131 4.608 6.73 8.824 8.492 8.436 3.525 18.538-1.465 21.159-10.451.633-2.169.841-21.646.663-62.041-.254-57.561-.298-58.947-2.007-61.855-.961-1.636-3.394-4.132-5.406-5.547l-3.659-2.572-59.02-.16c-32.461-.088-59.405-.026-59.874.139M96.564 112.694c-21.33 2.81-38.834 17.548-46.029 38.755l-2.322 6.844v259.414l2.322 6.844c6.058 17.856 19.021 30.811 36.932 36.911l6.826 2.325h259.414l6.826-2.325c17.911-6.1 30.874-19.055 36.932-36.911l2.322-6.844V288.853c0-138.829.2-132.366-4.421-142.899l-2.044-4.659-79.968 79.936c-56.399 56.378-80.902 80.323-83.14 81.246a15.707 15.707 0 0 1-20.691-20.691c.923-2.238 24.853-26.726 81.191-83.086l79.883-79.914-2.472-1.271c-1.359-.7-5.16-2.179-8.445-3.287l-5.973-2.015-125.867-.116c-69.227-.063-128.301.205-131.276.597" fill-rule="evenodd"/></svg>