<svg xmlns="http://www.w3.org/2000/svg" width="512" height="512"><path d="M324.499 81.439c-12.49 3.027-26.097 13.895-31.323 25.018l-2.503 5.33H47.787v32.426h242.886l2.503 5.33c3.706 7.888 13.428 17.448 21.704 21.34 8.915 4.193 14.028 5.202 23.781 4.693 9.724-.509 15.807-2.535 24.195-8.058 6.865-4.521 11.541-9.766 15.641-17.545l3.036-5.76h82.68v-32.426h-82.68l-3.243-6.187c-9.903-18.891-32.903-29.222-53.791-24.161M164.39 209.565c-12.511 3.029-24.656 12.543-30.68 24.035l-3.243 6.187h-82.68v32.426h82.68l3.036 5.76c4.1 7.779 8.776 13.024 15.641 17.545 8.028 5.286 14.515 7.518 23.414 8.054 15.148.913 26.869-3.542 37.362-14.2 4.3-4.367 7.221-8.248 8.904-11.829l2.503-5.33h242.886v-32.426H221.327l-2.503-5.33c-3.701-7.877-13.425-17.443-21.704-21.351-3.52-1.661-8.435-3.442-10.922-3.957-6.048-1.251-15.678-1.068-21.808.416m160.109 127.874c-12.49 3.027-26.097 13.895-31.323 25.018l-2.503 5.33H47.787v32.426h242.886l2.503 5.33c3.706 7.888 13.428 17.448 21.704 21.34 8.915 4.193 14.028 5.202 23.781 4.693 9.724-.509 15.807-2.535 24.195-8.058 6.865-4.521 11.541-9.766 15.641-17.545l3.036-5.76h82.68v-32.426h-82.68l-3.203-6.097c-9.955-18.944-32.96-29.308-53.831-24.251" fill-rule="evenodd"/></svg>