<svg xmlns="http://www.w3.org/2000/svg" width="512" height="512"><path d="m255.147 112.208-239.36 95.836 4.693 2.089c2.581 1.149 42.648 19.257 89.037 40.239 46.388 20.983 84.862 38.033 85.497 37.889.635-.143 55.764-48.837 122.508-108.208 66.744-59.37 123.118-109.482 125.276-111.36l3.922-3.413-3.413 3.92c-1.878 2.157-51.99 58.531-111.36 125.277-59.371 66.745-108.064 121.872-108.207 122.503-.143.631 17.095 39.489 38.307 86.35 21.211 46.862 39.329 86.905 40.261 88.985l1.696 3.782 95.891-239.727c52.74-131.85 95.892-239.824 95.892-239.942 0-.118-.288-.179-.64-.136-.352.044-108.352 43.206-240 95.916" fill-rule="evenodd"/></svg>