<svg xmlns="http://www.w3.org/2000/svg" width="512" height="512"><path d="M153.625 81.565c-3.9 1.691-5.834 3.518-7.796 7.361-1.569 3.074-1.616 7.92-1.616 167.074 0 161.451.026 163.957 1.683 167.207 2.016 3.951 5.129 6.551 9.313 7.779 1.983.582 13.031.81 30.953.639l27.869-.265 3.278-2.615c1.803-1.438 4.046-4.126 4.984-5.973 1.687-3.319 1.71-5.277 1.934-164.212.16-113.493-.047-162.175-.702-165.342-1.077-5.199-3.924-8.971-8.558-11.335-3.052-1.557-5.125-1.667-30.826-1.636-22.6.027-28.087.264-30.516 1.318m143.225.36c-4.439 2.346-7.279 6.124-8.347 11.105-1.318 6.145-1.309 319.836.009 325.982 1.078 5.028 4.844 9.866 9.047 11.622 2.128.889 9.066 1.148 30.307 1.134 24.899-.017 27.875-.169 30.961-1.586 4.06-1.865 5.879-3.768 7.647-7.999 1.166-2.79 1.311-21.381 1.294-166.369-.018-156.563-.083-163.367-1.586-166.641-1.865-4.06-3.768-5.879-7.999-7.647-2.614-1.092-7.768-1.306-30.689-1.275-25.465.035-27.781.161-30.644 1.674" fill-rule="evenodd"/></svg>