<svg xmlns="http://www.w3.org/2000/svg" width="512" height="512"><path d="M169.387 81.555c-3.401 1.769-6.248 4.489-7.975 7.618-1.3 2.357-1.412 15.516-1.412 165.974 0 89.877.294 164.462.652 165.744.904 3.228 5.594 8.358 8.907 9.743 3.377 1.411 24.571 1.595 28.145.245 3.416-1.29 7.052-4.933 8.892-8.906 1.52-3.284 1.58-9.543 1.58-165.973s-.06-162.689-1.58-165.973c-1.84-3.973-5.476-7.616-8.892-8.906-3.926-1.483-25.259-1.156-28.317.434m144.213-.158c-3.646 1.678-6.35 4.499-8.185 8.54-1.534 3.379-1.591 9.271-1.591 166.063 0 156.43.06 162.689 1.58 165.973 1.84 3.973 5.476 7.616 8.892 8.906 3.574 1.35 24.768 1.166 28.145-.245 4.293-1.794 8-6.618 9.075-11.809.667-3.224.872-50.966.711-165.385-.224-158.935-.247-160.893-1.934-164.212-.938-1.847-3.181-4.535-4.983-5.973l-3.276-2.615-12.937-.211c-9.571-.156-13.603.096-15.497.968" fill-rule="evenodd"/></svg>