<svg xmlns="http://www.w3.org/2000/svg" width="512" height="512"><path d="M176.936 48.721c-29.423 4.916-50.565 37.83-48.684 75.795 1.063 21.461 8.267 38.655 21.867 52.187 11.28 11.223 22.664 15.946 36.334 15.072 30.221-1.932 53.311-33.066 53.311-71.882 0-30.137-13.99-56.157-35.972-66.902-9.6-4.693-17.146-5.892-26.856-4.27M320 48.693c-7.476 1.268-18.028 6.954-24.855 13.394-14.918 14.073-22.909 34.237-22.909 57.806 0 38.816 23.09 69.95 53.311 71.882 13.846.885 24.982-3.829 36.727-15.546 8.351-8.33 13.019-15.965 17.125-28.005 13.679-40.105-4.581-87.438-37.739-97.823-6.51-2.04-15.516-2.75-21.66-1.708M60.821 145.474c-19.485 5.478-34.237 22.07-41.748 46.953-2.14 7.089-2.321 8.86-2.366 23.04-.039 12.408.258 16.507 1.546 21.333 2.617 9.81 6.357 18.356 11.267 25.747 17.083 25.713 45.029 32.726 68.325 17.145 31.554-21.105 39.884-74.492 17.114-109.68-6.962-10.76-17.009-19.189-27.795-23.322-6.279-2.406-19.878-3.034-26.343-1.216m367.778.055c-34.924 9.405-54.075 57.821-39.554 99.994 5 14.524 13.953 26.706 25.11 34.169 30.721 20.546 67.597 1.171 79.199-41.612 1.722-6.35 1.963-9.167 1.929-22.613-.035-14.196-.214-15.943-2.356-23.04-7.583-25.123-22.598-41.86-42.114-46.943-6.038-1.573-16.284-1.552-22.214.045m-183.266 46.987c-19.143 2.834-31.998 9.472-44.867 23.168-8.296 8.831-15.719 19.375-26.879 38.183-13.238 22.308-16.166 26.603-22.896 33.574-7.137 7.393-15.861 13.913-33.353 24.928-29.186 18.379-39.957 29.093-47.131 46.884-4.637 11.498-5.789 17.878-5.701 31.574.07 10.817.366 13.317 2.355 19.879 6.225 20.543 18.671 36.162 36.425 45.716 10.273 5.528 18.011 7.335 31.114 7.265 13.091-.07 23.268-1.521 51.087-7.284 39.123-8.106 47.141-9.31 65.393-9.824 22.209-.626 31.013.535 77.738 10.25 25.399 5.28 36.053 6.774 48.982 6.869 12.817.094 18.333-1.086 29.013-6.207 18.867-9.047 31.825-24.753 38.511-46.678 2.099-6.884 2.322-8.88 2.322-20.84 0-11.922-.228-13.984-2.312-20.906-3.319-11.025-8.04-20.387-13.987-27.734-7.743-9.567-14.866-15.241-35.627-28.382-17.75-11.235-25.146-16.632-32.286-23.559-7.304-7.087-11.246-12.568-20.643-28.699-14.329-24.599-22.871-36.692-33.186-46.982-7.996-7.977-10.663-10.053-17.253-13.429-10.411-5.334-19.242-7.417-33.165-7.822-6.102-.178-12.246-.153-13.654.056" fill-rule="evenodd"/></svg>