<svg xmlns="http://www.w3.org/2000/svg" width="512" height="512"><path d="M174.371 48.699c-20.497 3.527-36.127 20.551-43.519 47.4-2.147 7.798-2.323 9.658-2.335 24.648-.013 17.583 1.163 25.393 5.94 39.435 6.864 20.178 21.524 38.911 36.279 46.36 14.142 7.139 30.25 6.915 43.988-.61 6.853-3.755 16.364-14.182 20.928-22.946 8.062-15.48 10.561-27.732 9.857-48.34-.512-14.97-1.747-22.189-5.885-34.379-7.123-20.987-21.178-39.023-36.567-46.926-8.099-4.159-20.154-6.109-28.686-4.642m149.469-.051c-22.667 3.109-44.175 25.836-52.881 55.88-6.45 22.258-6.469 47.193-.051 66.065 5.101 14.997 16.069 29.697 26.368 35.339 17.491 9.581 38 7.243 54.117-6.17 18.807-15.651 30.931-43.104 32.334-73.218 1.048-22.486-3.982-42.077-14.636-57.007-11.196-15.691-27.678-23.299-45.251-20.889M187.547 81.534c9.805 4.08 20.233 20.514 24.261 38.233 2.345 10.311 2.532 27.5.387 35.54-1.88 7.05-5.572 14.962-8.717 18.681-2.678 3.167-8.125 6.028-11.478 6.028-5.881 0-14.231-6.61-20.392-16.144-12.713-19.669-15.112-53-5.16-71.673 5.573-10.456 12.811-14.115 21.099-10.665m151.047 1.827c4.11 3.296 8.298 10.269 10.665 17.759 1.63 5.159 1.888 7.892 1.887 20.053 0 12.051-.29 15.187-2.011 21.76-2.556 9.757-6.467 18.207-11.504 24.852-12.22 16.125-24.719 16.021-33.191-.275-4.649-8.942-6.111-15.895-6.064-28.843.078-21.425 5.847-37.883 17.766-50.682 7.719-8.291 15.802-9.955 22.452-4.624M55.893 153.095C35.86 157.7 22.28 173.224 17.459 197.029c-2.159 10.663-1.395 29.133 1.681 40.624 4.42 16.513 12.537 32.672 22.716 45.227 17.432 21.5 41.304 32.481 61.397 28.243 18.964-4 32.706-18.338 38.52-40.19 2.442-9.178 2.692-28.345.502-38.536-4.097-19.07-12.739-37.61-23.604-50.637-5.013-6.011-14.677-15.054-19.962-18.679-5.157-3.538-15.065-8.08-20.498-9.397-6.682-1.621-16.683-1.885-22.318-.589m385.28-.658c-10.309 1.505-19.927 5.179-27.873 10.646-5.819 4.004-16.266 13.847-20.652 19.457-11.119 14.225-18.907 31.165-22.923 49.857-2.19 10.191-1.94 29.358.502 38.536 5.814 21.852 19.556 36.19 38.52 40.19 10.941 2.307 20.574.687 33.706-5.669 25.235-12.214 45.914-42.169 52.107-75.481 1.944-10.454 1.307-29.701-1.279-38.674-2.26-7.841-6.549-16.42-11.067-22.136-9.41-11.903-26.464-18.854-41.041-16.726M75.52 186.777c14.254 6.838 28.133 25.593 33.862 45.756 2.599 9.149 2.801 26.507.395 33.835-4.271 13.004-13.199 16.59-25.989 10.439-22.452-10.799-39.601-47.052-34.825-73.621 3.041-16.918 12.855-22.981 26.557-16.409m378.206-.78c7.568 4.614 11.728 19.721 9.637 34.996-3.294 24.058-17.798 47.197-34.97 55.788-12.618 6.312-21.889 2.623-26.17-10.413-2.406-7.328-2.204-24.686.395-33.835 7.35-25.87 27.596-48.218 43.675-48.209 3.154.002 5.592.55 7.433 1.673m-212.169 39.308c-15.504 3.246-28.272 10.941-39.852 24.018-5.91 6.673-17.068 22.752-25.952 37.397-7.4 12.198-10.687 16.522-17.619 23.179-5.586 5.364-10.493 8.763-37.982 26.305-28.664 18.292-39.932 37.361-38.835 65.716.633 16.347 5.009 27.899 15.116 39.907 12.553 14.913 27.657 21.883 47.354 21.853 15.244-.023 21.346-1.44 64.962-15.085 42.457-13.282 53.509-13.125 99.361 1.411 38.23 12.12 44.395 13.528 59.677 13.631 12.185.081 18.155-1.185 27.753-5.887 11.873-5.816 22.782-16.986 28.971-29.665 4.108-8.415 5.623-14.743 6.174-25.783.564-11.292-.942-20.04-5.183-30.094-6.929-16.431-16.032-25.255-43.777-42.442-27.515-17.043-32.004-21.338-46.339-44.326-24.893-39.919-36.333-51.357-58.479-58.467-4.859-1.56-8.362-1.969-18.774-2.189-7.04-.148-14.499.086-16.576.521m23.46 31.622c13.977 2.56 19.467 8.709 49.695 55.659 7.116 11.052 16.966 21.624 27.356 29.358 3.806 2.834 14.261 9.712 23.232 15.284 25.785 16.016 30.889 21.714 33.156 37.012 1.922 12.971-4.376 26.909-15.175 33.58-10.368 6.405-22.913 5.258-55.174-5.044-43.306-13.829-54.884-16.187-75.947-15.465-19.05.653-27.613 2.596-68.267 15.496-38.009 12.06-49.763 11.963-61.871-.513-9.284-9.567-11.548-25.611-5.513-39.059 3.811-8.493 10.396-13.932 35.811-29.583 22.895-14.099 36.418-26.928 47.729-45.281 17.715-28.745 28.797-43.061 37.096-47.925 6.853-4.016 17.687-5.384 27.872-3.519" fill-rule="evenodd"/></svg>