<svg xmlns="http://www.w3.org/2000/svg" width="512" height="512"><path d="M418.04 48.698c-8.376 1.232-13.954 4.565-24.12 14.416-10.518 10.193-12.735 13.238-14.02 19.255-1.009 4.72-.043 11.19 2.224 14.903 1.969 3.224 28.313 29.742 31.765 31.975 6.628 4.288 16.295 4.299 23 .027 1.652-1.053 7.061-6.091 12.02-11.194 10.077-10.373 12.945-15.258 14.591-24.852 3.5-20.412-11.762-41.293-32.567-44.558-6.146-.965-6.138-.965-12.893.028m-68.6 60.804c-3.448 1.663-30.562 28.41-141.255 139.344C132.841 324.354 70.193 387.477 68.968 389.12c-1.225 1.643-6.378 12.971-11.451 25.173-8.554 20.576-9.223 22.594-9.217 27.797.005 4.651.447 6.401 2.591 10.24 4.305 7.708 13.462 12.652 21.415 11.562 4.729-.649 46.694-17.963 50.574-20.868 1.643-1.229 64.869-63.995 140.503-139.48 152.534-152.231 141.692-140.565 140.901-151.625-.22-3.072-1.079-6.927-1.909-8.566-2.182-4.307-30.023-31.796-34.162-33.729-1.877-.877-5.909-1.727-8.96-1.887-4.509-.238-6.344.092-9.813 1.765" fill-rule="evenodd"/></svg>