<svg xmlns="http://www.w3.org/2000/svg" width="512" height="512"><path d="M426.971 48.676c-9.041 1.254-13.044 3.981-28.443 19.371-15.543 15.534-16.765 17.443-16.034 25.05.544 5.664 2.863 8.734 17.204 22.782 13.177 12.908 15.543 14.323 22.786 13.627 5.722-.55 8.833-2.926 23.462-17.916 13.361-13.69 15.762-17.355 17.488-26.693 3.824-20.687-14.835-39.223-36.463-36.221m-67.269 61.176c-.927.235-2.847 1.257-4.267 2.272-1.42 1.015-65.409 64.81-142.198 141.767L73.62 393.813l-12.42 24.32c-6.832 13.376-12.675 25.699-12.987 27.384-.729 3.95.76 9.414 3.431 12.588 2.566 3.049 8.787 6.094 12.56 6.148 1.934.027 10.464-3.814 27.956-12.587l25.173-12.626 140.336-139.947c77.185-76.97 141.202-141.056 142.259-142.412 2.494-3.197 3.363-9.069 2.017-13.619-.83-2.807-3.818-6.351-14.403-17.081-15.818-16.036-19.59-18.221-27.84-16.129" fill-rule="evenodd"/></svg>