<svg xmlns="http://www.w3.org/2000/svg" width="512" height="512"><path d="M414.293 48.95c-2.346.6-5.543 1.76-7.104 2.579-2.446 1.283-36.039 32.939-36.63 34.519-.118.315 12.263 13.046 27.514 28.292l27.729 27.719 2.441-2.55c1.342-1.402 8.854-9.173 16.693-17.269 16.816-17.368 18.771-20.585 18.794-30.933.022-10.033-1.692-12.936-16.03-27.152-8.187-8.117-13.383-12.582-15.948-13.705-5.093-2.228-12.213-2.84-17.459-1.5M202.854 253.769 47.787 409.449v54.764l27.52-.045 27.52-.045 155.547-155.048 155.548-155.048-28.001-27.969L357.92 98.09 202.854 253.769" fill-rule="evenodd"/></svg>