<svg xmlns="http://www.w3.org/2000/svg" width="512" height="512"><path d="M324.045 81.564c-8.352 1.51-15.415 3.881-23.15 7.774-25.076 12.619-41.561 34.444-47.571 62.982-1.498 7.114-1.285 25.885.377 33.309 3.334 14.885 10.595 29.395 20.337 40.64 10.479 12.097 27.496 22.535 43.829 26.885 7.434 1.98 10.237 2.279 21.76 2.322 10.94.04 14.525-.278 20.742-1.843 10.624-2.673 19.36-6.521 28.14-12.394 13.716-9.174 23.875-20.93 30.862-35.712 9.385-19.855 11.151-41.051 5.141-61.701-8.117-27.89-28.923-49.719-56.299-59.068-13.034-4.451-30.307-5.7-44.168-3.194m-181.487 31.1c-22.344 3.095-42.463 16.816-53.556 36.527-10.278 18.263-11.639 42.706-3.47 62.348C96.5 237.912 123.419 256 151.701 256c34.014 0 62.524-22.952 70.72-56.934 2.026-8.397 1.791-23.483-.501-32.239-8.172-31.218-34.358-52.644-66.613-54.505-3.99-.23-9.726-.076-12.749.342M130.56 277.738c-51.54 7.614-94.411 30.302-108.676 57.513-5.206 9.93-5.671 13.252-5.671 40.557v24.415l74.88-.218 74.88-.218.5-14.934c.475-14.194.648-15.362 3.486-23.601 8.28-24.04 26.388-44.001 54.229-59.777 4.797-2.718 8.733-5.176 8.747-5.463.037-.777-12.125-6.17-20.882-9.259-10.281-3.627-25.921-7.394-37.279-8.978-11.107-1.549-33.847-1.568-44.214-.037m186.245 12.001c-34.733 4.924-68.741 17.144-94.124 33.823-9.302 6.112-23.564 19.877-28.573 27.578-1.83 2.812-4.19 7.251-5.246 9.865-4.285 10.609-4.542 13.031-4.542 42.801v27.981h311.467V404.19c0-24.479-.187-28.325-1.649-34.043-1.745-6.824-5.44-14.856-9.669-21.022-6.536-9.528-20.899-22.135-34.524-30.303-20.27-12.151-50.465-22.781-79.408-27.954-13.179-2.355-40.964-2.939-53.732-1.129" fill-rule="evenodd"/></svg>