<svg xmlns="http://www.w3.org/2000/svg" width="512" height="512"><path d="M241.92 48.669c-64.561 4.115-123.152 38.433-159.962 93.693-26.292 39.469-38.649 92.321-32.455 138.811 6.326 47.479 26.376 88.354 59.673 121.651 33.526 33.526 73.443 53.027 122.504 59.846 4.224.587 15.168 1.068 24.32 1.068 9.152 0 20.096-.481 24.32-1.068 49.001-6.811 88.952-26.339 122.482-59.868 33.529-33.53 53.057-73.481 59.868-122.482 1.376-9.9 1.376-38.74 0-48.64-6.778-48.766-26.328-88.904-59.45-122.057-11.819-11.831-20.651-19.077-33.662-27.617-37.561-24.655-81.952-36.249-127.638-33.337m42.24 33.635c37.002 6.256 69.634 23.067 96.051 49.485 26.524 26.524 43.051 58.676 49.593 96.478 2.077 11.998 2.077 43.468 0 55.466-3.099 17.907-9.21 36.585-17.088 52.225l-3.095 6.144-10.467-5.463c-60.958-31.818-146.391-19.126-186.43 27.696-12.614 14.751-20.826 31.161-24.38 48.718l-1.055 5.215-9.378-4.729c-14.705-7.417-15.152-7.757-14.483-11.004 1.286-6.254 6.539-20.582 10.28-28.045 6.711-13.388 13.404-22.379 26.143-35.12 10.973-10.973 11.776-11.996 11.776-14.998 0-6.101-6.064-9.046-24.072-11.691-13.35-1.961-40.128-1.298-52.098 1.29-11.307 2.445-22.579 6.32-31.684 10.891-5.953 2.989-7.744 3.565-8.316 2.674-1.714-2.668-7.503-18.872-9.552-26.736-4.3-16.5-5.186-24.154-5.186-44.8 0-14.347.373-21.357 1.477-27.733 6.51-37.622 23.222-70.158 49.567-96.504 13.075-13.074 29.841-25.258 45.702-33.213 15.18-7.613 37.881-14.652 53.362-16.548 4.224-.517 8.64-1.104 9.813-1.304 4.883-.835 35.842.308 43.52 1.606m25.058 63.111c-25.452 4.859-45.257 22.8-52.391 47.462-2.771 9.578-3.226 26.036-1.013 36.67 3.603 17.314 11.577 31.898 23.856 43.629 7.826 7.477 15.875 12.473 25.483 15.817 6.03 2.099 7.953 2.35 18.26 2.383 9.863.032 12.38-.249 17.494-1.956 17.035-5.685 30.721-16.967 40.595-33.466 4.096-6.844 6.93-13.944 9.457-23.692 2.677-10.326 2.667-27.388-.022-37.275-6.628-24.377-24.112-41.963-48.324-48.61-7.035-1.932-25.525-2.464-33.395-.962m-152.631 26.226c-24.109 2.104-43.383 18.831-49.516 42.972-2.165 8.524-2.003 22.647.364 31.574 5.029 18.974 17.909 35.687 33.648 43.663 5.875 2.977 16.092 5.405 22.68 5.391 31.321-.071 58.306-30.502 58.254-65.694-.025-17.155-5.169-29.869-16.772-41.456-12.931-12.912-28.577-18.202-48.658-16.45" fill-rule="evenodd"/></svg>