<svg xmlns="http://www.w3.org/2000/svg" width="512" height="512"><path d="M319.798 81.504c-51.549 9.759-78.317 60.399-60.349 114.172 4.917 14.716 11.972 25.674 24.278 37.711 15.541 15.2 32.132 22.206 52.486 22.164 12.291-.025 19.683-1.729 31.132-7.177 8.588-4.087 13.506-7.647 21.887-15.844 13.666-13.368 21.49-27.412 26.384-47.357 1.658-6.759 1.997-10.446 2.04-22.186.044-12.139-.226-15.139-1.955-21.76-7.708-29.519-29.409-51.314-58.245-58.499-9.516-2.371-28.362-2.983-37.658-1.224M140.8 112.374c-13.118.989-29.417 7.575-39.037 15.776-10.857 9.256-18.618 21.798-22.084 35.69-2.297 9.208-2.112 26.735.391 36.955 6.531 26.663 24.934 48 48.35 56.056 21.894 7.533 45.408 1.247 63.62-17.007 15.733-15.77 23.814-35.542 23.842-58.333.025-20.36-6.007-35.525-19.615-49.318-8.163-8.273-17.858-14.016-29.261-17.331-4.175-1.213-19.297-3.26-21.513-2.911-.469.073-2.581.264-4.693.423m208.64 1.246c14.65 3.1 28.498 15.541 33.888 30.447 2.538 7.018 3.106 24.079 1.105 33.153-5.366 24.326-23.288 43.514-43.315 46.376-20.614 2.946-43.028-13.776-51.38-38.332-2.771-8.145-4.214-19.291-3.603-27.824 2.281-31.837 29.826-50.904 63.305-43.82m-192 31.753c9.899 2.644 18.412 9.615 22.845 18.705 11.935 24.473-6.607 62.03-31.402 63.609-11.575.737-23.012-6.203-31.287-18.985-8.751-13.518-9.973-34.872-2.704-47.275 4.509-7.694 12.163-13.522 20.809-15.846 5.913-1.589 16.201-1.687 21.739-.208m-34.574 134.904c-31.945 4.551-60.385 18.518-80.088 39.334-8.192 8.654-12.412 14.64-17.558 24.908-7.91 15.781-10.635 29.017-7.757 37.682 2.154 6.486 7.107 12.261 12.995 15.152l4.955 2.434 59.734.259c41.607.18 60.708-.026 62.947-.679 4.03-1.175 9.055-5.522 10.566-9.14 2.363-5.655 1.176-12.391-2.954-16.757-5.217-5.513-2.083-5.233-61.386-5.5-34.871-.158-53.973-.543-53.973-1.088 0-1.333 5.931-12.783 8.814-17.015C70.236 333.608 91.1 320.3 114.58 314.518c26.325-6.482 57.698-4.659 81.496 4.737 3.598 1.421 7.828 2.452 10.06 2.452 11.775 0 19.147-12.032 13.949-22.768-.979-2.023-2.735-4.429-3.9-5.346-4.517-3.553-23.26-9.749-37.931-12.539-9.879-1.879-44.266-2.361-55.388-.777m192.441 8.687c-33.411 3.488-61.713 13.82-87.295 31.865-8.585 6.056-23.123 20.26-29.69 29.008-11.623 15.485-21.806 40.185-22.005 53.376-.093 6.117.192 7.44 2.696 12.531 3.474 7.064 9.385 12.611 15.564 14.607 4.091 1.321 15.408 1.436 141.702 1.436 136.522 0 137.282-.01 141.958-1.759 5.977-2.236 11.839-7.873 14.835-14.267 1.996-4.258 2.282-5.916 2.238-12.988-.043-7.033-.469-9.345-3.223-17.459-6.907-20.357-15.828-34.648-31.214-50.008-24.105-24.062-52.664-38.043-91.44-44.765-7.797-1.352-45.706-2.456-54.126-1.577m47.786 33.065c42.428 6.664 76.08 27.892 91.758 57.883 3.652 6.985 7.656 16.944 7.656 19.041 0 1.106-15.522 1.26-126.737 1.26H209.034l.541-2.346c1.097-4.759 7.569-18.524 11.681-24.847 9.279-14.266 27.503-29.539 45.409-38.055 17.41-8.281 29.768-11.481 55.895-14.475 5.882-.674 33 .356 40.533 1.539" fill-rule="evenodd"/></svg>