<svg xmlns="http://www.w3.org/2000/svg" width="512" height="512"><path d="M236.496 33.796c-22.568 3.783-44.658 15.676-61.255 32.978-8.439 8.798-13.774 16.243-19.013 26.532-7.968 15.65-12.017 32.635-12.011 50.379.014 44.041 24.57 82.819 64.423 101.737 53.688 25.486 119.229 3.233 146.608-49.778 13.735-26.593 16.341-57.33 7.283-85.885-12.456-39.267-47.315-69.452-87.786-76.015-9.914-1.608-28.499-1.583-38.249.052m-6.949 255.99c-36.866 4.42-77.204 16.669-108.312 32.892-36.774 19.178-60 42.314-69.063 68.796-3.927 11.473-4.421 17.901-4.182 54.401L48.213 480h415.574v-36.267c0-27.044-.292-37.677-1.147-41.813-6.42-31.049-30.024-57.258-70.968-78.798-31.552-16.599-72.808-29.108-110.072-33.374-14.008-1.604-38.505-1.586-52.053.038" fill-rule="evenodd"/></svg>