<svg xmlns="http://www.w3.org/2000/svg" width="512" height="512"><path d="M268.373 33.781c-31.706 5.581-58.771 25.192-72.903 52.826-16.093 31.469-15.627 70.546 1.264 105.912 10.979 22.987 31.442 44.204 52.279 54.206 35.12 16.859 73.134 10.32 103.384-17.784 32.558-30.247 47.28-79.303 36.22-120.696-4.665-17.459-12.237-31.006-24.583-43.979-15.943-16.753-34.256-26.53-57.159-30.519-9.402-1.638-29.102-1.62-38.502.034M27.959 216.732c-9.387 2.872-14.264 12.817-10.593 21.602 1.554 3.718 6.605 8.005 10.745 9.12 2.29.616 22.269.835 61.665.676l58.277-.237 3.85-2.263c10.159-5.973 10.523-20.445.676-26.962l-3.546-2.348-59.37-.151c-32.653-.084-60.42.17-61.704.563m234.014 72.661c-61.656 6.29-117.937 35.837-150.136 78.82-11.27 15.044-18.971 29.73-24.916 47.51-8.118 24.28-8.693 37.597-2.11 48.83 3.068 5.236 9.977 11.165 15.71 13.481l4.866 1.966h365.226l4.904-1.98c2.705-1.093 6.93-3.832 9.423-6.111 13.207-12.07 14.045-28.337 3.065-59.483-19.274-54.669-67.218-96.426-132.017-114.982-11.439-3.276-30.694-6.878-43.545-8.145-10.366-1.023-40.062-.967-50.47.094" fill-rule="evenodd"/></svg>