<svg xmlns="http://www.w3.org/2000/svg" width="512" height="512"><path d="M268.373 33.781c-31.706 5.581-58.771 25.192-72.903 52.826-16.093 31.469-15.627 70.546 1.264 105.912 10.979 22.987 31.442 44.204 52.279 54.206 35.12 16.859 73.134 10.32 103.384-17.784 32.558-30.247 47.28-79.303 36.22-120.696-4.665-17.459-12.237-31.006-24.583-43.979-15.943-16.753-34.256-26.53-57.159-30.519-9.402-1.638-29.102-1.62-38.502.034M79.769 162.5c-1.926 1.155-4.359 3.678-5.547 5.752-2.078 3.63-2.12 4.079-2.381 25.616l-.265 21.921-21.921.266-21.922.265-3.971 2.335c-6.561 3.857-9.381 12.534-6.396 19.679 1.524 3.647 6.547 7.968 10.557 9.081 1.831.509 11.982.898 23.49.9l20.267.005.005 20.267c.002 11.508.391 21.659.9 23.49 1.113 4.01 5.434 9.033 9.081 10.557 6.023 2.516 13.239.956 17.768-3.843 4.217-4.468 4.538-6.505 4.608-29.299l.065-21.067 21.973-.266c21.617-.261 22.034-.3 25.684-2.39 10.252-5.869 10.696-20.56.817-27.101l-3.545-2.348-22.425-.265-22.425-.264-.253-22.414-.253-22.413-2.348-3.545c-4.582-6.92-14.465-9.175-21.563-4.919m182.204 126.893c-61.656 6.29-117.937 35.837-150.136 78.82-11.27 15.044-18.971 29.73-24.916 47.51-8.118 24.28-8.693 37.597-2.11 48.83 3.068 5.236 9.977 11.165 15.71 13.481l4.866 1.966h365.226l4.904-1.98c2.705-1.093 6.93-3.832 9.423-6.111 13.207-12.07 14.045-28.337 3.065-59.483-19.274-54.669-67.218-96.426-132.017-114.982-11.439-3.276-30.694-6.878-43.545-8.145-10.366-1.023-40.062-.967-50.47.094" fill-rule="evenodd"/></svg>