<svg xmlns="http://www.w3.org/2000/svg" width="512" height="512"><path d="M241.92 48.669c-64.561 4.115-123.152 38.433-159.962 93.693-26.292 39.469-38.649 92.321-32.455 138.811 6.326 47.479 26.376 88.354 59.673 121.651 33.526 33.526 73.443 53.027 122.504 59.846 4.224.587 15.168 1.068 24.32 1.068 9.152 0 20.096-.481 24.32-1.068 49.001-6.811 88.952-26.339 122.482-59.868 33.529-33.53 53.057-73.481 59.868-122.482 1.376-9.9 1.376-38.74 0-48.64-6.778-48.766-26.328-88.904-59.45-122.057-11.819-11.831-20.651-19.077-33.662-27.617-37.561-24.655-81.952-36.249-127.638-33.337m29.578 96.747c27.348 5.251 49.093 25.733 56.251 52.984 2.513 9.566 2.511 25.437-.005 34.987-5.461 20.733-19.153 37.709-38.037 47.161-11.921 5.967-26.703 8.582-39.533 6.995-35.417-4.382-61.659-32.074-63.858-67.383-1.822-29.267 14.884-57.133 41.66-69.491 5.984-2.762 13.56-5.085 19.064-5.846 5.991-.828 18.655-.522 24.458.593m5.409 175.476c53.696 3.979 90.297 18.81 103.54 41.957 1.431 2.501 3.088 6.365 3.682 8.586l1.08 4.038-4.231 4.339c-6.901 7.076-18.977 16.892-28.551 23.209-58.207 38.404-134.663 38.404-192.854-.002-9.715-6.411-21.829-16.247-28.551-23.181l-4.231-4.365 1.08-4.038c3.545-13.253 16.892-26.323 35.578-34.838 27.268-12.426 72.746-18.722 113.458-15.705" fill-rule="evenodd"/></svg>