<svg xmlns="http://www.w3.org/2000/svg" width="512" height="512"><path d="M241.493 48.632c-34.755 2.385-69.692 14.113-98.56 33.086-14.348 9.431-22.253 15.895-34.59 28.285-16.787 16.861-30.122 35.745-40.124 56.824-21.723 45.775-26.091 97.617-12.276 145.679C76.1 382.635 130.61 436.733 201.051 456.521c47.175 13.252 98.76 8.711 144.073-12.682 42.022-19.839 78.437-56.161 98.449-98.199 25.946-54.501 27.186-116.188 3.446-171.514-15.511-36.149-41.122-67.188-74.112-89.818-26.741-18.343-57.827-30.232-89.634-34.282-13.044-1.66-29.765-2.218-41.78-1.394m42.667 33.672c75.305 12.731 132.459 70.008 145.649 145.963 2.262 13.02 2.047 44.361-.394 57.6-5.778 31.337-19.244 60.136-39.147 83.721-6.534 7.742-8.331 8.336-11.981 3.959-6.595-7.908-21.111-21.246-28.42-26.115-30.855-20.552-71.574-30.32-110.572-26.525-28.549 2.778-55.333 11.985-77.162 26.525-7.309 4.869-21.825 18.207-28.42 26.115-3.65 4.377-5.447 3.783-11.981-3.959-20.365-24.133-34.197-54.119-39.406-85.428-1.913-11.501-2.563-33.481-1.338-45.267 5.453-52.467 34.002-99.64 78.244-129.288 22.125-14.827 50.028-25.132 77.141-28.49 9.322-1.154 38.171-.436 47.787 1.189m-38.827 62.462c-22.311 3.583-40.388 16.248-49.756 34.861-14.14 28.093-7.843 63.902 15.509 88.181 19.06 19.818 45.593 25.427 69.345 14.657 32.647-14.803 51.48-58.087 40.254-92.517-6.856-21.026-23.614-37.043-45.211-43.213-6.193-1.769-24.1-2.939-30.141-1.969" fill-rule="evenodd"/></svg>