<svg xmlns="http://www.w3.org/2000/svg" width="512" height="512"><path d="M236.307 33.751c-37.023 6.704-66.868 32.112-78.408 66.752-4.339 13.023-5.524 20.624-5.553 35.604-.05 26.442 6.969 49.856 21.619 72.106 9.078 13.79 27.872 30.859 41.661 37.84 27.649 13.998 59.355 12.921 85.697-2.911 9.805-5.893 14.761-9.893 23.68-19.113 28.794-29.763 41.462-75.757 31.605-114.739-10.028-39.654-41.896-69.065-81.858-75.546-9.92-1.608-29.542-1.605-38.443.007m-6.76 255.64c-19.815 2.016-44.926 8.105-63.351 15.362-57.951 22.822-98.829 65.331-113.601 118.129-4.036 14.426-5.257 22.816-4.21 28.931 2.543 14.84 12.272 25.098 26.259 27.684 7.087 1.31 355.625 1.31 362.712 0 13.987-2.586 23.716-12.844 26.259-27.684.774-4.524.676-6.853-.565-13.391-7.549-39.77-27.517-73.303-59.668-100.2-31.856-26.652-76.064-44.303-122.512-48.917-10.343-1.028-40.878-.976-51.323.086" fill-rule="evenodd"/></svg>