<svg xmlns="http://www.w3.org/2000/svg" width="512" height="512"><path d="M241.92 48.669c-64.561 4.115-123.152 38.433-159.962 93.693-26.292 39.469-38.649 92.321-32.455 138.811 6.326 47.479 26.376 88.354 59.673 121.651 33.526 33.526 73.443 53.027 122.504 59.846 4.224.587 15.168 1.068 24.32 1.068 9.152 0 20.096-.481 24.32-1.068 49.001-6.811 88.952-26.339 122.482-59.868 33.529-33.53 53.057-73.481 59.868-122.482 1.376-9.9 1.376-38.74 0-48.64-6.778-48.766-26.328-88.904-59.45-122.057-11.819-11.831-20.651-19.077-33.662-27.617-37.561-24.655-81.952-36.249-127.638-33.337m33.554 98.066c26.229 7.493 44.996 29.432 47.785 55.861 1.961 18.577-3.049 38.869-13.335 54.016-19.283 28.395-50.229 38.606-78.355 25.853-19.464-8.825-35.014-28.551-40.948-51.945-2.289-9.022-2.915-24.881-1.303-32.973 5.55-27.85 27.076-48.133 56.015-52.781 6.041-.97 23.948.2 30.141 1.969m-2.769 174.172c36.563 3.558 70.267 17.733 92.525 38.915 7.709 7.336 16.21 17.246 16.21 18.897 0 1.304-11.298 11.439-20.053 17.99-19.263 14.413-38.559 23.682-61.58 29.582-57.966 14.857-118.946-.481-163.06-41.012-3.403-3.126-6.187-6.078-6.187-6.56 0-1.651 8.501-11.561 16.21-18.897 29.645-28.211 79.049-43.477 125.935-38.915" fill-rule="evenodd"/></svg>