<svg xmlns="http://www.w3.org/2000/svg" width="512" height="512"><path d="M139.047 17.446c-9.579 3.544-15.911 9.109-19.688 17.302-2.827 6.134-3.05 8.217-5.964 55.705-2.899 47.248-1.838 55.801 15.366 123.792 14.626 57.804 18.537 75.2 23.486 104.475 6.193 36.636 7.404 53.376 8.055 111.36.508 45.182.675 49.315 2.113 52.206 2.284 4.59 7.079 9.163 12.022 11.465l4.336 2.019h154.454l4.284-1.995c5.446-2.536 9.515-6.605 12.05-12.05 1.991-4.275 1.996-4.37 2.018-40.125.012-19.712.392-45.356.844-56.987 2.037-52.461 10.406-98.909 32.014-177.687 13.002-47.404 15.225-60.013 15.191-86.179-.019-15.154-2.779-65.506-4.209-76.8-1.306-10.313-8.828-20.391-18.583-24.899l-5.209-2.408-114.774-.158c-93.049-.128-115.347.054-117.806.964M363.802 51.84c.275 2.229.763 9.525 1.083 16.213l.581 12.16h-218.94l.572-12.586c.314-6.923.797-14.219 1.073-16.214l.503-3.626H363.3l.502 4.053m3.753 73.813c-.661 19.507-3.402 33.959-13.39 70.614-14.208 52.14-20.122 77.229-25.145 106.666-7.486 43.866-8.296 54.206-8.774 112l-.408 49.28h-127.69l-.385-47.146c-.407-49.845-.764-55.686-5.361-87.594-4.729-32.834-10.812-61.061-26.479-122.875-12.454-49.138-14.819-61.505-15.478-80.945l-.471-13.866h224.052l-.471 13.866" fill-rule="evenodd"/></svg>