<svg xmlns="http://www.w3.org/2000/svg" width="512" height="512"><path d="M215.893 33.744C167.709 37.75 121.567 47.829 79.36 63.565c-14.242 5.309-19.777 8.386-24.621 13.686-4.847 5.304-7.502 12.652-6.68 18.492.743 5.28 11.836 32.295 15.164 36.929 3.159 4.4 8.852 8.52 13.831 10.012 1.967.589 3.597 1.713 3.995 2.756 2.431 6.369 106.76 233.019 132.79 288.48 14.06 29.956 14.556 30.86 19.97 36.345 6.973 7.065 12.645 9.491 22.191 9.491 9.548 0 15.219-2.426 22.187-9.491l5.546-5.625 73.083-158.72c40.195-87.296 73.289-159.356 73.542-160.133.253-.777 1.734-1.688 3.291-2.024 4.628-.999 8.663-3.436 12.397-7.487 4.318-4.685 4.691-5.401 11.871-22.821 5.105-12.385 5.789-14.696 5.796-19.588.009-6.787-2.635-12.467-8.17-17.549-5.558-5.104-8.802-6.823-22.469-11.903-44.284-16.461-90.895-26.696-139.935-30.727-18.629-1.532-58.501-1.503-77.246.056m62.72 31.117c49.995 2.696 99.764 13.115 146.47 30.664l4.816 1.81-2.951 6.996c-1.623 3.848-3.066 7.112-3.208 7.253-.142.142-4.863-1.456-10.492-3.55-33.08-12.309-68.772-20.835-106.465-25.433-13.51-1.648-19.654-1.879-50.783-1.903-28.945-.023-37.751.253-48.213 1.51-42.462 5.103-67.349 10.912-105.222 24.563-7.654 2.759-14.044 5.016-14.201 5.016-.27 0-1.135-2.031-4.776-11.214l-1.57-3.961 12.111-4.343C153.23 71.077 217.32 61.556 278.613 64.861m-6.4 47.804c41.191 1.836 80.563 8.818 111.283 19.734 6.613 2.35 12.715 4.483 13.559 4.741.844.257 1.42 1.005 1.28 1.663-.417 1.958-141.868 308.316-142.362 308.331-.249.007-1.834-2.963-3.522-6.601-1.688-3.637-11.792-25.237-22.453-48-10.661-22.762-29.193-62.698-41.181-88.746-25.54-55.496-73.289-159.661-74.969-163.546l-1.163-2.693 10.004-3.561c33.157-11.803 74.592-19.55 113.684-21.253 8.683-.379 15.979-.741 16.214-.806.234-.065 9.066.267 19.626.737m-91.023 49.293c-14.124 5.036-23.13 20.196-20.736 34.905 4.194 25.767 35.597 35.998 54.002 17.593 15.558-15.557 11.135-41.534-8.726-51.251-6.229-3.048-17.837-3.638-24.54-1.247m131.983 15.015c-17.163 3.816-27.906 20.289-24.351 37.339 2.132 10.222 8.548 18.24 18.229 22.778 4.178 1.959 5.954 2.27 12.949 2.27s8.771-.311 12.949-2.27c9.681-4.538 16.097-12.556 18.229-22.778 3.649-17.503-7.794-34.302-25.609-37.596-5.952-1.1-6.327-1.092-12.396.257M245.19 289.958c-14.124 5.036-23.13 20.196-20.736 34.905 4.194 25.767 35.597 35.998 54.002 17.593 15.558-15.557 11.135-41.534-8.726-51.251-6.229-3.048-17.837-3.638-24.54-1.247" fill-rule="evenodd"/></svg>