<svg xmlns="http://www.w3.org/2000/svg" width="512" height="512"><path d="M219.307 33.336c-39.609 3.114-80.172 10.742-116.054 21.823-17.572 5.426-37.521 13.221-42.716 16.69-14.283 9.538-16.381 21.966-6.857 40.634 2.663 5.22 7.61 8.204 13.629 8.221 4.192.011 6.95-.938 21.864-7.525C143.26 89.291 198.515 79.094 266.24 80.501c61.886 1.287 106.152 10.808 159.675 34.345 15.36 6.754 19.029 7.411 24.645 4.411 4.642-2.479 6.802-5.515 10.209-14.349 4.095-10.619 3.135-19.055-2.981-26.199-6.002-7.012-15.612-11.53-44.775-21.048-34.898-11.391-69.173-18.657-109.226-23.155-14.546-1.633-68.994-2.387-84.48-1.17m14.933 79.29c-34.373 1.858-68.08 7.716-101.494 17.639-10.883 3.233-31.259 10.493-35.273 12.568-6.235 3.225-10.446 10.913-9.251 16.889.782 3.909 81.553 180.373 122.382 267.371 17.443 37.168 17.677 37.604 23.188 43.172 7.002 7.073 12.67 9.49 22.208 9.467 9.596-.022 15.253-2.436 22.187-9.467l5.546-5.625 69.446-150.613c73.626-159.68 71.679-155.113 69.267-162.422-1.567-4.747-5.757-7.673-17.668-12.339-49.66-19.456-114.897-29.646-170.538-26.64m-28.445 50.61c5.666 2.773 12.872 10.104 15.479 15.75 1.552 3.359 1.873 5.59 1.873 13.014 0 8.021-.243 9.455-2.319 13.682-7.68 15.637-26.298 22.389-42.264 15.327-5.174-2.289-12.302-9.375-15.217-15.127-2.285-4.511-2.494-5.671-2.494-13.882 0-8.137.221-9.396 2.406-13.704 3.98-7.849 10.317-13.623 17.931-16.338 6.738-2.403 18.309-1.802 24.605 1.278m119.774 13.48c10.264 1.898 18.504 8.131 23.087 17.464 2.272 4.628 2.491 5.86 2.491 14.033 0 8.567-.127 9.194-2.894 14.295-3.514 6.481-8.832 11.548-15.304 14.582-4.178 1.959-5.954 2.27-12.949 2.27s-8.771-.311-12.949-2.27c-6.472-3.034-11.79-8.101-15.304-14.582-2.767-5.101-2.894-5.728-2.894-14.295 0-8.091.232-9.432 2.396-13.839 4.472-9.107 12.197-15.238 21.924-17.401 6.069-1.349 6.444-1.357 12.396-.257m-55.774 114.52c5.666 2.773 12.872 10.104 15.479 15.75 1.552 3.359 1.873 5.59 1.873 13.014 0 8.021-.243 9.455-2.319 13.682-7.68 15.637-26.298 22.389-42.264 15.327-5.174-2.289-12.302-9.375-15.217-15.127-2.285-4.511-2.494-5.671-2.494-13.882 0-8.137.221-9.396 2.406-13.704 3.98-7.849 10.317-13.623 17.931-16.338 6.738-2.403 18.309-1.802 24.605 1.278" fill-rule="evenodd"/></svg>