<svg xmlns="http://www.w3.org/2000/svg" width="512" height="512"><path d="M225.707 32.988c-30.126 2.418-49.035 4.901-71.236 9.356-35.869 7.197-70.067 17.921-99.53 31.211-6.368 2.873-11.759 5.693-11.98 6.268-.362.944 20.57 43.91 21.392 43.91.191 0 9.729-4.018 21.196-8.929 25.056-10.732 43.605-17.153 64.211-22.229 37.696-9.285 73.334-12.97 116.907-12.088 42.016.851 74.354 5.451 109.226 15.539 15.717 4.546 28.445 9.303 52.713 19.701 10.279 4.403 18.846 8.006 19.038 8.006.469 0 21.689-42.452 21.689-43.389 0-1.562-26.466-12.723-47.67-20.103-38.775-13.495-84.839-23.073-127.543-26.518-14.286-1.153-57.438-1.616-68.413-.735m15.36 79.372c-41.555 1.667-80.256 8.693-119.205 21.642-12.657 4.208-32.909 12.493-37.269 15.246-.92.581 1.17 5.823 9.886 24.796 8.423 18.337 28.898 57.532 86.073 164.769 41.262 77.389 75.213 140.709 75.448 140.709.505.001 172.695-327.928 173.027-329.523.402-1.929-32.219-14.625-53.134-20.679-32.677-9.459-64.848-14.784-100.693-16.666-15.394-.809-20.245-.85-34.133-.294m-37.577 49.835c25.962 9.714 27.974 45.745 3.253 58.272-18.265 9.255-39.971-.755-45.107-20.802-3.066-11.967 1.519-25.54 11.095-32.844 8.318-6.344 21.049-8.258 30.759-4.626m128.03 15.972c26.834 10.419 27.802 47.18 1.561 59.291-3.392 1.566-5.63 1.902-12.654 1.902-7.702 0-9.028-.243-13.607-2.491-13.097-6.431-20.331-20.79-17.562-34.861.57-2.9 1.804-6.777 2.742-8.615 4.026-7.892 13.312-14.92 22.069-16.704 4.735-.965 12.952-.269 17.451 1.478m-64.03 112.028c25.962 9.714 27.974 45.745 3.253 58.272-18.265 9.255-39.971-.755-45.107-20.802-3.066-11.967 1.519-25.54 11.095-32.844 8.318-6.344 21.049-8.258 30.759-4.626" fill-rule="evenodd"/></svg>