<svg xmlns="http://www.w3.org/2000/svg" width="512" height="512"><path d="M240.64 80.698c-1.173.2-5.589.787-9.813 1.304-16.102 1.971-38.443 9.014-54.614 17.217-37.705 19.126-68.293 52.822-84.05 92.593-2.78 7.017-2.812 7.055-4.601 5.549-14.539-12.235-33.359-31.792-42.935-44.614-6.602-8.839-12.2-19.639-12.2-23.533 0-2.635.279-2.931 3.626-3.844 5.974-1.629 28.103-.443 40.747 2.182 5.867 1.219 11.267 2.397 12.001 2.619.876.265 2.833-1.467 5.696-5.039 2.398-2.993 7.693-8.943 11.765-13.222l7.403-7.78-2.432-.927c-4.177-1.592-25.851-6.725-36.566-8.661-13.748-2.483-37.331-2.709-45.654-.439C15.917 97.677 6.227 105.26 2.592 114.78c-7.279 19.061 1.74 41.538 29.202 72.781C93.511 257.777 246.967 354.004 366.749 397.6c72.16 26.264 118.453 29.259 136.652 8.84 6.164-6.916 8.118-12.316 8.119-22.44.001-6.263-.457-9.465-2.012-14.08-5.606-16.632-17.377-33.403-39.681-56.533-5.543-5.75-10.322-10.452-10.62-10.449-.297.003-1.583 3.824-2.858 8.492-1.274 4.668-3.694 12.165-5.378 16.66l-3.061 8.173 7.303 8.295c14.63 16.617 24.36 31.861 24.36 38.162 0 2.53-.363 2.981-3.2 3.973-4.423 1.547-21.621 1.294-32.161-.473-12.021-2.015-27.008-5.714-41.865-10.333-7.04-2.189-12.931-4.11-13.091-4.268-.16-.159 2.433-3.812 5.761-8.119 17.659-22.849 28.878-48.09 34.308-77.191 2.498-13.387 3.108-38.333 1.276-52.194-8.503-64.356-50.188-117.887-110.515-141.921-9.945-3.962-24.401-7.941-35.926-9.89-7.678-1.298-38.637-2.441-43.52-1.606M81.467 279.157c.323 2.517 1.543 8.992 2.712 14.39 11.367 52.477 46.886 97.426 95.448 120.789 24.185 11.636 44.402 16.488 71.68 17.203 24.688.647 45.596-2.816 66.976-11.093l8.97-3.473-5.12-2.275c-2.816-1.251-12.416-5.486-21.333-9.412-19.94-8.779-61.991-29.862-83.2-41.714-47.601-26.6-90.3-54.045-126.6-81.373l-10.12-7.619.587 4.577" fill-rule="evenodd"/></svg>