<svg xmlns="http://www.w3.org/2000/svg" width="512" height="512"><path d="M240.64 80.698c-1.173.2-5.589.787-9.813 1.304-16.102 1.971-38.443 9.014-54.614 17.217-37.705 19.126-68.293 52.822-84.05 92.593-2.78 7.017-2.812 7.055-4.601 5.549-14.539-12.235-33.359-31.792-42.935-44.614-6.571-8.799-12.2-19.641-12.2-23.5 0-2.49.365-2.942 3.115-3.85 4.818-1.59 27.636-.568 39.125 1.752 7.983 1.612 9.96 1.746 13.226.898 4.072-1.058 8.696-4.849 10.789-8.847 3.339-6.376.313-16.346-6.045-19.912-6.831-3.832-33.954-7.627-49.092-6.869-16.376.82-26.077 4.36-34.233 12.493-5.699 5.682-8.479 12.101-9.076 20.955-1.834 27.173 29.666 67.469 90.556 115.84 78.012 61.972 186.871 123.469 275.957 155.893 72.16 26.264 118.453 29.259 136.652 8.84 6.164-6.916 8.118-12.316 8.119-22.44.001-8.85-1.714-15.414-6.577-25.173-6.555-13.158-25.19-36.987-31.331-40.068-5.997-3.007-12.551-2.141-17.644 2.33-3.732 3.278-5.408 6.974-5.408 11.93 0 4.956 1.756 8.077 10.143 18.031 11.347 13.466 18.844 26.113 18.862 31.817.012 3.927-3.656 5.001-16.632 4.869-11.752-.12-22.253-1.691-39.329-5.885-10.418-2.559-33.492-9.447-34.355-10.256-.163-.153 1.807-2.897 4.378-6.097 17.8-22.151 30.123-49.477 35.712-79.189 2.5-13.287 3.101-38.216 1.259-52.194-8.476-64.323-50.185-117.887-110.512-141.921-9.945-3.962-24.401-7.941-35.926-9.89-7.678-1.298-38.637-2.441-43.52-1.606M87.161 287.176c-1.413 1.189-2.707 3.013-2.875 4.053-.429 2.66 3.98 19.026 7.614 28.265 23.615 60.028 76.953 102.034 140.885 110.951 22.829 3.184 53.341.704 73.764-5.996 7.312-2.398 9.639-8.296 5.131-13.008-1.342-1.403-7.095-4.575-13.44-7.411-61.613-27.533-129.499-66.488-188.549-108.195-16.64-11.752-18.16-12.336-22.53-8.659" fill-rule="evenodd"/></svg>