<svg xmlns="http://www.w3.org/2000/svg" width="512" height="512"><path d="M127.691 72.709c-7.041.901-13.439 4.1-19.209 9.604-5.505 5.25-8.562 10.281-10.913 17.954C96.071 105.154 96 112.227 96 256s.071 150.846 1.569 155.733c2.351 7.673 5.408 12.704 10.913 17.954 10.576 10.088 25.043 12.948 38.035 7.52 1.764-.737 59.658-35.153 128.652-76.481 91.055-54.542 126.68-76.31 129.952-79.404 14.469-13.685 14.224-37.543-.526-51.057-3.638-3.333-38.219-24.44-128.671-78.536-68.033-40.688-125.678-74.973-128.099-76.19-5.188-2.605-13.15-3.725-20.134-2.83" fill-rule="evenodd"/></svg>