<svg xmlns="http://www.w3.org/2000/svg" width="512" height="512"><path d="M105.351 65.551c-4.69 2.203-7.736 6.081-8.848 11.266-1.311 6.113-1.311 352.253 0 358.366.511 2.383 1.935 5.529 3.164 6.99 4.322 5.135 12.416 7.188 18.334 4.649 3.346-1.436 7.865-6.073 9.093-9.331.612-1.622.906-24.966.906-71.893 0-38.22.193-69.491.43-69.491.236 0 52.964 31.452 117.173 69.895 64.209 38.442 118.171 70.491 119.916 71.22 21.692 9.064 46.597-6.171 50.034-30.609 1.14-8.109 1.14-293.117 0-301.226-1.748-12.426-10.085-24.195-20.886-29.485-9.271-4.54-21.784-4.679-30.413-.338-2.516 1.265-56.491 33.357-119.946 71.315s-115.576 69.014-115.826 69.014c-.249 0-.556-31.844-.681-70.764-.225-69.994-.247-70.79-1.99-73.124-5.388-7.217-13.431-9.754-20.46-6.454m276.88 40.804 1.769 2.248v147.045c0 110.559-.248 147.589-1 149.239-.549 1.207-1.858 2.409-2.907 2.673-2.826.709-251.016-147.708-251.781-150.566-.341-1.273-.047-2.478.815-3.34 2.189-2.189 248.338-149.438 249.904-149.495.788-.029 2.228.959 3.2 2.196" fill-rule="evenodd"/></svg>