<svg xmlns="http://www.w3.org/2000/svg" width="512" height="512"><path d="M241.493 48.673c-39.799 2.563-78.317 17.074-111.786 42.114-10.589 7.922-31.248 28.596-39.155 39.184-21.846 29.252-35.222 61.365-40.767 97.869-2.061 13.574-2.061 42.746 0 56.32 5.546 36.511 18.94 68.661 40.773 97.869 8.04 10.755 28.658 31.373 39.413 39.413 29.208 21.833 61.358 35.227 97.869 40.773 13.574 2.061 42.746 2.061 56.32 0 36.526-5.548 68.754-18.978 97.869-40.785 10.755-8.056 31.345-28.646 39.401-39.401 21.807-29.115 35.237-61.343 40.785-97.869 2.061-13.574 2.061-42.746 0-56.32-6.752-44.453-25.412-83.157-55.294-114.69-36.541-38.56-84.833-61.088-138.36-64.543-13.196-.852-12.782-.853-27.068.066m42.667 33.635c35.838 6.075 67.575 21.95 93.579 46.81 27.61 26.395 45.561 60.682 52.093 99.5 2.091 12.43 2.073 42.896-.033 55.115-9.878 57.299-44.492 104.256-95.788 129.946-48.421 24.25-107.601 24.25-156.022 0-51.464-25.774-86.214-73.029-95.815-130.297-2.121-12.648-2.121-42.116 0-54.764 10.541-62.873 51.565-113.601 110.675-136.854 13.047-5.132 28.757-8.823 46.938-11.027 6.667-.809 36.585.251 44.373 1.571m-50.331 94.399c-4.967 2.058-115.915 69.56-118.629 72.176-2.626 2.531-2.987 3.39-2.987 7.117 0 3.724.363 4.589 2.987 7.13 3.469 3.358 113.928 70.257 119.091 72.126 3.183 1.152 3.731 1.121 6.771-.388 1.819-.903 4.101-2.725 5.07-4.049 1.672-2.286 1.783-3.823 2.188-30.46l.427-28.054 52.48 31.725c46.619 28.182 52.878 31.726 56.044 31.741 3.94.017 7.689-2.213 9.436-5.613 1.532-2.98 1.532-145.336 0-148.316-1.747-3.399-5.309-5.487-9.341-5.476-3.295.009-8.878 3.162-56.139 31.71l-52.48 31.7-.427-27.981c-.379-24.845-.595-28.238-1.932-30.276-2.889-4.405-8.423-6.525-12.559-4.812" fill-rule="evenodd"/></svg>