<svg xmlns="http://www.w3.org/2000/svg" width="512" height="512"><path d="M241.92 48.669c-64.561 4.115-123.152 38.433-159.962 93.693-26.292 39.469-38.649 92.321-32.455 138.811 6.326 47.479 26.376 88.354 59.673 121.651 33.526 33.526 73.443 53.027 122.504 59.846 4.224.587 15.168 1.068 24.32 1.068 9.152 0 20.096-.481 24.32-1.068 49.001-6.811 88.952-26.339 122.482-59.868 33.529-33.53 53.057-73.481 59.868-122.482 1.376-9.9 1.376-38.74 0-48.64-6.778-48.766-26.328-88.904-59.45-122.057-11.819-11.831-20.651-19.077-33.662-27.617-37.561-24.655-81.952-36.249-127.638-33.337m-38.265 155.153c31.988 19.307 58.772 35.339 59.52 35.626 1.229.472 1.358-2.866 1.358-35.054 0-21.561.313-35.464.794-35.292 1.476.529 134.796 86.468 134.808 86.898.007.235-30.405 19.833-67.581 43.553l-67.594 43.126-.223-35.321c-.176-28.018-.445-35.235-1.3-34.907-.592.228-27.372 16.246-59.51 35.596-32.139 19.35-58.722 35.354-59.074 35.564-.352.211-.64-39.214-.64-87.611 0-48.397.288-87.834.64-87.638.352.195 26.813 16.153 58.802 35.46" fill-rule="evenodd"/></svg>