<svg xmlns="http://www.w3.org/2000/svg" width="512" height="512"><path d="M230.4 112.64c-2.112.358-5.184 1.226-6.827 1.929-5.503 2.353-194.086 115.624-197.717 118.757-2.149 1.854-4.712 5.383-6.4 8.812-2.589 5.259-2.816 6.375-2.816 13.862 0 7.467.231 8.611 2.782 13.793 1.529 3.107 4.283 7.007 6.119 8.665 3.434 3.103 191.862 116.335 198.833 119.486 5.588 2.525 15.825 2.444 22.45-.177 10.771-4.263 18.638-14.916 20.247-27.42.452-3.52.835-23.433.849-44.252.022-31.742.216-37.778 1.199-37.401.645.247 41.061 24.345 89.813 53.55 48.753 29.204 90.753 54.083 93.335 55.285 5.911 2.754 15.164 3.039 21.99.678 9.048-3.129 16.926-11.516 19.953-21.238 1.501-4.824 1.577-10.637 1.577-120.955 0-113.175-.04-116.015-1.693-121.311-3.033-9.718-12.006-18.695-21.301-21.311-5.185-1.459-13.46-1.258-18.487.448-2.295.779-45.069 25.897-95.053 55.817l-90.88 54.402-.497-42.27c-.362-30.782-.794-43.197-1.589-45.682-5.226-16.343-20.194-26.13-35.887-23.467m5.12 143.856v111.43l-2.773-1.699c-1.526-.934-43.286-25.943-92.8-55.575-49.515-29.632-90.125-54.154-90.245-54.492-.218-.614 183.923-111.093 185.163-111.093.36 0 .655 50.143.655 111.429m228.693-.042v111.387l-2.004-1.094c-7.653-4.175-184.022-110.257-184.022-110.684 0-.719 183.591-110.814 184.96-110.917.848-.063 1.066 22.725 1.066 111.308" fill-rule="evenodd"/></svg>