<svg xmlns="http://www.w3.org/2000/svg" width="512" height="512"><path d="M230.4 112.64c-2.112.358-5.184 1.226-6.827 1.929-1.642.702-45.994 27.007-98.56 58.454-62.24 37.235-96.93 58.477-99.463 60.904-2.139 2.049-5.019 6.03-6.4 8.846-2.244 4.577-2.51 5.983-2.51 13.245 0 7.473.227 8.585 2.826 13.864 1.837 3.733 4.224 6.935 6.826 9.156 4.188 3.575 189.118 114.637 197.281 118.48 6.353 2.99 16.06 3.094 23.251.249 10.771-4.263 18.638-14.916 20.247-27.42.452-3.52.835-23.433.849-44.252.023-32.396.202-37.784 1.242-37.384.669.256 41.085 24.355 89.814 53.554 48.728 29.198 90.55 53.988 92.937 55.089 16.385 7.56 36.465-1.993 42.163-20.057 1.677-5.316 1.711-7.707 1.711-121.232 0-127.617.297-120.341-5.269-129.108-3.409-5.369-7.597-8.918-14.132-11.976-4.365-2.043-6.582-2.536-11.56-2.575-3.388-.025-7.721.396-9.63.938-1.908.541-44.724 25.676-95.146 55.856l-91.677 54.871-.497-42.275c-.362-30.787-.794-43.204-1.589-45.689-5.226-16.343-20.194-26.13-35.887-23.467" fill-rule="evenodd"/></svg>