<svg xmlns="http://www.w3.org/2000/svg" width="512" height="512"><path d="M105.288 65.633c-4.343 1.972-7.634 6.158-8.792 11.184-1.272 5.521-1.261 352.457.012 358.391 1.804 8.411 9.604 13.709 18.271 12.409 5.019-.752 11.054-5.93 12.349-10.593.548-1.972.864-28.237.867-72.011.003-37.898.198-68.906.435-68.906.236 0 52.964 31.452 117.173 69.895 64.209 38.442 118.194 70.501 119.967 71.241 5.689 2.377 13.382 3.307 18.946 2.29 14.029-2.565 25.082-12.628 29.599-26.946l1.885-5.974V105.387l-1.885-5.974c-5.818-18.441-21.46-28.865-40.124-26.739-2.924.333-7.289 1.596-9.7 2.807-2.412 1.212-56.352 33.3-119.868 71.307-63.515 38.008-115.694 69.105-115.953 69.105-.258 0-.472-31.008-.475-68.906-.003-42.59-.325-70.062-.845-71.932-1.561-5.619-9.252-11.078-15.549-11.036-1.541.01-4.382.736-6.313 1.614" fill-rule="evenodd"/></svg>