<svg xmlns="http://www.w3.org/2000/svg" width="512" height="512"><path d="M395.52 64.725c-3.407 1.108-6.949 3.769-8.999 6.76l-2.094 3.056-.228 70.676c-.125 38.872-.435 70.676-.687 70.676-.253 0-52.375-31.056-115.826-69.014-63.451-37.958-117.424-70.05-119.94-71.316-8.629-4.34-21.143-4.201-30.413.339-10.801 5.29-19.138 17.059-20.886 29.485-1.14 8.109-1.14 293.117 0 301.226 3.438 24.44 28.341 39.673 50.039 30.607 1.747-.73 55.704-32.779 119.904-71.22 64.199-38.441 116.925-69.893 117.168-69.893.243 0 .442 31.271.442 69.491 0 46.927.294 70.271.906 71.893 1.228 3.258 5.747 7.895 9.093 9.331 5.918 2.539 14.012.486 18.334-4.649 1.229-1.461 2.653-4.607 3.164-6.99 1.311-6.113 1.311-352.253 0-358.366-.511-2.383-1.935-5.529-3.164-6.99-3.902-4.637-11.32-6.888-16.813-5.102M257.494 178.012c67.936 40.648 124.242 74.597 125.125 75.443 1.097 1.05 1.435 2.169 1.069 3.534-.767 2.86-248.957 151.28-251.785 150.57-1.047-.263-2.354-1.465-2.903-2.672-.752-1.65-1-38.68-1-149.239V108.603l1.769-2.248c.972-1.237 2.317-2.248 2.987-2.248.671 0 56.803 33.257 124.738 73.905" fill-rule="evenodd"/></svg>