<svg xmlns="http://www.w3.org/2000/svg" width="512" height="512"><path d="M241.92 48.669c-64.561 4.115-123.152 38.433-159.962 93.693-26.292 39.469-38.649 92.321-32.455 138.811 6.326 47.479 26.376 88.354 59.673 121.651 33.526 33.526 73.443 53.027 122.504 59.846 4.224.587 15.168 1.068 24.32 1.068 9.152 0 20.096-.481 24.32-1.068 49.001-6.811 88.952-26.339 122.482-59.868 33.529-33.53 53.057-73.481 59.868-122.482 1.376-9.9 1.376-38.74 0-48.64-6.778-48.766-26.328-88.904-59.45-122.057-11.819-11.831-20.651-19.077-33.662-27.617-37.561-24.655-81.952-36.249-127.638-33.337m66.133 155.259 59.307-35.839.221 43.955c.122 24.176.122 63.703 0 87.839l-.221 43.882-59.307-35.718-59.306-35.718-.223 35.423c-.123 19.483-.546 35.297-.942 35.143-1.615-.633-135.733-86.501-135.72-86.895.009-.235 30.619-20.106 68.023-44.158l68.008-43.731.427 35.829.427 35.828 59.306-35.84" fill-rule="evenodd"/></svg>