<svg xmlns="http://www.w3.org/2000/svg" width="512" height="512"><path d="M241.92 48.669c-64.561 4.115-123.152 38.433-159.962 93.693-26.292 39.469-38.649 92.321-32.455 138.811 6.326 47.479 26.376 88.354 59.673 121.651 33.526 33.526 73.443 53.027 122.504 59.846 4.224.587 15.168 1.068 24.32 1.068 9.152 0 20.096-.481 24.32-1.068 49.001-6.811 88.952-26.339 122.482-59.868 33.529-33.53 53.057-73.481 59.868-122.482 1.376-9.9 1.376-38.74 0-48.64-6.778-48.766-26.328-88.904-59.45-122.057-11.819-11.831-20.651-19.077-33.662-27.617-37.561-24.655-81.952-36.249-127.638-33.337m-31.466 159.228c28.284 17.08 52.023 31.283 52.753 31.563 1.183.454 1.326-2.574 1.326-28.103v-28.613l2.162-2.568c2.829-3.363 7.239-4.849 10.753-3.624 3.601 1.255 115.796 68.95 118.692 71.615 4.898 4.506 4.898 11.145 0 15.679-2.706 2.504-113.108 69.296-117.744 71.233-4.046 1.691-8.594.438-11.666-3.213l-2.197-2.61v-28.613c0-23.437-.205-28.534-1.133-28.177-.623.239-24.403 14.492-52.843 31.673-28.44 17.181-52.821 31.46-54.179 31.732-3.52.704-8.405-1.609-10.436-4.94-1.692-2.774-1.722-4.113-1.725-75.018l-.004-72.194 1.95-2.899c2.215-3.295 6.631-5.198 10.364-4.466 1.376.269 25.643 14.464 53.927 31.543" fill-rule="evenodd"/></svg>