<svg xmlns="http://www.w3.org/2000/svg" width="512" height="512"><path d="M127.573 72.72c-15.332 1.951-28.793 16.078-31.126 32.667-1.14 8.109-1.14 293.117 0 301.226 3.478 24.725 28.742 39.884 50.569 30.342 1.978-.865 60.045-35.376 129.037-76.691 91.001-54.494 126.584-76.23 129.607-79.17 10.189-9.91 13.091-26.717 6.944-40.209-2.768-6.073-5.984-9.918-11.537-13.791-5.909-4.121-247.132-148.42-253.275-151.508-5.329-2.679-13.069-3.776-20.219-2.866m129.921 105.292c67.936 40.648 124.242 74.597 125.125 75.443 1.097 1.05 1.435 2.169 1.069 3.534-.767 2.86-248.957 151.28-251.785 150.57-1.047-.263-2.354-1.465-2.903-2.672-.752-1.65-1-38.68-1-149.239V108.603l1.769-2.248c.972-1.237 2.317-2.248 2.987-2.248.671 0 56.803 33.257 124.738 73.905" fill-rule="evenodd"/></svg>