<svg xmlns="http://www.w3.org/2000/svg" width="512" height="512"><path d="M181.666 33.671c-11.508 4.272-19.539 14.187-21.288 26.283-.424 2.929-.778 19.423-.788 36.653l-.017 31.327-59.52.247-59.52.246-5.549 2.629c-6.821 3.233-13.198 9.442-16.141 15.715l-2.203 4.696-.252 154.026c-.188 114.491 0 154.898.732 157.421 2.392 8.246 9.355 14.531 18.139 16.372 4.238.888 47.612 1.105 220.741 1.105 232.748 0 222.534.202 229.366-4.532 4.12-2.856 8.192-8.392 9.511-12.93.736-2.535.925-34.714.736-125.436l-.253-122.026-2.203-4.696c-2.943-6.273-9.32-12.482-16.141-15.715l-5.549-2.629-59.52-.246-59.52-.247-.017-63.327c-.01-34.83-.364-65.724-.788-68.653-1.565-10.818-7.936-19.639-17.791-24.633l-4.871-2.468-72.107-.163c-58.485-.132-72.688.053-75.187.981M320 256v192H192V64h128v192m-160.427 48.213V448H47.787V160.427h111.786v143.786m304.64 32V448H352.427V224.427h111.786v111.786" fill-rule="evenodd"/></svg>