<svg xmlns="http://www.w3.org/2000/svg" width="512" height="512"><path d="M181.193 33.995c-8.287 2.883-15.693 10.19-19.338 19.079L160 57.6v210.091c0 171.244.205 210.295 1.109 211.2 1.639 1.638 188.143 1.638 189.782 0 .902-.903 1.152-39.507 1.342-207.36.148-131.636-.071-208.228-.604-211.715-1.631-10.654-8.407-19.958-17.947-24.644l-4.722-2.319-71.68-.195c-67.059-.183-71.964-.096-76.087 1.337m-140.45 94.919c-9.056 2.169-17.413 8.928-21.612 17.479l-2.491 5.074V307.2c0 153.142.028 155.79 1.678 159.118 2.287 4.613 7.493 9.638 12.275 11.848C34.49 479.968 35.336 480 78.79 480h44.229l2.491-2.787 2.49-2.787V133.215l-2.059-2.394-2.059-2.394-39.968-.14c-21.982-.077-41.409.205-43.171.627m347.828 63.912c-1.005.417-2.445 1.639-3.2 2.716-1.246 1.779-1.371 14.626-1.371 140.421v138.463l2.49 2.787 2.491 2.787h44.229c43.454 0 44.3-.032 48.197-1.834 4.782-2.21 9.988-7.235 12.275-11.848 1.645-3.319 1.678-5.796 1.678-127.118V215.467l-2.491-5.074c-3.29-6.701-8.671-11.935-15.684-15.258l-5.718-2.708-40.534-.18c-22.293-.098-41.356.162-42.362.579" fill-rule="evenodd"/></svg>