<svg xmlns="http://www.w3.org/2000/svg" width="512" height="512"><path d="M252.16 48.561c-5.68 1.411-9.961 5.507-11.482 10.985-1.273 4.581-1.214 196.536.06 201.128 1.261 4.54 6.256 9.41 10.949 10.673 8.545 2.302 17.323-2.569 19.635-10.893 1.219-4.389 1.219-196.519 0-200.908-1.032-3.716-4.353-7.93-7.53-9.556-3.007-1.538-8.486-2.211-11.632-1.429M126.559 93.363c-4.193 1.896-18.92 15.717-28.075 26.348-54.293 63.045-65.882 152.592-29.399 227.169 10.978 22.442 21.97 37.76 40.123 55.912 18.152 18.153 33.47 29.145 55.912 40.123 19.238 9.411 40.313 15.896 62.72 19.3 13.574 2.061 42.746 2.061 56.32 0 36.526-5.548 68.754-18.978 97.869-40.785 10.755-8.056 31.345-28.646 39.401-39.401 21.807-29.115 35.237-61.343 40.785-97.869 1.069-7.04 1.489-14.998 1.486-28.16-.003-18.211-.506-23.599-3.789-40.638-7.114-36.92-25.775-73.125-52.315-101.501-8.356-8.935-20.523-19.517-23.927-20.811-3.239-1.231-8.578-1.113-11.871.263-5.991 2.503-10.795 10.908-9.668 16.915.906 4.828 3.189 7.848 11.569 15.305 28.741 25.574 48.423 61.114 55.713 100.6 2.443 13.236 2.659 44.572.396 57.6-9.971 57.418-44.5 104.255-95.798 129.946-36.6 18.33-80.593 23.069-120.794 13.012C145.308 409.703 93.941 353.766 82.33 284.16c-1.889-11.324-2.55-33.332-1.363-45.42 3.242-33.032 14.892-62.97 34.874-89.622 3.606-4.81 12.197-14.329 19.091-21.154 10.357-10.255 12.702-13.036 13.504-16.013 1.73-6.426-.532-12.42-6.367-16.87-3.784-2.887-11.127-3.7-15.51-1.718" fill-rule="evenodd"/></svg>