<svg xmlns="http://www.w3.org/2000/svg" width="512" height="512"><path d="M251.307 48.547c-4.614 1.201-9.601 4.252-12.316 7.535-5.377 6.501-5.178 2.505-5.178 103.918 0 104.833-.426 98.215 6.786 105.427 4.136 4.136 10.15 6.786 15.401 6.786 5.251 0 11.265-2.65 15.401-6.786 7.212-7.212 6.786-.594 6.786-105.427 0-101.421.199-97.416-5.182-103.923-4.792-5.794-14.898-9.301-21.698-7.53m115.319 42.446c-9.107 2.797-16.022 13.711-14.717 23.229.897 6.545 3.507 10.612 11.004 17.148 62.37 54.379 75.079 145.928 29.812 214.737-22.543 34.266-57.542 59.062-97.35 68.971-15.145 3.77-20.278 4.335-39.375 4.335s-24.23-.565-39.375-4.335c-15.743-3.918-31.109-10.18-43.833-17.86-74.028-44.687-101.432-136.47-63.974-214.269 8.655-17.978 23.416-37.589 37.955-50.431 9.474-8.366 11.964-12.765 11.928-21.072-.05-11.785-9.578-20.993-21.722-20.993-7.651 0-11.194 1.866-21.527 11.33-35.891 32.877-57.999 75.221-65.681 125.797-2.008 13.224-2.002 42.667.013 55.727 3.268 21.187 7.857 37.517 15.547 55.326 26.769 61.997 83.823 108.186 149.709 121.2 15.848 3.13 23.974 3.905 40.96 3.905 22.256 0 39.297-2.465 59.733-8.64 71.594-21.633 126.666-80.583 142.954-153.018 3.999-17.78 5.026-27.459 4.983-46.933-.044-19.827-1.526-32.42-5.794-49.238-9.681-38.144-28.44-71.05-55.792-97.865-12.406-12.163-16.919-15.711-21.866-17.187-5.168-1.544-8.224-1.513-13.592.136" fill-rule="evenodd"/></svg>