<svg xmlns="http://www.w3.org/2000/svg" width="512" height="512"><path d="M303.787 33.225c-7.477 2.282-10.76 5.431-134.679 129.204-68.676 68.595-126.501 127.022-128.501 129.838-10.712 15.082-11.345 32.943-1.76 49.702 3.181 5.562 125.622 128.003 131.184 131.184 16.759 9.585 34.62 8.952 49.702-1.76 2.816-2 61.416-60.017 130.222-128.928 99.392-99.544 125.469-126.104 126.891-129.246 3.516-7.768 3.689-11.839 3.387-79.672-.249-55.901-.472-65.384-1.615-68.694-5.486-15.893-16.355-26.642-31.413-31.065-4.083-1.199-12.773-1.353-72.96-1.288-37.579.04-69.285.366-70.458.725m94.008 66.011c5.666 2.773 12.872 10.104 15.479 15.75 1.552 3.359 1.873 5.59 1.873 13.014 0 8.021-.243 9.455-2.319 13.682-6.191 12.604-20.239 20.053-33.691 17.864-10.069-1.639-19.417-8.587-23.911-17.772-2.936-6.002-3.66-16.349-1.632-23.327 2.556-8.791 10.716-17.322 19.599-20.49 6.735-2.402 18.307-1.8 24.602 1.279" fill-rule="evenodd"/></svg>