<svg xmlns="http://www.w3.org/2000/svg" width="512" height="512"><path d="M303.787 33.225c-7.495 2.288-10.667 5.337-136.632 131.336-98.128 98.153-127.408 127.914-129.42 131.546-3.91 7.057-5.443 13.42-5.425 22.511.019 9.351 1.988 16.312 6.664 23.569 4.07 6.316 124.523 126.769 130.839 130.839 14.32 9.228 34.42 9.128 48.342-.242 3.076-2.07 53.305-51.754 130.906-129.485 96.709-96.871 126.349-127.039 127.79-130.065 3.409-7.163 3.697-14.047 3.378-80.967-.279-58.413-.428-63.955-1.839-68.267-4.849-14.816-18.037-27.409-32.097-30.647-4.498-1.036-139.136-1.157-142.506-.128m137.409 32.493a11.764 11.764 0 0 1 5.086 5.086c1.676 3.285 1.718 4.913 1.718 65.916v62.547L324.053 323.151c-110.641 110.585-124.29 123.945-127.146 124.461-8.014 1.447-4.469 4.529-69.571-60.477-40.224-40.164-60.525-61.024-61.654-63.351-2.038-4.203-2.127-7.242-.321-10.866.749-1.502 56.717-58.123 124.373-125.825L312.744 64h62.542c60.997 0 62.625.042 65.91 1.718m-68.006 32.24c-14.124 5.036-23.13 20.196-20.736 34.905 4.194 25.767 35.597 35.998 54.002 17.593 15.558-15.557 11.135-41.534-8.726-51.251-6.229-3.048-17.837-3.638-24.54-1.247" fill-rule="evenodd"/></svg>