<svg xmlns="http://www.w3.org/2000/svg" width="512" height="512"><path d="M160.427 48.657c-6.758.829-15.458 3.92-21.724 7.717-6.094 3.693-14.933 12.699-18.792 19.146-2.819 4.71-7.271 16.753-7.271 19.671 0 1.074 18.769 1.236 143.36 1.236 124.591 0 143.36-.162 143.36-1.236 0-2.951-4.49-15-7.443-19.977-3.755-6.327-13.568-15.983-20.038-19.716-2.485-1.434-7.591-3.659-11.346-4.944l-6.826-2.336-93.867-.121c-51.627-.067-96.363.185-99.413.56m-62.294 64.064c-12.563 1.626-23.861 7.381-33.429 17.026-5.267 5.309-7.304 8.166-10.402 14.588-6.742 13.975-6.515 10.336-6.515 104.412 0 93.957-.217 90.457 6.449 104.275 8.907 18.466 26.599 29.721 48.377 30.775l9.174.445.012 21.426c.01 15.884.339 22.809 1.274 26.775 3.584 15.202 15.238 26.89 30.366 30.456 8.231 1.94 216.891 1.94 225.122 0 15.128-3.566 26.782-15.254 30.366-30.456.935-3.966 1.264-10.891 1.274-26.775l.012-21.426 9.174-.445c22.51-1.09 40.149-12.712 49.277-32.469 5.747-12.439 5.634-10.183 5.365-106.421l-.242-86.614-2.322-6.844c-7.329-21.602-24.736-35.999-46.883-38.776-8.623-1.081-308.079-1.036-316.449.048m303.416 49.319c8.946 4.063 14.03 11.973 14.016 21.808-.011 7.633-2.487 13.275-7.932 18.068-4.091 3.6-10.74 6.297-15.526 6.297-4.751 0-11.43-2.692-15.444-6.225-5.508-4.848-8.104-10.425-8.172-17.553-.094-10.058 5.086-18.269 14.112-22.368 4.757-2.16 14.221-2.173 18.946-.027m-35.822 96.781 2.06 2.394v165.583l-2.495 2.494-2.494 2.495H149.202l-2.494-2.495-2.495-2.494v-82.649c0-89.919-.239-85.353 4.572-87.308 1.012-.411 49.394-.67 108.356-.579l106.527.165 2.059 2.394" fill-rule="evenodd"/></svg>