<svg xmlns="http://www.w3.org/2000/svg" width="512" height="512"><path d="M160.853 48.618c-13.071 1.617-21.91 6.078-32.085 16.193-5.89 5.856-8.04 8.727-10.895 14.549-3.954 8.061-6.086 17.315-6.086 26.406v5.777l-8.747.592c-17.414 1.178-26.794 5.265-38.272 16.676-5.886 5.852-8.043 8.731-10.899 14.549-6.329 12.894-6.167 9.928-5.895 108.015l.241 86.972 1.988 5.973c5.102 15.335 17.122 28.757 31.412 35.076 6.482 2.868 15.283 4.604 23.331 4.604h6.702l.317 24.107c.302 22.905.418 24.362 2.329 29.226 2.458 6.258 5.552 10.839 10.429 15.441 5.183 4.89 7.996 6.648 14.37 8.982l5.547 2.031h222.72l5.547-2.036c10.168-3.733 18.672-11.403 23.077-20.817 3.694-7.892 4.229-12.418 4.229-35.717V384h6.872c16.278 0 29.525-5.567 41.014-17.236 6.137-6.233 10.162-12.78 13.278-21.599l2.41-6.818.244-87.04c.274-97.997.452-94.77-5.942-107.947-2.846-5.866-4.922-8.648-10.857-14.549-11.478-11.411-20.858-15.498-38.272-16.676l-8.747-.592v-5.888c0-8.786-2.182-18.15-6.129-26.295-4.541-9.373-15.068-20.232-24.164-24.928-12.675-6.542-5.204-6.115-110.08-6.29-51.627-.086-96.171.128-98.987.476m193.28 33.609c4.207 2.236 9.217 7.2 11.319 11.213 1.282 2.45 1.894 5.522 2.165 10.88l.378 7.467h-223.99l.375-7.467c.421-8.37 1.684-11.596 6.541-16.71 3.132-3.298 6.421-5.397 10.353-6.607 1.177-.362 44.379-.592 96.006-.51 89.718.14 93.999.217 96.853 1.734m64.427 64.261c4.048 2.191 9.001 7.218 11.213 11.379 1.512 2.846 1.598 7.028 1.816 89.061l.23 86.076-2.031 4.435c-2.088 4.561-7.023 10.038-10.819 12.007-2.618 1.358-11.056 2.981-15.499 2.981h-3.257l-.012-45.867c-.014-49.439-.206-51.969-4.601-60.641-4.566-9.012-13.871-16.84-23.624-19.876-4.986-1.551-9.647-1.616-115.976-1.616s-110.99.065-115.976 1.616c-9.753 3.036-19.058 10.864-23.624 19.876-4.395 8.672-4.587 11.202-4.601 60.641l-.012 45.867h-3.257c-4.443 0-12.881-1.623-15.499-2.981-3.796-1.969-8.731-7.446-10.819-12.007l-2.031-4.435.23-86.076c.218-82.033.304-86.215 1.816-89.061 3.143-5.913 9.163-11.058 15.047-12.861 1.177-.36 73.179-.59 160.006-.511l157.867.145 3.413 1.848m-36.693 15.946c-4.806 2.243-9.929 7.46-12.046 12.267-2.116 4.805-2.01 14.222.215 19.006 4.137 8.895 12.347 14.091 22.071 13.966 7.112-.091 11.081-1.647 16.174-6.341 12.176-11.224 9.217-31.275-5.713-38.715-5.982-2.98-14.544-3.056-20.701-.183m-18.931 94.519c1.025.524 2.527 1.772 3.338 2.774 1.374 1.696 1.476 7.447 1.494 84.445l.019 82.626-2.495 2.494-2.494 2.495H149.202l-2.494-2.495-2.495-2.494.019-82.626c.018-77.002.12-82.748 1.494-84.434.811-.995 2.242-2.231 3.181-2.748 2.443-1.343 211.404-1.379 214.029-.037" fill-rule="evenodd"/></svg>