<svg xmlns="http://www.w3.org/2000/svg" width="512" height="512"><path d="M117.238 48.619c-.991.403-2.63 1.784-3.641 3.07-1.786 2.27-1.833 2.951-1.612 23.325L112.213 96h287.574V52.943l-2.366-2.365-2.366-2.365-138.008-.163c-75.904-.09-138.818.166-139.809.569M96.56 112.705c-19.042 2.47-35.578 14.843-43.661 32.667-5.26 11.603-5.112 7.981-5.112 125.141 0 116.621-.25 110.754 4.789 112.67 1.213.461 14.568.817 30.654.817h28.505l.239 37.528.239 37.528 2.366 2.365 2.366 2.366h278.11l2.366-2.366 2.366-2.365.239-37.528.239-37.528h28.505c16.086 0 29.441-.356 30.654-.817 5.099-1.939 4.849 4.355 4.595-115.444l-.232-109.446-2.322-6.844c-7.329-21.602-24.736-35.999-46.883-38.776-8.543-1.071-309.751-1.041-318.022.032m304.989 49.335c8.946 4.063 14.03 11.973 14.016 21.808-.011 7.633-2.487 13.275-7.932 18.068-4.091 3.6-10.74 6.297-15.526 6.297-4.751 0-11.43-2.692-15.444-6.225-5.508-4.848-8.104-10.425-8.172-17.553-.094-10.058 5.086-18.269 14.112-22.368 4.757-2.16 14.221-2.173 18.946-.027m-42.466 103.517c.781.782 1.024 19.318 1.024 78.226 0 70.64-.12 77.335-1.413 78.763-1.353 1.495-5.653 1.561-102.546 1.561-92.908 0-101.261-.115-102.694-1.413-1.49-1.348-1.561-4.91-1.561-78.762 0-59.024.243-77.593 1.024-78.375 1.487-1.487 204.679-1.487 206.166 0" fill-rule="evenodd"/></svg>