<svg xmlns="http://www.w3.org/2000/svg" viewBox="0 0 512 512"><path d="M136.107 183.643C70.4 275.682 16.533 351.248 16.402 351.567c-.131.319 53.725 32.955 119.68 72.525L256 496.037l119.918-71.945c65.955-39.57 119.811-72.206 119.68-72.525C495.067 350.272 256.395 16.298 256 16.298c-.235 0-54.187 75.305-119.893 167.345m99.204 172.623-.218 80.64-79.786-47.855c-43.883-26.32-80.13-48.187-80.55-48.592-.441-.426 33.276-48.395 79.786-113.513l80.55-112.774.218 80.727c.12 44.4.12 117.016 0 161.367" fill-rule="evenodd"/></svg>