<svg xmlns="http://www.w3.org/2000/svg" width="512" height="512"><path d="M171.314 48.981c-4.935 1.792-7.311 3.668-9.041 7.138-.875 1.753-15.321 58.172-32.104 125.375L99.654 303.682l-27.854.266-27.853.265-3.85 2.263c-7.848 4.615-10.207 14.102-5.422 21.806 1.485 2.392 3.785 4.637 5.858 5.721 3.274 1.71 4.825 1.794 37.779 2.025 22.269.156 35.547-.077 37.721-.663 3.913-1.053 8.098-4.328 9.842-7.702.675-1.305 11.482-43.39 24.015-93.521 12.534-50.131 22.903-90.778 23.043-90.325.14.453 11.789 70.064 25.885 154.691 18.695 112.233 26.084 154.758 27.307 157.155 3.153 6.181 10.958 9.616 17.676 7.78 4.12-1.127 8.3-4.349 10.063-7.758.669-1.293 12.394-41.467 26.057-89.274 13.662-47.808 24.965-87.048 25.118-87.201.152-.152 3.634 9.827 7.737 22.177 4.104 12.349 8.159 23.845 9.012 25.546 1.978 3.946 5.924 7.265 9.972 8.389 1.858.517 13.849.884 28.94.887l25.767.004 3.036 5.76c4.1 7.779 8.776 13.024 15.641 17.545 8.028 5.286 14.515 7.518 23.414 8.054 13.983.843 26.123-3.394 35.875-12.521 16.176-15.138 19.988-37.486 9.829-57.62-5.511-10.921-18.073-20.639-30.921-23.919-20.564-5.25-43.698 5.14-53.631 24.088l-3.243 6.187h-39.018l-14.244-42.88c-7.833-23.584-15.136-44.274-16.228-45.977-3.734-5.827-13.26-8.446-19.419-5.339-5.092 2.568-7.371 5.512-9.477 12.24-1.108 3.54-11.363 39.199-22.789 79.243-13.514 47.358-20.991 72.264-21.392 71.253-.34-.854-12.198-71.25-26.352-156.434S191.261 59.675 190.586 58.038c-3.188-7.726-11.795-11.771-19.272-9.057" fill-rule="evenodd"/></svg>