<svg xmlns="http://www.w3.org/2000/svg" width="512" height="512"><path d="M172.291 48.727c-2.158.323-5.038 1.167-6.4 1.875-3.884 2.019-8.699 7.32-10.144 11.167-.725 1.931-14.697 55.735-31.049 119.564L94.967 297.387l-31.483.426L32 298.24v43.52l40.926.222c46.319.251 46.814.197 53.604-5.78 2.696-2.373 4.44-4.853 5.56-7.91.898-2.448 10.039-38.148 20.313-79.332 10.274-41.184 18.886-74.88 19.137-74.88.251 0 10.745 60.576 23.321 134.613 12.575 74.038 23.402 136.558 24.059 138.935 2.385 8.622 9.483 14.847 18.438 16.168 8.634 1.275 19.307-4.696 22.454-12.561.796-1.99 11.209-36.46 23.14-76.6 11.931-40.14 21.928-73.558 22.215-74.262.296-.725 2.639 5.005 5.41 13.227 5.871 17.425 6.647 19.005 11.283 22.974 5.895 5.045 9.246 5.609 33.495 5.638l21.392.025 2.986 5.302c4.516 8.016 13.1 16.063 21.547 20.198 9.11 4.459 15.496 6.026 24.499 6.01 15.339-.026 27.202-4.933 38.069-15.747 10.759-10.706 15.973-23.11 15.973-38 0-22.01-13.079-41.304-33.977-50.126-9.83-4.149-25.32-4.652-36.244-1.177-12.049 3.833-23.952 13.31-29.867 23.779l-2.986 5.287-12.516.025-12.516.025-13.86-41.6c-7.624-22.88-14.791-43.009-15.926-44.731-5.519-8.37-17.695-11.619-27.109-7.236-4.475 2.084-9.3 6.85-10.809 10.675-.489 1.239-9.255 31.436-19.48 67.106-10.225 35.669-18.808 64.277-19.074 63.573-.266-.704-11.075-63.68-24.02-139.947-12.945-76.266-24.091-140.351-24.768-142.41-3.323-10.099-13.481-16.147-24.378-14.516" fill-rule="evenodd"/></svg>