<svg xmlns="http://www.w3.org/2000/svg" width="512" height="512"><path d="M121.84 33.752c-10.499 2.545-23.096 10.893-30.005 19.882-4.973 6.47-7.985 12.632-9.971 20.398-1.591 6.22-1.651 10.505-1.651 117.968 0 107.463.06 111.748 1.651 117.968 4.951 19.359 20.173 34.807 39.736 40.325 6.777 1.912 49.413 2.891 57.029 1.31 8.774-1.821 14.123-8.984 13.15-17.61-.498-4.418-2.211-7.118-6.951-10.957l-3.222-2.609-26.163-.427c-25.097-.409-26.31-.505-29.767-2.352-4.891-2.614-9.468-7.359-11.651-12.078l-1.812-3.917V82.347l1.812-3.917c2.183-4.719 6.76-9.464 11.651-12.078l3.604-1.925h253.44l3.604 1.925c4.891 2.614 9.468 7.359 11.651 12.078l1.812 3.917v219.306l-1.812 3.917c-2.183 4.719-6.76 9.464-11.651 12.078-3.456 1.846-4.676 1.943-29.631 2.352-25.872.424-26.045.439-29.112 2.515-6.653 4.503-9.124 11.971-6.358 19.215 2.024 5.3 6.109 8.62 12.148 9.873 7.616 1.581 50.252.602 57.029-1.31 19.467-5.492 34.796-21.008 39.701-40.188 1.636-6.399 1.686-9.847 1.686-118.105 0-107.463-.06-111.748-1.651-117.968-3.991-15.606-14.861-28.921-29.701-36.384-10.882-5.472-3.265-5.202-144.862-5.138-106.774.049-129.689.262-133.733 1.242m127.333 111.819c-3.182 1.376-81.923 79.312-85.864 84.986-3.068 4.418-3.822 8.524-2.501 13.617 1.288 4.964 3.872 8.041 8.579 10.213 4.188 1.933 8.849 2.039 13.022.295 2.082-.87 12.37-10.503 30.256-28.333l27.101-27.015.224 134.786.223 134.787 1.995 3.207c6.232 10.024 21.352 10.024 27.584 0l1.995-3.207.223-134.787.224-134.786 27.101 27.015c17.886 17.83 28.174 27.463 30.256 28.333 4.173 1.744 8.834 1.638 13.022-.295 4.707-2.172 7.291-5.249 8.579-10.213 1.321-5.093.567-9.199-2.501-13.617-1.201-1.729-20.34-21.268-42.531-43.421-27.539-27.491-41.354-40.697-43.519-41.6-3.98-1.659-9.582-1.645-13.468.035" fill-rule="evenodd"/></svg>