<svg xmlns="http://www.w3.org/2000/svg" width="512" height="512"><path d="M31.573 136.107v103.68h208.214V32.427H31.573v103.68m240.64 0v103.68h208.214V32.427H272.213v103.68m-75.946 0v60.16H75.947V75.947h120.32v60.16m239.786 0v60.16h-120.32V75.947h120.32v60.16m-340.48 0v39.68h80.214v-79.36H95.573v39.68m240.64 0v39.68h80.214v-79.36h-80.214v39.68m-304.43 240L32 480l103.893.217 103.894.216v-208.22H31.567l.216 103.894m240.43-71.894v32h64v80.231l39.894-.222L416 416l.222-39.893.222-39.894h-80.231v-64h-64v32m159.574-8.106V320h48.64v-47.787h-48.64v23.894m-235.52 79.786v60.16H75.947v-120.32h120.32v60.16m-100.489.214L96 416l39.893.222 39.894.222v-80.231H95.556l.222 39.894m319.998 72.106L416 480h64l.224-31.787.223-31.786h-64.894l.223 31.786m-143.563 7.894v24.32H320v-48.64h-47.787v24.32" fill-rule="evenodd"/></svg>