<svg xmlns="http://www.w3.org/2000/svg" width="512" height="512"><path d="M53.666 33.672C42.161 37.94 34.128 47.858 32.378 59.954c-1.095 7.569-1.016 145.564.087 152.526 1.73 10.921 8.485 19.876 18.549 24.593l4.879 2.287H216.32l4.895-2.294c6.253-2.931 12.92-9.598 15.851-15.851l2.294-4.895V55.858l-2.799-5.687c-3.138-6.373-8.592-11.824-15.196-15.184l-4.192-2.134-80.213-.162c-65.227-.132-80.789.052-83.294.981m240.814-.265c-4.174 1.212-11.129 5.872-14.5 9.715-1.596 1.819-3.9 5.436-5.12 8.039l-2.22 4.732V216.32l2.294 4.895c2.931 6.253 9.598 12.92 15.851 15.851l4.895 2.294h160.462l5.687-2.799c9.737-4.794 15.965-13.269 17.697-24.081 1.112-6.944 1.199-144.902.096-152.526-1.565-10.818-7.936-19.639-17.791-24.633l-4.871-2.468-79.787-.145c-50.519-.092-80.852.165-82.693.699m-86.267 102.7v72.106H64V64h144.213v72.107m239.787 0v72.106H303.787V64H448v72.107M99.547 97.393c-3.691 2.145-3.974 4.901-3.974 38.714 0 34.085.279 36.692 4.139 38.758 1.153.617 13.25.922 36.606.922h34.883l2.293-2.394 2.293-2.393v-70.384l-2.095-2.095-2.094-2.094-35.239.026c-23.471.017-35.764.331-36.812.94m238.761 1.128-2.095 2.095V171l2.293 2.393 2.293 2.394h34.883c23.356 0 35.453-.305 36.606-.922 3.86-2.066 4.139-4.673 4.139-38.758 0-34.086-.279-36.693-4.139-38.758-1.154-.618-13.306-.922-36.804-.922h-35.082l-2.094 2.094M54.857 273.442c-8.311 2.618-16.033 9.175-19.656 16.691-3.521 7.304-3.711 12.25-3.45 90.046L32 454.4l2.234 5.301c3.573 8.476 9.589 14.492 18.065 18.065L57.6 480l74.221.249c77.346.259 82.77.058 89.816-3.338 5.958-2.873 11.838-8.815 14.924-15.082l2.799-5.687V295.68l-2.294-4.895c-2.931-6.253-9.598-12.92-15.851-15.851l-4.895-2.294-78.933-.165c-63.585-.133-79.633.055-82.53.967m219.982.981-2.626 2.209v54.366l2.06 2.394 2.059 2.395h54.723l2.366-2.366 2.366-2.366v-54.723l-2.395-2.059-2.394-2.06h-53.534l-2.625 2.21m159.769-.152-2.395 2.058-.26 18.374c-.284 20.132.221 22.806 4.623 24.48 1.182.449 10.181.817 19.999.817h17.851l2.787-2.488 2.787-2.489.282-16.427c.32-18.676-.011-21.496-2.86-24.345-2.027-2.027-2.136-2.038-21.229-2.038-19.052 0-19.209.015-21.585 2.058M208.213 375.893V448H64V303.787h144.213v72.106M99.547 337.18c-3.691 2.145-3.974 4.901-3.974 38.713 0 36.033.143 37.051 5.489 39.284 2.445 1.022 8.832 1.25 35.045 1.25 34.085 0 36.692-.279 38.758-4.139.617-1.153.922-13.273.922-36.689v-34.967l-2.626-2.209-2.625-2.21-34.708.026c-23.094.018-35.234.332-36.281.941m239.292 1.243-2.626 2.209v34.967c0 23.416.305 35.536.922 36.689 2.066 3.86 4.673 4.139 38.758 4.139 26.213 0 32.6-.228 35.045-1.25 5.346-2.233 5.489-3.251 5.489-39.284 0-34.085-.279-36.692-4.139-38.758-1.152-.617-13.155-.922-36.273-.922h-34.551l-2.625 2.21m80.708 78.97c-3.539 2.057-3.974 5.404-3.974 30.607 0 19.095.253 24.554 1.25 26.938 2.156 5.16 4.021 5.489 31.177 5.489s29.021-.329 31.177-5.489c.997-2.384 1.25-7.843 1.25-26.938 0-25.44-.436-28.67-4.139-30.651-2.358-1.262-54.564-1.222-56.741.044m-143.259 15.724c-1.279.694-2.719 1.997-3.2 2.896-.522.975-.875 9.248-.875 20.503 0 25.5-1.396 24.242 26.383 23.766l16.427-.282 2.489-2.787 2.488-2.787v-17.851c0-9.818-.382-18.854-.848-20.081-1.531-4.027-4.995-4.711-23.658-4.673-13.23.027-17.384.307-19.206 1.296" fill-rule="evenodd"/></svg>