<svg xmlns="http://www.w3.org/2000/svg" width="512" height="512"><path d="M75.528 75.665c-5.065 1.554-11.958 8.248-21.448 20.83-26.729 35.439-43.46 74.136-50.605 117.046-11.731 70.45 6.271 143.203 49.676 200.752 14.737 19.54 20.753 24.026 31.221 23.277 6.406-.459 9.898-1.977 14.015-6.094 3.749-3.749 5.939-8.505 6.397-13.893.573-6.757-1.52-11.595-8.793-20.32-26.731-32.068-43.074-67.964-49.631-109.009-1.203-7.532-1.54-14.587-1.54-32.254 0-24.705.874-32.902 5.53-51.88 7.5-30.568 23.378-62.467 42.561-85.507 7.851-9.43 10.183-13.31 11.348-18.891 2.099-10.052-4.667-21.156-14.709-24.138-5.515-1.638-8.474-1.621-14.022.081m346.565-.032c-6.045 1.856-11.961 8.034-13.821 14.432-2.548 8.765-.721 14.512 7.89 24.818 19.927 23.85 34.87 51.716 43.234 80.623 11.291 39.023 10.995 84.339-.808 123.386-8.923 29.523-22.432 54.124-44.074 80.269-7.361 8.891-9.071 15.688-6.124 24.336 1.491 4.376 6.417 9.968 10.759 12.213 1.546.8 5.361 1.637 8.479 1.86 10.859.777 16.024-3.214 32.319-24.972 59.496-79.443 68.679-186.506 23.61-275.258-9.968-19.628-26.224-43.395-37.66-55.058-7.419-7.567-14.436-9.527-23.804-6.649m-291.962 45.838c-8.717 4.059-27.295 27.993-37.581 48.413-35.281 70.044-24.262 154.427 27.751 212.521 6.34 7.082 11.8 10.107 18.267 10.12 6.07.012 10.363-1.556 14.692-5.366 9.238-8.132 10.506-20.459 3.069-29.842-1.736-2.19-5.698-7.162-8.806-11.049-16.898-21.137-27.492-47.167-30.559-75.088-4.476-40.739 9.148-82.188 37.452-113.945 6.552-7.351 8.388-15.071 5.56-23.371-4.098-12.026-18.125-17.851-29.845-12.393m233.678-.354c-5.041 2.289-10.036 7.614-11.687 12.46-2.976 8.733-1.218 16.031 5.799 24.077 21.556 24.717 33.678 51.879 37.115 83.166 4.159 37.853-7.514 77.304-31.595 106.779-9.645 11.805-10.913 13.71-11.931 17.923-4.273 17.679 13.933 32.656 30.386 24.994 4.871-2.268 10.86-8.47 20.506-21.234 24.037-31.806 37.164-71.184 37.336-112.002.12-28.235-4.98-52.921-16.263-78.732-10.025-22.934-31.461-52.353-41.579-57.064-5.431-2.529-12.988-2.683-18.087-.367m-178.352 49.515c-9.483 2.259-20.978 15.79-30.48 35.881-11.87 25.096-14.065 55.15-6.079 83.219 3.264 11.473 11.949 28.281 19.815 38.349 5.462 6.991 7.523 8.955 11.559 11.018 9.128 4.665 18.943 2.848 25.964-4.806 3.374-3.677 6.244-10.341 6.244-14.497 0-4.676-2.325-9.782-7.79-17.108-11.485-15.395-16.323-29.233-16.323-46.688 0-16.92 5.105-32.035 15.129-44.8 7.523-9.579 8.518-11.822 8.518-19.2 0-7.666-1.865-11.864-7.361-16.568-5.422-4.641-12.467-6.403-19.196-4.8m129.397.445c-4.853 1.555-10.557 6.378-12.997 10.988-1.444 2.728-1.871 4.996-1.874 9.935-.003 7.252.965 9.615 6.949 16.966 16.009 19.67 20.967 46.602 12.974 70.483-3.034 9.064-5.681 13.884-13.07 23.795-6.559 8.797-8.202 14.018-6.526 20.737 2.759 11.06 10.568 17.429 21.535 17.566 7.52.094 13.077-3.048 19.487-11.016 12.468-15.498 20.068-31.51 24.441-51.491 2.252-10.291 2.254-35.793.003-46.035-4.438-20.201-12.147-36.301-24.974-52.162-7.429-9.186-16.78-12.705-25.948-9.766m-67.714 49.978c-9.84 2.471-19.168 10.394-23.835 20.248-2.519 5.315-2.718 6.396-2.718 14.697 0 8.301.199 9.382 2.718 14.697 3.777 7.974 9.349 13.65 17.213 17.537 6.204 3.066 6.756 3.179 15.482 3.179 8.726 0 9.278-.113 15.482-3.179 7.864-3.887 13.436-9.563 17.213-17.537 2.519-5.315 2.718-6.396 2.718-14.697 0-8.301-.199-9.382-2.718-14.697-3.736-7.887-9.361-13.656-16.993-17.428-5.444-2.69-7.141-3.106-13.73-3.361-4.135-.16-9.009.084-10.832.541" fill-rule="evenodd"/></svg>