<svg xmlns="http://www.w3.org/2000/svg" width="512" height="512"><path d="M237.367 17.218c-8.972 1.125-24.236 5.139-33.528 8.819-19.291 7.638-35.378 18.611-50.251 34.278-19.041 20.057-33.394 48.205-39.545 77.551l-1.923 9.173-8.487 1.922c-30.734 6.96-55.304 23.959-68.548 47.427-16.489 29.217-14.152 72.733 5.375 100.084 4.644 6.505 16.053 17.461 22.433 21.542 11.544 7.385 26.013 12.882 42.697 16.221 6.884 1.378 17.554 1.52 134.623 1.791 131.666.304 137.709.178 153.245-3.201 36.444-7.929 67.063-30.974 82.231-61.892 9.219-18.792 11.884-30.464 11.884-52.053 0-12.62-.335-16.918-1.88-24.093-7.642-35.503-29.008-62.204-62.671-78.319-11.251-5.386-19.942-8.4-31.555-10.943l-8.426-1.845-2.8-6.4c-6.842-15.64-17.353-30.432-30.945-43.549-13.405-12.938-24.378-20.308-40.437-27.163-20.504-8.751-47.794-12.32-71.492-9.35M118.602 392.976c-13.67 20.498-24.732 37.369-24.582 37.493 1.883 1.541 26.517 17.587 26.688 17.383 1.059-1.259 48.458-72.783 48.767-73.588.338-.882-7.319-6.39-23.719-17.061l-2.298-1.495-24.856 37.268m64.075 24.209-40.913 61.361 13.199 8.763c7.73 5.131 13.5 8.438 13.923 7.98 1.45-1.569 81.25-121.703 80.986-121.919-.15-.122-6.124-4.12-13.277-8.884l-13.005-8.662-40.913 61.361m96-24.145c-14.558 21.871-24.359 37.38-23.893 37.809 2.784 2.562 25.587 17.004 26.045 16.496 1.547-1.714 48.558-72.818 48.558-73.445 0-.587-12.414-9.197-23.894-16.573l-2.133-1.37-24.683 37.083m64.08 23.808c-22.373 33.559-40.677 61.203-40.677 61.431 0 .573 25.403 17.513 26.22 17.484.731-.026 80.727-119.849 81.119-121.507.202-.851-8.221-6.869-23.782-16.991l-2.204-1.433-40.676 61.016" fill-rule="evenodd"/></svg>