<svg xmlns="http://www.w3.org/2000/svg" width="512" height="512"><path d="M241.067 16.776c-22.09 2.65-44.339 10.492-61.44 21.657-30.69 20.036-52.776 51.253-63.066 89.14-5.05 18.593-5.334 18.911-21.125 23.624-19.662 5.869-31.687 12.591-44.332 24.781-7.358 7.095-12.061 13.155-16.468 21.224-16.055 29.391-13.547 72.138 5.824 99.27 4.644 6.505 16.053 17.461 22.433 21.542 11.544 7.385 26.013 12.882 42.697 16.221 6.884 1.378 17.554 1.52 134.623 1.791 89.295.206 129.941.011 136.534-.657 31.7-3.212 57.373-14.975 78.107-35.788 16.465-16.528 26.307-34.987 31.197-58.514 2.369-11.395 2.188-34.383-.364-46.28-9.448-44.041-41.166-75.539-88.353-87.74-5.103-1.32-10.479-3.207-11.946-4.195-1.767-1.189-4.36-4.955-7.678-11.15-22.658-42.305-57.891-67.903-102.109-74.188-7.972-1.133-27.723-1.555-34.534-.738M138.824 368.984c-1.792.66-4.056 1.909-5.032 2.775-.977.866-9.719 13.492-19.429 28.058-12.079 18.12-17.814 27.473-18.162 29.619-1.083 6.673 2.919 14.131 9.087 16.931 6.186 2.81 12.367 1.913 17.055-2.475 2.434-2.278 33.057-47.47 35.926-53.018 2.147-4.152 1.936-10.212-.508-14.56-3.601-6.407-12.302-9.775-18.937-7.33m80.188.047c-1.804.644-4.254 2.067-5.443 3.163-2.128 1.96-65.251 95.945-67.965 101.192-2.747 5.312-1.058 14.31 3.425 18.244 5.155 4.525 12.88 5.445 18.651 2.223 2.943-1.644 8.107-8.931 37.455-52.86 31.217-46.724 34.076-51.301 34.446-55.153.222-2.311-.046-5.564-.596-7.231-1.267-3.839-6.635-8.731-10.871-9.907-4.116-1.143-5.068-1.109-9.102.329m80.61-.28c-1.586.467-3.841 1.476-5.01 2.242-2.24 1.467-35.419 50.537-37.437 55.366-1.404 3.362-1.513 7.834-.269 11.132 1.228 3.258 5.747 7.895 9.093 9.331 5.101 2.188 12.462.911 16.754-2.908 2.25-2.002 33.675-49.146 35.633-53.457 2.68-5.901 1.557-12.626-2.907-17.406-3.784-4.054-10.501-5.875-15.857-4.3m79.933-.153c-1.271.401-3.509 1.582-4.973 2.624-2.753 1.961-66.218 96.223-69.189 102.765-1.988 4.376-1.985 7.675.011 11.986 2.918 6.302 8.141 9.814 14.596 9.814 4.275 0 7.51-1.258 10.562-4.108 1.351-1.261 17.339-24.602 35.53-51.87 24.94-37.383 33.217-50.425 33.657-53.024 1.094-6.476-1.816-12.851-7.443-16.302-3.25-1.994-9.484-2.916-12.751-1.885" fill-rule="evenodd"/></svg>