<svg xmlns="http://www.w3.org/2000/svg" width="512" height="512"><path d="M144.213 160.427v128h223.518l.241 71.893.241 71.893 2.3 6.299c6.712 18.379 22.807 32.405 44.807 39.045 6.883 2.077 8.748 2.266 22.44 2.275 13.859.009 15.429-.152 21.827-2.249 17.363-5.688 29.681-19.425 34.494-38.466 1.681-6.654 1.706-9.595 1.706-206.72 0-109.984-.288-199.97-.64-199.97-.352 0-11.171 3.51-24.043 7.801l-23.403 7.8-15.865-7.897-15.865-7.897-15.985 7.979L384 48.192l-15.986-7.979-15.985-7.979-16.015 7.972L320 48.177l-16.014-7.971-16.015-7.972-15.978 7.975-15.978 7.976-16.022-7.976-16.022-7.975-15.827 7.9-15.828 7.9-23.412-7.804c-12.876-4.292-23.699-7.803-24.051-7.803-.352 0-.64 57.6-.64 128m287.574-16.21v16.216l-111.574-.216L208.64 160l-.232-16-.232-16h223.611v16.217m0 79.783v15.787H272.213v-31.574h159.574V224M16.456 354.347c.449 36.005 1.268 46.053 4.988 61.226 7.555 30.821 25.069 50.518 52.65 59.214 17.018 5.366 9.615 5.111 157.799 5.424 74.272.157 135.014-.019 134.981-.39-.032-.371-2.342-2.516-5.133-4.766-9.898-7.982-18.668-20.536-22.775-32.602l-2.324-6.826-.248-57.814-.248-57.813H16.027l.429 34.347" fill-rule="evenodd"/></svg>