<svg xmlns="http://www.w3.org/2000/svg" width="512" height="512"><path d="M153.173 33.636c-3.18 1.42-6.853 5.272-8.052 8.446-.628 1.661-.908 44.903-.908 140.16V320l-49.706.013c-37.978.011-50.829.278-54.46 1.133-8.863 2.086-17.417 9.348-21.542 18.289-1.649 3.572-1.894 5.777-2.148 19.329-1.302 69.501 18.095 105.86 62.595 117.332 14.712 3.792 11.61 3.716 167.235 4.085 158.689.376 164.185.265 178.729-3.628 36.442-9.752 64.756-41.503 69.979-78.473.698-4.944.895-55.002.715-181.468l-.25-174.64-2.621-3.28c-3.45-4.317-7.445-6.262-12.863-6.264-3.772-.001-6.328.959-18.133 6.807L448 46.044l-13.743-6.809c-18.413-9.122-18.101-9.123-36.604.045l-13.833 6.853-13.577-6.853c-18.228-9.201-18.019-9.201-36.524-.033l-13.766 6.82-13.62-6.82c-18.12-9.074-17.682-9.073-36.381-.033l-14.038 6.787-13.7-6.787c-18.352-9.092-18.076-9.092-36.471.021L192 46.044l-13.743-6.809c-11.907-5.899-14.329-6.804-18.133-6.775-2.415.018-5.543.548-6.951 1.176m103.596 46.318c2.342-.258 8.925-2.965 17.493-7.194L288 65.979l14.467 7.117c9.993 4.916 15.415 7.117 17.533 7.117 2.119 0 7.537-2.2 17.533-7.12L352 65.972l14.507 7.198c17.952 8.906 16.855 8.918 35.755-.41L416 65.979l14.467 7.117c9.433 4.641 15.465 7.117 17.336 7.117 1.578 0 5.778-1.344 9.333-2.986 3.555-1.643 6.613-2.987 6.794-2.987.182 0 .217 72.096.079 160.213l-.252 160.214-1.961 6.376c-3.051 9.921-8.195 18.962-14.833 26.071-13.895 14.878-30.677 21.731-50.555 20.645-23.78-1.3-43.852-14.931-54.303-36.879-5.31-11.152-5.892-15.953-5.892-48.631 0-23.929-.217-29.171-1.32-31.811-1.762-4.217-4.362-6.919-8.493-8.825-3.234-1.493-7.282-1.577-77.013-1.594l-73.6-.019V197.12c0-67.584.138-122.88.306-122.88.169 0 3.216 1.344 6.771 2.987 3.555 1.642 7.755 2.986 9.333 2.986 1.872 0 7.9-2.476 17.336-7.12L224 65.972l14.507 7.198c13.082 6.49 14.875 7.156 18.262 6.784m-39.879 49.877c-6.79 3.361-10.345 12.288-7.875 19.773 1.472 4.459 6.651 8.743 11.941 9.877 6.196 1.329 191.892 1.329 198.088 0 5.29-1.134 10.469-5.418 11.941-9.877 2.485-7.529-1.11-16.485-7.945-19.794l-3.739-1.81-99.357.001h-99.357l-3.697 1.83m63.689 80.124c-1.735.916-4.231 3.077-5.547 4.802-2.111 2.769-2.392 3.862-2.392 9.311 0 5.599.24 6.47 2.581 9.363 5.505 6.801.133 6.356 76.586 6.356 65.142 0 68.239-.071 71.267-1.616 5.589-2.853 8.713-7.933 8.713-14.171 0-6.238-3.124-11.318-8.713-14.171-3.03-1.546-6.084-1.614-71.253-1.578-65.846.037-68.191.093-71.242 1.704m23.224 160.178c.01 10.3.519 21.455 1.217 26.667 2.321 17.324 9.683 34.465 20.26 47.17l3.394 4.077-116.764-.273c-109.671-.257-117.126-.368-122.737-1.828-23.752-6.179-34.241-19.674-38.783-49.896-.762-5.07-2.522-33.431-2.588-41.703l-.015-1.92h256l.016 17.706" fill-rule="evenodd"/></svg>