<svg xmlns="http://www.w3.org/2000/svg" width="512" height="512"><path d="M152.32 34.023c-3.398 2.11-6.081 5.115-7.196 8.059-.63 1.661-.911 40.048-.911 124.36v121.957l100.48.227 100.48.227 5.335 2.894c6.481 3.514 11.548 8.832 14.582 15.304l2.27 4.842.427 60.16.426 60.16 2.3 6.299c6.714 18.385 22.847 32.44 44.807 39.033 6.739 2.023 8.947 2.261 21.587 2.322 15.759.076 21.29-.928 30.457-5.527 13.371-6.71 24.418-21.007 27.473-35.555.681-3.244.95-59.62.95-199.494 0-212.287.339-197.95-4.802-202.757-3.191-2.984-6.304-4.107-11.378-4.107-3.434 0-6.414 1.136-17.864 6.808L448 46.044l-13.743-6.809c-18.401-9.116-18.113-9.116-36.514 0L384 46.044l-13.743-6.809c-18.477-9.154-18.286-9.154-36.614.023L320 46.09l-13.643-6.832c-18.147-9.086-17.703-9.086-36.405-.044l-14.038 6.787-13.7-6.787c-18.352-9.092-18.076-9.092-36.471.021L192 46.044l-13.743-6.809c-12.285-6.086-14.253-6.808-18.56-6.805-3.21.002-5.671.534-7.377 1.593m269.653 95.595c1.878.869 4.445 2.685 5.706 4.034 8.292 8.878 3.454 23.237-8.709 25.845-5.864 1.258-192.484 1.264-197.94.007-8.148-1.877-13.294-8.669-12.631-16.668.482-5.811 3.598-10.583 8.491-13.005l3.697-1.83 98.986.018c94.53.018 99.141.09 102.4 1.599m2.903 81.425c10.805 7.151 8.29 24.342-4.085 27.933-2.07.6-25.267.811-70.56.639l-67.476-.255-3.548-2.348c-6.299-4.169-8.646-12.099-5.681-19.195 1.766-4.228 3.585-6.132 7.647-8.007 3.241-1.496 6.87-1.565 71.743-1.373l68.329.203 3.631 2.403M40.743 320.926c-9.017 2.126-17.41 8.909-21.612 17.467-2.407 4.902-2.501 5.565-2.784 19.58-.69 34.159 4.186 63.098 13.561 80.49 12.058 22.368 30.233 34.669 59.119 40.013 7.093 1.312 19.984 1.474 137.533 1.736 71.339.159 130.584.07 131.656-.198 1.072-.268 2.363-1.398 2.87-2.51.842-1.847.208-2.82-7.338-11.266-5.875-6.574-9.233-11.219-11.632-16.087-5.775-11.718-5.869-12.793-5.907-67.858-.031-45.86-.136-49.289-1.609-52.48-1.906-4.131-4.608-6.73-8.824-8.492-2.812-1.175-18.536-1.312-142.495-1.235-77.462.047-140.757.421-142.538.84" fill-rule="evenodd"/></svg>