<svg xmlns="http://www.w3.org/2000/svg" width="512" height="512"><path d="M114.773 144.744c-26.546 4.029-47.74 14.367-65.346 31.875-9.496 9.444-15.527 17.686-21.242 29.034-31.085 61.717.422 135.787 66.746 156.916 17.012 5.419 10.565 5.211 161.069 5.211s144.057.208 161.069-5.211c20.158-6.422 36.665-17.166 50.87-33.11 26.133-29.333 34.736-71.018 22.318-108.142-5.982-17.884-14.421-31.508-27.684-44.698-15.386-15.3-34.537-25.616-56.386-30.372-10.229-2.227-34.145-2.227-44.374 0-44.326 9.649-77.057 42.218-87.575 87.14-2.501 10.684-2.258 36.364.449 47.36 4.25 17.266 11.579 32.175 22.539 45.854 3.248 4.055 5.613 7.775 5.36 8.434-.7 1.824-92.5 1.75-93.201-.075-.288-.751 1.552-3.743 4.592-7.467 12.186-14.928 19.22-29.383 23.785-48.88 2.284-9.755 2.284-35.471 0-45.226-10.409-44.455-42.259-76.626-85.869-86.731-7.092-1.643-30.832-2.866-37.12-1.912" fill-rule="evenodd"/></svg>