<svg xmlns="http://www.w3.org/2000/svg" width="512" height="512"><path d="M241.92 48.669c-41.512 2.646-80.506 17.676-114.773 44.238-9.465 7.337-27.222 25.066-34.294 34.24-24.319 31.546-37.882 64.117-43.529 104.533-1.581 11.315-1.324 39.619.471 52.053 3.218 22.279 9.736 43.618 19.29 63.147 10.978 22.442 21.97 37.76 40.123 55.912 18.158 18.158 33.484 29.156 55.912 40.119 58.306 28.503 126.535 28.004 184.827-1.352 37.658-18.964 72.648-53.954 91.612-91.612 35.924-71.334 28.186-155.91-20.118-219.895-32.853-43.518-83.69-72.968-138.134-80.021-12.783-1.656-28.606-2.177-41.387-1.362m17.92 87.093c2.824.766 7.223 4.707 25.478 22.822 12.136 12.043 22.6 23.132 23.254 24.642.653 1.51 1.188 4.115 1.188 5.787 0 1.673-.535 4.277-1.188 5.788-.654 1.51-11.118 12.588-23.254 24.618-23.213 23.01-25.296 24.57-31.294 23.436-3.928-.742-8.025-3.489-9.975-6.687-1.897-3.111-2.292-9.838-.756-12.864.52-1.025 5.416-6.415 10.88-11.977l9.934-10.114-10.667.415c-8.337.325-12.158.898-17.493 2.626-18.509 5.993-33.889 20.256-41.106 38.123-4.495 11.129-5.828 26.643-3.309 38.526 6.396 30.182 33.494 51.934 64.636 51.884 19.998-.031 38.423-8.793 50.839-24.176 8.864-10.981 13.257-22.004 14.657-36.781.572-6.043 1.411-10.153 2.425-11.89 5.046-8.64 17.226-8.809 23.511-.325 4.652 6.28 1.511 29.737-6.203 46.323-11.041 23.74-30.899 41.703-55.218 49.948-51.782 17.556-107-12.305-121.26-65.577-1.988-7.424-2.217-9.83-2.217-23.216 0-13.411.227-15.783 2.232-23.276 7.166-26.778 25.022-48.694 49.679-60.976 12.146-6.05 26.583-9.614 38.939-9.614 3.224 0 5.861-.297 5.861-.659 0-.363-3.291-3.915-7.315-7.894-8.496-8.402-9.751-10.432-9.751-15.767 0-6.422 3.013-10.667 9.117-12.844 4.02-1.434 4.178-1.44 8.376-.301" fill-rule="evenodd"/></svg>