<svg xmlns="http://www.w3.org/2000/svg" width="512" height="512"><path d="M241.92 48.669c-41.512 2.646-80.506 17.676-114.773 44.238-9.465 7.337-27.222 25.066-34.294 34.24-24.319 31.546-37.882 64.117-43.529 104.533-1.581 11.315-1.324 39.619.471 52.053 3.218 22.279 9.736 43.618 19.29 63.147 10.978 22.442 21.97 37.76 40.123 55.912 18.158 18.158 33.484 29.156 55.912 40.119 58.306 28.503 126.535 28.004 184.827-1.352 37.658-18.964 72.648-53.954 91.612-91.612 35.924-71.334 28.186-155.91-20.118-219.895-32.853-43.518-83.69-72.968-138.134-80.021-12.783-1.656-28.606-2.177-41.387-1.362m44.165 110.696 29.648 29.657-29.862 29.853-29.862 29.853-9.82-9.792-9.82-9.793 13.869-13.964 13.869-13.963-10.667.413c-8.339.324-12.156.897-17.493 2.625-18.509 5.993-33.889 20.256-41.106 38.123-4.495 11.129-5.828 26.643-3.309 38.526 6.38 30.103 33.453 51.897 64.468 51.897 26.565 0 50.528-15.892 60.79-40.316 3.617-8.608 4.885-15.896 4.902-28.164l.015-10.88h28.16l-.004 10.453c-.011 33-13.058 59.999-37.946 78.522-53.335 39.695-129.667 12.638-146.998-52.106-1.988-7.424-2.217-9.83-2.217-23.216 0-13.411.227-15.783 2.232-23.276 7.166-26.778 25.022-48.694 49.679-60.976 12.146-6.05 26.583-9.614 38.939-9.614 3.224 0 5.861-.294 5.861-.652 0-.359-5.183-5.825-11.519-12.148l-11.519-11.495 9.585-9.613c5.272-5.287 9.786-9.612 10.031-9.612.244 0 13.787 13.346 30.094 29.658" fill-rule="evenodd"/></svg>