<svg xmlns="http://www.w3.org/2000/svg" width="512" height="512"><path d="M253.867 42.213c-.47.168-1.88.53-3.135.805-5.041 1.108-10.886 8.683-10.922 14.155-.045 6.865.776 7.896 28.425 35.706l26.592 26.745-4.346-.567c-2.39-.312-14.678-.59-27.307-.617-17.519-.039-25.185.292-32.347 1.395-19.199 2.955-34.559 7.749-52.054 16.244-53.805 26.127-90.209 77.497-97.666 137.819-1.287 10.414-1.099 31.657.379 42.858 8.836 66.932 54.84 122.669 118.854 143.997 37.192 12.393 74.128 12.393 111.32 0 53.085-17.687 94.169-59.001 111.543-112.166 5.541-16.956 8.584-34.731 8.584-50.145 0-11.423-2.256-15.873-9.604-18.943a15.888 15.888 0 0 0-12.366 0c-7.593 3.173-9.32 6.948-10.395 22.719-.971 14.256-2.455 22.599-6.122 34.419-18.685 60.236-74.195 101.116-137.3 101.116-62.402 0-116.873-39.529-136.859-99.318-8.9-26.622-9.065-59.325-.441-87.126 14.769-47.611 53.777-84.66 101.887-96.771 14.529-3.657 26.37-4.585 52.239-4.092 13.243.252 24.516.729 25.05 1.059.596.369-9.743 11.338-26.808 28.441-28.507 28.571-31.244 31.907-31.244 38.081 0 5.532 5.168 12.875 10.472 14.879 3.335 1.26 8.652 1.133 11.918-.285 1.567-.68 21.136-19.642 45.574-44.16 31.913-32.018 42.967-43.62 43.378-45.528.302-1.408.676-2.982.829-3.498.154-.516-.107-2.82-.58-5.12-.833-4.055-2.146-5.473-43.23-46.694-23.305-23.381-43.332-43.016-44.505-43.632-2.252-1.183-8.37-2.29-9.813-1.776" fill-rule="evenodd"/></svg>