<svg xmlns="http://www.w3.org/2000/svg" width="512" height="512"><path d="M241.92 48.669c-64.561 4.115-123.152 38.433-159.962 93.693-26.292 39.469-38.649 92.321-32.455 138.811 6.326 47.479 26.376 88.354 59.673 121.651 33.526 33.526 73.443 53.027 122.504 59.846 4.224.587 15.168 1.068 24.32 1.068 9.152 0 20.096-.481 24.32-1.068 49.001-6.811 88.952-26.339 122.482-59.868 33.529-33.53 53.057-73.481 59.868-122.482 1.376-9.9 1.376-38.74 0-48.64-6.778-48.766-26.328-88.904-59.45-122.057-11.819-11.831-20.651-19.077-33.662-27.617-37.561-24.655-81.952-36.249-127.638-33.337m36.992 90.398c23.258 4.74 44.063 15.917 60.632 32.575l7.336 7.375 8.623-8.442c7.794-7.63 8.928-8.442 11.799-8.442 2.372 0 3.807.631 5.67 2.495l2.495 2.494v32.975c0 20.985-.32 33.572-.879 34.617-2.155 4.027-3.844 4.219-37.108 4.219-21.332 0-31.837-.302-33.109-.953-3.103-1.586-4.812-4.396-4.832-7.941-.018-3.169.616-3.988 11.928-15.396 6.57-6.627 11.946-12.442 11.946-12.923 0-1.471-9.472-10.835-15.786-15.605-7.709-5.823-21.095-12.302-30.294-14.662-9.192-2.359-26.344-3.157-35.646-1.659-27.592 4.446-51.617 22.017-64.199 46.953-26.162 51.853 4.816 114.314 62.032 125.072 11.136 2.094 28.779 1.343 39.093-1.663 26.144-7.62 46.665-25.768 57.572-50.914 3.87-8.925 5.084-10.551 9.594-12.853 6.643-3.39 15.328-1.255 20.038 4.926 2.107 2.766 2.395 3.872 2.386 9.182-.01 5.577-.376 6.792-4.811 15.969-2.64 5.463-6.444 12.375-8.453 15.36-18.233 27.096-44.561 44.624-77.606 51.667-9.918 2.114-33.116 2.101-43.809-.024-24.142-4.798-44.879-15.817-62.036-32.963-18.135-18.123-29.319-39.614-33.705-64.766-1.624-9.308-1.624-30.172 0-39.48 9.218-52.865 51.51-92.781 104.79-98.907 9.34-1.074 26.67-.256 36.339 1.714" fill-rule="evenodd"/></svg>