<svg xmlns="http://www.w3.org/2000/svg" width="512" height="512"><path d="M241.493 48.673c-39.799 2.563-78.317 17.074-111.786 42.114-10.589 7.922-31.248 28.596-39.155 39.184-21.846 29.252-35.222 61.365-40.767 97.869-2.061 13.574-2.061 42.746 0 56.32 5.546 36.511 18.94 68.661 40.773 97.869 8.04 10.755 28.658 31.373 39.413 39.413 29.208 21.833 61.358 35.227 97.869 40.773 13.574 2.061 42.746 2.061 56.32 0 36.526-5.548 68.754-18.978 97.869-40.785 10.755-8.056 31.345-28.646 39.401-39.401 21.807-29.115 35.237-61.343 40.785-97.869 2.061-13.574 2.061-42.746 0-56.32-6.752-44.453-25.412-83.157-55.294-114.69-36.541-38.56-84.833-61.088-138.36-64.543-13.196-.852-12.782-.853-27.068.066m42.667 33.635c35.838 6.075 67.575 21.95 93.579 46.81 27.61 26.395 45.561 60.682 52.093 99.5 2.091 12.43 2.073 42.896-.033 55.115-9.878 57.299-44.492 104.256-95.788 129.946-48.421 24.25-107.601 24.25-156.022 0-51.464-25.774-86.214-73.029-95.815-130.297-2.121-12.648-2.121-42.116 0-54.764 10.541-62.873 51.565-113.601 110.675-136.854 13.047-5.132 28.757-8.823 46.938-11.027 6.667-.809 36.585.251 44.373 1.571m-43.519 55.126c-14.025 1.757-27.564 6.187-41.388 13.541-11.765 6.259-18.795 11.51-28.586 21.352-33.745 33.92-43.764 83.664-25.87 128.449 18.675 46.74 65.854 76.93 116.323 74.436 17.427-.861 30.454-4.241 46.507-12.068 23.625-11.518 43.101-30.63 53.998-52.988 6.036-12.384 7.261-16.191 6.841-21.255-1.069-12.893-16.539-18.692-26.604-9.971-.883.764-3.819 6.063-6.525 11.775-7.575 15.987-13.679 24.094-24.907 33.077-43.939 35.156-107.893 21.239-133.161-28.977-16.673-33.132-10.015-73.922 16.373-100.31 7.677-7.677 14.377-12.344 25.05-17.451 12.987-6.213 19.918-7.663 36.455-7.627 11.697.026 15.378.356 21.754 1.954 8.502 2.13 22.447 8.507 29.012 13.267 5.026 3.645 17.5 15.819 17.5 17.08 0 .481-5.376 6.298-11.946 12.925-11.081 11.176-11.947 12.281-11.947 15.239 0 4.08 1.134 6.151 4.25 7.763 2.089 1.08 7.525 1.288 33.625 1.288 18.16 0 32.046-.346 33.322-.832 1.204-.457 2.963-2.089 3.909-3.626 1.657-2.692 1.712-3.99 1.494-35.079l-.227-32.284-2.786-2.489c-1.994-1.781-3.669-2.49-5.884-2.49-2.777 0-3.998.887-11.81 8.574l-8.712 8.574-2.839-3.241c-12.415-14.172-31.278-26.634-49.617-32.778-15.89-5.323-38.238-7.753-53.604-5.828" fill-rule="evenodd"/></svg>