<svg xmlns="http://www.w3.org/2000/svg" width="512" height="512"><path d="M241.92 48.669c-64.561 4.115-123.152 38.433-159.962 93.693-26.292 39.469-38.649 92.321-32.455 138.811 6.326 47.479 26.376 88.354 59.673 121.651 33.526 33.526 73.443 53.027 122.504 59.846 4.224.587 15.168 1.068 24.32 1.068 9.152 0 20.096-.481 24.32-1.068 49.001-6.811 88.952-26.339 122.482-59.868 33.529-33.53 53.057-73.481 59.868-122.482 1.376-9.9 1.376-38.74 0-48.64-6.778-48.766-26.328-88.904-59.45-122.057-11.819-11.831-20.651-19.077-33.662-27.617-37.561-24.655-81.952-36.249-127.638-33.337m101.983 193.807c5.093 2.995 7.67 7.594 7.67 13.686 0 5.881-3.334 11.562-8.205 13.979-3.206 1.592-6.077 1.646-87.368 1.646s-84.162-.054-87.368-1.646c-1.996-.99-4.289-3.179-5.76-5.5-5.959-9.395-1.056-21.418 9.807-24.051 1.475-.357 39.737-.588 85.028-.513l82.346.136 3.85 2.263" fill-rule="evenodd"/></svg>