<svg xmlns="http://www.w3.org/2000/svg" width="512" height="512"><path d="M105.387 193.613c-4.707 2.172-7.291 5.249-8.579 10.213-1.106 4.262-.711 8.262 1.159 11.757 1.413 2.64 6.688 7.018 9.355 7.765 3.047.852 294.309.852 297.356 0 2.667-.747 7.942-5.125 9.355-7.765 1.87-3.495 2.265-7.495 1.159-11.757-1.288-4.964-3.872-8.041-8.579-10.213-3.276-1.512-9.304-1.576-150.613-1.576s-147.337.064-150.613 1.576m0 95.807c-7.347 4.053-10.567 11.092-8.579 18.754 1.288 4.964 3.872 8.041 8.579 10.213 3.276 1.512 9.304 1.576 150.613 1.576s147.337-.064 150.613-1.576c1.878-.866 4.33-2.57 5.45-3.786 2.009-2.182 4.582-9.907 3.969-11.914-.174-.569-.546-2.083-.826-3.365-.624-2.85-5.008-7.982-8.25-9.659-2.062-1.066-22.881-1.233-151.127-1.21-106.808.018-149.217.291-150.442.967" fill-rule="evenodd"/></svg>