<svg xmlns="http://www.w3.org/2000/svg" width="512" height="512"><path d="M89.157 161.616c-3.622 1.578-7.901 6.748-8.58 10.366-1.441 7.681 1.978 15.108 8.383 18.208l3.739 1.81h326.602l3.739-1.81c6.405-3.1 9.824-10.527 8.383-18.208-.697-3.713-5.012-8.833-8.769-10.402-4.041-1.689-329.619-1.654-333.497.036m5.136 78.584c-.469.16-1.902.522-3.184.804-1.282.283-3.739 1.75-5.46 3.262-8.949 7.856-6.732 21.186 4.378 26.33 3.284 1.52 9.543 1.58 165.973 1.58s162.689-.06 165.973-1.58c6.302-2.918 9.814-8.141 9.814-14.596 0-6.032-3.216-11.19-8.96-14.37-2.358-1.305-15.401-1.429-165.12-1.568-89.408-.084-162.944-.021-163.414.138m-5.403 81.631c-6.79 3.361-10.345 12.288-7.875 19.773 1.472 4.459 6.651 8.743 11.941 9.877 6.241 1.339 319.847 1.339 326.088 0 5.29-1.134 10.469-5.418 11.941-9.877 2.485-7.529-1.11-16.485-7.945-19.794l-3.739-1.81-163.357.001H92.587l-3.697 1.83" fill-rule="evenodd"/></svg>