<svg xmlns="http://www.w3.org/2000/svg" width="512" height="512"><path d="M111.61 187.159c-12.267 3.881-18.84 18.137-13.694 29.698 2.034 4.57 8.165 10.349 12.662 11.937 2.793.986 26.686 1.179 145.422 1.179 161.135 0 146.52.683 153.888-7.193 11.144-11.914 5.424-31.889-10.266-35.85-5.339-1.348-283.728-1.127-288.012.229m-3.1 97.208c-2.036 1.045-5.18 3.504-6.986 5.463-10.101 10.958-5.03 29.957 9.3 34.84 3.372 1.148 20.623 1.303 145.176 1.303 155.437 0 145.427.34 152.1-5.161 4.116-3.393 7.545-10.509 7.636-15.848.147-8.692-3.243-14.924-10.793-19.839l-3.45-2.245-144.64-.207-144.64-.207-3.703 1.901" fill-rule="evenodd"/></svg>