<svg xmlns="http://www.w3.org/2000/svg" width="512" height="512"><path d="M92.587 156.487c-16.555 7.826-16.425 31.198.219 39.472 3.08 1.531 8.903 1.588 163.194 1.588s160.114-.057 163.194-1.588c4.756-2.364 9.716-7.768 11.243-12.248 3.81-11.182-.712-22.349-11.024-27.224l-4.266-2.017H96.853l-4.266 2.017m4.972 78.211c-4.72.942-7.807 2.632-11.111 6.083-8.69 9.076-8.129 23.133 1.261 31.598 6.905 6.225-5.176 5.808 168.291 5.808 173.467 0 161.386.417 168.291-5.808 11.922-10.747 8.905-30.014-5.731-36.602-3.244-1.461-11.194-1.543-160.427-1.664-86.357-.069-158.616.194-160.574.585m-1.138 80.121c-6.889 2.111-12.825 7.504-14.873 13.514-4.505 13.222 2.812 26.18 16.432 29.101 6.411 1.375 309.629 1.375 316.04 0 13.62-2.921 20.937-15.879 16.432-29.101-1.559-4.576-5.821-9.266-10.873-11.967L416 314.453l-158.72-.144c-87.296-.08-159.682.15-160.859.51" fill-rule="evenodd"/></svg>