<svg xmlns="http://www.w3.org/2000/svg" width="512" height="512"><path d="M392.938 17.915c-4.563 2.259-85.927 83.865-90.615 90.885-9.653 14.452-13.382 26.457-14.322 46.102-.292 6.089-.726 12.031-.965 13.205-.515 2.523-40.121 42.666-42.096 42.666-.712 0-41.043-39.697-89.624-88.217C59.012 26.375 63.664 30.59 55.305 31.927c-5.305.848-8.797 3.402-14.567 10.651C34.305 50.66 28.84 61.84 25.888 72.96c-2.031 7.647-2.274 10.129-2.344 23.893-.087 17.337 1.125 25.842 5.981 41.971 6.944 23.062 18.931 45.393 35.874 66.829 8.131 10.288 103.594 105.585 109.759 109.569 14.974 9.675 32.097 12.675 51.511 9.024 5.419-1.019 6.492-.988 9.84.291 4.532 1.73 17.839 13.774 19.697 17.826.733 1.6 1.51 6.671 1.802 11.77.96 16.757 4.417 24.171 17.824 38.225 5.24 5.494 27.594 28.35 49.675 50.791 42.982 43.684 45.251 45.651 57.402 49.756 31.056 10.49 63.994-9.595 69.377-42.305 1.968-11.957-1.069-26.327-7.778-36.8-2.514-3.926-23.324-25.326-73.395-75.475-38.438-38.497-69.886-70.572-69.886-71.277 0-1.965 40.151-41.57 42.666-42.086 1.174-.241 7.286-.68 13.582-.977 18.305-.862 32.012-5.121 45.461-14.124 7.423-4.968 88.897-86.18 91.171-90.876 3.859-7.973.803-17.265-7.025-21.355-2.711-1.416-9.798-1.581-13.213-.307-1.321.493-18.722 17.153-38.669 37.023-19.947 19.87-37.151 36.579-38.232 37.131-5.051 2.582-12.579.416-15.563-4.478-1.853-3.041-2.215-9.031-.722-11.962.522-1.025 17.378-18.376 37.457-38.557 35.183-35.362 36.539-36.845 37.371-40.859 1.578-7.613-2.654-15.819-9.487-18.395-3.427-1.292-8.656-1.12-12.345.408-2.159.894-14.758 12.857-39.439 37.45-39.051 38.912-39.203 39.035-45.867 37.24-7.013-1.888-10.582-9.554-7.846-16.855.494-1.321 17.157-18.722 37.027-38.669 19.87-19.947 36.608-37.208 37.195-38.358 1.48-2.898 1.337-10.233-.258-13.289-4.216-8.078-13.534-11.207-21.553-7.238M72.474 360.747c-42.516 42.64-46.859 47.256-49.739 52.863-9.518 18.53-8.491 41.676 2.539 57.211 10.987 15.474 25.67 23.816 43.535 24.736 10.858.558 18.97-1.112 28.716-5.914 6.902-3.401 7.929-4.373 67.808-64.149 55.105-55.011 60.8-60.951 60.8-63.418 0-1.497-.48-3.033-1.066-3.412-.587-.38-6.443-.746-13.014-.815-12.83-.133-21.444-1.478-31.991-4.996-15.059-5.023-26.178-12.319-41.936-27.52-11.342-10.939-11.841-11.306-15.395-11.306h-3.672l-46.585 46.72" fill-rule="evenodd"/></svg>