<svg xmlns="http://www.w3.org/2000/svg" width="512" height="512"><path d="M456.677 145.996c-2.114 1.074-4.671 3.35-5.973 5.317-2.244 3.388-2.285 3.711-2.816 22.276-.703 24.558-2.511 33.178-10.13 48.289-4.342 8.609-9.082 15.161-16.503 22.809-10.496 10.816-21.626 17.897-35.745 22.74-14.19 4.868-11.092 4.776-161.043 4.781l-137.773.005 19.685-19.84c21.15-21.316 22.227-22.835 21.397-30.196-1.124-9.972-12.18-16.629-21.694-13.063-2.843 1.065-70.603 68.342-72.557 72.039-1.726 3.267-1.724 10.433.004 13.694 1.969 3.715 69.721 70.994 72.553 72.047 9.538 3.545 20.57-3.102 21.694-13.071.83-7.36-.248-8.881-21.383-30.182l-19.671-19.825 144.159-.256c160.901-.285 146.438.267 165.919-6.326 16.932-5.729 31.242-14.548 44.623-27.501 23.275-22.529 35.78-49.751 38.258-83.28 1.242-16.813.714-28.909-1.454-33.277-3.98-8.022-13.59-11.224-21.55-7.18" fill-rule="evenodd"/></svg>