<svg xmlns="http://www.w3.org/2000/svg" width="512" height="512"><path d="M392.677 146.044c-4.515 2.235-7.882 7.068-8.453 12.133-.83 7.361.247 8.88 21.397 30.196l19.685 19.84H285.749c-95.607 0-141.817.293-146.733.929-25.947 3.357-49.094 14.488-68.108 32.75-18.295 17.572-29.781 37.918-35.904 63.601-3.561 14.937-4.474 47.707-1.488 53.42 4.552 8.709 15.378 11.467 23.615 6.016C62.92 361.098 64 357.444 64 341.682c0-22.658 2.155-34.396 8.951-48.761 5.29-11.183 11.465-19.676 20.522-28.225 15.392-14.529 31.989-22.071 52.874-24.028 5.981-.561 58.279-.88 144.173-.881h134.786l-19.685 19.84c-21.15 21.316-22.227 22.835-21.397 30.196 1.124 9.969 12.156 16.616 21.694 13.071 3.676-1.367 71.744-69.714 72.891-73.192 1.192-3.61 1.19-7.799-.004-11.419-1.15-3.483-69.185-71.782-72.887-73.169-3.82-1.432-9.239-1.051-13.241.93" fill-rule="evenodd"/></svg>