<svg xmlns="http://www.w3.org/2000/svg" width="512" height="512"><path d="M236.255 17.456c-67.007 9.592-118.879 65.082-123.496 132.113-2.846 41.318 11.335 80.437 39.923 110.125 21.737 22.573 49.345 37.078 80.705 42.4 9.652 1.639 13.143 1.824 26.88 1.428 17.435-.502 26.059-1.948 41.185-6.904 42.602-13.961 76.886-48.157 91.106-90.875 5.986-17.983 7.144-25.398 7.144-45.743 0-20.344-1.158-27.76-7.142-45.738-16.271-48.877-57.85-85.36-108.853-95.511-11.999-2.389-35.358-3.026-47.452-1.295m40.544 65.286c28.64 7.744 50.077 29.963 57.466 59.562 1.988 7.965 1.975 27.475-.023 35.491-6.864 27.53-26.41 49.148-52.302 57.849-10.145 3.409-17.856 4.421-29.78 3.908-19.794-.852-36.612-8.063-51.082-21.9-7.529-7.2-12.445-14.116-17.109-24.072-5.811-12.405-6.884-17.635-6.884-33.58 0-15.945 1.073-21.175 6.884-33.58 11.154-23.81 31.135-39.505 57.211-44.939 8.476-1.766 26.827-1.116 35.619 1.261m-27.668 29.928c-18.81 2.857-34.522 17.05-39.224 35.432-2.146 8.393-2.146 15.403 0 23.796 6.237 24.386 31.27 40.236 55.48 35.129 17.605-3.714 30.805-15.552 36.735-32.947 1.457-4.273 1.891-7.507 1.891-14.08 0-13.361-4.541-24.443-13.835-33.765-10.509-10.541-26.394-15.79-41.047-13.565M105.538 264.32c-6.425 10.266-71.886 129.259-72.826 132.383-2.019 6.708.965 13.413 7.684 17.262L43.947 416l44.373.427 44.373.426 2.754 1.964c1.941 1.385 8.578 11.694 22.522 34.987 10.873 18.162 20.696 34.274 21.829 35.804 5.824 7.86 17.205 8.093 24.271.497 2.63-2.828 68.998-148.081 68.998-151.011 0-1.059-.48-2.231-1.067-2.603-.587-.372-5.511-.554-10.943-.405-39.787 1.09-81.675-12.676-112.749-37.053-9.449-7.413-21.537-19.405-29.832-29.593-7.881-9.681-9.645-10.379-12.938-5.12m289.072 4.221c-16.931 21.867-41.546 41.078-67.285 52.515-5.202 2.311-10.491 5.227-11.753 6.48-2.544 2.525-40.799 85.881-40.799 88.899 0 .981 7.164 17.538 15.919 36.794 11.039 24.278 16.721 35.813 18.535 37.626 6.694 6.694 16.065 6.568 22.374-.3 1.453-1.581 11.678-18.043 22.722-36.582 17.973-30.168 20.44-33.908 23.502-35.626 3.416-1.918 3.477-1.92 45.118-1.941 25.516-.013 43.187-.363 45.537-.901 7.54-1.728 12.923-10.462 11.154-18.097-.829-3.578-1.007-3.908-43.858-81.248-35.615-64.28-31.738-59.795-41.166-47.619" fill-rule="evenodd"/></svg>