<svg xmlns="http://www.w3.org/2000/svg" width="512" height="512"><path d="M238.461 17.077c-34.601 4.391-66.133 21.086-90.257 47.789-18.061 19.993-30.351 46.328-34.836 74.654-1.393 8.791-1.393 32.169 0 40.96 7.512 47.438 36.38 87.283 78.205 107.944 13.409 6.624 22.92 9.973 36.694 12.92 8.205 1.755 11.695 2.008 27.733 2.008s19.528-.253 27.733-2.008c29.723-6.36 54.049-19.614 74.837-40.774 8.875-9.034 11.283-11.992 17.956-22.063 11.002-16.603 18.691-36.8 22.093-58.027.602-3.755 1.094-12.971 1.094-20.48 0-14.082-.945-22.359-3.893-34.093-10.559-42.032-38.307-76.29-77.1-95.191-20.329-9.906-35.619-13.558-58.88-14.067-8.448-.184-18.068.008-21.379.428m39.232 66.081c26.439 7.824 46.39 27.217 54.512 52.988 8.654 27.459 1.727 57.37-18.127 78.275-22.802 24.007-55.223 31.651-86.189 20.321-39.292-14.377-60.755-58.407-48.081-98.635 8.998-28.559 33.134-49.618 63.102-55.056 2.271-.412 9.314-.614 15.65-.448 9.352.245 12.953.726 19.133 2.555m-29.072 29.507c-10.048 1.352-20.056 6.84-27.848 15.272-21.701 23.482-14.391 61.303 14.542 75.239 31.654 15.246 68.472-7.97 68.472-43.176 0-29.335-25.612-51.311-55.166-47.335m147.576 153.369c-7.209 9.611-21.559 24.398-30.97 31.914-11.681 9.33-28.788 19.276-43.094 25.056-3.285 1.328-6.431 2.827-6.991 3.331-.936.845-41.211 87.902-41.231 89.125-.017 1.042 44.643 95.687 45.15 95.683.282-.003 13.376-21.312 29.099-47.354l28.587-47.349 57.478-.007c54.384-.006 57.447-.087 56.916-1.5-.429-1.141-87.179-156.919-87.909-157.859-.087-.113-3.253 3.919-7.035 8.96M65.073 335.561c-24.01 42.834-43.907 78.551-44.215 79.372-.53 1.413 2.533 1.494 56.917 1.5l57.478.007 28.587 47.349c15.723 26.042 28.815 47.351 29.094 47.354.535.004 81.839-174.031 81.839-175.18 0-.366-4.896-.413-10.88-.104-41.592 2.148-85.406-12.344-118.51-39.199-8.881-7.204-23.356-22.246-30.097-31.273-2.978-3.99-5.673-7.355-5.987-7.479-.314-.124-20.216 34.82-44.226 77.653" fill-rule="evenodd"/></svg>