<svg xmlns="http://www.w3.org/2000/svg" width="512" height="512"><path d="M418.133 33.32c-47.772 5.826-106.463 28.202-157.44 60.022-34.364 21.451-61.974 45.472-84.708 73.698l-6.358 7.893-6.093.003c-36.034.017-64.442 10.992-87.104 33.649-17.653 17.65-30.359 40.512-38.776 69.769-5.585 19.413-6.667 30.039-3.735 36.667 2.2 4.974 7.267 10.597 11.489 12.751 6.649 3.393 9.407 3.384 41.62-.126 16.668-1.816 31.718-3.511 33.445-3.768l3.139-.465 1 4.907c1.934 9.5 3.964 12.209 24.981 33.34 22.04 22.159 24.07 23.613 36.476 26.115l2.175.438-3.68 32.667c-2.025 17.967-3.486 34.333-3.248 36.371 1.464 12.526 11.985 22.295 24.033 22.314 13.452.021 41.224-8.134 60.956-17.899 32.809-16.238 54.904-40.47 64.626-70.877 3.632-11.362 5.265-21.369 5.871-35.983l.521-12.554 6.033-4.773c16.309-12.904 33.493-29.847 48.02-47.346 44.024-53.031 79.341-131.304 87.4-193.706 1.45-11.224 1.295-32.124-.299-40.534-1.644-8.665-2.424-10.61-5.8-14.455-5.702-6.494-12.132-8.179-32.784-8.592-8.448-.168-18.24.045-21.76.474m29.128 32.429c1.335 1.936.21 24.662-1.793 36.224-7.671 44.271-29.662 97.038-58.326 139.947-20.806 31.145-41.303 53.279-69.153 74.676-13.706 10.53-13.348 9.766-13.352 28.49-.005 22.423-2.187 34.015-8.913 47.353-10.13 20.086-30.073 36.315-57.263 46.598-6.449 2.438-23.543 7.419-23.976 6.985-.148-.147 1.453-15.787 3.557-34.754 2.103-18.968 3.825-36.102 3.825-38.075 0-4.563-1.213-7.756-4.108-10.816-3.892-4.113-6.541-4.956-17.918-5.701l-10.686-.7-16.535-16.534-16.534-16.535-.692-10.661c-.825-12.729-2.041-15.865-7.573-19.529-3.06-2.027-4.837-2.584-8.245-2.584-2.389 0-19.883 1.704-38.876 3.787-18.992 2.083-34.633 3.684-34.758 3.559s.561-3.238 1.525-6.918c10.747-41.031 33.328-69.454 62.666-78.88 10.547-3.389 18.422-4.32 36.542-4.324 19.982-.004 17.174 1.565 32.826-18.344 27.618-35.13 64.491-63.794 113.672-88.367 45.987-22.978 94.53-37.051 125.284-36.324 5.822.138 8.179.52 8.804 1.427m-126.133 59.772c-12.82 1.495-23.942 7.167-33.981 17.329-11.048 11.183-15.695 21.902-16.42 37.872-.81 17.833 4.324 31.2 16.817 43.791 11.041 11.126 22.137 16.374 37.049 17.52 18.773 1.443 36.716-6.274 49.175-21.152 8.419-10.053 12.613-20.869 13.35-34.428.601-11.055-1.029-18.911-6.019-29.013-11.075-22.419-34.502-34.888-59.971-31.919m20.083 34.495c8.605 4.683 13.73 13.115 13.876 22.827.226 15.023-9.715 25.923-24.524 26.89-7.989.522-13.435-1.285-19.028-6.314-6.212-5.584-9.014-11.813-8.975-19.947.036-7.54 1.901-12.42 6.832-17.878 5.631-6.233 11.705-8.642 20.881-8.282 5.167.202 7.319.734 10.938 2.704m-242.04 177.92c-7.421 1.944-15.891 6.254-22.507 11.452-9.21 7.238-15.999 19.427-20.74 37.239-4.952 18.606-9.334 58.028-7.292 65.61 1.346 5 6.13 9.784 11.132 11.133 7.305 1.969 43.213-1.873 63.116-6.754 28.168-6.908 42.111-17.933 49.924-39.473 5.355-14.765 3.326-24.403-6.148-29.2-8.265-4.185-20.139 1.46-22.115 10.513-2.753 12.617-6.218 18.051-14.05 22.04-3.013 1.534-9.251 3.736-13.862 4.895-8.526 2.142-34.45 6.086-35.183 5.353-.587-.587 1.927-19.295 3.967-29.517 4.737-23.743 9.747-29.756 28.131-33.768 9.302-2.03 14.703-13.868 10.28-22.533-4.246-8.319-11.611-10.407-24.653-6.99" fill-rule="evenodd"/></svg>