<svg xmlns="http://www.w3.org/2000/svg" width="512" height="512"><path d="M170.868 20.117c-5.902 5.163-13.638 14.7-21.725 26.783-5.605 8.376-6.37 9.934-5.12 10.432.809.321 5.886 1.8 11.284 3.285 5.397 1.486 15.822 4.715 23.167 7.176l13.354 4.475 13.494-8.797c7.421-4.838 16.859-10.634 20.972-12.88 4.113-2.246 7.488-4.288 7.499-4.537.043-.949-18.014-11.684-30.476-18.119-11.013-5.686-25.099-11.722-27.356-11.722-.347 0-2.639 1.757-5.093 3.904m163.639 28.621c-25.284 2.236-56.314 10.98-78.614 22.154-7.177 3.596-21.74 11.881-26.236 14.925l-2.877 1.947 5.381 2.717c12.175 6.146 28.04 16.95 39.135 26.651l5.482 4.793 3.051-1.298c12.612-5.365 65.193-23.526 81.344-28.096 3.168-.896 5.76-2.058 5.76-2.581 0-1.45-8.775-19.087-15.564-31.283-4.008-7.199-6.514-10.841-7.407-10.763l-9.455.834M82.46 83.279c8.642 11.073 19.082 29.456 23.289 41.007 4.31 11.834 7.36 30.119 8.264 49.541.508 10.903-.827 43.142-1.989 48.04-.372 1.567 2.462-.737 10.671-8.673 12.103-11.703 26.147-22.638 41.852-32.585 17.148-10.863 45.117-26.759 62.681-35.626 9.285-4.687 16.651-8.895 16.369-9.351-.282-.456-5.12-3.878-10.751-7.603-11.393-7.539-30.827-17.392-46.393-23.521-30.936-12.182-71.64-22.163-97.671-23.95l-8.925-.613 2.603 3.334m345.913 29.412c-42.248 2.363-104.269 21.64-171.725 53.377-26.109 12.283-65.476 34.702-83.421 47.506-39.084 27.886-62.172 59.468-72.055 98.565-10.627 42.038-4.61 85.919 16.192 118.081 23.727 36.682 65.012 59.587 116.733 64.765 14.412 1.443 42.556.611 55.61-1.642 36.513-6.305 65.413-20.98 87.893-44.632 22.512-23.686 35.319-53.128 37.891-87.109 1.498-19.778-.849-39.022-8.037-65.922-12.396-46.392-14.07-54.884-14.064-71.363.007-18.327 4.213-35.116 13.19-52.648 5.746-11.223 12.282-21.045 26.502-39.829a6558.898 6558.898 0 0 0 13.051-17.28l2.07-2.773-4.155.13c-2.285.071-9.339.419-15.675.774" fill-rule="evenodd"/></svg>