<svg xmlns="http://www.w3.org/2000/svg" width="512" height="512"><path d="M169.387 17.555c-4.075 2.12-6.036 4.357-12.486 14.249-7.102 10.892-16.807 30.095-22.523 44.569-2.224 5.632-4.111 10.326-4.192 10.43-.081.104-3.198-.539-6.927-1.429-12.016-2.868-24.369-5.161-27.812-5.161-8.326 0-15.234 7.159-15.234 15.787 0 4.939 1.487 7.806 7.933 15.295 5.632 6.543 12.741 17.101 16.357 24.29 3.275 6.512 7.76 20.653 9.097 28.682 1.72 10.331 1.31 33.796-.931 53.333-1.681 14.652-1.839 18.985-1.323 36.267.323 10.794.627 21.546.677 23.893.069 3.296-.813 6.402-3.88 13.653-6.827 16.141-10.285 31.632-11.674 52.287-3.609 53.673 18.522 98.925 61.989 126.75 20.135 12.89 46.707 21.477 75.961 24.546 14.053 1.475 42.381.611 55.288-1.686 57.388-10.213 99.695-43.211 117.169-91.39 6.197-17.087 8.868-32.8 8.845-52.053-.023-20.433-2.224-32.543-13.338-73.387-7.678-28.218-8.551-33.614-8.495-52.48.047-15.389.184-16.712 2.702-26.027 4.765-17.623 13.795-35.468 26.771-52.906 6.995-9.401 8.426-12.3 8.426-17.067 0-7.089-5.047-13.502-12.126-15.408-3.23-.87-5.206-.597-18.571 2.563-8.226 1.945-16.021 3.886-17.323 4.313-2.343.769-2.405.693-6.364-7.932-10.881-23.7-27.605-56.081-30.419-58.895-4.074-4.074-8.956-5.06-19.413-3.919-18.778 2.049-38.556 7.597-60.362 16.93l-7.991 3.421-7.796-7.759c-16.086-16.01-35.574-29.474-56.027-38.709-14.304-6.458-20.855-7.73-26.008-5.05m22.966 39.292c11.776 6.559 22.797 14.357 30.629 21.671 3.61 3.372 6.565 6.412 6.565 6.756 0 .344-2.016 1.931-4.48 3.527-2.464 1.597-9.051 6.365-14.638 10.598-5.587 4.232-10.791 8.171-11.565 8.753-1.162.875-2.586.562-8.189-1.801-3.73-1.573-11.582-4.511-17.448-6.529-5.867-2.017-10.939-3.898-11.272-4.179-.825-.697 5.06-15.106 11.237-27.515 6.079-12.21 8.394-16.075 9.631-16.075.508 0 4.796 2.158 9.53 4.794m146.137 47.777c6.346 12.956 11.213 23.839 10.817 24.184-.396.344-7.824 3.041-16.507 5.992-16.086 5.467-39.565 14.661-55.186 21.609l-8.68 3.861-6.519-7.162c-7.17-7.876-20.097-19.023-27.864-24.027-2.743-1.768-4.871-3.598-4.729-4.068.438-1.44 21.779-15.462 31.918-20.97 11.91-6.471 23.516-11.604 35.452-15.679 8.703-2.971 24.825-7.108 28.205-7.238 1.208-.046 4.139 5.213 13.093 23.498m-185.317 22.295c37.722 12.207 61.421 24.674 80.144 42.16l5.904 5.514-11.933 6.487c-37.161 20.2-56.933 33.203-75.608 49.724l-8.32 7.36v-3.422c0-1.882.81-10.253 1.8-18.602 2.063-17.396 2.431-40.988.816-52.24-1.547-10.775-5.388-25.086-9.252-34.47l-3.441-8.356 2.692.575c1.48.316 9.22 2.688 17.198 5.27m222.989 34.148c-17.302 37.322-19.348 67.806-7.577 112.853 11.061 42.328 12.832 49.893 14.182 60.587 4.794 37.97-7.057 72.721-33.009 96.787-25.712 23.843-65.81 35.682-108.691 32.09-43.775-3.667-75.851-20.024-95.769-48.837-12.944-18.723-19.062-45.269-16.601-72.029 1.753-19.066 5.201-31.867 12.617-46.838 12.77-25.781 35.303-47.932 69.588-68.409 52.955-31.628 107.573-56.009 158.165-70.603 5.632-1.625 10.311-2.98 10.398-3.011.087-.031-1.4 3.303-3.303 7.41" fill-rule="evenodd"/></svg>