<svg xmlns="http://www.w3.org/2000/svg" width="512" height="512"><path d="M231.253 33.392c-16.355 1.665-38.573 7.009-54.742 13.167-20.215 7.699-44.67 21.825-62.003 35.814-22.439 18.11-43.36 43.753-56.938 69.791-15.058 28.874-23.154 58.252-25.123 91.16-5.222 87.26 42.038 170.597 119.717 211.106 79.252 41.329 174.746 31.925 244.36-24.066 76.574-61.59 103.962-166.627 67.269-257.991-28.024-69.778-90.412-121.426-164.273-135.994-5.867-1.158-14.861-2.52-19.988-3.028-10.737-1.065-37.645-1.042-48.279.041m52.907 32.766c54.685 8.255 102.478 39.038 133.112 85.735 6.481 9.881 15.857 28.994 19.882 40.534 7.388 21.18 10.349 39.366 10.349 63.573 0 31.858-5.472 55.912-19.119 84.053-28.614 59.002-85.177 98.995-150.879 106.68-50.023 5.852-101.861-9.158-141.617-41.005-32.265-25.845-56.485-63.766-66.202-103.648-3.965-16.274-5.189-27.143-5.189-46.08 0-31.858 5.472-55.912 19.119-84.053 22.436-46.262 63.098-81.91 111.797-98.009 15.043-4.973 27.138-7.424 46.507-9.424 6.868-.709 33.525.329 42.24 1.644M174.958 209.982c-5.543 2.514-9.083 5.474-11.52 9.631-9.786 16.701 3.152 37.632 22.343 36.146 10.082-.781 18.381-7.593 21.243-17.439 3.36-11.558-3.537-24.926-14.849-28.78-5.423-1.848-12.574-1.665-17.217.442m144.518-.389c-7.645 2.711-14.15 11.201-15.352 20.037-1.179 8.667 4.067 18.569 12.282 23.184 13.813 7.758 30.732.322 34.724-15.262 2.838-11.078-2.04-21.489-12.524-26.728-5.96-2.978-12.938-3.427-19.13-1.231m-81.823 80.205c-34.985 6.246-64.896 31.584-75.922 64.316-1.4 4.158-1.691 6.258-1.148 8.301 1.523 5.738-4.98 5.372 95.236 5.372 63.373 0 91.266-.278 92.469-.922.948-.507 2.27-2.232 2.939-3.833 1.112-2.662 1.044-3.402-.799-8.678-11.742-33.602-41.233-58.503-76.445-64.547-9.828-1.687-26.906-1.691-36.33-.009" fill-rule="evenodd"/></svg>