<svg xmlns="http://www.w3.org/2000/svg" width="512" height="512"><path d="M79.36 33.754c-16.295 3.499-32.777 16.783-40.931 32.988C31.49 80.532 32 65.515 32 256c0 161.026.077 169.715 1.559 176.031 5.229 22.297 24.113 41.181 46.41 46.41C86.286 479.923 94.987 480 256.427 480c159.003 0 170.183-.095 175.632-1.495 22.592-5.803 40.643-23.854 46.446-46.446C479.9 426.63 480 416.822 480 285.867V145.493l-2.381-6.734c-1.31-3.703-3.691-8.695-5.291-11.093-1.6-2.398-21.649-23.009-44.552-45.803-34.617-34.452-42.518-41.898-46.832-44.134-10.894-5.645-.905-5.309-155.63-5.234-116.751.056-141.342.268-145.954 1.259M364.8 65.638c4.791 2.247 80.085 77.802 81.89 82.175 1.159 2.807 1.308 18.688 1.297 137.813-.015 144.79.119 140.313-4.404 147.441-4.625 7.289-10.761 11.893-18.623 13.975-2.924.773-43.753.958-171.093.774l-167.254-.243-4.02-1.857c-8.763-4.049-15.357-11.811-17.397-20.477-1.739-7.396-1.739-331.082 0-338.478 2.33-9.902 11.442-19.168 21.162-21.521 3.577-.866 32.788-1.106 139.775-1.149 130.553-.052 135.372.002 138.667 1.547M101.803 81.802c-9.044 3.125-16.46 10.364-19.821 19.348-1.692 4.522-1.768 6.364-1.759 42.455.009 40.504.154 42.076 4.493 48.944 5.097 8.067 12.756 13.209 22.046 14.801 3.795.65 35.66.858 104.865.685 91.442-.228 99.705-.365 103.049-1.707 5.701-2.287 11.013-6.344 14.699-11.226 6.414-8.496 6.321-7.834 6.65-47.464.313-37.835-.085-43.354-3.627-50.263-3.704-7.225-12.472-14.18-20.505-16.266-2.269-.589-37.298-.878-104.533-.863-95.058.022-101.386.115-105.557 1.556m201.984 61.985v32h-192v-64h192v32M242.91 273.051c-29.977 5.44-54.128 26.581-63.183 55.309-10.637 33.75 2.516 70.453 32.326 90.203 7.613 5.043 14.142 7.993 24.051 10.864 5.744 1.665 8.564 1.925 20.323 1.878 12.377-.049 14.371-.274 21.333-2.402 26.91-8.228 46.293-27.185 54.536-53.338 8.856-28.096 1.216-59.002-19.694-79.673-7.169-7.086-12.4-10.886-20.948-15.215-11.061-5.601-19.764-7.725-33.094-8.074-6.336-.166-13.379.036-15.65.448m27.632 33.321c11.438 3.325 22.546 12.903 28.175 24.295 6.939 14.041 6.938 28.586-.001 42.708-6.396 13.016-18.701 22.573-32.903 25.555-7.512 1.577-12.108 1.581-19.485.018-14.634-3.101-26.366-12.199-33.028-25.615-3.72-7.489-5.087-13.222-5.087-21.333 0-16.265 8.207-31.266 22.187-40.555 10.935-7.265 26.035-9.174 40.142-5.073" fill-rule="evenodd"/></svg>