<svg xmlns="http://www.w3.org/2000/svg" viewBox="0 0 512 512"><path d="M125.44 33.692c-23.416 3.989-43.402 14.422-60.877 31.776-18.89 18.76-29.808 42.793-32.12 70.705-1.122 13.547-1.122 226.107 0 239.654 2.333 28.161 13.238 51.987 32.545 71.108 19.894 19.702 42.989 30.286 71.185 32.622 13.547 1.122 226.107 1.122 239.654 0 27.837-2.306 52.081-13.374 71.219-32.511 19.137-19.138 30.205-43.382 32.511-71.219 1.119-13.514 1.122-226.105.003-239.613-.462-5.573-1.637-13.531-2.612-17.683-8.815-37.546-36.835-68.268-73.43-80.509-17.363-5.808-11.686-5.598-148.371-5.504-95.85.065-124.732.326-129.707 1.174m261.882 32.695c28.938 7.727 50.983 29.946 58.337 58.796l1.914 7.51v246.614l-1.914 7.51c-4.684 18.376-16.166 35.346-31.366 46.357-6.15 4.455-18.81 10.312-27.033 12.505l-7.1 1.894H131.84l-7.04-1.879c-29.062-7.756-51.081-29.933-58.459-58.877l-1.914-7.51V132.693l1.914-7.51c8.155-31.993 34.049-55.421 66.62-60.274 2.669-.398 59.38-.659 126.026-.579l121.173.144 7.162 1.913M232.96 85.455c-41.972 4.332-81.382 21.236-114.475 49.101-9.704 8.171-13.803 12.943-17.406 20.264-7.743 15.732-6.825 35.417 2.284 49.008 4.198 6.263 37.662 45.476 42.592 49.908 8.996 8.088 21.742 11.53 35.19 9.504 2.244-.338 7.428-2.348 11.52-4.466l15.548-8.042c8.807-4.551 23.616-9.538 32.427-10.917 7.815-1.224 24.814-1.038 32.635.356 9.306 1.659 21.373 5.849 30.673 10.65 4.37 2.256 11.294 5.835 15.387 7.953 4.092 2.118 9.276 4.128 11.52 4.466 13.492 2.033 26.192-1.414 35.264-9.571 3.719-3.344 30.903-34.779 39.308-45.456 12.182-15.474 14.252-35.597 5.494-53.393-3.603-7.321-7.702-12.093-17.406-20.264-33.661-28.343-72.65-44.87-116.059-49.195-10.329-1.03-34.095-.979-44.496.094m38.063 31.483c27.723 2.228 54.247 10.695 77.816 24.839 15.725 9.437 31.037 22.027 33.57 27.603 1.995 4.393 1.985 11.021-.025 15.367-1.403 3.035-33.091 41.185-37.419 45.049-3.994 3.567-6.374 2.991-23.324-5.648-16.582-8.452-26.197-12.017-40.997-15.205-12.812-2.758-36.501-2.751-49.391.017-14.427 3.097-24.159 6.721-40.96 15.252-13.171 6.687-16.258 7.941-18.636 7.57-1.567-.246-3.454-.945-4.192-1.554-3.539-2.919-36.472-42.49-37.852-45.481-2.006-4.347-2.016-10.978-.022-15.367 2.533-5.576 17.845-18.166 33.57-27.603 32.365-19.423 69.332-27.936 107.862-24.839" fill-rule="evenodd"/></svg>