<svg xmlns="http://www.w3.org/2000/svg" width="512" height="512"><path d="M241.92 48.669c-64.561 4.115-123.152 38.433-159.962 93.693-26.292 39.469-38.649 92.321-32.455 138.811 6.326 47.479 26.376 88.354 59.673 121.651 33.526 33.526 73.443 53.027 122.504 59.846 4.224.587 15.168 1.068 24.32 1.068 9.152 0 20.096-.481 24.32-1.068 49.001-6.811 88.952-26.339 122.482-59.868 33.529-33.53 53.057-73.481 59.868-122.482 1.376-9.9 1.376-38.74 0-48.64-6.778-48.766-26.328-88.904-59.45-122.057-11.819-11.831-20.651-19.077-33.662-27.617-37.561-24.655-81.952-36.249-127.638-33.337m-9.813 111.282v15.737l-23.68.263c-34.285.38-32.108-1.768-32.476 32.049l-.262 24.107h-31.476v-24.994c0-27.681.431-30.913 5.36-40.206 5.245-9.887 16.007-18.345 27.163-21.345 3.502-.942 10.645-1.25 29.984-1.293l25.387-.056v15.738m102.791-14.431c15.311 3.988 27.594 16.271 31.582 31.582 1.029 3.952 1.307 10.32 1.307 30.011v24.994h-31.476L336.049 208c-.368-33.817 1.809-31.669-32.476-32.049l-23.68-.263v-31.475h24.994c19.691 0 26.059.278 30.011 1.307M175.951 304c.369 33.924-1.875 31.68 32.049 32.049l24.107.262v31.476h-25.445c-20.789 0-26.294-.249-30.08-1.362-15.382-4.518-27.134-16.446-31.062-31.527-1.029-3.952-1.307-10.32-1.307-30.011v-24.994h31.476l.262 24.107m191.836.887c0 19.691-.278 26.059-1.307 30.011-3.97 15.242-16.34 27.612-31.582 31.582-3.952 1.029-10.32 1.307-30.011 1.307h-24.994v-31.476l24.107-.262c26.371-.287 26.622-.334 30.234-5.655 1.394-2.053 1.58-4.756 1.815-26.394l.262-24.107h31.476v24.994" fill-rule="evenodd"/></svg>