<svg xmlns="http://www.w3.org/2000/svg" width="512" height="512"><path d="M241.493 48.673c-39.799 2.563-78.317 17.074-111.786 42.114-10.589 7.922-31.248 28.596-39.155 39.184-21.846 29.252-35.222 61.365-40.767 97.869-2.061 13.574-2.061 42.746 0 56.32 5.546 36.511 18.94 68.661 40.773 97.869 8.04 10.755 28.658 31.373 39.413 39.413 29.208 21.833 61.358 35.227 97.869 40.773 13.574 2.061 42.746 2.061 56.32 0 36.526-5.548 68.754-18.978 97.869-40.785 10.755-8.056 31.345-28.646 39.401-39.401 21.807-29.115 35.237-61.343 40.785-97.869 2.061-13.574 2.061-42.746 0-56.32-6.752-44.453-25.412-83.157-55.294-114.69-36.541-38.56-84.833-61.088-138.36-64.543-13.196-.852-12.782-.853-27.068.066m42.667 33.635c35.838 6.075 67.575 21.95 93.579 46.81 27.61 26.395 45.561 60.682 52.093 99.5 2.091 12.43 2.073 42.896-.033 55.115-9.878 57.299-44.492 104.256-95.788 129.946-48.421 24.25-107.601 24.25-156.022 0-51.464-25.774-86.214-73.029-95.815-130.297-2.121-12.648-2.121-42.116 0-54.764 10.541-62.873 51.565-113.601 110.675-136.854 13.047-5.132 28.757-8.823 46.938-11.027 6.667-.809 36.585.251 44.373 1.571m-107.093 63.084c-14.964 3.776-27.612 16.322-31.614 31.36-.883 3.317-1.222 9.866-1.23 23.725-.011 21.987.551 24.301 6.987 28.761 2.948 2.043 4.385 2.442 8.79 2.442 4.344 0 5.854-.407 8.624-2.327 6.355-4.404 6.681-5.598 7.173-26.26.365-15.304.686-18.804 1.935-21.105 2.81-5.179 4.962-5.704 25.361-6.191 20.662-.492 21.856-.818 26.26-7.173 1.918-2.769 2.327-4.281 2.327-8.614 0-6.032-2.027-9.827-7.111-13.314-2.941-2.017-3.385-2.059-23.117-2.218-13.871-.112-21.444.172-24.385.914m112.64.01c-9.054 3.966-12.384 15.5-6.807 23.576 4.116 5.961 5.527 6.331 26.007 6.819 27.307.652 26.644-.011 27.296 27.296.492 20.662.818 21.856 7.173 26.26 2.77 1.92 4.28 2.327 8.624 2.327 4.405 0 5.842-.399 8.79-2.442 6.436-4.46 6.998-6.774 6.987-28.761-.008-13.859-.347-20.408-1.23-23.725-4.093-15.379-17.54-28.355-32.722-31.579-6.568-1.394-40.819-1.217-44.118.229M155.788 280.466c-3.593 1.016-8.177 4.895-9.837 8.323-1.591 3.287-1.737 5.207-1.728 22.734.011 20.807.56 24.551 4.846 33.071 3.077 6.115 12.222 15.26 18.337 18.337 8.52 4.286 12.264 4.835 33.071 4.846 21.987.011 24.301-.551 28.761-6.987 2.041-2.946 2.442-4.386 2.442-8.78 0-6.032-2.026-9.826-7.11-13.314-2.89-1.982-3.676-2.071-21.837-2.483-27.024-.612-26.281.142-26.936-27.306-.492-20.639-.852-21.965-7.081-26.087-3.259-2.157-9.567-3.305-12.928-2.354m192 0c-3.059.865-7.764 4.499-9.463 7.307-1.496 2.475-1.734 4.844-2.122 21.134-.655 27.448.088 26.694-26.936 27.306-18.161.412-18.947.501-21.837 2.483-5.084 3.488-7.11 7.282-7.11 13.314 0 4.394.401 5.834 2.442 8.78 4.46 6.436 6.774 6.998 28.761 6.987 20.807-.011 24.551-.56 33.071-4.846 6.115-3.077 15.26-12.222 18.337-18.337 4.286-8.52 4.835-12.264 4.846-33.071.011-21.984-.574-24.411-6.9-28.597-3.417-2.261-9.651-3.433-13.089-2.46" fill-rule="evenodd"/></svg>