<svg xmlns="http://www.w3.org/2000/svg" width="512" height="512"><path d="M114.347 48.351c-32.597 2.656-59.637 27.374-65.268 59.66-.998 5.725-1.292 14.629-1.292 39.12 0 31.199.03 31.768 1.92 35.465 1.056 2.067 3.395 4.933 5.199 6.368 2.933 2.334 3.892 2.609 9.094 2.609s6.161-.275 9.094-2.609c1.804-1.435 4.143-4.301 5.199-6.368 1.891-3.7 1.92-4.252 1.92-35.824 0-34.775.327-37.905 4.82-46.159 2.825-5.192 10.388-12.755 15.58-15.58 8.254-4.493 11.384-4.82 46.159-4.82 31.572 0 32.124-.029 35.824-1.92 2.067-1.056 4.933-3.395 6.368-5.199 2.334-2.933 2.609-3.892 2.609-9.094 0-5.232-.265-6.143-2.65-9.094-5.536-6.849-4.557-6.682-39.59-6.781-17.13-.048-32.874.053-34.986.226m217.834.22c-3.79.961-6.521 2.889-9.351 6.598-2.086 2.735-2.403 3.911-2.403 8.899 0 5.126.282 6.101 2.609 9.026 1.435 1.804 4.301 4.143 6.368 5.199 3.7 1.891 4.252 1.92 35.824 1.92 34.775 0 37.905.327 46.159 4.82 5.192 2.825 12.755 10.388 15.58 15.58 4.493 8.254 4.82 11.384 4.82 46.159 0 31.572.029 32.124 1.92 35.824 1.056 2.067 3.395 4.933 5.199 6.368 2.933 2.334 3.892 2.609 9.094 2.609s6.161-.275 9.094-2.609c1.804-1.435 4.161-4.315 5.239-6.4l1.959-3.791-.313-34.986c-.274-30.681-.504-35.67-1.873-40.534-7.728-27.475-26.396-46.07-53.359-53.153-5.746-1.51-9.849-1.709-40.107-1.954-18.539-.15-34.945.041-36.459.425M57.6 321.613c-4.131 1.906-6.731 4.608-8.493 8.825-1.912 4.576-1.934 62.619-.028 73.551 4.167 23.895 21.217 45.422 42.975 54.261 13.107 5.324 13.695 5.39 51.733 5.729l34.986.313 3.791-1.959c2.085-1.078 4.965-3.435 6.4-5.239 2.334-2.933 2.609-3.892 2.609-9.094 0-5.232-.265-6.143-2.65-9.094-5.561-6.88-4.084-6.64-43.856-7.119l-35.414-.427-6.4-3.139c-7.281-3.571-14.764-10.484-18.22-16.834-4.487-8.245-4.818-11.396-4.838-46.126-.018-29.319-.153-32.324-1.595-35.448-3.859-8.363-12.953-11.914-21-8.2m384 0c-4.131 1.906-6.731 4.608-8.493 8.825-1.112 2.661-1.32 8.193-1.32 35.009 0 34.537-.331 37.694-4.82 45.94-3.456 6.35-10.939 13.263-18.22 16.834l-6.4 3.139-35.414.427c-39.772.479-38.295.239-43.856 7.119-2.385 2.951-2.65 3.862-2.65 9.094 0 5.202.275 6.161 2.609 9.094 1.435 1.804 4.315 4.161 6.4 5.239l3.791 1.959 34.986-.313c38.038-.339 38.626-.405 51.733-5.729 16.173-6.57 31.734-22.131 38.304-38.304 5.296-13.037 5.383-13.808 5.754-50.879.366-36.562.205-38.38-3.831-43.177-4.61-5.478-12.189-7.224-18.573-4.277" fill-rule="evenodd"/></svg>