<svg xmlns="http://www.w3.org/2000/svg" width="512" height="512"><path d="M250.88 49.034c-4.914 1.854-227.207 129.23-229.865 131.714-6.629 6.196-6.435 16.534.43 22.863 1.581 1.458 18.907 11.781 38.502 22.94l35.626 20.291v60.003c0 41.178.301 61.423.96 64.526.722 3.405 1.738 5.261 4.111 7.509 1.826 1.73 34.182 20.219 76.907 43.947 72.278 40.139 73.85 40.96 78.449 40.96 4.599 0 6.171-.821 78.449-40.96 42.725-23.728 75.081-42.217 76.907-43.947 2.373-2.248 3.389-4.104 4.111-7.509.659-3.103.96-23.349.96-64.53v-60.007l23.368-13.337c12.852-7.335 23.604-13.337 23.893-13.337.289 0 .525 34.055.525 75.677 0 75.374.008 75.692 1.81 79.417 2.683 5.542 7.349 8.319 13.977 8.319s11.294-2.777 13.977-8.319l1.81-3.74V187.223l-2.347-3.668c-2.197-3.433-9.596-7.81-115.84-68.526-62.421-35.673-114.982-65.395-116.801-66.051-3.99-1.438-5.991-1.426-9.919.056m100.869 88.139c52.436 29.92 95.347 54.592 95.358 54.827.037.777-189.705 108.8-191.107 108.8-1.402 0-191.144-108.023-191.107-108.8.021-.439 190.348-109.223 191.099-109.225.23-.001 43.321 24.478 95.757 54.398M185.173 298.015l54.187 31.004.221 45.87.221 45.87-5.823-3.233c-3.203-1.778-28.345-15.713-55.872-30.966l-50.049-27.733-.029-46.75c-.027-44.281.05-46.706 1.464-45.908.822.463 25.878 14.793 55.68 31.846m198.798 14.092-.029 46.72-50.049 27.733a227122.542 227122.542 0 0 0-55.872 30.966l-5.823 3.233.221-45.867.221-45.867 55.467-31.768c30.506-17.473 55.562-31.791 55.68-31.819.117-.028.2 20.973.184 46.669" fill-rule="evenodd"/></svg>