<svg xmlns="http://www.w3.org/2000/svg" width="512" height="512"><path d="M252.16 48.57c-3.489.879-228.068 129.303-231.145 132.179-6.33 5.916-6.438 16.294-.232 22.437 1.237 1.225 53.579 31.555 116.315 67.4 113.734 64.983 114.08 65.172 118.831 65.165 4.737-.006 5.34-.335 105.276-57.451 57.492-32.859 101.039-57.242 101.746-56.971 1.063.408 1.267 11.054 1.462 76.302l.227 75.828 2.056 3.001c3.483 5.082 7.282 7.113 13.304 7.113 6.628 0 11.294-2.777 13.977-8.319 1.81-3.739 1.81-3.742 1.81-95.231 0-100.343.294-94.741-5.224-99.556-1.605-1.401-53.791-31.595-115.967-67.097-81.991-46.817-113.987-64.674-116.463-64.998-1.877-.246-4.565-.157-5.973.198M99.244 286.526c-1.032.811-2.28 2.555-2.774 3.876-1.261 3.379-1.218 76.207.049 81.238.52 2.066 2.152 5.101 3.627 6.744 1.917 2.137 23.841 14.728 76.921 44.178 72.743 40.358 74.334 41.189 78.933 41.189 4.599 0 6.19-.831 78.933-41.189 53.08-29.45 75.004-42.041 76.921-44.178 1.475-1.643 3.107-4.678 3.627-6.744 1.234-4.9 1.297-76.367.072-80.779-.99-3.562-3.924-5.848-7.508-5.848-1.694 0-25.08 12.928-74.484 41.174l-72.014 41.173h-11.094l-72.014-41.173c-53.102-30.36-72.711-41.169-74.667-41.155-1.459.011-3.496.683-4.528 1.494" fill-rule="evenodd"/></svg>