<svg xmlns="http://www.w3.org/2000/svg" width="512" height="512"><path d="M128.427 118.452C58.965 158.199 1.626 191.048 1.006 191.448c-.771.497 38.826 23.574 125.013 72.858 69.378 39.672 127.137 72.526 128.355 73.009 2.022.803 11.198-4.254 105.493-58.138 56.803-32.459 103.518-59.017 103.812-59.017.294 0 .534 36.864.534 81.92V384h47.794l-.217-96.182-.217-96.182-127.146-72.726C314.496 78.91 256.704 46.184 256 46.184c-.704 0-58.112 32.521-127.573 72.268M95.78 328.673l.22 48.78 78.933 43.963c45.382 25.275 79.84 43.962 81.067 43.962 1.227 0 35.685-18.687 81.067-43.962L416 377.453l.22-48.78c.163-35.935-.034-48.78-.747-48.78-.533 0-36.632 20.38-80.221 45.289L256 370.47l-79.252-45.288c-43.589-24.909-79.688-45.289-80.221-45.289-.713 0-.91 12.845-.747 48.78" fill-rule="evenodd"/></svg>