<svg xmlns="http://www.w3.org/2000/svg" width="512" height="512"><path d="M241.493 64.526c-2.112.193-8.064.944-13.226 1.667C166.413 74.86 111.24 115.19 83.59 171.947c-39.248 80.566-18.147 175.588 51.819 233.349 14.204 11.726 36.453 24.296 55.172 31.171 10.535 3.87 25.506 7.679 37.686 9.589 13.006 2.04 42.46 2.04 55.466 0 28.015-4.394 55.564-14.98 77.924-29.942 45.866-30.691 75.818-77.672 84.399-132.381 2.04-13.006 2.04-42.46 0-55.466-9.89-63.054-48.949-116.613-105.149-144.185-18.995-9.319-36.573-14.87-56.747-17.921-8.77-1.327-35.054-2.334-42.667-1.635m6.394 80.99c16.012 2.792 31.548 10.635 43.651 22.035 8.767 8.258 13.917 15.018 18.626 24.449 6.973 13.967 9.347 24.132 9.366 40.107.021 16.795-3.499 30.228-11.504 43.899l-3.469 5.926 22.145 22.234c12.18 12.229 22.758 23.463 23.508 24.965.75 1.502 1.363 4.453 1.363 6.558 0 10.865-8.715 17.92-19.382 15.69-3.847-.804-5.434-2.196-27.267-23.905l-23.183-23.051-2.417 1.707c-7.551 5.333-22.039 10.807-33.564 12.683-14.843 2.416-29.095 1.013-44.066-4.338-12.558-4.488-20.637-9.702-31.111-20.075-13.753-13.621-21.03-26.866-24.847-45.227-2.19-10.534-1.751-28.289.97-39.253 2.503-10.082 9.84-24.511 16.939-33.31 12.782-15.844 32.209-27.517 51.822-31.14 8.285-1.53 23.507-1.508 32.42.046m-23.327 31.167c-19.151 2.562-35.582 14.873-43.677 32.726-3.569 7.872-5.436 18.155-4.762 26.235 1.205 14.45 6.52 25.705 17.075 36.162 11.093 10.989 23.28 15.971 38.911 15.905 15.318-.063 28.56-5.555 39.305-16.299 10.744-10.745 16.236-23.987 16.299-39.305.041-9.651-1.586-16.682-5.924-25.6-4.344-8.932-15.112-19.709-24.08-24.103-10.581-5.183-22.188-7.186-33.147-5.721" fill-rule="evenodd"/></svg>