<svg xmlns="http://www.w3.org/2000/svg" width="512" height="512"><path d="M241.92 64.514c-28.033 2.894-47.985 8.33-69.973 19.064-38.739 18.911-68.69 48.723-87.924 87.515-26.675 53.803-26.675 116.011 0 169.814 9.922 20.011 20.442 34.744 35.902 50.275 58.19 58.463 146.379 73.393 220.128 37.268 59.273-29.035 98.994-85.237 106.68-150.945 9.367-80.077-33.809-158.549-106.68-193.889-18.826-9.13-35.757-14.418-55.893-17.458-8.715-1.315-35.372-2.353-42.24-1.644m37.01 33.242c69.939 10.254 125.06 65.375 135.314 135.314 2.552 17.411 1.405 43.911-2.601 60.05-16.931 68.215-74.571 117.097-144.336 122.406-82.743 6.296-157.422-53.868-169.551-136.596-1.732-11.816-1.732-34.044 0-45.86 5.032-34.323 20.655-65.363 45.303-90.011 25.006-25.006 56.45-40.617 92.034-45.694 8.931-1.274 34.006-1.05 43.837.391m-64.743 48.217c-33.263 7.184-58.341 31.16-67.625 64.651-1.517 5.472-1.82 8.934-1.841 21.056-.029 16.18 1.09 22.124 6.645 35.296 13.898 32.952 48.82 54.661 84.911 52.783 14.493-.753 33.285-6.664 42.853-13.476l2.627-1.871 23.175 23.066c22.051 21.949 23.377 23.109 27.356 23.932 2.3.475 4.604.739 5.12.585.516-.153 1.988-.509 3.27-.789 2.597-.569 7.886-4.878 9.355-7.623 1.734-3.24 2.211-7.252 1.356-11.392-.796-3.853-2.15-5.396-23.911-27.259l-23.066-23.175 1.871-2.627c3.458-4.857 8.697-17.166 10.86-25.514 7.959-30.725-1.624-63.539-24.972-85.509-7.305-6.874-13.494-11.015-23.666-15.833-11.244-5.326-19.839-7.256-34.265-7.691-9.816-.297-13.392-.049-20.053 1.39m31.146 31.654c2.347.492 7.489 2.428 11.427 4.303 5.696 2.712 8.593 4.832 14.164 10.366 11.783 11.705 16.662 23.358 16.637 39.734-.015 9.638-1.576 16.987-5.128 24.146-9.966 20.088-28.223 31.523-50.326 31.524-16.476 0-27.683-4.643-39.355-16.308-5.994-5.99-7.99-8.685-10.793-14.571-4.427-9.299-5.605-14.633-5.551-25.141.07-13.799 4.173-25.39 12.435-35.133 14.278-16.838 34.355-23.562 56.49-18.92" fill-rule="evenodd"/></svg>