<svg xmlns="http://www.w3.org/2000/svg" width="512" height="512"><path d="M221.147 33.313c-86.187 6.682-151.7 35.333-168.703 73.781-4.878 11.029-4.728 5.908-4.469 152.319l.238 134.4 2.297 6.483c3.619 10.215 7.869 16.613 17.266 25.992 9.717 9.7 18.625 15.893 33.477 23.276 81.38 40.452 228.113 40.452 309.493 0 14.624-7.269 23.729-13.607 33.478-23.305 9.402-9.352 13.637-15.721 17.266-25.963l2.297-6.483V119.04l-2.352-6.938c-13.074-38.572-70.052-67.146-153.857-77.156-12.341-1.474-21.271-1.882-46.031-2.106-16.896-.153-35.076.06-40.4.473m76.24 32.799c57.247 5.585 103.851 21.672 124.961 43.136 6.59 6.7 9.012 11.74 9.012 18.752 0 7.208-2.407 11.992-9.778 19.436-20.463 20.666-65.027 36.104-122.915 42.582-18.665 2.089-66.669 2.089-85.334 0-57.797-6.468-102.287-21.861-122.907-42.525-7.314-7.331-9.786-12.254-9.786-19.493 0-7.012 2.422-12.052 9.012-18.752C113.33 85.174 167.21 68.56 234.667 64.532c11.277-.673 49.49.289 62.72 1.58m-194.56 128.045c81.821 39.632 224.709 39.637 306.346.01 5.163-2.506 12.363-6.507 16-8.891l6.614-4.335v37.24l-2.549 5.1c-10.294 20.6-51.983 40.456-102.55 48.841-47.955 7.953-93.421 7.953-141.376 0-50.567-8.385-92.256-28.241-102.55-48.841l-2.549-5.1v-37.24l6.614 4.335c3.637 2.384 10.837 6.38 16 8.881m.672 86.168c28.737 13.835 60.022 21.967 105.658 27.466 17.682 2.131 76.004 2.131 93.686 0 26.79-3.228 40.316-5.693 60.216-10.976 23.494-6.236 48.165-16.385 62.722-25.802l6.006-3.885-.009 18.543c-.008 17.854-.085 18.708-2.089 23.012-5.611 12.052-23.633 24.988-48.249 34.632-49.661 19.457-122.389 25.781-186.88 16.251-56.56-8.358-102.052-28.98-112.249-50.883-2.004-4.304-2.081-5.158-2.089-23.012l-.009-18.543 6.006 3.885c3.302 2.136 11.078 6.327 17.28 9.312m-13.47 78.981c22.957 13.997 58.56 25.583 96.846 31.514 24.532 3.801 36.75 4.617 69.125 4.617s44.593-.816 69.125-4.617c40.767-6.315 79.277-19.398 101.837-34.595l4.398-2.962.231 17.6c.225 17.142.176 17.72-1.874 22.197-9.197 20.089-47.891 38.926-99.541 48.459-25.704 4.744-40.492 5.938-73.749 5.953-32.089.014-43.222-.756-67.103-4.64-54.716-8.899-97.206-28.604-106.988-49.616-2.026-4.351-2.106-5.198-2.114-22.327l-.009-17.805 2.347 1.549c1.291.852 4.652 2.955 7.469 4.673" fill-rule="evenodd"/></svg>