<svg xmlns="http://www.w3.org/2000/svg" width="512" height="512"><path d="M220.587 33.366c-36.947 2.75-73.759 10.503-101.223 21.32-37.774 14.877-60.55 33.951-68.69 57.527-2.202 6.378-2.36 7.781-2.409 21.339l-.052 14.513 2.919 5.941c11.895 24.211 64.04 49.932 127.215 62.749 40.697 8.257 75.481 10.175 114.346 6.306 76.883-7.654 153.448-39.091 168.175-69.052l2.919-5.938-.054-14.515c-.05-13.393-.232-15.053-2.352-21.454-13.689-41.338-80.912-72.194-171.674-78.799-13.772-1.002-55.319-.964-69.12.063M49.15 198.734c-1.299 1.436-1.432 3.58-1.199 19.414.247 16.767.379 18.021 2.272 21.639 15.118 28.889 85.415 58.927 159.697 68.239 62.785 7.87 132.011-1.277 190.404-25.159 29.759-12.171 54.695-29.528 61.329-42.689 2.041-4.047 2.145-5.008 2.396-22.03.233-15.834.1-17.978-1.199-19.414-.804-.888-2.029-1.614-2.723-1.614s-5.531 3.216-10.748 7.146c-20.818 15.682-31.015 20.923-59.406 30.531-87.519 29.617-181.939 29.262-270.983-1.018-24.595-8.364-36.723-14.714-56.369-29.513-5.217-3.93-10.054-7.146-10.748-7.146-.694 0-1.919.726-2.723 1.614m-.083 85.974c-1.228 1.228-1.367 3.58-1.127 18.987.272 17.497.285 17.607 2.7 21.962 3.601 6.498 13.427 15.876 24.027 22.934C116.764 376.62 190.748 395.938 256 395.938c64.528 0 138.796-19.245 180.705-46.826 9.777-6.434 21.266-17.335 24.585-23.326l2.497-4.506.273-17.585c.24-15.407.101-17.759-1.127-18.987-2.271-2.271-4.174-1.671-10.563 3.328-8.693 6.802-23.946 16.977-30.13 20.098-18.608 9.393-54.515 20.597-85.6 26.709-29.507 5.802-49.565 7.723-80.64 7.723-31.075 0-51.133-1.921-80.64-7.723-31.085-6.112-66.992-17.316-85.6-26.709-6.184-3.121-21.437-13.296-30.13-20.098-6.389-4.999-8.292-5.599-10.563-3.328m-.397 85.583c-1.295 2.419-1.05 17.478.396 24.301 6.093 28.76 37.463 53.472 87.467 68.901 35.939 11.09 74.233 16.321 119.467 16.321 48.222 0 90.013-6.192 127.147-18.84 45.731-15.575 74.008-39.101 79.787-66.382 1.446-6.823 1.691-21.882.396-24.301-1.64-3.065-4.726-1.911-14.683 5.487-17.198 12.778-25.112 17.364-40.489 23.461-50.915 20.187-117.286 31.302-169.241 28.343-42.327-2.41-80.854-9.596-117.411-21.897-26.965-9.074-38.869-15.238-59.286-30.7-8.765-6.638-11.924-7.733-13.55-4.694" fill-rule="evenodd"/></svg>