<svg xmlns="http://www.w3.org/2000/svg" width="512" height="512"><path d="M201.552 29.065c-6.013 3.005-10.821 8.137-13.13 14.014-.823 2.096-3.077 15.053-5.009 28.793-1.932 13.74-3.574 25.016-3.649 25.059-.076.043-3.209 1.743-6.964 3.778-3.755 2.034-8.742 4.975-11.082 6.535-2.34 1.56-4.825 2.836-5.522 2.836-.697 0-11.988-4.273-25.092-9.495-26.463-10.546-29.484-11.169-38.917-8.017-8.462 2.828-10.902 6.182-35.4 48.658-12.181 21.12-22.68 39.936-23.331 41.814-1.605 4.623-1.504 12.21.23 17.432 2.053 6.179 6.18 10.235 27.247 26.773l18.692 14.675.032 14.249.032 14.249-20.025 15.712c-11.014 8.641-21.003 17.013-22.198 18.604-5.624 7.488-6.915 18.269-3.169 26.451 1.159 2.531 11.844 21.456 23.745 42.057 14.558 25.201 22.749 38.523 25.036 40.72 5.476 5.262 10.092 7.085 18.042 7.124 6.745.034 7.114-.081 30.911-9.632l24.084-9.667 8.343 5.064c4.588 2.785 9.974 5.895 11.969 6.911 1.994 1.015 3.626 2.126 3.627 2.469.002 3.518 7.1 49.22 8.122 52.299 1.945 5.853 7.119 11.311 13.877 14.639l5.697 2.804h96.499l5.746-2.828c6.451-3.176 11.194-8.144 13.583-14.226.824-2.097 3.072-15.05 4.996-28.784 1.924-13.734 3.566-25.025 3.648-25.09.083-.066 2.243-1.171 4.8-2.455 2.557-1.285 7.64-4.211 11.297-6.503 3.657-2.292 7.177-4.167 7.823-4.167.646 0 11.104 4.035 23.24 8.966 26.577 10.799 29.564 11.553 37.383 9.436 6.372-1.724 10.95-4.696 14.711-9.546 3.655-4.715 45.628-77.666 47.061-81.795 2.824-8.139.732-18.992-4.885-25.34-1.798-2.032-11.871-10.414-22.385-18.628l-19.116-14.933.087-14.226.088-14.226 20.147-15.847c11.081-8.716 20.958-16.985 21.949-18.376 5.63-7.908 7.016-18.19 3.519-26.109-3.867-8.755-45.705-80.059-48.669-82.946-5.499-5.356-10.638-7.436-18.392-7.445-6.721-.008-7.201.142-30.985 9.679l-24.157 9.687-4.429-2.797c-2.436-1.539-7.789-4.686-11.896-6.995-4.106-2.308-7.466-4.49-7.466-4.849 0-3.416-7.159-49.229-8.171-52.286-1.604-4.848-7.77-11.615-13.163-14.447l-3.84-2.017-49.945-.239-49.945-.239-5.331 2.663M294.4 58.667c.002 2.133 6.199 43.915 6.93 46.72 2.115 8.116 9.365 16.21 18.775 20.959 2.993 1.511 8.898 4.92 13.122 7.576 12.385 7.788 19.008 9.631 27.945 7.776 2.623-.545 14.278-4.804 25.899-9.465 11.622-4.662 21.2-8.385 21.285-8.274.084.11 8.67 14.956 19.08 32.989 15.205 26.34 18.71 32.989 17.825 33.808-.605.561-9.102 7.264-18.882 14.895-25.331 19.766-26.493 21.731-26.266 44.376.078 7.744-.25 17.117-.729 20.829-.97 7.524-.269 11.678 2.583 15.304.962 1.222 11.344 9.758 23.072 18.969l21.324 16.746-1.568 2.689c-.863 1.479-9.379 16.225-18.925 32.769-9.547 16.544-17.809 30.08-18.361 30.08-.552 0-9.812-3.583-20.577-7.962-10.764-4.379-21.374-8.411-23.577-8.96-9.214-2.296-16.83-.756-26.914 5.443-4.114 2.53-10.937 6.436-15.16 8.68-9.146 4.859-15.087 10.45-18.103 17.037-2.114 4.618-3.599 13.009-7.937 44.856l-1.017 7.466h-38.312c-23.547 0-38.312-.311-38.312-.808 0-.444-1.521-11.258-3.38-24.03-3.808-26.158-4.773-29.113-11.728-35.902-2.251-2.197-7.164-5.632-10.919-7.634-3.754-2.001-9.378-5.264-12.497-7.249-8.37-5.329-12.226-7.125-17.327-8.068-7.533-1.392-13.612.17-36.677 9.424-11.7 4.695-21.343 8.446-21.428 8.335-.084-.11-8.67-14.956-19.08-32.989-15.143-26.233-18.707-32.988-17.825-33.789.605-.551 9.041-7.211 18.746-14.801 26.254-20.534 26.4-20.812 26.384-49.979-.013-22.346-.641-25.881-5.798-32.66-1.712-2.249-3.581-4.474-4.153-4.943-.573-.469-8.973-7.127-18.666-14.795l-17.625-13.943 1.571-2.697c.864-1.484 9.379-16.234 18.923-32.778 9.543-16.544 17.683-30.08 18.087-30.08.405 0 9.476 3.499 20.157 7.776 24.77 9.917 26.522 10.431 33.928 9.953 6.852-.443 11.536-2.292 20.865-8.237 3.543-2.257 9.322-5.599 12.842-7.425 3.52-1.827 8.248-5.156 10.506-7.4 6.878-6.832 8.156-10.774 11.823-36.481 1.774-12.437 3.236-23.093 3.248-23.68.018-.837 8.284-1.066 38.423-1.066 21.12 0 38.4.288 38.4.64m-46.933 117.941c-9.457.978-16.531 3.011-25.558 7.345-18.818 9.035-32.617 23.596-40.086 42.297-4.352 10.897-5.488 17.033-5.506 29.75-.014 9.86.31 12.71 2.249 19.777 4.254 15.498 10.048 25.585 21.049 36.64 20.405 20.507 50.242 28.448 77.605 20.655 28.524-8.124 49.797-30.403 57-59.696 1.922-7.818 1.925-25.744.006-34.223-6.961-30.741-31.325-55.078-61.159-61.093-8.583-1.73-17.837-2.255-25.6-1.452m23.796 34.097c22.331 7.67 36.028 31.058 31.775 54.255-1.542 8.411-7.169 18.763-13.682 25.173-24.784 24.392-66.89 14.634-78.369-18.162-9.23-26.369 5.873-54.808 33.172-62.464 6.561-1.84 19.987-1.247 27.104 1.198" fill-rule="evenodd"/></svg>