<svg xmlns="http://www.w3.org/2000/svg" width="512" height="512"><path d="M203.043 28.76c-1.508 1.269-3.214 3.477-3.791 4.907-.577 1.43-2.923 16.16-5.214 32.735l-4.164 30.135-9.598 4.738c-5.279 2.607-14.073 7.709-19.543 11.338l-9.944 6.599-29.507-11.819c-16.229-6.501-30.708-11.82-32.175-11.82-6.003 0-7.074 1.494-32.165 44.83-13.035 22.512-24.044 42.178-24.465 43.704-1.114 4.033.334 8.13 4.043 11.436 1.763 1.571 13.312 10.729 25.664 20.35l22.46 17.494-.575 6.698c-.49 5.718-.526 16.957-.112 35.055l.096 4.206-24.627 19.291c-14.322 11.218-25.172 20.331-25.929 21.777-3.029 5.78-2.89 6.09 22.309 49.65 14.26 24.649 24.779 41.915 26.558 43.589 4.916 4.63 6.411 4.293 39.37-8.88l29.157-11.653 9.092 6.189c5.001 3.403 13.763 8.562 19.472 11.464l10.38 5.275 4.401 31.005c4.671 32.912 4.753 33.214 10.039 37.161 2.317 1.729 3.195 1.759 51.725 1.759s49.408-.03 51.725-1.759c5.296-3.954 5.366-4.214 10.034-37.424l4.396-31.268 9.576-4.723c5.266-2.598 14.062-7.72 19.546-11.383l9.97-6.661 29.306 11.836c17.336 7.001 30.471 11.836 32.157 11.836 6.209 0 7.136-1.285 32.355-44.83 13.038-22.512 24.011-42.082 24.385-43.49.856-3.225-.108-7.712-2.141-9.958-.859-.95-12.453-10.234-25.763-20.631l-24.201-18.905.58-6.698c.495-5.716.533-16.997.118-35.031l-.096-4.183 24.32-19.018c13.376-10.461 25.037-20.211 25.913-21.668 3.524-5.859 3.398-6.146-22.046-50.162-14.281-24.705-24.706-41.824-26.494-43.506-4.921-4.629-6.418-4.292-39.333 8.863l-29.116 11.638-9.716-6.458c-5.343-3.551-14.125-8.692-19.516-11.423L322.158 96l-4.355-30.734c-2.396-16.903-4.793-31.55-5.327-32.547-.534-.998-2.161-2.816-3.616-4.04l-2.644-2.226H205.784l-2.741 2.307m71.73 149.66c15.33 3.55 32.261 14.102 42.641 26.577 6.663 8.008 13.907 22.47 16.356 32.656 2.707 11.259 2.544 26.866-.399 38.151-2.175 8.336-7.007 19.013-11.869 26.225-4.415 6.549-16.874 18.079-24.377 22.562-9.231 5.514-21.445 9.627-32.412 10.914-16.687 1.958-35.006-2.054-49.838-10.914-7.503-4.483-19.962-16.013-24.377-22.562-4.857-7.205-9.693-17.886-11.874-26.225-3.099-11.855-3.099-27.754.001-39.612 9.674-37.002 43.434-61.886 81.215-59.862 4.224.226 10.944 1.167 14.933 2.09" fill-rule="evenodd"/></svg>