<svg xmlns="http://www.w3.org/2000/svg" width="512" height="512"><path d="M176.648 34.01c-1.624.871-3.967 2.887-5.208 4.48-1.241 1.593-36.524 64.274-78.406 139.292-52.225 93.542-76.288 137.427-76.59 139.679-1.004 7.486 2.635 14.008 9.575 17.161 3.223 1.464 7.673 1.555 76.93 1.573 80.724.02 74.526-.395 74.558 4.995.007 1.252.782 5.925 1.722 10.383 10.532 49.963 42.227 90.656 87.438 112.261 14.505 6.931 27.253 11.112 41.674 13.665 51.971 9.204 105.549-8.216 142.242-46.247 12.843-13.312 20.265-23.762 28.481-40.107 14.113-28.075 19.545-60.592 15.404-92.221-6.594-50.38-37.329-95.001-82.308-119.497-14.021-7.636-29.372-13.108-46.507-16.578-11.025-2.232-37.229-3.102-48.484-1.61-14.739 1.954-34.568 7.101-41.838 10.86-1.353.7-2.752.952-3.109.56-.357-.392-17.249-30.472-37.539-66.846-20.289-36.373-37.905-67.236-39.146-68.585-4.484-4.871-13.077-6.335-18.889-3.218m69.838 158.603c33.862 60.647 61.567 110.471 61.567 110.72 0 .25-55.904.454-124.231.454s-124.103-.318-123.946-.707c1.626-4.04 124.122-221.801 124.514-221.347.29.338 28.233 50.234 62.096 110.88m114.474 1.944c26.023 5.279 46.061 16.135 65.311 35.385 22.524 22.524 34.011 47.155 37.184 79.732 4.344 44.597-18.142 91.328-55.988 116.357-37.26 24.641-81.16 28.676-122.666 11.276-25.055-10.504-47.677-31.484-61.86-57.369-6.033-11.011-11.405-27.02-13.456-40.098l-.568-3.627 63.861-.004c44.085-.004 64.919-.298 67.275-.951 10.38-2.874 14.723-13.421 9.623-23.365-1.203-2.346-15.477-28.035-31.719-57.085s-29.53-53.078-29.53-53.396c0-1.445 20.414-7.001 31.239-8.502 9.417-1.305 30.979-.445 41.294 1.647" fill-rule="evenodd"/></svg>