<svg xmlns="http://www.w3.org/2000/svg" width="512" height="512"><path d="M94.473 175.723C45.329 263.443 5.12 335.439 5.12 335.714c0 .275 80.489.499 178.865.499 169.991 0 178.836-.074 178.304-1.493-.652-1.738-177.048-316.916-177.895-317.858-.313-.347-40.777 71.14-89.921 158.861M320 160.878c-.704.139-4.664.714-8.801 1.277-5.48.747-7.407 1.322-7.1 2.121.231.602 25.791 46.484 56.801 101.959 31.009 55.475 56.38 101.019 56.38 101.208 0 .189-52.634.344-116.964.344H183.352l.569 1.92c1.616 5.455 6.996 18.128 10.414 24.533 30.001 56.221 89.847 89.784 152.153 85.331 61.83-4.419 115.697-43.637 137.985-100.46 8.497-21.66 10.887-34.64 10.887-59.111 0-19.283-.591-24.567-4.439-39.68-14.291-56.124-59.318-101.035-115.565-115.267-13.049-3.302-24.583-4.603-39.996-4.512-7.744.046-14.656.198-15.36.337" fill-rule="evenodd"/></svg>