<svg xmlns="http://www.w3.org/2000/svg" width="512" height="512"><path d="M253.867 31.973c-.47.168-2.006.554-3.414.858-1.904.412-13.336 11.302-44.647 42.528-24.79 24.723-42.804 43.355-43.832 45.333-4.977 9.584 1.084 21.431 11.845 23.152 7.193 1.15 8.021.51 38.021-29.365l27.947-27.831v118.41c0 104.946.15 118.77 1.32 121.571 5.709 13.662 24.077 13.662 29.786 0 1.17-2.801 1.32-16.625 1.32-121.571V86.648l27.947 27.831c30 29.875 30.828 30.515 38.021 29.365 10.479-1.676 16.772-13.479 12.122-22.736-1.644-3.272-83.282-85.604-86.623-87.359-2.252-1.183-8.37-2.29-9.813-1.776m-125.44 144.609c-22.502 2.728-42.285 20.948-47.318 43.578-.543 2.443-.862 41.578-.875 107.597-.02 99.831.042 104.001 1.63 110.211 4.996 19.534 20.137 34.783 40.177 40.464C127.3 479.922 133.929 480 256 480s128.7-.078 133.959-1.568c15.992-4.534 28.872-15.116 36.254-29.789 5.886-11.701 5.658-6.462 5.389-123.523l-.242-105.387-2.446-6.4c-6.333-16.574-19.465-29.283-35.887-34.732-6.885-2.284-6.929-2.287-34.2-2.338-30.735-.056-30.265-.143-35.75 6.643-2.385 2.951-2.65 3.862-2.65 9.094 0 5.202.275 6.161 2.609 9.094 1.435 1.804 4.301 4.143 6.368 5.199 3.627 1.853 4.573 1.92 27.158 1.92 14.923 0 24.566.35 26.617.964 5.415 1.623 11.177 6.643 14.033 12.227l2.575 5.035v203.214l-1.812 3.917c-2.183 4.719-6.76 9.464-11.651 12.078l-3.604 1.925H129.28l-3.604-1.925c-4.891-2.614-9.468-7.359-11.651-12.078l-1.812-3.917V328.107c0-101.447.002-101.551 1.797-105.43 2.496-5.395 6.278-9.444 11.138-11.926 4.058-2.073 4.589-2.119 29.732-2.538 28.716-.478 28.667-.468 34.043-7.119 2.385-2.951 2.65-3.862 2.65-9.094 0-5.232-.265-6.143-2.65-9.094-5.369-6.642-5.531-6.677-31.91-6.819-12.906-.069-25.77.154-28.586.495" fill-rule="evenodd"/></svg>