<svg xmlns="http://www.w3.org/2000/svg" width="512" height="512"><path d="M368.213 50.316c-22.369 5.924-38.719 21.78-45.787 44.404-1.726 5.526-1.974 7.915-1.813 17.493.103 6.102.295 12.366.427 13.922l.24 2.827-73.592 41.408-73.591 41.408-4.915-4.399c-5.597-5.008-17.607-11.257-25.822-13.434-6.911-1.831-23.184-2.007-29.806-.321-38.982 9.924-59.782 50.663-44.513 87.183 16.833 40.258 69.489 52.07 101.358 22.737l3.572-3.287L247.9 341.84l73.929 41.583-.701 4.342c-1.418 8.778-.795 22.619 1.328 29.515 3.569 11.596 8.168 19.229 16.71 27.733 13.106 13.049 26.697 18.712 44.834 18.683 11.764-.018 17.605-1.405 28.927-6.868 6.7-3.233 9.241-5.084 15.443-11.255 8.488-8.445 12.648-15.043 16.467-26.118 2.445-7.089 2.665-8.631 2.677-18.815.015-12.412-1.163-18.072-5.861-28.16-7.481-16.065-21.766-28.231-39.733-33.842-9.241-2.885-26.563-2.891-35.84-.012-8.093 2.512-15.951 6.766-23.04 12.473l-5.547 4.465-73.647-41.462-73.648-41.462.688-4.267c.882-5.472.886-19.237.007-24.746l-.68-4.267 73.745-41.461 73.745-41.461 5.442 4.541c6.277 5.239 16.647 10.628 24.642 12.807 8.676 2.365 25.015 2.156 33.28-.425 11.457-3.58 19.277-8.252 27.306-16.316 8.29-8.325 12.763-15.431 15.858-25.19 6.844-21.581 2.766-43.054-11.527-60.705-7.913-9.772-22.357-18.622-34.624-21.217-8.355-1.767-22.43-1.587-29.867.383" fill-rule="evenodd"/></svg>