<svg xmlns="http://www.w3.org/2000/svg" viewBox="0 0 512 512"><path d="M239.36 39.365c-58.836 26.171-107.363 41.428-159.573 50.17-16.627 2.784-40.818 6.038-44.886 6.038-1.39 0-2.729.525-2.976 1.167-.609 1.588 1.126 58.006 2.208 71.793 3.111 39.633 8.605 69.109 18.249 97.913 22.074 65.928 65.377 124.797 125.031 169.973 24.208 18.333 57.824 37.329 74.96 42.36 4.385 1.287 6.802.688 19.84-4.916 31.739-13.641 68.115-39.003 98.897-68.952 29.205-28.416 50.807-57.23 68.453-91.307 22.685-43.808 33.589-85.103 38.306-145.071 1.129-14.352 2.796-71.031 2.121-72.123-.285-.46-1.62-.837-2.968-.837-4.001 0-28.315-3.276-44.809-6.038-51.962-8.701-97.139-22.829-157.737-49.328-9.785-4.279-18.233-7.757-18.774-7.727-.54.029-7.894 3.127-16.342 6.885m35.84 44.668c53.892 22.883 105.946 38.236 154.88 45.68 10.607 1.614 9.651.223 9.001 13.093-1.69 33.497-4.571 59.038-9.065 80.341-15.417 73.09-61.814 140.931-128.536 187.943-13.87 9.773-37.619 23.601-43.56 25.362l-1.92.57V75.989l1.92.761c1.056.419 8.832 3.696 17.28 7.283" fill-rule="evenodd"/></svg>