<svg xmlns="http://www.w3.org/2000/svg" width="512" height="512"><path d="M238.933 38.09C173.37 67.609 132.683 80.384 61.382 93.838c-9.777 1.845-18.928 3.95-20.335 4.677-3.625 1.874-6.657 6.209-7.804 11.157-1.55 6.681-1.304 51.706.375 68.589 3.328 33.48 8.943 59.808 19 89.081 10.043 29.236 20.904 51.06 39.157 78.685 28.491 43.119 67.63 80.776 114.146 109.823 13.762 8.594 40.874 22.406 46.217 23.546 5.487 1.17 9.213.134 22.495-6.253 25.913-12.46 51.393-29.043 76.357-49.694 10.499-8.685 32.2-30.042 42.062-41.394 47.143-54.27 75.756-120.256 84.342-194.508 2.85-24.65 3.51-66.151 1.238-77.849-.941-4.846-3.978-9.269-7.679-11.183-1.407-.727-10.558-2.832-20.335-4.677C380.343 80.578 343.204 69.08 278.78 40.64c-23.47-10.36-22.621-10.306-39.847-2.55m103.936 123.54c2.623 1.371 6.331 5.158 7.747 7.914 1.429 2.782 1.104 10.531-.572 13.639-.801 1.487-26.962 32.159-58.134 68.16-60.022 69.319-59.343 68.62-66.63 68.62-6.146 0-9.397-2.576-35.096-27.811-13.785-13.536-26.12-26.114-27.411-27.95-3.986-5.672-2.769-15.564 2.501-20.329 2.367-2.141 7.491-4.089 10.699-4.068 6.108.041 9.912 2.929 29.303 22.243l18.823 18.749 50.895-58.778c33.104-38.231 51.88-59.264 53.711-60.166 3.481-1.716 11.077-1.835 14.164-.223" fill-rule="evenodd"/></svg>