<svg xmlns="http://www.w3.org/2000/svg" width="512" height="512"><path d="M193.328 34.323c-1.727 2.466-1.676 4.13.374 12.26C199.529 69.698 217.61 88 240.524 93.98c8.849 2.309 22.097 2.311 30.937.004 23.035-6.012 40.982-24.174 46.837-47.401 2.131-8.45 2.13-10.315-.005-12.45-2.302-2.302-5.208-2.156-15.688.787-16.28 4.571-25.266 5.621-47.458 5.543-21.706-.076-31.437-1.286-47.16-5.86-9.426-2.743-12.887-2.809-14.659-.28M98.987 64.49a61780.332 61780.332 0 0 0-65.622 23.094c-12.615 4.472-17.153 9.006-17.151 17.135.001 4.831 16.837 92.896 18.3 95.726 1.735 3.354 5.893 6.69 9.684 7.769 1.739.494 14.655 2.179 28.703 3.742 25.123 2.797 25.573 2.881 27.52 5.145 1.558 1.811 1.985 3.335 2.008 7.16.017 2.672-1.583 58.289-3.555 123.593-3.923 129.938-4.006 121.232 1.219 127.184 5.013 5.709-4.26 5.389 155.907 5.389s150.894.32 155.907-5.389c5.216-5.941 5.133 2.736 1.216-127.175-1.97-65.309-3.568-120.93-3.552-123.602.023-3.825.45-5.349 2.008-7.16 1.947-2.264 2.397-2.348 27.52-5.145 14.048-1.563 26.964-3.248 28.703-3.742 3.791-1.079 7.949-4.415 9.684-7.769 1.463-2.83 18.299-90.895 18.3-95.726.001-6.265-4.018-11.981-10.239-14.56-1.643-.681-31.74-11.298-66.882-23.594-49.385-17.279-64.29-22.18-65.635-21.579-1.358.606-2.262 2.897-4.111 10.419-8.603 34.987-36.744 62.251-72.866 70.592-10.472 2.418-31.53 2.185-41.813-.464-36.216-9.329-62.945-35.924-71.296-70.938-1.899-7.963-3.256-10.303-5.88-10.138-.732.046-26.867 9.061-58.077 20.033" fill-rule="evenodd"/></svg>