<svg xmlns="http://www.w3.org/2000/svg" width="512" height="512"><path d="M392.962 97.771c-3.848 2.006-5.627 3.848-7.357 7.616-1.908 4.154-2.031 8.848-.338 12.9.697 1.669 6.325 8.178 12.521 14.479l11.254 11.447-26.815.004c-34.593.004-41.94 1.052-58.387 8.328-19.336 8.553-38.418 26.829-49.28 47.196-7.16 13.427 3.807 27.581 18.086 23.341 4.83-1.435 7.369-4.065 15.338-15.894 9.619-14.279 19.065-21.972 33.401-27.204 9.206-3.36 17.885-4.165 45.109-4.183l22.548-.014-11.254 11.447c-6.196 6.301-11.824 12.81-12.521 14.479-1.695 4.057-1.569 8.75.346 12.9 2.172 4.707 5.249 7.291 10.213 8.579 5.091 1.321 9.196.567 13.623-2.501 1.732-1.2 13.974-13.05 27.204-26.333 24.616-24.714 27.523-28.343 27.523-34.358 0-6.012-2.91-9.646-27.529-34.38-13.233-13.295-25.758-25.302-27.833-26.683-3.052-2.03-4.684-2.509-8.534-2.505-2.646.003-5.896.597-7.318 1.339M57.6 145.428c-5.29 2.371-9.776 9.057-9.776 14.572 0 5.532 5.168 12.875 10.472 14.879 1.581.597 17.33.913 46.08.922 24.022.009 47.202.387 51.51.841 8.928.94 19.123 4.337 26.523 8.837 10.798 6.565 14.492 10.963 34.967 41.624l19.285 28.88-18.611 27.92c-10.235 15.356-20.556 29.978-22.935 32.492-5.319 5.625-15.023 12.216-21.617 14.683-12.651 4.733-10.752 4.584-64.762 5.09l-50.411.472-3.15 2.133c-3.593 2.433-7.398 9.239-7.37 13.181.041 5.608 5.179 12.918 10.491 14.925 1.596.603 18.957.908 51.746.908 45.583 0 49.952-.127 57.331-1.661 18.376-3.821 33.494-11.522 47.09-23.988 7.317-6.708 12.456-13.475 28.312-37.285 6.955-10.442 12.906-18.986 13.225-18.986.319 0 6.27 8.544 13.225 18.986 15.856 23.81 20.995 30.577 28.312 37.285 13.596 12.466 28.714 20.167 47.09 23.988 6.978 1.451 11.553 1.661 36.201 1.661h28.214l-11.254 11.447c-6.196 6.301-11.824 12.81-12.521 14.479-1.695 4.057-1.569 8.75.346 12.9 2.172 4.707 5.249 7.291 10.213 8.579 5.091 1.321 9.196.567 13.623-2.501 1.732-1.2 13.974-13.05 27.204-26.333 24.616-24.714 27.523-28.343 27.523-34.358 0-6.012-2.91-9.646-27.529-34.38-13.233-13.295-25.788-25.333-27.9-26.751-3.485-2.339-4.362-2.55-9.481-2.276-4.617.248-6.222.746-8.84 2.742-5.71 4.356-7.899 12.395-5.159 18.952.697 1.669 6.325 8.178 12.521 14.479l11.254 11.447-25.108-.029c-26.996-.032-33.344-.682-43.66-4.469-7.741-2.841-14.21-6.851-20.883-12.943-4.732-4.32-11.73-14.335-47.409-67.84-23.022-34.525-44.071-65.688-46.776-69.252-9.155-12.06-22.923-22.887-37.046-29.135-18.046-7.983-21.393-8.331-79.787-8.295-38.491.024-48.729.262-50.773 1.178" fill-rule="evenodd"/></svg>