<svg xmlns="http://www.w3.org/2000/svg" width="512" height="512"><path d="M234.667 17.186C145.287 26.379 70.87 93.132 52.623 180.48c-4.289 20.531-4.41 23.028-4.41 91.307 0 63.779.007 64.026 1.943 71.68 4.014 15.861 14.826 33.149 26.759 42.786 7.971 6.436 14.001 9.66 30.178 16.131 16.528 6.612 20.539 8.947 22.758 13.251.865 1.676 4.069 15.5 7.12 30.72 3.858 19.243 6.211 29.028 7.725 32.125 3.07 6.281 10.774 13.036 17.603 15.434l5.381 1.89h176.64l5.381-1.89c6.861-2.41 14.53-9.15 17.637-15.499 1.56-3.189 3.821-12.592 7.683-31.959 3.009-15.092 6.123-28.813 6.919-30.49 2.18-4.593 5.343-6.484 22.113-13.217 8.448-3.391 17.859-7.642 20.914-9.446 18.542-10.949 32.116-29.769 37.241-51.636 1.46-6.23 1.579-11.429 1.579-69.454 0-47.349-.279-64.811-1.136-71.253-4.961-37.298-18.812-71.645-40.779-101.12-8.919-11.968-30.732-33.746-42.565-42.497-30.68-22.689-66.704-36.698-103.557-40.273-10.353-1.004-30.754-.946-41.083.116m33.659 31.474c62.267 4.489 117.532 42.287 145.63 99.602 8.72 17.787 14.913 39.365 16.96 59.098 1.19 11.472 1.134 121.525-.065 127.318-1.773 8.563-6.414 16.745-13.483 23.769-6.971 6.927-9.277 8.238-26.968 15.334-19.103 7.663-25.365 11.439-31.264 18.855-7.263 9.129-8.365 12.379-14.411 42.461-2.794 13.902-5.284 26.14-5.532 27.196-.435 1.846-.811 1.92-9.737 1.92h-9.285l-.299-11.015c-.294-10.857-.337-11.062-2.949-14.293-3.876-4.794-7.371-6.549-13.037-6.549-6.148 0-11.193 2.97-13.888 8.177-1.529 2.955-1.948 5.486-2.256 13.654l-.379 10.026h-15.15l-.004-8.746c-.006-10.099-.892-14.053-3.97-17.711-3.176-3.775-6.846-5.392-12.239-5.392-5.393 0-9.063 1.617-12.239 5.392-3.078 3.658-3.964 7.612-3.97 17.711l-.004 8.746h-15.15l-.36-10.084c-.319-8.959-.607-10.507-2.581-13.876-2.978-5.082-8.148-7.992-14.053-7.911-5.238.071-8.837 1.951-12.566 6.563-2.612 3.231-2.655 3.436-2.949 14.293l-.299 11.015h-9.285c-8.926 0-9.302-.074-9.737-1.92-.248-1.056-2.738-13.294-5.532-27.196-5.382-26.78-6.812-31.542-11.671-38.862-6.405-9.649-13.616-14.282-36.804-23.646-7.642-3.086-15.543-6.745-17.558-8.132-9.341-6.426-17.878-19.079-20.093-29.779-1.246-6.023-1.28-116.921-.038-129.148 1.292-12.725 3.809-24.274 8.144-37.366 22.084-66.698 83.15-114.354 153.092-119.474 13.136-.962 13.058-.962 25.979-.03m-115.48 177.511c-9.258 2.424-16.537 6.839-24.513 14.868-8.369 8.423-13.149 17.318-15.357 28.575-7.512 38.304 27.106 72.922 65.41 65.41 11.515-2.259 20.243-7.011 29.038-15.81 11.621-11.625 16.236-22.786 16.258-39.321.021-14.827-4.264-26.198-13.985-37.118-7.351-8.258-17.871-14.642-28.098-17.053-7.609-1.794-20.986-1.585-28.753.449m177.166-.41c-9.863 2.39-20.51 8.928-27.709 17.014-9.711 10.91-14.002 22.284-14.003 37.118 0 16.461 4.646 27.687 16.276 39.321 8.795 8.799 17.523 13.551 29.038 15.81 38.304 7.512 72.922-27.106 65.41-65.41-2.208-11.257-6.988-20.152-15.357-28.575-11.828-11.907-23.405-16.679-40.124-16.541-4.735.039-10.824.607-13.531 1.263m-151.815 32.723c5.137 2.62 8.106 5.489 10.825 10.459 3.36 6.142 3.601 15.329.557 21.19-4.429 8.527-10.782 12.809-19.982 13.47-7.196.516-12.243-1.241-17.512-6.098-5.898-5.436-7.425-9.057-7.425-17.612 0-5.795.369-7.939 1.835-10.666 2.936-5.461 9.05-10.511 14.887-12.296 4.109-1.257 12.898-.446 16.815 1.553m176.162.071c4.686 2.412 8.847 6.397 11.146 10.672 1.466 2.727 1.835 4.871 1.835 10.666 0 8.555-1.527 12.176-7.425 17.612-5.269 4.857-10.316 6.614-17.512 6.098-9.2-.661-15.553-4.943-19.982-13.47-2.565-4.939-2.746-15.003-.353-19.626 3.709-7.163 9.401-12.01 16.135-13.738 4.351-1.117 12.204-.249 16.156 1.786m-104.794 63.049c-6.263 2.845-7.307 4.952-17.076 34.45-8.652 26.124-9.066 27.697-8.163 31.017 1.359 5.001 4.271 8.881 8.207 10.935 3.185 1.661 4.788 1.781 23.894 1.781 19.98 0 20.558-.049 23.687-1.995 4.211-2.618 7.597-8.435 7.669-13.174.079-5.224-16.638-55.195-19.669-58.797-2.711-3.222-8.077-5.784-12.114-5.784-1.643 0-4.539.705-6.435 1.567" fill-rule="evenodd"/></svg>