<svg xmlns="http://www.w3.org/2000/svg" width="512" height="512"><path d="M238.933 16.717c-31.403 3.633-50.334 8.921-74.791 20.891-49.996 24.468-88.235 68.428-105.72 121.539-3.708 11.261-7.096 26.191-9.102 40.106-.829 5.756-1.107 23.827-1.107 72.107 0 64.107.01 64.464 1.93 72.002 4.414 17.326 14.045 32.589 27.293 43.253 8.359 6.729 14.292 9.867 31.305 16.555 7.946 3.124 15.503 6.432 16.793 7.35 4.571 3.255 5.536 6.252 11.314 35.147 3.075 15.379 6.353 29.683 7.284 31.788 2.549 5.762 9.473 12.586 15.678 15.452 4.811 2.222 6.333 2.479 16.188 2.734l10.878.281 2.562-2.562 2.562-2.562v-22.925c0-22.08.071-23.065 1.92-26.721 1.098-2.171 3.448-4.858 5.49-6.276 7.13-4.953 17.949-2.394 22.253 5.263 1.843 3.28 1.91 4.187 1.91 25.711 0 23.7.479 27.056 4.139 29.015 3.196 1.71 7.312 1.107 9.725-1.425l2.236-2.347.27-23.536.27-23.536 2.56-4.12c4.862-7.823 14.79-10.098 21.961-5.031 6.714 4.743 7.017 6.099 7.315 32.757l.263 23.466 2.244 2.347c2.42 2.532 6.537 3.135 9.732 1.425 3.646-1.951 4.139-5.346 4.139-28.518 0-24.272.221-25.504 5.408-30.058 8.42-7.392 20.479-4.512 24.844 5.935 1.08 2.585 1.321 7.303 1.321 25.868v22.706l2.562 2.562 2.562 2.562 10.878-.281c9.855-.255 11.377-.512 16.188-2.734 6.205-2.866 13.129-9.69 15.678-15.452.931-2.105 4.209-16.409 7.284-31.788 5.778-28.895 6.743-31.892 11.314-35.147 1.29-.918 8.847-4.226 16.793-7.35 17.013-6.688 22.946-9.826 31.305-16.555 13.248-10.664 22.879-25.927 27.293-43.253 1.918-7.531 1.93-7.944 1.93-70.722 0-47.705-.278-65.233-1.136-71.68-5.036-37.858-18.943-72.097-41.371-101.854-7.69-10.203-23.257-26.427-33.867-35.295-28.279-23.636-63.745-39.595-101.155-45.518-8.083-1.28-40.543-2.361-47.325-1.576m-53.525 210.141c14.477 5.166 25.943 14.991 32.051 27.464 4.635 9.466 6.114 15.632 6.114 25.483 0 15.654-5.202 28.317-16.197 39.423-11.394 11.509-23.604 16.57-39.696 16.451-7.686-.056-10.626-.474-16.231-2.303-41.293-13.476-52.806-65.283-21.027-94.619 5.734-5.293 16.66-11.23 24.181-13.14 6.835-1.735 24.455-1.026 30.805 1.241m170.603-1.506c12.38 2.533 27.27 12.725 34.497 23.614 17.515 26.388 9.378 62.518-17.783 78.952-8.821 5.338-17.395 7.68-28.405 7.761-16.066.118-28.241-4.927-39.725-16.46-11.066-11.114-16.131-23.453-16.156-39.36-.015-9.879 1.454-16.044 6.07-25.471 6.982-14.261 22.054-25.834 37.864-29.075 5.071-1.039 18.476-1.017 23.638.039m-91.105 97.536c4.31 3.287 5.706 6.457 14.692 33.362 8.651 25.9 9.292 29.505 6.288 35.392-1.85 3.627-4.855 6.073-9.32 7.587-3.923 1.331-37.209 1.331-41.132 0-7.052-2.391-11.007-7.775-11.007-14.981 0-5.162 15.155-51.152 18.696-56.735 4.822-7.604 15.035-9.772 21.783-4.625" fill-rule="evenodd"/></svg>