<svg xmlns="http://www.w3.org/2000/svg" width="512" height="512"><path d="M238.933 16.717c-36.581 4.232-61.083 12.087-88.619 28.41-50.164 29.735-85.65 79.014-97.777 135.78-4.228 19.792-4.125 17.254-4.496 110.182l-.349 87.568 41.194 16.538 41.195 16.538 8.304 41.387c4.568 22.763 8.324 41.675 8.347 42.027.023.352 10.217.64 22.655.64H192v-64h31.573v64h16.214v-64h32.426v64h16.214v-64H320v64h22.613c12.438 0 22.632-.288 22.655-.64.023-.352 3.779-19.264 8.347-42.027l8.304-41.387 41.195-16.538 41.194-16.538-.349-87.568c-.371-92.928-.268-90.39-4.496-110.182-12.143-56.843-47.638-106.061-98.028-135.929-23.113-13.7-47.74-22.482-74.715-26.644-8.511-1.314-40.929-2.41-47.787-1.617m-53.419 210.177c16.992 6.059 29.603 18.677 35.574 35.592 2.269 6.429 3.139 21.127 1.696 28.674-.565 2.955-2.759 8.967-4.876 13.359-6.788 14.083-19.099 24.54-34.441 29.255-9.398 2.889-22.576 2.733-32.018-.377-16.826-5.542-30.058-18.17-35.898-34.258-4.14-11.406-4.28-26.172-.356-37.577 4.478-13.016 15.062-25.017 27.461-31.137 10.492-5.179 14.537-6.019 27.157-5.644 8.063.24 11.896.756 15.701 2.113m170.497-1.542c2.487.509 8.17 2.669 12.629 4.8 14.538 6.95 25.442 20.278 29.523 36.088 1.861 7.211 1.871 20.06.021 27.213-4.935 19.081-18.723 33.715-37.633 39.944-5.666 1.867-8.46 2.262-16.231 2.299-16.077.077-28.204-4.947-39.775-16.477-5.292-5.273-7.219-7.975-10.399-14.579-4.917-10.213-6.094-16.219-5.484-27.987.769-14.834 5.529-25.576 15.97-36.03 8.013-8.025 18.989-13.927 29.021-15.607 4.494-.752 18.035-.549 22.358.336m-75.744 134.755 12.141 39.68-18.204.23c-10.012.126-26.396.126-36.408 0l-18.204-.23 12.189-39.68c6.703-21.824 12.207-39.787 12.23-39.917.023-.13 5.459-.13 12.079 0l12.036.237 12.141 39.68" fill-rule="evenodd"/></svg>