<svg xmlns="http://www.w3.org/2000/svg" width="512" height="512"><path d="M249.6 17.428c-3.623 1.624-6.341 4.45-8.185 8.509-1.433 3.154-1.593 5.945-1.61 28.036-.015 20.351-.22 24.534-1.203 24.534-3.396 0-17.492-4.913-26.122-9.105-5.397-2.621-11.209-4.954-12.914-5.183-8.835-1.188-16.953 6.263-16.953 15.561 0 7.96 3.443 12.119 14.954 18.065 10.005 5.168 22.069 9.409 32.771 11.521l9.449 1.864v58.376c0 32.107-.33 58.248-.732 58.092-.402-.157-23.211-13.272-50.686-29.146l-49.954-28.86 2.033-5.188c2.755-7.03 6.093-20.862 7.157-29.655 1.804-14.91.85-23.111-3.211-27.602-4.722-5.221-14.439-6.447-20.411-2.574-5.799 3.76-7.141 7.177-7.954 20.246-.826 13.275-4.021 27.828-6.111 27.828-.486 0-10.344-5.472-21.907-12.16-20.763-12.009-21.089-12.16-26.217-12.16-4.325 0-5.783.408-8.717 2.442-8.718 6.041-9.187 19.289-.903 25.507 1.576 1.184 11.314 7.024 21.639 12.978 10.326 5.953 19.158 11.206 19.627 11.672 1.248 1.239-12.205 13.881-20.48 19.247-3.755 2.434-7.693 5.044-8.752 5.8-2.895 2.067-5.328 7.525-5.328 11.954 0 8.96 6.909 15.786 15.978 15.786 3.282 0 5.411-.739 10.496-3.644 11.951-6.828 23.891-16.89 33.19-27.968l3.972-4.732 50.492 29.052c27.771 15.979 50.499 29.244 50.507 29.479.008.235-22.701 13.516-50.463 29.515l-50.476 29.088-4-4.768c-13.139-15.663-35.043-31.648-43.368-31.648-9.431 0-16.346 6.767-16.314 15.966.023 6.721 2.545 10.052 12.659 16.717 4.843 3.193 11.941 8.833 15.773 12.535 6.114 5.907 6.811 6.878 5.687 7.935-.704.662-9.536 5.92-19.626 11.683-21.907 12.513-23.614 13.727-25.674 18.265-4.599 10.127 1.797 21.455 12.706 22.503 5.28.507 6.255.065 29.359-13.315 10.658-6.173 19.748-11.223 20.2-11.223 2.031 0 5.237 14.745 6.051 27.828.567 9.124 1.059 11.942 2.543 14.582 6.305 11.219 23.009 10.673 28.275-.924 3.719-8.187.39-35.917-6.385-53.207l-2.02-5.153 50.033-28.821c27.517-15.853 50.32-28.975 50.672-29.161.352-.186.64 25.911.64 57.992v58.329l-10.88 2.365c-12.083 2.625-22.778 6.535-33.067 12.088-10.311 5.565-13.227 9.341-13.227 17.132 0 6.524 3.563 11.86 9.604 14.384 5.393 2.254 8.796 1.687 17.927-2.985 8.329-4.262 20.285-8.661 26.443-9.73l3.2-.556.018 24.572c.017 22.095.178 24.916 1.599 27.985 6.114 13.204 23.078 13.204 29.192 0 1.421-3.069 1.582-5.89 1.599-27.985l.018-24.572 3.2.556c6.158 1.069 18.114 5.468 26.443 9.73 9.131 4.672 12.534 5.239 17.927 2.985 6.041-2.524 9.604-7.86 9.604-14.384 0-7.791-2.916-11.567-13.227-17.132-10.289-5.553-20.984-9.463-33.067-12.088l-10.88-2.365v-58.329c0-32.081.288-58.178.64-57.992.352.186 23.182 13.324 50.733 29.196 41.281 23.78 49.967 29.096 49.376 30.219-1.647 3.127-6.058 18.095-7.318 24.828-.746 3.989-1.584 11.875-1.861 17.523-.449 9.128-.313 10.704 1.221 14.173.95 2.146 3.028 4.895 4.618 6.108 2.779 2.12 9.282 4.187 11.283 3.587.529-.159 2.011-.518 3.293-.799 2.911-.637 7.994-5.03 9.751-8.427.86-1.663 1.575-6.53 2.027-13.802.811-13.048 4.02-27.75 6.057-27.75.458 0 9.498 5.031 20.088 11.18 22.954 13.327 24.149 13.868 29.466 13.357 10.836-1.041 17.27-12.44 12.7-22.502-2.06-4.538-3.767-5.752-25.674-18.265-10.09-5.763-18.922-11.021-19.626-11.683-1.124-1.057-.427-2.028 5.687-7.935 3.832-3.702 10.93-9.342 15.773-12.535 10.114-6.665 12.636-9.996 12.659-16.717.032-9.199-6.883-15.966-16.314-15.966-8.325 0-30.229 15.985-43.368 31.648l-4 4.768-50.476-29.088c-27.762-15.999-50.47-29.28-50.461-29.515.009-.235 22.734-13.504 50.499-29.488l50.483-29.062 3.979 4.742c9.307 11.087 21.243 21.147 33.198 27.977 5.08 2.902 7.216 3.644 10.487 3.644 12.038 0 19.718-12.381 14.285-23.03-1.84-3.608-2.188-3.903-12.378-10.51-8.275-5.366-21.728-18.008-20.48-19.247.469-.466 9.301-5.719 19.627-11.672 22.353-12.89 24.034-14.091 26.1-18.642 5.267-11.597-4.18-24.32-16.586-22.337-2.291.367-10.809 4.758-24.187 12.469-11.358 6.546-21.025 11.903-21.483 11.903-2.04 0-5.244-14.714-6.06-27.828-.813-13.069-2.155-16.486-7.954-20.246-6.317-4.096-16.382-2.509-20.954 3.303-3.197 4.064-3.827 7.715-3.23 18.703.665 12.234 2.834 23.672 6.481 34.174 1.466 4.224 2.746 7.959 2.843 8.3.146.513-99.589 58.687-100.615 58.687-.181 0-.329-26.255-.329-58.345V111.15l7.621-1.394c15.185-2.778 37.046-11.6 44.105-17.797 9.348-8.208 6.366-23.282-5.372-27.156-4.591-1.515-8.304-.619-19.047 4.599-8.63 4.192-22.726 9.105-26.122 9.105-.983 0-1.188-4.183-1.203-24.534-.021-27.051-.291-28.661-5.634-33.652-4.419-4.128-11.509-5.337-16.961-2.893" fill-rule="evenodd"/></svg>