<svg xmlns="http://www.w3.org/2000/svg" width="512" height="512"><path d="M233.813 43.52c0 18.192-.293 27.307-.88 27.307-1.777 0-11.466-3.59-16.527-6.124-2.863-1.433-9.277-5.048-14.253-8.033-4.976-2.984-9.642-5.655-10.369-5.934-1.002-.384-3.952 3.891-12.203 17.685-5.984 10.006-11.003 18.425-11.152 18.71-.474.902 25.571 16.007 33.622 19.499 8.31 3.604 18.961 7.003 26.856 8.57l4.906.974v50.764c0 27.919-.288 50.606-.64 50.414-4.262-2.322-86.139-49.619-86.593-50.021-.341-.302.33-3.357 1.491-6.789 4.582-13.541 5.661-21.271 6.143-43.987l.451-21.258-13.546.562c-7.45.309-17.482.563-22.292.565l-8.747.003.002 16.426c.002 18.127-1.729 31.863-3.909 31.026-.632-.242-12.551-7.004-26.486-15.026-13.935-8.021-25.631-14.279-25.992-13.905-.997 1.034-21.268 36.146-21.268 36.839 0 .334 11.524 7.258 25.609 15.387 14.086 8.129 25.798 15.085 26.028 15.457.538.87-7.183 7.818-13.237 11.912-2.582 1.745-9.398 5.754-15.147 8.908-5.749 3.155-10.453 5.944-10.453 6.198 0 .977 20.654 37.818 21.202 37.818.897 0 24.648-13.418 29.056-16.414 7.063-4.803 15.759-12.246 22.059-18.884 3.402-3.584 6.415-6.516 6.696-6.516.773 0 85.101 48.697 86.253 49.809.752.725-9.751 7.161-42.307 25.925-23.819 13.728-43.494 24.96-43.723 24.96-.229 0-4.615-4.128-9.746-9.174-5.132-5.045-12.403-11.338-16.157-13.985-5.928-4.178-27.714-16.865-31.37-18.268-.96-.368-3.876 4.208-11.622 18.238-5.688 10.302-10.341 18.944-10.341 19.205 0 .261 3.936 2.656 8.746 5.324 14.323 7.94 20.408 11.911 25.814 16.845 2.816 2.57 4.928 4.844 4.693 5.052-.235.209-12.036 7.066-26.225 15.238-14.188 8.172-25.804 15.108-25.813 15.413-.02.737 20.176 35.764 21.229 36.817.524.524 10.254-4.629 26.982-14.291 14.389-8.311 26.288-14.984 26.442-14.829.154.155.888 3.492 1.632 7.416.941 4.96 1.353 12.136 1.353 23.547v16.414l11.655.559c6.41.307 16.441.559 22.29.559h10.636l-.449-21.12c-.48-22.566-1.567-30.33-6.141-43.849-1.161-3.432-1.832-6.473-1.491-6.758.341-.286 18.86-11.026 41.153-23.868 22.294-12.842 41.782-24.08 43.307-24.975l2.773-1.626v101.505l-8.32 1.915c-10.254 2.361-18.191 5.156-27.093 9.541-8.48 4.177-30.277 17.076-29.945 17.72 2.882 5.583 22.166 36.741 22.739 36.741.441 0 5.123-2.639 10.404-5.865 5.281-3.225 11.945-7.042 14.808-8.481 5.049-2.537 14.739-6.134 16.527-6.134.587 0 .88 9.115.88 27.307v27.307h44.374V468.48c0-17.563.303-27.307.85-27.307 1.685 0 11.632 3.706 16.643 6.201 2.816 1.402 9.441 5.189 14.722 8.414 5.281 3.226 9.963 5.865 10.404 5.865.573 0 19.857-31.158 22.739-36.741.327-.634-21.345-13.439-29.945-17.693-8.905-4.405-16.842-7.208-27.093-9.568l-8.32-1.915V294.231l2.773 1.626c1.525.895 21.013 12.133 43.307 24.975 22.293 12.842 40.812 23.582 41.153 23.868.341.285-.33 3.326-1.491 6.758-4.574 13.519-5.661 21.283-6.141 43.849l-.449 21.12h10.636c5.849 0 15.88-.252 22.29-.559l11.655-.559v-16.414c0-11.411.412-18.587 1.353-23.547.744-3.924 1.494-7.277 1.668-7.452.174-.175 12.076 6.495 26.45 14.821 14.736 8.536 26.455 14.816 26.87 14.398 1.037-1.046 21.316-36.133 21.296-36.848-.01-.323-11.363-7.115-25.23-15.094-13.868-7.978-25.661-14.776-26.209-15.106-2.535-1.528 10.25-11.41 26.282-20.315 6.101-3.389 11.426-6.47 11.833-6.846.407-.377-3.968-9.184-9.723-19.572-7.73-13.954-10.792-18.762-11.722-18.406-3.638 1.396-25.439 14.095-31.348 18.26-3.754 2.647-11.025 8.94-16.157 13.985-5.131 5.046-9.517 9.174-9.746 9.174-.229 0-19.904-11.232-43.723-24.96-32.556-18.764-43.059-25.2-42.307-25.925 1.152-1.112 85.48-49.809 86.253-49.809.281 0 3.294 2.932 6.696 6.516 6.3 6.638 14.996 14.081 22.059 18.884 4.408 2.996 28.159 16.414 29.056 16.414.548 0 21.202-36.841 21.202-37.818 0-.254-4.704-3.043-10.453-6.198-5.749-3.154-12.565-7.163-15.147-8.908-6.086-4.116-13.774-11.044-13.23-11.923.233-.378 11.946-7.343 26.027-15.478 14.082-8.135 25.603-15.055 25.603-15.376 0-.68-20.291-35.805-21.27-36.82-.362-.375-11.984 5.854-25.829 13.843-13.844 7.988-25.762 14.75-26.484 15.027-2.358.905-4.074-12.145-4.072-30.963l.002-16.426-10.027-.003c-5.514-.002-15.498-.254-22.186-.56l-12.16-.556.015 16.986c.021 22.175 2.325 38.265 7.307 51.033.714 1.83.991 3.603.615 3.94-.496.444-81.889 47.487-86.657 50.085-.352.192-.64-22.468-.64-50.355v-50.704l9.6-2.269c5.28-1.248 13.788-3.977 18.908-6.064 8.065-3.287 25.83-12.976 34.39-18.755l2.739-1.849-10.703-17.864c-5.886-9.826-11.038-18.213-11.447-18.638-.438-.454-4.89 1.699-10.809 5.229-5.536 3.301-12.408 7.177-15.271 8.614-5.053 2.536-14.743 6.13-16.527 6.13-.587 0-.88-9.115-.88-27.307V16.213h-44.374V43.52" fill-rule="evenodd"/></svg>