<svg xmlns="http://www.w3.org/2000/svg" width="512" height="512"><path d="M241.493 48.665c-58.224 3.47-112.484 27.948-154.056 69.498-37.617 37.597-60.71 83.843-69.255 138.69-1.2 7.7-1.529 14.96-1.529 33.707 0 25.548.736 33.075 5.195 53.135 7.489 33.69 21.799 64.916 42.517 92.775 8.805 11.841 18.299 21.987 23.333 24.937 4.599 2.696 13.224 3.532 19.94 1.933 4.257-1.013 5.376-1.898 16.095-12.726 15.94-16.102 26.981-24.098 45.177-32.719 15.829-7.498 35.789-13.115 57.223-16.103 4.995-.696 16.46-1.13 29.867-1.13 28.586 0 46.257 2.526 68.252 9.755 25.592 8.412 43.947 19.934 64.015 40.185 12.574 12.689 14.193 13.611 23.893 13.611 9.033 0 11.677-1.278 20.14-9.733 28.634-28.611 51.709-75.281 59.972-121.297 5.536-30.833 4.485-67.831-2.802-98.675-18.293-77.417-72.79-140.666-146.43-169.944-30.861-12.271-67.136-17.95-101.547-15.899m30.72 95.122v32h-32.426v-64h32.426v32m-106.239 31.147 22.176 22.188-11.52 11.52-11.52 11.52-22.599-22.611-22.599-22.611 11.072-11.097c6.089-6.103 11.464-11.096 11.943-11.096.48 0 10.851 9.984 23.047 22.187m215.042-11.091 11.072 11.097-22.599 22.611-22.599 22.611-11.52-11.52-11.52-11.52 22.176-22.188c12.196-12.203 22.567-22.187 23.047-22.187.479 0 5.854 4.993 11.943 11.096m-82.545 103.48c-18.542 37.349-21.317 42.458-24.579 45.249-4.26 3.647-11.314 6.529-17.59 7.188-5.694.597-14.675-2.125-19.998-6.062-10.922-8.079-14.91-24.009-9.125-36.445 4.302-9.248 4.332-9.267 49.728-31.82 22.997-11.426 41.96-20.648 42.139-20.493.179.155-9.08 19.227-20.575 42.383M144.213 288v15.787h-64v-31.574h64V288m287.574 0v15.787h-64v-31.574h64V288" fill-rule="evenodd"/></svg>