<svg xmlns="http://www.w3.org/2000/svg" width="512" height="512"><path d="M233.813 49.616C150.566 57.26 75.1 110.179 39.549 185.841c-13.018 27.704-20.401 56.799-22.614 89.116-2.508 36.63 5.119 77.471 21.048 112.705 10.784 23.855 29.519 51.546 43.853 64.817 11.705 10.836 26.907 14.185 41.541 9.15 7.191-2.474 10.1-4.553 20.836-14.889 18.663-17.967 35.13-28.618 56.747-36.705 20.125-7.529 37.129-10.227 60.16-9.546 24.536.726 41.749 4.927 63.573 15.518 17.304 8.397 27.073 15.39 43.52 31.151 10.366 9.933 13.331 12.036 20.41 14.471 10.474 3.604 20.918 2.978 31.217-1.869 6.702-3.155 16.697-12.901 26.705-26.039 24.653-32.364 41.004-71.238 47.185-112.182 1.859-12.319 2.53-42.502 1.244-55.954-7.095-74.187-47.227-139.666-110.267-179.916-11.603-7.408-35.256-18.9-48.067-23.354-32.785-11.399-68.691-15.833-102.827-12.699m30.829 65.176c1.702 1.1 4.006 3.466 5.12 5.257 1.978 3.182 2.025 3.713 2.025 22.884 0 10.795-.294 20.676-.653 21.958-.903 3.228-5.593 8.358-8.907 9.743-6.275 2.622-13.388.926-17.961-4.283-1.512-1.721-3.042-4.178-3.4-5.46-.359-1.282-.653-11.163-.653-21.958 0-19.046.059-19.72 1.98-22.811 4.971-7.995 14.735-10.313 22.449-5.33m-114.152 46.19c3.579 1.813 27.261 25.559 29.094 29.173 1.803 3.557 1.88 11.091.147 14.443-4.451 8.608-15.519 11.329-23.522 5.782-5.332-3.695-26.419-25.652-27.792-28.939-5.843-13.984 8.539-27.315 22.073-20.459m226.646.379c4.211 2.367 7.038 6.801 7.517 11.792.701 7.288-.692 9.582-14.141 23.294-14.332 14.613-18.773 17.492-25.543 16.564-10.466-1.435-16.726-12.538-12.616-22.375 1.249-2.988 19.185-22.004 25.471-27.005 6.476-5.151 12.852-5.9 19.312-2.27m-55.032 55.745c1.614.674 3.496 2.361 4.239 3.798 2.973 5.748 2.937 5.821-22.929 47.123-14.04 22.419-25.996 40.575-28.373 43.086-6.936 7.327-18.322 10.432-28.065 7.653-10.732-3.061-19.263-11.664-21.72-21.906-2.22-9.255.612-20.413 6.953-27.396 2.391-2.633 70.232-46.183 80.952-51.966 3.564-1.923 5.116-1.991 8.943-.392m-188.4 56.015c5.812 2.196 9.9 8.34 9.9 14.879 0 4.839-1.505 8.301-5.074 11.679-4.005 3.789-6.052 4.108-26.4 4.108-20.009 0-23.007-.452-27.099-4.086-4.32-3.836-5.934-12.071-3.505-17.884 1.768-4.231 3.587-6.134 7.647-7.999 2.989-1.372 5.82-1.57 22.771-1.586 11.651-.011 20.315.343 21.76.889m289.123.697c4.06 1.865 5.879 3.768 7.647 7.999 2.313 5.536 1.149 12.735-2.773 17.152-.804.905-2.997 2.351-4.874 3.213-2.989 1.372-5.82 1.57-22.771 1.586-20.552.02-22.571-.291-26.586-4.089-3.569-3.378-5.074-6.84-5.074-11.679 0-6.395 4.033-12.605 9.631-14.83 1.186-.472 10.847-.864 21.76-.884 17.285-.031 20.034.152 23.04 1.532" fill-rule="evenodd"/></svg>