<svg xmlns="http://www.w3.org/2000/svg" width="512" height="512"><path d="M87.893 48.746c-13.289 1.833-28.731 13.219-34.821 25.676-5.557 11.365-5.256.939-5.256 181.578 0 139.62.184 165.136 1.227 170.058 3.819 18.022 18.941 33.091 37.059 36.932 8.4 1.781 331.396 1.781 339.796 0 18.136-3.844 33.248-18.956 37.092-37.092 1.781-8.4 1.781-331.396 0-339.796-3.553-16.763-16.977-31.133-34.078-36.479-3.949-1.234-20.628-1.382-169.925-1.506-93.813-.077-167.95.195-171.094.629m335.181 33.083c3.911 1.996 5.706 3.935 7.4 7.988 1.166 2.79 1.313 21.391 1.313 166.183s-.147 163.393-1.313 166.183c-1.694 4.053-3.489 5.992-7.4 7.988-3.074 1.569-7.92 1.616-167.074 1.616-159.154 0-164-.047-167.074-1.616-3.911-1.996-5.706-3.935-7.4-7.988-1.166-2.79-1.313-21.434-1.313-166.616 0-158.729.047-163.567 1.616-166.641 1.809-3.543 3.582-5.304 7.344-7.292 2.311-1.22 18.564-1.356 166.648-1.387 159.366-.033 164.178.013 167.253 1.582" fill-rule="evenodd"/></svg>