<svg xmlns="http://www.w3.org/2000/svg" width="512" height="512"><path d="M248.175 34.156c-5.964 3.151-3.128-4.501-36.595 98.744l-19.153 59.087-81.864.006c-81.672.007-81.873.011-85.603 1.817-9.441 4.57-11.73 18.164-4.251 25.243 1.517 1.435 31.75 22.467 67.184 46.739 35.435 24.271 64.565 44.263 64.733 44.426.168.163-11.111 34.014-25.065 75.226-26.537 78.374-26.917 79.725-24.025 85.317 3.19 6.169 11.054 10.338 17.295 9.167 3.445-.646 3.795-.892 80.556-56.578 29.802-21.62 54.378-39.308 54.613-39.307.235.002 29.775 21.276 65.645 47.277 46.523 33.722 66.215 47.525 68.694 48.149 5.901 1.485 11.273-.362 15.695-5.399 3.411-3.885 4.781-8.823 3.625-13.07-.477-1.753-12.058-36.327-25.734-76.831-13.677-40.505-24.727-73.781-24.556-73.946.171-.166 29.303-20.161 64.738-44.433 35.434-24.273 65.53-45.141 66.878-46.374 7.203-6.588 6.04-19.193-2.279-24.699l-3.461-2.29-82.836-.234-82.836-.234-24.584-75.653c-13.522-41.609-25.362-76.745-26.312-78.079-3.948-5.544-13.952-7.531-20.502-4.071m47.459 183.887c1.146 1.501 3.545 3.456 5.331 4.344 3.07 1.524 6.631 1.636 64.736 2.04l61.487.426-47.358 32.427c-26.047 17.835-48.685 33.573-50.308 34.973-3.576 3.088-5.258 6.845-5.247 11.72.006 2.496 6.084 21.611 19.188 60.342 10.548 31.178 19.088 56.76 18.978 56.848-.111.088-19.209-13.644-42.441-30.517-55.363-40.208-57.439-41.645-60.995-42.222l-3.005-.487.035-123.835.035-123.835 18.741 57.522c12.392 38.036 19.446 58.448 20.823 60.254" fill-rule="evenodd"/></svg>