<svg xmlns="http://www.w3.org/2000/svg" width="512" height="512"><path d="M174.419 18.23c-4.695 2.216-9.813 6.828-11.765 10.601-.668 1.292-1.635 4.621-2.148 7.396-1.469 7.95-1.268 433.469.208 440.514 1.785 8.515 7.731 15.293 15.84 18.057 1.892.645 10.199.986 23.893.98 20.31-.008 21.132-.074 25.26-2.031 5.189-2.46 9.979-7.313 12.308-12.467 1.729-3.829 1.734-4.479 1.734-225.28s-.005-221.451-1.734-225.28c-2.111-4.673-6.862-9.746-11.455-12.232-3.214-1.74-4.709-1.862-25.6-2.08-21.9-.23-22.243-.206-26.541 1.822M208.213 256v208.213H192V47.787h16.213V256M398.507 98.197c-5.517 2.491-10.798 8.007-12.808 13.381-1.677 4.479-1.699 6.917-1.699 184.529 0 177.611.022 180.049 1.699 184.529 1.829 4.891 6.883 10.445 11.954 13.138 2.64 1.402 5.496 1.617 24.579 1.853 24.343.301 27.098-.149 33.276-5.438 1.915-1.639 4.561-5.178 5.88-7.864l2.399-4.885.26-178.773c.196-134.405.012-179.929-.741-183.43-1.674-7.787-6.486-13.815-13.599-17.035-3.541-1.603-5.534-1.738-25.6-1.738-20.043 0-22.063.137-25.6 1.733m33.28 197.91v168.106h-15.36V128h15.36v168.107m-142.513-87.096c-6.355 1.933-12.43 7.38-15.289 13.709-1.718 3.804-1.734 5.006-1.745 129.28l-.01 125.44 2.023 4.267c2.46 5.189 7.313 9.979 12.467 12.308 3.522 1.59 5.579 1.736 24.833 1.753 13.693.012 22.001-.324 23.893-.968 4.287-1.458 9.777-5.63 12.413-9.434 4.61-6.653 4.531-4.334 4.55-132.996.018-120.395-.109-125.825-3.063-131.539-1.96-3.79-7.081-8.393-11.765-10.574-4.225-1.967-4.974-2.025-25.261-1.962-11.499.036-21.869.358-23.046.716M320 352v112.213h-16.213V239.787H320V352M67.118 304.642c-6.957 1.234-13.741 6.658-17.074 13.651-1.83 3.84-1.831 3.856-1.831 81.494v77.653l2.399 4.885c1.319 2.686 3.965 6.225 5.88 7.864 6.178 5.289 8.933 5.739 33.276 5.438 24.545-.304 25.287-.483 31.967-7.729 6.633-7.197 6.329-2.712 6.069-89.452l-.231-77.166-1.925-3.604c-2.621-4.904-7.368-9.476-12.078-11.633-3.567-1.633-5.63-1.809-23.117-1.964-10.56-.094-21.061.16-23.335.563m28.455 95.571v64h-15.36v-128h15.36v64" fill-rule="evenodd"/></svg>