<svg xmlns="http://www.w3.org/2000/svg" width="512" height="512"><path d="m232.106 64.64-.001 16.853-10.879 1.947c-23.448 4.197-47.742 13.664-67.489 26.3l-6.263 4.008-13.799-13.78-13.799-13.78-16.846 16.862-16.847 16.862 12.375 12.353c6.807 6.794 12.375 12.635 12.375 12.979 0 .344-3.389 5.149-7.532 10.678-9.696 12.938-13.71 19.46-20.258 32.912-32.671 67.123-22.75 148.168 25.162 205.538 27.119 32.472 63.893 55.237 104.514 64.699 27.378 6.377 58.984 6.377 86.362 0 59.433-13.843 109.847-56.178 133.51-112.115 27.447-64.88 17.433-138.294-26.504-194.325-28.215-35.981-71.531-61.667-117.501-69.68l-8.366-1.458-.231-16.853-.232-16.853h-47.75l-.001 16.853m40.11 116.907.004 45.013 5.756 2.943c3.64 1.861 7.98 5.156 11.801 8.96 26.359 26.239 13.599 71.22-22.738 80.159-29.72 7.311-58.748-15.822-58.813-46.869-.036-17.293 10.393-34.373 25.798-42.25l5.756-2.943.004-45.013.003-45.014h32.426l.003 45.014" fill-rule="evenodd"/></svg>