<svg xmlns="http://www.w3.org/2000/svg" width="512" height="512"><path d="M251.133 48.673c-6.887 1.378-12.523 5.614-16.052 12.064-2.153 3.936-2.531 5.655-2.829 12.863-.34 8.231-.367 8.32-2.493 8.32-4.228 0-23.854 4.487-33.492 7.657-14.897 4.899-34.121 14.098-45.082 21.573l-3.694 2.519-7.399-7.208c-9.117-8.881-12.593-10.446-21.887-9.849-5.137.329-7.195.902-10.433 2.904-7.587 4.691-11.58 12.087-11.517 21.334.044 6.573 2.792 11.956 9.504 18.616l5.837 5.793-5.382 6.667c-44.731 55.405-54.691 132.164-25.68 197.909 17.772 40.276 51.214 75.092 90.559 94.282 27.737 13.528 54.014 19.591 84.907 19.591 18.116 0 29.545-1.305 45.227-5.163 35.961-8.849 66.241-26.281 92.653-53.34 61.305-62.809 71.62-159.626 25.012-234.773-14.777-23.826-37.318-46.354-61.202-61.168-21.375-13.257-44.401-22.059-69.07-26.404l-8.3-1.461-.478-8.073c-.399-6.738-.885-8.821-2.943-12.602-5.052-9.281-15.405-14.124-25.766-12.051m16.814 63.996c38.317 2.923 73.305 18.876 100.358 45.759 25.407 25.248 40.827 55.926 46.043 91.599 1.933 13.223 1.285 39.976-1.27 52.43-4.881 23.794-15.106 46.678-29.38 65.756-6.56 8.768-22.93 25.138-31.698 31.698-28.098 21.022-60.785 31.876-96 31.876s-67.902-10.854-96-31.876c-8.768-6.56-25.138-22.93-31.698-31.698-14.414-19.265-24.625-42.129-29.344-65.706-2.66-13.291-3.294-38.827-1.302-52.48 2.717-18.631 7.268-33.281 15.315-49.304 25.027-49.831 74.939-83.814 129.245-87.996 13.202-1.016 13.16-1.016 25.731-.058m-19.842 25.63c-1.762.93-4.258 3.284-5.547 5.232l-2.345 3.542-.245 39.815-.245 39.815-5.297 2.489c-3.541 1.663-7.457 4.61-11.808 8.888-10.138 9.967-14.414 20.097-14.395 34.099.019 13.279 4.43 24.013 13.674 33.274 7.131 7.145 13.164 10.668 22.164 12.944 30.646 7.75 59.726-14.944 59.726-46.61 0-13.613-4.372-23.843-14.405-33.707-4.351-4.278-8.267-7.225-11.808-8.888l-5.297-2.489-.245-39.815-.245-39.815-2.348-3.546c-4.414-6.668-14.108-9.043-21.334-5.228m13.671 119.022c6.469 2.703 9.828 7.672 9.828 14.539 0 15.892-20.159 21.838-28.958 8.541-3.975-6.007-2.898-14.929 2.399-19.875 4.612-4.306 11.114-5.552 16.731-3.205" fill-rule="evenodd"/></svg>