<svg xmlns="http://www.w3.org/2000/svg" width="512" height="512"><path d="M241.92 48.669c-64.561 4.115-123.152 38.433-159.962 93.693-26.292 39.469-38.649 92.321-32.455 138.811 6.326 47.479 26.376 88.354 59.673 121.651 33.526 33.526 73.443 53.027 122.504 59.846 4.224.587 15.168 1.068 24.32 1.068 9.152 0 20.096-.481 24.32-1.068 49.001-6.811 88.952-26.339 122.482-59.868 33.529-33.53 53.057-73.481 59.868-122.482 1.376-9.9 1.376-38.74 0-48.64-6.778-48.766-26.328-88.904-59.45-122.057-11.819-11.831-20.651-19.077-33.662-27.617-37.561-24.655-81.952-36.249-127.638-33.337m78.689 129.556c5.541 2.506 11.392 8.652 13.541 14.226 1.557 4.036 1.637 7.144 1.637 63.976v59.733l-2.012 4.449c-2.506 5.541-8.652 11.392-14.226 13.541-4.035 1.557-7.138 1.637-63.549 1.637s-59.514-.08-63.549-1.637c-5.574-2.149-11.72-8-14.226-13.541l-2.012-4.449v-59.733c0-56.705.083-59.947 1.627-63.95 2.918-7.566 10.164-13.847 18.2-15.776 1.783-.428 29.224-.708 61.667-.629l58.453.141 4.449 2.012" fill-rule="evenodd"/></svg>