<svg xmlns="http://www.w3.org/2000/svg" viewBox="0 0 512 512"><path d="M114.347 33.638c-21.373 4.78-39.122 18.15-48.234 36.335-7.891 15.749-45.749 99.51-47.512 105.121-1.648 5.242-1.958 8.081-1.939 17.759.018 9.759.326 12.434 2.013 17.494 4.883 14.639 15.023 28.202 26.765 35.798l2.347 1.518V448h-9.544c-7.982 0-10.156.296-13.283 1.81-6.835 3.309-10.43 12.265-7.945 19.794 1.472 4.459 6.651 8.743 11.941 9.877 6.26 1.343 447.828 1.343 454.088 0 5.29-1.134 10.469-5.418 11.941-9.877 2.485-7.529-1.11-16.485-7.945-19.794-3.127-1.514-5.301-1.81-13.283-1.81h-9.544l.015-100.053.014-100.054 6.67-5.213c10.516-8.219 18.427-19.757 22.461-32.76 2.842-9.162 2.861-25.805.039-34.784-1.754-5.582-39.675-89.491-47.526-105.163-6.685-13.345-18.123-24.233-32.461-30.901-14.564-6.773-.488-6.199-155.718-6.349-107.022-.104-139.738.105-143.36.915m276.11 31.284c11.32 2.061 21.818 9.644 26.677 19.269 7.838 15.526 45.583 99.317 46.349 102.892 2.662 12.412-5.093 27.376-17.68 34.116-15.864 8.493-36.198 5.541-49.193-7.143-6.388-6.235-9.73-13.226-10.764-22.516-1.063-9.555-2.99-12.897-9.27-16.077-3.123-1.581-9.257-1.809-12.787-.475-2.931 1.107-6.834 4.699-8.434 7.762-.652 1.248-1.562 5.58-2.022 9.628-1.051 9.252-4.245 15.583-11.215 22.232-6.295 6.004-13.695 9.524-22.821 10.854-13.376 1.95-25.311-1.814-35.257-11.117-7.131-6.671-10.726-13.506-11.754-22.347-.904-7.773-1.708-9.937-4.879-13.133-6.374-6.423-16.44-6.423-22.814 0-3.219 3.244-4.007 5.417-4.846 13.36-.87 8.23-3.671 14.553-8.945 20.191-16.537 17.679-44.367 18.153-61.394 1.043-6.245-6.274-9.736-13.358-10.797-21.911-.914-7.36-2.012-9.992-5.575-13.362-3.136-2.968-6.265-4.108-11.271-4.108-7.957 0-15.472 7.504-15.472 15.45 0 19.059-19.771 36.603-41.249 36.603-22.036 0-40.639-19.878-36.53-39.035.772-3.601 38.362-87.079 46.228-102.661 4.88-9.669 15.189-17.37 26.013-19.434 6.26-1.194 263.167-1.271 269.702-.081M147.61 236.914c8.066 8.249 19.421 14.975 30.883 18.293 8.608 2.493 25.903 3.179 35.296 1.401 14.222-2.692 26.404-8.957 37.074-19.065l5.551-5.26 6.143 5.835c7.652 7.269 17.053 12.848 27.576 16.366 7.767 2.596 8.698 2.711 22.187 2.753 10.923.033 15.301-.294 19.523-1.461 13.213-3.65 22.027-8.468 31.364-17.144l6.295-5.848 5.329 4.935c14.028 12.992 31.411 19.988 49.666 19.988h7.29V448h-15.296l-.252-71.467c-.252-71.295-.257-71.48-2.151-77.066-3.598-10.616-11.222-18.901-22.16-24.082l-5.795-2.745-39.137-.254c-26.365-.171-40.628.056-43.707.695-11.396 2.366-21.981 10.897-27.51 22.172l-3.139 6.4-.236 73.174-.236 73.173H80.213V257.941l10.027-.45c18.678-.838 35.352-8.381 48.387-21.889 1.855-1.922 3.583-3.49 3.84-3.483.256.007 2.571 2.165 5.143 4.795m-21.533 36.226c-12.503 2.946-24.174 14.01-28.164 26.696-1.888 6.003-1.913 6.726-1.913 54.297 0 26.518.294 49.263.652 50.545.834 2.979 5.234 8.002 8.648 9.872 2.414 1.322 8.385 1.471 67.881 1.689 45.128.165 66.632-.051 69.768-.702 5.402-1.122 9.291-4.141 11.447-8.888 1.46-3.214 1.568-6.732 1.585-51.681.017-44.275-.11-48.697-1.554-53.903-3.612-13.029-14.855-24.148-27.833-27.527-4.315-1.124-12.08-1.312-51.2-1.239-25.363.047-47.556.426-49.317.841m92.762 31.854c1.59.665 3.305 1.983 3.812 2.931.62 1.158.922 13.9.922 38.899V384H128v-36.653c0-25.485.295-37.3.967-38.775 2.131-4.678 2.782-4.745 46.634-4.766 32.894-.016 40.881.204 43.238 1.188m160.434.114c1.531.726 3.221 2.28 3.755 3.453.701 1.538.972 21.265.972 70.786V448h-80.252l.233-69.478.232-69.478 2.026-2.157c1.115-1.186 2.843-2.316 3.84-2.512.998-.196 16.348-.408 34.112-.472 27.556-.099 32.706.078 35.082 1.205" fill-rule="evenodd"/></svg>