<svg xmlns="http://www.w3.org/2000/svg" viewBox="0 0 512 512"><path d="M111.36 33.821c-6.747 1.435-16.988 5.618-24.101 9.844-6.801 4.04-17.197 14.576-21.328 21.615-4.09 6.969-46.424 103.882-48.505 111.039-1.865 6.414-1.301 17.522 1.272 25.068 5.388 15.801 21.73 30.554 41.17 37.165 24.781 8.429 53.723 2.511 74.012-15.134 5.212-4.532 9.123-4.533 14.545-.005 9.232 7.71 18.285 12.617 29.669 16.084 6.701 2.041 8.925 2.292 20.733 2.344 11.305.05 14.218-.223 20.053-1.883 9.338-2.655 20.995-8.563 28.139-14.261 9.097-7.255 10.597-7.253 19.669.034 7.038 5.654 18.629 11.508 28.139 14.213 9.877 2.81 29.391 2.813 39.163.008 11.751-3.374 20.109-7.819 32.43-17.246 4.041-3.092 6.193-3.19 9.987-.458 22.432 16.154 35.654 20.816 56.233 19.827 12.074-.58 17.624-2.024 28.587-7.439 12.656-6.252 25.024-17.75 29.798-27.703 4.653-9.699 6.049-22.234 3.452-30.98-1.532-5.158-44.921-104.986-47.546-109.393-6.696-11.238-18.091-21.395-30.506-27.191-15.168-7.082-.181-6.453-158.292-6.646-121.895-.149-141.602-.002-146.773 1.098m22.613 229.029c-22.076 11.497-49.232 14.622-73.529 8.462-8.276-2.098-10.654-2.1-11.774-.008-.592 1.107-.883 30.155-.883 88.149 0 66.139-.241 86.74-1.024 87.523-.655.654-3.983 1.024-9.219 1.024-7.025 0-8.799.303-12.416 2.119-2.38 1.194-5.115 3.439-6.269 5.146-2.433 3.596-3.262 10.043-1.844 14.339 1.502 4.551 6.678 8.777 12.128 9.903 3.281.679 67.749.88 229.417.718L483.413 480l3.578-1.912c1.967-1.052 4.655-3.326 5.973-5.054 2.071-2.715 2.396-3.912 2.396-8.817 0-4.729-.382-6.252-2.29-9.136-3.559-5.377-7.96-7.081-18.289-7.081-5.489 0-8.884-.364-9.544-1.024-.783-.783-1.024-21.453-1.024-87.832 0-77.779-.139-86.948-1.341-88.15-1.712-1.712-2.821-1.674-10.605.365-8.774 2.298-23.778 3.707-32 3.007-14.688-1.252-29.982-5.376-41.579-11.212-3.156-1.588-6.847-2.887-8.201-2.887s-5.683 1.48-9.621 3.289c-16.834 7.736-29.352 10.585-46.839 10.662-18.05.079-31.606-2.987-47.728-10.796-4.057-1.966-8.335-3.446-9.813-3.396-1.441.049-5.691 1.614-9.446 3.478-14.797 7.346-29.049 10.628-46.507 10.71-18.147.085-31.443-2.932-48.541-11.015-4.404-2.082-8.82-3.762-9.813-3.734-.993.029-4.686 1.552-8.206 3.385m81.21 41.815c1.756.488 4.285 2.185 5.76 3.865l2.63 2.996v35.213c0 26.25-.26 35.474-1.024 36.237-.77.771-12.255 1.024-46.445 1.024-40.155 0-45.578-.155-46.763-1.341-1.174-1.174-1.341-5.54-1.341-35.014 0-26.78.242-34.253 1.183-36.506 1.216-2.909 4.755-5.97 7.777-6.727 3.411-.854 75.072-.622 78.223.253m163.58 1.595c5.429 3.872 5.237 1.187 5.237 73.385 0 58.565-.145 65.818-1.341 67.014-1.178 1.178-5.861 1.341-38.546 1.341-33.422 0-37.364-.144-38.766-1.412-1.485-1.345-1.56-4.507-1.556-65.92.003-41.189.32-65.64.875-67.64 1.196-4.305 3.21-6.527 7.227-7.977 2.775-1 9.084-1.194 33.707-1.034l30.293.196 2.87 2.047" fill-rule="evenodd"/></svg>