<svg xmlns="http://www.w3.org/2000/svg" width="512" height="512"><path d="M245.644 28.831c-5.077 2.638-9.457 8.189-11.009 13.952-.581 2.159-.816 13.416-.651 31.281.247 26.899.324 28.037 2.14 31.432 6.929 12.953 23.373 16.281 34.042 6.89 7.583-6.675 7.559-6.556 7.85-38.322.165-17.865-.07-29.122-.651-31.281-1.552-5.763-5.932-11.314-11.009-13.952-3.69-1.917-5.698-2.378-10.356-2.378-4.658 0-6.666.461-10.356 2.378M102.322 88.366c-5.752 1.772-11.393 7.116-13.524 12.814-2.125 5.677-2.219 9.777-.353 15.361 1.216 3.64 4.054 6.877 21.099 24.065 14.187 14.306 20.881 20.451 23.936 21.974 11.25 5.606 25.976-.48 29.924-12.366 1.991-5.992 1.375-13.22-1.547-18.161-1.179-1.994-10.911-12.322-21.627-22.95-18.079-17.932-19.817-19.423-24.118-20.694-5.552-1.64-8.575-1.65-13.79-.043m293.198.097c-3.801 1.163-6.395 3.416-23.75 20.634-10.716 10.631-20.448 20.962-21.627 22.956-1.352 2.285-2.313 5.477-2.598 8.629-1.223 13.485 8.578 24.011 22.359 24.011 7.826 0 10.978-2.332 32.552-24.087 17.045-17.188 19.883-20.425 21.099-24.065 1.866-5.584 1.772-9.684-.353-15.361-2.201-5.884-7.777-11.051-13.882-12.864-5.283-1.569-8.291-1.537-13.8.147m-158.011 67.254c-30.246 5.488-57.798 25.94-71.871 53.35-7.986 15.553-11.469 29.808-11.469 46.933 0 37.909 21.056 72.829 54.336 90.11 15.42 8.007 30.544 11.735 47.495 11.706 28.517-.048 53.902-11.023 73.829-31.921 18.37-19.266 27.942-43.17 27.987-69.895.029-16.951-3.699-32.075-11.706-47.495-14.123-27.199-41.829-47.49-72.088-52.797-8.732-1.532-28.048-1.527-36.513.009M42.95 234.632c-4.84 1.153-10.557 5.148-13.097 9.153-7.077 11.16-3.69 24.96 7.694 31.343l4.693 2.632h29.867c29.173 0 29.948-.044 33.389-1.884 4.574-2.447 9.99-8.644 11.26-12.885 2.504-8.355.68-15.837-5.378-22.057-6.655-6.834-8.367-7.138-39.64-7.033-14.346.048-27.301.377-28.788.731m365.797.822c-5.633 1.967-11.913 8.245-13.48 13.475-1.302 4.345-1.311 9.766-.023 14.062 1.27 4.241 6.686 10.438 11.26 12.885 3.441 1.84 4.216 1.884 33.389 1.884h29.867l4.693-2.632c5.593-3.136 9.682-8.65 11.011-14.847 1.947-9.077-2.568-18.675-11.011-23.409l-4.693-2.632-28.16-.212c-25.9-.196-28.537-.081-32.853 1.426M133.973 349.082c-4.573 2.069-40.667 37.465-44.091 43.238-2.898 4.886-3.544 12.165-1.601 18.017 4.15 12.492 20.106 18.479 31.399 11.781 1.995-1.183 12.15-10.724 22.568-21.201 20.391-20.508 22.514-23.451 22.575-31.289.07-9.054-4.578-16.627-12.456-20.296-5.577-2.597-12.985-2.698-18.394-.25m229.541-.978c-12.199 3.711-18.843 16.319-14.918 28.313 1.359 4.152 3.368 6.478 20.801 24.08 10.613 10.715 20.928 20.448 22.923 21.627 11.307 6.687 27.251.701 31.399-11.787 1.941-5.844 1.296-13.128-1.595-18.017-1.179-1.995-10.912-12.322-21.627-22.951-18.08-17.931-19.818-19.422-24.119-20.693-4.903-1.449-9.334-1.646-12.864-.572m-116.047 47.91c-4.701 2.125-8.93 6.063-11.382 10.599-1.791 3.314-1.845 4.287-1.845 33.28v29.867l2.632 4.693a21.765 21.765 0 0 0 38.256 0l2.632-4.693v-29.867c0-28.993-.054-29.966-1.845-33.28-4.085-7.556-11.801-12.336-19.915-12.336-2.893 0-6.166.667-8.533 1.737" fill-rule="evenodd"/></svg>