<svg xmlns="http://www.w3.org/2000/svg" width="512" height="512"><path d="M233.813 72.107v45.653h44.374V26.453h-44.374v45.654M92.793 93.66l-15.135 15.153 32.644 32.636 32.644 32.636 15.565-15.582 15.565-15.582-32.216-32.207C124.142 93 109.259 78.507 108.787 78.507c-.472 0-7.669 6.819-15.994 15.153m277.334 17.066-32.211 32.22 15.581 15.565 15.582 15.565 32.636-32.645 32.636-32.644-15.157-15.14c-8.337-8.327-15.54-15.14-16.007-15.14-.467 0-15.344 14.499-33.06 32.219m-132.618 44.991c-30.246 5.488-57.798 25.94-71.871 53.35-7.986 15.553-11.469 29.808-11.469 46.933 0 37.909 21.056 72.829 54.336 90.11 15.42 8.007 30.544 11.735 47.495 11.706 28.517-.048 53.902-11.023 73.829-31.921 18.37-19.266 27.942-43.17 27.987-69.895.029-16.951-3.699-32.075-11.706-47.495-14.123-27.199-41.829-47.49-72.088-52.797-8.732-1.532-28.048-1.527-36.513.009M25.984 234.896c-.228.596-.312 10.484-.186 21.973l.229 20.891 45.866.221 45.867.22v-44.388H72.08c-36.12 0-45.767.227-46.096 1.083M394.24 256v22.201l45.867-.22 45.866-.221v-43.52l-45.866-.221-45.867-.22V256M110.285 370.569l-32.636 32.644 15.582 15.565 15.582 15.564 32.636-32.644 32.636-32.644-15.582-15.565-15.582-15.565-32.636 32.645m243.204-17.072-15.565 15.582 32.645 32.636 32.644 32.636 15.565-15.582 15.564-15.582-32.644-32.636-32.644-32.636-15.565 15.582m-119.47 86.61.221 45.866h43.52l.221-45.866.22-45.867h-44.402l.22 45.867" fill-rule="evenodd"/></svg>