<svg xmlns="http://www.w3.org/2000/svg" width="512" height="512"><path d="m292.262 36.698-11.074 11.098 48.203 48.209 48.203 48.208H80.213v31.574h297.381l-48.207 48.212-48.207 48.213 11.304 11.304 11.305 11.305 67.412-67.409 67.412-67.408-67.198-67.202C334.456 55.841 304.019 25.6 303.776 25.6c-.242 0-5.424 4.994-11.514 11.098M140.585 284.802l-67.198 67.202 67.412 67.408 67.412 67.409 11.305-11.305 11.304-11.304-48.207-48.213-48.207-48.212h297.381v-31.574H134.406l48.203-48.208 48.203-48.209-11.074-11.098c-6.09-6.104-11.272-11.098-11.514-11.098-.243 0-30.68 30.241-67.639 67.202" fill-rule="evenodd"/></svg>