<svg xmlns="http://www.w3.org/2000/svg" width="512" height="512"><path d="M152.579 81.955c-1.735.916-4.231 3.077-5.547 4.802l-2.392 3.137-.221 143.834-.22 143.835-43.726-43.67c-24.05-24.018-44.807-44.074-46.129-44.568-3.441-1.287-10.504-1.108-13.3.338-3.242 1.677-7.626 6.809-8.25 9.659-.28 1.282-.636 2.754-.789 3.27-.154.516.106 2.82.578 5.12.837 4.079 2.277 5.604 59.017 62.481 32.347 32.424 59.565 59.03 61.326 59.946 4.069 2.118 10.079 2.118 14.148 0 1.761-.916 28.979-27.522 61.326-59.946 56.74-56.877 58.18-58.402 59.017-62.481.472-2.3.732-4.604.578-5.12-.153-.516-.509-1.988-.789-3.27-.624-2.85-5.008-7.982-8.25-9.659-2.796-1.446-9.859-1.625-13.3-.338-1.322.494-22.083 20.553-46.136 44.576l-43.733 43.677V234.835c0-138.386-.05-142.84-1.616-145.909-.889-1.741-2.329-3.792-3.2-4.556-4.973-4.365-12.763-5.388-18.392-2.415m192.168-.055c-1.643.886-29.159 27.845-61.147 59.909-56.27 56.404-58.187 58.43-58.996 62.382-.849 4.142-.368 8.156 1.363 11.392 1.469 2.745 6.758 7.054 9.355 7.623 1.282.28 2.754.636 3.27.789.516.154 2.82-.107 5.12-.58 4.059-.834 5.473-2.147 48.341-44.926l44.16-44.067v142.936c0 137.589.06 143.046 1.583 145.887 4.978 9.281 17.176 11.406 25.175 4.385.871-.764 2.311-2.815 3.2-4.556 1.566-3.069 1.616-7.523 1.616-145.909V134.422l44.16 44.067c42.511 42.422 44.312 44.099 48.244 44.906 4.142.85 8.155.37 11.392-1.362 2.745-1.469 7.054-6.758 7.623-9.355.28-1.282.636-2.754.789-3.27.154-.516-.106-2.82-.578-5.12-.837-4.079-2.277-5.604-59.017-62.481-32.347-32.424-59.565-59.03-61.326-59.946-4.045-2.105-10.386-2.087-14.327.039" fill-rule="evenodd"/></svg>