<svg xmlns="http://www.w3.org/2000/svg" width="512" height="512"><path d="M229.973 62.69c-45.75 6.181-87.788 28.074-118.358 61.641-7.377 8.101-18.955 22.377-18.503 22.816 1.502 1.46 24.336 19.23 24.724 19.24.276.007 3.044-3.195 6.151-7.115 13.677-17.259 25.027-28.034 40.28-38.24 64.073-42.874 148.105-35.814 203.725 17.115 13.805 13.137 23.993 26.767 32.629 43.65 11.293 22.077 16.564 42.69 17.875 69.894l.47 9.771-4.466-4.224c-2.456-2.324-8.919-8.545-14.362-13.825-5.443-5.28-10.245-9.554-10.67-9.498-1.056.139-21.7 21.797-21.609 22.669.04.383 15.492 15.387 34.338 33.343l34.266 32.647 33.282-33.281 33.281-33.282-11.074-11.099c-6.091-6.104-11.459-11.099-11.931-11.099-.471 0-7.292 6.428-15.159 14.284l-14.302 14.284v-9.197c0-34.323-12.065-74.147-31.334-103.424-30.265-45.987-77.457-76.707-132.506-86.256-11.029-1.914-45.003-2.401-56.747-.814M42.183 222.777 8.976 255.992l11.073 11.097c6.09 6.104 11.458 11.098 11.929 11.098.471 0 7.04-6.175 14.597-13.722l13.74-13.721.546 12.009c2.921 64.211 34.23 120.19 87.057 155.653 17.647 11.847 44.239 23.218 64.989 27.789 28.975 6.384 59.414 6.219 87.893-.476 35.218-8.279 70.863-28.403 95.158-53.722 6.724-7.007 22.175-25.232 22.175-26.155 0-.324-13.442-11.426-22.692-18.742-1.862-1.472-1.941-1.409-8.464 6.7-9.171 11.403-16.626 19.167-25.59 26.653-49.725 41.525-118.267 50.204-176.089 22.299-39.89-19.251-69.225-52.249-83.656-94.1-5.602-16.246-8.997-36.602-8.467-50.759l.265-7.066 14.22 13.68c7.82 7.524 14.54 13.634 14.933 13.578 1.024-.147 21.636-21.835 21.544-22.669-.069-.634-43.227-42.123-61.242-58.875l-7.505-6.979-33.207 33.215" fill-rule="evenodd"/></svg>