<svg xmlns="http://www.w3.org/2000/svg" width="512" height="512"><path d="M241.493 48.673c-39.799 2.563-78.317 17.074-111.786 42.114-10.589 7.922-31.248 28.596-39.155 39.184-21.846 29.252-35.222 61.365-40.767 97.869-2.061 13.574-2.061 42.746 0 56.32 5.546 36.511 18.94 68.661 40.773 97.869 8.04 10.755 28.658 31.373 39.413 39.413 29.208 21.833 61.358 35.227 97.869 40.773 13.574 2.061 42.746 2.061 56.32 0 36.526-5.548 68.754-18.978 97.869-40.785 10.755-8.056 31.345-28.646 39.401-39.401 21.807-29.115 35.237-61.343 40.785-97.869 2.061-13.574 2.061-42.746 0-56.32-6.752-44.453-25.412-83.157-55.294-114.69-36.541-38.56-84.833-61.088-138.36-64.543-13.196-.852-12.782-.853-27.068.066m42.667 33.635c35.838 6.075 67.575 21.95 93.579 46.81 27.61 26.395 45.561 60.682 52.093 99.5 2.091 12.43 2.073 42.896-.033 55.115-9.878 57.299-44.492 104.256-95.788 129.946-48.421 24.25-107.601 24.25-156.022 0-51.464-25.774-86.214-73.029-95.815-130.297-2.121-12.648-2.121-42.116 0-54.764 10.541-62.873 51.565-113.601 110.675-136.854 13.047-5.132 28.757-8.823 46.938-11.027 6.667-.809 36.585.251 44.373 1.571m-43.929 62.856c-13.09 1.907-28.364 6.998-39.242 13.081-12.431 6.952-29.598 22.099-31.751 28.016-3.04 8.355.916 17.126 9.306 20.632 7.054 2.947 11.718 1.185 21.704-8.2 12.001-11.277 23.851-17.574 39.112-20.783 8.802-1.851 24.406-1.894 32.634-.091 27.684 6.069 49.533 25.115 59.014 51.443 1.323 3.677 2.634 7.888 2.911 9.358l.505 2.673-3.389-.761c-11.357-2.552-21.019 7.642-18.503 19.521.791 3.735 1.929 5.093 14.483 17.28 16.883 16.391 19.029 17.92 25.147 17.92 2.881 0 5.783-.615 7.765-1.646 3.988-2.074 28.521-26.791 30.487-30.715 3.334-6.658.988-15.605-5.201-19.829-4.919-3.357-10.496-3.762-16.633-1.209-1.09.454-1.534-.521-2.384-5.235-9.67-53.628-56.865-92.854-111.049-92.298-5.398.055-12.11.435-14.916.843m-89.237 74.027c-2.087 1.345-9.599 8.353-16.694 15.574-11.656 11.862-12.984 13.519-13.763 17.182-1.293 6.07.081 11.177 4.082 15.179 4.833 4.833 10.963 6.221 16.766 3.796 1.7-.71 3.165-1.19 3.256-1.067.091.124.609 2.992 1.151 6.373 3.38 21.095 14.712 42.272 31.652 59.147 13.322 13.271 26.226 21.201 43.719 26.869 28 9.072 56.3 7.317 83.321-5.168 14.019-6.477 34.225-22.873 37.806-30.676 5.586-12.176-5.435-24.948-18.655-21.619-3.055.769-5.479 2.478-11.232 7.921-11.256 10.649-19.115 15.419-32.083 19.471-41.878 13.084-85.71-9.078-100.015-50.569-3.68-10.673-3.667-11.2.234-10.003 3.622 1.112 9.461-.161 13.31-2.903 5.548-3.95 7.72-13.706 4.436-19.919-2.085-3.944-28.735-29.313-32.403-30.846-4.816-2.012-10.568-1.526-14.888 1.258" fill-rule="evenodd"/></svg>