<svg xmlns="http://www.w3.org/2000/svg" width="512" height="512"><path d="M50.773 65.274C27.59 70.477 9.504 87.234 2.413 110.08l-1.986 6.4v279.04l1.986 6.4c6.517 20.998 22.669 37.15 43.667 43.667l6.4 1.986h407.04l6.4-1.986c20.998-6.517 37.15-22.669 43.667-43.667l1.986-6.4V116.48l-1.986-6.4c-6.445-20.766-22.155-36.629-43.24-43.661l-5.974-1.992-202.24-.151c-166.839-.125-203.136.05-207.36.998m410.176 33.85c6.781 3.178 12.137 8.422 15.424 15.1l2.774 5.633v272.286l-2.774 5.633c-3.287 6.678-8.643 11.922-15.424 15.1l-4.842 2.271H55.893l-4.842-2.271c-6.781-3.178-12.137-8.422-15.424-15.1l-2.774-5.633-.221-135.005-.221-135.006 1.786-4.773c3.289-8.792 9.527-15.185 18.362-18.822l5.041-2.076 199.253.196 199.254.196 4.842 2.271M59.958 112.613c-3.638.87-8.392 4.563-10.252 7.964-1.4 2.56-1.507 10.847-1.717 133.585-.16 93.753.045 131.852.722 134.369 1.203 4.468 6.181 9.499 10.615 10.731 4.819 1.337 388.529 1.337 393.348 0 4.434-1.232 9.412-6.263 10.615-10.731.677-2.517.882-40.616.722-134.369-.223-130.138-.234-130.872-1.972-133.83-.961-1.636-3.394-4.132-5.407-5.547l-3.659-2.572-195.126-.13c-107.32-.072-196.37.166-197.889.53" fill-rule="evenodd"/></svg>