<svg xmlns="http://www.w3.org/2000/svg" width="512" height="512"><path d="M117.303.911C93.433 4.961 73.83 22.364 66.425 46.08l-1.998 6.4v407.04l1.998 6.4c6.573 21.051 22.604 37.082 43.655 43.655l6.4 1.998h279.04l6.4-1.998c21.051-6.573 37.082-22.604 43.655-43.655l1.998-6.4V52.48l-1.998-6.4c-6.516-20.867-22.494-36.947-43.218-43.493L395.52.427 258.56.304C183.232.237 119.667.51 117.303.911m279.924 34.031c5.927 2.903 12.467 9.336 15.426 15.176l2.494 4.922v401.92l-2.468 4.871c-4.994 9.855-13.815 16.226-24.633 17.791-6.99 1.011-257.102 1.011-264.092 0-10.818-1.565-19.639-7.936-24.633-17.791l-2.468-4.871V55.04l2.1-4.267c3.705-7.53 11.091-14.279 18.713-17.098 2.528-.935 27.48-1.11 139.187-.98l136.107.158 4.267 2.089" fill-rule="evenodd"/></svg>