<svg xmlns="http://www.w3.org/2000/svg" viewBox="0 0 512 512"><path d="M398.933 17.41c-5.239 1.661-7.768 3.054-58.825 32.39-51.865 29.802-54.857 31.891-59.465 41.524-2.724 5.693-4.401 12.54-4.301 17.552.061 3.037-.279 3.921-1.813 4.715-1.039.538-30.656 17.536-65.815 37.774-44.157 25.416-65.332 38.073-68.472 40.927-5.486 4.985-10.094 13.742-11.63 22.098l-1.057 5.749-17.512 10.037c-77.451 44.391-76.892 44.056-82.238 49.291-8.459 8.282-12.245 18.692-11.407 31.364.462 6.986 2.414 12.242 8.272 22.278 4.87 8.341 10.207 13.845 16.871 17.397 10.355 5.519 21.445 6.541 31.846 2.933 3.984-1.381 90.015-50.276 96.511-54.85 2.159-1.52 2.342-1.516 6.8.178 2.52.958 6.986 2.191 9.925 2.74l5.342 1-40.063 86.613c-42.926 92.803-41.78 89.936-38.803 97.063 1.694 4.053 3.49 5.992 7.4 7.988 6.301 3.216 15.449 1.234 19.482-4.221.98-1.326 23.064-48.459 49.076-104.74 26.012-56.282 48.078-102.976 49.035-103.765 3.647-3.008 21.547-12.758 22.174-12.078.362.392 21.851 42.761 47.755 94.153 25.903 51.392 47.931 94.34 48.951 95.441 3.981 4.295 9.982 5.946 15.748 4.332 8.135-2.278 13.584-11.352 11.332-18.869-.575-1.921-22.327-45.669-48.336-97.219-26.009-51.549-47.289-94.047-47.289-94.439 0-.392 10.272-6.609 22.826-13.816 12.555-7.207 23.839-13.802 25.076-14.655 2.216-1.53 2.322-1.515 7.253.987 6.183 3.137 13.77 5.118 19.601 5.118 9.17 0 14.03-2.377 66.044-32.297 54.618-31.419 57.779-33.627 62.487-43.65 5.071-10.796 5.332-23.981.672-33.957-5.563-11.908-49.927-87.502-53.941-91.912-4.382-4.815-12.072-9.361-18.919-11.184-5.415-1.442-16.03-1.437-20.593.01m14.025 31.628c1.872.968 7.88 10.675 26.539 42.88 25.247 43.575 25.748 44.655 22.76 49.117-.699 1.044-22.8 14.282-49.113 29.418-51.823 29.81-51.884 29.838-55.816 25.322-3.312-3.804-48.537-82.576-49.01-85.365-.357-2.105.056-3.205 1.989-5.302 1.947-2.112 91.761-54.744 96.733-56.687 2.119-.827 3.379-.696 5.918.617m-110.44 117.789a46429.634 46429.634 0 0 0 15.4 26.588l2.062 3.547-63.08 36.346c-42.675 24.589-63.864 36.345-65.506 36.345-3.603 0-5.818-1.981-9.338-8.351-3.897-7.052-14.433-25.285-18.568-32.132-3.448-5.709-3.996-10.295-1.568-13.117 2.027-2.356 125.916-73.627 126.665-72.868.327.331 6.597 10.97 13.933 23.642m-157.413 94.788c3.378 5.904 5.806 11.025 5.398 11.381-.409.355-20.208 11.845-43.998 25.532-31.951 18.382-43.967 24.885-45.979 24.885-3.365 0-7.025-3.627-10.384-10.293-2.055-4.076-2.231-5.03-1.45-7.852 1.012-3.661-4.218-.367 54.122-34.078 19.25-11.123 35.259-20.243 35.575-20.267.317-.024 3.339 4.788 6.716 10.692" fill-rule="evenodd"/></svg>