<svg xmlns="http://www.w3.org/2000/svg" viewBox="0 0 512 512"><path d="M399.987 17.142c-4.732 1.115-6.163 1.896-59.015 32.217-53.572 30.735-55.005 31.746-60.465 42.66-1.685 3.368-3.435 8.576-3.992 11.882-1.914 11.348 1.277 19.511 21.268 54.401 30.592 53.39 37.214 62.914 47.05 67.661 9.886 4.772 20.742 5.496 30.634 2.042 4.286-1.496 95.569-53.505 103.801-59.14 7.496-5.132 13.417-14.081 15.661-23.667 1.336-5.709.728-16.191-1.271-21.891-.822-2.347-12.68-23.659-26.35-47.36-26.703-46.298-29.064-49.65-38.606-54.799-8.22-4.436-19.947-6.072-28.715-4.006M235.093 136.258c-6.9 3.675-87.492 50.315-90.502 52.375-7.196 4.925-12.341 12.391-15.216 22.082-3.271 11.025-1.59 16.074 15.019 45.109 22.715 39.71 25.345 42.555 42.034 45.461 3.108.541 5.537 1.262 5.398 1.602-.139.339-18.205 39.426-40.146 86.86-43.393 93.808-41.948 90.135-38.277 97.327 1.848 3.622 3.636 5.366 7.515 7.33 5.905 2.99 15.16.825 19.069-4.463.983-1.329 23.071-48.448 49.085-104.707 26.013-56.259 47.778-102.752 48.366-103.318 2.03-1.956 20.371-12.263 21.811-12.257 1.06.004 13.946 24.825 48.378 93.182 25.813 51.247 47.877 94.307 49.031 95.689 2.353 2.819 7.898 5.639 11.129 5.66 10.372.068 18.779-10.073 16.223-19.568-.543-2.014-22.271-45.857-48.285-97.43-26.014-51.572-47.298-94.115-47.298-94.54 0-.424 2.4-2.118 5.333-3.763 8.908-4.995 11.769-9.063 11.693-16.625-.049-4.902 1.063-2.788-27.693-52.637-21.227-36.798-23.339-40.133-26.834-42.371-3.032-1.942-4.744-2.422-8.533-2.395-2.641.019-5.873.638-7.3 1.397M78.447 248.418c-41.505 23.76-46.624 26.89-50.845 31.09-8.069 8.03-11.94 18.634-11.166 30.582.524 8.084 2.446 13.427 8.341 23.188 11.395 18.865 30.043 26.537 48.808 20.08 4.514-1.553 52.888-28.928 58.476-33.091 5.472-4.077 7.662-12.133 5.018-18.459-2.135-5.112-29.667-52.176-31.975-54.66-3.021-3.252-6.864-4.801-11.91-4.801-3.571 0-5.602.836-14.747 6.071" fill-rule="evenodd"/></svg>