<svg xmlns="http://www.w3.org/2000/svg" viewBox="0 0 512 512"><path d="M342.861 48.853 262.075 96l1.759 2.987c.967 1.642 18.56 31.978 39.095 67.413 20.534 35.435 39.176 67.566 41.425 71.403l4.089 6.976 3.993-2.283c74.25-42.458 157.799-91.278 157.639-92.112-.273-1.418-85.407-148.586-85.984-148.638-.244-.022-36.797 21.177-81.23 47.107M181.333 167.215c-36.138 21.014-65.64 38.547-65.559 38.962.187.964 59.04 102.063 59.963 103.006.378.386 4.019-1.099 8.09-3.3 4.072-2.202 7.558-3.849 7.746-3.661.188.188-19.419 43.145-43.57 95.46-24.151 52.315-44.126 95.79-44.388 96.611-.443 1.389.74 1.494 16.93 1.494h17.407l49.424-106.949L236.8 281.89l11.329-6.582c6.23-3.62 11.606-6.402 11.946-6.183.34.219 22.505 44.203 49.255 97.743l48.637 97.345h17.71c12.204 0 17.71-.289 17.71-.929 0-.511-23.616-47.878-52.48-105.259-28.864-57.381-52.48-104.697-52.48-105.147 0-.45 5.184-3.824 11.52-7.498 6.336-3.673 11.52-6.767 11.52-6.876 0-.912-63.003-109.158-63.619-109.304-.445-.105-30.376 17.001-66.515 38.015M50.61 264.413c-26.372 15.32-48.187 28.101-48.478 28.403-.507.527 41.373 73.336 43.534 75.685.861.935 9.773-3.872 49.585-26.747 26.695-15.338 48.659-28.006 48.81-28.152.463-.449-43.899-76.701-44.726-76.877-.426-.091-22.352 12.369-48.725 27.688" fill-rule="evenodd"/></svg>