<svg xmlns="http://www.w3.org/2000/svg" width="512" height="512"><path d="M231.253 33.392c-16.355 1.665-38.573 7.009-54.742 13.167-20.215 7.699-44.67 21.825-62.003 35.814-22.439 18.11-43.36 43.753-56.938 69.791-15.058 28.874-23.154 58.252-25.123 91.16-5.222 87.26 42.038 170.597 119.717 211.106 79.252 41.329 174.746 31.925 244.36-24.066 76.574-61.59 103.962-166.627 67.269-257.991-28.024-69.778-90.412-121.426-164.273-135.994-5.867-1.158-14.861-2.52-19.988-3.028-10.737-1.065-37.645-1.042-48.279.041m52.907 32.827c53.998 7.774 102.479 38.978 133.112 85.674 6.481 9.881 15.857 28.994 19.882 40.534 5.802 16.633 9.33 34.762 10.503 53.973l.586 9.6h-5.46c-7.618 0-25.516-2.188-35.483-4.338-21.187-4.57-47.607-15.7-65.113-27.43-28.817-19.309-51.677-45.468-66.571-76.179-11.793-24.317-17.577-46.692-19.281-74.583l-.594-9.729 9.729.594c5.352.327 13.762 1.175 18.69 1.884m-59.746 9.044c.026 13.378 3.696 35.043 8.918 52.661 17.054 57.528 57.616 106.755 110.832 134.506 28.079 14.643 59.491 23.469 88.476 24.857 5.867.282 11.093.749 11.614 1.039 1.387.772-1.586 14.352-6.189 28.261-13.473 40.721-40.596 75.926-77.105 100.082-11.626 7.692-30.13 16.704-43.353 21.113-13.372 4.459-28.483 7.934-29.232 6.721-.302-.489-.783-5.758-1.069-11.709-1.4-29.116-10.21-60.508-24.876-88.63-31.119-59.674-88.726-102.731-154.91-115.785-11.592-2.287-26.198-3.952-34.658-3.952-2.941 0-5.512-.288-5.713-.64-.728-1.275 3.06-17.113 6.786-28.374 18.841-56.945 64.533-102.637 121.478-121.478 13.973-4.624 27.447-7.562 28.361-6.186.344.519.632 3.901.64 7.514M92.16 258.219c53.998 7.774 102.479 38.978 133.112 85.674 6.481 9.881 15.857 28.994 19.882 40.534 5.802 16.633 9.33 34.762 10.503 53.973l.586 9.6h-5.46c-7.618 0-25.516-2.188-35.483-4.338-21.187-4.57-47.607-15.7-65.113-27.43-28.817-19.309-51.677-45.468-66.571-76.179-11.793-24.317-17.577-46.692-19.281-74.583l-.594-9.729 9.729.594c5.352.327 13.762 1.175 18.69 1.884" fill-rule="evenodd"/></svg>