<svg xmlns="http://www.w3.org/2000/svg" width="512" height="512"><path d="M265.044 34.773c-2.813 13.812-3.847 37.854-2.249 52.324 6.173 55.897 35.566 103.474 83.25 134.748 9.702 6.363 27.261 14.731 39.453 18.8 21.191 7.073 40.901 9.899 63.662 9.128 12.858-.436 28.146-2.185 30.201-3.455.998-.617-.352-16.261-2.404-27.865-6.891-38.97-22.627-73.698-47.175-104.106-6.734-8.342-23.925-25.504-32.466-32.41-24.571-19.871-57.2-36.044-87.936-43.584-11.373-2.79-32.132-5.926-39.226-5.926-4.368 0-4.659.133-5.11 2.346m-58.111 2.465c-22.276 5.054-49.497 16.179-68.693 28.076-26.603 16.487-51.616 40.657-68.922 66.597-13.745 20.603-24.26 44.243-30.521 68.619-2.245 8.744-4.556 20.306-4.141 20.721.14.141 4.592-.261 9.893-.893 12.475-1.488 44.452-.888 56.998 1.069 37.953 5.922 71.819 20.123 102.4 42.941 12.773 9.531 34.154 30.912 43.685 43.685 25.6 34.31 40.154 72.018 44.299 114.774 1.054 10.871.522 41.759-.852 49.493-.417 2.347-.615 4.506-.441 4.799.174.294 3.876-.184 8.226-1.06 44.915-9.048 83.378-29.601 115.486-61.709 32.131-32.13 52.657-70.56 61.725-115.563l1.609-7.987-7.375.733c-13.649 1.357-49.836.853-60.282-.84-47.497-7.696-88.507-27.959-121.767-60.164-20.436-19.787-33.63-37.829-45.959-62.849-11.263-22.855-17.688-43.804-21.461-69.973-1.319-9.156-1.4-49.405-.115-57.387l.859-5.333-2.632.061c-1.448.033-6.856 1.019-12.019 2.19m-153.6 225.317c-4.766.411-20.127 2.777-20.824 3.207-1.691 1.046 2.275 29.721 6.325 45.723 18.323 72.39 72.957 131.832 143.541 156.171 17.857 6.157 37.623 10.392 54.727 11.725 10.527.821 9.581 1.916 11.566-13.389 12.877-99.248-58.982-191.078-158.636-202.723-9.947-1.162-27.533-1.505-36.699-.714" fill-rule="evenodd"/></svg>