<svg xmlns="http://www.w3.org/2000/svg" width="512" height="512"><path d="M64.853 33.743c-3.05.649-9.194 3.002-13.653 5.229-6.842 3.418-9.376 5.32-16.244 12.192-6.612 6.616-8.814 9.502-11.745 15.396-1.984 3.989-4.371 10.291-5.303 14.003-1.662 6.621-1.695 9.974-1.695 175.437 0 165.463.033 168.816 1.695 175.437.932 3.712 3.319 10.014 5.303 14.003 2.922 5.874 5.155 8.808 11.745 15.428 6.819 6.85 9.408 8.809 15.978 12.09C66.305 480.634 47.839 480 256 480s189.695.634 205.066-7.042c6.57-3.281 9.159-5.24 15.978-12.09 6.59-6.62 8.823-9.554 11.745-15.428 1.984-3.989 4.371-10.291 5.303-14.003 1.662-6.621 1.695-9.974 1.695-175.437 0-165.463-.033-168.816-1.695-175.437-.932-3.712-3.319-10.014-5.303-14.003-2.931-5.894-5.133-8.78-11.745-15.396-6.874-6.878-9.396-8.77-16.244-12.186-14.128-7.047 2.347-6.528-205.227-6.469-154.267.044-186.099.25-190.72 1.234m374.739 31.418c12.598 2.965 21.924 13.276 23.811 26.326 1.026 7.093 1.026 321.933 0 329.026-1.53 10.577-8.046 19.465-17.787 24.261l-5.687 2.799H72.107l-4.88-2.287c-10.073-4.721-17.074-14.009-18.62-24.705-1.035-7.157-1.044-321.941-.01-329.094 1.857-12.84 11.189-23.316 23.41-26.282 6.647-1.613 360.739-1.656 367.585-.044M88.206 98.064c-4.579 2.792-7.388 7.298-7.824 12.549-.73 8.813-1.009 8.518 36.381 38.44l33.708 26.974-2.062 1.539c-10.405 7.765-64.655 52.093-65.976 53.91-1.155 1.588-1.816 4.091-2.029 7.68-.28 4.734-.035 5.759 2.21 9.254 4.359 6.784 13.171 9.485 19.819 6.075 3.197-1.64 82.816-65.19 85.883-68.551 3.975-4.353 4.747-10.709 2.03-16.694-1.373-3.024-7.749-8.469-42.356-36.17-22.406-17.936-42.076-33.518-43.71-34.627-3.886-2.637-12.056-2.83-16.074-.379m95.537 128.515c-7.111 4.262-9.763 12.958-6.095 19.985 1.088 2.085 3.454 4.965 5.258 6.4l3.279 2.609h75.63l3.279-2.609c1.804-1.435 4.17-4.315 5.258-6.4 3.688-7.064.986-15.811-6.181-20.012l-3.628-2.125-36.618.008-36.618.008-3.564 2.136" fill-rule="evenodd"/></svg>