<svg xmlns="http://www.w3.org/2000/svg" width="512" height="512"><path d="M146.954 80.323c-1.544.445-4.232 2.24-5.974 3.989-2.932 2.945-7.648 15.132-63.636 164.447-33.258 88.697-60.665 162.683-60.905 164.414-.672 4.849.456 8.972 3.356 12.276 6.503 7.406 15.673 8.046 22.817 1.592 3.064-2.768 4.447-6.108 22.775-54.994L84.9 320h134.191l18.13 48.427c9.972 26.634 18.88 50.205 19.797 52.379 2.092 4.964 5.21 7.984 9.981 9.668 4.984 1.758 6.574 1.656 11.747-.752 5.609-2.612 9.029-7.909 9.015-13.965-.007-3.228-11.93-35.809-60.312-164.811-33.167-88.432-60.842-161.827-61.499-163.098-1.679-3.247-5.866-6.559-9.603-7.597-3.737-1.038-5.593-1.024-9.393.072m59.541 206.61c.006.352-24.564.64-54.602.64-30.037 0-54.613-.129-54.613-.288 0-.249 51.087-136.613 53.76-143.498.934-2.405 2.645 1.839 28.218 69.973 14.974 39.893 27.23 72.821 27.237 73.173m178.004-110.202c-24.029 3.505-49.061 18.757-63.028 38.403-5.374 7.558-11.009 18.993-11.479 23.293-.593 5.42 3.299 12.18 8.577 14.896 5.562 2.863 10.621 2.719 15.741-.447 3.268-2.021 4.63-3.767 8.213-10.529 3.411-6.438 5.882-9.695 12.006-15.825 6.479-6.484 9.006-8.355 15.818-11.711 10.899-5.37 17.512-6.836 30.72-6.807 21.287.046 37.482 7.346 49.489 22.308 8.366 10.424 12.216 21.763 13.246 39.009l.615 10.316-16.528.589c-50.022 1.781-80.471 6.007-98.046 13.605-23.524 10.17-37.994 25.671-43.63 46.737-2.659 9.941-2.68 26.148-.048 36.784 5.322 21.502 19.638 38.816 39.713 48.028 11.523 5.288 19.603 6.804 35.989 6.752 32.226-.103 57.195-8.353 76.586-25.306l5.76-5.035v8.625c0 9.978.956 12.958 5.409 16.868 5.196 4.562 11.658 5.405 17.718 2.31 3.336-1.704 7.444-6.799 8.02-9.949.28-1.535.374-39.272.208-83.858-.295-79.036-.347-81.238-2.09-87.894-5.146-19.657-12.231-32.639-24.518-44.926-14.022-14.021-33.241-23.412-53.757-26.265-7.597-1.057-23.362-1.042-30.704.029m79.011 142.416c-.134 3.989-.813 10.901-1.509 15.36-5.33 34.169-23.005 54.825-53.742 62.808-11.488 2.983-32.92 3.841-41.265 1.652-7.664-2.011-13.242-5.037-18.568-10.074-8.216-7.771-12.174-17.543-12.2-30.125-.033-15.634 7.324-26.346 23.396-34.064 9.28-4.457 18.452-6.806 33.338-8.541 17.156-1.998 56.843-4.529 67.824-4.325l2.971.055-.245 7.254" fill-rule="evenodd"/></svg>