<svg xmlns="http://www.w3.org/2000/svg" width="512" height="512"><path d="M79.99 241.685A1831575.65 1831575.65 0 0 0 4.652 436.28c-.546 1.422.765 1.494 23.07 1.28l23.649-.227 3.351-8.96a54360.96 54360.96 0 0 1 20.938-55.68l17.588-46.72 62.816.015 62.816.014 20.907 55.861 20.906 55.86 23.617.019 23.617.018-1.925-4.907c-1.059-2.698-35.269-89.962-76.023-193.92-40.754-103.957-74.352-189.311-74.663-189.675-.311-.364-34.208 86.228-75.326 192.427m99.032-20.672c12.237 32.15 22.509 59.126 22.825 59.947.544 1.411-1.973 1.493-45.596 1.493-25.394 0-46.171-.288-46.171-.64 0-1.687 45.721-120.358 46.173-119.844.286.325 10.532 26.895 22.769 59.044M393.387 170.7c-33.756 3.527-64.847 24.689-79.664 54.221-1.63 3.248-4.492 9.431-6.361 13.74l-3.397 7.835 20.084 8.615c11.046 4.738 20.169 8.508 20.273 8.378.105-.129 2.046-4.46 4.315-9.622 2.268-5.163 5.065-10.923 6.215-12.8 7.816-12.764 21.771-22.481 36.908-25.701 8.65-1.84 23.728-1.193 31.92 1.37 22.893 7.162 37.896 27.466 37.959 51.372l.014 5.707-3.626.442c-1.995.242-9.771.664-17.28.938-14.274.52-38.383 2.366-50.774 3.888-28.302 3.477-49.148 12.14-64.846 26.949-9.858 9.299-16.634 20.73-20.168 34.021-2.446 9.201-2.237 29.919.401 39.68 7.621 28.2 26.62 47.248 55.003 55.148 9.699 2.699 30.606 3.693 43.868 2.086 20.25-2.455 39.945-9.191 52.883-18.087 1.962-1.35 3.786-2.453 4.053-2.453.268 0 .486 4.8.486 10.666v10.667h44.432l-.287-91.093c-.281-89.259-.323-91.24-2.084-98.347-8.897-35.905-30.12-60.413-62.341-71.986-13.65-4.903-33.113-7.188-47.986-5.634m68.266 151.349c0 2.065-.753 8.161-1.674 13.547-6.449 37.726-28.944 57.076-68.861 59.235-15.655.847-25.544-2.058-33.895-9.955-10.16-9.61-13.547-27.995-7.382-40.078 4.167-8.17 15.946-15.627 30.524-19.325 11.827-3 49.96-6.623 74.248-7.055l7.04-.125v3.756" fill-rule="evenodd"/></svg>