<svg xmlns="http://www.w3.org/2000/svg" width="512" height="512"><path d="M146.502 74.324c-3.946.929-10.091 5.025-12.399 8.267-.929 1.305-29.057 75.321-62.506 164.478-48.103 128.217-60.895 163.136-61.191 167.04-.698 9.177 4.324 17.425 12.854 21.115 10.904 4.718 23.077.332 28.281-10.187 1.065-2.154 9.942-25.325 19.725-51.49l17.788-47.574H214.891l2.188 5.76c1.204 3.168 9.658 25.682 18.788 50.03 11.113 29.638 17.407 45.291 19.043 47.36 3.57 4.514 10.911 7.954 17.054 7.992 5.933.037 9.986-1.547 14.58-5.697 4.563-4.123 7.174-9.837 7.226-15.816.037-4.214-6.492-22.152-60.733-166.855-33.426-89.174-61.694-163.543-62.819-165.265-2.717-4.16-7.111-7.409-12.022-8.887-4.467-1.345-6.89-1.401-11.694-.271m9.461 94.423c21.388 56.297 41.25 110.527 40.857 111.551-.439 1.144-5.884 1.302-44.85 1.302-31.818 0-44.516-.27-44.94-.956-.325-.526 9.321-27.406 21.435-59.733 17.514-46.737 22.329-58.778 23.506-58.778 1.061 0 2.191 1.873 3.992 6.614m225.904 2.451c-15.123 2.728-26.733 7.433-39.655 16.074-14.6 9.762-25.74 22.351-33.55 37.915-3.941 7.855-4.445 9.462-4.413 14.08.087 12.496 9.453 22.024 21.65 22.024 9.574 0 15.211-3.944 21.053-14.728 7.194-13.282 14.567-20.692 26.6-26.734 15.321-7.693 34.858-8.045 50.45-.911 14.25 6.521 25.807 19.732 31.154 35.611 1.568 4.657 3.251 17.837 2.383 18.659-.319.301-9.411.989-20.206 1.529-22.671 1.133-44.945 2.999-57.173 4.789-42.698 6.249-71.681 28-79.845 59.923-4.555 17.809-2.168 39.293 6.233 56.091 9.766 19.53 28.704 34.5 50.72 40.091 29.396 7.466 71.061-.04 96.705-17.423l3.84-2.603.582 3.327c1.263 7.222 6.683 14.061 13.436 16.954 3.917 1.678 12.421 1.678 16.338 0 4.681-2.005 9.386-6.605 11.585-11.326l1.989-4.273.009-79.035c.009-85.577.006-85.644-4.695-100.174-11.832-36.571-43.246-63.998-80.157-69.985-9.616-1.559-26.019-1.501-35.033.125m75.213 154.135c-1.24 15.646-5.633 29.995-12.276 40.097-12.024 18.284-30.51 27.409-57.817 28.538-18.502.766-27.79-2.136-36.161-11.295-6.292-6.883-8.122-12.235-8.158-23.846-.026-8.528.178-9.78 2.228-13.688 5.838-11.121 20.699-18.968 41.832-22.086 14.126-2.085 43.899-4.34 60.758-4.602l10.152-.158-.558 7.04" fill-rule="evenodd"/></svg>