<svg xmlns="http://www.w3.org/2000/svg" width="512" height="512"><path d="M242.773 17.438c-23.84 5.58-41.674 22.452-48.764 46.135-1.435 4.792-1.55 12.257-1.803 116.48l-.27 111.36-3.168 2.256c-9.128 6.499-20.862 19.444-28.144 31.049-6.896 10.989-12.668 26.695-15.199 41.362-2.07 11.99-1.291 32.343 1.691 44.2 10.404 41.363 41.344 72.186 83.05 82.735 8.462 2.141 10.519 2.325 25.834 2.317 14.568-.008 17.649-.259 24.747-2.012 42.468-10.491 73.547-41.239 84.187-83.293 2.93-11.58 3.694-32.05 1.641-43.947-2.531-14.667-8.303-30.373-15.199-41.362-7.282-11.605-19.016-24.55-28.144-31.049l-3.168-2.256-.27-111.36c-.253-104.223-.368-111.688-1.803-116.48-6.479-21.642-22.648-38.246-43.644-44.818-7.685-2.406-24.012-3.086-31.574-1.317m29.44 200.109v121.119l5.76 2.817c7.675 3.752 16.752 12.788 20.454 20.36 9.598 19.634 6.287 40.831-8.737 55.932-26.184 26.318-70.981 13.904-80.181-22.221-2.728-10.709-1.27-22.799 4.064-33.711 3.649-7.464 12.742-16.545 20.454-20.426l5.76-2.899V96.427h32.426v121.12" fill-rule="evenodd"/></svg>