<svg xmlns="http://www.w3.org/2000/svg" width="512" height="512"><path d="M241.955 17.553c-3.266.648-9.026 2.669-12.8 4.491-17.032 8.222-28.555 21.436-34.724 39.823l-2.004 5.973-.258 111.787-.258 111.786-5.581 4.267c-11.037 8.437-23.53 23.935-30.569 37.921-4.22 8.387-8.69 22.412-10.327 32.407-1.853 11.312-1.275 31.036 1.229 41.885 5.039 21.839 15.047 39.88 30.768 55.467 34.507 34.212 86.133 42.185 129.596 20.013 11.597-5.916 19.095-11.467 28.778-21.305 32.685-33.211 41.296-83.206 21.655-125.719-6.93-15-19.869-31.554-31.788-40.669l-5.579-4.267-.26-111.786-.26-111.787-2.004-5.973c-6.051-18.034-17.395-31.201-33.836-39.275-12.444-6.11-27.336-7.907-41.778-5.039m19.047 31.127c2.986.485 7.258 1.808 9.493 2.941 5.536 2.805 11.791 9.272 14.449 14.937l2.203 4.695.426 114.774c.459 123.391.221 117.276 4.797 123.443 1.1 1.483 6.019 5.8 10.931 9.592 15.144 11.69 25.533 27.051 29.946 44.275 3.094 12.078 3.073 28.975-.051 41.428-2.092 8.34-9.894 23.201-15.963 30.406-7.552 8.964-14.951 14.724-25.82 20.097-12.888 6.371-21.531 8.385-35.84 8.35-9.087-.022-12.567-.417-19.246-2.184-22.881-6.054-41.031-20.842-51.576-42.021-6.137-12.324-8.308-21.416-8.233-34.474.066-11.531.556-15.573 2.857-23.552 4.921-17.073 15.405-32.111 29.941-42.947 9.286-6.923 10.175-7.858 12.731-13.405L224 300.8l.427-114.773.426-114.774 2.203-4.695c4.201-8.955 13.671-16.241 23.164-17.822 2.475-.413 4.692-.792 4.927-.843.234-.051 2.869.303 5.855.787m-13.259 49.899c-1.96 1.175-4.456 3.571-5.547 5.325l-1.983 3.189-.225 115.793-.225 115.792-5.748 2.811c-7.585 3.708-16.699 12.764-20.455 20.324-9.637 19.396-6.28 40.884 8.731 55.896 18.962 18.962 48.456 18.962 67.418 0 18.962-18.962 18.962-48.438 0-67.426-4.005-4.01-7.872-6.911-11.724-8.794l-5.748-2.811-.225-115.792-.225-115.793-1.995-3.207c-4.505-7.247-14.714-9.704-22.049-5.307" fill-rule="evenodd"/></svg>