<svg xmlns="http://www.w3.org/2000/svg" width="512" height="512"><path d="M71.87 34.109c-9.801 3.527-17.801 12.216-21.42 23.264-.963 2.941-9.074 37.492-18.024 76.781l-16.274 71.434.244 42.06.244 42.059 2.744 5.792c5.325 11.243 16.455 20.053 29.265 23.164 3.402.827 35.798 3.661 84.01 7.351 43.16 3.303 78.632 6.166 78.827 6.361.195.194-4.853 20.626-11.216 45.403-6.364 24.777-11.98 47.327-12.48 50.112-3.329 18.528 2.381 32.348 16.157 39.104 4.866 2.387 42.556 13.302 44.329 12.838 1.627-.426-6.053 11.415 68.516-105.645 34.68-54.443 63.84-99.659 64.799-100.48 1.623-1.39 5.656-1.494 57.97-1.494h56.226V64.052l-63.36-.239-63.36-.24-42.785-14.316c-23.531-7.874-45.741-14.882-49.355-15.573-5.554-1.063-21.581-1.253-103.562-1.227-93.083.03-97.173.097-101.495 1.652" fill-rule="evenodd"/></svg>