<svg xmlns="http://www.w3.org/2000/svg" width="512" height="512"><path d="M264.107 34.378c-2.019 1.138-4.46 3.619-5.974 6.072-3.228 5.231-20.782 31.597-46.643 70.057-28.606 42.543-42.406 65.47-63.69 105.813-4.952 9.387-9.609 17.78-10.349 18.651-3.465 4.083-6.174 4.577-27.798 5.076-22.213.512-28.342 1.404-39.687 5.771-21.01 8.089-39.82 26.877-48.208 48.151-5.106 12.952-5.703 18.909-5.346 53.338.32 30.856.344 31.215 2.591 38.518 3.167 10.295 5.882 16.11 11.374 24.364 11.428 17.176 29.262 29.815 49.836 35.318 6.777 1.813 9.469 1.973 40.985 2.43l33.732.49 5.948 3.587c19.111 11.525 48.068 21.199 75.935 25.369 20.051 3 52.222 3.663 58.594 1.208 2.836-1.094 5.129-5.612 4.294-8.464-.334-1.141-2.019-4.57-3.743-7.62-5.83-10.313-7.108-15.782-7.08-30.294.023-12.119.17-13.235 2.773-20.995 1.512-4.507 2.749-9.459 2.749-11.005 0-1.545-1.232-6.498-2.738-11.005-2.613-7.822-2.738-8.797-2.731-21.421.006-12.706.114-13.529 2.738-20.9 1.502-4.221 2.731-9.216 2.731-11.1 0-1.885-1.226-6.88-2.723-11.1-2.592-7.303-2.725-8.292-2.755-20.474-.03-12.203.097-13.182 2.723-20.995 1.515-4.507 2.755-9.715 2.755-11.573 0-1.858-1.22-6.81-2.711-11.005-2.584-7.271-2.713-8.244-2.773-20.853-.069-14.593 1.16-20.464 6.497-31.036 2.991-5.925 3.271-10.103 1.114-16.594-1.158-3.487-1.399-6.153-1.039-11.52.845-12.591 5.244-26.858 19.781-64.157 3.109-7.979 6.422-17.387 7.361-20.907 2.111-7.91 2.276-20.451.365-27.654-5.614-21.167-25.272-35.526-48.572-35.478-5.567.011-7.564.386-10.316 1.937m121.6 163.696c-28.395 2.209-53.359 4.212-55.476 4.453-10.401 1.182-20.276 7.831-23.936 16.115-3.06 6.924-2.917 17.311.329 23.921 2.841 5.784 7.515 9.409 15.425 11.963 4.663 1.505 8.889 1.752 40.618 2.37 19.477.379 45.802.717 58.499.75l23.086.061 4.432-2.209c7.758-3.866 13.19-12.016 14.905-22.365 2.678-16.161-9.293-36.094-23.139-38.527-1.714-.301-26.349 1.259-54.743 3.468m3.258 75.453c-67.823 2.978-69.732 3.17-75.775 7.632-7.303 5.392-10.605 15.725-8.604 26.921 1.764 9.875 7.156 16.092 16.267 18.759 2.924.856 131.687 6.796 147.571 6.808 9.492.007 13.504-1.511 18.444-6.978 5.28-5.844 8.218-13.273 8.718-22.039.482-8.448-.435-13.27-3.848-20.24-2.495-5.095-8.199-10.823-12.615-12.668-4.083-1.706-15.33-1.481-90.158 1.805m1.862 72.961c-65.077 2.07-65.471 2.091-70.61 3.829-5.392 1.823-10.764 6.227-13.042 10.691-2.803 5.494-3.875 14.12-2.624 21.117 1.826 10.218 7.088 16.166 16.729 18.911 1.877.534 33.365 2.482 69.973 4.328 75.78 3.82 71.544 3.991 78.708-3.173 15.247-15.247 12.384-46.541-5.053-55.23-5.38-2.681-4.786-2.677-74.081-.473m-23.04 71.264c-44.526 1.542-45.016 1.578-50.012 3.73-5.102 2.197-9.943 6.854-11.827 11.377-3.348 8.036-2.097 20.383 2.78 27.451 2.544 3.686 8.269 7.701 12.949 9.08 3.61 1.065 92.018 10.206 99.665 10.305 11.812.155 21.751-8.708 25.498-22.735 3.985-14.918-2.89-32.179-15.276-38.351-4.206-2.096-4.939-2.177-18.505-2.059-7.769.068-28.142.609-45.272 1.202" fill-rule="evenodd"/></svg>