<svg xmlns="http://www.w3.org/2000/svg" width="512" height="512"><path d="M99.083 33.775c-10.956 2.947-23.26 12.576-28.969 22.671-5.493 9.712-7.456 23.647-4.851 34.434 1.674 6.935 1.715 6.763-1.903 8.038-8.711 3.071-20.287 12.918-25.159 21.402-6.933 12.074-8.017 28.237-2.771 41.349l2.185 5.463-6.753 6.674c-7.33 7.244-11.024 13.414-13.308 22.225-2.533 9.776-1.39 22.754 2.834 32.182 4.348 9.705 15.518 20.268 25.71 24.312 4.501 1.787 5.15 2.317 4.701 3.84-2.224 7.56-3.129 14.304-2.675 19.942 1.703 21.159 16.513 39.689 35.932 44.957 3.341.906 27.121 3.112 68.511 6.354 34.867 2.731 63.585 5.157 63.819 5.39.584.585-2.581 14.799-5.232 23.488-1.202 3.94-6.339 17.981-11.415 31.201-10.935 28.475-12.229 33.167-12.179 44.163.123 27.314 21.212 47.423 50.209 47.876 9.408.147 11.31-1.039 17.804-11.098 2.816-4.362 15.419-23.174 28.006-41.804 43.412-64.255 60.972-92.886 82.533-134.567 7.939-15.346 8.524-16.18 12.947-18.438 2.823-1.44 5.201-1.616 21.912-1.616 20.836 0 28.756-.816 38.887-4.009 26.142-8.239 45.077-28.001 53.505-55.841 1.804-5.961 1.918-8.045 2.216-40.712.34-37.355.023-41.603-3.989-53.398-6.542-19.234-20.392-35.409-38.294-44.723-16.52-8.594-22.757-9.522-64.04-9.527L357.391 64l-9.091-5.707c-23.362-14.665-43.925-22.035-69.687-24.976-10.051-1.147-43.092-1.135-57.642.022-6.313.502-15.753 1.64-20.979 2.529-6.655 1.132-10.311 1.384-12.202.842-3.823-1.097-10.592-1.607-40.163-3.027-31.913-1.532-42.579-1.512-48.544.092m46.41 31.906c35.499 1.757 40.206 2.443 43.926 6.404 1.454 1.547 2.102 3.387 2.333 6.628.425 5.967-2.103 10.451-7.432 13.181-3.604 1.846-5.334 2.019-28.16 2.806-41.06 1.417-47.858 1.394-50.773-.165-2.864-1.532-6.552-5.255-8.003-8.079-2.429-4.728-.356-14.531 3.884-18.365 2.04-1.845 7.012-4.019 9.239-4.04.938-.009 16.682.725 34.986 1.63m125.014-.815c25.428 2.206 42.719 8.421 65.139 23.415 5.428 3.63 11.328 6.938 13.111 7.352 1.784.414 19.386.762 39.117.773 40.013.023 41.63.203 51.523 5.735 10.543 5.896 19.104 16.717 22.821 28.846 1.404 4.582 1.569 8.481 1.569 37.12 0 30.66-.079 32.251-1.891 38.008-4.355 13.843-16.231 26.331-29.683 31.215-4.625 1.679-7.511 1.918-29.866 2.482-27.759.7-30.892 1.263-41.276 7.419-8.857 5.251-13.404 10.969-22.133 27.837-8.824 17.049-24.933 45.844-33.73 60.292-16.787 27.569-72.639 110.417-74.667 110.756-2.467.413-7.268-3.432-9.377-7.51-2.998-5.798-2.263-11.355 3.498-26.446 13.447-35.225 15.977-42.274 18.831-52.48 5.86-20.954 7.04-33.423 3.945-41.694-2.088-5.581-7.462-11.926-12.108-14.296-2.768-1.412-13.258-3.215-19.205-3.302-.619-.008.004-1.672 1.524-4.068 4.004-6.31 6.044-13.959 6.087-22.827.061-12.329-2.9-21.257-9.56-28.823-1.872-2.126-3.403-4.214-3.403-4.641 0-.427 1.165-1.892 2.589-3.256 13.642-13.07 13.958-41.765.628-57.086l-2.917-3.353 4.029-5.323c6.992-9.237 10-21.078 8.458-33.286-1.145-9.055-5.383-18.637-10.116-22.871-1-.894-1.817-1.949-1.817-2.344 0-.395 1.704-3.033 3.786-5.862 7.885-10.711 10.384-24.807 7.127-40.2-.19-.899 1.623-1.278 7.86-1.645 14.25-.838 30.01-.813 40.107.063m-136.954 64.295c46.252 1.031 47 1.076 51.016 3.019 8.058 3.902 9.998 14.603 3.838 21.179-4.09 4.366-6.716 4.624-57.711 5.673-26.123.537-49.71.728-52.415.424-6.139-.69-10.398-3.725-12.778-9.104-4.809-10.872 3.698-22.448 16.384-22.295 2.6.031 25.849.528 51.666 1.104m12.803 64.435c33.147.584 33.307.595 37.502 2.695 5.174 2.59 7.346 5.448 7.904 10.403.712 6.312-3.784 12.341-10.668 14.307-2.977.85-52.517 2.187-100.454 2.711-20.356.223-20.503.211-24.19-1.868-9.172-5.172-10.935-18.287-3.405-25.318 4.714-4.401 5.939-4.546 33.995-4.011 14.315.272 41.007.759 59.316 1.081m3.831 64.968c15.722.421 29.982 1.175 31.688 1.674 8.672 2.538 12.441 10.917 8.438 18.764-1.258 2.465-2.87 3.885-6.334 5.58-4.619 2.26-4.896 2.286-46.739 4.409-31.382 1.592-42.868 1.904-45.139 1.224-1.675-.501-4.448-2.313-6.161-4.026-9.715-9.715-6.508-24.732 6.086-28.497 1.247-.373 8.411-.502 15.921-.287 7.509.215 26.517.737 42.24 1.159" fill-rule="evenodd"/></svg>