<svg xmlns="http://www.w3.org/2000/svg" width="512" height="512"><path d="M240.64 16.759c-1.173.172-5.013.718-8.533 1.212-31.002 4.357-61.487 20.165-85.334 44.248-10.625 10.73-18.53 21.602-25.556 35.148l-5.136 9.9-6.456.546c-22.152 1.872-46.54 14.133-63.819 32.082-34.51 35.849-39.458 90.285-12 132.011 15.134 22.999 39.304 39.425 67.741 46.039 5.479 1.274 12.202 1.537 46.72 1.825 34.859.29 40.32.507 40.32 1.597 0 .694-2.916 18.623-6.48 39.841-5.77 34.349-6.374 38.99-5.517 42.329 1.297 5.051 3.748 8.281 8.015 10.562 3.289 1.759 4.879 1.922 21.217 2.176l17.662.274.258 33.859c.282 37.045.171 36.215 5.515 41.271 3.1 2.933 6.259 4.108 11.046 4.108 8.294 0 6.848 1.709 51.985-61.471 22.813-31.931 42.068-59.47 42.79-61.196 2.59-6.2-.283-14.346-6.437-18.248l-3.855-2.445H308.74c-8.826 0-16.047-.199-16.047-.443 0-.243 1.776-7.539 3.946-16.213L300.586 320l55.573-.003c60.347-.003 63.744-.216 77.334-4.86 27.431-9.374 48.885-31.155 57.919-58.804 7.667-23.466 5.096-50.642-6.801-71.904-14.939-26.699-42.27-44.427-72.37-46.941l-6.319-.528-1.932-7.253c-11.38-42.715-41.004-78.654-80.745-97.955-15.912-7.729-30.603-12.068-48.439-14.31-8.77-1.102-28.611-1.498-34.166-.683m24.409 31.911c30.306 2.432 55.456 14.019 76.718 35.347 19.2 19.259 29.203 39.142 34.081 67.743 1.339 7.848 3.318 11.5 7.952 14.676 2.709 1.856 4.101 2.061 17.598 2.59 13.165.517 15.402.832 21.983 3.101 14.86 5.122 27.707 16.503 34.433 30.502 4.502 9.37 5.795 15.301 5.778 26.495-.029 18.229-7.655 34.01-21.992 45.509-10.189 8.173-18.506 11.568-31.779 12.976-5.515.584-57.037.782-152.541.586-159.893-.328-147.872.114-162.832-5.985-22.249-9.071-38.975-28.983-44.595-53.09-1.844-7.909-1.844-23.664 0-31.573 5.296-22.717 19.431-40.621 40.326-51.081 9.062-4.536 17.082-6.51 29.714-7.314 6.102-.388 12.075-1.098 13.275-1.578 4.474-1.79 7.465-5.288 10.204-11.934 12.663-30.731 32.412-52.063 61.001-65.895 13.049-6.313 26.168-9.865 40.918-11.079 4.247-.35 7.955-.691 8.238-.758.284-.067 5.468.276 11.52.762m2.044 272.208c0 .482-2.496 10.839-5.546 23.015-5.747 22.938-6.16 25.57-4.641 29.598.981 2.603 5.312 7.487 8.054 9.082.939.546 6.629 1.186 12.646 1.423l10.939.431-16.059 22.498-16.059 22.498-.427-17.532c-.475-19.527-.439-19.401-7.172-24.855l-3.222-2.609-17.454-.277c-15.842-.251-17.416-.409-17.051-1.707.222-.786 2.567-14.678 5.211-30.87s4.963-29.92 5.154-30.506c.45-1.383 45.627-1.57 45.627-.189m-153.574 16.687c-1.629.706-3.689 1.939-4.579 2.739-.89.801-7.717 13.646-15.172 28.544-14.313 28.603-15.039 30.731-12.649 37.07 1.522 4.037 5.971 7.915 10.634 9.271 5.866 1.705 11.843.029 15.745-4.415 1.485-1.69 8.471-14.646 15.525-28.79l12.825-25.717-.331-5.231c-.259-4.08-.851-5.913-2.694-8.328-4.517-5.923-12.564-8.067-19.304-5.143m279.219.449c-1.999.99-4.356 2.813-5.238 4.053-.882 1.239-7.406 13.891-14.498 28.116-14.046 28.171-14.456 29.498-11.263 36.529.877 1.932 2.885 4.489 4.461 5.682 3.007 2.275 9.121 4.306 11.095 3.686.637-.2 2.207-.594 3.489-.874 5.464-1.196 7.992-4.93 21.135-31.205 6.959-13.911 13.068-26.835 13.575-28.721.72-2.672.647-4.36-.332-7.655-2.841-9.569-13.382-14.087-22.424-9.611M129.28 417.372c-4.562 2.645-7.142 6.557-15.883 24.081-10.153 20.355-10.719 22.519-7.658 29.259.877 1.932 2.885 4.489 4.461 5.682 3.007 2.275 9.121 4.306 11.095 3.686.637-.2 2.207-.594 3.489-.874 5.212-1.141 8.187-5.25 17.825-24.624 10.145-20.39 10.711-22.558 7.652-29.294-.877-1.932-3.035-4.611-4.794-5.953-2.643-2.016-4.179-2.484-8.839-2.696-3.213-.146-6.376.17-7.348.733m279.851.209c-4.321 1.959-7.074 6.147-16.302 24.8-9.638 19.483-10.204 21.709-7.196 28.331 3.86 8.501 15.083 11.765 22.92 6.664 3.486-2.269 3.777-2.745 13.873-22.755 8.005-15.865 9.36-19.141 9.359-22.614-.001-5.065-2.036-9.154-6.217-12.495-2.679-2.14-4.138-2.627-8.533-2.846-3.238-.162-6.315.194-7.904.915" fill-rule="evenodd"/></svg>