<svg xmlns="http://www.w3.org/2000/svg" viewBox="0 0 512 512"><path d="M308.48 17.848c-2.285 1.07-16.303 14.529-42.418 40.728-38.041 38.163-39.081 39.295-42.072 45.786l-3.067 6.656-6.568 2.978c-6.567 2.977-6.593 3.003-100.736 97.024-64.999 64.916-94.663 95.104-95.768 97.46-2.093 4.464-2.093 11.749 0 16.213 1.036 2.209 10.437 12.21 26.648 28.348 26.594 26.474 27.99 27.546 35.849 27.546 4.185 0 7.996-1.58 14.197-5.885 6.863-4.765 12.417-6.377 20.238-5.875 15.85 1.017 27.377 12.597 28.399 28.531.495 7.718-1.152 13.282-6.001 20.264-5.645 8.128-6.832 13.226-4.765 20.466.838 2.933 5.163 7.713 26.24 28.997 16.576 16.738 26.409 26.03 28.651 27.074 4.468 2.082 11.761 2.077 16.213-.01 2.356-1.104 32.548-30.772 97.463-95.768 94.029-94.147 94.051-94.169 97.112-100.823l3.062-6.656 6.568-2.983c6.408-2.91 7.523-3.934 45.699-41.984 26.202-26.116 39.658-40.129 40.728-42.415 2.084-4.453 2.087-11.748.007-16.213-1.044-2.242-10.336-12.075-27.074-28.651-21.284-21.077-26.064-25.402-28.997-26.24-7.531-2.15-12.14-1.04-20.746 4.997-5.977 4.192-11.364 5.947-18.256 5.947-17.978 0-31.506-14.675-30.224-32.786.463-6.537 1.988-10.515 6.552-17.094 5.043-7.268 6.171-12.56 4.17-19.568-.838-2.933-5.163-7.713-26.24-28.997-16.576-16.738-26.409-26.03-28.651-27.074-4.465-2.08-11.76-2.077-16.213.007m22.29 49.669 13.776 13.756-2.394 5.28c-8.488 18.719-7.438 41.023 2.748 58.362 3.646 6.208 15.977 18.539 22.185 22.185 7.083 4.161 16.225 7.057 25.541 8.091a61.56 61.56 0 0 0 31.265-4.705l6.889-2.978 13.936 13.955 13.937 13.956-31.567 31.578c-17.361 17.369-32.284 31.808-33.161 32.088-1.175.374-3.084-.952-7.253-5.04-3.112-3.051-6.888-6.163-8.39-6.916-7.504-3.762-18.582.501-21.532 8.287-1.154 3.047-1.172 9.171-.035 12.162.482 1.267 3.589 5.101 6.906 8.522 4.39 4.527 5.895 6.643 5.532 7.779-.274.859-39.476 40.534-87.115 88.169l-86.617 86.607-13.956-13.937-13.957-13.938 2.939-6.798c6.381-14.759 6.902-30.706 1.511-46.241-3.052-8.796-6.934-14.714-14.993-22.861-6.365-6.435-8.446-7.934-16.213-11.683-10.81-5.217-16.292-6.447-28.539-6.405-10.329.036-16.985 1.427-25.66 5.36l-5.28 2.394-13.964-13.984-13.964-13.983 86.607-86.617c47.635-47.639 87.31-86.841 88.169-87.115 1.136-.363 3.252 1.142 7.779 5.532 6.854 6.646 8.989 7.781 14.636 7.781 9.247 0 15.704-6.491 15.704-15.787 0-5.548-1.156-7.72-7.702-14.471-3.273-3.376-5.951-6.673-5.951-7.327 0-1.064 62.924-64.815 63.975-64.815.238 0 6.632 6.191 14.208 13.757m-53.863 91.343c-7.371 4.067-10.567 11.09-8.563 18.815.933 3.597 2.311 5.496 8.676 11.953 10.386 10.538 15.655 12.719 23.156 9.585 4.216-1.762 6.918-4.362 8.824-8.493 1.934-4.189 2.027-8.017.298-12.187-1.606-3.875-14.132-16.761-18.491-19.023-3.53-1.832-11.115-2.187-13.9-.65m45.359 43.771c-4.226 1.507-7.213 4.294-9.186 8.569-3.579 7.753-1.455 13.187 9.292 23.78 6.533 6.44 8.331 7.737 12.072 8.707 2.418.627 4.861.998 5.429.825.569-.174 2.083-.546 3.365-.826 2.883-.632 7.988-5.02 9.708-8.346 1.711-3.308 1.685-10.034-.054-13.697-.772-1.627-4.936-6.422-9.254-10.656-9.704-9.514-13.72-11.084-21.372-8.356" fill-rule="evenodd"/></svg>