<svg xmlns="http://www.w3.org/2000/svg" width="512" height="512"><path d="M241.92 48.656c-32.351 2.022-64.984 12.273-93.189 29.276-53.916 32.501-89.791 87.013-98.936 150.335-1.795 12.434-2.052 40.738-.471 52.053 6.859 49.09 26.286 88.834 59.88 122.501 24.884 24.937 53.553 42.152 87.063 52.277 63.809 19.281 131.486 6.975 185.951-33.811 10.516-7.874 31.195-28.553 39.069-39.069 29.226-39.028 44.669-87.221 42.632-133.045-2.405-54.104-23.279-102.094-60.699-139.55-11.819-11.831-20.651-19.077-33.662-27.617-37.554-24.65-81.81-36.213-127.638-33.35m28.587 64.837c1.679 1.679 1.706 2.845 1.706 72.107V256h46.763c35.233 0 47.015.252 47.787 1.024.712.712 1.024 5.242 1.024 14.885 0 13.356-.069 13.909-1.897 15.189-1.673 1.172-9.01 1.329-62.293 1.329-59.259 0-60.429-.032-62.104-1.707-1.683-1.684-1.706-2.844-1.706-86.613s.023-84.93 1.706-86.614c1.555-1.555 2.845-1.706 14.507-1.706 11.662 0 12.952.151 14.507 1.706" fill-rule="evenodd"/></svg>