<svg xmlns="http://www.w3.org/2000/svg" width="512" height="512"><path d="M254.902 48.992c-5.431 1.472-9.949 5.199-12.555 10.358l-2.134 4.223-.259 44.8c-.175 30.308.039 45.823.663 47.962 2.62 8.986 12.723 13.976 21.159 10.451 4.216-1.762 6.918-4.362 8.824-8.493 1.454-3.15 1.577-6.267 1.595-40.438l.018-37.024 5.758.59c22.154 2.27 49.982 12.112 70.804 25.041 26.828 16.66 50.359 42.451 64.456 70.65 11.618 23.24 17.313 45.807 18.293 72.489 1.113 30.319-4.662 57.604-17.826 84.213-26.656 53.885-77.222 89.665-137.196 97.079-9.296 1.149-30.854 1.149-40.151 0-70.054-8.66-128.019-56.867-148.541-123.538-8.997-29.228-9.938-62.658-2.622-93.168 5.949-24.812 18.795-50.138 36.265-71.5 4.229-5.172 6.678-8.972 7.046-10.934 2.281-12.157-8.012-21.967-19.907-18.972-4.728 1.191-8.986 5.287-18.242 17.547-35.183 46.605-49.343 105.404-39.101 162.365 9.86 54.838 42.881 105.016 89.551 136.083 74.072 49.307 169.05 46.668 240.64-6.687 9.184-6.844 30.655-27.807 37.758-36.864 18.303-23.337 33.621-55.501 39.799-83.572 10.353-47.039 4.708-94.039-16.503-137.386-25.766-52.658-72.841-92.006-129.592-108.322-19.848-5.706-49.486-9.259-58-6.953m-98.073 105.194c-2.793 1.785-4.464 5.456-3.76 8.261.723 2.883 79.27 115.288 83.963 120.157 2.196 2.278 6.083 5.024 9.06 6.4 4.622 2.135 6.185 2.409 13.748 2.409 7.479 0 9.138-.283 13.428-2.294 20.22-9.476 25.111-36.88 9.303-52.121-6.375-6.146-117.659-83.479-120.759-83.917-1.639-.231-3.558.194-4.983 1.105" fill-rule="evenodd"/></svg>