<svg xmlns="http://www.w3.org/2000/svg" width="512" height="512"><path d="M241.92 48.656c-40.005 2.5-78.742 17.03-112.138 42.063-10.674 8.001-31.315 28.653-39.23 39.252-21.528 28.826-34.607 59.793-40.362 95.564-2.418 15.032-2.616 43.078-.41 58.198 5.305 36.358 18.806 68.903 40.778 98.296 8.04 10.755 28.658 31.373 39.413 39.413 29.402 21.978 62.03 35.511 98.296 40.768 7.099 1.029 15.606 1.485 27.733 1.485 33.197 0 61.748-6.528 90.88-20.78 22.442-10.978 37.76-21.97 55.912-40.123 18.158-18.158 29.156-33.484 40.119-55.912 34.469-70.51 26.234-153.619-21.488-216.855-32.704-43.336-83.862-72.966-138.116-79.994-12.74-1.65-28.565-2.176-41.387-1.375m42.24 33.648c36.824 6.226 69.838 23.221 96.077 49.459 26.314 26.315 43.064 58.926 49.567 96.504 2.077 11.998 2.077 43.468 0 55.466-3.953 22.845-11.571 43.602-22.971 62.592-40.137 66.861-119.121 99.325-194.588 79.979-60.995-15.636-109.974-63.937-125.967-124.224-3.771-14.215-5.235-24.235-5.803-39.721-1.274-34.697 6.728-66.407 24.385-96.64 7.508-12.856 27.141-36.624 29.503-35.718.546.21 33.307 23.465 72.801 51.68l71.808 51.298-9.014 14.284c-4.958 7.856-9.286 14.576-9.619 14.934-.332.357-28.583-19.723-62.779-44.622-51.649-37.608-62.367-45.081-63.307-44.141-2.573 2.573-16.539 31.772-19.333 40.42-5.125 15.866-6.082 22.484-6.089 42.146-.005 14.835.29 18.963 1.941 27.165 4.157 20.649 13.167 41.859 24.711 58.168 7.361 10.401 24.783 27.823 35.184 35.184 16.309 11.544 37.519 20.554 58.168 24.711 8.193 1.649 12.347 1.947 27.165 1.947s18.972-.298 27.165-1.947c20.649-4.157 41.859-13.167 58.168-24.711 10.401-7.361 27.823-24.783 35.184-35.184 11.544-16.309 20.554-37.519 24.711-58.168 1.649-8.193 1.947-12.347 1.947-27.165s-.298-18.972-1.947-27.165c-4.158-20.654-13.172-41.87-24.714-58.168-6.979-9.856-22.769-25.919-32.621-33.186-14.298-10.548-32.091-19.272-48.213-23.64-7.265-1.969-21.283-4.603-24.533-4.611-1.392-.003-1.494 1.865-1.494 27.303v27.307h-27.306V79.98l16.853.477c9.269.262 20.501 1.094 24.96 1.847" fill-rule="evenodd"/></svg>