<svg xmlns="http://www.w3.org/2000/svg" viewBox="0 0 512 512"><path d="M111.787 48.165v15.739l-31.36.261c-30.665.256-31.44.304-34.964 2.187-4.898 2.617-9.4 7.291-11.603 12.044-1.763 3.807-1.831 5.07-1.845 34.671L32 143.787h448l-.015-30.72c-.014-29.601-.082-30.864-1.845-34.671-2.203-4.753-6.705-9.427-11.603-12.044-3.524-1.883-4.299-1.931-34.964-2.187l-31.36-.261V32.427h-48.64V64H160.427V32.427h-48.64v15.738M31.961 176.859c-.227.592-.311 64.817-.187 142.722L32 461.227l2.381 4.848c2.697 5.493 6.832 9.501 12.509 12.128L50.773 480h410.454l4.848-2.381c5.493-2.697 9.501-6.832 12.128-12.509l1.797-3.883V176.213l-223.813-.215c-179.451-.172-223.895-.001-224.226.861m203.156 32.374c4.771 2.173 4.67.803 4.67 63.351v57.629l-2.49 2.787-2.49 2.787-57.229.231c-63.846.257-62.165.395-64.542-5.293-1.816-4.346-1.871-112.546-.059-116.881 2.487-5.954-1.107-5.631 62.533-5.631 42.662 0 57.943.262 59.607 1.02" fill-rule="evenodd"/></svg>