<svg xmlns="http://www.w3.org/2000/svg" viewBox="0 0 512 512"><path d="M119.359 34.872c-5.767 3.657-7.084 7.023-7.426 18.991l-.284 9.916-13.371.456c-18.623.636-27.38 3.31-39.905 12.189-14.524 10.295-23.762 26.467-25.931 45.395-1.413 12.335-1.156 18.694.838 20.688 1.698 1.698 2.844 1.706 222.72 1.706s221.022-.008 222.72-1.706c1.994-1.994 2.251-8.353.838-20.688-2.169-18.928-11.407-35.1-25.931-45.395-12.54-8.889-21.276-11.553-39.974-12.191l-13.44-.458v-9.107c0-7.971-.262-9.633-2.105-13.332-4.38-8.788-14.535-11.674-22.749-6.464-5.782 3.666-7.083 7.013-7.429 19.101L367.644 64H144.213v-9.219c0-8.091-.257-9.736-2.105-13.445-4.38-8.788-14.535-11.674-22.749-6.464M33.28 176.622c-1.128.713-1.28 15.466-1.28 124.36 0 139.525-.558 127.878 6.864 143.178 6.246 12.873 16.103 22.73 28.976 28.976C83.316 480.644 65.674 480 256 480s172.684.644 188.16-6.864c12.873-6.246 22.73-16.103 28.976-28.976 7.422-15.3 6.864-3.653 6.864-143.178 0-108.894-.152-123.647-1.28-124.36-1.74-1.1-443.7-1.1-445.44 0m174.749 34.394c5.548 2.923 10.454 7.867 13.109 13.209l2.009 4.042v87.893l-2.507 4.526c-3.126 5.642-7.816 9.938-14.031 12.852l-4.796 2.249h-83.626l-4.796-2.249c-6.215-2.914-10.905-7.21-14.031-12.852l-2.507-4.526v-87.893l2.009-4.042c3.476-6.995 10.403-12.841 18.045-15.229 1.173-.367 21.141-.597 44.373-.511l42.24.155 4.509 2.376" fill-rule="evenodd"/></svg>