<svg xmlns="http://www.w3.org/2000/svg" width="512" height="512"><path d="M131.413 112.68c-49.199 4.202-93.89 34.593-116.013 78.893-5.976 11.968-10.279 24.585-12.998 38.115-2.805 13.957-2.805 38.667 0 52.624 4.104 20.418 12.637 40.62 23.85 56.461 7.001 9.89 22.873 26.101 32.452 33.143 18.137 13.334 39.133 22.169 62.479 26.291 8.442 1.49 16.101 1.58 134.817 1.58 118.716 0 126.375-.09 134.817-1.58 23.248-4.105 44.418-13.013 62.479-26.291 9.579-7.042 25.451-23.252 32.452-33.143 11.213-15.841 19.746-36.043 23.85-56.461 2.805-13.957 2.805-38.667 0-52.624-7.822-38.918-29.771-72.011-62.022-93.511-15.221-10.146-35.598-18.398-54.255-21.971-9.714-1.86-10.165-1.867-131.774-2.042-67.115-.097-125.675.135-130.134.516m259.414 33.685c45.263 9.848 80.187 46.239 87.47 91.142 1.629 10.045 1.624 26.972-.011 37.055-7.088 43.705-40.276 79.295-84.22 90.315-11.954 2.998-30.57 3.736-43.318 1.717-23.717-3.757-45.8-15.192-62.85-32.546-14.639-14.899-24.981-34.241-29.443-55.065-2.721-12.703-2.716-33.284.011-46.023 7.126-33.282 29.095-61.756 59.428-77.024 10.513-5.292 23.095-9.132 36.666-11.192 5.495-.834 30.022.263 36.267 1.621" fill-rule="evenodd"/></svg>