<svg xmlns="http://www.w3.org/2000/svg" width="512" height="512"><path d="M247.359 34.872c-5.779 3.664-7.083 7.015-7.428 19.078l-.286 10.004-72.249.236-72.249.237-5.974 2.825c-5.497 2.601-8.506 5.353-37.786 34.56-20.629 20.578-32.404 32.954-33.494 35.204-1.845 3.812-2.172 9.174-.787 12.902 1.163 3.129 64.975 67.077 69.743 69.893 7.594 4.483 9.456 4.585 84.031 4.601l68.907.015v31.529l-75.734.235-75.733.236-5.547 2.667c-7.075 3.401-12.336 8.657-15.694 15.679l-2.652 5.547v111.787l2.229 4.693c4.662 9.816 13.654 16.773 24.167 18.699 3.387.621 28.874.928 76.978.928h71.915l.249 25.813c.286 29.713.474 30.564 7.753 35.085 7.755 4.817 18.131 2.089 22.285-5.858 1.676-3.209 1.799-4.965 2.032-29.227l.249-25.813 68.871-.015c74.537-.016 76.403-.118 83.996-4.601 4.768-2.816 68.58-66.764 69.743-69.893 1.385-3.728 1.058-9.09-.787-12.902-1.09-2.25-12.865-14.626-33.494-35.204-29.28-29.207-32.289-31.959-37.786-34.56l-5.974-2.825-72.32-.237-72.32-.236v-31.527h71.95c48.13 0 73.627-.307 77.014-.928 10.513-1.926 19.505-8.883 24.167-18.699l2.229-4.693V88.32l-2.407-5.209c-3.046-6.59-9.646-13.162-16.366-16.296l-5.12-2.388-75.662-.236-75.663-.235-.286-10.005c-.345-12.064-1.649-15.415-7.428-19.079-5.423-3.439-11.859-3.439-17.282 0" fill-rule="evenodd"/></svg>