<svg xmlns="http://www.w3.org/2000/svg" width="512" height="512"><path d="M199.253 17.395c-5.99 1.916-9.255 3.989-14.743 9.361L179.153 32l-16.403.503c-14.847.456-17.051.723-23.23 2.823-23.961 8.141-40.137 28.398-43.062 53.924-1.158 10.108-1.199 259.066-.044 266.12 3.448 21.054 28.347 38.414 79.51 55.435 26.902 8.95 72.821 20.982 80.076 20.982 3.981 0 34.79-7.328 53.804-12.797 49.148-14.137 79.201-27.923 94.738-43.461 6.497-6.497 9.883-12.789 11.097-20.625.542-3.495.752-52.813.582-136.877-.299-148.142.326-134.89-7.089-150.187-6.045-12.471-15.797-22.386-28.119-28.588-10.246-5.157-18.051-6.825-31.928-6.825-6.382 0-12.93-.381-14.551-.846-1.663-.477-5.01-2.878-7.675-5.506-2.69-2.653-6.931-5.689-9.846-7.048l-5.12-2.387-54.613-.169c-42.398-.131-55.377.076-58.027.924m132.644 111.859c3.957 2.047 4.316 4.616 4.316 30.901 0 26.533-.431 29.371-4.707 30.997-3.044 1.157-147.968 1.157-151.012 0-4.276-1.626-4.707-4.464-4.707-30.997 0-26.038.372-28.812 4.144-30.861 3.426-1.862 148.369-1.9 151.966-.04M271.36 242.102c22.22 5.262 40.7 23.6 46.686 46.325 1.987 7.543 1.936 23.985-.097 31.573-7.546 28.16-32.989 47.787-61.949 47.787-29.028 0-54.281-19.474-61.968-47.787-2.041-7.517-2.08-23.938-.074-31.573 2.372-9.031 8.389-20.273 14.307-26.731 16.615-18.133 39.396-25.207 63.095-19.594m-24.503 31.3c-8.469 2.764-16.123 9.375-19.726 17.042-10.836 23.051 9.042 49.56 33.75 45.008 14.234-2.623 24.407-12.931 26.707-27.063.986-6.059-.681-15.051-3.768-20.318-2.934-5.006-9.155-10.49-14.871-13.11-5.852-2.682-16.376-3.425-22.092-1.559m-79.671 145.535c-6.023 4.008-52.56 51.226-54.085 54.876-2.606 6.237-.993 13.698 3.96 18.318 2.945 2.747 8.922 4.64 12.574 3.982 4.518-.814 5.761-1.619 13.859-8.975l7.386-6.711h210.276l7.186 6.802c7.854 7.434 11.58 9.15 17.755 8.174 10.286-1.624 16.092-12.528 11.95-22.441-1.412-3.378-46.78-49.621-52.723-53.74-6.622-4.589-17.053-3.231-21.83 2.843-4.943 6.284-4.463 14.155 1.296 21.224l3.837 4.711H183.261l3.119-3.806c5.573-6.802 6.834-12.117 4.307-18.164-2.641-6.321-7.818-9.603-15.147-9.603-3.646 0-5.351.512-8.354 2.51" fill-rule="evenodd"/></svg>