<svg xmlns="http://www.w3.org/2000/svg" width="512" height="512"><path d="M200.702 18.032c-4.257 2.107-7.666 6.638-8.397 11.16l-.512 3.166-35.95.247-35.95.248-4.305 2.273c-7.245 3.824-12.798 9.5-16.374 16.736L96 58.364l-.228 146.733-.227 146.732 1.809 3.737c5.11 10.556 34.709 27.084 89.149 49.781 17.993 7.501 67.709 26.44 69.409 26.44.497 0 8.496-2.836 17.776-6.303 88.548-33.075 139.811-59.437 142.289-73.173.285-1.579.407-68.363.271-148.409L416 58.364l-3.214-6.502c-3.576-7.236-9.129-12.912-16.374-16.736l-4.305-2.273-35.95-.248-35.95-.247-.512-3.166c-.736-4.556-4.183-9.107-8.467-11.181-3.651-1.767-4.584-1.798-55.284-1.797-50.899.001-51.618.024-55.242 1.818m162.835 95.043c1.371.709 2.888 2.028 3.371 2.931.569 1.063.879 16.68.879 44.317v42.675l-2.06 2.394-2.059 2.395H148.332l-2.059-2.395-2.06-2.394v-42.675c0-27.516.311-43.256.875-44.31 2.318-4.33-2.292-4.155 110.741-4.192 92.222-.03 105.524.125 107.708 1.254m-98.52 143.837c8.147 1.468 18.191 6.793 24.418 12.948 19.059 18.836 19.217 48.84.357 67.728-9.644 9.659-20.433 14.189-33.792 14.189-13.359 0-24.148-4.53-33.792-14.189-9.383-9.397-14.011-20.529-13.982-33.63.04-18.236 10.491-34.979 26.718-42.8 10.175-4.905 19.278-6.19 30.073-4.246m64.973 168.242-16.036 6.874 7.29 7.45c4.009 4.097 7.289 7.69 7.289 7.985 0 .296-32.92.537-73.156.537H182.22l7.932-7.965 7.932-7.965-16.055-6.535-16.056-6.536-38.398 38.394-38.399 38.394h45.26l7.644-7.68 7.644-7.68h211.631l7.726 7.694 7.726 7.694 22.665-.227 22.666-.228-38.056-38.54-38.055-38.541-16.037 6.875" fill-rule="evenodd"/></svg>