<svg xmlns="http://www.w3.org/2000/svg" width="512" height="512"><path d="M57.173 48.973c-13.196 2.934-22.532 12.995-24.776 26.7-1.09 6.654-1.039 19.267.104 25.504 1.926 10.513 8.883 19.505 18.699 24.167l4.693 2.229h400.214l4.693-2.229c9.816-4.662 16.773-13.654 18.699-24.167 1.143-6.237 1.194-18.85.104-25.504-2.311-14.11-12.258-24.41-26.034-26.957-7.625-1.409-390.015-1.161-396.396.257m11.48 113.712c-1.364 1.471-2.093 3.263-2.093 5.143 0 7.315 26.6 257.32 27.82 261.475 4.938 16.81 19.285 29.99 36.607 33.627 8.952 1.879 241.074 1.879 250.026 0 17.277-3.628 31.672-16.822 36.577-33.527 1.641-5.587 28.255-260.42 27.509-263.394-.293-1.167-1.369-2.9-2.39-3.852-1.854-1.727-2.195-1.73-186.911-1.73H70.745l-2.092 2.258m138.109 63.105c1.502.75 13.195 11.787 25.985 24.527L256 273.482l23.253-23.165c12.79-12.74 24.483-23.777 25.985-24.527 5.437-2.714 14.267-1.038 18.356 3.484 2.184 2.415 4.086 7.507 4.086 10.939 0 6.196-2.073 8.815-25.835 32.641l-23.191 23.253 23.609 23.68c12.985 13.024 24.015 24.761 24.513 26.082 1.187 3.154 1.156 10.445-.054 12.8-1.415 2.756-5.123 6.543-7.746 7.914-3.084 1.611-10.361 1.527-13.738-.159-1.502-.75-13.192-11.784-25.977-24.521l-23.246-23.156-23.261 23.198c-15.279 15.237-24.349 23.651-26.433 24.52-9.663 4.026-20.615-2.331-21.777-12.642-.85-7.542-.069-8.595 25.242-34.036l23.56-23.68-23.191-23.253c-23.917-23.981-25.853-26.444-25.816-32.827.021-3.699 2.399-9.406 4.767-11.44 4.881-4.193 12.456-5.393 17.656-2.797" fill-rule="evenodd"/></svg>