<svg xmlns="http://www.w3.org/2000/svg" width="512" height="512"><path d="M204.373 33.61c-11.876 3.813-21.975 13.474-26.207 25.071-1.51 4.139-1.844 7.421-2.172 21.313l-.388 16.422-49.627-.046c-27.295-.025-50.39.226-51.323.559-8.197 2.918-12.839 13.239-9.478 21.072 1.436 3.346 6.073 7.865 9.331 9.093 1.321.498 6.903.906 12.404.906h10.003l9.19 147.84c5.055 81.312 9.56 151.971 10.012 157.02 2.016 22.519 13.256 37.819 32.881 44.759l6.734 2.381h200.534l6.734-2.381c15.943-5.638 26.995-17.709 31.169-34.044 1.289-5.042 3.451-35.961 11.255-160.908L415.085 128h10.085c11.354 0 14.086-.781 18.298-5.232 4.654-4.917 5.758-10.661 3.219-16.738-1.703-4.077-3.49-5.992-7.5-8.039-3.133-1.599-5.295-1.665-53.03-1.621l-49.763.046-.388-16.422c-.328-13.892-.662-17.174-2.172-21.313-3.555-9.74-11.671-18.537-21.323-23.11l-5.738-2.718-49.493-.169c-38.34-.132-50.263.077-52.907.926m97.355 33.211c1.99 2.314 2.059 2.849 2.059 16v13.606h-95.574V82.963c0-14.393.524-16.469 4.572-18.129 1.005-.412 20.966-.673 44.356-.579l42.528.172 2.059 2.394m80.927 65.232c-.225 2.23-4.41 69.142-9.299 148.694-4.889 79.552-9.25 147.434-9.691 150.85-.999 7.733-3.849 12.43-8.948 14.745-3.439 1.561-7.07 1.621-98.717 1.621-90.521 0-95.313-.077-98.56-1.568-1.877-.862-4.071-2.308-4.874-3.212-4.108-4.627-3.824-1.33-13.506-156.859-5.085-81.681-9.425-150.719-9.645-153.417l-.4-4.907h254.051l-.411 4.053m-205.588 29.716c-3.768 1.959-5.994 4.304-7.719 8.131-1.494 3.312-1.424 6.586 2.498 117.5 2.383 67.415 4.412 115.315 4.959 117.08 2.163 6.982 7.975 11.29 15.231 11.29 7.879 0 14.722-5.785 15.708-13.28.805-6.119-7.71-229.371-8.858-232.25-1.242-3.115-4.796-6.983-7.91-8.61-3.061-1.599-10.715-1.523-13.909.139m70.676.81c-1.96 1.175-4.456 3.571-5.547 5.325l-1.983 3.189v233.814l1.995 3.207c6.232 10.024 21.352 10.024 27.584 0l1.995-3.207V171.093l-1.995-3.207c-4.505-7.247-14.714-9.704-22.049-5.307m72.684-.605c-3.452 2.209-6.074 5.175-7.31 8.266-1.151 2.878-9.668 226.118-8.861 232.25 1.422 10.813 14.069 16.727 23.7 11.083 4.103-2.404 5.801-4.54 7.228-9.093.562-1.794 2.543-48.481 4.961-116.907l4.025-113.92-1.744-3.932c-2.651-5.981-6.864-8.761-13.798-9.105-4.442-.221-6.186.068-8.201 1.358" fill-rule="evenodd"/></svg>