<svg xmlns="http://www.w3.org/2000/svg" width="512" height="512"><path d="M41.387 129.56c-4.735 2.258-7.298 5.325-8.579 10.266-1.321 5.093-.567 9.2 2.502 13.617 1.201 1.729 29.94 30.849 63.864 64.712 44.105 44.026 63.25 62.574 67.191 65.096 15.458 9.895 35.902 9.885 51.27-.026 3.559-2.295 15.49-13.456 33.672-31.496 15.488-15.368 29.101-28.429 30.251-29.024 2.901-1.5 10.235-1.354 13.289.265 1.397.741 31.339 30.172 66.538 65.402l63.997 64.055h-38.638c-42.664 0-42.073-.068-46.875 5.401-6.536 7.444-3.911 20.004 5.091 24.362 3.701 1.792 4.336 1.81 62.989 1.791 55.639-.017 59.461-.114 62.7-1.585 4.753-2.159 7.766-6.044 8.891-11.462.651-3.135.869-22.32.702-61.662L480 252.16l-2.263-3.849c-3.023-5.143-8.165-8.05-14.094-7.969-5.238.071-8.837 1.951-12.566 6.563l-2.65 3.278-.247 39.342-.246 39.343-63.754-63.597c-35.064-34.978-65.289-64.764-67.167-66.189-14.793-11.235-34.95-12.743-51.965-3.889-5.299 2.757-9.767 6.827-35.511 32.351-16.197 16.058-30.526 29.606-31.842 30.106-3.049 1.16-8.308 1.167-11.399.016-1.337-.498-30.029-28.447-64.696-63.021-34.261-34.17-63.544-62.98-65.072-64.022-3.936-2.682-10.744-3.16-15.141-1.063" fill-rule="evenodd"/></svg>