<svg xmlns="http://www.w3.org/2000/svg" width="512" height="512"><path d="M250.92 48.863c-1.62.537-4.308 2.368-5.973 4.07-2.036 2.08-37.03 65.957-106.843 195.027C81.006 353.523 33.826 440.815 33.259 441.941c-3.011 5.991.303 15.92 6.627 19.851l3.207 1.995h424.96l3.414-1.781c6.09-3.178 9.823-11.046 8.163-17.206-.932-3.462-207.981-386.325-211.29-390.707-3.591-4.754-11.6-7.159-17.42-5.23m95.666 215.913 90.159 166.584-90.372.217c-49.705.12-131.041.12-180.746 0l-90.372-.217 90.159-166.584C215.002 173.155 255.765 98.192 256 98.192c.235 0 40.998 74.963 90.586 166.584" fill-rule="evenodd"/></svg>