<svg xmlns="http://www.w3.org/2000/svg" width="512" height="512"><path d="M52.604 81.565c-12.434 3.01-25.592 13.288-31.042 24.248-5.64 11.342-5.349 4.477-5.349 126.136 0 98.013.152 111.007 1.353 115.661 4.134 16.023 16.269 28.745 32.781 34.366 4.534 1.543 11.505 1.597 205.653 1.597s201.119-.054 205.653-1.597c16.512-5.621 28.647-18.343 32.781-34.366 1.201-4.654 1.353-17.648 1.353-115.661 0-121.659.291-114.794-5.349-126.136-5.543-11.147-18.649-21.274-31.433-24.288-7.976-1.88-398.628-1.842-406.401.04M121.6 401.428c-5.29 2.371-9.776 9.057-9.776 14.572 0 5.532 5.168 12.875 10.472 14.879 3.371 1.274 264.037 1.274 267.408 0 5.304-2.004 10.472-9.347 10.472-14.879s-5.168-12.875-10.472-14.879c-1.66-.628-43.009-.897-133.973-.874-108.302.027-132.024.236-134.131 1.181" fill-rule="evenodd"/></svg>