<svg xmlns="http://www.w3.org/2000/svg" width="512" height="512"><path d="M247.816 34.535c-2.446 1.466-4.293 3.6-6.176 7.132-1.478 2.772-3.202 5.469-3.833 5.992-.63.523-6.491 1.723-13.023 2.667-48.773 7.044-92.41 28.865-127.108 63.563-31.078 31.078-52.104 69.841-60.961 112.386-4.251 20.421-5.916 47.417-3.233 52.425 1.874 3.499 6.929 7.868 9.84 8.506 1.282.28 2.754.636 3.27.789 3.005.895 8.96-1.642 14.085-6.001 11.02-9.373 21.814-13.497 35.323-13.497s24.303 4.124 35.323 13.497c5.972 5.079 10.726 6.741 15.927 5.568 3.556-.802 5.318-1.906 11.483-7.193 14.348-12.307 34.273-17.49 52.929-13.769 8.416 1.678 21.501 7.655 25.487 11.64l2.664 2.664-.227 78.278-.226 78.277-2.056 3.001c-4.795 6.996-12.886 9.34-20.131 5.833-5.105-2.471-7.996-6.833-8.936-13.485-1.035-7.321-3.08-11.072-7.596-13.936-4.423-2.805-11.258-3.342-15.383-1.209-5.271 2.726-9.48 9.776-9.452 15.83.006 1.174.573 4.788 1.26 8.032 6.982 32.959 44.289 48.805 72.534 30.808 6.305-4.017 13.905-12.694 17.206-19.644 5.466-11.511 5.376-9.932 5.393-94.863l.014-76.948 2.651-2.651c3.974-3.974 17.069-9.951 25.474-11.627 18.656-3.721 38.581 1.462 52.929 13.769 6.165 5.287 7.927 6.391 11.483 7.193 5.201 1.173 9.955-.489 15.927-5.568 11.015-9.368 21.753-13.46 35.323-13.46s24.308 4.092 35.323 13.46c5.125 4.359 11.08 6.896 14.085 6.001.516-.153 2.004-.513 3.307-.799 3.93-.862 8.987-6.118 10.371-10.779 2.029-6.83.182-30.922-3.88-50.606-6.75-32.719-21.671-64.538-43.463-92.691-7.556-9.76-24.962-27.381-34.943-35.373-31.635-25.331-68.943-41.515-109.286-47.409-6.737-.984-12.749-2.204-13.359-2.71-.61-.506-2.321-3.196-3.803-5.977-3.457-6.484-7.751-9.228-14.427-9.216-3.374.006-5.559.572-8.109 2.1" fill-rule="evenodd"/></svg>