<svg xmlns="http://www.w3.org/2000/svg" width="512" height="512"><path d="M247.743 34.579c-4.063 2.435-6.692 6.215-7.553 10.861-.335 1.807-1.09 3.2-1.735 3.2-.627 0-5.657.592-11.177 1.316-39.974 5.24-77.367 20.996-110.371 46.505-10.402 8.04-28.62 26.257-36.659 36.659-30.497 39.457-47.193 85.601-48.01 132.693-.142 8.17.109 10.775 1.242 12.887 1.877 3.5 6.932 7.869 9.842 8.506 1.282.28 2.796.652 3.365.826 2.634.805 9.755-2.061 13.346-5.371 12.085-11.139 26.981-16.034 42.457-13.951 11.822 1.591 20.548 5.721 29.477 13.951 6.029 5.558 14.358 6.786 20.174 2.975 1.054-.691 4.213-3.239 7.021-5.664 6.4-5.527 18.619-11.678 26.438-13.309 17.47-3.646 36.314.224 50.133 10.293l4.054 2.954v77.802c0 77.54-.006 77.815-1.81 81.542-3.686 7.613-13.064 10.786-20.804 7.039-5.281-2.556-7.989-6.793-9.027-14.124-.999-7.054-3.205-10.821-7.975-13.617-7.23-4.236-17.48-1.901-21.712 4.947-6.11 9.885-.44 30.315 11.748 42.336 9.745 9.611 20.292 13.971 33.793 13.971 21.229 0 38.277-12.521 46.207-33.939 1.485-4.01 1.605-9.15 2.006-85.334l.427-81.066 6.599-4.362c9.571-6.327 18.259-9.031 30.521-9.499 12.577-.479 20.081 1.039 30.293 6.13 4.224 2.105 9.978 5.812 12.785 8.236 2.808 2.425 5.967 4.973 7.021 5.664 5.816 3.811 14.145 2.583 20.174-2.975 8.929-8.23 17.655-12.36 29.477-13.951 15.476-2.083 30.372 2.812 42.457 13.951 3.591 3.31 10.712 6.176 13.346 5.371.569-.174 2.083-.546 3.365-.826 2.91-.637 7.965-5.006 9.842-8.506 1.133-2.112 1.384-4.717 1.242-12.887-.827-47.661-18.449-95.639-49.365-134.4-7.424-9.309-24.288-26.172-33.597-33.597-26.478-21.119-60.746-37.629-92.194-44.419-8.487-1.832-27.585-4.757-31.061-4.757-.645 0-1.4-1.393-1.735-3.2-2.028-10.94-14.526-16.58-24.067-10.861m37.697 47.709c40.776 6.502 77.178 25.08 106.24 54.218 21.533 21.589 37.16 46.889 46.436 75.178 3.679 11.219 7.831 28.733 7.008 29.557-.215.215-1.096.028-1.958-.415-.861-.443-4.446-1.53-7.966-2.416-8.767-2.206-30.309-2.226-38.4-.036-8.636 2.337-16.121 5.36-22.5 9.088-3.217 1.88-6.025 3.418-6.241 3.418-.215 0-2.12-1.189-4.233-2.643-5.914-4.069-18.772-9.85-26.227-11.792-26.677-6.949-53.69-2.695-76.26 12.01l-5.37 3.499-4.565-3.03c-22.621-15.02-50.132-19.478-77.003-12.479-7.455 1.942-20.313 7.723-26.227 11.792-2.113 1.454-4.018 2.643-4.233 2.643-.216 0-3.024-1.538-6.241-3.418-6.365-3.719-13.831-6.738-22.5-9.096-8.45-2.299-30.588-2.139-39.253.284-3.52.985-7.072 2.068-7.894 2.408-1.948.806-1.925.432.702-11.279 7.767-34.63 25.529-67.012 50.712-92.45 31.048-31.364 69.361-50.289 113.065-55.848 12.045-1.533 41.01-1.091 52.908.807" fill-rule="evenodd"/></svg>