<svg xmlns="http://www.w3.org/2000/svg" width="512" height="512"><path d="M239.787 40.472v8.045l-4.907.532c-43.53 4.715-80.173 18.987-114.491 44.592-12.848 9.587-33.278 30.063-43.221 43.319-23.734 31.644-38.365 67.58-43.424 106.661-1.615 12.472-2.821 49.926-1.608 49.926.459 0 4.072-2.934 8.029-6.52 10.19-9.234 14.929-12.652 22.181-15.999 19.919-9.193 43.368-7.041 62.241 5.714 2.112 1.427 7.387 6.05 11.722 10.273l7.882 7.677 9.184-8.949c14.138-13.777 25.636-19.221 42.5-20.124 14.328-.768 29.421 3.581 40.285 11.606l3.627 2.679v77.805c0 77.543-.006 77.818-1.81 81.545-2.683 5.542-7.349 8.319-13.977 8.319-4.262 0-5.893-.429-8.706-2.29-5.539-3.666-7.081-7.87-7.081-19.312v-9.544h-32.426l.014 9.6c.009 5.28.58 12.288 1.269 15.573 4.675 22.267 24.287 38.252 46.93 38.252s42.255-15.985 46.93-38.252c1.049-5 1.256-18.659 1.269-83.835l.014-77.861 3.627-2.679c10.864-8.025 25.957-12.374 40.285-11.606 16.864.903 28.362 6.347 42.5 20.124l9.184 8.949 7.882-7.677c9.057-8.822 13.651-12.14 22.24-16.06 9.082-4.146 14.18-5.144 26.176-5.124 8.731.014 11.822.377 17.036 2 11.858 3.691 17.809 7.448 31.351 19.792 3.574 3.258 6.882 5.924 7.351 5.924 1.222 0 .027-36.883-1.597-49.3-6.556-50.129-28.215-94.596-63.081-129.509-18.71-18.734-36.15-31.364-59.265-42.919-25.343-12.669-46.518-18.76-79.209-22.787l-4.48-.552V32.427h-32.426v8.045" fill-rule="evenodd"/></svg>