<svg xmlns="http://www.w3.org/2000/svg" viewBox="0 0 512 512"><path d="M123.733 137.826c-21.003 3.668-43.335 14.368-58.908 28.227-23.543 20.95-37.028 47.601-40.223 79.494-3.166 31.601 8.133 66.055 29.352 89.498 16.039 17.72 32.842 28.591 55.023 35.598 15.146 4.785 19.685 5.18 59.983 5.216 36.216.034 37.217-.01 41.087-1.8 4.782-2.21 9.988-7.235 12.275-11.847 2.35-4.74 2.35-15.684 0-20.424-2.228-4.492-7.451-9.613-11.838-11.605-3.258-1.479-5.979-1.614-32.991-1.638-42.334-.038-51.96-1.203-65.28-7.903-19.354-9.736-34.224-28.592-38.33-48.606-1.736-8.462-1.736-23.61 0-32.072 4.988-24.312 25.126-45.743 50.003-53.214 5.888-1.768 8.382-1.904 43.367-2.368 36.776-.487 37.162-.51 41.625-2.526 8.302-3.749 14.695-13.258 14.695-21.856 0-8.376-6.153-17.772-14.047-21.448l-4.299-2.002-37.547.079c-26.802.057-39.378.399-43.947 1.197m178.741.726c-7.894 3.676-14.047 13.072-14.047 21.448 0 8.598 6.393 18.107 14.695 21.856 4.463 2.016 4.849 2.039 41.625 2.526 34.996.464 37.477.599 43.373 2.37 24.841 7.459 45.015 28.93 49.997 53.212.754 3.674 1.35 10.753 1.35 16.036 0 11.9-1.766 20.616-6.025 29.733-9.04 19.352-24.712 33.146-44.644 39.295-8.629 2.662-21.377 3.488-54.291 3.517-27.012.024-29.733.159-32.991 1.638-4.387 1.992-9.61 7.113-11.838 11.605-2.35 4.74-2.35 15.684 0 20.424 2.287 4.612 7.493 9.637 12.275 11.847 3.87 1.79 4.871 1.834 41.087 1.8 31.729-.029 38.279-.251 45.1-1.534 37.841-7.117 68.065-29.176 86.221-62.929 10.167-18.9 15.196-44.302 13.037-65.849-3.195-31.893-16.68-58.544-40.223-79.494-11.746-10.453-29.812-20.461-44.828-24.834-14.724-4.288-19.365-4.655-58.88-4.662l-36.694-.007-4.299 2.002" fill-rule="evenodd"/></svg>