<svg xmlns="http://www.w3.org/2000/svg" width="512" height="512"><path d="M408.579 81.955c-4.993 2.637-7.781 6.96-8.197 12.712-.404 5.591-.307 5.824 8.572 20.533 12.958 21.467 23.894 45.964 29.334 65.707 6.891 25.011 9.312 45.225 9.198 76.8-.155 42.68-6.51 74.266-21.629 107.501-5.001 10.993-14.789 29.031-19.691 36.285-4.946 7.321-6.159 10.647-5.783 15.85 1.037 14.338 19.553 19.741 28.309 8.261 8.298-10.879 25.169-42.797 32.454-61.399 14.132-36.087 20.617-80.019 18.396-124.619-2.203-44.225-10.345-76.67-28.538-113.719-7.615-15.509-17.82-33.556-22.321-39.475-4.482-5.893-13.556-7.896-20.104-4.437M224 97.469c-3.955 1.402-4.841 2.097-52.48 41.158l-44.8 36.733-37.973.427c-37.649.423-38.012.444-42.434 2.443-5.49 2.482-10.531 7.804-12.687 13.393-1.544 4.005-1.626 7.259-1.626 64.804v60.586l1.966 4.267c3.344 7.258 9.069 12.081 16.545 13.938 2.729.678 15.38.995 39.723.995h35.719l46.037 37.665c25.32 20.715 46.915 38.241 47.99 38.946 3.441 2.26 11.1 3.591 15.669 2.725 8.532-1.618 15.805-7.517 18.652-15.127C255.972 395.958 256 393.569 256 256s-.028-139.958-1.699-144.422c-2.01-5.374-7.291-10.89-12.808-13.381-4.267-1.926-13.08-2.293-17.493-.728m138.847 31.494c-6.334 1.827-12.274 11.394-10.777 17.359.289 1.151 4.832 10.652 10.095 21.112 5.503 10.938 10.887 23.008 12.671 28.406 7.099 21.479 10.235 49.056 8.44 74.209-2.129 29.831-6.937 46.523-21.904 76.045-4.778 9.423-8.948 18.174-9.267 19.445-.319 1.271-.15 3.929.376 5.906 3.385 12.723 17.994 16.668 26.989 7.288 3.395-3.54 16.71-29.399 21.894-42.52 10.096-25.553 14.363-49.693 14.33-81.066-.043-41.515-8.209-72.641-28.988-110.507-5.494-10.011-7.881-12.875-12.519-15.022-3.718-1.721-6.987-1.91-11.34-.655m-139.481 186.22-.219 59.183-39.946-32.66c-21.97-17.963-41.709-33.49-43.865-34.503-6.35-2.985-11.837-3.406-44.403-3.411L64 303.787v-95.484l34.347-.263c37.251-.285 37.788-.348 44.846-5.272 1.735-1.21 20.434-16.369 41.554-33.688l38.4-31.487.219 59.203c.12 32.562.12 85.836 0 118.387m92.083-138.353c-4.58 1.213-9.545 6.194-10.79 10.826-1.217 4.527-.597 8.38 2.253 14.005 1.173 2.315 3.395 7.52 4.938 11.567 11.141 29.233 10.57 59.382-1.688 89.101-6.358 15.413-6.554 16.066-5.972 19.946 1.943 12.956 18.036 18.23 26.976 8.841 6.09-6.395 15.408-31.766 18.811-51.223 2.457-14.04 2.421-33.438-.088-48.213-3.43-20.19-13.824-47.369-19.859-51.924-2.538-1.915-8.377-4.08-10.457-3.876-.469.046-2.325.473-4.124.95" fill-rule="evenodd"/></svg>