<svg xmlns="http://www.w3.org/2000/svg" width="512" height="512"><path d="M338.846 96.523c-2.071.394-5.335 1.752-7.253 3.019-1.917 1.267-23.645 18.844-48.284 39.061l-44.798 36.757-37.976.427-37.975.426-4.885 2.399c-2.686 1.319-6.217 3.956-7.847 5.859-5.778 6.751-5.615 4.67-5.615 71.529s-.163 64.778 5.615 71.529c1.63 1.903 5.161 4.54 7.847 5.859l4.885 2.399 37.973.426 37.974.427 45.653 37.531c25.109 20.642 47.538 38.481 49.842 39.642 8.921 4.497 21.432 1.8 28.17-6.071 6.023-7.037 5.615 4.006 5.615-151.742 0-124.827-.148-140.93-1.327-144.388-3.636-10.674-15.817-17.329-27.614-15.089M336.213 256c0 65.237-.229 118.613-.509 118.613s-17.253-13.728-37.717-30.506c-44.728-36.672-43.283-35.553-48.955-37.928-4.407-1.845-5.645-1.916-38.899-2.217l-34.346-.31v-95.439L208 208.2c34.837-.014 38.719-.399 45.566-4.515 2.043-1.228 21.186-16.627 42.541-34.22 21.354-17.593 39.114-32.008 39.466-32.033.352-.025.64 53.331.64 118.568" fill-rule="evenodd"/></svg>