<svg xmlns="http://www.w3.org/2000/svg" width="512" height="512"><path d="M259.342 96.358c-1.682.334-4.468 1.35-6.192 2.258-1.724.908-23.734 18.547-48.911 39.197l-45.777 37.547-38.058.427c-36.513.409-38.216.5-41.974 2.238-4.719 2.183-9.464 6.76-12.078 11.651l-1.925 3.604v125.44l1.925 3.604c2.614 4.891 7.359 9.468 12.078 11.651 3.777 1.747 5.261 1.82 41.732 2.059l37.815.247 46.238 37.944c25.431 20.87 47.963 38.79 50.071 39.822 5.269 2.582 13.328 2.528 19.401-.129 5.458-2.388 10.517-7.702 12.687-13.328C287.95 396.504 288 392.016 288 256s-.05-140.504-1.626-144.59c-4.056-10.515-16.1-17.221-27.032-15.052m134.471 33.26c-3.973 1.839-7.615 5.476-8.905 8.891-2.06 5.452-1.248 8.045 8.745 27.905 9.343 18.571 13.58 28.89 16.319 39.747 4.454 17.648 5.944 33.223 5.373 56.15-.847 34.028-6.003 53.015-23.731 87.385-8.108 15.72-8.824 18.425-6.401 24.173 1.396 3.311 5.806 7.644 9.28 9.118 5.693 2.416 14.015.054 17.901-5.081 5.415-7.156 19.263-36.015 24.31-50.663 14.761-42.846 15.044-97.191.729-140.603-4.082-12.381-12.38-30.773-19.775-43.831-5.698-10.061-6.632-11.178-11.045-13.204-4.342-1.994-8.474-1.99-12.8.013M255.659 374.386c-.192.191-18.053-14.176-39.691-31.926-21.639-17.75-41.164-33.308-43.389-34.573-6.194-3.522-12.489-4.087-45.646-4.094l-30.506-.006v-95.574l31.786-.013c34.311-.014 38.252-.405 45.139-4.478 2.043-1.208 21.379-16.684 42.968-34.39l39.253-32.193.217 118.45c.119 65.147.06 118.606-.131 118.797m92.71-197.765c-4.318 1.024-8.603 4.375-10.462 8.182-2.611 5.347-2.191 9.707 1.785 18.537 7.945 17.646 10.953 30.09 11.623 48.089.755 20.263-1.993 34.545-10.442 54.284-5.185 12.114-5.703 15.859-2.977 21.492 1.886 3.894 7.223 7.827 11.783 8.683 3.966.744 8.972-.906 12.725-4.193 5.634-4.935 14.617-27.652 18.789-47.517 1.959-9.327 2.253-12.8 2.312-27.325.043-10.317-.361-19.072-1.061-23.04-2.705-15.333-8.991-34.91-15.05-46.866-2.525-4.982-7.03-9.065-11.317-10.256-3.593-.997-3.794-.999-7.708-.07" fill-rule="evenodd"/></svg>