<svg xmlns="http://www.w3.org/2000/svg" width="512" height="512"><path d="M291.265 96.488c-1.959.375-4.696 1.267-6.082 1.984-1.386.717-23.358 18.384-48.826 39.261L190.05 175.69l-37.638.262c-37.471.26-37.659.27-42.099 2.278-5.49 2.482-10.531 7.804-12.687 13.393-1.544 4.005-1.626 7.259-1.626 64.804v60.586l1.966 4.267c3.344 7.258 9.069 12.081 16.545 13.938 2.729.678 15.373.995 39.691.995h35.686l45.643 37.524c26.465 21.757 47.614 38.517 50.336 39.889 11.142 5.617 24.944 1.126 31.19-10.15l2.516-4.543V113.067l-2.56-4.628c-4.998-9.035-15.499-13.909-25.748-11.951m-3.899 218.806-.219 59.295-39.579-32.457c-21.768-17.851-41.405-33.382-43.638-34.514-6.455-3.271-12.954-3.818-45.423-3.825L128 303.787v-95.468l34.347-.274c31.551-.252 34.659-.407 38.186-1.906 5.886-2.501 7.994-4.126 48.64-37.497l37.974-31.177.219 59.267c.12 32.598.12 85.951 0 118.562m92.083-138.464c-4.58 1.213-9.545 6.194-10.79 10.826-1.158 4.308-.6 8.393 1.786 13.069 3.415 6.696 7.753 18.414 9.72 26.262 6.836 27.27 3.983 54.408-8.598 81.768-3.583 7.793-4.176 10.873-2.961 15.387 2.639 9.799 14.004 14.629 23.214 9.866 3.505-1.813 6.419-6.159 10.652-15.889 15.611-35.883 17.571-73.055 5.749-109.052-4.887-14.883-10.538-26.554-14.191-29.311-2.538-1.915-8.377-4.08-10.457-3.876-.469.046-2.325.473-4.124.95" fill-rule="evenodd"/></svg>