<svg xmlns="http://www.w3.org/2000/svg" width="512" height="512"><path d="M291.265 96.455c-1.959.393-4.706 1.306-6.105 2.029-1.399.724-23.372 18.391-48.828 39.261l-46.285 37.946-38.063.261-38.064.261-4.321 2.281c-5.445 2.874-9.907 7.773-11.985 13.162-1.529 3.963-1.614 7.388-1.614 64.771v60.586l2.017 4.461c2.243 4.962 7.685 10.46 12.645 12.776 2.943 1.374 6.933 1.546 41.292 1.782l38.034.262 46.446 38.069c25.545 20.938 48.043 38.778 49.995 39.645 11.433 5.078 24.235.72 30.497-10.381l2.647-4.694.224-141.381.223-141.382-1.815-4.85c-4.01-10.718-15.63-17.13-26.94-14.865m85.445 81.775c-3.793 2.313-7.039 6.526-8.119 10.54-1.073 3.982-.345 6.603 5.89 21.232 12.518 29.365 12.407 61.475-.319 92.327-6.358 15.413-6.554 16.066-5.972 19.946 1.836 12.242 16.624 17.898 26.053 9.965 6.455-5.432 16.592-33.047 20.156-54.907 2.687-16.484 1.388-41.265-3.046-58.105-3.601-13.675-11.763-33.912-15.22-37.735-4.276-4.729-14.267-6.407-19.423-3.263" fill-rule="evenodd"/></svg>