<svg xmlns="http://www.w3.org/2000/svg" width="512" height="512"><path d="m222.72 124.158-64.427 51.546-47.146.041-47.147.042v160.426h94.009l64.382 51.414c35.41 28.277 64.754 51.541 65.209 51.697.532.183.827-65.206.827-183.253 0-100.946-.288-183.52-.64-183.499-.352.022-29.632 23.235-65.067 51.586m177.456 1.198c-3.03 1.795-9.226 5.434-13.769 8.088l-8.259 4.824 6.036 10.439c25.145 43.485 32.261 69.426 31.161 113.604-.644 25.907-3.904 42.706-12.269 63.236-4.002 9.819-14.367 30.302-21.056 41.605l-3.916 6.619 1.881 1.177c1.035.648 6.106 3.573 11.268 6.501 5.163 2.928 10.59 6.047 12.06 6.932l2.673 1.607 4.495-7.9c28.036-49.277 37.466-81.097 37.493-126.515.025-40.989-9.295-75.301-30.943-113.92-4.954-8.839-10.768-18.911-11.186-19.379-.088-.099-2.639 1.288-5.669 3.082m-55.003 52.186c-7.04 3.709-13.184 6.881-13.653 7.047-.469.167 1.915 6.031 5.299 13.03 11.465 23.717 14.328 35.382 14.328 58.381 0 22.874-2.848 34.546-14.13 57.929-3.258 6.752-5.924 12.585-5.924 12.961 0 .63 26.526 14.443 27.736 14.443 1.124 0 13.274-26.506 16.615-36.248 1.928-5.622 4.515-15.03 5.749-20.907 1.959-9.327 2.253-12.8 2.312-27.325.043-10.317-.361-19.072-1.061-23.04-1.844-10.456-5.936-25.093-9.55-34.166-3.984-10-13.377-29.009-14.287-28.915-.349.036-6.394 3.101-13.434 6.81" fill-rule="evenodd"/></svg>