<svg xmlns="http://www.w3.org/2000/svg" width="512" height="512"><path d="M334.08 98.422c-2.373 1.15-24.605 18.757-50.08 39.66l-45.813 37.593-37.813.269-37.814.269-4.885 2.399c-2.686 1.319-6.217 3.956-7.847 5.859-5.778 6.751-5.615 4.67-5.615 71.529s-.163 64.778 5.615 71.529c1.63 1.903 5.161 4.54 7.847 5.859l4.885 2.399 37.803.254 37.803.255 45.824 37.61c29.463 24.183 47.457 38.373 50.4 39.746 11.581 5.402 25.492.364 31.292-11.334 1.648-3.325 1.678-5.904 1.678-146.318 0-140.414-.03-142.993-1.678-146.318-4.059-8.185-11.176-12.621-20.935-13.047-5.39-.236-7.074.046-10.667 1.787" fill-rule="evenodd"/></svg>