<svg xmlns="http://www.w3.org/2000/svg" width="512" height="512"><path d="M57.6 65.613c-4.131 1.906-6.731 4.608-8.493 8.825-1.556 3.724-1.636 5.845-.395 10.469.799 2.976 23.709 26.217 178.982 181.565 122.123 122.182 179.156 178.682 181.535 179.84 12.054 5.865 24.674-4.674 22.183-18.525-.528-2.935-18.047-20.729-179.092-181.9C127.835 121.303 72.78 66.755 70.4 65.639c-4.317-2.026-8.45-2.034-12.8-.026m351.573 16.021c-5.811 3.071-8.96 8.122-8.96 14.374 0 4.447.484 5.505 8.978 19.619 15.403 25.593 25.92 50.745 31.958 76.422 5.418 23.042 7.765 54.149 6.161 81.653-2.01 34.47-7.391 58.902-19.008 86.315-2.307 5.445-4.195 10.471-4.195 11.168 0 2.129 19.753 21.348 21.94 21.348 2.509 0 3.597-1.78 10.122-16.554 12.302-27.856 19.41-55.488 22.63-87.979 1.478-14.917 1.243-51.057-.434-66.82-4.856-45.63-17.388-81.928-42.859-124.136-6.554-10.862-8.427-13.172-12.268-15.132-4.021-2.051-10.467-2.179-14.065-.278M224 97.469c-1.408.499-3.712 1.699-5.12 2.665-5.813 3.991-34.384 27.882-34.875 29.163-.809 2.109.264 3.499 10.373 13.439 7.297 7.174 9.698 9.063 10.951 8.612.882-.317 5.348-3.613 9.924-7.323l8.32-6.747v34.61l13.47 13.469c7.408 7.408 14.101 13.47 14.872 13.47.772 0 2.007-.604 2.744-1.341 1.18-1.181 1.341-6.067 1.341-40.805 0-44.738-.057-45.224-6.15-52.146-4.879-5.542-10.549-8.109-17.743-8.033-3.051.033-6.699.468-8.107.967m137.115 32.747c-5.801 2.891-8.688 7.536-8.688 13.978 0 4.049.727 5.857 6.944 17.25 16.241 29.764 23.002 53.834 24.295 86.493.864 21.818-1.53 43.1-6.95 61.782-2.537 8.747-2.718 10.045-1.718 12.373 1.344 3.129 19.305 20.948 21.116 20.948 2.154 0 4.007-2.836 6.745-10.319 10.442-28.545 14.641-58.602 12.705-90.959-2.139-35.762-10.247-63.409-28.088-95.787-6.446-11.698-9.926-15.61-15.186-17.07-4.74-1.317-6.26-1.138-11.175 1.311M51.2 176.588c-7.638 1.549-14.708 7.606-17.586 15.068-1.529 3.963-1.614 7.388-1.614 64.771v60.586l2.017 4.461c2.243 4.962 7.685 10.46 12.645 12.776 2.943 1.374 6.934 1.546 41.322 1.782l38.064.262 46.329 37.896c25.481 20.842 47.588 38.493 49.126 39.223 5.219 2.476 10.895 3.067 16.2 1.685 5.64-1.469 8.504-3.328 12.727-8.262 5.202-6.077 5.57-8.682 5.57-39.428v-27.375l-13.45-13.43c-7.397-7.386-13.852-13.43-14.343-13.43-.492 0-1.64.545-2.551 1.211-1.569 1.146-1.678 2.759-2.083 30.597l-.426 29.387-40.002-32.707c-22.001-17.989-41.598-33.48-43.55-34.425-6.222-3.012-11.822-3.449-44.138-3.449H64v-95.574h25.966c22.467 0 26.146-.18 27.306-1.341.738-.737 1.341-1.99 1.341-2.783 0-.793-6.052-7.486-13.449-14.872l-13.45-13.43-18.764.098c-10.32.054-20.107.37-21.75.703m261.51 1.642c-3.793 2.313-7.039 6.526-8.119 10.54-1.071 3.977-.346 6.598 5.853 21.15 6.289 14.761 9.508 31.296 9.539 48.996l.017 9.316 11.266 11.377c15.098 15.247 16.387 15.151 19.037-1.422 2.792-17.462 1.575-41.772-2.95-58.959-3.601-13.675-11.763-33.912-15.22-37.735-4.276-4.729-14.267-6.407-19.423-3.263" fill-rule="evenodd"/></svg>