<svg xmlns="http://www.w3.org/2000/svg" width="512" height="512"><path d="M255.147 123.876 190.72 175.36l-47.36.427-47.36.426v159.574l47.36.426 47.36.427 64.427 51.523 64.426 51.523.217-91.843c.12-50.514.12-133.155 0-183.647l-.217-91.804-64.426 51.484m121.6 53.759c-7.51 3.783-13.773 6.986-13.919 7.118-.146.132 2.07 4.898 4.924 10.592 6.718 13.401 9.875 21.433 12.399 31.549 4.383 17.565 4.811 34.865 1.288 52.15-2.338 11.472-5.838 21.193-12.87 35.748-3.264 6.757-5.832 12.378-5.706 12.491.772.687 28.191 14.103 28.384 13.888.131-.145 2.44-4.671 5.133-10.057 13.585-27.18 19.344-49.55 19.337-75.114-.008-25.776-4.713-44.734-17.843-71.893-3.574-7.392-6.718-13.42-6.986-13.395-.268.024-6.632 3.14-14.141 6.923" fill-rule="evenodd"/></svg>