<svg xmlns="http://www.w3.org/2000/svg" width="512" height="512"><path d="M57.6 65.613c-4.131 1.906-6.731 4.608-8.493 8.825-1.556 3.724-1.636 5.845-.395 10.469.799 2.976 23.709 26.217 178.982 181.565 122.123 122.182 179.156 178.682 181.535 179.84 12.054 5.865 24.674-4.674 22.183-18.525-.528-2.935-18.047-20.729-179.092-181.9C127.835 121.303 72.78 66.755 70.4 65.639c-4.317-2.026-8.45-2.034-12.8-.026m351.573 16.021c-5.811 3.071-8.96 8.122-8.96 14.374 0 4.447.484 5.505 8.978 19.619 23.448 38.962 34.816 74.395 37.916 118.186 3.259 46.033-2.945 88.393-18.32 125.092-2.105 5.024-3.827 10.287-3.827 11.695 0 2.086 1.468 4.05 7.893 10.564 14.37 14.568 17.206 12.584 29.708-20.775 12.101-32.293 17.241-63.331 17.214-103.962-.041-61.933-12.473-106.693-44.269-159.383-6.554-10.862-8.427-13.172-12.268-15.132-4.021-2.051-10.467-2.179-14.065-.278M224 97.469c-1.408.499-3.712 1.698-5.12 2.663-3.919 2.687-30.577 24.5-31.787 26.01-.586.732-1.066 2.883-1.066 4.781 0 3.394.466 3.915 29.24 32.69 28.188 28.187 29.358 29.24 32.492 29.24 2.457 0 3.862-.61 5.747-2.494l2.494-2.494v-35.324c0-40.158-.129-41.166-6.15-48.006-4.879-5.542-10.549-8.109-17.743-8.033-3.051.033-6.699.468-8.107.967m137.115 32.747c-5.801 2.891-8.688 7.536-8.688 13.978 0 4.049.727 5.857 6.944 17.25 16.241 29.764 23.002 53.834 24.295 86.493.864 21.818-1.53 43.1-6.95 61.782-3.507 12.088-3.476 12.185 7.068 22.441 6.745 6.561 8.046 7.467 10.725 7.467 4.736 0 6.914-2.638 10.276-12.442 8.875-25.882 12.568-55.428 10.743-85.965-2.102-35.188-10.305-63.038-28.052-95.245-6.446-11.698-9.926-15.61-15.186-17.07-4.74-1.317-6.26-1.138-11.175 1.311M51.2 176.553c-7.725 1.658-14.716 7.662-17.586 15.103-1.529 3.963-1.614 7.388-1.614 64.771v60.586l2.017 4.461c2.243 4.962 7.685 10.46 12.645 12.776 2.943 1.374 6.934 1.546 41.324 1.782l38.066.262 45.592 37.293c25.075 20.511 46.631 37.972 47.902 38.803 1.271.83 4.617 2.1 7.436 2.822 4.626 1.186 5.632 1.183 10.333-.021 5.982-1.532 8.826-3.344 13.115-8.355 5.148-6.014 5.57-8.858 5.57-37.525 0-20.949-.233-26.036-1.309-28.645-.923-2.235-24.681-26.569-80.427-82.374-43.515-43.561-80.269-79.846-81.677-80.634-2.141-1.197-5.495-1.457-20.48-1.589-9.856-.087-19.264.131-20.907.484m263.386.478c-4.226 1.507-7.213 4.294-9.186 8.569-2.245 4.864-1.989 8.595 1.027 14.933 9.426 19.813 13.519 37.449 13.556 58.411l.017 9.344 9.216 9.216c8.656 8.656 9.424 9.216 12.639 9.216 6.638 0 8.339-3.536 9.683-20.136 2.028-25.051-3.164-51.931-14.822-76.729-3.919-8.335-7.088-11.74-12.262-13.177-4.098-1.139-5.861-1.075-9.868.353" fill-rule="evenodd"/></svg>