<svg xmlns="http://www.w3.org/2000/svg" width="512" height="512"><path d="M409.173 81.634c-5.811 3.071-8.96 8.122-8.96 14.374 0 4.447.484 5.505 8.979 19.619 11.024 18.318 20.754 39.089 26.525 56.625 9.398 28.561 13.666 65.905 11.593 101.45-2.847 48.819-13.017 81.307-38.913 124.315-7.358 12.219-8.184 14.009-8.184 17.741 0 9.211 6.811 16.046 15.958 16.015 8.626-.03 12.504-4.27 26.523-29 20.586-36.316 32.196-73.369 36.094-115.2 1.443-15.491 1.198-51.568-.455-66.853-4.739-43.821-16.869-79.784-40.197-119.173-9.087-15.345-10.728-17.507-14.898-19.635-4.021-2.051-10.467-2.179-14.065-.278M224 97.469c-3.955 1.402-4.841 2.097-52.48 41.158l-44.8 36.733-38.4.427-38.4.426-4.321 2.281c-5.445 2.874-9.907 7.773-11.985 13.162-1.529 3.963-1.614 7.388-1.614 64.771v60.586l2.017 4.461c2.243 4.962 7.685 10.46 12.645 12.776 2.943 1.374 6.934 1.546 41.322 1.782l38.064.262 46.329 37.896c25.481 20.842 47.588 38.493 49.126 39.223 12.867 6.105 27.717.206 32.772-13.018C255.981 395.933 256 394.314 256 256c0-137.569-.028-139.958-1.699-144.422-2.01-5.374-7.291-10.89-12.808-13.381-4.267-1.926-13.08-2.293-17.493-.728m137.115 32.747c-5.801 2.891-8.688 7.536-8.688 13.978 0 4.049.727 5.857 6.944 17.25 12.276 22.497 19.126 42.127 22.629 64.842 2.089 13.553 2.084 45.91-.011 59.499-3.392 22.008-8.621 37.165-21.369 61.948-4.346 8.448-8.141 16.563-8.433 18.034-1.725 8.685 6.515 18.16 15.84 18.214 7.731.045 11.583-3.502 19.188-17.666 22.738-42.351 31.036-78.862 28.331-124.658-2.101-35.584-10.239-63.323-28.07-95.682-6.446-11.698-9.926-15.61-15.186-17.07-4.74-1.317-6.26-1.138-11.175 1.311M312.71 178.23c-3.793 2.313-7.039 6.526-8.119 10.54-1.073 3.983-.346 6.601 5.897 21.249 13.311 31.226 12.292 65.651-2.921 98.736-3.612 7.855-4.177 10.871-2.914 15.558 2.724 10.117 15.389 14.874 24.053 9.035 3.795-2.557 5.828-5.817 10.319-16.541 13.656-32.616 16.527-66.284 8.321-97.579-3.571-13.619-11.75-33.905-15.213-37.735-4.276-4.729-14.267-6.407-19.423-3.263" fill-rule="evenodd"/></svg>