<svg xmlns="http://www.w3.org/2000/svg" width="512" height="512"><path d="M246.613 17.545c-19.805 4.269-36.76 21.675-40.544 41.623-1.612 8.498-1.597 12.681.073 20.868 3.756 18.405 18.492 34.845 36.147 40.327 12.981 4.031 27.186 2.82 39.738-3.386 8.55-4.229 15.327-10.239 20.844-18.487 5.526-8.262 7.815-15.491 8.37-26.425.953-18.814-6.917-35.031-22.344-46.039-6.677-4.764-12.043-7.078-19.959-8.605-7.707-1.487-15.043-1.446-22.325.124m20.907 33.124c7.846 3.7 11.52 9.728 11.52 18.903 0 5.278-.343 6.596-2.773 10.648-3.784 6.311-9.175 9.617-16.433 10.079-8.848.564-14.784-2.557-19.932-10.476-1.949-2.999-2.241-4.342-2.233-10.276.009-7.562.957-10.043 5.671-14.849 6.159-6.279 15.95-7.91 24.18-4.029m-72.107 77.867c-14.581 2.754-27.644 10.874-42.762 26.581-13.252 13.769-28.128 34.872-37.081 52.604l-3.844 7.614.244 41.516.243 41.516 2.057 3c4.284 6.251 12.174 9.031 19.121 6.738 3.839-1.267 8.731-6.635 9.907-10.871.573-2.062.908-16.606.911-39.571l.004-36.311 6.399-10.464c3.519-5.756 9.146-14.184 12.504-18.73 5.834-7.899 20.753-24.051 22.215-24.051.382 0 .696 23.823.696 52.94 0 56.233.418 64.395 3.932 76.661 3.892 13.583 7.624 19.504 31.726 50.34l22.432 28.699 27.804 56.32c15.293 30.976 28.77 57.609 29.95 59.186 4.171 5.575 12.068 7.48 18.556 4.476 6.567-3.041 10.469-9.675 9.581-16.291-.242-1.809-12.351-27.308-27.81-58.568l-27.381-55.363-.261-95.574c-.291-106.598.143-98.917-6.345-112.213-4.137-8.479-15.08-19.568-23.731-24.049-10.299-5.333-13.598-5.999-31.147-6.282-8.682-.141-16.746-.074-17.92.147m32.854 33.928c4.975 2.356 8.859 6.226 11.659 11.616l1.994 3.84.237 72.087c.137 41.867-.08 71.738-.519 71.254-3.361-3.712-14.252-18.169-16.288-21.622-1.394-2.364-3.415-6.911-4.49-10.102l-1.956-5.804-.262-61.653-.262-61.653 2.81.008c1.545.005 4.73.918 7.077 2.029m69.546 53.936c-4.519 1.958-7.585 5.371-8.948 9.962-1.853 6.237-.377 11.653 4.392 16.121 2.518 2.359 65.204 43.765 70.007 46.242 3.107 1.602 9.232 1.843 12.787.503 3.431-1.294 7.757-5.739 8.872-9.118 2.01-6.091.66-12.915-3.289-16.631-3.078-2.895-67.059-44.846-71.447-46.846-4.137-1.885-8.374-1.965-12.374-.233m-81.145 169.581c-3.869 2.037-8.625 8.669-51.729 72.136l-10.059 14.81.013 5.245c.01 3.982.49 6.017 1.994 8.451 5.365 8.68 18.159 10.038 25.017 2.655 2.558-2.752 53.78-77.59 56.279-82.225 2.205-4.09 2.066-9.948-.348-14.599-1.498-2.885-3.023-4.307-6.553-6.107-5.623-2.868-9.671-2.97-14.614-.366" fill-rule="evenodd"/></svg>