<svg xmlns="http://www.w3.org/2000/svg" width="512" height="512"><path d="M355.84 48.396c-2.112.188-57.6 9.511-123.307 20.719-65.706 11.207-125.61 21.37-133.12 22.583-17.487 2.826-24.763 4.838-33.015 9.132-15.723 8.18-26.929 22.906-32.362 42.53l-2.008 7.253-.257 119.467c-.231 107.068-.115 120.175 1.116 126.293 5.139 25.548 24.586 45.006 50.284 50.314 9.363 1.934 335.527 1.968 344.776.036 23.329-4.873 41.82-22.032 49.2-45.656l2-6.4V181.333l-2-6.4c-3.627-11.612-8.225-19.249-16.739-27.806-6.529-6.561-8.961-8.363-15.821-11.728-15.476-7.589-1.101-6.9-154.027-7.39-125.562-.403-135.877-.544-138.327-1.885-7.725-4.232-8.137-15.755-.726-20.336 2.726-1.684 4.158-1.7 138.978-1.478l136.224.223-.504-2.56c-1.085-5.509-4.086-13.91-6.86-19.2-11.798-22.5-37.929-36.645-63.505-34.377m25.138 210.465c20.58 9.421 25.218 36.922 8.815 52.265-14.602 13.659-37.671 10.955-48.42-5.675-11.997-18.562-2.201-43.129 19.37-48.579 5.374-1.357 14.99-.413 20.235 1.989" fill-rule="evenodd"/></svg>