<svg xmlns="http://www.w3.org/2000/svg" width="512" height="512"><path d="M355.413 48.402c-1.877.189-64.085 10.683-138.24 23.319C119.981 88.284 80.578 95.318 76.012 96.922c-20.83 7.318-36.48 24.609-42.418 46.865C32.073 149.486 32 155.332 32 271.36c0 112.519.11 122.029 1.477 127.343 5.129 19.943 19.901 37.233 38.14 44.645C83.614 448.222 74.799 448 256 448c181.201 0 172.386.222 184.383-4.652 18.239-7.412 33.011-24.702 38.14-44.645C479.884 393.41 480 384.741 480 288c0-116.19.314-109.238-5.514-122.092-7.958-17.549-24.635-31.482-43.339-36.205l-3.627-.915-.011-9.994c-.027-24.151-8.557-43.129-25.372-56.449-12.461-9.871-31.308-15.495-46.724-13.943m20.314 35.077c7.109 3.502 13.325 9.583 16.466 16.107 2.171 4.509 2.413 5.986 2.738 16.681l.356 11.733H243.416c-83.529 0-153.749.203-156.044.451l-4.172.451 2.56-1.356c1.504-.797 57.63-10.814 136.107-24.292C372 77.47 365.282 78.334 375.727 83.479m51.336 78.716c9.904 3.706 17.74 12.592 19.81 22.466 1.61 7.678 1.586 199.11-.025 206.8-2.04 9.735-9.755 18.426-20.051 22.589l-4.824 1.95H90.027l-4.909-1.982c-10.054-4.06-17.681-12.539-19.95-22.181-1.506-6.402-1.717-197.827-.226-206.385 1.737-9.974 9.17-18.79 19.386-22.992l4.845-1.993 166.582-.02c166.462-.02 166.584-.019 171.308 1.748m-66.32 94.677c-13.633 3.444-23.471 14.981-24.342 28.545-.518 8.067.882 13.706 4.972 20.034 11.316 17.508 35.972 19.404 50.18 3.859 5.775-6.319 8.098-12.431 8.098-21.31 0-12.607-6.494-23.092-17.728-28.623-5.923-2.916-15.207-4.014-21.18-2.505" fill-rule="evenodd"/></svg>