<svg xmlns="http://www.w3.org/2000/svg" width="512" height="512"><path d="M248.747 50.447c-8.414 1.039-19.735 6.713-26.202 13.132-2.677 2.658-6.573 7.776-8.657 11.373C203.9 92.195 41.813 394.464 40.158 398.933c-2.618 7.073-3.208 17.865-1.398 25.545 4.039 17.133 16.361 30.328 33.347 35.709l5.973 1.893h355.84l5.973-1.893c16.986-5.381 29.308-18.576 33.347-35.709 1.81-7.68 1.22-18.472-1.398-25.545-1.655-4.469-163.742-306.738-173.73-323.981-10.441-18.024-28.648-27.062-49.365-24.505m16.099 34.075c1.795 1.23 4.414 4.519 6.416 8.058 8.045 14.218 169.734 315.116 170.317 316.953 2.336 7.362-2.169 16.97-9.208 19.637-3.381 1.281-349.361 1.281-352.742 0-8.423-3.192-12.163-14.138-7.807-22.85 9.044-18.084 171.442-318.243 173.085-319.911 3.298-3.348 6.713-4.547 12.08-4.24 3.386.193 5.732.895 7.859 2.353m-13.301 89.509c-7.971 1.571-15.207 8.982-16.712 17.116-.447 2.42.308 25.61 2.043 62.72 3.195 68.326 3.143 67.577 4.981 71.131 1.854 3.585 7.404 7.523 11.602 8.232 7.477 1.263 15.948-4.112 17.806-11.299.785-3.038 6.067-108.87 6.193-124.104.09-10.797-3.178-17.187-10.902-21.322-4.649-2.49-10.251-3.413-15.011-2.474m-3.652 185.119c-7.185 3.296-11.698 10.229-11.679 17.943.014 5.661 1.025 8.587 4.47 12.936 7.397 9.339 23.306 9.386 30.505.091 3.416-4.411 4.668-8.012 4.621-13.289-.097-10.739-8.854-19.247-19.81-19.247-2.744 0-6.111.651-8.107 1.566" fill-rule="evenodd"/></svg>