<svg xmlns="http://www.w3.org/2000/svg" width="512" height="512"><path d="M185.6 17.423c-3.366 1.502-6.843 5.277-8.488 9.216-1.121 2.685-1.325 8.299-1.325 36.48v33.308h-4.73c-16.827 0-37.915 9.591-51.872 23.593-10.26 10.293-16.704 21.675-20.938 36.984l-2.245 8.116v181.76l2.245 8.116c4.296 15.532 10.689 26.724 21.361 37.396 7.094 7.095 14.982 12.634 23.472 16.483 6.446 2.923 20.313 6.698 24.603 6.698 1.524 0 3.97.24 5.437.534l2.667.533.018 32.96c.018 30.26.149 33.24 1.599 36.373 1.84 3.973 5.476 7.616 8.892 8.906 3.344 1.264 136.064 1.264 139.408 0 3.416-1.29 7.052-4.933 8.892-8.906 1.451-3.134 1.581-6.114 1.599-36.427l.018-33.015 4.054-.47c22.244-2.583 36.745-9.023 50.783-22.556 11.807-11.382 18.202-22.23 22.701-38.509l2.244-8.116.002-90.453.003-90.454-1.916-7.515c-4.002-15.702-10.525-27.504-21.124-38.221-14.026-14.182-35.06-23.81-52.017-23.81h-4.73l-.018-33.494c-.018-30.779-.147-33.77-1.599-36.906-1.84-3.973-5.476-7.616-8.892-8.906-3.88-1.466-136.785-1.18-140.104.302m152.747 104.836c7.808 2.255 21.57 9.413 27.466 14.286 7.657 6.328 13.425 13.749 18.232 23.455 7.666 15.481 7.208 9.386 7.208 96s.458 80.519-7.208 96c-2.325 4.693-6.183 10.901-8.574 13.794-12.209 14.772-30.189 24.133-49.738 25.895-11.347 1.024-128.119 1.024-139.466 0-19.549-1.762-37.529-11.123-49.738-25.895-2.391-2.893-6.249-9.101-8.574-13.794-7.666-15.481-7.208-9.386-7.208-96s-.458-80.519 7.208-96c7.002-14.138 16.733-24.221 30.093-31.184 16.692-8.698 12.918-8.389 100.085-8.199 68.394.149 75.55.295 80.214 1.642m-160 15.567c-19.088 4.681-34.675 19.87-40.269 39.241l-1.971 6.826V256c0 80.655-.31 76.189 6.213 89.6 4.357 8.958 15.122 19.723 24.08 24.08 13.411 6.523 8.945 6.213 89.6 6.213s76.189.31 89.6-6.213c8.958-4.357 19.723-15.122 24.08-24.08 6.523-13.411 6.213-8.945 6.213-89.6 0-67.076-.108-72.494-1.55-77.653-5.701-20.398-21.413-35.903-41.116-40.574-7.34-1.741-147.763-1.692-154.88.053" fill-rule="evenodd"/></svg>