<svg xmlns="http://www.w3.org/2000/svg" width="512" height="512"><path d="M175.787 56.277v40.064l-28.374.256-28.373.256-4.722 2.319c-9.536 4.684-16.308 13.979-17.953 24.644-.536 3.472-.756 53.052-.604 136.024L96 390.4l1.855 4.526c3.593 8.762 10.531 15.688 19.219 19.185 4.22 1.698 6.357 1.843 31.619 2.141l27.094.319v79.216h160.426v-79.216l27.094-.319c25.262-.298 27.399-.443 31.619-2.141 8.688-3.497 15.626-10.423 19.219-19.185L416 390.4l.239-130.56c.152-82.972-.068-132.552-.604-136.024-1.645-10.665-8.417-19.96-17.953-24.644l-4.722-2.319-28.373-.256-28.374-.256V16.213H175.787v40.064m202.969 66.676c5.605 2.801 8.364 5.743 11.156 11.898 1.711 3.774 1.731 5.112 1.749 121.226l.019 117.41-2.611 5.225c-2.857 5.717-7.016 9.563-12.885 11.912-3.454 1.383-11.56 1.483-120.184 1.483s-116.73-.1-120.184-1.483c-5.869-2.349-10.028-6.195-12.885-11.912l-2.611-5.225.019-117.41c.018-116.114.038-117.452 1.749-121.226 2.792-6.155 5.551-9.097 11.156-11.898l5.269-2.633h234.974l5.269 2.633m-240.581 15.782-2.068 2.202v230.224l2.366 2.366 2.366 2.366h230.322l2.366-2.366 2.366-2.366V140.937l-2.068-2.202-2.069-2.202H140.244l-2.069 2.202" fill-rule="evenodd"/></svg>