<svg xmlns="http://www.w3.org/2000/svg" width="512" height="512"><path d="M174.419 18.257c-4.684 2.181-9.805 6.784-11.765 10.574-2.493 4.822-3.081 12.595-3.081 40.777v28.335l-3.189.599c-5.942 1.114-17.686 6.41-24.606 11.095-20.688 14.005-32.688 34.158-35.325 59.323-1.13 10.775-1.13 163.305 0 174.08 2.092 19.968 9.448 35.645 23.155 49.352 10.086 10.086 23.832 18.12 35.485 20.739l4.48 1.007.018 28.664c.02 31.66.588 36.846 4.686 42.76 2.693 3.886 7.757 7.695 12.277 9.236 4.131 1.408 154.752 1.41 158.892.002 4.287-1.458 9.777-5.63 12.413-9.434 3.95-5.701 4.53-11.129 4.55-42.564l.018-28.664 4.48-1.007c11.653-2.619 25.399-10.653 35.485-20.739 13.707-13.707 21.063-29.384 23.155-49.352 1.13-10.775 1.13-163.305 0-174.08-2.647-25.263-14.849-45.662-35.555-59.442-7.094-4.721-18.564-9.886-24.376-10.976l-3.189-.599V69.608c0-28.182-.588-35.955-3.081-40.777-1.96-3.79-7.081-8.393-11.765-10.574l-4.354-2.027H178.773l-4.354 2.027M320 72.107v24.32H192v-48.64h128v24.32m26.565 57.122c17.352 3.678 32.528 18.854 36.206 36.206 1.774 8.369 1.774 172.761 0 181.13-3.626 17.107-18.351 32.068-35.552 36.123-8.187 1.93-174.251 1.93-182.438 0-17.201-4.055-31.926-19.016-35.552-36.123-1.774-8.369-1.774-172.761 0-181.13 3.633-17.139 18.81-32.469 35.807-36.167 7.894-1.718 173.443-1.753 181.529-.039M320 440.32v23.893H192v-47.786h128v23.893" fill-rule="evenodd"/></svg>