<svg xmlns="http://www.w3.org/2000/svg" width="512" height="512"><path d="M250.267 57.349c-1.824.881-13.467 14.505-26.833 31.398-13.157 16.628-27.772 36.881-41.259 57.173-34.385 51.734-55.184 94.814-64.743 134.101-4.478 18.406-5.174 24.165-5.089 42.112.205 43.104 13.007 77.099 38.716 102.808 16.591 16.591 35.459 27.125 60.141 33.577 15.384 4.021 24.887 5.104 44.8 5.104 19.913 0 29.416-1.083 44.8-5.104 24.682-6.452 43.55-16.986 60.141-33.577 20.287-20.287 31.957-44.747 37.243-78.061 2.055-12.956 2.08-37.794.049-49.792-7.38-43.592-29.264-92.16-67.538-149.888-23.774-35.859-63.297-87.205-69.191-89.891-2.666-1.215-8.682-1.193-11.237.04m100.28 260.648c1.079.683 2.74 2.47 3.691 3.969 1.535 2.42 1.679 3.69 1.28 11.261-1.924 36.458-28.192 67.775-64.091 76.41-3.747.901-10.083 1.863-14.08 2.138-6.03.415-7.772.236-10.237-1.051-6.309-3.295-8.725-11.255-5.179-17.07 2.36-3.87 4.441-4.712 14.549-5.884 16.104-1.867 27.545-7.235 37.973-17.817 10.14-10.288 16.137-23.233 17.164-37.047.822-11.051 2.225-13.656 8.593-15.946 3.551-1.277 7.275-.904 10.337 1.037" fill-rule="evenodd"/></svg>