<svg xmlns="http://www.w3.org/2000/svg" width="512" height="512"><path d="M243.2 97.795c-67.093 3.523-128.464 26.441-179.2 66.918-17.761 14.17-20.48 17.75-20.48 26.962 0 11.879 9.039 20.927 20.907 20.927 6.134 0 9.756-1.732 17.819-8.522 39.953-33.642 84.112-53.911 134.27-61.629 14.918-2.295 49.685-3.214 64.767-1.711 55.796 5.559 105.03 26.362 148.37 62.693 10.482 8.786 16.755 10.737 25.08 7.8 11.876-4.19 17.519-17.728 12.077-28.971-1.544-3.189-4.348-6.068-12.51-12.842-47.589-39.498-103.775-63.387-164.593-69.98-11.547-1.251-36.91-2.148-46.507-1.645m-1.712 86.547c-44.932 2.805-88.931 19.951-124.155 48.384-11.828 9.547-15.25 12.903-17.344 17.009-2.691 5.274-3.111 9.564-1.487 15.153 2.656 9.134 10.616 15.193 19.917 15.158 6.556-.025 9.798-1.564 17.775-8.437 14.411-12.418 24.453-19.166 40.272-27.062 15.797-7.886 31.089-12.869 50.521-16.463 11.625-2.15 47.29-2.13 58.88.032 35.776 6.676 64.881 20.762 91.348 44.21 6.751 5.98 10.605 7.712 17.101 7.68 11.79-.056 20.367-8.908 20.367-21.019 0-6.956-2-10.923-8.575-17.01-27.099-25.089-65.091-44.889-101.468-52.881-19.442-4.272-42.76-6.027-63.152-4.754m4.699 86.233c-17.518 1.175-34.293 5.744-49.974 13.611-18.854 9.458-33.683 21.371-36.26 29.128-3.999 12.042 3.097 24.486 15.554 27.273 7.871 1.762 12.229-.021 25.453-10.415 5.006-3.934 15.132-9.36 22.986-12.316 11.256-4.237 16.928-5.112 32.907-5.076 13.571.031 15.712.247 23.467 2.371 11.287 3.091 23.813 9.338 33.373 16.641 9.35 7.144 10.111 7.57 15.608 8.749 12.036 2.582 24.263-7.77 24.263-20.541 0-9.335-5.212-15.89-21.145-26.594-25.756-17.303-54.641-24.951-86.232-22.831m.293 92.388c-8.836 3.269-15.535 9.326-19.378 17.521-1.935 4.127-2.249 5.927-2.249 12.903 0 6.995.312 8.77 2.271 12.949 1.248 2.664 3.873 6.583 5.833 8.709 12.284 13.326 33.016 13.685 45.894.794 12.488-12.5 12.484-32.371-.009-44.905-6.124-6.144-12.133-8.624-21.562-8.9-4.882-.143-8.817.195-10.8.929" fill-rule="evenodd"/></svg>