<svg xmlns="http://www.w3.org/2000/svg" width="512" height="512"><path d="M237.227 93.542c-54.4 3.923-104.934 20.915-148.907 50.069-19.274 12.779-36.525 27.13-38.61 32.12-1.931 4.623-1.092 11.974 1.801 15.767 4.42 5.794 12.279 8.012 18.775 5.298 1.551-.648 5.474-3.455 8.72-6.237C128.491 148.129 190.159 125.44 256 125.44c43.428 0 80.846 8.653 119.893 27.726 20.831 10.175 40.233 22.876 57.101 37.379 3.246 2.79 7.169 5.603 8.72 6.251 9.654 4.033 20.608-2.534 21.465-12.869.728-8.773-1.078-11.223-18.504-25.105-43.218-34.43-94.576-55.958-151.065-63.321-12.844-1.674-44.892-2.788-56.383-1.959m0 86.628c-41.773 3.413-83.276 19.987-116.48 46.515-12.03 9.611-16.414 14.213-17.547 18.422-1.475 5.474-.335 10.458 3.316 14.503 3.661 4.058 7.26 5.777 12.097 5.777 4.832 0 8.105-1.639 14.376-7.196 34.43-30.513 76.834-46.564 123.011-46.564 46.1 0 88.638 16.102 123.011 46.564 6.271 5.557 9.544 7.196 14.376 7.196 4.827 0 8.435-1.717 12.068-5.744 3.753-4.159 4.813-8.876 3.25-14.459-1.275-4.553-6.944-10.35-20.221-20.676-42.474-33.035-96.342-48.825-151.257-44.338m7.033 86.074c-26.602 2.293-54.422 14.022-73.068 30.804-5.536 4.983-7.352 8.334-7.352 13.565 0 7.068 5.046 13.502 12.071 15.394 6.437 1.733 7.719 1.168 23.092-10.17 8.236-6.074 21.593-12.434 31.963-15.218 7.718-2.073 9.735-2.254 25.034-2.254s17.316.181 25.034 2.254c10.37 2.784 23.727 9.144 31.963 15.218 15.387 11.349 16.651 11.904 23.129 10.16 4.518-1.217 9.923-6.025 11.232-9.993 1.398-4.234.591-10.757-1.745-14.111-3.351-4.814-15.744-14.096-27.32-20.463-21.407-11.774-48.691-17.371-74.033-15.186m.93 87.714c-14.124 5.036-23.13 20.196-20.736 34.905 4.194 25.767 35.597 35.998 54.002 17.593 15.558-15.557 11.135-41.534-8.726-51.251-6.229-3.048-17.837-3.638-24.54-1.247" fill-rule="evenodd"/></svg>