<svg xmlns="http://www.w3.org/2000/svg" width="512" height="512"><path d="M107.058 65.604c-4.036 1.833-7.576 5.739-8.775 9.681-1.116 3.667-2.336 33.291-2.084 50.582.329 22.532 3.573 42.704 10.02 62.293 8.314 25.264 19.525 43.563 36.883 60.204 22.148 21.233 49.834 33.525 85.559 37.988 5.379.672 10.083 1.221 10.453 1.221.37 0 .673 28.992.673 64.427v64.427h-41.841c-46.173 0-45.247-.1-50.077 5.401-6.536 7.444-3.911 20.004 5.091 24.362l3.739 1.81h198.602l3.739-1.81c5.705-2.762 8.32-7.311 8.32-14.475 0-5.13-.28-6.093-2.621-9.022-5.183-6.486-3.388-6.264-50.499-6.265l-42.027-.001V352c0-35.435.303-64.427.673-64.427.37 0 5.074-.549 10.453-1.221 27.15-3.392 50.093-11.534 69.514-24.669 11.354-7.679 26.748-23.413 34.809-35.578 17.806-26.871 27.502-61.284 28.124-99.812.274-16.915-.962-47.374-2.068-51.008-1.201-3.943-4.741-7.848-8.776-9.681-3.303-1.5-9.609-1.567-148.942-1.567s-145.639.067-148.942 1.567m275.833 34.023c.834 3.952.882 41.036.056 43.093-.568 1.413-7.412 1.493-126.904 1.493H129.739l-.637-2.346c-.848-3.126-.837-38.172.013-42.24l.669-3.2h252.432l.675 3.2" fill-rule="evenodd"/></svg>