<svg xmlns="http://www.w3.org/2000/svg" width="512" height="512"><path d="M244.48 1.263c-19.983 4.399-35.695 18.438-41.967 37.497-3.165 9.617-3.341 23.515-.417 32.92 4.593 14.774 15.049 27.396 28.108 33.933 16.948 8.483 36.921 8.211 52.676-.717 13.63-7.724 23.857-21.258 27.356-36.203 1.768-7.551 1.316-22.714-.866-29.013-3.471-10.023-6.739-15.277-14.128-22.714-5.946-5.986-8.65-8.001-14.527-10.824-11.858-5.696-24.68-7.423-36.235-4.879m-58.405 127.668c-11.522 2.259-24.624 12.162-30.187 22.817-2.063 3.952-9.293 26.818-23.655 74.812-11.376 38.016-20.727 69.638-20.779 70.272-.064.786 7.033 3.299 22.409 7.932 12.376 3.73 22.701 6.583 22.944 6.341.242-.243 8.591-27.603 18.553-60.801 9.961-33.197 18.472-60.479 18.912-60.626.44-.147 2.177.22 3.859.814l3.059 1.081-25.878 86.187c-14.233 47.403-26.1 87.051-26.371 88.107l-.494 1.92H199.68V512h52.053V367.787h7.68V512h52.054V367.787h25.6c16.759 0 25.6-.3 25.6-.867 0-.477-11.491-39.165-25.535-85.973-14.045-46.809-25.792-86.139-26.106-87.4-.528-2.123-.307-2.363 3.008-3.256 1.968-.53 3.717-.824 3.887-.654.17.17 8.428 27.363 18.351 60.429 9.923 33.066 18.309 60.41 18.636 60.763.815.88 44.553-12.285 45.041-13.557.593-1.545-40.527-138.165-43.499-144.525-3.247-6.948-11.74-15.585-19.153-19.477-9.974-5.237-10.149-5.248-82.15-5.162-35.904.044-66.987.414-69.072.823" fill-rule="evenodd"/></svg>