<svg xmlns="http://www.w3.org/2000/svg" width="512" height="512"><path d="M243.627 1.345c-19.713 4.353-36.421 20.497-41.901 40.483-2.391 8.724-2.014 22.419.862 31.315C210.01 96.094 231.7 111.787 256 111.787c24.299 0 45.979-15.685 53.415-38.644 2.856-8.818 3.223-22.501.838-31.315-4.988-18.443-19.572-33.667-37.613-39.265-7.932-2.461-20.916-3.006-29.013-1.218m24.047 33.885c4.501 2.855 7.56 6.071 9.916 10.423 1.45 2.681 1.85 4.88 1.862 10.24.013 6.073-.278 7.345-2.633 11.52-1.456 2.582-4.265 5.938-6.243 7.46-14.967 11.511-36.542 2.04-38.232-16.785-.795-8.853 3.214-17.199 10.486-21.829 5.518-3.515 6.66-3.793 14.45-3.526 5.676.195 7.428.616 10.394 2.497m-74.394 93.998c-18.64 3.472-35.974 17.042-43.496 34.049-2.513 5.682-28.178 91.792-29.546 99.131-2.668 14.317 7.031 33.196 20.504 39.91 2.441 1.216 7.031 2.88 10.198 3.696l5.76 1.483-6.221 20.545c-3.463 11.439-6.23 22.167-6.243 24.205-.024 3.881 2.163 9.075 4.793 11.383 4.381 3.845 6.254 4.157 25.009 4.157H192v54.86c0 46.668.197 55.621 1.316 59.947 3.366 13.005 15.05 24.686 28.09 28.082a40.85 40.85 0 0 0 29.853-3.624l4.741-2.568 4.741 2.568a40.85 40.85 0 0 0 29.853 3.624c13.04-3.396 24.724-15.077 28.09-28.082 1.119-4.326 1.316-13.279 1.316-59.947v-54.86h17.962c18.755 0 20.628-.312 25.009-4.157 2.63-2.308 4.817-7.502 4.793-11.383-.013-2.038-2.78-12.766-6.243-24.205l-6.221-20.545 5.76-1.483c12.303-3.17 21.26-10.099 26.307-20.351 4.027-8.179 5.217-14.301 4.261-21.913-1.058-8.416-26.53-94.289-30.269-102.043-5.626-11.669-15.192-21.162-27.455-27.245-12.517-6.21-9.41-5.956-75.344-6.161-45.775-.143-60.67.069-65.28.927m123.064 32.582c5.717 1.938 10.812 5.831 14.283 10.915 2.482 3.636 5.12 11.604 16.222 49 7.292 24.562 13.258 45.388 13.258 46.28 0 .892-1.104 2.856-2.452 4.366-3.177 3.555-7.628 3.804-10.827.605-2.613-2.614-3.347-4.789-17.054-50.584-6.024-20.128-11.743-37.756-12.71-39.175-6.634-9.739-21.703-9.199-26.846.962-3.401 6.721-4.062 3.901 18.653 79.654 11.753 39.198 21.369 71.519 21.369 71.825 0 .305-33.408.555-74.24.555-40.832 0-74.24-.25-74.24-.555 0-.306 9.616-32.627 21.369-71.825 22.715-75.753 22.054-72.933 18.653-79.654-5.143-10.161-20.212-10.701-26.846-.962-.967 1.419-6.686 19.047-12.71 39.175-13.707 45.795-14.441 47.97-17.054 50.584-3.199 3.199-7.65 2.95-10.827-.605-1.348-1.51-2.452-3.463-2.452-4.341 0-1.353 15.515-54.656 23.993-82.43 3.12-10.219 6.371-15.625 11.714-19.476 8.168-5.888 4.777-5.605 67.73-5.653 50.33-.039 57.404.116 61.014 1.339m-76.576 259.523c-.018 49.453-.132 53.694-1.497 55.466-3.108 4.038-10.648 3.739-12.924-.513-.63-1.178-.92-18.551-.92-55.11v-53.389h15.36l-.019 53.546m47.805-.157c0 36.559-.29 53.932-.92 55.11-2.276 4.252-9.816 4.551-12.924.513-1.365-1.772-1.479-6.013-1.497-55.466l-.019-53.546h15.36v53.389" fill-rule="evenodd"/></svg>