<svg xmlns="http://www.w3.org/2000/svg" width="512" height="512"><path d="M241.493 48.673c-39.799 2.563-78.317 17.074-111.786 42.114-10.589 7.922-31.248 28.596-39.155 39.184-21.846 29.252-35.222 61.365-40.767 97.869-2.061 13.574-2.061 42.746 0 56.32 5.546 36.511 18.94 68.661 40.773 97.869 8.04 10.755 28.658 31.373 39.413 39.413 29.208 21.833 61.358 35.227 97.869 40.773 13.574 2.061 42.746 2.061 56.32 0 36.526-5.548 68.754-18.978 97.869-40.785 10.755-8.056 31.345-28.646 39.401-39.401 21.807-29.115 35.237-61.343 40.785-97.869 2.061-13.574 2.061-42.746 0-56.32-6.752-44.453-25.412-83.157-55.294-114.69-36.541-38.56-84.833-61.088-138.36-64.543-13.196-.852-12.782-.853-27.068.066m42.667 33.635c35.838 6.075 67.575 21.95 93.579 46.81 27.61 26.395 45.561 60.682 52.093 99.5 2.091 12.43 2.073 42.896-.033 55.115-9.878 57.299-44.492 104.256-95.788 129.946-48.421 24.25-107.601 24.25-156.022 0-51.464-25.774-86.214-73.029-95.815-130.297-2.121-12.648-2.121-42.116 0-54.764 10.541-62.873 51.565-113.601 110.675-136.854 13.047-5.132 28.757-8.823 46.938-11.027 6.667-.809 36.585.251 44.373 1.571m-36.417 80.271c-1.96 1.175-4.456 3.571-5.547 5.325-1.977 3.18-1.983 3.287-2.232 37.492l-.25 34.302-34.31.258-34.311.257-3.609 2.347c-9.726 6.323-9.509 21.071.402 27.232 3.204 1.992 3.247 1.995 37.518 2.244l34.31.25.25 34.31c.249 34.271.252 34.314 2.244 37.518 6.232 10.024 21.352 10.024 27.584 0 1.992-3.204 1.995-3.247 2.244-37.518l.25-34.31 34.31-.25c34.271-.249 34.314-.252 37.518-2.244 10.248-6.371 10.055-21.498-.35-27.455l-3.711-2.124-33.883-.25-33.884-.25-.25-34.31c-.249-34.27-.252-34.313-2.244-37.517-4.505-7.247-14.714-9.704-22.049-5.307" fill-rule="evenodd"/></svg>