<svg xmlns="http://www.w3.org/2000/svg" width="512" height="512"><path d="M100.267 65.219c-12.419 2.459-21.12 6.946-30.404 15.68-11.701 11.008-18.136 22.939-20.875 38.705-1.557 8.967-1.151 19.033 1.071 26.522 3.295 11.104 12.354 24.025 19.258 27.465 5.465 2.724 12.206 2.919 17.52.507 2.537-1.151 13.451-11.28 36.067-33.474 35.605-34.94 36.669-36.251 36.669-45.163 0-5.538-.86-8.331-3.946-12.819-3.893-5.658-17.355-13.788-27.254-16.459-7.184-1.938-20.823-2.406-28.106-.964m290.986-.667c-9.945 1.601-18.954 5.344-27.887 11.585-7.766 5.426-10.939 11.032-10.939 19.324 0 8.924 1.053 10.222 36.666 45.163 22.608 22.182 33.537 32.325 36.071 33.475 5.312 2.411 12.054 2.216 17.519-.508 6.904-3.44 15.963-16.361 19.258-27.465 2.222-7.489 2.628-17.555 1.071-26.522-2.753-15.848-9.169-27.693-21.06-38.879-7.478-7.035-16.69-12.224-25.952-14.618-5.245-1.356-20.162-2.294-24.747-1.555M119.37 97.202c.888.563-3.663 5.514-18.223 19.827-10.673 10.493-19.75 19.206-20.17 19.362-1.168.435-.889-9.98.396-14.791 3.097-11.592 11.306-20.819 21.304-23.945 4.079-1.276 14.929-1.57 16.693-.453m112.737.512c-30.348 4.163-61.358 17.346-84.907 36.094-37.045 29.494-60.381 71.412-66.111 118.756-2.045 16.889-.564 41.71 3.538 59.329 5.489 23.578 17.285 48.55 31.533 66.755 2.288 2.924 4.16 5.601 4.16 5.95 0 .349-8.616 9.285-19.146 19.858-10.531 10.573-19.555 20.305-20.054 21.626-3.584 9.493 3.083 20.57 13.057 21.694 7.333.827 8.922-.29 29.596-20.798 10.582-10.496 19.48-19.085 19.774-19.085.293 0 3.822 2.481 7.841 5.512C180.461 435.332 218.767 448 256 448c39.01 0 76.384-12.913 109.025-37.669l3.638-2.759 19.402 19.245c20.847 20.68 22.418 21.786 29.758 20.959 10.126-1.141 16.673-12.01 13.07-21.694-.492-1.321-9.562-11.091-20.155-21.71-14.218-14.253-19.066-19.621-18.519-20.502.407-.656 2.877-4.063 5.487-7.572 17.766-23.877 29.417-53.222 33.184-83.582 1.283-10.348 1.079-33.936-.384-44.228-4.282-30.122-15.861-58.429-33.538-81.988-6.066-8.084-20.71-23.332-29.176-30.377-24.467-20.361-56.356-34.208-88.483-38.419-11.816-1.549-35.872-1.544-47.202.01m181.082 1.539c8.124 3.975 14.823 12.56 17.438 22.347 1.285 4.811 1.564 15.226.396 14.791-.42-.156-9.497-8.869-20.17-19.362-14.858-14.606-19.129-19.266-18.223-19.881.651-.442 4.478-.671 8.506-.507 5.832.237 8.285.768 12.053 2.612M277.76 129.809c41.183 6.118 78.654 30.979 100.81 66.884 14.147 22.926 20.918 47.215 20.933 75.094.011 19.839-2.557 34.474-9.025 51.422-21.21 55.578-74.317 92.333-133.635 92.485-32.787.084-61.856-9.581-87.967-29.25-18.242-13.74-34.249-33.961-43.92-55.479-15.276-33.988-16.67-73.8-3.815-108.898 10.711-29.242 32.625-56.081 58.905-72.145 20.694-12.648 41.021-19.27 65.714-21.407 5.772-.5 25.219.287 32 1.294m-28.176 15.547c-3.539 1.606-7.815 6.688-8.893 10.567-.576 2.074-.897 20.491-.9 51.65L239.787 256l-33.494.019c-30.866.017-33.768.144-37.005 1.614-9.147 4.153-11.902 16.913-5.279 24.456 5.436 6.191 2.98 5.911 51.884 5.911 42.913 0 44.027-.042 47.36-1.783 1.878-.98 4.566-3.413 5.974-5.407l2.56-3.624V154.755l-2.057-3.001c-3.224-4.706-7.19-6.975-12.743-7.292-2.85-.163-5.882.203-7.403.894" fill-rule="evenodd"/></svg>