<svg xmlns="http://www.w3.org/2000/svg" width="512" height="512"><path d="M241.493 48.673c-39.799 2.563-78.317 17.074-111.786 42.114-10.589 7.922-31.248 28.596-39.155 39.184-21.846 29.252-35.222 61.365-40.767 97.869-2.061 13.574-2.061 42.746 0 56.32 5.546 36.511 18.94 68.661 40.773 97.869 8.04 10.755 28.658 31.373 39.413 39.413 29.208 21.833 61.358 35.227 97.869 40.773 13.574 2.061 42.746 2.061 56.32 0 36.526-5.548 68.754-18.978 97.869-40.785 10.755-8.056 31.345-28.646 39.401-39.401 21.807-29.115 35.237-61.343 40.785-97.869 2.061-13.574 2.061-42.746 0-56.32-6.752-44.453-25.412-83.157-55.294-114.69-36.541-38.56-84.833-61.088-138.36-64.543-13.196-.852-12.782-.853-27.068.066m42.667 33.635c35.838 6.075 67.575 21.95 93.579 46.81 27.61 26.395 45.561 60.682 52.093 99.5 2.091 12.43 2.073 42.896-.033 55.115-9.878 57.299-44.492 104.256-95.788 129.946-48.421 24.25-107.601 24.25-156.022 0-51.464-25.774-86.214-73.029-95.815-130.297-2.121-12.648-2.121-42.116 0-54.764 10.541-62.873 51.565-113.601 110.675-136.854 13.047-5.132 28.757-8.823 46.938-11.027 6.667-.809 36.585.251 44.373 1.571m-37.126 63.912c-4.738 2.206-9.345 6.929-11.302 11.585-.831 1.975-1.26 5.659-1.219 10.459.14 16.309 5.352 120.801 6.175 123.803 1.097 3.997 5.434 9.041 9.085 10.567 3.528 1.474 8.926 1.474 12.454 0 3.652-1.526 7.988-6.571 9.084-10.567.856-3.124 6.037-108.046 6.105-123.636.038-8.81-.961-12.003-5.303-16.948-6.165-7.021-16.601-9.211-25.079-5.263m2.993 182.771c-14.755 4.582-18.653 23.358-7.024 33.832a19.398 19.398 0 0 0 25.994 0c11.786-10.615 7.691-29.388-7.392-33.888-5.051-1.506-6.57-1.499-11.578.056" fill-rule="evenodd"/></svg>