<svg xmlns="http://www.w3.org/2000/svg" width="512" height="512"><path d="M248.179 65.183c-8.242 1.772-17.343 9.123-21.549 17.405-.783 1.541-1.717 5.243-2.076 8.227-.877 7.282 7.112 223.25 8.434 227.989.536 1.924 2.392 5.373 4.124 7.665 9.387 12.42 28.364 12.452 37.727.064 1.706-2.256 3.542-5.514 4.081-7.238.611-1.953 2.433-41.905 4.832-105.962 4.576-122.162 4.571-121.89 2.598-127.829-3.265-9.831-13.639-18.792-23.802-20.562-6.504-1.133-8.107-1.106-14.369.241m.076 319.985c-9.532 2.052-18.409 10.05-22.142 19.95-5.05 13.392.313 29.583 12.465 37.632 5.452 3.611 9.729 4.786 17.422 4.786 7.693 0 11.97-1.175 17.422-4.786 15.525-10.283 18.952-31.992 7.365-46.65-4.272-5.405-10.965-9.614-17.448-10.973-6.257-1.312-8.835-1.305-15.084.041" fill-rule="evenodd"/></svg>