<svg xmlns="http://www.w3.org/2000/svg" width="512" height="512"><path d="M96.853 48.598c-10.597 1.288-20.2 5.469-28.461 12.392-20.371 17.072-26.107 43.986-14.464 67.863 2.836 5.816 4.988 8.704 10.858 14.571 11.634 11.63 22.86 16.276 39.321 16.276 16.232-.001 27.619-4.749 39.231-16.362 11.622-11.622 16.366-23.009 16.344-39.231-.022-16.55-4.634-27.691-16.29-39.355-5.99-5.994-8.685-7.99-14.571-10.793-10.422-4.962-20.852-6.711-31.968-5.361m151.894.023c-12.978 1.599-21.837 6.073-32.106 16.217-6.082 6.008-7.954 8.527-10.793 14.522-4.479 9.463-5.676 14.789-5.654 25.173.033 15.613 5.255 27.749 16.896 39.262 11.227 11.104 22.636 15.82 38.521 15.923 16.083.104 28.36-4.93 39.715-16.285 11.222-11.223 16.448-23.557 16.48-38.9.022-10.384-1.175-15.71-5.654-25.173-6.321-13.351-21.345-25.844-35.219-29.284-6.65-1.65-15.757-2.247-22.186-1.455m151.466.039c-12.317 1.507-21.695 6.302-31.637 16.178-11.618 11.539-16.276 22.78-16.276 39.269.001 16.232 4.749 27.619 16.362 39.231 11.612 11.613 22.999 16.361 39.231 16.362 16.461 0 27.687-4.646 39.321-16.276 5.87-5.867 8.022-8.755 10.858-14.571 11.69-23.973 5.977-50.553-14.617-68.01-11.357-9.627-27.336-14.129-43.242-12.183m-285.44 33.904c4.286 2.218 8.23 6.343 10.806 11.303 1.582 3.046 1.99 5.167 1.973 10.259-.019 5.562-.372 7.044-2.644 11.093-9.661 17.215-33.37 16.73-42.674-.872-2.224-4.206-2.223-16.277.001-20.48 3.105-5.87 8.996-10.925 15.039-12.907 3.768-1.236 13.788-.317 17.499 1.604m151.932.003c15.007 7.693 17.529 28.325 4.829 39.504-11.645 10.25-29.827 6.596-36.833-7.403-6.545-13.077.318-29.069 14.467-33.708 3.765-1.235 13.786-.317 17.537 1.607m151.855-.001c4.009 2.078 8.977 7.088 11.205 11.301 2.369 4.477 2.22 16.28-.263 20.945-4.555 8.554-14.028 13.803-23.382 12.955-8.811-.799-15.402-5.365-19.718-13.657-2.731-5.249-2.722-14.966.019-20.243 3.375-6.498 8.278-10.821 14.64-12.907 3.772-1.237 13.788-.317 17.499 1.606M100.267 200.319c-7.388.459-13.966 2.191-20.83 5.485-10.207 4.898-20.558 15.199-25.573 25.449-7.92 16.19-7.917 33.331.009 49.494 5.096 10.392 15.304 20.563 25.487 25.396 9.454 4.487 14.78 5.685 25.173 5.663 15.343-.032 27.677-5.258 38.9-16.48 11.355-11.355 16.389-23.632 16.285-39.715-.103-15.885-4.819-27.294-15.923-38.521-7.133-7.212-14.205-11.749-22.473-14.417-4.774-1.54-15.268-2.714-21.055-2.354m301.574.315c-13.093 1.064-23.401 6.108-33.636 16.456-11.254 11.378-15.875 22.706-15.875 38.91 0 16.204 4.621 27.532 15.875 38.91 11.513 11.641 23.649 16.863 39.262 16.896 10.393.022 15.719-1.176 25.173-5.663 10.183-4.833 20.391-15.004 25.487-25.396 7.926-16.163 7.929-33.304.009-49.494-2.868-5.862-4.958-8.645-10.896-14.513-13.171-13.016-26.268-17.662-45.399-16.106m-160.348 1.239c-9.229 2.413-16.966 7.054-24.762 14.854-11.702 11.709-16.535 23.188-16.535 39.273 0 16.088 4.834 27.567 16.535 39.269 11.702 11.701 23.181 16.535 39.269 16.535 16.088 0 27.567-4.834 39.269-16.535 11.701-11.702 16.535-23.181 16.535-39.269 0-16.085-4.833-27.564-16.535-39.273-7.924-7.928-15.632-12.496-25.155-14.906-6.458-1.635-22.279-1.606-28.621.052M114.52 234.614c4.863 2.45 8.401 6.02 11.046 11.146 2.92 5.66 2.764 14.996-.352 21.024-4.561 8.825-13.307 13.695-23.169 12.903-6.218-.499-10.877-2.713-15.124-7.188-5.179-5.456-6.267-8.322-6.263-16.499.003-8.35 1.453-11.928 7.011-17.305 6.934-6.707 18.229-8.424 26.851-4.081m149.641-1.077c5.639 1.921 12.381 8.663 14.302 14.302 2.983 8.755 1.187 17.347-5.084 24.322-9.252 10.29-25.506 10.29-34.758 0-9.003-10.014-8.717-23.456.699-32.873 6.826-6.825 15.675-8.874 24.841-5.751m152.475.268c4.895 1.832 10.455 6.894 13.13 11.955 1.179 2.229 1.579 4.828 1.579 10.24 0 8.325-1.09 11.083-6.663 16.861-11.103 11.511-30.693 8.274-38.128-6.299-2.959-5.8-3.018-15.249-.131-20.802 6.035-11.608 18.236-16.436 30.213-11.955M88.846 354.171c-9.258 2.424-16.537 6.839-24.513 14.868-8.369 8.423-13.149 17.318-15.357 28.575-7.512 38.304 27.106 72.922 65.41 65.41 11.515-2.259 20.243-7.011 29.038-15.81 11.63-11.634 16.276-22.86 16.276-39.321-.001-14.834-4.292-26.208-14.003-37.118-7.351-8.258-17.871-14.642-28.098-17.053-7.609-1.794-20.986-1.585-28.753.449m153.084-.367c-9.143 2.21-17.127 6.841-24.785 14.373-11.687 11.496-16.918 23.62-16.951 39.29-.022 10.393 1.176 15.719 5.663 25.173 4.833 10.183 15.004 20.391 25.396 25.487 7.539 3.697 17.253 6.086 24.747 6.086s17.208-2.389 24.747-6.086c10.392-5.096 20.563-15.304 25.396-25.487 4.487-9.454 5.685-14.78 5.663-25.173-.033-15.67-5.264-27.794-16.951-39.29-7.792-7.664-15.697-12.188-25.202-14.422-6.922-1.626-20.894-1.602-27.723.049m152.082-.043c-9.863 2.39-20.51 8.928-27.709 17.014-9.711 10.91-14.002 22.284-14.003 37.118 0 16.461 4.646 27.687 16.276 39.321 8.795 8.799 17.523 13.551 29.038 15.81 38.304 7.512 72.922-27.106 65.41-65.41-2.208-11.257-6.988-20.152-15.357-28.575-11.828-11.907-23.405-16.679-40.124-16.541-4.735.039-10.824.607-13.531 1.263m-279.815 32.723c5.137 2.62 8.106 5.489 10.825 10.459 3.36 6.142 3.601 15.329.557 21.19-4.429 8.527-10.782 12.809-19.982 13.47-7.196.516-12.243-1.241-17.512-6.098-5.898-5.436-7.425-9.057-7.425-17.612 0-5.795.369-7.939 1.835-10.666 2.936-5.461 9.05-10.511 14.887-12.296 4.109-1.257 12.898-.446 16.815 1.553m152.548.206c13.934 6.96 17.416 25.781 6.883 37.208-5.453 5.916-9.068 7.442-17.628 7.442s-12.175-1.526-17.628-7.442c-11.903-12.913-5.493-34.765 11.448-39.024 4.638-1.166 12.682-.303 16.925 1.816m151.614-.135c4.686 2.412 8.847 6.397 11.146 10.672 1.466 2.727 1.835 4.871 1.835 10.666 0 8.555-1.527 12.176-7.425 17.612-5.269 4.857-10.316 6.614-17.512 6.098-9.2-.661-15.553-4.943-19.982-13.47-2.565-4.939-2.746-15.003-.353-19.626 3.709-7.163 9.401-12.01 16.135-13.738 4.351-1.117 12.204-.249 16.156 1.786" fill-rule="evenodd"/></svg>