<svg xmlns="http://www.w3.org/2000/svg" width="512" height="512"><path d="M241.493 48.673c-39.799 2.563-78.317 17.074-111.786 42.114-10.589 7.922-31.248 28.596-39.155 39.184-21.846 29.252-35.222 61.365-40.767 97.869-2.061 13.574-2.061 42.746 0 56.32 5.546 36.511 18.94 68.661 40.773 97.869 8.04 10.755 28.658 31.373 39.413 39.413 29.208 21.833 61.358 35.227 97.869 40.773 13.574 2.061 42.746 2.061 56.32 0 36.526-5.548 68.754-18.978 97.869-40.785 10.755-8.056 31.345-28.646 39.401-39.401 21.807-29.115 35.237-61.343 40.785-97.869 2.061-13.574 2.061-42.746 0-56.32-6.752-44.453-25.412-83.157-55.294-114.69-36.541-38.56-84.833-61.088-138.36-64.543-13.196-.852-12.782-.853-27.068.066m42.667 33.635c35.838 6.075 67.575 21.95 93.579 46.81 27.61 26.395 45.561 60.682 52.093 99.5 2.091 12.43 2.073 42.896-.033 55.115-9.878 57.299-44.492 104.256-95.788 129.946-48.421 24.25-107.601 24.25-156.022 0-51.464-25.774-86.214-73.029-95.815-130.297-2.121-12.648-2.121-42.116 0-54.764 10.541-62.873 51.565-113.601 110.675-136.854 13.047-5.132 28.757-8.823 46.938-11.027 6.667-.809 36.585.251 44.373 1.571m-36.417 74.298c-1.96 1.174-4.456 3.571-5.547 5.325l-1.983 3.189-.426 68.913-.427 68.912-24.747-24.802c-13.61-13.642-26.528-26.126-28.705-27.743-9.627-7.149-22.203-3.128-25.096 8.025-1.313 5.06-.547 9.395 2.34 13.244 1.105 1.473 20.624 21.163 43.375 43.757 39.538 39.264 41.546 41.117 45.42 41.923 2.665.555 5.441.556 8.106.003 3.876-.804 5.865-2.64 45.412-41.923 22.748-22.595 42.266-42.287 43.375-43.76 2.894-3.843 3.662-8.179 2.348-13.244-2.893-11.153-15.469-15.174-25.096-8.025-2.177 1.617-15.095 14.101-28.705 27.743l-24.747 24.802-.427-68.912-.426-68.913-1.995-3.208c-4.505-7.246-14.714-9.703-22.049-5.306" fill-rule="evenodd"/></svg>