<svg xmlns="http://www.w3.org/2000/svg" width="512" height="512"><path d="M249.45 77.125c-1.96.64-4.84 1.963-6.4 2.94-1.56.977-36.298 35.298-77.196 76.269-70.909 71.036-74.443 74.722-76.16 79.431-.99 2.717-1.801 6.446-1.801 8.288 0 4.395 2.752 11.614 5.866 15.389 5.815 7.05 16.817 10.135 25.803 7.237 4.353-1.404 7.472-4.351 58.563-55.344l53.965-53.861.222 130.543.221 130.543 2.106 4.121c2.771 5.426 7.228 9.338 13.175 11.563 6.109 2.285 10.263 2.285 16.372 0 5.947-2.225 10.404-6.137 13.175-11.563l2.106-4.121.221-129.92c.122-71.456.502-129.92.844-129.92.343 0 24.627 23.957 53.966 53.238 50.488 50.389 53.588 53.317 57.94 54.721 8.986 2.899 19.988-.187 25.803-7.237 3.114-3.775 5.866-10.994 5.866-15.389 0-1.842-.812-5.571-1.804-8.288-1.72-4.708-5.297-8.436-76.587-79.848-59.911-60.013-75.654-75.339-79.163-77.065-5.308-2.611-12.252-3.312-17.103-1.727" fill-rule="evenodd"/></svg>