<svg xmlns="http://www.w3.org/2000/svg" width="512" height="512"><path d="M238.038 89.014c-2.135.599-5.207 1.918-6.827 2.931-1.619 1.013-36.406 35.364-77.304 76.335-71.707 71.837-74.426 74.676-76.244 79.613-2.363 6.418-1.985 12.802 1.113 18.827 1.637 3.184 20.484 22.491 77.109 78.996 71.43 71.278 75.173 74.867 79.88 76.587 2.717.992 6.446 1.804 8.288 1.804 4.395 0 11.614-2.752 15.389-5.866 7.05-5.815 10.136-16.817 7.237-25.803-1.404-4.352-4.332-7.452-54.721-57.94-29.281-29.339-53.238-53.623-53.238-53.966 0-.342 58.464-.722 129.92-.844l129.92-.221 4.121-2.106c5.426-2.771 9.338-7.228 11.563-13.175 2.282-6.099 2.286-10.262.015-16.331-2.253-6.022-5.371-9.601-11.16-12.807l-4.539-2.515-130.54-.224-130.54-.224 53.858-53.962c50.99-51.089 53.937-54.208 55.341-58.561 3.621-11.225-1.493-23.638-11.785-28.605-5.492-2.651-11.756-3.372-16.856-1.943" fill-rule="evenodd"/></svg>