<svg xmlns="http://www.w3.org/2000/svg" width="512" height="512"><path d="M270.08 72.317c-4.387.726-5.595 1.221-8.072 3.304-5.736 4.827-5.537 3.165-6.008 50.246l-.427 42.666-5.12.225c-2.816.123-10.112.815-16.213 1.538-66.166 7.84-113.401 35.343-145.656 84.81C68.985 285.162 56.1 324.727 50.774 371.2c-2.12 18.505-3.446 52.6-2.216 57.005 2.221 7.952 11.282 13.301 19.008 11.221 5.327-1.435 6.279-2.244 14.508-12.333 13.286-16.289 24.71-28.541 34.406-36.899 31.004-26.727 63.54-39.297 114.27-44.149 7.468-.714 16.204-1.298 19.414-1.298H256l.019 41.173c.017 38.1.135 41.431 1.585 44.622 4.042 8.899 14.246 12.042 22.493 6.93 5.163-3.201 181.317-172.012 182.554-174.944 1.453-3.444 1.453-9.612 0-13.056-1.133-2.685-176.97-171.396-182.1-174.719-2.675-1.733-7.68-2.897-10.471-2.436m90.667 122.531c34.848 33.26 63.36 60.783 63.36 61.163 0 .38-30.432 29.737-67.627 65.238l-67.627 64.546-.426-30.978c-.473-34.334-.365-33.67-6.338-38.915-1.657-1.454-4.447-2.914-6.201-3.243-4.628-.868-38.833.272-52.481 1.749-58.177 6.295-95.193 21.997-133.727 56.727l-7.173 6.465.582-5.973c.32-3.286 1.544-11.451 2.72-18.146 11.511-65.534 40.737-109.832 87.844-133.15 24.6-12.176 50.747-18.231 85.321-19.758 17.162-.758 19.892-1.332 23.769-5.001 5.303-5.017 5.233-4.526 5.519-38.416l.263-31.004 4.431 4.112c2.437 2.262 32.943 31.324 67.791 64.584" fill-rule="evenodd"/></svg>