<svg xmlns="http://www.w3.org/2000/svg" width="512" height="512"><path d="M252.587 63.282c-25 2.334-52.035 10.474-75.094 22.612C116.8 117.842 74.922 176.449 65.125 243.15c-2.045 13.923-2.032 40.815.025 53.383 6.515 39.804 22.554 71.956 49.178 98.579 20.344 20.344 43.454 34.193 71.699 42.964 21.019 6.528 39.238 8.723 65.706 7.918 26.375-.803 39.231-3.031 61.014-10.574 13.819-4.786 16.843-6.308 19.529-9.829 5.743-7.531 3.924-17.971-4.029-23.129-5.16-3.346-10.116-3.062-21.551 1.233-20.926 7.86-35.16 10.219-62.216 10.31-12.585.043-20.587-.353-26.878-1.328-58.6-9.084-103.429-49.462-117.579-105.904-3.546-14.144-4.786-26.8-4.211-42.953.892-25.031 5.799-44.572 16.88-67.228 11.481-23.472 25.458-41.629 45.266-58.807 25.535-22.142 57.612-36.942 90.472-41.74 10.417-1.522 34.691-1.76 46.397-.455 39.521 4.405 72.599 20.608 93.394 45.749 14.41 17.421 22.941 36.843 27.5 62.608 1.739 9.826 1.452 41.705-.473 52.48-2.195 12.29-6.889 25.776-11.952 34.341-12.339 20.873-33.319 31.901-49.25 25.888-11.612-4.383-19.474-18.576-19.525-35.248-.008-2.687 1.906-26.639 4.252-53.226 2.347-26.588 4.267-50.616 4.267-53.397 0-5.874-1.29-8.8-5.519-12.513-3.685-3.235-5.946-3.874-11.952-3.376-8.515.706-13.375 6.471-14.498 17.196l-.613 5.852-2.696-2.53c-8.201-7.698-22.687-15.635-33.842-18.543-7.514-1.959-25.58-2.664-33.895-1.322-46.944 7.573-82.558 55.333-80.194 107.544 1.579 34.873 19.486 63.489 47.749 76.307 12.376 5.612 25.447 7.637 40.899 6.335 21.182-1.784 39.921-10.224 56.228-25.326l6.467-5.988 1.565 2.709c3.154 5.46 10.119 13.506 14.815 17.115 23.585 18.126 54.87 15.964 81.738-5.65 20.375-16.392 33.396-42.266 38.413-76.338 2.055-13.952 2.053-41.489-.004-54.87-9.371-60.974-44.71-105.257-100.818-126.331-27.406-10.295-62.8-14.714-94.296-11.774m17.219 129.791c12.097 4.424 22.093 13.608 28.042 25.764 4.729 9.663 6.003 15.363 6.019 26.923.048 35.283-18.465 62.573-47.867 70.557-7.879 2.14-24.331 2.117-30.72-.043-16.209-5.479-27.766-19.355-32.009-38.431-1.942-8.729-1.389-26.948 1.089-35.923 7.317-26.495 26.951-46.575 49.693-50.822 6.906-1.289 19.458-.327 25.753 1.975" fill-rule="evenodd"/></svg>