<svg xmlns="http://www.w3.org/2000/svg" width="512" height="512"><path d="M220.587 63.203c-7.938.712-13.578 1.915-19.831 4.23-31.678 11.731-52.321 38.182-55.712 71.385-.652 6.383-.847 40.863-.633 111.635.305 100.265.348 102.561 2.094 110.08 5.357 23.077 14.882 40.655 30.543 56.367 21.645 21.717 48.335 32.807 78.952 32.807 57.255 0 104.341-42.223 110.896-99.442 1.256-10.964 1.198-189.976-.063-194.518-3.796-13.675-22.81-15.875-29.64-3.429-1.276 2.324-1.447 11.685-1.847 100.695-.439 97.671-.45 98.165-2.306 104.725-6.953 24.569-21.538 42.051-44.011 52.751-21.116 10.053-45.381 9.899-66.91-.425-23.808-11.417-39.597-32.133-44.251-58.064-1.021-5.684-1.226-23.984-1.227-109.303-.001-99.978.041-102.641 1.72-109.208 4.644-18.155 18.946-32.418 37.188-37.083 27.733-7.093 55.854 9.595 63.11 37.454 1.044 4.007 1.231 20.355 1.216 105.893-.019 99.823-.042 101.204-1.752 104.994-8.381 18.567-34.225 19.265-43.464 1.175l-2.126-4.162-.426-77.227c-.386-69.755-.564-77.474-1.839-79.786-3.154-5.716-7.812-8.391-14.612-8.391-4.081 0-5.549.431-8.461 2.488-1.938 1.369-4.325 4.025-5.306 5.903-1.77 3.389-1.782 3.968-1.782 81.066v77.654l1.971 6.826c3.773 13.067 11.908 24.051 23.604 31.874 17.597 11.77 41.156 12.114 59.841.875 6.731-4.049 17.22-15.364 20.514-22.129 6.327-12.994 5.817-3.205 6.124-117.713.294-109.303.316-108.596-3.862-121.6-4.374-13.615-10.935-24.558-20.404-34.032-17.968-17.977-41.904-26.641-67.308-24.365" fill-rule="evenodd"/></svg>