<svg xmlns="http://www.w3.org/2000/svg" width="512" height="512"><path d="M144.303 97.777c-2.533.681-6.481 2.26-8.775 3.508-9.302 5.063-11.345 7.825-57.822 78.17C53.272 216.438 32.704 247.811 32 249.173c-1.64 3.172-1.647 10.468-.013 13.629 2.201 4.256 89.065 135.109 92.145 138.809 4.118 4.946 12.391 10.226 19.552 12.478L149.76 416h260.267l6.008-1.891c13.78-4.335 24.393-14.555 29.495-28.404l2.043-5.545V131.84l-2.031-5.547c-5.14-14.032-16.847-25.022-30.425-28.558-7.365-1.919-263.672-1.879-270.814.042m264.427 31.718c1.633.82 3.841 2.796 4.906 4.391l1.937 2.9v238.428l-1.937 2.9c-1.065 1.595-3.273 3.571-4.906 4.391-2.787 1.401-10.703 1.492-128.708 1.494-112.696.001-126.031-.138-128.572-1.344-2.342-1.112-10.037-12.207-44.388-64.003l-41.554-62.659 41.536-62.634c33.104-49.92 42.088-62.907 44.259-63.977 2.44-1.203 15.826-1.345 128.59-1.361 118.151-.017 126.049.073 128.837 1.474M198.606 178.59c-6.253 3.786-9.243 10.982-7.427 17.877.837 3.177 4.527 7.218 29.05 31.816 15.45 15.498 28.091 28.546 28.091 28.997 0 .451-12.641 13.499-28.091 28.997-24.523 24.598-28.213 28.639-29.05 31.816-1.805 6.854.904 13.897 6.863 17.84 3.726 2.466 11.592 3.072 15.307 1.18 1.165-.593 14.792-13.711 30.282-29.149l28.165-28.071 27.729 27.79c15.251 15.284 28.871 28.395 30.268 29.135 3.052 1.617 10.387 1.764 13.289.266 2.967-1.531 6.731-5.169 8.141-7.868 1.419-2.717 1.581-9.807.301-13.214-.496-1.321-13.549-15.079-29.007-30.573l-28.105-28.171 27.813-27.722c15.328-15.278 28.349-28.955 29.007-30.469 1.435-3.298 1.567-10.721.237-13.31-1.416-2.755-5.123-6.543-7.747-7.913-2.985-1.56-11.212-1.548-14.164.02-1.268.673-14.78 13.726-30.027 29.007l-27.723 27.784-28.171-28.105c-15.493-15.458-29.251-28.512-30.573-29.008-4.21-1.581-10.918-1.095-14.458 1.048" fill-rule="evenodd"/></svg>