<svg xmlns="http://www.w3.org/2000/svg" viewBox="0 0 512 512"><path d="M236.8 33.749c-14.04 2.362-30.498 9.006-43.52 17.571-8.786 5.778-24.395 21.387-30.173 30.173-7.942 12.075-13.74 25.885-16.839 40.107-.947 4.348-1.668 12.559-1.984 22.613L143.787 160l-36.267.427-36.267.426-4.695 2.203c-8.809 4.132-15.731 12.993-17.812 22.799-.682 3.216-.959 36.529-.959 115.302 0 95.275.181 111.82 1.296 118.215 5.085 29.158 27.069 52.175 56.397 59.05 6.411 1.502 13.638 1.578 150.947 1.578H400.64l7.51-1.914c14.383-3.666 26.012-10.32 35.636-20.388 9.23-9.657 13.629-17.116 17.644-29.916l2.357-7.515.258-114.347c.188-83.327-.008-115.728-.72-119.438-1.956-10.194-8.808-19.168-17.883-23.426l-4.695-2.203-36.267-.426-36.267-.427-.513-15.787c-.634-19.487-2.197-27.698-8.057-42.315-14.32-35.722-47.387-62.064-85.72-68.287-9.004-1.462-28.035-1.391-37.123.138m37.12 32.405c30.615 7.279 54.053 31.3 60.183 61.679.895 4.436 1.478 11.777 1.557 19.627l.127 12.54H176.213l.169-13.387c.188-14.949 1.765-23.613 6.189-34.009 10.164-23.886 32.919-42.365 57.642-46.81 2.816-.506 6.08-1.092 7.254-1.301 4.026-.718 20.908.342 26.453 1.661M431.589 305.28l-.229 113.28-2.732 5.767c-4.98 10.514-15.005 19.137-25.693 22.1C397.53 447.926 390.64 448 256.411 448c-154.13 0-145.589.272-155.158-4.935-6.577-3.578-13.673-11.227-17.388-18.743l-3.225-6.526-.229-112.898L80.183 192h351.634l-.228 113.28M252.16 240.561c-5.68 1.411-9.961 5.507-11.482 10.985-.512 1.843-.884 13.465-.887 27.707l-.004 24.534-24.107.02c-13.259.011-25.613.37-27.454.797-12.06 2.797-16.245 17.764-7.431 26.578 1.725 1.726 4.664 3.561 6.531 4.08 2.112.586 12.661.944 27.927.947l24.534.004.004 24.534c.003 14.242.375 25.864.887 27.707 2.312 8.324 11.09 13.195 19.635 10.893 4.693-1.263 9.688-6.133 10.949-10.673.586-2.112.944-12.661.947-27.927l.004-24.534 24.534-.004c15.266-.003 25.815-.361 27.927-.947 1.867-.519 4.806-2.354 6.531-4.08 8.814-8.814 4.629-23.781-7.431-26.578-1.841-.427-14.195-.786-27.454-.797l-24.107-.02-.004-24.534c-.003-14.242-.375-25.864-.887-27.707-1.032-3.716-4.353-7.93-7.53-9.556-3.007-1.538-8.486-2.211-11.632-1.429" fill-rule="evenodd"/></svg>