<svg xmlns="http://www.w3.org/2000/svg" viewBox="0 0 512 512"><path d="M242.576.93c-45.855 3.195-91.369 26.288-120.623 61.202-26.486 31.61-40.314 67.635-41.5 108.108-.807 27.554 3.485 51.544 13.967 78.08 11.22 28.402 28.307 53.693 51.612 76.392 28.29 27.555 62.901 47.283 95.794 54.601 5.057 1.125 6.238 1.684 5.984 2.831-2.635 11.909-6.376 35.425-6.04 37.97.594 4.502 4.19 9.598 8.224 11.656 4.658 2.376 9.989 2.286 26.247-.443 2.717-.456 2.79-.377 6.556 7.121 11.189 22.279 30.326 43.703 51.923 58.129 8.098 5.409 26.142 14.259 30.612 15.014 4.805.812 11.236-1.568 14.308-5.294 7.355-8.923 4.433-20.353-6.514-25.483-17.858-8.369-26.705-14.134-37.224-24.255-9.098-8.754-22.729-26.644-22.729-29.831 0-.382 2.36-.961 5.244-1.287 2.884-.327 6.719-1.184 8.522-1.906 6.403-2.562 10.954-10.541 9.731-17.06-.294-1.57-4.165-10.163-8.603-19.096-4.437-8.933-8.067-16.364-8.067-16.514 0-.149 3.403-2.209 7.561-4.579 43.213-24.619 79.481-71.949 95.168-124.194 5.984-19.927 8.22-34.1 8.816-55.866.402-14.708.185-19.684-1.456-33.28-1.06-8.792-2.401-17.138-2.978-18.546-.578-1.408-2.603-7.391-4.5-13.296-15.762-49.05-53.76-89.263-102.647-108.631C296.639 3.232 268.906-.904 242.576.93m29.66 32.395c42.189 5.242 79.729 28.119 103.064 62.807 28.312 42.086 32.263 101.648 10.266 154.748-16.295 39.335-47.685 75.001-80.001 90.899-19.08 9.388-36.699 11.204-57.968 5.977-55.795-13.712-107.86-63.344-126.787-120.863-12.355-37.548-11.359-73.915 2.942-107.426 18.072-42.348 56.542-74.053 101.515-83.662 4.466-.954 10.616-2.056 13.666-2.449 8.135-1.046 25.007-1.062 33.303-.031M148.66 207.47c-4.383 1.264-9.168 6.617-10.362 11.593-.902 3.761-.808 4.872.821 9.708 7.19 21.341 23.151 45.135 42.186 62.886 18.092 16.873 47.031 33.569 56.078 32.356 8.866-1.19 14.898-8.487 14.18-17.154-.637-7.678-2.742-9.978-14.518-15.859-12.147-6.067-14.495-7.459-22.481-13.33-18.817-13.834-34.334-33.375-43.088-54.263-4.117-9.825-6.477-12.968-11.476-15.283-3.717-1.721-6.987-1.909-11.34-.654m144.087 180.904c1.918 3.814 3.17 7.209 2.783 7.545-.796.693-17.225 2.991-17.734 2.481-.182-.181.316-3.784 1.105-8.005l1.435-7.675 2.979-.528c5.867-1.039 5.77-1.103 9.432 6.182" fill-rule="evenodd"/></svg>