<svg xmlns="http://www.w3.org/2000/svg" viewBox="0 0 512 512"><path d="M231.253 33.392c-16.355 1.665-38.573 7.009-54.742 13.167-20.215 7.699-44.67 21.825-62.003 35.814-22.439 18.11-43.36 43.753-56.938 69.791-15.058 28.874-23.154 58.252-25.123 91.16-5.222 87.26 42.038 170.597 119.717 211.106 79.252 41.329 174.746 31.925 244.36-24.066 76.574-61.59 103.962-166.627 67.269-257.991-28.024-69.778-90.412-121.426-164.273-135.994-5.867-1.158-14.861-2.52-19.988-3.028-10.737-1.065-37.645-1.042-48.279.041m52.907 32.766c54.685 8.255 102.478 39.038 133.112 85.735 6.481 9.881 15.857 28.994 19.882 40.534 7.388 21.18 10.349 39.366 10.349 63.573 0 31.854-5.455 55.84-19.127 84.098-5.788 11.963-16.62 29.105-22.778 36.047l-3.251 3.664L267.21 244.633 132.072 109.457l5.858-4.706c15.356-12.34 37.485-24.202 57.483-30.813 15.043-4.973 27.138-7.424 46.507-9.424 6.868-.709 33.525.329 42.24 1.644m91.986 339.484c-6.583 5.918-23.807 16.81-36.048 22.796-53.825 26.32-116.779 25.999-169.858-.867-19.969-10.107-34.125-20.261-49.39-35.427-24.918-24.757-43.012-56.608-51.164-90.064-3.965-16.274-5.189-27.143-5.189-46.08 0-18.937 1.224-29.806 5.189-46.08 6.145-25.22 19.477-52.593 35.065-71.99l4.706-5.858L244.635 267.21l135.177 135.137-3.666 3.295" fill-rule="evenodd"/></svg>