<svg xmlns="http://www.w3.org/2000/svg" width="512" height="512"><path d="M374.382 17.454c-14.221 2.496-27.815 7.974-40.631 16.374-6.347 4.16-26.619 24.062-148.412 145.708-77.583 77.49-143.169 143.452-145.747 146.582-9.563 11.613-16.589 25.533-20.57 40.752-2.901 11.088-3.644 30.912-1.599 42.656 7.523 43.21 41.841 77.528 85.051 85.051 11.744 2.045 31.568 1.302 42.656-1.599 15.219-3.981 29.139-11.007 40.752-20.57 3.13-2.578 69.092-68.164 146.582-145.747 149.838-150.019 145.039-144.973 153.013-160.924 11.412-22.829 13.603-53.742 5.515-77.797-11.77-35.01-39.585-60.511-75.467-69.189-10.093-2.441-30.887-3.096-41.143-1.297m36.742 32.955c18.804 4.809 36.747 19.946 45.867 38.693 5.027 10.333 6.617 17.828 6.625 31.218.01 16.232-3.074 26.597-11.807 39.68-6.472 9.696-64.086 67.23-65.268 65.177-3.279-5.697-13.648-16.652-50.479-53.326-25.944-25.834-43.643-42.804-46.142-44.241-2.229-1.283-4.053-2.591-4.053-2.907 0-.316 13.728-14.259 30.506-30.984 32.326-32.222 36.667-35.83 49.004-40.741 5.572-2.218 11.133-3.585 19.05-4.683 5.084-.704 20.426.51 26.697 2.114M271.616 154.116c3.552 1.781 81.948 79.807 85.173 84.771 3.476 5.352 3.476 11.809-.001 17.159-3.956 6.088-96.375 97.779-100.121 99.332-3.68 1.526-8.908 1.702-12.345.416-3.163-1.183-85.239-83.075-87.369-87.173-1.985-3.818-2.114-8.988-.331-13.288 1.571-3.789 95.509-98.354 100.231-100.901 3.744-2.018 11.055-2.175 14.763-.316m-22.051 39.488c-7.052 3.203-10.93 10.774-9.074 17.712 1.413 5.284 3.195 7.703 7.553 10.257 2.656 1.557 4.975 2.197 7.956 2.197 4.784 0 10.782-2.985 13.098-6.519 2.559-3.906 3.548-9.35 2.396-13.192-2.872-9.586-13.103-14.464-21.929-10.455m-43.485 46.604c-.469.155-1.88.508-3.134.784-5.411 1.188-10.909 8.752-10.909 15.008 0 9.864 10.077 17.97 19.279 15.509 5.284-1.413 7.703-3.195 10.257-7.553 5.719-9.758-.237-21.804-11.653-23.569-1.643-.254-3.371-.335-3.84-.179m94.599.395c-10.609 2.521-15.685 14.083-10.252 23.353 2.554 4.358 4.973 6.14 10.257 7.553 6.938 1.856 14.509-2.022 17.712-9.074 5.346-11.768-5.229-24.8-17.717-21.832m-122.596 95.705c26.455 26.353 45.68 44.844 47.87 46.042l3.66 2.002-30.54 30.609c-16.797 16.836-32.679 32.278-35.293 34.316-6.945 5.416-14.702 9.407-23.407 12.044-6.805 2.062-9.089 2.331-20.053 2.364-10.328.03-13.484-.281-19.095-1.878-20.196-5.752-36.962-19.864-46.197-38.885-4.989-10.278-6.611-17.917-6.633-31.242-.019-11.645 1.232-18.498 5.023-27.512 4.868-11.576 8.706-16.099 41.97-49.463l32.078-32.175 3.204 4.868c1.903 2.894 21.136 22.733 47.413 48.91m69.276-45.436c-10.649 6.753-9.407 22.249 2.206 27.524 4.377 1.988 8.493 1.988 12.87 0 15.659-7.113 10.751-29.969-6.435-29.969-3.802 0-5.579.502-8.641 2.445" fill-rule="evenodd"/></svg>