<svg xmlns="http://www.w3.org/2000/svg" width="512" height="512"><path d="M241.493 48.641c-73.546 4.98-139.537 49.344-171.991 115.626-9.821 20.057-16.261 40.822-19.717 63.573-2.061 13.574-2.061 42.746 0 56.32 9.53 62.741 43.783 115.395 96.708 148.659 22.943 14.42 52.088 24.952 81.347 29.396 13.574 2.061 42.746 2.061 56.32 0 44.794-6.804 83.873-25.735 115.311-55.86 34.149-32.722 55.457-74.222 62.744-122.195 2.061-13.574 2.061-42.746 0-56.32-9.459-62.277-43.536-114.958-95.783-148.074-17.584-11.145-45.197-22.467-65.205-26.735-18.623-3.972-41.298-5.638-59.734-4.39m-.512 33.492c.159.587.918 5.749 1.688 11.471.77 5.722 1.611 10.955 1.87 11.628.315.822-.317 1.412-1.928 1.798-8.447 2.022-16.756 5.101-19.108 7.08-10.089 8.489-6.281 24.048 6.735 27.511 3.277.872 4.744.684 13.475-1.735 5.389-1.492 9.903-2.569 10.032-2.393.129.176 1.488 3.392 3.02 7.147 1.532 3.755 5.018 11.067 7.746 16.249l4.961 9.423-7.047 4.906c-9.063 6.309-10.683 8.103-12.04 13.338-1.454 5.602.081 11.273 4.098 15.148 3.441 3.32 6.454 4.509 11.42 4.509 4.42 0 7.833-1.613 16.057-7.591l5.906-4.293 6.72 7.182c3.696 3.951 9.952 10.207 13.903 13.903l7.182 6.72-4.293 5.906c-5.978 8.224-7.591 11.637-7.591 16.057 0 4.787 1.175 7.946 4.107 11.046 4.52 4.776 9.911 6.243 16.144 4.392 4.676-1.388 6.615-3.221 13.191-12.473l4.629-6.512 7.631 4.15c4.197 2.282 11.471 5.769 16.164 7.747 4.694 1.979 8.678 3.698 8.854 3.82.176.122-.901 4.633-2.394 10.023-3.106 11.214-2.973 13.948.942 19.353 2.832 3.909 8.124 6.72 12.652 6.72 4.072 0 9.41-2.57 12.183-5.866 1.977-2.35 5.06-10.666 7.074-19.083.401-1.679.975-2.248 1.962-1.945 2.614.803 17.599 3.031 20.407 3.034 1.753.002 2.993.504 3.314 1.341.818 2.131-1.357 16.05-4.391 28.103-10.837 43.049-39.358 81.917-77.481 105.591-21.284 13.216-50.035 23.259-71.874 25.105l-6.394.541-.004-2.899c-.003-2.698-1.999-16.692-3-21.032-.263-1.14-.041-1.92.546-1.92.544 0 4.783-1.171 9.422-2.602 9.719-2.999 13.52-5.783 15.705-11.505 3.869-10.131-3.742-20.879-14.786-20.879-2.272 0-7.375.952-11.34 2.115-3.966 1.164-7.606 2.124-8.09 2.133-.483.01-2.595-4.085-4.693-9.1-2.097-5.016-5.645-12.388-7.885-16.383-3.001-5.353-3.787-7.424-2.987-7.872 4.983-2.797 15.86-11.948 17.131-14.413 2.349-4.557 1.672-12.506-1.409-16.546-3.067-4.02-7.996-6.494-12.939-6.494-4.568 0-6.733 1.012-15.608 7.3l-6.553 4.642-5.807-6.364c-3.194-3.501-9.438-9.75-13.876-13.888l-8.068-7.523 4.325-5.95c6.122-8.424 7.623-11.647 7.621-16.37-.003-8.451-5.936-14.822-14.372-15.432-8.123-.588-11.445 1.655-19.326 13.051-2.272 3.286-4.239 6.113-4.371 6.284-.132.171-1.508-.468-3.058-1.42-4.212-2.587-21.012-10.799-25.645-12.536-2.229-.836-4.053-1.847-4.053-2.248 0-.401 1.163-4.86 2.586-9.911 2.342-8.316 2.493-9.575 1.595-13.347-2.495-10.478-15.161-15.554-23.981-9.61-4.149 2.796-6.089 6.269-8.849 15.847-2.347 8.147-2.617 8.64-4.464 8.178-3.299-.826-18.365-2.986-20.861-2.992-2.078-.004-2.346-.322-2.343-2.778.002-1.525.59-6.421 1.308-10.88 5.901-36.681 22.734-69.431 49.383-96.079 26.215-26.216 57.507-42.549 93.946-49.036 10.396-1.85 14.888-2.024 15.274-.592m43.179.245c68.673 11.048 125.26 62.692 142.087 129.675 2.599 10.347 5.267 25.766 4.568 26.402-.411.373-15.08-1.635-15.577-2.133-.214-.213.743-4.417 2.126-9.342 2.72-9.681 2.672-11.843-.381-17.357-4.914-8.876-19.05-10.045-25.714-2.126-1.153 1.371-3.283 6.335-4.733 11.033-2.441 7.911-2.773 8.499-4.506 7.979-2.058-.617-18.233-8.363-20.119-9.635-.942-.635-.134-2.365 3.971-8.502 5.573-8.332 6.654-11.379 5.755-16.225-1.944-10.493-13.262-15.979-23.12-11.207-2.7 1.308-4.838 3.526-8.589 8.916-2.747 3.947-5.401 7.196-5.897 7.22-1.084.053-19.165-18.143-19.12-19.242.018-.422 3.272-3.025 7.231-5.784 5.389-3.756 7.634-5.916 8.929-8.59 4.05-8.366.962-17.695-7.099-21.448-7.326-3.412-11.207-2.506-21.845 5.097-3.025 2.162-5.804 3.931-6.175 3.931-.698 0-9.541-17.767-10.487-21.07-.495-1.731.121-2.073 8.253-4.577 7.353-2.264 9.306-3.248 11.956-6.025 3.54-3.709 5.333-8.915 4.472-12.986-.985-4.658-4.069-9.188-7.705-11.319-5.296-3.103-10.925-2.711-24.946 1.739-1.956.621-2.288-.344-3.436-9.975-.802-6.721-1.662-6.342 10.101-4.449M92.487 274.9c3.498.702 4.753 1.306 4.436 2.134-2.119 5.521-4.735 17.625-4.247 19.651 2.481 10.31 10.77 15.482 20.349 12.697 6.245-1.815 9.217-5.389 11.96-14.384 1.189-3.897 2.162-7.524 2.162-8.058 0-.535.395-1.217.877-1.515.89-.55 23.016 9.673 23.016 10.634 0 .287-1.922 3.191-4.271 6.453-5.556 7.718-7.196 12.024-6.456 16.955 1.664 11.099 14.135 17.066 23.711 11.346 2.428-1.451 5.233-4.484 8.349-9.028 2.582-3.764 4.962-6.858 5.29-6.875.895-.045 15.844 14.359 17.905 17.254 1.352 1.899 1.533 2.68.736 3.173-6.048 3.738-13.931 10.396-15.398 13.007-3.799 6.759-1.473 16.511 4.924 20.644 7.181 4.639 11.923 3.997 22.439-3.037 4.251-2.844 7.852-5.034 8.003-4.867.15.166 2.012 3.759 4.137 7.983 6.6 13.118 7.386 15.786 4.651 15.786-.534 0-4.243.998-8.24 2.217-8.612 2.627-12.962 6.282-14.566 12.239-1.863 6.919 1.473 14.841 7.525 17.867 5.498 2.75 8 2.77 17.372.139 4.831-1.356 8.905-2.343 9.055-2.194.416.416 1.837 10.8 1.857 13.564l.017 2.445-4.907-.586c-22.678-2.711-49.464-12.287-69.948-25.006-37.51-23.293-66.164-61.902-77.098-103.885-2.135-8.195-5.047-23.553-5.057-26.666-.004-1.356 4.913-1.394 11.417-.087" fill-rule="evenodd"/></svg>