<svg xmlns="http://www.w3.org/2000/svg" width="512" height="512"><path d="M69.547 128.527c-.939.188-3.819.754-6.4 1.256-2.582.502-8.342 2.664-12.8 4.804-7.071 3.394-9.143 4.94-16.216 12.092-9.216 9.32-13.36 16.412-16.217 27.751-1.634 6.487-1.701 9.667-1.701 81.57 0 71.903.067 75.083 1.701 81.57 2.857 11.339 7.001 18.431 16.217 27.751 7.051 7.13 9.167 8.711 16.216 12.113 14.743 7.117 1.01 6.643 184.746 6.376l162.987-.237 6.827-2.324c9.86-3.358 16.975-7.832 24.802-15.596 7.638-7.576 12.125-14.76 15.631-25.031l2.233-6.542V177.92l-2.324-6.827c-3.369-9.891-7.848-16.999-15.596-24.746-7.747-7.748-14.855-12.227-24.746-15.596l-6.827-2.324-163.413-.122c-89.878-.067-164.182.033-165.12.222m329.386 34.423c5.453 2.68 11.437 8.664 14.117 14.117l2.097 4.266v149.334l-2.086 4.266c-2.937 6.009-9.978 12.637-16.008 15.071L392.107 352l-156.16.237c-105.832.161-158.037-.051-161.983-.657-10.749-1.652-18.767-7.658-23.361-17.5l-2.39-5.12V183.04l2.479-5.369c3.036-6.573 9.718-12.986 16.087-15.439 4.438-1.709 5.797-1.722 166.181-1.551l161.707.172 4.266 2.097M86.086 183.465c-5.047.873-10.206 4.3-13.271 8.817L70.4 195.84v120.32l2.414 3.557c3.131 4.613 7.621 7.668 12.946 8.805 2.893.619 28.572.836 79.787.675l75.52-.237 3.413-1.845c1.877-1.015 4.645-3.129 6.15-4.697 5.468-5.695 5.37-4.492 5.365-66.312-.003-36.846-.314-57.114-.91-59.26-1.118-4.026-5.929-9.476-10.547-11.948l-3.471-1.858-75.52-.128c-41.536-.071-77.293.178-79.461.553m387.087 20.838c-3.18 1.419-6.853 5.272-8.052 8.446-1.249 3.304-1.25 83.191-.002 86.502 2.123 5.632 8.475 9.826 14.881 9.826 6.406 0 12.758-4.194 14.881-9.826 1.248-3.311 1.247-83.198-.002-86.502-1.235-3.269-4.918-7.06-8.238-8.481-3.455-1.478-10.117-1.461-13.468.035" fill-rule="evenodd"/></svg>