<svg xmlns="http://www.w3.org/2000/svg" width="512" height="512"><path d="M109.726 33.371c-18.188 2.653-33.003 10.086-44.534 22.343-9.683 10.293-14.711 20.696-16.744 34.643-.854 5.864-.79 7.192.511 10.599 2.107 5.517 6.93 9.608 12.611 10.695 2.51.481 8.785 1.691 13.945 2.689 10.755 2.081 15.395 4.297 17.881 8.54 1.741 2.97 1.753 3.772 2.222 145.067.44 132.387.576 142.516 1.994 148.48 7.56 31.797 30.201 54.436 61.961 61.955 5.896 1.396 14.2 1.54 105.387 1.826 65.231.205 102.394.003 108.978-.591 26.925-2.432 48.885-16.072 62.756-38.98 4.713-7.783 8.902-19.286 10.412-28.594.583-3.591.883-58.464.888-162.073.004-109.429.287-158.169.937-161.707 1.308-7.115 5.151-16.64 10.096-25.021 2.322-3.936 4.479-8.676 4.793-10.533 1.204-7.124-3.425-15.584-10.213-18.667-3.343-1.519-9.763-1.575-171.154-1.493-92.224.047-169.951.417-172.727.822M422.4 64.798c0 .439-.423 1.879-.941 3.2-4.891 12.488-5.853 22.491-5.871 61.069l-.015 31.36H128.185l-.381-18.987c-.354-17.657-.539-19.468-2.635-25.854-2.704-8.237-5.809-13.132-12.113-19.094-5.277-4.991-15.747-10.326-23.669-12.062-2.699-.591-4.907-1.406-4.907-1.812 0-1.376 7.237-8.644 11.001-11.047 4.732-3.021 12.863-5.746 19.852-6.652 7.714-1.001 307.067-1.119 307.067-.121m-6.827 234.969c0 118.487.259 112.413-5.216 122.685-5.42 10.169-14.958 18.537-26.033 22.841l-5.871 2.28-103.888.233c-115.278.259-109.729.506-120.868-5.374-8.523-4.499-16.501-12.727-20.969-21.627-4.803-9.569-4.697-6.811-4.713-122.352L128 192h287.573v107.767" fill-rule="evenodd"/></svg>