<svg xmlns="http://www.w3.org/2000/svg" width="512" height="512"><path d="M247.743 34.579c-1.96 1.175-4.456 3.571-5.547 5.325l-1.983 3.189-.228 88.955-.229 88.955-42.865-36.768c-23.575-20.222-44.289-37.5-46.03-38.395-9.63-4.948-21.607 1.84-22.665 12.845-.8 8.33-1.624 7.488 53.068 54.243 27.437 23.455 49.885 42.837 49.885 43.072 0 .235-22.448 19.617-49.885 43.072-54.692 46.755-53.868 45.913-53.068 54.243 1.039 10.814 12.374 17.58 22.231 13.271 1.511-.66 22.227-17.937 46.038-38.394l43.291-37.194.229 88.955.228 88.954 1.995 3.207c4.542 7.306 14.396 9.8 21.656 5.481 5.562-3.309 117.204-115.476 118.822-119.381.723-1.745 1.314-4.6 1.314-6.344 0-7.203-.448-7.647-53.264-52.798-27.437-23.455-49.885-42.837-49.885-43.072 0-.235 22.448-19.617 49.885-43.072C383.552 167.777 384 167.333 384 160.13c0-1.744-.591-4.599-1.314-6.344-1.551-3.745-111.987-114.916-118.106-118.894a15.905 15.905 0 0 0-16.837-.313m96.15 124.335c0 .345-16.128 14.466-35.84 31.379l-35.84 30.752V86.621l35.84 35.832c19.712 19.708 35.84 36.115 35.84 36.461m0 194.172c0 .346-16.128 16.753-35.84 36.461l-35.84 35.832V290.955l35.84 30.752c19.712 16.913 35.84 31.034 35.84 31.379" fill-rule="evenodd"/></svg>