<svg xmlns="http://www.w3.org/2000/svg" width="512" height="512"><path d="M203.446 33.969c-16.997 5.93-27.659 21.662-27.659 40.814v5.43h-19.125c-21.079 0-28.18.9-37.277 4.726-7.867 3.308-14 7.561-20.917 14.504-7.094 7.122-12.4 15.618-15.555 24.906l-2.255 6.638-.436 48.176-.435 48.175-15.017 6.011c-8.259 3.306-16.131 6.733-17.493 7.615-6.704 4.341-10.198 9.117-13.122 17.934-1.637 4.94-1.879 7.065-1.503 13.227.438 7.172 1.002 8.756 24.362 68.476 13.152 33.624 24.488 62.232 25.19 63.573 1.944 3.713 6.497 7.687 11.236 9.807 12.057 5.394 42.782-2.06 64.343-15.61 3.097-1.946 8.588-5.818 12.203-8.604 4.257-3.28 6.963-4.828 7.68-4.393.609.369 3.411 2.46 6.227 4.647 10.64 8.264 25.94 16.479 37.974 20.388 36.166 11.75 75.539 3.916 107.102-21.31l5.982-4.781 4.684 3.765c19.144 15.385 40.252 24.57 63.028 27.426 11.253 1.411 19.705-1.506 25.187-8.693 3.123-4.095 50.596-125.453 51.661-132.064 1.447-8.987-1.663-20.596-7.274-27.151-4.767-5.57-9.202-8.124-25.176-14.504l-14.848-5.93-.435-48.09-.436-48.09-2.255-6.638c-5.882-17.316-19.867-32.427-36.472-39.41-9.097-3.826-16.198-4.726-37.277-4.726h-19.125v-5.43c0-17.563-8.516-31.645-23.641-39.093l-5.76-2.837-49.513-.199c-45.527-.183-49.862-.077-53.853 1.315m98.282 32.852c1.715 1.995 2.059 3.311 2.059 7.893v5.499h-95.574v-5.356c0-5.759 1.341-8.698 4.572-10.023 1.005-.412 20.966-.673 44.356-.579l42.528.172 2.059 2.394m71.061 45.859c13.932 2.261 24.27 12.599 26.531 26.531.826 5.092 1.328 74.976.538 74.976-.195 0-29.753-11.704-65.684-26.009s-67.072-26.448-69.202-26.984c-2.149-.541-7.192-.809-11.329-.601l-7.456.373-65.707 26.145c-36.139 14.38-66.379 26.396-67.2 26.702-1.407.524-1.493-1.459-1.487-34.308.004-19.861.386-37.201.887-40.294 2.197-13.538 12.661-24.295 25.753-26.475 6.595-1.099 227.607-1.151 234.356-.056M239.448 382.063c-.703.703-16.484-5.085-21.848-8.014-7.179-3.92-15.045-9.538-21.627-15.443-7.128-6.396-12.285-8.723-19.333-8.723-7.125 0-12.066 2.311-20.053 9.381-12.307 10.892-26.155 18.703-39.201 22.112-3.726.974-7.374 1.765-8.107 1.758-1.609-.016-45.68-112.332-44.869-114.351.291-.724 37.752-16.075 87.729-35.95l87.221-34.686.217 91.785c.12 50.482.062 91.94-.129 92.131m123.01-148.192c55.969 22.236 84.848 34.116 85.14 35.025.426 1.324-42.452 112.153-44.01 113.756-1.337 1.375-15.233-2.686-24.233-7.083-9.196-4.492-16.344-9.381-25.248-17.268-7.402-6.558-11.602-8.397-19.174-8.397-7.297 0-10.988 1.556-17.646 7.436-14.813 13.084-28.799 21.078-42.727 24.422l-2.347.564V197.95l2.774 1.136c1.525.625 40.887 16.278 87.471 34.785M155.993 425.489c-16.741 15.727-34.919 29.487-51.601 39.059-7.985 4.582-9.762 7.312-7.547 11.596 2.03 3.926 4.972 4.377 13.737 2.106 13.751-3.562 35.305-12.226 48.565-19.522 8.221-4.524 8.519-4.514 20.274.657 17.185 7.561 34.102 12.48 52.259 15.195 11.405 1.706 40.387 1.472 51.627-.418 17.696-2.975 36.336-8.612 50.346-15.226 4.142-1.955 8.535-3.426 10.24-3.428 2.017-.002 7.838 2.358 17.92 7.266 16.729 8.144 27.768 12.451 39.449 15.393 9.061 2.282 11.501 1.975 13.659-1.719 2.514-4.305.838-7.29-6.476-11.538-18.54-10.768-37.266-25.138-56.149-43.087-5.186-4.93-5.997-5.396-9.386-5.394-2.741.001-5.034.8-8.78 3.059-33.398 20.139-70.703 26.907-107.143 19.441-15.01-3.076-33.947-10.53-48.2-18.972-4.45-2.636-6.87-3.53-9.554-3.53-3.392 0-4.136.509-13.24 9.062" fill-rule="evenodd"/></svg>