<svg xmlns="http://www.w3.org/2000/svg" viewBox="0 0 512 512"><path d="M243.627 1.345c-19.713 4.353-36.421 20.497-41.901 40.483-2.391 8.724-2.014 22.419.862 31.315C210.01 96.094 231.7 111.787 256 111.787c24.299 0 45.979-15.685 53.415-38.644 2.856-8.818 3.223-22.501.838-31.315-4.988-18.443-19.572-33.667-37.613-39.265-7.932-2.461-20.916-3.006-29.013-1.218m24.047 33.885c4.501 2.855 7.56 6.071 9.916 10.423 1.45 2.681 1.85 4.88 1.862 10.24.013 6.073-.278 7.345-2.633 11.52-1.456 2.582-4.265 5.938-6.243 7.46-14.967 11.511-36.542 2.04-38.232-16.785-.795-8.853 3.214-17.199 10.486-21.829 5.518-3.515 6.66-3.793 14.45-3.526 5.676.195 7.428.616 10.394 2.497M79.36 128.937c-6.33 1.236-14.343 5.726-19.599 10.982-15.723 15.723-15.675 40.427.109 56.211 5.556 5.556 12.953 9.642 20.172 11.143 2.988.621 21.374.945 54.187.953 38.039.01 50.158.262 51.774 1.08 3.334 1.687 4.152 6.194 4.225 23.282.094 22.052.717 17.916-22.596 149.967-9.796 55.49-14.885 86.35-14.885 90.267 0 10.804 4.688 20.986 13.278 28.836 7.223 6.602 16.991 10.364 26.794 10.321 15.899-.07 31.197-10.566 36.653-25.148.996-2.662 6.277-30.511 12.022-63.389 11.103-63.55 13.509-76.135 14.559-76.135 1.076 0 2.676 8.365 14.043 73.386 5.866 33.558 11.233 62.699 11.927 64.76 5.047 14.985 21.174 26.503 37.158 26.537 5.227.011 12.802-1.731 18.517-4.259 5.939-2.627 14.121-11.108 17.561-18.203 3.329-6.864 4.163-10.547 4.088-18.03-.029-2.833-6.953-44.127-15.388-91.765-22.552-127.366-22.57-127.492-22.104-149.816.346-16.589 1.201-20.099 5.151-21.157 1.075-.288 24.111-.529 51.192-.535 32.506-.008 50.775-.331 53.76-.952 20.787-4.321 35.156-25.317 31.465-45.973-2.87-16.057-15.975-29.537-31.539-32.442-5.787-1.08-346.981-1.004-352.524.079m350.177 33.739c2.982 2.983 2.998 6.971.04 10.485l-2.209 2.626-47.924.026c-26.358.015-50.804.39-54.324.833-4.726.596-8.25 1.738-13.472 4.365-16.313 8.204-22.373 22.124-22.365 51.371.006 21.586.817 26.95 23.532 155.684 16.504 93.538 15.879 87.801 9.882 90.797-3.466 1.731-7.184.763-9.264-2.411-.849-1.296-4.966-22.729-11.005-57.288-11.214-64.174-12.664-71.913-14.985-79.964-4.011-13.91-11.109-24.489-19.18-28.583-3.171-1.608-5.839-2.184-11.252-2.426-6.55-.293-7.51-.113-12.495 2.341-2.969 1.462-6.823 4.234-8.564 6.161-4.042 4.474-9.166 15.241-11.928 25.067-1.188 4.224-7.123 36.041-13.189 70.705-11.829 67.588-11.516 66.326-16.697 67.316-3.258.623-7.195-1.556-8.513-4.71-1.11-2.657-.203-8.445 13.278-84.721 23.033-130.317 23.822-135.545 23.811-157.752-.007-13.705-1.509-25.122-4.256-32.358-3.73-9.821-12.636-18.093-23.635-21.952l-5.81-2.039-52.235-.284-52.236-.285-2.164-2.572c-2.912-3.46-2.879-7.468.085-10.432l2.25-2.249h342.574l2.25 2.249" fill-rule="evenodd"/></svg>