<svg xmlns="http://www.w3.org/2000/svg" width="512" height="512"><path d="M265.289 17.33c-6.115 2.305-11.759 7.507-14.023 12.928-.776 1.858-1.953 7.513-2.614 12.568-1.132 8.643-4.997 21.619-7.431 24.947-.94 1.286-1.364 1.144-4.437-1.481-13.328-11.387-31.371-17.446-52.967-17.788-9.084-.144-11.27.506-16.499 4.906-3.92 3.298-5.838 7.714-6.847 15.761-1.165 9.291-3.859 14.848-13.546 27.946-10.182 13.766-13.184 18.82-16.069 27.051-2.14 6.104-2.392 7.981-2.409 17.912-.026 15.335 2.441 24.776 9.223 35.308l3.641 5.652-1.917 3.39c-6.351 11.235-10.354 26.624-11.104 42.69-1.321 28.318 7.379 52.705 26.192 73.418 7.604 8.372 16.207 15.443 22.078 18.145 8.897 4.096 20.225 3.291 29.947-2.128l3.84-2.141 5.812 3.541c29.261 17.826 66.011 20.694 98.994 7.727 29.512-11.604 52.795-35.832 62.736-65.282 4.531-13.423 5.693-20.763 5.605-35.413-.092-15.49-1.805-23.411-8.481-39.227l-3.986-9.443 3.426-7.879c7.258-16.688 10.079-31.685 9.267-49.265-1.241-26.869-11.06-49.519-29.587-68.251-16.108-16.286-35.935-27.393-59.62-33.4-11.662-2.957-24.614-3.929-29.224-2.192m29.004 35.308c21.725 7.196 41.244 22.935 49.996 40.315 5.708 11.333 6.858 16.783 6.855 32.487-.002 10.768-.353 15.352-1.494 19.486-2.087 7.562-6.236 16.726-10.303 22.754-4.898 7.262-17.525 19.5-27.027 26.195-7.75 5.461-13.109 8.614-46.929 27.61-40.726 22.875-58.684 39.134-75.818 68.645-.608 1.046-1.417.674-4.491-2.069-11.801-10.53-20.786-25.231-23.354-38.212-2.593-13.105-1.203-31.507 3.176-42.062 5.948-14.337 15.06-25.964 37.657-48.05 42.303-41.347 49.094-48.642 59.016-63.4 8.785-13.065 16.397-31.318 18.056-43.295l.514-3.704 3.819.572c2.1.315 6.747 1.543 10.327 2.728m-95.006 29.735c7.449 1.912 13.094 4.929 17.649 9.43l4.029 3.981-3.738 4.375c-2.056 2.406-11.549 11.816-21.096 20.912-9.547 9.095-21.066 20.423-25.597 25.173-4.532 4.75-8.555 8.325-8.941 7.945-.385-.381-.846-4.619-1.023-9.418-.391-10.565.524-12.954 9.677-25.268 12.36-16.627 15.791-22.484 19.144-32.676 2.13-6.477 2.091-6.459 9.896-4.454m151.008 131.676c2.012 8.406 1.403 25.028-1.256 34.238-8.954 31.015-38.037 53.553-71.279 55.239-11.176.567-19.107-.526-29.97-4.128-8.105-2.687-18.273-8.015-18.888-9.897-.493-1.509 12.581-14.317 20.937-20.511 9.742-7.222 19.286-13.034 44.134-26.875 23.912-13.318 36.868-21.563 46.934-29.864 3.754-3.097 7.065-5.368 7.357-5.048.292.321 1.206 3.402 2.031 6.846M41.8 337.778c-6.312 3.323-11.234 14.564-9.385 21.433 2.148 7.975 9.018 13.818 16.861 14.339 4.352.289 8.889-.89 39.897-10.376C127.879 351.335 128 351.277 128 344.633c0-2.654-.565-3.995-2.494-5.925l-2.495-2.495H83.892c-36.29 0-39.334.114-42.092 1.565m344.694.93c-3.347 3.347-3.403 7.558-.147 11.191 2.098 2.342 5.958 3.745 36.48 13.259 22.483 7.009 35.485 10.651 38.095 10.671 5.034.038 9.003-1.626 13.444-5.638 9.203-8.314 6.614-25.175-4.763-31.02-1.299-.667-13.807-.958-41.239-.958h-39.375l-2.495 2.495m-135.457 13.854c-4.856.855-8.785 3.372-11.596 7.427-1.98 2.857-3.62 9.752-12.135 50.991-8.491 41.123-9.797 48.515-9.488 53.707 1.077 18.117 16.482 31.1 36.902 31.1 11.994 0 21.359-3.852 28.856-11.868 5.623-6.01 7.579-10.833 7.995-19.706.312-6.651-.468-11.125-9.402-53.925-6.134-29.386-10.351-47.713-11.384-49.482-3.54-6.062-12.025-9.604-19.748-8.244m-70.984.48c-3.606 1.354-78.854 54.559-81.446 57.587-5.623 6.57-7.292 16.457-4.299 25.469 2.113 6.361 9.241 13.492 16.024 16.03 10.619 3.973 22.623 1.729 30.415-5.687 5.922-5.636 57.324-73.239 58.68-77.175 1.839-5.336-.352-11.183-5.501-14.682-2.497-1.696-4.181-2.143-7.884-2.09-2.59.037-5.285.284-5.989.548m138.134 1.466c-5.323 3.617-7.472 11.462-4.632 16.907 1.189 2.279 49.762 66.482 55.879 73.859 1.9 2.292 5.125 4.699 8.575 6.4 4.911 2.422 6.343 2.726 12.818 2.726 6.518 0 7.892-.297 12.995-2.809 10.109-4.977 15.172-13.385 15.156-25.17-.01-7.432-2.368-13.123-7.356-17.752-3.407-3.162-74.156-52.686-78.51-54.957-3.947-2.058-11.302-1.666-14.925.796" fill-rule="evenodd"/></svg>