<svg xmlns="http://www.w3.org/2000/svg" width="512" height="512"><path d="M167.68.524c-.939.19-3.819.769-6.4 1.286-10.82 2.166-22.554 8.918-31.264 17.988-12.924 13.459-18.136 27.731-18.2 49.837l-.029 10.328-6.309.533c-14.635 1.237-27.035 7.296-38.557 18.838-10.659 10.679-15.977 20.804-18.235 34.724-.593 3.652-.889 65.006-.893 185.121l-.006 179.659 1.92 3.758c4.137 8.098 12.626 11.396 20.339 7.902 2.222-1.007 32.916-26.277 74.818-61.596l71.051-59.889 1.943 1.547c1.068.851 33.149 27.851 71.29 60 38.141 32.149 70.766 59.115 72.5 59.924 5.999 2.8 12.113 1.723 17.12-3.016 5.383-5.094 5.232-3.454 5.232-56.881 0-26.767.193-48.667.428-48.667.236 0 12.887 9.963 28.115 22.139 18.632 14.898 28.791 22.47 31.061 23.15 7.466 2.237 15.665-1.631 18.994-8.962 1.52-3.346 1.577-10.397 1.567-191.207-.009-153.27-.221-188.912-1.157-194.152-4.307-24.138-21.919-43.44-46.486-50.946C412.105.592 402.319.467 290.56.328 223.915.246 168.619.334 167.68.524m246.373 35.134c6.606 3.252 11.776 8.581 15.08 15.542l2.227 4.693.222 171.323.221 171.322-23.841-19.002-23.841-19.003-.274-114.346-.274-114.347-2.018-5.973c-6.034-17.863-17.661-31.367-33.822-39.284-13.501-6.614-9.204-6.37-112.257-6.37h-91.423l.299-12.16c.269-10.952.518-12.63 2.513-16.892 3.838-8.203 9.106-13.171 17.737-16.73l4.785-1.973 119.484.198 119.485.197 5.697 2.805m-89.051 77.022c10.305 1.673 19.12 8.269 23.81 17.819l2.335 4.754.22 162.884c.208 154.601.144 162.823-1.264 161.706-.816-.647-29.138-24.445-62.94-52.884-33.801-28.439-62.685-52.343-64.187-53.12-3.866-1.999-11.069-1.837-14.622.329-1.565.955-30.557 25.07-64.427 53.589-33.869 28.52-62.064 52.147-62.656 52.504-.863.522-1.031-31.309-.853-161.752l.222-162.402 2.453-5.31c4.382-9.487 13.872-16.684 23.953-18.164 6.938-1.019 211.66-.974 217.956.047" fill-rule="evenodd"/></svg>