<svg xmlns="http://www.w3.org/2000/svg" width="512" height="512"><path d="M42.006 48.724c-7.962 1.347-14.358 5.487-20.104 13.015-6.083 7.968-5.69-3.212-5.679 161.539.011 156.631-.091 152.29 3.77 159.753 1.998 3.862 7.862 10.133 11.812 12.631 5.611 3.55 11.491 4.367 35.182 4.891 59.788 1.321 101.442 8.529 131.774 22.802 14.803 6.966 24.671 14.079 37.372 26.941 18.547 18.781 21.187 18.781 39.734 0 16.563-16.772 32.946-26.877 55.609-34.301 29.855-9.78 75.417-15.703 121.274-15.765 13.691-.019 20.391-1.018 25.936-3.867 4.503-2.313 9.637-7.128 12.598-11.814 4.718-7.467 4.483.89 4.493-160.418.011-165.698.405-154.422-5.679-162.392-5.98-7.834-12.087-11.645-20.927-13.057-5.884-.94-40.487.047-58.034 1.655-54.085 4.956-92.055 15.908-120.577 34.777-9.463 6.261-27.317 23.369-31.618 30.298-1.383 2.228-2.707 4.052-2.942 4.052-.235 0-1.559-1.824-2.942-4.052-4.301-6.929-22.155-24.037-31.618-30.298-35.185-23.277-85.57-34.827-160.427-36.774-7.978-.207-16.531-.035-19.007.384m39.487 32.357c66.05 3.875 107.665 16.278 133.493 39.786 7.019 6.388 14.555 16.553 18.848 25.421 6.426 13.277 5.933 1.688 5.943 139.776l.01 124.358-7.758-5.094c-30.495-20.024-72.003-31.149-132.189-35.43-9.621-.684-22.331-1.247-28.245-1.251-5.913-.004-13.689-.255-17.28-.559l-6.528-.552V80.213l9.6.009c5.28.004 16.128.391 24.106.859m382.72 142.794v143.661l-6.528.552c-3.591.304-11.367.558-17.28.565-23.937.03-57.367 3.18-82.432 7.769-30.835 5.646-57.896 15.656-77.866 28.803l-7.894 5.197.01-124.358c.01-138.088-.483-126.499 5.943-139.776 15.617-32.264 50.041-51.869 106.163-60.463 22.752-3.484 44.468-5.243 67.724-5.485l12.16-.127v143.662" fill-rule="evenodd"/></svg>