<svg xmlns="http://www.w3.org/2000/svg" width="512" height="512"><path d="M145.228 33.732c-19.923 4.325-39.229 21.747-45.66 41.204-1.259 3.811-2.687 10.685-3.174 15.276-.591 5.574-.804 69.743-.64 193.095.206 154.624.437 185.094 1.417 186.88 1.734 3.159 5.322 6.804 8.15 8.281 3.426 1.788 10.02 1.649 13.686-.29 1.657-.875 33.157-28.397 70.002-61.159L256 357.452l66.991 59.567c36.845 32.762 68.345 60.284 70.002 61.159 3.666 1.939 10.26 2.078 13.686.29 2.828-1.477 6.416-5.122 8.15-8.281.98-1.786 1.211-32.256 1.417-186.88.164-123.352-.049-187.521-.64-193.095-.487-4.591-1.915-11.465-3.174-15.276-6.499-19.663-25.803-36.951-46.05-41.24-8.439-1.788-212.906-1.755-221.154.036M364.8 66.815c6.72 3.134 13.32 9.706 16.366 16.296l2.407 5.209.226 170.045.226 170.045-59.106-52.6c-33.073-29.433-60.609-53.299-62.519-54.187-1.877-.872-4.757-1.586-6.4-1.586-1.643 0-4.523.714-6.4 1.586-1.91.888-29.446 24.754-62.519 54.187l-59.106 52.6.226-170.045.226-170.045 2.389-5.12c4.225-9.055 13.292-16.528 22.234-18.323 1.945-.391 49.233-.652 105.083-.58l101.547.13 5.12 2.388" fill-rule="evenodd"/></svg>