<svg xmlns="http://www.w3.org/2000/svg" width="512" height="512"><path d="M168.524 48.657c-14.686 1.971-29.079 12.712-35.748 26.679C129.07 83.098 128 89.004 128 101.703v10.084l-23.68.014c-26.61.017-36.754.813-45.052 3.538-15.049 4.94-29.235 17.597-36.666 32.714-6.767 13.766-6.389 5.485-6.389 139.947 0 134.457-.377 126.177 6.386 139.947 8.155 16.6 23.508 29.319 41.401 34.297 5.273 1.466 14.754 1.543 192 1.543s186.727-.077 192-1.543c17.922-4.986 33.333-17.766 41.355-34.297 6.839-14.092 6.432-5.228 6.432-139.846 0-134.575.378-126.281-6.389-140.048-7.431-15.117-21.617-27.774-36.666-32.714-8.298-2.725-18.442-3.521-45.052-3.538l-23.68-.014v-10.084c0-5.545-.413-12.361-.918-15.146-2.843-15.684-16.46-31.014-32.362-36.434l-5.547-1.891-85.76-.132c-47.168-.072-88.068.178-90.889.557m176.784 34.604c5.343 4.27 6.262 6.986 6.264 18.499l.001 10.027H160.427v-9.841c0-10.587.861-13.975 4.37-17.196 5.245-4.814-.217-4.558 92.191-4.325l85.041.215 3.279 2.621m94.768 61.941c9.154 2.305 18.119 10.222 21.615 19.086 1.96 4.97 2.012 5.785 2.053 32.405l.043 27.307H48.213l.032-27.307c.031-26.682.078-27.423 2.053-32.405 3.428-8.646 11.903-16.297 20.955-18.919 4.912-1.422 363.194-1.585 368.823-.167M175.997 263.235c.695 11.125 5.543 18.679 14.631 22.792l4.359 1.973h122.026l4.267-1.966c9.86-4.543 14.933-13.135 14.933-25.292V256h128l-.017 71.467c-.009 39.306-.364 73.863-.787 76.793-1.819 12.573-10.366 22.74-22.113 26.306-5.938 1.802-364.654 1.802-370.592 0-11.542-3.503-20.072-13.469-22.094-25.812-.47-2.868-.816-35.348-.818-76.861L47.787 256h127.759l.451 7.235" fill-rule="evenodd"/></svg>