<svg xmlns="http://www.w3.org/2000/svg" width="512" height="512"><path d="M87.731 48.666c-8.006.948-14.711 3.019-21.171 6.538-14.211 7.74-25.626 20.578-30.584 34.396C31.83 101.158 32 94.025 32 256s-.17 154.842 3.976 166.4c6.575 18.324 23.396 33.747 42.996 39.421l6.788 1.966h340.48l6.788-1.966c21.466-6.215 37.792-22.372 44.576-44.114l2.396-7.68V101.973l-2.396-7.68c-1.318-4.224-3.577-9.792-5.02-12.373-8.56-15.308-23.335-27.171-39.583-31.778l-6.761-1.918-166.4-.117c-91.52-.064-168.969.188-172.109.559M428.99 147.52c6.606 3.582 13.265 10.517 16.283 16.958l2.3 4.909v238.08l-2.629 5.549c-3.233 6.821-9.442 13.198-15.715 16.141l-4.696 2.203H87.467l-4.696-2.203c-6.273-2.943-12.482-9.32-15.715-16.141l-2.629-5.549v-238.08l2.287-4.88c3.929-8.382 12.28-15.965 21.046-19.109 2.54-.911 34.066-1.085 169.52-.938l166.4.18 5.31 2.88" fill-rule="evenodd"/></svg>