<svg xmlns="http://www.w3.org/2000/svg" width="512" height="512"><path d="M236.8 34.112c-21.51 4.656-39.093 14.978-53.438 31.371-14.747 16.852-22.936 38.6-23.06 61.237l-.052 9.387-5.671 3.813c-8.25 5.546-21.057 18.827-26.579 27.561-2.581 4.083-4.929 7.43-5.217 7.438-.953.026-5.033-9.991-6.657-16.345-1.873-7.329-3.221-20.126-3.94-37.401-.598-14.359-1.156-16.669-4.895-20.276-3.387-3.266-6.428-4.47-11.291-4.47-4.691 0-7.859 1.184-10.985 4.107-4.117 3.85-4.802 6.637-4.801 19.545.003 41.596 8.179 67.614 28.1 89.414l3.899 4.267-.245 29.227-.246 29.226-33.461.019c-30.706.017-33.742.149-36.874 1.594-4.707 2.172-7.291 5.249-8.579 10.213-2.396 9.236 2.892 17.625 12.393 19.663 2.727.584 16.048.938 35.347.938h30.97l.546 15.147c.729 20.217 2.745 32.079 8.041 47.307l2.282 6.56-7.936 7.946c-19.774 19.801-29.851 39.444-33.328 64.968-1.262 9.261-1.147 20.546.243 23.873 2.172 5.197 8.667 9.345 14.634 9.345 6.139 0 13.195-4.688 14.856-9.869.479-1.494 1.261-7.325 1.738-12.957 1.784-21.05 7.941-35.373 21.26-49.449 2.516-2.659 4.656-4.716 4.756-4.573 15.658 22.503 40.182 41.537 66.419 51.549 16.733 6.386 32.122 9.148 50.971 9.148 18.728 0 31.595-2.236 49.067-8.526 26.977-9.712 51.737-28.619 68.331-52.178.104-.148 2.052 1.72 4.329 4.152 13.881 14.826 19.878 28.624 21.679 49.877.477 5.632 1.259 11.463 1.738 12.957 1.682 5.246 9.14 10.12 15.052 9.838 6.376-.305 12.259-4.101 14.438-9.314 2.276-5.447 1.143-23.378-2.352-37.227-4.881-19.344-13.913-34.551-30.391-51.174l-8.287-8.359 2.286-6.574c5.301-15.241 7.317-27.097 8.046-47.32l.546-15.147h30.97c19.299 0 32.62-.354 35.347-.938 9.501-2.038 14.789-10.427 12.393-19.663-1.288-4.964-3.872-8.041-8.579-10.213-3.132-1.446-6.169-1.577-36.906-1.594l-33.494-.019v-57.324l5.423-5.942c12.539-13.739 20.339-31.779 24.016-55.547 1.505-9.728 2.716-40.381 1.79-45.315-.713-3.804-4.993-8.92-8.788-10.505-3.306-1.382-9.466-1.5-12.785-.246-3.21 1.213-7.056 4.904-8.391 8.053-.623 1.468-1.326 8.382-1.649 16.213-1.046 25.341-3.205 39.284-7.653 49.434l-1.851 4.223-4.031-6.876c-7.113-12.133-19.328-24.712-31.39-32.327l-3.083-1.946-.098-8.391c-.355-30.458-16.814-60.49-42.492-77.534-7.43-4.932-20.046-10.535-29.101-12.925-11.631-3.069-31.96-3.607-43.33-1.146m37.557 32.635c20.124 5.885 37.053 22.789 42.843 42.779 1.071 3.696 1.947 7.563 1.947 8.592v1.871l-7.467-1.882c-24.916-6.279-64.724-7.72-92.074-3.331-8.727 1.4-20.877 4.121-24.423 5.469-2.201.837-2.33.751-2.33-1.556 0-4.168 3.745-15.619 7.004-21.42 9.618-17.117 26.158-28.912 45.446-32.408 7.113-1.289 21.358-.365 29.054 1.886m15.35 79.542c45.323 7.155 70.87 27.63 76.783 61.539 1.833 10.514 1.889 117.143.067 128.812-4.125 26.414-17.255 50.2-37.366 67.688-15.431 13.419-34.329 22.506-54.204 26.066l-2.774.497-.004-120.086c-.004-79.971-.3-121.145-.887-123.259-1.92-6.914-7.768-11.182-15.322-11.182-7.554 0-13.402 4.268-15.322 11.182-.587 2.114-.883 43.288-.887 123.259l-.004 120.086-2.774-.497c-9.903-1.774-21.705-5.722-30.906-10.339-32.34-16.229-55.049-47.455-60.664-83.415-.939-6.015-1.202-19.915-1.214-64.119-.017-61.956.144-64.363 5.145-76.896 10.938-27.414 41.279-45.722 83.677-50.494 10.577-1.19 46.422-.457 56.656 1.158" fill-rule="evenodd"/></svg>