<svg xmlns="http://www.w3.org/2000/svg" width="512" height="512"><path d="M317.867 34.084c-21.566 3.835-39.297 11.33-55.264 23.361-22.489 16.945-35.397 36.974-42.167 65.435-1.738 7.306-2.216 11.953-2.586 25.173-.499 17.805.57 28.38 4.486 44.374 2.53 10.336 2.673 16.101.487 19.686-.879 1.441-40.718 38.394-88.53 82.118-47.813 43.724-88.203 81.247-89.756 83.384-9.756 13.427-14.608 32.434-12.109 47.429 2.385 14.303 8.457 26.267 18.359 36.169 10.086 10.086 22.246 16.178 36.637 18.356 16.509 2.498 35.637-2.938 48.943-13.907 2.959-2.439 40.698-42.835 83.864-89.769 54.684-59.455 79.577-85.936 82.087-87.321 4.348-2.399 6.045-2.282 24.082 1.659 12.296 2.687 13.556 2.798 32 2.838 21.154.045 27.373-.781 42.636-5.661 16.87-5.393 29.883-13.391 42.714-26.251 13.768-13.798 22.314-27.673 28.579-46.393 9.467-28.293 10.137-57.813 1.866-82.186-4.556-13.427-9.026-18.146-17.86-18.855-4.141-.332-6.164-.082-8.389 1.037-1.613.811-17.525 16.011-35.359 33.777-21.908 21.823-33.456 32.728-35.6 33.616-4.021 1.665-7.55 1.666-11.574.002-3.544-1.465-32.715-29.906-34.893-34.018-1.463-2.763-1.868-8.979-.839-12.884.472-1.788 10.552-12.466 33.428-35.413 22.075-22.142 33.185-33.888 34.076-36.026 2.278-5.468 1.408-11.801-2.364-17.212-3.026-4.34-19.109-10.333-34.714-12.936-10.202-1.701-31.51-1.49-42.24.418m31.954 30.462 2.728.545-23.788 23.988c-25.373 25.585-27.675 28.557-30.494 39.383-1.675 6.43-1.675 18.246 0 24.676 2.755 10.579 5.39 14.099 25.943 34.652s24.073 23.188 34.652 25.943c6.379 1.662 18.23 1.679 24.538.036 11.25-2.93 13.871-4.952 39.591-30.531 27.674-27.523 25.688-26.778 24.684-9.256-2.471 43.153-25.091 74.669-60.397 84.15-18.29 4.912-37.042 4.775-60.265-.44-21.396-4.805-35.068-2.465-48.16 8.241-2.215 1.812-39.358 41.694-82.541 88.627-43.183 46.933-80.188 86.509-82.233 87.946-12.181 8.558-29.915 6.966-40.518-3.637-5.883-5.883-8.753-12.215-9.326-20.578-.602-8.781 1.257-14.93 6.552-21.674 2.134-2.717 41.729-39.452 87.989-81.633 46.26-42.18 85.46-78.27 87.11-80.198 4.397-5.137 7.371-11.079 9.279-18.539 2.226-8.703 2.128-15.168-.387-25.55-6.308-26.037-6.955-45.748-2.122-64.675 8.154-31.936 35.742-54.941 72.891-60.78 7.541-1.185 20.037-1.544 24.274-.696M89.625 401.565c-5.919 2.567-9.412 7.924-9.412 14.435 0 6.613 3.533 11.938 9.604 14.474 5.536 2.313 12.735 1.149 17.152-2.773 2.468-2.191 4.78-7.852 4.78-11.701s-2.312-9.51-4.78-11.701c-4.407-3.913-11.901-5.095-17.344-2.734" fill-rule="evenodd"/></svg>