<svg xmlns="http://www.w3.org/2000/svg" width="512" height="512"><path d="M99.083 33.775c-7.271 1.956-14.558 6.302-20.632 12.305-6.831 6.752-10.518 13.055-12.757 21.809-1.661 6.497-1.694 9.803-1.681 172.248.014 183.299-.363 170.986 5.577 182.175 1.646 3.099 4.709 7.483 6.808 9.742l3.815 4.107v11.314c0 13.608 1.078 17.466 6.596 23.603 7.332 8.154 13.742 9.738 37.222 9.196 14.433-.334 15.809-.507 20.182-2.546 9.377-4.37 14.774-12.39 15.842-23.541l.592-6.187h190.706l.592 6.187c1.068 11.151 6.465 19.171 15.842 23.541 4.373 2.039 5.749 2.212 20.182 2.546 23.48.542 29.89-1.042 37.222-9.196 5.518-6.137 6.596-9.995 6.596-23.603v-11.314l3.815-4.107c2.099-2.259 5.162-6.643 6.808-9.742 5.94-11.189 5.563 1.124 5.577-182.175.013-162.445-.02-165.751-1.681-172.248-2.239-8.754-5.926-15.057-12.757-21.809-6.22-6.148-13.394-10.366-20.998-12.347-7.366-1.918-306.327-1.878-313.468.042M405.97 65.313c4.053 1.693 5.992 3.489 7.987 7.4 1.927 3.775 2.134 10.861.413 14.156-1.371 2.623-5.158 6.331-7.914 7.747-1.357.697-42.281.957-150.442.957-161.955 0-150.633.352-155.43-4.83-3.332-3.601-4.157-5.686-4.157-10.508 0-4.568 1.993-9.569 4.841-12.144 4.675-4.227-3.15-4.022 154.546-4.058 130.419-.029 147.369.115 150.156 1.28M239.787 207.787v79.786h-66.176c-56.117 0-66.539-.188-68.567-1.236-3-1.551-7.59-6.716-8.205-9.233-.256-1.047-.358-32.846-.226-70.664l.24-68.76 2.461-3.226c1.354-1.775 4.042-3.944 5.974-4.821 3.331-1.513 6.884-1.596 69.005-1.614l65.494-.019v79.787m166.183-78.474c4.053 1.693 5.992 3.489 7.987 7.4 1.546 3.028 1.616 6.129 1.616 71.509 0 57.169-.196 68.719-1.203 70.647-1.371 2.623-5.158 6.331-7.914 7.747-1.331.683-20.799.957-68.053.957h-66.19V128h65.308c56.84 0 65.714.17 68.449 1.313m0 192c4.053 1.693 5.992 3.489 7.987 7.4 1.511 2.96 1.616 5.53 1.616 39.509 0 30.066-.213 36.756-1.236 38.734-1.623 3.138-6.725 7.57-9.659 8.392-1.282.358-68.571.652-149.531.652-136.897 0-147.386-.101-149.847-1.45-3.263-1.787-7.833-6.885-8.467-9.446-.259-1.047-.361-18.446-.226-38.665l.246-36.76 2.461-3.226c1.354-1.774 4.042-3.943 5.974-4.82 3.386-1.538 8.785-1.596 150.526-1.614 130.397-.017 147.369.129 150.156 1.294M135.253 337.32c-5.522 1.679-9.975 4.453-14.205 8.851-4.956 5.152-7.191 9.575-8.427 16.673-1.797 10.32 1.337 19.998 8.937 27.598 14.703 14.703 38.498 11.876 49.735-5.908 5.209-8.244 5.918-20.578 1.712-29.765-2.856-6.239-9.539-12.92-15.79-15.784-5.677-2.601-16.245-3.402-21.962-1.665m222.55.482c-16.19 5.594-25.298 23.253-20.369 39.494 5.647 18.604 27.08 27.856 44.804 19.338 4.857-2.334 12.041-9.559 14.447-14.531 4.24-8.757 4.126-20.121-.287-28.728-2.373-4.629-8.856-11.073-13.678-13.594-7.413-3.877-17.179-4.653-24.917-1.979" fill-rule="evenodd"/></svg>