<svg xmlns="http://www.w3.org/2000/svg" viewBox="0 0 512 512"><path d="M119.743 34.579c-6.164 3.695-7.482 6.871-7.828 18.859l-.298 10.345-13.782.464c-15.16.51-19.398 1.389-29.251 6.068-17.261 8.197-29.899 23.529-35.068 42.545-1.331 4.894-1.472 17.319-1.736 152.953-.193 98.881.007 150.383.606 155.975 1.734 16.211 7.714 28.706 19.037 39.78 10.883 10.644 22.666 16.237 37.876 17.979 10.339 1.185 323.063 1.185 333.402 0 15.508-1.777 28.028-7.887 38.867-18.97 10.873-11.117 16.344-22.877 18.046-38.789.599-5.592.799-57.094.606-155.975-.264-135.634-.405-148.059-1.736-152.953-5.236-19.259-18.058-34.601-35.893-42.947-9.158-4.286-13.576-5.167-28.426-5.666l-13.782-.464-.298-10.345c-.261-9.053-.547-10.745-2.293-13.552-6.157-9.903-21.427-9.903-27.584 0-1.749 2.812-2.032 4.496-2.296 13.661L367.611 64H144.389l-.301-10.453c-.264-9.165-.547-10.849-2.296-13.661-4.505-7.247-14.714-9.704-22.049-5.307m307.32 63.616c9.904 3.706 17.74 12.592 19.81 22.466.6 2.863 1.099 9.334 1.109 14.379l.018 9.173H64v-8.676c0-12.472 1.257-18.524 5.075-24.431 3.82-5.91 8.688-9.946 15.253-12.646l4.845-1.993 166.582-.02c166.462-.02 166.584-.019 171.308 1.748m20.74 201.538-.23 123.947-2.407 5.209c-3.046 6.59-9.646 13.162-16.366 16.296l-5.12 2.388H88.32l-5.209-2.407c-6.59-3.046-13.162-9.646-16.296-16.366l-2.388-5.12-.23-123.947-.23-123.946h384.066l-.23 123.946m-269.456-90.302c-12.025 2.673-21.29 7.405-29.313 14.971-9.633 9.085-12.77 16.859-9.888 24.502 2.123 5.632 8.475 9.827 14.881 9.827 5.434 0 8.652-1.765 13.695-7.509 8.051-9.17 16.869-12.201 30.547-10.503 15.288 1.899 23.996 9.261 25.067 21.193 1.331 14.824-10.323 25.967-29.629 28.331-7.738.947-10.217 1.868-13.081 4.859-4.921 5.137-6.094 12.382-3.029 18.712 2.611 5.395 6.863 7.905 14.918 8.809 15.922 1.785 29.485 9.58 33.756 19.399 2.211 5.083 3.063 16.588 1.613 21.768-4.842 17.295-33.6 26.121-51.244 15.728-4.147-2.443-7.957-6.084-13.256-12.669-5.117-6.359-8.685-8.449-14.427-8.449-6.666 0-11.98 3.513-14.524 9.604-3.393 8.12-.372 15.295 11.444 27.177 16.085 16.175 32.997 22.439 54.966 20.361 10.614-1.004 17.208-2.735 25.912-6.801 23.229-10.85 35.635-31.508 34.069-56.726-1.129-18.175-8.02-32.87-20.016-42.682l-4.173-3.413 4.894-5.352c5.444-5.956 10.12-14.21 12.435-21.955 1.861-6.223 2.08-20.805.416-27.733-5.007-20.858-23.841-37.246-47.555-41.382-8.659-1.51-21.847-1.541-28.478-.067m161.28 4.869c-4.73 2.872-46.443 33.771-48.175 35.684-1.639 1.812-4.026 9.609-3.484 11.383.174.568.546 2.082.826 3.364.639 2.916 5.032 7.995 8.441 9.758 2.892 1.496 9.285 1.732 12.525.463 1.173-.46 7.396-4.72 13.829-9.467 6.432-4.747 11.898-8.632 12.145-8.632.248 0 .553 32.573.679 72.383l.227 72.383 2.01 2.924c2.683 3.904 5.183 5.672 9.741 6.892 7.115 1.903 15.292-2.255 18.242-9.274.944-2.247 1.154-18.631 1.154-90.185 0-59.704-.288-88.2-.908-89.84-1.112-2.943-4.703-6.836-7.797-8.452-1.446-.756-4.942-1.203-9.386-1.201-5.713.003-7.66.354-10.069 1.817" fill-rule="evenodd"/></svg>