<svg xmlns="http://www.w3.org/2000/svg" width="512" height="512"><path d="M104.478 36.078C79.445 46.924 58.913 61.037 47.732 75.083c-11.077 13.916-15.479 26.267-15.512 43.53-.053 27.856 10.442 57.851 35.826 102.4 29.271 51.37 49.437 77.492 94.889 122.915 42.116 42.088 71.092 65.097 115.678 91.858 56.463 33.89 90.895 46.517 119.04 43.655 32.704-3.325 58.929-27.729 78.262-72.828 7.016-16.365 5.168-23.747-9.995-39.927-11.974-12.777-29.637-25.912-56.747-42.196-15.4-9.25-38.398-20.888-45.167-22.856-2.7-.785-7.668-1.416-11.041-1.403-10.081.039-16.147 2.952-34.321 16.479-4.735 3.524-10.251 7.065-12.257 7.868-3.404 1.361-3.971 1.366-8.443.066-7.256-2.109-14.239-5.51-24.523-11.94-29.785-18.625-53.484-41.949-72.844-71.69-8.231-12.645-13.706-24.015-14.291-29.677-.579-5.615.129-7.075 10.002-20.617 18.134-24.871 18.66-33.362 3.962-63.926-9.639-20.045-26.237-46.392-40.167-63.76-8.525-10.628-21.393-22.984-28.265-27.138-4.27-2.582-5.676-2.967-11.8-3.235-6.636-.291-7.341-.136-15.54 3.417m32.393 49.255c11.275 14.718 25.017 36.273 32.095 50.347 5.382 10.702 9.381 20.357 9.381 22.653 0 1.113-2.096 5.015-4.657 8.672-18.633 26.604-19.551 28.582-19.526 42.062.019 10.712 2.065 17.901 8.875 31.182 11.99 23.382 33.516 51.069 54.561 70.178 29.745 27.009 62.462 45.642 82.347 46.899 12.12.766 21.148-2.659 35.915-13.626 16.244-12.065 16.309-12.1 20.03-10.985 1.801.539 8.19 3.503 14.198 6.586 28.609 14.678 58.01 34.418 71.284 47.857l5.748 5.82-4.894 9.818c-13.233 26.547-26.969 40.512-43.643 44.371-18.061 4.18-49.758-7.128-95.652-34.125-48.964-28.804-80.077-53.383-123.306-97.413-34.041-34.671-51.482-56.734-73.106-92.482-22.491-37.18-33.669-60.568-39.278-82.178-2.158-8.312-2.61-11.77-2.704-20.661-.11-10.441-.05-10.805 2.68-16.357 1.536-3.123 4.224-7.403 5.973-9.512 6.802-8.199 20.425-17.693 36.854-25.686l8.073-3.927 6.27 6.2c3.449 3.411 9.066 9.849 12.482 14.307" fill-rule="evenodd"/></svg>