<svg xmlns="http://www.w3.org/2000/svg" width="512" height="512"><path d="M201.813 80.764c-8.776 1.967-19.103 7.718-24.122 13.435-1.381 1.572-8.711 12.605-16.289 24.517-13.372 21.018-15.485 23.723-19.535 25.005-1.859.588-1.92.427-1.92-5.024 0-8.673-2.577-13.629-8.713-16.761-2.769-1.413-5.145-1.616-18.931-1.616-16.774 0-19.088.413-22.993 4.108-3.679 3.481-4.931 6.576-5.453 13.485l-.477 6.3-4.783.013c-19.432.051-37.74 13.74-44.382 33.184L32 183.893v208.214l2.215 6.483c5.323 15.582 18.372 27.908 33.798 31.926 7.375 1.921 368.599 1.921 375.974 0 7.31-1.904 14.349-5.798 20.092-11.115 6.603-6.114 10.929-12.682 13.706-20.811l2.215-6.483V183.893l-2.215-6.483c-5.37-15.719-18.806-28.27-34.131-31.883-4.38-1.032-12.075-1.291-38.691-1.301-31.778-.012-33.382-.089-36.852-1.769-3.294-1.594-4.902-3.766-17.46-23.577-7.607-12.002-14.961-23.109-16.342-24.681-3.259-3.712-12.723-9.955-18.149-11.972-3.979-1.48-7.919-1.596-58.453-1.716-29.803-.072-54.955.042-55.894.253m105.883 32.89c1.922 1.053 6.283 7.228 16.213 22.956 7.471 11.833 15.12 23.1 16.998 25.038 4.515 4.661 10.462 8.683 16.92 11.443l5.266 2.251 36.694.436c39.703.471 39.146.404 43.692 5.273 4.735 5.071 4.521 0 4.521 106.949 0 87.079-.155 98.985-1.321 101.776-1.762 4.216-4.361 6.918-8.492 8.824-3.284 1.516-10.182 1.576-182.187 1.576-172.005 0-178.903-.06-182.187-1.576-4.131-1.906-6.73-4.608-8.492-8.824C64.155 386.985 64 375.079 64 288c0-106.949-.214-101.878 4.521-106.949 4.548-4.872 3.954-4.8 44.119-5.293 42.36-.519 41.244-.337 52.096-8.468 7.139-5.348 8.367-6.964 23.364-30.757 6.952-11.029 13.113-20.559 13.691-21.177 3.145-3.362 5.931-3.53 55.489-3.333 43.013.171 48.049.334 50.416 1.631m-63.54 63.085c-3.463.401-9.415 1.546-13.226 2.542-14.801 3.87-37.015 16.773-40.111 23.299-3.545 7.47-2.425 13.905 3.346 19.225 6.312 5.818 13.871 5.849 21.672.088 7.121-5.258 19.334-10.909 27.017-12.499 9.778-2.025 23.3-1.294 32.293 1.745 10.88 3.678 17.162 7.644 25.778 16.277 6.628 6.641 8.391 9.033 11.687 15.856 2.135 4.419 4.136 9.091 4.447 10.381.517 2.142.353 2.349-1.873 2.366-5.737.044-12.665 5.345-14.392 11.011-.989 3.244-.606 9.181.76 11.778.683 1.301 7.13 8.187 14.324 15.302 12.412 12.274 13.294 12.968 17.22 13.55 7.765 1.15 9.859-.099 24.161-14.401 14.302-14.302 15.55-16.396 14.401-24.161-.509-3.446-1.301-4.805-4.735-8.129-3.249-3.145-4.949-4.115-8.02-4.575-2.143-.322-4.853-.344-6.022-.051-1.811.455-2.202.185-2.647-1.825-1.981-8.936-4.387-16.217-7.614-23.037-14.704-31.082-43.138-51.263-77.235-54.819-9.224-.962-12.374-.951-21.231.077m-74.769 60.852c-1.408.633-8.382 7.05-15.497 14.26-12.268 12.431-12.969 13.323-13.55 17.247-1.563 10.558 5.619 18.753 16.35 18.657l4.498-.041.975 4.696c6.085 29.312 27.812 55.526 56.119 67.708 13.842 5.957 20.694 7.249 38.145 7.192 14.019-.045 16.105-.254 23.893-2.391 17.325-4.755 36.808-16.316 40.561-24.069 5.283-10.913-2.273-22.557-14.639-22.557-4.357 0-5.35.375-10.253 3.873-13.487 9.62-29.461 14.674-43.402 13.731-18.923-1.279-35.855-10.332-47.407-25.344-4.066-5.284-9.395-15.687-10.241-19.993-.479-2.442-.359-2.57 2.61-2.778 5.068-.355 10.314-4.011 12.923-9.008 1.507-2.886 1.667-9.435.317-12.948-1.277-3.322-23.4-25.699-27.502-27.818-3.695-1.908-10.152-2.102-13.9-.417" fill-rule="evenodd"/></svg>