<svg xmlns="http://www.w3.org/2000/svg" width="512" height="512"><path d="M92.016 81.079c-24.27 4.141-46.385 21.97-54.814 44.189C31.665 139.863 32 131.432 32 256s-.335 116.137 5.202 130.732c7.538 19.872 26.036 36.369 47.877 42.699l6.654 1.929h328.534l6.654-1.929c21.841-6.33 40.339-22.827 47.877-42.699C480.335 372.137 480 380.568 480 256s.335-116.137-5.202-130.732c-7.43-19.587-25.575-35.916-47.431-42.683l-6.247-1.934-162.56-.126c-89.408-.069-164.353.18-166.544.554m328.453 32.659c6.674 2.272 14.627 8.107 19.126 14.03 5.802 7.639 7.655 13.241 8.194 24.765l.449 9.6H64v-6.71c0-3.69.386-8.778.858-11.307 2.866-15.359 16.959-29.185 31.995-31.388 2.824-.414 75.534-.697 162.134-.631 148.231.112 157.263.204 161.482 1.641m27.345 181.729-.241 73.6-2.005 4.97c-4.426 10.972-14.96 20.967-25.549 24.243-4.584 1.417-14.304 1.507-164.019 1.507s-159.435-.09-164.019-1.507c-10.589-3.276-21.123-13.271-25.549-24.243l-2.005-4.97-.241-73.6-.24-73.6h384.108l-.24 73.6m-328.347-24.182c-7.822 2.46-15.205 8.894-18.693 16.288-2.159 4.576-2.214 5.132-2.214 22.203v17.509l2.782 5.652c3.237 6.578 7.861 11.09 14.609 14.254l4.796 2.249 29.44.255c31.139.269 33.986.009 40.562-3.711 5.35-3.026 10.993-9.621 13.143-15.36 2.299-6.14 3.297-22.974 1.931-32.574-1.647-11.576-7.134-19.771-16.567-24.741l-4.509-2.376-31.574-.159c-17.365-.088-32.533.142-33.706.511" fill-rule="evenodd"/></svg>