<svg xmlns="http://www.w3.org/2000/svg" width="512" height="512"><path d="M41.263 64.882c-8.881 1.77-18.434 9.393-22.42 17.889l-2.203 4.696v240.64l2.287 4.879c4.717 10.064 13.672 16.819 24.593 18.549 7.743 1.227 417.296 1.218 424.96-.009 10.812-1.732 19.287-7.96 24.081-17.697l2.799-5.687V87.467l-2.203-4.696c-2.943-6.273-9.32-12.482-16.141-15.715l-5.549-2.629-213.334-.125c-117.333-.069-214.925.192-216.87.58m52.604 31.952c0 1.216-4.557 12.243-6.144 14.869-3.713 6.143-9.766 13.21-15.19 17.736-5.76 4.806-17.16 10.979-21.973 11.898l-2.773.53v-45.44h23.04c12.672 0 23.04.183 23.04.407m292.247 2.793c1.269 6.806 5.737 18.883 9.617 25.995 12.862 23.578 34.703 40.647 60.376 47.183l7.68 1.955.223 33.27.223 33.27-3.189.598c-6.611 1.24-17.145 5.027-24.491 8.803-18.16 9.335-33.59 24.731-42.514 42.419-2.729 5.41-7.223 18.512-7.975 23.253l-.575 3.627H126.487l-.545-3.637c-1.578-10.519-9.793-28.324-18.008-39.03-13.13-17.109-36.386-31.572-56.978-35.435l-3.189-.598.223-33.27.223-33.27 7.68-1.948c25.527-6.473 47.558-23.692 60.376-47.19 3.88-7.112 8.348-19.189 9.617-25.995l.597-3.2h259.034l.597 3.2m78.099 19.52v22.72l-2.773-.53c-4.813-.919-16.213-7.092-21.973-11.898-8.937-7.457-16.275-17.724-19.623-27.454-.941-2.735-1.711-5.104-1.711-5.265 0-.161 10.368-.293 23.04-.293h23.04v22.72m-217.6-6.468c-35.216 3.181-67.237 27.309-79.755 60.097-3.995 10.462-5.44 16.609-6.302 26.799-4.757 56.262 39.158 104.212 95.444 104.212 26.634 0 50.814-10.355 69.221-29.643 36.009-37.733 35.403-96.914-1.37-133.686-7.074-7.075-17.322-14.538-25.611-18.653-14.59-7.242-34.17-10.703-51.627-9.126m22.863 32.838c12.945 2.567 27.118 11.283 36.141 22.227 16.634 20.175 18.976 49.816 5.715 72.322-7.772 13.19-20.904 23.834-35.512 28.784-7.769 2.634-9.037 2.814-19.82 2.814s-12.051-.18-19.82-2.814c-4.925-1.668-10.851-4.486-14.57-6.928-42.506-27.905-38.336-89.731 7.545-111.878 11.554-5.577 26.538-7.259 40.321-4.527M56.152 276.667c12.488 4.625 26.352 17.568 32.889 30.703 2.172 4.365 4.188 8.993 4.48 10.283l.531 2.347H47.787v-46.195l1.92.593c1.056.326 3.956 1.347 6.445 2.269m408.061 20.293V320h-46.265l.531-2.347c.292-1.29 2.334-5.994 4.539-10.453 3.371-6.817 5.237-9.328 11.728-15.787 4.245-4.224 9.93-8.978 12.633-10.565 4.241-2.491 14.26-6.749 16.194-6.884.352-.024.64 10.324.64 22.996M59.838 368.642c-8.346 1.97-13.503 11.066-11.175 19.711 1.253 4.651 6.142 9.653 10.663 10.909 4.819 1.337 388.529 1.337 393.348 0 1.867-.519 4.806-2.354 6.531-4.08 8.814-8.814 4.629-23.781-7.431-26.578-4.146-.962-387.86-.925-391.936.038m29.319 48.974c-3.622 1.578-7.901 6.748-8.58 10.366-1.441 7.681 1.978 15.108 8.383 18.208l3.739 1.81h326.602l3.739-1.81c6.405-3.1 9.824-10.527 8.383-18.208-.697-3.713-5.012-8.833-8.769-10.402-4.041-1.689-329.619-1.654-333.497.036" fill-rule="evenodd"/></svg>