<svg xmlns="http://www.w3.org/2000/svg" width="512" height="512"><path d="M417.274 80.99c-6.426 2.017-12.435 7.413-15.289 13.73-1.723 3.816-1.734 4.834-1.745 161.28l-.01 157.44 2.023 4.267c2.46 5.189 7.313 9.979 12.467 12.308 3.622 1.636 5.51 1.734 33.28 1.734 27.77 0 29.658-.098 33.28-1.734 5.154-2.329 10.007-7.119 12.467-12.308l2.023-4.267-.01-157.44c-.011-156.446-.022-157.464-1.745-161.28-2.111-4.673-6.862-9.746-11.455-12.232-3.297-1.785-4.432-1.853-33.28-2.009-16.427-.088-30.829.142-32.006.511M464.213 256v144.213h-32.426V111.787h32.426V256m-175.922-94.761c-6.216 1.933-12.76 8.579-15.079 15.315-.744 2.16-.997 32.757-.99 119.893l.008 116.993 2.023 4.267c2.46 5.189 7.313 9.979 12.467 12.308 3.622 1.636 5.51 1.734 33.28 1.734 27.77 0 29.658-.098 33.28-1.734 5.154-2.329 10.007-7.119 12.467-12.308l2.023-4.267.008-116.993c.006-86.312-.25-117.753-.978-119.893-1.573-4.623-5.484-9.489-10.218-12.714l-4.386-2.987-30.818-.16c-16.95-.088-31.839.158-33.087.546m47.922 134.868v104.106h-32.426V192h32.426v104.107m-175.922-70.868c-6.216 1.933-12.76 8.579-15.079 15.315-.737 2.141-.994 25.169-.98 87.893.019 83.601.047 85.056 1.753 88.833 2.329 5.154 7.119 10.007 12.308 12.467 4.233 2.007 4.501 2.023 33.707 2.023s29.474-.016 33.707-2.023c5.189-2.46 9.979-7.313 12.308-12.467 1.706-3.777 1.734-5.232 1.753-88.833.014-62.121-.247-85.773-.968-87.893-1.573-4.623-5.484-9.489-10.218-12.714l-4.386-2.987-30.818-.16c-16.95-.088-31.839.158-33.087.546m47.922 102.868v72.106h-32.426V256h32.426v72.107M32.291 289.239c-6.216 1.933-12.76 8.579-15.079 15.315-.722 2.096-.993 17.604-.98 55.893.018 51.428.07 53.106 1.753 56.833 2.329 5.154 7.119 10.007 12.308 12.467 4.233 2.007 4.501 2.023 33.707 2.023s29.474-.016 33.707-2.023c5.189-2.46 9.979-7.313 12.308-12.467 1.683-3.727 1.735-5.405 1.753-56.833.013-37.905-.262-53.818-.968-55.893-1.573-4.623-5.484-9.489-10.218-12.714l-4.386-2.987-30.818-.16c-16.95-.088-31.839.158-33.087.546m47.922 70.868v40.106H47.787V320h32.426v40.107" fill-rule="evenodd"/></svg>