<svg xmlns="http://www.w3.org/2000/svg" width="512" height="512"><path d="M264.96 33.729c-42.045 5.935-77.919 22.911-107.424 50.835-25.998 24.605-42.729 52.882-51.675 87.338-7.096 27.33-7.215 58.367-.332 86.658 6.266 25.753 19.202 51.894 35.892 72.533 6.233 7.708 20.751 22.165 28.392 28.275 22.178 17.732 51.421 31.34 79.36 36.929 35.527 7.107 61.99 4.739 105.614-9.451l14.734-4.793 33.053 11.664c34.609 12.212 37.183 12.83 44.746 10.729 5.085-1.412 11.286-6.906 13.957-12.365 3.89-7.952 3.552-10.474-5.924-44.137l-8.348-29.656 5.579-8.752c25.52-40.032 33.773-90.927 22.242-137.163-13.106-52.551-48.879-96.163-98.693-120.32-18.923-9.176-34.002-14.038-54.426-17.55-11.301-1.943-45.191-2.405-56.747-.774m50.365 32.356c81.469 12.377 139.769 84.074 131.88 162.182-2.534 25.084-9.648 45.43-23.423 66.986-6.774 10.602-9.523 18.417-8.811 25.049.259 2.415 3.221 14.118 6.583 26.007 3.362 11.888 5.984 21.739 5.826 21.891-.158.151-11.039-3.594-24.18-8.324l-23.893-8.598-9.387-.061c-9.284-.06-9.561-.003-25.335 5.213-25.952 8.583-41.25 11.534-59.572 11.49-53.164-.126-101.939-27.866-130.766-74.373-19.386-31.277-26.332-72.456-18.423-109.212 12.699-59.011 62.058-105.762 123.893-117.349 16.345-3.063 38.966-3.43 55.608-.901M61.146 217.093c-4.534 1.679-6.941 4.175-10.755 11.153-7.571 13.851-14.003 33.624-16.761 51.527-1.676 10.884-1.857 33.966-.348 44.494 3.218 22.456 11.301 45.25 22.469 63.368l3.808 6.178-5.846 29.867c-3.215 16.427-5.864 31.045-5.886 32.485-.074 4.828 2.413 11.1 6.033 15.213 5.806 6.596 13.853 9.569 21.852 8.075 2.217-.414 16.836-5.763 32.487-11.887l28.454-11.134 9.114 3c32.888 10.826 62.452 12.829 94.446 6.399 17.872-3.592 46.722-15.283 54.443-22.062 4.16-3.653 6.252-10.242 4.874-15.357-1.136-4.219-5.397-9.267-9.143-10.832-5.46-2.282-9.792-1.518-19.678 3.47-23.09 11.65-41.632 16.246-65.482 16.232-19.324-.011-28.823-1.62-49.92-8.455-13.481-4.368-17.626-5.058-23.581-3.927-2.409.457-14.273 4.698-26.364 9.423-12.091 4.726-22.112 8.465-22.268 8.309-.156-.156 1.89-11.565 4.547-25.352l4.831-25.069-1.399-5.335c-.806-3.072-3.363-8.525-6.029-12.853-8.839-14.354-13.631-25.446-17.072-39.516-7.407-30.288-3.962-61.353 9.93-89.542 3.486-7.074 4.432-9.863 4.385-12.936-.164-10.823-11.198-18.618-21.141-14.936" fill-rule="evenodd"/></svg>