<svg xmlns="http://www.w3.org/2000/svg" width="512" height="512"><path d="M228.155 33.712C156.104 42.821 94.592 83.735 59.217 146.078c-10.324 18.195-19.254 42.666-23.453 64.269-3.119 16.047-4.304 35.652-3.24 53.589 2.209 37.237 12.096 68.331 32.325 101.659l6.862 11.306-10.353 37.469c-9.245 33.461-10.305 37.996-9.908 42.389.73 8.086 6.383 16.609 13.43 20.249 4.423 2.284 11.817 3.452 15.962 2.521 1.919-.431 20.028-6.742 40.242-14.023 25.748-9.275 37.843-13.239 40.395-13.239 2.035 0 7.404 1.358 12.174 3.078 36.357 13.113 70.834 18.826 100.267 16.612 31.269-2.351 56.537-9.17 84.053-22.684 49.937-24.524 89.417-68.658 108.363-121.139 34.144-94.575 2.351-196.302-79.582-254.634-28.035-19.959-60.573-33.019-97.198-39.011-11.773-1.926-48.624-2.392-61.401-.777m54.822 32.421c33.439 4.564 64.14 17.294 90.783 37.64 54.7 41.774 82.05 108.539 72.057 175.902-10.393 70.063-59.219 128.611-125.705 150.735-35.545 11.828-70.371 12.932-108 3.424-4.726-1.194-15.888-4.619-24.805-7.611-18.008-6.042-24.454-7.129-33.22-5.603-3.138.547-19.468 5.971-36.29 12.053-16.822 6.083-30.755 11.06-30.962 11.06-.208 0 3.223-12.96 7.624-28.8 10.285-37.019 10.06-35.939 8.817-42.255-1.36-6.913-3.945-12.526-10.797-23.442-16.582-26.416-25.449-53.654-27.781-85.341-6.165-83.778 45.557-160.734 127.109-189.12 14.557-5.067 33.209-8.947 49.26-10.247 7.772-.629 32.474.317 41.91 1.605M148.388 226.395c-6.133 2.575-9.379 4.913-13.063 9.408-5.226 6.379-6.788 11.016-6.8 20.197-.009 6.922.309 8.793 2.175 12.8 6.2 13.316 20.659 21.182 34.388 18.707 10.59-1.909 19.65-8.908 24.212-18.707 1.862-3.999 2.185-5.892 2.185-12.8s-.323-8.801-2.185-12.8c-3.222-6.919-8.403-12.277-15.029-15.542-4.965-2.446-6.677-2.834-13.395-3.038-6.503-.197-8.448.079-12.488 1.775m96.802-.437c-14.124 5.036-23.13 20.196-20.736 34.905 4.194 25.767 35.597 35.998 54.002 17.593 15.558-15.557 11.135-41.534-8.726-51.251-6.229-3.048-17.837-3.638-24.54-1.247m95.198.437c-6.133 2.575-9.379 4.913-13.063 9.408-5.226 6.379-6.788 11.016-6.8 20.197-.009 6.922.309 8.793 2.175 12.8 6.2 13.316 20.659 21.182 34.388 18.707 10.59-1.909 19.65-8.908 24.212-18.707 1.862-3.999 2.185-5.892 2.185-12.8s-.323-8.801-2.185-12.8c-3.222-6.919-8.403-12.277-15.029-15.542-4.965-2.446-6.677-2.834-13.395-3.038-6.503-.197-8.448.079-12.488 1.775" fill-rule="evenodd"/></svg>