<svg xmlns="http://www.w3.org/2000/svg" width="512" height="512"><path d="M363.479 112.754c-1.666.455-4.044 1.672-5.285 2.703-4.705 3.91-139.178 159.049-140.684 162.303-4.16 8.991.899 19.035 10.93 21.704 4.365 1.161 9.958-.011 13.275-2.782 4.699-3.924 139.153-159.049 140.658-162.282 2.701-5.801 1.573-12.566-2.894-17.349-3.793-4.063-10.383-5.833-16-4.297m96.894-.201c-1.408.354-3.441 1.118-4.519 1.696-1.077.579-49.03 54.886-106.562 120.682-57.531 65.796-105.897 120.966-107.478 122.599l-2.876 2.97-43.736-43.653c-47.53-47.44-45.208-45.519-53.664-44.385-10.341 1.387-16.439 12.861-11.855 22.309 1.12 2.308 18.472 20.226 51.84 53.533 45.263 45.179 50.524 50.16 53.92 51.056 4.07 1.073 8.429.579 12.233-1.388 2.361-1.221 228.183-258.541 230.199-262.308 2.952-5.515 2.575-12.225-.965-17.196-3.169-4.451-11.092-7.284-16.537-5.915M41.387 273.555c-3.449 1.794-6.288 4.53-7.883 7.598-1.707 3.282-1.695 10.448.023 13.694.739 1.397 24.122 25.249 51.962 53.006 40.664 40.542 51.264 50.671 53.905 51.508 13.423 4.256 25.432-11.067 18.202-23.225-3.297-5.543-99.264-100.989-103.169-102.608-4.064-1.684-9.772-1.673-13.04.027" fill-rule="evenodd"/></svg>