<svg xmlns="http://www.w3.org/2000/svg" width="512" height="512"><path d="M245.76 162.608c-4.049 1.867-14.91 12.38-79.11 76.578-79.408 79.405-77.345 77.127-78.472 86.646-1.388 11.716 7.606 23.385 19.778 25.659 4.266.797 11.354-.227 15.318-2.213 1.426-.714 31.873-30.532 67.659-66.262L256 218.053l65.067 64.963c35.786 35.73 66.233 65.548 67.659 66.262 3.964 1.986 11.052 3.01 15.318 2.213 12.172-2.274 21.166-13.943 19.778-25.659-1.127-9.519.936-7.241-78.472-86.646-82.44-82.437-78.248-78.743-89.35-78.743-4.135 0-6.741.551-10.24 2.165" fill-rule="evenodd"/></svg>