<svg xmlns="http://www.w3.org/2000/svg" width="512" height="512"><path d="M241.493 48.673c-39.799 2.563-78.317 17.074-111.786 42.114-10.589 7.922-31.248 28.596-39.155 39.184-21.846 29.252-35.222 61.365-40.767 97.869-2.061 13.574-2.061 42.746 0 56.32 5.546 36.511 18.94 68.661 40.773 97.869 8.04 10.755 28.658 31.373 39.413 39.413 29.208 21.833 61.358 35.227 97.869 40.773 13.574 2.061 42.746 2.061 56.32 0 36.526-5.548 68.754-18.978 97.869-40.785 10.755-8.056 31.345-28.646 39.401-39.401 21.807-29.115 35.237-61.343 40.785-97.869 2.061-13.574 2.061-42.746 0-56.32-6.752-44.453-25.412-83.157-55.294-114.69-36.541-38.56-84.833-61.088-138.36-64.543-13.196-.852-12.782-.853-27.068.066m42.667 33.635c35.838 6.075 67.575 21.95 93.579 46.81 27.61 26.395 45.561 60.682 52.093 99.5 2.091 12.43 2.073 42.896-.033 55.115-9.878 57.299-44.492 104.256-95.788 129.946-48.421 24.25-107.601 24.25-156.022 0-51.464-25.774-86.214-73.029-95.815-130.297-2.121-12.648-2.121-42.116 0-54.764 10.541-62.873 51.565-113.601 110.675-136.854 13.047-5.132 28.757-8.823 46.938-11.027 6.667-.809 36.585.251 44.373 1.571m-96.322 94.315c-8.373 2.031-13.482 11.056-11.188 19.761.866 3.284 4.266 7.017 28.842 31.669L233.352 256l-27.86 27.947c-24.576 24.652-27.976 28.385-28.842 31.669-3.212 12.187 7.547 22.946 19.734 19.734 3.284-.866 7.017-4.266 31.669-28.842L256 278.648l27.947 27.86c24.652 24.576 28.385 27.976 31.669 28.842 4.582 1.207 9.428.466 13.09-2.002 5.871-3.956 8.456-10.856 6.644-17.732-.866-3.284-4.266-7.017-28.842-31.669L278.648 256l27.855-27.947c23.382-23.46 28.002-28.494 28.777-31.36 1.143-4.223 1.147-5.169.042-9.147-1.068-3.845-4.372-7.935-7.874-9.746-2.874-1.486-9.066-1.9-12.995-.867-1.777.467-11.108 9.198-30.513 28.552l-27.952 27.879-27.514-27.419c-15.133-15.08-28.282-27.799-29.221-28.263-2.652-1.311-8.237-1.829-11.415-1.059" fill-rule="evenodd"/></svg>