<svg xmlns="http://www.w3.org/2000/svg" width="512" height="512"><path d="M137.619 129.397c-8.188 4.037-11.627 12.566-8.309 20.604.911 2.206 16.957 18.83 52.69 54.586L233.381 256 182 307.413c-35.733 35.756-51.779 52.38-52.69 54.586-2.623 6.353-1.219 12.603 3.922 17.469 4.918 4.655 10.637 5.754 16.769 3.222 2.206-.911 18.83-16.957 54.586-52.69L256 278.619 307.413 330c35.756 35.733 52.38 51.779 54.586 52.69 6.353 2.623 12.603 1.219 17.469-3.922 4.655-4.918 5.754-10.637 3.222-16.769-.911-2.206-16.957-18.83-52.69-54.586L278.619 256 330 204.587c35.733-35.756 51.779-52.38 52.69-54.586 1.622-3.929 1.674-8.384.141-12.054-1.78-4.259-7.727-8.916-12.255-9.594-8.457-1.269-6.277-3.119-62.739 53.257l-51.844 51.765-51.41-51.378c-35.753-35.731-52.376-51.776-54.582-52.687-4.056-1.675-8.878-1.641-12.382.087" fill-rule="evenodd"/></svg>