<svg xmlns="http://www.w3.org/2000/svg" width="512" height="512"><path d="M235.093 81.496c-42.418 5.999-78.18 27.232-103.761 61.607-15.298 20.557-26.867 47.348-31.986 74.07-.809 4.224-1.563 7.798-1.675 7.943-.113.144-3.991 1.031-8.618 1.972-39.45 8.016-71.984 33.748-83.03 65.67-3.766 10.884-5.214 18.83-5.742 31.509-1.042 25.022 5.536 48.375 18.455 65.52 15.313 20.322 36.671 33.019 66.597 39.593l8.96 1.968 145.92.276c149.385.282 152.348.229 167.254-2.969 64.833-13.914 107.291-67.305 104.286-131.143-2.142-45.508-24.845-81.451-65.46-103.634-12.08-6.598-24.009-10.709-45.467-15.671l-4.933-1.14-3.795-8.466c-20.052-44.734-61.275-77.567-107.938-85.971-12.755-2.298-36.896-2.855-49.067-1.134m42.24 32.589c20.943 3.379 41.374 13.583 57.861 28.9 12.277 11.406 21.755 25.025 28.887 41.508 7.125 16.467 13.836 21.895 31.439 25.428 25.319 5.082 43.798 14.321 58.88 29.438 11.039 11.065 18.386 23.759 22.426 38.749 2.006 7.443 2.211 9.694 2.253 24.825.041 14.354-.207 17.637-1.798 23.894-8.242 32.392-32.35 57.167-65.96 67.784-17.279 5.458-8.209 5.176-165.988 5.176-136.468 0-143.77-.077-151.893-1.597-4.693-.879-12.124-2.874-16.513-4.434-21.622-7.688-36.043-22.488-41.955-43.059-2.644-9.2-3.292-27.773-1.311-37.553 2.462-12.15 8.354-23.163 16.925-31.638 12.462-12.321 26.879-19.422 48.401-23.837 11.054-2.268 16.817-5.007 21.843-10.38 4.96-5.303 7.569-11.113 9.305-20.729 8.478-46.953 34.004-83.342 71.678-102.185 22-11.003 48.62-14.63 75.52-10.29" fill-rule="evenodd"/></svg>