<svg xmlns="http://www.w3.org/2000/svg" width="512" height="512"><path d="M61.867 48.187c-.47.167-1.903.535-3.185.817-3.508.773-8.045 5.219-9.671 9.476-1.578 4.131-1.245 9.084.878 13.076.661 1.242 88.682 89.686 195.603 196.544 177.767 177.662 194.72 194.369 198.124 195.258 12.201 3.187 22.929-7.541 19.742-19.742-.889-3.404-17.596-20.357-195.258-198.124C161.242 138.571 72.853 50.584 71.68 49.966c-2.25-1.185-8.367-2.294-9.813-1.779m180.906 16.31c-1.408.202-5.632.771-9.386 1.263-15.428 2.025-33.467 7.962-47.787 15.729-7.661 4.156-9.989 6.281-11.906 10.869-3.596 8.606 1.546 18.69 10.801 21.182 4.789 1.29 7.693.583 16.472-4.011 17.136-8.966 29.814-12.17 50.766-12.829 12.748-.401 16.471-.207 25.434 1.325 38.996 6.665 71.197 30.973 90.014 67.948 8.484 16.673 12.744 30.784 15.898 52.665 2.459 17.061 5.536 20.161 21.828 21.993 31.652 3.559 57.636 19.287 68.263 41.32 4.599 9.535 6.405 18.041 6.397 30.12-.016 22.37-6.008 37.804-19.973 51.449-9.296 9.082-10.336 17.293-3.17 25.036 3.229 3.489 6.665 5.028 11.228 5.028 5.859 0 9.288-2.049 17.241-10.298 10.532-10.926 16.14-19.743 20.837-32.766 7.329-20.317 8.095-47.483 1.928-68.372-10.415-35.277-43.274-62.619-85.619-71.244l-7.614-1.55-2.32-10.611c-7.954-36.378-22.646-64.618-46.144-88.7-22.816-23.384-53.184-38.982-85.641-43.988-7.756-1.197-32.818-2.236-37.547-1.558M85.007 169.407c-21.634 7.697-43.513 22.351-56.262 37.681C10.462 229.073 1.547 252.705.314 282.453c-1.898 45.803 19.14 86.47 57.602 111.348 13.018 8.42 31.443 15.735 48.324 19.186 15.241 3.116 31.531 3.536 126.72 3.269 88.928-.251 90.952-.293 94.239-1.963 11.016-5.598 12.107-20.431 2.018-27.424l-3.523-2.442-102.9-.467c-102.439-.465-102.938-.475-111.215-2.363-14.549-3.318-28.425-9.173-39.472-16.655-6.812-4.612-19.752-17.587-24.296-24.361-5.266-7.848-10.057-18.565-12.556-28.085-2.651-10.099-3.575-28.194-2.033-39.786 4.428-33.273 26.808-59.762 61.498-72.79 7.7-2.892 10.445-4.759 12.526-8.518 2.503-4.52 3.093-8.071 2.01-12.092-1.799-6.683-8.66-12.036-15.389-12.006-1.643.007-5.63.953-8.86 2.103" fill-rule="evenodd"/></svg>