<svg xmlns="http://www.w3.org/2000/svg" width="512" height="512"><path d="M232.768 33.734c-32.832 4.477-61.426 19.115-85.195 43.615-12.521 12.905-20.729 24.612-28.083 40.053l-3.284 6.896-11.81 2.309c-42.248 8.263-75.776 29.978-91.932 59.541-14.917 27.297-16.51 64.046-4.063 93.745 14.839 35.407 47.328 59.52 92.529 68.672 14.425 2.92 35.176 4.053 68.03 3.713l26.88-.278 3.979-2.339c8.89-5.226 10.88-16.014 4.379-23.74-4.714-5.602-3.471-5.446-47.611-5.971-43.706-.52-46.673-.816-64.66-6.46-25.757-8.081-46.785-26.283-54.721-47.367-3.861-10.256-5.034-18.466-4.546-31.799.47-12.829 2.096-20.414 6.263-29.222 12.542-26.512 43.779-44.502 85.664-49.337 12.49-1.441 15.577-3.844 20.072-15.622 9.93-26.014 26.686-46.022 50.328-60.098 15.361-9.146 33.215-14.393 53.383-15.689 9.666-.622 26.66.676 35.79 2.732 25.638 5.775 47.913 18.675 65.145 37.727 18.339 20.277 29.257 44.247 33.493 73.532 1.53 10.576 2.403 13.634 4.745 16.61 3.015 3.834 7.5 5.459 17.726 6.424 17.561 1.656 30.556 4.988 42.221 10.827 22.149 11.086 32.107 26.131 32.069 48.451-.03 17.075-4.021 27.559-14.478 38.032-7.265 7.277-15.474 12.014-27.175 15.682-15.54 4.872-17.83 5.049-72.253 5.571-55.51.532-53.057.279-57.851 5.977-6.501 7.726-4.511 18.514 4.379 23.74L316.16 352l47.787-.05c51.716-.055 58.87-.524 76.373-5.011 34.008-8.718 57.726-28.58 66.903-56.024 4.571-13.669 5.951-31.399 3.524-45.257-4.715-26.924-19.857-46.675-46.644-60.838-13.176-6.967-26.36-10.981-48.138-14.656-1.462-.246-2.059-1.706-3.71-9.069-4.827-21.525-12.792-40.903-23.773-57.842-15.087-23.27-37.161-42.889-61.655-54.796-16.41-7.978-30.362-12.225-48.541-14.777-10.934-1.535-34.067-1.507-45.518.054M249.6 209.428c-3.623 1.624-6.341 4.45-8.185 8.509-1.523 3.355-1.592 7.822-1.61 105.452l-.018 101.95-19.84-19.738c-16.331-16.246-20.444-19.901-23.254-20.664-4.22-1.147-5.166-1.152-9.147-.046-6.04 1.678-11.698 8.652-11.736 14.469-.046 6.977.377 7.487 35.257 42.517 18.377 18.456 35.058 34.532 37.069 35.725 4.973 2.949 10.755 2.949 15.728 0 2.011-1.193 18.692-17.269 37.069-35.725 34.88-35.03 35.303-35.54 35.257-42.517-.038-5.817-5.696-12.791-11.736-14.469-3.981-1.106-4.927-1.101-9.147.046-2.81.763-6.923 4.418-23.254 20.664l-19.84 19.738-.018-101.95c-.018-97.412-.089-102.101-1.599-105.362-1.84-3.973-5.476-7.616-8.892-8.906-3.261-1.232-8.994-1.087-12.104.307" fill-rule="evenodd"/></svg>