<svg xmlns="http://www.w3.org/2000/svg" width="512" height="512"><path d="M241.493 48.673c-39.799 2.563-78.317 17.074-111.786 42.114-10.589 7.922-31.248 28.596-39.155 39.184-21.846 29.252-35.222 61.365-40.767 97.869-2.061 13.574-2.061 42.746 0 56.32 5.546 36.511 18.94 68.661 40.773 97.869 8.04 10.755 28.658 31.373 39.413 39.413 29.208 21.833 61.358 35.227 97.869 40.773 13.574 2.061 42.746 2.061 56.32 0 36.526-5.548 68.754-18.978 97.869-40.785 10.755-8.056 31.345-28.646 39.401-39.401 21.807-29.115 35.237-61.343 40.785-97.869 2.061-13.574 2.061-42.746 0-56.32-6.752-44.453-25.412-83.157-55.294-114.69-36.541-38.56-84.833-61.088-138.36-64.543-13.196-.852-12.782-.853-27.068.066m42.667 33.635c35.838 6.075 67.575 21.95 93.579 46.81 27.61 26.395 45.561 60.682 52.093 99.5 2.091 12.43 2.073 42.896-.033 55.115-9.878 57.299-44.492 104.256-95.788 129.946-48.421 24.25-107.601 24.25-156.022 0-51.464-25.774-86.214-73.029-95.815-130.297-2.121-12.648-2.121-42.116 0-54.764 10.541-62.873 51.565-113.601 110.675-136.854 13.047-5.132 28.757-8.823 46.938-11.027 6.667-.809 36.585.251 44.373 1.571m-39.904 86.688c-20.962 3.764-37.543 16.461-47.983 36.743-2.319 4.505-4.745 8.631-5.392 9.167-.646.536-4.979 1.929-9.628 3.095-12.791 3.207-21.553 7.969-29.844 16.217-10.939 10.883-15.19 21.547-15.147 37.995.019 7.308.436 10.223 2.256 15.805 6.2 19.007 21.181 33.077 40.474 38.011 6.142 1.571 10.096 1.651 81.701 1.651 71.785 0 75.546-.076 81.747-1.662 16.329-4.177 27.103-13.473 31.278-26.988 6.795-22.002-1.708-42.67-21.558-52.397-3.843-1.884-9.483-4.024-12.533-4.756-7.443-1.787-10.162-2.909-11.045-4.559-.406-.76-1.556-4.835-2.554-9.056-4.017-16.986-9.574-27.705-20.059-38.691-8.933-9.36-18.921-15.404-31.241-18.904-7.303-2.074-23.331-2.953-30.472-1.671" fill-rule="evenodd"/></svg>