<svg xmlns="http://www.w3.org/2000/svg" width="512" height="512"><path d="M239.821 48.738c-37.85 3.358-72.433 21.054-97.807 50.045-8.09 9.243-16.557 22.055-21.729 32.882l-4.165 8.719-9.469 1.936c-19.531 3.991-37.925 11.614-54.284 22.495-11.178 7.435-26.083 21.926-32.715 31.805-21.785 32.453-25.614 74.566-10.095 111.007 6.131 14.394 14.339 25.996 26.934 38.071 22.354 21.429 51.601 34.211 85.536 37.38 12.701 1.186 70.181 1.21 74.427.031 10.913-3.031 15.126-16.842 7.795-25.554-4.763-5.661-3.527-5.502-47.236-6.08-35.994-.476-40.36-.687-47.009-2.279-22.275-5.333-37.536-13.28-51.799-26.973-11.462-11.003-19.564-24.727-23.73-40.196-2.291-8.505-2.311-32.21-.034-41.387 2.05-8.264 8.596-22.045 13.625-28.679 15.13-19.963 41.319-34.712 69.559-39.173 16.324-2.579 17.343-2.902 21.148-6.708 2.241-2.242 4.099-5.224 5.117-8.213 2.927-8.595 11.271-24.23 16.922-31.707 13.761-18.21 34.828-33.344 56.066-40.277 13.594-4.437 19.491-5.221 39.122-5.2 15.787.017 19.537.285 26.88 1.917 17.002 3.781 30.263 9.379 44.31 18.704 10.818 7.181 25.397 21.627 32.774 32.474 11.926 17.534 19.945 39.034 23.149 62.062 1.271 9.133 2.973 13.487 6.475 16.562 3.438 3.019 6.413 3.889 17.867 5.228 21.809 2.548 40.686 11.232 54.659 25.143 5.953 5.927 8.507 9.239 11.183 14.507 5.143 10.12 5.851 13.538 5.837 28.16-.011 11.052-.281 13.604-1.973 18.69-6.98 20.97-22.351 35.17-46.224 42.701-13.651 4.306-19.657 4.73-67.417 4.758-24.171.014-45.453.374-47.294.801-8.762 2.033-13.948 10.891-11.563 19.75 1.306 4.85 6.157 9.684 11.036 10.997 2.753.742 16.293.905 51.169.618 43.357-.357 48.232-.542 56.824-2.156 43.309-8.136 73.931-33.321 84.338-69.364 6.63-22.965 4.679-47.609-5.367-67.755-5.271-10.572-10.81-17.957-19.834-26.447-15.784-14.848-36.916-25.522-60.126-30.368-4.608-.963-8.417-1.821-8.463-1.908-.046-.086-.974-4.189-2.061-9.117-15.941-72.243-70.981-121.802-142.099-127.95-11.561-1-18.579-.989-30.259.048m9.779 128.683c-2.274 1.064-14.842 13.088-37.663 36.035-36.752 36.953-36.95 37.199-35.781 44.512 1.676 10.483 13.498 16.781 22.736 12.113 1.607-.812 11.465-9.965 21.908-20.34l18.987-18.864v220.175l1.92 3.758c1.056 2.067 3.395 4.932 5.199 6.367 2.933 2.334 3.892 2.61 9.094 2.61s6.161-.276 9.094-2.61c1.804-1.435 4.143-4.3 5.199-6.367l1.92-3.758V230.877l18.987 18.864c10.443 10.375 20.301 19.528 21.908 20.34 9.238 4.668 21.06-1.63 22.736-12.113 1.169-7.313.971-7.559-35.781-44.512-35.076-35.269-37.843-37.632-44.063-37.632-1.643 0-4.523.719-6.4 1.597" fill-rule="evenodd"/></svg>