<svg xmlns="http://www.w3.org/2000/svg" width="512" height="512"><path d="M153.906 129.181c-2.43 1.105-129.616 111.826-134.009 116.662-4.965 5.464-4.965 14.85 0 20.314 4.879 5.371 131.697 115.602 134.199 116.647 6.898 2.882 15.07.174 19.29-6.394 2.231-3.472 2.489-4.537 2.217-9.137-.18-3.054-.925-6.15-1.802-7.487-.821-1.254-27.399-24.953-59.061-52.665C83.079 279.409 57.173 256.404 57.173 256c0-.404 25.906-23.409 57.567-51.121 31.662-27.712 58.233-51.401 59.047-52.643.813-1.242 1.641-4.5 1.84-7.241.305-4.222.02-5.563-1.866-8.781-1.224-2.09-3.566-4.627-5.205-5.64-3.795-2.346-11.039-3.034-14.65-1.393m193.327-.365c-3.831 1.16-6.751 3.57-9.022 7.444-1.857 3.169-2.142 4.526-1.838 8.735.199 2.741 1.027 5.999 1.84 7.241.814 1.242 27.385 24.931 59.047 52.643 31.661 27.712 57.567 50.717 57.567 51.121 0 .404-25.906 23.409-57.567 51.121-31.662 27.712-58.24 51.411-59.061 52.665-.877 1.337-1.622 4.433-1.802 7.487-.272 4.6-.014 5.665 2.217 9.137 4.22 6.568 12.392 9.276 19.29 6.394 2.502-1.045 129.32-111.276 134.199-116.647 2.451-2.697 3.684-6.096 3.684-10.157s-1.233-7.46-3.684-10.157c-4.879-5.371-131.697-115.602-134.199-116.647-3.1-1.295-7.173-1.44-10.671-.38M154.643 233c-9.53 4.762-14.223 12.335-14.252 23-.015 5.308.391 7.232 2.377 11.276 7.846 15.977 28.718 19.59 41.18 7.127 7.562-7.561 9.911-17.637 6.339-27.185-5.415-14.473-21.942-21.065-35.644-14.218m93.671-1.852c-14.712 4.815-22.302 21.514-16.017 35.242 7.65 16.709 29.088 20.726 41.953 7.86 12.436-12.435 9.045-33.358-6.73-41.524-3.714-1.923-15.255-2.871-19.206-1.578m86.57 1.699c-16.369 7.744-19.797 28.592-6.832 41.556 12.462 12.463 33.334 8.85 41.18-7.127 3.099-6.311 3.347-15.52.58-21.559-6.143-13.408-21.685-19.135-34.928-12.87" fill-rule="evenodd"/></svg>