<svg xmlns="http://www.w3.org/2000/svg" width="512" height="512"><path d="M216.803 51.593c-4.089.804-5.994 1.666-7.466 3.377-1.919 2.231-1.977 2.782-1.977 18.701 0 13.168-.251 16.761-1.275 18.222-1.714 2.448-14.532 7.318-17.528 6.66-2.629-.577-4.66-2.65-14.636-14.936-4.005-4.934-7.901-9.483-8.657-10.111-2.734-2.269-6.81-1.479-13.944 2.703-6.46 3.788-8.813 6.357-8.813 9.622 0 .699 2.304 7.325 5.12 14.725 6.647 17.467 6.641 18.237-.214 24.472-6.353 5.779-8.515 6.782-12.006 5.565-1.4-.488-7.828-4.151-14.283-8.14-15.768-9.743-16.754-9.737-24.703.145-3.977 4.943-5.114 6.995-5.114 9.227 0 3.11-.109 2.956 12.562 17.683 4.328 5.031 8.13 10.186 8.449 11.457.442 1.763-.209 3.807-2.749 8.633-3.818 7.252-6.291 9.609-10.057 9.585-1.462-.01-8.419-1.16-15.459-2.557-7.04-1.397-13.693-2.541-14.785-2.543-3.282-.005-6.511 4.145-8.97 11.53-1.249 3.751-2.271 7.484-2.271 8.296 0 2.838 4.787 6.578 17.186 13.426 14.833 8.193 15.11 8.563 13.516 18.113-1.226 7.346-2.774 10.731-5.357 11.713-1.033.392-8.369 1.789-16.303 3.103-19.173 3.176-18.856 2.911-18.856 15.736 0 12.947-.382 12.639 19.679 15.831 18.839 2.998 18.694 2.901 20.625 13.835 1.365 7.724 1.358 7.96-.324 10.24-.946 1.284-7.641 5.687-14.877 9.785-16.603 9.403-16.714 9.572-13.157 20.127 2.69 7.981 5.804 12.113 9.109 12.085 1.092-.01 7.745-1.16 14.785-2.557s13.997-2.541 15.459-2.543c3.777-.004 6.246 2.337 10.066 9.548 2.551 4.816 3.201 6.846 2.758 8.612-.319 1.271-4.323 6.632-8.898 11.914-14.925 17.23-14.819 16.828-7.017 26.525 2.812 3.497 5.724 6.592 6.469 6.878 3.789 1.453 6.86.313 19.276-7.16 14.469-8.709 16.375-9.166 21.706-5.211 5.597 4.152 8.774 7.499 9.369 9.87.419 1.668-.922 6.193-5.11 17.245-5.955 15.716-6.12 16.942-2.774 20.596 2.113 2.307 13.391 8.7 15.348 8.7 3.247 0 6.164-2.644 15.135-13.72 6.23-7.691 10.395-12.083 11.981-12.636 1.926-.672 3.764-.399 8.853 1.312 10.769 3.621 10.189 2.383 10.686 22.812.504 20.749.406 20.526 9.958 22.375 8.13 1.573 12.539 1.482 14.706-.303 1.159-.955 3.638-6.727 6.872-16 6.33-18.152 6.512-18.347 17.104-18.347 10.592 0 10.774.195 17.104 18.347 3.234 9.273 5.713 15.045 6.872 16 2.167 1.785 6.576 1.876 14.706.303 9.552-1.849 9.454-1.626 9.958-22.375.412-16.955.492-17.603 2.36-19.113 2.744-2.219 15.16-6.204 17.256-5.538.954.302 5.978 5.803 11.164 12.223 10.394 12.867 12.791 14.953 16.409 14.278 2.863-.534 13.268-6.486 15.222-8.707 2.889-3.285 2.645-4.895-3.072-20.231-3.068-8.233-5.579-15.354-5.579-15.824 0-2.352 2.443-5.502 7.364-9.495 7.677-6.229 8.321-6.14 24.253 3.354 17.186 10.24 17.419 10.235 26.279-.599 6.998-8.558 6.976-8.631-7.717-25.559-4.584-5.282-8.596-10.643-8.915-11.914-.443-1.766.207-3.796 2.758-8.612 3.82-7.21 6.289-9.552 10.066-9.548 1.462.002 8.611 1.157 15.885 2.567 7.275 1.411 14.278 2.34 15.563 2.065 3.284-.702 5.088-3.374 7.931-11.748 3.554-10.469 3.378-10.736-13.214-20.067-7.218-4.059-13.892-8.421-14.831-9.694-1.626-2.205-1.652-2.67-.548-9.814 1.716-11.107 2.047-11.345 19.753-14.167 15.913-2.536 18.226-3.31 19.97-6.682 1.645-3.181 1.63-15.375-.023-18.572-1.683-3.254-3.85-3.975-19.631-6.533-7.489-1.214-14.241-2.541-15.003-2.949-2.499-1.338-3.576-3.322-4.736-8.731-1.543-7.192-1.455-10.951.308-13.112.811-.994 6.851-4.773 13.421-8.399 6.571-3.625 12.9-7.518 14.066-8.651 2.758-2.681 2.611-6.392-.589-14.812-1.907-5.019-3.005-6.705-5.202-7.988-2.777-1.622-2.821-1.619-16.709 1.029-16.843 3.212-19.264 3.294-21.631.735-3.219-3.479-7.908-12.397-7.908-15.041 0-2.088 2.079-5.016 10.667-15.022 11.47-13.366 12.101-14.727 9.094-19.644-.861-1.408-3.586-4.768-6.055-7.466-6.354-6.943-7.26-6.84-22.977 2.62-6.879 4.14-13.44 7.771-14.581 8.069-2.871.751-6.421-1.132-12.201-6.472-3.794-3.505-4.907-5.092-4.907-6.997 0-1.356 2.304-8.519 5.12-15.918 2.816-7.399 5.12-14.783 5.12-16.409 0-3.549-2.952-6.301-11.416-10.642-8.449-4.334-8.874-4.111-21.062 11.039-6.799 8.451-10.948 12.894-12.377 13.253-2.823.709-14.602-3.48-17.438-6.2l-2.134-2.047.293-15.651c.388-20.759.076-21.36-12.183-23.515-12.563-2.209-13.193-1.657-19.68 17.264-5.998 17.495-6.173 17.686-16.291 17.686-11.56 0-11.767-.23-18.372-20.36-4.442-13.541-5.953-15.52-11.75-15.397-2.165.046-6.407.569-9.427 1.163m51.024 61.066c19.366 1.714 34.35 5.921 51.746 14.527 6.571 3.251 15.595 8.507 20.054 11.682 10.397 7.403 26.12 23.13 33.497 33.505 10.11 14.22 21.24 39.021 22.521 50.184.662 5.766-2.949 12.489-8.197 15.265l-3.782 1.999-57.283-.23-57.282-.231-3.351-2.227c-2.929-1.947-6.747-8.216-30.398-49.92-14.876-26.231-27.452-48.774-27.946-50.095-2.507-6.697 1.085-15.515 7.726-18.971 3.332-1.734 18.821-4.698 28.495-5.452 12.486-.974 13.585-.975 24.2-.036m-93.918 37.025c1.267.662 3.309 2.294 4.536 3.626 1.879 2.041 48.817 83.817 54.392 94.763 2.327 4.568 2.416 11.114.212 15.428-5.201 10.175-53.493 93.181-55.397 95.217-4.4 4.707-10.903 6.036-17.039 3.482-8.203-3.414-24.266-23.788-33.845-42.93-19.432-38.828-19.33-87.996.263-127.039 8.141-16.224 24.248-37.385 32.099-42.173 3.147-1.919 11.421-2.129 14.779-.374m213.073 124.234c4.126 1.997 6.693 5.172 8.172 10.107 1.308 4.368.316 9.568-4.096 21.468-19.537 52.69-65.736 88.181-122.258 93.922-19.359 1.967-49.033-1.693-56.428-6.959-3.677-2.618-6.188-8.048-6.142-13.282.036-4.188 1.345-6.675 27.152-51.627 14.913-25.975 27.827-48.241 28.698-49.48.871-1.24 3.219-3.063 5.218-4.053 3.587-1.775 4.389-1.799 59.899-1.8 54.494-.001 56.375.053 59.785 1.704" fill-rule="evenodd"/></svg>