<svg xmlns="http://www.w3.org/2000/svg" width="512" height="512"><path d="M249.173 48.351c-60.182 3.035-111.005 45.197-125.325 103.969-2.814 11.552-3.711 20.698-3.399 34.694l.298 13.36-7.049 3.173C78.69 219.307 52.894 246.73 40.275 281.6c-5.651 15.614-7.956 28.955-7.962 46.08-.011 31.69 9.479 59.471 28.715 84.053 31.687 40.496 83.754 59.64 134.38 49.408 8.146-1.646 25.289-7.413 31.979-10.758 7.967-3.983 14.778-8.217 22-13.675L256 431.71l6.613 4.998c12.372 9.35 22.455 14.665 37.36 19.693 25.961 8.757 50.623 9.857 76.774 3.422 53.562-13.18 94.304-58.466 101.964-113.336 1.378-9.867 1.227-29.548-.297-38.888-4.842-29.672-17.499-54.646-38.207-75.392-12.172-12.193-25.354-21.209-41.905-28.66l-7.049-3.173.292-12.934c.311-13.782-.682-24.078-3.385-35.12-12.061-49.261-50.68-88.198-99.307-100.123-11.751-2.882-27.848-4.442-39.68-3.846m21.334 32.732c41.749 6.446 75.189 36.102 85.713 76.013 2.529 9.589 4.226 25.027 3.449 31.364l-.56 4.567-8.248-.586c-8.985-.638-24.823.548-35.086 2.627-18.48 3.743-39.134 13.317-54.442 25.235L256 224.455l-5.333-4.152c-15.308-11.918-35.962-21.492-54.442-25.235-10.263-2.079-26.101-3.265-35.086-2.627l-8.248.586-.56-4.567c-.777-6.337.92-21.775 3.449-31.364 10.428-39.549 43.771-69.385 84.86-75.935 6.603-1.053 23.274-1.096 29.867-.078M192 226.954c12.551 3.109 23.329 7.849 34.235 15.056 8.333 5.507 8.229 5.172 3.715 11.965-3.446 5.185-10.345 18.512-12.449 24.045-.917 2.413-2.186 2.146-10.141-2.139-13.244-7.132-29.513-21.585-36.873-32.756-3.667-5.566-10.031-17.078-10.048-18.176-.023-1.422 23.847.094 31.561 2.005m159.573-2.076c0 1.279-5.601 11.249-10.091 17.963-8.938 13.362-26.596 28.58-40.605 34.993-2.705 1.239-5.201 1.921-5.547 1.516-.346-.405-2.082-4.001-3.86-7.99-3.081-6.917-9.615-18.379-12.273-21.531-1.632-1.935-.756-2.979 6.568-7.82 13.548-8.954 27.716-14.374 44.475-17.014 3.324-.523 21.333-.623 21.333-.117m-222.092 9.017c.769 2.94 6.54 14.434 10.448 20.807 5.729 9.344 12.836 18.127 21.487 26.559 12.476 12.157 24.143 20.138 39.117 26.759l8.107 3.584-.278 13.798c-.22 10.922.085 15.952 1.462 24.13 3.059 18.17 10.51 37.522 20.273 52.655 2.063 3.197 3.538 6.157 3.278 6.578-.794 1.286-14.181 9.878-19.615 12.59-2.816 1.405-8.637 3.732-12.935 5.171-44.186 14.789-93.453-2.105-119.041-40.819-10.506-15.895-15.081-28.811-17.027-48.068-2.854-28.227 6.466-57.076 25.231-78.107 6.03-6.758 13.787-13.67 19.936-17.764 4.973-3.312 17.036-9.661 18.353-9.661.405 0 .947.805 1.204 1.788m261.362 1.428c26.616 13.408 46.287 37.853 53.719 66.757 6.029 23.448 3.253 50.795-7.295 71.866-23.253 46.448-77.201 68.944-126.092 52.58-4.298-1.439-10.119-3.766-12.935-5.171-5.434-2.712-18.821-11.304-19.615-12.59-.26-.421 1.215-3.381 3.278-6.578 9.763-15.133 17.214-34.485 20.273-52.655 1.376-8.174 1.682-13.207 1.462-24.1l-.278-13.769 8.107-3.69c15.962-7.267 26.656-14.569 39.117-26.712 12.424-12.108 21.658-24.937 28.318-39.341 1.735-3.755 3.389-7.499 3.673-8.32.699-2.016.951-1.963 8.268 1.723m-130.671 44.784 3.513 7.04-3.842.569c-2.114.313-5.572.313-7.686 0l-3.842-.569 3.513-7.04c1.933-3.872 3.81-7.04 4.172-7.04.362 0 2.239 3.168 4.172 7.04m11.453 43.306c1.105 9.379-1.8 28.94-5.925 39.9-2.808 7.46-8.696 18.98-9.7 18.98-1.004 0-6.892-11.52-9.7-18.98-4.125-10.96-7.03-30.521-5.925-39.9l.452-3.84h30.346l.452 3.84" fill-rule="evenodd"/></svg>