<svg xmlns="http://www.w3.org/2000/svg" width="512" height="512"><path d="M196.267 48.668c-17.774 1.453-30.501 5.373-52.48 16.165-31.26 15.348-53.597 32.62-73.969 57.194-8.362 10.086-10.364 14.073-10.794 21.49-.328 5.657-.347 5.697-2.426 4.906-3.519-1.337-10.682-.878-14.697.943-4.645 2.108-35.916 31.894-38.989 37.138C.265 191.02-.564 197.507.821 202.86c.972 3.759 3.07 6.069 27.21 29.968 14.385 14.242 27.689 26.881 29.563 28.088 4.912 3.162 14.171 3.716 19.353 1.156 2.241-1.106 10.619-8.613 21.312-19.094 16.069-15.751 17.749-17.674 19.087-21.847 1.837-5.727 1.344-10.739-1.619-16.45-1.229-2.368-2.234-4.462-2.234-4.653 0-.672 5.581-.329 8.691.535 6.861 1.905 22.448 13.628 40.224 30.251 7.663 7.165 9.114 8.93 9.122 11.093.013 3.291 1.856 10.22 3.872 14.556.875 1.883 6.958 8.864 13.747 15.778l12.177 12.4-43.168 40.08c-23.742 22.043-45.17 42.242-47.618 44.885-16.568 17.892-19.17 45.442-6.329 67.005 3.867 6.493 12.857 15.355 19.582 19.304 9.184 5.392 17.637 7.724 28.1 7.751 14.297.037 26.864-4.317 36.926-12.796 2.708-2.282 23.06-23.594 45.226-47.358 22.166-23.764 40.686-43.168 41.155-43.119 1.437.149 47.863 49.456 71.248 75.67 21.545 24.151 23.4 25.633 34.334 27.445 6.944 1.151 14.601-.64 20.761-4.856 2.374-1.625 12.647-11.364 22.831-21.643 21.93-22.135 23.2-24.105 23.198-35.963-.001-6.463-.307-7.895-2.743-12.843-2.463-5.002-4.199-6.83-17.065-17.96-17.087-14.781-35.478-31.324-65.673-59.073l-22.336-20.527 5.811-6.441c3.195-3.543 7.991-8.502 10.655-11.021l4.846-4.578 4.853.447c2.669.247 8.501 1.245 12.96 2.219 17.326 3.785 37.322 3.975 54.078.513 32.236-6.659 58.19-28.984 70.431-60.582 7.714-19.915 10.384-41.935 7.351-60.636-2.188-13.49-6.506-25.108-10.827-29.137-4.661-4.344-12.448-5.702-18.412-3.209-2.065.862-12.802 10.933-31.386 29.44-28.185 28.066-28.256 28.129-31.864 28.129-1.989 0-4.653-.545-5.92-1.212-1.267-.666-7.935-6.906-14.818-13.866-13.194-13.345-14.554-15.562-13.124-21.397.378-1.542 10.073-11.898 28.166-30.085 15.175-15.254 28.205-28.963 28.958-30.465 3.032-6.056.643-16.144-4.73-19.97-8.282-5.897-27.413-10.337-44.676-10.368-23.813-.043-44.071 5.686-62.107 17.561-23.565 15.516-37.107 35.312-43.007 62.868-1.22 5.697-1.544 10.915-1.51 24.32.04 15.546.262 18.055 2.491 28.16 1.345 6.102 2.614 12.962 2.819 15.245l.372 4.152-10.969 10.573c-6.033 5.814-11.421 10.474-11.974 10.354-.553-.119-6.931-5.813-14.173-12.653-13.725-12.962-17.541-15.497-25.999-17.271-4.265-.894-5.237-1.615-13.434-9.948-11.128-11.315-19.1-20.903-21.688-26.085-1.782-3.569-1.947-4.755-1.457-10.528 1.515-17.864 8.007-28.562 21.298-35.093 13.824-6.793 27.39-8.481 40.321-5.018 10.08 2.7 11.187 2.789 15.265 1.231 10.079-3.849 13.761-15.623 7.646-24.448-3.645-5.259-11.974-14.031-16.402-17.274-16.151-11.829-39.976-17.811-63.332-15.902m2.56 31.86c0 .172-2.576 1.804-5.725 3.626-11.155 6.455-21.671 18.338-27.097 30.619-6.578 14.889-8.586 35.907-4.605 48.21 3.085 9.533 10.723 20.516 24.234 34.844l7.506 7.96-2.49 2.036c-1.37 1.12-2.822 2.049-3.228 2.066-.406.017-4.054-3.111-8.107-6.952-18.747-17.767-37.223-30.135-50.15-33.571-13.03-3.464-29.199-.619-39.242 6.905-3.531 2.645-8.436 10.144-9.696 14.826-1.488 5.524-1.183 13.708.695 18.65l1.628 4.282-7.163 6.556-7.163 6.555-10.859-10.25c-5.972-5.637-13.086-12.519-15.809-15.292l-4.95-5.042 7.378-6.699 7.379-6.699 8.665-.113c10.56-.139 16.38-2.124 22.588-7.706 6.046-5.435 8.12-10.668 8.201-20.684l.063-7.904 3.975-4.896c6.068-7.474 17.033-18.357 24.362-24.181 17.689-14.056 42.059-27.549 60.701-33.608 5.919-1.924 18.909-4.355 18.909-3.538m178.984 18.285c-16.704 16.815-18.766 19.21-21.486 24.96-5.782 12.221-5.762 25.203.057 37.46 2.769 5.834 4.654 8.032 19.819 23.119 18.545 18.449 21.314 20.34 33.47 22.853 8.475 1.753 17.536.622 26.092-3.258 5.22-2.367 7.832-4.635 24.72-21.462 10.386-10.349 19.063-18.489 19.283-18.09.659 1.199-.923 16.996-2.296 22.915-4.13 17.809-14.631 34.348-27.375 43.117-17.462 12.013-42.796 14.981-70.788 8.292-14.117-3.373-26.28-2.003-36.267 4.084-6.245 3.807-6.845 4.431-96.384 100.237-59.268 63.415-78.787 83.79-82.085 85.681-6.316 3.62-14.971 4.097-21.329 1.175-6.339-2.914-9.663-5.961-12.233-11.214-4.034-8.245-3.73-17.217.829-24.439 1.142-1.809 32.138-31.217 68.879-65.352 104.977-97.528 111.239-103.4 113.671-106.587 3.82-5.01 7.22-13.296 8.296-20.222 1.061-6.835.905-8.142-3.136-26.295-1.992-8.949-2.976-23.528-2.16-32 .987-10.242 2.899-17.366 6.871-25.6 10.717-22.218 37.161-37.578 65.245-37.897l6.784-.077-18.477 18.6M233.387 233.486l11.093 10.68-9.813 9.317-9.814 9.318-10.453-10.428c-5.749-5.735-10.453-10.811-10.453-11.279 0-.881 17.12-18.408 17.904-18.331.243.024 5.434 4.85 11.536 10.723m109.226 103.263c25.354 23.284 52.241 47.484 63.83 57.45l8.362 7.191-14.762 14.8-14.763 14.799-3.413-3.686c-1.878-2.028-10.902-11.928-20.054-22-16.173-17.799-34.244-37.162-54.807-58.721l-10.051-10.539 10.378-11.03c10.308-10.956 10.39-11.019 12.162-9.443.982.873 11.385 10.403 23.118 21.179" fill-rule="evenodd"/></svg>