<svg xmlns="http://www.w3.org/2000/svg" width="512" height="512"><path d="M445.867 48.187c-.47.167-1.943.545-3.275.84-2.908.644-18.245 15.145-19.75 18.672-1.782 4.179-.587 6.571 7.151 14.308 10.683 10.683 11.884 10.624 23.762-1.17 6.123-6.08 8.192-8.749 9.246-11.921 2.363-7.113-.021-14.022-6.221-18.032-2.998-1.939-8.928-3.404-10.913-2.697M309.302 180.089l-92.21 92.195-4.632 14.07c-4.789 14.546-4.949 16.58-1.366 17.285.779.153 7.458-1.712 14.842-4.145l13.424-4.424 91.604-91.428c56.063-55.956 92.085-92.533 92.842-94.275 1.898-4.363.379-7.472-7.307-14.951-6.486-6.312-6.837-6.523-10.845-6.523h-4.142l-92.21 92.196M96.853 112.611c-14.144 1.684-26.457 8.567-36.306 20.294-4.671 5.561-7.901 11.582-10.416 19.415l-1.918 5.973v259.414l1.918 5.973c2.516 7.837 5.745 13.854 10.423 19.424 7.83 9.324 16.402 15.116 27.766 18.765l5.973 1.918h259.414l5.973-1.918c18.451-5.924 31.685-19.012 38.184-37.762l1.923-5.547.242-98.133c.271-109.65.656-102.45-5.788-108.271-7.388-6.675-19.005-4.672-24.062 4.149l-1.966 3.428-.426 97.707-.427 97.707-1.848 3.413c-2.486 4.593-7.559 9.344-12.232 11.455-3.805 1.718-4.995 1.734-129.28 1.734s-125.475-.016-129.28-1.734c-4.673-2.111-9.746-6.862-12.232-11.455l-1.848-3.413V160.853l1.848-3.413c2.191-4.048 7.218-9.001 11.379-11.213 2.842-1.51 7.33-1.608 92.586-2.014 81.272-.387 89.838-.558 92.16-1.839 5.165-2.849 8.96-8.937 8.96-14.374 0-5.437-3.795-11.525-8.96-14.374-2.331-1.287-10.332-1.422-89.6-1.519-47.872-.058-89.344.168-92.16.504" fill-rule="evenodd"/></svg>