<svg xmlns="http://www.w3.org/2000/svg" width="512" height="512"><path d="M92.016 81.029c-11.675 2.138-22.269 6.852-31.993 14.235-17.699 13.439-27.739 33.923-27.757 56.629-.02 24.395 11.84 46.635 32.002 60.018 23.517 15.609 55.149 15.866 78.476.639l6.187-4.039 20.468 8.312c16.587 6.736 20.639 8.094 21.373 7.162.497-.632 2.609-4.343 4.692-8.247 2.744-5.144 5.998-9.39 11.817-15.425 4.416-4.579 7.859-8.497 7.651-8.706-.209-.208-9.191-5.729-19.962-12.269l-19.582-11.89-.021-13.964c-.024-15.83-.943-20.434-6.366-31.884-4.103-8.663-7.028-12.908-13.34-19.359-9.205-9.408-21.174-16.566-33.208-19.86-5.915-1.619-24.478-2.444-30.437-1.352m18.234 31.618c8.504 1.23 14.658 4.492 21.634 11.469 7.035 7.034 10.249 13.149 11.482 21.847 2.934 20.687-9.533 39.535-29.611 44.764-27.327 7.118-53.47-16.79-49.117-44.916 2.558-16.526 16.453-30.792 32.215-33.075 7.037-1.019 6.969-1.018 13.397-.089m298.497 26.828c-21.257 3.062-72.491 16.421-106.667 27.812-37.225 12.408-69.095 27.77-80.683 38.889-11.513 11.048-15.576 19.674-21.2 45.011-3.476 15.66-6.418 22.611-12.176 28.767-5.291 5.656-17.976 14.071-29.538 19.594l-9.149 4.37-5.824-3.871c-11.686-7.77-24.677-11.591-39.403-11.591-24.681 0-46.217 11.279-59.644 31.237-24.342 36.182-11.245 85.513 27.816 104.779 10.981 5.416 17.765 6.878 31.828 6.86 14.742-.019 19.555-1.108 32-7.245 14.174-6.989 24.991-17.806 31.98-31.98 6.308-12.793 7.275-17.219 7.082-32.427-.089-7.04-.275-14.034-.412-15.542l-.25-2.742 152.32-85.878c83.776-47.233 152.462-86.013 152.636-86.179.757-.72-6.062-16.446-8.317-19.181-3.147-3.817-9.009-7.018-17.175-9.377-8.277-2.391-32.782-3.099-45.224-1.306m.384 32.757c-1.421 1.249-104.43 59.021-105.235 59.021-.425 0-1.039-1.44-1.364-3.2-.864-4.681-5.014-12.942-9.042-18.001l-3.518-4.418 2.854-1.188c8.704-3.623 39.1-13.333 60.027-19.176 10.715-2.991 45.657-11.555 52.054-12.757 2.346-.441 4.439-.845 4.65-.898.212-.052.02.226-.426.617m-145.09 54.244c9.132 5.352 10.281 18.753 2.191 25.56-7.796 6.559-19.774 4.181-24.468-4.859-2.074-3.995-1.812-11.345.546-15.287 4.294-7.18 14.414-9.701 21.731-5.414m38.269 57.5c-22.637 13.008-41.163 23.843-41.171 24.077-.013.416 10.302 5.362 39.417 18.903 33.512 15.585 62.06 24.991 90.697 29.883 8.915 1.523 14.529 1.902 28.587 1.929 18.362.036 23.759-.742 33.194-4.782 3.66-1.567 27.403-17.694 27.382-18.598-.014-.583-135.248-75.131-136.22-75.092-.401.016-19.25 10.672-41.886 23.68m67.818 26.737c13.778 7.564 24.925 13.879 24.771 14.032-.55.551-19.198-3.839-29.246-6.884-9.38-2.843-31.694-10.832-34.43-12.327-.774-.423 1.035-1.897 5.547-4.517 3.683-2.139 7.059-3.927 7.502-3.973.443-.046 12.078 6.105 25.856 13.669m-258.244 10.145c15.928 2.972 29.155 16.913 31.459 33.155 4.565 32.191-28.387 56.175-57.319 41.718-6.869-3.433-14.27-10.917-17.715-17.917-14.611-29.677 10.922-63.05 43.575-56.956" fill-rule="evenodd"/></svg>