<svg xmlns="http://www.w3.org/2000/svg" viewBox="0 0 512 512"><path d="M128.853 33.743c-3.05.649-9.194 3.002-13.653 5.229-6.842 3.418-9.376 5.32-16.244 12.192-6.612 6.616-8.814 9.502-11.745 15.396-1.984 3.989-4.371 10.291-5.303 14.003-1.662 6.621-1.695 9.974-1.695 175.437 0 165.463.033 168.816 1.695 175.437.932 3.712 3.319 10.014 5.303 14.003 2.922 5.874 5.155 8.808 11.745 15.428 6.819 6.85 9.408 8.809 15.978 12.09C130.02 480.492 120.164 480 256 480s125.98.492 141.066-7.042c6.57-3.281 9.159-5.24 15.978-12.09 6.59-6.62 8.823-9.554 11.745-15.428 1.984-3.989 4.371-10.291 5.303-14.003 1.645-6.552 1.695-9.827 1.695-111.821 0-115.616.274-109.355-5.29-120.789-2.46-5.057-9.408-12.261-78.704-81.606-64.928-64.973-76.815-76.502-81.557-79.103-10.572-5.798-9.267-5.699-73.775-5.623-45.987.053-59.214.313-63.608 1.248m110.94 87.644c.004 35.665.343 59.486.896 62.933 2.726 16.999 16.393 32.264 34.084 38.071 4.308 1.414 9.649 1.565 65.067 1.835l60.373.295-.017 95.313c-.009 52.604-.365 97.717-.793 100.679-1.53 10.577-8.046 19.465-17.787 24.261l-5.687 2.799H136.107l-4.88-2.287c-10.073-4.721-17.074-14.009-18.62-24.705-1.035-7.157-1.044-321.941-.01-329.094 1.857-12.84 11.189-23.316 23.41-26.282 3.202-.777 17.616-1.079 54.073-1.132L239.787 64l.006 57.387m91.161 70.407c-45.647.218-46.271.198-49.979-1.597-2.267-1.097-4.662-3.188-6.045-5.277l-2.29-3.461-.228-47.423-.229-47.423 52.498 52.48 52.498 52.48-46.225.221m-82.909 48.935c-10.408 1.377-20.236 6.687-28.059 15.159-9.252 10.019-11.773 17.644-11.773 35.605 0 11.821-.043 12.106-1.92 12.609-1.056.283-2.88.52-4.053.527-2.967.017-11.876 4.372-15.559 7.606-4.402 3.864-8.067 9.997-9.636 16.122-1.144 4.464-1.319 9.917-1.097 34.105l.265 28.791 2.709 5.718c4.865 10.269 13.535 16.795 24.751 18.632 6.472 1.06 98.182 1.06 104.654 0 11.216-1.837 19.886-8.363 24.751-18.632l2.709-5.718.265-28.791c.222-24.188.047-29.641-1.097-34.105-1.569-6.125-5.234-12.258-9.636-16.122-3.683-3.234-12.592-7.589-15.559-7.606-1.173-.007-2.997-.244-4.053-.527-1.877-.503-1.92-.788-1.92-12.609 0-19.069-2.629-26.245-13.628-37.2-11.461-11.415-25.116-15.813-42.114-13.564m15.307 33.117c1.932.877 4.608 3.03 5.946 4.785 2.328 3.053 2.447 3.66 2.775 14.173l.342 10.983h-32.628v-9.179c0-5.049.374-10.486.833-12.084 2.407-8.394 13.789-12.74 22.732-8.678" fill-rule="evenodd"/></svg>