<svg xmlns="http://www.w3.org/2000/svg" width="512" height="512"><path d="M128.853 33.743c-3.05.649-9.194 3.002-13.653 5.229-6.842 3.418-9.376 5.32-16.244 12.192-6.612 6.616-8.814 9.502-11.745 15.396-1.984 3.989-4.371 10.291-5.303 14.003-1.662 6.621-1.695 9.974-1.695 175.437 0 165.463.033 168.816 1.695 175.437.932 3.712 3.319 10.014 5.303 14.003 2.922 5.874 5.155 8.808 11.745 15.428 6.819 6.85 9.408 8.809 15.978 12.09C130.02 480.492 120.164 480 256 480s125.98.492 141.066-7.042c6.57-3.281 9.159-5.24 15.978-12.09 6.59-6.62 8.823-9.554 11.745-15.428 1.984-3.989 4.371-10.291 5.303-14.003 1.645-6.552 1.695-9.827 1.695-111.821 0-115.616.274-109.355-5.29-120.789-2.46-5.057-9.408-12.261-78.704-81.606-64.928-64.973-76.815-76.502-81.557-79.103-10.572-5.798-9.267-5.699-73.775-5.623-45.987.053-59.214.313-63.608 1.248m110.94 87.644c.004 35.665.343 59.486.896 62.933 2.726 16.999 16.393 32.264 34.084 38.071 4.308 1.414 9.649 1.565 65.067 1.835l60.373.295-.017 95.313c-.009 52.604-.365 97.717-.793 100.679-1.53 10.577-8.046 19.465-17.787 24.261l-5.687 2.799H136.107l-4.88-2.287c-10.073-4.721-17.074-14.009-18.62-24.705-1.035-7.157-1.044-321.941-.01-329.094 1.857-12.84 11.189-23.316 23.41-26.282 3.202-.777 17.616-1.079 54.073-1.132L239.787 64l.006 57.387m91.161 70.407c-45.647.218-46.271.198-49.979-1.597-2.267-1.097-4.662-3.188-6.045-5.277l-2.29-3.461-.228-47.423-.229-47.423 52.498 52.48 52.498 52.48-46.225.221m-161.567 81.755c-6.155 3.217-9.204 8.004-9.204 14.451 0 6.539 4.088 12.683 9.899 14.879 1.638.619 29.01.908 86.001.908 69.088 0 84.075-.204 86.344-1.175 6.509-2.785 10.553-10.894 8.969-17.984-.985-4.412-2.431-6.594-6.352-9.585l-3.151-2.403-84.973-.215c-75.789-.191-85.25-.07-87.533 1.124m0 79.871c-7.347 4.053-10.567 11.092-8.579 18.754 1.288 4.964 3.872 8.041 8.579 10.213 3.244 1.498 7.526 1.576 86.613 1.576s83.369-.078 86.613-1.576c1.878-.866 4.33-2.57 5.45-3.786 2.009-2.182 4.582-9.907 3.969-11.914-.174-.569-.546-2.083-.826-3.365-.624-2.85-5.008-7.982-8.25-9.659-2.042-1.056-14.767-1.233-87.127-1.21-60.141.018-85.231.299-86.442.967" fill-rule="evenodd"/></svg>