<svg xmlns="http://www.w3.org/2000/svg" width="512" height="512"><path d="M147.627 17.019c-25.373 4.746-43.793 24.235-50.047 52.954C96.105 76.746 96 82.568 96 157.867c0 75.999.091 80.934 1.576 85.749 2.189 7.095 4.887 11.371 10.641 16.859 5.989 5.712 12.011 8.888 20.102 10.603 10.245 2.17 21.631-.019 30.077-5.782 4.329-2.954 11.026-10.302 13.099-14.371 4.402-8.644 4.292-6.254 4.292-93.37 0-80.869-.005-81.079-1.81-84.809-2.683-5.542-7.349-8.319-13.977-8.319s-11.294 2.777-13.977 8.319c-1.804 3.727-1.81 4.002-1.81 81.577 0 83.238.046 82.302-4.138 84.542-2.871 1.536-6.691 1.067-9.254-1.138l-2.394-2.06V157.3c0-83.6-.035-82.85 4.247-91.9 6.054-12.797 18.416-19.154 32.758-16.845 12.526 2.018 20.185 9.367 24.57 23.577 1.479 4.796 1.571 9.815 1.571 85.735 0 76.035-.091 80.981-1.593 86.613-7.27 27.247-26.997 43.245-53.398 43.306-10.651.024-16.803-1.299-25.587-5.501-10.109-4.836-18.118-12.996-23.477-23.919-6.979-14.228-6.728-11.858-7.259-68.499-.419-44.677-.631-50.635-1.885-52.907-2.894-5.246-8.972-8.979-14.56-8.941-6.436.043-13.313 5.355-15.215 11.753-.656 2.206-.83 17.992-.577 52.228.388 52.36.478 53.586 4.983 67.389 4.823 14.781 15.068 30.292 26.498 40.12 13.299 11.436 23.209 15.726 46.545 20.15l1.889.358.251 62.071.251 62.072 2.012 5.973c4.315 12.814 11.193 23.159 20.529 30.878 7.165 5.925 12.445 8.932 20.967 11.94l6.826 2.409 114.347.232c128.629.26 121.005.61 134.827-6.187 16.607-8.167 29.32-23.515 34.297-41.405 1.45-5.215 1.543-11.933 1.543-112.213V229.12l-1.891-6.009c-1.04-3.305-3.473-8.489-5.407-11.52-4.984-7.808-148.224-151.052-156.054-156.057-10.933-6.988-12.118-7.162-51.284-7.55l-34.583-.342-1.917-3.331c-3.112-5.407-12.094-14.436-18.602-18.699-9.512-6.23-18.073-8.684-31.489-9.028-6.101-.156-12.821.04-14.933.435M272.213 139.61c0 65.513-.063 64.63 5.401 75.003 3.471 6.588 13.185 16.302 19.773 19.773 10.373 5.464 9.49 5.401 75.003 5.401h59.397l-.005 98.346c-.003 65.228-.303 99.496-.891 101.76-1.349 5.194-4.047 9.811-8.394 14.364-4.735 4.96-9.95 7.776-16.715 9.027-7.18 1.327-213.663 1.299-219.927-.03-9.806-2.081-18.667-9.003-22.799-17.812l-2.203-4.695-.229-62.006-.23-62.006 4.496-1.452c5.959-1.924 15.175-6.595 21.535-10.913 13.607-9.241 27.455-28.326 32.53-44.836 5.201-16.919 5.6-25.08 5.301-108.281L224 80.213h48.213v59.397m91.643 68.398c-28.974.142-46.061-.093-48.178-.663-3.916-1.054-7.99-4.305-10.002-7.98-1.323-2.416-1.485-7.168-1.7-49.605l-.237-46.933 52.506 52.48 52.507 52.48-44.896.221" fill-rule="evenodd"/></svg>