<svg xmlns="http://www.w3.org/2000/svg" width="512" height="512"><path d="M247.743 34.579c-1.96 1.175-4.456 3.571-5.547 5.325l-1.983 3.189-.426 134.619-.427 134.619-24.747-24.802c-13.61-13.641-26.528-26.125-28.705-27.742-9.627-7.149-22.203-3.128-25.096 8.024-1.325 5.108-.574 9.21 2.497 13.632 1.201 1.729 20.34 21.268 42.531 43.421 27.539 27.491 41.354 40.697 43.519 41.6 4.046 1.687 9.236 1.687 13.282 0 2.165-.903 15.98-14.109 43.519-41.6 22.191-22.153 41.33-41.692 42.531-43.421 3.068-4.418 3.822-8.524 2.501-13.617-1.288-4.964-3.872-8.041-8.579-10.213-4.265-1.969-9.053-2.038-13.097-.189-1.863.852-14.011 12.25-30.199 28.333l-27.083 26.909-.224-134.786-.223-134.787-1.995-3.207c-4.505-7.247-14.714-9.704-22.049-5.307M121.84 161.752c-10.499 2.545-23.096 10.893-30.005 19.882-4.973 6.47-7.985 12.632-9.971 20.398-1.591 6.22-1.651 10.505-1.651 117.968 0 107.463.06 111.748 1.651 117.968 4.996 19.534 20.137 34.783 40.177 40.464C127.3 479.922 133.929 480 256 480s128.7-.078 133.959-1.568c19.945-5.654 35.192-20.971 40.142-40.327 1.636-6.399 1.686-9.847 1.686-118.105 0-107.463-.06-111.748-1.651-117.968-3.992-15.61-14.861-28.921-29.709-36.388-9.686-4.871-13.515-5.313-43.653-5.038l-27.097.247-3.224 2.461c-5.427 4.141-7.848 12.074-5.547 18.177.98 2.6 5.307 7.482 8.054 9.086 1.152.673 10.16 1.136 27.733 1.426 24.937.412 26.178.511 29.631 2.353 4.889 2.608 9.467 7.352 11.651 12.074l1.812 3.917v219.306l-1.812 3.917c-2.183 4.719-6.76 9.464-11.651 12.078l-3.604 1.925H129.28l-3.604-1.925c-4.891-2.614-9.468-7.359-11.651-12.078l-1.812-3.917V210.347l1.812-3.917c2.184-4.722 6.762-9.466 11.651-12.074 3.453-1.842 4.694-1.941 29.631-2.353 17.573-.29 26.581-.753 27.733-1.426 2.747-1.604 7.074-6.486 8.054-9.086 1.28-3.395 1.124-7.797-.407-11.461-1.693-4.053-3.489-5.992-7.4-7.987-2.917-1.489-5.267-1.611-29.866-1.545-19.636.052-27.992.384-31.581 1.254" fill-rule="evenodd"/></svg>