<svg xmlns="http://www.w3.org/2000/svg" width="512" height="512"><path d="M100.267 32.952c-.939.19-3.819.759-6.4 1.266-6.9 1.354-18.25 6.359-26.027 11.475-12.938 8.512-24.885 23.185-30.19 37.079C31.691 98.376 32 90.842 32 220.587c0 129.191-.373 119.858 5.385 134.687 5.889 15.167 19.939 30.079 35.551 37.734 8.281 4.06 17.94 6.365 29.127 6.95l9.477.497.548 9.052c1.34 22.137 9.904 39.483 26.458 53.59 6.299 5.367 17.581 11.414 25.826 13.842 11.526 3.392 19.152 3.573 138.135 3.277l114.346-.284 7.098-1.887c14.187-3.771 25.983-10.651 35.618-20.774 9.255-9.725 14.919-19.938 18.476-33.32l1.887-7.098.284-114.346c.296-118.983.115-126.609-3.277-138.135-5.585-18.971-19.115-35.067-37.046-44.071-10.215-5.13-18.233-7.265-30.384-8.088l-9.051-.614-.498-9.506c-1.025-19.569-6.855-33.535-19.76-47.33-8.412-8.993-18.916-15.602-31.613-19.892l-5.974-2.018-120.32-.123c-66.176-.067-121.088.032-122.026.222M336.385 64.96c6.384 1.356 13.325 5.066 18.691 9.992 8.64 7.93 12.711 17.586 12.711 30.15v6.61l-96.64.297c-105.952.327-99.621.024-113.28 5.418-21.19 8.368-37.046 26.304-43.671 49.4l-1.959 6.826-.249 97.067-.25 97.067h-7.153c-8.384 0-15.542-1.95-21.726-5.919-8.759-5.62-15.814-15.665-17.899-25.483-1.321-6.22-1.36-226.343-.042-233.615 3.151-17.383 19.982-34.539 37.055-37.771 6.453-1.222 228.668-1.258 234.412-.039m81.292 80.561c14.305 3.726 26.364 16.428 29.383 30.948 1.245 5.989 1.328 231.658.088 238.348-2.843 15.332-16.191 29.032-31.403 32.232-3.197.672-38.464.951-120.339.951-109.62 0-116.118-.084-121.449-1.562-3.098-.859-7.33-2.556-9.403-3.771-5.067-2.97-12.765-10.856-15.499-15.878-5.056-9.291-4.842-3.496-4.842-130.682 0-101.958.164-117.177 1.308-121.57 3.631-13.94 14.818-25.254 28.648-28.973 7.134-1.919 236.152-1.959 243.508-.043m-128.822 56.357c-3.847 2.006-5.627 3.848-7.357 7.615-1.435 3.126-1.569 6.237-1.586 36.907l-.019 33.493-32.64.005c-21.181.003-33.831.336-36.034.947-4.524 1.256-9.41 6.257-10.664 10.915-2.25 8.355 3.028 17.485 11.314 19.571 2.63.662 14.512.989 35.976.989h32.048v33.437c0 32.443.055 33.55 1.83 37.217 3.542 7.316 12.938 10.759 20.611 7.553 3.647-1.524 7.968-6.546 9.081-10.557.552-1.986.897-15.591.9-35.437l.005-32.213 32.213-.005c19.846-.003 33.451-.348 35.437-.9 4.011-1.113 9.033-5.434 10.557-9.081 2.95-7.059.127-16.02-6.306-20.02-3.204-1.992-3.248-1.994-37.518-2.244l-34.31-.249-.25-33.884c-.232-31.456-.368-34.121-1.895-37.199-2.441-4.918-8.092-8.206-14.095-8.199-2.628.003-5.879.599-7.298 1.339" fill-rule="evenodd"/></svg>