<svg xmlns="http://www.w3.org/2000/svg" width="512" height="512"><path d="M231.253 33.392c-16.355 1.665-38.573 7.009-54.742 13.167-20.215 7.699-44.67 21.825-62.003 35.814-22.439 18.11-43.36 43.753-56.938 69.791-15.058 28.874-23.154 58.252-25.123 91.16-4.741 79.224 33.43 155.195 100.335 199.694 80.514 53.549 187.832 48.4 263.742-12.654 76.574-61.59 103.962-166.627 67.269-257.991C435.781 102.626 373.348 50.94 299.52 36.379c-5.867-1.158-14.861-2.52-19.988-3.028-10.737-1.065-37.645-1.042-48.279.041m52.907 32.839c23.933 3.413 49.018 12.288 69.985 24.76l6.859 4.08-3.359.992c-8.458 2.497-18.018 12.346-18.018 18.561 0 5.117 6.466 8.543 16.112 8.538 6.383-.004 10.656-1.529 13.392-4.78 1.921-2.283 2.195-3.275 1.863-6.728-.214-2.228-1.339-5.97-2.499-8.316-2.461-4.972-2.544-5.004 7.252 2.746l7.533 5.96-6.812 6.911c-3.747 3.802-8.218 9.141-9.936 11.865-3.523 5.586-6.597 7.803-12.61 9.092-8.544 1.833-11.752 5.161-11.717 12.152.067 12.993 12.974 20.312 26.738 15.162 4.896-1.832 9.588-6.221 14.828-13.872 4.988-7.282 11.26-9.242 18.216-5.693 4.201 2.143 6.448 5.686 7.229 11.394.968 7.078 1.642 8.198 4.928 8.198 1.826 0 4.134-.908 6.306-2.482l3.427-2.482 4.482 9.28 4.482 9.281-2.903 4.082c-1.597 2.245-4.31 4.775-6.028 5.623-5.292 2.611-8.721.981-22.461-10.675-9.689-8.219-15.402-9.041-37.195-5.353-20.948 3.545-24.024 5.273-33.64 18.892-3.256 4.612-8.812 11.51-12.345 15.328-7.006 7.57-10.339 13.453-11.881 20.969-2.42 11.798 4.757 28.274 16.287 37.388 11.916 9.419 25.791 12.221 44.258 8.937 9.838-1.749 17.891-1.768 21.214-.05 4.182 2.163 5.41 5.6 6.166 17.255.694 10.698 1.161 13.144 4.65 24.353 1.465 4.708 2.4 10.969 3.313 22.187.699 8.595 2.078 19.791 3.064 24.88 2.085 10.765 2.596 9.311-7.047 20.081-6.667 7.448-17.345 17.356-25.386 23.555-21.109 16.274-50.143 29.747-76.207 35.362-22.112 4.764-49.418 5.618-69.5 2.174-2.588-.444-2.773-.703-2.773-3.895 0-4.862 2.334-14.495 5.193-21.426 5.852-14.192 13.848-24.499 29.267-37.727 6.228-5.343 13.473-12.089 16.099-14.992 5.338-5.899 10.022-14.715 12.247-23.051 1.826-6.842 2.042-20.8.423-27.307-3.279-13.177-9.728-19.296-34.591-32.822-15.554-8.461-15.799-8.623-26.835-17.806-11.412-9.495-14.896-10.955-26.847-11.247-7.058-.173-10.819-.698-14.557-2.032-8.538-3.048-12.486-2.541-21.866 2.809-4.444 2.535-9.712 5.046-11.707 5.58-6.61 1.769-13.539-1.284-20.951-9.23-5.543-5.944-8.256-11.962-8.267-18.339-.008-4.658.216-5.231 3.211-8.226 3.949-3.949 7.646-5.115 18.114-5.71 9.76-.556 12.089.227 18.773 6.307 5.633 5.124 7.597 6.236 11.018 6.236 4.199 0 5.534-2.924 4.88-10.686l-1.071-12.689c-.707-8.375.911-11.255 10.755-19.137 10.609-8.495 12.3-13.028 9.466-25.37-1.602-6.979-.824-9.341 4.906-14.891 6.47-6.266 11.823-8.98 25.422-12.889 17.844-5.129 22.261-8.174 21.385-14.741-.907-6.803-14.686-22.828-22.045-25.639-6.168-2.355-9.646-.968-17.164 6.849-7.344 7.635-15.794 12.345-23.26 12.964-5.661.47-8.935-.764-12.349-4.653-4.103-4.673-3.552-6.471 4.271-13.945 7.661-7.319 8.255-9.144 5.181-15.914l-1.608-3.542 5.101-1.86c4.907-1.789 5.238-1.805 8.667-.43 2.881 1.156 5.062 1.319 11.361.85 9.117-.68 10.336-.24 17.957 6.491 9.097 8.034 17.114 10.241 24.693 6.799 7.055-3.203 10.388-10.657 8.891-19.881-.479-2.951-.873-5.703-.877-6.116-.008-.936 14.491-.004 26.447 1.701m-141.666 55.148c2.329 6.215 6.764 12.116 13.078 17.403 7.314 6.123 8.372 8.236 8.395 16.777.021 7.507-.949 10.862-4.526 15.656-8.013 10.737-12.1 15.636-13.35 16.003-.798.235-3.947.85-6.998 1.366-3.05.517-11.114 2.432-17.92 4.255-7.799 2.09-13.286 3.133-14.843 2.822-4.983-.996-8.467-5.918-13.748-19.422l-4.912-12.561 1.966-3.546c9.382-16.92 27.33-38.192 43.484-51.534l6.4-5.286.569 6.584c.313 3.621 1.395 8.788 2.405 11.483m245.958 89.03c6.455 5.827 14.952 10.547 22.264 12.369 8.466 2.11 20.609.352 32.225-4.664 1.111-.48 1.514.558 2.355 6.067 4.989 32.682 2.301 65.509-7.703 94.081-2.953 8.432-4.1 10.136-4.1 6.091 0-1.549-1.561-7.468-3.468-13.154-3.217-9.589-3.524-11.331-4.229-24.022-.56-10.076-1.228-15.033-2.531-18.804-4.763-13.774-17.693-23.481-34.757-26.093-5.922-.907-8.735-.84-19.619.464-20.219 2.421-29.125 1.082-29.958-4.504-.449-3.016 2.47-7.876 7.74-12.89 2.754-2.62 6.686-7.328 8.739-10.463 2.052-3.135 4.618-6.175 5.702-6.755 3.566-1.909 9.569-3.178 15.393-3.256l5.732-.076 6.215 5.609m-315.683-.568c.833 1.81 4.809 8.808 8.834 15.552 4.025 6.743 9.224 16.048 11.554 20.677 6.861 13.633 11.035 17.263 27.48 23.894 13.718 5.532 18.363 9.312 22.637 18.424 2.164 4.614 2.221 5.188 2.306 23.079.096 20.477.907 25.152 5.452 31.426 2.447 3.379 4.39 4.959 18.206 14.815 10.402 7.421 13.168 13.568 15.508 34.465 1.454 12.981 4.689 32.183 6.783 40.254.683 2.631.824 4.48.342 4.48-1.722 0-16.055-6.308-25.206-11.093-36.059-18.853-65.19-48.936-83.049-85.761-9.232-19.037-14.367-35.573-17.621-56.746-2.029-13.207-2.029-41.897.002-54.614 1.842-11.542 4.131-22.192 4.762-22.164.272.012 1.176 1.502 2.01 3.312m120.846 77.288c7.944 1.398 7.874 1.361 20.036 10.595 7.817 5.935 14.872 10.409 33.658 21.345 7.345 4.275 9.537 7.288 9.541 13.118.007 8.59-5.118 15.789-19.5 27.393-5.651 4.56-11.875 10.202-13.831 12.538-6.709 8.014-8.387 7.56-10.086-2.729-2.515-15.23-13.865-30.855-28.316-38.983-7.624-4.288-7.33-3.425-7.913-23.208-.283-9.622-.289-18.358-.013-19.413.438-1.675 1.057-1.918 4.882-1.917 2.409 0 7.603.568 11.542 1.261" fill-rule="evenodd"/></svg>