<svg xmlns="http://www.w3.org/2000/svg" width="512" height="512"><path d="M247.743 34.579c-6.179 3.704-7.482 6.86-7.831 18.968L239.611 64l-82.045.015c-90.428.016-88.814-.07-99.539 5.31-7.29 3.656-16.837 13.013-20.297 19.893C31.569 101.466 32 91.917 32 216.32v111.787l2.215 6.483c5.323 15.582 18.372 27.908 33.798 31.926 3.786.986 10.501 1.271 29.964 1.271 19.717 0 24.998.228 24.679 1.066-.224.587-6.44 22.223-13.814 48.081-12.939 45.379-13.371 47.145-12.397 50.759 1.281 4.76 6.855 10.489 11.436 11.753 6.417 1.772 15.017-1.812 17.947-7.479.682-1.318 7.039-22.707 14.126-47.529 7.088-24.822 13.65-47.723 14.582-50.891l1.696-5.76h83.555l.018 25.386c.017 22.889.175 25.723 1.599 28.8 6.114 13.204 23.078 13.204 29.192 0 1.424-3.077 1.582-5.911 1.599-28.8l.018-25.386h83.555l1.696 5.76c.932 3.168 7.494 26.069 14.582 50.891 7.087 24.822 13.444 46.211 14.126 47.529 2.93 5.667 11.53 9.251 17.947 7.479 4.581-1.264 10.155-6.993 11.436-11.753.974-3.614.542-5.38-12.397-50.759-7.374-25.858-13.59-47.494-13.814-48.081-.319-.838 4.962-1.066 24.679-1.066 27.477 0 30.595-.398 39.878-5.084 6.201-3.13 14.267-10.477 18.494-16.846 1.747-2.631 4.172-7.701 5.39-11.267l2.215-6.483V216.32c0-124.403.431-114.854-5.73-127.102-3.46-6.88-13.007-16.237-20.297-19.893-10.725-5.38-9.111-5.294-99.539-5.31L272.389 64l-.301-10.453c-.264-9.165-.547-10.849-2.296-13.661-4.505-7.247-14.714-9.704-22.049-5.307m191.544 63.464c3.911 1.995 5.707 3.934 7.4 7.987 1.158 2.771 1.313 15.754 1.313 109.863 0 94.396-.153 107.087-1.321 109.883-1.762 4.216-4.361 6.918-8.492 8.824-3.284 1.516-10.182 1.576-182.187 1.576-172.005 0-178.903-.06-182.187-1.576-4.131-1.906-6.73-4.608-8.492-8.824-1.169-2.797-1.319-15.477-1.302-110.069.018-101.911.092-107.067 1.586-110.32 1.73-3.768 3.509-5.61 7.357-7.616 2.296-1.197 21.024-1.334 182.859-1.339 175.245-.005 180.389.04 183.466 1.611" fill-rule="evenodd"/></svg>