<svg xmlns="http://www.w3.org/2000/svg" width="512" height="512"><path d="M85.333 209.14c-2.112.408-6.912 2.259-10.666 4.115-7.191 3.555-14.552 10.082-19.239 17.062-5.747 8.556-8.585 21.58-6.969 31.976 1.834 11.798 5.804 19.622 14.067 27.727C72.92 300.214 80.813 303.36 96 303.36c15.187 0 23.08-3.146 33.474-13.34 8.263-8.105 12.233-15.929 14.067-27.727 1.616-10.396-1.222-23.42-6.969-31.976-6.981-10.395-19.741-19.241-30.662-21.256-5.422-1-15.171-.962-20.577.079m158.408.427c-7.674 1.858-14.834 6.104-21.452 12.722-9.731 9.73-14.076 20.137-14.076 33.711 0 13.574 4.345 23.981 14.076 33.711 9.73 9.731 20.137 14.076 33.711 14.076 13.574 0 23.981-4.345 33.711-14.076 9.731-9.73 14.076-20.137 14.076-33.711 0-13.574-4.345-23.981-14.076-33.711-6.76-6.76-13.779-10.861-21.844-12.762-6.742-1.589-17.468-1.571-24.126.04m161.592-.427c-2.112.408-6.912 2.259-10.666 4.115-7.191 3.555-14.552 10.082-19.239 17.062-5.747 8.556-8.585 21.58-6.969 31.976 1.834 11.798 5.804 19.622 14.067 27.727 10.394 10.194 18.287 13.34 33.474 13.34 15.187 0 23.08-3.146 33.474-13.34 8.263-8.105 12.233-15.929 14.067-27.727 1.616-10.396-1.222-23.42-6.969-31.976-6.981-10.395-19.741-19.241-30.662-21.256-5.422-1-15.171-.962-20.577.079m-302.08 32.818c9.215 4.707 11.443 17.091 4.426 24.603-2.806 3.004-8.237 5.615-11.679 5.615-5.532 0-12.875-5.168-14.879-10.472-1.247-3.3-1.138-8.621.245-11.931 1.423-3.407 6.616-8.08 9.743-8.769 1.282-.282 2.715-.641 3.184-.796 1.382-.458 6.654.572 8.96 1.75m160.427-.018c5.121 2.635 7.966 7.66 7.96 14.056-.007 7.696-4.318 13.464-11.508 15.4-11.221 3.022-21.604-6.546-19.769-18.216 1.63-10.368 13.704-16.188 23.317-11.24m159.573.018c2.92 1.492 6.531 5.439 7.626 8.338 2.066 5.466.779 12.005-3.2 16.265-2.806 3.004-8.237 5.615-11.679 5.615-5.532 0-12.875-5.168-14.879-10.472-1.247-3.3-1.138-8.621.245-11.931 1.423-3.407 6.616-8.08 9.743-8.769 1.282-.282 2.715-.641 3.184-.796 1.382-.458 6.654.572 8.96 1.75" fill-rule="evenodd"/></svg>