<svg xmlns="http://www.w3.org/2000/svg" width="512" height="512"><path d="M75.093 81.545c-11.17 2.407-24.045 10.669-31.315 20.095-4.436 5.751-8.175 13.222-10.21 20.401C32.078 127.3 32 133.929 32 256s.078 128.7 1.568 133.959c3.377 11.911 9.962 21.956 19.326 29.477 6.962 5.592 12.879 8.588 21.138 10.7 6.208 1.588 10.418 1.651 110.245 1.651 115.737 0 107.894.394 121.142-6.093 13.034-6.381 23.531-18.834 28.313-33.587 1.795-5.54 1.961-7.829 2.286-31.552.378-27.548.11-29.964-3.845-34.665-7.813-9.284-22.304-6.849-27.066 4.548-1.082 2.589-1.32 7.349-1.32 26.342 0 14.761-.351 24.351-.964 26.399-1.623 5.415-6.643 11.177-12.227 14.033l-5.035 2.575H82.347l-3.917-1.812c-4.719-2.183-9.464-6.76-12.078-11.651l-1.925-3.604V129.28l1.925-3.604c2.614-4.891 7.359-9.468 12.078-11.651l3.917-1.812h203.214l5.035 2.575c5.584 2.856 10.604 8.618 12.227 14.033.614 2.051.964 11.694.964 26.617 0 22.585.067 23.531 1.92 27.158 1.056 2.067 3.395 4.933 5.199 6.368 2.933 2.334 3.892 2.609 9.094 2.609s6.161-.275 9.094-2.609c1.804-1.435 4.164-4.315 5.246-6.4 1.952-3.762 1.964-3.991 1.651-30.244-.295-24.71-.444-26.847-2.256-32.427-3.065-9.439-7.389-16.436-14.507-23.475-7.526-7.443-15.475-11.997-25.348-14.522-6.378-1.631-9.742-1.681-109.91-1.615-85.206.056-104.303.278-108.877 1.264m300.65 81.034c-4.199 2.517-6.811 6.386-7.587 11.24-1.15 7.192-.509 8.022 29.351 38.006l27.816 27.933-119.435.227c-130.882.25-121.59-.122-126.434 5.066-7.584 8.123-4.954 20.82 5.293 25.549 3.266 1.508 8.532 1.577 122.009 1.595l118.596.018-27.831 27.947c-29.875 30-30.515 30.828-29.365 38.021 1.676 10.479 13.479 16.772 22.736 12.122 3.513-1.765 85.657-83.395 87.598-87.05.768-1.447 1.359-4.6 1.359-7.253 0-2.653-.591-5.806-1.359-7.253-1.877-3.536-84.027-85.257-87.408-86.952-4.22-2.115-11.088-1.764-15.339.784" fill-rule="evenodd"/></svg>