<svg xmlns="http://www.w3.org/2000/svg" width="512" height="512"><path d="M75.52 64.725c-3.407 1.108-6.949 3.769-8.999 6.76l-2.094 3.057v123.273l2.609 3.279c7.683 9.654 20.563 9.037 26.625-1.275L96 195.84l.255-38.349.254-38.349 51.799 51.708c50.444 50.356 51.908 51.731 55.98 52.566 2.3.472 4.604.733 5.12.579.516-.153 1.988-.509 3.27-.789 2.597-.569 7.886-4.878 9.355-7.623 1.732-3.236 2.212-7.25 1.363-11.392-.809-3.945-2.608-5.857-52.546-55.883l-51.708-51.799 38.349-.254L195.84 96l3.979-2.339c11.47-6.743 10.689-22.573-1.384-28.057-3.244-1.474-6.944-1.563-62.328-1.5-32.384.036-59.648.316-60.587.621m238.045.867c-12.076 5.527-12.855 21.326-1.384 28.069L316.16 96l38.349.255 38.349.254-51.708 51.799c-49.938 50.026-51.737 51.938-52.546 55.883-.849 4.142-.369 8.156 1.363 11.392 1.469 2.745 6.758 7.054 9.355 7.623 1.282.28 2.754.636 3.27.789.516.154 2.82-.107 5.12-.579 4.072-.835 5.536-2.21 55.98-52.566l51.799-51.708.254 38.349.255 38.349 2.339 3.979c2.844 4.838 6.85 7.458 12.322 8.06 5.132.564 10.469-1.968 14.303-6.785l2.609-3.279V136.09c0-61.038-.019-61.751-1.762-64.085-.969-1.298-3.212-3.534-4.985-4.969l-3.223-2.609-60.295-.207c-57.098-.195-60.477-.123-63.743 1.372M200.96 289.75c-1.408.722-25.485 24.219-53.505 52.217l-50.946 50.905-.254-38.356L96 316.16l-2.124-3.71c-2.928-5.115-8.321-8.197-14.195-8.112-5.279.076-8.868 1.946-12.604 6.567l-2.65 3.279-.252 59.441c-.139 32.693-.019 60.724.266 62.292.693 3.807 6.601 10.124 10.546 11.273 2.081.607 22.686.817 62.961.642l59.868-.259 3.279-2.609c1.803-1.435 4.169-4.315 5.257-6.4 3.688-7.064.986-15.811-6.181-20.012l-3.628-2.125h-38.538c-21.196 0-38.538-.284-38.538-.631 0-.347 23.195-23.867 51.545-52.267 50.196-50.283 51.569-51.745 52.404-55.817.472-2.3.733-4.604.579-5.12-.153-.516-.509-1.988-.789-3.27-.624-2.85-5.008-7.982-8.25-9.659-3.132-1.619-10.761-1.572-13.996.087m96.427-.33c-7.133 3.936-10.36 10.693-8.783 18.389.809 3.944 2.605 5.855 52.384 55.72 28.35 28.4 51.545 51.92 51.545 52.267 0 .347-17.342.631-38.538.631h-38.538l-3.628 2.125c-7.167 4.201-9.869 12.948-6.181 20.012 1.088 2.085 3.454 4.965 5.257 6.4l3.279 2.609 59.868.259c40.275.175 60.88-.035 62.961-.642 3.945-1.149 9.853-7.466 10.546-11.273.285-1.568.405-29.599.266-62.292l-.252-59.441-2.65-3.279c-3.876-4.794-7.37-6.549-13.037-6.549-6.109 0-11.163 2.962-13.948 8.177-1.92 3.594-1.94 3.976-2.193 41.976l-.254 38.349-51.372-51.318c-28.358-28.328-52.449-51.72-53.775-52.216-3.119-1.165-10.774-1.109-12.957.096" fill-rule="evenodd"/></svg>