<svg xmlns="http://www.w3.org/2000/svg" viewBox="0 0 512 512"><path d="M201.387 33.748c-6.803 1.538-17.962 6.781-24.13 11.338-10.478 7.741-18.997 19.774-23.358 32.994-1.932 5.857-2.309 8.725-2.656 20.19l-.403 13.363-36.38.384c-40.421.426-41.164.516-52.593 6.415-8.626 4.453-19.613 15.574-23.785 24.075-5.921 12.067-5.87 11.617-6.283 54.813-.258 27.056-.078 40.405.589 43.52 1.32 6.169 4.473 10.399 9.689 12.998 4.21 2.098 4.846 2.162 21.485 2.162 18.739 0 24.267.861 31.051 4.836 14.875 8.716 22.842 26.272 19.404 42.76-2.866 13.743-12.312 25.384-24.576 30.285-4.036 1.613-6.8 1.864-25.157 2.286l-20.623.473-3.651 2.568c-2.209 1.554-4.511 4.241-5.83 6.805L32 350.251v40.981c0 45.856.025 46.097 6.17 58.475 4.425 8.911 15.212 19.698 24.123 24.123 12.378 6.145 12.619 6.17 58.475 6.17h40.981l4.238-2.18c2.566-1.32 5.25-3.62 6.805-5.832l2.568-3.653.562-17.634c.633-19.855 1.372-23.395 6.54-31.351 8.086-12.445 20.132-19.169 34.251-19.116 16.573.062 30.834 8.534 36.976 21.967 1.68 3.675 1.887 5.884 2.292 24.519.429 19.706.524 20.617 2.516 24.095 2.622 4.577 6.929 7.57 12.66 8.797 3.102.663 16.695.855 43.947.619 38.233-.331 39.641-.402 45.429-2.282 14.743-4.788 27.177-15.264 33.612-28.316 5.633-11.427 6.068-15.345 6.068-54.615V360.96l11.307-.006c20.348-.011 33.193-4.634 46.756-16.828 8.455-7.602 16.024-19.597 19.149-30.349 2.106-7.243 2.961-17.986 2.068-25.967-1.733-15.471-7.891-27.886-19.209-38.724-14.107-13.509-27.77-18.686-49.311-18.686h-10.646l-.316-36.907c-.347-40.579-.248-39.734-6.07-51.84-3.676-7.644-14.974-18.945-23.246-23.253-11.392-5.932-12.028-6.009-52.615-6.402l-36.48-.354v-11.312c0-8.476-.427-13.005-1.702-18.062-5.572-22.105-22.784-40.632-43.951-47.311-7.788-2.457-26.198-3.102-34.56-1.211m25.663 32.081c8.444 2.866 17.091 11.384 20.514 20.209 1.68 4.332 1.931 6.997 2.394 25.322.573 22.723.793 23.686 6.499 28.389 1.679 1.384 4.515 2.955 6.303 3.49 2.244.673 16.308.977 45.392.983l42.141.008 4.267 2.021c5.162 2.444 9.122 6.461 11.453 11.616 1.67 3.693 1.737 5.449 1.755 45.981.013 29.056.321 43.15.993 45.392 1.336 4.458 5.466 9.226 9.632 11.118 2.981 1.354 5.772 1.581 19.687 1.603 8.917.014 18.656.422 21.642.906 14.502 2.353 26.231 14.156 27.839 28.016 2.086 17.968-9.906 34.272-27.687 37.644-2.493.473-12.065.868-21.27.878-18.453.021-21.166.612-25.856 5.634-4.554 4.875-4.504 4.351-4.961 52.374l-.427 44.8-2.346 3.991c-1.29 2.195-3.765 5.16-5.499 6.589-6.046 4.984-7.792 5.207-40.815 5.207h-30.009l-.543-11.321c-.327-6.833-1.225-13.99-2.265-18.054-8.289-32.412-41.481-53.924-77.1-49.971-24.832 2.756-45.912 17.753-57.276 40.748-4.551 9.208-6.515 17.163-7.054 28.571L143.979 448h-30.024c-33.739 0-35.076-.191-41.596-5.929-2.025-1.783-4.638-5.114-5.807-7.403l-2.125-4.161-.253-31.36-.253-31.36h10.997c13.394 0 21.099-1.721 32.175-7.186 18.501-9.128 31.664-25.683 37.7-47.415 1.777-6.395 2.426-22.352 1.198-29.407-4.069-23.361-19.386-43.196-41.165-53.307-9.83-4.563-17.212-6.045-30.114-6.045H64v-29.712c0-34.148.289-36.119 6.244-42.605 1.963-2.139 5.489-4.787 7.836-5.884l4.267-1.996 42.346-.008c46.219-.009 47.077-.091 52.256-4.948 4.977-4.669 5.623-7.515 5.662-24.927.02-8.683.419-18.433.886-21.666 1.957-13.541 12.606-25.053 25.736-27.822 4.381-.924 13.735-.415 17.817.97" fill-rule="evenodd"/></svg>