<svg xmlns="http://www.w3.org/2000/svg" width="512" height="512"><path d="M77.227 64.807c-9.388 2.252-14.729 10.774-12.381 19.755.902 3.45 15.663 18.438 179.908 182.681C440.43 462.916 425.743 448.972 434.755 447.621c2.885-.433 4.955-1.468 7.469-3.737 5.853-5.282 7.301-11.752 4.138-18.497-1.116-2.382-55.468-57.232-179.821-181.469C113.668 91.188 87.895 65.782 85.333 65.295a376.237 376.237 0 0 1-4.266-.835c-.704-.147-2.432.009-3.84.347m157.866 32.18c-18.312 2.18-35.23 5.619-48.213 9.802-9.563 3.081-9.694 2.549 4.014 16.258l12.087 12.087 8.376-1.861c17.053-3.787 25.607-4.705 44.216-4.746 19.973-.044 30.294 1.143 48.098 5.531 32.58 8.031 64.465 24.328 94.409 48.255 11.381 9.094 34.226 31.776 43.541 43.229 8.792 10.811 21.71 28.847 21.727 30.333.006.636-2.925 5.436-6.515 10.667-13.195 19.226-29.007 37.301-46.314 52.939-6.137 5.546-11.159 10.529-11.159 11.074 0 1.432 20.968 22.139 22.036 21.762 2.057-.727 23.21-20.645 31.2-29.378 16.635-18.184 33.903-41.038 39.583-52.388 3.007-6.008 3.181-6.802 3.181-14.507 0-9.801-1.419-13.386-10.393-26.261-52.386-75.157-126.066-123.067-203.123-132.081-9.789-1.145-39.339-1.597-46.751-.715m6.827 64.046c-5.004.685-8.96 2.034-8.96 3.056 0 1.859 114.061 115.243 115.411 114.725 3.241-1.244 4.542-26.758 2.035-39.941-7.5-39.45-38.473-70.405-77.238-77.194-6.573-1.151-24.806-1.528-31.248-.646m-159.633 7.804c-25.5 22.74-59.667 63.809-64.515 77.545-2.369 6.712-1.865 16.598 1.185 23.271 5.446 11.915 27.856 40.704 46.749 60.056 35.205 36.061 71.976 59.833 114.347 73.924 44.815 14.904 92.619 16.272 137.387 3.93 13.261-3.656 15.36-4.458 15.36-5.875 0-1.094-23.064-24.515-24.142-24.515-.296 0-3.721.736-7.612 1.635-16.662 3.851-25.174 4.737-45.473 4.733-21.54-.004-30.533-1.014-48.675-5.465-31.491-7.725-63.813-23.977-91.698-46.107-19.741-15.666-45.908-44.175-61.151-66.621l-6.11-8.999 7.576-10.132c15.837-21.179 35.22-42.393 52.854-57.849l6.396-5.606-10.619-10.741c-5.84-5.907-11.241-10.741-12.002-10.741-.761 0-5.196 3.401-9.857 7.557M162.71 233.6c-1.234 2.092-2.605 14.904-2.535 23.68.269 33.774 18.823 65.331 48.342 82.22 7.428 4.25 19.662 8.788 29.203 10.832 12.778 2.737 39.775 1.476 41.078-1.919.337-.878-17.427-19.199-56.591-58.366-31.395-31.398-57.541-57.087-58.101-57.087-.56 0-1.188.288-1.396.64" fill-rule="evenodd"/></svg>