<svg xmlns="http://www.w3.org/2000/svg" width="512" height="512"><path d="M402.727 24.684c-13.402 4.609-25.563 8.999-27.026 9.755-4.975 2.573-6.045 5.308-13.328 34.072L355.413 96l-66.484.144c-36.566.079-67.774.386-69.351.682-1.578.296-4.261 1.761-5.963 3.256-10.49 9.21-4.837 26.386 9.126 27.727 3.178.306 4.247.756 4.249 1.793.002.762 1.154 11.14 2.56 23.063 1.406 11.924 2.557 22.004 2.557 22.4 0 .397-15.072.727-33.494.734-37.576.015-53.854.857-66.602 3.449-41.689 8.474-71.259 34.393-80.751 70.779-.918 3.52-1.903 8.704-2.188 11.52-1.183 11.673-.915 11.09-5.817 12.652-9.787 3.118-18.611 11.04-23.418 21.025-2.748 5.709-3.105 7.261-3.437 14.934-.312 7.207-.076 9.433 1.493 14.063 1.68 4.955 6.789 13.884 8.577 14.989.386.239-.626 2.638-2.248 5.332-1.622 2.694-3.978 7.97-5.235 11.725-2.067 6.169-2.29 8.058-2.317 19.626-.026 11.188.221 13.553 1.963 18.774 6.962 20.873 22.353 35.068 39.997 36.892l4.444.459.991 4.791c2.789 13.482 9.844 27.469 18.669 37.012 9.137 9.88 18.301 15.69 30.906 19.592l6.253 1.936 140.8.234c96.915.162 142.162-.048 145.169-.672 10.778-2.235 23.642-11.288 29.889-21.031 6.483-10.112 5.449-2.407 24.335-181.399l17.354-164.479 2.931-.001c12.77-.004 20.207-16.553 11.76-26.173-5.034-5.733-3.527-5.586-55.831-5.467-44.656.101-47.179.026-47.158-1.407.023-1.656 8.16-34.341 8.641-34.715.163-.127 9.117-3.201 19.897-6.831 21.121-7.111 23.343-8.111 26.001-11.706 7.908-10.697.329-25.608-12.934-25.443-2.305.028-12.646 3.137-28.02 8.425m42.123 105.663c-.163 1.29-7.777 73.578-16.921 160.64-9.145 87.061-17.02 159.716-17.5 161.455-1.17 4.231-4.693 8.256-8.9 10.167-3.172 1.441-6.384 1.568-39.992 1.586l-36.542.018 2.558-4.48c3.54-6.197 6.77-15.357 9.029-25.6.433-1.966.964-2.348 3.274-2.356 9.03-.034 19.831-5.599 28.263-14.562 10.062-10.696 14.674-21.908 15.609-37.943.699-11.999-1.072-20.544-6.522-31.47l-4.222-8.464 2.516-2.866c7.443-8.477 10.311-22.382 7.157-34.695-3.167-12.361-13.034-22.997-25.527-27.514l-5.13-1.855-.648-7.137c-3.79-41.763-34.096-74.412-79.029-85.142-3.929-.938-7.235-1.819-7.347-1.957-.269-.335-5.584-46.762-5.572-48.679.009-1.413 5.004-1.493 92.875-1.493h92.865l-.294 2.347M252.609 209.1c27.592 3.383 50.09 16.798 60.092 35.832 3.146 5.987 5.768 14.795 6.787 22.801l.571 4.48H80.213v-2.169c0-3.516 2.541-14.784 4.396-19.495 8.18-20.774 30.508-36.641 57.044-40.537l8.534-1.253c5.267-.773 95.794-.472 102.422.341m94.23 95.894c5.212 2.178 6.541 8.744 2.533 12.511l-2.202 2.068-87.185.427-87.185.427-3.84 2.026c-2.112 1.115-8.533 6.652-14.268 12.305l-10.429 10.279-10.745-10.457c-15.418-15.004-12.222-14.062-49.465-14.582-16.896-.236-31.362-.745-32.147-1.133-2.062-1.017-4.052-5.743-3.536-8.398.5-2.571 3.26-5.451 5.817-6.069.938-.228 66.519-.458 145.734-.512 122.426-.084 144.461.082 146.918 1.108m-228.257 60.549c7.339 7.214 14.634 13.784 16.212 14.6 1.578.816 5.029 1.68 7.669 1.919 8.144.739 11.377-1.265 26.528-16.44l13.175-13.195 78.517.003c76.935.003 78.573.037 81.308 1.705 3.151 1.921 7.479 8.247 8.735 12.769 1.291 4.648 1.002 14.713-.561 19.555-1.681 5.204-6.372 10.967-10.246 12.585-2.329.974-25.756 1.169-139.942 1.169-136.822 0-137.153-.004-140.783-1.761-4.094-1.982-8.297-7.594-9.829-13.122-1.462-5.278-1.215-14.784.52-20.003 1.007-3.027 2.892-6.009 5.531-8.747l4.004-4.153h45.819l13.343 13.116m184.915 68.76c-1.031 5.152-6.182 14.141-10.804 18.853-5.737 5.849-12.371 9.12-20.688 10.2-3.415.444-36.611.811-74.032.818-73.937.015-74.055.008-82.989-4.854-2.312-1.258-6.09-4.352-8.396-6.875-3.837-4.198-9.305-14.047-10.405-18.738l-.45-1.92H304l-.503 2.516" fill-rule="evenodd"/></svg>