<svg xmlns="http://www.w3.org/2000/svg" width="512" height="512"><path d="M64 81.436c-11.38 3.172-21.965 12.08-27.321 22.994-2.25 4.586-3.683 8.95-4.236 12.903-1.147 8.197-1.13 269.303.018 277.334 2.352 16.452 15.863 31.65 31.966 35.958 6.328 1.693 376.818 1.693 383.146 0 16.103-4.308 29.614-19.506 31.966-35.958 1.164-8.143 1.164-269.191 0-277.334-2.352-16.452-15.863-31.65-31.966-35.958-6.089-1.629-377.721-1.57-383.573.061m42.106 32.317c5.141 3.37 5.674 5.472 5.674 22.354 0 13.732-.176 15.649-1.665 18.092-2.979 4.885-5.021 5.375-22.393 5.371C64.557 159.565 64 159.014 64 136.107c0-23.188 1.384-24.489 25.639-24.113 11.927.185 14.483.458 16.467 1.759m255.999 0c1.293.847 3.098 2.767 4.013 4.267 1.602 2.629 1.662 4.719 1.665 58.093.004 54.729-.017 55.399-1.785 58.26-3.577 5.787 4.019 5.414-109.998 5.414-114.017 0-106.421.373-109.998-5.414-1.768-2.861-1.789-3.537-1.789-58.089 0-58.893-.089-57.568 4.145-61.4.967-.876 3.022-1.895 4.567-2.266 1.545-.37 48.713-.613 104.819-.539 96.759.127 102.133.214 104.361 1.674m79.825.167c5.339 3.153 6.07 5.806 6.07 22.044 0 23.102-.507 23.603-23.893 23.603-17.542 0-19.838-.599-22.572-5.887-1.824-3.526-1.926-31.422-.129-34.898 3.171-6.131 6.06-6.942 23.981-6.73 11.941.141 14.015.375 16.543 1.868m-337.141 79.279c1.267.659 3.264 2.225 4.438 3.48 2.098 2.243 2.137 2.55 2.398 18.456.252 15.327.169 16.331-1.575 19.154-3.241 5.244-4.918 5.633-23 5.335-15.816-.259-16.129-.3-18.371-2.397-4.339-4.059-4.679-5.622-4.676-21.505.004-16.499.598-18.619 6.176-22.02 2.491-1.519 4.318-1.696 17.543-1.699 11.022-.002 15.347.301 17.067 1.196m337.032.503c5.578 3.401 6.172 5.521 6.176 22.02.003 15.883-.337 17.446-4.676 21.505-2.242 2.097-2.555 2.138-18.371 2.397-18.082.298-19.759-.091-23-5.335-1.744-2.822-1.827-3.827-1.575-19.133.292-17.769.336-17.922 6.238-21.568 2.237-1.382 4.445-1.582 17.494-1.582 13.399 0 15.219.175 17.714 1.696M106.207 273.9c5.247 3.243 5.744 5.37 5.432 23.261l-.279 15.988-3.212 3.212-3.212 3.212-15.988.239c-14.792.221-16.196.11-18.769-1.485-5.586-3.464-6.172-5.556-6.176-22.049-.003-15.7.38-17.548 4.396-21.183 1.101-.996 2.577-2.022 3.281-2.279.704-.257 8.147-.498 16.539-.535 13.779-.061 15.524.096 17.988 1.619m255.912-.067c1.342.884 3.164 2.706 4.048 4.048 1.534 2.326 1.609 5.004 1.611 57.906.002 53.478-.057 55.564-1.66 58.193-.915 1.5-2.721 3.42-4.013 4.267-2.232 1.463-7.538 1.54-106.105 1.54-98.567 0-103.873-.077-106.105-1.54-1.292-.847-3.098-2.767-4.013-4.267-1.603-2.629-1.662-4.715-1.66-58.193.002-52.902.077-55.58 1.611-57.906.884-1.342 2.706-3.164 4.048-4.048 2.356-1.553 5.985-1.608 106.119-1.608s103.763.055 106.119 1.608m81.202.94c4.321 4.041 4.679 5.656 4.678 21.078-.002 16.199-.68 18.735-5.959 22.262-2.889 1.93-3.424 1.979-18.974 1.723l-16.002-.263-3.212-3.212-3.212-3.212-.266-16.251c-.242-14.816-.121-16.479 1.37-18.834 3.556-5.617 4.796-5.922 22.936-5.66 16.123.233 16.393.267 18.641 2.369m-337.428 78.975c5.262 2.721 5.887 5.074 5.887 22.145 0 13.723-.177 15.651-1.662 18.087-3.319 5.443-4.68 5.807-21.76 5.807-13.866 0-15.686-.17-18.288-1.707-5.339-3.153-6.07-5.806-6.07-22.044 0-23.072.532-23.601 23.722-23.606 12.434-.003 16.137.266 18.171 1.318m336.629.288c4.948 3.017 5.649 6.038 5.333 22.983-.261 13.983-.421 15.282-2.18 17.748-3.158 4.429-5.803 5.02-22.461 5.02-16.608 0-18.027-.386-21.332-5.807-1.483-2.432-1.663-4.366-1.665-17.916-.004-16.907.508-19 5.371-21.965 2.45-1.494 4.363-1.666 18.519-1.666 13.943 0 16.093.187 18.415 1.603" fill-rule="evenodd"/></svg>