<svg xmlns="http://www.w3.org/2000/svg" viewBox="0 0 512 512"><path d="M241.493 48.673c-39.799 2.563-78.317 17.074-111.786 42.114-10.589 7.922-31.248 28.596-39.155 39.184-21.846 29.252-35.222 61.365-40.767 97.869-2.061 13.574-2.061 42.746 0 56.32 5.546 36.511 18.94 68.661 40.773 97.869 8.04 10.755 28.658 31.373 39.413 39.413 29.208 21.833 61.358 35.227 97.869 40.773 13.574 2.061 42.746 2.061 56.32 0 36.526-5.548 68.754-18.978 97.869-40.785 10.755-8.056 31.345-28.646 39.401-39.401 21.807-29.115 35.237-61.343 40.785-97.869 2.061-13.574 2.061-42.746 0-56.32-6.752-44.453-25.412-83.157-55.294-114.69-36.541-38.56-84.833-61.088-138.36-64.543-13.196-.852-12.782-.853-27.068.066m42.667 33.635c35.838 6.075 67.575 21.95 93.579 46.81 27.61 26.395 45.561 60.682 52.093 99.5 2.091 12.43 2.073 42.896-.033 55.115-9.878 57.299-44.492 104.256-95.788 129.946-48.421 24.25-107.601 24.25-156.022 0-51.464-25.774-86.214-73.029-95.815-130.297-2.121-12.648-2.121-42.116 0-54.764 10.541-62.873 51.565-113.601 110.675-136.854 13.047-5.132 28.757-8.823 46.938-11.027 6.667-.809 36.585.251 44.373 1.571M139.52 192.719c-15.759 5.181-14.857 27.314 1.255 30.769 6.154 1.32 224.296 1.32 230.45 0 8.189-1.756 13.495-9.15 12.554-17.495-.498-4.419-2.212-7.119-6.953-10.957l-3.224-2.609-116.188-.135c-63.903-.074-116.955.118-117.894.427m29.867 64.894c-4.707 2.172-7.291 5.249-8.579 10.213-1.106 4.262-.711 8.262 1.159 11.757 1.413 2.64 6.688 7.018 9.355 7.765 3.046.852 166.31.852 169.356 0 2.667-.747 7.942-5.125 9.355-7.765 1.87-3.495 2.265-7.495 1.159-11.757-1.288-4.964-3.872-8.041-8.579-10.213-3.244-1.498-7.526-1.576-86.613-1.576s-83.369.078-86.613 1.576m47.503 64.218c-6.79 3.361-10.345 12.288-7.875 19.773 1.472 4.459 6.651 8.743 11.941 9.877 5.963 1.279 64.125 1.279 70.088 0 5.29-1.134 10.469-5.418 11.941-9.877 2.485-7.529-1.11-16.485-7.945-19.794-3.626-1.755-4.809-1.81-39.096-1.809-34.431 0-35.454.048-39.054 1.83" fill-rule="evenodd"/></svg>