<svg xmlns="http://www.w3.org/2000/svg" viewBox="0 0 512 512"><path d="M217.173 81.634c-5.671 2.997-8.96 8.115-8.96 13.945 0 1.917 2.707 12.923 6.014 24.456 3.308 11.532 5.9 21.043 5.76 21.135-.139.091-3.902 1.636-8.36 3.432-24.045 9.686-45.721 23.245-77.359 48.389-7.582 6.026-14.025 10.956-14.318 10.956-.293 0-3.956-2.701-8.14-6.001-20.086-15.845-42.308-26.526-69.099-33.213-20.954-5.231-30.774-5.601-36.32-1.37-3.653 2.786-6.345 8.079-6.372 12.527-.037 6.086 8.16 30.91 15.38 46.574 3.976 8.629 11.285 21.119 16.481 28.169l3.907 5.299-1.994 2.381c-3.769 4.498-11.41 16.898-15.665 25.42C8.58 302.855-.439 329.836.234 337.265c.484 5.345 3.959 10.294 8.911 12.691 3.319 1.607 4.738 1.787 10.558 1.338 9.076-.7 24.366-4.204 38.324-8.783 20.115-6.598 38.164-16.365 55.414-29.985l6.348-5.013 13.54 10.843c30.947 24.785 56.121 40.517 79.151 49.468 3.989 1.551 7.368 2.899 7.507 2.996.14.097-2.452 9.613-5.76 21.145-3.307 11.533-6.014 22.539-6.014 24.456 0 8.344 7.1 15.367 15.531 15.365 4.573-.002 18.276-3.293 28.416-6.825 17.637-6.143 45.658-21.585 64.647-35.625l7.886-5.831 11.094-1.004c56.374-5.1 106.192-27.053 140.84-62.062 23.071-23.311 36.699-49.581 35.112-67.684-1.553-17.726-15.984-42.062-37.391-63.055-15.118-14.827-31.853-26.504-52.261-36.467-26.818-13.093-52.858-20.241-86.727-23.807l-10.667-1.122-10.24-7.384c-26.119-18.834-54.486-32.793-78.506-38.63-9.824-2.388-15.144-2.574-18.774-.656m46.838 45.766c13.416 6.959 25.383 14.501 37.747 23.79 5.476 4.113 11.148 7.843 12.606 8.286 1.457.444 6.489 1.055 11.183 1.356 8.434.543 25.967 2.684 28.736 3.51 1.29.384 1.228.882-.63 5.085-7.844 17.737-13.074 36.106-16.266 57.133-2.173 14.311-2.173 44.569 0 58.88 3.192 21.027 8.422 39.396 16.266 57.133 1.865 4.218 1.924 4.702.624 5.115-2.757.875-19.411 2.973-27.877 3.512-4.693.298-9.956.899-11.695 1.334-1.74.435-7.013 3.67-11.718 7.189-14.164 10.591-28.777 19.769-42.192 26.5-6.984 3.505-12.833 6.237-12.997 6.072-.165-.165 1.613-6.994 3.951-15.176S256 360.978 256 359.434c0-3.595-2.636-8.762-5.85-11.466-1.491-1.254-7.486-3.71-14.757-6.045-27.571-8.853-52.207-23.938-90.753-55.569-16.943-13.904-19.972-15.823-24.994-15.837-4.595-.013-8.623 2.035-14.991 7.624-20.349 17.856-37.511 28.01-58.575 34.654-2.581.814-5.178 1.659-5.77 1.878-1.424.526-1.016-.558 5.029-13.341 6.023-12.738 12.196-22.194 20.244-31.008 6.737-7.379 8.351-11.113 7.437-17.208-.497-3.313-1.686-5.162-7.822-12.168-3.98-4.544-9.406-11.752-12.057-16.018-4.494-7.231-14.105-27.016-13.447-27.68.509-.512 13.869 4.064 21.595 7.396 13.503 5.824 28.223 15.62 43.545 28.978 8.881 7.742 13.493 9.271 20.318 6.738 1.484-.551 9.74-6.732 18.347-13.735 41.089-33.434 64.205-47.659 91.894-56.55 7.271-2.335 13.266-4.791 14.757-6.045 3.214-2.704 5.85-7.871 5.85-11.466 0-1.544-1.92-9.527-4.267-17.739-2.346-8.212-4.266-15.033-4.266-15.157 0-.504 6.778 2.663 16.544 7.73m134.736 50.196c34.933 14.992 62.915 38.992 76.349 65.485 3.525 6.95 4.051 8.667 4.051 13.226 0 4.397-.545 6.331-3.385 12.02-13.302 26.652-42.353 51.748-76.402 66-12.995 5.44-11.444 5.773-15.717-3.381-6.214-13.313-10.948-28.847-13.867-45.511-2.124-12.121-2.124-46.749 0-58.87 1.856-10.594 4.111-19.497 7.519-29.682 2.902-8.674 9.638-23.656 10.636-23.656.348 0 5.215 1.966 10.816 4.369m10.41 48.02c-3.622 1.578-7.901 6.748-8.58 10.366-1.441 7.681 1.978 15.108 8.383 18.208 12.242 5.927 25.044-4.45 22.463-18.208-.697-3.713-5.012-8.833-8.769-10.402-3.471-1.451-10.125-1.433-13.497.036" fill-rule="evenodd"/></svg>