<svg xmlns="http://www.w3.org/2000/svg" width="512" height="512"><path d="M146.468 64.877c-26.259 2.998-52.774 17.106-70.06 37.276-28.167 32.87-35.319 74.774-21.907 128.353l2.27 9.065-6.905.431c-5.505.343-7.623.884-10.448 2.667-9.665 6.101-9.408 20.983.468 27.123 2.938 1.827 4.325 2.019 16.505 2.28l13.298.286 2.348 4.834c21.988 45.265 67.323 93.522 134.043 142.685 16.348 12.046 31.608 22.473 36.693 25.074 4.652 2.378 5.861 2.618 13.227 2.618 7.366 0 8.575-.24 13.227-2.618 7.489-3.83 33.35-22.134 54.613-38.655 42.119-32.726 78.755-69.485 97.276-97.603l3.232-4.906h21.667c16.499 0 22.321-.281 24.412-1.175 6.509-2.785 10.553-10.894 8.969-17.984-.985-4.411-2.431-6.593-6.349-9.585-3.102-2.368-3.344-2.407-16.657-2.675-7.431-.15-13.51-.381-13.51-.514s1.689-4.274 3.754-9.202c11.735-28.01 17.101-54.025 17.037-82.599-.029-12.854-.379-17.401-1.885-24.48-4.878-22.926-15.185-42.437-30.704-58.127-9.923-10.033-17.34-15.416-29.589-21.478-17.614-8.716-28.882-11.385-48.213-11.418-19.033-.033-32.282 2.848-48.4 10.526-13.786 6.567-23.123 13.43-36.72 26.99L256 114.193l-12.16-12.156c-13.41-13.405-23.323-20.644-37.37-27.288-8.623-4.078-19.845-7.643-28.407-9.022-7.933-1.279-24.045-1.712-31.595-.85m26.389 32.447c26.545 4.701 51.471 24.351 69.639 54.898 6.009 10.103 20.999 10.103 27.008 0 18.424-30.978 43.649-50.658 70.477-54.985 9.061-1.462 25.614-.614 33.746 1.728 14.454 4.164 30.097 14.553 39.245 26.065 9.221 11.604 14.23 22.272 17.221 36.677 2.979 14.346 1.545 39.122-3.457 59.733-3.453 14.23-11.992 36.048-18.36 46.915l-2.261 3.858-30.044-.002-30.044-.001-14.744-29.442c-13.479-26.916-15.039-29.637-18.185-31.719-6.647-4.399-15.673-3.359-20.959 2.415-1.008 1.101-8.712 15.777-17.12 32.612l-15.287 30.61-16.462-54.93c-21.514-71.788-20.907-69.931-23.734-72.577-6.088-5.697-14.012-6.513-20.641-2.125-3.214 2.126-4.991 5.363-26.088 47.507l-22.639 45.226H90.557l-2.15-7.046c-5.286-17.332-7.322-29.688-7.908-47.994-.403-12.609-.229-15.638 1.328-23.156 3.011-14.531 8.789-26.496 18.377-38.052 10.807-13.027 29.449-23.643 46.569-26.521 4.461-.75 21.234-.554 26.084.306m49.89 167.636c9.973 33.323 18.655 61.623 19.292 62.889 2.837 5.635 11.6 9.337 17.976 7.594 6.876-1.88 7.741-3.206 26.408-40.47l17.568-35.067 9.498 18.84c5.224 10.362 10.046 19.493 10.716 20.29 3.433 4.087 4.933 4.3 33.538 4.751l27.076.426-6.417 7.602c-26.198 31.03-68.683 67.625-114.942 99.006l-7.46 5.06-7.46-5.06c-4.103-2.784-13.223-9.257-20.267-14.386-58.26-42.423-97.161-81.428-120.697-121.022l-1.902-3.2 27.59-.004c17.237-.003 28.843-.353 30.931-.933 6.825-1.895 7.429-2.798 24.1-36.056 8.67-17.295 15.889-31.311 16.041-31.146.153.165 8.438 27.563 18.411 60.886" fill-rule="evenodd"/></svg>