<svg xmlns="http://www.w3.org/2000/svg" width="512" height="512"><path d="M320.853 33.996c-6.44 2.129-9.679 3.908-16.64 9.142-6.988 5.254-25.048 23.483-29.968 30.249-14.463 19.89-20.261 37.954-23.693 73.813-1.317 13.77-2.318 17.07-7.823 25.794-2.112 3.346-34.937 36.814-102.333 104.339-85.368 85.532-99.646 100.188-102.252 104.96-9.632 17.638-7.399 40.748 5.605 58.015 5.111 6.785 17.938 19.854 25.371 25.847 18.993 15.316 42.049 18.037 61.44 7.252 3.589-1.996 28.085-25.948 104.107-101.794 68.805-68.647 100.953-100.152 104.414-102.328 8.005-5.033 12.765-6.504 25.292-7.813 43.893-4.586 64.617-13.189 88.967-36.93 17.329-16.897 23.174-25.612 25.881-38.598 1.034-4.956 1.108-7.37.371-12.115-1.913-12.334.289-9.787-65.24-75.443-56.683-56.793-60.103-60.054-65.765-62.72-5.35-2.519-6.864-2.834-14.507-3.017-6.397-.154-9.708.183-13.227 1.347m70.639 86.552c30.638 30.616 55.919 56.495 56.18 57.51.824 3.198-2.712 9.322-9.371 16.227l-6.436 6.675-60.413-60.412-60.412-60.413 6.531-6.298c7.699-7.425 12.016-10.015 15.656-9.392 2.003.343 14.68 12.55 58.265 56.103m13.181 99.697c-1.13 1.015-14.172 4.933-20.673 6.211-3.52.692-10.24 1.689-14.933 2.215-19.399 2.174-23.246 2.777-28.053 4.397-6.425 2.164-15.742 6.85-22.294 11.213-3.255 2.167-41.341 39.546-104.533 102.592-92.712 92.496-99.682 99.254-103.393 100.245-9.765 2.607-17.393-1.085-31.483-15.238-10.562-10.61-13.983-15.938-14.991-23.347-1.23-9.033-7.058-2.635 101.627-111.573C267.258 195.414 268.742 193.84 275 181.333c4.04-8.076 6.387-17.387 7.419-29.44 1.698-19.843 4.192-33.17 7.769-41.514l1.736-4.05 56.685 56.68c31.176 31.173 56.405 56.93 56.064 57.236m-185.907 48.024c-10.705 3.476-16.239 14.44-12.923 25.605 1.372 4.619 7.664 10.911 12.283 12.283 4.981 1.479 10.428 1.262 14.476-.576 10.303-4.679 14.957-17.11 10.05-26.844-4.42-8.766-14.934-13.374-23.886-10.468" fill-rule="evenodd"/></svg>