<svg xmlns="http://www.w3.org/2000/svg" viewBox="0 0 512 512"><path d="M376.249 17.512c-31.744 7.708-60.13 47.892-75.035 106.221-9.232 36.13-9.84 68.94-1.715 92.531 7.142 20.737 23.105 36.027 45.441 43.525 26.47 8.885 53.889 6.813 72.65-5.493 6.872-4.506 17.051-14.828 21.532-21.833 19.547-30.557 29.723-91.937 22.451-135.409-2.978-17.799-10.18-36.725-18.818-49.45-4.441-6.542-13.65-15.76-19.928-19.947-14.55-9.705-32.388-13.59-46.578-10.145m22.046 33.008c9.473 3.503 17.114 11.751 23.593 25.468 10.865 23.004 12.865 54.321 5.937 92.972-5.619 31.345-15.694 51.837-29.037 59.059-7.58 4.102-13.138 5.188-24.098 4.709-25.913-1.134-41.15-11.777-46.7-32.621-1.317-4.95-1.575-8.898-1.503-23.04.095-18.52 1.332-27.835 6.295-47.417 10.347-40.826 32.788-76.739 50.648-81.054 3.576-.864 9.345-.117 14.865 1.924m-282.788 62.511c-7.714 1.42-11.399 2.62-17.8 5.8-42.27 20.998-59.413 81.76-44.237 156.796 10.138 50.12 30.563 76.984 63.903 84.046 7.751 1.642 24.601 1.634 34.195-.017 34.38-5.915 55.331-24.465 63.439-56.169 6.719-26.27 2.365-68.184-11.049-106.367-13.913-39.603-34.23-68.076-56.8-79.604-8.783-4.486-21.696-6.316-31.651-4.485m17.506 33.334c6.022 2.803 15.582 12.41 21.714 21.82 19.774 30.344 32.504 76.067 31.059 111.555-.692 16.982-3.816 26.658-11.288 34.969-9.223 10.259-31.432 16.653-48.083 13.845-19.842-3.347-30.853-17.009-38.964-48.346-4.274-16.512-6.414-32.325-6.971-51.515-.733-25.248 2.266-41.923 10.571-58.783 9.986-20.271 27.675-30.196 41.962-23.545m167.893 125.033c-15.164 3.821-24.874 16.332-27.926 35.981-1.408 9.061-.496 28.494 1.718 36.634 6.567 24.135 22.307 43.617 41.562 51.441 12.615 5.126 25.025 5.811 39.28 2.169 31.546-8.06 56.62-40.371 56.62-72.963 0-20.234-9.407-32.444-30.642-39.771-2.624-.906-12.067-3.147-20.985-4.981-8.917-1.834-21.397-4.546-27.733-6.026-12.411-2.901-26.031-3.961-31.894-2.484m24.641 33.727c5.162 1.196 16.735 3.685 25.716 5.53 28.732 5.901 30.376 6.975 28.601 18.686-2.209 14.569-11.899 27.83-25.312 34.638-6.455 3.276-6.929 3.381-15.274 3.38-7.66 0-9.083-.249-12.88-2.253-10.785-5.694-19.083-19.238-21.639-35.323-.905-5.697.003-20.724 1.481-24.503.84-2.149 1.297-2.346 5.419-2.339 2.475.004 8.725.987 13.888 2.184M179.2 369.941c-6.805 1.591-17.557 3.896-23.893 5.122-15.9 3.076-24.287 5.258-30.294 7.882-17.081 7.463-25.173 19.326-25.173 36.904 0 20.314 8.017 38.857 23.424 54.178 9.079 9.028 17.716 14.452 29.483 18.513 7.676 2.649 8.74 2.796 20.053 2.775 10.661-.021 12.681-.27 18.773-2.314 21.965-7.37 38.402-26.501 45.868-53.385 1.536-5.529 1.826-8.942 1.864-21.909.039-13.496-.19-16.171-1.885-22.036-3.368-11.656-7.614-18.167-15.077-23.12-9.963-6.613-22.719-7.384-43.143-2.61m26.388 30.896c1.589 3.487 2.53 18.525 1.59 25.403-1.616 11.819-8.833 25.815-16.215 31.446-10.039 7.657-22.699 8.241-35.14 1.621-5.625-2.993-15.673-13.056-18.683-18.71-2.576-4.841-5.727-16.036-5.727-20.352 0-6.331 4.442-8.542 25.6-12.745 6.336-1.258 17.088-3.573 23.894-5.143 14.903-3.439 15.698-3.587 20.129-3.734 3.026-.101 3.631.193 4.552 2.214" fill-rule="evenodd"/></svg>