<svg xmlns="http://www.w3.org/2000/svg" width="512" height="512"><path d="M40.731 48.672c-9.295 1.563-17.053 7.393-21.282 15.991-2.547 5.178-2.809 6.43-2.808 13.404 0 6.528.338 8.404 2.23 12.386 1.616 3.402 25.749 32.062 87.66 104.107l85.43 99.413.024 61.44c.015 38.415.345 62.596.881 64.524 1.216 4.379 5.008 9.694 8.966 12.571 2.413 1.753 16.207 6.724 47.702 17.19 40.577 13.484 44.682 14.685 48.757 14.264 7.808-.805 14.797-5.535 18.766-12.699l2.516-4.543.252-76.373.252-76.374 85.411-99.413c61.89-72.036 86.025-100.706 87.641-104.107 1.892-3.982 2.23-5.859 2.23-12.386.001-6.974-.261-8.226-2.808-13.404-4.389-8.924-11.892-14.383-22.053-16.047-6.124-1.003-423.796-.949-429.767.056M460.248 81.28c-.359.587-36.714 43.078-80.788 94.425-44.074 51.347-81.778 95.376-83.787 97.842-2.009 2.466-4.557 6.727-5.663 9.469L288 288l-.25 70.187c-.138 38.602-.522 70.186-.854 70.186-.331 0-14.506-4.634-31.498-10.298l-30.896-10.299-.251-59.888L224 288l-2.01-4.984c-1.106-2.742-3.779-7.158-5.94-9.814-2.161-2.656-39.866-46.685-83.789-97.842S52.108 81.867 51.75 81.28c-.52-.852 40.551-1.067 204.25-1.067 163.7 0 204.769.215 204.248 1.067" fill-rule="evenodd"/></svg>