<svg xmlns="http://www.w3.org/2000/svg" width="512" height="512"><path d="M280.747 17.898c-4.046 2.179-70.499 68.946-71.633 71.971-1.156 3.082-1.156 9.18 0 12.262 1.148 3.064 68.549 70.653 72.169 72.37 5.523 2.621 14.457.902 18.347-3.53 4.177-4.758 5.391-12.423 2.793-17.627-.75-1.502-10.059-11.467-20.686-22.144l-19.323-19.413 31.14.017c17.126.009 33.827.401 37.113.87 12.566 1.797 26.198 11.384 32.196 22.643 5.122 9.614 4.925 4.928 4.914 116.382l-.009 102.008-6.252 2.343c-15.948 5.975-30.547 20.02-36.796 35.4-7.696 18.939-5.728 41.824 5.043 58.663 8.881 13.883 23.899 24.623 39.534 28.274 7.449 1.738 21.957 1.738 29.406 0 15.635-3.651 30.653-14.391 39.534-28.274 10.771-16.839 12.739-39.724 5.043-58.663-6.243-15.365-20.826-29.403-36.773-35.4l-6.23-2.343-.256-104.534-.256-104.533-1.871-6.599c-4.501-15.881-9.674-24.725-21.094-36.068-11.507-11.427-24.944-18.308-40.77-20.876-3-.487-20.401-.874-39.49-.877l-34.126-.007L281.737 60.8c10.627-10.677 19.936-20.642 20.686-22.144 2.708-5.423 1.02-14.361-3.452-18.286-4.928-4.326-12.801-5.394-18.224-2.472M112.922 33.753C98.017 37.022 82.57 48.121 73.763 61.887c-10.771 16.839-12.739 39.724-5.043 58.663 6.249 15.38 20.848 29.425 36.796 35.4l6.252 2.343v195.414l-6.252 2.343c-15.948 5.975-30.547 20.02-36.796 35.4-7.696 18.939-5.728 41.824 5.043 58.663 8.881 13.883 23.899 24.623 39.534 28.274 7.449 1.738 21.957 1.738 29.406 0 15.635-3.651 30.653-14.391 39.534-28.274 10.771-16.839 12.739-39.724 5.043-58.663-6.249-15.38-20.848-29.425-36.796-35.4l-6.252-2.343V158.293l6.252-2.343c15.948-5.975 30.547-20.02 36.796-35.4 7.696-18.939 5.728-41.824-5.043-58.663-9.008-14.081-24.34-24.943-39.799-28.195-7.349-1.546-22.333-1.515-29.516.061m22.417 31.374c22.271 4.669 31.847 32.558 17.437 50.787-3.729 4.718-9.867 9.074-14.912 10.585-4.456 1.334-15.272 1.334-19.728 0-8.333-2.495-16.627-10.579-19.941-19.436-2.392-6.395-2.392-15.731 0-22.126 3.629-9.699 12.591-17.731 22.06-19.769 6.249-1.346 8.827-1.353 15.084-.041m0 320c6.483 1.359 13.176 5.568 17.448 10.973 11.543 14.602 8.101 36.406-7.365 46.65-5.452 3.611-9.729 4.786-17.422 4.786-7.693 0-11.97-1.175-17.422-4.786-19.086-12.642-18.872-41.292.401-53.659 4.365-2.801 11.297-4.891 16.594-5.002 1.408-.029 4.903.438 7.766 1.038m256 0c6.483 1.359 13.176 5.568 17.448 10.973 11.543 14.602 8.101 36.406-7.365 46.65-5.452 3.611-9.729 4.786-17.422 4.786-7.693 0-11.97-1.175-17.422-4.786-19.086-12.642-18.872-41.292.401-53.659 4.365-2.801 11.297-4.891 16.594-5.002 1.408-.029 4.903.438 7.766 1.038" fill-rule="evenodd"/></svg>