<svg xmlns="http://www.w3.org/2000/svg" width="512" height="512"><path d="M112.922 33.753C98.017 37.022 82.57 48.121 73.763 61.887c-12.958 20.257-12.958 47.969 0 68.226 4.205 6.573 10.769 13.429 17.381 18.154 5.327 3.808 17.256 9.569 19.854 9.589 1.03.008 1.785 2.24 3.223 9.528 2.27 11.505 5.091 20.203 9.507 29.309 17.294 35.667 52.571 61.376 98.241 71.595 5.454 1.22 11.087 2.219 12.517 2.219 5.697 0 5.302-3.151 5.291 42.118l-.009 41.082-6.252 2.343c-15.948 5.975-30.547 20.02-36.796 35.4-7.696 18.939-5.728 41.824 5.043 58.663 8.881 13.883 23.899 24.623 39.534 28.274 7.449 1.738 21.957 1.738 29.406 0 15.635-3.651 30.653-14.391 39.534-28.274 10.771-16.839 12.739-39.724 5.043-58.663-6.249-15.38-20.848-29.425-36.796-35.4l-6.252-2.343-.009-41.082c-.011-45.269-.406-42.118 5.291-42.118 1.43 0 7.063-.999 12.517-2.219 45.67-10.219 80.947-35.928 98.241-71.595 4.416-9.106 7.237-17.804 9.507-29.309 1.438-7.288 2.193-9.52 3.223-9.528 2.598-.02 14.527-5.781 19.854-9.589C438.122 135.927 448 116.907 448 96c0-20.841-9.884-39.931-27.011-52.173-11.053-7.899-22.411-11.4-36.989-11.4-18.731 0-34.101 6.532-46.652 19.827-20.311 21.514-23.137 54.406-6.789 78.997 7.082 10.654 18.524 19.882 30.453 24.562l5.946 2.333-.521 3.06c-4.732 27.759-24.159 51.591-53.621 65.78-46.178 22.24-103.537 14.958-140.387-17.822-13.632-12.126-23.874-30.409-26.866-47.958l-.521-3.06 5.946-2.333c15.839-6.214 30.131-20.101 36.292-35.263 7.696-18.939 5.728-41.824-5.043-58.663-9.008-14.081-24.34-24.943-39.799-28.195-7.349-1.546-22.333-1.515-29.516.061m22.417 31.374c22.271 4.669 31.847 32.558 17.437 50.787-3.729 4.718-9.867 9.074-14.912 10.585-4.456 1.334-15.272 1.334-19.728 0-8.333-2.495-16.627-10.579-19.941-19.436-2.392-6.395-2.392-15.731 0-22.126 3.629-9.699 12.591-17.731 22.06-19.769 6.249-1.346 8.827-1.353 15.084-.041m256 0c22.271 4.669 31.847 32.558 17.437 50.787-3.729 4.718-9.867 9.074-14.912 10.585-4.456 1.334-15.272 1.334-19.728 0-5.045-1.511-11.183-5.867-14.912-10.585-11.701-14.802-8.08-36.662 7.755-46.823 4.365-2.801 11.297-4.891 16.594-5.002 1.408-.029 4.903.438 7.766 1.038m-128 320c6.483 1.359 13.176 5.568 17.448 10.973 11.543 14.602 8.101 36.406-7.365 46.65-5.452 3.611-9.729 4.786-17.422 4.786-7.693 0-11.97-1.175-17.422-4.786-19.086-12.642-18.872-41.292.401-53.659 4.365-2.801 11.297-4.891 16.594-5.002 1.408-.029 4.903.438 7.766 1.038" fill-rule="evenodd"/></svg>