<svg xmlns="http://www.w3.org/2000/svg" width="512" height="512"><path d="M145.228 33.732c-19.896 4.319-39.229 21.749-45.64 41.145-4.553 13.777-4.555 28.463-.006 42.227 5.575 16.87 21.873 33.402 38.514 39.067l6.117 2.083v195.609l-3.626 1.086c-17.755 5.316-35.162 22.269-40.999 39.928-9.563 28.934 1.197 59.141 26.975 75.727 14.931 9.606 36.191 11.879 54.505 5.826 17.25-5.701 33.653-22.089 39.344-39.307 9.064-27.426.064-55.732-23.292-73.25-3.357-2.517-15.979-8.886-17.611-8.886-1.969 0-2.058-1.578-.343-6.09 2.583-6.8 6.732-12.376 12.407-16.677 11.795-8.939 23.619-12.978 63.338-21.635 37.414-8.156 52.206-12.722 66.796-20.622 24.751-13.401 39.465-33.762 44.616-61.738l1.037-5.633 7.253-2.739c22.246-8.4 38.188-28.964 40.874-52.725 2.203-19.482-4.549-38.661-18.354-52.143-13.296-12.984-26.801-18.529-45.133-18.529-18.332 0-31.837 5.545-45.133 18.529-17.32 16.914-23.176 42.244-15.285 66.119 5.316 16.086 21.152 32.713 36.464 38.288 2.849 1.038 5.533 2.198 5.963 2.579 1.235 1.093-1.035 9.862-4.391 16.962-4.571 9.671-13.261 17.91-24.987 23.69-13.615 6.711-23.993 9.767-57.164 16.83-37.853 8.06-55.532 13.878-68.907 22.677l-2.773 1.824v-145.7l6.117-2.083c16.632-5.662 32.939-22.197 38.508-39.048 4.553-13.777 4.555-28.463.006-42.227-6.485-19.622-25.807-36.915-46.036-41.2-7.257-1.538-21.99-1.52-29.154.036m27.973 33.319c6.359 2.899 12.979 9.576 15.923 16.06 2.023 4.457 2.365 6.318 2.365 12.889s-.342 8.432-2.365 12.889c-2.99 6.583-9.557 13.14-16.324 16.296-4.415 2.059-6.178 2.388-12.8 2.388-6.622 0-8.385-.329-12.8-2.388-6.767-3.156-13.334-9.713-16.324-16.296-2.02-4.45-2.366-6.328-2.372-12.889-.007-6.588.327-8.408 2.346-12.8 4.136-8.994 13.135-16.438 22.2-18.364 5.692-1.21 14.845-.203 20.151 2.215m192 64c6.359 2.899 12.979 9.576 15.923 16.06 2.023 4.457 2.365 6.318 2.365 12.889s-.342 8.432-2.365 12.889c-2.99 6.583-9.557 13.14-16.324 16.296-4.415 2.059-6.178 2.388-12.8 2.388-6.622 0-8.385-.329-12.8-2.388-6.767-3.156-13.334-9.713-16.324-16.296-2.02-4.45-2.366-6.328-2.372-12.889-.007-6.588.327-8.408 2.346-12.8 4.136-8.994 13.135-16.438 22.2-18.364 5.692-1.21 14.845-.203 20.151 2.215m-192 256c6.359 2.899 12.979 9.576 15.923 16.06 2.023 4.457 2.365 6.318 2.365 12.889s-.342 8.432-2.365 12.889c-2.99 6.583-9.557 13.14-16.324 16.296-4.415 2.059-6.178 2.388-12.8 2.388-6.622 0-8.385-.329-12.8-2.388-6.767-3.156-13.334-9.713-16.324-16.296-2.02-4.45-2.366-6.328-2.372-12.889-.007-6.588.327-8.408 2.346-12.8 4.136-8.994 13.135-16.438 22.2-18.364 5.692-1.21 14.845-.203 20.151 2.215" fill-rule="evenodd"/></svg>