<svg xmlns="http://www.w3.org/2000/svg" width="512" height="512"><path d="M248.32 32.097c-25.616 2.011-38.762 4.133-55.169 8.905-27.075 7.874-55.978 23.079-78.643 41.371-22.439 18.11-43.36 43.753-56.938 69.791-18.875 36.193-27.527 76.344-25.12 116.567 3.341 55.824 25.886 106.101 65.216 145.431 81.162 81.161 209.446 88.116 298.858 16.202 76.574-61.59 103.962-166.627 67.269-257.991-28.012-69.747-90.408-121.404-164.273-135.998-14.799-2.924-40.788-5.095-51.2-4.278m-8.84 111.854c-.504.505-15.366-1.363-25.293-3.178-12.426-2.272-29.102-6.89-29.604-8.198-.569-1.484 9.024-19.276 16.031-29.733 9.902-14.776 22.821-27.156 34.575-33.129l4.171-2.121.222 38.018c.122 20.909.076 38.163-.102 38.341m47.316-67.89c7.799 5.672 17.592 16.338 24.59 26.781 7.007 10.457 16.6 28.249 16.031 29.733-.451 1.175-16.428 5.75-27.47 7.864-5.768 1.105-24.908 3.774-27.061 3.774-.37 0-.673-17.286-.673-38.414V67.385l4.375 2.217c2.406 1.219 7 4.126 10.208 6.459M170.543 90.086c-2.823 4.491-7.644 13.035-10.714 18.986-3.069 5.952-5.707 10.961-5.861 11.133-.327.364-10.917-5.287-16.864-9.001l-4.122-2.574 5.402-4.26c8.149-6.425 17.567-12.538 27.336-17.743 4.833-2.575 9.05-4.687 9.371-4.694.321-.007-1.726 3.662-4.548 8.153m175.63-3.494c9.76 5.166 19.217 11.292 27.443 17.778l5.402 4.26-4.122 2.574c-5.947 3.714-16.537 9.365-16.864 9.001-.154-.172-2.792-5.181-5.861-11.133-3.07-5.951-7.891-14.495-10.714-18.986-2.822-4.491-4.902-8.166-4.622-8.166.281 0 4.483 2.102 9.338 4.672m-230.015 49.195c5.768 3.874 24.452 14.4 25.561 14.4 1.166 0 1.025.876-1.748 10.894-5.736 20.723-9.707 43.599-11.328 65.266l-1.006 13.44H96.245c-28.381 0-31.392-.133-31.392-1.384 0-3.502 2.869-20.396 4.836-28.483 6.135-25.214 19.08-51.795 35.171-72.218 2.636-3.346 5.177-5.871 5.647-5.611.469.26 3.012 1.923 5.651 3.696m300.489 15.253c10.99 16.548 20.891 39.265 25.664 58.88 1.967 8.087 4.836 24.981 4.836 28.483 0 1.251-3.011 1.384-31.392 1.384h-31.392l-1.006-13.44c-1.621-21.667-5.592-44.543-11.328-65.266-2.773-10.018-2.914-10.894-1.748-10.894 1.187 0 19.74-10.517 26.213-14.86l5.682-3.811 4.26 5.282c2.343 2.905 6.938 9.314 10.211 14.242M180.48 165.586c14.626 4.562 37.12 8.893 51.393 9.896l7.914.557v63.748H159.38l.486-3.627c.268-1.995.721-6.699 1.007-10.453 1.155-15.173 5.22-38.417 9.521-54.441 1.834-6.833 2.493-8.261 3.605-7.818.749.298 3.665 1.26 6.481 2.138m161.137 5.721c4.29 15.984 8.356 39.243 9.51 54.4.286 3.754.739 8.458 1.007 10.453l.486 3.627H272.213v-63.748l7.914-.557c15.007-1.055 40.735-6.173 53.526-10.648 2.582-.904 4.927-1.689 5.212-1.745.285-.056 1.523 3.642 2.752 8.218M128.643 285.653c1.631 21.791 5.541 44.25 11.446 65.735 1.455 5.296 2.499 9.743 2.318 9.884-.18.141-4.089 2.264-8.688 4.717-4.598 2.454-11.862 6.711-16.142 9.46l-7.782 4.998-4.246-5.263c-16.002-19.839-29.689-47.741-35.86-73.104-1.967-8.087-4.836-24.981-4.836-28.483 0-1.251 3.011-1.384 31.392-1.384h31.392l1.006 13.44m111.144 18.56v32h-3.37c-12.419 0-51.079 7.63-62.418 12.319-1.116.461-1.764-.941-3.605-7.798-4.301-16.024-8.366-39.268-9.521-54.441-.286-3.754-.739-8.458-1.007-10.453l-.486-3.627H239.787v32m112.347-28.373c-.268 1.995-.721 6.699-1.007 10.453-1.155 15.173-5.22 38.417-9.521 54.441-1.841 6.857-2.489 8.259-3.605 7.798-11.339-4.689-49.999-12.319-62.418-12.319h-3.37v-64H352.62l-.486 3.627m95.013-2.243c0 3.502-2.869 20.396-4.836 28.483-6.171 25.363-19.858 53.265-35.86 73.104l-4.246 5.263-7.782-4.998c-4.28-2.749-11.544-7.006-16.142-9.46-4.599-2.453-8.518-4.586-8.71-4.738-.192-.153 1.034-5.369 2.725-11.591 5.914-21.767 9.417-42.034 11.061-64.007l1.006-13.44h31.392c28.381 0 31.392.133 31.392 1.384m-207.36 132.604v38.414l-4.48-2.25c-11.715-5.883-24.732-18.343-34.693-33.207-7.005-10.454-16.6-28.249-16.031-29.732 1.01-2.633 33.232-9.499 54.137-11.535.839-.082 1.067 8.092 1.067 38.31m43.093-37.084c13.639 1.254 43.736 8.22 44.537 10.309.569 1.483-9.026 19.278-16.031 29.732-9.961 14.864-22.978 27.324-34.693 33.207l-4.48 2.25v-76.964l2.347.459c1.291.252 5.035.705 8.32 1.007m-123.057 33.811c3.073 5.951 7.897 14.495 10.72 18.986 2.822 4.491 4.956 8.166 4.74 8.166-.874 0-13.085-6.433-19.099-10.062-7.944-4.794-22.211-15.264-22.211-16.301 0-1.249 18.458-12.3 19.731-11.813.293.111 3.046 5.072 6.119 11.024m206.633-6.95c4.252 2.363 8.691 5.06 9.864 5.993l2.133 1.695-2.986 2.586c-5.388 4.666-20.072 14.275-29.182 19.097-4.917 2.602-9.165 4.731-9.442 4.731-.276 0 1.949-3.919 4.946-8.71 2.996-4.79 7.854-13.43 10.795-19.2 2.942-5.769 5.527-10.49 5.745-10.49.218 0 3.875 1.934 8.127 4.298" fill-rule="evenodd"/></svg>