<svg xmlns="http://www.w3.org/2000/svg" width="512" height="512"><path d="M249.6 17.428c-3.623 1.624-6.341 4.45-8.185 8.509-1.532 3.374-1.592 8.881-1.61 149.108l-.018 145.605-8.32.6c-17.886 1.29-42.412 6.335-61.174 12.584-45.066 15.008-82.14 42.464-102.911 76.211-9.423 15.31-17.421 36.854-19.19 51.693-1.657 13.896 7.561 28.023 21.293 32.636 3.862 1.297 19.119 1.413 186.515 1.413s182.653-.116 186.515-1.413c11.195-3.761 18.756-12.72 21.024-24.914.79-4.248.704-6.454-.489-12.524-10.939-55.676-55.927-101.316-121.343-123.102-18.764-6.249-43.288-11.294-61.179-12.584l-8.326-.6.219-59.285.219-59.284 83.839-38.107c54.908-24.957 84.733-38.952 86.431-40.556 3.157-2.982 5.09-7.369 5.09-11.555 0-4.181-3.206-10.308-6.559-12.534-1.495-.993-42.971-20.1-92.168-42.46-95.676-43.485-93.007-42.429-99.673-39.441m83.2 67.041c32.149 14.626 58.752 26.881 59.116 27.234.365.353-26.419 12.955-59.52 28.004l-60.183 27.363v-55.04c0-43.699.22-54.948 1.067-54.596.587.244 27.371 12.409 59.52 27.035m-92.846 294.198c.255 25.798.293 26.294 2.254 29.447 2.794 4.495 8.489 7.656 13.792 7.656 5.303 0 10.998-3.161 13.792-7.656 1.961-3.154 1.999-3.648 2.254-29.477l.259-26.271 2.727.416c1.501.229 5.224.644 8.275.923 23.728 2.166 52.413 10.386 74.311 21.296 34.748 17.313 58.067 41.445 69.304 71.719 1.924 5.185 4.865 15.446 4.865 16.977 0 .284-79.104.516-175.787.516s-175.787-.232-175.787-.516c0-1.531 2.941-11.792 4.865-16.977 5.207-14.027 13.584-27.556 24.181-39.054 26.397-28.638 72.505-49.235 121.568-54.307 3.754-.388 7.286-.756 7.847-.819.768-.085 1.086 6.392 1.28 26.127" fill-rule="evenodd"/></svg>