<svg xmlns="http://www.w3.org/2000/svg" width="512" height="512"><path d="M57.6 33.614c-13.537 4.329-23.42 16.152-25.229 30.179-1.043 8.088-.97 137.419.082 144.847.48 3.389 1.953 8.243 3.406 11.218 3.355 6.872 11.681 14.755 18.484 17.499l4.964 2.003 75.041.227c83.155.252 79.862.449 88.729-5.306 7.666-4.975 12.981-11.972 15.39-20.259 1.19-4.093 1.321-13.389 1.12-79.674l-.227-75.041-2.003-4.964c-2.812-6.97-10.606-15.112-17.907-18.706l-5.653-2.784-76.392-.165c-60.061-.13-77.121.068-79.805.926m239.604.041c-9.145 2.882-19.038 11.961-22.572 20.715l-1.992 4.937-.227 75.041c-.201 66.285-.07 75.581 1.12 79.674 2.409 8.287 7.724 15.284 15.39 20.259 8.867 5.755 5.574 5.558 88.729 5.306l75.041-.227 4.964-2.003c6.803-2.744 15.129-10.627 18.484-17.499 1.453-2.975 2.926-7.829 3.406-11.218 1.052-7.428 1.125-136.759.082-144.847-1.565-12.133-9.455-23.004-20.536-28.292l-5.546-2.648-76.374-.165c-61.468-.133-77.075.056-79.969.967m-90.319 32.242c1.175 1.678 1.328 9.762 1.328 70.21 0 60.448-.153 68.532-1.328 70.21l-1.328 1.896h-69.218c-63.211 0-69.353-.122-70.778-1.412C64.073 205.455 64 202.14 64 136.035c0-61.91.144-69.497 1.341-70.694C66.538 64.144 74.132 64 136.119 64h69.438l1.328 1.897m239.774-.556c1.197 1.197 1.341 8.77 1.341 70.546 0 63.199-.123 69.341-1.412 70.766-1.346 1.487-4.662 1.56-70.779 1.56h-69.366l-1.328-1.896c-1.175-1.678-1.328-9.762-1.328-70.21 0-60.448.153-68.532 1.328-70.21L306.443 64h69.438c61.987 0 69.581.144 70.778 1.341M57.941 273.53c-6.206 1.93-11.275 5.152-16.058 10.209-5.372 5.68-8.273 11.733-9.416 19.647-1.065 7.37-1.151 136.641-.096 144.821 2.109 16.357 15.065 29.313 31.422 31.422 8.088 1.043 137.419.97 144.847-.082 3.389-.48 8.243-1.953 11.218-3.406 6.872-3.355 14.755-11.681 17.499-18.484l2.003-4.964.227-75.041c.252-83.096.447-79.812-5.274-88.729-3.785-5.899-9.004-10.407-15.754-13.605l-5.652-2.678-75.52-.165c-63.433-.139-76.149.03-79.446 1.055m241.362-.39c-8.186 1.929-16.731 8.168-21.616 15.783-5.721 8.917-5.526 5.633-5.274 88.729l.227 75.041 2.003 4.964c2.744 6.803 10.627 15.129 17.499 18.484 2.975 1.453 7.829 2.926 11.218 3.406 7.428 1.052 136.759 1.125 144.847.082 16.357-2.109 29.313-15.065 31.422-31.422 1.055-8.18.969-137.451-.096-144.821-.472-3.27-1.788-7.975-2.923-10.455-2.501-5.463-9.535-13.099-14.749-16.014-8.667-4.844-6.193-4.711-85.909-4.618-40.395.047-74.887.426-76.649.841m-92.796 32.353c1.678 1.679 1.706 2.845 1.706 70.21 0 60.62-.153 68.722-1.328 70.4L205.557 448h-69.438c-61.987 0-69.581-.144-70.778-1.341-1.197-1.197-1.341-8.791-1.341-70.778v-69.438l1.897-1.328c1.678-1.175 9.78-1.328 70.4-1.328 67.365 0 68.531.028 70.21 1.706m239.596-.378 1.897 1.328v69.438c0 61.987-.144 69.581-1.341 70.778-1.197 1.197-8.791 1.341-70.778 1.341h-69.438l-1.328-1.897c-1.175-1.678-1.328-9.78-1.328-70.4 0-67.365.028-68.531 1.706-70.21 1.679-1.678 2.845-1.706 70.21-1.706 60.62 0 68.722.153 70.4 1.328" fill-rule="evenodd"/></svg>