<svg xmlns="http://www.w3.org/2000/svg" width="512" height="512"><path d="M169.387 33.42c-2.795 1.542-6.46 5.232-7.912 7.967-.937 1.763-1.476 5.655-1.733 12.502l-.373 9.943-21.445.372c-19.701.342-22 .541-28.281 2.457-20.304 6.193-36.425 22.257-43.143 42.992-1.76 5.433-1.969 8.001-2.301 28.374l-.365 22.4H53.635c-7.238 0-10.894.359-12.591 1.236-3.242 1.677-7.626 6.809-8.25 9.659-.28 1.282-.652 2.796-.826 3.365-.613 2.007 1.96 9.732 3.969 11.914 3.839 4.169 7.926 5.36 18.463 5.38L64 192v47.581l-10.453.363c-9.562.332-10.762.559-14.063 2.662-9.729 6.199-9.51 21.024.402 27.186 2.812 1.749 4.496 2.032 13.661 2.296l10.453.301V320l-9.6.019c-10.537.02-14.624 1.211-18.463 5.38-2.009 2.182-4.582 9.907-3.969 11.914.174.569.546 2.083.826 3.365.641 2.925 5.024 7.983 8.506 9.815 1.848.972 5.649 1.505 12.591 1.765l9.943.373.367 21.871c.332 19.809.549 22.434 2.3 27.845 6.692 20.671 22.481 36.46 43.152 43.152 5.411 1.751 8.036 1.968 27.845 2.3l21.871.367.373 9.943c.26 6.942.793 10.743 1.765 12.591 1.832 3.482 6.89 7.865 9.815 8.506 1.282.28 2.796.652 3.365.826 2.007.613 9.732-1.96 11.914-3.969 4.169-3.839 5.36-7.926 5.38-18.463L192 448H239.611l.301 10.453c.264 9.165.547 10.849 2.296 13.661 6.232 10.024 21.352 10.024 27.584 0 1.749-2.812 2.032-4.496 2.296-13.661l.301-10.453H320l.019 9.6c.02 10.537 1.211 14.624 5.38 18.463 2.182 2.009 9.907 4.582 11.914 3.969.569-.174 2.083-.546 3.365-.826 2.925-.641 7.983-5.024 9.815-8.506.972-1.848 1.505-5.649 1.765-12.591l.373-9.943 21.871-.367c19.809-.332 22.434-.549 27.845-2.3 20.671-6.692 36.46-22.481 43.152-43.152 1.751-5.411 1.968-8.036 2.3-27.845l.367-21.871 9.943-.373c6.942-.26 10.743-.793 12.591-1.765 3.482-1.832 7.865-6.89 8.506-9.815.28-1.282.652-2.796.826-3.365.613-2.007-1.96-9.732-3.969-11.914-3.839-4.169-7.926-5.36-18.463-5.38L448 320V272.389l10.453-.301c9.165-.264 10.849-.547 13.661-2.296 10.248-6.371 10.055-21.52-.35-27.442-3.241-1.844-4.979-2.151-13.737-2.427L448 239.607V192l9.6-.019c10.537-.02 14.624-1.211 18.463-5.38 2.009-2.182 4.582-9.907 3.969-11.914-.174-.569-.546-2.083-.826-3.365-.624-2.85-5.008-7.982-8.25-9.659-1.697-.877-5.353-1.236-12.591-1.236h-10.199l-.365-22.4c-.332-20.373-.541-22.941-2.301-28.374-6.718-20.735-22.839-36.799-43.143-42.992-6.281-1.916-8.58-2.115-28.281-2.457l-21.445-.372-.373-9.943c-.417-11.106-1.274-13.582-6.203-17.91-3.686-3.236-5.947-3.874-11.953-3.376-5.653.468-10.166 3.612-12.469 8.685-1.251 2.753-1.6 5.587-1.614 13.112L320 64H272.389l-.301-10.453c-.264-9.165-.547-10.849-2.296-13.661-6.157-9.903-21.427-9.903-27.584 0-1.749 2.812-2.032 4.496-2.296 13.661L239.611 64H192v-9.414c0-12.759-1.807-17.019-8.713-20.543-3.534-1.804-11.142-2.145-13.9-.623m227.84 65.522c5.927 2.903 12.467 9.336 15.426 15.176l2.494 4.922v273.92l-2.468 4.871c-4.996 9.858-13.846 16.249-24.611 17.77-6.926.979-257.21.979-264.136 0-10.765-1.521-19.615-7.912-24.611-17.77l-2.468-4.871V119.04l2.1-4.267c3.705-7.53 11.091-14.279 18.713-17.098 2.528-.935 27.48-1.11 139.187-.98l136.107.158 4.267 2.089M153.05 128.877c-8.942 1.795-18.009 9.268-22.234 18.323l-2.389 5.12v207.36l2.388 5.12c3.134 6.72 9.706 13.32 16.296 16.366l5.209 2.407h207.36l5.12-2.388c6.72-3.134 13.32-9.706 16.366-16.296l2.407-5.209V152.32l-2.407-5.209c-3.046-6.59-9.646-13.162-16.366-16.296l-5.12-2.388-101.547-.13c-55.85-.072-103.138.189-105.083.58m198.523 127.55v96H160.427v-192h191.146v96" fill-rule="evenodd"/></svg>