<svg xmlns="http://www.w3.org/2000/svg" width="512" height="512"><path d="M241.493 48.673c-39.799 2.563-78.317 17.074-111.786 42.114-10.589 7.922-31.248 28.596-39.155 39.184-21.846 29.252-35.222 61.365-40.767 97.869-2.061 13.574-2.061 42.746 0 56.32 5.546 36.511 18.94 68.661 40.773 97.869 8.04 10.755 28.658 31.373 39.413 39.413 29.208 21.833 61.358 35.227 97.869 40.773 13.574 2.061 42.746 2.061 56.32 0 36.526-5.548 68.754-18.978 97.869-40.785 10.755-8.056 31.345-28.646 39.401-39.401 21.807-29.115 35.237-61.343 40.785-97.869 2.061-13.574 2.061-42.746 0-56.32-6.752-44.453-25.412-83.157-55.294-114.69-36.541-38.56-84.833-61.088-138.36-64.543-13.196-.852-12.782-.853-27.068.066m42.667 33.635c35.838 6.075 67.575 21.95 93.579 46.81 27.61 26.395 45.561 60.682 52.093 99.5 2.091 12.43 2.073 42.896-.033 55.115-9.878 57.299-44.492 104.256-95.788 129.946-48.421 24.25-107.601 24.25-156.022 0-51.464-25.774-86.214-73.029-95.815-130.297-2.121-12.648-2.121-42.116 0-54.764 10.541-62.873 51.565-113.601 110.675-136.854 13.047-5.132 28.757-8.823 46.938-11.027 6.667-.809 36.585.251 44.373 1.571m-130.133 79.307c-5.428 2.378-9.804 8.895-9.804 14.598 0 6.875-2.486 4.205 91.581 98.367 60.837 60.899 90.86 90.377 93.212 91.52 9.127 4.436 19.338-.101 22.173-9.853 1.105-3.799 1.103-4.814-.014-8.546-1.19-3.973-6.832-9.795-91.528-94.445-63.826-63.791-91.189-90.594-93.433-91.52-3.844-1.587-8.732-1.635-12.187-.121m49.237 7.516c-.563.563-1.024 1.868-1.024 2.9 0 1.35 17.392 19.145 62.08 63.519 34.144 33.903 62.918 62.193 63.943 62.867 2.845 1.87 4.633.396 10.836-8.932 7.521-11.31 11.95-20.227 15.518-31.238 9.99-30.835 5.975-56.288-11.652-73.867-10.2-10.174-21.613-15.292-35.726-16.021-10.087-.522-18.176 1.062-26.93 5.272-5.93 2.852-16.761 10.728-20.388 14.826-2.762 3.121-5.106 2.302-13.083-4.569-8.589-7.398-18.421-12.647-27.16-14.498-7.197-1.525-15.025-1.648-16.414-.259m-50.308 52.015c-2.143 2.142-.829 18.233 2.531 31.014 8.717 33.147 32.75 62.593 78.184 95.792 20.792 15.193 22.73 15.392 39.041 4.02 6.141-4.282 8.035-6.059 8.035-7.54 0-1.429-16.037-17.954-61.032-62.892-62.629-62.549-63.666-63.487-66.759-60.394" fill-rule="evenodd"/></svg>