<svg xmlns="http://www.w3.org/2000/svg" width="512" height="512"><path d="M49.92 48.187c-.469.167-1.88.529-3.134.805C41.375 50.18 35.877 57.744 35.877 64c0 1.643.721 4.523 1.602 6.4 1.107 2.361 58.207 60.345 185.292 188.16 101.03 101.611 184.965 185.666 186.522 186.79 6.241 4.505 16.326 2.734 21.258-3.732 2.876-3.771 3.864-11.519 2.032-15.941-1.198-2.893-368.151-372.634-372.492-375.323-2.419-1.498-8.445-2.782-10.171-2.167m108.8 32.524c-12.305 2.193-17.158 3.227-17.464 3.721-.2.323 5.664 6.589 13.031 13.924l13.393 13.336 8.831.953c11.922 1.286 21.793 4.294 32.716 9.969 15.645 8.127 28.851 20.333 38.908 35.96 8.797 13.668 11.329 16.185 17.058 16.954 4.972.666 9.117-.315 12.166-2.881 1.45-1.22 5.439-6.485 8.864-11.699 18.824-28.658 42.606-45.098 69.877-48.304 23.712-2.787 48.261 6.249 64.901 23.889 6.982 7.401 9.947 11.759 14.648 21.526 6.603 13.722 7.592 18.816 7.583 39.061-.006 14.268-.353 19.398-1.878 27.822-6.336 34.99-21.591 66.556-48.043 99.413l-6.597 8.195 11.341 11.318 11.341 11.318 6.416-7.708c26.37-31.684 44.317-64.993 53.037-98.436 9.132-35.027 9.569-65.987 1.287-91.33-5.607-17.157-14.653-31.675-28.086-45.072-21.385-21.328-47.808-32.417-77.25-32.417-34.9 0-67.725 16.332-93.336 46.44l-3.581 4.209-2.649-3.356c-5.143-6.513-19.236-19.639-27.2-25.332-13.494-9.647-28.757-16.456-44.754-19.962-5.745-1.259-30.018-2.321-34.56-1.511m-90.275 70.017c-1.557 2.946-5.192 15.4-6.723 23.033-1.829 9.122-2.018 32.776-.366 45.972 3.435 27.441 13 56.563 26.651 81.143 27.844 50.139 75.651 97.605 151.353 150.275 13.295 9.25 16.388 10.884 23.299 12.312 6.238 1.288 13.335.186 19.74-3.066 7.461-3.787 55.429-38.489 55.489-40.143.018-.476-4.915-5.801-10.962-11.835l-10.993-10.969-10.127 7.639c-16.364 12.345-37.298 26.768-38.295 26.386-1.841-.707-21.697-14.775-37.921-26.867-58.696-43.749-95.821-84.032-117.296-127.275-11.069-22.287-17.11-42.893-19.348-65.994-.911-9.409-.653-27.302.495-34.272.386-2.341-.631-3.648-11.867-15.246-10.783-11.131-12.391-12.49-13.129-11.093" fill-rule="evenodd"/></svg>