<svg xmlns="http://www.w3.org/2000/svg" width="512" height="512"><path d="M231.253 33.392c-16.355 1.665-38.573 7.009-54.742 13.167-20.215 7.699-44.67 21.825-62.003 35.814-22.439 18.11-43.36 43.753-56.938 69.791-15.058 28.874-23.154 58.252-25.123 91.16-5.222 87.26 42.038 170.597 119.717 211.106 79.252 41.329 174.746 31.925 244.36-24.066 76.574-61.59 103.962-166.627 67.269-257.991-28.024-69.778-90.412-121.426-164.273-135.994-5.867-1.158-14.861-2.52-19.988-3.028-10.737-1.065-37.645-1.042-48.279.041m49.37 32.249c2.983.448 5.645 1.036 5.915 1.306.486.486-4.914 95.302-5.464 95.947-.157.184-2.695-.2-5.64-.853-7.191-1.595-31.677-1.595-38.868 0-2.945.653-5.485 1.037-5.644.853-.32-.369-5.695-89.153-5.662-93.522.023-3.125.261-3.209 12.82-4.512 8.471-.879 34.696-.397 42.543.781m-87.68 9.666c.049.117 1.536 23.253 3.304 51.413l3.215 51.2-5.213 4.693c-4.814 4.335-9.222 8.867-14.302 14.703l-2.027 2.329-51.2-3.102c-28.16-1.705-51.369-3.242-51.575-3.415-1.503-1.258 11.973-29.634 19.583-41.235 18.148-27.665 42.895-50.373 71.245-65.378 12.087-6.398 26.478-12.378 26.97-11.208m135.221 2.82c35.832 14.445 67.262 40.464 89.108 73.766 7.61 11.601 21.086 39.977 19.583 41.235-.206.173-23.415 1.71-51.575 3.415l-51.2 3.102-2.027-2.329c-5.08-5.836-9.488-10.368-14.302-14.703l-5.213-4.693 3.215-51.2c1.768-28.16 3.255-51.296 3.304-51.413.241-.573 2.185.03 9.107 2.82m-53.807 116.62c20.12 5.884 36.76 22.491 42.981 42.896 1.77 5.805 2.084 8.576 2.084 18.357 0 9.781-.314 12.552-2.084 18.357-6.252 20.507-22.533 36.71-43.418 43.212-9.259 2.882-26.581 2.882-35.84 0-20.885-6.502-37.166-22.705-43.418-43.212-1.77-5.805-2.084-8.576-2.084-18.357 0-9.781.314-12.552 2.084-18.357 7.06-23.158 26.581-40.421 50.641-44.782 7.113-1.289 21.358-.365 29.054 1.886m-157.024 33.189c24.875 1.483 45.344 2.793 45.486 2.91.142.118-.373 3.587-1.146 7.71-1.81 9.662-1.81 25.226 0 34.888.773 4.123 1.288 7.612 1.146 7.754-.142.142-20.227 1.439-44.632 2.883-24.406 1.445-45.963 2.808-47.906 3.03-4.296.491-4.071 1.204-5.562-17.671-.838-10.618-.844-16.262-.026-26.88 1.315-17.085 1.367-17.275 4.74-17.3 1.47-.012 23.026 1.193 47.9 2.676m328.424-.736c.283 1.056.981 7.968 1.55 15.36.818 10.618.812 16.262-.026 26.88-1.491 18.875-1.266 18.162-5.562 17.671-1.943-.222-23.5-1.585-47.906-3.03-24.405-1.444-44.49-2.741-44.632-2.883-.142-.142.373-3.631 1.146-7.754 1.81-9.662 1.81-25.226 0-34.888-.773-4.123-1.288-7.596-1.146-7.718.405-.348 82.254-5.329 89.546-5.45 6.077-.101 6.549.021 7.03 1.812m-262.773 90.88c2.729 3.168 7.606 8.039 10.838 10.825 5.308 4.576 5.837 5.318 5.473 7.68-.222 1.438-1.659 24.242-3.195 50.674-1.536 26.433-3.058 48.489-3.382 49.014-1.311 2.12-28.459-10.693-42.556-20.085-27.33-18.208-50.421-44.076-65.032-72.854-5.657-11.143-10.5-23.156-9.668-23.987.332-.332 23.137-2.001 50.677-3.708 27.541-1.708 50.482-3.153 50.979-3.212.498-.059 3.138 2.485 5.866 5.653m204.275-2.18c26.433 1.536 48.48 3.052 48.993 3.369 1.193.738-3.005 11.505-9.382 24.065-14.817 29.183-37.7 54.695-65.566 73.096-14.704 9.711-40.687 22.002-42.005 19.87-.333-.54-1.863-22.608-3.399-49.041-1.536-26.432-2.973-49.236-3.195-50.674-.364-2.362.165-3.104 5.473-7.68 3.232-2.786 8.112-7.66 10.844-10.832 4.475-5.195 5.226-5.728 7.573-5.366 1.433.22 24.232 1.657 50.664 3.193m-148.752 34.441c9.103 1.77 25.436 1.766 34.908-.009 4.139-.775 7.619-1.293 7.734-1.151.116.142 1.488 21.696 3.05 47.897 2.279 38.229 2.625 47.77 1.754 48.309C284.214 446.461 266.575 448 256 448c-10.6 0-28.216-1.54-29.962-2.619-.884-.546-.564-9.615 1.663-47.029 1.517-25.494 2.744-47.024 2.728-47.845-.035-1.809-.339-1.803 8.078-.166" fill-rule="evenodd"/></svg>