<svg xmlns="http://www.w3.org/2000/svg" width="512" height="512"><path d="M239.36 17.474c-17.763 3.112-31.708 9.126-46.222 19.934-21.134 15.739-36.374 41.404-39.834 67.084l-1.029 7.638-7.231 1.446c-25.928 5.187-48.191 22.801-58.024 45.908-5.373 12.626-6.386 17.986-6.31 33.369.063 12.777.284 14.789 2.395 21.73 8.544 28.091 30.153 49.268 56.232 55.104l4.785 1.071.259 25.688.259 25.687 3.126 6.546c3.706 7.761 10.851 15.295 17.878 18.85 4.007 2.027 6.937 2.829 16.614 4.544 1.472.261 6.509 11.413 29.345 64.974 15.162 35.563 28.671 66.772 30.019 69.353 3.495 6.687 7.141 8.96 14.378 8.96 6.923 0 10.834-2.27 13.965-8.107 1.134-2.112 22.488-51.531 47.454-109.821l45.393-105.981 4.694-.975c21.053-4.37 39.155-16.615 51.048-34.529 5.051-7.609 8.001-14.135 10.871-24.051 1.635-5.649 1.93-8.692 1.93-19.896s-.295-14.247-1.93-19.896c-9.033-31.205-31.607-52.354-62.473-58.528l-7.234-1.448-.962-7.21c-4.731-35.458-29.761-67.35-63.696-81.161-16.666-6.782-38.676-9.264-55.7-6.283m31.573 32.16c20.377 3.425 40.631 19.549 50.297 40.042 4.4 9.329 5.652 15.132 6.35 29.424.722 14.815 1.805 17.951 7.615 22.055 3.355 2.37 4.101 2.519 15.71 3.116 12.976.668 17.466 1.817 25.619 6.553 9.123 5.3 18.003 16.433 21.223 26.608 2.475 7.822 2.475 21.314 0 29.136-4.261 13.463-16.351 26.04-29.534 30.721-7.279 2.585-19.839 3.177-26.472 1.249-11.081-3.222-19.766-9.859-26.768-20.459-5.961-9.023-11.83-11.99-19.585-9.902-4.646 1.251-8.025 4.251-11.367 10.093-10.749 18.787-30.381 22.748-52.728 10.64-6.226-3.374-8.067-3.963-13.448-4.309-10.657-.684-19.141 4.287-23.402 13.712-1.992 4.406-2.022 4.898-2.443 40.3-.235 19.712-.761 36.527-1.17 37.365-.814 1.67-4.822 4.022-6.854 4.022-2.637 0-5.589-2.032-6.868-4.727-1.115-2.349-1.321-7.46-1.321-32.68 0-19.048-.33-30.767-.908-32.297-1.121-2.967-4.709-6.84-7.865-8.488-1.305-.681-6.322-1.586-11.149-2.01-5.051-.444-10.831-1.539-13.615-2.581-13.746-5.143-24.731-17.37-28.438-31.653-2.034-7.835-1.826-20.929.447-28.132 3.207-10.166 12.09-21.305 21.217-26.608 8.153-4.736 12.643-5.885 25.619-6.553 11.609-.597 12.355-.746 15.71-3.116 5.81-4.104 6.893-7.24 7.615-22.055.698-14.292 1.95-20.095 6.35-29.424 8.841-18.743 25.636-33.259 44.991-38.885 9.666-2.81 22.769-3.241 35.172-1.157m37.571 207.845c3.496 2.676 14.306 8.557 18.499 10.064l2.309.83-36.443 85.102c-20.043 46.806-36.634 85.101-36.869 85.1-.235-.001-9.916-22.285-21.513-49.52L213.4 339.538l3.086-4.295c1.697-2.363 4.06-6.854 5.252-9.982 2.136-5.605 2.172-6.107 2.505-34.488.186-15.84.627-28.8.981-28.8.353 0 2.867.766 5.587 1.702 13.082 4.5 29.315 5.361 40.976 2.171 7.384-2.02 16.356-6.559 22.671-11.468l5.489-4.267 2.56 2.369c1.408 1.303 4.106 3.553 5.997 4.999" fill-rule="evenodd"/></svg>