<svg xmlns="http://www.w3.org/2000/svg" width="512" height="512"><path d="M233.813 48.66c-26.285 1.798-49.634 8.13-73.813 20.017C99.199 98.57 58.819 155.109 49.372 223.573c-1.64 11.889-1.399 39.962.448 52.054 12.469 81.654 69.912 145.84 148.58 166.024 15.07 3.866 26.401 5.461 43.093 6.067 105.215 3.814 195.505-75.842 205.705-181.478 1.229-12.725.604-34.891-1.346-47.787-13.278-87.796-83.617-157.044-171.079-168.425-12.843-1.671-28.755-2.203-40.96-1.368m41.814 33.647c73.375 12.381 129.892 71.524 139.051 145.511 1.318 10.643 1.096 32.658-.44 43.668-12.135 87.006-90.241 150.27-177.817 144.028-59.342-4.23-111.57-38.925-138.193-91.8-11.618-23.075-16.792-43.444-17.741-69.847-1.706-47.451 15.407-91.062 48.862-124.518 26.9-26.899 61.341-43.627 99.344-48.249 9.294-1.131 37.357-.409 46.934 1.207m-32.188 48.319c-10.987 1.467-20.09 11.423-21.318 23.315-.993 9.622 4.593 19.924 13.465 24.832 4.183 2.314 5.365 2.56 12.307 2.554 6.319-.005 8.319-.346 11.283-1.925 15.643-8.332 19.625-27.582 8.308-40.168-6.385-7.102-14.247-9.916-24.045-8.608M213.7 205.562c-10.056 4.567-12.684 16.937-5.368 25.27 3.449 3.928 9.049 5.541 19.236 5.541h7.952v87.894h-32.093l-3.884 2.463c-10.383 6.585-9.702 22.021 1.203 27.3 3.674 1.778 4.578 1.81 51.284 1.81 52.421 0 50.911.146 55.777-5.396 2.349-2.676 4.503-7.646 4.503-10.391 0-2.744-2.154-7.714-4.503-10.39-4.352-4.956-6.313-5.396-24.046-5.396h-15.814v-53.705c0-35.87-.302-54.502-.908-56.106-1.29-3.416-4.933-7.052-8.906-8.892-2.995-1.386-5.711-1.58-22.186-1.58-16.441 0-19.205.196-22.247 1.578" fill-rule="evenodd"/></svg>