<svg xmlns="http://www.w3.org/2000/svg" width="512" height="512"><path d="M128.853 33.743c-3.05.649-9.194 3.002-13.653 5.229-6.842 3.418-9.376 5.32-16.244 12.192-6.612 6.616-8.814 9.502-11.745 15.396-1.984 3.989-4.371 10.291-5.303 14.003-1.662 6.621-1.695 9.974-1.695 175.437 0 165.463.033 168.816 1.695 175.437.932 3.712 3.319 10.014 5.303 14.003 2.922 5.874 5.155 8.808 11.745 15.428 6.819 6.85 9.408 8.809 15.978 12.09C130.02 480.492 120.164 480 256 480s125.98.492 141.066-7.042c6.57-3.281 9.159-5.24 15.978-12.09 6.59-6.62 8.823-9.554 11.745-15.428 1.984-3.989 4.371-10.291 5.303-14.003 1.662-6.621 1.695-9.974 1.695-175.437 0-165.463-.033-168.816-1.695-175.437-.932-3.712-3.319-10.014-5.303-14.003-2.931-5.894-5.133-8.78-11.745-15.396-6.874-6.878-9.396-8.77-16.244-12.186-13.902-6.934-5.038-6.528-141.227-6.469-99.774.044-122.153.262-126.72 1.234m161.28 222.275v192.017l-77.013-.231-77.013-.231-4.88-2.287c-10.073-4.721-17.074-14.009-18.62-24.705-1.035-7.157-1.044-321.941-.01-329.094 1.857-12.84 11.189-23.316 23.41-26.282 3.295-.8 22.735-1.078 79.246-1.132l74.88-.073v192.018m85.459-190.857c12.598 2.965 21.924 13.276 23.811 26.326.444 3.069.776 73.487.776 164.513 0 91.026-.332 161.444-.776 164.513-1.529 10.574-8.045 19.463-17.783 24.261-5.553 2.736-5.978 2.806-18.718 3.089l-13.035.29V64l10.453.013c5.749.008 12.622.524 15.272 1.148" fill-rule="evenodd"/></svg>