<svg xmlns="http://www.w3.org/2000/svg" width="512" height="512"><path d="M318.408 33.737c-38.67 6.037-72.568 27.41-93.726 59.096-7.797 11.676-14.81 27.24-18.154 40.287-3.658 14.276-4.506 23.252-4.031 42.667.246 10.09.825 19.784 1.284 21.54l.837 3.194-12.901 15.153C146.714 268.535 65.555 362.927 54.115 375.713c-16.167 18.069-18.7 21.497-20.551 27.808-4.494 15.325 1.22 31.621 16.352 46.63 16.179 16.048 33.805 28.279 42.989 29.831 2.232.377 5.072.115 8.008-.738 4.195-1.22 5.817-2.606 20.802-17.777 14.539-14.718 16.456-16.994 18.178-21.574 2.464-6.553 3.039-15.95 1.528-24.96-1.359-8.098-1.976-7.635 7.551-5.665 10.29 2.128 20.653 1.397 27.668-1.952 10.644-5.082 22.146-16.882 25.913-26.584 2.381-6.134 2.625-12.633.702-18.705-.929-2.934-1.526-5.334-1.325-5.334.2 0 2.752.81 5.67 1.799 12.996 4.406 25.994.595 37.968-11.131 14.532-14.231 17.065-24.818 9.698-40.539-1.951-4.164-3.436-7.683-3.298-7.821.137-.137 3.884.684 8.327 1.824 13.375 3.434 21.223 2.457 30.635-3.812 2.081-1.386 4.111-2.317 4.512-2.07.401.248 4.074 1.343 8.163 2.433 31.541 8.413 66.585 5.317 97.035-8.573 26.886-12.265 51.995-36.353 65.237-62.584 5.804-11.498 10.837-27.704 12.861-41.415 1.375-9.31 1.194-28.3-.361-37.844-6.789-41.69-32.908-77.903-70.525-97.781-22.543-11.912-42.932-16.843-68.86-16.655-7.395.054-16.658.6-20.584 1.213m33.839 31.168c24.324 2.657 46.063 12.606 63.859 29.226 14.661 13.692 25.409 32.824 29.812 53.069 2.033 9.351 2.04 29.851.012 39.253-5.818 26.977-20.767 49.093-43.709 64.664-29.22 19.832-67.67 24.488-100.421 12.16-9.694-3.648-13.504-3.017-23.78 3.94-2.673 1.809-5.361 3.289-5.973 3.287-.613-.001-5.667-1.153-11.231-2.56-11.336-2.865-16.404-3.157-21.958-1.265-5.334 1.817-12.7 7.875-16.454 13.53-6.252 9.42-6.166 17.657.338 32.488 3.966 9.042 3.901 9.549-1.746 13.716-2.664 1.965-2.897 1.993-5.858.711-12.288-5.32-16.64-6.442-23.565-6.075-7.997.425-11.962 2.154-17.393 7.585-9.311 9.311-10.542 19.477-4.254 35.139l2.671 6.652-1.932 2.057c-1.063 1.131-3.438 3.1-5.278 4.375l-3.345 2.319-8.275-1.595c-11.279-2.174-19.749-2.055-25.977.367-7.136 2.773-13.346 8.805-16.814 16.329-2.769 6.006-2.809 6.267-2.287 14.772.292 4.762.753 10.962 1.024 13.778l.494 5.12-8.561 8.481-8.561 8.482-3.175-2.259c-5.992-4.263-18.493-15.56-21.742-19.647-1.788-2.25-3.498-5.406-3.799-7.013-.528-2.813-.064-3.469 12.184-17.244 16.138-18.15 49.759-57.167 103.519-120.134 55.545-65.056 56.258-65.909 57.199-68.384 1.161-3.054 1-7.184-.502-12.854-1.81-6.832-2.874-26.931-2.023-38.228 2.342-31.123 18.521-58.928 44.652-76.74 20.878-14.231 46.481-20.382 72.849-17.502m2.836 32.87c-14.269 3.838-27.058 15.7-32.235 29.901-2.868 7.867-3.546 19.043-1.644 27.107 4.09 17.345 18.668 31.923 36.013 36.013 8.064 1.902 19.24 1.224 27.107-1.644 14.025-5.113 25.097-16.802 29.636-31.285 2.235-7.129 2.421-18.774.424-26.45-4.101-15.76-17.894-29.488-33.909-33.751-5.84-1.554-19.424-1.496-25.392.109m17.048 30.795c1.773.355 4.368 2.088 6.864 4.584 3.251 3.251 4.129 4.781 4.619 8.048 1.568 10.455-5.722 18.743-16.344 18.582-4.413-.066-7.85-1.811-11.291-5.729-3.236-3.686-3.874-5.947-3.376-11.953.803-9.687 9.303-15.577 19.528-13.532" fill-rule="evenodd"/></svg>