<svg xmlns="http://www.w3.org/2000/svg" width="512" height="512"><path d="M115.741 17.567c-7.674 1.858-14.834 6.104-21.452 12.722C84.558 40.019 80.213 50.426 80.213 64c0 13.574 4.345 23.981 14.076 33.711 9.73 9.731 20.137 14.076 33.711 14.076 13.574 0 23.981-4.345 33.711-14.076 9.731-9.73 14.076-20.137 14.076-33.711 0-13.574-4.345-23.981-14.076-33.711-6.76-6.76-13.779-10.861-21.844-12.762-6.742-1.589-17.468-1.571-24.126.04m128 0c-7.674 1.858-14.834 6.104-21.452 12.722-9.731 9.73-14.076 20.137-14.076 33.711 0 13.574 4.345 23.981 14.076 33.711 9.73 9.731 20.137 14.076 33.711 14.076 13.574 0 23.981-4.345 33.711-14.076 9.731-9.73 14.076-20.137 14.076-33.711 0-13.574-4.345-23.981-14.076-33.711-6.76-6.76-13.779-10.861-21.844-12.762-6.742-1.589-17.468-1.571-24.126.04m128 0c-7.674 1.858-14.834 6.104-21.452 12.722-9.731 9.73-14.076 20.137-14.076 33.711 0 13.574 4.345 23.981 14.076 33.711 9.73 9.731 20.137 14.076 33.711 14.076 13.574 0 23.981-4.345 33.711-14.076 9.731-9.73 14.076-20.137 14.076-33.711 0-13.574-4.345-23.981-14.076-33.711-6.76-6.76-13.779-10.861-21.844-12.762-6.742-1.589-17.468-1.571-24.126.04M135.68 49.94c5.121 2.635 7.966 7.66 7.96 14.056-.007 7.696-4.318 13.464-11.508 15.4-11.221 3.022-21.604-6.546-19.769-18.216 1.63-10.368 13.704-16.188 23.317-11.24m128 0c5.121 2.635 7.966 7.66 7.96 14.056-.007 7.696-4.318 13.464-11.508 15.4-11.221 3.022-21.604-6.546-19.769-18.216 1.63-10.368 13.704-16.188 23.317-11.24m128 0c5.121 2.635 7.966 7.66 7.96 14.056-.007 7.696-4.318 13.464-11.508 15.4-11.221 3.022-21.604-6.546-19.769-18.216 1.63-10.368 13.704-16.188 23.317-11.24m-275.939 95.627c-7.674 1.858-14.834 6.104-21.452 12.722-9.731 9.73-14.076 20.137-14.076 33.711 0 13.574 4.345 23.981 14.076 33.711 9.73 9.731 20.137 14.076 33.711 14.076 13.574 0 23.981-4.345 33.711-14.076 9.731-9.73 14.076-20.137 14.076-33.711 0-13.574-4.345-23.981-14.076-33.711-6.76-6.76-13.779-10.861-21.844-12.762-6.742-1.589-17.468-1.571-24.126.04m128 0c-7.674 1.858-14.834 6.104-21.452 12.722-9.731 9.73-14.076 20.137-14.076 33.711 0 13.574 4.345 23.981 14.076 33.711 9.73 9.731 20.137 14.076 33.711 14.076 13.574 0 23.981-4.345 33.711-14.076 9.731-9.73 14.076-20.137 14.076-33.711 0-13.574-4.345-23.981-14.076-33.711-6.76-6.76-13.779-10.861-21.844-12.762-6.742-1.589-17.468-1.571-24.126.04m128 0c-7.674 1.858-14.834 6.104-21.452 12.722-9.731 9.73-14.076 20.137-14.076 33.711 0 13.574 4.345 23.981 14.076 33.711 9.73 9.731 20.137 14.076 33.711 14.076 13.574 0 23.981-4.345 33.711-14.076 9.731-9.73 14.076-20.137 14.076-33.711 0-13.574-4.345-23.981-14.076-33.711-6.76-6.76-13.779-10.861-21.844-12.762-6.742-1.589-17.468-1.571-24.126.04M135.68 177.94c5.121 2.635 7.966 7.66 7.96 14.056-.007 7.696-4.318 13.464-11.508 15.4-11.221 3.022-21.604-6.546-19.769-18.216 1.63-10.368 13.704-16.188 23.317-11.24m128 0c5.121 2.635 7.966 7.66 7.96 14.056-.007 7.696-4.318 13.464-11.508 15.4-11.221 3.022-21.604-6.546-19.769-18.216 1.63-10.368 13.704-16.188 23.317-11.24m128 0c5.121 2.635 7.966 7.66 7.96 14.056-.007 7.696-4.318 13.464-11.508 15.4-11.221 3.022-21.604-6.546-19.769-18.216 1.63-10.368 13.704-16.188 23.317-11.24m-275.939 95.627c-7.674 1.858-14.834 6.104-21.452 12.722-9.731 9.73-14.076 20.137-14.076 33.711 0 13.574 4.345 23.981 14.076 33.711 9.73 9.731 20.137 14.076 33.711 14.076 13.574 0 23.981-4.345 33.711-14.076 9.731-9.73 14.076-20.137 14.076-33.711 0-13.574-4.345-23.981-14.076-33.711-6.76-6.76-13.779-10.861-21.844-12.762-6.742-1.589-17.468-1.571-24.126.04m128 0c-7.674 1.858-14.834 6.104-21.452 12.722-9.731 9.73-14.076 20.137-14.076 33.711 0 13.574 4.345 23.981 14.076 33.711 9.73 9.731 20.137 14.076 33.711 14.076 13.574 0 23.981-4.345 33.711-14.076 9.731-9.73 14.076-20.137 14.076-33.711 0-13.574-4.345-23.981-14.076-33.711-6.76-6.76-13.779-10.861-21.844-12.762-6.742-1.589-17.468-1.571-24.126.04m128 0c-7.674 1.858-14.834 6.104-21.452 12.722-9.731 9.73-14.076 20.137-14.076 33.711 0 13.574 4.345 23.981 14.076 33.711 9.73 9.731 20.137 14.076 33.711 14.076 13.574 0 23.981-4.345 33.711-14.076 9.731-9.73 14.076-20.137 14.076-33.711 0-13.574-4.345-23.981-14.076-33.711-6.76-6.76-13.779-10.861-21.844-12.762-6.742-1.589-17.468-1.571-24.126.04M135.68 305.94c5.121 2.635 7.966 7.66 7.96 14.056-.007 7.696-4.318 13.464-11.508 15.4-11.221 3.022-21.604-6.546-19.769-18.216 1.63-10.368 13.704-16.188 23.317-11.24m128 0c5.121 2.635 7.966 7.66 7.96 14.056-.007 7.696-4.318 13.464-11.508 15.4-11.221 3.022-21.604-6.546-19.769-18.216 1.63-10.368 13.704-16.188 23.317-11.24m128 0c5.121 2.635 7.966 7.66 7.96 14.056-.007 7.696-4.318 13.464-11.508 15.4-11.221 3.022-21.604-6.546-19.769-18.216 1.63-10.368 13.704-16.188 23.317-11.24m-147.939 95.627c-7.674 1.858-14.834 6.104-21.452 12.722-9.731 9.73-14.076 20.137-14.076 33.711 0 13.574 4.345 23.981 14.076 33.711 9.73 9.731 20.137 14.076 33.711 14.076 13.574 0 23.981-4.345 33.711-14.076 9.731-9.73 14.076-20.137 14.076-33.711 0-13.574-4.345-23.981-14.076-33.711-6.76-6.76-13.779-10.861-21.844-12.762-6.742-1.589-17.468-1.571-24.126.04m19.939 32.373c5.121 2.635 7.966 7.66 7.96 14.056-.007 7.696-4.318 13.464-11.508 15.4-11.221 3.022-21.604-6.546-19.769-18.216 1.63-10.368 13.704-16.188 23.317-11.24" fill-rule="evenodd"/></svg>