<svg xmlns="http://www.w3.org/2000/svg" width="512" height="512"><path d="M67.954 81.567c-10.429 2.525-21.82 10.739-28.183 20.325-1.655 2.493-4.08 7.564-5.39 11.267L32 119.893V247.04c0 136.401-.171 130.76 4.259 140.8 1.036 2.347 3.282 6.091 4.993 8.32l3.11 4.053H28.424c-14.498 0-16.276.164-19.678 1.81C3.204 404.706.427 409.372.427 416s2.777 11.294 8.319 13.977l3.74 1.81h487.028l3.74-1.81c5.542-2.683 8.319-7.349 8.319-13.977s-2.777-11.294-8.319-13.977c-3.402-1.646-5.18-1.81-19.678-1.81h-15.938l3.11-4.053c1.711-2.229 3.957-5.973 4.993-8.32 4.43-10.04 4.259-4.399 4.259-140.8V119.893l-2.381-6.734c-4.229-11.959-12.625-21.888-23.331-27.591-10.681-5.689 2.662-5.335-198.715-5.271-154.676.05-183.379.244-187.619 1.27m371.086 32.059c3.485 1.922 6.062 4.822 7.639 8.598 1.172 2.804 1.321 17.046 1.321 125.888v122.726l-1.92 3.758c-1.056 2.067-3.396 4.933-5.199 6.368l-3.279 2.609-178.481.25c-98.165.137-180.129.015-182.144-.271-4.468-.635-9.183-4.511-11.386-9.358-1.48-3.258-1.554-9.267-1.554-126.301 0-117.393.07-123.034 1.567-126.328 1.802-3.967 6.028-7.845 9.342-8.573 1.254-.276 2.665-.632 3.134-.791.469-.159 81.301-.222 179.627-.139 164.576.139 178.976.263 181.333 1.564" fill-rule="evenodd"/></svg>