<svg xmlns="http://www.w3.org/2000/svg" width="512" height="512"><path d="M246.187 48.679c-7.384.612-15.942 2.379-21.334 4.404-1.408.529-37.504 16.877-80.213 36.33-50.934 23.198-79.437 36.634-82.837 39.047-10.589 7.516-15.284 17.745-13.102 28.548 1.25 6.191 3.883 10.592 9.533 15.936 5.396 5.103 6.947 5.92 38.619 20.334 13.142 5.98 23.973 10.939 24.07 11.019.098.08-12.167 5.686-27.254 12.459-27.695 12.431-34.906 16.528-39.355 22.361-6.533 8.565-7.975 19.417-3.732 28.089 1.353 2.765 4.45 6.775 7.423 9.61 5.48 5.228 9.04 7.072 45.446 23.547 9.73 4.403 17.602 8.077 17.494 8.165-.109.088-11.142 5.047-24.518 11.02-13.376 5.972-26.572 12.051-29.325 13.507-15.975 8.451-22.805 23.881-16.574 37.441 2.638 5.739 7.802 11.585 13.324 15.082 7.094 4.493 157.331 72.471 165.215 74.756 19.366 5.612 44.38 4.508 62.346-2.75 11.227-4.536 153.244-69.76 156.716-71.975 5.357-3.417 11.563-10.203 13.653-14.928 5.114-11.56 1.666-23.419-9.562-32.892-2.413-2.036-14.161-8.257-30.983-16.406-14.903-7.219-27.022-13.46-26.932-13.868.09-.408 11.536-5.949 25.436-12.314s26.808-12.552 28.686-13.751c4.793-3.059 11.337-10.313 13.292-14.734 5.6-12.658.692-26.223-12.854-35.529-1.636-1.124-15.008-7.457-29.717-14.073-14.708-6.617-26.733-12.327-26.72-12.69.012-.363 11.506-5.926 25.543-12.364 14.037-6.437 27.367-12.785 29.623-14.107 20.745-12.157 21.665-37.081 1.855-50.23-4.493-2.982-155.979-72.477-163.68-75.089-10.328-3.503-26.068-5.076-39.582-3.955m23.635 32.775c4.001.848 27.162 10.992 77.227 33.823 39.331 17.936 73.62 33.549 76.198 34.695l4.688 2.083-2.366 1.239c-1.301.682-20.114 9.314-41.807 19.183-21.693 9.868-41.362 18.838-43.709 19.932-25.517 11.899-63.074 28.639-66.038 29.435-10.516 2.824-28.218 2.594-37.356-.485-3.391-1.143-39.836-17.516-67.699-30.415-3.52-1.629-23.978-10.957-45.462-20.729-21.484-9.771-38.764-18.023-38.4-18.337.364-.315 34.579-16.022 76.033-34.905 47.843-21.793 77.296-34.752 80.64-35.479 7.005-1.522 20.961-1.542 28.051-.04m-75.691 156.181c14.079 6.431 28.312 12.603 31.629 13.717 18.006 6.044 40.737 6.17 59.642.331 3.221-.995 19.332-7.971 35.801-15.501 16.469-7.531 30.334-13.705 30.811-13.72 1.011-.031 73.915 32.531 74.865 33.438.352.336-16.544 8.423-37.546 17.971-21.003 9.549-41.066 18.695-44.586 20.326-39.876 18.472-67.266 30.513-72.457 31.852-8.658 2.233-23.899 2.237-32.58.007-3.55-.912-19.61-7.701-36.617-15.478a18158.76 18158.76 0 0 0-40.96-18.684c-53.24-24.106-77.561-35.468-77.017-35.981.354-.334 17.329-8.075 37.722-17.204l37.078-16.597 4.309 1.916c2.369 1.053 15.827 7.177 29.906 13.607m196.677 104.584c19.468 9.396 35.681 17.369 36.03 17.717.672.673-143.589 66.843-151.888 69.669-4.028 1.372-7.303 1.664-18.95 1.69-12.92.029-14.553-.143-19.822-2.085-9.892-3.647-151.622-68.646-151.005-69.253.927-.912 72.974-33.186 74.4-33.33.704-.07 14.144 5.756 29.867 12.948s31.728 14.183 35.567 15.536c18.054 6.362 43.315 6.478 61.268.281 3.491-1.205 20.092-8.487 36.89-16.183 16.798-7.696 30.926-14.011 31.395-14.033.469-.022 16.781 7.648 36.248 17.043" fill-rule="evenodd"/></svg>