<svg xmlns="http://www.w3.org/2000/svg" width="512" height="512"><path d="M48.425 48.959c-12.471 4.626-16.18 15.607-16.176 47.894.006 59.673 15.771 138.995 39.875 200.635 30.289 77.456 72.182 125.721 130.128 149.919 37.594 15.699 79.58 20.096 116.545 12.205 33.318-7.112 64.39-26.237 80.99-49.848 2.346-3.338 4.679-5.93 5.183-5.761 3.663 1.232 30.171 6.94 43.759 9.423 13.239 2.42 17.133 2.851 19.627 2.175 11.885-3.224 16.56-16.588 8.96-25.62-3.414-4.057-5.849-4.908-23.086-8.067-8.824-1.618-20.4-3.963-25.725-5.212-8.988-2.107-9.65-2.401-9.235-4.099.246-1.007 1.607-5.983 3.025-11.058 12.755-45.675 3.767-95.513-25.036-138.825-24.151-36.317-62.461-67.238-103.482-83.523-20.721-8.227-40.427-13.334-74.47-19.302-36.26-6.356-41.693-7.401-53.42-10.27-39.228-9.6-65.066-23.473-92.584-49.712-4.882-4.655-10.118-9.102-11.635-9.883-3.922-2.017-9.479-2.467-13.243-1.071m35.346 60.471c21.5 14.12 43.418 23.477 71.536 30.539 12.86 3.23 17.678 4.173 62.866 12.304 37.159 6.686 54.525 11.813 76.654 22.631 23.763 11.617 45.526 28.39 62.398 48.09 34.991 40.857 46.906 90.359 32.635 135.577-1.017 3.223-2.185 6.067-2.595 6.321-.915.565-8.363-1.843-24.591-7.95-59.151-22.259-110.896-54.796-167.08-105.058-7.176-6.419-14.274-12.343-15.774-13.164-3.685-2.018-9.508-1.887-14.06.317-7.486 3.623-10.784 13.074-7.167 20.534 1.705 3.516 11.399 12.872 29.14 28.121 27.586 23.712 58.741 46.136 87.467 62.956 27.833 16.297 66.2 33.787 91.093 41.525 2.699.839 4.907 1.78 4.907 2.09 0 .311-2.852 3.371-6.338 6.8-31.06 30.55-85.384 38.945-138.084 21.339-36.091-12.057-65.185-34.213-89.085-67.842-16.991-23.907-35.769-64.163-47.224-101.237-14.355-46.461-24.027-100.429-26.113-145.699l-.605-13.122 6.455 5.129c3.55 2.821 9.654 7.231 13.565 9.799" fill-rule="evenodd"/></svg>