<svg xmlns="http://www.w3.org/2000/svg" width="512" height="512"><path d="M124.587 143.814c-51.072 9.034-88.935 50.189-94.03 102.207-4.395 44.862 20.042 89.479 60.785 110.981 8.62 4.55 22.395 9.338 32.391 11.26 10.984 2.112 82.243 2.856 88.875.928 4.786-1.391 9.273-4.986 11.429-9.155 4.045-7.823 1.312-17.829-6.295-23.045l-2.999-2.057-39.745-.496c-43.952-.549-46.809-.849-60.42-6.337-26.435-10.66-45.629-36.403-47.867-64.199-2.765-34.344 13.982-63.934 44.259-78.206 14.58-6.872 13.227-6.707 59.697-7.272 45.222-.55 44.614-.48 49.786-5.699 3.873-3.91 5.182-7.123 5.182-12.724 0-7.392-3.953-13.627-10.354-16.333-3.886-1.642-81.288-1.517-90.694.147m171.946-.112c-6.273 2.765-10.168 9.008-10.168 16.298 0 5.601 1.309 8.814 5.182 12.724 5.172 5.219 4.564 5.149 49.786 5.699 46.441.564 45.127.405 59.62 7.236 27.903 13.151 44.589 39.475 44.589 70.341 0 37.23-25.236 68.354-61.981 76.441-5.738 1.263-13.094 1.578-46.559 1.996l-39.745.496-2.999 2.057c-12.898 8.845-9.87 27.838 5.134 32.2 6.632 1.928 77.891 1.184 88.875-.928 44.528-8.561 79.231-41.355 90.364-85.394 6.605-26.124 2.968-55.651-9.819-79.739-17.03-32.078-48.242-54.34-83.695-59.695-9.419-1.423-85.269-1.193-88.584.268m-138.24 94.968c-3.277.687-8.549 5.063-10.645 8.835-4.411 7.943-1.923 17.959 5.812 23.39l3.7 2.598 97.847.255c68.998.18 98.794-.02 101.06-.678 1.768-.514 4.613-2.161 6.321-3.661 9.868-8.664 7.565-24.165-4.415-29.711-3.263-1.511-7.689-1.576-100.693-1.483-53.504.054-98.048.258-98.987.455" fill-rule="evenodd"/></svg>