<svg xmlns="http://www.w3.org/2000/svg" width="512" height="512"><path d="M230.827 34.118c-60.455 9.774-108.745 49.371-127.094 104.212-10.731 32.074-10.073 64.701 2.116 104.87 16.903 55.708 57.304 130.135 112.559 207.36 12.736 17.801 17.484 23.131 23.224 26.073 8.173 4.19 20.542 4.2 28.691.023 5.799-2.972 10.537-8.286 23.267-26.096 64.216-89.842 106.657-172.617 118.57-231.253 8.372-41.207 2.262-78.475-18.309-111.668-24.992-40.325-66.104-66.721-115.05-73.869-12.483-1.823-35.583-1.655-47.974.348m37.546 30.773c29.631 2.809 54.778 13.797 76.745 33.536 30.388 27.305 43.833 67.395 36.676 109.36-7.33 42.975-34.302 101.592-79.512 172.8-14.181 22.334-44.932 66.56-46.282 66.56-.82 0-21.024-28.371-33.534-47.087-38.134-57.053-69.109-115.428-82.783-156.015-11.838-35.137-14.287-60.778-8.233-86.178 11.874-49.814 57.171-87.762 110.939-92.94 10.589-1.02 15.532-1.027 25.984-.036m-23.07 63.97c-24.218 4.39-43.496 21.526-50.872 45.219-2.882 9.259-2.882 26.581 0 35.84 6.548 21.033 22.616 37.101 43.649 43.649 9.259 2.882 26.581 2.882 35.84 0 21.033-6.548 37.101-22.616 43.649-43.649 2.882-9.259 2.882-26.581 0-35.84-6.516-20.93-22.946-37.407-43.212-43.333-7.696-2.251-21.941-3.175-29.054-1.886m24.618 34.51c5.803 2.936 12.239 9.485 15.137 15.402 1.813 3.703 2.089 5.451 2.089 13.227 0 8.19-.212 9.379-2.468 13.831-4.888 9.645-13.944 16.31-24.02 17.678-13.973 1.896-26.89-4.954-33.338-17.678-2.256-4.452-2.468-5.641-2.468-13.831 0-7.793.274-9.516 2.1-13.227 3.69-7.5 10.973-14.171 18.713-17.14 2.038-.782 5.838-1.106 11.226-.958 7.032.194 8.813.562 13.029 2.696" fill-rule="evenodd"/></svg>