<svg xmlns="http://www.w3.org/2000/svg" width="512" height="512"><path d="M239.495 17.576c-31.136 5.625-57.081 25.615-70.55 54.357-4.461 9.519-7.487 21.104-8.517 32.6-.462 5.163-.843 26.905-.847 48.316l-.008 38.929-13.866.437c-11.086.349-15.065.816-19.84 2.328-16.064 5.088-29.766 16.111-38.206 30.737-1.219 2.112-3.297 6.912-4.619 10.667l-2.402 6.826v202.24l2.325 6.827c3.412 10.019 7.866 17.018 16.022 25.173 8.155 8.156 15.154 12.61 25.173 16.022l6.827 2.325h250.026l6.827-2.325c10.019-3.412 17.018-7.866 25.173-16.022 8.156-8.155 12.61-15.154 16.022-25.173l2.325-6.827v-202.24l-2.402-6.826c-7.033-19.983-22.069-34.559-42.825-41.513l-5.973-2.002-94.08-.244-94.08-.245.006-42.425c.004-25.367.365-44.632.898-47.916 2.244-13.828 7.84-24.357 18.638-35.065C224.195 53.991 237.866 48.419 256 48.419c18.134 0 31.805 5.572 44.458 18.118 12.868 12.761 19.509 27.905 19.536 44.554.008 5.142 1.161 8.109 4.538 11.677 5.022 5.306 11.582 6.619 18.081 3.619 7.826-3.612 10.057-9.346 8.84-22.723-4.545-49.963-46.202-87.797-96.205-87.374-4.984.042-12.073.621-15.753 1.286m141.947 209.48c5.677 2.663 12.133 8.916 14.954 14.482 1.142 2.253 2.482 6.717 2.978 9.919.603 3.896.821 35.891.657 96.703l-.244 90.88-2.725 5.752c-4.744 10.014-13.011 16.616-23.235 18.555-6.263 1.188-229.391 1.188-235.654 0-10.224-1.939-18.491-8.541-23.235-18.555l-2.725-5.752-.244-90.88c-.164-60.887.054-92.804.659-96.711 1.812-11.699 8.721-20.555 19.505-25.001l4.827-1.99 119.893.198 119.894.197 4.695 2.203" fill-rule="evenodd"/></svg>