<svg xmlns="http://www.w3.org/2000/svg" width="512" height="512"><path d="M89.784 81.936c-9.588 2.512-17.597 7.149-25.012 14.482-7.282 7.201-11.558 14.216-14.569 23.902l-1.99 6.4v258.56l1.99 6.4c5.4 17.369 17.947 30.668 35.13 37.234l6.4 2.446 89.812.232c78.963.204 90.508.071 95.574-1.101 16.781-3.884 32.42-17.45 38.84-33.691 3.513-8.889 4.041-14.095 4.041-39.864 0-27.27-.111-27.88-5.974-32.899-6.49-5.555-15.293-5.16-21.41.962-4.478 4.481-5.039 8.31-5.061 34.51-.018 20.644-.152 22.652-1.757 26.198-3.219 7.11-9.243 11.921-17.035 13.604-3.443.743-26.222.936-87.43.74-82.08-.262-82.806-.279-86.656-2.061-5.395-2.496-9.444-6.278-11.926-11.138l-2.111-4.132V129.28l2.111-4.132c2.482-4.86 6.531-8.642 11.926-11.138 3.846-1.779 4.632-1.799 81.963-2.039 51.667-.161 80.048.061 83.897.656 10.095 1.561 21.628 8.97 25.365 16.296 1.527 2.994 1.671 5.111 1.671 24.601 0 23.29.662 28.57 4.094 32.649 4.322 5.135 12.416 7.188 18.334 4.649 3.346-1.436 7.865-6.073 9.093-9.331 1.506-3.994 1.19-49.455-.387-55.658-4.255-16.74-16.994-30.934-35.534-39.595-13.272-6.199-10.338-6.03-103.724-5.978-79.29.045-83.759.128-89.665 1.676m271.603 79.484c-7.136 3.937-10.363 10.699-8.778 18.389.8 3.882 2.224 5.471 28.671 32.016l27.829 27.932-119.008.228-119.008.228-3.609 2.347c-9.726 6.323-9.509 21.071.402 27.232l3.207 1.995 119.011.225 119.011.225-27.832 27.935c-26.676 26.774-27.868 28.108-28.695 32.116-.474 2.3-.737 4.604-.583 5.12.153.516.509 1.988.789 3.27.636 2.903 5.027 7.992 8.403 9.738 3.071 1.588 8.526 1.777 12.587.437 2.205-.728 14.155-12.178 45.782-43.866 43.986-44.071 44.638-44.815 44.638-50.987 0-6.168-.673-6.937-44.208-50.557-23.302-23.348-43.584-43.028-45.071-43.734-3.138-1.489-11.057-1.658-13.538-.289" fill-rule="evenodd"/></svg>