<svg xmlns="http://www.w3.org/2000/svg" width="512" height="512"><path d="M296.769 33.783c-31.519 4.922-58.959 17.766-83.203 38.946-4.117 3.596-34.027 33.152-66.466 65.678-56.512 56.664-59.111 59.408-62.092 65.54-5.326 10.959-6.688 20.955-4.359 32 2.447 11.6 5.063 15.424 22.945 33.539 8.943 9.059 18.231 17.78 20.639 19.378 7.113 4.722 16.475 7.455 25.527 7.452 9.111-.002 14.206-1.087 21.733-4.629 5.126-2.412 10.54-7.568 67.44-64.227 57.805-57.559 62.223-61.76 67.293-63.981 14.76-6.468 30.873-1.973 39.826 11.109 6.229 9.103 7.135 20.533 2.471 31.186-2.219 5.07-6.387 9.456-63.552 66.866-37.236 37.397-62.029 62.943-63.356 65.28-8.509 14.988-7.946 35.584 1.354 49.596 1.69 2.547 10.486 11.947 19.545 20.89 18.115 17.882 21.939 20.498 33.539 22.945 11.033 2.326 21.018.97 32-4.347 6.163-2.984 8.731-5.431 69.205-65.932 34.542-34.557 64.948-65.563 67.569-68.901 23.043-29.35 34.799-63.013 34.834-99.744.019-20.249-2.327-34.496-8.761-53.19-19.34-56.196-68.417-96.474-128.556-105.507-10.717-1.609-35.11-1.581-45.575.053m36.154 31.11c43.787 4.424 81.865 30.842 101.796 70.628 10.022 20.006 14.542 44.379 12.504 67.428-2.233 25.264-10.394 46.335-25.999 67.131-5.265 7.016-76.917 79.787-78.56 79.787-.504 0-10.885-9.975-23.069-22.166l-22.154-22.165 36.282-36.501c21.909-22.042 37.599-38.519 39.608-41.593 17.86-27.34 12.118-64.228-13.183-84.701-11.809-9.555-24.039-13.909-39.353-14.012-10.267-.069-16.747 1.003-24.628 4.075-11.463 4.467-15.877 8.241-53.624 45.836l-36.071 35.926-22.169-22.157c-12.193-12.186-22.17-22.569-22.17-23.073 0-1.643 72.771-73.295 79.787-78.56 27.286-20.474 58.019-29.216 91.003-25.883m-161.41 184.79c-6.801 6.856-13.602 13.002-15.112 13.658-3.586 1.557-8.056 1.512-12.002-.12-3.894-1.611-28.607-25.904-30.966-30.44-1.984-3.815-2.115-8.995-.335-13.254.772-1.847 6.29-8.159 13.42-15.35l12.108-12.213 22.627 22.627 22.627 22.627-12.367 12.465M44.447 304.381c-3.786.762-8.543 4.468-10.395 8.098-3.801 7.451-1.204 16.937 5.834 21.313 3.157 1.963 3.629 1.999 30.087 2.266 29.432.297 31.381.064 36.408-4.35 6.791-5.962 7.366-15.824 1.298-22.238-4.972-5.255-4.911-5.245-34.292-5.38-14.784-.069-27.807.062-28.94.291m253.175 46.574 22.41 22.422-12.211 12.107c-7.189 7.129-13.501 12.646-15.348 13.418-3.639 1.521-8.872 1.698-12.311.416-3.488-1.299-29.125-26.974-31.059-31.105-3.911-8.35-2.001-12.359 13.105-27.52 6.664-6.688 12.316-12.16 12.56-12.16.244 0 10.529 10.09 22.854 22.422M117.333 373.69c-4.659 2.184-40.006 37.773-41.782 42.069-4.003 9.686 2.347 20.615 12.652 21.777 7.352.829 8.932-.277 29.41-20.573 10.479-10.385 19.791-20.308 20.693-22.049 2.906-5.608 1.36-14.746-3.177-18.775-4.618-4.101-12.079-5.127-17.796-2.449m68.267 27.718c-3.666 1.616-6.956 5.224-8.536 9.361-1.173 3.071-1.331 7.464-1.109 30.859.255 26.888.287 27.325 2.253 30.486 2.794 4.495 8.489 7.656 13.792 7.656 5.303 0 10.998-3.161 13.792-7.656 1.963-3.157 1.999-3.629 2.266-30.087.182-18.019-.042-27.94-.678-30.094-1.194-4.038-5.542-9.058-9.153-10.567-3.469-1.449-9.286-1.43-12.627.042" fill-rule="evenodd"/></svg>