<svg xmlns="http://www.w3.org/2000/svg" width="512" height="512"><path d="M423.253 64.783c-27.822 3.944-49.385 25.042-54.262 53.089-2.326 13.379-.358 25.725 6.238 39.141 3.356 6.827 5.206 9.325 11.712 15.821 8.529 8.517 16.143 13.105 27.779 16.74 8.289 2.59 24.623 2.792 33.28.413 13.44-3.694 26.249-12.233 34.339-22.892 5.627-7.413 8.313-12.58 11.018-21.197 2.891-9.206 2.899-26.531.017-35.818-3.736-12.037-10.95-22.959-20.46-30.978-5.659-4.772-18.049-11.13-25.214-12.94-6.246-1.577-18.267-2.255-24.447-1.379M75.093 81.545c-11.17 2.407-24.045 10.669-31.315 20.095-4.436 5.751-8.175 13.222-10.21 20.401C32.078 127.3 32 133.929 32 256s.078 128.7 1.568 133.959c3.377 11.911 9.962 21.956 19.326 29.477 6.962 5.592 12.879 8.588 21.138 10.7 6.279 1.606 11.199 1.65 181.465 1.638 194.008-.014 179.983.4 192.302-5.678 7.227-3.565 16.728-11.966 21.465-18.979 3.893-5.763 7.28-14.071 8.532-20.927.616-3.378.924-29.168.924-77.467 0-63.421-.164-72.797-1.321-75.565-2.706-6.479-7.482-9.704-14.459-9.767-6.004-.054-10.942 2.725-13.957 7.853l-2.263 3.849-.427 74.24c-.425 74.081-.43 74.248-2.272 77.654-2.341 4.332-6.477 8.258-11.381 10.805l-3.84 1.995H82.347l-3.917-1.812c-4.719-2.183-9.464-6.76-12.078-11.651l-1.925-3.604V129.28l1.925-3.604c2.614-4.891 7.359-9.468 12.078-11.651l3.917-1.812 121.6-.426c90.261-.317 122.04-.683 123.306-1.42 4.696-2.733 8.98-9.705 8.942-14.553-.043-5.389-5.28-12.724-10.491-14.693-1.659-.627-39.924-.887-123.733-.84-100.643.056-122.277.272-126.878 1.264m30.294 64.086c-6.251 3.296-9.204 7.906-9.204 14.369 0 4.854 1.52 8.338 5.074 11.633 4.6 4.264 145.338 113.327 148.051 114.73 3.516 1.818 9.904 1.8 13.459-.039 4.313-2.23 90.693-67.609 92.807-70.243 6.335-7.895 3.304-19.912-6.099-24.184-4.639-2.107-8.795-1.999-13.33.346-2.075 1.073-18.748 13.286-37.052 27.139a30131.679 30131.679 0 0 1-38.138 28.836l-4.859 3.648-67.248-52.318c-36.986-28.775-68.577-52.996-70.202-53.826-3.631-1.855-9.833-1.897-13.259-.091" fill-rule="evenodd"/></svg>