<svg xmlns="http://www.w3.org/2000/svg" width="512" height="512"><path d="M250.265 67.523c-3.228.386-8.246 1.96-12.8 4.015-9.699 4.376-175.96 86.564-179.148 88.558-11.919 7.455-20.753 19.734-24.795 34.464C32.102 199.736 32 206.801 32 300.373V400.64l1.998 6.4c3.182 10.195 6.693 15.95 14.635 23.987 5.867 5.937 8.652 8.028 14.514 10.896 13.397 6.556-.871 6.127 195.629 5.876 169.084-.217 176.182-.288 180.691-1.815 10.41-3.525 15.58-6.731 23.574-14.619 6.534-6.449 8.339-8.852 11.219-14.938 6.075-12.84 5.74-6.037 5.74-116.48 0-93.163-.102-100.211-1.522-105.387-2.039-7.43-5.681-15.062-9.932-20.818-7.237-9.795-10.723-11.902-59.793-36.134-148.161-73.163-140.505-69.563-149.766-70.409-1.878-.171-5.803-.025-8.722.324m93.628 73.692c46.23 22.839 84.363 41.826 84.741 42.192.681.66-120.586 93.073-122.132 93.073-.442 0-7.459-5.167-15.592-11.482-20.409-15.845-25.548-18.364-37.47-18.364-11.962 0-17.535 2.669-36.693 17.573-8.214 6.39-15.383 11.795-15.932 12.011-.732.288-115.866-85.647-120.974-90.294-.461-.42 15.62-8.82 37.973-19.837a92035.994 92035.994 0 0 0 87.413-43.162c42.129-20.832 49.039-23.997 51.626-23.644 1.643.224 40.811 19.095 87.04 41.934M448 302.778c0 79.566-.174 92.592-1.288 96.344-1.708 5.75-7.516 12.18-13.407 14.842L428.8 416H83.2l-4.505-2.036c-5.953-2.69-11.734-9.121-13.423-14.933-1.108-3.81-1.251-16.508-1.063-94.501l.218-90.099 54.613 41.245c30.037 22.685 54.542 41.478 54.455 41.762-.087.284-16.983 13.574-37.547 29.533-20.563 15.96-38.232 30.021-39.264 31.249-2.753 3.274-4.016 9.382-2.842 13.742 2.758 10.243 15.655 15.293 24.053 9.417 1.569-1.097 31.268-24.089 65.998-51.092 34.731-27.003 64.587-49.813 66.347-50.688 3.126-1.554 3.274-1.553 6.4.021 1.76.886 32 24.046 67.2 51.466 35.2 27.421 65.344 50.569 66.987 51.441 4.191 2.225 10.749 1.638 15.291-1.367 7.71-5.102 9.324-16.906 3.212-23.486-1.025-1.103-18.67-15.08-39.212-31.06-20.541-15.981-37.143-29.26-36.893-29.51 1.458-1.458 113.609-86.238 114.135-86.28.352-.028.64 41.352.64 91.954" fill-rule="evenodd"/></svg>