<svg xmlns="http://www.w3.org/2000/svg" width="512" height="512"><path d="M350.293 48.206c-.469.157-1.902.516-3.184.798-1.282.283-3.739 1.75-5.46 3.262-8.949 7.856-6.732 21.186 4.378 26.33 3.114 1.441 6.03 1.581 33.276 1.599l29.864.018-43.04 43.047-43.041 43.047-3.463-2.612c-18.412-13.887-39.339-24.318-59.55-29.681-41.131-10.914-82.264-6.63-120.126 12.511-32.644 16.503-57.387 41.331-73.809 74.062-16.025 31.938-21.64 67.039-16.181 101.156 15.24 95.248 106.144 158.178 200.292 138.655 43.644-9.05 82.276-35.506 106.719-73.08 13.955-21.453 23.451-48.433 26.247-74.571 1.2-11.226.57-32.555-1.287-43.52-4.729-27.933-15.897-53.574-33.286-76.419l-2.957-3.886 43.051-43.044 43.051-43.045.018 29.864c.018 27.246.158 30.162 1.599 33.276 6.114 13.204 23.078 13.204 29.192 0 1.481-3.199 1.581-6.582 1.599-54 .016-43.759-.16-51.015-1.302-53.749-1.762-4.216-4.362-6.918-8.493-8.824-3.199-1.477-6.543-1.573-53.333-1.527-27.456.027-50.304.176-50.774.333M235.947 161.638c50.555 7.772 92.109 42.403 108.617 90.522 5.338 15.559 6.539 23.627 6.539 43.947 0 15.938-.257 19.523-1.953 27.306-13.936 63.944-68.544 108.343-133.257 108.343-36.583 0-69.991-13.849-95.895-39.754-25.665-25.664-39.751-59.647-39.751-95.895 0-67.125 47.856-123.129 114.826-134.374 9.012-1.513 31.312-1.565 40.874-.095" fill-rule="evenodd"/></svg>