<svg xmlns="http://www.w3.org/2000/svg" width="512" height="512"><path d="M344.579 17.955c-1.735.916-4.231 3.077-5.547 4.802-2.111 2.769-2.392 3.862-2.392 9.311 0 5.599.24 6.47 2.581 9.363 5.027 6.211 5.73 6.356 30.899 6.356 12.327 0 22.413.29 22.413.644 0 .865-57.027 57.84-57.395 57.344-3.256-4.381-12.235-13.786-18.478-19.355-35.039-31.251-84.404-44.568-130.633-35.241-62.755 12.662-110.039 62.42-120.44 126.741-1.424 8.807-1.425 35.559-.001 44.373 7.539 46.685 35.217 86.956 75.56 109.936 14.655 8.349 38.524 16.448 53.448 18.136l5.086.575V400.213h-21.794c-24.573 0-26.111.326-30.85 6.539-2.116 2.774-2.396 3.864-2.396 9.316 0 5.599.24 6.47 2.581 9.363 5.015 6.196 5.78 6.356 30.472 6.356h21.987l.005 24.533c.003 14.486.371 25.853.9 27.757 1.113 4.01 5.434 9.033 9.081 10.557 6.767 2.827 15.334.27 19.572-5.842l2.442-3.522.258-26.742.259-26.741h21.742c16.564 0 22.397-.28 24.488-1.175 6.509-2.785 10.553-10.894 8.969-17.984-.985-4.411-2.431-6.594-6.35-9.585l-3.149-2.403-22.895-.253-22.895-.252v-49.216l5.76-.611c12.198-1.295 32.905-7.779 46.166-14.457 39.334-19.808 68.885-56.686 79.373-99.051 7.514-30.351 5.437-62.706-5.89-91.733-1.923-4.928-3.676-9.536-3.896-10.24-.259-.828 10.612-12.281 30.777-32.423l31.176-31.142v19.794c0 21.698.71 27.095 4.094 31.117 4.322 5.135 12.416 7.188 18.334 4.649 3.346-1.436 7.865-6.073 9.093-9.331.596-1.579.906-17.306.906-45.909 0-38.419-.162-43.826-1.383-46.238-1.964-3.878-3.708-5.666-7.33-7.515-2.989-1.525-5.635-1.614-47.36-1.578-42.147.036-44.34.115-47.348 1.704M233.387 81.466c55.178 7.899 97.785 53.501 101.877 109.04 4.252 57.697-31.141 108.729-86.544 124.784-66.371 19.234-135.173-22.397-150.166-90.863-2.129-9.722-2.646-31.831-.99-42.271 6.268-39.504 30.102-72.011 65.849-89.811 11.312-5.633 25.219-9.723 39.254-11.544 6.26-.812 22.92-.451 30.72.665" fill-rule="evenodd"/></svg>