<svg xmlns="http://www.w3.org/2000/svg" width="512" height="512"><path d="M234.971 48.642c-8.89 1.302-17.224 6.848-22.255 14.809-4.446 7.037-4.483 7.544-4.493 60.069-.006 26.869-.216 48.853-.467 48.853-.252 0-19.157-10.831-42.012-24.069-24.825-14.38-43.277-24.536-45.835-25.228-11.881-3.214-26.823 2.221-33.48 12.177-6.004 8.979-20.087 34.62-21.292 38.767-3.033 10.433.82 23.642 9.02 30.923 2.302 2.045 22.312 14.183 44.78 27.164 22.34 12.906 40.623 23.665 40.627 23.908.005.244-18.519 11.176-41.164 24.294-45.574 26.401-48.316 28.39-51.802 37.584-2.622 6.916-3.154 14.265-1.456 20.105 1.208 4.156 15.716 30.578 21.08 38.39 6.989 10.179 21.161 15.631 33.155 12.754 2.969-.713 17.815-8.837 46.201-25.283 23.005-13.328 42.009-24.232 42.231-24.232.222 0 .408 21.984.414 48.853.01 52.525.047 53.032 4.493 60.069 4.979 7.88 12.574 13.084 21.502 14.735 6.512 1.204 37.052 1.204 43.564 0 8.928-1.651 16.523-6.855 21.502-14.735 4.446-7.037 4.483-7.544 4.493-60.069.006-26.869.232-48.853.503-48.853s18.991 10.718 41.6 23.819c27.271 15.803 42.813 24.312 46.177 25.282 10.695 3.083 23-.572 30.77-9.14 4.813-5.308 22.017-34.947 24.023-41.388 3.146-10.096-.841-23.888-9.001-31.143-2.309-2.053-22.227-14.135-44.781-27.164-22.343-12.906-40.627-23.665-40.632-23.908-.005-.244 18.343-11.083 40.774-24.087 22.43-13.004 42.36-24.995 44.288-26.645 8.56-7.327 12.488-20.773 9.25-31.658-1.275-4.286-15.118-29.348-20.975-37.974-7.561-11.136-22.988-16.387-35.373-12.041-2.347.823-22.63 12.139-45.074 25.145-22.443 13.007-40.971 23.648-41.173 23.648-.201 0-.37-21.984-.376-48.853-.01-52.525-.047-53.032-4.493-60.069-5.221-8.263-13.252-13.446-23.024-14.86-6.282-.908-34.977-.873-41.289.051m37.242 90.324c0 41.476.285 59.606.967 61.653 1.283 3.853 6.145 8.846 10.695 10.984 4.296 2.02 10.998 2.269 15.088.56 1.541-.644 24.74-13.892 51.555-29.44 26.815-15.548 48.921-28.27 49.125-28.27.533 0 16.189 27.348 15.816 27.627-.172.128-22.519 13.068-49.66 28.756s-50.665 29.795-52.276 31.348c-3.84 3.702-5.474 7.811-5.451 13.707.022 5.651 2.052 10.643 5.742 14.127 1.998 1.885 97.744 58.237 101.233 59.581.579.223-10.549 20.626-14.685 26.923-.545.83-12.698-5.829-48.438-26.542-26.241-15.208-49.39-28.506-51.443-29.553-7.238-3.69-16.859-1.945-22.971 4.168-5.503 5.502-5.297 2.859-5.297 67.989v59.203h-32.426v-59.203c0-49.244-.204-59.686-1.213-62.08-1.626-3.857-6.13-8.333-10.307-10.241-4.081-1.864-11.322-2.059-15.264-.411-1.56.651-24.826 13.93-51.702 29.508-26.876 15.577-49.14 28.004-49.476 27.615-1.206-1.402-15.566-26.85-15.272-27.066.165-.122 22.514-13.057 49.664-28.745 29.335-16.951 50.654-29.802 52.544-31.674 6.96-6.897 7.021-20.08.124-26.852-2.289-2.248-97.687-58.612-101.977-60.252-.661-.253 14.573-27.933 15.374-27.933.141 0 21.687 12.424 47.881 27.609 26.193 15.185 49.303 28.465 51.356 29.511 7.307 3.725 16.915 1.931 23.002-4.294 5.481-5.607 5.266-2.827 5.266-67.863V80.213h32.426v58.753" fill-rule="evenodd"/></svg>