<svg xmlns="http://www.w3.org/2000/svg" width="512" height="512"><path d="M163.083 33.775c-14.236 3.829-26.936 15.589-32.291 29.901-1.921 5.135-2.246 7.555-2.596 19.311l-.4 13.44-28.271.014c-32.879.018-36.139.459-48.325 6.537-6.848 3.416-9.37 5.308-16.244 12.186-6.612 6.616-8.814 9.502-11.745 15.396-1.984 3.989-4.371 10.291-5.303 14.003-1.656 6.594-1.695 9.9-1.695 143.437s.039 136.843 1.695 143.437c.932 3.712 3.319 10.014 5.303 14.003 2.922 5.874 5.155 8.808 11.745 15.428 6.819 6.85 9.408 8.809 15.978 12.09C66.305 480.634 47.839 480 256 480s189.695.634 205.066-7.042c6.57-3.281 9.159-5.24 15.978-12.09 6.59-6.62 8.823-9.554 11.745-15.428 1.984-3.989 4.371-10.291 5.303-14.003 1.656-6.594 1.695-9.9 1.695-143.437s-.039-136.843-1.695-143.437c-.932-3.712-3.319-10.014-5.303-14.003-2.931-5.894-5.133-8.78-11.745-15.396-6.874-6.878-9.396-8.77-16.244-12.186-12.186-6.078-15.446-6.519-48.325-6.537l-28.271-.014-.4-13.44c-.35-11.756-.675-14.176-2.596-19.311-5.427-14.506-18.139-26.161-32.657-29.943-7.316-1.905-178.371-1.866-185.468.042M341.97 65.313c7.704 3.219 9.603 7.34 9.603 20.84v10.274H160.294l.28-11.377c.271-11.027.355-11.475 2.74-14.599 1.354-1.773 4.042-3.941 5.974-4.818 3.352-1.523 7.292-1.596 86.526-1.614 72.803-.017 83.401.142 86.156 1.294m97.622 63.848c12.598 2.965 21.924 13.276 23.811 26.326 1.021 7.064 1.021 257.962 0 265.026-1.53 10.577-8.046 19.465-17.787 24.261l-5.687 2.799H72.107l-4.88-2.287c-10.073-4.721-17.074-14.009-18.62-24.705-1.031-7.128-1.04-257.971-.01-265.094 1.857-12.84 11.189-23.316 23.41-26.282 6.647-1.613 360.739-1.656 367.585-.044M249.6 193.613c-4.131 1.906-6.731 4.608-8.493 8.825-1.115 2.669-1.32 8.333-1.32 36.44v33.28l-34.909.241-34.908.241-3.278 2.65c-4.669 3.775-6.509 7.334-6.509 12.591 0 6.657 4.045 12.786 9.899 14.998 1.549.585 14.352.908 36.054.908h33.651v33.526c0 33.085.025 33.575 1.92 37.283 1.056 2.067 3.395 4.933 5.199 6.368 2.933 2.334 3.892 2.609 9.094 2.609s6.161-.275 9.094-2.609c1.804-1.435 4.143-4.301 5.199-6.368 1.895-3.708 1.92-4.198 1.92-37.283v-33.526h33.734c26.747 0 34.303-.244 36.48-1.175 6.509-2.785 10.553-10.894 8.969-17.984-.985-4.412-2.431-6.594-6.351-9.585l-3.15-2.403-34.841-.241-34.841-.241-.018-33.465c-.018-30.711-.149-33.747-1.595-36.88-3.859-8.363-12.953-11.914-21-8.2" fill-rule="evenodd"/></svg>