<svg xmlns="http://www.w3.org/2000/svg" width="512" height="512"><path d="M241.493 48.673c-39.799 2.563-78.317 17.074-111.786 42.114-10.589 7.922-31.248 28.596-39.155 39.184-21.846 29.252-35.222 61.365-40.767 97.869-2.061 13.574-2.061 42.746 0 56.32 5.546 36.511 18.94 68.661 40.773 97.869 8.04 10.755 28.658 31.373 39.413 39.413 29.208 21.833 61.358 35.227 97.869 40.773 13.574 2.061 42.746 2.061 56.32 0 36.526-5.548 68.754-18.978 97.869-40.785 10.755-8.056 31.345-28.646 39.401-39.401 21.807-29.115 35.237-61.343 40.785-97.869 2.061-13.574 2.061-42.746 0-56.32-6.752-44.453-25.412-83.157-55.294-114.69-36.541-38.56-84.833-61.088-138.36-64.543-13.196-.852-12.782-.853-27.068.066m42.667 33.635c35.838 6.075 67.575 21.95 93.579 46.81 27.61 26.395 45.561 60.682 52.093 99.5 2.091 12.43 2.073 42.896-.033 55.115-9.878 57.299-44.492 104.256-95.788 129.946-48.421 24.25-107.601 24.25-156.022 0-51.464-25.774-86.214-73.029-95.815-130.297-2.121-12.648-2.121-42.116 0-54.764 10.541-62.873 51.565-113.601 110.675-136.854 13.047-5.132 28.757-8.823 46.938-11.027 6.667-.809 36.585.251 44.373 1.571m-37.915 46.687c-5.853 1.117-15.419 5.752-20.772 10.064-5.682 4.577-11.454 12.624-14.484 20.192l-2.349 5.869-.268 39.68c-.183 27.226.038 41.287.706 44.8 3.221 16.94 17.04 31.64 34.521 36.722 6.561 1.907 18.241 1.907 24.802 0 13.317-3.871 24.895-13.438 30.499-25.202 4.839-10.158 5.024-12.371 4.728-56.32l-.268-39.68-2.349-5.869c-8.908-22.25-31.456-34.708-54.766-30.256m-75.398 80.182c-1.543.445-4.293 2.296-6.11 4.113-4.744 4.743-5.515 9.315-4.905 29.057.408 13.186.851 17.17 2.693 24.187 8.29 31.588 35.788 57.297 70.862 66.251l5.973 1.524.242 9.059.242 9.059h-9.869c-11.31 0-14.093.83-18.106 5.401-6.536 7.444-3.911 20.004 5.091 24.362 3.625 1.755 4.811 1.81 39.04 1.81s35.415-.055 39.04-1.81c9.002-4.358 11.627-16.918 5.091-24.362-4.013-4.571-6.796-5.401-18.106-5.401h-9.869l.242-9.059.242-9.059 5.973-1.524c18.671-4.767 34.293-13.625 48.054-27.251 11.225-11.114 18.867-24.148 22.864-39 2.102-7.806 2.269-9.729 2.365-27.174.094-16.921-.058-19.099-1.534-22.073-3.305-6.658-12.057-10.46-18.89-8.205-4.42 1.459-9.558 6.354-10.597 10.095-.476 1.714-.873 10.028-.883 18.476-.012 10.663-.411 17.032-1.306 20.828-4.397 18.654-23.533 36.425-46.229 42.932-9.334 2.676-23.58 2.676-32.914 0-22.696-6.507-41.832-24.278-46.229-42.932-.895-3.796-1.294-10.165-1.306-20.828-.01-8.448-.396-16.721-.858-18.384-1.52-5.472-9.362-11.165-15.123-10.979-1.305.043-3.636.441-5.18.887" fill-rule="evenodd"/></svg>