<svg xmlns="http://www.w3.org/2000/svg" width="512" height="512"><path d="M247.467 48.652c-36.656 3.678-65.942 32.3-70.829 69.224-.642 4.856-.847 27.185-.64 69.857.294 60.788.36 62.931 2.122 69.547 4.154 15.597 11.52 28.591 22.135 39.049 7.726 7.612 12.737 11.157 22.163 15.682 12.613 6.055 19.001 7.451 34.009 7.434 11.438-.012 13.617-.26 20.48-2.328 31.375-9.453 53.193-34.344 58.059-66.237 1.808-11.844 1.808-122.982 0-134.827-2.762-18.101-10.363-33.047-23.185-45.588-16.576-16.213-40.216-24.23-64.314-21.813m20.392 32.873c16.651 3.925 30.691 17.965 34.616 34.616 1.917 8.132 1.917 126.519 0 134.651-3.908 16.578-17.494 30.753-34.059 35.536-7.121 2.056-18.887 1.882-26.131-.387-15.066-4.717-29.147-19.823-32.758-35.14-1.087-4.613-1.288-15.138-1.288-67.334 0-68.176-.023-67.842 5.303-78.001 3.537-6.745 13.195-16.396 19.959-19.943 9.765-5.12 23.043-6.665 34.358-3.998M121.565 193.604c-4.102 1.863-7.534 5.702-8.959 10.02-1.279 3.873-.618 47.954.855 57.069 5.095 31.532 18.8 58.535 40.949 80.684 21.322 21.323 49.374 36.001 77.27 40.432 1.877.299 4.469.752 5.76 1.008l2.347.465V431.787l-24.107.02c-13.259.011-25.613.37-27.454.797-12.06 2.797-16.245 17.764-7.431 26.578 1.725 1.726 4.664 3.561 6.531 4.08 4.752 1.319 132.596 1.319 137.348 0 1.867-.519 4.806-2.354 6.531-4.08 8.814-8.814 4.629-23.781-7.431-26.578-1.841-.427-14.195-.786-27.454-.797l-24.107-.02V383.282l2.347-.465c1.291-.256 3.883-.709 5.76-1.008 15.809-2.511 34.657-9.612 50.347-18.969 14.536-8.669 32.283-25.18 42.419-39.464 12.861-18.123 21.866-40.308 25.443-62.683 1.476-9.231 2.147-53.186.871-57.052-2.987-9.05-12.786-13.826-21.176-10.32-4.216 1.762-6.918 4.361-8.824 8.492-1.399 3.03-1.578 5.839-1.595 24.966-.012 14.702-.425 24.258-1.297 30.066-5.808 38.667-32.586 72.35-69.149 86.98-15.697 6.281-21.457 7.297-41.359 7.297s-25.662-1.016-41.359-7.297c-24.788-9.918-45.621-28.826-57.829-52.485-10.186-19.741-12.551-31.816-12.602-64.353-.03-19.309-.212-22.145-1.61-25.174-3.861-8.366-12.913-11.898-21.035-8.209" fill-rule="evenodd"/></svg>