<svg xmlns="http://www.w3.org/2000/svg" width="512" height="512"><path d="M94.293 48.208c-.469.155-1.902.514-3.184.796-3.127.689-8.32 5.362-9.743 8.769-1.526 3.652-1.46 8.952.16 12.868.936 2.263 49.548 51.423 169.6 171.513 92.558 92.587 169.702 169.326 171.431 170.53 4.417 3.077 8.52 3.83 13.632 2.504 10.476-2.717 15.131-15.29 8.947-24.167-3.399-4.88-338.541-339.478-341.456-340.902-2.702-1.32-7.947-2.388-9.387-1.911m152.24.414c-21.489 2.69-41.116 13.835-54.076 30.707-6.17 8.033-6.425 7.217 6.205 19.847 6.106 6.106 11.462 10.879 11.903 10.606.441-.272 2.291-3.042 4.111-6.155 6.211-10.619 17.874-19.37 29.457-22.1 21.609-5.093 44.192 4.678 54.016 23.373 5.455 10.38 5.611 11.992 5.625 58.06l.013 41.359 14.888 14.889c12.811 12.81 15.074 14.735 16.214 13.789 1.171-.972 1.324-7.291 1.324-54.693 0-33.786-.341-56.048-.923-60.234-5.375-38.644-36.776-67.669-75.45-69.74-4.224-.227-10.212-.095-13.307.292M121.6 193.613c-4.131 1.906-6.731 4.608-8.493 8.825-1.067 2.554-1.319 7.056-1.313 23.455.009 27.662 1.545 40.246 7.004 57.384 16.362 51.366 59.449 89.066 112.669 98.583l8.32 1.488v48.326l-25.883.27-25.882.269-4.121 2.56c-5.232 3.252-7.704 7.733-7.643 13.857.053 5.28 3.237 10.568 8.074 13.409 2.919 1.715 4.222 1.752 69.535 1.996 50.45.189 67.475-.004 70.34-.794 7.395-2.039 13.061-10.806 11.588-17.928-.86-4.162-4.114-8.756-7.844-11.075-3.216-1.999-3.592-2.028-29.498-2.294l-26.24-.268v-48.328l8.32-1.488c11.276-2.016 23.32-5.674 33.646-10.219 9.563-4.208 11.794-5.819 11.794-8.512 0-1.891-19.3-21.796-21.134-21.796-.508 0-3.896 1.191-7.529 2.645-42.608 17.062-91.476 6.007-123.09-27.845-10.468-11.209-19.642-26.648-24.322-40.933-4.568-13.944-5.059-17.957-5.601-45.795l-.51-26.169-2.572-3.698c-4.703-6.765-12.617-9.155-19.615-5.925m256 0c-4.131 1.906-6.731 4.608-8.493 8.825-1.073 2.568-1.321 7.203-1.326 24.735-.004 14.244-.418 24.314-1.218 29.64-.711 4.74-.908 8.611-.476 9.387.404.726 5.716 6.271 11.804 12.322 7.325 7.28 11.5 10.837 12.34 10.514 2.667-1.023 7.513-20.094 9.154-36.023.539-5.229.842-18.33.684-29.582l-.282-20.196-2.572-3.697c-4.704-6.765-12.617-9.155-19.615-5.925m-200.901 21.39c-1.913 1.183-.751 34.468 1.497 42.853 4.16 15.522 11.028 27.55 21.994 38.514 10.709 10.707 20.032 16.215 35.212 20.799 6.331 1.912 9.057 2.239 19.318 2.315 12.456.093 21.767-1.276 23.586-3.468.802-.966-1.522-3.717-12.151-14.386l-13.142-13.192-6.576-1.668c-10.444-2.649-15.666-5.611-23.366-13.253-7.737-7.679-11.368-14.02-13.691-23.917l-1.402-5.973-13.749-13.922c-7.562-7.657-14.346-14.254-15.075-14.66-.729-.407-1.834-.425-2.455-.042" fill-rule="evenodd"/></svg>