<svg xmlns="http://www.w3.org/2000/svg" width="512" height="512"><path d="M161.28 37.408c-11.659 5.797-15.821 8.186-26.027 14.935-51.444 34.024-88.638 91.021-99.376 152.288-2.69 15.348-3.61 26.332-3.626 43.262-.015 17.847.986 28.68 4.143 44.8 6.775 34.6 21.109 66.602 42.781 95.511 9.643 12.863 31.758 34.978 44.621 44.621 34.068 25.539 73.058 41.081 115.137 45.895 11.422 1.307 38.721 1.311 50.347.007 41.64-4.667 77.396-18.036 111.36-41.635 31.552-21.922 59.545-54.875 75.003-88.29 4.552-9.84 5.038-12.275 3.492-17.48-1.388-4.674-4.471-8.049-9.134-9.997-4.845-2.023-8.076-1.634-18.221 2.195-35.42 13.37-80.802 16.241-119.833 7.582-13.433-2.98-31.153-9.33-44.545-15.963-39.911-19.768-70.98-50.978-90.725-91.139-15.884-32.308-22.171-64.469-20.059-102.607 1.355-24.473 4.889-42.701 11.862-61.173 3.823-10.13 4.218-13.378 2.207-18.19-2.647-6.337-7.852-9.634-15.08-9.553-3.721.042-6.236.907-14.327 4.931M147.291 91.46c-3.147 20.491-4.044 48.478-2.172 67.752 2.736 28.177 11.673 57.924 25.223 83.952 35.888 68.938 105.676 116.262 182.446 123.717 19.274 1.872 47.261.975 67.752-2.172 4.844-.744 8.952-1.208 9.128-1.032.703.703-11.255 15.261-19.05 23.194-26.852 27.326-61.353 46.814-98.298 55.525-20.828 4.911-45.801 6.726-66.212 4.813-92.705-8.687-167.124-79.521-180.02-171.347-4.18-29.761-1.272-63.691 7.883-91.969 12.096-37.36 37.485-73.919 67.047-96.543 3.84-2.938 7.126-5.197 7.303-5.02.178.177-.286 4.286-1.03 9.13" fill-rule="evenodd"/></svg>