<svg xmlns="http://www.w3.org/2000/svg" width="512" height="512"><path d="M301.227 46.977c-30.272 7.91-56.935 15.263-59.251 16.342-8.97 4.178-15.835 13.525-17.509 23.839-.577 3.557-.883 49.357-.887 132.873-.006 113.198-.154 127.755-1.326 130.225-2.781 5.86-4.528 6.716-34.947 17.114-15.958 5.455-31.362 11.226-34.231 12.825-9.896 5.511-18.494 16.039-22.624 27.698-2.6 7.341-2.807 23.268-.406 31.147 8.001 26.254 33.393 43.444 59.8 40.483 7.908-.887 35.196-9.805 42.116-13.764 7.509-4.296 14.947-12.425 18.848-20.596 1.831-3.837 3.748-9.011 4.26-11.498.646-3.144.93-42.636.93-129.521 0-110.893.149-125.356 1.321-128.16 1.551-3.713 4.191-6.724 7.325-8.355 1.235-.642 24.218-6.735 51.075-13.54 40.093-10.158 49.538-12.826 52.794-14.916 7.308-4.69 12.178-11.2 14.278-19.088 1.812-6.806 1.731-67.896-.097-73.261-1.815-5.327-5.595-9.589-10.809-12.187-7.893-3.933-9.352-3.679-70.66 12.34m50.147 42.784-.227 22.348-47.588 12.05-47.587 12.05.227-22.238.228-22.238 46.506-12.101c25.579-6.656 46.993-12.128 47.588-12.16.852-.046 1.032 4.68.853 22.289m-127.801 319.02c0 17.884-.152 19.958-1.683 22.959-.925 1.814-2.673 4.078-3.883 5.03s-8.759 3.917-16.776 6.589c-13.007 4.335-15.115 4.809-19.584 4.404-8.39-.761-15.989-6.531-19.725-14.975-1.292-2.921-1.6-5.176-1.36-9.944.37-7.314 2.896-11.756 8.466-14.886 2.764-1.554 51.486-18.52 53.905-18.771.352-.037.64 8.78.64 19.594" fill-rule="evenodd"/></svg>