<svg xmlns="http://www.w3.org/2000/svg" width="512" height="512"><path d="M443.307 48.97c-4.916 1.617-386.752 176.919-389.192 178.679-2.665 1.922-6.328 9.195-6.328 12.564 0 4.005 3.791 10.792 7.389 13.227l3.152 2.133 98.822.224 98.822.224.227 98.897.228 98.897 2.603 3.279c7.834 9.867 21.18 8.944 26.98-1.865 4.894-9.12 177.301-386.263 177.806-388.951 2.057-10.966-9.681-20.872-20.509-17.308m-28.929 49.678c-.289.753-28.65 62.737-63.025 137.743l-62.5 136.374-.426-64.569c-.47-71.142-.222-67.974-5.884-75.122-1.622-2.049-4.812-4.475-7.937-6.036l-5.225-2.611h-65.713c-36.142 0-65.475-.237-65.186-.527.691-.691 274.736-126.506 275.689-126.571.403-.027.495.567.207 1.319" fill-rule="evenodd"/></svg>