<svg xmlns="http://www.w3.org/2000/svg" width="512" height="512"><path d="M58.857 34.365c-14.238 4.867-24.466 17.523-26.476 32.761-.59 4.48-.791 65.988-.606 186.314.261 170.185.357 179.896 1.815 184.747 5.98 19.895 20.335 34.249 40.223 40.222 4.843 1.454 14.178 1.552 172.374 1.815 112.183.187 170.002-.015 175.601-.612 16.205-1.729 28.704-7.71 39.78-19.035 10.644-10.883 16.237-22.666 17.979-37.876 1.177-10.271 1.164-268.173-.014-276.354-2.446-16.996-16.308-31.042-33.24-33.683-3.05-.475-18.314-.867-33.92-.871L384 111.787V89.353c0-24.388-.576-28.73-4.851-36.585-3.274-6.014-11.913-13.911-18.776-17.161l-5.813-2.754-145.067-.196-145.066-.196-5.57 1.904m290.495 32.112 2.183 2.051.236 178.429.237 178.43 1.829 6.4c1.006 3.52 2.809 8.612 4.007 11.316l2.178 4.917-139.265-.223-139.264-.224-4.55-2.52c-4.971-2.754-7.749-5.636-10.637-11.034l-1.879-3.512-.226-179.627c-.168-134.098.024-180.23.758-182.008 2.118-5.128-7.171-4.829 143.826-4.629l138.384.184 2.183 2.05m-240.673 46.102c-4.43 1.092-8.354 4.028-10.578 7.912L96 124.16v71.814l2.56 4.122c1.593 2.566 3.849 4.797 5.973 5.907 3.272 1.71 4.844 1.795 37.974 2.046 36.926.28 38.868.107 43.603-3.876 5.797-4.878 5.85-5.28 5.871-43.987.02-37.404-.084-38.404-4.502-43.135-4.556-4.88-4.096-4.825-41.559-4.986-19.008-.081-35.766.15-37.241.514m127.768-.193c-3.778.751-8.541 4.46-10.395 8.093-3.801 7.451-1.204 16.937 5.834 21.313l3.207 1.995 35.84.239 35.84.24 3.791-1.947c2.085-1.07 4.965-3.421 6.4-5.225 2.334-2.933 2.609-3.892 2.609-9.094 0-5.232-.265-6.143-2.65-9.094-5.59-6.916-4.073-6.678-43.43-6.811-19.242-.066-35.913.065-37.046.291m208.732 33.887 2.394 2.059V423.68l-2.388 5.12c-3.134 6.72-9.706 13.32-16.296 16.366-4.494 2.077-6.264 2.407-12.889 2.407-6.625 0-8.395-.33-12.889-2.407-6.59-3.046-13.162-9.646-16.296-16.366l-2.388-5.12-.229-139.733-.228-139.734h58.815l2.394 2.06m-208.732 30.113c-3.778.751-8.541 4.46-10.395 8.093-3.801 7.451-1.204 16.937 5.834 21.313l3.207 1.995 35.84.239 35.84.24 3.791-1.947c2.085-1.07 4.965-3.421 6.4-5.225 2.334-2.933 2.609-3.892 2.609-9.094 0-5.232-.265-6.143-2.65-9.094-5.59-6.916-4.073-6.678-43.43-6.811-19.242-.066-35.913.065-37.046.291m-128 64.013c-3.758.723-8.537 4.439-10.395 8.08-3.801 7.451-1.204 16.937 5.834 21.313l3.207 1.995 99.845.227 99.845.227 3.786-1.934c2.082-1.064 4.96-3.409 6.395-5.213 2.334-2.933 2.609-3.892 2.609-9.094 0-5.232-.265-6.143-2.65-9.094-1.458-1.804-3.954-4.047-5.547-4.986-2.848-1.679-4.528-1.708-101.883-1.812-54.442-.059-99.913.072-101.046.291m0 64c-3.758.723-8.537 4.439-10.395 8.08-3.801 7.451-1.204 16.937 5.834 21.313l3.207 1.995 99.845.227 99.845.227 3.786-1.934c2.082-1.064 4.96-3.409 6.395-5.213 2.334-2.933 2.609-3.892 2.609-9.094 0-5.232-.265-6.143-2.65-9.094-1.458-1.804-3.954-4.047-5.547-4.986-2.848-1.679-4.528-1.708-101.883-1.812-54.442-.059-99.913.072-101.046.291m0 64c-3.758.723-8.537 4.439-10.395 8.08-3.801 7.451-1.204 16.937 5.834 21.313l3.207 1.995 99.845.227 99.845.227 3.786-1.934c2.082-1.064 4.96-3.409 6.395-5.213 2.334-2.933 2.609-3.892 2.609-9.094 0-5.232-.265-6.143-2.65-9.094-1.458-1.804-3.954-4.047-5.547-4.986-2.848-1.679-4.528-1.708-101.883-1.812-54.442-.059-99.913.072-101.046.291" fill-rule="evenodd"/></svg>