<svg xmlns="http://www.w3.org/2000/svg" width="512" height="512"><path d="M242.053 33.776c-11.644 2.819-25.598 12.696-34.027 24.085-2.887 3.901-7.632 13.085-10.728 20.764-.691 1.714-3.063 3.28-9.938 6.564-27.46 13.118-47.015 31.788-59.586 56.891-5.402 10.787-10.942 28.7-13.328 43.093-1.241 7.483-2.653 30.478-2.656 43.261-.006 18.576-2.329 40.026-6.033 55.701-3.477 14.715-11.298 29.424-23.835 44.825-12.487 15.34-14.433 18.26-16.327 24.496-6.253 20.585 7.127 41.732 29.032 45.886 2.695.511 20.373.871 42.777.871h38.184l.591 5.76c3.498 34.089 25.665 61.449 57.186 70.583 25.422 7.368 52.027 2.085 72.666-14.428 17.088-13.672 27.453-33.195 29.789-56.11l.583-5.715 41.078-.287c37.648-.262 41.435-.42 45.346-1.885 19.235-7.208 29.223-26.093 23.596-44.616-1.951-6.425-3.752-9.197-13.958-21.489-16.273-19.598-23.426-33.656-27.509-54.066-3.084-15.414-3.846-23.874-4.761-52.853-1.326-42.026-4.812-59.834-16.251-83.027-11.829-23.98-30.63-42.332-57.014-55.653-8.511-4.297-11.636-6.311-12.277-7.909-2.983-7.446-7.803-16.771-10.679-20.657-8.58-11.593-22.425-21.298-34.418-24.125-6.776-1.597-20.825-1.577-27.503.04M266.9 66.889c2.237 1.133 5.906 4.027 8.154 6.43 3.721 3.978 5.082 6.44 11.76 21.269 3.245 7.206 9.308 12.4 21.142 18.109 29.035 14.009 44.003 30.114 53.03 57.059 4.431 13.224 5.967 25.088 6.817 52.638 1.157 37.508 3.498 56.925 9.087 75.392 5.977 19.748 12.724 31.974 28.466 51.578 9.955 12.397 11.421 15.171 9.193 17.399-1.489 1.489-315.609 1.489-317.098 0-2.228-2.228-.762-5.002 9.193-17.399 15.742-19.604 22.489-31.83 28.466-51.578 5.588-18.463 7.973-38.076 9.104-74.861.429-13.958 1.19-27.874 1.691-30.925 2.569-15.639 5.577-25.642 10.905-36.267 9.491-18.928 23.464-31.706 46.798-42.798 11.892-5.653 18.485-11.261 21.645-18.412 6.187-14.003 7.953-17.206 11.689-21.2 4.089-4.371 8.714-7.306 13.511-8.572 4.205-1.11 12.05-.091 16.447 2.138m36.55 338.908c-.789 7.704-3.764 15.384-8.563 22.11-11.653 16.33-31.487 23.444-51.264 18.385-18.686-4.779-33.39-21.803-35.155-40.703l-.501-5.376h96.055l-.572 5.584" fill-rule="evenodd"/></svg>