<svg xmlns="http://www.w3.org/2000/svg" width="512" height="512"><path d="M241.493 48.673c-39.799 2.563-78.317 17.074-111.786 42.114-10.589 7.922-31.248 28.596-39.155 39.184-21.846 29.252-35.222 61.365-40.767 97.869-2.061 13.574-2.061 42.746 0 56.32 5.546 36.511 18.94 68.661 40.773 97.869 8.04 10.755 28.658 31.373 39.413 39.413 29.208 21.833 61.358 35.227 97.869 40.773 13.574 2.061 42.746 2.061 56.32 0 36.526-5.548 68.754-18.978 97.869-40.785 10.755-8.056 31.345-28.646 39.401-39.401 21.807-29.115 35.237-61.343 40.785-97.869 2.061-13.574 2.061-42.746 0-56.32-6.752-44.453-25.412-83.157-55.294-114.69-36.541-38.56-84.833-61.088-138.36-64.543-13.196-.852-12.782-.853-27.068.066m42.667 33.635c35.838 6.075 67.575 21.95 93.579 46.81 27.61 26.395 45.561 60.682 52.093 99.5 2.091 12.43 2.073 42.896-.033 55.115-9.878 57.299-44.492 104.256-95.788 129.946-48.421 24.25-107.601 24.25-156.022 0-51.464-25.774-86.214-73.029-95.815-130.297-2.121-12.648-2.121-42.116 0-54.764 10.541-62.873 51.565-113.601 110.675-136.854 13.047-5.132 28.757-8.823 46.938-11.027 6.667-.809 36.585.251 44.373 1.571m-35.413 46.834c-8.694 2.881-15.162 9.068-19.581 18.728-3.109 6.798-4.573 8.448-9.22 10.389-3.444 1.439-5.356 4.082-4.302 5.945.372.657 33.462 36.96 73.535 80.674 63.439 69.205 73.136 79.447 75.007 79.221 1.182-.142 2.53-.868 2.996-1.613 1.878-3.003-.169-7.135-8.436-17.023-6.013-7.194-9.278-12.042-12.332-18.316-5.938-12.2-7.467-20.731-8.947-49.913-.88-17.356-1.622-25.142-2.849-29.874-6.025-23.233-16.842-36.548-38.139-46.948-4.724-2.306-9.196-4.879-9.939-5.716-.744-.838-2.517-4.11-3.941-7.272-3.308-7.346-9.837-14.344-15.76-16.892-5.371-2.311-13.442-2.931-18.092-1.39m-93.761 6.046c-4.238 1.561-8.764 5.952-10.003 9.705-1.028 3.114-.683 8.583.763 12.12.48 1.174 44.69 50.518 98.246 109.654 69.936 77.223 98.391 108.08 100.984 109.507 4.762 2.622 11.018 2.254 15.829-.93 6.004-3.973 8.666-12.993 5.798-19.645-1.622-3.761-194.433-216.457-198.354-218.81-4.18-2.509-9.162-3.11-13.263-1.601m21.45 87.005c-.866.866-1.446 6.249-2.185 20.266-1.762 33.459-5.408 44.517-20.614 62.522-9.436 11.173-9.701 11.663-9.25 17.108.48 5.777 3.277 10.129 7.989 12.43 3.362 1.642 5.356 1.694 64.579 1.694 54.417 0 61.257-.147 62.451-1.341.737-.737 1.341-2.049 1.341-2.915 0-1.312-91.933-102.882-98.68-109.024-2.427-2.209-3.961-2.411-5.631-.74m40.277 132.004c-1.641 3.066 1.828 12.553 6.484 17.732 8.943 9.947 27.769 14.464 45.035 10.806 14.679-3.111 23.517-10.523 26.584-22.298 2.25-8.64 5.304-8.01-38.816-8.01-37.924 0-38.35.019-39.287 1.77" fill-rule="evenodd"/></svg>