<svg xmlns="http://www.w3.org/2000/svg" width="512" height="512"><path d="M241.493 48.641c-73.546 4.98-139.537 49.344-171.991 115.626-9.821 20.057-16.261 40.822-19.717 63.573-2.061 13.574-2.061 42.746 0 56.32 9.53 62.741 43.783 115.395 96.708 148.659 22.943 14.42 52.088 24.952 81.347 29.396 13.574 2.061 42.746 2.061 56.32 0 44.794-6.804 83.873-25.735 115.311-55.86 34.149-32.722 55.457-74.222 62.744-122.195 2.061-13.574 2.061-42.746 0-56.32-9.459-62.277-43.536-114.958-95.783-148.074-17.584-11.145-45.197-22.467-65.205-26.735-18.623-3.972-41.298-5.638-59.734-4.39m42.655 33.675c12.62 2.156 32.78 7.657 34.925 9.53.193.169-9.215 19.734-20.907 43.477l-21.259 43.168-3.414-.558c-12.715-2.081-22.312-2.08-34.986.002l-3.414.561-21.26-43.17c-11.693-23.743-21.101-43.309-20.907-43.479 2.503-2.187 26.477-8.404 37.901-9.828 4.224-.526 8.64-1.121 9.813-1.321 4.927-.842 35.836.308 43.508 1.618m-98.999 67.411 21.216 43.061-6.589 6.646c-10.385 10.474-16.778 21.281-20.588 34.806l-1.442 5.12-48.34.22-48.339.221.003-1.927c.007-3.863 2.672-18.371 5.057-27.527 10.616-40.761 37.459-77.674 74.3-102.172 1.173-.78 2.442-1.439 2.819-1.464.377-.024 10.234 19.333 21.903 43.016m169.307-39.534c34.666 23.403 61.073 60.434 71.417 100.154 2.385 9.156 5.05 23.664 5.057 27.527l.003 1.927-48.339-.221-48.34-.22-1.442-5.12c-3.811-13.526-10.203-24.332-20.591-34.809l-6.592-6.649 21.215-43.057c11.668-23.682 21.479-43.058 21.802-43.058.323 0 2.938 1.587 5.81 3.526m-86.589 99.334c8.065 1.901 15.084 6.002 21.844 12.762 9.688 9.688 14.05 20.155 14.05 33.711 0 13.556-4.362 24.023-14.05 33.711-9.73 9.731-20.137 14.076-33.711 14.076-13.574 0-23.981-4.345-33.711-14.076-9.688-9.688-14.05-20.155-14.05-33.711 0-13.556 4.362-24.023 14.05-33.711 6.618-6.618 13.778-10.864 21.452-12.722 6.658-1.611 17.384-1.629 24.126-.04m-88.679 68.233c2.327 8.259 5.6 15.415 9.988 21.839 2.257 3.304 4.633 6.856 5.281 7.892 1.112 1.782-.396 3.956-27.644 39.837-15.851 20.874-28.967 38.123-29.146 38.331-.581.674-11.322-10.406-17.74-18.299-16.096-19.798-27.738-42.429-33.8-65.707-2.385-9.156-5.05-23.664-5.057-27.527l-.003-1.927 48.339.221 48.34.22 1.442 5.12m251.742-3.627c-.002 1.056-.59 5.568-1.308 10.027-4.903 30.48-17.618 58.645-37.557 83.2-6.423 7.91-17.146 18.97-17.741 18.299-2.343-2.643-57.737-76.111-57.737-76.576 0-.352 1.932-3.29 4.293-6.529 6.008-8.241 9.278-15.458 13.265-29.274.242-.837 10.689-1.067 48.548-1.067h48.24l-.003 1.92m-204.227 56.171c16.816 7.22 40.263 7.285 58.134.159 2.953-1.177 5.641-1.871 5.973-1.542.332.329 13.53 17.561 29.328 38.292 27.897 36.607 28.677 37.735 27.064 39.134-2.778 2.41-21.135 11.399-30.072 14.727-38.404 14.297-83.856 14.297-122.26 0-8.916-3.32-27.275-12.307-30.083-14.727-1.626-1.401-.876-2.485 27.431-39.627 16.006-21.003 29.385-38.187 29.731-38.187.346 0 2.485.797 4.754 1.771" fill-rule="evenodd"/></svg>