<svg xmlns="http://www.w3.org/2000/svg" width="512" height="512"><path d="M332.181 48.601c-3.766.914-6.507 2.839-9.351 6.568-2.086 2.735-2.403 3.911-2.403 8.899 0 5.126.282 6.101 2.609 9.026 1.435 1.804 4.301 4.143 6.368 5.199 3.73 1.906 4.033 1.92 41.755 1.92h37.997l-99.987 100.054C199.744 289.763 207.39 281.388 208.43 290.608c1.105 9.808 13.276 16.279 22.226 11.817 1.502-.749 47.371-45.964 101.931-100.478l99.2-99.118v38.005c0 37.73.014 38.032 1.92 41.762 1.056 2.067 3.395 4.933 5.199 6.368 2.933 2.334 3.892 2.609 9.094 2.609s6.161-.275 9.094-2.609c1.804-1.435 4.143-4.301 5.199-6.368l1.92-3.758-.004-58.059c-.003-37.305-.32-59.193-.887-61.233-1.064-3.832-4.331-7.885-7.957-9.87-2.443-1.337-7.715-1.475-61.552-1.603-32.384-.077-60.118.161-61.632.528m-235.328 64.01c-14.144 1.684-26.457 8.567-36.306 20.294-4.671 5.561-7.901 11.582-10.416 19.415l-1.918 5.973v259.414l1.918 5.973c2.516 7.837 5.745 13.854 10.423 19.424 7.83 9.324 16.402 15.116 27.766 18.765l5.973 1.918h259.414l5.973-1.918c18.451-5.924 31.685-19.012 38.184-37.762l1.923-5.547.242-98.133c.271-109.65.656-102.45-5.788-108.271-7.388-6.675-19.005-4.672-24.062 4.149l-1.966 3.428-.426 97.707-.427 97.707-1.848 3.413c-2.486 4.593-7.559 9.344-12.232 11.455-3.805 1.718-4.995 1.734-129.28 1.734s-125.475-.016-129.28-1.734c-4.673-2.111-9.746-6.862-12.232-11.455l-1.848-3.413V160.853l1.848-3.413c2.191-4.048 7.218-9.001 11.379-11.213 2.842-1.51 7.33-1.608 92.586-2.014 81.272-.387 89.838-.558 92.16-1.839 5.165-2.849 8.96-8.937 8.96-14.374 0-5.437-3.795-11.525-8.96-14.374-2.331-1.287-10.332-1.422-89.6-1.519-47.872-.058-89.344.168-92.16.504" fill-rule="evenodd"/></svg>