<svg xmlns="http://www.w3.org/2000/svg" width="512" height="512"><path d="M323.954 81.51c-2.753.698-7.361 2.499-10.24 4.002-7.19 3.756-17.306 14.03-20.608 20.93l-2.546 5.322-113.493.032c-65.009.018-114.924.363-116.841.808-12.06 2.797-16.245 17.764-7.431 26.578 1.725 1.726 4.664 3.561 6.531 4.08 2.397.665 36.862.947 117.314.958l113.92.016 2.546 5.322c3.422 7.151 13.524 17.404 20.701 21.01 17.362 8.724 37.804 6.575 52.674-5.537 4.984-4.061 11.365-12.359 13.545-17.618l1.327-3.2 33.963-.004c22.147-.004 35.145-.333 37.358-.947 1.867-.519 4.806-2.354 6.531-4.08 8.814-8.814 4.629-23.781-7.431-26.578-1.841-.427-18.374-.786-36.741-.797l-33.393-.02-2.21-4.48c-5.318-10.778-15.79-20.259-26.878-24.335-7.264-2.67-21.048-3.374-28.598-1.462m20.236 33.114c12.52 7.007 8.427 26.912-6.009 29.22-8.963 1.433-18.144-6.584-18.144-15.844 0-6.256 5.498-13.82 10.909-15.008 1.254-.276 2.665-.642 3.134-.813 1.686-.616 6.889.642 10.11 2.445m-178.217 94.461c-13.91 2.793-28.033 14.084-33.865 27.075l-1.628 3.627-33.453.02c-18.4.011-34.96.37-36.801.797-12.06 2.797-16.245 17.764-7.431 26.578 1.725 1.726 4.664 3.561 6.531 4.08 2.213.614 15.196.943 37.303.947l33.908.004 1.292 3.093c2.169 5.189 8.756 13.705 13.747 17.771 9.013 7.341 18.739 10.71 30.927 10.71 13.298 0 23.615-4.444 33.431-14.401 4.234-4.295 7.279-8.315 8.96-11.828l2.546-5.322 113.92-.016c80.452-.011 114.917-.293 117.314-.958 1.867-.519 4.806-2.354 6.531-4.08 8.814-8.814 4.629-23.781-7.431-26.578-1.917-.445-51.832-.79-116.841-.808l-113.493-.032-2.546-5.322c-3.294-6.883-13.419-17.175-20.573-20.911-9.051-4.726-22.05-6.513-32.348-4.446m17.494 32.855c3.017 1.553 5.675 4.606 7.212 8.284 4.568 10.933-5.219 23.481-16.86 21.62-11.193-1.79-16.996-14.239-11.226-24.084 4.118-7.026 13.466-9.633 20.874-5.82m140.487 95.57c-2.753.698-7.361 2.499-10.24 4.002-7.19 3.756-17.306 14.03-20.608 20.93l-2.546 5.322-113.493.032c-65.009.018-114.924.363-116.841.808-12.06 2.797-16.245 17.764-7.431 26.578 1.725 1.726 4.664 3.561 6.531 4.08 2.397.665 36.862.947 117.314.958l113.92.016 2.546 5.322c3.422 7.151 13.524 17.404 20.701 21.01 17.362 8.724 37.804 6.575 52.674-5.537 4.984-4.061 11.365-12.359 13.545-17.618l1.327-3.2 33.963-.004c22.147-.004 35.145-.333 37.358-.947 1.867-.519 4.806-2.354 6.531-4.08 8.814-8.814 4.629-23.781-7.431-26.578-1.841-.427-18.374-.786-36.741-.797l-33.393-.02-2.21-4.48c-5.318-10.778-15.79-20.259-26.878-24.335-7.264-2.67-21.048-3.374-28.598-1.462m20.236 33.114c12.52 7.007 8.427 26.912-6.009 29.22-8.963 1.433-18.144-6.584-18.144-15.844 0-6.256 5.498-13.82 10.909-15.008 1.254-.276 2.665-.642 3.134-.813 1.686-.616 6.889.642 10.11 2.445" fill-rule="evenodd"/></svg>