<svg xmlns="http://www.w3.org/2000/svg" width="512" height="512"><path d="M247.626 109.133c-113.267 42.921-203.958 77.742-205.799 79.018-7.662 5.309-11.358 15.463-8.969 24.636 1.656 6.359 5.481 11.885 10.099 14.591 2.007 1.177 41.409 17.448 87.561 36.16l83.913 34.02 34.371 84.671c18.904 46.568 35.265 85.985 36.358 87.592 5.96 8.764 18.841 12.374 28.671 8.036 4.384-1.935 9.88-6.771 11.757-10.344.649-1.236 35.618-93.204 77.71-204.374 71.159-187.94 76.529-202.489 76.511-207.304-.031-8.65-4.396-16.154-11.98-20.598-3.163-1.854-5.168-2.329-10.79-2.559l-6.906-.281-202.507 76.736m66.707 65.92-91.427 91.426-72.189-29.286c-39.704-16.107-72.023-29.452-71.82-29.654.34-.34 325.48-123.693 326.436-123.845.234-.037-40.716 41.075-91 91.359m113.084-66.04c-.503 1.291-28.168 74.334-61.479 162.318-33.311 87.983-60.838 160.457-61.172 161.053-.346.619-13.149-29.838-29.9-71.129l-29.294-72.211 91.186-91.189c50.152-50.153 91.273-91.188 91.379-91.188.107 0-.217 1.056-.72 2.346" fill-rule="evenodd"/></svg>