<svg xmlns="http://www.w3.org/2000/svg" width="512" height="512"><path d="M328.962 33.771c-3.848 2.006-5.627 3.848-7.357 7.616-1.374 2.991-1.568 5.789-1.568 22.613 0 20.985.497 23.582 5.362 28.063 4.277 3.938 12.785 4.859 18.184 1.97 2.64-1.413 7.018-6.688 7.765-9.355.849-3.035.849-38.321 0-41.356-.822-2.934-5.254-8.036-8.392-9.659-3.148-1.628-10.778-1.569-13.994.108M214.781 81.334c-6.429 3.892-9.152 10.786-7.077 17.915 1.162 3.993 2.708 5.84 15.634 18.682 12.593 12.511 14.76 14.318 17.743 14.795l3.826.612c.234.038 2.063-.193 4.064-.513 2.431-.389 4.749-1.587 6.992-3.613 4.964-4.484 6.575-10.97 4.379-17.625-1.142-3.458-27.391-29.919-31.064-31.314-4.213-1.601-10.91-1.111-14.497 1.061m225.406.569c-2.111 1.398-9.248 8.065-15.86 14.814-12.361 12.619-13.886 14.982-13.85 21.47.022 3.969 2.88 9.337 6.403 12.024 2.617 1.997 4.223 2.495 8.839 2.742 5.13.275 5.995.066 9.547-2.308 6.499-4.344 27.685-26.552 28.93-30.327 1.541-4.668.588-11.089-2.186-14.725-3.519-4.615-6.83-6.226-12.797-6.23-4.331-.002-5.821.417-9.026 2.54m-112.934 30.741c-13.448 1.207-24.306 4.406-35.923 10.586-14.181 7.544-27.772 19.785-35.497 31.971l-3.673 5.795-14.648-.399c-26.268-.716-43.976 2.823-65.929 13.176-22.814 10.759-43.335 28.533-57.756 50.027-11.12 16.574-20.721 40.413-24.266 60.249-1.193 6.675-1.661 7.203-7.214 8.146-7.432 1.261-19.145 5.103-27.329 8.964-11.814 5.572-20.835 11.851-29.444 20.493-12.134 12.18-18.894 24.273-23.167 41.441-2.566 10.308-2.782 32.097-.427 43.094 4.179 19.521 11.633 33.368 24.58 45.664 17.993 17.088 39.223 25.52 69.803 27.725 15.789 1.139 237.61 1.115 252.58-.027 6.298-.48 14.276-1.457 17.729-2.17 51.591-10.657 87.406-46.475 95.931-95.939 1.552-9.005 1.357-30.22-.366-39.796-2.654-14.745-8.402-29.568-15.845-40.857-7.225-10.96-19.791-23.647-30.819-31.118a268.617 268.617 0 0 1-3.303-2.26c-.174-.13 1.534-3.039 3.794-6.463 12.372-18.739 18.126-44.42 14.905-66.517-1.973-13.533-7.969-29.026-15.564-40.22-12.647-18.639-33.664-33.487-55.167-38.975-5.328-1.36-24.113-3.786-25.731-3.324-.235.067-3.499.397-7.254.734m21.045 32.772c13.321 2.559 24.442 8.833 34.377 19.395 12.675 13.473 18.676 31.651 16.583 50.229-1.426 12.661-6.794 25.405-14.441 34.284l-3.135 3.64-8.014-1.911c-4.408-1.051-9.459-2.192-11.225-2.535-3.079-.599-3.36-.956-6.88-8.731-12.701-28.059-36.567-52.786-63.936-66.243-3.638-1.788-6.614-3.633-6.614-4.099 0-.466 2.592-3.381 5.76-6.478 15.399-15.053 36.699-21.552 57.525-17.551m-103.369 47.471c36.656 4.494 67.968 28.394 82.844 63.232 6.612 15.485 13.099 20.543 31.243 24.357 40.99 8.617 67.199 34.103 71.995 70.008 1.297 9.715.505 25.065-1.773 34.369-4.976 20.318-20.203 39.72-39.66 50.535-7.228 4.017-17.674 8.024-26.857 10.301-7.257 1.8-8.189 1.815-135.308 2.112-93.607.218-130.176.032-136.101-.692-25.386-3.106-44.288-14.713-52.743-32.389-4.342-9.077-6.142-17.781-6.142-29.694 0-24.328 10.977-41.974 33.23-53.418 8.1-4.166 14.796-6.416 25.65-8.622 8.975-1.823 14.411-4.512 19.552-9.67 4.955-4.972 7.427-10.187 9.537-20.116 2.615-12.301 4.841-20.176 7.925-28.03 11.754-29.941 34.554-53.836 62.065-65.046 16.929-6.898 36.323-9.471 54.543-7.237m214.591-.19c-15.771 5.385-14.876 27.332 1.255 30.791 2.406.516 11.058.939 19.225.939 8.167 0 16.819-.423 19.225-.939 8.189-1.756 13.495-9.15 12.554-17.495-.498-4.418-2.211-7.118-6.951-10.957l-3.222-2.609-20.19-.156c-11.104-.086-20.957.106-21.896.426" fill-rule="evenodd"/></svg>