<svg xmlns="http://www.w3.org/2000/svg" width="512" height="512"><path d="M241.493 48.673c-39.799 2.563-78.317 17.074-111.786 42.114-10.589 7.922-31.248 28.596-39.155 39.184-21.846 29.252-35.222 61.365-40.767 97.869-2.061 13.574-2.061 42.746 0 56.32 5.546 36.511 18.94 68.661 40.773 97.869 8.04 10.755 28.658 31.373 39.413 39.413 29.208 21.833 61.358 35.227 97.869 40.773 13.574 2.061 42.746 2.061 56.32 0 36.526-5.548 68.754-18.978 97.869-40.785 10.755-8.056 31.345-28.646 39.401-39.401 21.807-29.115 35.237-61.343 40.785-97.869 2.061-13.574 2.061-42.746 0-56.32-6.752-44.453-25.412-83.157-55.294-114.69-36.541-38.56-84.833-61.088-138.36-64.543-13.196-.852-12.782-.853-27.068.066m42.667 33.635c35.838 6.075 67.575 21.95 93.579 46.81 27.61 26.395 45.561 60.682 52.093 99.5 2.091 12.43 2.073 42.896-.033 55.115-9.878 57.299-44.492 104.256-95.788 129.946-48.421 24.25-107.601 24.25-156.022 0-51.464-25.774-86.214-73.029-95.815-130.297-2.121-12.648-2.121-42.116 0-54.764 10.541-62.873 51.565-113.601 110.675-136.854 13.047-5.132 28.757-8.823 46.938-11.027 6.667-.809 36.585.251 44.373 1.571m-79.979 94.281c-3.775.933-6.513 2.859-9.351 6.58l-2.403 3.151v139.495l2.609 3.279c7.682 9.654 20.563 9.037 26.625-1.275L224 323.84V188.16l-2.263-3.849c-3.55-6.038-11.039-9.332-17.556-7.722m96.266-.199c-3.738.736-8.541 4.458-10.509 8.143L288 188.16v135.68l2.339 3.979c2.844 4.838 6.85 7.458 12.322 8.06 5.132.564 10.47-1.968 14.303-6.785l2.609-3.279v-139.63l-2.65-3.279c-1.458-1.804-3.762-3.914-5.12-4.69-2.749-1.57-8.205-2.447-11.356-1.826" fill-rule="evenodd"/></svg>