<svg xmlns="http://www.w3.org/2000/svg" width="512" height="512"><path d="M269.227 33.639c-34.205 6.589-59.303 24.808-73.916 53.655-7.79 15.377-11.234 30.421-11.274 49.239-.122 57.633 39.284 109.283 90.214 118.246 33.248 5.852 69.786-10.852 93.029-42.529 17.636-24.034 27.27-57.8 24.464-85.74-2.485-24.742-11.85-45.709-27.936-62.546-8.575-8.975-15.702-14.284-26.741-19.919-16.832-8.592-26.137-10.822-46.934-11.249-10.194-.21-16.829.058-20.906.843m38.053 32.81c26.696 6.919 46.472 28.062 51.584 55.151 1.085 5.75 1.333 10.253.986 17.92-.727 16.076-3.595 27.047-10.706 40.944-13.689 26.757-37.033 43.28-61.144 43.28-16.17 0-31.451-7.007-44.851-20.566-18.551-18.77-28.389-45.075-27-72.191.956-18.651 7.598-33.981 20.174-46.557 9.763-9.762 22.76-16.506 36.744-19.065 9.461-1.731 25.284-1.23 34.213 1.084M79.769 162.5c-1.926 1.155-4.359 3.678-5.547 5.752-2.078 3.63-2.12 4.079-2.381 25.617l-.265 21.922-22.348.264-22.348.265-3.595 2.439c-6.183 4.195-8.77 12.752-5.919 19.575 1.524 3.647 6.547 7.968 10.557 9.081 1.831.509 11.982.898 23.49.9l20.267.005.005 20.267c.002 11.508.391 21.659.9 23.49 1.113 4.01 5.434 9.033 9.081 10.557 6.767 2.827 15.333.27 19.572-5.842l2.442-3.522.265-22.423.264-22.423 21.922-.265c21.563-.261 21.983-.301 25.633-2.39 10.235-5.86 10.787-20.006 1.049-26.889l-3.622-2.56-22.503-.265-22.502-.264-.253-22.414-.253-22.413-2.348-3.545c-4.582-6.92-14.465-9.175-21.563-4.919M259.84 289.71c-84.274 9.736-150.029 57.551-172.799 125.655-8.296 24.813-8.88 37.842-2.204 49.232 3.119 5.323 9.761 11.057 15.473 13.358l5.077 2.045h365.226l5.077-2.045c5.797-2.335 12.179-7.89 15.421-13.423 6.742-11.504 6.185-24.232-2.152-49.167-22.878-68.427-88.838-116.164-173.652-125.678-13.445-1.508-42.316-1.496-55.467.023m54.613 32.021c27.516 3.169 59.087 13.764 80.64 27.061 31.702 19.558 53.272 45.606 63.43 76.595 1.991 6.076 5.669 20.29 5.684 21.973.004.352-79.29.64-176.207.64-96.917 0-176.211-.288-176.207-.64.015-1.683 3.693-15.897 5.684-21.973 14.176-43.25 50.975-77.159 102.256-94.226 17.751-5.908 31.274-8.524 55.04-10.646 5.998-.536 31.172.236 39.68 1.216" fill-rule="evenodd"/></svg>