<svg xmlns="http://www.w3.org/2000/svg" width="512" height="512"><path d="M56.32 112.608c-13.013 1.405-25.589 7.236-35.434 16.429-7.195 6.72-13.87 16.141-16.616 23.451C.006 163.837 0 163.993 0 256.111 0 348.706-.03 348 4.407 359.86c3.999 10.687 15.963 24.588 26.86 31.207 2.801 1.702 8.719 4.359 13.153 5.907l8.06 2.813h407.04l8.06-2.813c4.434-1.548 10.352-4.205 13.153-5.907 10.897-6.619 22.861-20.52 26.86-31.207C512.03 347.999 512 348.716 512 256s.03-91.999-4.407-103.86c-2.609-6.972-9.397-16.489-16.479-23.103-7.105-6.634-16.14-11.777-26.071-14.838l-6.376-1.966-198.4-.111c-109.12-.062-200.896.157-203.947.486m405.509 34.831c6.373 3.138 11.824 8.592 15.184 15.196l2.134 4.192v178.346l-2.134 4.192c-3.36 6.604-8.811 12.058-15.184 15.196l-5.686 2.799H55.857l-5.686-2.799c-6.373-3.138-11.824-8.592-15.184-15.196-1.959-3.848-2.157-5.295-2.422-17.632-.257-11.996-.138-13.44 1.109-13.44 4.046 0 12.976-6.848 17.173-13.168 4.961-7.472 5.443-11.828 5.443-49.125s-.482-41.653-5.443-49.125c-4.197-6.32-13.127-13.168-17.173-13.168-1.247 0-1.366-1.444-1.109-13.44.265-12.338.463-13.783 2.419-17.613 4.272-8.365 11.423-14.557 19.873-17.206 2.944-.923 39.683-1.099 202.441-.968l198.845.16 5.686 2.799" fill-rule="evenodd"/></svg>