<svg xmlns="http://www.w3.org/2000/svg" width="512" height="512"><path d="M164.896.948c-12.747 2.123-23.907 8.096-33.967 18.179-10.396 10.42-16.045 21.169-18.243 34.718-1.232 7.589-1.232 396.721 0 404.31 1.219 7.515 4.39 16.229 8.168 22.449 6.697 11.024 20.545 22.97 31.286 26.989C164.001 512.03 163.284 512 256 512s91.999.03 103.86-4.407c10.687-3.999 24.588-15.963 31.207-26.86 1.702-2.801 4.359-8.719 5.907-13.153l2.813-8.06V52.48l-2.875-8.3C388.998 21.329 369.539 4.659 346.398.904c-6.778-1.1-174.881-1.059-181.502.044m28.811 32.793c0 4.717 9.423 15.695 16.329 19.023 6.43 3.1 12.293 3.547 46.391 3.536 36.83-.011 41.246-.506 48.698-5.453 6.32-4.197 13.168-13.127 13.168-17.173 0-1.247 1.444-1.366 13.44-1.109 12.337.265 13.784.463 17.632 2.422 6.604 3.36 12.058 8.811 15.196 15.184l2.799 5.686v400.286l-2.799 5.686c-4.794 9.737-13.269 15.965-24.081 17.697-7.53 1.205-161.355 1.214-168.96.009-10.921-1.73-19.876-8.485-24.593-18.549l-2.287-4.879V55.893l2.22-4.732c2.809-5.99 6.83-10.583 12.367-14.127 6.16-3.943 8.626-4.444 22.32-4.53 10.413-.066 12.16.111 12.16 1.237" fill-rule="evenodd"/></svg>