<svg xmlns="http://www.w3.org/2000/svg" width="512" height="512"><path d="M231.253 33.392c-16.448 1.674-38.791 7.061-54.742 13.198C106.14 73.665 54.519 132.963 37.615 206.143c-7.044 30.497-7.364 64.704-.896 95.896 3.739 18.033 12.791 43.681 17.38 49.249 4.802 5.826 12.728 7.052 20.924 3.236 2.543-1.183 4.89-1.852 5.215-1.485.325.367 1.888 3.548 3.474 7.068 14.954 33.189 41.344 63.681 73.78 85.249 46.441 30.879 103.893 41.647 159.095 29.818 22.053-4.726 50.906-16.892 69.546-29.325 23.485-15.663 44.053-36.231 59.716-59.716 12.433-18.64 24.599-47.493 29.325-69.546 6.141-28.657 6.191-61.55.134-88.74-9.109-40.895-29.49-77.118-59.643-106.005-16.048-15.374-32.204-26.598-52.572-36.52-26.017-12.675-47.595-18.441-77.357-20.671l-13.357-1.001-.296-10.278c-.345-11.957-1.699-15.178-7.912-18.82-3.394-1.989-4.336-2.118-14.646-2.012-6.06.062-14.282.446-18.272.852m8.324 122.008-.217 90.547-70.4 31.528c-79.517 35.611-91.169 40.791-93.092 41.382-1.827.562-6.048-13.656-9.035-30.43-1.9-10.67-2.214-14.959-2.283-31.147-.06-14.071.3-21.232 1.437-28.587 3.281-21.234 8.405-37.726 17.629-56.746 27.843-57.411 82.552-97.094 146.357-106.158 2.816-.4 6.178-.774 7.471-.832l2.35-.104-.217 90.547m53.139-58.08c37.916 4.687 72.777 21.04 100.21 47.007 47.209 44.688 65.74 111.373 48.578 174.82-11.44 42.293-40.576 80.583-78.837 103.607-26.253 15.798-53.571 23.835-84.907 24.981-68.846 2.517-132.724-35.857-163.546-98.248-3.685-7.459-4.743-10.34-3.945-10.743.6-.302 35.431-15.876 77.403-34.607 81.824-36.517 81.65-36.427 83.589-43.444.657-2.379.944-27.767.948-83.84l.004-80.426h6.636c3.65 0 9.89.402 13.867.893" fill-rule="evenodd"/></svg>