<svg xmlns="http://www.w3.org/2000/svg" width="512" height="512"><path d="M242.91 17.051c-29.977 5.44-54.128 26.581-63.183 55.309-10.64 33.757 2.479 70.36 32.34 90.233 6.92 4.605 16.254 8.815 23.666 10.673l4.054 1.017v143.072c0 114.088.223 143.932 1.101 147.312.605 2.332 3.562 10.094 6.571 17.25 5.494 13.069 6.629 14.591 10.065 13.501 1.628-.517 11.542-22.968 13.58-30.751.889-3.398 1.109-32.632 1.109-147.312V174.283l4.054-1.017c21.406-5.367 41.334-21.683 51.639-42.279 6.234-12.459 9.271-29.8 7.6-43.397-2.315-18.839-10.091-35.031-22.904-47.698-7.169-7.086-12.4-10.886-20.948-15.215-11.061-5.601-19.764-7.725-33.094-8.074-6.336-.166-13.379.036-15.65.448m24.821 32.364c1.775.474 1.623.733-2.058 3.495-16.119 12.099-10.907 37.178 8.775 42.22 9.735 2.494 20.183-1.46 25.167-9.524 1.149-1.858 2.128-2.658 2.635-2.151 1.284 1.284 1.825 16.306.791 21.932-2.743 14.916-15.472 30.073-29.738 35.411a49.207 49.207 0 0 1-34.606 0c-10.394-3.889-20.285-13.016-25.428-23.465-6.918-14.056-6.918-28.61 0-42.666 6.846-13.908 20.625-24.009 35.478-26.005 5.002-.673 15.158-.27 18.984.753" fill-rule="evenodd"/></svg>