<svg xmlns="http://www.w3.org/2000/svg" width="512" height="512"><path d="M239.787 80.737c-34.11 4.135-61.754 14.444-85.86 32.019l-4.367 3.183-9.286-3.422c-20.244-7.461-47.923-15.053-66.887-18.347-11.276-1.958-36.411-2.191-43.52-.403-8.688 2.185-15.182 5.71-20.46 11.103-6.973 7.127-8.943 12.339-8.901 23.557.027 7.476.37 9.431 2.763 15.786 8.86 23.524 33.732 52.779 72.731 85.546l4.746 3.988-.372 16.957c-.285 12.963-.026 19.525 1.096 27.862 3.424 25.421 11.859 49.026 25.219 70.566 13.303 21.448 34.731 42.876 56.179 56.179 58.824 36.483 133.569 35.304 190.877-3.012 4.524-3.024 8.602-5.499 9.062-5.499.46 0 8.276 2.474 17.369 5.498 39.384 13.098 65.961 18.326 87.877 17.286 16.595-.788 26.361-4.233 34.189-12.062 24.021-24.021 2.887-66.121-60.323-120.164l-10.731-9.174.41-16.426c.31-12.374.058-19.196-1.021-27.662-9.886-77.568-68.787-138.63-146.417-151.788-7.788-1.32-37.706-2.38-44.373-1.571m35.84 32.879c39.098 4.798 77.369 28.577 99.484 61.814 16.659 25.037 24.418 50.638 24.418 80.57 0 29.932-7.759 55.533-24.418 80.57-4.826 7.253-16.926 21.639-18.808 22.361-2.356.904-43.674-17.88-76.423-34.742-55.831-28.749-110.62-62.681-153.198-94.881-6.095-4.61-9.442-7.718-9.617-8.93-.382-2.643 5.36-18.882 9.883-27.951 25.428-50.992 78.05-82.371 134.172-80.007 3.989.168 10.517.706 14.507 1.196M67.413 125.969c11.19 1.597 29.613 6.051 44.023 10.645 6.059 1.931 11.141 3.627 11.292 3.768.151.141-1.704 2.693-4.124 5.671-9.876 12.154-21.109 31.615-26.876 46.562l-2.378 6.161-3.928-3.291c-8.513-7.132-23.679-22.175-31.412-31.155-17.255-20.036-25.699-36.588-19.663-38.544 6.255-2.026 18.037-1.961 33.066.183m58.572 142.502c53.643 38.313 131.404 82.894 188.786 108.232l11.412 5.039-6.495 3.267c-12.255 6.167-28.562 11.238-43.635 13.57-8.787 1.359-31.319 1.359-40.106 0-23.984-3.711-47.227-13.178-64.854-26.416-31.472-23.635-51.42-56.535-57.242-94.403-1.098-7.143-1.635-18.347-.88-18.347.183 0 6.039 4.076 13.014 9.058m312.225 58.721c23.345 22.042 41.363 46.284 41.363 55.651 0 2.39-.399 2.87-3.2 3.84-7.81 2.707-30.009.806-51.266-4.39-8.962-2.191-35.152-9.981-35.835-10.659-.151-.15 1.704-2.709 4.124-5.687 9.873-12.152 21.109-31.615 26.873-46.553l2.374-6.153 2.225 1.727c1.224.951 7.228 6.451 13.342 12.224" fill-rule="evenodd"/></svg>