<svg xmlns="http://www.w3.org/2000/svg" width="512" height="512"><path d="M241.493 48.673c-39.799 2.563-78.317 17.074-111.786 42.114-10.589 7.922-31.248 28.596-39.155 39.184-21.846 29.252-35.222 61.365-40.767 97.869-2.061 13.574-2.061 42.746 0 56.32 5.546 36.511 18.94 68.661 40.773 97.869 8.04 10.755 28.658 31.373 39.413 39.413 29.208 21.833 61.358 35.227 97.869 40.773 13.574 2.061 42.746 2.061 56.32 0 36.526-5.548 68.754-18.978 97.869-40.785 10.755-8.056 31.345-28.646 39.401-39.401 21.807-29.115 35.237-61.343 40.785-97.869 2.061-13.574 2.061-42.746 0-56.32-6.752-44.453-25.412-83.157-55.294-114.69-36.541-38.56-84.833-61.088-138.36-64.543-13.196-.852-12.782-.853-27.068.066m42.667 33.635c35.838 6.075 67.575 21.95 93.579 46.81 27.61 26.395 45.561 60.682 52.093 99.5 2.091 12.43 2.073 42.896-.033 55.115-9.878 57.299-44.492 104.256-95.788 129.946-48.421 24.25-107.601 24.25-156.022 0-51.464-25.774-86.214-73.029-95.815-130.297-2.121-12.648-2.121-42.116 0-54.764 10.541-62.873 51.565-113.601 110.675-136.854 13.047-5.132 28.757-8.823 46.938-11.027 6.667-.809 36.585.251 44.373 1.571M151.42 176.69c-1.434.421-3.546 1.765-4.694 2.986l-2.086 2.221-.208 73.105c-.163 56.971.025 73.557.853 75.156 1.763 3.405 5.507 5.63 9.444 5.613 3.166-.015 9.425-3.559 56.044-31.741l52.48-31.725.427 28.054c.405 26.637.516 28.174 2.188 30.46.969 1.324 3.251 3.146 5.07 4.049 3.04 1.509 3.588 1.54 6.771.388 5.163-1.869 115.622-68.768 119.091-72.126 2.624-2.541 2.987-3.406 2.987-7.13 0-3.726-.361-4.586-2.987-7.117-3.491-3.365-115.629-71.157-119.844-72.451-3.491-1.071-8.352 1.011-11.088 4.749-1.673 2.286-1.783 3.822-2.188 30.501l-.427 28.094-52.116-31.467c-28.664-17.307-53.24-31.674-54.614-31.927-1.373-.252-3.669-.114-5.103.308" fill-rule="evenodd"/></svg>