<svg xmlns="http://www.w3.org/2000/svg" width="512" height="512"><path d="M241.493 48.673c-39.799 2.563-78.317 17.074-111.786 42.114-10.589 7.922-31.248 28.596-39.155 39.184-21.846 29.252-35.222 61.365-40.767 97.869-2.061 13.574-2.061 42.746 0 56.32 5.546 36.511 18.94 68.661 40.773 97.869 8.04 10.755 28.658 31.373 39.413 39.413 29.208 21.833 61.358 35.227 97.869 40.773 13.574 2.061 42.746 2.061 56.32 0 36.526-5.548 68.754-18.978 97.869-40.785 10.755-8.056 31.345-28.646 39.401-39.401 21.807-29.115 35.237-61.343 40.785-97.869 2.061-13.574 2.061-42.746 0-56.32-6.752-44.453-25.412-83.157-55.294-114.69-36.541-38.56-84.833-61.088-138.36-64.543-13.196-.852-12.782-.853-27.068.066m42.667 33.635c35.838 6.075 67.575 21.95 93.579 46.81 27.61 26.395 45.561 60.682 52.093 99.5 2.091 12.43 2.073 42.896-.033 55.115-9.878 57.299-44.492 104.256-95.788 129.946-48.421 24.25-107.601 24.25-156.022 0-51.464-25.774-86.214-73.029-95.815-130.297-2.121-12.648-2.121-42.116 0-54.764 10.541-62.873 51.565-113.601 110.675-136.854 13.047-5.132 28.757-8.823 46.938-11.027 6.667-.809 36.585.251 44.373 1.571m-96.202 94.291c-3.649.891-8.397 4.586-10.252 7.978-1.379 2.523-1.51 7.8-1.726 69.55-.156 44.708.063 67.922.662 70.148 2.977 11.055 16.807 15.365 25.59 7.974 5.499-4.627 5.512-4.707 5.981-36.189l.427-28.634 56.245 33.954c30.935 18.675 57.52 34.194 59.078 34.486 3.798.713 8.638-1.85 10.679-5.656 1.49-2.779 1.571-6.599 1.571-74.068 0-80.558.405-75.727-6.594-78.822-2.36-1.044-4.604-1.458-6.11-1.128-1.309.288-27.69 15.806-58.624 34.486l-56.245 33.963-.427-28.667c-.4-26.929-.532-28.848-2.174-31.642-3.504-5.965-11.433-9.356-18.081-7.733" fill-rule="evenodd"/></svg>