<svg xmlns="http://www.w3.org/2000/svg" width="512" height="512"><path d="M241.493 48.673c-39.799 2.563-78.317 17.074-111.786 42.114-10.589 7.922-31.248 28.596-39.155 39.184-21.846 29.252-35.222 61.365-40.767 97.869-2.061 13.574-2.061 42.746 0 56.32 5.546 36.511 18.94 68.661 40.773 97.869 8.04 10.755 28.658 31.373 39.413 39.413 29.208 21.833 61.358 35.227 97.869 40.773 13.574 2.061 42.746 2.061 56.32 0 36.526-5.548 68.754-18.978 97.869-40.785 10.755-8.056 31.345-28.646 39.401-39.401 21.807-29.115 35.237-61.343 40.785-97.869 2.061-13.574 2.061-42.746 0-56.32-6.752-44.453-25.412-83.157-55.294-114.69-36.541-38.56-84.833-61.088-138.36-64.543-13.196-.852-12.782-.853-27.068.066m42.667 33.635c35.838 6.075 67.575 21.95 93.579 46.81 27.61 26.395 45.561 60.682 52.093 99.5 2.091 12.43 2.073 42.896-.033 55.115-9.878 57.299-44.492 104.256-95.788 129.946-48.421 24.25-107.601 24.25-156.022 0-51.464-25.774-86.214-73.029-95.815-130.297-2.121-12.648-2.121-42.116 0-54.764 10.541-62.873 51.565-113.601 110.675-136.854 13.047-5.132 28.757-8.823 46.938-11.027 6.667-.809 36.585.251 44.373 1.571m-102.115 95.205c-6.628 3.346-6.258-1.299-6.258 78.629 0 67.469.081 71.289 1.571 74.068 2.041 3.806 6.881 6.369 10.679 5.656 1.558-.292 28.143-15.811 59.078-34.486l56.245-33.954.427 28.634c.469 31.482.482 31.562 5.981 36.189 8.783 7.391 22.613 3.081 25.59-7.974.599-2.226.818-25.44.662-70.148-.229-65.589-.266-66.875-1.981-69.795-.961-1.636-3.349-4.1-5.306-5.476-2.987-2.099-4.388-2.5-8.733-2.5-4.345 0-5.746.401-8.733 2.5-7.048 4.953-6.998 4.705-7.48 37.126l-.427 28.674-23.893-14.431c-77.174-46.613-88.985-53.602-91.307-54.032-1.689-.313-3.769.136-6.115 1.32" fill-rule="evenodd"/></svg>