<svg xmlns="http://www.w3.org/2000/svg" width="512" height="512"><path d="M42.484 112.647c-8.149 1.41-16.353 6.99-20.973 14.265-5.599 8.818-5.298 1.467-5.298 129.167 0 110.255.076 116.066 1.577 120.89 3.027 9.722 10.905 18.109 19.953 21.238 6.343 2.194 16.057 2.043 21.332-.332 2.219-.999 44.527-26.033 94.018-55.632 49.491-29.599 90.203-53.816 90.472-53.816.268 0 .496 17.184.505 38.186.01 21.003.398 40.875.863 44.16 1.725 12.189 9.699 22.821 20.243 26.994 7.191 2.845 16.898 2.741 23.251-.25 8.326-3.919 193.135-114.957 197.445-118.629 2.837-2.417 5.014-5.34 6.827-9.165 2.4-5.065 2.661-6.414 2.661-13.743 0-7.415-.239-8.611-2.723-13.653-1.498-3.04-3.994-6.751-5.547-8.246-2.734-2.633-194.807-118.095-199.38-119.855-16.888-6.497-35.684 3.065-41.769 21.249-1.134 3.389-1.431 10.908-1.834 46.357l-.48 42.312-91.633-54.819c-50.737-30.353-93.201-55.222-95.147-55.721-5.51-1.412-10.001-1.711-14.363-.957m99.727 88.108c50.381 30.133 91.602 55.033 91.602 55.334 0 .703-183.968 110.844-185.143 110.844-.604 0-.883-35.054-.883-111.024 0-102.929.103-110.985 1.411-110.483.776.298 42.632 25.196 93.013 55.329m228.539-.04c50.454 30.172 91.739 55.092 91.745 55.377.006.286-40.98 25.022-91.082 54.971-50.101 29.948-91.957 55.007-93.013 55.686l-1.92 1.234V256.434c0-98.344.15-111.492 1.268-111.063.698.267 42.549 25.172 93.002 55.344" fill-rule="evenodd"/></svg>