<svg xmlns="http://www.w3.org/2000/svg" width="512" height="512"><path d="M269.501 18.247c-2.665 1.096-6.313 3.173-8.107 4.615-1.793 1.442-59.734 59.192-128.757 128.333C-3.742 287.808 4.513 278.966 1.167 292.016c-2.703 10.543-.386 24.566 5.591 33.828 1.409 2.183 31.281 32.623 66.382 67.643 69.749 69.59 66.489 66.743 79.627 69.532 11.141 2.364 24.006-.01 33.26-6.138 5.91-3.914 256.122-253.944 258.116-257.928 3.863-7.721 3.838-7.216 3.848-77.387.01-72.61.088-71.317-4.925-81.459-5.103-10.327-18.447-20.576-29.881-22.954-3.076-.639-26.004-.933-71.68-.919l-67.158.02-4.846 1.993m140.752 31.954c5.586 3.984 5.32.477 5.32 70.3v63.412l-123.52 123.452C181.058 418.3 168.204 430.877 165.286 431.406c-8.127 1.473-4.135 4.957-71.189-62.117l-61.67-61.687v-4.524c0-2.488.423-5.362.941-6.387.518-1.026 56.486-57.456 124.374-125.402L281.173 47.751l63.147.231 63.147.231 2.786 1.988m79.098 15.35c-4.69 2.203-7.736 6.081-8.848 11.266-.623 2.905-.93 25.207-.93 67.653v63.319L348.53 338.774c-74.628 74.596-131.753 132.349-132.693 134.152-3 5.756-1.502 14.608 3.166 18.704 4.707 4.132 12.393 5.384 17.673 2.879 1.481-.703 63.017-61.663 136.747-135.467C492.98 239.365 507.699 224.346 509.525 220.16l2.048-4.693v-70.551c0-69.957-.014-70.57-1.762-72.911-5.387-7.216-13.431-9.754-20.46-6.454m-147.591 16.2c-18.186 6.318-26.84 26.993-18.439 44.056 5.59 11.357 16.016 17.844 28.679 17.844 8.879 0 14.991-2.323 21.31-8.098 12.218-11.167 14.06-29.527 4.287-42.747-3.51-4.749-10.493-9.635-16.243-11.365-5.471-1.647-14.366-1.506-19.594.31" fill-rule="evenodd"/></svg>