<svg xmlns="http://www.w3.org/2000/svg" viewBox="0 0 512 512"><path d="M246.053 17.046c-8.994 1.922-20.719 8.916-26.238 15.652-5.54 6.76-196.167 286.8-199.011 292.356-3.446 6.731-4.591 11.821-4.591 20.409 0 16.769 8.536 32.426 22.142 40.617 9.967 6 197.826 105.765 202.285 107.426 3.773 1.406 6.784 1.757 15.36 1.794 10.325.044 10.891-.05 17.681-2.934 3.858-1.639 50.893-26.403 104.522-55.033 96.41-51.467 97.575-52.12 103.571-58.026 14.319-14.105 18.301-36.617 9.574-54.128-2.328-4.672-194.018-286.208-198.914-292.146-4.395-5.331-12.337-10.883-19.766-13.819-4.777-1.888-7.63-2.407-14.507-2.638-4.709-.159-10.157.053-12.108.47m-6.476 340.831-.217 99.454-92.16-49.129c-50.688-27.021-93.06-49.952-94.161-50.959-3.204-2.93-4.674-6.597-4.679-11.669-.003-3.172.525-5.551 1.608-7.254.888-1.393 43.864-64.549 95.503-140.345L239.36 60.163l.217 99.13c.119 54.522.119 143.884 0 198.584m127.018-159.904c51.043 74.859 93.771 137.812 94.95 139.897 3.826 6.765 2.211 15.666-3.638 20.059-1.868 1.402-151.719 81.726-184.2 98.736-1.421.743-1.494-8.946-1.494-197.819 0-121.362.307-198.285.788-197.79.433.446 42.55 62.059 93.594 136.917" fill-rule="evenodd"/></svg>