<svg xmlns="http://www.w3.org/2000/svg" width="512" height="512"><path d="M172.368 48.584c-4.05 1.232-7.544 3.449-9.282 5.89-1.196 1.68-11.395 41.06-32.587 125.827L99.653 303.683l-28.28.265-28.28.265-3.609 2.347c-9.726 6.323-9.509 21.071.402 27.232 3.205 1.993 3.229 1.995 38.194 2.261 23.489.179 36.026-.039 38.148-.663 3.779-1.11 7.956-4.456 9.647-7.727.675-1.305 11.482-43.39 24.015-93.521 12.534-50.131 22.903-90.778 23.043-90.325.14.453 11.789 70.064 25.885 154.691 19.013 114.143 26.072 154.735 27.343 157.226 1.961 3.844 6.678 7.258 11.143 8.065 6.116 1.105 13.719-2.62 16.56-8.114.669-1.293 12.394-41.467 26.057-89.274 13.662-47.808 24.965-87.048 25.118-87.201.152-.152 3.634 9.827 7.737 22.177 4.104 12.349 8.159 23.845 9.012 25.546 1.978 3.946 5.924 7.265 9.972 8.389 1.859.517 13.86.884 28.975.887l25.802.004 1.292 3.093c.711 1.701 3.031 5.528 5.155 8.505 16.704 23.409 50.151 26.98 71.095 7.59 6.705-6.208 11.001-12.796 13.569-20.811 8.411-26.25-7.696-54.868-34.429-61.171-8.119-1.914-20.106-1.239-27.771 1.564-11.069 4.048-21.556 13.539-26.878 24.324l-2.21 4.48h-38.911l-14.244-42.88c-7.833-23.584-15.136-44.274-16.228-45.977-3.734-5.827-13.26-8.446-19.419-5.339-5.092 2.568-7.371 5.512-9.477 12.24-1.108 3.54-11.363 39.199-22.789 79.243-13.514 47.358-20.991 72.264-21.392 71.253-.34-.854-12.193-71.25-26.341-156.434C201.887 121.54 191.245 59.679 190.326 57.6c-1.924-4.356-4.671-6.858-9.338-8.504-4.032-1.423-5.364-1.502-8.62-.512M439.467 305.94c3.017 1.553 5.675 4.606 7.212 8.284 4.568 10.933-5.219 23.481-16.86 21.62-11.193-1.79-16.996-14.239-11.226-24.084 4.118-7.026 13.466-9.633 20.874-5.82" fill-rule="evenodd"/></svg>