<svg xmlns="http://www.w3.org/2000/svg" width="512" height="512"><path d="M70.105 81.659c-5.254 2.589-19.618 20.337-31.123 38.458-6.825 10.749-17.928 33.048-22.195 44.576-7.022 18.973-12.588 41.414-15.238 61.44-1.407 10.628-1.407 49.106 0 59.734 4.874 36.828 16.602 71.076 34.765 101.517 11.403 19.111 28.667 40.914 34.243 43.243 9.821 4.104 21.237-2.659 22.247-13.179.542-5.634-.903-8.503-9.54-18.941C58 367.973 41.988 332.552 34.813 291.33c-1.683-9.674-1.916-13.961-1.916-35.33 0-21.363.234-25.669 1.92-35.413 7.16-41.378 23.23-76.676 49.139-107.935 7.933-9.572 9.383-12.537 8.848-18.1-1.032-10.739-13.127-17.609-22.699-12.893m357.559.385c-6.925 3.428-10.518 12.659-7.6 19.527.692 1.629 4.551 6.945 8.575 11.812 25.881 31.308 42.563 68.835 48.981 110.19 2.163 13.943 2.163 50.911 0 64.854-6.299 40.585-22.532 77.6-47.462 108.224-9.527 11.703-10.524 13.341-10.975 18.03-.536 5.576 2.157 11.26 6.785 14.323 4.162 2.754 10.946 3.516 15.259 1.713 5.787-2.417 22.848-23.873 34.459-43.333 18.397-30.835 30.211-65.613 34.774-102.371 1.445-11.638 1.445-46.388 0-58.026-4.563-36.758-16.377-71.536-34.774-102.371-11.329-18.988-28.11-40.23-33.984-43.017-4.036-1.915-9.628-1.738-14.038.445m-301.17 44.76c-3.298 1.683-10.191 8.963-17.128 18.09-26.429 34.776-40.299 81.231-36.932 123.693 2.978 37.554 16.11 71.697 38.724 100.683 7.435 9.53 13.079 15.168 16.477 16.46 9.179 3.49 20.372-3.354 21.474-13.129.626-5.559-.876-8.911-7.521-16.778-13.309-15.757-23.48-33.469-29.329-51.072-17.201-51.771-6.454-106.208 29.329-148.574 3.293-3.898 6.427-8.422 6.966-10.054 2.147-6.505-.61-13.985-6.69-18.151-3.824-2.621-11.395-3.196-15.37-1.168m245.986-.169c-5.613 2.474-9.813 8.719-9.813 14.592 0 4.575 1.738 7.899 7.965 15.226 12.925 15.209 23.3 33.314 29.109 50.796 17.201 51.771 6.454 106.208-29.329 148.574-6.645 7.867-8.147 11.219-7.521 16.778 1.102 9.775 12.295 16.619 21.474 13.129 3.417-1.299 9.068-6.959 16.435-16.46 22.887-29.519 35.66-62.702 38.755-100.683 2.958-36.296-7.61-78.631-27.451-109.965-9.661-15.258-22.664-30.422-27.739-32.352-3.041-1.156-8.837-.978-11.885.365m-195.84 51.664c-4.984 2.641-14.34 15.116-20.42 27.225-13.39 26.67-15.676 57.244-6.381 85.346 3.093 9.35 8.138 20.052 12.501 26.519 5.394 7.993 11.89 15.288 14.878 16.706 9.072 4.305 20.132-.967 22.469-10.711 1.358-5.663.018-9.861-5.229-16.374-12.606-15.648-17.956-30.846-17.956-51.01 0-20.164 5.35-35.362 17.956-51.01 5.222-6.483 6.615-10.798 5.243-16.247-1.172-4.655-3.378-7.628-7.552-10.179-3.987-2.435-11.183-2.559-15.509-.265m143.211.265c-4.174 2.551-6.38 5.524-7.552 10.179-1.372 5.449.021 9.764 5.243 16.247 12.606 15.648 17.956 30.846 17.956 51.01 0 20.152-5.319 35.278-17.966 51.089-5.276 6.596-6.574 10.648-5.219 16.295 2.349 9.793 13.398 15.015 22.565 10.665 4.414-2.094 13.312-13.372 19.838-25.142 3.383-6.104 8.366-19.466 10.577-28.366 2.52-10.146 3.137-30.636 1.264-42.032-2.395-14.579-9.425-32.838-16.902-43.898-5.42-8.018-11.41-14.785-14.474-16.352-4.471-2.286-11.31-2.15-15.33.305m-74.658 47.393c-12.563 4.48-20.959 16.515-20.959 30.043 0 17.852 13.941 31.813 31.766 31.813 13.454 0 25.123-8.117 30.027-20.887 2.414-6.285 2.354-15.677-.141-22.262-2.457-6.484-9.627-14.265-16.033-17.399-6.354-3.109-17.894-3.721-24.66-1.308" fill-rule="evenodd"/></svg>