<svg xmlns="http://www.w3.org/2000/svg" width="512" height="512"><path d="M235.681 17.497c-58.948 9.015-104.345 51.581-119.629 112.168-1.367 5.42-2.801 11.576-3.186 13.679-.694 3.789-.74 3.831-4.943 4.532-31.028 5.171-60.353 25.044-73.54 49.837-8.73 16.412-12.186 36.648-9.617 56.305 3.04 23.273 10.726 39.314 25.686 53.614 11.541 11.031 22.873 17.616 38.721 22.498 19.059 5.872 9.779 5.507 149.334 5.871 131.408.343 139.696.171 154.88-3.222 42.691-9.54 75.471-37.828 88.601-76.46 3.906-11.492 5.519-22.171 5.593-37.012.078-15.754-1.188-24.562-5.425-37.738-12.529-38.969-47.757-67.778-93.751-76.668-3.519-.681-5.572-1.524-5.877-2.413-1.696-4.957-9.417-19.622-13.599-25.831-20.414-30.307-50.76-50.883-85.535-57.996-11.022-2.254-36.516-2.876-47.713-1.164m29.706 31.161c5.397.471 13.077 1.666 17.066 2.656 29.7 7.369 56.508 30.838 69.213 60.592 6.473 15.16 13.088 20.516 29.911 24.223 17.234 3.797 27.488 7.86 38.756 15.357 24.98 16.621 36.453 40.286 35.113 72.425-.539 12.937-2.821 22.048-8.206 32.756-12.449 24.757-38.497 42.338-68.547 46.266-4.886.639-47.088.837-136.773.643-121.201-.261-130.126-.38-136.107-1.81-20.965-5.013-36.007-15.922-43.413-31.483-4.849-10.189-5.657-14.44-5.631-29.643.02-12.14.208-13.741 2.286-19.486 7.861-21.729 26.333-35.825 54.865-41.867 10.671-2.259 16.205-4.933 21.147-10.216 5.459-5.836 7.088-9.541 9.947-22.624 6.008-27.489 15.796-47.222 31.816-64.146 18.85-19.914 42.347-31.418 68.581-33.579 4.651-.383 8.84-.747 9.309-.809.469-.061 5.269.274 10.667.745M138.824 369.003c-1.792.65-4.056 1.89-5.032 2.756-3.583 3.177-37.117 54.54-37.563 57.532-.631 4.239 1.312 10.744 4.071 13.623 5.203 5.432 14.506 6.473 20.598 2.306 1.801-1.232 8.854-11.028 19.808-27.513 9.356-14.08 17.473-26.522 18.038-27.648 1.608-3.208 1.242-9.585-.777-13.543-3.229-6.329-12.441-9.944-19.143-7.513m81.202-.403c-6.016 1.867-7.346 3.616-40.223 52.902-18.029 27.028-33.413 50.364-34.185 51.858-2.76 5.337-1.082 14.327 3.411 18.27 5.155 4.525 12.88 5.445 18.651 2.223 2.943-1.643 8.101-8.922 37.399-52.774 35.849-53.659 35.737-53.46 34.344-60.883-.635-3.386-4.651-8.463-8.083-10.219-3.039-1.554-8.574-2.228-11.314-1.377m80.342-.035c-6.465 2.023-7.402 3.136-25.537 30.323-11.305 16.947-18.087 27.918-18.449 29.848-1.362 7.26 1.901 13.817 8.532 17.145 5.233 2.627 9.233 2.683 14.159.199 3.431-1.73 5.424-4.32 20.191-26.24C317.317 393.044 320 388.436 320 384.232c0-5.497-3.796-11.854-8.533-14.292-2.906-1.495-8.5-2.188-11.099-1.375m79.47.051c-1.585.388-3.889 1.432-5.12 2.318-2.509 1.807-65.667 95.571-68.867 102.239-2.602 5.423-2.591 8.43.054 13.699 3.093 6.161 6.958 8.488 14.095 8.488 4.648 0 6.236-.385 8.795-2.133 2.315-1.581 11.746-15.068 36.402-52.054 18.303-27.456 33.711-51.18 34.24-52.72 1.263-3.675.334-9.564-2.073-13.137-3.474-5.158-11.422-8.197-17.526-6.7" fill-rule="evenodd"/></svg>