<svg xmlns="http://www.w3.org/2000/svg" width="512" height="512"><path d="M128.853 33.743c-3.05.649-9.194 3.002-13.653 5.229-6.842 3.418-9.376 5.32-16.244 12.192-6.612 6.616-8.814 9.502-11.745 15.396-1.984 3.989-4.371 10.291-5.303 14.003-1.662 6.621-1.695 9.974-1.695 175.437 0 165.463.033 168.816 1.695 175.437.932 3.712 3.319 10.014 5.303 14.003 2.922 5.874 5.155 8.808 11.745 15.428 6.819 6.85 9.408 8.809 15.978 12.09C130.02 480.492 120.164 480 256 480s125.98.492 141.066-7.042c6.57-3.281 9.159-5.24 15.978-12.09 6.59-6.62 8.823-9.554 11.745-15.428 1.984-3.989 4.371-10.291 5.303-14.003 1.662-6.621 1.695-9.974 1.695-175.437 0-165.463-.033-168.816-1.695-175.437-.932-3.712-3.319-10.014-5.303-14.003-2.931-5.894-5.133-8.78-11.745-15.396-6.874-6.878-9.396-8.77-16.244-12.186-13.902-6.934-5.038-6.528-141.227-6.469-99.774.044-122.153.262-126.72 1.234m246.739 31.418c12.598 2.965 21.924 13.276 23.811 26.326 1.026 7.093 1.026 321.933 0 329.026-1.53 10.577-8.046 19.465-17.787 24.261l-5.687 2.799H136.107l-4.88-2.287c-10.073-4.721-17.074-14.009-18.62-24.705-1.035-7.157-1.044-321.941-.01-329.094 1.857-12.84 11.189-23.316 23.41-26.282 6.618-1.606 232.772-1.648 239.585-.044m-203.145 47.238c-3.757.723-8.537 4.438-10.395 8.08-3.801 7.451-1.204 16.937 5.834 21.313l3.207 1.995h169.814l3.207-1.995c10.212-6.348 10.096-21.256-.211-27.316l-3.85-2.263-82.773-.105c-45.525-.058-83.7.073-84.833.291m-3.06 81.214c-4.707 2.172-7.291 5.249-8.579 10.213-1.106 4.262-.711 8.262 1.159 11.757 1.413 2.64 6.688 7.018 9.355 7.765 3.046.852 166.31.852 169.356 0 2.667-.747 7.942-5.125 9.355-7.765 1.87-3.495 2.265-7.495 1.159-11.757-1.288-4.964-3.872-8.041-8.579-10.213-3.244-1.498-7.526-1.576-86.613-1.576s-83.369.078-86.613 1.576m0 79.942c-6.146 3.197-9.204 7.996-9.204 14.445 0 6.539 4.088 12.683 9.899 14.879 1.583.598 17.216.908 45.811.908 28.596 0 44.229-.31 45.811-.908 5.304-2.004 10.472-9.347 10.472-14.879s-5.168-12.875-10.472-14.879c-1.583-.598-17.281-.906-46.08-.902-37.904.004-44.016.181-46.237 1.336" fill-rule="evenodd"/></svg>