<svg xmlns="http://www.w3.org/2000/svg" width="512" height="512"><path d="M241.493 48.673c-39.799 2.563-78.317 17.074-111.786 42.114-10.589 7.922-31.248 28.596-39.155 39.184-21.846 29.252-35.222 61.365-40.767 97.869-2.061 13.574-2.061 42.746 0 56.32 5.546 36.511 18.94 68.661 40.773 97.869 8.04 10.755 28.658 31.373 39.413 39.413 29.208 21.833 61.358 35.227 97.869 40.773 13.574 2.061 42.746 2.061 56.32 0 36.526-5.548 68.754-18.978 97.869-40.785 10.755-8.056 31.345-28.646 39.401-39.401 21.807-29.115 35.237-61.343 40.785-97.869 2.061-13.574 2.061-42.746 0-56.32-6.752-44.453-25.412-83.157-55.294-114.69-36.541-38.56-84.833-61.088-138.36-64.543-13.196-.852-12.782-.853-27.068.066m42.667 33.635c35.838 6.075 67.575 21.95 93.579 46.81 27.61 26.395 45.561 60.682 52.093 99.5 2.091 12.43 2.073 42.896-.033 55.115-9.878 57.299-44.492 104.256-95.788 129.946-48.421 24.25-107.601 24.25-156.022 0-51.464-25.774-86.214-73.029-95.815-130.297-2.121-12.648-2.121-42.116 0-54.764 10.541-62.873 51.565-113.601 110.675-136.854 13.047-5.132 28.757-8.823 46.938-11.027 6.667-.809 36.585.251 44.373 1.571m-32.696 53.755c-6.104 2.177-9.117 6.422-9.117 12.844 0 5.335 1.255 7.365 9.751 15.767 4.024 3.979 7.315 7.474 7.315 7.766 0 .292-4.128.758-9.173 1.036-23.339 1.286-45.362 11.482-61.819 28.618-16.489 17.171-25.06 37.307-26.031 61.159-1.5 36.816 17.917 70.308 50.548 87.19 46.492 24.053 103.886 5.139 127.331-41.963 8.275-16.624 12.131-40.487 7.79-48.21-3.674-6.538-13.493-9-19.567-4.907-4.67 3.147-6.135 6.618-6.893 16.329-.787 10.09-3.104 18.365-7.313 26.121-8.501 15.665-22.533 27.219-39.543 32.56-5.456 1.713-8.145 2-18.743 2-13.345 0-19.804-1.349-29.418-6.144-15.151-7.557-28.603-23.478-33.743-39.936-2.656-8.503-3.246-23.332-1.31-32.889 3.281-16.188 13.366-31.346 27.143-40.791 11.159-7.65 22.795-11.187 36.888-11.212l8.52-.014-9.921 10.026c-5.456 5.515-10.346 10.866-10.866 11.891-1.536 3.026-1.141 9.753.756 12.864 1.95 3.198 6.047 5.945 9.975 6.687 5.998 1.134 8.081-.426 31.294-23.436 12.136-12.03 22.6-23.108 23.254-24.618.653-1.511 1.188-4.115 1.188-5.788 0-1.672-.535-4.277-1.188-5.787-.654-1.51-11.118-12.599-23.254-24.642-18.255-18.115-22.654-22.056-25.478-22.822-4.198-1.139-4.356-1.133-8.376.301" fill-rule="evenodd"/></svg>