<svg xmlns="http://www.w3.org/2000/svg" width="512" height="512"><path d="M225.707 48.684c-57.511 3.584-111.531 31.874-148.194 77.609-40.703 50.775-55.114 117.88-38.943 181.334 16 62.78 61.898 115.843 121.318 140.257 26.846 11.03 51.301 15.897 79.472 15.817 25.145-.072 43.298-2.985 66.56-10.679 58.029-19.193 104.588-63.381 127.574-121.076 4.917-12.342 4.439-18.007-1.996-23.657-5.58-4.9-11.889-5.461-18.74-1.669-3.789 2.098-5.496 4.638-8.99 13.38-8.813 22.049-18.859 38.285-33.555 54.233-34.61 37.558-79.821 57.554-130.134 57.554-87.221 0-160.093-62.552-174.108-149.45-1.963-12.169-1.963-40.505 0-52.674 11.32-70.186 61.477-125.925 129.442-143.848 24.748-6.526 54.346-7.309 80.214-2.123 25.764 5.166 54.091 18.59 75.271 35.671 7.019 5.661 25.422 24.535 25.422 26.073 0 .507-11.546 12.439-25.658 26.516-14.112 14.077-26.4 27.019-27.307 28.761-1.926 3.699-2.146 9.779-.495 13.728 1.384 3.313 6.514 8.003 9.742 8.907 1.282.358 28.666.652 60.852.652h58.521l4.122-2.56c2.565-1.593 4.796-3.85 5.906-5.973 1.751-3.352 1.788-4.464 2.014-61.284.15-37.535-.076-59.011-.642-61.116-2.532-9.401-13.849-14.19-22.683-9.598-1.847.961-11.784 10.202-22.082 20.536l-18.723 18.789-10.115-10.582c-12.289-12.856-20.372-19.688-34.287-28.981-24.483-16.35-53.052-27.698-81.599-32.411-7.581-1.252-30.987-3.139-35.806-2.886-1.173.061-6.741.399-12.373.75" fill-rule="evenodd"/></svg>