<svg xmlns="http://www.w3.org/2000/svg" width="512" height="512"><path d="M89.157 97.616c-3.622 1.578-7.901 6.748-8.58 10.366-1.441 7.681 1.978 15.108 8.383 18.208l3.739 1.81h326.602l3.739-1.81c6.405-3.1 9.824-10.527 8.383-18.208-.697-3.713-5.012-8.833-8.769-10.402-4.041-1.689-329.619-1.654-333.497.036m-.267 96.215c-6.79 3.361-10.345 12.288-7.875 19.773 1.472 4.459 6.651 8.743 11.941 9.877 6.241 1.339 319.847 1.339 326.088 0 5.29-1.134 10.469-5.418 11.941-9.877 2.485-7.529-1.11-16.485-7.945-19.794l-3.739-1.81-163.357.001H92.587l-3.697 1.83m.267 95.785c-3.622 1.578-7.901 6.748-8.58 10.366-1.441 7.681 1.978 15.108 8.383 18.208l3.739 1.81h326.602l3.739-1.81c6.405-3.1 9.824-10.527 8.383-18.208-.697-3.713-5.012-8.833-8.769-10.402-4.041-1.689-329.619-1.654-333.497.036m-.267 96.215c-6.79 3.361-10.345 12.288-7.875 19.773 1.472 4.459 6.651 8.743 11.941 9.877 6.241 1.339 319.847 1.339 326.088 0 5.29-1.134 10.469-5.418 11.941-9.877 2.485-7.529-1.11-16.485-7.945-19.794l-3.739-1.81-163.357.001H92.587l-3.697 1.83" fill-rule="evenodd"/></svg>