<svg xmlns="http://www.w3.org/2000/svg" width="512" height="512"><path d="M313.6 105.449c-5.384 2.8-9.749 9.003-9.795 13.919-.054 5.857 1.955 8.945 13.526 20.792l11.459 11.733h-92.567c-60.92 0-95.745.32-101.863.936-44.875 4.516-80.668 39.9-85.661 84.683-1.496 13.418-1.169 28.519.705 32.568 4.808 10.384 17.151 13.183 25.157 5.706 4.718-4.408 5.612-7.813 5.64-21.493.014-6.805.429-14.862.922-17.903 3.519-21.69 21.175-41.859 43.226-49.38l6.638-2.263 98.943-.234 98.943-.235-11.599 11.786c-11.773 11.96-13.504 14.619-13.464 20.683.019 2.918 2.731 8.561 5.209 10.839 2.732 2.511 7.726 4.525 11.167 4.502 5.882-.039 9.192-2.771 35.793-29.542 28.653-28.837 28.865-29.125 27.638-37.554-.592-4.067-1.072-4.61-27.603-31.224-14.851-14.896-28.223-27.664-29.717-28.373-3.506-1.664-9.443-1.639-12.697.054m128 127.951c-8.155 4.396-9.771 8.429-9.795 24.445-.036 24.557-4.852 37.298-19.62 51.915-10.963 10.851-23.004 16.356-39.227 17.935-9.266.902-189.491 1.149-189.491.26 0-.318 5.143-5.804 11.429-12.191 8.829-8.97 11.643-12.382 12.369-14.995 1.303-4.693 1.161-7.099-.656-11.098-3.841-8.456-14.077-11.966-22.26-7.632-1.189.63-13.937 12.981-28.328 27.446-28.656 28.806-28.866 29.09-27.638 37.523.592 4.064 1.088 4.627 27.63 31.322 14.994 15.082 28.249 27.714 29.773 28.374 3.268 1.415 8.585 1.541 11.918.282 5.055-1.91 10.444-9.283 10.491-14.354.054-5.857-1.955-8.945-13.526-20.792l-11.459-11.733 95.488-.004c80.435-.003 96.723-.203 103.315-1.273 31.964-5.184 58.203-24.463 72.013-52.91 7.429-15.303 10.187-28.876 10.187-50.132 0-9.227-.236-10.982-1.92-14.278-2.95-5.774-7.321-8.805-13.239-9.18-3.381-.214-5.685.117-7.454 1.07" fill-rule="evenodd"/></svg>