<svg xmlns="http://www.w3.org/2000/svg" width="512" height="512"><path d="M297.387 81.555c-6.146 3.197-9.204 7.996-9.204 14.445 0 6.539 4.088 12.683 9.899 14.879 1.568.592 15.792.908 40.959.908h38.557L244.906 244.482 112.213 377.177l-.426-39.468c-.3-27.766-.721-39.975-1.42-41.176-1.552-2.667-5.596-6.201-8.236-7.199-3.319-1.254-9.479-1.136-12.785.246-3.665 1.531-8.073 6.666-8.7 10.135-.277 1.535-.392 29.732-.255 62.66l.249 59.867 2.581 3.189c5.47 6.757 1.146 6.356 68.473 6.356 49.039 0 60.489-.215 62.733-1.175 6.509-2.785 10.553-10.894 8.969-17.984-.985-4.412-2.431-6.594-6.351-9.585l-3.15-2.403-39.536-.427-39.536-.426 132.695-132.693 132.695-132.692v38.557c0 25.112.316 39.394.906 40.959 2.123 5.632 8.475 9.826 14.881 9.826 6.406 0 12.758-4.194 14.881-9.826.607-1.611.906-22.086.906-62.123 0-53.367-.147-60.01-1.383-62.451-1.964-3.878-3.708-5.666-7.33-7.515-3.018-1.54-5.967-1.615-63.147-1.61-52.676.004-60.292.167-62.54 1.336" fill-rule="evenodd"/></svg>