<svg xmlns="http://www.w3.org/2000/svg" width="512" height="512"><path d="M392.923 17.875c-5.29 2.692-86.038 84.138-91.148 91.935-9.848 15.028-14.139 30.953-14.187 52.655l-.015 6.732-6.47 6.773c-7.011 7.338-8.89 10.708-8.89 15.947 0 6.54 3.481 11.747 9.814 14.679 7.62 3.528 13.143 1.231 24.2-10.062 5.915-6.041 8.678-9.625 10.647-13.813 2.593-5.512 2.675-6.063 3.24-21.868.632-17.671 1.108-20.104 5.676-29.013 2.75-5.365 7.406-10.337 45.685-48.79 39.862-40.043 42.691-43.082 43.658-46.893 2.57-10.12-3.757-19.077-13.936-19.729-3.635-.234-5.674.123-8.274 1.447M53.839 32.193c-6.561 1.237-16.132 12.109-22.352 25.389-16.1 34.374-8.671 82.995 19.537 127.877 12.171 19.364 19.512 27.436 76.237 83.829 27.514 27.353 44.903 43.99 48.325 46.237 13.503 8.863 32.7 12.531 47.987 9.168 10.845-2.385 13.027-1.712 22.875 7.06 10.338 9.207 10.619 9.746 11.38 21.818.775 12.29 2.796 19.556 7.411 26.651 4.309 6.624 98.422 102.413 104.744 106.609 6.223 4.131 11.189 6.247 18.09 7.71 29.485 6.248 57.848-12.508 63.815-42.199 2.544-12.658-.364-27.93-7.271-38.183-2.081-3.09-74.849-76.435-191.348-192.866C89.244 57.362 64.845 33.295 61.867 32.497c-3.502-.938-4.471-.975-8.028-.304m379.228 25.479c-4.378 2.36-85.735 83.983-87.535 87.821-2.025 4.318-2.034 8.45-.026 12.8 3.866 8.376 12.989 11.929 21.001 8.178 4.219-1.974 86.934-84.652 88.274-88.233 1.362-3.64 1.075-10.047-.596-13.324-.82-1.609-2.946-4.088-4.723-5.508-2.679-2.14-4.14-2.628-8.534-2.848-3.683-.184-6.083.156-7.861 1.114m-14.002 377.046c4.409 10.249-.564 22.455-11.061 27.146-5.118 2.287-12.589 2.217-17.509-.164-2.765-1.339-16.325-14.604-50.449-49.351-25.667-26.135-47.397-48.95-48.29-50.7-1.178-2.309-1.627-5.002-1.637-9.828-.02-8.66-1.878-17.241-5.227-24.141-2.085-4.294-4.865-7.689-12.312-15.031-15.724-15.504-23.728-19.851-37.913-20.591a72.495 72.495 0 0 0-15.944.924c-9.215 1.584-14.857.969-22.303-2.432-4.184-1.911-10.666-8.014-47.393-44.622-57.32-57.134-62.84-63.339-74.707-83.992-8.517-14.821-14.138-29.386-17.166-44.482-2.805-13.982-1.906-35.574 1.766-42.435.939-1.754 12.075 9.204 179.656 176.784 153.049 153.048 178.919 179.265 180.489 182.915M473.6 97.377c-1.173.463-21.141 19.761-44.373 42.885-23.876 23.765-44.095 43.194-46.507 44.691-8.41 5.219-13.69 6.391-31.643 7.028-15.773.559-16.453.657-21.76 3.159-7.193 3.39-20.226 15.564-23.328 21.79-2.597 5.21-2.739 8.39-.585 13.043 2.932 6.333 8.139 9.814 14.679 9.814 5.239 0 8.609-1.879 15.947-8.89l6.773-6.47 6.732-.015c21.702-.048 37.627-4.339 52.655-14.187 8.06-5.282 89.377-85.994 91.909-91.225 3.973-8.206.572-17.963-7.458-21.398-3.147-1.347-9.904-1.463-13.041-.225M119.467 314.716c-2.112 1.387-24.222 23.015-49.134 48.063-43.013 43.248-45.449 45.863-48.392 51.941-4.59 9.481-5.976 16.482-5.49 27.733.673 15.589 5.288 26.186 16.075 36.914 11.029 10.969 21.414 15.508 37.021 16.182 11.248.486 18.247-.899 27.733-5.487 6.123-2.962 8.721-5.409 59.974-56.499 29.466-29.372 54.618-54.908 55.894-56.747 1.964-2.832 2.318-4.223 2.315-9.098-.002-5.128-.283-6.101-2.581-8.94-1.418-1.752-3.906-3.897-5.53-4.768-3.572-1.916-11.046-2.103-14.328-.358-1.267.673-25.536 24.515-53.931 52.98-28.394 28.466-52.97 52.624-54.613 53.684-9.432 6.09-21.937 4.352-29.718-4.129-4.791-5.221-6.279-8.955-6.322-15.861-.067-10.559-1.136-9.26 48.803-59.313 49.844-49.958 48.453-48.26 46.257-56.469-2.03-7.591-6.97-11.566-14.961-12.039-4.641-.275-5.667-.024-9.072 2.211" fill-rule="evenodd"/></svg>