<svg xmlns="http://www.w3.org/2000/svg" width="512" height="512"><path d="M105.387 145.537c-3.287 1.686-70.072 68.246-71.858 71.616-1.73 3.264-1.73 10.43 0 13.694 1.969 3.715 69.721 70.994 72.553 72.047 9.538 3.545 20.57-3.102 21.694-13.071.83-7.361-.247-8.88-21.397-30.196l-19.685-19.84H221.48c85.894.001 138.192.32 144.173.881 20.885 1.957 37.482 9.499 52.874 24.028 9.057 8.549 15.232 17.042 20.522 28.225 6.796 14.365 8.951 26.103 8.951 48.761 0 12.134.197 14.027 1.81 17.358 3.309 6.835 12.265 10.43 19.794 7.945 4.459-1.472 8.743-6.651 9.877-11.941 1.956-9.119.55-36.471-2.559-49.791-5.849-25.054-17.62-45.871-35.83-63.361-19.014-18.262-42.161-29.393-68.108-32.75-4.916-.636-51.126-.929-146.733-.929H86.694l19.685-19.84c21.15-21.316 22.227-22.835 21.397-30.196-1.161-10.3-13.438-17.231-22.389-12.64" fill-rule="evenodd"/></svg>