<svg xmlns="http://www.w3.org/2000/svg" width="512" height="512"><path d="M41.387 145.507c-3.489 1.88-6.299 4.604-7.908 7.666-2.95 5.611-2.009 38.511 1.525 53.334 6.123 25.683 17.609 46.029 35.904 63.601 13.165 12.644 27.575 21.47 44.292 27.126 19.481 6.593 5.018 6.041 165.919 6.326l144.159.256-19.671 19.825c-21.135 21.301-22.213 22.822-21.383 30.182 1.124 9.969 12.156 16.616 21.694 13.071 3.676-1.367 71.744-69.714 72.891-73.192 1.192-3.61 1.19-7.799-.004-11.419-1.15-3.483-69.185-71.782-72.887-73.169-9.514-3.566-20.57 3.091-21.694 13.063-.83 7.361.247 8.88 21.397 30.196l19.685 19.84-137.773-.005c-149.951-.005-146.853.087-161.043-4.781-14.119-4.843-25.249-11.924-35.745-22.74-8.144-8.393-12.874-15.208-17.839-25.702C66.157 204.719 64 192.931 64 170.318c0-15.863-1.063-19.405-7.007-23.339-4.281-2.833-11.771-3.54-15.606-1.472" fill-rule="evenodd"/></svg>