<svg xmlns="http://www.w3.org/2000/svg" width="512" height="512"><path d="M242.773 16.706c-17.547 2.441-25.03 4.134-36.266 8.206-30.006 10.874-56.609 32.732-73.534 60.421-5.151 8.427-6.14 10.437-10.612 21.564-7.02 17.466-10.06 33.515-10.06 53.103 0 20.024 3.083 35.892 10.545 54.271l4.22 10.396-46.848 84.317c-25.767 46.374-47.257 85.831-47.755 87.681-.498 1.851-.743 3.887-.543 4.524.2.637.594 2.207.874 3.489.634 2.893 4.985 7.943 8.506 9.872 2.397 1.313 6.948 1.45 48.247 1.45h45.601l21.611 36.267c11.886 19.946 22.65 37.377 23.92 38.735 6.201 6.629 16.854 6.412 22.892-.465 1.611-1.835 11.891-23.421 27.289-57.3 13.587-29.897 24.9-54.357 25.14-54.357.24 0 11.553 24.46 25.14 54.357 15.398 33.879 25.678 55.465 27.289 57.3 6.038 6.877 16.707 7.094 22.883.465 1.265-1.358 12.027-18.789 23.916-38.735L376.843 416h45.605c50.123 0 47.898.221 52.968-5.257 4.303-4.65 5.528-9.473 3.801-14.971-.633-2.016-22.101-41.46-47.707-87.654l-46.556-83.988 1.349-3.052c6.113-13.837 10.019-26.851 12.314-41.025 1.381-8.528 1.367-31.073-.025-40.106-7.398-48.027-36.089-87.534-79.229-109.099-11.655-5.826-24.345-9.932-39.028-12.627-6.592-1.21-32.3-2.246-37.562-1.515m33.28 33.341c28.941 4.719 56.621 23.106 73.626 48.907 20.234 30.7 23.766 70.84 9.222 104.82-14.619 34.154-44.624 58.497-81.376 66.019-12.635 2.586-31.087 2.572-43.466-.032-35.999-7.573-65.699-31.389-80.2-64.31-24.114-54.743-1.427-118.489 51.688-145.237 21.958-11.058 44.822-14.355 70.506-10.167M242.91 81.051c-29.977 5.44-54.128 26.581-63.183 55.309-10.637 33.75 2.516 70.453 32.326 90.203 7.616 5.045 14.149 7.996 24.051 10.862 5.649 1.635 8.692 1.93 19.896 1.93s14.247-.295 19.896-1.93c14.93-4.322 26.549-11.042 36.705-21.232 12.992-13.033 20.713-29.237 22.929-48.118 2.695-22.976-6.073-47.52-22.928-64.183-7.169-7.086-12.4-10.886-20.948-15.215-11.061-5.601-19.764-7.725-33.094-8.074-6.336-.166-13.379.036-15.65.448m27.632 33.321c11.438 3.325 22.546 12.903 28.175 24.295 6.933 14.03 6.937 28.599.014 42.666-5.143 10.449-15.034 19.576-25.428 23.465a49.207 49.207 0 0 1-34.606 0c-10.394-3.889-20.285-13.016-25.428-23.465-6.918-14.056-6.918-28.61 0-42.666 5.143-10.448 15.051-19.538 25.664-23.545 9.378-3.541 21.056-3.818 31.609-.75M168.125 273.914c15.782 12.063 33.785 20.82 52.462 25.52 9.715 2.445 22.142 4.345 28.444 4.349 2.973.002 5.277.335 5.12.74-.156.404-14.639 32.292-32.184 70.86l-31.9 70.125-14.586-24.479c-15.633-26.236-18.791-30.266-26.797-34.197l-4.897-2.405-33.92-.25c-18.656-.138-33.92-.517-33.92-.842 0-.326 16.031-29.458 35.626-64.738l35.625-64.147 7.255 7.279c3.989 4.004 10.142 9.487 13.672 12.185m232.338 44.379c19.059 34.496 34.899 63.376 35.199 64.177.508 1.355-1.818 1.473-33.452 1.706l-33.997.251-4.897 2.405c-8.003 3.929-11.171 7.97-26.804 34.184l-14.586 24.46-24.003-52.792c-13.202-29.036-23.997-53.14-23.99-53.565.033-1.9 17.617-39.064 18.76-39.65.704-.36 4.544-1.689 8.534-2.952 20.239-6.411 40.664-19.035 56.32-34.809 3.989-4.02 7.48-7.045 7.758-6.722.278.323 16.099 28.811 35.158 63.307" fill-rule="evenodd"/></svg>