<svg xmlns="http://www.w3.org/2000/svg" width="512" height="512"><path d="M207.349 48.67c-38.367 2.727-76.045 19.475-104.95 46.653-65.977 62.034-72.76 164.168-15.603 234.93 6.608 8.181 21.842 22.89 30.211 29.169 34.491 25.879 78.62 38.231 121.196 33.924 31.341-3.17 64.448-16.211 87.48-34.459l5.837-4.624 54.187 54.058c48.778 48.662 54.558 54.155 57.909 55.034 12.194 3.198 22.937-7.545 19.739-19.739-.879-3.351-6.372-9.131-55.034-57.909l-54.058-54.187 4.624-5.837c18.248-23.032 31.289-56.139 34.459-87.48 5.018-49.61-12.119-99.661-46.466-135.704-36.73-38.545-86.176-57.621-139.531-53.829m29.416 32.433c11.153 1.278 19.361 3.092 29.475 6.516 36.792 12.456 66.882 39.636 82.965 74.941 8.313 18.251 11.728 33.227 12.36 54.214.726 24.071-3.004 42.679-12.85 64.111-10.773 23.451-31.528 46.778-53.661 60.312-22.625 13.836-47.014 20.68-73.751 20.696-38.907.025-75.308-15.444-101.844-43.278-29.98-31.446-43.562-73.024-37.93-116.118 4.09-31.295 17.499-58.407 40.03-80.938 18.67-18.67 42.484-32.034 67.454-37.856 13.457-3.137 33.524-4.23 47.752-2.6" fill-rule="evenodd"/></svg>