<svg xmlns="http://www.w3.org/2000/svg" width="512" height="512"><path d="M34.56 48.915c-6.999 2.072-13.368 7.208-16.332 13.17-1.506 3.03-1.588 6.502-1.588 67.195v64l2.341 3.982c3.065 5.214 8.202 9.53 13.236 11.121 2.227.704 59.432 11.779 127.121 24.612 67.69 12.833 122.986 23.414 122.88 23.514-.105.1-56.252 10.818-124.77 23.819-95.636 18.146-125.49 24.1-128.503 25.627-4.145 2.1-8.286 6.265-10.796 10.857-1.398 2.559-1.526 7.378-1.744 65.7-.234 62.863-.232 62.945 1.61 67.226 3.779 8.784 14.033 15.089 23.248 14.293 3.351-.29 55.677-21.534 221.137-89.783 135.566-55.917 218.185-90.43 220.587-92.146 15.21-10.866 17.103-34.17 3.881-47.774-2.035-2.094-5.565-4.748-7.844-5.896-3.287-1.657-388.448-161.67-423.557-175.965-9.984-4.065-15.824-5.057-20.907-3.552M256 170.201c112.875 46.816 205.74 85.403 206.368 85.749.765.421-.223 1.211-2.986 2.389-12.28 5.238-408.847 168.637-410.102 168.976-1.409.381-1.493-2.248-1.493-46.568v-46.973l4.48-.904c2.464-.497 57.194-10.902 121.622-23.121 64.429-12.219 119.149-22.968 121.6-23.887 6.526-2.444 12.788-8.321 16.154-15.158 2.613-5.307 2.81-6.311 2.81-14.277 0-7.967-.197-8.971-2.81-14.278-3.419-6.945-9.528-12.605-16.316-15.115-2.622-.97-58.527-11.941-124.234-24.38-65.706-12.44-120.33-22.813-121.386-23.052l-1.92-.435v-47.443c0-44.767.084-47.421 1.493-47.043.821.22 93.845 38.704 206.72 85.52" fill-rule="evenodd"/></svg>