<svg xmlns="http://www.w3.org/2000/svg" width="512" height="512"><path d="M376.32 48.61c-13.006 1.399-25.587 7.232-35.434 16.427-15.016 14.024-21.83 30.814-20.533 50.59.308 4.693.643 9.612.744 10.931.178 2.329-1.898 3.57-71.07 42.519-39.19 22.067-72.253 40.648-73.475 41.292-2.111 1.114-2.469.96-7.253-3.109-6.724-5.721-14.638-10.066-22.942-12.598-5.805-1.77-8.576-2.084-18.357-2.084-9.781 0-12.552.314-18.357 2.084-20.507 6.252-36.71 22.533-43.212 43.418-2.882 9.259-2.882 26.581 0 35.84 6.548 21.033 22.616 37.101 43.649 43.649 5.374 1.673 8.246 1.992 17.92 1.992 9.674 0 12.546-.319 17.92-1.992 8.68-2.702 16.405-6.903 22.988-12.502l5.494-4.672 2.612 1.533c1.437.843 34.613 19.527 73.725 41.518 69.074 38.84 71.097 40.049 70.599 42.19-.282 1.212-.75 6.06-1.039 10.772a66.511 66.511 0 0 0 4.089 27.399c4.018 10.739 15.959 24.627 26.879 31.26 2.801 1.702 8.719 4.334 13.153 5.85 7.521 2.572 8.83 2.756 19.58 2.756 10.75 0 12.059-.184 19.58-2.756 10.017-3.425 16.558-7.352 24.099-14.466 14.394-13.578 21.191-30.539 20.061-50.062-1.363-23.564-14.544-43.258-36.007-53.797-22.297-10.948-49.367-7.659-68.703 8.349l-5.556 4.6-73.598-41.402-73.598-41.402.648-4.315c.83-5.533.834-19.285.007-24.795l-.641-4.267 73.633-41.42 73.632-41.419 5.515 4.564c7.089 5.867 12.397 8.879 20.875 11.844 6.342 2.218 7.764 2.387 20.053 2.387 12.275 0 13.718-.171 20.053-2.38 35.047-12.222 52.614-49.853 39.559-84.743-2.627-7.022-9.397-16.524-16.498-23.156-13.419-12.531-31.786-18.471-50.794-16.427m21.623 34.886c6.255 3.079 11.734 8.583 15.07 15.139 1.874 3.682 2.134 5.281 2.134 13.152 0 7.851-.273 9.541-2.203 13.655-4.285 9.135-13.186 15.893-23.639 17.95-13.35 2.626-28.263-5.19-34.249-17.95-1.93-4.114-2.203-5.804-2.203-13.655 0-7.872.259-9.467 2.131-13.133 4.257-8.335 11.309-14.457 19.873-17.252 2.22-.725 6.26-1.074 10.555-.912 5.789.218 7.895.723 12.531 3.006M141.921 227.371c5.803 2.936 12.239 9.485 15.137 15.402 1.813 3.703 2.089 5.451 2.089 13.227 0 8.19-.212 9.379-2.468 13.831-4.888 9.645-13.944 16.31-24.02 17.678-13.973 1.896-26.89-4.954-33.338-17.678-2.256-4.452-2.468-5.641-2.468-13.831 0-7.793.274-9.516 2.1-13.227 3.69-7.5 10.973-14.171 18.713-17.14 2.038-.782 5.838-1.106 11.226-.958 7.032.194 8.813.562 13.029 2.696M389.002 368.68c2.986.485 7.258 1.808 9.493 2.941 5.536 2.805 11.791 9.272 14.449 14.937 1.93 4.114 2.203 5.804 2.203 13.655 0 7.871-.26 9.47-2.134 13.152-3.36 6.604-8.811 12.058-15.184 15.196-5.222 2.57-6.351 2.799-13.829 2.799-7.478 0-8.607-.229-13.829-2.799-6.373-3.138-11.824-8.592-15.184-15.196-1.874-3.682-2.134-5.281-2.134-13.152 0-7.851.273-9.541 2.203-13.655 4.201-8.955 13.671-16.241 23.164-17.822 2.475-.413 4.692-.792 4.927-.843.234-.051 2.869.303 5.855.787" fill-rule="evenodd"/></svg>