<svg xmlns="http://www.w3.org/2000/svg" width="512" height="512"><path d="M233.019 40.615C168.568 69.057 132.117 80.35 61.284 93.821c-9.708 1.846-18.808 3.955-20.223 4.687-3.649 1.887-6.675 6.22-7.797 11.164-1.224 5.389-1.229 48.907-.008 63.555 4.698 56.367 20.019 107.462 45.698 152.405 7.635 13.362 21.65 33.886 31.699 46.421 10.157 12.669 37.293 40.439 49.347 50.5 24.429 20.39 52.272 38.557 77.79 50.755 17.866 8.541 18.554 8.541 36.42 0 25.518-12.198 53.361-30.365 77.79-50.755 12.054-10.061 39.19-37.831 49.347-50.5 10.049-12.535 24.064-33.059 31.699-46.421 25.669-44.924 41.039-96.19 45.695-152.405 1.215-14.667 1.21-58.177-.008-63.555-1.118-4.942-4.144-9.277-7.794-11.164-1.415-.732-10.515-2.841-20.223-4.687C379.9 80.353 344.769 69.475 278.657 40.543c-15.845-6.934-19.187-8.108-22.948-8.057-3.629.048-7.614 1.476-22.69 8.129m36.869 31.034c56.879 25.16 98.643 38.382 160.619 50.849 8.917 1.794 16.495 3.67 16.84 4.168 1.521 2.2.337 36.932-1.965 57.654-10.011 90.133-53.635 167.179-126.662 223.703-16.874 13.06-37.564 26.195-54.4 34.534l-8.32 4.122-8.32-4.122c-53.554-26.527-105.176-73.77-135.78-124.261-25.767-42.512-40.222-86.278-45.802-138.669-1.472-13.822-2.557-51.621-1.52-52.961.386-.498 7.998-2.376 16.915-4.171C143.508 110.008 187.6 96.04 241.606 71.773c7.213-3.241 13.504-5.932 13.982-5.98.477-.047 6.912 2.588 14.3 5.856m58.809 90.208c-1.841.907-20.52 21.83-53.719 60.174l-50.897 58.783-18.387-18.258c-10.113-10.041-19.603-19.083-21.088-20.093-3.859-2.623-9.671-3.235-14.221-1.497-9.712 3.709-13.344 15.668-7.253 23.879 1.093 1.474 13.611 14.087 27.816 28.028 26.814 26.315 27.833 27.109 34.791 27.122 6.79.013 7.318-.534 66.695-69.115 31.086-35.904 57.177-66.624 57.981-68.267 1.687-3.449 1.838-9.901.301-12.881-1.511-2.93-5.16-6.698-7.847-8.102-3.089-1.613-10.684-1.492-14.172.227" fill-rule="evenodd"/></svg>