<svg xmlns="http://www.w3.org/2000/svg" viewBox="0 0 512 512"><path d="M233.019 40.615C168.568 69.057 132.117 80.35 61.284 93.821c-9.708 1.846-18.808 3.955-20.223 4.687-3.649 1.887-6.675 6.22-7.797 11.164-1.224 5.389-1.229 48.907-.008 63.555 4.698 56.367 20.019 107.462 45.698 152.405 7.635 13.362 21.65 33.886 31.699 46.421 10.157 12.669 37.293 40.439 49.347 50.5 24.429 20.39 52.272 38.557 77.79 50.755 17.866 8.541 18.554 8.541 36.42 0 25.518-12.198 53.361-30.365 77.79-50.755 12.054-10.061 39.19-37.831 49.347-50.5 10.049-12.535 24.064-33.059 31.699-46.421 25.669-44.924 41.039-96.19 45.695-152.405 1.215-14.667 1.21-58.177-.008-63.555-1.118-4.942-4.144-9.277-7.794-11.164-1.415-.732-10.515-2.841-20.223-4.687C379.9 80.353 344.769 69.475 278.657 40.543c-15.845-6.934-19.187-8.108-22.948-8.057-3.629.048-7.614 1.476-22.69 8.129m37.061 31.101c32.507 14.408 70.515 28.51 96.497 35.802 15.551 4.364 42.206 10.61 63.93 14.98 8.917 1.794 16.495 3.67 16.84 4.168 1.521 2.2.337 36.932-1.965 57.654-5.391 48.542-20.382 92.893-45.282 133.976-27.292 45.027-69.912 86.317-118.8 115.09-7.145 4.205-23.904 12.907-24.858 12.907-.243 0-.442-85.673-.442-190.384 0-151.978.215-190.294 1.067-189.936.586.246 6.442 2.831 13.013 5.743" fill-rule="evenodd"/></svg>