<svg xmlns="http://www.w3.org/2000/svg" width="512" height="512"><path d="M183.893 34.083c-2.816.839-8.96 2.877-13.653 4.529a166200.21 166200.21 0 0 1-77.181 27.057C55.303 78.898 23.368 90.466 22.092 91.374c-3.008 2.142-5.879 8.131-5.879 12.265 0 4.801 16.873 93.19 18.326 96 1.74 3.366 5.936 6.679 9.66 7.629 1.738.443 14.105 2.037 27.481 3.543 13.376 1.506 25.164 3.057 26.195 3.446 1.032.389 2.548 1.732 3.369 2.985 1.425 2.176 1.348 7.494-1.724 118.438-3.962 143.05-3.791 131.752-2.039 135.02 1.819 3.393 6.844 7.809 9.841 8.648 3.047.852 294.309.852 297.356 0 3.003-.841 8.028-5.261 9.832-8.648 1.739-3.266 1.91 8.031-2.048-135.008-3.075-111.15-3.149-116.247-1.713-118.439.825-1.259 2.344-2.607 3.376-2.996 1.031-.389 12.819-1.94 26.195-3.446 13.376-1.506 25.743-3.1 27.481-3.543 3.724-.95 7.92-4.263 9.66-7.629 1.453-2.81 18.326-91.199 18.326-96 0-4.134-2.871-10.123-5.879-12.265-1.865-1.328-91.207-33.104-151.988-54.057-16.068-5.539-21.787-6.021-34.273-2.887-16.053 4.029-26.748 5.194-47.647 5.19-20.749-.004-32.577-1.285-47.584-5.155-9.376-2.418-17.277-2.541-24.523-.382m44.374 36.296c21.819 2.555 53.568 1.346 74.026-2.82 4.107-.837 7.467-1.246 7.467-.91 0 1.078-6.438 8.76-10.32 12.314-12.467 11.414-26.514 16.869-43.44 16.869s-30.973-5.455-43.44-16.869c-3.882-3.554-10.32-11.236-10.32-12.314 0-.336 3.36.073 7.467.91 4.106.836 12.458 2.105 18.56 2.82m-57.545 5.702c2.13 5.142 9.243 15.128 15.373 21.581 13.348 14.052 28.462 22.935 47.413 27.865 6.497 1.691 9.656 1.967 22.492 1.967s15.995-.276 22.492-1.967c18.81-4.894 34.164-13.917 47.413-27.865 6.13-6.453 13.243-16.439 15.373-21.581.614-1.482 1.549-2.689 2.079-2.682.976.013 117.473 40.693 117.977 41.197.378.378-11.28 61.981-11.834 62.535-.245.245-8.843 1.393-19.106 2.55-10.263 1.157-20.933 2.683-23.71 3.39-14.088 3.589-25.721 16.074-28.716 30.818-.82 4.038-.419 26.019 2.098 115.071 1.712 60.544 3.105 112.096 3.096 114.56l-.015 4.48H128.853l-.011-4.907c-.007-2.698 1.386-54.25 3.094-114.56 2.512-88.637 2.913-110.609 2.095-114.644-2.99-14.74-14.627-27.229-28.715-30.818-2.777-.707-13.447-2.233-23.71-3.39-10.263-1.157-18.862-2.306-19.109-2.553-.565-.565-12.222-62.14-11.837-62.525.59-.59 116.232-41.052 117.556-41.132.8-.049 1.865 1.061 2.506 2.61" fill-rule="evenodd"/></svg>