<svg xmlns="http://www.w3.org/2000/svg" viewBox="0 0 512 512"><path d="M81.493 1.613c-1.877.866-4.313 2.553-5.413 3.748-1.141 1.24-5.842 12.184-10.953 25.499-4.925 12.83-9.401 23.783-9.947 24.342-.546.558-11.513 5.055-24.37 9.993-12.954 4.976-24.322 9.849-25.499 10.932C2.556 78.662.042 84.162.019 87.707c-.023 3.452 1.999 8.454 4.502 11.138 2.654 2.845 5.241 4.01 28.759 12.95 11.499 4.371 21.342 8.365 21.874 8.876.532.511 4.939 11.288 9.795 23.949 9.245 24.105 11.268 27.737 16.717 30.014 6.127 2.56 15.41.264 18.925-4.681.889-1.25 5.653-12.762 10.586-25.582 4.933-12.82 9.176-23.515 9.427-23.767.252-.251 10.947-4.494 23.767-9.427s24.332-9.697 25.582-10.586c4.956-3.523 7.253-12.849 4.659-18.912-2.378-5.558-5.328-7.203-29.669-16.546-12.838-4.928-23.761-9.407-24.272-9.953-.511-.546-4.505-10.401-8.876-21.9-4.371-11.499-8.62-22.251-9.441-23.893-4.028-8.05-13.01-11.398-20.861-7.774m310.694 32.748c-1.833 1.048-4.043 2.866-4.909 4.039-.867 1.173-7.082 16.453-13.811 33.954-6.729 17.502-12.584 32.136-13.011 32.521-.427.384-15.176 6.2-32.776 12.924-28.2 10.773-32.365 12.6-35.075 15.384-7.618 7.827-5.326 20.262 4.612 25.017 2.44 1.167 17.684 7.187 33.876 13.379 16.192 6.191 29.541 11.34 29.664 11.44.123.101 5.827 14.72 12.676 32.487 6.849 17.767 13.085 33.146 13.857 34.176 5.648 7.533 17.712 8.224 24.26 1.389 1.538-1.605 6.207-12.64 14.882-35.17l12.64-32.831 32.141-12.388c17.677-6.814 33.358-13.293 34.845-14.399 8.441-6.275 7.411-20.478-1.862-25.69-1.727-.971-17.046-7.119-34.041-13.664-16.996-6.544-30.996-12.01-31.11-12.147-.115-.137-5.275-13.497-11.466-29.689-13.923-36.412-14.359-37.338-18.963-40.32-4.739-3.068-11.488-3.238-16.429-.412M96.898 79.406c1.358 1.418 5.367 3.542 9.86 5.225 4.165 1.56 7.576 3.073 7.58 3.362.005.29-3.351 1.792-7.458 3.339-9.555 3.599-11.966 6.002-15.591 15.548-1.56 4.107-3.058 7.463-3.329 7.458-.271-.004-1.769-3.415-3.329-7.58-1.683-4.493-3.807-8.502-5.225-9.86-1.313-1.259-5.948-3.757-10.298-5.552-8.886-3.665-8.959-3.304 1.457-7.226 6.926-2.609 11.298-6.656 13.088-12.115.597-1.821 1.822-5.037 2.722-7.147l1.636-3.835 3.299 7.997c1.815 4.399 4.329 9.073 5.588 10.386m309.238 28.967c6.271 16.501 7.009 18.035 10.016 20.824 1.295 1.201 9.185 4.757 18.366 8.278 8.853 3.395 15.796 6.458 15.429 6.807-.367.349-7.771 3.349-16.454 6.666-12.505 4.777-16.32 6.611-18.355 8.821-1.745 1.897-4.444 7.714-8.42 18.151-3.219 8.448-6.126 15.66-6.461 16.027-.335.367-3.387-6.576-6.782-15.429-3.521-9.181-7.077-17.071-8.278-18.366-2.789-3.007-4.323-3.745-20.824-10.016-7.744-2.943-14.35-5.576-14.679-5.852-.33-.276 6.236-3.12 14.59-6.319 17.28-6.616 19.932-8.023 22.225-11.793.902-1.483 4.257-9.533 7.456-17.888 3.199-8.354 6.043-14.92 6.319-14.59.276.329 2.909 6.935 5.852 14.679m-206.172 21.154c-5.447 1.947-9.954 5.311-12.625 9.422-1.119 1.722-11.69 28.277-23.492 59.011-11.801 30.734-21.598 56.022-21.771 56.195-.173.173-25.191 9.888-55.596 21.589-30.404 11.7-56.911 22.229-58.905 23.397-15.139 8.872-15.034 32.907.182 41.825 2.094 1.227 28.622 11.777 58.952 23.444 30.331 11.668 55.265 21.333 55.411 21.479.146.146 10.057 25.724 22.024 56.84 13.004 33.81 22.688 57.792 24.067 59.6 4.325 5.671 12.42 9.656 19.634 9.666 6.841.01 12.226-2.325 17.384-7.538l4.781-4.83 21.599-56.32c11.88-30.976 22.048-56.749 22.595-57.273.548-.523 25.764-10.452 56.036-22.063 30.272-11.612 55.746-21.487 56.609-21.945 3.44-1.827 8.496-7.214 10.611-11.305 3.187-6.165 3.187-15.277 0-21.442-2.115-4.091-7.171-9.478-10.611-11.305-.863-.458-26.337-10.333-56.609-21.945-30.272-11.611-55.488-21.54-56.036-22.063-.547-.524-10.704-26.234-22.57-57.132-18.947-49.338-21.982-56.644-24.925-59.987-6.737-7.654-17.539-10.61-26.745-7.32m27.437 93.385c11.1 28.927 19.552 49.733 21.003 51.707 1.336 1.817 3.88 4.293 5.652 5.503 1.773 1.209 25.016 10.562 51.651 20.784 26.634 10.222 48.426 18.828 48.426 19.125 0 .296-20.832 8.526-46.293 18.289-25.461 9.762-48.541 18.924-51.287 20.36-2.998 1.567-6.098 4.056-7.755 6.226-1.948 2.552-8.236 17.886-21.366 52.102-10.233 26.667-18.857 48.772-19.165 49.123-.308.35-8.768-20.77-18.799-46.934-10.032-26.163-18.909-48.932-19.728-50.595-.819-1.664-3.181-4.585-5.249-6.49-4.145-3.821-2.681-3.212-66.563-27.703-20.06-7.69-36.473-14.174-36.473-14.409 0-.235 16.413-6.719 36.473-14.409 63.882-24.491 62.418-23.882 66.563-27.703 2.068-1.905 4.43-4.826 5.249-6.49.819-1.663 9.696-24.432 19.728-50.595 10.031-26.164 18.491-47.284 18.799-46.934.308.351 8.918 22.42 19.134 49.043" fill-rule="evenodd"/></svg>