<svg xmlns="http://www.w3.org/2000/svg" width="512" height="512"><path d="M245.76 48.327c-44.974 2.307-86.377 15.803-122.88 40.054-12.247 8.137-25.772 19.278-36.693 30.227-36.941 37.033-59.739 82.524-67.999 135.685-2.138 13.761-2.181 52.516-.074 66.346 7.514 49.31 28.402 94.031 59.573 127.543 6.311 6.786 8.827 8.836 13.865 11.3 8.355 4.086 16.536 5.418 24.715 4.024 10.445-1.78 15.46-4.74 27.255-16.089 11.513-11.077 17.035-15.548 27.998-22.664 40.621-26.369 93.474-31.945 139.52-14.718 21.901 8.193 37.975 18.655 57.438 37.382 11.795 11.349 16.81 14.309 27.255 16.089 8.156 1.39 16.362.06 24.655-3.995 7.383-3.61 15.869-12.186 27.858-28.153 23.866-31.787 39.347-69.164 45.484-109.819 1.869-12.382 2.532-42.519 1.23-55.954-7.639-78.879-52.469-147.746-121.732-187.002-26.178-14.837-62.007-26.224-91.201-28.986-11.179-1.058-28.548-1.666-36.267-1.27m40.96 34.015c91.843 13.707 163.178 86.408 175.421 178.779 1.902 14.357 1.889 39.577-.029 54.186-4.861 37.022-20.906 74.289-44.524 103.411-8.793 10.842-11.477 13.069-15.751 13.069-3.219 0-4.072-.61-13.425-9.604-29.942-28.793-64.806-46.086-105.532-52.348-12.871-1.979-40.889-1.979-53.76 0-40.869 6.284-75.479 23.448-105.513 52.329-9.372 9.013-10.224 9.623-13.444 9.623-4.274 0-6.958-2.227-15.751-13.069-23.654-29.167-39.646-66.307-44.527-103.411-1.935-14.715-1.941-40.722-.011-54.614 2.821-20.313 8.3-39.908 15.865-56.746 30.879-68.724 93.883-114.53 168.928-122.816 10.84-1.197 40.551-.506 52.053 1.211m-34.56 30.219c-5.68 1.411-9.961 5.507-11.482 10.985-.485 1.746-.876 11.238-.868 21.094.016 19.754.543 22.289 5.629 27.039 8.006 7.478 20.349 4.678 25.157-5.706 1.378-2.976 1.582-5.707 1.594-21.333.015-19.201-.514-22.799-3.951-26.884-3.756-4.464-10.393-6.608-16.079-5.195m-112.988 46.743c-3.461.713-8.217 4.392-10.17 7.867-2.196 3.907-2.439 9.834-.585 14.27 1.384 3.313 22.477 25.257 27.869 28.993 3.882 2.69 10.14 3.586 14.652 2.097 3.927-1.296 8.772-6.7 9.959-11.109 1.211-4.496.41-8.524-2.595-13.062-3.115-4.703-24.305-25.543-27.812-27.353-3.016-1.556-8.226-2.34-11.318-1.703m225.052.577c-4.391 1.616-8.125 4.775-20.131 17.037-13.706 13.997-15.864 18.68-12.262 26.609 4.309 9.483 15.533 12.694 23.96 6.853 5.332-3.695 26.419-25.652 27.792-28.939 1.854-4.436 1.611-10.363-.585-14.27-3.61-6.423-12.132-9.733-18.774-7.29m-51.594 57.932c-1.926 1.056-20.303 12.48-40.837 25.387-40.518 25.468-41.982 26.633-45.598 36.297-4.752 12.701.318 27.999 11.674 35.226 8.736 5.56 17.778 6.473 27.585 2.786 7.65-2.875 10.924-6.425 21.538-23.35 5.361-8.55 16.71-26.626 25.218-40.17 16.51-26.278 17.027-27.489 14.133-33.085-1.308-2.531-5.602-5.011-8.675-5.011-.844 0-3.111.864-5.038 1.92M88.579 273.955c-1.735.916-4.231 3.077-5.547 4.802-2.111 2.769-2.392 3.862-2.392 9.311 0 5.599.24 6.47 2.581 9.363 4.947 6.112 6.032 6.356 28.283 6.356 11.914 0 20.755-.362 22.2-.908 5.304-2.004 10.472-9.347 10.472-14.879s-5.168-12.875-10.472-14.879c-1.457-.551-10.186-.893-22.186-.87-17.934.034-20.08.194-22.939 1.704m289.021-.527c-5.29 2.371-9.776 9.057-9.776 14.572 0 5.532 5.168 12.875 10.472 14.879 1.443.545 10.232.908 22.015.908 20.534 0 22.225-.264 26.66-4.157 2.672-2.345 4.816-7.522 4.816-11.63 0-4.108-2.144-9.285-4.816-11.63-4.452-3.907-6.09-4.158-26.929-4.123-14.753.025-20.542.329-22.442 1.181" fill-rule="evenodd"/></svg>