<svg xmlns="http://www.w3.org/2000/svg" width="512" height="512"><path d="M109.316 81.564c-10.808 2.906-20.265 10.938-25.537 21.689l-3.139 6.4v292.694l3.139 6.4a42.482 42.482 0 0 0 19.474 19.474l6.4 3.139h292.694l6.4-3.139a42.482 42.482 0 0 0 19.474-19.474l3.139-6.4V109.653l-3.139-6.4c-5.365-10.939-14.773-18.832-25.904-21.732-7.372-1.92-285.853-1.879-293.001.043m288.105 33.015 2.366 2.366v278.11l-2.366 2.366-2.366 2.366h-278.11l-2.366-2.366-2.366-2.366V117.044l2.026-2.156c1.115-1.187 2.843-2.32 3.84-2.518.998-.199 63.726-.315 139.395-.259l137.581.102 2.366 2.366" fill-rule="evenodd"/></svg>