<svg xmlns="http://www.w3.org/2000/svg" width="512" height="512"><path d="M146.347 17.468c-18.439 4.101-35.062 17.018-43.44 33.754C95.482 66.054 96 54.287 96 208.213c0 144.628-.158 138.664 3.976 150.187 6.575 18.324 23.396 33.747 42.996 39.421l6.788 1.966h212.48l6.788-1.966c21.466-6.215 37.792-22.372 44.576-44.114l2.396-7.68v-136.96c0-155.121.542-142.951-7.045-158.133-3.246-6.497-5.245-9.157-11.663-15.521-8.662-8.588-15.552-13.004-25.665-16.448L364.8 16.64l-106.667-.155c-86.252-.126-107.646.062-111.786.983m210.166 31.129c13.05 1.887 23.361 11.213 26.326 23.811.759 3.225 1.139 10.986 1.148 23.471l.013 18.653-2.347-.609c-6.998-1.817-22.913-2.08-125.653-2.08-102.74 0-118.655.263-125.653 2.08l-2.347.609.013-18.653c.015-20.334.767-25.704 4.488-32.054 4.568-7.795 13.511-13.906 22.213-15.177 6.388-.934 195.364-.982 201.799-.051M203.52 64.712c-15.763 5.244-14.863 27.32 1.255 30.776 6.025 1.292 96.425 1.292 102.45 0 8.189-1.756 13.495-9.15 12.554-17.495-.498-4.418-2.211-7.119-6.953-10.957l-3.223-2.609-52.188-.141c-28.704-.078-52.956.114-53.895.426m171.734 81.311c2.249 1.089 4.651 3.188 6.029 5.269l2.29 3.458.272 19.265c.173 12.273-.067 20.412-.663 22.427-1.262 4.272-4.788 8.272-8.96 10.167-3.291 1.495-8.693 1.567-118.222 1.567s-114.931-.072-118.222-1.567c-4.172-1.895-7.698-5.895-8.96-10.167-.596-2.015-.836-10.154-.663-22.427.271-19.241.275-19.27 2.549-22.703 1.331-2.01 3.812-4.198 5.973-5.268l3.696-1.829 115.571-.001 115.57-.001 3.74 1.81M256 239.787c97.843 0 119.896-.208 123.583-1.165l4.489-1.164-.249 53.004-.25 53.005-2.629 5.549c-3.233 6.821-9.442 13.198-15.715 16.141l-4.696 2.203H151.467l-4.696-2.203c-6.273-2.943-12.482-9.32-15.715-16.141l-2.629-5.549-.25-53.005-.249-53.004 4.489 1.164c3.687.957 25.74 1.165 123.583 1.165m-89.52 49.59c-4.216 1.268-11.154 5.931-14.5 9.745-1.596 1.819-3.9 5.436-5.12 8.039-1.903 4.057-2.22 5.89-2.22 12.839 0 7.01.309 8.767 2.287 12.986 9.513 20.297 35.73 25.235 51.302 9.664 12.896-12.897 12.896-32.403 0-45.3-6.129-6.129-11.767-8.437-21.162-8.662-4.224-.102-8.988.208-10.587.689m157.653 1.027c-10.5 4.425-17.274 12.851-19.523 24.284-3.344 16.997 9.444 34.446 26.991 36.827 13.777 1.87 26.763-5.098 32.96-17.686 2.57-5.222 2.799-6.351 2.799-13.829 0-7.478-.229-8.607-2.799-13.829-3.149-6.395-8.632-11.862-15.196-15.151-3.385-1.697-5.752-2.154-12.298-2.376-7.006-.237-8.763.002-12.934 1.76m-156.88 128.471c-2.112 1.421-14.667 13.452-27.9 26.735-24.645 24.738-27.529 28.34-27.529 34.39 0 5.532 5.168 12.875 10.472 14.879 3.346 1.264 8.635 1.132 12.067-.302 1.592-.665 5.943-4.121 9.667-7.68l6.773-6.47h210.394l6.773 6.47c3.724 3.559 8.075 7.015 9.667 7.68 3.432 1.434 8.721 1.566 12.067.302 5.304-2.004 10.472-9.347 10.472-14.879 0-6.012-2.91-9.646-27.529-34.38-13.233-13.295-25.788-25.333-27.9-26.751-3.485-2.339-4.362-2.55-9.481-2.276-6.767.363-11.107 3.131-13.633 8.695-3.026 6.662-1.995 12.016 3.592 18.659l3.41 4.053h-145.27l3.41-4.053c5.587-6.643 6.618-11.997 3.592-18.659-2.526-5.564-6.866-8.332-13.633-8.695-5.122-.274-5.993-.065-9.481 2.282" fill-rule="evenodd"/></svg>