<svg xmlns="http://www.w3.org/2000/svg" width="512" height="512"><path d="M247.743 34.579c-1.96 1.175-4.456 3.571-5.547 5.325-1.948 3.134-1.987 3.656-2.254 30.069-.297 29.432-.064 31.381 4.35 36.408 6.434 7.328 16.982 7.328 23.416 0 4.414-5.027 4.647-6.976 4.35-36.408-.267-26.458-.303-26.93-2.266-30.087-4.505-7.247-14.714-9.704-22.049-5.307M101.69 94.844c-6.769 3.351-10.196 11.76-7.82 19.188 1.371 4.283 37.016 40.622 42.237 43.058 12.578 5.869 26.007-6.1 21.756-19.389-1.37-4.283-37.016-40.622-42.236-43.058-4.522-2.109-9.411-2.039-13.937.201m294.683-.194c-4.659 2.184-40.006 37.773-41.782 42.069-2.308 5.586-1.149 12.765 2.775 17.184 2.191 2.467 7.851 4.78 11.701 4.78 6.319 0 9.475-2.414 29.123-22.268 20.293-20.506 21.401-22.091 20.573-29.438-1.195-10.602-12.632-16.899-22.39-12.327m-155.802 66.587c-31.149 5.688-56.877 24.779-70.5 52.313-6.736 13.616-9.802 26.895-9.802 42.45 0 47.175 33.308 86.445 80.371 94.755 7.657 1.352 24.708 1.17 32.501-.346 39.716-7.729 69.539-37.552 77.268-77.268 1.516-7.793 1.698-24.844.346-32.501-3.112-17.621-11.013-34.468-22.117-47.157-12.821-14.651-29.091-24.877-47.921-30.12-6.892-1.918-10.143-2.292-22.157-2.544-7.744-.163-15.839.025-17.989.418m33.786 33.51c20.12 5.884 36.76 22.491 42.981 42.896 1.77 5.805 2.084 8.576 2.084 18.357 0 9.781-.314 12.552-2.084 18.357-6.252 20.507-22.533 36.71-43.418 43.212-9.259 2.882-26.581 2.882-35.84 0-20.885-6.502-37.166-22.705-43.418-43.212-1.77-5.805-2.084-8.576-2.084-18.357 0-9.781.314-12.552 2.084-18.357 7.06-23.158 26.581-40.421 50.641-44.782 7.113-1.289 21.358-.365 29.054 1.886m-229.91 45.634c-3.786.762-8.543 4.468-10.395 8.098-3.801 7.451-1.204 16.937 5.834 21.313 3.157 1.963 3.629 1.999 30.087 2.266 29.432.297 31.381.064 36.408-4.35 6.791-5.962 7.366-15.824 1.298-22.238-4.972-5.255-4.911-5.245-34.292-5.38-14.784-.069-27.807.062-28.94.291m369.846-.198c-.469.169-1.902.539-3.184.821-3.127.689-8.32 5.362-9.743 8.769-2.616 6.261-.926 13.388 4.253 17.935 5.027 4.414 6.976 4.647 36.408 4.35 26.458-.267 26.93-.303 30.087-2.266 10.248-6.371 10.055-21.498-.35-27.455l-3.711-2.124-26.453-.169c-14.549-.093-26.837-.03-27.307.139M136.107 354.862c-2.106 1.012-10.649 8.952-22.297 20.723-20.293 20.506-21.401 22.091-20.573 29.438 1.195 10.602 12.632 16.899 22.39 12.327 4.659-2.184 40.006-37.773 41.782-42.069 4.212-10.192-2.468-20.985-13.46-21.751-3.126-.217-5.433.174-7.842 1.332m227.537-.669c-8.568 3.432-12.533 12.668-9.053 21.088 1.776 4.296 37.123 39.885 41.782 42.069 12.564 5.887 26.009-6.091 21.757-19.382-1.371-4.283-37.016-40.622-42.237-43.058-3.662-1.709-8.993-2.021-12.249-.717M249.6 401.408c-3.666 1.616-6.956 5.224-8.536 9.361-1.173 3.071-1.331 7.464-1.109 30.859.255 26.888.287 27.325 2.253 30.486 2.794 4.495 8.489 7.656 13.792 7.656 5.303 0 10.998-3.161 13.792-7.656 1.963-3.157 1.999-3.629 2.266-30.087.182-18.019-.042-27.94-.678-30.094-1.194-4.038-5.542-9.058-9.153-10.567-3.469-1.449-9.286-1.43-12.627.042" fill-rule="evenodd"/></svg>