<svg xmlns="http://www.w3.org/2000/svg" width="512" height="512"><path d="M53.303 64.914C29.452 68.945 9.83 86.364 2.425 110.08l-1.998 6.4v279.04l1.998 6.4c6.573 21.051 22.604 37.082 43.655 43.655l6.4 1.998h407.04l6.4-1.998c21.051-6.573 37.082-22.604 43.655-43.655l1.998-6.4V116.48l-1.998-6.4c-6.516-20.867-22.494-36.947-43.218-43.493l-6.837-2.16-200.96-.12c-110.528-.066-202.893.207-205.257.607m408.579 34.433c5.84 2.959 12.273 9.499 15.176 15.426l2.089 4.267v273.92l-2.468 4.871c-4.994 9.855-13.815 16.226-24.633 17.791-7.039 1.018-385.053 1.018-392.092 0-10.818-1.565-19.639-7.936-24.633-17.791l-2.468-4.871V119.04l2.1-4.267c3.705-7.532 11.095-14.283 18.713-17.096 2.539-.938 38.255-1.11 203.187-.981l200.107.157 4.922 2.494" fill-rule="evenodd"/></svg>