<svg xmlns="http://www.w3.org/2000/svg" width="512" height="512"><path d="M264.96 33.631c-3.302 1.468-5.178 3.67-10.236 12.022-2.274 3.755-13.241 20.267-24.37 36.694-44.803 66.129-62.513 94.936-84.464 137.386-3.883 7.51-7.864 14.567-8.848 15.684-3.396 3.854-6.145 4.37-23.308 4.37-32.845.002-45.573 2.875-62.534 14.118-10.873 7.207-22.196 20.383-27.467 31.962-1.389 3.05-3.538 8.81-4.776 12.8-2.249 7.247-2.251 7.279-2.55 41.682-.326 37.489.025 42.133 4.067 53.722 7.627 21.869 24.385 39.494 45.641 48.003 13.409 5.368 18.412 5.902 55.407 5.915l33.202.011 8.185 5.316c25.166 16.346 49.078 24.114 80.851 26.263 20.092 1.36 61.336-1.049 73.728-4.305 2.125-.558 4.812-.432 8.96.423 5.774 1.19 54.135 3.918 72.059 4.064 10.159.084 16.166-1.299 24.315-5.597 6.362-3.355 15.46-12.236 19.064-18.61 5.493-9.712 7.456-23.647 4.851-34.434-1.512-6.261-1.56-7.253-.352-7.253.519 0 3.427-1.185 6.461-2.633 6.329-3.021 15.876-11.576 19.878-17.813 7.772-12.11 9.318-29.413 3.85-43.081l-2.189-5.472 6.684-6.674c11.175-11.157 15.229-21.393 14.474-36.541-.492-9.862-2.488-16.383-7.183-23.466-5.074-7.658-11.707-13.391-20.082-17.358-6.365-3.015-7.421-3.806-7.024-5.256 3.606-13.176 3.596-21.713-.036-32.533-5.215-15.534-17.713-27.811-32.834-32.253-2.576-.757-10.064-1.753-16.64-2.213-27.581-1.933-112.804-8.635-114.605-9.013-1.746-.367-1.894-.749-1.39-3.586 2.341-13.188 6.598-26.158 19.808-60.348 7.515-19.448 8.93-25.103 8.883-35.487-.124-27.49-21.596-47.749-50.52-47.665-3.52.01-7.552.53-8.96 1.156m20.994 34.003c3.628 2.41 6.739 8.428 6.739 13.032 0 4.83-1.531 9.601-10.302 32.087-13.301 34.101-18.461 52.311-19.312 68.154-.581 10.812 1.362 16.272 8.206 23.067 5.387 5.347 7.981 6.358 18.564 7.238l6.969.58-2.52 3.971c-3.953 6.23-5.991 13.911-6.034 22.744-.061 12.329 2.9 21.257 9.56 28.823 1.872 2.126 3.392 4.19 3.379 4.588-.013.397-1.185 1.862-2.604 3.255-13.612 13.361-13.905 41.834-.589 57.14l2.917 3.353-4.029 5.323c-4.784 6.321-7.422 12.921-8.462 21.18-1.647 13.071 2.055 26.183 9.724 34.444 1.888 2.034 2.371 3.12 1.766 3.973-9.726 13.721-11.656 18.968-11.63 31.627.01 4.694.399 9.776.865 11.295.549 1.791.554 2.943.015 3.276-1.848 1.143-40.852 1.465-49.987.414-25.071-2.886-41.095-8.899-63.402-23.793l-9.814-6.552-39.253-.496c-34.256-.433-39.851-.688-43.947-2.002-15.953-5.115-28.104-17.396-32.991-33.342-1.404-4.582-1.569-8.481-1.569-37.12 0-30.66.079-32.251 1.891-38.008 5.005-15.909 20.397-29.948 35.986-32.824 2.528-.466 13.28-.854 23.893-.862 22.216-.018 27.868-.868 37.644-5.663 10.797-5.296 16.075-11.422 25.382-29.457 18.892-36.61 35.388-64.218 63.393-106.092 40.324-60.296 43.776-65.28 45.223-65.28.786 0 2.734.867 4.329 1.927m134.98 154.54c6.004 2.537 10.8 9.874 10.834 16.573.024 4.691-1.612 8.551-4.964 11.715-5.08 4.795-5.337 4.815-47.901 3.805-21.367-.507-41.435-1.318-44.594-1.803-6.696-1.025-10.719-3.403-12.814-7.574-3.428-6.822-.978-13.562 6.276-17.268l4.602-2.35 38.827-2.02c48.313-2.512 46.437-2.471 49.734-1.078m34.927 68.163c4.704 2.644 7.743 8.042 7.743 13.753 0 6.994-3.337 11.877-10.026 14.672-3.086 1.289-8.016 1.322-60.575.407-60.617-1.056-63.172-1.253-68.279-5.27-4.38-3.446-5.963-10.36-3.475-15.173 1.746-3.376 5.923-6.683 9.737-7.71 3.266-.88 56.471-2.204 98.551-2.454 22.287-.132 23.018-.082 26.324 1.775m-16.574 63.706c1.742.888 3.824 2.342 4.627 3.231 2.084 2.304 4.086 7.455 4.086 10.513 0 6.348-5.576 13.874-11.45 15.456-4.109 1.106-97.437-.571-104.198-1.872-8.077-1.555-12.352-6.089-12.352-13.101 0-6.866 3.874-11.47 11.154-13.255 3.791-.93 47.904-2.202 85.093-2.454 17.979-.121 20.176.02 23.04 1.482m-32.831 63.341c2.756 1.416 6.543 5.124 7.914 7.747 2.88 5.513.617 15.402-4.435 19.375-4.723 3.716-6.471 3.794-43.085 1.94-18.962-.96-35.937-2.179-37.722-2.709-1.785-.529-4.473-2.059-5.973-3.4-2.525-2.255-2.728-2.84-2.728-7.84 0-6.54 2.014-9.921 7.472-12.543 3.21-1.542 6.189-1.826 26.234-2.5 34.181-1.149 50.181-1.17 52.323-.07" fill-rule="evenodd"/></svg>