<svg xmlns="http://www.w3.org/2000/svg" width="512" height="512"><path d="M241.493 48.673c-39.799 2.563-78.317 17.074-111.786 42.114-10.589 7.922-31.248 28.596-39.155 39.184-21.846 29.252-35.222 61.365-40.767 97.869-2.061 13.574-2.061 42.746 0 56.32 5.546 36.511 18.94 68.661 40.773 97.869 8.04 10.755 28.658 31.373 39.413 39.413 29.208 21.833 61.358 35.227 97.869 40.773 13.574 2.061 42.746 2.061 56.32 0 36.526-5.548 68.754-18.978 97.869-40.785 10.755-8.056 31.345-28.646 39.401-39.401 21.807-29.115 35.237-61.343 40.785-97.869 2.061-13.574 2.061-42.746 0-56.32-6.752-44.453-25.412-83.157-55.294-114.69-36.541-38.56-84.833-61.088-138.36-64.543-13.196-.852-12.782-.853-27.068.066m42.667 33.635c35.838 6.075 67.575 21.95 93.579 46.81 27.61 26.395 45.561 60.682 52.093 99.5 2.091 12.43 2.073 42.896-.033 55.115-9.878 57.299-44.492 104.256-95.788 129.946-48.421 24.25-107.601 24.25-156.022 0-51.464-25.774-86.214-73.029-95.815-130.297-2.121-12.648-2.121-42.116 0-54.764 10.541-62.873 51.565-113.601 110.675-136.854 13.047-5.132 28.757-8.823 46.938-11.027 6.667-.809 36.585.251 44.373 1.571m-32 30.253c-5.747 1.428-10.008 5.556-11.516 11.156-.599 2.227-.817 27.995-.662 78.255l.231 74.935 1.995 3.207c1.096 1.764 3.784 4.26 5.973 5.547L252.16 288l48.985.247c34.014.171 50.404-.049 53.63-.718 5.536-1.15 10.699-5.346 12.21-9.925 2.485-7.529-1.11-16.485-7.945-19.794-3.653-1.768-4.692-1.81-45.283-1.81h-41.544l-.004-64.64c-.004-41.832-.316-65.76-.887-67.814-1.032-3.716-4.353-7.93-7.53-9.556-3.007-1.538-8.486-2.211-11.632-1.429" fill-rule="evenodd"/></svg>