<svg xmlns="http://www.w3.org/2000/svg" viewBox="0 0 512 512"><path d="M119.743 34.579c-6.164 3.695-7.482 6.871-7.828 18.859l-.298 10.345-13.782.464c-15.16.51-19.398 1.389-29.251 6.068-17.261 8.197-29.899 23.529-35.068 42.545-1.331 4.894-1.472 17.319-1.736 152.953-.193 98.881.007 150.383.606 155.975 1.734 16.211 7.714 28.706 19.037 39.78 10.883 10.644 22.666 16.237 37.876 17.979 10.339 1.185 323.063 1.185 333.402 0 15.508-1.777 28.028-7.887 38.867-18.97 10.873-11.117 16.344-22.877 18.046-38.789.599-5.592.799-57.094.606-155.975-.264-135.634-.405-148.059-1.736-152.953-5.236-19.259-18.058-34.601-35.893-42.947-9.158-4.286-13.576-5.167-28.426-5.666l-13.782-.464-.298-10.345c-.261-9.053-.547-10.745-2.293-13.552-6.157-9.903-21.427-9.903-27.584 0-1.749 2.812-2.032 4.496-2.296 13.661L367.611 64H144.389l-.301-10.453c-.264-9.165-.547-10.849-2.296-13.661-4.505-7.247-14.714-9.704-22.049-5.307m307.32 63.616c9.904 3.706 17.74 12.592 19.81 22.466.6 2.863 1.099 9.334 1.109 14.379l.018 9.173H64v-8.676c0-12.472 1.257-18.524 5.075-24.431 3.82-5.91 8.688-9.946 15.253-12.646l4.845-1.993 166.582-.02c166.462-.02 166.584-.019 171.308 1.748m20.74 201.538-.23 123.947-2.407 5.209c-3.046 6.59-9.646 13.162-16.366 16.296l-5.12 2.388H88.32l-5.209-2.407c-6.59-3.046-13.162-9.646-16.296-16.366l-2.388-5.12-.23-123.947-.23-123.946h384.066l-.23 123.946m-333.199-89.725c-5.635 2.166-12.552 8.358-15.22 13.624-3.505 6.916-3.948 13.321-3.635 52.582.282 35.544.342 36.662 2.209 41.326 2.204 5.502 8.516 12.557 13.489 15.073 6.425 3.252 11.128 3.6 48.553 3.6s42.128-.348 48.553-3.6c4.973-2.516 11.285-9.571 13.489-15.073 1.867-4.664 1.927-5.782 2.209-41.326.313-39.261-.13-45.666-3.635-52.582-2.727-5.382-9.632-11.485-15.463-13.666-4.491-1.681-6.359-1.751-45.398-1.708-38.596.042-40.946.133-45.151 1.75M192 271.787v32h-64v-64h64v32" fill-rule="evenodd"/></svg>