<svg xmlns="http://www.w3.org/2000/svg" width="512" height="512"><path d="M136.96 112.329C78.828 115.23 28.087 152.93 8.484 207.787c-22.8 63.805 2.387 135.246 60.243 170.87 15.986 9.843 36.326 17.181 55.433 19.998 11.216 1.653 253.456 1.659 264.107.006 53.166-8.251 96.375-43.09 114.723-92.503 6.396-17.226 8.553-29.874 8.553-50.158 0-15.941-.706-22.296-3.934-35.413-12.262-49.836-52.972-90.996-102.655-103.793-18.024-4.642-11.063-4.417-141.701-4.574-66.645-.08-123.477-.031-126.293.109m130.782 40.724c-23.145 22.811-36.807 49.303-42.087 81.614-1.703 10.415-1.74 32.04-.072 42.24 5.384 32.942 18.727 58.894 42.242 82.16l8.868 8.774-74.56-.281c-81.589-.308-77.843-.089-93.76-5.487-16.928-5.742-29.975-13.938-43.135-27.098-13.488-13.488-21.698-26.701-27.614-44.438-6.976-20.921-6.976-48.153 0-69.074 5.428-16.274 13.867-30.467 25.07-42.163 18.171-18.97 38.161-29.356 65.733-34.153 2.346-.409 36.67-.786 76.275-.838l72.009-.096-8.969 8.84m122.231-6.709c22.328 4.879 40.964 14.962 56.778 30.721 15.786 15.732 26.078 34.68 30.839 56.777 2.19 10.162 2.19 34.154 0 44.316-9.568 44.406-43.001 77.79-87.617 87.491-9.882 2.149-29.383 2.594-39.678.906-46.628-7.647-83.906-44.171-92.354-90.488-1.898-10.408-1.864-30.787.069-40.726 9.065-46.609 44.867-81.469 92.283-89.854 8.832-1.562 30.778-1.088 39.68.857" fill-rule="evenodd"/></svg>