<svg xmlns="http://www.w3.org/2000/svg" width="512" height="512"><path d="M199.253 17.369c-5.848 1.694-10.205 4.518-15.061 9.763l-4.682 5.057-13.168.444c-11.111.374-14.236.792-19.995 2.674-22.345 7.301-40.486 25.603-47.242 47.661-.967 3.158-2.157 9.63-2.645 14.384-1.166 11.368-1.212 250.013-.049 257.208 1.069 6.614 2.929 10.816 7.415 16.747 13.001 17.192 46.401 33.052 103.924 49.348 18.95 5.368 43.931 11.132 48.25 11.132 7.583 0 48.866-10.689 76.8-19.884 54.383-17.903 79.335-35.207 82.773-57.403.631-4.075.83-45.445.64-133.06l-.275-127.147-1.871-7.019c-5.421-20.336-17.585-36.285-35.187-46.138-10.84-6.068-21.658-8.673-36.098-8.695l-10.072-.014-4.699-5.076c-5.183-5.598-9.971-8.647-15.935-10.149-5.504-1.386-107.983-1.234-112.823.167m105.258 34.45c1.303 4.869 7.004 10.783 11.207 11.623 1.534.307 9.216.558 17.072.558s16.35.392 18.876.871c15.492 2.938 28.525 15.971 31.463 31.463.568 2.992.871 48.067.871 129.374V350.49l-1.786 2.27c-9.45 12.014-59.656 31.432-114.054 44.114L256 399.708l-12.16-2.834c-54.494-12.704-104.588-32.079-114.054-44.114L128 350.49V225.708c0-80.008.308-126.431.858-129.378 2.829-15.158 16.314-28.643 31.472-31.472 2.528-.472 11.024-.858 18.88-.858s15.538-.251 17.072-.558c4.203-.84 9.904-6.754 11.207-11.623l1.078-4.032h94.866l1.078 4.032M166.48 97.408c-4.173 1.211-11.128 5.87-14.5 9.714-1.596 1.819-3.9 5.436-5.12 8.039l-2.22 4.732v80.214l2.287 4.879c4.717 10.064 13.672 16.819 24.593 18.549 7.605 1.205 161.43 1.196 168.96-.009 10.812-1.732 19.287-7.96 24.081-17.697l2.799-5.686v-80.286l-2.799-5.686c-3.138-6.373-8.592-11.824-15.196-15.184l-4.192-2.134-87.893-.144c-55.807-.092-88.954.163-90.8.699M336.213 160v32H175.787v-64h160.426v32m-87.893 80.61c-18.05 1.942-35.326 12.702-45.987 28.642-17.659 26.402-12.087 63.308 12.647 83.759 7.187 5.943 12.47 8.946 20.967 11.918 6.342 2.218 7.764 2.387 20.053 2.387 12.275 0 13.718-.171 20.053-2.38 35.047-12.222 52.614-49.853 39.559-84.743-2.627-7.022-9.397-16.524-16.498-23.156-13.419-12.531-31.786-18.471-50.794-16.427m21.623 34.886c6.255 3.079 11.734 8.583 15.07 15.139 1.874 3.682 2.134 5.281 2.134 13.152 0 7.851-.273 9.541-2.203 13.655-4.285 9.135-13.186 15.893-23.639 17.95-13.35 2.626-28.263-5.19-34.249-17.95-1.93-4.114-2.203-5.804-2.203-13.655 0-7.872.259-9.467 2.131-13.133 4.257-8.335 11.309-14.457 19.873-17.252 2.22-.725 6.26-1.074 10.555-.912 5.789.218 7.895.723 12.531 3.006m-102.69 143.379c-2.112 1.421-14.667 13.452-27.9 26.735-24.645 24.738-27.529 28.34-27.529 34.39 0 5.532 5.168 12.875 10.472 14.879 3.346 1.264 8.635 1.132 12.067-.302 1.592-.665 5.943-4.121 9.667-7.68l6.773-6.47h210.394l6.773 6.47c3.724 3.559 8.075 7.015 9.667 7.68 3.432 1.434 8.721 1.566 12.067.302 5.304-2.004 10.472-9.347 10.472-14.879 0-6.012-2.91-9.646-27.529-34.38-13.233-13.295-25.788-25.333-27.9-26.751-3.485-2.339-4.362-2.55-9.481-2.276-6.767.363-11.107 3.131-13.633 8.695-3.026 6.662-1.995 12.016 3.592 18.659l3.41 4.053h-145.27l3.41-4.053c5.587-6.643 6.618-11.997 3.592-18.659-2.526-5.564-6.866-8.332-13.633-8.695-5.122-.274-5.993-.065-9.481 2.282" fill-rule="evenodd"/></svg>