<svg xmlns="http://www.w3.org/2000/svg" width="512" height="512"><path d="M247.743 34.579c-6.175 3.701-7.482 6.862-7.83 18.94l-.3 10.426-72.233.241-72.233.241-5.947 2.815c-5.457 2.585-8.56 5.422-37.778 34.543-20.773 20.704-32.419 32.939-33.521 35.214-1.973 4.077-2.178 9.549-.501 13.428 1.852 4.283 66.623 68.21 71.347 70.417 7.149 3.339 12.49 3.57 82.986 3.576l68.054.007v31.52l-75.734.24-75.733.24-5.209 2.407c-6.59 3.046-13.162 9.646-16.296 16.366l-2.388 5.12-.238 53.971c-.207 46.944-.064 54.57 1.099 58.569 2.719 9.353 10.101 17.229 19.83 21.158L90.027 416l74.834.248 74.835.248.259 26.206c.254 25.761.292 26.259 2.253 29.412 6.232 10.024 21.352 10.024 27.584 0 1.961-3.153 1.999-3.649 2.254-29.447l.258-26.24 68.008-.007c70.45-.006 75.793-.237 82.941-3.576 4.724-2.207 69.495-66.134 71.347-70.417 1.677-3.879 1.472-9.351-.501-13.428-1.102-2.275-12.748-14.51-33.521-35.214-29.218-29.121-32.321-31.958-37.778-34.543l-5.947-2.815-72.32-.241-72.32-.241v-31.448l74.88-.249 74.88-.248 4.909-1.982c9.219-3.723 17.09-11.801 19.636-20.154.792-2.599 1.055-17.212 1.055-58.504V88.32l-2.407-5.209c-3.046-6.59-9.646-13.162-16.366-16.296l-5.12-2.388-75.646-.24-75.647-.24-.3-10.427c-.263-9.138-.547-10.823-2.295-13.634-4.505-7.247-14.714-9.704-22.049-5.307m167.83 109.634V192H102.838l-24.112-24.101-24.113-24.101 23.675-23.686 23.674-23.685h313.611v47.786m18.128 167.888 23.686 23.674-24.101 24.113L409.185 384H96.427V288.427h313.588l23.686 23.674" fill-rule="evenodd"/></svg>