<svg xmlns="http://www.w3.org/2000/svg" width="512" height="512"><path d="M44.312 32.427c-3.876.798-7.623 3.453-9.97 7.064L32 43.093v88.747l2.339 3.979c2.844 4.838 6.85 7.458 12.322 8.06 5.131.564 10.468-1.967 14.303-6.783l2.609-3.277L64 110.42l.427-23.398 20.464 20.48 20.465 20.481-19.747 19.848c-21.682 21.795-22.434 22.896-21.209 31.062.505 3.369 1.352 4.863 4.598 8.109 3.246 3.246 4.74 4.093 8.109 4.598 8.166 1.225 9.267.473 31.062-21.21l19.849-19.747 7.79 7.789 7.789 7.79-3.803 4.996c-13.043 17.135-22.662 40.744-26.373 64.729-1.359 8.787-1.359 31.319 0 40.106 4.97 32.123 18.511 59.06 40.989 81.537 22.477 22.478 49.414 36.019 81.537 40.989 8.787 1.359 31.319 1.359 40.106 0 23.984-3.711 47.594-13.33 64.728-26.372l4.994-3.801 15.684 15.666 15.683 15.666-19.161 19.278c-12.06 12.134-19.644 20.434-20.465 22.397-3.523 8.434.019 17.251 8.511 21.183 8.825 4.086 12.061 2.173 35.167-20.787l19.044-18.923 27.934 27.831c26.774 26.676 28.108 27.868 32.116 28.695 2.3.474 4.604.737 5.12.583.516-.153 1.988-.509 3.27-.789 2.597-.569 7.886-4.878 9.355-7.623 1.733-3.239 2.212-7.252 1.358-11.392-.8-3.882-2.224-5.471-28.674-32.019l-27.831-27.934 18.923-19.044c22.96-23.106 24.873-26.342 20.787-35.167-3.932-8.492-12.749-12.034-21.183-8.511-1.963.821-10.263 8.405-22.397 20.465l-19.278 19.161-15.666-15.683-15.666-15.684 3.801-4.994c13.042-17.134 22.661-40.744 26.372-64.728 1.359-8.787 1.359-31.319 0-40.106-3.711-23.986-13.33-47.594-26.374-64.731l-3.804-4.997 39.586-39.595 39.586-39.595.427 23.395.427 23.395 2.609 3.277c7.685 9.652 20.563 9.034 26.625-1.277L480 131.84V43.947l-2.263-3.85c-1.388-2.36-3.653-4.63-5.857-5.869l-3.594-2.02-44.49.156-44.489.156-3.553 2.079c-7.092 4.151-9.777 12.932-6.106 19.965 1.088 2.085 3.453 4.965 5.256 6.4l3.277 2.609 23.395.427 23.395.427-39.608 39.599-39.609 39.6-3.317-2.628c-8.609-6.818-24.628-15.584-36.291-19.858-16.417-6.017-31.758-8.669-50.146-8.669-28.444 0-52.27 6.766-76.292 21.665-3.755 2.329-8.32 5.417-10.144 6.861l-3.316 2.627-7.811-7.812-7.811-7.811 19.376-19.414C189.862 88.688 192 85.889 192 79.787c0-10.146-10.774-17.906-20.778-14.965-2.916.857-7.05 4.531-23.391 20.787l-19.848 19.747-20.481-20.465-20.48-20.464L110.42 64l23.399-.427 3.277-2.609c1.803-1.435 4.168-4.315 5.256-6.4 3.672-7.033.985-15.816-6.106-19.964l-3.553-2.077-43.155-.262c-23.735-.143-44.087-.069-45.226.166m228.746 113.065c23.291 3.498 44.753 14.45 61.877 31.573 17.123 17.124 28.075 38.586 31.573 61.877 8.884 59.146-29.435 114.167-88.35 126.861-10.162 2.19-34.154 2.19-44.316 0-22.097-4.761-41.045-15.053-56.777-30.839-43.878-44.03-43.891-114.067-.029-157.928 25.375-25.375 60.428-36.89 96.022-31.544" fill-rule="evenodd"/></svg>