<svg xmlns="http://www.w3.org/2000/svg" width="512" height="512"><path d="M42.971 48.642c-11.809 1.729-22.159 10.742-25.586 22.283-.997 3.358-1.186 9.996-.989 34.667l.244 30.515 2.287 4.879c1.258 2.684 4.03 6.743 6.161 9.021 7.129 7.621 15.749 10.4 32.299 10.413 4.635.004 8.32.363 8.32.811 0 .442 6.14 59.866 13.646 132.053 10.025 96.42 14.091 132.721 15.324 136.796 4.616 15.258 17.962 28.117 33.75 32.517 6.356 1.772 248.79 1.772 255.146 0 15.972-4.451 29.554-17.76 34.056-33.37.979-3.399 28.664-262.118 28.664-267.877 0-.376 5.28-.898 11.734-1.158 6.965-.281 13.467-1.017 16-1.812 8.414-2.642 16.623-10.742 19.981-19.718 1.678-4.483 1.778-6.432 1.769-34.374-.009-31.764-.273-34.157-4.493-40.837-5.221-8.263-13.252-13.446-23.024-14.86-6.427-.929-418.929-.88-425.289.051m421.242 55.465V128H47.787V80.213h416.426v23.894m-50.346 57.611c0 4.278-26.567 256.555-27.283 259.073-1.184 4.165-3.784 7.289-7.751 9.313-3.236 1.651-5.546 1.683-122.833 1.683-117.287 0-119.597-.032-122.833-1.683-3.967-2.024-6.568-5.149-7.75-9.313-.72-2.533-27.284-254.738-27.284-259.036 0-1.197 15.555-1.328 157.867-1.328 140.35 0 157.867.143 157.867 1.291m-221.44 64.305c-3.398 2.11-6.081 5.115-7.197 8.059-1.33 3.51-1.112 9.652.453 12.787.75 1.502 11.787 13.195 24.528 25.984l23.164 23.254-23.634 23.68c-12.999 13.024-24.036 24.761-24.527 26.082-1.357 3.647-1.068 10.051.601 13.324.82 1.609 2.938 4.081 4.705 5.493 4.086 3.265 11.506 4.11 16.063 1.83 1.601-.801 13.374-11.88 26.164-24.62L256 318.732l23.253 23.164c12.79 12.74 24.563 23.819 26.164 24.62 4.557 2.28 11.977 1.435 16.063-1.83 1.767-1.412 3.885-3.884 4.705-5.493 1.669-3.273 1.958-9.677.601-13.324-.491-1.321-11.528-13.058-24.527-26.082l-23.634-23.68 23.164-23.254c12.741-12.789 23.778-24.482 24.528-25.984 1.564-3.133 1.783-9.274.455-12.787-1.111-2.943-4.702-6.835-7.796-8.452-2.719-1.42-9.81-1.58-13.214-.299-1.321.497-13.058 11.528-26.082 24.513L256 273.453l-23.68-23.609c-13.024-12.985-24.761-24.016-26.082-24.513-3.864-1.455-10.925-1.101-13.811.692" fill-rule="evenodd"/></svg>