<svg xmlns="http://www.w3.org/2000/svg" width="512" height="512"><path d="M344.89 129.831c-6.79 3.361-10.345 12.288-7.875 19.773 1.472 4.459 6.651 8.743 11.941 9.877 2.826.606 17.181.946 39.991.946h35.582l-63.571 63.66c-43.351 43.411-64.657 64.169-66.985 65.261-8.909 4.179-10.075 3.386-42.66-29.013-29.772-29.603-34.761-33.709-44.745-36.837-7.807-2.446-21.329-2.446-29.136 0-11.005 3.447-13.25 5.466-78.261 70.352-33.925 33.86-62.664 62.978-63.864 64.707-3.066 4.419-3.82 8.526-2.499 13.617 1.288 4.964 3.872 8.041 8.579 10.213 4.188 1.933 8.844 2.038 13.04.295 2.212-.918 22.301-20.421 66.32-64.384 35.171-35.126 64.211-63.463 65.549-63.962 3.089-1.152 8.345-1.146 11.408.013 1.322.5 15.267 13.681 30.989 29.29 15.723 15.61 30.407 29.616 32.631 31.126 2.225 1.51 6.641 3.773 9.814 5.029 5.214 2.064 6.836 2.284 16.862 2.282 12.381-.003 16.811-1.193 26.027-6.989 2.996-1.885 28.051-26.268 69.3-67.443l64.607-64.491.246 39.332.247 39.332 2.609 3.278c7.684 9.653 20.563 9.036 26.625-1.276L480 259.84l.242-57.112c.167-39.342-.051-58.527-.702-61.662-1.125-5.418-4.138-9.303-8.891-11.462-3.239-1.471-7.061-1.568-62.756-1.585-58.935-.018-59.329-.006-63.003 1.812" fill-rule="evenodd"/></svg>