<svg xmlns="http://www.w3.org/2000/svg" width="512" height="512"><path d="M52.247 81.448c-12.134 2.938-25.399 13.461-30.799 24.431-5.51 11.191-5.213 4.05-5.225 125.835-.01 119.024-.149 114.869 4.165 124.499 5.573 12.438 18.936 23.251 32.764 26.512 7.991 1.884 397.705 1.884 405.696 0 13.828-3.261 27.191-14.074 32.764-26.512 4.314-9.63 4.175-5.475 4.165-124.499-.012-121.785.285-114.644-5.225-125.835-5.604-11.385-19.595-22.152-32.141-24.735-7.056-1.452-400.125-1.158-406.164.304m403.704 32.79c1.791 1.114 4.287 3.582 5.546 5.485l2.29 3.459v216.871l-2.124 3.711c-1.309 2.285-3.603 4.579-5.974 5.973L451.84 352H60.16l-3.849-2.263c-2.371-1.394-4.665-3.688-5.974-5.973l-2.124-3.711V123.307l1.98-3.185c2.326-3.739 6.104-6.627 9.852-7.527 1.471-.354 90.419-.584 197.662-.512l194.986.13 3.258 2.025M121.6 401.428c-5.29 2.371-9.776 9.057-9.776 14.572 0 5.532 5.168 12.875 10.472 14.879 3.371 1.274 264.037 1.274 267.408 0 5.304-2.004 10.472-9.347 10.472-14.879s-5.168-12.875-10.472-14.879c-1.66-.628-43.009-.897-133.973-.874-108.302.027-132.024.236-134.131 1.181" fill-rule="evenodd"/></svg>