<svg xmlns="http://www.w3.org/2000/svg" viewBox="0 0 512 512"><path d="M73.619 65.397c-8.441 4.162-11.796 13.081-7.98 21.216 2.008 4.283 340.611 342.935 344.23 344.28 5.676 2.111 14.098.251 17.761-3.922 4.35-4.956 5.398-12.498 2.506-18.045-2.525-4.845-340.169-341.981-344.135-343.617-4.057-1.674-8.879-1.639-12.382.088m130.562 47.179c-3.786.953-6.519 2.88-9.351 6.593-2.086 2.735-2.403 3.911-2.403 8.899 0 5.126.282 6.101 2.609 9.026 1.435 1.804 4.301 4.143 6.368 5.199 3.712 1.897 4.172 1.92 37.982 1.92 36.551 0 39.315.267 46.481 4.479 4.226 2.484 10.817 8.996 13.173 13.015 4.57 7.796 4.747 9.675 4.747 50.374 0 39.02.167 41.127 3.614 45.626 6.129 7.997 18.99 7.989 25.241-.016 3.539-4.533 3.712-7.06 3.355-49.051-.385-45.322-.401-45.459-7.045-58.88-8.541-17.253-24.715-30.47-43.512-35.555-6.41-1.734-9.013-1.861-42.667-2.084-19.712-.131-37.078.074-38.592.455M44.8 125.639c-5.746 2.061-15.427 12.485-20.422 21.989-1.616 3.075-4.018 8.653-5.338 12.395l-2.4 6.804-.242 86.186c-.265 94.408-.35 92.544 4.773 105.125 6.347 15.587 20.393 29.567 36.851 36.678 12.834 5.545 11.157 5.473 121.267 5.188 109.433-.284 102.469.049 115.111-5.502 6.128-2.691 9.03-5.573 10.712-10.638 1.583-4.767 1.143-8.06-1.752-13.1-4.14-7.208-12.124-8.984-23.04-5.125l-5.973 2.112-98.181.018c-97.586.018-98.214.007-103.501-1.779-12.716-4.294-22.127-15.688-24.074-29.144-1.095-7.574-1.017-155.795.086-162.766 1.202-7.595 4.03-13.024 10.563-20.277 8.138-9.036 9.141-15.029 3.758-22.459-4.143-5.719-11.62-8.063-18.198-5.705m409.173 3.651c-3.866 1.275-87.338 59.413-92.738 64.592-3.955 3.792-7.728 11.454-8.754 17.773-1.191 7.343-1.191 81.347 0 88.69 1.153 7.103 5.229 14.704 10.145 18.917 5.674 4.862 86.183 61.376 89.31 62.692 1.461.615 4.922 1.483 7.692 1.929 13.326 2.146 26.73-5.029 32.933-17.627l2.799-5.687V151.467l-2.27-4.843c-3.045-6.495-8.12-11.808-14.582-15.266-4.744-2.538-6.185-2.881-13.015-3.095-5.095-.159-8.972.186-11.52 1.027m10.24 126.781c0 56.117-.316 95.527-.765 95.36-.422-.156-18.47-12.749-40.107-27.984L384 295.748v-79.441l39.467-27.869c21.706-15.328 39.754-27.901 40.106-27.94.352-.039.64 42.969.64 95.573" fill-rule="evenodd"/></svg>