<svg xmlns="http://www.w3.org/2000/svg" width="512" height="512"><path d="M75.947 112.664c-16.208 2.005-28.307 7.898-39.787 19.378-10.006 10.006-15.92 20.766-18.634 33.903-1.97 9.539-1.97 170.571 0 180.11 4.443 21.51 19.573 39.726 40.496 48.758 12.65 5.461 11.372 5.402 117.663 5.383 58.9-.01 98.367-.344 101.953-.862 14.806-2.141 27.048-8.403 38.171-19.525 11.386-11.386 17.569-23.716 19.609-39.102.569-4.292.776-35.796.587-89.4-.329-93.231.097-87.104-7.053-101.547-8.524-17.22-24.542-30.329-43.512-35.608l-6.827-1.9-98.56-.137c-54.208-.076-101.056.171-104.106.549m378.026 16.626c-3.866 1.275-87.338 59.413-92.738 64.592-3.955 3.792-7.728 11.454-8.754 17.773-1.191 7.343-1.191 81.347 0 88.69 1.153 7.103 5.229 14.704 10.145 18.917 5.674 4.862 86.183 61.376 89.31 62.692 1.461.615 4.922 1.483 7.692 1.929 13.326 2.146 26.73-5.029 32.933-17.627l2.799-5.687V151.467l-2.27-4.843c-3.045-6.495-8.12-11.808-14.582-15.266-4.744-2.538-6.185-2.881-13.015-3.095-5.095-.159-8.972.186-11.52 1.027m-175.728 16.285c5.983 1.757 9.642 3.946 14.701 8.795 4.933 4.728 7.65 9.171 9.498 15.53 1.241 4.268 1.36 13.316 1.15 87.882l-.234 83.125-2.738 5.78c-3.597 7.594-10.341 14.338-17.935 17.935l-5.78 2.738-99.234.227c-87.343.2-99.777.07-103.762-1.089-12.99-3.776-23.326-15.861-25.312-29.597-1.015-7.019-1.015-154.783 0-161.802 1.975-13.656 11.624-25.056 24.788-29.286 4.371-1.404 11.397-1.511 102.458-1.554 87.082-.041 98.272.103 102.4 1.316m185.968 110.496c0 56.117-.316 95.527-.765 95.36-.422-.156-18.47-12.749-40.107-27.984L384 295.748v-79.441l39.467-27.869c21.706-15.328 39.754-27.901 40.106-27.94.352-.039.64 42.969.64 95.573" fill-rule="evenodd"/></svg>