<svg xmlns="http://www.w3.org/2000/svg" width="512" height="512"><path d="M246.897 41.686c-2.425.838-5.819 2.599-7.541 3.913-6.628 5.055-39.117 45.995-58.619 73.868-47.821 68.344-75.663 127.691-83.07 177.066-1.658 11.047-1.892 35.409-.452 46.934 4.926 39.429 19.19 70.083 43.717 93.946 24.027 23.376 53.213 36.56 91.601 41.376 10.242 1.285 36.32 1.271 46.934-.026 38.067-4.651 67.569-17.969 91.601-41.35 27.025-26.294 41.499-60.339 44.476-104.616 3.863-57.448-23.831-127.279-85.058-214.475-20.065-28.576-51.841-68.338-58.423-73.106-6.933-5.022-16.83-6.41-25.166-3.53M266 86.4c42.77 51.967 82.15 114.212 100.426 158.734 16.773 40.86 21.163 74.687 14.147 108.999C368.485 413.253 322.37 448 256 448c-24.089 0-44.997-4.341-63.573-13.2-28.616-13.647-49.685-38.91-58.434-70.069-3.941-14.036-5.438-25.962-5.454-43.451-.015-16.29 1.052-24.929 5.003-40.515 11.452-45.178 44.811-106.142 92.462-168.978C238.621 95.15 255.016 75.093 256 75.093c.382 0 4.882 5.088 10 11.307m71.477 227.109c-3.51 1.53-7.807 6.614-8.892 10.521-.493 1.773-.898 5.178-.9 7.567-.007 6.319-2.955 16.851-6.483 23.159-3.758 6.72-12.485 16.125-18.938 20.408-6.84 4.54-16.863 7.759-27.174 8.727-6.629.622-9.337 1.266-11.619 2.762-6.468 4.24-8.999 11.874-6.288 18.972 3.194 8.363 9.488 11.076 22.848 9.848 15.479-1.423 32.528-7.889 44.236-16.776 6.869-5.215 16.441-15.243 20.716-21.704 8.295-12.538 13.863-28.99 14.851-43.884.464-6.997.317-8.212-1.435-11.83-3.67-7.583-13.216-11.127-20.922-7.77" fill-rule="evenodd"/></svg>